G04 Layer_Color=2752767*
%FSLAX26Y26*%
%MOIN*%
%TF.FileFunction,Drawing*%
%TF.Part,Single*%
G01*
G75*
%TA.AperFunction,NonConductor*%
%ADD28C,0.005000*%
%ADD44C,0.006667*%
D28*
X3680000Y1880000D02*
Y1920000D01*
X3720000D01*
Y1880000D01*
X3680000D01*
Y1310000D02*
Y1350000D01*
X3720000D01*
Y1310000D01*
X3680000D01*
Y380000D02*
Y420000D01*
X3720000D01*
Y380000D01*
X3680000D01*
Y-220000D02*
Y-180000D01*
X3720000D01*
Y-220000D01*
X3680000D01*
Y80000D02*
Y120000D01*
X3720000D01*
Y80000D01*
X3680000D01*
Y1580000D02*
Y1620000D01*
X3720000D01*
Y1580000D01*
X3680000D01*
Y680000D02*
Y720000D01*
X3720000D01*
Y680000D01*
X3680000D01*
Y980000D02*
Y1020000D01*
X3720000D01*
Y980000D01*
X3680000D01*
X900000Y1967500D02*
X880000Y2007500D01*
X920000D01*
X900000Y1967500D01*
X2800000Y-232500D02*
X2810000Y-222500D01*
X2820000D01*
X2810000Y-212500D01*
X2820000Y-202500D01*
X2810000D01*
X2800000Y-192500D01*
X2790000Y-202500D01*
X2780000D01*
X2790000Y-212500D01*
X2780000Y-222500D01*
X2790000D01*
X2800000Y-232500D01*
Y-132500D02*
X2810000Y-122500D01*
X2820000D01*
X2810000Y-112500D01*
X2820000Y-102500D01*
X2810000D01*
X2800000Y-92500D01*
X2790000Y-102500D01*
X2780000D01*
X2790000Y-112500D01*
X2780000Y-122500D01*
X2790000D01*
X2800000Y-132500D01*
Y-32500D02*
X2810000Y-22500D01*
X2820000D01*
X2810000Y-12500D01*
X2820000Y-2500D01*
X2810000D01*
X2800000Y7500D01*
X2790000Y-2500D01*
X2780000D01*
X2790000Y-12500D01*
X2780000Y-22500D01*
X2790000D01*
X2800000Y-32500D01*
Y67500D02*
X2810000Y77500D01*
X2820000D01*
X2810000Y87500D01*
X2820000Y97500D01*
X2810000D01*
X2800000Y107500D01*
X2790000Y97500D01*
X2780000D01*
X2790000Y87500D01*
X2780000Y77500D01*
X2790000D01*
X2800000Y67500D01*
Y167500D02*
X2810000Y177500D01*
X2820000D01*
X2810000Y187500D01*
X2820000Y197500D01*
X2810000D01*
X2800000Y207500D01*
X2790000Y197500D01*
X2780000D01*
X2790000Y187500D01*
X2780000Y177500D01*
X2790000D01*
X2800000Y167500D01*
Y267500D02*
X2810000Y277500D01*
X2820000D01*
X2810000Y287500D01*
X2820000Y297500D01*
X2810000D01*
X2800000Y307500D01*
X2790000Y297500D01*
X2780000D01*
X2790000Y287500D01*
X2780000Y277500D01*
X2790000D01*
X2800000Y267500D01*
Y367500D02*
X2810000Y377500D01*
X2820000D01*
X2810000Y387500D01*
X2820000Y397500D01*
X2810000D01*
X2800000Y407500D01*
X2790000Y397500D01*
X2780000D01*
X2790000Y387500D01*
X2780000Y377500D01*
X2790000D01*
X2800000Y367500D01*
Y467500D02*
X2810000Y477500D01*
X2820000D01*
X2810000Y487500D01*
X2820000Y497500D01*
X2810000D01*
X2800000Y507500D01*
X2790000Y497500D01*
X2780000D01*
X2790000Y487500D01*
X2780000Y477500D01*
X2790000D01*
X2800000Y467500D01*
Y567500D02*
X2810000Y577500D01*
X2820000D01*
X2810000Y587500D01*
X2820000Y597500D01*
X2810000D01*
X2800000Y607500D01*
X2790000Y597500D01*
X2780000D01*
X2790000Y587500D01*
X2780000Y577500D01*
X2790000D01*
X2800000Y567500D01*
Y667500D02*
X2810000Y677500D01*
X2820000D01*
X2810000Y687500D01*
X2820000Y697500D01*
X2810000D01*
X2800000Y707500D01*
X2790000Y697500D01*
X2780000D01*
X2790000Y687500D01*
X2780000Y677500D01*
X2790000D01*
X2800000Y667500D01*
Y767500D02*
X2810000Y777500D01*
X2820000D01*
X2810000Y787500D01*
X2820000Y797500D01*
X2810000D01*
X2800000Y807500D01*
X2790000Y797500D01*
X2780000D01*
X2790000Y787500D01*
X2780000Y777500D01*
X2790000D01*
X2800000Y767500D01*
Y867500D02*
X2810000Y877500D01*
X2820000D01*
X2810000Y887500D01*
X2820000Y897500D01*
X2810000D01*
X2800000Y907500D01*
X2790000Y897500D01*
X2780000D01*
X2790000Y887500D01*
X2780000Y877500D01*
X2790000D01*
X2800000Y867500D01*
Y967500D02*
X2810000Y977500D01*
X2820000D01*
X2810000Y987500D01*
X2820000Y997500D01*
X2810000D01*
X2800000Y1007500D01*
X2790000Y997500D01*
X2780000D01*
X2790000Y987500D01*
X2780000Y977500D01*
X2790000D01*
X2800000Y967500D01*
Y1067500D02*
X2810000Y1077500D01*
X2820000D01*
X2810000Y1087500D01*
X2820000Y1097500D01*
X2810000D01*
X2800000Y1107500D01*
X2790000Y1097500D01*
X2780000D01*
X2790000Y1087500D01*
X2780000Y1077500D01*
X2790000D01*
X2800000Y1067500D01*
Y1167500D02*
X2810000Y1177500D01*
X2820000D01*
X2810000Y1187500D01*
X2820000Y1197500D01*
X2810000D01*
X2800000Y1207500D01*
X2790000Y1197500D01*
X2780000D01*
X2790000Y1187500D01*
X2780000Y1177500D01*
X2790000D01*
X2800000Y1167500D01*
Y1267500D02*
X2810000Y1277500D01*
X2820000D01*
X2810000Y1287500D01*
X2820000Y1297500D01*
X2810000D01*
X2800000Y1307500D01*
X2790000Y1297500D01*
X2780000D01*
X2790000Y1287500D01*
X2780000Y1277500D01*
X2790000D01*
X2800000Y1267500D01*
Y1367500D02*
X2810000Y1377500D01*
X2820000D01*
X2810000Y1387500D01*
X2820000Y1397500D01*
X2810000D01*
X2800000Y1407500D01*
X2790000Y1397500D01*
X2780000D01*
X2790000Y1387500D01*
X2780000Y1377500D01*
X2790000D01*
X2800000Y1367500D01*
Y1467500D02*
X2810000Y1477500D01*
X2820000D01*
X2810000Y1487500D01*
X2820000Y1497500D01*
X2810000D01*
X2800000Y1507500D01*
X2790000Y1497500D01*
X2780000D01*
X2790000Y1487500D01*
X2780000Y1477500D01*
X2790000D01*
X2800000Y1467500D01*
Y1567500D02*
X2810000Y1577500D01*
X2820000D01*
X2810000Y1587500D01*
X2820000Y1597500D01*
X2810000D01*
X2800000Y1607500D01*
X2790000Y1597500D01*
X2780000D01*
X2790000Y1587500D01*
X2780000Y1577500D01*
X2790000D01*
X2800000Y1567500D01*
Y1667500D02*
X2810000Y1677500D01*
X2820000D01*
X2810000Y1687500D01*
X2820000Y1697500D01*
X2810000D01*
X2800000Y1707500D01*
X2790000Y1697500D01*
X2780000D01*
X2790000Y1687500D01*
X2780000Y1677500D01*
X2790000D01*
X2800000Y1667500D01*
Y1767500D02*
X2810000Y1777500D01*
X2820000D01*
X2810000Y1787500D01*
X2820000Y1797500D01*
X2810000D01*
X2800000Y1807500D01*
X2790000Y1797500D01*
X2780000D01*
X2790000Y1787500D01*
X2780000Y1777500D01*
X2790000D01*
X2800000Y1767500D01*
Y1867500D02*
X2810000Y1877500D01*
X2820000D01*
X2810000Y1887500D01*
X2820000Y1897500D01*
X2810000D01*
X2800000Y1907500D01*
X2790000Y1897500D01*
X2780000D01*
X2790000Y1887500D01*
X2780000Y1877500D01*
X2790000D01*
X2800000Y1867500D01*
X2900000Y-232500D02*
X2910000Y-222500D01*
X2920000D01*
X2910000Y-212500D01*
X2920000Y-202500D01*
X2910000D01*
X2900000Y-192500D01*
X2890000Y-202500D01*
X2880000D01*
X2890000Y-212500D01*
X2880000Y-222500D01*
X2890000D01*
X2900000Y-232500D01*
Y-132500D02*
X2910000Y-122500D01*
X2920000D01*
X2910000Y-112500D01*
X2920000Y-102500D01*
X2910000D01*
X2900000Y-92500D01*
X2890000Y-102500D01*
X2880000D01*
X2890000Y-112500D01*
X2880000Y-122500D01*
X2890000D01*
X2900000Y-132500D01*
Y-32500D02*
X2910000Y-22500D01*
X2920000D01*
X2910000Y-12500D01*
X2920000Y-2500D01*
X2910000D01*
X2900000Y7500D01*
X2890000Y-2500D01*
X2880000D01*
X2890000Y-12500D01*
X2880000Y-22500D01*
X2890000D01*
X2900000Y-32500D01*
Y67500D02*
X2910000Y77500D01*
X2920000D01*
X2910000Y87500D01*
X2920000Y97500D01*
X2910000D01*
X2900000Y107500D01*
X2890000Y97500D01*
X2880000D01*
X2890000Y87500D01*
X2880000Y77500D01*
X2890000D01*
X2900000Y67500D01*
Y167500D02*
X2910000Y177500D01*
X2920000D01*
X2910000Y187500D01*
X2920000Y197500D01*
X2910000D01*
X2900000Y207500D01*
X2890000Y197500D01*
X2880000D01*
X2890000Y187500D01*
X2880000Y177500D01*
X2890000D01*
X2900000Y167500D01*
Y267500D02*
X2910000Y277500D01*
X2920000D01*
X2910000Y287500D01*
X2920000Y297500D01*
X2910000D01*
X2900000Y307500D01*
X2890000Y297500D01*
X2880000D01*
X2890000Y287500D01*
X2880000Y277500D01*
X2890000D01*
X2900000Y267500D01*
Y367500D02*
X2910000Y377500D01*
X2920000D01*
X2910000Y387500D01*
X2920000Y397500D01*
X2910000D01*
X2900000Y407500D01*
X2890000Y397500D01*
X2880000D01*
X2890000Y387500D01*
X2880000Y377500D01*
X2890000D01*
X2900000Y367500D01*
Y467500D02*
X2910000Y477500D01*
X2920000D01*
X2910000Y487500D01*
X2920000Y497500D01*
X2910000D01*
X2900000Y507500D01*
X2890000Y497500D01*
X2880000D01*
X2890000Y487500D01*
X2880000Y477500D01*
X2890000D01*
X2900000Y467500D01*
Y567500D02*
X2910000Y577500D01*
X2920000D01*
X2910000Y587500D01*
X2920000Y597500D01*
X2910000D01*
X2900000Y607500D01*
X2890000Y597500D01*
X2880000D01*
X2890000Y587500D01*
X2880000Y577500D01*
X2890000D01*
X2900000Y567500D01*
Y667500D02*
X2910000Y677500D01*
X2920000D01*
X2910000Y687500D01*
X2920000Y697500D01*
X2910000D01*
X2900000Y707500D01*
X2890000Y697500D01*
X2880000D01*
X2890000Y687500D01*
X2880000Y677500D01*
X2890000D01*
X2900000Y667500D01*
Y767500D02*
X2910000Y777500D01*
X2920000D01*
X2910000Y787500D01*
X2920000Y797500D01*
X2910000D01*
X2900000Y807500D01*
X2890000Y797500D01*
X2880000D01*
X2890000Y787500D01*
X2880000Y777500D01*
X2890000D01*
X2900000Y767500D01*
Y867500D02*
X2910000Y877500D01*
X2920000D01*
X2910000Y887500D01*
X2920000Y897500D01*
X2910000D01*
X2900000Y907500D01*
X2890000Y897500D01*
X2880000D01*
X2890000Y887500D01*
X2880000Y877500D01*
X2890000D01*
X2900000Y867500D01*
Y967500D02*
X2910000Y977500D01*
X2920000D01*
X2910000Y987500D01*
X2920000Y997500D01*
X2910000D01*
X2900000Y1007500D01*
X2890000Y997500D01*
X2880000D01*
X2890000Y987500D01*
X2880000Y977500D01*
X2890000D01*
X2900000Y967500D01*
Y1067500D02*
X2910000Y1077500D01*
X2920000D01*
X2910000Y1087500D01*
X2920000Y1097500D01*
X2910000D01*
X2900000Y1107500D01*
X2890000Y1097500D01*
X2880000D01*
X2890000Y1087500D01*
X2880000Y1077500D01*
X2890000D01*
X2900000Y1067500D01*
Y1167500D02*
X2910000Y1177500D01*
X2920000D01*
X2910000Y1187500D01*
X2920000Y1197500D01*
X2910000D01*
X2900000Y1207500D01*
X2890000Y1197500D01*
X2880000D01*
X2890000Y1187500D01*
X2880000Y1177500D01*
X2890000D01*
X2900000Y1167500D01*
Y1267500D02*
X2910000Y1277500D01*
X2920000D01*
X2910000Y1287500D01*
X2920000Y1297500D01*
X2910000D01*
X2900000Y1307500D01*
X2890000Y1297500D01*
X2880000D01*
X2890000Y1287500D01*
X2880000Y1277500D01*
X2890000D01*
X2900000Y1267500D01*
Y1367500D02*
X2910000Y1377500D01*
X2920000D01*
X2910000Y1387500D01*
X2920000Y1397500D01*
X2910000D01*
X2900000Y1407500D01*
X2890000Y1397500D01*
X2880000D01*
X2890000Y1387500D01*
X2880000Y1377500D01*
X2890000D01*
X2900000Y1367500D01*
Y1467500D02*
X2910000Y1477500D01*
X2920000D01*
X2910000Y1487500D01*
X2920000Y1497500D01*
X2910000D01*
X2900000Y1507500D01*
X2890000Y1497500D01*
X2880000D01*
X2890000Y1487500D01*
X2880000Y1477500D01*
X2890000D01*
X2900000Y1467500D01*
Y1567500D02*
X2910000Y1577500D01*
X2920000D01*
X2910000Y1587500D01*
X2920000Y1597500D01*
X2910000D01*
X2900000Y1607500D01*
X2890000Y1597500D01*
X2880000D01*
X2890000Y1587500D01*
X2880000Y1577500D01*
X2890000D01*
X2900000Y1567500D01*
Y1667500D02*
X2910000Y1677500D01*
X2920000D01*
X2910000Y1687500D01*
X2920000Y1697500D01*
X2910000D01*
X2900000Y1707500D01*
X2890000Y1697500D01*
X2880000D01*
X2890000Y1687500D01*
X2880000Y1677500D01*
X2890000D01*
X2900000Y1667500D01*
Y1767500D02*
X2910000Y1777500D01*
X2920000D01*
X2910000Y1787500D01*
X2920000Y1797500D01*
X2910000D01*
X2900000Y1807500D01*
X2890000Y1797500D01*
X2880000D01*
X2890000Y1787500D01*
X2880000Y1777500D01*
X2890000D01*
X2900000Y1767500D01*
Y1867500D02*
X2910000Y1877500D01*
X2920000D01*
X2910000Y1887500D01*
X2920000Y1897500D01*
X2910000D01*
X2900000Y1907500D01*
X2890000Y1897500D01*
X2880000D01*
X2890000Y1887500D01*
X2880000Y1877500D01*
X2890000D01*
X2900000Y1867500D01*
Y1967500D02*
X2910000Y1977500D01*
X2920000D01*
X2910000Y1987500D01*
X2920000Y1997500D01*
X2910000D01*
X2900000Y2007500D01*
X2890000Y1997500D01*
X2880000D01*
X2890000Y1987500D01*
X2880000Y1977500D01*
X2890000D01*
X2900000Y1967500D01*
X2800000D02*
X2810000Y1977500D01*
X2820000D01*
X2810000Y1987500D01*
X2820000Y1997500D01*
X2810000D01*
X2800000Y2007500D01*
X2790000Y1997500D01*
X2780000D01*
X2790000Y1987500D01*
X2780000Y1977500D01*
X2790000D01*
X2800000Y1967500D01*
X900000Y-232500D02*
X910000Y-222500D01*
X920000D01*
X910000Y-212500D01*
X920000Y-202500D01*
X910000D01*
X900000Y-192500D01*
X890000Y-202500D01*
X880000D01*
X890000Y-212500D01*
X880000Y-222500D01*
X890000D01*
X900000Y-232500D01*
Y-132500D02*
X910000Y-122500D01*
X920000D01*
X910000Y-112500D01*
X920000Y-102500D01*
X910000D01*
X900000Y-92500D01*
X890000Y-102500D01*
X880000D01*
X890000Y-112500D01*
X880000Y-122500D01*
X890000D01*
X900000Y-132500D01*
Y-32500D02*
X910000Y-22500D01*
X920000D01*
X910000Y-12500D01*
X920000Y-2500D01*
X910000D01*
X900000Y7500D01*
X890000Y-2500D01*
X880000D01*
X890000Y-12500D01*
X880000Y-22500D01*
X890000D01*
X900000Y-32500D01*
Y67500D02*
X910000Y77500D01*
X920000D01*
X910000Y87500D01*
X920000Y97500D01*
X910000D01*
X900000Y107500D01*
X890000Y97500D01*
X880000D01*
X890000Y87500D01*
X880000Y77500D01*
X890000D01*
X900000Y67500D01*
Y167500D02*
X910000Y177500D01*
X920000D01*
X910000Y187500D01*
X920000Y197500D01*
X910000D01*
X900000Y207500D01*
X890000Y197500D01*
X880000D01*
X890000Y187500D01*
X880000Y177500D01*
X890000D01*
X900000Y167500D01*
Y267500D02*
X910000Y277500D01*
X920000D01*
X910000Y287500D01*
X920000Y297500D01*
X910000D01*
X900000Y307500D01*
X890000Y297500D01*
X880000D01*
X890000Y287500D01*
X880000Y277500D01*
X890000D01*
X900000Y267500D01*
Y367500D02*
X910000Y377500D01*
X920000D01*
X910000Y387500D01*
X920000Y397500D01*
X910000D01*
X900000Y407500D01*
X890000Y397500D01*
X880000D01*
X890000Y387500D01*
X880000Y377500D01*
X890000D01*
X900000Y367500D01*
Y467500D02*
X910000Y477500D01*
X920000D01*
X910000Y487500D01*
X920000Y497500D01*
X910000D01*
X900000Y507500D01*
X890000Y497500D01*
X880000D01*
X890000Y487500D01*
X880000Y477500D01*
X890000D01*
X900000Y467500D01*
Y567500D02*
X910000Y577500D01*
X920000D01*
X910000Y587500D01*
X920000Y597500D01*
X910000D01*
X900000Y607500D01*
X890000Y597500D01*
X880000D01*
X890000Y587500D01*
X880000Y577500D01*
X890000D01*
X900000Y567500D01*
Y667500D02*
X910000Y677500D01*
X920000D01*
X910000Y687500D01*
X920000Y697500D01*
X910000D01*
X900000Y707500D01*
X890000Y697500D01*
X880000D01*
X890000Y687500D01*
X880000Y677500D01*
X890000D01*
X900000Y667500D01*
Y767500D02*
X910000Y777500D01*
X920000D01*
X910000Y787500D01*
X920000Y797500D01*
X910000D01*
X900000Y807500D01*
X890000Y797500D01*
X880000D01*
X890000Y787500D01*
X880000Y777500D01*
X890000D01*
X900000Y767500D01*
Y867500D02*
X910000Y877500D01*
X920000D01*
X910000Y887500D01*
X920000Y897500D01*
X910000D01*
X900000Y907500D01*
X890000Y897500D01*
X880000D01*
X890000Y887500D01*
X880000Y877500D01*
X890000D01*
X900000Y867500D01*
Y967500D02*
X910000Y977500D01*
X920000D01*
X910000Y987500D01*
X920000Y997500D01*
X910000D01*
X900000Y1007500D01*
X890000Y997500D01*
X880000D01*
X890000Y987500D01*
X880000Y977500D01*
X890000D01*
X900000Y967500D01*
Y1067500D02*
X910000Y1077500D01*
X920000D01*
X910000Y1087500D01*
X920000Y1097500D01*
X910000D01*
X900000Y1107500D01*
X890000Y1097500D01*
X880000D01*
X890000Y1087500D01*
X880000Y1077500D01*
X890000D01*
X900000Y1067500D01*
Y1167500D02*
X910000Y1177500D01*
X920000D01*
X910000Y1187500D01*
X920000Y1197500D01*
X910000D01*
X900000Y1207500D01*
X890000Y1197500D01*
X880000D01*
X890000Y1187500D01*
X880000Y1177500D01*
X890000D01*
X900000Y1167500D01*
Y1267500D02*
X910000Y1277500D01*
X920000D01*
X910000Y1287500D01*
X920000Y1297500D01*
X910000D01*
X900000Y1307500D01*
X890000Y1297500D01*
X880000D01*
X890000Y1287500D01*
X880000Y1277500D01*
X890000D01*
X900000Y1267500D01*
Y1367500D02*
X910000Y1377500D01*
X920000D01*
X910000Y1387500D01*
X920000Y1397500D01*
X910000D01*
X900000Y1407500D01*
X890000Y1397500D01*
X880000D01*
X890000Y1387500D01*
X880000Y1377500D01*
X890000D01*
X900000Y1367500D01*
Y1467500D02*
X910000Y1477500D01*
X920000D01*
X910000Y1487500D01*
X920000Y1497500D01*
X910000D01*
X900000Y1507500D01*
X890000Y1497500D01*
X880000D01*
X890000Y1487500D01*
X880000Y1477500D01*
X890000D01*
X900000Y1467500D01*
Y1567500D02*
X910000Y1577500D01*
X920000D01*
X910000Y1587500D01*
X920000Y1597500D01*
X910000D01*
X900000Y1607500D01*
X890000Y1597500D01*
X880000D01*
X890000Y1587500D01*
X880000Y1577500D01*
X890000D01*
X900000Y1567500D01*
Y1667500D02*
X910000Y1677500D01*
X920000D01*
X910000Y1687500D01*
X920000Y1697500D01*
X910000D01*
X900000Y1707500D01*
X890000Y1697500D01*
X880000D01*
X890000Y1687500D01*
X880000Y1677500D01*
X890000D01*
X900000Y1667500D01*
Y1767500D02*
X910000Y1777500D01*
X920000D01*
X910000Y1787500D01*
X920000Y1797500D01*
X910000D01*
X900000Y1807500D01*
X890000Y1797500D01*
X880000D01*
X890000Y1787500D01*
X880000Y1777500D01*
X890000D01*
X900000Y1767500D01*
Y1867500D02*
X910000Y1877500D01*
X920000D01*
X910000Y1887500D01*
X920000Y1897500D01*
X910000D01*
X900000Y1907500D01*
X890000Y1897500D01*
X880000D01*
X890000Y1887500D01*
X880000Y1877500D01*
X890000D01*
X900000Y1867500D01*
X1000000Y-232500D02*
X1010000Y-222500D01*
X1020000D01*
X1010000Y-212500D01*
X1020000Y-202500D01*
X1010000D01*
X1000000Y-192500D01*
X990000Y-202500D01*
X980000D01*
X990000Y-212500D01*
X980000Y-222500D01*
X990000D01*
X1000000Y-232500D01*
Y-132500D02*
X1010000Y-122500D01*
X1020000D01*
X1010000Y-112500D01*
X1020000Y-102500D01*
X1010000D01*
X1000000Y-92500D01*
X990000Y-102500D01*
X980000D01*
X990000Y-112500D01*
X980000Y-122500D01*
X990000D01*
X1000000Y-132500D01*
Y-32500D02*
X1010000Y-22500D01*
X1020000D01*
X1010000Y-12500D01*
X1020000Y-2500D01*
X1010000D01*
X1000000Y7500D01*
X990000Y-2500D01*
X980000D01*
X990000Y-12500D01*
X980000Y-22500D01*
X990000D01*
X1000000Y-32500D01*
Y67500D02*
X1010000Y77500D01*
X1020000D01*
X1010000Y87500D01*
X1020000Y97500D01*
X1010000D01*
X1000000Y107500D01*
X990000Y97500D01*
X980000D01*
X990000Y87500D01*
X980000Y77500D01*
X990000D01*
X1000000Y67500D01*
Y167500D02*
X1010000Y177500D01*
X1020000D01*
X1010000Y187500D01*
X1020000Y197500D01*
X1010000D01*
X1000000Y207500D01*
X990000Y197500D01*
X980000D01*
X990000Y187500D01*
X980000Y177500D01*
X990000D01*
X1000000Y167500D01*
Y267500D02*
X1010000Y277500D01*
X1020000D01*
X1010000Y287500D01*
X1020000Y297500D01*
X1010000D01*
X1000000Y307500D01*
X990000Y297500D01*
X980000D01*
X990000Y287500D01*
X980000Y277500D01*
X990000D01*
X1000000Y267500D01*
Y367500D02*
X1010000Y377500D01*
X1020000D01*
X1010000Y387500D01*
X1020000Y397500D01*
X1010000D01*
X1000000Y407500D01*
X990000Y397500D01*
X980000D01*
X990000Y387500D01*
X980000Y377500D01*
X990000D01*
X1000000Y367500D01*
Y467500D02*
X1010000Y477500D01*
X1020000D01*
X1010000Y487500D01*
X1020000Y497500D01*
X1010000D01*
X1000000Y507500D01*
X990000Y497500D01*
X980000D01*
X990000Y487500D01*
X980000Y477500D01*
X990000D01*
X1000000Y467500D01*
Y567500D02*
X1010000Y577500D01*
X1020000D01*
X1010000Y587500D01*
X1020000Y597500D01*
X1010000D01*
X1000000Y607500D01*
X990000Y597500D01*
X980000D01*
X990000Y587500D01*
X980000Y577500D01*
X990000D01*
X1000000Y567500D01*
Y667500D02*
X1010000Y677500D01*
X1020000D01*
X1010000Y687500D01*
X1020000Y697500D01*
X1010000D01*
X1000000Y707500D01*
X990000Y697500D01*
X980000D01*
X990000Y687500D01*
X980000Y677500D01*
X990000D01*
X1000000Y667500D01*
Y767500D02*
X1010000Y777500D01*
X1020000D01*
X1010000Y787500D01*
X1020000Y797500D01*
X1010000D01*
X1000000Y807500D01*
X990000Y797500D01*
X980000D01*
X990000Y787500D01*
X980000Y777500D01*
X990000D01*
X1000000Y767500D01*
Y867500D02*
X1010000Y877500D01*
X1020000D01*
X1010000Y887500D01*
X1020000Y897500D01*
X1010000D01*
X1000000Y907500D01*
X990000Y897500D01*
X980000D01*
X990000Y887500D01*
X980000Y877500D01*
X990000D01*
X1000000Y867500D01*
Y967500D02*
X1010000Y977500D01*
X1020000D01*
X1010000Y987500D01*
X1020000Y997500D01*
X1010000D01*
X1000000Y1007500D01*
X990000Y997500D01*
X980000D01*
X990000Y987500D01*
X980000Y977500D01*
X990000D01*
X1000000Y967500D01*
Y1067500D02*
X1010000Y1077500D01*
X1020000D01*
X1010000Y1087500D01*
X1020000Y1097500D01*
X1010000D01*
X1000000Y1107500D01*
X990000Y1097500D01*
X980000D01*
X990000Y1087500D01*
X980000Y1077500D01*
X990000D01*
X1000000Y1067500D01*
Y1167500D02*
X1010000Y1177500D01*
X1020000D01*
X1010000Y1187500D01*
X1020000Y1197500D01*
X1010000D01*
X1000000Y1207500D01*
X990000Y1197500D01*
X980000D01*
X990000Y1187500D01*
X980000Y1177500D01*
X990000D01*
X1000000Y1167500D01*
Y1267500D02*
X1010000Y1277500D01*
X1020000D01*
X1010000Y1287500D01*
X1020000Y1297500D01*
X1010000D01*
X1000000Y1307500D01*
X990000Y1297500D01*
X980000D01*
X990000Y1287500D01*
X980000Y1277500D01*
X990000D01*
X1000000Y1267500D01*
Y1367500D02*
X1010000Y1377500D01*
X1020000D01*
X1010000Y1387500D01*
X1020000Y1397500D01*
X1010000D01*
X1000000Y1407500D01*
X990000Y1397500D01*
X980000D01*
X990000Y1387500D01*
X980000Y1377500D01*
X990000D01*
X1000000Y1367500D01*
Y1467500D02*
X1010000Y1477500D01*
X1020000D01*
X1010000Y1487500D01*
X1020000Y1497500D01*
X1010000D01*
X1000000Y1507500D01*
X990000Y1497500D01*
X980000D01*
X990000Y1487500D01*
X980000Y1477500D01*
X990000D01*
X1000000Y1467500D01*
Y1567500D02*
X1010000Y1577500D01*
X1020000D01*
X1010000Y1587500D01*
X1020000Y1597500D01*
X1010000D01*
X1000000Y1607500D01*
X990000Y1597500D01*
X980000D01*
X990000Y1587500D01*
X980000Y1577500D01*
X990000D01*
X1000000Y1567500D01*
Y1667500D02*
X1010000Y1677500D01*
X1020000D01*
X1010000Y1687500D01*
X1020000Y1697500D01*
X1010000D01*
X1000000Y1707500D01*
X990000Y1697500D01*
X980000D01*
X990000Y1687500D01*
X980000Y1677500D01*
X990000D01*
X1000000Y1667500D01*
Y1767500D02*
X1010000Y1777500D01*
X1020000D01*
X1010000Y1787500D01*
X1020000Y1797500D01*
X1010000D01*
X1000000Y1807500D01*
X990000Y1797500D01*
X980000D01*
X990000Y1787500D01*
X980000Y1777500D01*
X990000D01*
X1000000Y1767500D01*
Y1867500D02*
X1010000Y1877500D01*
X1020000D01*
X1010000Y1887500D01*
X1020000Y1897500D01*
X1010000D01*
X1000000Y1907500D01*
X990000Y1897500D01*
X980000D01*
X990000Y1887500D01*
X980000Y1877500D01*
X990000D01*
X1000000Y1867500D01*
Y1967500D02*
X1010000Y1977500D01*
X1020000D01*
X1010000Y1987500D01*
X1020000Y1997500D01*
X1010000D01*
X1000000Y2007500D01*
X990000Y1997500D01*
X980000D01*
X990000Y1987500D01*
X980000Y1977500D01*
X990000D01*
X1000000Y1967500D01*
X1055000Y-407500D02*
X1065000Y-387500D01*
X1055000Y-367500D01*
X1075000Y-377500D01*
X1095000Y-367500D01*
X1085000Y-387500D01*
X1095000Y-407500D01*
X1075000Y-397500D01*
X1055000Y-407500D01*
X2705000D02*
X2715000Y-387500D01*
X2705000Y-367500D01*
X2725000Y-377500D01*
X2745000Y-367500D01*
X2735000Y-387500D01*
X2745000Y-407500D01*
X2725000Y-397500D01*
X2705000Y-407500D01*
X2830000Y2167500D02*
X2840000Y2187500D01*
X2830000Y2207500D01*
X2850000Y2197500D01*
X2870000Y2207500D01*
X2860000Y2187500D01*
X2870000Y2167500D01*
X2850000Y2177500D01*
X2830000Y2167500D01*
X930000D02*
X940000Y2187500D01*
X930000Y2207500D01*
X950000Y2197500D01*
X970000Y2207500D01*
X960000Y2187500D01*
X970000Y2167500D01*
X950000Y2177500D01*
X930000Y2167500D01*
X-20000Y480000D02*
Y520000D01*
X20000D01*
Y480000D01*
X-20000D01*
X3680000Y-520000D02*
Y-480000D01*
X3720000D01*
Y-520000D01*
X3680000D01*
X-20000Y780000D02*
Y820000D01*
X20000D01*
Y780000D01*
X-20000D01*
Y1080000D02*
Y1120000D01*
X20000D01*
Y1080000D01*
X-20000D01*
Y2330000D02*
X-10000Y2350000D01*
X-20000Y2370000D01*
X0Y2360000D01*
X20000Y2370000D01*
X10000Y2350000D01*
X20000Y2330000D01*
X0Y2340000D01*
X-20000Y2330000D01*
X2380000D02*
X2390000Y2350000D01*
X2380000Y2370000D01*
X2400000Y2360000D01*
X2420000Y2370000D01*
X2410000Y2350000D01*
X2420000Y2330000D01*
X2400000Y2340000D01*
X2380000Y2330000D01*
X2230000Y-20000D02*
X2240000Y0D01*
X2230000Y20000D01*
X2250000Y10000D01*
X2270000Y20000D01*
X2260000Y0D01*
X2270000Y-20000D01*
X2250000Y-10000D01*
X2230000Y-20000D01*
X-20000D02*
X-10000Y0D01*
X-20000Y20000D01*
X0Y10000D01*
X20000Y20000D01*
X10000Y0D01*
X20000Y-20000D01*
X0Y-10000D01*
X-20000Y-20000D01*
X2390000Y690000D02*
Y680000D01*
X2410000D01*
Y690000D01*
X2420000D01*
Y710000D01*
X2410000D01*
Y720000D01*
X2390000D01*
Y710000D01*
X2380000D01*
Y690000D01*
X2390000D01*
Y590000D02*
Y580000D01*
X2410000D01*
Y590000D01*
X2420000D01*
Y610000D01*
X2410000D01*
Y620000D01*
X2390000D01*
Y610000D01*
X2380000D01*
Y590000D01*
X2390000D01*
Y490000D02*
Y480000D01*
X2410000D01*
Y490000D01*
X2420000D01*
Y510000D01*
X2410000D01*
Y520000D01*
X2390000D01*
Y510000D01*
X2380000D01*
Y490000D01*
X2390000D01*
Y390000D02*
Y380000D01*
X2410000D01*
Y390000D01*
X2420000D01*
Y410000D01*
X2410000D01*
Y420000D01*
X2390000D01*
Y410000D01*
X2380000D01*
Y390000D01*
X2390000D01*
Y290000D02*
Y280000D01*
X2410000D01*
Y290000D01*
X2420000D01*
Y310000D01*
X2410000D01*
Y320000D01*
X2390000D01*
Y310000D01*
X2380000D01*
Y290000D01*
X2390000D01*
X2290000Y690000D02*
Y680000D01*
X2310000D01*
Y690000D01*
X2320000D01*
Y710000D01*
X2310000D01*
Y720000D01*
X2290000D01*
Y710000D01*
X2280000D01*
Y690000D01*
X2290000D01*
Y590000D02*
Y580000D01*
X2310000D01*
Y590000D01*
X2320000D01*
Y610000D01*
X2310000D01*
Y620000D01*
X2290000D01*
Y610000D01*
X2280000D01*
Y590000D01*
X2290000D01*
Y490000D02*
Y480000D01*
X2310000D01*
Y490000D01*
X2320000D01*
Y510000D01*
X2310000D01*
Y520000D01*
X2290000D01*
Y510000D01*
X2280000D01*
Y490000D01*
X2290000D01*
Y390000D02*
Y380000D01*
X2310000D01*
Y390000D01*
X2320000D01*
Y410000D01*
X2310000D01*
Y420000D01*
X2290000D01*
Y410000D01*
X2280000D01*
Y390000D01*
X2290000D01*
Y290000D02*
Y280000D01*
X2310000D01*
Y290000D01*
X2320000D01*
Y310000D01*
X2310000D01*
Y320000D01*
X2290000D01*
Y310000D01*
X2280000D01*
Y290000D01*
X2290000D01*
X90000Y1890000D02*
Y1880000D01*
X110000D01*
Y1890000D01*
X120000D01*
Y1910000D01*
X110000D01*
Y1920000D01*
X90000D01*
Y1910000D01*
X80000D01*
Y1890000D01*
X90000D01*
Y1790000D02*
Y1780000D01*
X110000D01*
Y1790000D01*
X120000D01*
Y1810000D01*
X110000D01*
Y1820000D01*
X90000D01*
Y1810000D01*
X80000D01*
Y1790000D01*
X90000D01*
Y1690000D02*
Y1680000D01*
X110000D01*
Y1690000D01*
X120000D01*
Y1710000D01*
X110000D01*
Y1720000D01*
X90000D01*
Y1710000D01*
X80000D01*
Y1690000D01*
X90000D01*
Y1590000D02*
Y1580000D01*
X110000D01*
Y1590000D01*
X120000D01*
Y1610000D01*
X110000D01*
Y1620000D01*
X90000D01*
Y1610000D01*
X80000D01*
Y1590000D01*
X90000D01*
Y1490000D02*
Y1480000D01*
X110000D01*
Y1490000D01*
X120000D01*
Y1510000D01*
X110000D01*
Y1520000D01*
X90000D01*
Y1510000D01*
X80000D01*
Y1490000D01*
X90000D01*
X-10000Y1890000D02*
Y1880000D01*
X10000D01*
Y1890000D01*
X20000D01*
Y1910000D01*
X10000D01*
Y1920000D01*
X-10000D01*
Y1910000D01*
X-20000D01*
Y1890000D01*
X-10000D01*
Y1790000D02*
Y1780000D01*
X10000D01*
Y1790000D01*
X20000D01*
Y1810000D01*
X10000D01*
Y1820000D01*
X-10000D01*
Y1810000D01*
X-20000D01*
Y1790000D01*
X-10000D01*
Y1690000D02*
Y1680000D01*
X10000D01*
Y1690000D01*
X20000D01*
Y1710000D01*
X10000D01*
Y1720000D01*
X-10000D01*
Y1710000D01*
X-20000D01*
Y1690000D01*
X-10000D01*
Y1590000D02*
Y1580000D01*
X10000D01*
Y1590000D01*
X20000D01*
Y1610000D01*
X10000D01*
Y1620000D01*
X-10000D01*
Y1610000D01*
X-20000D01*
Y1590000D01*
X-10000D01*
Y1490000D02*
Y1480000D01*
X10000D01*
Y1490000D01*
X20000D01*
Y1510000D01*
X10000D01*
Y1520000D01*
X-10000D01*
Y1510000D01*
X-20000D01*
Y1490000D01*
X-10000D01*
D44*
X520000Y2250000D02*
G03*
X520000Y2250000I-20000J0D01*
G01*
Y2350000D02*
G03*
X520000Y2350000I-20000J0D01*
G01*
Y2450000D02*
G03*
X520000Y2450000I-20000J0D01*
G01*
X420000D02*
G03*
X420000Y2450000I-20000J0D01*
G01*
Y2350000D02*
G03*
X420000Y2350000I-20000J0D01*
G01*
Y2250000D02*
G03*
X420000Y2250000I-20000J0D01*
G01*
%TF.MD5,d064c4f5e1b040bb7338a33093322358*%
M02*
