G04 Layer_Color=255*
%FSLAX26Y26*%
%MOIN*%
%TF.FileFunction,Pads,Bot*%
%TF.Part,Single*%
G01*
G75*
%TA.AperFunction,ComponentPad*%
%ADD12C,0.082677*%
%ADD13R,0.060000X0.060000*%
%ADD14C,0.060000*%
%ADD15C,0.157480*%
%TA.AperFunction,ViaPad*%
%ADD16C,0.196850*%
%TA.AperFunction,ComponentPad*%
%ADD17C,0.059055*%
D12*
X3700000Y1900000D02*
D03*
Y1330000D02*
D03*
Y400000D02*
D03*
Y-200000D02*
D03*
Y100000D02*
D03*
Y1600000D02*
D03*
Y700000D02*
D03*
Y1000000D02*
D03*
X0Y500000D02*
D03*
X3700000Y-500000D02*
D03*
X0Y800000D02*
D03*
Y1100000D02*
D03*
D13*
X500000Y2250000D02*
D03*
Y2350000D02*
D03*
Y2450000D02*
D03*
X400000D02*
D03*
Y2350000D02*
D03*
Y2250000D02*
D03*
D14*
X900000Y1987500D02*
D03*
X2800000Y-212500D02*
D03*
Y-112500D02*
D03*
Y-12500D02*
D03*
Y87500D02*
D03*
Y187500D02*
D03*
Y287500D02*
D03*
Y387500D02*
D03*
Y487500D02*
D03*
Y587500D02*
D03*
Y687500D02*
D03*
Y787500D02*
D03*
Y887500D02*
D03*
Y987500D02*
D03*
Y1087500D02*
D03*
Y1187500D02*
D03*
Y1287500D02*
D03*
Y1387500D02*
D03*
Y1487500D02*
D03*
Y1587500D02*
D03*
Y1687500D02*
D03*
Y1787500D02*
D03*
Y1887500D02*
D03*
X2900000Y-212500D02*
D03*
Y-112500D02*
D03*
Y-12500D02*
D03*
Y87500D02*
D03*
Y187500D02*
D03*
Y287500D02*
D03*
Y387500D02*
D03*
Y487500D02*
D03*
Y587500D02*
D03*
Y687500D02*
D03*
Y787500D02*
D03*
Y887500D02*
D03*
Y987500D02*
D03*
Y1087500D02*
D03*
Y1187500D02*
D03*
Y1287500D02*
D03*
Y1387500D02*
D03*
Y1487500D02*
D03*
Y1587500D02*
D03*
Y1687500D02*
D03*
Y1787500D02*
D03*
Y1887500D02*
D03*
Y1987500D02*
D03*
X2800000D02*
D03*
X900000Y-212500D02*
D03*
Y-112500D02*
D03*
Y-12500D02*
D03*
Y87500D02*
D03*
Y187500D02*
D03*
Y287500D02*
D03*
Y387500D02*
D03*
Y487500D02*
D03*
Y587500D02*
D03*
Y687500D02*
D03*
Y787500D02*
D03*
Y887500D02*
D03*
Y987500D02*
D03*
Y1087500D02*
D03*
Y1187500D02*
D03*
Y1287500D02*
D03*
Y1387500D02*
D03*
Y1487500D02*
D03*
Y1587500D02*
D03*
Y1687500D02*
D03*
Y1787500D02*
D03*
Y1887500D02*
D03*
X1000000Y-212500D02*
D03*
Y-112500D02*
D03*
Y-12500D02*
D03*
Y87500D02*
D03*
Y187500D02*
D03*
Y287500D02*
D03*
Y387500D02*
D03*
Y487500D02*
D03*
Y587500D02*
D03*
Y687500D02*
D03*
Y787500D02*
D03*
Y887500D02*
D03*
Y987500D02*
D03*
Y1087500D02*
D03*
Y1187500D02*
D03*
Y1287500D02*
D03*
Y1387500D02*
D03*
Y1487500D02*
D03*
Y1587500D02*
D03*
Y1687500D02*
D03*
Y1787500D02*
D03*
Y1887500D02*
D03*
Y1987500D02*
D03*
D15*
X1075000Y-387500D02*
D03*
X2725000D02*
D03*
X2850000Y2187500D02*
D03*
X950000D02*
D03*
D16*
X0Y2350000D02*
D03*
X2400000D02*
D03*
X2250000Y0D02*
D03*
X0D02*
D03*
D17*
X2400000Y700000D02*
D03*
Y600000D02*
D03*
Y500000D02*
D03*
Y400000D02*
D03*
Y300000D02*
D03*
X2300000Y700000D02*
D03*
Y600000D02*
D03*
Y500000D02*
D03*
Y400000D02*
D03*
Y300000D02*
D03*
X100000Y1900000D02*
D03*
Y1800000D02*
D03*
Y1700000D02*
D03*
Y1600000D02*
D03*
Y1500000D02*
D03*
X0Y1900000D02*
D03*
Y1800000D02*
D03*
Y1700000D02*
D03*
Y1600000D02*
D03*
Y1500000D02*
D03*
%TF.MD5,8a05d27817a113ed8d638c205a885269*%
M02*
