G04 Layer_Color=16711935*
%FSLAX26Y26*%
%MOIN*%
%TF.FileFunction,Other,Mechanical_1*%
%TF.Part,Single*%
G01*
G75*
%TA.AperFunction,NonConductor*%
%ADD18C,0.010000*%
%ADD31C,0.006000*%
D18*
X0Y-1210000D02*
Y-112426D01*
X2250000Y-1210000D02*
Y-112426D01*
X0Y-1200000D02*
X898064D01*
X1319936D02*
X2250000D01*
X0D02*
X60000Y-1220000D01*
X0Y-1200000D02*
X60000Y-1180000D01*
X2190000D02*
X2250000Y-1200000D01*
X2190000Y-1220000D02*
X2250000Y-1200000D01*
X-200000Y-1560000D02*
Y-810000D01*
X4000000Y-1560000D02*
Y-810000D01*
X-200000Y-1550000D02*
X1673062D01*
X2094936D02*
X4000000D01*
X-200000D02*
X-140000Y-1570000D01*
X-200000Y-1550000D02*
X-140000Y-1530000D01*
X3940000D02*
X4000000Y-1550000D01*
X3940000Y-1570000D02*
X4000000Y-1550000D01*
X2443528Y300000D02*
X4410000D01*
X4010000Y-800000D02*
X4410000D01*
X4400000Y-65060D02*
Y300000D01*
Y-800000D02*
Y-466940D01*
X4380000Y240000D02*
X4400000Y300000D01*
X4420000Y240000D01*
X4400000Y-800000D02*
X4420000Y-740000D01*
X4380000D02*
X4400000Y-800000D01*
X-710000Y1500000D02*
X-43528D01*
X-710000Y0D02*
X-112426D01*
X-700000Y939938D02*
Y1500000D01*
Y0D02*
Y528062D01*
X-720000Y1440000D02*
X-700000Y1500000D01*
X-680000Y1440000D01*
X-700000Y0D02*
X-680000Y60000D01*
X-720000D02*
X-700000Y0D01*
X-1010000Y2350000D02*
X-112426D01*
X-1010000Y0D02*
X-112426D01*
X-1000000Y1369936D02*
Y2350000D01*
Y0D02*
Y948064D01*
X-1020000Y2290000D02*
X-1000000Y2350000D01*
X-980000Y2290000D01*
X-1000000Y0D02*
X-980000Y60000D01*
X-1020000D02*
X-1000000Y0D01*
D31*
X954050Y-1235990D02*
X914063D01*
X954050Y-1196003D01*
Y-1186006D01*
X944053Y-1176010D01*
X924060D01*
X914063Y-1186006D01*
X1014031Y-1235990D02*
X974044D01*
X1014031Y-1196003D01*
Y-1186006D01*
X1004034Y-1176010D01*
X984040D01*
X974044Y-1186006D01*
X1074011Y-1176010D02*
X1034024D01*
Y-1206000D01*
X1054018Y-1196003D01*
X1064014D01*
X1074011Y-1206000D01*
Y-1225994D01*
X1064014Y-1235990D01*
X1044021D01*
X1034024Y-1225994D01*
X1094005Y-1186006D02*
X1104002Y-1176010D01*
X1123995D01*
X1133992Y-1186006D01*
Y-1225994D01*
X1123995Y-1235990D01*
X1104002D01*
X1094005Y-1225994D01*
Y-1186006D01*
X1153985Y-1235990D02*
Y-1225994D01*
X1163982D01*
Y-1235990D01*
X1153985D01*
X1203969Y-1186006D02*
X1213966Y-1176010D01*
X1233959D01*
X1243956Y-1186006D01*
Y-1225994D01*
X1233959Y-1235990D01*
X1213966D01*
X1203969Y-1225994D01*
Y-1186006D01*
X1263950D02*
X1273947Y-1176010D01*
X1293940D01*
X1303937Y-1186006D01*
Y-1225994D01*
X1293940Y-1235990D01*
X1273947D01*
X1263950Y-1225994D01*
Y-1186006D01*
X1719053Y-1585990D02*
Y-1526010D01*
X1689063Y-1556000D01*
X1729050D01*
X1789030Y-1585990D02*
X1749043D01*
X1789030Y-1546003D01*
Y-1536006D01*
X1779034Y-1526010D01*
X1759040D01*
X1749043Y-1536006D01*
X1809024D02*
X1819021Y-1526010D01*
X1839014D01*
X1849011Y-1536006D01*
Y-1575994D01*
X1839014Y-1585990D01*
X1819021D01*
X1809024Y-1575994D01*
Y-1536006D01*
X1869004D02*
X1879001Y-1526010D01*
X1898995D01*
X1908992Y-1536006D01*
Y-1575994D01*
X1898995Y-1585990D01*
X1879001D01*
X1869004Y-1575994D01*
Y-1536006D01*
X1928985Y-1585990D02*
Y-1575994D01*
X1938982D01*
Y-1585990D01*
X1928985D01*
X1978969Y-1536006D02*
X1988966Y-1526010D01*
X2008959D01*
X2018956Y-1536006D01*
Y-1575994D01*
X2008959Y-1585990D01*
X1988966D01*
X1978969Y-1575994D01*
Y-1536006D01*
X2038949D02*
X2048946Y-1526010D01*
X2068940D01*
X2078936Y-1536006D01*
Y-1575994D01*
X2068940Y-1585990D01*
X2048946D01*
X2038949Y-1575994D01*
Y-1536006D01*
X4435990Y-450940D02*
Y-430947D01*
Y-440943D01*
X4376010D01*
X4386007Y-450940D01*
X4435990Y-400957D02*
Y-380963D01*
Y-390960D01*
X4376010D01*
X4386007Y-400957D01*
Y-350973D02*
X4376010Y-340976D01*
Y-320982D01*
X4386007Y-310986D01*
X4425993D01*
X4435990Y-320982D01*
Y-340976D01*
X4425993Y-350973D01*
X4386007D01*
Y-290992D02*
X4376010Y-280995D01*
Y-261002D01*
X4386007Y-251005D01*
X4425993D01*
X4435990Y-261002D01*
Y-280995D01*
X4425993Y-290992D01*
X4386007D01*
X4435990Y-231012D02*
X4425993D01*
Y-221015D01*
X4435990D01*
Y-231012D01*
X4386007Y-181028D02*
X4376010Y-171031D01*
Y-151037D01*
X4386007Y-141041D01*
X4425993D01*
X4435990Y-151037D01*
Y-171031D01*
X4425993Y-181028D01*
X4386007D01*
Y-121047D02*
X4376010Y-111050D01*
Y-91057D01*
X4386007Y-81060D01*
X4425993D01*
X4435990Y-91057D01*
Y-111050D01*
X4425993Y-121047D01*
X4386007D01*
X-664010Y544061D02*
Y564055D01*
Y554058D01*
X-723990D01*
X-713994Y544061D01*
X-723990Y634032D02*
Y594045D01*
X-694000D01*
X-703997Y614039D01*
Y624035D01*
X-694000Y634032D01*
X-674006D01*
X-664010Y624035D01*
Y604042D01*
X-674006Y594045D01*
X-713994Y654026D02*
X-723990Y664023D01*
Y684016D01*
X-713994Y694013D01*
X-674006D01*
X-664010Y684016D01*
Y664023D01*
X-674006Y654026D01*
X-713994D01*
Y714006D02*
X-723990Y724003D01*
Y743997D01*
X-713994Y753994D01*
X-674006D01*
X-664010Y743997D01*
Y724003D01*
X-674006Y714006D01*
X-713994D01*
X-664010Y773987D02*
X-674006D01*
Y783984D01*
X-664010D01*
Y773987D01*
X-713994Y823971D02*
X-723990Y833968D01*
Y853961D01*
X-713994Y863958D01*
X-674006D01*
X-664010Y853961D01*
Y833968D01*
X-674006Y823971D01*
X-713994D01*
Y883951D02*
X-723990Y893948D01*
Y913942D01*
X-713994Y923938D01*
X-674006D01*
X-664010Y913942D01*
Y893948D01*
X-674006Y883951D01*
X-713994D01*
X-964010Y1004050D02*
Y964063D01*
X-1003997Y1004050D01*
X-1013994D01*
X-1023990Y994053D01*
Y974060D01*
X-1013994Y964063D01*
Y1024044D02*
X-1023990Y1034040D01*
Y1054034D01*
X-1013994Y1064031D01*
X-1003997D01*
X-994000Y1054034D01*
Y1044037D01*
Y1054034D01*
X-984003Y1064031D01*
X-974006D01*
X-964010Y1054034D01*
Y1034040D01*
X-974006Y1024044D01*
X-1023990Y1124011D02*
Y1084024D01*
X-994000D01*
X-1003997Y1104018D01*
Y1114014D01*
X-994000Y1124011D01*
X-974006D01*
X-964010Y1114014D01*
Y1094021D01*
X-974006Y1084024D01*
X-1013994Y1144005D02*
X-1023990Y1154002D01*
Y1173995D01*
X-1013994Y1183992D01*
X-974006D01*
X-964010Y1173995D01*
Y1154002D01*
X-974006Y1144005D01*
X-1013994D01*
X-964010Y1203985D02*
X-974006D01*
Y1213982D01*
X-964010D01*
Y1203985D01*
X-1013994Y1253969D02*
X-1023990Y1263966D01*
Y1283959D01*
X-1013994Y1293956D01*
X-974006D01*
X-964010Y1283959D01*
Y1263966D01*
X-974006Y1253969D01*
X-1013994D01*
Y1313950D02*
X-1023990Y1323947D01*
Y1343940D01*
X-1013994Y1353937D01*
X-974006D01*
X-964010Y1343940D01*
Y1323947D01*
X-974006Y1313950D01*
X-1013994D01*
%TF.MD5,a6d538f2bc7a27b112d451881eff94b2*%
M02*
