G04 Layer_Physical_Order=1*
G04 Layer_Color=255*
%FSLAX26Y26*%
%MOIN*%
%TF.FileFunction,Copper,L1,Top,Signal*%
%TF.Part,Single*%
G01*
G75*
%TA.AperFunction,SMDPad,CuDef*%
%ADD10R,0.029134X0.109843*%
%TA.AperFunction,Conductor*%
%ADD11C,0.010000*%
%TA.AperFunction,ComponentPad*%
%ADD12C,0.082677*%
%ADD13R,0.060000X0.060000*%
%ADD14C,0.060000*%
%ADD15C,0.157480*%
%TA.AperFunction,ViaPad*%
%ADD16C,0.196850*%
%TA.AperFunction,ComponentPad*%
%ADD17C,0.059055*%
G36*
X4000000Y-800000D02*
X-200000D01*
Y2800000D01*
X4000000D01*
Y-800000D01*
D02*
G37*
%LPC*%
G36*
X2300000Y439869D02*
X2289681Y438510D01*
X2280066Y434527D01*
X2271809Y428191D01*
X2265473Y419934D01*
X2261490Y410319D01*
X2260131Y400000D01*
X2261490Y389681D01*
X2265473Y380066D01*
X2271809Y371809D01*
X2280066Y365473D01*
X2289681Y361490D01*
X2300000Y360131D01*
X2310319Y361490D01*
X2319934Y365473D01*
X2328191Y371809D01*
X2334527Y380066D01*
X2338510Y389681D01*
X2339869Y400000D01*
X2338510Y410319D01*
X2334527Y419934D01*
X2328191Y428191D01*
X2319934Y434527D01*
X2310319Y438510D01*
X2300000Y439869D01*
D02*
G37*
G36*
X2400000D02*
X2389681Y438510D01*
X2380066Y434527D01*
X2371809Y428191D01*
X2365473Y419934D01*
X2361490Y410319D01*
X2360131Y400000D01*
X2361490Y389681D01*
X2365473Y380066D01*
X2371809Y371809D01*
X2380066Y365473D01*
X2389681Y361490D01*
X2400000Y360131D01*
X2410319Y361490D01*
X2419934Y365473D01*
X2428191Y371809D01*
X2434527Y380066D01*
X2438510Y389681D01*
X2439869Y400000D01*
X2438510Y410319D01*
X2434527Y419934D01*
X2428191Y428191D01*
X2419934Y434527D01*
X2410319Y438510D01*
X2400000Y439869D01*
D02*
G37*
G36*
X2800000Y427845D02*
X2789558Y426471D01*
X2779827Y422440D01*
X2771472Y416028D01*
X2765060Y407673D01*
X2761030Y397942D01*
X2759655Y387500D01*
X2761030Y377058D01*
X2765060Y367327D01*
X2771472Y358972D01*
X2779827Y352560D01*
X2789558Y348529D01*
X2800000Y347155D01*
X2810442Y348529D01*
X2820173Y352560D01*
X2828528Y358972D01*
X2834940Y367327D01*
X2838970Y377058D01*
X2840345Y387500D01*
X2838970Y397942D01*
X2834940Y407673D01*
X2828528Y416028D01*
X2820173Y422440D01*
X2810442Y426471D01*
X2800000Y427845D01*
D02*
G37*
G36*
X2900000D02*
X2889558Y426471D01*
X2879827Y422440D01*
X2871472Y416028D01*
X2865060Y407673D01*
X2861030Y397942D01*
X2859655Y387500D01*
X2861030Y377058D01*
X2865060Y367327D01*
X2871472Y358972D01*
X2879827Y352560D01*
X2889558Y348529D01*
X2900000Y347155D01*
X2910442Y348529D01*
X2920173Y352560D01*
X2928528Y358972D01*
X2934940Y367327D01*
X2938970Y377058D01*
X2940345Y387500D01*
X2938970Y397942D01*
X2934940Y407673D01*
X2928528Y416028D01*
X2920173Y422440D01*
X2910442Y426471D01*
X2900000Y427845D01*
D02*
G37*
G36*
X900000Y527845D02*
X889558Y526471D01*
X879827Y522440D01*
X871472Y516028D01*
X865060Y507673D01*
X861029Y497942D01*
X859655Y487500D01*
X861029Y477058D01*
X865060Y467327D01*
X871472Y458972D01*
X879827Y452560D01*
X889558Y448529D01*
X900000Y447155D01*
X910442Y448529D01*
X920173Y452560D01*
X928528Y458972D01*
X934940Y467327D01*
X938971Y477058D01*
X940345Y487500D01*
X938971Y497942D01*
X934940Y507673D01*
X928528Y516028D01*
X920173Y522440D01*
X910442Y526471D01*
X900000Y527845D01*
D02*
G37*
G36*
X2900000D02*
X2889558Y526471D01*
X2879827Y522440D01*
X2871472Y516028D01*
X2865060Y507673D01*
X2861030Y497942D01*
X2859655Y487500D01*
X2861030Y477058D01*
X2865060Y467327D01*
X2871472Y458972D01*
X2879827Y452560D01*
X2889558Y448529D01*
X2900000Y447155D01*
X2910442Y448529D01*
X2920173Y452560D01*
X2928528Y458972D01*
X2934940Y467327D01*
X2938970Y477058D01*
X2940345Y487500D01*
X2938970Y497942D01*
X2934940Y507673D01*
X2928528Y516028D01*
X2920173Y522440D01*
X2910442Y526471D01*
X2900000Y527845D01*
D02*
G37*
G36*
X0Y551782D02*
X-13402Y550017D01*
X-25891Y544844D01*
X-36615Y536615D01*
X-44844Y525891D01*
X-50017Y513402D01*
X-51782Y500000D01*
X-50017Y486598D01*
X-44844Y474109D01*
X-36615Y463385D01*
X-25891Y455156D01*
X-13402Y449983D01*
X0Y448218D01*
X13402Y449983D01*
X25891Y455156D01*
X36615Y463385D01*
X44844Y474109D01*
X50017Y486598D01*
X51782Y500000D01*
X50017Y513402D01*
X44844Y525891D01*
X36615Y536615D01*
X25891Y544844D01*
X13402Y550017D01*
X0Y551782D01*
D02*
G37*
G36*
X1000000Y527845D02*
X989558Y526471D01*
X979827Y522440D01*
X971472Y516028D01*
X965060Y507673D01*
X961029Y497942D01*
X959655Y487500D01*
X961029Y477058D01*
X965060Y467327D01*
X971472Y458972D01*
X979827Y452560D01*
X989558Y448529D01*
X1000000Y447155D01*
X1010442Y448529D01*
X1020173Y452560D01*
X1028528Y458972D01*
X1034940Y467327D01*
X1038970Y477058D01*
X1040345Y487500D01*
X1038970Y497942D01*
X1034940Y507673D01*
X1028528Y516028D01*
X1020173Y522440D01*
X1010442Y526471D01*
X1000000Y527845D01*
D02*
G37*
G36*
X2800000D02*
X2789558Y526471D01*
X2779827Y522440D01*
X2771472Y516028D01*
X2765060Y507673D01*
X2761030Y497942D01*
X2759655Y487500D01*
X2761030Y477058D01*
X2765060Y467327D01*
X2771472Y458972D01*
X2779827Y452560D01*
X2789558Y448529D01*
X2800000Y447155D01*
X2810442Y448529D01*
X2820173Y452560D01*
X2828528Y458972D01*
X2834940Y467327D01*
X2838970Y477058D01*
X2840345Y487500D01*
X2838970Y497942D01*
X2834940Y507673D01*
X2828528Y516028D01*
X2820173Y522440D01*
X2810442Y526471D01*
X2800000Y527845D01*
D02*
G37*
G36*
X2900000Y227845D02*
X2889558Y226470D01*
X2879827Y222440D01*
X2871472Y216028D01*
X2865060Y207673D01*
X2861030Y197942D01*
X2859655Y187500D01*
X2861030Y177058D01*
X2865060Y167327D01*
X2871472Y158972D01*
X2879827Y152560D01*
X2889558Y148530D01*
X2900000Y147155D01*
X2910442Y148530D01*
X2920173Y152560D01*
X2928528Y158972D01*
X2934940Y167327D01*
X2938970Y177058D01*
X2940345Y187500D01*
X2938970Y197942D01*
X2934940Y207673D01*
X2928528Y216028D01*
X2920173Y222440D01*
X2910442Y226470D01*
X2900000Y227845D01*
D02*
G37*
G36*
X900000Y327845D02*
X889558Y326471D01*
X879827Y322440D01*
X871472Y316028D01*
X865060Y307673D01*
X861029Y297942D01*
X859655Y287500D01*
X861029Y277058D01*
X865060Y267327D01*
X871472Y258972D01*
X879827Y252560D01*
X889558Y248530D01*
X900000Y247155D01*
X910442Y248530D01*
X920173Y252560D01*
X928528Y258972D01*
X934940Y267327D01*
X938971Y277058D01*
X940345Y287500D01*
X938971Y297942D01*
X934940Y307673D01*
X928528Y316028D01*
X920173Y322440D01*
X910442Y326471D01*
X900000Y327845D01*
D02*
G37*
G36*
X1000000Y227845D02*
X989558Y226470D01*
X979827Y222440D01*
X971472Y216028D01*
X965060Y207673D01*
X961029Y197942D01*
X959655Y187500D01*
X961029Y177058D01*
X965060Y167327D01*
X971472Y158972D01*
X979827Y152560D01*
X989558Y148530D01*
X1000000Y147155D01*
X1010442Y148530D01*
X1020173Y152560D01*
X1028528Y158972D01*
X1034940Y167327D01*
X1038970Y177058D01*
X1040345Y187500D01*
X1038970Y197942D01*
X1034940Y207673D01*
X1028528Y216028D01*
X1020173Y222440D01*
X1010442Y226470D01*
X1000000Y227845D01*
D02*
G37*
G36*
X2800000D02*
X2789558Y226470D01*
X2779827Y222440D01*
X2771472Y216028D01*
X2765060Y207673D01*
X2761030Y197942D01*
X2759655Y187500D01*
X2761030Y177058D01*
X2765060Y167327D01*
X2771472Y158972D01*
X2779827Y152560D01*
X2789558Y148530D01*
X2800000Y147155D01*
X2810442Y148530D01*
X2820173Y152560D01*
X2828528Y158972D01*
X2834940Y167327D01*
X2838970Y177058D01*
X2840345Y187500D01*
X2838970Y197942D01*
X2834940Y207673D01*
X2828528Y216028D01*
X2820173Y222440D01*
X2810442Y226470D01*
X2800000Y227845D01*
D02*
G37*
G36*
X1000000Y327845D02*
X989558Y326471D01*
X979827Y322440D01*
X971472Y316028D01*
X965060Y307673D01*
X961029Y297942D01*
X959655Y287500D01*
X961029Y277058D01*
X965060Y267327D01*
X971472Y258972D01*
X979827Y252560D01*
X989558Y248530D01*
X1000000Y247155D01*
X1010442Y248530D01*
X1020173Y252560D01*
X1028528Y258972D01*
X1034940Y267327D01*
X1038970Y277058D01*
X1040345Y287500D01*
X1038970Y297942D01*
X1034940Y307673D01*
X1028528Y316028D01*
X1020173Y322440D01*
X1010442Y326471D01*
X1000000Y327845D01*
D02*
G37*
G36*
X900000Y427845D02*
X889558Y426471D01*
X879827Y422440D01*
X871472Y416028D01*
X865060Y407673D01*
X861029Y397942D01*
X859655Y387500D01*
X861029Y377058D01*
X865060Y367327D01*
X871472Y358972D01*
X879827Y352560D01*
X889558Y348529D01*
X900000Y347155D01*
X910442Y348529D01*
X920173Y352560D01*
X928528Y358972D01*
X934940Y367327D01*
X938971Y377058D01*
X940345Y387500D01*
X938971Y397942D01*
X934940Y407673D01*
X928528Y416028D01*
X920173Y422440D01*
X910442Y426471D01*
X900000Y427845D01*
D02*
G37*
G36*
X1000000D02*
X989558Y426471D01*
X979827Y422440D01*
X971472Y416028D01*
X965060Y407673D01*
X961029Y397942D01*
X959655Y387500D01*
X961029Y377058D01*
X965060Y367327D01*
X971472Y358972D01*
X979827Y352560D01*
X989558Y348529D01*
X1000000Y347155D01*
X1010442Y348529D01*
X1020173Y352560D01*
X1028528Y358972D01*
X1034940Y367327D01*
X1038970Y377058D01*
X1040345Y387500D01*
X1038970Y397942D01*
X1034940Y407673D01*
X1028528Y416028D01*
X1020173Y422440D01*
X1010442Y426471D01*
X1000000Y427845D01*
D02*
G37*
G36*
X2800000Y327845D02*
X2789558Y326471D01*
X2779827Y322440D01*
X2771472Y316028D01*
X2765060Y307673D01*
X2761030Y297942D01*
X2759655Y287500D01*
X2761030Y277058D01*
X2765060Y267327D01*
X2771472Y258972D01*
X2779827Y252560D01*
X2789558Y248530D01*
X2800000Y247155D01*
X2810442Y248530D01*
X2820173Y252560D01*
X2828528Y258972D01*
X2834940Y267327D01*
X2838970Y277058D01*
X2840345Y287500D01*
X2838970Y297942D01*
X2834940Y307673D01*
X2828528Y316028D01*
X2820173Y322440D01*
X2810442Y326471D01*
X2800000Y327845D01*
D02*
G37*
G36*
X2900000D02*
X2889558Y326471D01*
X2879827Y322440D01*
X2871472Y316028D01*
X2865060Y307673D01*
X2861030Y297942D01*
X2859655Y287500D01*
X2861030Y277058D01*
X2865060Y267327D01*
X2871472Y258972D01*
X2879827Y252560D01*
X2889558Y248530D01*
X2900000Y247155D01*
X2910442Y248530D01*
X2920173Y252560D01*
X2928528Y258972D01*
X2934940Y267327D01*
X2938970Y277058D01*
X2940345Y287500D01*
X2938970Y297942D01*
X2934940Y307673D01*
X2928528Y316028D01*
X2920173Y322440D01*
X2910442Y326471D01*
X2900000Y327845D01*
D02*
G37*
G36*
Y827845D02*
X2889558Y826471D01*
X2879827Y822440D01*
X2871472Y816028D01*
X2865060Y807673D01*
X2861030Y797942D01*
X2859655Y787500D01*
X2861030Y777058D01*
X2865060Y767327D01*
X2871472Y758972D01*
X2879827Y752560D01*
X2889558Y748529D01*
X2900000Y747155D01*
X2910442Y748529D01*
X2920173Y752560D01*
X2928528Y758972D01*
X2934940Y767327D01*
X2938970Y777058D01*
X2940345Y787500D01*
X2938970Y797942D01*
X2934940Y807673D01*
X2928528Y816028D01*
X2920173Y822440D01*
X2910442Y826471D01*
X2900000Y827845D01*
D02*
G37*
G36*
X0Y851782D02*
X-13402Y850017D01*
X-25891Y844844D01*
X-36615Y836615D01*
X-44844Y825891D01*
X-50017Y813402D01*
X-51782Y800000D01*
X-50017Y786598D01*
X-44844Y774109D01*
X-36615Y763385D01*
X-25891Y755156D01*
X-13402Y749983D01*
X0Y748218D01*
X13402Y749983D01*
X25891Y755156D01*
X36615Y763385D01*
X44844Y774109D01*
X50017Y786598D01*
X51782Y800000D01*
X50017Y813402D01*
X44844Y825891D01*
X36615Y836615D01*
X25891Y844844D01*
X13402Y850017D01*
X0Y851782D01*
D02*
G37*
G36*
X2295000Y739210D02*
X2289681Y738510D01*
X2280066Y734527D01*
X2271809Y728191D01*
X2265473Y719934D01*
X2261490Y710319D01*
X2260790Y705000D01*
X2295000D01*
Y739210D01*
D02*
G37*
G36*
X2800000Y827845D02*
X2789558Y826471D01*
X2779827Y822440D01*
X2771472Y816028D01*
X2765060Y807673D01*
X2761030Y797942D01*
X2759655Y787500D01*
X2761030Y777058D01*
X2765060Y767327D01*
X2771472Y758972D01*
X2779827Y752560D01*
X2789558Y748529D01*
X2800000Y747155D01*
X2810442Y748529D01*
X2820173Y752560D01*
X2828528Y758972D01*
X2834940Y767327D01*
X2838970Y777058D01*
X2840345Y787500D01*
X2838970Y797942D01*
X2834940Y807673D01*
X2828528Y816028D01*
X2820173Y822440D01*
X2810442Y826471D01*
X2800000Y827845D01*
D02*
G37*
G36*
X900000Y927845D02*
X889558Y926471D01*
X879827Y922440D01*
X871472Y916028D01*
X865060Y907673D01*
X861029Y897942D01*
X859655Y887500D01*
X861029Y877058D01*
X865060Y867327D01*
X871472Y858972D01*
X879827Y852560D01*
X889558Y848529D01*
X900000Y847155D01*
X910442Y848529D01*
X915321Y850550D01*
X935170Y830701D01*
Y815587D01*
X930170Y813889D01*
X928528Y816028D01*
X920173Y822440D01*
X910442Y826471D01*
X900000Y827845D01*
X889558Y826471D01*
X879827Y822440D01*
X871472Y816028D01*
X865060Y807673D01*
X861029Y797942D01*
X859655Y787500D01*
X861029Y777058D01*
X865060Y767327D01*
X871472Y758972D01*
X879827Y752560D01*
X889558Y748529D01*
X900000Y747155D01*
X910442Y748529D01*
X920173Y752560D01*
X928528Y758972D01*
X932548Y764210D01*
X938696Y764009D01*
X939649Y762582D01*
X977126Y725106D01*
X976799Y720116D01*
X971472Y716028D01*
X965060Y707673D01*
X961029Y697942D01*
X959655Y687500D01*
X961029Y677058D01*
X965060Y667327D01*
X971472Y658972D01*
X979827Y652560D01*
X989558Y648529D01*
X1000000Y647155D01*
X1010442Y648529D01*
X1020173Y652560D01*
X1028528Y658972D01*
X1034940Y667327D01*
X1038970Y677058D01*
X1040345Y687500D01*
X1038970Y697942D01*
X1034940Y707673D01*
X1031461Y712206D01*
X1033927Y717206D01*
X2061165D01*
X2263412Y514959D01*
X2261490Y510319D01*
X2260131Y500000D01*
X2261490Y489681D01*
X2265473Y480066D01*
X2271809Y471809D01*
X2280066Y465473D01*
X2289681Y461490D01*
X2300000Y460131D01*
X2310319Y461490D01*
X2319934Y465473D01*
X2328191Y471809D01*
X2334527Y480066D01*
X2338510Y489681D01*
X2339869Y500000D01*
X2338510Y510319D01*
X2334527Y519934D01*
X2328191Y528191D01*
X2319934Y534527D01*
X2310319Y538510D01*
X2300000Y539869D01*
X2289681Y538510D01*
X2285041Y536588D01*
X2078314Y743314D01*
X2073353Y746630D01*
X2067500Y747794D01*
X1022999D01*
X1020452Y752264D01*
X1020477Y752794D01*
X1028528Y758972D01*
X1034940Y767327D01*
X1036961Y772206D01*
X2106165D01*
X2263412Y614959D01*
X2261490Y610319D01*
X2260131Y600000D01*
X2261490Y589681D01*
X2265473Y580066D01*
X2271809Y571809D01*
X2280066Y565473D01*
X2289681Y561490D01*
X2300000Y560131D01*
X2310319Y561490D01*
X2319934Y565473D01*
X2328191Y571809D01*
X2334527Y580066D01*
X2338510Y589681D01*
X2339869Y600000D01*
X2338510Y610319D01*
X2334527Y619934D01*
X2328191Y628191D01*
X2319934Y634527D01*
X2310319Y638510D01*
X2300000Y639869D01*
X2289681Y638510D01*
X2285041Y636588D01*
X2123314Y798314D01*
X2118353Y801630D01*
X2112500Y802794D01*
X1036961D01*
X1034940Y807673D01*
X1028528Y816028D01*
X1020173Y822440D01*
X1010442Y826471D01*
X1000000Y827845D01*
X989558Y826471D01*
X979827Y822440D01*
X971472Y816028D01*
X970492Y814752D01*
X965758Y816360D01*
Y837036D01*
X964593Y842889D01*
X961278Y847851D01*
X936950Y872179D01*
X938971Y877058D01*
X940345Y887500D01*
X938971Y897942D01*
X934940Y907673D01*
X928528Y916028D01*
X920173Y922440D01*
X910442Y926471D01*
X900000Y927845D01*
D02*
G37*
G36*
X2900000D02*
X2889558Y926471D01*
X2879827Y922440D01*
X2871472Y916028D01*
X2865060Y907673D01*
X2861030Y897942D01*
X2859655Y887500D01*
X2861030Y877058D01*
X2865060Y867327D01*
X2871472Y858972D01*
X2879827Y852560D01*
X2889558Y848529D01*
X2900000Y847155D01*
X2910442Y848529D01*
X2920173Y852560D01*
X2928528Y858972D01*
X2934940Y867327D01*
X2938970Y877058D01*
X2940345Y887500D01*
X2938970Y897942D01*
X2934940Y907673D01*
X2928528Y916028D01*
X2920173Y922440D01*
X2910442Y926471D01*
X2900000Y927845D01*
D02*
G37*
G36*
X900000Y1027845D02*
X889558Y1026470D01*
X879827Y1022440D01*
X871472Y1016028D01*
X865060Y1007673D01*
X861029Y997942D01*
X859655Y987500D01*
X861029Y977058D01*
X865060Y967327D01*
X871472Y958972D01*
X879827Y952560D01*
X889558Y948529D01*
X900000Y947155D01*
X910442Y948529D01*
X920173Y952560D01*
X928528Y958972D01*
X934940Y967327D01*
X938971Y977058D01*
X940345Y987500D01*
X938971Y997942D01*
X934940Y1007673D01*
X928528Y1016028D01*
X920173Y1022440D01*
X910442Y1026470D01*
X900000Y1027845D01*
D02*
G37*
G36*
X1000000Y927845D02*
X989558Y926471D01*
X979827Y922440D01*
X971472Y916028D01*
X965060Y907673D01*
X961029Y897942D01*
X959655Y887500D01*
X961029Y877058D01*
X965060Y867327D01*
X971472Y858972D01*
X979827Y852560D01*
X989558Y848529D01*
X1000000Y847155D01*
X1010442Y848529D01*
X1020173Y852560D01*
X1028528Y858972D01*
X1034940Y867327D01*
X1038970Y877058D01*
X1040345Y887500D01*
X1038970Y897942D01*
X1034940Y907673D01*
X1028528Y916028D01*
X1020173Y922440D01*
X1010442Y926471D01*
X1000000Y927845D01*
D02*
G37*
G36*
X2800000D02*
X2789558Y926471D01*
X2779827Y922440D01*
X2771472Y916028D01*
X2765060Y907673D01*
X2761030Y897942D01*
X2759655Y887500D01*
X2761030Y877058D01*
X2765060Y867327D01*
X2771472Y858972D01*
X2779827Y852560D01*
X2789558Y848529D01*
X2800000Y847155D01*
X2810442Y848529D01*
X2820173Y852560D01*
X2828528Y858972D01*
X2834940Y867327D01*
X2838970Y877058D01*
X2840345Y887500D01*
X2838970Y897942D01*
X2834940Y907673D01*
X2828528Y916028D01*
X2820173Y922440D01*
X2810442Y926471D01*
X2800000Y927845D01*
D02*
G37*
G36*
X1000000Y627845D02*
X989558Y626471D01*
X979827Y622440D01*
X971472Y616028D01*
X965060Y607673D01*
X961029Y597942D01*
X959655Y587500D01*
X961029Y577058D01*
X965060Y567327D01*
X971472Y558972D01*
X979827Y552560D01*
X989558Y548529D01*
X1000000Y547155D01*
X1010442Y548529D01*
X1020173Y552560D01*
X1028528Y558972D01*
X1034940Y567327D01*
X1038970Y577058D01*
X1040345Y587500D01*
X1038970Y597942D01*
X1034940Y607673D01*
X1028528Y616028D01*
X1020173Y622440D01*
X1010442Y626471D01*
X1000000Y627845D01*
D02*
G37*
G36*
X2800000D02*
X2789558Y626471D01*
X2779827Y622440D01*
X2771472Y616028D01*
X2765060Y607673D01*
X2761030Y597942D01*
X2759655Y587500D01*
X2761030Y577058D01*
X2765060Y567327D01*
X2771472Y558972D01*
X2779827Y552560D01*
X2789558Y548529D01*
X2800000Y547155D01*
X2810442Y548529D01*
X2820173Y552560D01*
X2828528Y558972D01*
X2834940Y567327D01*
X2838970Y577058D01*
X2840345Y587500D01*
X2838970Y597942D01*
X2834940Y607673D01*
X2828528Y616028D01*
X2820173Y622440D01*
X2810442Y626471D01*
X2800000Y627845D01*
D02*
G37*
G36*
X2400000Y539869D02*
X2389681Y538510D01*
X2380066Y534527D01*
X2371809Y528191D01*
X2365473Y519934D01*
X2361490Y510319D01*
X2360131Y500000D01*
X2361490Y489681D01*
X2365473Y480066D01*
X2371809Y471809D01*
X2380066Y465473D01*
X2389681Y461490D01*
X2400000Y460131D01*
X2410319Y461490D01*
X2419934Y465473D01*
X2428191Y471809D01*
X2434527Y480066D01*
X2438510Y489681D01*
X2439869Y500000D01*
X2438510Y510319D01*
X2434527Y519934D01*
X2428191Y528191D01*
X2419934Y534527D01*
X2410319Y538510D01*
X2400000Y539869D01*
D02*
G37*
G36*
X900000Y627845D02*
X889558Y626471D01*
X879827Y622440D01*
X871472Y616028D01*
X865060Y607673D01*
X861029Y597942D01*
X859655Y587500D01*
X861029Y577058D01*
X865060Y567327D01*
X871472Y558972D01*
X879827Y552560D01*
X889558Y548529D01*
X900000Y547155D01*
X910442Y548529D01*
X920173Y552560D01*
X928528Y558972D01*
X934940Y567327D01*
X938971Y577058D01*
X940345Y587500D01*
X938971Y597942D01*
X934940Y607673D01*
X928528Y616028D01*
X920173Y622440D01*
X910442Y626471D01*
X900000Y627845D01*
D02*
G37*
G36*
X2900000D02*
X2889558Y626471D01*
X2879827Y622440D01*
X2871472Y616028D01*
X2865060Y607673D01*
X2861030Y597942D01*
X2859655Y587500D01*
X2861030Y577058D01*
X2865060Y567327D01*
X2871472Y558972D01*
X2879827Y552560D01*
X2889558Y548529D01*
X2900000Y547155D01*
X2910442Y548529D01*
X2920173Y552560D01*
X2928528Y558972D01*
X2934940Y567327D01*
X2938970Y577058D01*
X2940345Y587500D01*
X2938970Y597942D01*
X2934940Y607673D01*
X2928528Y616028D01*
X2920173Y622440D01*
X2910442Y626471D01*
X2900000Y627845D01*
D02*
G37*
G36*
Y727845D02*
X2889558Y726471D01*
X2879827Y722440D01*
X2871472Y716028D01*
X2865060Y707673D01*
X2861030Y697942D01*
X2859655Y687500D01*
X2861030Y677058D01*
X2865060Y667327D01*
X2871472Y658972D01*
X2879827Y652560D01*
X2889558Y648529D01*
X2900000Y647155D01*
X2910442Y648529D01*
X2920173Y652560D01*
X2928528Y658972D01*
X2934940Y667327D01*
X2938970Y677058D01*
X2940345Y687500D01*
X2938970Y697942D01*
X2934940Y707673D01*
X2928528Y716028D01*
X2920173Y722440D01*
X2910442Y726471D01*
X2900000Y727845D01*
D02*
G37*
G36*
X2295000Y695000D02*
X2260790D01*
X2261490Y689681D01*
X2265473Y680066D01*
X2271809Y671809D01*
X2280066Y665473D01*
X2289681Y661490D01*
X2295000Y660790D01*
Y695000D01*
D02*
G37*
G36*
X900000Y727845D02*
X889558Y726471D01*
X879827Y722440D01*
X871472Y716028D01*
X865060Y707673D01*
X861029Y697942D01*
X859655Y687500D01*
X861029Y677058D01*
X865060Y667327D01*
X871472Y658972D01*
X879827Y652560D01*
X889558Y648529D01*
X900000Y647155D01*
X910442Y648529D01*
X920173Y652560D01*
X928528Y658972D01*
X934940Y667327D01*
X938971Y677058D01*
X940345Y687500D01*
X938971Y697942D01*
X934940Y707673D01*
X928528Y716028D01*
X920173Y722440D01*
X910442Y726471D01*
X900000Y727845D01*
D02*
G37*
G36*
X2800000D02*
X2789558Y726471D01*
X2779827Y722440D01*
X2771472Y716028D01*
X2765060Y707673D01*
X2761030Y697942D01*
X2759655Y687500D01*
X2761030Y677058D01*
X2765060Y667327D01*
X2771472Y658972D01*
X2779827Y652560D01*
X2789558Y648529D01*
X2800000Y647155D01*
X2810442Y648529D01*
X2820173Y652560D01*
X2828528Y658972D01*
X2834940Y667327D01*
X2838970Y677058D01*
X2840345Y687500D01*
X2838970Y697942D01*
X2834940Y707673D01*
X2828528Y716028D01*
X2820173Y722440D01*
X2810442Y726471D01*
X2800000Y727845D01*
D02*
G37*
G36*
X900000Y227845D02*
X889558Y226470D01*
X879827Y222440D01*
X871472Y216028D01*
X865060Y207673D01*
X861029Y197942D01*
X859655Y187500D01*
X861029Y177058D01*
X865060Y167327D01*
X871472Y158972D01*
X879827Y152560D01*
X889558Y148530D01*
X900000Y147155D01*
X910442Y148530D01*
X920173Y152560D01*
X928528Y158972D01*
X934940Y167327D01*
X938971Y177058D01*
X940345Y187500D01*
X938971Y197942D01*
X934940Y207673D01*
X928528Y216028D01*
X920173Y222440D01*
X910442Y226470D01*
X900000Y227845D01*
D02*
G37*
G36*
X2939687Y-217500D02*
X2905000D01*
Y-252187D01*
X2910442Y-251470D01*
X2920173Y-247440D01*
X2928528Y-241028D01*
X2934940Y-232673D01*
X2938970Y-222942D01*
X2939687Y-217500D01*
D02*
G37*
G36*
X2795000Y-172813D02*
X2789558Y-173530D01*
X2779827Y-177560D01*
X2771472Y-183972D01*
X2765060Y-192327D01*
X2761030Y-202058D01*
X2760313Y-207500D01*
X2795000D01*
Y-172813D01*
D02*
G37*
G36*
X2895000Y-217500D02*
X2860313D01*
X2861030Y-222942D01*
X2865060Y-232673D01*
X2871472Y-241028D01*
X2879827Y-247440D01*
X2889558Y-251470D01*
X2895000Y-252187D01*
Y-217500D01*
D02*
G37*
G36*
X2839687D02*
X2805000D01*
Y-252187D01*
X2810442Y-251470D01*
X2820173Y-247440D01*
X2828528Y-241028D01*
X2834940Y-232673D01*
X2838970Y-222942D01*
X2839687Y-217500D01*
D02*
G37*
G36*
X2895000Y-172813D02*
X2889558Y-173530D01*
X2879827Y-177560D01*
X2871472Y-183972D01*
X2865060Y-192327D01*
X2861030Y-202058D01*
X2860313Y-207500D01*
X2895000D01*
Y-172813D01*
D02*
G37*
G36*
X900000Y-72155D02*
X889558Y-73529D01*
X879827Y-77560D01*
X871472Y-83972D01*
X865060Y-92327D01*
X861029Y-102058D01*
X859655Y-112500D01*
X861029Y-122942D01*
X865060Y-132673D01*
X871472Y-141028D01*
X879827Y-147440D01*
X889558Y-151470D01*
X900000Y-152845D01*
X910442Y-151470D01*
X920173Y-147440D01*
X928528Y-141028D01*
X934940Y-132673D01*
X938971Y-122942D01*
X940345Y-112500D01*
X938971Y-102058D01*
X934940Y-92327D01*
X928528Y-83972D01*
X920173Y-77560D01*
X910442Y-73529D01*
X900000Y-72155D01*
D02*
G37*
G36*
X1000000D02*
X989558Y-73529D01*
X979827Y-77560D01*
X971472Y-83972D01*
X965060Y-92327D01*
X961029Y-102058D01*
X959655Y-112500D01*
X961029Y-122942D01*
X965060Y-132673D01*
X971472Y-141028D01*
X979827Y-147440D01*
X989558Y-151470D01*
X1000000Y-152845D01*
X1010442Y-151470D01*
X1020173Y-147440D01*
X1028528Y-141028D01*
X1034940Y-132673D01*
X1038970Y-122942D01*
X1040345Y-112500D01*
X1038970Y-102058D01*
X1034940Y-92327D01*
X1028528Y-83972D01*
X1020173Y-77560D01*
X1010442Y-73529D01*
X1000000Y-72155D01*
D02*
G37*
G36*
X2805000Y-172813D02*
Y-207500D01*
X2839687D01*
X2838970Y-202058D01*
X2834940Y-192327D01*
X2828528Y-183972D01*
X2820173Y-177560D01*
X2810442Y-173530D01*
X2805000Y-172813D01*
D02*
G37*
G36*
X2905000D02*
Y-207500D01*
X2939687D01*
X2938970Y-202058D01*
X2934940Y-192327D01*
X2928528Y-183972D01*
X2920173Y-177560D01*
X2910442Y-173530D01*
X2905000Y-172813D01*
D02*
G37*
G36*
X3695000Y-448877D02*
X3686598Y-449983D01*
X3674109Y-455156D01*
X3663385Y-463385D01*
X3655156Y-474109D01*
X3649983Y-486598D01*
X3648877Y-495000D01*
X3695000D01*
Y-448877D01*
D02*
G37*
G36*
X3705000D02*
Y-495000D01*
X3751123D01*
X3750017Y-486598D01*
X3744844Y-474109D01*
X3736615Y-463385D01*
X3725891Y-455156D01*
X3713402Y-449983D01*
X3705000Y-448877D01*
D02*
G37*
G36*
X3695000Y-505000D02*
X3648877D01*
X3649983Y-513402D01*
X3655156Y-525891D01*
X3663385Y-536615D01*
X3674109Y-544844D01*
X3686598Y-550017D01*
X3695000Y-551123D01*
Y-505000D01*
D02*
G37*
G36*
X3751123D02*
X3705000D01*
Y-551123D01*
X3713402Y-550017D01*
X3725891Y-544844D01*
X3736615Y-536615D01*
X3744844Y-525891D01*
X3750017Y-513402D01*
X3751123Y-505000D01*
D02*
G37*
G36*
X1075000Y-298330D02*
X1057604Y-300044D01*
X1040876Y-305118D01*
X1025460Y-313358D01*
X1011948Y-324448D01*
X1000858Y-337960D01*
X992618Y-353376D01*
X987544Y-370104D01*
X985831Y-387500D01*
X987544Y-404896D01*
X992618Y-421624D01*
X1000858Y-437040D01*
X1011948Y-450552D01*
X1025460Y-461642D01*
X1040876Y-469882D01*
X1057604Y-474956D01*
X1075000Y-476670D01*
X1092396Y-474956D01*
X1109124Y-469882D01*
X1124540Y-461642D01*
X1138052Y-450552D01*
X1149142Y-437040D01*
X1157382Y-421624D01*
X1162456Y-404896D01*
X1164169Y-387500D01*
X1162456Y-370104D01*
X1157382Y-353376D01*
X1149142Y-337960D01*
X1138052Y-324448D01*
X1124540Y-313358D01*
X1109124Y-305118D01*
X1092396Y-300044D01*
X1075000Y-298330D01*
D02*
G37*
G36*
X1000000Y-172155D02*
X989558Y-173530D01*
X979827Y-177560D01*
X971472Y-183972D01*
X965060Y-192327D01*
X961029Y-202058D01*
X959655Y-212500D01*
X961029Y-222942D01*
X965060Y-232673D01*
X971472Y-241028D01*
X979827Y-247440D01*
X989558Y-251470D01*
X1000000Y-252845D01*
X1010442Y-251470D01*
X1020173Y-247440D01*
X1028528Y-241028D01*
X1034940Y-232673D01*
X1038970Y-222942D01*
X1040345Y-212500D01*
X1038970Y-202058D01*
X1034940Y-192327D01*
X1028528Y-183972D01*
X1020173Y-177560D01*
X1010442Y-173530D01*
X1000000Y-172155D01*
D02*
G37*
G36*
X2795000Y-217500D02*
X2760313D01*
X2761030Y-222942D01*
X2765060Y-232673D01*
X2771472Y-241028D01*
X2779827Y-247440D01*
X2789558Y-251470D01*
X2795000Y-252187D01*
Y-217500D01*
D02*
G37*
G36*
X2725000Y-298330D02*
X2707604Y-300044D01*
X2690876Y-305118D01*
X2675460Y-313358D01*
X2661948Y-324448D01*
X2650858Y-337960D01*
X2642618Y-353376D01*
X2637544Y-370104D01*
X2635831Y-387500D01*
X2637544Y-404896D01*
X2642618Y-421624D01*
X2650858Y-437040D01*
X2661948Y-450552D01*
X2675460Y-461642D01*
X2690876Y-469882D01*
X2707604Y-474956D01*
X2725000Y-476670D01*
X2742396Y-474956D01*
X2759124Y-469882D01*
X2774540Y-461642D01*
X2788052Y-450552D01*
X2799142Y-437040D01*
X2807382Y-421624D01*
X2812456Y-404896D01*
X2814169Y-387500D01*
X2812456Y-370104D01*
X2807382Y-353376D01*
X2799142Y-337960D01*
X2788052Y-324448D01*
X2774540Y-313358D01*
X2759124Y-305118D01*
X2742396Y-300044D01*
X2725000Y-298330D01*
D02*
G37*
G36*
X900000Y-172155D02*
X889558Y-173530D01*
X879827Y-177560D01*
X871472Y-183972D01*
X865060Y-192327D01*
X861029Y-202058D01*
X859655Y-212500D01*
X861029Y-222942D01*
X865060Y-232673D01*
X871472Y-241028D01*
X879827Y-247440D01*
X889558Y-251470D01*
X900000Y-252845D01*
X910442Y-251470D01*
X920173Y-247440D01*
X928528Y-241028D01*
X934940Y-232673D01*
X938971Y-222942D01*
X940345Y-212500D01*
X938971Y-202058D01*
X934940Y-192327D01*
X928528Y-183972D01*
X920173Y-177560D01*
X910442Y-173530D01*
X900000Y-172155D01*
D02*
G37*
G36*
X1000000Y27845D02*
X989558Y26471D01*
X979827Y22440D01*
X971472Y16028D01*
X965060Y7673D01*
X961029Y-2058D01*
X959655Y-12500D01*
X961029Y-22942D01*
X965060Y-32673D01*
X971472Y-41028D01*
X979827Y-47440D01*
X989558Y-51471D01*
X1000000Y-52845D01*
X1010442Y-51471D01*
X1020173Y-47440D01*
X1028528Y-41028D01*
X1034940Y-32673D01*
X1038970Y-22942D01*
X1040345Y-12500D01*
X1038970Y-2058D01*
X1034940Y7673D01*
X1028528Y16028D01*
X1020173Y22440D01*
X1010442Y26471D01*
X1000000Y27845D01*
D02*
G37*
G36*
X2800000D02*
X2789558Y26471D01*
X2779827Y22440D01*
X2771472Y16028D01*
X2765060Y7673D01*
X2761030Y-2058D01*
X2759655Y-12500D01*
X2761030Y-22942D01*
X2765060Y-32673D01*
X2771472Y-41028D01*
X2779827Y-47440D01*
X2789558Y-51471D01*
X2800000Y-52845D01*
X2810442Y-51471D01*
X2820173Y-47440D01*
X2828528Y-41028D01*
X2834940Y-32673D01*
X2838970Y-22942D01*
X2840345Y-12500D01*
X2838970Y-2058D01*
X2834940Y7673D01*
X2828528Y16028D01*
X2820173Y22440D01*
X2810442Y26471D01*
X2800000Y27845D01*
D02*
G37*
G36*
X2905000Y-72813D02*
Y-107500D01*
X2939687D01*
X2938970Y-102058D01*
X2934940Y-92327D01*
X2928528Y-83972D01*
X2920173Y-77560D01*
X2910442Y-73529D01*
X2905000Y-72813D01*
D02*
G37*
G36*
X900000Y27845D02*
X889558Y26471D01*
X879827Y22440D01*
X871472Y16028D01*
X865060Y7673D01*
X861029Y-2058D01*
X859655Y-12500D01*
X861029Y-22942D01*
X865060Y-32673D01*
X871472Y-41028D01*
X879827Y-47440D01*
X889558Y-51471D01*
X900000Y-52845D01*
X910442Y-51471D01*
X920173Y-47440D01*
X928528Y-41028D01*
X934940Y-32673D01*
X938971Y-22942D01*
X940345Y-12500D01*
X938971Y-2058D01*
X934940Y7673D01*
X928528Y16028D01*
X920173Y22440D01*
X910442Y26471D01*
X900000Y27845D01*
D02*
G37*
G36*
X2900000D02*
X2889558Y26471D01*
X2879827Y22440D01*
X2871472Y16028D01*
X2865060Y7673D01*
X2861030Y-2058D01*
X2859655Y-12500D01*
X2861030Y-22942D01*
X2865060Y-32673D01*
X2871472Y-41028D01*
X2879827Y-47440D01*
X2889558Y-51471D01*
X2900000Y-52845D01*
X2910442Y-51471D01*
X2920173Y-47440D01*
X2928528Y-41028D01*
X2934940Y-32673D01*
X2938970Y-22942D01*
X2940345Y-12500D01*
X2938970Y-2058D01*
X2934940Y7673D01*
X2928528Y16028D01*
X2920173Y22440D01*
X2910442Y26471D01*
X2900000Y27845D01*
D02*
G37*
G36*
X2800000Y127845D02*
X2789558Y126471D01*
X2779827Y122440D01*
X2771472Y116028D01*
X2765060Y107673D01*
X2761030Y97942D01*
X2759655Y87500D01*
X2761030Y77058D01*
X2765060Y67327D01*
X2771472Y58972D01*
X2779827Y52560D01*
X2789558Y48529D01*
X2800000Y47155D01*
X2810442Y48529D01*
X2820173Y52560D01*
X2828528Y58972D01*
X2834940Y67327D01*
X2838970Y77058D01*
X2840345Y87500D01*
X2838970Y97942D01*
X2834940Y107673D01*
X2828528Y116028D01*
X2820173Y122440D01*
X2810442Y126471D01*
X2800000Y127845D01*
D02*
G37*
G36*
X2900000D02*
X2889558Y126471D01*
X2879827Y122440D01*
X2871472Y116028D01*
X2865060Y107673D01*
X2861030Y97942D01*
X2859655Y87500D01*
X2861030Y77058D01*
X2865060Y67327D01*
X2871472Y58972D01*
X2879827Y52560D01*
X2889558Y48529D01*
X2900000Y47155D01*
X2910442Y48529D01*
X2920173Y52560D01*
X2928528Y58972D01*
X2934940Y67327D01*
X2938970Y77058D01*
X2940345Y87500D01*
X2938970Y97942D01*
X2934940Y107673D01*
X2928528Y116028D01*
X2920173Y122440D01*
X2910442Y126471D01*
X2900000Y127845D01*
D02*
G37*
G36*
X900000D02*
X889558Y126471D01*
X879827Y122440D01*
X871472Y116028D01*
X865060Y107673D01*
X861029Y97942D01*
X859655Y87500D01*
X861029Y77058D01*
X865060Y67327D01*
X871472Y58972D01*
X879827Y52560D01*
X889558Y48529D01*
X900000Y47155D01*
X910442Y48529D01*
X920173Y52560D01*
X928528Y58972D01*
X934940Y67327D01*
X938971Y77058D01*
X940345Y87500D01*
X938971Y97942D01*
X934940Y107673D01*
X928528Y116028D01*
X920173Y122440D01*
X910442Y126471D01*
X900000Y127845D01*
D02*
G37*
G36*
X1000000D02*
X989558Y126471D01*
X979827Y122440D01*
X971472Y116028D01*
X965060Y107673D01*
X961029Y97942D01*
X959655Y87500D01*
X961029Y77058D01*
X965060Y67327D01*
X971472Y58972D01*
X979827Y52560D01*
X989558Y48529D01*
X1000000Y47155D01*
X1010442Y48529D01*
X1020173Y52560D01*
X1028528Y58972D01*
X1034940Y67327D01*
X1038970Y77058D01*
X1040345Y87500D01*
X1038970Y97942D01*
X1034940Y107673D01*
X1028528Y116028D01*
X1020173Y122440D01*
X1010442Y126471D01*
X1000000Y127845D01*
D02*
G37*
G36*
X2839687Y-117500D02*
X2805000D01*
Y-152187D01*
X2810442Y-151470D01*
X2820173Y-147440D01*
X2828528Y-141028D01*
X2834940Y-132673D01*
X2838970Y-122942D01*
X2839687Y-117500D01*
D02*
G37*
G36*
X2939687D02*
X2905000D01*
Y-152187D01*
X2910442Y-151470D01*
X2920173Y-147440D01*
X2928528Y-141028D01*
X2934940Y-132673D01*
X2938970Y-122942D01*
X2939687Y-117500D01*
D02*
G37*
G36*
X2795000D02*
X2760313D01*
X2761030Y-122942D01*
X2765060Y-132673D01*
X2771472Y-141028D01*
X2779827Y-147440D01*
X2789558Y-151470D01*
X2795000Y-152187D01*
Y-117500D01*
D02*
G37*
G36*
X2895000D02*
X2860313D01*
X2861030Y-122942D01*
X2865060Y-132673D01*
X2871472Y-141028D01*
X2879827Y-147440D01*
X2889558Y-151470D01*
X2895000Y-152187D01*
Y-117500D01*
D02*
G37*
G36*
X0Y108760D02*
X-17014Y107421D01*
X-33609Y103437D01*
X-49376Y96906D01*
X-63928Y87989D01*
X-76905Y76905D01*
X-87989Y63928D01*
X-96906Y49376D01*
X-103437Y33609D01*
X-107421Y17014D01*
X-108760Y0D01*
X-107421Y-17014D01*
X-103437Y-33609D01*
X-96906Y-49376D01*
X-87989Y-63928D01*
X-76905Y-76905D01*
X-63928Y-87989D01*
X-49376Y-96906D01*
X-33609Y-103437D01*
X-17014Y-107421D01*
X0Y-108760D01*
X17014Y-107421D01*
X33609Y-103437D01*
X49376Y-96906D01*
X63928Y-87989D01*
X76905Y-76905D01*
X87989Y-63928D01*
X96906Y-49376D01*
X103437Y-33609D01*
X107421Y-17014D01*
X108760Y0D01*
X107421Y17014D01*
X103437Y33609D01*
X96906Y49376D01*
X87989Y63928D01*
X76905Y76905D01*
X63928Y87989D01*
X49376Y96906D01*
X33609Y103437D01*
X17014Y107421D01*
X0Y108760D01*
D02*
G37*
G36*
X2895000Y-72813D02*
X2889558Y-73529D01*
X2879827Y-77560D01*
X2871472Y-83972D01*
X2865060Y-92327D01*
X2861030Y-102058D01*
X2860313Y-107500D01*
X2895000D01*
Y-72813D01*
D02*
G37*
G36*
X2805000D02*
Y-107500D01*
X2839687D01*
X2838970Y-102058D01*
X2834940Y-92327D01*
X2828528Y-83972D01*
X2820173Y-77560D01*
X2810442Y-73529D01*
X2805000Y-72813D01*
D02*
G37*
G36*
X2250000Y108760D02*
X2232986Y107421D01*
X2216391Y103437D01*
X2200624Y96906D01*
X2186072Y87989D01*
X2173095Y76905D01*
X2162011Y63928D01*
X2153094Y49376D01*
X2146563Y33609D01*
X2142579Y17014D01*
X2141240Y0D01*
X2142579Y-17014D01*
X2146563Y-33609D01*
X2153094Y-49376D01*
X2162011Y-63928D01*
X2173095Y-76905D01*
X2186072Y-87989D01*
X2200624Y-96906D01*
X2216391Y-103437D01*
X2232986Y-107421D01*
X2250000Y-108760D01*
X2267014Y-107421D01*
X2283609Y-103437D01*
X2299376Y-96906D01*
X2313928Y-87989D01*
X2326905Y-76905D01*
X2337989Y-63928D01*
X2346906Y-49376D01*
X2353437Y-33609D01*
X2357421Y-17014D01*
X2358760Y0D01*
X2357421Y17014D01*
X2353437Y33609D01*
X2346906Y49376D01*
X2337989Y63928D01*
X2326905Y76905D01*
X2313928Y87989D01*
X2299376Y96906D01*
X2283609Y103437D01*
X2267014Y107421D01*
X2250000Y108760D01*
D02*
G37*
G36*
X2795000Y-72813D02*
X2789558Y-73529D01*
X2779827Y-77560D01*
X2771472Y-83972D01*
X2765060Y-92327D01*
X2761030Y-102058D01*
X2760313Y-107500D01*
X2795000D01*
Y-72813D01*
D02*
G37*
G36*
X1000000Y1027845D02*
X989558Y1026470D01*
X979827Y1022440D01*
X971472Y1016028D01*
X965060Y1007673D01*
X961029Y997942D01*
X959655Y987500D01*
X961029Y977058D01*
X965060Y967327D01*
X971472Y958972D01*
X979827Y952560D01*
X989558Y948529D01*
X1000000Y947155D01*
X1010442Y948529D01*
X1020173Y952560D01*
X1028528Y958972D01*
X1034940Y967327D01*
X1038970Y977058D01*
X1040345Y987500D01*
X1038970Y997942D01*
X1034940Y1007673D01*
X1028528Y1016028D01*
X1020173Y1022440D01*
X1010442Y1026470D01*
X1000000Y1027845D01*
D02*
G37*
G36*
X995000Y1982500D02*
X960313D01*
X961029Y1977058D01*
X965060Y1967327D01*
X971472Y1958972D01*
X979827Y1952560D01*
X989558Y1948530D01*
X995000Y1947813D01*
Y1982500D01*
D02*
G37*
G36*
X2795000D02*
X2760313D01*
X2761030Y1977058D01*
X2765060Y1967327D01*
X2771472Y1958972D01*
X2779827Y1952560D01*
X2789558Y1948530D01*
X2795000Y1947813D01*
Y1982500D01*
D02*
G37*
G36*
X100000Y1939869D02*
X89681Y1938510D01*
X80066Y1934527D01*
X71809Y1928191D01*
X65473Y1919934D01*
X61490Y1910319D01*
X60131Y1900000D01*
X61490Y1889681D01*
X65473Y1880066D01*
X71809Y1871809D01*
X80066Y1865473D01*
X89681Y1861490D01*
X100000Y1860131D01*
X110319Y1861490D01*
X119934Y1865473D01*
X128191Y1871809D01*
X134527Y1880066D01*
X138510Y1889681D01*
X139869Y1900000D01*
X138510Y1910319D01*
X134527Y1919934D01*
X128191Y1928191D01*
X119934Y1934527D01*
X110319Y1938510D01*
X100000Y1939869D01*
D02*
G37*
G36*
X895000Y1982500D02*
X860313D01*
X861029Y1977058D01*
X865060Y1967327D01*
X871472Y1958972D01*
X879827Y1952560D01*
X889558Y1948530D01*
X895000Y1947813D01*
Y1982500D01*
D02*
G37*
G36*
X2895000D02*
X2860313D01*
X2861030Y1977058D01*
X2865060Y1967327D01*
X2871472Y1958972D01*
X2879827Y1952560D01*
X2889558Y1948530D01*
X2895000Y1947813D01*
Y1982500D01*
D02*
G37*
G36*
X2839687D02*
X2805000D01*
Y1947813D01*
X2810442Y1948530D01*
X2820173Y1952560D01*
X2828528Y1958972D01*
X2834940Y1967327D01*
X2838970Y1977058D01*
X2839687Y1982500D01*
D02*
G37*
G36*
X2939687D02*
X2905000D01*
Y1947813D01*
X2910442Y1948530D01*
X2920173Y1952560D01*
X2928528Y1958972D01*
X2934940Y1967327D01*
X2938970Y1977058D01*
X2939687Y1982500D01*
D02*
G37*
G36*
X939687D02*
X905000D01*
Y1947813D01*
X910442Y1948530D01*
X920173Y1952560D01*
X928528Y1958972D01*
X934940Y1967327D01*
X938971Y1977058D01*
X939687Y1982500D01*
D02*
G37*
G36*
X1039687D02*
X1005000D01*
Y1947813D01*
X1010442Y1948530D01*
X1020173Y1952560D01*
X1028528Y1958972D01*
X1034940Y1967327D01*
X1038970Y1977058D01*
X1039687Y1982500D01*
D02*
G37*
G36*
X0Y1839869D02*
X-10319Y1838510D01*
X-19934Y1834527D01*
X-28191Y1828191D01*
X-34527Y1819934D01*
X-38510Y1810319D01*
X-39869Y1800000D01*
X-38510Y1789681D01*
X-34527Y1780066D01*
X-28191Y1771809D01*
X-19934Y1765473D01*
X-10319Y1761490D01*
X0Y1760131D01*
X10319Y1761490D01*
X19934Y1765473D01*
X28191Y1771809D01*
X34527Y1780066D01*
X38510Y1789681D01*
X39869Y1800000D01*
X38510Y1810319D01*
X34527Y1819934D01*
X28191Y1828191D01*
X19934Y1834527D01*
X10319Y1838510D01*
X0Y1839869D01*
D02*
G37*
G36*
X100000D02*
X89681Y1838510D01*
X80066Y1834527D01*
X71809Y1828191D01*
X65473Y1819934D01*
X61490Y1810319D01*
X60131Y1800000D01*
X61490Y1789681D01*
X65473Y1780066D01*
X71809Y1771809D01*
X80066Y1765473D01*
X89681Y1761490D01*
X100000Y1760131D01*
X110319Y1761490D01*
X119934Y1765473D01*
X128191Y1771809D01*
X134527Y1780066D01*
X138510Y1789681D01*
X139869Y1800000D01*
X138510Y1810319D01*
X134527Y1819934D01*
X128191Y1828191D01*
X119934Y1834527D01*
X110319Y1838510D01*
X100000Y1839869D01*
D02*
G37*
G36*
X900000Y1827845D02*
X889558Y1826470D01*
X879827Y1822440D01*
X871472Y1816028D01*
X865060Y1807673D01*
X861029Y1797942D01*
X859655Y1787500D01*
X861029Y1777058D01*
X865060Y1767327D01*
X871472Y1758972D01*
X879827Y1752560D01*
X889558Y1748530D01*
X900000Y1747155D01*
X910442Y1748530D01*
X920173Y1752560D01*
X928528Y1758972D01*
X934940Y1767327D01*
X938971Y1777058D01*
X940345Y1787500D01*
X938971Y1797942D01*
X934940Y1807673D01*
X928528Y1816028D01*
X920173Y1822440D01*
X910442Y1826470D01*
X900000Y1827845D01*
D02*
G37*
G36*
X1000000D02*
X989558Y1826470D01*
X979827Y1822440D01*
X971472Y1816028D01*
X965060Y1807673D01*
X961029Y1797942D01*
X959655Y1787500D01*
X961029Y1777058D01*
X965060Y1767327D01*
X971472Y1758972D01*
X979827Y1752560D01*
X989558Y1748530D01*
X1000000Y1747155D01*
X1010442Y1748530D01*
X1020173Y1752560D01*
X1028528Y1758972D01*
X1034940Y1767327D01*
X1038970Y1777058D01*
X1040345Y1787500D01*
X1038970Y1797942D01*
X1034940Y1807673D01*
X1028528Y1816028D01*
X1020173Y1822440D01*
X1010442Y1826470D01*
X1000000Y1827845D01*
D02*
G37*
G36*
X900000Y1927845D02*
X889558Y1926470D01*
X879827Y1922440D01*
X871472Y1916028D01*
X865060Y1907673D01*
X861029Y1897942D01*
X859655Y1887500D01*
X861029Y1877058D01*
X865060Y1867327D01*
X871472Y1858972D01*
X879827Y1852560D01*
X889558Y1848530D01*
X900000Y1847155D01*
X910442Y1848530D01*
X920173Y1852560D01*
X928528Y1858972D01*
X934940Y1867327D01*
X938971Y1877058D01*
X940345Y1887500D01*
X938971Y1897942D01*
X934940Y1907673D01*
X928528Y1916028D01*
X920173Y1922440D01*
X910442Y1926470D01*
X900000Y1927845D01*
D02*
G37*
G36*
X2900000D02*
X2889558Y1926470D01*
X2879827Y1922440D01*
X2871472Y1916028D01*
X2865060Y1907673D01*
X2861030Y1897942D01*
X2859655Y1887500D01*
X2861030Y1877058D01*
X2865060Y1867327D01*
X2871472Y1858972D01*
X2879827Y1852560D01*
X2889558Y1848530D01*
X2900000Y1847155D01*
X2910442Y1848530D01*
X2920173Y1852560D01*
X2928528Y1858972D01*
X2934940Y1867327D01*
X2938970Y1877058D01*
X2940345Y1887500D01*
X2938970Y1897942D01*
X2934940Y1907673D01*
X2928528Y1916028D01*
X2920173Y1922440D01*
X2910442Y1926470D01*
X2900000Y1927845D01*
D02*
G37*
G36*
X0Y1939869D02*
X-10319Y1938510D01*
X-19934Y1934527D01*
X-28191Y1928191D01*
X-34527Y1919934D01*
X-38510Y1910319D01*
X-39869Y1900000D01*
X-38510Y1889681D01*
X-34527Y1880066D01*
X-28191Y1871809D01*
X-19934Y1865473D01*
X-10319Y1861490D01*
X0Y1860131D01*
X10319Y1861490D01*
X19934Y1865473D01*
X28191Y1871809D01*
X34527Y1880066D01*
X38510Y1889681D01*
X39869Y1900000D01*
X38510Y1910319D01*
X34527Y1919934D01*
X28191Y1928191D01*
X19934Y1934527D01*
X10319Y1938510D01*
X0Y1939869D01*
D02*
G37*
G36*
X1000000Y1927845D02*
X989558Y1926470D01*
X979827Y1922440D01*
X971472Y1916028D01*
X965060Y1907673D01*
X961029Y1897942D01*
X959655Y1887500D01*
X961029Y1877058D01*
X965060Y1867327D01*
X971472Y1858972D01*
X979827Y1852560D01*
X989558Y1848530D01*
X1000000Y1847155D01*
X1010442Y1848530D01*
X1020173Y1852560D01*
X1028528Y1858972D01*
X1034940Y1867327D01*
X1038970Y1877058D01*
X1040345Y1887500D01*
X1038970Y1897942D01*
X1034940Y1907673D01*
X1028528Y1916028D01*
X1020173Y1922440D01*
X1010442Y1926470D01*
X1000000Y1927845D01*
D02*
G37*
G36*
X2800000D02*
X2789558Y1926470D01*
X2779827Y1922440D01*
X2771472Y1916028D01*
X2765060Y1907673D01*
X2761030Y1897942D01*
X2759655Y1887500D01*
X2761030Y1877058D01*
X2765060Y1867327D01*
X2771472Y1858972D01*
X2779827Y1852560D01*
X2789558Y1848530D01*
X2800000Y1847155D01*
X2810442Y1848530D01*
X2820173Y1852560D01*
X2828528Y1858972D01*
X2834940Y1867327D01*
X2838970Y1877058D01*
X2840345Y1887500D01*
X2838970Y1897942D01*
X2834940Y1907673D01*
X2828528Y1916028D01*
X2820173Y1922440D01*
X2810442Y1926470D01*
X2800000Y1927845D01*
D02*
G37*
G36*
X895000Y2027187D02*
X889558Y2026470D01*
X879827Y2022440D01*
X871472Y2016028D01*
X865060Y2007673D01*
X861029Y1997942D01*
X860313Y1992500D01*
X895000D01*
Y2027187D01*
D02*
G37*
G36*
X0Y2458760D02*
X-17014Y2457421D01*
X-33609Y2453437D01*
X-49376Y2446906D01*
X-63928Y2437989D01*
X-76905Y2426905D01*
X-87989Y2413928D01*
X-96906Y2399376D01*
X-103437Y2383609D01*
X-107421Y2367014D01*
X-108760Y2350000D01*
X-107421Y2332986D01*
X-103437Y2316391D01*
X-96906Y2300624D01*
X-87989Y2286072D01*
X-76905Y2273095D01*
X-63928Y2262011D01*
X-49376Y2253094D01*
X-33609Y2246563D01*
X-17014Y2242579D01*
X0Y2241240D01*
X17014Y2242579D01*
X33609Y2246563D01*
X49376Y2253094D01*
X63928Y2262011D01*
X76905Y2273095D01*
X87989Y2286072D01*
X96906Y2300624D01*
X103437Y2316391D01*
X107421Y2332986D01*
X108760Y2350000D01*
X107421Y2367014D01*
X103437Y2383609D01*
X96906Y2399376D01*
X87989Y2413928D01*
X76905Y2426905D01*
X63928Y2437989D01*
X49376Y2446906D01*
X33609Y2453437D01*
X17014Y2457421D01*
X0Y2458760D01*
D02*
G37*
G36*
X2092500Y2510294D02*
X363787D01*
X357934Y2509130D01*
X352972Y2505814D01*
X344186Y2497028D01*
X340870Y2492066D01*
X339706Y2486213D01*
Y2395000D01*
X340870Y2389147D01*
X344186Y2384186D01*
X360000Y2368371D01*
Y2331629D01*
X231379Y2203008D01*
X228064Y2198046D01*
X226899Y2192193D01*
Y1848528D01*
X114959Y1736588D01*
X110319Y1738510D01*
X100000Y1739869D01*
X89681Y1738510D01*
X80066Y1734527D01*
X71809Y1728191D01*
X65473Y1719934D01*
X61490Y1710319D01*
X60131Y1700000D01*
X61490Y1689681D01*
X65473Y1680066D01*
X68772Y1675766D01*
X66306Y1670766D01*
X50862D01*
X36588Y1685041D01*
X38510Y1689681D01*
X39869Y1700000D01*
X38510Y1710319D01*
X34527Y1719934D01*
X28191Y1728191D01*
X19934Y1734527D01*
X10319Y1738510D01*
X0Y1739869D01*
X-10319Y1738510D01*
X-19934Y1734527D01*
X-28191Y1728191D01*
X-34527Y1719934D01*
X-38510Y1710319D01*
X-39869Y1700000D01*
X-38510Y1689681D01*
X-34527Y1680066D01*
X-28191Y1671809D01*
X-19934Y1665473D01*
X-10319Y1661490D01*
X0Y1660131D01*
X10319Y1661490D01*
X14959Y1663412D01*
X33713Y1644658D01*
X38675Y1641343D01*
X44528Y1640178D01*
X80643D01*
X81638Y1635178D01*
X80066Y1634527D01*
X71809Y1628191D01*
X65473Y1619934D01*
X61490Y1610319D01*
X60131Y1600000D01*
X61490Y1589681D01*
X65473Y1580066D01*
X71809Y1571809D01*
X80066Y1565473D01*
X89681Y1561490D01*
X100000Y1560131D01*
X110319Y1561490D01*
X119934Y1565473D01*
X128191Y1571809D01*
X134527Y1580066D01*
X138510Y1589681D01*
X139869Y1600000D01*
X138510Y1610319D01*
X134527Y1619934D01*
X128191Y1628191D01*
X119934Y1634527D01*
X119739Y1635456D01*
X123477Y1641180D01*
X124297Y1641343D01*
X129258Y1644658D01*
X385814Y1901214D01*
X389130Y1906176D01*
X390294Y1912028D01*
Y2210000D01*
X440000D01*
Y2290000D01*
X368162D01*
X366248Y2294619D01*
X381629Y2310000D01*
X440000D01*
Y2390000D01*
X381629D01*
X370294Y2401335D01*
Y2410000D01*
X440000D01*
Y2479706D01*
X460000D01*
Y2455000D01*
X500000D01*
X540000D01*
Y2479706D01*
X2086165D01*
X2763050Y1802821D01*
X2761030Y1797942D01*
X2759655Y1787500D01*
X2761030Y1777058D01*
X2763050Y1772179D01*
X2344658Y1353787D01*
X2341343Y1348825D01*
X2340178Y1342972D01*
Y719357D01*
X2335178Y718362D01*
X2334527Y719934D01*
X2328191Y728191D01*
X2319934Y734527D01*
X2310319Y738510D01*
X2305000Y739210D01*
Y700000D01*
Y660790D01*
X2310319Y661490D01*
X2319934Y665473D01*
X2328191Y671809D01*
X2334527Y680066D01*
X2335178Y681638D01*
X2340178Y680643D01*
Y644528D01*
X2341343Y638675D01*
X2344658Y633713D01*
X2363412Y614959D01*
X2361490Y610319D01*
X2360131Y600000D01*
X2361490Y589681D01*
X2365473Y580066D01*
X2371809Y571809D01*
X2380066Y565473D01*
X2389681Y561490D01*
X2400000Y560131D01*
X2410319Y561490D01*
X2419934Y565473D01*
X2428191Y571809D01*
X2434527Y580066D01*
X2438510Y589681D01*
X2439869Y600000D01*
X2438510Y610319D01*
X2434527Y619934D01*
X2428191Y628191D01*
X2419934Y634527D01*
X2410319Y638510D01*
X2400000Y639869D01*
X2389681Y638510D01*
X2385041Y636588D01*
X2370766Y650862D01*
Y666306D01*
X2375766Y668772D01*
X2380066Y665473D01*
X2389681Y661490D01*
X2400000Y660131D01*
X2410319Y661490D01*
X2419934Y665473D01*
X2428191Y671809D01*
X2434527Y680066D01*
X2438510Y689681D01*
X2439869Y700000D01*
X2438510Y710319D01*
X2434527Y719934D01*
X2428191Y728191D01*
X2419934Y734527D01*
X2410319Y738510D01*
X2400000Y739869D01*
X2389681Y738510D01*
X2380066Y734527D01*
X2375766Y731228D01*
X2370766Y733694D01*
Y1336638D01*
X2784679Y1750550D01*
X2789558Y1748530D01*
X2800000Y1747155D01*
X2810442Y1748530D01*
X2820173Y1752560D01*
X2828528Y1758972D01*
X2834940Y1767327D01*
X2836961Y1772206D01*
X2863039D01*
X2865060Y1767327D01*
X2871472Y1758972D01*
X2879827Y1752560D01*
X2889558Y1748530D01*
X2900000Y1747155D01*
X2910442Y1748530D01*
X2920173Y1752560D01*
X2928528Y1758972D01*
X2934940Y1767327D01*
X2938970Y1777058D01*
X2940345Y1787500D01*
X2938970Y1797942D01*
X2934940Y1807673D01*
X2928528Y1816028D01*
X2920173Y1822440D01*
X2910442Y1826470D01*
X2900000Y1827845D01*
X2889558Y1826470D01*
X2879827Y1822440D01*
X2871472Y1816028D01*
X2865060Y1807673D01*
X2863039Y1802794D01*
X2836961D01*
X2834940Y1807673D01*
X2828528Y1816028D01*
X2820173Y1822440D01*
X2810442Y1826470D01*
X2800000Y1827845D01*
X2789558Y1826470D01*
X2784679Y1824450D01*
X2368124Y2241004D01*
X2370663Y2245537D01*
X2382986Y2242579D01*
X2400000Y2241240D01*
X2417014Y2242579D01*
X2433609Y2246563D01*
X2449376Y2253094D01*
X2463928Y2262011D01*
X2476905Y2273095D01*
X2487989Y2286072D01*
X2496906Y2300624D01*
X2503437Y2316391D01*
X2507421Y2332986D01*
X2508760Y2350000D01*
X2507421Y2367014D01*
X2503437Y2383609D01*
X2496906Y2399376D01*
X2487989Y2413928D01*
X2476905Y2426905D01*
X2463928Y2437989D01*
X2449376Y2446906D01*
X2433609Y2453437D01*
X2417014Y2457421D01*
X2400000Y2458760D01*
X2382986Y2457421D01*
X2366391Y2453437D01*
X2350624Y2446906D01*
X2336072Y2437989D01*
X2323095Y2426905D01*
X2312011Y2413928D01*
X2303094Y2399376D01*
X2296563Y2383609D01*
X2292579Y2367014D01*
X2291240Y2350000D01*
X2292579Y2332986D01*
X2295537Y2320663D01*
X2291004Y2318124D01*
X2103314Y2505814D01*
X2098353Y2509130D01*
X2092500Y2510294D01*
D02*
G37*
G36*
X3674567Y2164881D02*
X3655000D01*
Y2104961D01*
X3674567D01*
Y2164881D01*
D02*
G37*
G36*
X3655000Y2234803D02*
Y2174881D01*
X3674567D01*
Y2234803D01*
X3655000D01*
D02*
G37*
G36*
X3445000Y2325119D02*
X3425433D01*
Y2265197D01*
X3445000D01*
Y2325119D01*
D02*
G37*
G36*
X495000Y2445000D02*
X460000D01*
Y2410000D01*
X495000D01*
Y2445000D01*
D02*
G37*
G36*
X540000D02*
X505000D01*
Y2410000D01*
X540000D01*
Y2445000D01*
D02*
G37*
G36*
X3445000Y2395039D02*
X3425433D01*
Y2335119D01*
X3445000D01*
Y2395039D01*
D02*
G37*
G36*
X3687349Y2455333D02*
X3569220D01*
X3563367Y2454169D01*
X3558405Y2450854D01*
X3509619Y2402067D01*
X3508920Y2401021D01*
X3502938Y2395039D01*
X3479567D01*
X3475433Y2395039D01*
X3470433Y2395039D01*
X3455000D01*
Y2330119D01*
Y2265197D01*
X3470433D01*
X3474567Y2265197D01*
X3479567Y2265197D01*
X3520433D01*
X3524567Y2265197D01*
Y2265197D01*
X3525433D01*
Y2265197D01*
X3570433D01*
X3574567Y2265197D01*
Y2265197D01*
X3575433D01*
Y2265197D01*
X3620433D01*
X3624567Y2265197D01*
Y2265197D01*
X3625433D01*
Y2265197D01*
X3652938D01*
X3741045Y2177090D01*
Y1938182D01*
X3736045Y1937053D01*
X3725891Y1944844D01*
X3713402Y1950017D01*
X3700000Y1951782D01*
X3686598Y1950017D01*
X3676001Y1945628D01*
X3615294Y2006335D01*
Y2101425D01*
X3618829Y2104961D01*
X3624567Y2104961D01*
X3629567Y2104961D01*
X3645000D01*
Y2169881D01*
Y2234803D01*
X3629567D01*
X3625433Y2234803D01*
X3620433Y2234803D01*
X3579567D01*
X3575433Y2234803D01*
X3570433Y2234803D01*
X3529567D01*
X3525433Y2234803D01*
X3520433Y2234803D01*
X3479567D01*
X3475433Y2234803D01*
X3470433Y2234803D01*
X3425433D01*
Y2104961D01*
X3434706D01*
Y350000D01*
X3435870Y344147D01*
X3439186Y339186D01*
X3654372Y123999D01*
X3649983Y113402D01*
X3648218Y100000D01*
X3649983Y86598D01*
X3655156Y74109D01*
X3663385Y63385D01*
X3674109Y55156D01*
X3686598Y49983D01*
X3700000Y48218D01*
X3713402Y49983D01*
X3725891Y55156D01*
X3736615Y63385D01*
X3744844Y74109D01*
X3750017Y86598D01*
X3751782Y100000D01*
X3750017Y113402D01*
X3744844Y125891D01*
X3736615Y136615D01*
X3725891Y144844D01*
X3713402Y150017D01*
X3700000Y151782D01*
X3686598Y150017D01*
X3676001Y145628D01*
X3465294Y356335D01*
Y2101425D01*
X3468829Y2104961D01*
X3474567Y2104961D01*
X3479567Y2104961D01*
X3484706D01*
Y600000D01*
X3485870Y594147D01*
X3489186Y589186D01*
X3654372Y423999D01*
X3649983Y413402D01*
X3648218Y400000D01*
X3649983Y386598D01*
X3655156Y374109D01*
X3663385Y363385D01*
X3674109Y355156D01*
X3686598Y349983D01*
X3700000Y348218D01*
X3713402Y349983D01*
X3725891Y355156D01*
X3736615Y363385D01*
X3744844Y374109D01*
X3750017Y386598D01*
X3751782Y400000D01*
X3750017Y413402D01*
X3744844Y425891D01*
X3736615Y436615D01*
X3725891Y444844D01*
X3713402Y450017D01*
X3700000Y451782D01*
X3686598Y450017D01*
X3676001Y445628D01*
X3515294Y606335D01*
Y2101425D01*
X3518829Y2104961D01*
X3524567Y2104961D01*
X3529567Y2104961D01*
X3534706D01*
Y1150000D01*
X3535870Y1144147D01*
X3539186Y1139186D01*
X3654372Y1023999D01*
X3649983Y1013402D01*
X3648218Y1000000D01*
X3649983Y986598D01*
X3655156Y974109D01*
X3663385Y963385D01*
X3674109Y955156D01*
X3686598Y949983D01*
X3700000Y948218D01*
X3713402Y949983D01*
X3725891Y955156D01*
X3736615Y963385D01*
X3744844Y974109D01*
X3750017Y986598D01*
X3751782Y1000000D01*
X3750017Y1013402D01*
X3744844Y1025891D01*
X3736615Y1036615D01*
X3725891Y1044844D01*
X3713402Y1050017D01*
X3700000Y1051782D01*
X3686598Y1050017D01*
X3676001Y1045628D01*
X3565294Y1156335D01*
Y2101425D01*
X3568829Y2104961D01*
X3574567Y2104961D01*
X3579567Y2104961D01*
X3584706D01*
Y2000000D01*
X3585870Y1994147D01*
X3589186Y1989186D01*
X3654372Y1923999D01*
X3649983Y1913402D01*
X3648218Y1900000D01*
X3649983Y1886598D01*
X3655156Y1874109D01*
X3663385Y1863385D01*
X3674109Y1855156D01*
X3686598Y1849983D01*
X3700000Y1848218D01*
X3713402Y1849983D01*
X3725891Y1855156D01*
X3736045Y1862947D01*
X3741045Y1861818D01*
Y1662674D01*
X3723999Y1645628D01*
X3713402Y1650017D01*
X3700000Y1651782D01*
X3686598Y1650017D01*
X3674109Y1644844D01*
X3663385Y1636615D01*
X3655156Y1625891D01*
X3649983Y1613402D01*
X3648218Y1600000D01*
X3649983Y1586598D01*
X3655156Y1574109D01*
X3663385Y1563385D01*
X3674109Y1555156D01*
X3686598Y1549983D01*
X3700000Y1548218D01*
X3713402Y1549983D01*
X3725891Y1555156D01*
X3736615Y1563385D01*
X3744844Y1574109D01*
X3750017Y1586598D01*
X3751782Y1600000D01*
X3750017Y1613402D01*
X3745628Y1623999D01*
X3756425Y1634796D01*
X3761045Y1632883D01*
Y1412674D01*
X3723999Y1375628D01*
X3713402Y1380017D01*
X3700000Y1381782D01*
X3686598Y1380017D01*
X3674109Y1374844D01*
X3663385Y1366615D01*
X3655156Y1355891D01*
X3649983Y1343402D01*
X3648218Y1330000D01*
X3649983Y1316598D01*
X3655156Y1304109D01*
X3663385Y1293385D01*
X3674109Y1285156D01*
X3686598Y1279983D01*
X3700000Y1278218D01*
X3713402Y1279983D01*
X3725891Y1285156D01*
X3736615Y1293385D01*
X3744844Y1304109D01*
X3750017Y1316598D01*
X3751782Y1330000D01*
X3750017Y1343402D01*
X3745628Y1353999D01*
X3776425Y1384796D01*
X3781045Y1382883D01*
Y802674D01*
X3723999Y745628D01*
X3713402Y750017D01*
X3700000Y751782D01*
X3686598Y750017D01*
X3674109Y744844D01*
X3663385Y736615D01*
X3655156Y725891D01*
X3649983Y713402D01*
X3648218Y700000D01*
X3649983Y686598D01*
X3655156Y674109D01*
X3663385Y663385D01*
X3674109Y655156D01*
X3686598Y649983D01*
X3700000Y648218D01*
X3713402Y649983D01*
X3725891Y655156D01*
X3736615Y663385D01*
X3744844Y674109D01*
X3750017Y686598D01*
X3751782Y700000D01*
X3750017Y713402D01*
X3745628Y723999D01*
X3796425Y774796D01*
X3801045Y772883D01*
Y-77326D01*
X3723999Y-154372D01*
X3713402Y-149983D01*
X3700000Y-148218D01*
X3686598Y-149983D01*
X3674109Y-155156D01*
X3663385Y-163385D01*
X3655156Y-174109D01*
X3649983Y-186598D01*
X3648218Y-200000D01*
X3649983Y-213402D01*
X3655156Y-225891D01*
X3663385Y-236615D01*
X3674109Y-244844D01*
X3686598Y-250017D01*
X3700000Y-251782D01*
X3713402Y-250017D01*
X3725891Y-244844D01*
X3736615Y-236615D01*
X3744844Y-225891D01*
X3750017Y-213402D01*
X3751782Y-200000D01*
X3750017Y-186598D01*
X3745628Y-176001D01*
X3827153Y-94476D01*
X3830468Y-89514D01*
X3831633Y-83661D01*
Y2311049D01*
X3830468Y2316902D01*
X3827153Y2321864D01*
X3698163Y2450854D01*
X3693201Y2454169D01*
X3687349Y2455333D01*
D02*
G37*
G36*
X2895000Y2027187D02*
X2889558Y2026470D01*
X2879827Y2022440D01*
X2871472Y2016028D01*
X2865060Y2007673D01*
X2861030Y1997942D01*
X2860313Y1992500D01*
X2895000D01*
Y2027187D01*
D02*
G37*
G36*
X905000D02*
Y1992500D01*
X939687D01*
X938971Y1997942D01*
X934940Y2007673D01*
X928528Y2016028D01*
X920173Y2022440D01*
X910442Y2026470D01*
X905000Y2027187D01*
D02*
G37*
G36*
X995000D02*
X989558Y2026470D01*
X979827Y2022440D01*
X971472Y2016028D01*
X965060Y2007673D01*
X961029Y1997942D01*
X960313Y1992500D01*
X995000D01*
Y2027187D01*
D02*
G37*
G36*
X2795000D02*
X2789558Y2026470D01*
X2779827Y2022440D01*
X2771472Y2016028D01*
X2765060Y2007673D01*
X2761030Y1997942D01*
X2760313Y1992500D01*
X2795000D01*
Y2027187D01*
D02*
G37*
G36*
X1005000D02*
Y1992500D01*
X1039687D01*
X1038970Y1997942D01*
X1034940Y2007673D01*
X1028528Y2016028D01*
X1020173Y2022440D01*
X1010442Y2026470D01*
X1005000Y2027187D01*
D02*
G37*
G36*
X950000Y2276669D02*
X932604Y2274956D01*
X915876Y2269882D01*
X900460Y2261642D01*
X886948Y2250552D01*
X875858Y2237040D01*
X867618Y2221624D01*
X862544Y2204896D01*
X860831Y2187500D01*
X862544Y2170104D01*
X867618Y2153376D01*
X875858Y2137960D01*
X886948Y2124448D01*
X900460Y2113358D01*
X915876Y2105118D01*
X932604Y2100044D01*
X950000Y2098331D01*
X967396Y2100044D01*
X984124Y2105118D01*
X999540Y2113358D01*
X1013052Y2124448D01*
X1024142Y2137960D01*
X1032382Y2153376D01*
X1037456Y2170104D01*
X1039169Y2187500D01*
X1037456Y2204896D01*
X1032382Y2221624D01*
X1024142Y2237040D01*
X1013052Y2250552D01*
X999540Y2261642D01*
X984124Y2269882D01*
X967396Y2274956D01*
X950000Y2276669D01*
D02*
G37*
G36*
X2850000D02*
X2832604Y2274956D01*
X2815876Y2269882D01*
X2800460Y2261642D01*
X2786948Y2250552D01*
X2775858Y2237040D01*
X2767618Y2221624D01*
X2762544Y2204896D01*
X2760831Y2187500D01*
X2762544Y2170104D01*
X2767618Y2153376D01*
X2775858Y2137960D01*
X2786948Y2124448D01*
X2800460Y2113358D01*
X2815876Y2105118D01*
X2832604Y2100044D01*
X2850000Y2098331D01*
X2867396Y2100044D01*
X2884124Y2105118D01*
X2899540Y2113358D01*
X2913052Y2124448D01*
X2924142Y2137960D01*
X2932382Y2153376D01*
X2937456Y2170104D01*
X2939169Y2187500D01*
X2937456Y2204896D01*
X2932382Y2221624D01*
X2924142Y2237040D01*
X2913052Y2250552D01*
X2899540Y2261642D01*
X2884124Y2269882D01*
X2867396Y2274956D01*
X2850000Y2276669D01*
D02*
G37*
G36*
X2805000Y2027187D02*
Y1992500D01*
X2839687D01*
X2838970Y1997942D01*
X2834940Y2007673D01*
X2828528Y2016028D01*
X2820173Y2022440D01*
X2810442Y2026470D01*
X2805000Y2027187D01*
D02*
G37*
G36*
X2905000D02*
Y1992500D01*
X2939687D01*
X2938970Y1997942D01*
X2934940Y2007673D01*
X2928528Y2016028D01*
X2920173Y2022440D01*
X2910442Y2026470D01*
X2905000Y2027187D01*
D02*
G37*
G36*
X900000Y1327845D02*
X889558Y1326470D01*
X879827Y1322440D01*
X871472Y1316028D01*
X865060Y1307673D01*
X861029Y1297942D01*
X859655Y1287500D01*
X861029Y1277058D01*
X865060Y1267327D01*
X871472Y1258972D01*
X879827Y1252560D01*
X889558Y1248530D01*
X900000Y1247155D01*
X910442Y1248530D01*
X920173Y1252560D01*
X928528Y1258972D01*
X934940Y1267327D01*
X938971Y1277058D01*
X940345Y1287500D01*
X938971Y1297942D01*
X934940Y1307673D01*
X928528Y1316028D01*
X920173Y1322440D01*
X910442Y1326470D01*
X900000Y1327845D01*
D02*
G37*
G36*
X1000000D02*
X989558Y1326470D01*
X979827Y1322440D01*
X971472Y1316028D01*
X965060Y1307673D01*
X961029Y1297942D01*
X959655Y1287500D01*
X961029Y1277058D01*
X965060Y1267327D01*
X971472Y1258972D01*
X979827Y1252560D01*
X989558Y1248530D01*
X1000000Y1247155D01*
X1010442Y1248530D01*
X1020173Y1252560D01*
X1028528Y1258972D01*
X1034940Y1267327D01*
X1038970Y1277058D01*
X1040345Y1287500D01*
X1038970Y1297942D01*
X1034940Y1307673D01*
X1028528Y1316028D01*
X1020173Y1322440D01*
X1010442Y1326470D01*
X1000000Y1327845D01*
D02*
G37*
G36*
Y1227845D02*
X989558Y1226470D01*
X979827Y1222440D01*
X971472Y1216028D01*
X965060Y1207673D01*
X961029Y1197942D01*
X959655Y1187500D01*
X961029Y1177058D01*
X965060Y1167327D01*
X971472Y1158972D01*
X979827Y1152560D01*
X989558Y1148530D01*
X1000000Y1147155D01*
X1010442Y1148530D01*
X1020173Y1152560D01*
X1028528Y1158972D01*
X1034940Y1167327D01*
X1038970Y1177058D01*
X1040345Y1187500D01*
X1038970Y1197942D01*
X1034940Y1207673D01*
X1028528Y1216028D01*
X1020173Y1222440D01*
X1010442Y1226470D01*
X1000000Y1227845D01*
D02*
G37*
G36*
X2900000D02*
X2889558Y1226470D01*
X2879827Y1222440D01*
X2871472Y1216028D01*
X2865060Y1207673D01*
X2861030Y1197942D01*
X2859655Y1187500D01*
X2861030Y1177058D01*
X2863050Y1172179D01*
X2838665Y1147794D01*
X2822999D01*
X2820452Y1152264D01*
X2820477Y1152794D01*
X2828528Y1158972D01*
X2834940Y1167327D01*
X2838970Y1177058D01*
X2840345Y1187500D01*
X2838970Y1197942D01*
X2834940Y1207673D01*
X2828528Y1216028D01*
X2820173Y1222440D01*
X2810442Y1226470D01*
X2800000Y1227845D01*
X2789558Y1226470D01*
X2779827Y1222440D01*
X2771472Y1216028D01*
X2765060Y1207673D01*
X2761030Y1197942D01*
X2759655Y1187500D01*
X2761030Y1177058D01*
X2765060Y1167327D01*
X2771472Y1158972D01*
X2779800Y1152581D01*
X2779816Y1152454D01*
X2779271Y1147378D01*
X2775508Y1146630D01*
X2770546Y1143314D01*
X2573624Y946393D01*
X2570309Y941431D01*
X2569145Y935578D01*
Y490773D01*
X2414959Y336588D01*
X2410319Y338510D01*
X2400000Y339869D01*
X2389681Y338510D01*
X2380066Y334527D01*
X2371809Y328191D01*
X2365473Y319934D01*
X2361490Y310319D01*
X2360131Y300000D01*
X2361490Y289681D01*
X2365473Y280066D01*
X2368772Y275766D01*
X2366306Y270766D01*
X2350863D01*
X2336588Y285041D01*
X2338510Y289681D01*
X2339869Y300000D01*
X2338510Y310319D01*
X2334527Y319934D01*
X2328191Y328191D01*
X2319934Y334527D01*
X2310319Y338510D01*
X2300000Y339869D01*
X2289681Y338510D01*
X2280066Y334527D01*
X2271809Y328191D01*
X2265473Y319934D01*
X2261490Y310319D01*
X2260131Y300000D01*
X2261490Y289681D01*
X2265473Y280066D01*
X2271809Y271809D01*
X2280066Y265473D01*
X2289681Y261490D01*
X2300000Y260131D01*
X2310319Y261490D01*
X2314959Y263412D01*
X2333713Y244658D01*
X2338675Y241343D01*
X2344528Y240179D01*
X2418444D01*
X2424297Y241343D01*
X2429258Y244658D01*
X2615253Y430653D01*
X2618568Y435614D01*
X2619732Y441467D01*
Y785604D01*
X2784679Y950550D01*
X2789558Y948529D01*
X2800000Y947155D01*
X2810442Y948529D01*
X2820173Y952560D01*
X2828528Y958972D01*
X2834940Y967327D01*
X2838970Y977058D01*
X2840345Y987500D01*
X2838970Y997942D01*
X2834940Y1007673D01*
X2828528Y1016028D01*
X2820173Y1022440D01*
X2810442Y1026470D01*
X2800000Y1027845D01*
X2789558Y1026470D01*
X2779827Y1022440D01*
X2771472Y1016028D01*
X2765060Y1007673D01*
X2761030Y997942D01*
X2759655Y987500D01*
X2761030Y977058D01*
X2763050Y972179D01*
X2604352Y813481D01*
X2599732Y815394D01*
Y929243D01*
X2755005Y1084515D01*
X2760284Y1082723D01*
X2761030Y1077058D01*
X2765060Y1067327D01*
X2771472Y1058972D01*
X2779827Y1052560D01*
X2789558Y1048530D01*
X2800000Y1047155D01*
X2810442Y1048530D01*
X2820173Y1052560D01*
X2828528Y1058972D01*
X2834940Y1067327D01*
X2838970Y1077058D01*
X2840345Y1087500D01*
X2838970Y1097942D01*
X2834940Y1107673D01*
X2831461Y1112206D01*
X2833927Y1117206D01*
X2845000D01*
X2850853Y1118370D01*
X2855814Y1121686D01*
X2884679Y1150550D01*
X2889558Y1148530D01*
X2900000Y1147155D01*
X2910442Y1148530D01*
X2920173Y1152560D01*
X2928528Y1158972D01*
X2934940Y1167327D01*
X2938970Y1177058D01*
X2940345Y1187500D01*
X2938970Y1197942D01*
X2934940Y1207673D01*
X2928528Y1216028D01*
X2920173Y1222440D01*
X2910442Y1226470D01*
X2900000Y1227845D01*
D02*
G37*
G36*
X2800000Y1327845D02*
X2789558Y1326470D01*
X2779827Y1322440D01*
X2771472Y1316028D01*
X2765060Y1307673D01*
X2761030Y1297942D01*
X2759655Y1287500D01*
X2761030Y1277058D01*
X2765060Y1267327D01*
X2771472Y1258972D01*
X2779827Y1252560D01*
X2789558Y1248530D01*
X2800000Y1247155D01*
X2810442Y1248530D01*
X2820173Y1252560D01*
X2828528Y1258972D01*
X2834940Y1267327D01*
X2838970Y1277058D01*
X2840345Y1287500D01*
X2838970Y1297942D01*
X2834940Y1307673D01*
X2828528Y1316028D01*
X2820173Y1322440D01*
X2810442Y1326470D01*
X2800000Y1327845D01*
D02*
G37*
G36*
X1000000Y1427845D02*
X989558Y1426470D01*
X979827Y1422440D01*
X971472Y1416028D01*
X965060Y1407673D01*
X961029Y1397942D01*
X959655Y1387500D01*
X961029Y1377058D01*
X965060Y1367327D01*
X971472Y1358972D01*
X979827Y1352560D01*
X989558Y1348530D01*
X1000000Y1347155D01*
X1010442Y1348530D01*
X1020173Y1352560D01*
X1028528Y1358972D01*
X1034940Y1367327D01*
X1038970Y1377058D01*
X1040345Y1387500D01*
X1038970Y1397942D01*
X1034940Y1407673D01*
X1028528Y1416028D01*
X1020173Y1422440D01*
X1010442Y1426470D01*
X1000000Y1427845D01*
D02*
G37*
G36*
X2800000D02*
X2789558Y1426470D01*
X2779827Y1422440D01*
X2771472Y1416028D01*
X2765060Y1407673D01*
X2761030Y1397942D01*
X2759655Y1387500D01*
X2761030Y1377058D01*
X2765060Y1367327D01*
X2771472Y1358972D01*
X2779827Y1352560D01*
X2789558Y1348530D01*
X2800000Y1347155D01*
X2810442Y1348530D01*
X2820173Y1352560D01*
X2828528Y1358972D01*
X2834940Y1367327D01*
X2838970Y1377058D01*
X2840345Y1387500D01*
X2838970Y1397942D01*
X2834940Y1407673D01*
X2828528Y1416028D01*
X2820173Y1422440D01*
X2810442Y1426470D01*
X2800000Y1427845D01*
D02*
G37*
G36*
X2900000Y1327845D02*
X2889558Y1326470D01*
X2879827Y1322440D01*
X2871472Y1316028D01*
X2865060Y1307673D01*
X2861030Y1297942D01*
X2859655Y1287500D01*
X2861030Y1277058D01*
X2865060Y1267327D01*
X2871472Y1258972D01*
X2879827Y1252560D01*
X2889558Y1248530D01*
X2900000Y1247155D01*
X2910442Y1248530D01*
X2920173Y1252560D01*
X2928528Y1258972D01*
X2934940Y1267327D01*
X2938970Y1277058D01*
X2940345Y1287500D01*
X2938970Y1297942D01*
X2934940Y1307673D01*
X2928528Y1316028D01*
X2920173Y1322440D01*
X2910442Y1326470D01*
X2900000Y1327845D01*
D02*
G37*
G36*
X900000Y1427845D02*
X889558Y1426470D01*
X879827Y1422440D01*
X871472Y1416028D01*
X865060Y1407673D01*
X861029Y1397942D01*
X859655Y1387500D01*
X861029Y1377058D01*
X865060Y1367327D01*
X871472Y1358972D01*
X879827Y1352560D01*
X889558Y1348530D01*
X900000Y1347155D01*
X910442Y1348530D01*
X920173Y1352560D01*
X928528Y1358972D01*
X934940Y1367327D01*
X938971Y1377058D01*
X940345Y1387500D01*
X938971Y1397942D01*
X934940Y1407673D01*
X928528Y1416028D01*
X920173Y1422440D01*
X910442Y1426470D01*
X900000Y1427845D01*
D02*
G37*
G36*
X1000000Y1127845D02*
X989558Y1126470D01*
X979827Y1122440D01*
X971472Y1116028D01*
X965060Y1107673D01*
X961029Y1097942D01*
X959655Y1087500D01*
X961029Y1077058D01*
X965060Y1067327D01*
X971472Y1058972D01*
X979827Y1052560D01*
X989558Y1048530D01*
X1000000Y1047155D01*
X1010442Y1048530D01*
X1020173Y1052560D01*
X1028528Y1058972D01*
X1034940Y1067327D01*
X1038970Y1077058D01*
X1040345Y1087500D01*
X1038970Y1097942D01*
X1034940Y1107673D01*
X1028528Y1116028D01*
X1020173Y1122440D01*
X1010442Y1126470D01*
X1000000Y1127845D01*
D02*
G37*
G36*
X2900000D02*
X2889558Y1126470D01*
X2879827Y1122440D01*
X2871472Y1116028D01*
X2865060Y1107673D01*
X2861030Y1097942D01*
X2859655Y1087500D01*
X2861030Y1077058D01*
X2865060Y1067327D01*
X2871472Y1058972D01*
X2879827Y1052560D01*
X2889558Y1048530D01*
X2900000Y1047155D01*
X2910442Y1048530D01*
X2920173Y1052560D01*
X2928528Y1058972D01*
X2934940Y1067327D01*
X2938970Y1077058D01*
X2940345Y1087500D01*
X2938970Y1097942D01*
X2934940Y1107673D01*
X2928528Y1116028D01*
X2920173Y1122440D01*
X2910442Y1126470D01*
X2900000Y1127845D01*
D02*
G37*
G36*
Y1027845D02*
X2889558Y1026470D01*
X2879827Y1022440D01*
X2871472Y1016028D01*
X2865060Y1007673D01*
X2861030Y997942D01*
X2859655Y987500D01*
X2861030Y977058D01*
X2865060Y967327D01*
X2871472Y958972D01*
X2879827Y952560D01*
X2889558Y948529D01*
X2900000Y947155D01*
X2910442Y948529D01*
X2920173Y952560D01*
X2928528Y958972D01*
X2934940Y967327D01*
X2938970Y977058D01*
X2940345Y987500D01*
X2938970Y997942D01*
X2934940Y1007673D01*
X2928528Y1016028D01*
X2920173Y1022440D01*
X2910442Y1026470D01*
X2900000Y1027845D01*
D02*
G37*
G36*
X900000Y1127845D02*
X889558Y1126470D01*
X879827Y1122440D01*
X871472Y1116028D01*
X865060Y1107673D01*
X861029Y1097942D01*
X859655Y1087500D01*
X861029Y1077058D01*
X865060Y1067327D01*
X871472Y1058972D01*
X879827Y1052560D01*
X889558Y1048530D01*
X900000Y1047155D01*
X910442Y1048530D01*
X920173Y1052560D01*
X928528Y1058972D01*
X934940Y1067327D01*
X938971Y1077058D01*
X940345Y1087500D01*
X938971Y1097942D01*
X934940Y1107673D01*
X928528Y1116028D01*
X920173Y1122440D01*
X910442Y1126470D01*
X900000Y1127845D01*
D02*
G37*
G36*
X-5000Y1095000D02*
X-51123D01*
X-50017Y1086598D01*
X-44844Y1074109D01*
X-36615Y1063385D01*
X-25891Y1055156D01*
X-13402Y1049983D01*
X-5000Y1048877D01*
Y1095000D01*
D02*
G37*
G36*
X5000Y1151123D02*
Y1105000D01*
X51123D01*
X50017Y1113402D01*
X44844Y1125891D01*
X36615Y1136615D01*
X25891Y1144844D01*
X13402Y1150017D01*
X5000Y1151123D01*
D02*
G37*
G36*
X900000Y1227845D02*
X889558Y1226470D01*
X879827Y1222440D01*
X871472Y1216028D01*
X865060Y1207673D01*
X861029Y1197942D01*
X859655Y1187500D01*
X861029Y1177058D01*
X865060Y1167327D01*
X871472Y1158972D01*
X879827Y1152560D01*
X889558Y1148530D01*
X900000Y1147155D01*
X910442Y1148530D01*
X920173Y1152560D01*
X928528Y1158972D01*
X934940Y1167327D01*
X938971Y1177058D01*
X940345Y1187500D01*
X938971Y1197942D01*
X934940Y1207673D01*
X928528Y1216028D01*
X920173Y1222440D01*
X910442Y1226470D01*
X900000Y1227845D01*
D02*
G37*
G36*
X51123Y1095000D02*
X5000D01*
Y1048877D01*
X13402Y1049983D01*
X25891Y1055156D01*
X36615Y1063385D01*
X44844Y1074109D01*
X50017Y1086598D01*
X51123Y1095000D01*
D02*
G37*
G36*
X-5000Y1151123D02*
X-13402Y1150017D01*
X-25891Y1144844D01*
X-36615Y1136615D01*
X-44844Y1125891D01*
X-50017Y1113402D01*
X-51123Y1105000D01*
X-5000D01*
Y1151123D01*
D02*
G37*
G36*
X2900000Y1427845D02*
X2889558Y1426470D01*
X2879827Y1422440D01*
X2871472Y1416028D01*
X2865060Y1407673D01*
X2861030Y1397942D01*
X2859655Y1387500D01*
X2861030Y1377058D01*
X2865060Y1367327D01*
X2871472Y1358972D01*
X2879827Y1352560D01*
X2889558Y1348530D01*
X2900000Y1347155D01*
X2910442Y1348530D01*
X2920173Y1352560D01*
X2928528Y1358972D01*
X2934940Y1367327D01*
X2938970Y1377058D01*
X2940345Y1387500D01*
X2938970Y1397942D01*
X2934940Y1407673D01*
X2928528Y1416028D01*
X2920173Y1422440D01*
X2910442Y1426470D01*
X2900000Y1427845D01*
D02*
G37*
G36*
X2800000Y1627845D02*
X2789558Y1626470D01*
X2779827Y1622440D01*
X2771472Y1616028D01*
X2765060Y1607673D01*
X2761030Y1597942D01*
X2759655Y1587500D01*
X2761030Y1577058D01*
X2765060Y1567327D01*
X2771472Y1558972D01*
X2779827Y1552560D01*
X2789558Y1548530D01*
X2800000Y1547155D01*
X2810442Y1548530D01*
X2820173Y1552560D01*
X2828528Y1558972D01*
X2834940Y1567327D01*
X2838970Y1577058D01*
X2840345Y1587500D01*
X2838970Y1597942D01*
X2834940Y1607673D01*
X2828528Y1616028D01*
X2820173Y1622440D01*
X2810442Y1626470D01*
X2800000Y1627845D01*
D02*
G37*
G36*
X2900000D02*
X2889558Y1626470D01*
X2879827Y1622440D01*
X2871472Y1616028D01*
X2865060Y1607673D01*
X2861030Y1597942D01*
X2859655Y1587500D01*
X2861030Y1577058D01*
X2865060Y1567327D01*
X2871472Y1558972D01*
X2879827Y1552560D01*
X2889558Y1548530D01*
X2900000Y1547155D01*
X2910442Y1548530D01*
X2920173Y1552560D01*
X2928528Y1558972D01*
X2934940Y1567327D01*
X2938970Y1577058D01*
X2940345Y1587500D01*
X2938970Y1597942D01*
X2934940Y1607673D01*
X2928528Y1616028D01*
X2920173Y1622440D01*
X2910442Y1626470D01*
X2900000Y1627845D01*
D02*
G37*
G36*
X900000D02*
X889558Y1626470D01*
X879827Y1622440D01*
X871472Y1616028D01*
X865060Y1607673D01*
X861029Y1597942D01*
X859655Y1587500D01*
X861029Y1577058D01*
X865060Y1567327D01*
X871472Y1558972D01*
X879827Y1552560D01*
X889558Y1548530D01*
X900000Y1547155D01*
X910442Y1548530D01*
X920173Y1552560D01*
X928528Y1558972D01*
X934940Y1567327D01*
X938971Y1577058D01*
X940345Y1587500D01*
X938971Y1597942D01*
X934940Y1607673D01*
X928528Y1616028D01*
X920173Y1622440D01*
X910442Y1626470D01*
X900000Y1627845D01*
D02*
G37*
G36*
X1000000D02*
X989558Y1626470D01*
X979827Y1622440D01*
X971472Y1616028D01*
X965060Y1607673D01*
X961029Y1597942D01*
X959655Y1587500D01*
X961029Y1577058D01*
X965060Y1567327D01*
X971472Y1558972D01*
X979827Y1552560D01*
X989558Y1548530D01*
X1000000Y1547155D01*
X1010442Y1548530D01*
X1020173Y1552560D01*
X1028528Y1558972D01*
X1034940Y1567327D01*
X1038970Y1577058D01*
X1040345Y1587500D01*
X1038970Y1597942D01*
X1034940Y1607673D01*
X1028528Y1616028D01*
X1020173Y1622440D01*
X1010442Y1626470D01*
X1000000Y1627845D01*
D02*
G37*
G36*
X2800000Y1727845D02*
X2789558Y1726470D01*
X2779827Y1722440D01*
X2771472Y1716028D01*
X2765060Y1707673D01*
X2761030Y1697942D01*
X2759655Y1687500D01*
X2761030Y1677058D01*
X2765060Y1667327D01*
X2771472Y1658972D01*
X2779827Y1652560D01*
X2789558Y1648530D01*
X2800000Y1647155D01*
X2810442Y1648530D01*
X2820173Y1652560D01*
X2828528Y1658972D01*
X2834940Y1667327D01*
X2838970Y1677058D01*
X2840345Y1687500D01*
X2838970Y1697942D01*
X2834940Y1707673D01*
X2828528Y1716028D01*
X2820173Y1722440D01*
X2810442Y1726470D01*
X2800000Y1727845D01*
D02*
G37*
G36*
X2900000D02*
X2889558Y1726470D01*
X2879827Y1722440D01*
X2871472Y1716028D01*
X2865060Y1707673D01*
X2861030Y1697942D01*
X2859655Y1687500D01*
X2861030Y1677058D01*
X2865060Y1667327D01*
X2871472Y1658972D01*
X2879827Y1652560D01*
X2889558Y1648530D01*
X2900000Y1647155D01*
X2910442Y1648530D01*
X2920173Y1652560D01*
X2928528Y1658972D01*
X2934940Y1667327D01*
X2938970Y1677058D01*
X2940345Y1687500D01*
X2938970Y1697942D01*
X2934940Y1707673D01*
X2928528Y1716028D01*
X2920173Y1722440D01*
X2910442Y1726470D01*
X2900000Y1727845D01*
D02*
G37*
G36*
X900000D02*
X889558Y1726470D01*
X879827Y1722440D01*
X871472Y1716028D01*
X865060Y1707673D01*
X861029Y1697942D01*
X859655Y1687500D01*
X861029Y1677058D01*
X865060Y1667327D01*
X871472Y1658972D01*
X879827Y1652560D01*
X889558Y1648530D01*
X900000Y1647155D01*
X910442Y1648530D01*
X920173Y1652560D01*
X928528Y1658972D01*
X934940Y1667327D01*
X938971Y1677058D01*
X940345Y1687500D01*
X938971Y1697942D01*
X934940Y1707673D01*
X928528Y1716028D01*
X920173Y1722440D01*
X910442Y1726470D01*
X900000Y1727845D01*
D02*
G37*
G36*
X1000000D02*
X989558Y1726470D01*
X979827Y1722440D01*
X971472Y1716028D01*
X965060Y1707673D01*
X961029Y1697942D01*
X959655Y1687500D01*
X961029Y1677058D01*
X965060Y1667327D01*
X971472Y1658972D01*
X979827Y1652560D01*
X989558Y1648530D01*
X1000000Y1647155D01*
X1010442Y1648530D01*
X1020173Y1652560D01*
X1028528Y1658972D01*
X1034940Y1667327D01*
X1038970Y1677058D01*
X1040345Y1687500D01*
X1038970Y1697942D01*
X1034940Y1707673D01*
X1028528Y1716028D01*
X1020173Y1722440D01*
X1010442Y1726470D01*
X1000000Y1727845D01*
D02*
G37*
G36*
X2900000Y1527845D02*
X2889558Y1526470D01*
X2879827Y1522440D01*
X2871472Y1516028D01*
X2865060Y1507673D01*
X2861030Y1497942D01*
X2859655Y1487500D01*
X2861030Y1477058D01*
X2865060Y1467327D01*
X2871472Y1458972D01*
X2879827Y1452560D01*
X2889558Y1448530D01*
X2900000Y1447155D01*
X2910442Y1448530D01*
X2920173Y1452560D01*
X2928528Y1458972D01*
X2934940Y1467327D01*
X2938970Y1477058D01*
X2940345Y1487500D01*
X2938970Y1497942D01*
X2934940Y1507673D01*
X2928528Y1516028D01*
X2920173Y1522440D01*
X2910442Y1526470D01*
X2900000Y1527845D01*
D02*
G37*
G36*
X-5000Y1495000D02*
X-39210D01*
X-38510Y1489681D01*
X-34527Y1480066D01*
X-28191Y1471809D01*
X-19934Y1465473D01*
X-10319Y1461490D01*
X-5000Y1460790D01*
Y1495000D01*
D02*
G37*
G36*
X2800000Y1527845D02*
X2789558Y1526470D01*
X2779827Y1522440D01*
X2771472Y1516028D01*
X2765060Y1507673D01*
X2761030Y1497942D01*
X2759655Y1487500D01*
X2761030Y1477058D01*
X2765060Y1467327D01*
X2771472Y1458972D01*
X2779827Y1452560D01*
X2789558Y1448530D01*
X2800000Y1447155D01*
X2810442Y1448530D01*
X2820173Y1452560D01*
X2828528Y1458972D01*
X2834940Y1467327D01*
X2838970Y1477058D01*
X2840345Y1487500D01*
X2838970Y1497942D01*
X2834940Y1507673D01*
X2828528Y1516028D01*
X2820173Y1522440D01*
X2810442Y1526470D01*
X2800000Y1527845D01*
D02*
G37*
G36*
X900000D02*
X889558Y1526470D01*
X879827Y1522440D01*
X871472Y1516028D01*
X865060Y1507673D01*
X861029Y1497942D01*
X859655Y1487500D01*
X861029Y1477058D01*
X865060Y1467327D01*
X871472Y1458972D01*
X879827Y1452560D01*
X889558Y1448530D01*
X900000Y1447155D01*
X910442Y1448530D01*
X920173Y1452560D01*
X928528Y1458972D01*
X934940Y1467327D01*
X938971Y1477058D01*
X940345Y1487500D01*
X938971Y1497942D01*
X934940Y1507673D01*
X928528Y1516028D01*
X920173Y1522440D01*
X910442Y1526470D01*
X900000Y1527845D01*
D02*
G37*
G36*
X1000000D02*
X989558Y1526470D01*
X979827Y1522440D01*
X971472Y1516028D01*
X965060Y1507673D01*
X961029Y1497942D01*
X959655Y1487500D01*
X961029Y1477058D01*
X965060Y1467327D01*
X971472Y1458972D01*
X979827Y1452560D01*
X989558Y1448530D01*
X1000000Y1447155D01*
X1010442Y1448530D01*
X1020173Y1452560D01*
X1028528Y1458972D01*
X1034940Y1467327D01*
X1038970Y1477058D01*
X1040345Y1487500D01*
X1038970Y1497942D01*
X1034940Y1507673D01*
X1028528Y1516028D01*
X1020173Y1522440D01*
X1010442Y1526470D01*
X1000000Y1527845D01*
D02*
G37*
G36*
X-5000Y1539210D02*
X-10319Y1538510D01*
X-19934Y1534527D01*
X-28191Y1528191D01*
X-34527Y1519934D01*
X-38510Y1510319D01*
X-39210Y1505000D01*
X-5000D01*
Y1539210D01*
D02*
G37*
G36*
X540000Y2390000D02*
X460000D01*
Y2310000D01*
X518371D01*
X529706Y2298665D01*
Y2290000D01*
X460000D01*
Y2226477D01*
X459706Y2225000D01*
Y1881335D01*
X114959Y1536588D01*
X110319Y1538510D01*
X100000Y1539869D01*
X89681Y1538510D01*
X80066Y1534527D01*
X71809Y1528191D01*
X65765Y1520315D01*
X65214Y1520304D01*
X60765Y1523449D01*
Y1554529D01*
X59601Y1560381D01*
X56286Y1565343D01*
X36588Y1585041D01*
X38510Y1589681D01*
X39869Y1600000D01*
X38510Y1610319D01*
X34527Y1619934D01*
X28191Y1628191D01*
X19934Y1634527D01*
X10319Y1638510D01*
X0Y1639869D01*
X-10319Y1638510D01*
X-19934Y1634527D01*
X-28191Y1628191D01*
X-34527Y1619934D01*
X-38510Y1610319D01*
X-39869Y1600000D01*
X-38510Y1589681D01*
X-34527Y1580066D01*
X-28191Y1571809D01*
X-19934Y1565473D01*
X-10319Y1561490D01*
X0Y1560131D01*
X10319Y1561490D01*
X14959Y1563412D01*
X30177Y1548194D01*
Y1532970D01*
X25177Y1530504D01*
X19934Y1534527D01*
X10319Y1538510D01*
X5000Y1539210D01*
Y1500000D01*
Y1460790D01*
X10319Y1461490D01*
X19934Y1465473D01*
X28191Y1471809D01*
X31807Y1476521D01*
X38444Y1476956D01*
X70742Y1444658D01*
X75703Y1441343D01*
X81556Y1440178D01*
X118444D01*
X124297Y1441343D01*
X129258Y1444658D01*
X555814Y1871214D01*
X559130Y1876176D01*
X560294Y1882028D01*
Y2305000D01*
X559130Y2310853D01*
X555814Y2315814D01*
X540000Y2331629D01*
Y2390000D01*
D02*
G37*
%LPD*%
G36*
X360000Y2281838D02*
Y2226477D01*
X359706Y2225000D01*
Y1918363D01*
X144497Y1703154D01*
X139218Y1704946D01*
X138510Y1710319D01*
X136588Y1714959D01*
X253008Y1831379D01*
X256323Y1836341D01*
X257487Y1842193D01*
Y2185858D01*
X355381Y2283752D01*
X360000Y2281838D01*
D02*
G37*
G36*
X3761045Y2288146D02*
Y2206881D01*
X3756425Y2204967D01*
X3674567Y2286826D01*
Y2368091D01*
X3679186Y2370004D01*
X3761045Y2288146D01*
D02*
G37*
G36*
X2589145Y460983D02*
Y447802D01*
X2444497Y303154D01*
X2439218Y304946D01*
X2438510Y310319D01*
X2436588Y314959D01*
X2584525Y462896D01*
X2589145Y460983D01*
D02*
G37*
G36*
X529706Y1888363D02*
X144497Y1503154D01*
X139218Y1504946D01*
X138510Y1510319D01*
X136588Y1514959D01*
X485814Y1864186D01*
X489130Y1869147D01*
X490294Y1875000D01*
Y2210000D01*
X529706D01*
Y1888363D01*
D02*
G37*
D10*
X3650000Y2169882D02*
D03*
X3600000D02*
D03*
X3550000D02*
D03*
X3500000D02*
D03*
X3450000D02*
D03*
Y2330118D02*
D03*
X3500000D02*
D03*
X3550000D02*
D03*
X3600000D02*
D03*
X3650000D02*
D03*
D11*
X2800000Y1787500D02*
X2900000D01*
X545000Y1882028D02*
Y2305000D01*
X355000Y2395000D02*
X400000Y2350000D01*
X355000Y2395000D02*
Y2486213D01*
X363787Y2495000D01*
X2092500D02*
X2800000Y1787500D01*
X363787Y2495000D02*
X2092500D01*
X44528Y1655472D02*
X118444D01*
X100000Y1500000D02*
X475000Y1875000D01*
X45471Y1491557D02*
Y1554529D01*
X2355472Y644528D02*
Y1342972D01*
X2845000Y1132500D02*
X2900000Y1187500D01*
X2400000Y300000D02*
X2584439Y484438D01*
Y935578D01*
X2604439Y441467D02*
Y791938D01*
X2355472Y1342972D02*
X2800000Y1787500D01*
X2355472Y644528D02*
X2400000Y600000D01*
X2781360Y1132500D02*
X2845000D01*
X1000000Y787500D02*
X2112500D01*
X2300000Y600000D01*
X991360Y732500D02*
X2067500D01*
X950464Y773397D02*
Y837036D01*
X2067500Y732500D02*
X2300000Y500000D01*
X900000Y887500D02*
X950464Y837036D01*
Y773397D02*
X991360Y732500D01*
X2604439Y791938D02*
X2800000Y987500D01*
X2344528Y255472D02*
X2418444D01*
X2300000Y300000D02*
X2344528Y255472D01*
X2418444D02*
X2604439Y441467D01*
X2584439Y935578D02*
X2781360Y1132500D01*
X3700000Y-200000D02*
X3816339Y-83661D01*
Y2311049D01*
X3700000Y700000D02*
X3796339Y796339D01*
X3700000Y1330000D02*
X3776339Y1406339D01*
Y2294481D01*
X3687349Y2440039D02*
X3816339Y2311049D01*
X3569220Y2440039D02*
X3687349D01*
X3520433Y2390905D02*
Y2391252D01*
X3500000Y2330118D02*
Y2370472D01*
X3520433Y2391252D02*
X3569220Y2440039D01*
X3500000Y2370472D02*
X3520433Y2390905D01*
X3450000Y350000D02*
X3700000Y100000D01*
X3450000Y350000D02*
Y2169882D01*
X3500000Y600000D02*
X3700000Y400000D01*
X3500000Y600000D02*
Y2169882D01*
X3796339Y796339D02*
Y2302765D01*
X3599220Y2420039D02*
X3679064D01*
X3796339Y2302765D01*
X3570433Y2391252D02*
X3599220Y2420039D01*
X3550000Y2330118D02*
Y2370472D01*
X3570433Y2390905D02*
Y2391252D01*
X3550000Y2370472D02*
X3570433Y2390905D01*
X3550000Y1150000D02*
X3700000Y1000000D01*
X3550000Y1150000D02*
Y2169882D01*
X3670780Y2400039D02*
X3776339Y2294481D01*
X3620433Y2391252D02*
X3629220Y2400039D01*
X3600000Y2330118D02*
Y2370472D01*
X3629220Y2400039D02*
X3670780D01*
X3620433Y2390905D02*
Y2391252D01*
X3600000Y2370472D02*
X3620433Y2390905D01*
X3700000Y1600000D02*
X3756339Y1656339D01*
Y2183425D01*
X3650000Y2289764D02*
Y2330118D01*
Y2289764D02*
X3756339Y2183425D01*
X3600000Y2000000D02*
X3700000Y1900000D01*
X3600000Y2000000D02*
Y2169882D01*
X375000Y2225000D02*
X400000Y2250000D01*
X475000Y2225000D02*
X500000Y2250000D01*
X118444Y1455472D02*
X545000Y1882028D01*
X0Y1700000D02*
X44528Y1655472D01*
X118444D02*
X375000Y1912028D01*
Y2225000D01*
X100000Y1700000D02*
X242193Y1842193D01*
X0Y1600000D02*
X45471Y1554529D01*
X81556Y1455472D02*
X118444D01*
X45471Y1491557D02*
X81556Y1455472D01*
X500000Y2350000D02*
X545000Y2305000D01*
X475000Y1875000D02*
Y2225000D01*
X242193Y1842193D02*
Y2192193D01*
X400000Y2350000D01*
D12*
X3700000Y1900000D02*
D03*
Y1330000D02*
D03*
Y400000D02*
D03*
Y-200000D02*
D03*
Y100000D02*
D03*
Y1600000D02*
D03*
Y700000D02*
D03*
Y1000000D02*
D03*
X0Y500000D02*
D03*
X3700000Y-500000D02*
D03*
X0Y800000D02*
D03*
Y1100000D02*
D03*
D13*
X500000Y2250000D02*
D03*
Y2350000D02*
D03*
Y2450000D02*
D03*
X400000D02*
D03*
Y2350000D02*
D03*
Y2250000D02*
D03*
D14*
X900000Y1987500D02*
D03*
X2800000Y-212500D02*
D03*
Y-112500D02*
D03*
Y-12500D02*
D03*
Y87500D02*
D03*
Y187500D02*
D03*
Y287500D02*
D03*
Y387500D02*
D03*
Y487500D02*
D03*
Y587500D02*
D03*
Y687500D02*
D03*
Y787500D02*
D03*
Y887500D02*
D03*
Y987500D02*
D03*
Y1087500D02*
D03*
Y1187500D02*
D03*
Y1287500D02*
D03*
Y1387500D02*
D03*
Y1487500D02*
D03*
Y1587500D02*
D03*
Y1687500D02*
D03*
Y1787500D02*
D03*
Y1887500D02*
D03*
X2900000Y-212500D02*
D03*
Y-112500D02*
D03*
Y-12500D02*
D03*
Y87500D02*
D03*
Y187500D02*
D03*
Y287500D02*
D03*
Y387500D02*
D03*
Y487500D02*
D03*
Y587500D02*
D03*
Y687500D02*
D03*
Y787500D02*
D03*
Y887500D02*
D03*
Y987500D02*
D03*
Y1087500D02*
D03*
Y1187500D02*
D03*
Y1287500D02*
D03*
Y1387500D02*
D03*
Y1487500D02*
D03*
Y1587500D02*
D03*
Y1687500D02*
D03*
Y1787500D02*
D03*
Y1887500D02*
D03*
Y1987500D02*
D03*
X2800000D02*
D03*
X900000Y-212500D02*
D03*
Y-112500D02*
D03*
Y-12500D02*
D03*
Y87500D02*
D03*
Y187500D02*
D03*
Y287500D02*
D03*
Y387500D02*
D03*
Y487500D02*
D03*
Y587500D02*
D03*
Y687500D02*
D03*
Y787500D02*
D03*
Y887500D02*
D03*
Y987500D02*
D03*
Y1087500D02*
D03*
Y1187500D02*
D03*
Y1287500D02*
D03*
Y1387500D02*
D03*
Y1487500D02*
D03*
Y1587500D02*
D03*
Y1687500D02*
D03*
Y1787500D02*
D03*
Y1887500D02*
D03*
X1000000Y-212500D02*
D03*
Y-112500D02*
D03*
Y-12500D02*
D03*
Y87500D02*
D03*
Y187500D02*
D03*
Y287500D02*
D03*
Y387500D02*
D03*
Y487500D02*
D03*
Y587500D02*
D03*
Y687500D02*
D03*
Y787500D02*
D03*
Y887500D02*
D03*
Y987500D02*
D03*
Y1087500D02*
D03*
Y1187500D02*
D03*
Y1287500D02*
D03*
Y1387500D02*
D03*
Y1487500D02*
D03*
Y1587500D02*
D03*
Y1687500D02*
D03*
Y1787500D02*
D03*
Y1887500D02*
D03*
Y1987500D02*
D03*
D15*
X1075000Y-387500D02*
D03*
X2725000D02*
D03*
X2850000Y2187500D02*
D03*
X950000D02*
D03*
D16*
X0Y2350000D02*
D03*
X2400000D02*
D03*
X2250000Y0D02*
D03*
X0D02*
D03*
D17*
X2400000Y700000D02*
D03*
Y600000D02*
D03*
Y500000D02*
D03*
Y400000D02*
D03*
Y300000D02*
D03*
X2300000Y700000D02*
D03*
Y600000D02*
D03*
Y500000D02*
D03*
Y400000D02*
D03*
Y300000D02*
D03*
X100000Y1900000D02*
D03*
Y1800000D02*
D03*
Y1700000D02*
D03*
Y1600000D02*
D03*
Y1500000D02*
D03*
X0Y1900000D02*
D03*
Y1800000D02*
D03*
Y1700000D02*
D03*
Y1600000D02*
D03*
Y1500000D02*
D03*
%TF.MD5,3b676bc924dc84d2848e80cca3b78e4b*%
M02*
