G04 Layer_Color=2752767*
%FSLAX26Y26*%
%MOIN*%
%TF.FileFunction,Drawing*%
%TF.Part,Single*%
G01*
G75*
%TA.AperFunction,NonConductor*%
%ADD73C,0.005000*%
%ADD93C,0.006667*%
D73*
X1894504Y6681402D02*
Y6721402D01*
X1934504D01*
Y6681402D01*
X1894504D01*
Y6781402D02*
Y6821402D01*
X1934504D01*
Y6781402D01*
X1894504D01*
X794504Y6681402D02*
Y6721402D01*
X834504D01*
Y6681402D01*
X794504D01*
X894504D02*
Y6721402D01*
X934504D01*
Y6681402D01*
X894504D01*
X994504D02*
Y6721402D01*
X1034504D01*
Y6681402D01*
X994504D01*
X1094504D02*
Y6721402D01*
X1134504D01*
Y6681402D01*
X1094504D01*
X1194504D02*
Y6721402D01*
X1234504D01*
Y6681402D01*
X1194504D01*
X1294504D02*
Y6721402D01*
X1334504D01*
Y6681402D01*
X1294504D01*
X1394504D02*
Y6721402D01*
X1434504D01*
Y6681402D01*
X1394504D01*
X1494504D02*
Y6721402D01*
X1534504D01*
Y6681402D01*
X1494504D01*
X1594504D02*
Y6721402D01*
X1634504D01*
Y6681402D01*
X1594504D01*
X1694504D02*
Y6721402D01*
X1734504D01*
Y6681402D01*
X1694504D01*
X794504Y6781402D02*
Y6821402D01*
X834504D01*
Y6781402D01*
X794504D01*
X894504D02*
Y6821402D01*
X934504D01*
Y6781402D01*
X894504D01*
X994504D02*
Y6821402D01*
X1034504D01*
Y6781402D01*
X994504D01*
X1094504D02*
Y6821402D01*
X1134504D01*
Y6781402D01*
X1094504D01*
X1194504D02*
Y6821402D01*
X1234504D01*
Y6781402D01*
X1194504D01*
X1294504D02*
Y6821402D01*
X1334504D01*
Y6781402D01*
X1294504D01*
X1394504D02*
Y6821402D01*
X1434504D01*
Y6781402D01*
X1394504D01*
X1494504D02*
Y6821402D01*
X1534504D01*
Y6781402D01*
X1494504D01*
X1594504D02*
Y6821402D01*
X1634504D01*
Y6781402D01*
X1594504D01*
X1694504D02*
Y6821402D01*
X1734504D01*
Y6781402D01*
X1694504D01*
X1794504D02*
Y6821402D01*
X1834504D01*
Y6781402D01*
X1794504D01*
Y6681402D02*
Y6721402D01*
X1834504D01*
Y6681402D01*
X1794504D01*
X2350018Y3720444D02*
Y3760444D01*
X2390018D01*
Y3720444D01*
X2350018D01*
Y3820444D02*
Y3860444D01*
X2390018D01*
Y3820444D01*
X2350018D01*
X220412Y6680168D02*
X200412Y6720168D01*
X240412D01*
X220412Y6680168D01*
X320412D02*
X300412Y6720168D01*
X340412D01*
X320412Y6680168D01*
X420412D02*
X400412Y6720168D01*
X440412D01*
X420412Y6680168D01*
Y6780168D02*
X400412Y6820168D01*
X440412D01*
X420412Y6780168D01*
X320412D02*
X300412Y6820168D01*
X340412D01*
X320412Y6780168D01*
X220412D02*
X200412Y6820168D01*
X240412D01*
X220412Y6780168D01*
X239782Y4317568D02*
Y4357568D01*
X279782D01*
Y4317568D01*
X239782D01*
Y4417568D02*
Y4457568D01*
X279782D01*
Y4417568D01*
X239782D01*
Y4517568D02*
Y4557568D01*
X279782D01*
Y4517568D01*
X239782D01*
Y4617568D02*
Y4657568D01*
X279782D01*
Y4617568D01*
X239782D01*
X2355924Y4523868D02*
Y4563868D01*
X2395924D01*
Y4523868D01*
X2355924D01*
Y4623868D02*
Y4663868D01*
X2395924D01*
Y4623868D01*
X2355924D01*
Y4937254D02*
Y4977254D01*
X2395924D01*
Y4937254D01*
X2355924D01*
Y5037254D02*
Y5077254D01*
X2395924D01*
Y5037254D01*
X2355924D01*
X2350018Y4118358D02*
Y4158358D01*
X2390018D01*
Y4118358D01*
X2350018D01*
Y4218358D02*
Y4258358D01*
X2390018D01*
Y4218358D01*
X2350018D01*
Y5723250D02*
Y5763250D01*
X2390018D01*
Y5723250D01*
X2350018D01*
Y5823250D02*
Y5863250D01*
X2390018D01*
Y5823250D01*
X2350018D01*
X239782Y3531742D02*
Y3571742D01*
X279782D01*
Y3531742D01*
X239782D01*
Y3631742D02*
Y3671742D01*
X279782D01*
Y3631742D01*
X239782D01*
X2350018Y5325706D02*
Y5365706D01*
X2390018D01*
Y5325706D01*
X2350018D01*
Y5425706D02*
Y5465706D01*
X2390018D01*
Y5425706D01*
X2350018D01*
X239782Y3921506D02*
Y3961506D01*
X279782D01*
Y3921506D01*
X239782D01*
Y4021506D02*
Y4061506D01*
X279782D01*
Y4021506D01*
X239782D01*
Y5720062D02*
Y5760062D01*
X279782D01*
Y5720062D01*
X239782D01*
Y5820062D02*
Y5860062D01*
X279782D01*
Y5820062D01*
X239782D01*
Y5325706D02*
Y5365706D01*
X279782D01*
Y5325706D01*
X239782D01*
Y5425706D02*
Y5465706D01*
X279782D01*
Y5425706D01*
X239782D01*
Y4931348D02*
Y4971348D01*
X279782D01*
Y4931348D01*
X239782D01*
Y5031348D02*
Y5071348D01*
X279782D01*
Y5031348D01*
X239782D01*
X543246Y1593554D02*
X553246Y1603554D01*
X563246D01*
X553246Y1613554D01*
X563246Y1623554D01*
X553246D01*
X543246Y1633554D01*
X533246Y1623554D01*
X523246D01*
X533246Y1613554D01*
X523246Y1603554D01*
X533246D01*
X543246Y1593554D01*
X643246D02*
X653246Y1603554D01*
X663246D01*
X653246Y1613554D01*
X663246Y1623554D01*
X653246D01*
X643246Y1633554D01*
X633246Y1623554D01*
X623246D01*
X633246Y1613554D01*
X623246Y1603554D01*
X633246D01*
X643246Y1593554D01*
X743246D02*
X753246Y1603554D01*
X763246D01*
X753246Y1613554D01*
X763246Y1623554D01*
X753246D01*
X743246Y1633554D01*
X733246Y1623554D01*
X723246D01*
X733246Y1613554D01*
X723246Y1603554D01*
X733246D01*
X743246Y1593554D01*
X843246D02*
X853246Y1603554D01*
X863246D01*
X853246Y1613554D01*
X863246Y1623554D01*
X853246D01*
X843246Y1633554D01*
X833246Y1623554D01*
X823246D01*
X833246Y1613554D01*
X823246Y1603554D01*
X833246D01*
X843246Y1593554D01*
X943246D02*
X953246Y1603554D01*
X963246D01*
X953246Y1613554D01*
X963246Y1623554D01*
X953246D01*
X943246Y1633554D01*
X933246Y1623554D01*
X923246D01*
X933246Y1613554D01*
X923246Y1603554D01*
X933246D01*
X943246Y1593554D01*
X1043246D02*
X1053246Y1603554D01*
X1063246D01*
X1053246Y1613554D01*
X1063246Y1623554D01*
X1053246D01*
X1043246Y1633554D01*
X1033246Y1623554D01*
X1023246D01*
X1033246Y1613554D01*
X1023246Y1603554D01*
X1033246D01*
X1043246Y1593554D01*
X1143246D02*
X1153246Y1603554D01*
X1163246D01*
X1153246Y1613554D01*
X1163246Y1623554D01*
X1153246D01*
X1143246Y1633554D01*
X1133246Y1623554D01*
X1123246D01*
X1133246Y1613554D01*
X1123246Y1603554D01*
X1133246D01*
X1143246Y1593554D01*
X1243246D02*
X1253246Y1603554D01*
X1263246D01*
X1253246Y1613554D01*
X1263246Y1623554D01*
X1253246D01*
X1243246Y1633554D01*
X1233246Y1623554D01*
X1223246D01*
X1233246Y1613554D01*
X1223246Y1603554D01*
X1233246D01*
X1243246Y1593554D01*
X1343246D02*
X1353246Y1603554D01*
X1363246D01*
X1353246Y1613554D01*
X1363246Y1623554D01*
X1353246D01*
X1343246Y1633554D01*
X1333246Y1623554D01*
X1323246D01*
X1333246Y1613554D01*
X1323246Y1603554D01*
X1333246D01*
X1343246Y1593554D01*
X1443246D02*
X1453246Y1603554D01*
X1463246D01*
X1453246Y1613554D01*
X1463246Y1623554D01*
X1453246D01*
X1443246Y1633554D01*
X1433246Y1623554D01*
X1423246D01*
X1433246Y1613554D01*
X1423246Y1603554D01*
X1433246D01*
X1443246Y1593554D01*
X1543246D02*
X1553246Y1603554D01*
X1563246D01*
X1553246Y1613554D01*
X1563246Y1623554D01*
X1553246D01*
X1543246Y1633554D01*
X1533246Y1623554D01*
X1523246D01*
X1533246Y1613554D01*
X1523246Y1603554D01*
X1533246D01*
X1543246Y1593554D01*
X1643246D02*
X1653246Y1603554D01*
X1663246D01*
X1653246Y1613554D01*
X1663246Y1623554D01*
X1653246D01*
X1643246Y1633554D01*
X1633246Y1623554D01*
X1623246D01*
X1633246Y1613554D01*
X1623246Y1603554D01*
X1633246D01*
X1643246Y1593554D01*
X1743246D02*
X1753246Y1603554D01*
X1763246D01*
X1753246Y1613554D01*
X1763246Y1623554D01*
X1753246D01*
X1743246Y1633554D01*
X1733246Y1623554D01*
X1723246D01*
X1733246Y1613554D01*
X1723246Y1603554D01*
X1733246D01*
X1743246Y1593554D01*
X1843246D02*
X1853246Y1603554D01*
X1863246D01*
X1853246Y1613554D01*
X1863246Y1623554D01*
X1853246D01*
X1843246Y1633554D01*
X1833246Y1623554D01*
X1823246D01*
X1833246Y1613554D01*
X1823246Y1603554D01*
X1833246D01*
X1843246Y1593554D01*
X543246Y2593554D02*
X553246Y2603554D01*
X563246D01*
X553246Y2613554D01*
X563246Y2623554D01*
X553246D01*
X543246Y2633554D01*
X533246Y2623554D01*
X523246D01*
X533246Y2613554D01*
X523246Y2603554D01*
X533246D01*
X543246Y2593554D01*
X643246D02*
X653246Y2603554D01*
X663246D01*
X653246Y2613554D01*
X663246Y2623554D01*
X653246D01*
X643246Y2633554D01*
X633246Y2623554D01*
X623246D01*
X633246Y2613554D01*
X623246Y2603554D01*
X633246D01*
X643246Y2593554D01*
X743246D02*
X753246Y2603554D01*
X763246D01*
X753246Y2613554D01*
X763246Y2623554D01*
X753246D01*
X743246Y2633554D01*
X733246Y2623554D01*
X723246D01*
X733246Y2613554D01*
X723246Y2603554D01*
X733246D01*
X743246Y2593554D01*
X843246D02*
X853246Y2603554D01*
X863246D01*
X853246Y2613554D01*
X863246Y2623554D01*
X853246D01*
X843246Y2633554D01*
X833246Y2623554D01*
X823246D01*
X833246Y2613554D01*
X823246Y2603554D01*
X833246D01*
X843246Y2593554D01*
X943246D02*
X953246Y2603554D01*
X963246D01*
X953246Y2613554D01*
X963246Y2623554D01*
X953246D01*
X943246Y2633554D01*
X933246Y2623554D01*
X923246D01*
X933246Y2613554D01*
X923246Y2603554D01*
X933246D01*
X943246Y2593554D01*
X1043246D02*
X1053246Y2603554D01*
X1063246D01*
X1053246Y2613554D01*
X1063246Y2623554D01*
X1053246D01*
X1043246Y2633554D01*
X1033246Y2623554D01*
X1023246D01*
X1033246Y2613554D01*
X1023246Y2603554D01*
X1033246D01*
X1043246Y2593554D01*
X1143246D02*
X1153246Y2603554D01*
X1163246D01*
X1153246Y2613554D01*
X1163246Y2623554D01*
X1153246D01*
X1143246Y2633554D01*
X1133246Y2623554D01*
X1123246D01*
X1133246Y2613554D01*
X1123246Y2603554D01*
X1133246D01*
X1143246Y2593554D01*
X1243246D02*
X1253246Y2603554D01*
X1263246D01*
X1253246Y2613554D01*
X1263246Y2623554D01*
X1253246D01*
X1243246Y2633554D01*
X1233246Y2623554D01*
X1223246D01*
X1233246Y2613554D01*
X1223246Y2603554D01*
X1233246D01*
X1243246Y2593554D01*
X1343246D02*
X1353246Y2603554D01*
X1363246D01*
X1353246Y2613554D01*
X1363246Y2623554D01*
X1353246D01*
X1343246Y2633554D01*
X1333246Y2623554D01*
X1323246D01*
X1333246Y2613554D01*
X1323246Y2603554D01*
X1333246D01*
X1343246Y2593554D01*
X1443246D02*
X1453246Y2603554D01*
X1463246D01*
X1453246Y2613554D01*
X1463246Y2623554D01*
X1453246D01*
X1443246Y2633554D01*
X1433246Y2623554D01*
X1423246D01*
X1433246Y2613554D01*
X1423246Y2603554D01*
X1433246D01*
X1443246Y2593554D01*
X1543246D02*
X1553246Y2603554D01*
X1563246D01*
X1553246Y2613554D01*
X1563246Y2623554D01*
X1553246D01*
X1543246Y2633554D01*
X1533246Y2623554D01*
X1523246D01*
X1533246Y2613554D01*
X1523246Y2603554D01*
X1533246D01*
X1543246Y2593554D01*
X1643246D02*
X1653246Y2603554D01*
X1663246D01*
X1653246Y2613554D01*
X1663246Y2623554D01*
X1653246D01*
X1643246Y2633554D01*
X1633246Y2623554D01*
X1623246D01*
X1633246Y2613554D01*
X1623246Y2603554D01*
X1633246D01*
X1643246Y2593554D01*
X1743246D02*
X1753246Y2603554D01*
X1763246D01*
X1753246Y2613554D01*
X1763246Y2623554D01*
X1753246D01*
X1743246Y2633554D01*
X1733246Y2623554D01*
X1723246D01*
X1733246Y2613554D01*
X1723246Y2603554D01*
X1733246D01*
X1743246Y2593554D01*
X1843246D02*
X1853246Y2603554D01*
X1863246D01*
X1853246Y2613554D01*
X1863246Y2623554D01*
X1853246D01*
X1843246Y2633554D01*
X1833246Y2623554D01*
X1823246D01*
X1833246Y2613554D01*
X1823246Y2603554D01*
X1833246D01*
X1843246Y2593554D01*
X2201505Y2723401D02*
X2211505Y2743401D01*
X2201505Y2763401D01*
X2221505Y2753401D01*
X2241505Y2763401D01*
X2231505Y2743401D01*
X2241505Y2723401D01*
X2221505Y2733401D01*
X2201505Y2723401D01*
Y2523401D02*
X2211505Y2543401D01*
X2201505Y2563401D01*
X2221505Y2553401D01*
X2241505Y2563401D01*
X2231505Y2543401D01*
X2241505Y2523401D01*
X2221505Y2533401D01*
X2201505Y2523401D01*
X2301505Y2623401D02*
X2311505Y2643401D01*
X2301505Y2663401D01*
X2321505Y2653401D01*
X2341505Y2663401D01*
X2331505Y2643401D01*
X2341505Y2623401D01*
X2321505Y2633401D01*
X2301505Y2623401D01*
X538324Y240208D02*
X548324Y250208D01*
X558324D01*
X548324Y260208D01*
X558324Y270208D01*
X548324D01*
X538324Y280208D01*
X528324Y270208D01*
X518324D01*
X528324Y260208D01*
X518324Y250208D01*
X528324D01*
X538324Y240208D01*
X638324D02*
X648324Y250208D01*
X658324D01*
X648324Y260208D01*
X658324Y270208D01*
X648324D01*
X638324Y280208D01*
X628324Y270208D01*
X618324D01*
X628324Y260208D01*
X618324Y250208D01*
X628324D01*
X638324Y240208D01*
X738324D02*
X748324Y250208D01*
X758324D01*
X748324Y260208D01*
X758324Y270208D01*
X748324D01*
X738324Y280208D01*
X728324Y270208D01*
X718324D01*
X728324Y260208D01*
X718324Y250208D01*
X728324D01*
X738324Y240208D01*
X838324D02*
X848324Y250208D01*
X858324D01*
X848324Y260208D01*
X858324Y270208D01*
X848324D01*
X838324Y280208D01*
X828324Y270208D01*
X818324D01*
X828324Y260208D01*
X818324Y250208D01*
X828324D01*
X838324Y240208D01*
X938324D02*
X948324Y250208D01*
X958324D01*
X948324Y260208D01*
X958324Y270208D01*
X948324D01*
X938324Y280208D01*
X928324Y270208D01*
X918324D01*
X928324Y260208D01*
X918324Y250208D01*
X928324D01*
X938324Y240208D01*
X1038324D02*
X1048324Y250208D01*
X1058324D01*
X1048324Y260208D01*
X1058324Y270208D01*
X1048324D01*
X1038324Y280208D01*
X1028324Y270208D01*
X1018324D01*
X1028324Y260208D01*
X1018324Y250208D01*
X1028324D01*
X1038324Y240208D01*
X1138324D02*
X1148324Y250208D01*
X1158324D01*
X1148324Y260208D01*
X1158324Y270208D01*
X1148324D01*
X1138324Y280208D01*
X1128324Y270208D01*
X1118324D01*
X1128324Y260208D01*
X1118324Y250208D01*
X1128324D01*
X1138324Y240208D01*
X1238324D02*
X1248324Y250208D01*
X1258324D01*
X1248324Y260208D01*
X1258324Y270208D01*
X1248324D01*
X1238324Y280208D01*
X1228324Y270208D01*
X1218324D01*
X1228324Y260208D01*
X1218324Y250208D01*
X1228324D01*
X1238324Y240208D01*
X1338324D02*
X1348324Y250208D01*
X1358324D01*
X1348324Y260208D01*
X1358324Y270208D01*
X1348324D01*
X1338324Y280208D01*
X1328324Y270208D01*
X1318324D01*
X1328324Y260208D01*
X1318324Y250208D01*
X1328324D01*
X1338324Y240208D01*
X1438324D02*
X1448324Y250208D01*
X1458324D01*
X1448324Y260208D01*
X1458324Y270208D01*
X1448324D01*
X1438324Y280208D01*
X1428324Y270208D01*
X1418324D01*
X1428324Y260208D01*
X1418324Y250208D01*
X1428324D01*
X1438324Y240208D01*
X1538324D02*
X1548324Y250208D01*
X1558324D01*
X1548324Y260208D01*
X1558324Y270208D01*
X1548324D01*
X1538324Y280208D01*
X1528324Y270208D01*
X1518324D01*
X1528324Y260208D01*
X1518324Y250208D01*
X1528324D01*
X1538324Y240208D01*
X1638324D02*
X1648324Y250208D01*
X1658324D01*
X1648324Y260208D01*
X1658324Y270208D01*
X1648324D01*
X1638324Y280208D01*
X1628324Y270208D01*
X1618324D01*
X1628324Y260208D01*
X1618324Y250208D01*
X1628324D01*
X1638324Y240208D01*
X1738324D02*
X1748324Y250208D01*
X1758324D01*
X1748324Y260208D01*
X1758324Y270208D01*
X1748324D01*
X1738324Y280208D01*
X1728324Y270208D01*
X1718324D01*
X1728324Y260208D01*
X1718324Y250208D01*
X1728324D01*
X1738324Y240208D01*
X1838324D02*
X1848324Y250208D01*
X1858324D01*
X1848324Y260208D01*
X1858324Y270208D01*
X1848324D01*
X1838324Y280208D01*
X1828324Y270208D01*
X1818324D01*
X1828324Y260208D01*
X1818324Y250208D01*
X1828324D01*
X1838324Y240208D01*
X538324Y1240208D02*
X548324Y1250208D01*
X558324D01*
X548324Y1260208D01*
X558324Y1270208D01*
X548324D01*
X538324Y1280208D01*
X528324Y1270208D01*
X518324D01*
X528324Y1260208D01*
X518324Y1250208D01*
X528324D01*
X538324Y1240208D01*
X638324D02*
X648324Y1250208D01*
X658324D01*
X648324Y1260208D01*
X658324Y1270208D01*
X648324D01*
X638324Y1280208D01*
X628324Y1270208D01*
X618324D01*
X628324Y1260208D01*
X618324Y1250208D01*
X628324D01*
X638324Y1240208D01*
X738324D02*
X748324Y1250208D01*
X758324D01*
X748324Y1260208D01*
X758324Y1270208D01*
X748324D01*
X738324Y1280208D01*
X728324Y1270208D01*
X718324D01*
X728324Y1260208D01*
X718324Y1250208D01*
X728324D01*
X738324Y1240208D01*
X838324D02*
X848324Y1250208D01*
X858324D01*
X848324Y1260208D01*
X858324Y1270208D01*
X848324D01*
X838324Y1280208D01*
X828324Y1270208D01*
X818324D01*
X828324Y1260208D01*
X818324Y1250208D01*
X828324D01*
X838324Y1240208D01*
X938324D02*
X948324Y1250208D01*
X958324D01*
X948324Y1260208D01*
X958324Y1270208D01*
X948324D01*
X938324Y1280208D01*
X928324Y1270208D01*
X918324D01*
X928324Y1260208D01*
X918324Y1250208D01*
X928324D01*
X938324Y1240208D01*
X1038324D02*
X1048324Y1250208D01*
X1058324D01*
X1048324Y1260208D01*
X1058324Y1270208D01*
X1048324D01*
X1038324Y1280208D01*
X1028324Y1270208D01*
X1018324D01*
X1028324Y1260208D01*
X1018324Y1250208D01*
X1028324D01*
X1038324Y1240208D01*
X1138324D02*
X1148324Y1250208D01*
X1158324D01*
X1148324Y1260208D01*
X1158324Y1270208D01*
X1148324D01*
X1138324Y1280208D01*
X1128324Y1270208D01*
X1118324D01*
X1128324Y1260208D01*
X1118324Y1250208D01*
X1128324D01*
X1138324Y1240208D01*
X1238324D02*
X1248324Y1250208D01*
X1258324D01*
X1248324Y1260208D01*
X1258324Y1270208D01*
X1248324D01*
X1238324Y1280208D01*
X1228324Y1270208D01*
X1218324D01*
X1228324Y1260208D01*
X1218324Y1250208D01*
X1228324D01*
X1238324Y1240208D01*
X1338324D02*
X1348324Y1250208D01*
X1358324D01*
X1348324Y1260208D01*
X1358324Y1270208D01*
X1348324D01*
X1338324Y1280208D01*
X1328324Y1270208D01*
X1318324D01*
X1328324Y1260208D01*
X1318324Y1250208D01*
X1328324D01*
X1338324Y1240208D01*
X1438324D02*
X1448324Y1250208D01*
X1458324D01*
X1448324Y1260208D01*
X1458324Y1270208D01*
X1448324D01*
X1438324Y1280208D01*
X1428324Y1270208D01*
X1418324D01*
X1428324Y1260208D01*
X1418324Y1250208D01*
X1428324D01*
X1438324Y1240208D01*
X1538324D02*
X1548324Y1250208D01*
X1558324D01*
X1548324Y1260208D01*
X1558324Y1270208D01*
X1548324D01*
X1538324Y1280208D01*
X1528324Y1270208D01*
X1518324D01*
X1528324Y1260208D01*
X1518324Y1250208D01*
X1528324D01*
X1538324Y1240208D01*
X1638324D02*
X1648324Y1250208D01*
X1658324D01*
X1648324Y1260208D01*
X1658324Y1270208D01*
X1648324D01*
X1638324Y1280208D01*
X1628324Y1270208D01*
X1618324D01*
X1628324Y1260208D01*
X1618324Y1250208D01*
X1628324D01*
X1638324Y1240208D01*
X1738324D02*
X1748324Y1250208D01*
X1758324D01*
X1748324Y1260208D01*
X1758324Y1270208D01*
X1748324D01*
X1738324Y1280208D01*
X1728324Y1270208D01*
X1718324D01*
X1728324Y1260208D01*
X1718324Y1250208D01*
X1728324D01*
X1738324Y1240208D01*
X1838324D02*
X1848324Y1250208D01*
X1858324D01*
X1848324Y1260208D01*
X1858324Y1270208D01*
X1848324D01*
X1838324Y1280208D01*
X1828324Y1270208D01*
X1818324D01*
X1828324Y1260208D01*
X1818324Y1250208D01*
X1828324D01*
X1838324Y1240208D01*
X2228505Y1301250D02*
X2238505Y1321250D01*
X2228505Y1341250D01*
X2248505Y1331250D01*
X2268505Y1341250D01*
X2258505Y1321250D01*
X2268505Y1301250D01*
X2248505Y1311250D01*
X2228505Y1301250D01*
Y1101250D02*
X2238505Y1121250D01*
X2228505Y1141250D01*
X2248505Y1131250D01*
X2268505Y1141250D01*
X2258505Y1121250D01*
X2268505Y1101250D01*
X2248505Y1111250D01*
X2228505Y1101250D01*
X2328505Y1201250D02*
X2338505Y1221250D01*
X2328505Y1241250D01*
X2348505Y1231250D01*
X2368505Y1241250D01*
X2358505Y1221250D01*
X2368505Y1201250D01*
X2348505Y1211250D01*
X2328505Y1201250D01*
X2220504Y2247401D02*
X2230504Y2267401D01*
X2220504Y2287401D01*
X2240504Y2277401D01*
X2260504Y2287401D01*
X2250504Y2267401D01*
X2260504Y2247401D01*
X2240504Y2257401D01*
X2220504Y2247401D01*
Y2047401D02*
X2230504Y2067401D01*
X2220504Y2087401D01*
X2240504Y2077401D01*
X2260504Y2087401D01*
X2250504Y2067401D01*
X2260504Y2047401D01*
X2240504Y2057401D01*
X2220504Y2047401D01*
X2320504Y2147401D02*
X2330504Y2167401D01*
X2320504Y2187401D01*
X2340504Y2177401D01*
X2360504Y2187401D01*
X2350504Y2167401D01*
X2360504Y2147401D01*
X2340504Y2157401D01*
X2320504Y2147401D01*
X2247504Y803390D02*
X2257504Y823390D01*
X2247504Y843390D01*
X2267504Y833390D01*
X2287504Y843390D01*
X2277504Y823390D01*
X2287504Y803390D01*
X2267504Y813390D01*
X2247504Y803390D01*
Y603390D02*
X2257504Y623390D01*
X2247504Y643390D01*
X2267504Y633390D01*
X2287504Y643390D01*
X2277504Y623390D01*
X2287504Y603390D01*
X2267504Y613390D01*
X2247504Y603390D01*
X2347504Y703390D02*
X2357504Y723390D01*
X2347504Y743390D01*
X2367504Y733390D01*
X2387504Y743390D01*
X2377504Y723390D01*
X2387504Y703390D01*
X2367504Y713390D01*
X2347504Y703390D01*
X199504Y349402D02*
Y339402D01*
X219504D01*
Y349402D01*
X229504D01*
Y369402D01*
X219504D01*
Y379402D01*
X199504D01*
Y369402D01*
X189504D01*
Y349402D01*
X199504D01*
Y249402D02*
Y239402D01*
X219504D01*
Y249402D01*
X229504D01*
Y269402D01*
X219504D01*
Y279402D01*
X199504D01*
Y269402D01*
X189504D01*
Y249402D01*
X199504D01*
X215504Y1714402D02*
Y1704402D01*
X235504D01*
Y1714402D01*
X245504D01*
Y1734402D01*
X235504D01*
Y1744402D01*
X215504D01*
Y1734402D01*
X205504D01*
Y1714402D01*
X215504D01*
Y1614402D02*
Y1604402D01*
X235504D01*
Y1614402D01*
X245504D01*
Y1634402D01*
X235504D01*
Y1644402D01*
X215504D01*
Y1634402D01*
X205504D01*
Y1614402D01*
X215504D01*
X2220504Y1737402D02*
X2230504Y1757402D01*
X2220504Y1777402D01*
X2240504Y1767402D01*
X2260504Y1777402D01*
X2250504Y1757402D01*
X2260504Y1737402D01*
X2240504Y1747402D01*
X2220504Y1737402D01*
Y1537402D02*
X2230504Y1557402D01*
X2220504Y1577402D01*
X2240504Y1567402D01*
X2260504Y1577402D01*
X2250504Y1557402D01*
X2260504Y1537402D01*
X2240504Y1547402D01*
X2220504Y1537402D01*
X2320504Y1637402D02*
X2330504Y1657402D01*
X2320504Y1677402D01*
X2340504Y1667402D01*
X2360504Y1677402D01*
X2350504Y1657402D01*
X2360504Y1637402D01*
X2340504Y1647402D01*
X2320504Y1637402D01*
X2247504Y287402D02*
X2257504Y307402D01*
X2247504Y327402D01*
X2267504Y317402D01*
X2287504Y327402D01*
X2277504Y307402D01*
X2287504Y287402D01*
X2267504Y297402D01*
X2247504Y287402D01*
Y87402D02*
X2257504Y107402D01*
X2247504Y127402D01*
X2267504Y117402D01*
X2287504Y127402D01*
X2277504Y107402D01*
X2287504Y87402D01*
X2267504Y97402D01*
X2247504Y87402D01*
X2347504Y187402D02*
X2357504Y207402D01*
X2347504Y227402D01*
X2367504Y217402D01*
X2387504Y227402D01*
X2377504Y207402D01*
X2387504Y187402D01*
X2367504Y197402D01*
X2347504Y187402D01*
X239782Y6114418D02*
Y6154418D01*
X279782D01*
Y6114418D01*
X239782D01*
Y6214418D02*
Y6254418D01*
X279782D01*
Y6214418D01*
X239782D01*
X550000Y6220000D02*
X560000D01*
X570000Y6230000D01*
X580000Y6220000D01*
X590000D01*
Y6230000D01*
X580000Y6240000D01*
X590000Y6250000D01*
Y6260000D01*
X580000D01*
X570000Y6250000D01*
X560000Y6260000D01*
X550000D01*
Y6250000D01*
X560000Y6240000D01*
X550000Y6230000D01*
Y6220000D01*
X490000Y4330000D02*
X500000D01*
X510000Y4340000D01*
X520000Y4330000D01*
X530000D01*
Y4340000D01*
X520000Y4350000D01*
X530000Y4360000D01*
Y4370000D01*
X520000D01*
X510000Y4360000D01*
X500000Y4370000D01*
X490000D01*
Y4360000D01*
X500000Y4350000D01*
X490000Y4340000D01*
Y4330000D01*
X1121120Y5107726D02*
X1141120Y5127726D01*
X1161120Y5107726D01*
X1141120Y5087726D01*
X1121120Y5107726D01*
X1704348Y4085680D02*
X1714348D01*
X1724348Y4095680D01*
X1734348Y4085680D01*
X1744348D01*
Y4095680D01*
X1734348Y4105680D01*
X1744348Y4115680D01*
Y4125680D01*
X1734348D01*
X1724348Y4115680D01*
X1714348Y4125680D01*
X1704348D01*
Y4115680D01*
X1714348Y4105680D01*
X1704348Y4095680D01*
Y4085680D01*
Y4491190D02*
X1714348D01*
X1724348Y4501190D01*
X1734348Y4491190D01*
X1744348D01*
Y4501190D01*
X1734348Y4511190D01*
X1744348Y4521190D01*
Y4531190D01*
X1734348D01*
X1724348Y4521190D01*
X1714348Y4531190D01*
X1704348D01*
Y4521190D01*
X1714348Y4511190D01*
X1704348Y4501190D01*
Y4491190D01*
Y4904576D02*
X1714348D01*
X1724348Y4914576D01*
X1734348Y4904576D01*
X1744348D01*
Y4914576D01*
X1734348Y4924576D01*
X1744348Y4934576D01*
Y4944576D01*
X1734348D01*
X1724348Y4934576D01*
X1714348Y4944576D01*
X1704348D01*
Y4934576D01*
X1714348Y4924576D01*
X1704348Y4914576D01*
Y4904576D01*
Y5294340D02*
X1714348D01*
X1724348Y5304340D01*
X1734348Y5294340D01*
X1744348D01*
Y5304340D01*
X1734348Y5314340D01*
X1744348Y5324340D01*
Y5334340D01*
X1734348D01*
X1724348Y5324340D01*
X1714348Y5334340D01*
X1704348D01*
Y5324340D01*
X1714348Y5314340D01*
X1704348Y5304340D01*
Y5294340D01*
Y5695916D02*
X1714348D01*
X1724348Y5705916D01*
X1734348Y5695916D01*
X1744348D01*
Y5705916D01*
X1734348Y5715916D01*
X1744348Y5725916D01*
Y5735916D01*
X1734348D01*
X1724348Y5725916D01*
X1714348Y5735916D01*
X1704348D01*
Y5725916D01*
X1714348Y5715916D01*
X1704348Y5705916D01*
Y5695916D01*
X1060018Y5223250D02*
X1080018Y5243250D01*
X1100018Y5223250D01*
X1080018Y5203250D01*
X1060018Y5223250D01*
X1864504Y5851402D02*
X1874504D01*
X1884504Y5861402D01*
X1894504Y5851402D01*
X1904504D01*
Y5861402D01*
X1894504Y5871402D01*
X1904504Y5881402D01*
Y5891402D01*
X1894504D01*
X1884504Y5881402D01*
X1874504Y5891402D01*
X1864504D01*
Y5881402D01*
X1874504Y5871402D01*
X1864504Y5861402D01*
Y5851402D01*
Y5781402D02*
X1874504D01*
X1884504Y5791402D01*
X1894504Y5781402D01*
X1904504D01*
Y5791402D01*
X1894504Y5801402D01*
X1904504Y5811402D01*
Y5821402D01*
X1894504D01*
X1884504Y5811402D01*
X1874504Y5821402D01*
X1864504D01*
Y5811402D01*
X1874504Y5801402D01*
X1864504Y5791402D01*
Y5781402D01*
Y5711402D02*
X1874504D01*
X1884504Y5721402D01*
X1894504Y5711402D01*
X1904504D01*
Y5721402D01*
X1894504Y5731402D01*
X1904504Y5741402D01*
Y5751402D01*
X1894504D01*
X1884504Y5741402D01*
X1874504Y5751402D01*
X1864504D01*
Y5741402D01*
X1874504Y5731402D01*
X1864504Y5721402D01*
Y5711402D01*
X1944504D02*
X1954504D01*
X1964504Y5721402D01*
X1974504Y5711402D01*
X1984504D01*
Y5721402D01*
X1974504Y5731402D01*
X1984504Y5741402D01*
Y5751402D01*
X1974504D01*
X1964504Y5741402D01*
X1954504Y5751402D01*
X1944504D01*
Y5741402D01*
X1954504Y5731402D01*
X1944504Y5721402D01*
Y5711402D01*
X2024504D02*
X2034504D01*
X2044504Y5721402D01*
X2054504Y5711402D01*
X2064504D01*
Y5721402D01*
X2054504Y5731402D01*
X2064504Y5741402D01*
Y5751402D01*
X2054504D01*
X2044504Y5741402D01*
X2034504Y5751402D01*
X2024504D01*
Y5741402D01*
X2034504Y5731402D01*
X2024504Y5721402D01*
Y5711402D01*
Y5781402D02*
X2034504D01*
X2044504Y5791402D01*
X2054504Y5781402D01*
X2064504D01*
Y5791402D01*
X2054504Y5801402D01*
X2064504Y5811402D01*
Y5821402D01*
X2054504D01*
X2044504Y5811402D01*
X2034504Y5821402D01*
X2024504D01*
Y5811402D01*
X2034504Y5801402D01*
X2024504Y5791402D01*
Y5781402D01*
Y5851402D02*
X2034504D01*
X2044504Y5861402D01*
X2054504Y5851402D01*
X2064504D01*
Y5861402D01*
X2054504Y5871402D01*
X2064504Y5881402D01*
Y5891402D01*
X2054504D01*
X2044504Y5881402D01*
X2034504Y5891402D01*
X2024504D01*
Y5881402D01*
X2034504Y5871402D01*
X2024504Y5861402D01*
Y5851402D01*
X1944504Y5781402D02*
X1954504D01*
X1964504Y5791402D01*
X1974504Y5781402D01*
X1984504D01*
Y5791402D01*
X1974504Y5801402D01*
X1984504Y5811402D01*
Y5821402D01*
X1974504D01*
X1964504Y5811402D01*
X1954504Y5821402D01*
X1944504D01*
Y5811402D01*
X1954504Y5801402D01*
X1944504Y5791402D01*
Y5781402D01*
Y5851402D02*
X1954504D01*
X1964504Y5861402D01*
X1974504Y5851402D01*
X1984504D01*
Y5861402D01*
X1974504Y5871402D01*
X1984504Y5881402D01*
Y5891402D01*
X1974504D01*
X1964504Y5881402D01*
X1954504Y5891402D01*
X1944504D01*
Y5881402D01*
X1954504Y5871402D01*
X1944504Y5861402D01*
Y5851402D01*
Y5457042D02*
X1954504D01*
X1964504Y5467042D01*
X1974504Y5457042D01*
X1984504D01*
Y5467042D01*
X1974504Y5477042D01*
X1984504Y5487042D01*
Y5497042D01*
X1974504D01*
X1964504Y5487042D01*
X1954504Y5497042D01*
X1944504D01*
Y5487042D01*
X1954504Y5477042D01*
X1944504Y5467042D01*
Y5457042D01*
Y5387042D02*
X1954504D01*
X1964504Y5397042D01*
X1974504Y5387042D01*
X1984504D01*
Y5397042D01*
X1974504Y5407042D01*
X1984504Y5417042D01*
Y5427042D01*
X1974504D01*
X1964504Y5417042D01*
X1954504Y5427042D01*
X1944504D01*
Y5417042D01*
X1954504Y5407042D01*
X1944504Y5397042D01*
Y5387042D01*
X2024504Y5457042D02*
X2034504D01*
X2044504Y5467042D01*
X2054504Y5457042D01*
X2064504D01*
Y5467042D01*
X2054504Y5477042D01*
X2064504Y5487042D01*
Y5497042D01*
X2054504D01*
X2044504Y5487042D01*
X2034504Y5497042D01*
X2024504D01*
Y5487042D01*
X2034504Y5477042D01*
X2024504Y5467042D01*
Y5457042D01*
Y5387042D02*
X2034504D01*
X2044504Y5397042D01*
X2054504Y5387042D01*
X2064504D01*
Y5397042D01*
X2054504Y5407042D01*
X2064504Y5417042D01*
Y5427042D01*
X2054504D01*
X2044504Y5417042D01*
X2034504Y5427042D01*
X2024504D01*
Y5417042D01*
X2034504Y5407042D01*
X2024504Y5397042D01*
Y5387042D01*
Y5317042D02*
X2034504D01*
X2044504Y5327042D01*
X2054504Y5317042D01*
X2064504D01*
Y5327042D01*
X2054504Y5337042D01*
X2064504Y5347042D01*
Y5357042D01*
X2054504D01*
X2044504Y5347042D01*
X2034504Y5357042D01*
X2024504D01*
Y5347042D01*
X2034504Y5337042D01*
X2024504Y5327042D01*
Y5317042D01*
X1944504D02*
X1954504D01*
X1964504Y5327042D01*
X1974504Y5317042D01*
X1984504D01*
Y5327042D01*
X1974504Y5337042D01*
X1984504Y5347042D01*
Y5357042D01*
X1974504D01*
X1964504Y5347042D01*
X1954504Y5357042D01*
X1944504D01*
Y5347042D01*
X1954504Y5337042D01*
X1944504Y5327042D01*
Y5317042D01*
X1864504D02*
X1874504D01*
X1884504Y5327042D01*
X1894504Y5317042D01*
X1904504D01*
Y5327042D01*
X1894504Y5337042D01*
X1904504Y5347042D01*
Y5357042D01*
X1894504D01*
X1884504Y5347042D01*
X1874504Y5357042D01*
X1864504D01*
Y5347042D01*
X1874504Y5337042D01*
X1864504Y5327042D01*
Y5317042D01*
Y5387042D02*
X1874504D01*
X1884504Y5397042D01*
X1894504Y5387042D01*
X1904504D01*
Y5397042D01*
X1894504Y5407042D01*
X1904504Y5417042D01*
Y5427042D01*
X1894504D01*
X1884504Y5417042D01*
X1874504Y5427042D01*
X1864504D01*
Y5417042D01*
X1874504Y5407042D01*
X1864504Y5397042D01*
Y5387042D01*
Y5457042D02*
X1874504D01*
X1884504Y5467042D01*
X1894504Y5457042D01*
X1904504D01*
Y5467042D01*
X1894504Y5477042D01*
X1904504Y5487042D01*
Y5497042D01*
X1894504D01*
X1884504Y5487042D01*
X1874504Y5497042D01*
X1864504D01*
Y5487042D01*
X1874504Y5477042D01*
X1864504Y5467042D01*
Y5457042D01*
X1944504Y5062686D02*
X1954504D01*
X1964504Y5072686D01*
X1974504Y5062686D01*
X1984504D01*
Y5072686D01*
X1974504Y5082686D01*
X1984504Y5092686D01*
Y5102686D01*
X1974504D01*
X1964504Y5092686D01*
X1954504Y5102686D01*
X1944504D01*
Y5092686D01*
X1954504Y5082686D01*
X1944504Y5072686D01*
Y5062686D01*
Y4992686D02*
X1954504D01*
X1964504Y5002686D01*
X1974504Y4992686D01*
X1984504D01*
Y5002686D01*
X1974504Y5012686D01*
X1984504Y5022686D01*
Y5032686D01*
X1974504D01*
X1964504Y5022686D01*
X1954504Y5032686D01*
X1944504D01*
Y5022686D01*
X1954504Y5012686D01*
X1944504Y5002686D01*
Y4992686D01*
X2024504Y5062686D02*
X2034504D01*
X2044504Y5072686D01*
X2054504Y5062686D01*
X2064504D01*
Y5072686D01*
X2054504Y5082686D01*
X2064504Y5092686D01*
Y5102686D01*
X2054504D01*
X2044504Y5092686D01*
X2034504Y5102686D01*
X2024504D01*
Y5092686D01*
X2034504Y5082686D01*
X2024504Y5072686D01*
Y5062686D01*
Y4992686D02*
X2034504D01*
X2044504Y5002686D01*
X2054504Y4992686D01*
X2064504D01*
Y5002686D01*
X2054504Y5012686D01*
X2064504Y5022686D01*
Y5032686D01*
X2054504D01*
X2044504Y5022686D01*
X2034504Y5032686D01*
X2024504D01*
Y5022686D01*
X2034504Y5012686D01*
X2024504Y5002686D01*
Y4992686D01*
Y4922686D02*
X2034504D01*
X2044504Y4932686D01*
X2054504Y4922686D01*
X2064504D01*
Y4932686D01*
X2054504Y4942686D01*
X2064504Y4952686D01*
Y4962686D01*
X2054504D01*
X2044504Y4952686D01*
X2034504Y4962686D01*
X2024504D01*
Y4952686D01*
X2034504Y4942686D01*
X2024504Y4932686D01*
Y4922686D01*
X1944504D02*
X1954504D01*
X1964504Y4932686D01*
X1974504Y4922686D01*
X1984504D01*
Y4932686D01*
X1974504Y4942686D01*
X1984504Y4952686D01*
Y4962686D01*
X1974504D01*
X1964504Y4952686D01*
X1954504Y4962686D01*
X1944504D01*
Y4952686D01*
X1954504Y4942686D01*
X1944504Y4932686D01*
Y4922686D01*
X1864504D02*
X1874504D01*
X1884504Y4932686D01*
X1894504Y4922686D01*
X1904504D01*
Y4932686D01*
X1894504Y4942686D01*
X1904504Y4952686D01*
Y4962686D01*
X1894504D01*
X1884504Y4952686D01*
X1874504Y4962686D01*
X1864504D01*
Y4952686D01*
X1874504Y4942686D01*
X1864504Y4932686D01*
Y4922686D01*
Y4992686D02*
X1874504D01*
X1884504Y5002686D01*
X1894504Y4992686D01*
X1904504D01*
Y5002686D01*
X1894504Y5012686D01*
X1904504Y5022686D01*
Y5032686D01*
X1894504D01*
X1884504Y5022686D01*
X1874504Y5032686D01*
X1864504D01*
Y5022686D01*
X1874504Y5012686D01*
X1864504Y5002686D01*
Y4992686D01*
Y5062686D02*
X1874504D01*
X1884504Y5072686D01*
X1894504Y5062686D01*
X1904504D01*
Y5072686D01*
X1894504Y5082686D01*
X1904504Y5092686D01*
Y5102686D01*
X1894504D01*
X1884504Y5092686D01*
X1874504Y5102686D01*
X1864504D01*
Y5092686D01*
X1874504Y5082686D01*
X1864504Y5072686D01*
Y5062686D01*
X1944504Y4648908D02*
X1954504D01*
X1964504Y4658908D01*
X1974504Y4648908D01*
X1984504D01*
Y4658908D01*
X1974504Y4668908D01*
X1984504Y4678908D01*
Y4688908D01*
X1974504D01*
X1964504Y4678908D01*
X1954504Y4688908D01*
X1944504D01*
Y4678908D01*
X1954504Y4668908D01*
X1944504Y4658908D01*
Y4648908D01*
Y4578908D02*
X1954504D01*
X1964504Y4588908D01*
X1974504Y4578908D01*
X1984504D01*
Y4588908D01*
X1974504Y4598908D01*
X1984504Y4608908D01*
Y4618908D01*
X1974504D01*
X1964504Y4608908D01*
X1954504Y4618908D01*
X1944504D01*
Y4608908D01*
X1954504Y4598908D01*
X1944504Y4588908D01*
Y4578908D01*
X2024504Y4648908D02*
X2034504D01*
X2044504Y4658908D01*
X2054504Y4648908D01*
X2064504D01*
Y4658908D01*
X2054504Y4668908D01*
X2064504Y4678908D01*
Y4688908D01*
X2054504D01*
X2044504Y4678908D01*
X2034504Y4688908D01*
X2024504D01*
Y4678908D01*
X2034504Y4668908D01*
X2024504Y4658908D01*
Y4648908D01*
Y4578908D02*
X2034504D01*
X2044504Y4588908D01*
X2054504Y4578908D01*
X2064504D01*
Y4588908D01*
X2054504Y4598908D01*
X2064504Y4608908D01*
Y4618908D01*
X2054504D01*
X2044504Y4608908D01*
X2034504Y4618908D01*
X2024504D01*
Y4608908D01*
X2034504Y4598908D01*
X2024504Y4588908D01*
Y4578908D01*
Y4508908D02*
X2034504D01*
X2044504Y4518908D01*
X2054504Y4508908D01*
X2064504D01*
Y4518908D01*
X2054504Y4528908D01*
X2064504Y4538908D01*
Y4548908D01*
X2054504D01*
X2044504Y4538908D01*
X2034504Y4548908D01*
X2024504D01*
Y4538908D01*
X2034504Y4528908D01*
X2024504Y4518908D01*
Y4508908D01*
X1944504D02*
X1954504D01*
X1964504Y4518908D01*
X1974504Y4508908D01*
X1984504D01*
Y4518908D01*
X1974504Y4528908D01*
X1984504Y4538908D01*
Y4548908D01*
X1974504D01*
X1964504Y4538908D01*
X1954504Y4548908D01*
X1944504D01*
Y4538908D01*
X1954504Y4528908D01*
X1944504Y4518908D01*
Y4508908D01*
X1864504D02*
X1874504D01*
X1884504Y4518908D01*
X1894504Y4508908D01*
X1904504D01*
Y4518908D01*
X1894504Y4528908D01*
X1904504Y4538908D01*
Y4548908D01*
X1894504D01*
X1884504Y4538908D01*
X1874504Y4548908D01*
X1864504D01*
Y4538908D01*
X1874504Y4528908D01*
X1864504Y4518908D01*
Y4508908D01*
Y4578908D02*
X1874504D01*
X1884504Y4588908D01*
X1894504Y4578908D01*
X1904504D01*
Y4588908D01*
X1894504Y4598908D01*
X1904504Y4608908D01*
Y4618908D01*
X1894504D01*
X1884504Y4608908D01*
X1874504Y4618908D01*
X1864504D01*
Y4608908D01*
X1874504Y4598908D01*
X1864504Y4588908D01*
Y4578908D01*
Y4648908D02*
X1874504D01*
X1884504Y4658908D01*
X1894504Y4648908D01*
X1904504D01*
Y4658908D01*
X1894504Y4668908D01*
X1904504Y4678908D01*
Y4688908D01*
X1894504D01*
X1884504Y4678908D01*
X1874504Y4688908D01*
X1864504D01*
Y4678908D01*
X1874504Y4668908D01*
X1864504Y4658908D01*
Y4648908D01*
X1944504Y4261402D02*
X1954504D01*
X1964504Y4271402D01*
X1974504Y4261402D01*
X1984504D01*
Y4271402D01*
X1974504Y4281402D01*
X1984504Y4291402D01*
Y4301402D01*
X1974504D01*
X1964504Y4291402D01*
X1954504Y4301402D01*
X1944504D01*
Y4291402D01*
X1954504Y4281402D01*
X1944504Y4271402D01*
Y4261402D01*
Y4191402D02*
X1954504D01*
X1964504Y4201402D01*
X1974504Y4191402D01*
X1984504D01*
Y4201402D01*
X1974504Y4211402D01*
X1984504Y4221402D01*
Y4231402D01*
X1974504D01*
X1964504Y4221402D01*
X1954504Y4231402D01*
X1944504D01*
Y4221402D01*
X1954504Y4211402D01*
X1944504Y4201402D01*
Y4191402D01*
X2024504Y4261402D02*
X2034504D01*
X2044504Y4271402D01*
X2054504Y4261402D01*
X2064504D01*
Y4271402D01*
X2054504Y4281402D01*
X2064504Y4291402D01*
Y4301402D01*
X2054504D01*
X2044504Y4291402D01*
X2034504Y4301402D01*
X2024504D01*
Y4291402D01*
X2034504Y4281402D01*
X2024504Y4271402D01*
Y4261402D01*
Y4191402D02*
X2034504D01*
X2044504Y4201402D01*
X2054504Y4191402D01*
X2064504D01*
Y4201402D01*
X2054504Y4211402D01*
X2064504Y4221402D01*
Y4231402D01*
X2054504D01*
X2044504Y4221402D01*
X2034504Y4231402D01*
X2024504D01*
Y4221402D01*
X2034504Y4211402D01*
X2024504Y4201402D01*
Y4191402D01*
Y4121402D02*
X2034504D01*
X2044504Y4131402D01*
X2054504Y4121402D01*
X2064504D01*
Y4131402D01*
X2054504Y4141402D01*
X2064504Y4151402D01*
Y4161402D01*
X2054504D01*
X2044504Y4151402D01*
X2034504Y4161402D01*
X2024504D01*
Y4151402D01*
X2034504Y4141402D01*
X2024504Y4131402D01*
Y4121402D01*
X1944504D02*
X1954504D01*
X1964504Y4131402D01*
X1974504Y4121402D01*
X1984504D01*
Y4131402D01*
X1974504Y4141402D01*
X1984504Y4151402D01*
Y4161402D01*
X1974504D01*
X1964504Y4151402D01*
X1954504Y4161402D01*
X1944504D01*
Y4151402D01*
X1954504Y4141402D01*
X1944504Y4131402D01*
Y4121402D01*
X1864504D02*
X1874504D01*
X1884504Y4131402D01*
X1894504Y4121402D01*
X1904504D01*
Y4131402D01*
X1894504Y4141402D01*
X1904504Y4151402D01*
Y4161402D01*
X1894504D01*
X1884504Y4151402D01*
X1874504Y4161402D01*
X1864504D01*
Y4151402D01*
X1874504Y4141402D01*
X1864504Y4131402D01*
Y4121402D01*
Y4191402D02*
X1874504D01*
X1884504Y4201402D01*
X1894504Y4191402D01*
X1904504D01*
Y4201402D01*
X1894504Y4211402D01*
X1904504Y4221402D01*
Y4231402D01*
X1894504D01*
X1884504Y4221402D01*
X1874504Y4231402D01*
X1864504D01*
Y4221402D01*
X1874504Y4211402D01*
X1864504Y4201402D01*
Y4191402D01*
Y4261402D02*
X1874504D01*
X1884504Y4271402D01*
X1894504Y4261402D01*
X1904504D01*
Y4271402D01*
X1894504Y4281402D01*
X1904504Y4291402D01*
Y4301402D01*
X1894504D01*
X1884504Y4291402D01*
X1874504Y4301402D01*
X1864504D01*
Y4291402D01*
X1874504Y4281402D01*
X1864504Y4271402D01*
Y4261402D01*
X1944504Y3861402D02*
X1954504D01*
X1964504Y3871402D01*
X1974504Y3861402D01*
X1984504D01*
Y3871402D01*
X1974504Y3881402D01*
X1984504Y3891402D01*
Y3901402D01*
X1974504D01*
X1964504Y3891402D01*
X1954504Y3901402D01*
X1944504D01*
Y3891402D01*
X1954504Y3881402D01*
X1944504Y3871402D01*
Y3861402D01*
Y3791402D02*
X1954504D01*
X1964504Y3801402D01*
X1974504Y3791402D01*
X1984504D01*
Y3801402D01*
X1974504Y3811402D01*
X1984504Y3821402D01*
Y3831402D01*
X1974504D01*
X1964504Y3821402D01*
X1954504Y3831402D01*
X1944504D01*
Y3821402D01*
X1954504Y3811402D01*
X1944504Y3801402D01*
Y3791402D01*
X2024504Y3861402D02*
X2034504D01*
X2044504Y3871402D01*
X2054504Y3861402D01*
X2064504D01*
Y3871402D01*
X2054504Y3881402D01*
X2064504Y3891402D01*
Y3901402D01*
X2054504D01*
X2044504Y3891402D01*
X2034504Y3901402D01*
X2024504D01*
Y3891402D01*
X2034504Y3881402D01*
X2024504Y3871402D01*
Y3861402D01*
Y3791402D02*
X2034504D01*
X2044504Y3801402D01*
X2054504Y3791402D01*
X2064504D01*
Y3801402D01*
X2054504Y3811402D01*
X2064504Y3821402D01*
Y3831402D01*
X2054504D01*
X2044504Y3821402D01*
X2034504Y3831402D01*
X2024504D01*
Y3821402D01*
X2034504Y3811402D01*
X2024504Y3801402D01*
Y3791402D01*
Y3721402D02*
X2034504D01*
X2044504Y3731402D01*
X2054504Y3721402D01*
X2064504D01*
Y3731402D01*
X2054504Y3741402D01*
X2064504Y3751402D01*
Y3761402D01*
X2054504D01*
X2044504Y3751402D01*
X2034504Y3761402D01*
X2024504D01*
Y3751402D01*
X2034504Y3741402D01*
X2024504Y3731402D01*
Y3721402D01*
X1944504D02*
X1954504D01*
X1964504Y3731402D01*
X1974504Y3721402D01*
X1984504D01*
Y3731402D01*
X1974504Y3741402D01*
X1984504Y3751402D01*
Y3761402D01*
X1974504D01*
X1964504Y3751402D01*
X1954504Y3761402D01*
X1944504D01*
Y3751402D01*
X1954504Y3741402D01*
X1944504Y3731402D01*
Y3721402D01*
X1864504D02*
X1874504D01*
X1884504Y3731402D01*
X1894504Y3721402D01*
X1904504D01*
Y3731402D01*
X1894504Y3741402D01*
X1904504Y3751402D01*
Y3761402D01*
X1894504D01*
X1884504Y3751402D01*
X1874504Y3761402D01*
X1864504D01*
Y3751402D01*
X1874504Y3741402D01*
X1864504Y3731402D01*
Y3721402D01*
Y3791402D02*
X1874504D01*
X1884504Y3801402D01*
X1894504Y3791402D01*
X1904504D01*
Y3801402D01*
X1894504Y3811402D01*
X1904504Y3821402D01*
Y3831402D01*
X1894504D01*
X1884504Y3821402D01*
X1874504Y3831402D01*
X1864504D01*
Y3821402D01*
X1874504Y3811402D01*
X1864504Y3801402D01*
Y3791402D01*
Y3861402D02*
X1874504D01*
X1884504Y3871402D01*
X1894504Y3861402D01*
X1904504D01*
Y3871402D01*
X1894504Y3881402D01*
X1904504Y3891402D01*
Y3901402D01*
X1894504D01*
X1884504Y3891402D01*
X1874504Y3901402D01*
X1864504D01*
Y3891402D01*
X1874504Y3881402D01*
X1864504Y3871402D01*
Y3861402D01*
X1704504Y3691402D02*
X1714504D01*
X1724504Y3701402D01*
X1734504Y3691402D01*
X1744504D01*
Y3701402D01*
X1734504Y3711402D01*
X1744504Y3721402D01*
Y3731402D01*
X1734504D01*
X1724504Y3721402D01*
X1714504Y3731402D01*
X1704504D01*
Y3721402D01*
X1714504Y3711402D01*
X1704504Y3701402D01*
Y3691402D01*
X1464504D02*
X1474504D01*
X1484504Y3701402D01*
X1494504Y3691402D01*
X1504504D01*
Y3701402D01*
X1494504Y3711402D01*
X1504504Y3721402D01*
Y3731402D01*
X1494504D01*
X1484504Y3721402D01*
X1474504Y3731402D01*
X1464504D01*
Y3721402D01*
X1474504Y3711402D01*
X1464504Y3701402D01*
Y3691402D01*
X1494504Y4091402D02*
X1504504D01*
X1514504Y4101402D01*
X1524504Y4091402D01*
X1534504D01*
Y4101402D01*
X1524504Y4111402D01*
X1534504Y4121402D01*
Y4131402D01*
X1524504D01*
X1514504Y4121402D01*
X1504504Y4131402D01*
X1494504D01*
Y4121402D01*
X1504504Y4111402D01*
X1494504Y4101402D01*
Y4091402D01*
X1045504Y1916402D02*
X1055504D01*
X1065504Y1926402D01*
X1075504Y1916402D01*
X1085504D01*
Y1926402D01*
X1075504Y1936402D01*
X1085504Y1946402D01*
Y1956402D01*
X1075504D01*
X1065504Y1946402D01*
X1055504Y1956402D01*
X1045504D01*
Y1946402D01*
X1055504Y1936402D01*
X1045504Y1926402D01*
Y1916402D01*
X1065504Y577402D02*
X1075504D01*
X1085504Y587402D01*
X1095504Y577402D01*
X1105504D01*
Y587402D01*
X1095504Y597402D01*
X1105504Y607402D01*
Y617402D01*
X1095504D01*
X1085504Y607402D01*
X1075504Y617402D01*
X1065504D01*
Y607402D01*
X1075504Y597402D01*
X1065504Y587402D01*
Y577402D01*
X1127504Y898402D02*
X1137504D01*
X1147504Y908402D01*
X1157504Y898402D01*
X1167504D01*
Y908402D01*
X1157504Y918402D01*
X1167504Y928402D01*
Y938402D01*
X1157504D01*
X1147504Y928402D01*
X1137504Y938402D01*
X1127504D01*
Y928402D01*
X1137504Y918402D01*
X1127504Y908402D01*
Y898402D01*
X1103504Y2242402D02*
X1113504D01*
X1123504Y2252402D01*
X1133504Y2242402D01*
X1143504D01*
Y2252402D01*
X1133504Y2262402D01*
X1143504Y2272402D01*
Y2282402D01*
X1133504D01*
X1123504Y2272402D01*
X1113504Y2282402D01*
X1103504D01*
Y2272402D01*
X1113504Y2262402D01*
X1103504Y2252402D01*
Y2242402D01*
X1168050Y4908908D02*
X1188050Y4928908D01*
X1208050Y4908908D01*
X1188050Y4888908D01*
X1168050Y4908908D01*
X1274504Y5177402D02*
X1294504Y5197402D01*
X1314504Y5177402D01*
X1294504Y5157402D01*
X1274504Y5177402D01*
X1219504Y5196402D02*
X1239504Y5216402D01*
X1259504Y5196402D01*
X1239504Y5176402D01*
X1219504Y5196402D01*
X1143504Y5678402D02*
X1163504Y5698402D01*
X1183504Y5678402D01*
X1163504Y5658402D01*
X1143504Y5678402D01*
X1006504Y5707402D02*
X1026504Y5727402D01*
X1046504Y5707402D01*
X1026504Y5687402D01*
X1006504Y5707402D01*
X1080504Y5774402D02*
X1100504Y5794402D01*
X1120504Y5774402D01*
X1100504Y5754402D01*
X1080504Y5774402D01*
X580000Y3640000D02*
X590000D01*
X600000Y3650000D01*
X610000Y3640000D01*
X620000D01*
Y3650000D01*
X610000Y3660000D01*
X620000Y3670000D01*
Y3680000D01*
X610000D01*
X600000Y3670000D01*
X590000Y3680000D01*
X580000D01*
Y3670000D01*
X590000Y3660000D01*
X580000Y3650000D01*
Y3640000D01*
X570000Y4030000D02*
X580000D01*
X590000Y4040000D01*
X600000Y4030000D01*
X610000D01*
Y4040000D01*
X600000Y4050000D01*
X610000Y4060000D01*
Y4070000D01*
X600000D01*
X590000Y4060000D01*
X580000Y4070000D01*
X570000D01*
Y4060000D01*
X580000Y4050000D01*
X570000Y4040000D01*
Y4030000D01*
X543504Y5023402D02*
X553504D01*
X563504Y5033402D01*
X573504Y5023402D01*
X583504D01*
Y5033402D01*
X573504Y5043402D01*
X583504Y5053402D01*
Y5063402D01*
X573504D01*
X563504Y5053402D01*
X553504Y5063402D01*
X543504D01*
Y5053402D01*
X553504Y5043402D01*
X543504Y5033402D01*
Y5023402D01*
X556504Y5429402D02*
X566504D01*
X576504Y5439402D01*
X586504Y5429402D01*
X596504D01*
Y5439402D01*
X586504Y5449402D01*
X596504Y5459402D01*
Y5469402D01*
X586504D01*
X576504Y5459402D01*
X566504Y5469402D01*
X556504D01*
Y5459402D01*
X566504Y5449402D01*
X556504Y5439402D01*
Y5429402D01*
X546504Y5824402D02*
X556504D01*
X566504Y5834402D01*
X576504Y5824402D01*
X586504D01*
Y5834402D01*
X576504Y5844402D01*
X586504Y5854402D01*
Y5864402D01*
X576504D01*
X566504Y5854402D01*
X556504Y5864402D01*
X546504D01*
Y5854402D01*
X556504Y5844402D01*
X546504Y5834402D01*
Y5824402D01*
X1280504Y5089402D02*
X1300504Y5109402D01*
X1320504Y5089402D01*
X1300504Y5069402D01*
X1280504Y5089402D01*
X1301238Y5290668D02*
X1311238D01*
X1321238Y5300668D01*
X1331238Y5290668D01*
X1341238D01*
Y5300668D01*
X1331238Y5310668D01*
X1341238Y5320668D01*
Y5330668D01*
X1331238D01*
X1321238Y5320668D01*
X1311238Y5330668D01*
X1301238D01*
Y5320668D01*
X1311238Y5310668D01*
X1301238Y5300668D01*
Y5290668D01*
X937504Y5681402D02*
X957504Y5701402D01*
X977504Y5681402D01*
X957504Y5661402D01*
X937504Y5681402D01*
X560000Y4620000D02*
X570000D01*
X580000Y4630000D01*
X590000Y4620000D01*
X600000D01*
Y4630000D01*
X590000Y4640000D01*
X600000Y4650000D01*
Y4660000D01*
X590000D01*
X580000Y4650000D01*
X570000Y4660000D01*
X560000D01*
Y4650000D01*
X570000Y4640000D01*
X560000Y4630000D01*
Y4620000D01*
D93*
X1684504Y2426402D02*
G03*
X1684504Y2426402I-20000J0D01*
G01*
X1084504Y1726402D02*
G03*
X1084504Y1726402I-20000J0D01*
G01*
X974504Y2091402D02*
G03*
X974504Y2091402I-20000J0D01*
G01*
Y2301402D02*
G03*
X974504Y2301402I-20000J0D01*
G01*
X934504Y426402D02*
G03*
X934504Y426402I-20000J0D01*
G01*
X931504Y688402D02*
G03*
X931504Y688402I-20000J0D01*
G01*
X929504Y917402D02*
G03*
X929504Y917402I-20000J0D01*
G01*
X1617504Y929402D02*
G03*
X1617504Y929402I-20000J0D01*
G01*
%TF.MD5,e53136b87ec30cf7181c19e3cded9494*%
M02*
