%TF.GenerationSoftware,Altium Limited,Altium Designer,18.0.12 (696)*%
G04 Layer_Color=255*
%FSLAX26Y26*%
%MOIN*%
%TF.FileFunction,Pads,Bot*%
%TF.Part,Single*%
G01*
G75*
%TA.AperFunction,SMDPad,CuDef*%
%ADD10R,0.057087X0.045276*%
%ADD11R,0.059055X0.049213*%
%ADD13R,0.106299X0.045276*%
%ADD14R,0.070866X0.045276*%
%ADD17R,0.049213X0.059055*%
%ADD20R,0.021654X0.017716*%
%TA.AperFunction,ViaPad*%
%ADD59C,0.019685*%
%TA.AperFunction,ComponentPad*%
%ADD60R,0.070866X0.070866*%
%ADD61R,0.060000X0.060000*%
%ADD62C,0.059055*%
%TA.AperFunction,ViaPad*%
%ADD63C,0.196850*%
%TA.AperFunction,SMDPad,CuDef*%
%ADD66R,0.045276X0.070866*%
%ADD67R,0.110236X0.066929*%
%ADD68O,0.051181X0.017716*%
%ADD69R,0.066929X0.037402*%
%ADD70R,0.061024X0.053150*%
%ADD71R,0.102362X0.043307*%
%ADD72R,0.021654X0.051181*%
%ADD73O,0.013780X0.055118*%
%ADD74R,0.015748X0.023622*%
D10*
X2159000Y2195510D02*
D03*
Y2266376D02*
D03*
X1775000Y2445433D02*
D03*
Y2374567D02*
D03*
D11*
X1689000Y2262284D02*
D03*
Y2179606D02*
D03*
D13*
X1489000Y2151890D02*
D03*
Y2270000D02*
D03*
D14*
X32000Y1743945D02*
D03*
Y1862055D02*
D03*
X1371654Y2152166D02*
D03*
Y2270276D02*
D03*
X671000Y233056D02*
D03*
Y114946D02*
D03*
D17*
X1590338Y2060942D02*
D03*
X1507662D02*
D03*
D20*
X721000Y1771716D02*
D03*
Y1736283D02*
D03*
X379000Y1772716D02*
D03*
Y1737283D02*
D03*
D59*
X1805000Y975000D02*
D03*
X1755000D02*
D03*
X1705000D02*
D03*
X1600000Y1120000D02*
D03*
Y1170000D02*
D03*
X1555000Y1115000D02*
D03*
Y1170000D02*
D03*
X1655000Y1125000D02*
D03*
X1805000Y1215000D02*
D03*
X1845000D02*
D03*
X1900000D02*
D03*
X1905000Y1165000D02*
D03*
X1850000Y1120000D02*
D03*
X1855000Y1165000D02*
D03*
X1805000D02*
D03*
X1705000Y1120000D02*
D03*
X1750000D02*
D03*
X1805000D02*
D03*
Y1065000D02*
D03*
Y1020000D02*
D03*
X1705000D02*
D03*
Y1065000D02*
D03*
X1755000D02*
D03*
Y1020000D02*
D03*
D60*
X300000Y2000000D02*
D03*
X400000D02*
D03*
X750000D02*
D03*
X650000D02*
D03*
D61*
X1300000D02*
D03*
X1200000D02*
D03*
X1100000D02*
D03*
X1000000D02*
D03*
D62*
X2400000Y1950000D02*
D03*
Y1850000D02*
D03*
Y1750000D02*
D03*
Y1650000D02*
D03*
Y1550000D02*
D03*
X2300000Y1950000D02*
D03*
Y1850000D02*
D03*
Y1750000D02*
D03*
Y1650000D02*
D03*
Y1550000D02*
D03*
X2400000Y1450000D02*
D03*
Y1350000D02*
D03*
Y1250000D02*
D03*
X2300000Y1450000D02*
D03*
Y1350000D02*
D03*
Y1250000D02*
D03*
X100000Y1050000D02*
D03*
Y950000D02*
D03*
Y850000D02*
D03*
Y750000D02*
D03*
Y650000D02*
D03*
X0Y1050000D02*
D03*
Y950000D02*
D03*
Y850000D02*
D03*
Y750000D02*
D03*
Y650000D02*
D03*
X100000Y550000D02*
D03*
Y450000D02*
D03*
Y350000D02*
D03*
X0Y550000D02*
D03*
Y450000D02*
D03*
Y350000D02*
D03*
D63*
X4938544Y-4999140D02*
D03*
X0Y0D02*
D03*
X2350000D02*
D03*
X0Y2350000D02*
D03*
X2350000D02*
D03*
D66*
X409055Y2100000D02*
D03*
X290945D02*
D03*
X754055Y2095000D02*
D03*
X635945D02*
D03*
X326944Y559000D02*
D03*
X445054D02*
D03*
D67*
X813976Y2450000D02*
D03*
X686024D02*
D03*
D68*
X142323Y1696614D02*
D03*
Y1722205D02*
D03*
Y1747795D02*
D03*
Y1773386D02*
D03*
X307677Y1696614D02*
D03*
Y1722205D02*
D03*
Y1747795D02*
D03*
Y1773386D02*
D03*
X497323Y1696614D02*
D03*
Y1722205D02*
D03*
Y1747795D02*
D03*
Y1773386D02*
D03*
X662677Y1696614D02*
D03*
Y1722205D02*
D03*
Y1747795D02*
D03*
Y1773386D02*
D03*
D69*
X1599000Y2155824D02*
D03*
Y2266062D02*
D03*
D70*
X2069000Y2191574D02*
D03*
Y2270314D02*
D03*
D71*
X1954330Y2302756D02*
D03*
Y2196456D02*
D03*
D72*
X1842150Y2289604D02*
D03*
X1804748D02*
D03*
X1767346D02*
D03*
Y2195116D02*
D03*
X1804748D02*
D03*
X1842150D02*
D03*
D73*
X575236Y197898D02*
D03*
X525236D02*
D03*
X475236D02*
D03*
X425236D02*
D03*
X575236Y424276D02*
D03*
X525236D02*
D03*
X475236D02*
D03*
X425236D02*
D03*
D74*
X620591Y1853661D02*
D03*
X595000D02*
D03*
X569409D02*
D03*
Y1936339D02*
D03*
X595000D02*
D03*
X620591D02*
D03*
X270591Y1853661D02*
D03*
X245000D02*
D03*
X219410D02*
D03*
Y1936339D02*
D03*
X245000D02*
D03*
X270591D02*
D03*
%TF.MD5,1d38ca54a2bec54d42c3c15de5bf0e21*%
M02*
