G04 Layer_Color=2752767*
%FSLAX26Y26*%
%MOIN*%
%TF.FileFunction,Drawing*%
%TF.Part,Single*%
G01*
G75*
%TA.AperFunction,NonConductor*%
%ADD74C,0.005000*%
%ADD75C,0.006667*%
%ADD76C,0.004000*%
D74*
X1830000Y180000D02*
Y220000D01*
X1870000D01*
Y180000D01*
X1830000D01*
X-70000D02*
Y220000D01*
X-30000D01*
Y180000D01*
X-70000D01*
X55000Y-2420000D02*
Y-2380000D01*
X95000D01*
Y-2420000D01*
X55000D01*
X1705000D02*
Y-2380000D01*
X1745000D01*
Y-2420000D01*
X1705000D01*
X1900000Y-20000D02*
X1880000Y20000D01*
X1920000D01*
X1900000Y-20000D01*
X714614Y-1663000D02*
X694614Y-1623000D01*
X734614D01*
X714614Y-1663000D01*
X1524200Y273000D02*
X1534200Y283000D01*
X1544200D01*
X1534200Y293000D01*
X1544200Y303000D01*
X1534200D01*
X1524200Y313000D01*
X1514200Y303000D01*
X1504200D01*
X1514200Y293000D01*
X1504200Y283000D01*
X1514200D01*
X1524200Y273000D01*
X451800D02*
X461800Y283000D01*
X471800D01*
X461800Y293000D01*
X471800Y303000D01*
X461800D01*
X451800Y313000D01*
X441800Y303000D01*
X431800D01*
X441800Y293000D01*
X431800Y283000D01*
X441800D01*
X451800Y273000D01*
X593700D02*
X603700Y293000D01*
X593700Y313000D01*
X613700Y303000D01*
X633700Y313000D01*
X623700Y293000D01*
X633700Y273000D01*
X613700Y283000D01*
X593700Y273000D01*
X1342300Y271400D02*
X1352300Y291400D01*
X1342300Y311400D01*
X1362300Y301400D01*
X1382300Y311400D01*
X1372300Y291400D01*
X1382300Y271400D01*
X1362300Y281400D01*
X1342300Y271400D01*
X140000Y-10000D02*
Y-20000D01*
X160000D01*
Y-10000D01*
X170000D01*
Y10000D01*
X160000D01*
Y20000D01*
X140000D01*
Y10000D01*
X130000D01*
Y-10000D01*
X140000D01*
Y-110000D02*
Y-120000D01*
X160000D01*
Y-110000D01*
X170000D01*
Y-90000D01*
X160000D01*
Y-80000D01*
X140000D01*
Y-90000D01*
X130000D01*
Y-110000D01*
X140000D01*
Y-210000D02*
Y-220000D01*
X160000D01*
Y-210000D01*
X170000D01*
Y-190000D01*
X160000D01*
Y-180000D01*
X140000D01*
Y-190000D01*
X130000D01*
Y-210000D01*
X140000D01*
Y-310000D02*
Y-320000D01*
X160000D01*
Y-310000D01*
X170000D01*
Y-290000D01*
X160000D01*
Y-280000D01*
X140000D01*
Y-290000D01*
X130000D01*
Y-310000D01*
X140000D01*
X242449Y-2047897D02*
X252449D01*
X262449Y-2037897D01*
X272449Y-2047897D01*
X282449D01*
Y-2037897D01*
X272449Y-2027897D01*
X282449Y-2017897D01*
Y-2007897D01*
X272449D01*
X262449Y-2017897D01*
X252449Y-2007897D01*
X242449D01*
Y-2017897D01*
X252449Y-2027897D01*
X242449Y-2037897D01*
Y-2047897D01*
X342449D02*
X352449D01*
X362449Y-2037897D01*
X372449Y-2047897D01*
X382449D01*
Y-2037897D01*
X372449Y-2027897D01*
X382449Y-2017897D01*
Y-2007897D01*
X372449D01*
X362449Y-2017897D01*
X352449Y-2007897D01*
X342449D01*
Y-2017897D01*
X352449Y-2027897D01*
X342449Y-2037897D01*
Y-2047897D01*
X1423551D02*
X1433551D01*
X1443551Y-2037897D01*
X1453551Y-2047897D01*
X1463551D01*
Y-2037897D01*
X1453551Y-2027897D01*
X1463551Y-2017897D01*
Y-2007897D01*
X1453551D01*
X1443551Y-2017897D01*
X1433551Y-2007897D01*
X1423551D01*
Y-2017897D01*
X1433551Y-2027897D01*
X1423551Y-2037897D01*
Y-2047897D01*
X1523551D02*
X1533551D01*
X1543551Y-2037897D01*
X1553551Y-2047897D01*
X1563551D01*
Y-2037897D01*
X1553551Y-2027897D01*
X1563551Y-2017897D01*
Y-2007897D01*
X1553551D01*
X1543551Y-2017897D01*
X1533551Y-2007897D01*
X1523551D01*
Y-2017897D01*
X1533551Y-2027897D01*
X1523551Y-2037897D01*
Y-2047897D01*
X1133000Y-1069000D02*
X1153000Y-1049000D01*
X1173000Y-1069000D01*
X1153000Y-1089000D01*
X1133000Y-1069000D01*
X1033000D02*
X1053000Y-1049000D01*
X1073000Y-1069000D01*
X1053000Y-1089000D01*
X1033000Y-1069000D01*
X933000D02*
X953000Y-1049000D01*
X973000Y-1069000D01*
X953000Y-1089000D01*
X933000Y-1069000D01*
X833000D02*
X853000Y-1049000D01*
X873000Y-1069000D01*
X853000Y-1089000D01*
X833000Y-1069000D01*
X733000D02*
X753000Y-1049000D01*
X773000Y-1069000D01*
X753000Y-1089000D01*
X733000Y-1069000D01*
X633000D02*
X653000Y-1049000D01*
X673000Y-1069000D01*
X653000Y-1089000D01*
X633000Y-1069000D01*
X714000Y648000D02*
Y688000D01*
X754000D01*
Y648000D01*
X714000D01*
X722000Y656000D02*
Y680000D01*
X746000D01*
Y656000D01*
X722000D01*
X675000Y702000D02*
Y742000D01*
X715000D01*
Y702000D01*
X675000D01*
X683000Y710000D02*
Y734000D01*
X707000D01*
Y710000D01*
X683000D01*
X875000Y646000D02*
Y686000D01*
X915000D01*
Y646000D01*
X875000D01*
X883000Y654000D02*
Y678000D01*
X907000D01*
Y654000D01*
X883000D01*
X1044000Y655000D02*
Y695000D01*
X1084000D01*
Y655000D01*
X1044000D01*
X1052000Y663000D02*
Y687000D01*
X1076000D01*
Y663000D01*
X1052000D01*
X697566Y-2263000D02*
Y-2223000D01*
X737566D01*
Y-2263000D01*
X697566D01*
X705566Y-2255000D02*
Y-2231000D01*
X729566D01*
Y-2255000D01*
X705566D01*
X675000Y320000D02*
Y360000D01*
X715000D01*
Y320000D01*
X675000D01*
X683000Y328000D02*
Y352000D01*
X707000D01*
Y328000D01*
X683000D01*
X1073000Y-1863000D02*
Y-1823000D01*
X1113000D01*
Y-1863000D01*
X1073000D01*
X1081000Y-1855000D02*
Y-1831000D01*
X1105000D01*
Y-1855000D01*
X1081000D01*
X1230078Y-1793000D02*
Y-1753000D01*
X1270078D01*
Y-1793000D01*
X1230078D01*
X1238078Y-1785000D02*
Y-1761000D01*
X1262078D01*
Y-1785000D01*
X1238078D01*
X603000Y-1523000D02*
Y-1483000D01*
X643000D01*
Y-1523000D01*
X603000D01*
X611000Y-1515000D02*
Y-1491000D01*
X635000D01*
Y-1515000D01*
X611000D01*
X886000Y-1283000D02*
Y-1243000D01*
X926000D01*
Y-1283000D01*
X886000D01*
X894000Y-1275000D02*
Y-1251000D01*
X918000D01*
Y-1275000D01*
X894000D01*
X1268000Y343000D02*
Y383000D01*
X1308000D01*
Y343000D01*
X1268000D01*
X1276000Y351000D02*
Y375000D01*
X1300000D01*
Y351000D01*
X1276000D01*
X423000Y-1953063D02*
Y-1913063D01*
X463000D01*
Y-1953063D01*
X423000D01*
X431000Y-1945063D02*
Y-1921063D01*
X455000D01*
Y-1945063D01*
X431000D01*
X273000Y-1377874D02*
Y-1337874D01*
X313000D01*
Y-1377874D01*
X273000D01*
X281000Y-1369874D02*
Y-1345874D01*
X305000D01*
Y-1369874D01*
X281000D01*
X743000Y-898000D02*
Y-858000D01*
X783000D01*
Y-898000D01*
X743000D01*
X751000Y-890000D02*
Y-866000D01*
X775000D01*
Y-890000D01*
X751000D01*
X1325000Y-2070000D02*
Y-2030000D01*
X1365000D01*
Y-2070000D01*
X1325000D01*
X1333000Y-2062000D02*
Y-2038000D01*
X1357000D01*
Y-2062000D01*
X1333000D01*
X1057928Y-1277598D02*
Y-1237598D01*
X1097928D01*
Y-1277598D01*
X1057928D01*
X1065928Y-1269598D02*
Y-1245598D01*
X1089928D01*
Y-1269598D01*
X1065928D01*
X1057928Y-895000D02*
Y-855000D01*
X1097928D01*
Y-895000D01*
X1057928D01*
X1065928Y-887000D02*
Y-863000D01*
X1089928D01*
Y-887000D01*
X1065928D01*
X1342688Y-662598D02*
Y-622598D01*
X1382688D01*
Y-662598D01*
X1342688D01*
X1350688Y-654598D02*
Y-630598D01*
X1374688D01*
Y-654598D01*
X1350688D01*
X1133000Y-718779D02*
Y-678779D01*
X1173000D01*
Y-718779D01*
X1133000D01*
X1141000Y-710779D02*
Y-686779D01*
X1165000D01*
Y-710779D01*
X1141000D01*
X1345000Y-145000D02*
Y-105000D01*
X1385000D01*
Y-145000D01*
X1345000D01*
X1353000Y-137000D02*
Y-113000D01*
X1377000D01*
Y-137000D01*
X1353000D01*
X1115000Y215000D02*
Y255000D01*
X1155000D01*
Y215000D01*
X1115000D01*
X1123000Y223000D02*
Y247000D01*
X1147000D01*
Y223000D01*
X1123000D01*
X1390000Y-1331000D02*
Y-1291000D01*
X1430000D01*
Y-1331000D01*
X1390000D01*
X1398000Y-1323000D02*
Y-1299000D01*
X1422000D01*
Y-1323000D01*
X1398000D01*
X1390000Y-1434000D02*
Y-1394000D01*
X1430000D01*
Y-1434000D01*
X1390000D01*
X1398000Y-1426000D02*
Y-1402000D01*
X1422000D01*
Y-1426000D01*
X1398000D01*
X1423766Y-1929000D02*
Y-1889000D01*
X1463766D01*
Y-1929000D01*
X1423766D01*
X1431766Y-1921000D02*
Y-1897000D01*
X1455766D01*
Y-1921000D01*
X1431766D01*
D75*
X1820000Y0D02*
G03*
X1820000Y0I-20000J0D01*
G01*
Y-100000D02*
G03*
X1820000Y-100000I-20000J0D01*
G01*
Y-200000D02*
G03*
X1820000Y-200000I-20000J0D01*
G01*
Y-300000D02*
G03*
X1820000Y-300000I-20000J0D01*
G01*
Y-400000D02*
G03*
X1820000Y-400000I-20000J0D01*
G01*
Y-500000D02*
G03*
X1820000Y-500000I-20000J0D01*
G01*
Y-600000D02*
G03*
X1820000Y-600000I-20000J0D01*
G01*
Y-700000D02*
G03*
X1820000Y-700000I-20000J0D01*
G01*
Y-800000D02*
G03*
X1820000Y-800000I-20000J0D01*
G01*
Y-900000D02*
G03*
X1820000Y-900000I-20000J0D01*
G01*
Y-1000000D02*
G03*
X1820000Y-1000000I-20000J0D01*
G01*
Y-1100000D02*
G03*
X1820000Y-1100000I-20000J0D01*
G01*
Y-1200000D02*
G03*
X1820000Y-1200000I-20000J0D01*
G01*
Y-1300000D02*
G03*
X1820000Y-1300000I-20000J0D01*
G01*
Y-1400000D02*
G03*
X1820000Y-1400000I-20000J0D01*
G01*
Y-1500000D02*
G03*
X1820000Y-1500000I-20000J0D01*
G01*
Y-1600000D02*
G03*
X1820000Y-1600000I-20000J0D01*
G01*
Y-1700000D02*
G03*
X1820000Y-1700000I-20000J0D01*
G01*
Y-1800000D02*
G03*
X1820000Y-1800000I-20000J0D01*
G01*
Y-1900000D02*
G03*
X1820000Y-1900000I-20000J0D01*
G01*
Y-2000000D02*
G03*
X1820000Y-2000000I-20000J0D01*
G01*
Y-2100000D02*
G03*
X1820000Y-2100000I-20000J0D01*
G01*
Y-2200000D02*
G03*
X1820000Y-2200000I-20000J0D01*
G01*
X1920000Y-100000D02*
G03*
X1920000Y-100000I-20000J0D01*
G01*
Y-200000D02*
G03*
X1920000Y-200000I-20000J0D01*
G01*
Y-300000D02*
G03*
X1920000Y-300000I-20000J0D01*
G01*
Y-400000D02*
G03*
X1920000Y-400000I-20000J0D01*
G01*
Y-500000D02*
G03*
X1920000Y-500000I-20000J0D01*
G01*
Y-600000D02*
G03*
X1920000Y-600000I-20000J0D01*
G01*
Y-700000D02*
G03*
X1920000Y-700000I-20000J0D01*
G01*
Y-800000D02*
G03*
X1920000Y-800000I-20000J0D01*
G01*
Y-900000D02*
G03*
X1920000Y-900000I-20000J0D01*
G01*
Y-1000000D02*
G03*
X1920000Y-1000000I-20000J0D01*
G01*
Y-1100000D02*
G03*
X1920000Y-1100000I-20000J0D01*
G01*
Y-1200000D02*
G03*
X1920000Y-1200000I-20000J0D01*
G01*
Y-1300000D02*
G03*
X1920000Y-1300000I-20000J0D01*
G01*
Y-1400000D02*
G03*
X1920000Y-1400000I-20000J0D01*
G01*
Y-1500000D02*
G03*
X1920000Y-1500000I-20000J0D01*
G01*
Y-1600000D02*
G03*
X1920000Y-1600000I-20000J0D01*
G01*
Y-1700000D02*
G03*
X1920000Y-1700000I-20000J0D01*
G01*
Y-1800000D02*
G03*
X1920000Y-1800000I-20000J0D01*
G01*
Y-1900000D02*
G03*
X1920000Y-1900000I-20000J0D01*
G01*
Y-2000000D02*
G03*
X1920000Y-2000000I-20000J0D01*
G01*
Y-2100000D02*
G03*
X1920000Y-2100000I-20000J0D01*
G01*
Y-2200000D02*
G03*
X1920000Y-2200000I-20000J0D01*
G01*
X20000Y0D02*
G03*
X20000Y0I-20000J0D01*
G01*
X-80000D02*
G03*
X-80000Y0I-20000J0D01*
G01*
Y-100000D02*
G03*
X-80000Y-100000I-20000J0D01*
G01*
Y-200000D02*
G03*
X-80000Y-200000I-20000J0D01*
G01*
Y-300000D02*
G03*
X-80000Y-300000I-20000J0D01*
G01*
Y-400000D02*
G03*
X-80000Y-400000I-20000J0D01*
G01*
Y-500000D02*
G03*
X-80000Y-500000I-20000J0D01*
G01*
Y-600000D02*
G03*
X-80000Y-600000I-20000J0D01*
G01*
Y-700000D02*
G03*
X-80000Y-700000I-20000J0D01*
G01*
Y-800000D02*
G03*
X-80000Y-800000I-20000J0D01*
G01*
Y-900000D02*
G03*
X-80000Y-900000I-20000J0D01*
G01*
Y-1000000D02*
G03*
X-80000Y-1000000I-20000J0D01*
G01*
Y-1100000D02*
G03*
X-80000Y-1100000I-20000J0D01*
G01*
Y-1200000D02*
G03*
X-80000Y-1200000I-20000J0D01*
G01*
Y-1300000D02*
G03*
X-80000Y-1300000I-20000J0D01*
G01*
Y-1400000D02*
G03*
X-80000Y-1400000I-20000J0D01*
G01*
Y-1500000D02*
G03*
X-80000Y-1500000I-20000J0D01*
G01*
Y-1600000D02*
G03*
X-80000Y-1600000I-20000J0D01*
G01*
Y-1700000D02*
G03*
X-80000Y-1700000I-20000J0D01*
G01*
Y-1800000D02*
G03*
X-80000Y-1800000I-20000J0D01*
G01*
Y-1900000D02*
G03*
X-80000Y-1900000I-20000J0D01*
G01*
Y-2000000D02*
G03*
X-80000Y-2000000I-20000J0D01*
G01*
Y-2100000D02*
G03*
X-80000Y-2100000I-20000J0D01*
G01*
Y-2200000D02*
G03*
X-80000Y-2200000I-20000J0D01*
G01*
X20000Y-100000D02*
G03*
X20000Y-100000I-20000J0D01*
G01*
Y-200000D02*
G03*
X20000Y-200000I-20000J0D01*
G01*
Y-300000D02*
G03*
X20000Y-300000I-20000J0D01*
G01*
Y-400000D02*
G03*
X20000Y-400000I-20000J0D01*
G01*
Y-500000D02*
G03*
X20000Y-500000I-20000J0D01*
G01*
Y-600000D02*
G03*
X20000Y-600000I-20000J0D01*
G01*
Y-700000D02*
G03*
X20000Y-700000I-20000J0D01*
G01*
Y-800000D02*
G03*
X20000Y-800000I-20000J0D01*
G01*
Y-900000D02*
G03*
X20000Y-900000I-20000J0D01*
G01*
Y-1000000D02*
G03*
X20000Y-1000000I-20000J0D01*
G01*
Y-1100000D02*
G03*
X20000Y-1100000I-20000J0D01*
G01*
Y-1200000D02*
G03*
X20000Y-1200000I-20000J0D01*
G01*
Y-1300000D02*
G03*
X20000Y-1300000I-20000J0D01*
G01*
Y-1400000D02*
G03*
X20000Y-1400000I-20000J0D01*
G01*
Y-1500000D02*
G03*
X20000Y-1500000I-20000J0D01*
G01*
Y-1600000D02*
G03*
X20000Y-1600000I-20000J0D01*
G01*
Y-1700000D02*
G03*
X20000Y-1700000I-20000J0D01*
G01*
Y-1800000D02*
G03*
X20000Y-1800000I-20000J0D01*
G01*
Y-1900000D02*
G03*
X20000Y-1900000I-20000J0D01*
G01*
Y-2000000D02*
G03*
X20000Y-2000000I-20000J0D01*
G01*
Y-2100000D02*
G03*
X20000Y-2100000I-20000J0D01*
G01*
Y-2200000D02*
G03*
X20000Y-2200000I-20000J0D01*
G01*
X966307Y-1959693D02*
G03*
X966307Y-1959693I-20000J0D01*
G01*
X923000D02*
G03*
X923000Y-1959693I-20000J0D01*
G01*
X879693D02*
G03*
X879693Y-1959693I-20000J0D01*
G01*
X966307Y-2003000D02*
G03*
X966307Y-2003000I-20000J0D01*
G01*
X923000D02*
G03*
X923000Y-2003000I-20000J0D01*
G01*
X879693D02*
G03*
X879693Y-2003000I-20000J0D01*
G01*
X966307Y-2046307D02*
G03*
X966307Y-2046307I-20000J0D01*
G01*
X923000D02*
G03*
X923000Y-2046307I-20000J0D01*
G01*
X879693D02*
G03*
X879693Y-2046307I-20000J0D01*
G01*
Y-1444488D02*
G03*
X879693Y-1444488I-20000J0D01*
G01*
X923000D02*
G03*
X923000Y-1444488I-20000J0D01*
G01*
X966307D02*
G03*
X966307Y-1444488I-20000J0D01*
G01*
X879693Y-1401181D02*
G03*
X879693Y-1401181I-20000J0D01*
G01*
X923000D02*
G03*
X923000Y-1401181I-20000J0D01*
G01*
X966307D02*
G03*
X966307Y-1401181I-20000J0D01*
G01*
X879693Y-1357874D02*
G03*
X879693Y-1357874I-20000J0D01*
G01*
X923000D02*
G03*
X923000Y-1357874I-20000J0D01*
G01*
X966307D02*
G03*
X966307Y-1357874I-20000J0D01*
G01*
D76*
X958307Y-1959693D02*
G03*
X958307Y-1959693I-12000J0D01*
G01*
X915000D02*
G03*
X915000Y-1959693I-12000J0D01*
G01*
X871693D02*
G03*
X871693Y-1959693I-12000J0D01*
G01*
X958307Y-2003000D02*
G03*
X958307Y-2003000I-12000J0D01*
G01*
X915000D02*
G03*
X915000Y-2003000I-12000J0D01*
G01*
X871693D02*
G03*
X871693Y-2003000I-12000J0D01*
G01*
X958307Y-2046307D02*
G03*
X958307Y-2046307I-12000J0D01*
G01*
X915000D02*
G03*
X915000Y-2046307I-12000J0D01*
G01*
X871693D02*
G03*
X871693Y-2046307I-12000J0D01*
G01*
Y-1444488D02*
G03*
X871693Y-1444488I-12000J0D01*
G01*
X915000D02*
G03*
X915000Y-1444488I-12000J0D01*
G01*
X958307D02*
G03*
X958307Y-1444488I-12000J0D01*
G01*
X871693Y-1401181D02*
G03*
X871693Y-1401181I-12000J0D01*
G01*
X915000D02*
G03*
X915000Y-1401181I-12000J0D01*
G01*
X958307D02*
G03*
X958307Y-1401181I-12000J0D01*
G01*
X871693Y-1357874D02*
G03*
X871693Y-1357874I-12000J0D01*
G01*
X915000D02*
G03*
X915000Y-1357874I-12000J0D01*
G01*
X958307D02*
G03*
X958307Y-1357874I-12000J0D01*
G01*
%TF.MD5,4bd8251401f9d3d78d3b7789a6b95054*%
M02*
