G04 Layer_Color=255*
%FSLAX26Y26*%
%MOIN*%
%TF.FileFunction,Pads,Top*%
%TF.Part,Single*%
G01*
G75*
%TA.AperFunction,SMDPad,CuDef*%
%ADD10R,0.066929X0.019685*%
%ADD11R,0.070866X0.019685*%
%ADD12R,0.029528X0.025591*%
%ADD13R,0.020472X0.020472*%
G04:AMPARAMS|DCode=14|XSize=17.716mil|YSize=55.118mil|CornerRadius=1.949mil|HoleSize=0mil|Usage=FLASHONLY|Rotation=90.000|XOffset=0mil|YOffset=0mil|HoleType=Round|Shape=RoundedRectangle|*
%AMROUNDEDRECTD14*
21,1,0.017716,0.051221,0,0,90.0*
21,1,0.013819,0.055118,0,0,90.0*
1,1,0.003898,0.025610,0.006910*
1,1,0.003898,0.025610,-0.006910*
1,1,0.003898,-0.025610,-0.006910*
1,1,0.003898,-0.025610,0.006910*
%
%ADD14ROUNDEDRECTD14*%
%ADD15R,0.051181X0.033465*%
%ADD16R,0.025591X0.033465*%
%ADD17R,0.025591X0.029528*%
G04:AMPARAMS|DCode=18|XSize=25.591mil|YSize=47.244mil|CornerRadius=1.919mil|HoleSize=0mil|Usage=FLASHONLY|Rotation=90.000|XOffset=0mil|YOffset=0mil|HoleType=Round|Shape=RoundedRectangle|*
%AMROUNDEDRECTD18*
21,1,0.025591,0.043406,0,0,90.0*
21,1,0.021752,0.047244,0,0,90.0*
1,1,0.003839,0.021703,0.010876*
1,1,0.003839,0.021703,-0.010876*
1,1,0.003839,-0.021703,-0.010876*
1,1,0.003839,-0.021703,0.010876*
%
%ADD18ROUNDEDRECTD18*%
%ADD19R,0.039370X0.039370*%
%TA.AperFunction,ComponentPad*%
%ADD21C,0.059055*%
%ADD22R,0.059055X0.059055*%
%ADD23C,0.100000*%
%ADD24C,0.047000*%
%ADD25C,0.070866*%
%ADD26C,0.060000*%
%ADD27C,0.118110*%
%ADD28R,0.059055X0.059055*%
%ADD29R,0.060000X0.060000*%
%TA.AperFunction,ViaPad*%
%ADD30C,0.060000*%
%TA.AperFunction,WasherPad*%
%ADD31C,0.098425*%
%ADD32C,0.095000*%
D10*
X-1139024Y570472D02*
D03*
D11*
X-1140992Y629528D02*
D03*
D12*
X-2063000Y1788346D02*
D03*
X-2063000Y1831653D02*
D03*
X-863000Y6398346D02*
D03*
X-863000Y6441654D02*
D03*
X-568000Y6393346D02*
D03*
X-568000Y6436654D02*
D03*
X-708000Y6398346D02*
D03*
X-708000Y6441654D02*
D03*
X-638000Y1938346D02*
D03*
X-638000Y1981653D02*
D03*
X-588000Y1938346D02*
D03*
X-588000Y1981653D02*
D03*
D13*
X-176229Y6897176D02*
D03*
X-144733Y6897176D02*
D03*
D14*
X-1540221Y6874390D02*
D03*
X-1540221Y6848800D02*
D03*
X-1540221Y6823210D02*
D03*
X-1540221Y6797618D02*
D03*
X-1540221Y6772028D02*
D03*
X-1540221Y6746438D02*
D03*
X-1540221Y6720846D02*
D03*
X-1307937Y6874390D02*
D03*
X-1307937Y6848800D02*
D03*
X-1307937Y6823210D02*
D03*
X-1307937Y6797618D02*
D03*
X-1307937Y6772028D02*
D03*
X-1307937Y6746438D02*
D03*
X-1307937Y6720846D02*
D03*
D15*
X-205614Y1166185D02*
D03*
X-205614Y1099256D02*
D03*
X-134748Y1099256D02*
D03*
X-134748Y1166185D02*
D03*
X-122937Y650438D02*
D03*
X-122937Y717366D02*
D03*
X-201677Y965398D02*
D03*
X-201677Y1032328D02*
D03*
X-189866Y717367D02*
D03*
X-189866Y650437D02*
D03*
X-130810Y1032326D02*
D03*
X-130810Y965398D02*
D03*
D16*
X-834732Y6917043D02*
D03*
X-801268Y6917043D02*
D03*
X-801268Y6859957D02*
D03*
X-834732Y6859957D02*
D03*
D17*
X-436346Y6900000D02*
D03*
X-479654Y6900000D02*
D03*
X-484654Y6825000D02*
D03*
X-441346Y6825000D02*
D03*
X-441346Y6770000D02*
D03*
X-484654Y6770000D02*
D03*
D18*
X-242410Y6899578D02*
D03*
X-242410Y6824775D02*
D03*
X-358552Y6824775D02*
D03*
X-358552Y6862176D02*
D03*
X-358552Y6899578D02*
D03*
D19*
X-667370Y1879370D02*
D03*
X-588630Y1879370D02*
D03*
X-588630Y1800630D02*
D03*
X-667370Y1800630D02*
D03*
D21*
X-869851Y2220178D02*
D03*
X-869851Y2320178D02*
D03*
X-1919851Y2220178D02*
D03*
X-1919851Y2320178D02*
D03*
X-188000Y4228500D02*
D03*
X-188000Y4328500D02*
D03*
X-188000Y4428500D02*
D03*
X-188000Y4528500D02*
D03*
X-188000Y4628500D02*
D03*
X-88000Y4228500D02*
D03*
X-88000Y4328500D02*
D03*
X-88000Y4428500D02*
D03*
X-88000Y4528500D02*
D03*
X-88000Y4628500D02*
D03*
X-116001Y7061500D02*
D03*
X-216001Y7061500D02*
D03*
X-316001Y7061500D02*
D03*
X-416001Y7061500D02*
D03*
X-516001Y7061500D02*
D03*
X-2488000Y5428500D02*
D03*
X-2488000Y5528500D02*
D03*
X-2488000Y5628500D02*
D03*
X-2488000Y5728500D02*
D03*
X-2488000Y5828500D02*
D03*
X-2388000Y5428500D02*
D03*
X-2388000Y5528500D02*
D03*
X-2388000Y5628500D02*
D03*
X-2388000Y5728500D02*
D03*
X-2388000Y5828500D02*
D03*
X-2388000Y4278500D02*
D03*
X-2388000Y4378500D02*
D03*
X-2388000Y4478500D02*
D03*
X-2488000Y4278500D02*
D03*
X-2488000Y4378500D02*
D03*
X-2488000Y4478500D02*
D03*
X-2388000Y4578500D02*
D03*
X-2388000Y4678500D02*
D03*
X-2388000Y4778500D02*
D03*
X-2388000Y4878500D02*
D03*
X-2388000Y4978500D02*
D03*
X-2488000Y4578500D02*
D03*
X-2488000Y4678500D02*
D03*
X-2488000Y4778500D02*
D03*
X-2488000Y4878500D02*
D03*
X-2488000Y4978500D02*
D03*
X-88000Y5178500D02*
D03*
X-88000Y5278500D02*
D03*
X-88000Y5378500D02*
D03*
X-188000Y5178500D02*
D03*
X-188000Y5278500D02*
D03*
X-188000Y5378500D02*
D03*
X-88000Y5478500D02*
D03*
X-88000Y5578500D02*
D03*
X-88000Y5678500D02*
D03*
X-88000Y5778500D02*
D03*
X-88000Y5878500D02*
D03*
X-188000Y5478500D02*
D03*
X-188000Y5578500D02*
D03*
X-188000Y5678500D02*
D03*
X-188000Y5778500D02*
D03*
X-188000Y5878500D02*
D03*
X-1269851Y2620178D02*
D03*
X-1169851Y2620178D02*
D03*
X-1369851Y2620178D02*
D03*
X-1469851Y2620178D02*
D03*
X-1569851Y2620178D02*
D03*
X-1669851Y2620178D02*
D03*
D22*
X-869851Y2420178D02*
D03*
X-1919851Y2420178D02*
D03*
D23*
X-693803Y5675260D02*
D03*
X-693803Y6747660D02*
D03*
D24*
X-693803Y6585760D02*
D03*
X-695403Y5837160D02*
D03*
D25*
X-1098000Y7248500D02*
D03*
X-1098000Y7348500D02*
D03*
X-1198000Y7348500D02*
D03*
X-1298000Y7348500D02*
D03*
X-1398000Y7348500D02*
D03*
X-1498000Y7348500D02*
D03*
X-1598000Y7348500D02*
D03*
X-1698000Y7348500D02*
D03*
X-1798000Y7348500D02*
D03*
X-1898000Y7348500D02*
D03*
X-1998000Y7348500D02*
D03*
X-2098000Y7348500D02*
D03*
X-1198000Y7248500D02*
D03*
X-1298000Y7248500D02*
D03*
X-1398000Y7248500D02*
D03*
X-1498000Y7248500D02*
D03*
X-1598000Y7248500D02*
D03*
X-1698000Y7248500D02*
D03*
X-1798000Y7248500D02*
D03*
X-1898000Y7248500D02*
D03*
X-1998000Y7248500D02*
D03*
X-2098000Y7248500D02*
D03*
X-998000Y7348500D02*
D03*
X-998000Y7248500D02*
D03*
D26*
X-2318000Y2700000D02*
D03*
X-418000Y500000D02*
D03*
X-418000Y600000D02*
D03*
X-418000Y700000D02*
D03*
X-418000Y800000D02*
D03*
X-418000Y900000D02*
D03*
X-418000Y1000000D02*
D03*
X-418000Y1100000D02*
D03*
X-418000Y1200000D02*
D03*
X-418000Y1300000D02*
D03*
X-418000Y1400000D02*
D03*
X-418000Y1500000D02*
D03*
X-418000Y1600000D02*
D03*
X-418000Y1700000D02*
D03*
X-418000Y1800000D02*
D03*
X-418000Y1900000D02*
D03*
X-418000Y2000000D02*
D03*
X-418000Y2100000D02*
D03*
X-418000Y2200000D02*
D03*
X-418000Y2300000D02*
D03*
X-418000Y2400000D02*
D03*
X-418000Y2500000D02*
D03*
X-418000Y2600000D02*
D03*
X-318000Y500000D02*
D03*
X-318000Y600000D02*
D03*
X-318000Y700000D02*
D03*
X-318000Y800000D02*
D03*
X-318000Y900000D02*
D03*
X-318000Y1000000D02*
D03*
X-318000Y1100000D02*
D03*
X-318000Y1200000D02*
D03*
X-318000Y1300000D02*
D03*
X-318000Y1400000D02*
D03*
X-318000Y1500000D02*
D03*
X-318000Y1600000D02*
D03*
X-318000Y1700000D02*
D03*
X-318000Y1800000D02*
D03*
X-318000Y1900000D02*
D03*
X-318000Y2000000D02*
D03*
X-318000Y2100000D02*
D03*
X-318000Y2200000D02*
D03*
X-318000Y2300000D02*
D03*
X-318000Y2400000D02*
D03*
X-318000Y2500000D02*
D03*
X-318000Y2600000D02*
D03*
X-318000Y2700000D02*
D03*
X-418000Y2700000D02*
D03*
X-2318000Y500000D02*
D03*
X-2318000Y600000D02*
D03*
X-2318000Y700000D02*
D03*
X-2318000Y800000D02*
D03*
X-2318000Y900000D02*
D03*
X-2318000Y1000000D02*
D03*
X-2318000Y1100000D02*
D03*
X-2318000Y1200000D02*
D03*
X-2318000Y1300000D02*
D03*
X-2318000Y1400000D02*
D03*
X-2318000Y1500000D02*
D03*
X-2318000Y1600000D02*
D03*
X-2318000Y1700000D02*
D03*
X-2318000Y1800000D02*
D03*
X-2318000Y1900000D02*
D03*
X-2318000Y2000000D02*
D03*
X-2318000Y2100000D02*
D03*
X-2318000Y2200000D02*
D03*
X-2318000Y2300000D02*
D03*
X-2318000Y2400000D02*
D03*
X-2318000Y2500000D02*
D03*
X-2318000Y2600000D02*
D03*
X-2218000Y500000D02*
D03*
X-2218000Y600000D02*
D03*
X-2218000Y700000D02*
D03*
X-2218000Y800000D02*
D03*
X-2218000Y900000D02*
D03*
X-2218000Y1000000D02*
D03*
X-2218000Y1100000D02*
D03*
X-2218000Y1200000D02*
D03*
X-2218000Y1300000D02*
D03*
X-2218000Y1400000D02*
D03*
X-2218000Y1500000D02*
D03*
X-2218000Y1600000D02*
D03*
X-2218000Y1700000D02*
D03*
X-2218000Y1800000D02*
D03*
X-2218000Y1900000D02*
D03*
X-2218000Y2000000D02*
D03*
X-2218000Y2100000D02*
D03*
X-2218000Y2200000D02*
D03*
X-2218000Y2300000D02*
D03*
X-2218000Y2400000D02*
D03*
X-2218000Y2500000D02*
D03*
X-2218000Y2600000D02*
D03*
X-2218000Y2700000D02*
D03*
D27*
X-2143000Y300000D02*
D03*
X-493000Y300000D02*
D03*
X-368000Y2900000D02*
D03*
X-2268000Y2900000D02*
D03*
D28*
X-616001Y7061500D02*
D03*
X-1069851Y2620178D02*
D03*
D29*
X-330481Y7307176D02*
D03*
X-430481Y7307176D02*
D03*
X-530481Y7307176D02*
D03*
X-630481Y7307176D02*
D03*
X-230481Y7307176D02*
D03*
D30*
X-1318000Y5778500D02*
D03*
D31*
X-2488000Y6278500D02*
D03*
X-2488000Y3928500D02*
D03*
X-138000Y6278500D02*
D03*
X-138000Y3928500D02*
D03*
D32*
X-1919851Y1570178D02*
D03*
X-869851Y2620178D02*
D03*
X-869851Y1570178D02*
D03*
X-1919851Y2620178D02*
D03*
%TF.MD5,f47a5f00ad3942df332ee554ab3a63b4*%
M02*
