G04 Layer_Color=128*
%FSLAX26Y26*%
%MOIN*%
%TF.FileFunction,Drillmap*%
%TF.Part,Single*%
G01*
G75*
%TA.AperFunction,NonConductor*%
%ADD30C,0.005000*%
D30*
X385000Y2787500D02*
X415000D01*
X400000Y2772500D02*
Y2802500D01*
X2284252Y587500D02*
X2315748D01*
X2300000Y571752D02*
Y603248D01*
X2284252Y687500D02*
X2315748D01*
X2300000Y671752D02*
Y703248D01*
X2284252Y787500D02*
X2315748D01*
X2300000Y771752D02*
Y803248D01*
X2284252Y887500D02*
X2315748D01*
X2300000Y871752D02*
Y903248D01*
X2284252Y987500D02*
X2315748D01*
X2300000Y971752D02*
Y1003248D01*
X2284252Y1087500D02*
X2315748D01*
X2300000Y1071752D02*
Y1103248D01*
X2284252Y1187500D02*
X2315748D01*
X2300000Y1171752D02*
Y1203248D01*
X2284252Y1287500D02*
X2315748D01*
X2300000Y1271752D02*
Y1303248D01*
X2284252Y1387500D02*
X2315748D01*
X2300000Y1371752D02*
Y1403248D01*
X2284252Y1487500D02*
X2315748D01*
X2300000Y1471752D02*
Y1503248D01*
X2284252Y1587500D02*
X2315748D01*
X2300000Y1571752D02*
Y1603248D01*
X2284252Y1687500D02*
X2315748D01*
X2300000Y1671752D02*
Y1703248D01*
X2284252Y1787500D02*
X2315748D01*
X2300000Y1771752D02*
Y1803248D01*
X2284252Y1887500D02*
X2315748D01*
X2300000Y1871752D02*
Y1903248D01*
X2284252Y1987500D02*
X2315748D01*
X2300000Y1971752D02*
Y2003248D01*
X2284252Y2087500D02*
X2315748D01*
X2300000Y2071752D02*
Y2103248D01*
X2284252Y2187500D02*
X2315748D01*
X2300000Y2171752D02*
Y2203248D01*
X2284252Y2287500D02*
X2315748D01*
X2300000Y2271752D02*
Y2303248D01*
X2284252Y2387500D02*
X2315748D01*
X2300000Y2371752D02*
Y2403248D01*
X2284252Y2487500D02*
X2315748D01*
X2300000Y2471752D02*
Y2503248D01*
X2284252Y2587500D02*
X2315748D01*
X2300000Y2571752D02*
Y2603248D01*
X2284252Y2687500D02*
X2315748D01*
X2300000Y2671752D02*
Y2703248D01*
X2384252Y587500D02*
X2415748D01*
X2400000Y571752D02*
Y603248D01*
X2384252Y687500D02*
X2415748D01*
X2400000Y671752D02*
Y703248D01*
X2384252Y787500D02*
X2415748D01*
X2400000Y771752D02*
Y803248D01*
X2384252Y887500D02*
X2415748D01*
X2400000Y871752D02*
Y903248D01*
X2384252Y987500D02*
X2415748D01*
X2400000Y971752D02*
Y1003248D01*
X2384252Y1087500D02*
X2415748D01*
X2400000Y1071752D02*
Y1103248D01*
X2384252Y1187500D02*
X2415748D01*
X2400000Y1171752D02*
Y1203248D01*
X2384252Y1287500D02*
X2415748D01*
X2400000Y1271752D02*
Y1303248D01*
X2384252Y1387500D02*
X2415748D01*
X2400000Y1371752D02*
Y1403248D01*
X2384252Y1487500D02*
X2415748D01*
X2400000Y1471752D02*
Y1503248D01*
X2384252Y1587500D02*
X2415748D01*
X2400000Y1571752D02*
Y1603248D01*
X2384252Y1687500D02*
X2415748D01*
X2400000Y1671752D02*
Y1703248D01*
X2384252Y1787500D02*
X2415748D01*
X2400000Y1771752D02*
Y1803248D01*
X2384252Y1887500D02*
X2415748D01*
X2400000Y1871752D02*
Y1903248D01*
X2384252Y1987500D02*
X2415748D01*
X2400000Y1971752D02*
Y2003248D01*
X2384252Y2087500D02*
X2415748D01*
X2400000Y2071752D02*
Y2103248D01*
X2384252Y2187500D02*
X2415748D01*
X2400000Y2171752D02*
Y2203248D01*
X2384252Y2287500D02*
X2415748D01*
X2400000Y2271752D02*
Y2303248D01*
X2384252Y2387500D02*
X2415748D01*
X2400000Y2371752D02*
Y2403248D01*
X2384252Y2487500D02*
X2415748D01*
X2400000Y2471752D02*
Y2503248D01*
X2384252Y2587500D02*
X2415748D01*
X2400000Y2571752D02*
Y2603248D01*
X2384252Y2687500D02*
X2415748D01*
X2400000Y2671752D02*
Y2703248D01*
X2384252Y2787500D02*
X2415748D01*
X2400000Y2771752D02*
Y2803248D01*
X2284252Y2787500D02*
X2315748D01*
X2300000Y2771752D02*
Y2803248D01*
X384252Y587500D02*
X415748D01*
X400000Y571752D02*
Y603248D01*
X384252Y687500D02*
X415748D01*
X400000Y671752D02*
Y703248D01*
X384252Y787500D02*
X415748D01*
X400000Y771752D02*
Y803248D01*
X384252Y887500D02*
X415748D01*
X400000Y871752D02*
Y903248D01*
X384252Y987500D02*
X415748D01*
X400000Y971752D02*
Y1003248D01*
X384252Y1087500D02*
X415748D01*
X400000Y1071752D02*
Y1103248D01*
X384252Y1187500D02*
X415748D01*
X400000Y1171752D02*
Y1203248D01*
X384252Y1287500D02*
X415748D01*
X400000Y1271752D02*
Y1303248D01*
X384252Y1387500D02*
X415748D01*
X400000Y1371752D02*
Y1403248D01*
X384252Y1487500D02*
X415748D01*
X400000Y1471752D02*
Y1503248D01*
X384252Y1587500D02*
X415748D01*
X400000Y1571752D02*
Y1603248D01*
X384252Y1687500D02*
X415748D01*
X400000Y1671752D02*
Y1703248D01*
X384252Y1787500D02*
X415748D01*
X400000Y1771752D02*
Y1803248D01*
X384252Y1887500D02*
X415748D01*
X400000Y1871752D02*
Y1903248D01*
X384252Y1987500D02*
X415748D01*
X400000Y1971752D02*
Y2003248D01*
X384252Y2087500D02*
X415748D01*
X400000Y2071752D02*
Y2103248D01*
X384252Y2187500D02*
X415748D01*
X400000Y2171752D02*
Y2203248D01*
X384252Y2287500D02*
X415748D01*
X400000Y2271752D02*
Y2303248D01*
X384252Y2387500D02*
X415748D01*
X400000Y2371752D02*
Y2403248D01*
X384252Y2487500D02*
X415748D01*
X400000Y2471752D02*
Y2503248D01*
X384252Y2587500D02*
X415748D01*
X400000Y2571752D02*
Y2603248D01*
X384252Y2687500D02*
X415748D01*
X400000Y2671752D02*
Y2703248D01*
X484252Y587500D02*
X515748D01*
X500000Y571752D02*
Y603248D01*
X484252Y687500D02*
X515748D01*
X500000Y671752D02*
Y703248D01*
X484252Y787500D02*
X515748D01*
X500000Y771752D02*
Y803248D01*
X484252Y887500D02*
X515748D01*
X500000Y871752D02*
Y903248D01*
X484252Y987500D02*
X515748D01*
X500000Y971752D02*
Y1003248D01*
X484252Y1087500D02*
X515748D01*
X500000Y1071752D02*
Y1103248D01*
X484252Y1187500D02*
X515748D01*
X500000Y1171752D02*
Y1203248D01*
X484252Y1287500D02*
X515748D01*
X500000Y1271752D02*
Y1303248D01*
X484252Y1387500D02*
X515748D01*
X500000Y1371752D02*
Y1403248D01*
X484252Y1487500D02*
X515748D01*
X500000Y1471752D02*
Y1503248D01*
X484252Y1587500D02*
X515748D01*
X500000Y1571752D02*
Y1603248D01*
X484252Y1687500D02*
X515748D01*
X500000Y1671752D02*
Y1703248D01*
X484252Y1787500D02*
X515748D01*
X500000Y1771752D02*
Y1803248D01*
X484252Y1887500D02*
X515748D01*
X500000Y1871752D02*
Y1903248D01*
X484252Y1987500D02*
X515748D01*
X500000Y1971752D02*
Y2003248D01*
X484252Y2087500D02*
X515748D01*
X500000Y2071752D02*
Y2103248D01*
X484252Y2187500D02*
X515748D01*
X500000Y2171752D02*
Y2203248D01*
X484252Y2287500D02*
X515748D01*
X500000Y2271752D02*
Y2303248D01*
X484252Y2387500D02*
X515748D01*
X500000Y2371752D02*
Y2403248D01*
X484252Y2487500D02*
X515748D01*
X500000Y2471752D02*
Y2503248D01*
X484252Y2587500D02*
X515748D01*
X500000Y2571752D02*
Y2603248D01*
X484252Y2687500D02*
X515748D01*
X500000Y2671752D02*
Y2703248D01*
X484252Y2787500D02*
X515748D01*
X500000Y2771752D02*
Y2803248D01*
X515945Y412500D02*
X634055D01*
X575000Y353445D02*
Y471555D01*
X2165945Y412500D02*
X2284055D01*
X2225000Y353445D02*
Y471555D01*
X2290945Y2987500D02*
X2409055D01*
X2350000Y2928445D02*
Y3046555D01*
X390945Y2987500D02*
X509055D01*
X450000Y2928445D02*
Y3046555D01*
X782284Y4000000D02*
X817716D01*
X800000Y3982284D02*
Y4017716D01*
X382284Y4000000D02*
X417716D01*
X400000Y3982284D02*
Y4017716D01*
X482284Y4000000D02*
X517716D01*
X500000Y3982284D02*
Y4017716D01*
X582284Y4000000D02*
X617716D01*
X600000Y3982284D02*
Y4017716D01*
X682284Y4000000D02*
X717716D01*
X700000Y3982284D02*
Y4017716D01*
X1281299Y4200000D02*
X1318701D01*
X1300000Y4181299D02*
Y4218701D01*
X1281299Y4100000D02*
X1318701D01*
X1300000Y4081299D02*
Y4118701D01*
X1381299Y4100000D02*
X1418701D01*
X1400000Y4081299D02*
Y4118701D01*
X1481299Y4100000D02*
X1518701D01*
X1500000Y4081299D02*
Y4118701D01*
X1581299Y4100000D02*
X1618701D01*
X1600000Y4081299D02*
Y4118701D01*
X1681299Y4100000D02*
X1718701D01*
X1700000Y4081299D02*
Y4118701D01*
X1781299Y4100000D02*
X1818701D01*
X1800000Y4081299D02*
Y4118701D01*
X1881299Y4100000D02*
X1918701D01*
X1900000Y4081299D02*
Y4118701D01*
X1981299Y4100000D02*
X2018701D01*
X2000000Y4081299D02*
Y4118701D01*
X2081299Y4100000D02*
X2118701D01*
X2100000Y4081299D02*
Y4118701D01*
X2181299Y4100000D02*
X2218701D01*
X2200000Y4081299D02*
Y4118701D01*
X2281299Y4100000D02*
X2318701D01*
X2300000Y4081299D02*
Y4118701D01*
X1381299Y4200000D02*
X1418701D01*
X1400000Y4181299D02*
Y4218701D01*
X1481299Y4200000D02*
X1518701D01*
X1500000Y4181299D02*
Y4218701D01*
X1581299Y4200000D02*
X1618701D01*
X1600000Y4181299D02*
Y4218701D01*
X1681299Y4200000D02*
X1718701D01*
X1700000Y4181299D02*
Y4218701D01*
X1781299Y4200000D02*
X1818701D01*
X1800000Y4181299D02*
Y4218701D01*
X1881299Y4200000D02*
X1918701D01*
X1900000Y4181299D02*
Y4218701D01*
X1981299Y4200000D02*
X2018701D01*
X2000000Y4181299D02*
Y4218701D01*
X2081299Y4200000D02*
X2118701D01*
X2100000Y4181299D02*
Y4218701D01*
X2181299Y4200000D02*
X2218701D01*
X2200000Y4181299D02*
Y4218701D01*
X2281299Y4200000D02*
X2318701D01*
X2300000Y4181299D02*
Y4218701D01*
X1181299Y4100000D02*
X1218701D01*
X1200000Y4081299D02*
Y4118701D01*
X1181299Y4200000D02*
X1218701D01*
X1200000Y4181299D02*
Y4218701D01*
X1986000Y2240000D02*
X2014000D01*
X2000000Y2226000D02*
Y2254000D01*
%TF.MD5,a5909671941343fbb0c0ffa79f09825f*%
M02*
