G04 Layer_Color=65535*
%FSLAX26Y26*%
%MOIN*%
%TF.FileFunction,Legend,Top*%
%TF.Part,Single*%
G01*
G75*
%TA.AperFunction,NonConductor*%
%ADD21C,0.010000*%
G36*
X1625000Y3662500D02*
X1625000Y2787500D01*
X975000Y2787500D01*
X975000Y3662500D01*
X1625000Y3662500D01*
D02*
G37*
D21*
X314142Y4000000D02*
G03*
X314142Y4000000I-14142J0D01*
G01*
X325000Y162500D02*
Y3562500D01*
Y162500D02*
X2475000D01*
X325000Y3562500D02*
X2475000D01*
Y162500D02*
Y3562500D01*
X300000Y3950000D02*
X900000D01*
Y4400000D01*
X300000D02*
X900000D01*
X300000Y3950000D02*
Y4400000D01*
X2400000Y4000000D02*
Y4300000D01*
X1100000D02*
X2400000D01*
X1100000Y4000000D02*
Y4300000D01*
Y4000000D02*
X2400000D01*
X775016Y3789987D02*
X765019Y3779990D01*
Y3759997D01*
X775016Y3750000D01*
X815003D01*
X825000Y3759997D01*
Y3779990D01*
X815003Y3789987D01*
X795010D01*
Y3769994D01*
X825000Y3809981D02*
X765019D01*
X825000Y3849968D01*
X765019D01*
Y3869961D02*
X825000D01*
Y3899952D01*
X815003Y3909948D01*
X775016D01*
X765019Y3899952D01*
Y3869961D01*
X595010Y3700000D02*
Y3739987D01*
X575016Y3719994D02*
X615003D01*
X575016Y3759981D02*
X565019Y3769977D01*
Y3789971D01*
X575016Y3799968D01*
X585013D01*
X595010Y3789971D01*
Y3779974D01*
Y3789971D01*
X605006Y3799968D01*
X615003D01*
X625000Y3789971D01*
Y3769977D01*
X615003Y3759981D01*
X625000Y3819961D02*
X615003D01*
Y3829958D01*
X625000D01*
Y3819961D01*
X575016Y3869945D02*
X565019Y3879942D01*
Y3899935D01*
X575016Y3909932D01*
X585013D01*
X595010Y3899935D01*
Y3889939D01*
Y3899935D01*
X605006Y3909932D01*
X615003D01*
X625000Y3899935D01*
Y3879942D01*
X615003Y3869945D01*
X495010Y3800000D02*
Y3839987D01*
X475016Y3819994D02*
X515003D01*
X465019Y3899968D02*
Y3859981D01*
X495010D01*
X485013Y3879974D01*
Y3889971D01*
X495010Y3899968D01*
X515003D01*
X525000Y3889971D01*
Y3869977D01*
X515003Y3859981D01*
X395010Y3750000D02*
Y3789987D01*
X375016Y3769994D02*
X415003D01*
X425000Y3809981D02*
Y3829974D01*
Y3819977D01*
X365019D01*
X375016Y3809981D01*
X425000Y3899952D02*
Y3859964D01*
X385013Y3899952D01*
X375016D01*
X365019Y3889955D01*
Y3869961D01*
X375016Y3859964D01*
X185000Y3629981D02*
Y3579997D01*
X194997Y3570000D01*
X214990D01*
X224987Y3579997D01*
Y3629981D01*
X244981Y3570000D02*
X264974D01*
X254977D01*
Y3629981D01*
X244981Y3619984D01*
X100000Y2870000D02*
Y2929981D01*
X129990D01*
X139987Y2919984D01*
Y2899990D01*
X129990Y2889994D01*
X100000D01*
X159981Y2919984D02*
X169977Y2929981D01*
X189971D01*
X199968Y2919984D01*
Y2909987D01*
X189971Y2899990D01*
X199968Y2889994D01*
Y2879997D01*
X189971Y2870000D01*
X169977D01*
X159981Y2879997D01*
Y2889994D01*
X169977Y2899990D01*
X159981Y2909987D01*
Y2919984D01*
X169977Y2899990D02*
X189971D01*
X2560000Y2860000D02*
Y2919981D01*
X2589990D01*
X2599987Y2909984D01*
Y2889990D01*
X2589990Y2879994D01*
X2560000D01*
X2619981Y2869997D02*
X2629977Y2860000D01*
X2649971D01*
X2659968Y2869997D01*
Y2909984D01*
X2649971Y2919981D01*
X2629977D01*
X2619981Y2909984D01*
Y2899987D01*
X2629977Y2889990D01*
X2659968D01*
X1100000Y4459981D02*
Y4400000D01*
X1139987D01*
X1159981D02*
Y4459981D01*
X1179974Y4439987D01*
X1199968Y4459981D01*
Y4400000D01*
X1219961Y4429990D02*
X1259948D01*
X1279942Y4459981D02*
Y4400000D01*
Y4429990D01*
X1319929D01*
Y4459981D01*
Y4400000D01*
X1339922Y4459981D02*
X1379909D01*
X1359916D01*
Y4400000D01*
X1399903D02*
Y4459981D01*
X1429893D01*
X1439890Y4449984D01*
Y4429990D01*
X1429893Y4419993D01*
X1399903D01*
X1419897D02*
X1439890Y4400000D01*
X1459884Y4429990D02*
X1499871D01*
X1519864Y4449984D02*
X1529861Y4459981D01*
X1549854D01*
X1559851Y4449984D01*
Y4409997D01*
X1549854Y4400000D01*
X1529861D01*
X1519864Y4409997D01*
Y4449984D01*
X1579845D02*
X1589842Y4459981D01*
X1609835D01*
X1619832Y4449984D01*
Y4409997D01*
X1609835Y4400000D01*
X1589842D01*
X1579845Y4409997D01*
Y4449984D01*
X1639825Y4400000D02*
X1659819D01*
X1649822D01*
Y4459981D01*
X1639825Y4449984D01*
X1749790Y4459981D02*
X1789777D01*
X1769783D01*
Y4400000D01*
X1839761D02*
X1819767D01*
X1809770Y4409997D01*
Y4429990D01*
X1819767Y4439987D01*
X1839761D01*
X1849757Y4429990D01*
Y4419993D01*
X1809770D01*
X1869751Y4400000D02*
X1899741D01*
X1909738Y4409997D01*
X1899741Y4419993D01*
X1879748D01*
X1869751Y4429990D01*
X1879748Y4439987D01*
X1909738D01*
X1939728Y4449984D02*
Y4439987D01*
X1929732D01*
X1949725D01*
X1939728D01*
Y4409997D01*
X1949725Y4400000D01*
X2039696Y4459981D02*
Y4400000D01*
X2069686D01*
X2079683Y4409997D01*
Y4419993D01*
Y4429990D01*
X2069686Y4439987D01*
X2039696D01*
X2109673Y4400000D02*
X2129667D01*
X2139664Y4409997D01*
Y4429990D01*
X2129667Y4439987D01*
X2109673D01*
X2099677Y4429990D01*
Y4409997D01*
X2109673Y4400000D01*
X2169654Y4439987D02*
X2189648D01*
X2199644Y4429990D01*
Y4400000D01*
X2169654D01*
X2159657Y4409997D01*
X2169654Y4419993D01*
X2199644D01*
X2219638Y4439987D02*
Y4400000D01*
Y4419993D01*
X2229635Y4429990D01*
X2239631Y4439987D01*
X2249628D01*
X2319606Y4459981D02*
Y4400000D01*
X2289615D01*
X2279618Y4409997D01*
Y4429990D01*
X2289615Y4439987D01*
X2319606D01*
X125000Y4100000D02*
Y4159981D01*
X154990D01*
X164987Y4149984D01*
Y4129990D01*
X154990Y4119993D01*
X125000D01*
X224968Y4100000D02*
X184981D01*
X224968Y4139987D01*
Y4149984D01*
X214971Y4159981D01*
X194977D01*
X184981Y4149984D01*
X1700000Y3900000D02*
Y3959981D01*
X1729990D01*
X1739987Y3949984D01*
Y3929990D01*
X1729990Y3919994D01*
X1700000D01*
X1759981Y3900000D02*
X1779974D01*
X1769977D01*
Y3959981D01*
X1759981Y3949984D01*
%TF.MD5,1587633ab2caa10b0c133bc8412ee420*%
M02*
