G04 Layer_Color=0*
%FSLAX26Y26*%
%MOIN*%
%TF.FileFunction,Plated,1,2,PTH,Drill*%
%TF.Part,Single*%
G01*
G75*
%TA.AperFunction,ComponentDrill*%
%ADD23C,0.030000*%
%ADD24C,0.031496*%
%ADD25C,0.118110*%
%ADD26C,0.035433*%
%ADD27C,0.037402*%
%TA.AperFunction,ViaDrill,NotFilled*%
%ADD28C,0.028000*%
D23*
X400000Y2787500D02*
D03*
D24*
X2300000Y587500D02*
D03*
Y687500D02*
D03*
Y787500D02*
D03*
Y887500D02*
D03*
Y987500D02*
D03*
Y1087500D02*
D03*
Y1187500D02*
D03*
Y1287500D02*
D03*
Y1387500D02*
D03*
Y1487500D02*
D03*
Y1587500D02*
D03*
Y1687500D02*
D03*
Y1787500D02*
D03*
Y1887500D02*
D03*
Y1987500D02*
D03*
Y2087500D02*
D03*
Y2187500D02*
D03*
Y2287500D02*
D03*
Y2387500D02*
D03*
Y2487500D02*
D03*
Y2587500D02*
D03*
Y2687500D02*
D03*
X2400000Y587500D02*
D03*
Y687500D02*
D03*
Y787500D02*
D03*
Y887500D02*
D03*
Y987500D02*
D03*
Y1087500D02*
D03*
Y1187500D02*
D03*
Y1287500D02*
D03*
Y1387500D02*
D03*
Y1487500D02*
D03*
Y1587500D02*
D03*
Y1687500D02*
D03*
Y1787500D02*
D03*
Y1887500D02*
D03*
Y1987500D02*
D03*
Y2087500D02*
D03*
Y2187500D02*
D03*
Y2287500D02*
D03*
Y2387500D02*
D03*
Y2487500D02*
D03*
Y2587500D02*
D03*
Y2687500D02*
D03*
Y2787500D02*
D03*
X2300000D02*
D03*
X400000Y587500D02*
D03*
Y687500D02*
D03*
Y787500D02*
D03*
Y887500D02*
D03*
Y987500D02*
D03*
Y1087500D02*
D03*
Y1187500D02*
D03*
Y1287500D02*
D03*
Y1387500D02*
D03*
Y1487500D02*
D03*
Y1587500D02*
D03*
Y1687500D02*
D03*
Y1787500D02*
D03*
Y1887500D02*
D03*
Y1987500D02*
D03*
Y2087500D02*
D03*
Y2187500D02*
D03*
Y2287500D02*
D03*
Y2387500D02*
D03*
Y2487500D02*
D03*
Y2587500D02*
D03*
Y2687500D02*
D03*
X500000Y587500D02*
D03*
Y687500D02*
D03*
Y787500D02*
D03*
Y887500D02*
D03*
Y987500D02*
D03*
Y1087500D02*
D03*
Y1187500D02*
D03*
Y1287500D02*
D03*
Y1387500D02*
D03*
Y1487500D02*
D03*
Y1587500D02*
D03*
Y1687500D02*
D03*
Y1787500D02*
D03*
Y1887500D02*
D03*
Y1987500D02*
D03*
Y2087500D02*
D03*
Y2187500D02*
D03*
Y2287500D02*
D03*
Y2387500D02*
D03*
Y2487500D02*
D03*
Y2587500D02*
D03*
Y2687500D02*
D03*
Y2787500D02*
D03*
D25*
X575000Y412500D02*
D03*
X2225000D02*
D03*
X2350000Y2987500D02*
D03*
X450000D02*
D03*
D26*
X800000Y4000000D02*
D03*
X400000D02*
D03*
X500000D02*
D03*
X600000D02*
D03*
X700000D02*
D03*
D27*
X1300000Y4200000D02*
D03*
Y4100000D02*
D03*
X1400000D02*
D03*
X1500000D02*
D03*
X1600000D02*
D03*
X1700000D02*
D03*
X1800000D02*
D03*
X1900000D02*
D03*
X2000000D02*
D03*
X2100000D02*
D03*
X2200000D02*
D03*
X2300000D02*
D03*
X1400000Y4200000D02*
D03*
X1500000D02*
D03*
X1600000D02*
D03*
X1700000D02*
D03*
X1800000D02*
D03*
X1900000D02*
D03*
X2000000D02*
D03*
X2100000D02*
D03*
X2200000D02*
D03*
X2300000D02*
D03*
X1200000Y4100000D02*
D03*
Y4200000D02*
D03*
D28*
X2000000Y2240000D02*
D03*
%TF.MD5,c93cfa3c59aab2a44cedbe7b3d119ea1*%
M02*
