G04 Layer_Color=255*
%FSLAX26Y26*%
%MOIN*%
%TF.FileFunction,Pads,Bot*%
%TF.Part,Single*%
G01*
G75*
%TA.AperFunction,SMDPad,CuDef*%
%ADD12R,0.033465X0.051181*%
%ADD13R,0.051181X0.033465*%
%ADD16R,0.057087X0.045276*%
%ADD17R,0.045276X0.057087*%
%TA.AperFunction,ComponentPad*%
%ADD21C,0.059055*%
%ADD22C,0.070866*%
%ADD23R,0.060000X0.060000*%
%ADD24C,0.051181*%
%ADD25C,0.039370*%
%ADD26O,0.047244X0.098425*%
%ADD27R,0.047244X0.098425*%
%TA.AperFunction,SMDPad,CuDef*%
%ADD42R,0.118110X0.062992*%
%ADD43R,0.244095X0.228346*%
G04:AMPARAMS|DCode=44|XSize=25.591mil|YSize=64.961mil|CornerRadius=1.919mil|HoleSize=0mil|Usage=FLASHONLY|Rotation=180.000|XOffset=0mil|YOffset=0mil|HoleType=Round|Shape=RoundedRectangle|*
%AMROUNDEDRECTD44*
21,1,0.025591,0.061122,0,0,180.0*
21,1,0.021752,0.064961,0,0,180.0*
1,1,0.003839,-0.010876,0.030561*
1,1,0.003839,0.010876,0.030561*
1,1,0.003839,0.010876,-0.030561*
1,1,0.003839,-0.010876,-0.030561*
%
%ADD44ROUNDEDRECTD44*%
%ADD45R,0.041339X0.055118*%
D12*
X733466Y400000D02*
D03*
X666536D02*
D03*
X546536D02*
D03*
X613464D02*
D03*
X743466Y1730000D02*
D03*
X676536D02*
D03*
X1180040Y483402D02*
D03*
X1246968D02*
D03*
X1162040Y1820402D02*
D03*
X1228968D02*
D03*
X1003464Y140000D02*
D03*
X936536D02*
D03*
X1013464Y1500000D02*
D03*
X946536D02*
D03*
X613464Y1730000D02*
D03*
X546536D02*
D03*
D13*
X2025000Y1181535D02*
D03*
Y1248465D02*
D03*
Y2606535D02*
D03*
Y2673465D02*
D03*
X1900002Y626536D02*
D03*
Y693466D02*
D03*
X1910000Y2263466D02*
D03*
Y2196536D02*
D03*
X1369504Y1886936D02*
D03*
Y1953866D02*
D03*
X1370000Y2006536D02*
D03*
Y2073466D02*
D03*
X1390000Y656536D02*
D03*
Y723466D02*
D03*
X1389504Y539936D02*
D03*
Y606866D02*
D03*
X1438504Y1056938D02*
D03*
Y1123868D02*
D03*
X2040000Y223464D02*
D03*
Y156536D02*
D03*
X2020000Y1603466D02*
D03*
Y1536536D02*
D03*
X1910000Y2143464D02*
D03*
Y2076536D02*
D03*
X1900000Y766536D02*
D03*
Y833466D02*
D03*
X1440000Y2426536D02*
D03*
Y2493464D02*
D03*
D16*
X1385000Y5014568D02*
D03*
Y5085434D02*
D03*
X980000Y1864568D02*
D03*
Y1935434D02*
D03*
X1010000Y524568D02*
D03*
Y595434D02*
D03*
X1139820Y5019814D02*
D03*
Y5090680D02*
D03*
D17*
X1334938Y1728402D02*
D03*
X1264070D02*
D03*
X554584Y2503250D02*
D03*
X625450D02*
D03*
X554568Y1130000D02*
D03*
X625434D02*
D03*
X1310434Y375000D02*
D03*
X1239568D02*
D03*
X1315434Y1140000D02*
D03*
X1244568D02*
D03*
X1325434Y2490000D02*
D03*
X1254568D02*
D03*
X575434Y6230000D02*
D03*
X504568D02*
D03*
X575434Y5840000D02*
D03*
X504568D02*
D03*
X555434Y5450000D02*
D03*
X484568D02*
D03*
X565434Y5050000D02*
D03*
X494568D02*
D03*
X555434Y4430000D02*
D03*
X484568D02*
D03*
X555434Y4640000D02*
D03*
X484568D02*
D03*
X555434Y4040000D02*
D03*
X484568D02*
D03*
X555434Y3650000D02*
D03*
X484568D02*
D03*
D21*
X218000Y2391000D02*
D03*
X215000Y2096000D02*
D03*
X1340000Y80000D02*
D03*
X1445000Y2875000D02*
D03*
X1290000Y1430000D02*
D03*
X230000Y745000D02*
D03*
X225000Y1045000D02*
D03*
X1495000Y1430000D02*
D03*
D22*
X1914504Y6701402D02*
D03*
Y6801402D02*
D03*
X814504Y6701402D02*
D03*
X914504D02*
D03*
X1014504D02*
D03*
X1114504D02*
D03*
X1214504D02*
D03*
X1314504D02*
D03*
X1414504D02*
D03*
X1514504D02*
D03*
X1614504D02*
D03*
X1714504D02*
D03*
X814504Y6801402D02*
D03*
X914504D02*
D03*
X1014504D02*
D03*
X1114504D02*
D03*
X1214504D02*
D03*
X1314504D02*
D03*
X1414504D02*
D03*
X1514504D02*
D03*
X1614504D02*
D03*
X1714504D02*
D03*
X1814504D02*
D03*
Y6701402D02*
D03*
X2370018Y3740444D02*
D03*
Y3840444D02*
D03*
X259782Y4337568D02*
D03*
Y4437568D02*
D03*
Y4537568D02*
D03*
Y4637568D02*
D03*
X2375924Y4543868D02*
D03*
Y4643868D02*
D03*
Y4957254D02*
D03*
Y5057254D02*
D03*
X2370018Y4138358D02*
D03*
Y4238358D02*
D03*
Y5743250D02*
D03*
Y5843250D02*
D03*
X259782Y3551742D02*
D03*
Y3651742D02*
D03*
X2370018Y5345706D02*
D03*
Y5445706D02*
D03*
X259782Y3941506D02*
D03*
Y4041506D02*
D03*
Y5740062D02*
D03*
Y5840062D02*
D03*
Y5345706D02*
D03*
Y5445706D02*
D03*
Y4951348D02*
D03*
Y5051348D02*
D03*
Y6134418D02*
D03*
Y6234418D02*
D03*
D23*
X220412Y6700168D02*
D03*
X320412D02*
D03*
X420412D02*
D03*
Y6800168D02*
D03*
X320412D02*
D03*
X220412D02*
D03*
D24*
X2221504Y2743402D02*
D03*
Y2543402D02*
D03*
X2321504Y2643402D02*
D03*
X2248504Y1321250D02*
D03*
Y1121250D02*
D03*
X2348504Y1221250D02*
D03*
X2240504Y2267402D02*
D03*
Y2067402D02*
D03*
X2340504Y2167402D02*
D03*
X2267504Y823390D02*
D03*
Y623390D02*
D03*
X2367504Y723390D02*
D03*
X2240504Y1757402D02*
D03*
Y1557402D02*
D03*
X2340504Y1657402D02*
D03*
X2267504Y307402D02*
D03*
Y107402D02*
D03*
X2367504Y207402D02*
D03*
D25*
X209504Y359402D02*
D03*
Y259402D02*
D03*
X225504Y1724402D02*
D03*
Y1624402D02*
D03*
D26*
X1838324Y1260208D02*
D03*
X1738324D02*
D03*
X1638324D02*
D03*
X1538324D02*
D03*
X1438324D02*
D03*
X1338324D02*
D03*
X1238324D02*
D03*
X1138324D02*
D03*
X1038324D02*
D03*
X938324D02*
D03*
X838324D02*
D03*
X738324D02*
D03*
X638324D02*
D03*
X538324D02*
D03*
X1838324Y260208D02*
D03*
X1738324D02*
D03*
X1638324D02*
D03*
X1538324D02*
D03*
X1438324D02*
D03*
X1338324D02*
D03*
X1238324D02*
D03*
X1138324D02*
D03*
X1038324D02*
D03*
X938324D02*
D03*
X838324D02*
D03*
X738324D02*
D03*
X638324D02*
D03*
X643246Y1613554D02*
D03*
X743246D02*
D03*
X843246D02*
D03*
X943246D02*
D03*
X1043246D02*
D03*
X1143246D02*
D03*
X1243246D02*
D03*
X1343246D02*
D03*
X1443246D02*
D03*
X1543246D02*
D03*
X1643246D02*
D03*
X1743246D02*
D03*
X1843246D02*
D03*
X543246Y2613554D02*
D03*
X643246D02*
D03*
X743246D02*
D03*
X843246D02*
D03*
X943246D02*
D03*
X1043246D02*
D03*
X1143246D02*
D03*
X1243246D02*
D03*
X1343246D02*
D03*
X1443246D02*
D03*
X1543246D02*
D03*
X1643246D02*
D03*
X1743246D02*
D03*
X1843246D02*
D03*
D27*
X538324Y260208D02*
D03*
X543246Y1613554D02*
D03*
D42*
X1681042Y4106350D02*
D03*
Y4286664D02*
D03*
Y3708436D02*
D03*
Y3888752D02*
D03*
X1681040Y5711244D02*
D03*
Y5891558D02*
D03*
Y5316884D02*
D03*
Y5497200D02*
D03*
Y4508750D02*
D03*
Y4689066D02*
D03*
Y4922528D02*
D03*
Y5102844D02*
D03*
D43*
X1964506Y4196508D02*
D03*
Y3798594D02*
D03*
X1964504Y5801402D02*
D03*
Y5407042D02*
D03*
Y4598908D02*
D03*
Y5012686D02*
D03*
D44*
X1122504Y2159624D02*
D03*
X1172504D02*
D03*
X1222504D02*
D03*
X1272504D02*
D03*
X1122504Y1937182D02*
D03*
X1172504D02*
D03*
X1222504D02*
D03*
X1272504D02*
D03*
X1145018Y814472D02*
D03*
X1195018D02*
D03*
X1245018D02*
D03*
X1295018D02*
D03*
X1145018Y592030D02*
D03*
X1195018D02*
D03*
X1245018D02*
D03*
X1295018D02*
D03*
D45*
X177402Y6230000D02*
D03*
X102598D02*
D03*
X352598D02*
D03*
X427402D02*
D03*
X102598Y5840000D02*
D03*
X177402D02*
D03*
X352598D02*
D03*
X427402D02*
D03*
X342598Y5450000D02*
D03*
X417402D02*
D03*
X112598Y5440000D02*
D03*
X187402D02*
D03*
X102598Y5050002D02*
D03*
X177402D02*
D03*
X342598Y5050000D02*
D03*
X417402D02*
D03*
X112598Y4640002D02*
D03*
X187402D02*
D03*
X112598Y4430002D02*
D03*
X187402D02*
D03*
X332598Y4430000D02*
D03*
X407402D02*
D03*
X332598Y4640000D02*
D03*
X407402D02*
D03*
X112598Y4040002D02*
D03*
X187402D02*
D03*
X332598Y4040000D02*
D03*
X407402D02*
D03*
X112598Y3650000D02*
D03*
X187402D02*
D03*
X332598D02*
D03*
X407402D02*
D03*
%TF.MD5,ca9ff9381cd6025e24ad76c81ec39047*%
M02*
