G04 Layer_Color=128*
%FSLAX26Y26*%
%MOIN*%
%TF.FileFunction,Drillmap*%
%TF.Part,Single*%
G01*
G75*
%TA.AperFunction,NonConductor*%
%ADD70C,0.005000*%
D70*
X198315Y2391000D02*
X237685D01*
X218000Y2371315D02*
Y2410685D01*
X195315Y2096000D02*
X234685D01*
X215000Y2076315D02*
Y2115685D01*
X1320315Y80000D02*
X1359685D01*
X1340000Y60315D02*
Y99685D01*
X1895803Y6701402D02*
X1933205D01*
X1914504Y6682701D02*
Y6720102D01*
X1895803Y6801402D02*
X1933205D01*
X1914504Y6782701D02*
Y6820102D01*
X795803Y6701402D02*
X833205D01*
X814504Y6682701D02*
Y6720102D01*
X895803Y6701402D02*
X933205D01*
X914504Y6682701D02*
Y6720102D01*
X995803Y6701402D02*
X1033205D01*
X1014504Y6682701D02*
Y6720102D01*
X1095803Y6701402D02*
X1133205D01*
X1114504Y6682701D02*
Y6720102D01*
X1195803Y6701402D02*
X1233205D01*
X1214504Y6682701D02*
Y6720102D01*
X1295803Y6701402D02*
X1333205D01*
X1314504Y6682701D02*
Y6720102D01*
X1395803Y6701402D02*
X1433205D01*
X1414504Y6682701D02*
Y6720102D01*
X1495803Y6701402D02*
X1533205D01*
X1514504Y6682701D02*
Y6720102D01*
X1595803Y6701402D02*
X1633205D01*
X1614504Y6682701D02*
Y6720102D01*
X1695803Y6701402D02*
X1733205D01*
X1714504Y6682701D02*
Y6720102D01*
X795803Y6801402D02*
X833205D01*
X814504Y6782701D02*
Y6820102D01*
X895803Y6801402D02*
X933205D01*
X914504Y6782701D02*
Y6820102D01*
X995803Y6801402D02*
X1033205D01*
X1014504Y6782701D02*
Y6820102D01*
X1095803Y6801402D02*
X1133205D01*
X1114504Y6782701D02*
Y6820102D01*
X1195803Y6801402D02*
X1233205D01*
X1214504Y6782701D02*
Y6820102D01*
X1295803Y6801402D02*
X1333205D01*
X1314504Y6782701D02*
Y6820102D01*
X1395803Y6801402D02*
X1433205D01*
X1414504Y6782701D02*
Y6820102D01*
X1495803Y6801402D02*
X1533205D01*
X1514504Y6782701D02*
Y6820102D01*
X1595803Y6801402D02*
X1633205D01*
X1614504Y6782701D02*
Y6820102D01*
X1695803Y6801402D02*
X1733205D01*
X1714504Y6782701D02*
Y6820102D01*
X1795803Y6801402D02*
X1833205D01*
X1814504Y6782701D02*
Y6820102D01*
X1795803Y6701402D02*
X1833205D01*
X1814504Y6682701D02*
Y6720102D01*
X1425315Y2875000D02*
X1464685D01*
X1445000Y2855315D02*
Y2894685D01*
X1270315Y1430000D02*
X1309685D01*
X1290000Y1410315D02*
Y1449685D01*
X210315Y745000D02*
X249685D01*
X230000Y725315D02*
Y764685D01*
X205315Y1045000D02*
X244685D01*
X225000Y1025315D02*
Y1064685D01*
X1475315Y1430000D02*
X1514685D01*
X1495000Y1410315D02*
Y1449685D01*
X2351317Y3740444D02*
X2388719D01*
X2370018Y3721743D02*
Y3759144D01*
X2351317Y3840444D02*
X2388719D01*
X2370018Y3821743D02*
Y3859144D01*
X202695Y6700168D02*
X238128D01*
X220412Y6682451D02*
Y6717884D01*
X302695Y6700168D02*
X338128D01*
X320412Y6682451D02*
Y6717884D01*
X402695Y6700168D02*
X438128D01*
X420412Y6682451D02*
Y6717884D01*
X402695Y6800168D02*
X438128D01*
X420412Y6782451D02*
Y6817884D01*
X302695Y6800168D02*
X338128D01*
X320412Y6782451D02*
Y6817884D01*
X202695Y6800168D02*
X238128D01*
X220412Y6782451D02*
Y6817884D01*
X241081Y4337568D02*
X278483D01*
X259782Y4318867D02*
Y4356268D01*
X241081Y4437568D02*
X278483D01*
X259782Y4418867D02*
Y4456268D01*
X241081Y4537568D02*
X278483D01*
X259782Y4518867D02*
Y4556268D01*
X241081Y4637568D02*
X278483D01*
X259782Y4618867D02*
Y4656268D01*
X2357223Y4543868D02*
X2394625D01*
X2375924Y4525167D02*
Y4562568D01*
X2357223Y4643868D02*
X2394625D01*
X2375924Y4625167D02*
Y4662568D01*
X2357223Y4957254D02*
X2394625D01*
X2375924Y4938553D02*
Y4975954D01*
X2357223Y5057254D02*
X2394625D01*
X2375924Y5038553D02*
Y5075954D01*
X2351317Y4138358D02*
X2388719D01*
X2370018Y4119657D02*
Y4157058D01*
X2351317Y4238358D02*
X2388719D01*
X2370018Y4219657D02*
Y4257058D01*
X2351317Y5743250D02*
X2388719D01*
X2370018Y5724549D02*
Y5761950D01*
X2351317Y5843250D02*
X2388719D01*
X2370018Y5824549D02*
Y5861950D01*
X241081Y3551742D02*
X278483D01*
X259782Y3533041D02*
Y3570442D01*
X241081Y3651742D02*
X278483D01*
X259782Y3633041D02*
Y3670442D01*
X2351317Y5345706D02*
X2388719D01*
X2370018Y5327005D02*
Y5364406D01*
X2351317Y5445706D02*
X2388719D01*
X2370018Y5427005D02*
Y5464406D01*
X241081Y3941506D02*
X278483D01*
X259782Y3922805D02*
Y3960206D01*
X241081Y4041506D02*
X278483D01*
X259782Y4022805D02*
Y4060206D01*
X241081Y5740062D02*
X278483D01*
X259782Y5721361D02*
Y5758762D01*
X241081Y5840062D02*
X278483D01*
X259782Y5821361D02*
Y5858762D01*
X241081Y5345706D02*
X278483D01*
X259782Y5327005D02*
Y5364406D01*
X241081Y5445706D02*
X278483D01*
X259782Y5427005D02*
Y5464406D01*
X241081Y4951348D02*
X278483D01*
X259782Y4932647D02*
Y4970048D01*
X241081Y5051348D02*
X278483D01*
X259782Y5032647D02*
Y5070048D01*
X2205756Y2743402D02*
X2237252D01*
X2221504Y2727654D02*
Y2759150D01*
X2205756Y2543402D02*
X2237252D01*
X2221504Y2527654D02*
Y2559150D01*
X2305756Y2643402D02*
X2337252D01*
X2321504Y2627654D02*
Y2659150D01*
X2232756Y1321250D02*
X2264252D01*
X2248504Y1305502D02*
Y1336998D01*
X2232756Y1121250D02*
X2264252D01*
X2248504Y1105502D02*
Y1136998D01*
X2332756Y1221250D02*
X2364252D01*
X2348504Y1205502D02*
Y1236998D01*
X2224756Y2267402D02*
X2256252D01*
X2240504Y2251654D02*
Y2283150D01*
X2224756Y2067402D02*
X2256252D01*
X2240504Y2051654D02*
Y2083150D01*
X2324756Y2167402D02*
X2356252D01*
X2340504Y2151654D02*
Y2183150D01*
X2251756Y823390D02*
X2283252D01*
X2267504Y807642D02*
Y839138D01*
X2251756Y623390D02*
X2283252D01*
X2267504Y607642D02*
Y639138D01*
X2351756Y723390D02*
X2383252D01*
X2367504Y707642D02*
Y739138D01*
X198677Y359402D02*
X220331D01*
X209504Y348575D02*
Y370228D01*
X198677Y259402D02*
X220331D01*
X209504Y248575D02*
Y270228D01*
X214677Y1724402D02*
X236331D01*
X225504Y1713575D02*
Y1735228D01*
X214677Y1624402D02*
X236331D01*
X225504Y1613575D02*
Y1635228D01*
X2224756Y1757402D02*
X2256252D01*
X2240504Y1741654D02*
Y1773150D01*
X2224756Y1557402D02*
X2256252D01*
X2240504Y1541654D02*
Y1573150D01*
X2324756Y1657402D02*
X2356252D01*
X2340504Y1641654D02*
Y1673150D01*
X2251756Y307402D02*
X2283252D01*
X2267504Y291654D02*
Y323150D01*
X2251756Y107402D02*
X2283252D01*
X2267504Y91654D02*
Y123150D01*
X2351756Y207402D02*
X2383252D01*
X2367504Y191654D02*
Y223150D01*
X241081Y6134418D02*
X278483D01*
X259782Y6115717D02*
Y6153118D01*
X241081Y6234418D02*
X278483D01*
X259782Y6215717D02*
Y6253118D01*
X1818324Y1260208D02*
X1858324D01*
X1838324Y1240208D02*
Y1280208D01*
X1718324Y1260208D02*
X1758324D01*
X1738324Y1240208D02*
Y1280208D01*
X1618324Y1260208D02*
X1658324D01*
X1638324Y1240208D02*
Y1280208D01*
X1518324Y1260208D02*
X1558324D01*
X1538324Y1240208D02*
Y1280208D01*
X1418324Y1260208D02*
X1458324D01*
X1438324Y1240208D02*
Y1280208D01*
X1318324Y1260208D02*
X1358324D01*
X1338324Y1240208D02*
Y1280208D01*
X1218324Y1260208D02*
X1258324D01*
X1238324Y1240208D02*
Y1280208D01*
X1118324Y1260208D02*
X1158324D01*
X1138324Y1240208D02*
Y1280208D01*
X1018324Y1260208D02*
X1058324D01*
X1038324Y1240208D02*
Y1280208D01*
X918324Y1260208D02*
X958324D01*
X938324Y1240208D02*
Y1280208D01*
X818324Y1260208D02*
X858324D01*
X838324Y1240208D02*
Y1280208D01*
X718324Y1260208D02*
X758324D01*
X738324Y1240208D02*
Y1280208D01*
X618324Y1260208D02*
X658324D01*
X638324Y1240208D02*
Y1280208D01*
X518324Y1260208D02*
X558324D01*
X538324Y1240208D02*
Y1280208D01*
X1818324Y260208D02*
X1858324D01*
X1838324Y240208D02*
Y280208D01*
X1718324Y260208D02*
X1758324D01*
X1738324Y240208D02*
Y280208D01*
X1618324Y260208D02*
X1658324D01*
X1638324Y240208D02*
Y280208D01*
X1518324Y260208D02*
X1558324D01*
X1538324Y240208D02*
Y280208D01*
X1418324Y260208D02*
X1458324D01*
X1438324Y240208D02*
Y280208D01*
X1318324Y260208D02*
X1358324D01*
X1338324Y240208D02*
Y280208D01*
X1218324Y260208D02*
X1258324D01*
X1238324Y240208D02*
Y280208D01*
X1118324Y260208D02*
X1158324D01*
X1138324Y240208D02*
Y280208D01*
X1018324Y260208D02*
X1058324D01*
X1038324Y240208D02*
Y280208D01*
X918324Y260208D02*
X958324D01*
X938324Y240208D02*
Y280208D01*
X818324Y260208D02*
X858324D01*
X838324Y240208D02*
Y280208D01*
X718324Y260208D02*
X758324D01*
X738324Y240208D02*
Y280208D01*
X618324Y260208D02*
X658324D01*
X638324Y240208D02*
Y280208D01*
X518324Y260208D02*
X558324D01*
X538324Y240208D02*
Y280208D01*
X523246Y1613554D02*
X563246D01*
X543246Y1593554D02*
Y1633554D01*
X623246Y1613554D02*
X663246D01*
X643246Y1593554D02*
Y1633554D01*
X723246Y1613554D02*
X763246D01*
X743246Y1593554D02*
Y1633554D01*
X823246Y1613554D02*
X863246D01*
X843246Y1593554D02*
Y1633554D01*
X923246Y1613554D02*
X963246D01*
X943246Y1593554D02*
Y1633554D01*
X1023246Y1613554D02*
X1063246D01*
X1043246Y1593554D02*
Y1633554D01*
X1123246Y1613554D02*
X1163246D01*
X1143246Y1593554D02*
Y1633554D01*
X1223246Y1613554D02*
X1263246D01*
X1243246Y1593554D02*
Y1633554D01*
X1323246Y1613554D02*
X1363246D01*
X1343246Y1593554D02*
Y1633554D01*
X1423246Y1613554D02*
X1463246D01*
X1443246Y1593554D02*
Y1633554D01*
X1523246Y1613554D02*
X1563246D01*
X1543246Y1593554D02*
Y1633554D01*
X1623246Y1613554D02*
X1663246D01*
X1643246Y1593554D02*
Y1633554D01*
X1723246Y1613554D02*
X1763246D01*
X1743246Y1593554D02*
Y1633554D01*
X1823246Y1613554D02*
X1863246D01*
X1843246Y1593554D02*
Y1633554D01*
X523246Y2613554D02*
X563246D01*
X543246Y2593554D02*
Y2633554D01*
X623246Y2613554D02*
X663246D01*
X643246Y2593554D02*
Y2633554D01*
X723246Y2613554D02*
X763246D01*
X743246Y2593554D02*
Y2633554D01*
X823246Y2613554D02*
X863246D01*
X843246Y2593554D02*
Y2633554D01*
X923246Y2613554D02*
X963246D01*
X943246Y2593554D02*
Y2633554D01*
X1023246Y2613554D02*
X1063246D01*
X1043246Y2593554D02*
Y2633554D01*
X1123246Y2613554D02*
X1163246D01*
X1143246Y2593554D02*
Y2633554D01*
X1223246Y2613554D02*
X1263246D01*
X1243246Y2593554D02*
Y2633554D01*
X1323246Y2613554D02*
X1363246D01*
X1343246Y2593554D02*
Y2633554D01*
X1423246Y2613554D02*
X1463246D01*
X1443246Y2593554D02*
Y2633554D01*
X1523246Y2613554D02*
X1563246D01*
X1543246Y2593554D02*
Y2633554D01*
X1623246Y2613554D02*
X1663246D01*
X1643246Y2593554D02*
Y2633554D01*
X1723246Y2613554D02*
X1763246D01*
X1743246Y2593554D02*
Y2633554D01*
X1823246Y2613554D02*
X1863246D01*
X1843246Y2593554D02*
Y2633554D01*
X1356000Y1830000D02*
X1384000D01*
X1370000Y1816000D02*
Y1844000D01*
X36000Y4430000D02*
X64000D01*
X50000Y4416000D02*
Y4444000D01*
X1131277Y5107726D02*
X1150962D01*
X1141120Y5097883D02*
Y5117568D01*
X1710348Y4105680D02*
X1738348D01*
X1724348Y4091680D02*
Y4119680D01*
X1710348Y4511190D02*
X1738348D01*
X1724348Y4497190D02*
Y4525190D01*
X1710348Y4924576D02*
X1738348D01*
X1724348Y4910576D02*
Y4938576D01*
X1070175Y5223250D02*
X1089860D01*
X1080018Y5213407D02*
Y5233092D01*
X1710504Y3711402D02*
X1738504D01*
X1724504Y3697402D02*
Y3725402D01*
X1470504Y3711402D02*
X1498504D01*
X1484504Y3697402D02*
Y3725402D01*
X1500504Y4111402D02*
X1528504D01*
X1514504Y4097402D02*
Y4125402D01*
X1051504Y1936402D02*
X1079504D01*
X1065504Y1922402D02*
Y1950402D01*
X1071504Y597402D02*
X1099504D01*
X1085504Y583402D02*
Y611402D01*
X1284661Y5177402D02*
X1304346D01*
X1294504Y5167559D02*
Y5187244D01*
X1229661Y5196402D02*
X1249346D01*
X1239504Y5186559D02*
Y5206244D01*
X1153661Y5678402D02*
X1173346D01*
X1163504Y5668559D02*
Y5688244D01*
X1016661Y5707402D02*
X1036346D01*
X1026504Y5697559D02*
Y5717244D01*
X1090661Y5774402D02*
X1110346D01*
X1100504Y5764559D02*
Y5784244D01*
X36000Y4040000D02*
X64000D01*
X50000Y4026000D02*
Y4054000D01*
X36000Y5840000D02*
X64000D01*
X50000Y5826000D02*
Y5854000D01*
X1307238Y5310668D02*
X1335238D01*
X1321238Y5296668D02*
Y5324668D01*
X36000Y4640000D02*
X64000D01*
X50000Y4626000D02*
Y4654000D01*
X676000Y5900002D02*
X704000D01*
X690000Y5886002D02*
Y5914002D01*
X486000Y6160000D02*
X514000D01*
X500000Y6146000D02*
Y6174000D01*
X36000Y5440000D02*
X64000D01*
X50000Y5426000D02*
Y5454000D01*
X466000Y5380000D02*
X494000D01*
X480000Y5366000D02*
Y5394000D01*
X496000Y5770000D02*
X524000D01*
X510000Y5756000D02*
Y5784000D01*
X36000Y5050000D02*
X64000D01*
X50000Y5036000D02*
Y5064000D01*
X476000Y4980000D02*
X504000D01*
X490000Y4966000D02*
Y4994000D01*
X466000Y4360000D02*
X494000D01*
X480000Y4346000D02*
Y4374000D01*
X466000Y4570000D02*
X494000D01*
X480000Y4556000D02*
Y4584000D01*
X466000Y3970000D02*
X494000D01*
X480000Y3956000D02*
Y3984000D01*
X466000Y3570000D02*
X494000D01*
X480000Y3556000D02*
Y3584000D01*
X1106000Y2240000D02*
X1134000D01*
X1120000Y2226000D02*
Y2254000D01*
X943504Y5681402D02*
X971504D01*
X957504Y5667402D02*
Y5695402D01*
X1286504Y5089402D02*
X1314504D01*
X1300504Y5075402D02*
Y5103402D01*
X36000Y3650000D02*
X64000D01*
X50000Y3636000D02*
Y3664000D01*
X36000Y6230000D02*
X64000D01*
X50000Y6216000D02*
Y6244000D01*
X1710348Y5314340D02*
X1738348D01*
X1724348Y5300340D02*
Y5328340D01*
X1710348Y5715916D02*
X1738348D01*
X1724348Y5701916D02*
Y5729916D01*
X952000Y2091000D02*
X980000D01*
X966000Y2077000D02*
Y2105000D01*
X1136000Y905000D02*
X1164000D01*
X1150000Y891000D02*
Y919000D01*
X1191000Y4715000D02*
X1219000D01*
X1205000Y4701000D02*
Y4729000D01*
%TF.MD5,d60bace8a0204eff7b4e8f3cdfa8a1f2*%
M02*
