G04 Layer_Physical_Order=4*
G04 Layer_Color=36540*
%FSLAX26Y26*%
%MOIN*%
%TF.FileFunction,Copper,L4,Inr,Signal*%
%TF.Part,Single*%
G01*
G75*
%TA.AperFunction,Conductor*%
%ADD27C,0.010000*%
%ADD28C,0.008000*%
%TA.AperFunction,ComponentPad*%
%ADD30C,0.082677*%
%ADD31R,0.060000X0.060000*%
%ADD32C,0.078740*%
%ADD33C,0.059055*%
%ADD34R,0.059055X0.059055*%
%ADD35R,0.059055X0.059055*%
%TA.AperFunction,ViaPad*%
%ADD36C,0.105000*%
%ADD37C,0.120000*%
%ADD38C,0.196850*%
%TA.AperFunction,ComponentPad*%
%ADD39C,0.074803*%
%ADD40R,0.062992X0.062992*%
%ADD41C,0.062992*%
%TA.AperFunction,ViaPad*%
%ADD42C,0.060000*%
%TA.AperFunction,ComponentPad*%
%ADD43C,0.047244*%
%ADD44C,0.118110*%
%ADD45C,0.060000*%
%ADD46C,0.120000*%
%ADD47C,0.102000*%
%ADD48C,0.040000*%
%ADD49C,0.078740*%
%ADD50C,0.067000*%
%ADD51C,0.117000*%
%ADD52C,0.037000*%
%ADD53R,0.037000X0.037000*%
%TA.AperFunction,ViaPad*%
%ADD54C,0.050000*%
%ADD55C,0.027559*%
D27*
X949115Y1272000D02*
X949115Y1527000D01*
X437370Y2038745D02*
X949115Y1527000D01*
X437370Y2038745D02*
X437370Y3400000D01*
X949115Y1272000D02*
X999115Y1222000D01*
X2864115Y1222000D01*
X2909116Y1024236D02*
X2909116Y1176999D01*
X2864115Y1222000D02*
X2909116Y1176999D01*
X2989115Y3717000D02*
X3299115Y3717000D01*
X3299115Y887000D02*
X3299115Y3717000D01*
X3229115Y817000D02*
X3299115Y887000D01*
X2859116Y856999D02*
X2859116Y1137000D01*
X2859116Y856999D02*
X2899115Y817000D01*
X3229115Y817000D01*
X2899115Y3807000D02*
X2989115Y3717000D01*
X2799115Y3807000D02*
X2899115Y3807000D01*
X2777512Y3828603D02*
X2799115Y3807000D01*
X2777512Y3828603D02*
X2777512Y3891732D01*
X2067000Y2043000D02*
X2124528Y2100528D01*
X2945958Y2100528D01*
X1275148Y2388000D02*
X1281000Y2388000D01*
X1323000Y2346000D01*
X1211940Y2722000D02*
X1711940Y3222000D01*
X1174116Y2722000D02*
X1211940Y2722000D01*
X1082028Y8408720D02*
X1139748Y8351000D01*
X1605000Y8351000D01*
X1625000Y8331000D01*
X2558370Y8331000D01*
X2574370Y8315000D01*
X954700Y8090700D02*
X954700Y8416410D01*
X834700Y8040700D02*
X834700Y8406410D01*
X1711940Y3222000D02*
X2485290Y3222000D01*
X2609700Y3346410D01*
X980000Y2532000D02*
X1060000Y2612000D01*
X1124000Y2612000D01*
X1146000Y2634000D01*
X1146000Y2820000D01*
X1472410Y3146410D01*
X1559700Y3146410D01*
X2706118Y1771000D02*
X2947078Y1530040D01*
X2227000Y1985000D02*
X2326000Y1985000D01*
X2202000Y1960000D02*
X2227000Y1985000D01*
X2202000Y1879000D02*
X2202000Y1960000D01*
X2202000Y1879000D02*
X2261000Y1820000D01*
X2717000Y1820000D01*
X1981000Y1751000D02*
X2003000Y1751000D01*
X2045000Y1793000D01*
X2705332Y1793000D01*
X2965000Y1533332D01*
X2279700Y3416410D02*
X2359700Y3496410D01*
X1274046Y3416410D02*
X2279700Y3416410D01*
X2429700Y3296410D02*
X2504582Y3371294D01*
X1249700Y3296410D02*
X2429700Y3296410D01*
X1005370Y3052080D02*
X1249700Y3296410D01*
X1063456Y3627000D02*
X1274046Y3416410D01*
X2359700Y3611370D02*
X2386472Y3638142D01*
X2359700Y3496410D02*
X2359700Y3611370D01*
X2504582Y3371294D02*
X2504582Y3598772D01*
X2285386Y4187008D02*
X2285386Y4206386D01*
X2414410Y4376410D02*
X2439700Y4401700D01*
X2119700Y4376410D02*
X2414410Y4376410D01*
X1661370Y4845000D02*
X1661370Y4864740D01*
X1265110Y5261000D02*
X1661370Y4864740D01*
X331370Y5261000D02*
X1265110Y5261000D01*
X1534110Y5062000D02*
X2518000Y5062000D01*
X1139000Y5457110D02*
X1534110Y5062000D01*
X1139000Y5457110D02*
X1139000Y5574000D01*
X1005370Y2771356D02*
X1005370Y3052080D01*
X1188802Y2312000D02*
X1290000Y2312000D01*
X1187162Y2310360D02*
X1188802Y2312000D01*
X1166640Y2310360D02*
X1187162Y2310360D01*
X1327064Y2593930D02*
X1582064Y2593930D01*
X1255134Y2522000D02*
X1327064Y2593930D01*
X1083000Y2522000D02*
X1255134Y2522000D01*
X1647064Y2658930D02*
X2826930Y2658930D01*
X1582064Y2593930D02*
X1647064Y2658930D01*
X2826930Y2658930D02*
X2880000Y2712000D01*
X2386472Y3638142D02*
X2715858Y3638142D01*
X2875000Y3479000D01*
X19370Y4334000D02*
X82370Y4271000D01*
X186370Y4271000D01*
X428602Y4268602D02*
X527000Y4367000D01*
X428602Y4263000D02*
X428602Y4268602D01*
X2367370Y1553000D02*
X2389370Y1575000D01*
X2389370Y1628000D01*
X1183370Y4936000D02*
X1207370Y4936000D01*
X1161370Y4914000D02*
X1183370Y4936000D01*
X951370Y4914000D02*
X1161370Y4914000D01*
X807370Y5058000D02*
X951370Y4914000D01*
X392370Y5058000D02*
X807370Y5058000D01*
X55976Y6324606D02*
X104680Y6324606D01*
X40370Y6309000D02*
X55976Y6324606D01*
X40370Y5980000D02*
X40370Y6309000D01*
X1220370Y4731000D02*
X1220370Y4796000D01*
X1135370Y4881000D02*
X1220370Y4796000D01*
X507370Y4881000D02*
X1135370Y4881000D01*
X477370Y4851000D02*
X507370Y4881000D01*
X1946370Y5017000D02*
X1950370Y5021000D01*
X1820370Y4576000D02*
X1946370Y4702000D01*
X246370Y4576000D02*
X1820370Y4576000D01*
X246370Y4087000D02*
X246370Y4576000D01*
X129370Y3970000D02*
X246370Y4087000D01*
X313370Y5469054D02*
X313370Y5589000D01*
X313370Y5469054D02*
X494424Y5288000D01*
X558424Y5288000D01*
X514000Y5321008D02*
X514000Y5378000D01*
X959000Y5823000D01*
X959000Y6215196D01*
X996804Y6253000D01*
X2518000Y5062000D02*
X2874000Y4706000D01*
X983000Y2316654D02*
X1077654Y2222000D01*
X1324000Y2222000D01*
X1415000Y2131000D01*
X3064418Y2131000D01*
X3105072Y2171654D01*
X2904000Y6061000D02*
X2904000Y6552000D01*
X2904000Y6061000D02*
X3104000Y5861000D01*
X3104000Y5747134D02*
X3104000Y5861000D01*
X3104000Y5747134D02*
X3259402Y5591732D01*
X1728790Y6640000D02*
X1728948Y6640158D01*
X1844244Y6640158D01*
X125370Y3402000D02*
X240370Y3402000D01*
X275370Y3367000D01*
X2717000Y1820000D02*
X2918032Y1618968D01*
X3119032Y1618968D01*
X3146000Y1592000D01*
X3146000Y1312582D02*
X3146000Y1592000D01*
X2965000Y1411726D02*
X2965000Y1533332D01*
X517000Y3168000D02*
X925000Y2760000D01*
X925000Y2471000D02*
X925000Y2760000D01*
X925000Y2471000D02*
X1065000Y2331000D01*
X1617000Y2331000D01*
X1688000Y2260000D01*
X2665000Y2260000D01*
X2704000Y2221000D01*
X3125000Y2221000D01*
X3146000Y2200000D01*
X3146000Y2012582D02*
X3146000Y2200000D01*
X2574370Y5433000D02*
X2574370Y8315000D01*
X1421000Y2181000D02*
X1756644Y2181000D01*
X1290000Y2312000D02*
X1421000Y2181000D01*
X1160000Y2307000D02*
X1165000Y2312000D01*
X2223182Y5210630D02*
X2323182Y5210630D01*
X1495000Y4147000D02*
X2226000Y4147000D01*
X1474000Y4126000D02*
X1495000Y4147000D01*
X503298Y859252D02*
X566046Y922000D01*
X1294000Y922000D01*
X1424000Y1052000D01*
X2185418Y1052000D01*
X2880000Y2422000D02*
X3054726Y2422000D01*
X2804000Y2346000D02*
X2880000Y2422000D01*
X1323000Y2346000D02*
X2804000Y2346000D01*
X1385418Y2852000D02*
X2269000Y2852000D01*
X1253418Y2620000D02*
X1571000Y2620000D01*
X1637000Y2686000D01*
X2225000Y2686000D01*
X2245000Y2706000D01*
X1065000Y2371654D02*
X1105072Y2371654D01*
X1065000Y2371654D02*
X1065000Y2504000D01*
X1083000Y2522000D01*
X2880000Y2712000D02*
X3254000Y2712000D01*
X692000Y3641000D02*
X762000Y3711000D01*
X2826370Y3711000D01*
X2226000Y1922000D02*
X2310000Y1838000D01*
X2790000Y1838000D01*
X2856346Y1771654D01*
X3005072Y1771654D01*
X49000Y4787370D02*
X94370Y4742000D01*
X49000Y4787370D02*
X49000Y4844000D01*
X2947078Y919292D02*
X3059402Y919292D01*
X2947078Y919292D02*
X2947078Y1530040D01*
X527000Y4367000D02*
X1807504Y4367000D01*
X2326330Y4885826D01*
X446000Y3885000D02*
X789000Y4228000D01*
X2344394Y4228000D01*
X2385386Y4187008D01*
X460000Y3450788D02*
X1098212Y4089000D01*
X2380000Y4089000D01*
X2829000Y4538000D01*
X2829000Y4569708D01*
X2840000Y4580708D01*
X2877512Y4580708D01*
X554500Y5378500D02*
X1678000Y6502000D01*
X2454000Y6502000D01*
X2483000Y6531000D01*
X558424Y5288000D02*
X964354Y5693930D01*
X978634Y5693930D01*
X104680Y6024606D02*
X295584Y6024606D01*
X453000Y5621000D02*
X500622Y5668622D01*
X500622Y5819568D01*
X295584Y6024606D02*
X500622Y5819568D01*
X19370Y4334000D02*
X19370Y5431314D01*
X40370Y5980000D02*
X108622Y5911748D01*
X118622Y5530568D02*
X225622Y5530568D01*
X275684Y5316688D02*
X331370Y5261000D01*
X108622Y5598568D02*
X108622Y5911748D01*
X108622Y5598568D02*
X114622Y5592568D01*
X275684Y5316688D02*
X275684Y5592568D01*
X114622Y5592568D02*
X275684Y5592568D01*
X19370Y5431314D02*
X118622Y5530568D01*
X3105072Y1271654D02*
X3146000Y1312582D01*
X2965000Y1411726D02*
X3005072Y1371654D01*
X3105072Y1971654D02*
X3146000Y2012582D01*
X1165000Y2312000D02*
X1166640Y2310360D01*
X2226000Y4147000D02*
X2285386Y4206386D01*
X3005072Y2671654D02*
X3105072Y2671654D01*
X3054726Y2422000D02*
X3105072Y2371654D01*
X1205072Y2671654D02*
X1385418Y2852000D01*
X1005370Y2771356D02*
X1105072Y2671654D01*
X1205072Y2571654D02*
X1253418Y2620000D01*
X1946370Y4702000D02*
X1946370Y5017000D01*
D28*
X1397786Y6640000D02*
X1397786Y6640158D01*
X1728790Y6640000D02*
X1732842Y6640000D01*
X1397786Y6640000D02*
X1728790Y6640000D01*
X3105172Y871604D02*
X3109008Y869686D01*
X3105072Y871654D02*
X3105172Y871604D01*
X3059402Y919292D02*
X3109008Y869686D01*
X2232370Y1771000D02*
X2706118Y1771000D01*
D30*
X619116Y6877000D02*
D03*
X1245000Y7641000D02*
D03*
X612000Y7837000D02*
D03*
X355000Y7836000D02*
D03*
D31*
X303300Y859252D02*
D03*
X403300Y859252D02*
D03*
X503300Y859252D02*
D03*
X603300Y859252D02*
D03*
X289702Y1336410D02*
D03*
X389702Y1336410D02*
D03*
X243064Y6665158D02*
D03*
X343064Y6665158D02*
D03*
X443064Y6665158D02*
D03*
X543064Y6665158D02*
D03*
X143064Y6665158D02*
D03*
X2877512Y3891732D02*
D03*
X2777512Y3891732D02*
D03*
X2677512Y3891732D02*
D03*
X2577512Y3891732D02*
D03*
X151528Y7041338D02*
D03*
X251528Y7041338D02*
D03*
X351528Y7041338D02*
D03*
X451528Y7041338D02*
D03*
X2877512Y4580708D02*
D03*
X2777512Y4580708D02*
D03*
X2677512Y4580708D02*
D03*
X2577512Y4580708D02*
D03*
X2326330Y4885826D02*
D03*
X2226330Y4885826D02*
D03*
X2126330Y4885826D02*
D03*
X2026330Y4885826D02*
D03*
X2385386Y4187008D02*
D03*
X2285386Y4187008D02*
D03*
X2185386Y4187008D02*
D03*
X2085386Y4187008D02*
D03*
X2223182Y5310630D02*
D03*
X2323182Y5310630D02*
D03*
X2423182Y5310630D02*
D03*
X2423182Y5210630D02*
D03*
X2323182Y5210630D02*
D03*
X2223182Y5210630D02*
D03*
D32*
X699700Y2626410D02*
D03*
X699700Y2526410D02*
D03*
X699700Y2426410D02*
D03*
X699700Y2026410D02*
D03*
X699700Y2126410D02*
D03*
X699700Y2226410D02*
D03*
X2173968Y5588190D02*
D03*
X2173968Y6388190D02*
D03*
X1373968Y5888190D02*
D03*
X1373968Y6088190D02*
D03*
X1373968Y6388190D02*
D03*
X356700Y7644094D02*
D03*
X356700Y7544094D02*
D03*
D33*
X1809700Y3546410D02*
D03*
X1909700Y3546410D02*
D03*
X2009700Y3546410D02*
D03*
X2109700Y3546410D02*
D03*
X2309700Y3546410D02*
D03*
X2209700Y3546410D02*
D03*
X1559700Y3246410D02*
D03*
X1559700Y3146410D02*
D03*
X2609700Y3246410D02*
D03*
X2609700Y3146410D02*
D03*
X374360Y328740D02*
D03*
X474360Y328740D02*
D03*
X574360Y328740D02*
D03*
X674360Y328740D02*
D03*
X774360Y328740D02*
D03*
X791686Y7687796D02*
D03*
X791686Y7587796D02*
D03*
X791686Y7487796D02*
D03*
X1091686Y7787796D02*
D03*
X1091686Y7687796D02*
D03*
X1091686Y7587796D02*
D03*
X1091686Y7487796D02*
D03*
X104680Y6224606D02*
D03*
X104680Y6124606D02*
D03*
X104680Y6024606D02*
D03*
X404680Y6324606D02*
D03*
X404680Y6224606D02*
D03*
X404680Y6124606D02*
D03*
X404680Y6024606D02*
D03*
D34*
X2409700Y3546410D02*
D03*
X274360Y328740D02*
D03*
X791686Y7787796D02*
D03*
X104680Y6324606D02*
D03*
D35*
X1559700Y3346410D02*
D03*
X2609700Y3346410D02*
D03*
D36*
X1559700Y3546410D02*
D03*
X2609700Y2496410D02*
D03*
X2609700Y3546410D02*
D03*
X1559700Y2496410D02*
D03*
D37*
X259700Y5196410D02*
D03*
X1559700Y5196410D02*
D03*
X259700Y2946410D02*
D03*
X1559700Y3956410D02*
D03*
D38*
X2902316Y348426D02*
D03*
X1308424Y348426D02*
D03*
X1155370Y2997000D02*
D03*
X3030268Y2986220D02*
D03*
D39*
X1397786Y6640158D02*
D03*
X1000936Y6640158D02*
D03*
X1199362Y6640158D02*
D03*
D40*
X1993062Y6640158D02*
D03*
D41*
X1844244Y6640158D02*
D03*
D42*
X1411094Y5559960D02*
D03*
X1411094Y5756812D02*
D03*
X1647314Y5756812D02*
D03*
X1593260Y6042402D02*
D03*
X1475150Y6042402D02*
D03*
X1849164Y6042402D02*
D03*
X2183810Y6121142D02*
D03*
X2695622Y6436102D02*
D03*
X3049952Y6436102D02*
D03*
X3286172Y6199882D02*
D03*
X3049952Y6199882D02*
D03*
X2813732Y6199882D02*
D03*
X2695622Y6003032D02*
D03*
X2459402Y5564960D02*
D03*
X2695622Y5722442D02*
D03*
X3049952Y5761812D02*
D03*
X3168064Y5761812D02*
D03*
D43*
X1099164Y7101180D02*
D03*
X1099164Y7001180D02*
D03*
D44*
X3259402Y6391732D02*
D03*
X3259402Y5991732D02*
D03*
X3259402Y5591732D02*
D03*
X2459402Y6391732D02*
D03*
X2459402Y5791732D02*
D03*
X2459402Y6091732D02*
D03*
D45*
X609008Y7494094D02*
D03*
X609008Y7643700D02*
D03*
X1105370Y2772000D02*
D03*
X3005370Y572000D02*
D03*
X3005370Y672000D02*
D03*
X3005370Y772000D02*
D03*
X3005370Y872000D02*
D03*
X3005370Y972000D02*
D03*
X3005370Y1072000D02*
D03*
X3005370Y1172000D02*
D03*
X3005370Y1272000D02*
D03*
X3005370Y1372000D02*
D03*
X3005370Y1472000D02*
D03*
X3005370Y1572000D02*
D03*
X3005370Y1672000D02*
D03*
X3005370Y1772000D02*
D03*
X3005370Y1872000D02*
D03*
X3005370Y1972000D02*
D03*
X3005370Y2072000D02*
D03*
X3005370Y2172000D02*
D03*
X3005370Y2272000D02*
D03*
X3005370Y2372000D02*
D03*
X3005370Y2472000D02*
D03*
X3005370Y2572000D02*
D03*
X3005370Y2672000D02*
D03*
X3105370Y572000D02*
D03*
X3105370Y672000D02*
D03*
X3105370Y772000D02*
D03*
X3105370Y872000D02*
D03*
X3105370Y972000D02*
D03*
X3105370Y1072000D02*
D03*
X3105370Y1172000D02*
D03*
X3105370Y1272000D02*
D03*
X3105370Y1372000D02*
D03*
X3105370Y1472000D02*
D03*
X3105370Y1572000D02*
D03*
X3105370Y1672000D02*
D03*
X3105370Y1772000D02*
D03*
X3105370Y1872000D02*
D03*
X3105370Y1972000D02*
D03*
X3105370Y2072000D02*
D03*
X3105370Y2172000D02*
D03*
X3105370Y2272000D02*
D03*
X3105370Y2372000D02*
D03*
X3105370Y2472000D02*
D03*
X3105370Y2572000D02*
D03*
X3105370Y2672000D02*
D03*
X3105370Y2772000D02*
D03*
X3005370Y2772000D02*
D03*
X1105370Y572000D02*
D03*
X1105370Y672000D02*
D03*
X1105370Y772000D02*
D03*
X1105370Y872000D02*
D03*
X1105370Y972000D02*
D03*
X1105370Y1072000D02*
D03*
X1105370Y1172000D02*
D03*
X1105370Y1272000D02*
D03*
X1105370Y1372000D02*
D03*
X1105370Y1472000D02*
D03*
X1105370Y1572000D02*
D03*
X1105370Y1672000D02*
D03*
X1105370Y1772000D02*
D03*
X1105370Y1872000D02*
D03*
X1105370Y1972000D02*
D03*
X1105370Y2072000D02*
D03*
X1105370Y2172000D02*
D03*
X1105370Y2272000D02*
D03*
X1105370Y2372000D02*
D03*
X1105370Y2472000D02*
D03*
X1105370Y2572000D02*
D03*
X1105370Y2672000D02*
D03*
X1205370Y572000D02*
D03*
X1205370Y672000D02*
D03*
X1205370Y772000D02*
D03*
X1205370Y872000D02*
D03*
X1205370Y972000D02*
D03*
X1205370Y1072000D02*
D03*
X1205370Y1172000D02*
D03*
X1205370Y1272000D02*
D03*
X1205370Y1372000D02*
D03*
X1205370Y1472000D02*
D03*
X1205370Y1572000D02*
D03*
X1205370Y1672000D02*
D03*
X1205370Y1772000D02*
D03*
X1205370Y1872000D02*
D03*
X1205370Y1972000D02*
D03*
X1205370Y2072000D02*
D03*
X1205370Y2172000D02*
D03*
X1205370Y2272000D02*
D03*
X1205370Y2372000D02*
D03*
X1205370Y2472000D02*
D03*
X1205370Y2572000D02*
D03*
X1205370Y2672000D02*
D03*
X1205370Y2772000D02*
D03*
D46*
X1606000Y7640000D02*
D03*
X1906000Y7640000D02*
D03*
D47*
X1756000Y7940000D02*
D03*
D48*
X2974700Y8276410D02*
D03*
X3174700Y8276410D02*
D03*
X3074700Y8376410D02*
D03*
D49*
X2173968Y5988190D02*
D03*
D50*
X922368Y5505622D02*
D03*
X923968Y6254222D02*
D03*
D51*
X923968Y6416122D02*
D03*
X923968Y5343722D02*
D03*
D52*
X380622Y5664568D02*
D03*
X230622Y5664568D02*
D03*
X280622Y5664568D02*
D03*
X330622Y5664568D02*
D03*
X430622Y5664568D02*
D03*
X180622Y5714568D02*
D03*
X230622Y5714568D02*
D03*
X280622Y5714568D02*
D03*
X330622Y5714568D02*
D03*
X380622Y5714568D02*
D03*
X430622Y5714568D02*
D03*
D53*
X180622Y5664568D02*
D03*
D54*
X2909116Y1024236D02*
D03*
X2859116Y1137000D02*
D03*
X2659116Y1067000D02*
D03*
X2399700Y3126410D02*
D03*
X2119700Y4376410D02*
D03*
X2439700Y4401700D02*
D03*
X862370Y6739000D02*
D03*
X2130370Y5761000D02*
D03*
X2027370Y5585000D02*
D03*
X1661370Y4845000D02*
D03*
X1949370Y5011000D02*
D03*
X613370Y4620000D02*
D03*
D55*
X2742000Y3845000D02*
D03*
X3212000Y1032000D02*
D03*
X3059116Y2022000D02*
D03*
X2945958Y2100528D02*
D03*
X1275148Y2388000D02*
D03*
X1174116Y2722000D02*
D03*
X2526000Y8133000D02*
D03*
X954700Y8090700D02*
D03*
X834700Y8040700D02*
D03*
X710000Y8411000D02*
D03*
X1200000Y8236000D02*
D03*
X1082028Y8408720D02*
D03*
X1283694Y7793306D02*
D03*
X834700Y8406410D02*
D03*
X954700Y8416410D02*
D03*
X709000Y3074000D02*
D03*
X980000Y2532000D02*
D03*
X2326000Y1985000D02*
D03*
X1981000Y1751000D02*
D03*
X649700Y1306410D02*
D03*
X2005370Y2442000D02*
D03*
X1125000Y5626000D02*
D03*
X2122064Y1888772D02*
D03*
X1817064Y1848772D02*
D03*
X2504582Y3598772D02*
D03*
X1455370Y4622000D02*
D03*
X428602Y4263000D02*
D03*
X623370Y4114000D02*
D03*
X626370Y3956000D02*
D03*
X2389370Y1628000D02*
D03*
X2515370Y1629000D02*
D03*
X476620Y4355000D02*
D03*
X2638370Y6731000D02*
D03*
X2482370Y6897000D02*
D03*
X1207370Y4936000D02*
D03*
X392370Y5058000D02*
D03*
X419370Y5126000D02*
D03*
X1656000Y7168000D02*
D03*
X1096370Y4957000D02*
D03*
X1084370Y4790000D02*
D03*
X1219370Y3830000D02*
D03*
X1649370Y4747000D02*
D03*
X656370Y4847000D02*
D03*
X1950370Y5157000D02*
D03*
X2367370Y1553000D02*
D03*
X1220370Y4731000D02*
D03*
X477370Y4851000D02*
D03*
X112944Y3352362D02*
D03*
X94370Y4742000D02*
D03*
X129370Y3970000D02*
D03*
X2232370Y1769000D02*
D03*
X179000Y3148000D02*
D03*
X1044000Y3800000D02*
D03*
X2010000Y2079000D02*
D03*
X2663158Y2021158D02*
D03*
X2293000Y2312000D02*
D03*
X514000Y5321008D02*
D03*
X996804Y6253000D02*
D03*
X1139000Y5574000D02*
D03*
X2874000Y4706000D02*
D03*
X530000Y5570000D02*
D03*
X983000Y2316654D02*
D03*
X548280Y5514440D02*
D03*
X114000Y4816930D02*
D03*
X177000Y4683000D02*
D03*
X3010000Y4313000D02*
D03*
X2067000Y2043000D02*
D03*
X2202000Y1651322D02*
D03*
X2904000Y6552000D02*
D03*
X453000Y5621000D02*
D03*
X219000Y3941748D02*
D03*
X968000Y7942914D02*
D03*
X2617000Y4824000D02*
D03*
X2459402Y5652000D02*
D03*
X417000Y4804000D02*
D03*
X972000Y6292000D02*
D03*
X1169000Y3371000D02*
D03*
X1109370Y5003000D02*
D03*
X104000Y3242000D02*
D03*
X1949000Y6757000D02*
D03*
X2896000Y1347000D02*
D03*
X2894346Y1471654D02*
D03*
X1063456Y3627000D02*
D03*
X2875000Y3479000D02*
D03*
X517000Y3168000D02*
D03*
X1404000Y7039598D02*
D03*
X3325000Y8236000D02*
D03*
X3257000Y4358268D02*
D03*
X2574370Y5433000D02*
D03*
X2336370Y5573000D02*
D03*
X2945370Y5434000D02*
D03*
X2315702Y1421258D02*
D03*
X2137000Y1305000D02*
D03*
X646370Y3901000D02*
D03*
X164126Y3612204D02*
D03*
X1756644Y2181000D02*
D03*
X1160000Y2307000D02*
D03*
X882000Y7884000D02*
D03*
X940370Y4026000D02*
D03*
X1018370Y4080000D02*
D03*
X1474000Y4126000D02*
D03*
X569048Y4182404D02*
D03*
X1679874Y1645670D02*
D03*
X1866370Y1627000D02*
D03*
X2333418Y1862204D02*
D03*
X437370Y3400000D02*
D03*
X186370Y4271000D02*
D03*
X958418Y3798228D02*
D03*
X2301922Y2062992D02*
D03*
X2067370Y1622000D02*
D03*
X2070000Y958662D02*
D03*
X3092000Y6318000D02*
D03*
X2821606Y7287402D02*
D03*
X2907370Y6604000D02*
D03*
X2443654Y4799212D02*
D03*
X1764000Y5319000D02*
D03*
X2491882Y8450196D02*
D03*
X313370Y5589000D02*
D03*
X125370Y3402000D02*
D03*
X275370Y3367000D02*
D03*
X491370Y4465000D02*
D03*
X438370Y3926000D02*
D03*
X1131370Y3896000D02*
D03*
X742370Y4053000D02*
D03*
X1687748Y1712598D02*
D03*
X1932370Y2607000D02*
D03*
X1061764Y3744094D02*
D03*
X2185418Y1052000D02*
D03*
X2508024Y1156024D02*
D03*
X1140504Y6096456D02*
D03*
X715308Y6253938D02*
D03*
X2992184Y4897888D02*
D03*
X660190Y5001968D02*
D03*
X2269000Y2852000D02*
D03*
X1455464Y4899606D02*
D03*
X2529000Y5704212D02*
D03*
X1651000Y4655000D02*
D03*
X1431842Y4730316D02*
D03*
X1045000Y5231000D02*
D03*
X128692Y4389764D02*
D03*
X2798000Y4985000D02*
D03*
X2245000Y2706000D02*
D03*
X3254000Y2712000D02*
D03*
X1314000Y5014000D02*
D03*
X692000Y3641000D02*
D03*
X2826370Y3711000D02*
D03*
X2226000Y1922000D02*
D03*
X128692Y4440944D02*
D03*
X973000Y3875000D02*
D03*
X1071000Y3967000D02*
D03*
X1030268Y3862204D02*
D03*
X49000Y4138000D02*
D03*
X1726000Y2322000D02*
D03*
X49000Y4844000D02*
D03*
X446000Y3885000D02*
D03*
X460000Y3450788D02*
D03*
X554500Y5378500D02*
D03*
X2483000Y6531000D02*
D03*
X2195370Y6562000D02*
D03*
X978634Y5693930D02*
D03*
X1418634Y4818930D02*
D03*
X553634Y4308930D02*
D03*
X1135700Y8411410D02*
D03*
X1139000Y5845000D02*
D03*
X800634Y6412930D02*
D03*
X731634Y6407930D02*
D03*
X225622Y5530568D02*
D03*
%TF.MD5,d5a091f6b1abcef18dab704c8d4f60b1*%
M02*
