%TF.GenerationSoftware,Altium Limited,Altium Designer,19.1.6 (110)*%
G04 Layer_Physical_Order=4*
G04 Layer_Color=6736896*
%FSLAX26Y26*%
%MOIN*%
%TF.FileFunction,Copper,L4,Inr,Signal*%
%TF.Part,Single*%
G01*
G75*
%TA.AperFunction,Conductor*%
%ADD41C,0.005000*%
%ADD46C,0.019685*%
%ADD50C,0.031496*%
%ADD51C,0.023622*%
%TA.AperFunction,ComponentPad*%
%ADD52R,0.139764X0.051181*%
%ADD53R,0.051181X0.139764*%
%ADD54R,0.061024X0.161417*%
%ADD55C,0.072835*%
%TA.AperFunction,ViaPad*%
%ADD57C,0.017716*%
G36*
X602438Y5229913D02*
X555748Y5183223D01*
Y4647230D01*
X479867Y4571349D01*
X478964Y4570248D01*
X478293Y4568993D01*
X477880Y4567632D01*
X477741Y4566215D01*
Y4531485D01*
X476714Y4530799D01*
X475375Y4529625D01*
X474201Y4528286D01*
X473212Y4526806D01*
X472424Y4525209D01*
X471852Y4523523D01*
X471505Y4521777D01*
X471388Y4520000D01*
X471505Y4518223D01*
X471852Y4516477D01*
X472424Y4514791D01*
X473212Y4513194D01*
X474201Y4511714D01*
X475375Y4510375D01*
X476714Y4509201D01*
X478194Y4508212D01*
X479791Y4507424D01*
X481477Y4506852D01*
X483223Y4506505D01*
X485000Y4506388D01*
X486777Y4506505D01*
X488523Y4506852D01*
X490209Y4507424D01*
X491806Y4508212D01*
X493286Y4509201D01*
X494625Y4510375D01*
X495799Y4511714D01*
X496788Y4513194D01*
X497576Y4514791D01*
X498148Y4516477D01*
X498495Y4518223D01*
X498612Y4520000D01*
X498495Y4521777D01*
X498148Y4523523D01*
X497576Y4525209D01*
X496788Y4526806D01*
X495799Y4528286D01*
X494625Y4529625D01*
X493286Y4530799D01*
X492259Y4531485D01*
Y4563208D01*
X552111Y4623060D01*
X555748Y4621553D01*
Y4336766D01*
X596102Y4296412D01*
Y4295428D01*
X602992Y4288538D01*
X1502598D01*
X1515394Y4275743D01*
Y4164522D01*
X1503583Y4152711D01*
X1360866D01*
X1319528Y4111373D01*
Y4069050D01*
X1176811Y3926334D01*
X1047874D01*
X1033110Y3941097D01*
Y4236373D01*
X1014409Y4255074D01*
X804764D01*
X788032Y4238341D01*
Y4173381D01*
X750630Y4135979D01*
Y4064129D01*
X767362Y4047396D01*
Y4030664D01*
X642362D01*
X633504Y4021806D01*
Y3902350D01*
X230945D01*
Y4432921D01*
X234882Y4434903D01*
X235386Y4434530D01*
X238023Y4432949D01*
X240803Y4431634D01*
X243699Y4430598D01*
X246682Y4429851D01*
X249724Y4429399D01*
X252795Y4429248D01*
X255867Y4429399D01*
X258909Y4429851D01*
X261892Y4430598D01*
X264787Y4431634D01*
X267567Y4432949D01*
X270205Y4434530D01*
X272675Y4436362D01*
X274954Y4438427D01*
X277019Y4440706D01*
X278851Y4443176D01*
X280432Y4445813D01*
X281747Y4448593D01*
X282783Y4451489D01*
X283530Y4454472D01*
X283981Y4457514D01*
X284132Y4460585D01*
X283981Y4463657D01*
X283530Y4466699D01*
X282783Y4469682D01*
X281747Y4472578D01*
X280432Y4475358D01*
X278851Y4477995D01*
X277019Y4480465D01*
X274954Y4482744D01*
X272675Y4484809D01*
X270205Y4486641D01*
X267567Y4488222D01*
X264787Y4489537D01*
X261892Y4490573D01*
X258909Y4491320D01*
X255867Y4491771D01*
X252795Y4491922D01*
X249724Y4491771D01*
X246682Y4491320D01*
X243699Y4490573D01*
X240803Y4489537D01*
X238023Y4488222D01*
X235386Y4486641D01*
X234882Y4486268D01*
X230945Y4488249D01*
Y4499168D01*
X200433Y4529680D01*
X133121D01*
X131764Y4531129D01*
Y4753696D01*
X131639Y4755601D01*
X131266Y4757474D01*
X130652Y4759282D01*
X129808Y4760995D01*
X128747Y4762583D01*
X127488Y4764018D01*
X110504Y4781002D01*
Y4803499D01*
X110379Y4805404D01*
X110006Y4807277D01*
X109392Y4809085D01*
X108548Y4810798D01*
X107487Y4812386D01*
X106228Y4813821D01*
X87724Y4832325D01*
X86288Y4833584D01*
X84701Y4834645D01*
X82988Y4835490D01*
X81180Y4836104D01*
X79307Y4836476D01*
X77402Y4836601D01*
X75496Y4836476D01*
X73623Y4836104D01*
X71815Y4835490D01*
X70103Y4834645D01*
X68515Y4833584D01*
X67079Y4832325D01*
X65820Y4830890D01*
X64759Y4829302D01*
X63915Y4827589D01*
X63301Y4825781D01*
X62928Y4823908D01*
X62803Y4822003D01*
Y4793459D01*
X62928Y4791554D01*
X63301Y4789681D01*
X63915Y4787873D01*
X64759Y4786160D01*
X65820Y4784573D01*
X67079Y4783137D01*
X85583Y4764633D01*
X102567Y4747649D01*
Y4537176D01*
X95071Y4529680D01*
X77402D01*
X62638Y4514916D01*
X16055D01*
Y5170866D01*
Y5177040D01*
X18464Y5189150D01*
X23189Y5200558D01*
X30049Y5210824D01*
X38780Y5219556D01*
X49047Y5226416D01*
X60455Y5231141D01*
X72566Y5233550D01*
X600931D01*
X602438Y5229913D01*
D02*
G37*
G36*
X2695449Y5231141D02*
X2706856Y5226416D01*
X2717123Y5219556D01*
X2725854Y5210825D01*
X2732715Y5200558D01*
X2737440Y5189151D01*
X2739849Y5177040D01*
Y5170866D01*
Y78740D01*
Y78740D01*
Y78740D01*
X2739849Y72566D01*
X2737440Y60455D01*
X2732715Y49046D01*
X2725855Y38779D01*
X2717124Y30047D01*
X2706856Y23186D01*
X2695448Y18460D01*
X2683338Y16051D01*
X2677164Y16051D01*
X2068543Y16058D01*
X2068542Y597441D01*
X2066929Y630905D01*
X1978347Y719488D01*
Y1413386D01*
X2014764Y1449803D01*
X2318898D01*
X2319390Y1449311D01*
X2519332Y1649253D01*
X2519331Y2688144D01*
X2356929Y2850546D01*
Y3557239D01*
X2111850Y3802318D01*
Y4215704D01*
X2096102Y4231452D01*
X2051811D01*
X2040000Y4219641D01*
Y3894837D01*
X1994725Y3849562D01*
X1953386D01*
X1840197Y3962751D01*
Y4120231D01*
X1773268Y4187160D01*
X1708307D01*
X1633504Y4261963D01*
Y4272790D01*
X1644331Y4283617D01*
X1728976D01*
X1789016Y4343656D01*
Y4479483D01*
X1805748Y4496215D01*
X1876614D01*
X1963228Y4409601D01*
X2490310Y4409601D01*
X2523260Y4442552D01*
X2523268Y4907633D01*
Y5115310D01*
X2473071Y5165507D01*
X1393347D01*
X1342165Y5216688D01*
Y5233550D01*
X2683338D01*
X2695449Y5231141D01*
D02*
G37*
G36*
X1023268Y4230467D02*
Y3960782D01*
X1009488Y3947003D01*
X805748D01*
X797874Y3954877D01*
X797874Y4031648D01*
X770315Y4059207D01*
X761457Y4068066D01*
Y4124168D01*
X798858Y4161570D01*
Y4231452D01*
X812638Y4245231D01*
X1008504D01*
X1023268Y4230467D01*
D02*
G37*
G36*
X789016Y4015900D02*
Y3956845D01*
X779173Y3947003D01*
Y3947003D01*
X647284D01*
X640394Y3953892D01*
Y4014916D01*
X646299Y4020822D01*
X784095D01*
X789016Y4015900D01*
D02*
G37*
G36*
X2102007Y4210782D02*
X2102008Y3815113D01*
X2091181Y3804286D01*
X1993741Y3804287D01*
X1984882Y3813144D01*
Y3824955D01*
X2050828Y3890901D01*
X2050828Y4212751D01*
X2059684Y4221608D01*
X2091183Y4221610D01*
X2102007Y4210782D01*
D02*
G37*
G36*
X1753889Y3755073D02*
X1757061Y3751207D01*
X1756821Y3750000D01*
X1757875Y3744700D01*
X1760877Y3740207D01*
X1765370Y3737206D01*
X1770669Y3736151D01*
X1775969Y3737206D01*
X1780462Y3740207D01*
X1783464Y3744700D01*
X1784518Y3750000D01*
X1784278Y3751207D01*
X1787450Y3755072D01*
X1826618D01*
X1877952Y3703739D01*
X1877955Y3302167D01*
X1944882Y3235236D01*
Y3191929D01*
X1945866Y3190945D01*
X1916339Y3161417D01*
Y3117974D01*
X1911719Y3116060D01*
X1910543Y3117236D01*
X1905074Y3120891D01*
X1898622Y3122174D01*
X1892170Y3120891D01*
X1886701Y3117236D01*
X1883046Y3111767D01*
X1881763Y3105315D01*
X1883046Y3098863D01*
X1886701Y3093394D01*
X1904417Y3075677D01*
X1909887Y3072022D01*
X1916339Y3070739D01*
Y2945032D01*
X1955512Y2905859D01*
Y2795736D01*
X1950512Y2794219D01*
X1948793Y2796793D01*
X1944300Y2799794D01*
X1939000Y2800849D01*
X1933700Y2799794D01*
X1929207Y2796793D01*
X1926206Y2792300D01*
X1925151Y2787000D01*
X1926206Y2781700D01*
X1929207Y2777207D01*
X1933700Y2774206D01*
X1939000Y2773151D01*
X1944300Y2774206D01*
X1948793Y2777207D01*
X1950512Y2779781D01*
X1955512Y2778264D01*
Y2234472D01*
X1955512Y1970002D01*
X860868Y1969999D01*
X860866Y3755074D01*
X1753889Y3755073D01*
D02*
G37*
G36*
X633504Y3847593D02*
X591181Y3805270D01*
Y3686176D01*
X626614Y3650743D01*
Y3591688D01*
X666968Y3551333D01*
Y3538341D01*
X542165D01*
Y3477711D01*
X666968D01*
Y3473578D01*
X700433Y3440113D01*
X815591D01*
X850039Y3405664D01*
Y3338735D01*
X850042Y3207769D01*
X849409Y3207136D01*
Y3051181D01*
X826772Y3028543D01*
X674293D01*
X673761Y3029075D01*
X645828Y3001141D01*
X602362Y2957675D01*
Y2674213D01*
X543307Y2615157D01*
X351378D01*
X317913Y2648622D01*
Y2808537D01*
X318870Y2809627D01*
X319859Y2811108D01*
X320647Y2812704D01*
X321219Y2814390D01*
X321566Y2816137D01*
X321683Y2817913D01*
X321566Y2819690D01*
X321219Y2821436D01*
X320647Y2823122D01*
X319859Y2824719D01*
X318870Y2826200D01*
X317913Y2827290D01*
Y2827449D01*
X317554Y2827809D01*
Y2922391D01*
X396299Y3001137D01*
Y3085782D01*
X431732Y3121215D01*
X490787D01*
X510473Y3140900D01*
Y3255073D01*
X495709Y3269837D01*
X436654D01*
X402205Y3304286D01*
Y3591688D01*
X230945Y3762948D01*
Y3861340D01*
X633504D01*
Y3847593D01*
D02*
G37*
G36*
X825000Y3006693D02*
X825000Y2759332D01*
X821219Y2758444D01*
X820646Y2760130D01*
X819859Y2761727D01*
X818870Y2763208D01*
X817696Y2764546D01*
X816357Y2765720D01*
X814877Y2766709D01*
X813280Y2767497D01*
X811594Y2768069D01*
X809848Y2768417D01*
X808071Y2768533D01*
X806294Y2768417D01*
X804548Y2768069D01*
X802862Y2767497D01*
X801265Y2766709D01*
X799785Y2765720D01*
X798446Y2764546D01*
X797272Y2763208D01*
X796283Y2761727D01*
X795495Y2760130D01*
X794923Y2758444D01*
X794576Y2756698D01*
X794459Y2754921D01*
X794576Y2753145D01*
X794923Y2751398D01*
X795495Y2749712D01*
X796283Y2748115D01*
X797272Y2746635D01*
X798446Y2745296D01*
X799785Y2744122D01*
X801265Y2743133D01*
X802862Y2742346D01*
X804548Y2741773D01*
X806294Y2741426D01*
X808071Y2741310D01*
X809848Y2741426D01*
X811594Y2741773D01*
X813280Y2742346D01*
X814877Y2743133D01*
X816357Y2744122D01*
X817696Y2745296D01*
X818870Y2746635D01*
X819859Y2748115D01*
X820646Y2749712D01*
X821219Y2751398D01*
X825000Y2750510D01*
X825000Y2024999D01*
X559056Y2025000D01*
X559055Y2597594D01*
X625000Y2662402D01*
Y2951772D01*
X687008Y3013780D01*
X817913D01*
X825000Y3006693D01*
D02*
G37*
%LPC*%
G36*
X252795Y4920663D02*
X249724Y4920512D01*
X246682Y4920060D01*
X243699Y4919313D01*
X240803Y4918277D01*
X238023Y4916962D01*
X235386Y4915381D01*
X232915Y4913549D01*
X230637Y4911484D01*
X228571Y4909206D01*
X226740Y4906735D01*
X225159Y4904098D01*
X223844Y4901318D01*
X222808Y4898422D01*
X222060Y4895439D01*
X221609Y4892397D01*
X221458Y4889326D01*
X221609Y4886254D01*
X222060Y4883212D01*
X222808Y4880229D01*
X223844Y4877333D01*
X225159Y4874553D01*
X226740Y4871916D01*
X228571Y4869446D01*
X230637Y4867167D01*
X232915Y4865102D01*
X235386Y4863270D01*
X238023Y4861689D01*
X240803Y4860374D01*
X243699Y4859338D01*
X246682Y4858591D01*
X249724Y4858140D01*
X252795Y4857989D01*
X255867Y4858140D01*
X258909Y4858591D01*
X261892Y4859338D01*
X264787Y4860374D01*
X267567Y4861689D01*
X270205Y4863270D01*
X272675Y4865102D01*
X274954Y4867167D01*
X277019Y4869446D01*
X278851Y4871916D01*
X280432Y4874553D01*
X281747Y4877333D01*
X282783Y4880229D01*
X283530Y4883212D01*
X283981Y4886254D01*
X284132Y4889326D01*
X283981Y4892397D01*
X283530Y4895439D01*
X282783Y4898422D01*
X281747Y4901318D01*
X280432Y4904098D01*
X278851Y4906735D01*
X277019Y4909206D01*
X274954Y4911484D01*
X272675Y4913549D01*
X270205Y4915381D01*
X267567Y4916962D01*
X264787Y4918277D01*
X261892Y4919313D01*
X258909Y4920060D01*
X255867Y4920512D01*
X252795Y4920663D01*
D02*
G37*
G36*
Y4826957D02*
X250149Y4826827D01*
X247528Y4826438D01*
X244957Y4825794D01*
X242463Y4824901D01*
X240067Y4823768D01*
X237794Y4822406D01*
X235666Y4820828D01*
X233703Y4819048D01*
X231923Y4817085D01*
X230345Y4814957D01*
X228982Y4812684D01*
X227850Y4810288D01*
X226957Y4807793D01*
X226313Y4805223D01*
X225924Y4802602D01*
X225794Y4799956D01*
X225924Y4797309D01*
X226313Y4794688D01*
X226957Y4792118D01*
X227850Y4789623D01*
X228982Y4787227D01*
X230345Y4784954D01*
X231923Y4782826D01*
X233703Y4780863D01*
X235666Y4779083D01*
X237794Y4777505D01*
X240067Y4776143D01*
X242463Y4775010D01*
X244957Y4774117D01*
X247528Y4773473D01*
X250149Y4773084D01*
X252795Y4772954D01*
X255442Y4773084D01*
X258063Y4773473D01*
X260633Y4774117D01*
X263128Y4775010D01*
X265524Y4776143D01*
X267796Y4777505D01*
X269925Y4779083D01*
X271888Y4780863D01*
X273667Y4782826D01*
X275246Y4784954D01*
X276608Y4787227D01*
X277741Y4789623D01*
X278634Y4792118D01*
X279277Y4794688D01*
X279666Y4797309D01*
X279796Y4799956D01*
X279666Y4802602D01*
X279277Y4805223D01*
X278634Y4807793D01*
X277741Y4810288D01*
X276608Y4812684D01*
X275246Y4814957D01*
X273667Y4817085D01*
X271888Y4819048D01*
X269925Y4820828D01*
X267796Y4822406D01*
X265524Y4823768D01*
X263128Y4824901D01*
X260633Y4825794D01*
X258063Y4826438D01*
X255442Y4826827D01*
X252795Y4826957D01*
D02*
G37*
G36*
X332795Y4788567D02*
X331019Y4788451D01*
X329272Y4788103D01*
X327586Y4787531D01*
X325989Y4786744D01*
X324509Y4785754D01*
X323170Y4784580D01*
X321996Y4783242D01*
X321007Y4781761D01*
X320220Y4780164D01*
X319647Y4778479D01*
X319300Y4776732D01*
X319184Y4774956D01*
X319300Y4773179D01*
X319647Y4771432D01*
X320220Y4769747D01*
X321007Y4768150D01*
X321996Y4766669D01*
X323170Y4765331D01*
X324509Y4764157D01*
X325989Y4763167D01*
X327586Y4762380D01*
X329272Y4761808D01*
X331019Y4761460D01*
X332795Y4761344D01*
X334572Y4761460D01*
X336318Y4761808D01*
X338004Y4762380D01*
X339601Y4763167D01*
X341082Y4764157D01*
X342420Y4765331D01*
X343594Y4766669D01*
X344583Y4768150D01*
X345371Y4769747D01*
X345943Y4771432D01*
X346291Y4773179D01*
X346407Y4774956D01*
X346291Y4776732D01*
X345943Y4778479D01*
X345371Y4780164D01*
X344583Y4781761D01*
X343594Y4783242D01*
X342420Y4784580D01*
X341082Y4785754D01*
X339601Y4786744D01*
X338004Y4787531D01*
X336318Y4788103D01*
X334572Y4788451D01*
X332795Y4788567D01*
D02*
G37*
G36*
X252008Y4738567D02*
X250231Y4738451D01*
X248485Y4738103D01*
X246799Y4737531D01*
X245202Y4736744D01*
X243722Y4735754D01*
X242383Y4734580D01*
X241209Y4733242D01*
X240220Y4731761D01*
X239432Y4730164D01*
X238860Y4728479D01*
X238513Y4726732D01*
X238396Y4724956D01*
X238513Y4723179D01*
X238860Y4721432D01*
X239432Y4719747D01*
X240220Y4718150D01*
X241209Y4716669D01*
X242383Y4715331D01*
X243722Y4714157D01*
X245202Y4713167D01*
X246799Y4712380D01*
X248485Y4711808D01*
X250231Y4711460D01*
X252008Y4711344D01*
X253785Y4711460D01*
X255531Y4711808D01*
X257217Y4712380D01*
X258814Y4713167D01*
X260294Y4714157D01*
X261633Y4715331D01*
X262807Y4716669D01*
X263796Y4718150D01*
X264584Y4719747D01*
X265156Y4721432D01*
X265503Y4723179D01*
X265620Y4724956D01*
X265503Y4726732D01*
X265156Y4728479D01*
X264584Y4730164D01*
X263796Y4731761D01*
X262807Y4733242D01*
X261633Y4734580D01*
X260294Y4735754D01*
X258814Y4736744D01*
X257217Y4737531D01*
X255531Y4738103D01*
X253785Y4738451D01*
X252008Y4738567D01*
D02*
G37*
G36*
X499646Y4712583D02*
X497869Y4712467D01*
X496123Y4712119D01*
X494437Y4711547D01*
X492840Y4710759D01*
X491359Y4709770D01*
X490021Y4708596D01*
X488847Y4707257D01*
X487858Y4705777D01*
X487070Y4704180D01*
X486498Y4702494D01*
X486150Y4700748D01*
X486034Y4698971D01*
X486150Y4697194D01*
X486498Y4695448D01*
X487070Y4693762D01*
X487858Y4692165D01*
X488847Y4690685D01*
X490021Y4689346D01*
X491359Y4688172D01*
X492840Y4687183D01*
X494437Y4686396D01*
X496123Y4685823D01*
X497869Y4685476D01*
X499646Y4685359D01*
X501422Y4685476D01*
X503169Y4685823D01*
X504855Y4686396D01*
X506452Y4687183D01*
X507932Y4688172D01*
X509271Y4689346D01*
X510445Y4690685D01*
X511434Y4692165D01*
X512221Y4693762D01*
X512794Y4695448D01*
X513141Y4697194D01*
X513257Y4698971D01*
X513141Y4700748D01*
X512794Y4702494D01*
X512221Y4704180D01*
X511434Y4705777D01*
X510445Y4707257D01*
X509271Y4708596D01*
X507932Y4709770D01*
X506452Y4710759D01*
X504855Y4711547D01*
X503169Y4712119D01*
X501422Y4712467D01*
X499646Y4712583D01*
D02*
G37*
G36*
X332795Y4688567D02*
X331019Y4688451D01*
X329272Y4688103D01*
X327586Y4687531D01*
X325989Y4686744D01*
X324509Y4685754D01*
X323170Y4684580D01*
X321996Y4683242D01*
X321007Y4681761D01*
X320220Y4680164D01*
X319647Y4678479D01*
X319300Y4676732D01*
X319184Y4674956D01*
X319300Y4673179D01*
X319647Y4671432D01*
X320220Y4669747D01*
X321007Y4668150D01*
X321996Y4666669D01*
X323170Y4665331D01*
X324509Y4664157D01*
X325989Y4663167D01*
X327586Y4662380D01*
X329272Y4661808D01*
X331019Y4661460D01*
X332795Y4661344D01*
X334572Y4661460D01*
X336318Y4661808D01*
X338004Y4662380D01*
X339601Y4663167D01*
X341082Y4664157D01*
X342420Y4665331D01*
X343594Y4666669D01*
X344583Y4668150D01*
X345371Y4669747D01*
X345943Y4671432D01*
X346291Y4673179D01*
X346407Y4674956D01*
X346291Y4676732D01*
X345943Y4678479D01*
X345371Y4680164D01*
X344583Y4681761D01*
X343594Y4683242D01*
X342420Y4684580D01*
X341082Y4685754D01*
X339601Y4686744D01*
X338004Y4687531D01*
X336318Y4688103D01*
X334572Y4688451D01*
X332795Y4688567D01*
D02*
G37*
G36*
X255551Y4640733D02*
X253774Y4640616D01*
X252028Y4640269D01*
X250342Y4639697D01*
X248745Y4638909D01*
X247265Y4637920D01*
X245926Y4636746D01*
X244752Y4635407D01*
X243763Y4633927D01*
X242976Y4632330D01*
X242403Y4630644D01*
X242056Y4628898D01*
X241940Y4627121D01*
X242056Y4625344D01*
X242403Y4623598D01*
X242976Y4621912D01*
X243763Y4620315D01*
X244752Y4618835D01*
X245926Y4617496D01*
X247265Y4616322D01*
X248745Y4615333D01*
X250342Y4614545D01*
X252028Y4613973D01*
X253774Y4613626D01*
X255551Y4613509D01*
X257328Y4613626D01*
X259074Y4613973D01*
X260760Y4614545D01*
X262357Y4615333D01*
X263837Y4616322D01*
X265176Y4617496D01*
X266350Y4618835D01*
X267339Y4620315D01*
X268127Y4621912D01*
X268699Y4623598D01*
X269046Y4625344D01*
X269163Y4627121D01*
X269046Y4628898D01*
X268699Y4630644D01*
X268127Y4632330D01*
X267339Y4633927D01*
X266350Y4635407D01*
X265176Y4636746D01*
X263837Y4637920D01*
X262357Y4638909D01*
X260760Y4639697D01*
X259074Y4640269D01*
X257328Y4640616D01*
X255551Y4640733D01*
D02*
G37*
G36*
X252795Y4576957D02*
X250149Y4576827D01*
X247528Y4576438D01*
X244957Y4575794D01*
X242463Y4574901D01*
X240067Y4573768D01*
X237794Y4572406D01*
X235666Y4570828D01*
X233703Y4569048D01*
X231923Y4567085D01*
X230345Y4564957D01*
X228982Y4562684D01*
X227850Y4560288D01*
X226957Y4557793D01*
X226313Y4555223D01*
X225924Y4552602D01*
X225794Y4549956D01*
X225924Y4547309D01*
X226313Y4544688D01*
X226957Y4542118D01*
X227850Y4539623D01*
X228982Y4537227D01*
X230345Y4534954D01*
X231923Y4532826D01*
X233703Y4530863D01*
X235666Y4529083D01*
X237794Y4527505D01*
X240067Y4526143D01*
X242463Y4525010D01*
X244957Y4524117D01*
X247528Y4523473D01*
X250149Y4523084D01*
X252795Y4522954D01*
X255442Y4523084D01*
X258063Y4523473D01*
X260633Y4524117D01*
X263128Y4525010D01*
X265524Y4526143D01*
X267796Y4527505D01*
X269925Y4529083D01*
X271888Y4530863D01*
X273667Y4532826D01*
X275246Y4534954D01*
X276608Y4537227D01*
X277741Y4539623D01*
X278634Y4542118D01*
X279277Y4544688D01*
X279666Y4547309D01*
X279796Y4549956D01*
X279666Y4552602D01*
X279277Y4555223D01*
X278634Y4557793D01*
X277741Y4560288D01*
X276608Y4562684D01*
X275246Y4564957D01*
X273667Y4567085D01*
X271888Y4569048D01*
X269925Y4570828D01*
X267796Y4572406D01*
X265524Y4573768D01*
X263128Y4574901D01*
X260633Y4575794D01*
X258063Y4576438D01*
X255442Y4576827D01*
X252795Y4576957D01*
D02*
G37*
G36*
X328386Y4483252D02*
X326609Y4483136D01*
X324863Y4482788D01*
X323177Y4482216D01*
X321580Y4481429D01*
X320100Y4480439D01*
X318761Y4479265D01*
X317587Y4477927D01*
X316598Y4476446D01*
X315810Y4474850D01*
X315238Y4473163D01*
X314891Y4471417D01*
X314774Y4469641D01*
X314891Y4467864D01*
X315238Y4466118D01*
X315810Y4464431D01*
X316598Y4462835D01*
X317587Y4461354D01*
X318761Y4460016D01*
X320100Y4458842D01*
X321580Y4457852D01*
X323177Y4457065D01*
X324863Y4456493D01*
X326609Y4456145D01*
X328386Y4456029D01*
X330163Y4456145D01*
X331909Y4456493D01*
X333595Y4457065D01*
X335192Y4457852D01*
X336672Y4458842D01*
X338011Y4460016D01*
X339185Y4461354D01*
X340174Y4462835D01*
X340962Y4464431D01*
X341534Y4466118D01*
X341881Y4467864D01*
X341998Y4469641D01*
X341881Y4471417D01*
X341534Y4473163D01*
X340962Y4474850D01*
X340174Y4476446D01*
X339185Y4477927D01*
X338011Y4479265D01*
X336672Y4480439D01*
X335192Y4481429D01*
X333595Y4482216D01*
X331909Y4482788D01*
X330163Y4483136D01*
X328386Y4483252D01*
D02*
G37*
G36*
X379567Y4471441D02*
X377790Y4471325D01*
X376044Y4470977D01*
X374358Y4470405D01*
X372761Y4469618D01*
X371281Y4468628D01*
X369942Y4467454D01*
X368768Y4466116D01*
X367779Y4464635D01*
X366991Y4463038D01*
X366419Y4461352D01*
X366072Y4459606D01*
X365955Y4457829D01*
X366072Y4456053D01*
X366419Y4454306D01*
X366991Y4452620D01*
X367779Y4451024D01*
X368768Y4449543D01*
X369942Y4448205D01*
X371281Y4447031D01*
X372761Y4446041D01*
X374358Y4445254D01*
X376044Y4444682D01*
X377790Y4444334D01*
X379567Y4444218D01*
X381344Y4444334D01*
X383090Y4444682D01*
X384776Y4445254D01*
X386373Y4446041D01*
X387853Y4447031D01*
X389192Y4448205D01*
X390366Y4449543D01*
X391355Y4451024D01*
X392143Y4452620D01*
X392715Y4454306D01*
X393062Y4456053D01*
X393179Y4457829D01*
X393062Y4459606D01*
X392715Y4461352D01*
X392143Y4463038D01*
X391355Y4464635D01*
X390366Y4466116D01*
X389192Y4467454D01*
X387853Y4468628D01*
X386373Y4469618D01*
X384776Y4470405D01*
X383090Y4470977D01*
X381344Y4471325D01*
X379567Y4471441D01*
D02*
G37*
G36*
X1496063Y3743179D02*
X1490763Y3742125D01*
X1486271Y3739123D01*
X1483268Y3734630D01*
X1482214Y3729331D01*
X1483268Y3724031D01*
X1486271Y3719538D01*
X1490763Y3716536D01*
X1496063Y3715482D01*
X1501363Y3716536D01*
X1505855Y3719538D01*
X1508858Y3724031D01*
X1509912Y3729331D01*
X1508858Y3734630D01*
X1505855Y3739123D01*
X1501363Y3742125D01*
X1496063Y3743179D01*
D02*
G37*
G36*
X1492126Y3633927D02*
X1486826Y3632873D01*
X1482333Y3629871D01*
X1479332Y3625378D01*
X1478277Y3620079D01*
X1479332Y3614779D01*
X1482333Y3610286D01*
X1486826Y3607284D01*
X1492126Y3606230D01*
X1497426Y3607284D01*
X1501918Y3610286D01*
X1504920Y3614779D01*
X1505975Y3620079D01*
X1504920Y3625378D01*
X1501918Y3629871D01*
X1497426Y3632873D01*
X1492126Y3633927D01*
D02*
G37*
G36*
X1353347Y3629990D02*
X1348047Y3628936D01*
X1343554Y3625934D01*
X1340552Y3621441D01*
X1339498Y3616142D01*
X1340552Y3610842D01*
X1343554Y3606349D01*
X1348047Y3603347D01*
X1353347Y3602293D01*
X1358646Y3603347D01*
X1363139Y3606349D01*
X1366141Y3610842D01*
X1367195Y3616142D01*
X1366141Y3621441D01*
X1363139Y3625934D01*
X1358646Y3628936D01*
X1353347Y3629990D01*
D02*
G37*
G36*
X1327756Y3581762D02*
X1322456Y3580708D01*
X1317963Y3577706D01*
X1314961Y3573213D01*
X1313907Y3567913D01*
X1314961Y3562614D01*
X1317963Y3558121D01*
X1322456Y3555119D01*
X1327756Y3554065D01*
X1333056Y3555119D01*
X1337548Y3558121D01*
X1340550Y3562614D01*
X1341605Y3567913D01*
X1340550Y3573213D01*
X1337548Y3577706D01*
X1333056Y3580708D01*
X1327756Y3581762D01*
D02*
G37*
G36*
X1476378Y3574872D02*
X1471078Y3573818D01*
X1466585Y3570816D01*
X1463583Y3566323D01*
X1462529Y3561024D01*
X1463583Y3555724D01*
X1466585Y3551231D01*
X1471078Y3548229D01*
X1476378Y3547175D01*
X1481678Y3548229D01*
X1486170Y3551231D01*
X1489172Y3555724D01*
X1490227Y3561024D01*
X1489172Y3566323D01*
X1486170Y3570816D01*
X1481678Y3573818D01*
X1476378Y3574872D01*
D02*
G37*
G36*
X1226378Y3537471D02*
X1221078Y3536416D01*
X1216585Y3533414D01*
X1213583Y3528922D01*
X1212529Y3523622D01*
X1213583Y3518322D01*
X1216585Y3513829D01*
X1221078Y3510827D01*
X1226378Y3509773D01*
X1231678Y3510827D01*
X1236170Y3513829D01*
X1239172Y3518322D01*
X1240227Y3523622D01*
X1239172Y3528922D01*
X1236170Y3533414D01*
X1231678Y3536416D01*
X1226378Y3537471D01*
D02*
G37*
G36*
X1377953Y3505975D02*
X1372653Y3504921D01*
X1368160Y3501919D01*
X1365158Y3497426D01*
X1364104Y3492126D01*
X1365158Y3486826D01*
X1368160Y3482334D01*
X1372653Y3479331D01*
X1377953Y3478277D01*
X1383253Y3479331D01*
X1387745Y3482334D01*
X1390747Y3486826D01*
X1391802Y3492126D01*
X1390747Y3497426D01*
X1387745Y3501919D01*
X1383253Y3504921D01*
X1377953Y3505975D01*
D02*
G37*
G36*
X1079724Y3494164D02*
X1074425Y3493110D01*
X1069932Y3490108D01*
X1066930Y3485615D01*
X1065876Y3480315D01*
X1066930Y3475015D01*
X1069932Y3470523D01*
X1074425Y3467521D01*
X1079724Y3466466D01*
X1085024Y3467521D01*
X1089517Y3470523D01*
X1092519Y3475015D01*
X1093573Y3480315D01*
X1092519Y3485615D01*
X1089517Y3490108D01*
X1085024Y3493110D01*
X1079724Y3494164D01*
D02*
G37*
G36*
X1319882Y3458731D02*
X1314582Y3457676D01*
X1310089Y3454674D01*
X1307087Y3450182D01*
X1306033Y3444882D01*
X1307087Y3439582D01*
X1310089Y3435089D01*
X1314582Y3432087D01*
X1319882Y3431033D01*
X1325182Y3432087D01*
X1329674Y3435089D01*
X1332676Y3439582D01*
X1333731Y3444882D01*
X1332676Y3450182D01*
X1329674Y3454674D01*
X1325182Y3457676D01*
X1319882Y3458731D01*
D02*
G37*
G36*
X1171260Y3457746D02*
X1165960Y3456692D01*
X1161467Y3453690D01*
X1158465Y3449197D01*
X1157411Y3443898D01*
X1158465Y3438598D01*
X1161467Y3434105D01*
X1165960Y3431103D01*
X1171260Y3430049D01*
X1176560Y3431103D01*
X1181052Y3434105D01*
X1184054Y3438598D01*
X1185109Y3443898D01*
X1184054Y3449197D01*
X1181052Y3453690D01*
X1176560Y3456692D01*
X1171260Y3457746D01*
D02*
G37*
G36*
X1510000Y3391849D02*
X1504700Y3390794D01*
X1500207Y3387793D01*
X1497206Y3383300D01*
X1496151Y3378000D01*
X1497206Y3372700D01*
X1500207Y3368207D01*
X1504700Y3365206D01*
X1510000Y3364151D01*
X1515300Y3365206D01*
X1519793Y3368207D01*
X1522794Y3372700D01*
X1523849Y3378000D01*
X1522794Y3383300D01*
X1519793Y3387793D01*
X1515300Y3390794D01*
X1510000Y3391849D01*
D02*
G37*
G36*
X1037402Y3408553D02*
X1031718Y3407423D01*
X1026899Y3404203D01*
X1023680Y3399385D01*
X1022549Y3393701D01*
X1023680Y3388017D01*
X1026899Y3383199D01*
X1043632Y3366466D01*
X1048450Y3363247D01*
X1054134Y3362116D01*
X1059818Y3363247D01*
X1064636Y3366466D01*
X1067856Y3371285D01*
X1068986Y3376968D01*
X1067856Y3382652D01*
X1064636Y3387471D01*
X1047904Y3404203D01*
X1043085Y3407423D01*
X1037402Y3408553D01*
D02*
G37*
G36*
X1007874Y3385896D02*
X1002574Y3384842D01*
X998082Y3381840D01*
X995080Y3377347D01*
X994025Y3372047D01*
X995080Y3366747D01*
X998082Y3362255D01*
X1002574Y3359253D01*
X1007874Y3358198D01*
X1013174Y3359253D01*
X1017667Y3362255D01*
X1020668Y3366747D01*
X1021723Y3372047D01*
X1020668Y3377347D01*
X1017667Y3381840D01*
X1013174Y3384842D01*
X1007874Y3385896D01*
D02*
G37*
G36*
X946850Y3365227D02*
X941551Y3364173D01*
X937058Y3361171D01*
X934056Y3356678D01*
X933002Y3351378D01*
X934056Y3346078D01*
X937058Y3341586D01*
X941551Y3338584D01*
X946850Y3337529D01*
X952150Y3338584D01*
X956643Y3341586D01*
X959645Y3346078D01*
X960699Y3351378D01*
X959645Y3356678D01*
X956643Y3361171D01*
X952150Y3364173D01*
X946850Y3365227D01*
D02*
G37*
G36*
X1204724Y3339636D02*
X1199425Y3338582D01*
X1194932Y3335580D01*
X1191930Y3331087D01*
X1190876Y3325787D01*
X1191930Y3320488D01*
X1194932Y3315995D01*
X1199425Y3312993D01*
X1204724Y3311939D01*
X1210024Y3312993D01*
X1214517Y3315995D01*
X1217519Y3320488D01*
X1218573Y3325787D01*
X1217519Y3331087D01*
X1214517Y3335580D01*
X1210024Y3338582D01*
X1204724Y3339636D01*
D02*
G37*
G36*
X1388780Y3338652D02*
X1383480Y3337598D01*
X1378987Y3334596D01*
X1375985Y3330103D01*
X1374931Y3324803D01*
X1375985Y3319503D01*
X1378987Y3315011D01*
X1383480Y3312009D01*
X1388780Y3310954D01*
X1394079Y3312009D01*
X1398572Y3315011D01*
X1401574Y3319503D01*
X1402628Y3324803D01*
X1401574Y3330103D01*
X1398572Y3334596D01*
X1394079Y3337598D01*
X1388780Y3338652D01*
D02*
G37*
G36*
X1334646Y3296329D02*
X1329346Y3295275D01*
X1324853Y3292273D01*
X1321851Y3287780D01*
X1320797Y3282480D01*
X1321851Y3277181D01*
X1324853Y3272688D01*
X1329346Y3269686D01*
X1334646Y3268632D01*
X1339945Y3269686D01*
X1344438Y3272688D01*
X1347440Y3277181D01*
X1348494Y3282480D01*
X1347440Y3287780D01*
X1344438Y3292273D01*
X1339945Y3295275D01*
X1334646Y3296329D01*
D02*
G37*
G36*
X1874016Y3287471D02*
X1868716Y3286416D01*
X1864223Y3283414D01*
X1861221Y3278922D01*
X1860167Y3273622D01*
X1861221Y3268322D01*
X1864223Y3263829D01*
X1868716Y3260827D01*
X1874016Y3259773D01*
X1879315Y3260827D01*
X1883808Y3263829D01*
X1886810Y3268322D01*
X1887864Y3273622D01*
X1886810Y3278922D01*
X1883808Y3283414D01*
X1879315Y3286416D01*
X1874016Y3287471D01*
D02*
G37*
G36*
X1773622Y3228416D02*
X1768322Y3227361D01*
X1763830Y3224359D01*
X1760828Y3219867D01*
X1759773Y3214567D01*
X1760828Y3209267D01*
X1763830Y3204774D01*
X1768322Y3201772D01*
X1773622Y3200718D01*
X1778922Y3201772D01*
X1783415Y3204774D01*
X1786417Y3209267D01*
X1787471Y3214567D01*
X1786417Y3219867D01*
X1783415Y3224359D01*
X1778922Y3227361D01*
X1773622Y3228416D01*
D02*
G37*
G36*
X1243110Y3156565D02*
X1237811Y3155511D01*
X1233318Y3152509D01*
X1230316Y3148016D01*
X1229262Y3142716D01*
X1230316Y3137417D01*
X1233318Y3132924D01*
X1237811Y3129922D01*
X1243110Y3128868D01*
X1248410Y3129922D01*
X1252903Y3132924D01*
X1255905Y3137417D01*
X1256959Y3142716D01*
X1255905Y3148016D01*
X1252903Y3152509D01*
X1248410Y3155511D01*
X1243110Y3156565D01*
D02*
G37*
G36*
X1179134Y3152628D02*
X1173834Y3151574D01*
X1169341Y3148572D01*
X1166339Y3144079D01*
X1165285Y3138780D01*
X1166339Y3133480D01*
X1169341Y3128987D01*
X1173834Y3125985D01*
X1179134Y3124931D01*
X1184434Y3125985D01*
X1188926Y3128987D01*
X1191928Y3133480D01*
X1192983Y3138780D01*
X1191928Y3144079D01*
X1188926Y3148572D01*
X1184434Y3151574D01*
X1179134Y3152628D01*
D02*
G37*
G36*
X1033465Y3183159D02*
X1027781Y3182029D01*
X1022962Y3178809D01*
X1019743Y3173991D01*
X1018612Y3168307D01*
Y3145669D01*
X1019743Y3139986D01*
X1022962Y3135167D01*
X1027781Y3131948D01*
X1033465Y3130817D01*
X1039148Y3131948D01*
X1043967Y3135167D01*
X1044279Y3135635D01*
X1049587Y3134579D01*
X1050198Y3131511D01*
X1053200Y3127019D01*
X1057692Y3124017D01*
X1062992Y3122962D01*
X1068292Y3124017D01*
X1072785Y3127019D01*
X1075787Y3131511D01*
X1076841Y3136811D01*
X1075787Y3142111D01*
X1072785Y3146604D01*
X1068292Y3149606D01*
X1062992Y3150660D01*
X1057692Y3149606D01*
X1053317Y3146682D01*
X1052577Y3146819D01*
X1048317Y3148296D01*
Y3168307D01*
X1047186Y3173991D01*
X1043967Y3178809D01*
X1039148Y3182029D01*
X1033465Y3183159D01*
D02*
G37*
G36*
X1298228Y3146723D02*
X1292929Y3145669D01*
X1288436Y3142666D01*
X1285434Y3138174D01*
X1284380Y3132874D01*
X1285434Y3127574D01*
X1288436Y3123081D01*
X1292929Y3120079D01*
X1298228Y3119025D01*
X1303528Y3120079D01*
X1308021Y3123081D01*
X1311023Y3127574D01*
X1312077Y3132874D01*
X1311023Y3138174D01*
X1308021Y3142666D01*
X1303528Y3145669D01*
X1298228Y3146723D01*
D02*
G37*
G36*
X1561024Y3145738D02*
X1555724Y3144684D01*
X1551231Y3141682D01*
X1548229Y3137189D01*
X1547175Y3131890D01*
X1548229Y3126590D01*
X1551231Y3122097D01*
X1555724Y3119095D01*
X1561024Y3118041D01*
X1566323Y3119095D01*
X1570816Y3122097D01*
X1573818Y3126590D01*
X1574872Y3131890D01*
X1573818Y3137189D01*
X1570816Y3141682D01*
X1566323Y3144684D01*
X1561024Y3145738D01*
D02*
G37*
G36*
X1453740Y3143770D02*
X1448440Y3142716D01*
X1443948Y3139714D01*
X1440946Y3135221D01*
X1439891Y3129921D01*
X1440946Y3124622D01*
X1443948Y3120129D01*
X1448440Y3117127D01*
X1453740Y3116073D01*
X1459040Y3117127D01*
X1463533Y3120129D01*
X1466535Y3124622D01*
X1467589Y3129921D01*
X1466535Y3135221D01*
X1463533Y3139714D01*
X1459040Y3142716D01*
X1453740Y3143770D01*
D02*
G37*
G36*
X1692913Y3141802D02*
X1687614Y3140747D01*
X1683121Y3137745D01*
X1680119Y3133253D01*
X1679065Y3127953D01*
X1680119Y3122653D01*
X1683121Y3118160D01*
X1687614Y3115158D01*
X1692913Y3114104D01*
X1698213Y3115158D01*
X1702706Y3118160D01*
X1705708Y3122653D01*
X1706762Y3127953D01*
X1705708Y3133253D01*
X1702706Y3137745D01*
X1698213Y3140747D01*
X1692913Y3141802D01*
D02*
G37*
G36*
X1689961Y3051250D02*
X1684661Y3050196D01*
X1680168Y3047194D01*
X1677166Y3042701D01*
X1676112Y3037402D01*
X1677166Y3032102D01*
X1680168Y3027609D01*
X1684661Y3024607D01*
X1689961Y3023553D01*
X1695260Y3024607D01*
X1699753Y3027609D01*
X1702755Y3032102D01*
X1703809Y3037402D01*
X1702755Y3042701D01*
X1699753Y3047194D01*
X1695260Y3050196D01*
X1689961Y3051250D01*
D02*
G37*
G36*
X1073819Y3078809D02*
X1068519Y3077755D01*
X1064026Y3074753D01*
X1061024Y3070260D01*
X1059970Y3064961D01*
X1061024Y3059661D01*
X1064026Y3055168D01*
X1064360Y3054945D01*
X1064596Y3054014D01*
X1064017Y3049161D01*
X1061074Y3047194D01*
X1058072Y3042701D01*
X1057017Y3037402D01*
X1058072Y3032102D01*
X1061074Y3027609D01*
X1065566Y3024607D01*
X1070866Y3023553D01*
X1076166Y3024607D01*
X1080659Y3027609D01*
X1083661Y3032102D01*
X1084715Y3037402D01*
X1083661Y3042701D01*
X1080659Y3047194D01*
X1080325Y3047417D01*
X1080089Y3048349D01*
X1080668Y3053201D01*
X1083611Y3055168D01*
X1086613Y3059661D01*
X1087668Y3064961D01*
X1086613Y3070260D01*
X1083611Y3074753D01*
X1079119Y3077755D01*
X1073819Y3078809D01*
D02*
G37*
G36*
X1490158Y3047313D02*
X1484858Y3046259D01*
X1480365Y3043257D01*
X1477363Y3038764D01*
X1476309Y3033465D01*
X1477363Y3028165D01*
X1480365Y3023672D01*
X1484858Y3020670D01*
X1490158Y3019616D01*
X1495457Y3020670D01*
X1499950Y3023672D01*
X1502952Y3028165D01*
X1504006Y3033465D01*
X1502952Y3038764D01*
X1499950Y3043257D01*
X1495457Y3046259D01*
X1490158Y3047313D01*
D02*
G37*
G36*
X1165354Y3042392D02*
X1160055Y3041338D01*
X1155562Y3038336D01*
X1152560Y3033843D01*
X1151506Y3028543D01*
X1152560Y3023244D01*
X1155562Y3018751D01*
X1160055Y3015749D01*
X1165354Y3014695D01*
X1170654Y3015749D01*
X1175147Y3018751D01*
X1178149Y3023244D01*
X1179203Y3028543D01*
X1178149Y3033843D01*
X1175147Y3038336D01*
X1170654Y3041338D01*
X1165354Y3042392D01*
D02*
G37*
G36*
X1454724Y2998101D02*
X1449425Y2997046D01*
X1444932Y2994044D01*
X1441930Y2989552D01*
X1440876Y2984252D01*
X1441930Y2978952D01*
X1444932Y2974459D01*
X1449425Y2971457D01*
X1454724Y2970403D01*
X1460024Y2971457D01*
X1464517Y2974459D01*
X1467519Y2978952D01*
X1468573Y2984252D01*
X1467519Y2989552D01*
X1464517Y2994044D01*
X1460024Y2997046D01*
X1454724Y2998101D01*
D02*
G37*
G36*
X1528543Y2995148D02*
X1523244Y2994094D01*
X1518751Y2991092D01*
X1515749Y2986599D01*
X1514695Y2981299D01*
X1515749Y2975999D01*
X1518751Y2971507D01*
X1523244Y2968505D01*
X1528543Y2967450D01*
X1533843Y2968505D01*
X1538336Y2971507D01*
X1541338Y2975999D01*
X1542392Y2981299D01*
X1541338Y2986599D01*
X1538336Y2991092D01*
X1533843Y2994094D01*
X1528543Y2995148D01*
D02*
G37*
G36*
X1689961Y2994164D02*
X1684661Y2993110D01*
X1680168Y2990108D01*
X1677166Y2985615D01*
X1676112Y2980315D01*
X1677166Y2975015D01*
X1680168Y2970523D01*
X1684661Y2967521D01*
X1689961Y2966466D01*
X1695260Y2967521D01*
X1699753Y2970523D01*
X1702755Y2975015D01*
X1703809Y2980315D01*
X1702755Y2985615D01*
X1699753Y2990108D01*
X1695260Y2993110D01*
X1689961Y2994164D01*
D02*
G37*
G36*
X1018346Y2992218D02*
X1013047Y2991164D01*
X1008554Y2988162D01*
X1005552Y2983669D01*
X1004498Y2978369D01*
X1005552Y2973070D01*
X1008554Y2968577D01*
X1013047Y2965575D01*
X1018346Y2964521D01*
X1023646Y2965575D01*
X1028139Y2968577D01*
X1031141Y2973070D01*
X1032195Y2978369D01*
X1031141Y2983669D01*
X1028139Y2988162D01*
X1023646Y2991164D01*
X1018346Y2992218D01*
D02*
G37*
G36*
X1742662Y2949931D02*
X1737362Y2948877D01*
X1732869Y2945875D01*
X1729867Y2941382D01*
X1728813Y2936083D01*
X1729867Y2930783D01*
X1732869Y2926290D01*
X1737362Y2923288D01*
X1742662Y2922234D01*
X1747961Y2923288D01*
X1752454Y2926290D01*
X1755456Y2930783D01*
X1756510Y2936083D01*
X1755456Y2941382D01*
X1752454Y2945875D01*
X1747961Y2948877D01*
X1742662Y2949931D01*
D02*
G37*
G36*
X1322835Y2918376D02*
X1317535Y2917322D01*
X1313042Y2914320D01*
X1310040Y2909827D01*
X1308986Y2904528D01*
X1310040Y2899228D01*
X1313042Y2894735D01*
X1317535Y2891733D01*
X1322835Y2890679D01*
X1328134Y2891733D01*
X1332627Y2894735D01*
X1335629Y2899228D01*
X1336683Y2904528D01*
X1335629Y2909827D01*
X1332627Y2914320D01*
X1328134Y2917322D01*
X1322835Y2918376D01*
D02*
G37*
G36*
X1159449Y2909518D02*
X1154149Y2908464D01*
X1149656Y2905462D01*
X1146654Y2900969D01*
X1145600Y2895669D01*
X1146654Y2890370D01*
X1149656Y2885877D01*
X1154149Y2882875D01*
X1159449Y2881821D01*
X1164748Y2882875D01*
X1169241Y2885877D01*
X1172243Y2890370D01*
X1173297Y2895669D01*
X1172243Y2900969D01*
X1169241Y2905462D01*
X1164748Y2908464D01*
X1159449Y2909518D01*
D02*
G37*
G36*
X1687992Y2907550D02*
X1682692Y2906495D01*
X1678200Y2903493D01*
X1675198Y2899001D01*
X1674143Y2893701D01*
X1675198Y2888401D01*
X1678200Y2883908D01*
X1682692Y2880906D01*
X1687992Y2879852D01*
X1693292Y2880906D01*
X1697785Y2883908D01*
X1700787Y2888401D01*
X1701841Y2893701D01*
X1700787Y2899001D01*
X1697785Y2903493D01*
X1693292Y2906495D01*
X1687992Y2907550D01*
D02*
G37*
G36*
X1522638Y2899675D02*
X1517338Y2898621D01*
X1512845Y2895619D01*
X1509843Y2891126D01*
X1508789Y2885827D01*
X1509843Y2880527D01*
X1512845Y2876034D01*
X1517338Y2873032D01*
X1522638Y2871978D01*
X1527938Y2873032D01*
X1532430Y2876034D01*
X1535432Y2880527D01*
X1536486Y2885827D01*
X1535432Y2891126D01*
X1532430Y2895619D01*
X1527938Y2898621D01*
X1522638Y2899675D01*
D02*
G37*
G36*
X1035497Y2876352D02*
X1030197Y2875298D01*
X1025704Y2872296D01*
X1022702Y2867803D01*
X1022213Y2865342D01*
X1022117Y2865279D01*
X916386Y2759547D01*
X914789Y2757158D01*
X914467Y2755539D01*
X913303Y2754401D01*
X911139Y2752938D01*
X909552Y2752218D01*
X905512Y2753022D01*
X900212Y2751968D01*
X895719Y2748966D01*
X892717Y2744473D01*
X891663Y2739173D01*
X892717Y2733874D01*
X895719Y2729381D01*
X900212Y2726379D01*
X905512Y2725325D01*
X910812Y2726379D01*
X915304Y2729381D01*
X918306Y2733874D01*
X919361Y2739173D01*
X918709Y2742449D01*
X920617Y2745440D01*
X921764Y2746689D01*
X922484Y2747150D01*
X924413Y2747534D01*
X926803Y2749130D01*
X1028509Y2850836D01*
X1030197Y2849709D01*
X1035497Y2848655D01*
X1040796Y2849709D01*
X1045289Y2852711D01*
X1048291Y2857204D01*
X1049345Y2862503D01*
X1048291Y2867803D01*
X1045289Y2872296D01*
X1040796Y2875298D01*
X1035497Y2876352D01*
D02*
G37*
G36*
X1107284Y2863258D02*
X1101984Y2862204D01*
X1097491Y2859202D01*
X1094489Y2854709D01*
X1093435Y2849409D01*
X1094489Y2844110D01*
X1097491Y2839617D01*
X1101984Y2836615D01*
X1107284Y2835561D01*
X1112583Y2836615D01*
X1117076Y2839617D01*
X1120078Y2844110D01*
X1121132Y2849409D01*
X1120078Y2854709D01*
X1117076Y2859202D01*
X1112583Y2862204D01*
X1107284Y2863258D01*
D02*
G37*
G36*
X1504921Y2833731D02*
X1499622Y2832676D01*
X1495129Y2829674D01*
X1492127Y2825182D01*
X1491073Y2819882D01*
X1492127Y2814582D01*
X1495129Y2810089D01*
X1499622Y2807087D01*
X1504921Y2806033D01*
X1510221Y2807087D01*
X1514714Y2810089D01*
X1517716Y2814582D01*
X1518770Y2819882D01*
X1517716Y2825182D01*
X1514714Y2829674D01*
X1510221Y2832676D01*
X1504921Y2833731D01*
D02*
G37*
G36*
X1697481Y2844963D02*
X1687718Y2843678D01*
X1678619Y2839909D01*
X1670806Y2833914D01*
X1664811Y2826101D01*
X1661043Y2817003D01*
X1659757Y2807239D01*
X1661043Y2797475D01*
X1664811Y2788377D01*
X1670806Y2780564D01*
X1678619Y2774569D01*
X1687718Y2770800D01*
X1697481Y2769515D01*
X1707245Y2770800D01*
X1716343Y2774569D01*
X1724156Y2780564D01*
X1730151Y2788377D01*
X1733920Y2797475D01*
X1735206Y2807239D01*
X1733920Y2817003D01*
X1730151Y2826101D01*
X1724156Y2833914D01*
X1716343Y2839909D01*
X1707245Y2843678D01*
X1697481Y2844963D01*
D02*
G37*
G36*
X1067560D02*
X1057796Y2843678D01*
X1048698Y2839909D01*
X1040885Y2833914D01*
X1034890Y2826101D01*
X1031121Y2817003D01*
X1029836Y2807239D01*
X1031121Y2797475D01*
X1034890Y2788377D01*
X1040885Y2780564D01*
X1048698Y2774569D01*
X1057796Y2770800D01*
X1067560Y2769515D01*
X1077324Y2770800D01*
X1086422Y2774569D01*
X1094235Y2780564D01*
X1100230Y2788377D01*
X1103999Y2797475D01*
X1105284Y2807239D01*
X1103999Y2817003D01*
X1100230Y2826101D01*
X1094235Y2833914D01*
X1086422Y2839909D01*
X1077324Y2843678D01*
X1067560Y2844963D01*
D02*
G37*
G36*
X1862205Y2752038D02*
X1856905Y2750983D01*
X1852412Y2747981D01*
X1849410Y2743489D01*
X1848356Y2738189D01*
X1849410Y2732889D01*
X1852412Y2728396D01*
X1856905Y2725394D01*
X1862205Y2724340D01*
X1867504Y2725394D01*
X1871997Y2728396D01*
X1874999Y2732889D01*
X1876053Y2738189D01*
X1874999Y2743489D01*
X1871997Y2747981D01*
X1867504Y2750983D01*
X1862205Y2752038D01*
D02*
G37*
G36*
X1700787D02*
X1695488Y2750983D01*
X1690995Y2747981D01*
X1687993Y2743489D01*
X1686939Y2738189D01*
X1687993Y2732889D01*
X1690995Y2728396D01*
X1695488Y2725394D01*
X1700787Y2724340D01*
X1706087Y2725394D01*
X1710580Y2728396D01*
X1713582Y2732889D01*
X1714636Y2738189D01*
X1713582Y2743489D01*
X1710580Y2747981D01*
X1706087Y2750983D01*
X1700787Y2752038D01*
D02*
G37*
G36*
X1347441Y2626053D02*
X1342141Y2624999D01*
X1337648Y2621997D01*
X1334646Y2617504D01*
X1333592Y2612205D01*
X1334646Y2606905D01*
X1337648Y2602412D01*
X1342141Y2599410D01*
X1347441Y2598356D01*
X1352741Y2599410D01*
X1357233Y2602412D01*
X1360235Y2606905D01*
X1361290Y2612205D01*
X1360235Y2617504D01*
X1357233Y2621997D01*
X1352741Y2624999D01*
X1347441Y2626053D01*
D02*
G37*
G36*
X1086614Y2582746D02*
X1081314Y2581692D01*
X1076822Y2578690D01*
X1073820Y2574197D01*
X1072765Y2568898D01*
X1073820Y2563598D01*
X1076822Y2559105D01*
X1081314Y2556103D01*
X1086614Y2555049D01*
X1091914Y2556103D01*
X1096407Y2559105D01*
X1099409Y2563598D01*
X1100463Y2568898D01*
X1099409Y2574197D01*
X1096407Y2578690D01*
X1091914Y2581692D01*
X1086614Y2582746D01*
D02*
G37*
G36*
X1558071Y2549282D02*
X1552771Y2548228D01*
X1548278Y2545226D01*
X1545276Y2540733D01*
X1544222Y2535433D01*
X1545276Y2530133D01*
X1548278Y2525641D01*
X1552771Y2522639D01*
X1558071Y2521584D01*
X1563371Y2522639D01*
X1567863Y2525641D01*
X1570865Y2530133D01*
X1571920Y2535433D01*
X1570865Y2540733D01*
X1567863Y2545226D01*
X1563371Y2548228D01*
X1558071Y2549282D01*
D02*
G37*
G36*
X1083661Y2524675D02*
X1078362Y2523621D01*
X1073869Y2520619D01*
X1070867Y2516126D01*
X1069813Y2510827D01*
X1070867Y2505527D01*
X1073869Y2501034D01*
X1078362Y2498032D01*
X1083661Y2496978D01*
X1088961Y2498032D01*
X1093454Y2501034D01*
X1096456Y2505527D01*
X1097510Y2510827D01*
X1096456Y2516126D01*
X1093454Y2520619D01*
X1088961Y2523621D01*
X1083661Y2524675D01*
D02*
G37*
G36*
X1247047Y2521723D02*
X1241747Y2520669D01*
X1237255Y2517666D01*
X1234253Y2513174D01*
X1233198Y2507874D01*
X1234253Y2502574D01*
X1237255Y2498081D01*
X1241747Y2495079D01*
X1247047Y2494025D01*
X1252347Y2495079D01*
X1256840Y2498081D01*
X1259842Y2502574D01*
X1260896Y2507874D01*
X1259842Y2513174D01*
X1256840Y2517666D01*
X1252347Y2520669D01*
X1247047Y2521723D01*
D02*
G37*
G36*
X1537402Y2516802D02*
X1532102Y2515747D01*
X1527609Y2512745D01*
X1524607Y2508253D01*
X1523553Y2502953D01*
X1524607Y2497653D01*
X1527609Y2493160D01*
X1532102Y2490158D01*
X1537402Y2489104D01*
X1542701Y2490158D01*
X1547194Y2493160D01*
X1550196Y2497653D01*
X1551250Y2502953D01*
X1550196Y2508253D01*
X1547194Y2512745D01*
X1542701Y2515747D01*
X1537402Y2516802D01*
D02*
G37*
G36*
X1027559Y2490227D02*
X1022259Y2489173D01*
X1017767Y2486171D01*
X1014765Y2481678D01*
X1013710Y2476378D01*
X1014765Y2471078D01*
X1017767Y2466586D01*
X1022259Y2463584D01*
X1027559Y2462529D01*
X1032859Y2463584D01*
X1037352Y2466586D01*
X1040354Y2471078D01*
X1041408Y2476378D01*
X1040354Y2481678D01*
X1037352Y2486171D01*
X1032859Y2489173D01*
X1027559Y2490227D01*
D02*
G37*
G36*
X1596457Y2464636D02*
X1591157Y2463582D01*
X1586664Y2460580D01*
X1583662Y2456087D01*
X1582608Y2450787D01*
X1583662Y2445488D01*
X1586664Y2440995D01*
X1591157Y2437993D01*
X1596457Y2436939D01*
X1601756Y2437993D01*
X1606249Y2440995D01*
X1609251Y2445488D01*
X1610305Y2450787D01*
X1609251Y2456087D01*
X1606249Y2460580D01*
X1601756Y2463582D01*
X1596457Y2464636D01*
D02*
G37*
G36*
X1375984Y2459715D02*
X1370685Y2458661D01*
X1366192Y2455659D01*
X1363190Y2451166D01*
X1362136Y2445866D01*
X1363190Y2440566D01*
X1366192Y2436074D01*
X1370685Y2433072D01*
X1375984Y2432017D01*
X1381284Y2433072D01*
X1385777Y2436074D01*
X1388779Y2440566D01*
X1389833Y2445866D01*
X1388779Y2451166D01*
X1385777Y2455659D01*
X1381284Y2458661D01*
X1375984Y2459715D01*
D02*
G37*
G36*
X1503937Y2457746D02*
X1498637Y2456692D01*
X1494145Y2453690D01*
X1491142Y2449197D01*
X1490088Y2443898D01*
X1491142Y2438598D01*
X1494145Y2434105D01*
X1498637Y2431103D01*
X1503937Y2430049D01*
X1509237Y2431103D01*
X1513729Y2434105D01*
X1516732Y2438598D01*
X1517786Y2443898D01*
X1516732Y2449197D01*
X1513729Y2453690D01*
X1509237Y2456692D01*
X1503937Y2457746D01*
D02*
G37*
G36*
X1734252Y2450857D02*
X1728952Y2449802D01*
X1724459Y2446800D01*
X1721457Y2442308D01*
X1720403Y2437008D01*
X1721457Y2431708D01*
X1724459Y2427215D01*
X1728952Y2424213D01*
X1734252Y2423159D01*
X1739552Y2424213D01*
X1744044Y2427215D01*
X1747046Y2431708D01*
X1748101Y2437008D01*
X1747046Y2442308D01*
X1744044Y2446800D01*
X1739552Y2449802D01*
X1734252Y2450857D01*
D02*
G37*
G36*
X1809055Y2441014D02*
X1803755Y2439960D01*
X1799263Y2436958D01*
X1796261Y2432465D01*
X1795206Y2427165D01*
X1796261Y2421866D01*
X1799263Y2417373D01*
X1803755Y2414371D01*
X1809055Y2413317D01*
X1814355Y2414371D01*
X1818848Y2417373D01*
X1821850Y2421866D01*
X1822904Y2427165D01*
X1821850Y2432465D01*
X1818848Y2436958D01*
X1814355Y2439960D01*
X1809055Y2441014D01*
D02*
G37*
G36*
X1897638Y2436093D02*
X1892338Y2435039D01*
X1887845Y2432037D01*
X1884843Y2427544D01*
X1883789Y2422244D01*
X1884843Y2416944D01*
X1887845Y2412452D01*
X1892338Y2409450D01*
X1897638Y2408395D01*
X1902938Y2409450D01*
X1907430Y2412452D01*
X1910432Y2416944D01*
X1911486Y2422244D01*
X1910432Y2427544D01*
X1907430Y2432037D01*
X1902938Y2435039D01*
X1897638Y2436093D01*
D02*
G37*
G36*
X1510000Y2343849D02*
X1504700Y2342794D01*
X1500207Y2339793D01*
X1497206Y2335300D01*
X1496151Y2330000D01*
X1497206Y2324700D01*
X1500207Y2320207D01*
X1504700Y2317206D01*
X1510000Y2316151D01*
X1515300Y2317206D01*
X1519793Y2320207D01*
X1522794Y2324700D01*
X1523849Y2330000D01*
X1522794Y2335300D01*
X1519793Y2339793D01*
X1515300Y2342794D01*
X1510000Y2343849D01*
D02*
G37*
G36*
X1156496Y2336683D02*
X1151196Y2335629D01*
X1146704Y2332627D01*
X1143702Y2328134D01*
X1142647Y2322835D01*
X1143702Y2317535D01*
X1146704Y2313042D01*
X1151196Y2310040D01*
X1156496Y2308986D01*
X1161796Y2310040D01*
X1166289Y2313042D01*
X1169291Y2317535D01*
X1170345Y2322835D01*
X1169291Y2328134D01*
X1166289Y2332627D01*
X1161796Y2335629D01*
X1156496Y2336683D01*
D02*
G37*
G36*
X1211614Y2335699D02*
X1206314Y2334645D01*
X1201822Y2331643D01*
X1198820Y2327150D01*
X1197765Y2321850D01*
X1198820Y2316551D01*
X1201822Y2312058D01*
X1206314Y2309056D01*
X1211614Y2308002D01*
X1216914Y2309056D01*
X1221407Y2312058D01*
X1224409Y2316551D01*
X1225463Y2321850D01*
X1224409Y2327150D01*
X1221407Y2331643D01*
X1216914Y2334645D01*
X1211614Y2335699D01*
D02*
G37*
G36*
X1241142Y2312077D02*
X1235842Y2311023D01*
X1231349Y2308021D01*
X1228347Y2303528D01*
X1227293Y2298228D01*
X1228347Y2292929D01*
X1231349Y2288436D01*
X1235842Y2285434D01*
X1241142Y2284380D01*
X1246441Y2285434D01*
X1250934Y2288436D01*
X1253936Y2292929D01*
X1254990Y2298228D01*
X1253936Y2303528D01*
X1250934Y2308021D01*
X1246441Y2311023D01*
X1241142Y2312077D01*
D02*
G37*
G36*
X1316339Y2278219D02*
X1311039Y2277165D01*
X1306546Y2274163D01*
X1303544Y2269670D01*
X1302490Y2264370D01*
X1303544Y2259070D01*
X1306546Y2254578D01*
X1311039Y2251576D01*
X1316339Y2250521D01*
X1321638Y2251576D01*
X1326131Y2254578D01*
X1329133Y2259070D01*
X1330187Y2264370D01*
X1329133Y2269670D01*
X1326131Y2274163D01*
X1321638Y2277165D01*
X1316339Y2278219D01*
D02*
G37*
G36*
X1118898Y2262668D02*
X1113598Y2261613D01*
X1109105Y2258611D01*
X1106103Y2254119D01*
X1105049Y2248819D01*
X1106103Y2243519D01*
X1109105Y2239026D01*
X1113598Y2236024D01*
X1118898Y2234970D01*
X1124197Y2236024D01*
X1128690Y2239026D01*
X1131692Y2243519D01*
X1132746Y2248819D01*
X1131692Y2254119D01*
X1128690Y2258611D01*
X1124197Y2261613D01*
X1118898Y2262668D01*
D02*
G37*
G36*
X1241142Y2260896D02*
X1235842Y2259842D01*
X1231349Y2256840D01*
X1228347Y2252347D01*
X1227293Y2247047D01*
X1228347Y2241748D01*
X1231349Y2237255D01*
X1235842Y2234253D01*
X1241142Y2233199D01*
X1246441Y2234253D01*
X1250934Y2237255D01*
X1253936Y2241748D01*
X1254990Y2247047D01*
X1253936Y2252347D01*
X1250934Y2256840D01*
X1246441Y2259842D01*
X1241142Y2260896D01*
D02*
G37*
G36*
X1007339Y2257260D02*
X1002040Y2256206D01*
X997547Y2253204D01*
X994545Y2248711D01*
X993491Y2243412D01*
X994545Y2238112D01*
X997547Y2233619D01*
X1002040Y2230617D01*
X1007339Y2229563D01*
X1012639Y2230617D01*
X1017132Y2233619D01*
X1020134Y2238112D01*
X1021188Y2243412D01*
X1020134Y2248711D01*
X1017132Y2253204D01*
X1012639Y2256206D01*
X1007339Y2257260D01*
D02*
G37*
G36*
X1266732Y2235305D02*
X1261433Y2234251D01*
X1256940Y2231249D01*
X1253938Y2226756D01*
X1252884Y2221457D01*
X1253938Y2216157D01*
X1256940Y2211664D01*
X1261433Y2208662D01*
X1266732Y2207608D01*
X1272032Y2208662D01*
X1276525Y2211664D01*
X1279527Y2216157D01*
X1280581Y2221457D01*
X1279527Y2226756D01*
X1276525Y2231249D01*
X1272032Y2234251D01*
X1266732Y2235305D01*
D02*
G37*
G36*
X1089567Y2233337D02*
X1084267Y2232283D01*
X1079774Y2229281D01*
X1076772Y2224788D01*
X1075718Y2219488D01*
X1076772Y2214188D01*
X1079774Y2209696D01*
X1084267Y2206694D01*
X1089567Y2205639D01*
X1094867Y2206694D01*
X1099359Y2209696D01*
X1102361Y2214188D01*
X1103416Y2219488D01*
X1102361Y2224788D01*
X1099359Y2229281D01*
X1094867Y2232283D01*
X1089567Y2233337D01*
D02*
G37*
G36*
X1808071Y2230384D02*
X1802771Y2229330D01*
X1798278Y2226328D01*
X1795276Y2221835D01*
X1794222Y2216535D01*
X1795276Y2211236D01*
X1798278Y2206743D01*
X1802771Y2203741D01*
X1808071Y2202687D01*
X1813371Y2203741D01*
X1817863Y2206743D01*
X1820865Y2211236D01*
X1821920Y2216535D01*
X1820865Y2221835D01*
X1817863Y2226328D01*
X1813371Y2229330D01*
X1808071Y2230384D01*
D02*
G37*
G36*
X1610000Y2210699D02*
X1604700Y2209645D01*
X1600207Y2206643D01*
X1597206Y2202150D01*
X1596151Y2196850D01*
X1597206Y2191551D01*
X1600207Y2187058D01*
X1604700Y2184056D01*
X1610000Y2183002D01*
X1615300Y2184056D01*
X1619793Y2187058D01*
X1622794Y2191551D01*
X1623849Y2196850D01*
X1622794Y2202150D01*
X1619793Y2206643D01*
X1615300Y2209645D01*
X1610000Y2210699D01*
D02*
G37*
G36*
X1000984Y2203809D02*
X995685Y2202755D01*
X991192Y2199753D01*
X988190Y2195260D01*
X987136Y2189961D01*
X988190Y2184661D01*
X991192Y2180168D01*
X995685Y2177166D01*
X1000984Y2176112D01*
X1006284Y2177166D01*
X1010777Y2180168D01*
X1013779Y2184661D01*
X1014833Y2189961D01*
X1013779Y2195260D01*
X1010777Y2199753D01*
X1006284Y2202755D01*
X1000984Y2203809D01*
D02*
G37*
G36*
X1089567Y2173790D02*
X1084267Y2172735D01*
X1079774Y2169733D01*
X1076772Y2165241D01*
X1075718Y2159941D01*
X1076772Y2154641D01*
X1079774Y2150148D01*
X1084267Y2147146D01*
X1089567Y2146092D01*
X1094867Y2147146D01*
X1099359Y2150148D01*
X1102361Y2154641D01*
X1103416Y2159941D01*
X1102361Y2165241D01*
X1099359Y2169733D01*
X1094867Y2172735D01*
X1089567Y2173790D01*
D02*
G37*
G36*
X1266732Y2173298D02*
X1261433Y2172243D01*
X1256940Y2169241D01*
X1253938Y2164749D01*
X1252884Y2159449D01*
X1253938Y2154149D01*
X1256940Y2149656D01*
X1261433Y2146654D01*
X1266732Y2145600D01*
X1272032Y2146654D01*
X1276525Y2149656D01*
X1279527Y2154149D01*
X1280581Y2159449D01*
X1279527Y2164749D01*
X1276525Y2169241D01*
X1272032Y2172243D01*
X1266732Y2173298D01*
D02*
G37*
G36*
X1510000Y2163849D02*
X1504700Y2162794D01*
X1500207Y2159793D01*
X1497206Y2155300D01*
X1496151Y2150000D01*
X1497206Y2144700D01*
X1500207Y2140207D01*
X1504700Y2137206D01*
X1510000Y2136151D01*
X1515300Y2137206D01*
X1519793Y2140207D01*
X1522794Y2144700D01*
X1523849Y2150000D01*
X1522794Y2155300D01*
X1519793Y2159793D01*
X1515300Y2162794D01*
X1510000Y2163849D01*
D02*
G37*
G36*
X1266732Y2114242D02*
X1261433Y2113188D01*
X1256940Y2110186D01*
X1253938Y2105693D01*
X1252884Y2100394D01*
X1253938Y2095094D01*
X1256940Y2090601D01*
X1261433Y2087599D01*
X1266732Y2086545D01*
X1272032Y2087599D01*
X1276525Y2090601D01*
X1279527Y2095094D01*
X1280581Y2100394D01*
X1279527Y2105693D01*
X1276525Y2110186D01*
X1272032Y2113188D01*
X1266732Y2114242D01*
D02*
G37*
G36*
X1089567D02*
X1084267Y2113188D01*
X1079774Y2110186D01*
X1076772Y2105693D01*
X1075718Y2100394D01*
X1076772Y2095094D01*
X1079774Y2090601D01*
X1084267Y2087599D01*
X1089567Y2086545D01*
X1094867Y2087599D01*
X1099359Y2090601D01*
X1102361Y2095094D01*
X1103416Y2100394D01*
X1102361Y2105693D01*
X1099359Y2110186D01*
X1094867Y2113188D01*
X1089567Y2114242D01*
D02*
G37*
G36*
X1032480Y2105384D02*
X1027181Y2104330D01*
X1022688Y2101328D01*
X1019686Y2096835D01*
X1018632Y2091535D01*
X1019686Y2086236D01*
X1022688Y2081743D01*
X1027181Y2078741D01*
X1032480Y2077687D01*
X1037780Y2078741D01*
X1042273Y2081743D01*
X1045275Y2086236D01*
X1046329Y2091535D01*
X1045275Y2096835D01*
X1042273Y2101328D01*
X1037780Y2104330D01*
X1032480Y2105384D01*
D02*
G37*
G36*
X1239173Y2086683D02*
X1233873Y2085629D01*
X1229381Y2082627D01*
X1226379Y2078134D01*
X1225324Y2072835D01*
X1226379Y2067535D01*
X1229381Y2063042D01*
X1233873Y2060040D01*
X1239173Y2058986D01*
X1244473Y2060040D01*
X1248966Y2063042D01*
X1251968Y2067535D01*
X1253022Y2072835D01*
X1251968Y2078134D01*
X1248966Y2082627D01*
X1244473Y2085629D01*
X1239173Y2086683D01*
D02*
G37*
G36*
X1178150D02*
X1172850Y2085629D01*
X1168357Y2082627D01*
X1165355Y2078134D01*
X1164301Y2072835D01*
X1165355Y2067535D01*
X1168357Y2063042D01*
X1172850Y2060040D01*
X1178150Y2058986D01*
X1183449Y2060040D01*
X1187942Y2063042D01*
X1190944Y2067535D01*
X1191998Y2072835D01*
X1190944Y2078134D01*
X1187942Y2082627D01*
X1183449Y2085629D01*
X1178150Y2086683D01*
D02*
G37*
G36*
X1117126D02*
X1111826Y2085629D01*
X1107333Y2082627D01*
X1104332Y2078134D01*
X1103277Y2072835D01*
X1104332Y2067535D01*
X1107333Y2063042D01*
X1111826Y2060040D01*
X1117126Y2058986D01*
X1122426Y2060040D01*
X1126918Y2063042D01*
X1129920Y2067535D01*
X1130975Y2072835D01*
X1129920Y2078134D01*
X1126918Y2082627D01*
X1122426Y2085629D01*
X1117126Y2086683D01*
D02*
G37*
G36*
X1468504Y2055187D02*
X1463204Y2054133D01*
X1458711Y2051131D01*
X1455709Y2046638D01*
X1454655Y2041339D01*
X1455709Y2036039D01*
X1458711Y2031546D01*
X1463204Y2028544D01*
X1468504Y2027490D01*
X1473804Y2028544D01*
X1478296Y2031546D01*
X1481298Y2036039D01*
X1482353Y2041339D01*
X1481298Y2046638D01*
X1478296Y2051131D01*
X1473804Y2054133D01*
X1468504Y2055187D01*
D02*
G37*
G36*
X1599409Y2048298D02*
X1594110Y2047243D01*
X1589617Y2044241D01*
X1586615Y2039748D01*
X1585561Y2034449D01*
X1586615Y2029149D01*
X1589617Y2024656D01*
X1594110Y2021654D01*
X1599409Y2020600D01*
X1604709Y2021654D01*
X1609202Y2024656D01*
X1612204Y2029149D01*
X1613258Y2034449D01*
X1612204Y2039748D01*
X1609202Y2044241D01*
X1604709Y2047243D01*
X1599409Y2048298D01*
D02*
G37*
G36*
X519134Y3771609D02*
X458504D01*
Y3622396D01*
X519134D01*
Y3771609D01*
D02*
G37*
G36*
X350000Y2723612D02*
X348223Y2723495D01*
X346477Y2723148D01*
X344791Y2722576D01*
X343194Y2721788D01*
X341714Y2720799D01*
X340375Y2719625D01*
X339201Y2718286D01*
X338212Y2716806D01*
X337424Y2715209D01*
X336852Y2713523D01*
X336505Y2711777D01*
X336388Y2710000D01*
X336505Y2708223D01*
X336852Y2706477D01*
X337424Y2704791D01*
X338212Y2703194D01*
X339201Y2701714D01*
X340375Y2700375D01*
X341714Y2699201D01*
X343194Y2698212D01*
X344791Y2697424D01*
X346477Y2696852D01*
X348223Y2696505D01*
X350000Y2696388D01*
X351777Y2696505D01*
X353523Y2696852D01*
X355209Y2697424D01*
X356806Y2698212D01*
X358286Y2699201D01*
X359625Y2700375D01*
X360799Y2701714D01*
X361788Y2703194D01*
X362576Y2704791D01*
X363148Y2706477D01*
X363495Y2708223D01*
X363612Y2710000D01*
X363495Y2711777D01*
X363148Y2713523D01*
X362576Y2715209D01*
X361788Y2716806D01*
X360799Y2718286D01*
X359625Y2719625D01*
X358286Y2720799D01*
X356806Y2721788D01*
X355209Y2722576D01*
X353523Y2723148D01*
X351777Y2723495D01*
X350000Y2723612D01*
D02*
G37*
G36*
X739827Y2638265D02*
X738050Y2638149D01*
X736304Y2637801D01*
X734618Y2637229D01*
X733021Y2636442D01*
X731540Y2635452D01*
X730202Y2634278D01*
X729028Y2632940D01*
X728039Y2631459D01*
X727251Y2629863D01*
X726679Y2628177D01*
X726332Y2626430D01*
X726215Y2624653D01*
X726332Y2622877D01*
X726679Y2621131D01*
X727251Y2619445D01*
X728039Y2617848D01*
X729028Y2616367D01*
X730202Y2615029D01*
X731540Y2613855D01*
X733021Y2612865D01*
X734618Y2612078D01*
X736304Y2611506D01*
X738050Y2611158D01*
X739827Y2611042D01*
X741604Y2611158D01*
X743350Y2611506D01*
X745036Y2612078D01*
X746633Y2612865D01*
X748113Y2613855D01*
X749452Y2615029D01*
X750626Y2616367D01*
X751615Y2617848D01*
X752402Y2619445D01*
X752975Y2621131D01*
X753322Y2622877D01*
X753438Y2624653D01*
X753322Y2626430D01*
X752975Y2628177D01*
X752402Y2629863D01*
X751615Y2631459D01*
X750626Y2632940D01*
X749452Y2634278D01*
X748113Y2635452D01*
X746633Y2636442D01*
X745036Y2637229D01*
X743350Y2637801D01*
X741604Y2638149D01*
X739827Y2638265D01*
D02*
G37*
G36*
X766732Y2489990D02*
X764956Y2489873D01*
X763209Y2489526D01*
X761523Y2488954D01*
X759926Y2488166D01*
X758446Y2487177D01*
X757107Y2486003D01*
X755933Y2484664D01*
X754944Y2483184D01*
X754157Y2481587D01*
X753584Y2479901D01*
X753237Y2478155D01*
X753120Y2476378D01*
X753237Y2474601D01*
X753584Y2472855D01*
X754157Y2471169D01*
X754944Y2469572D01*
X755933Y2468092D01*
X757107Y2466753D01*
X758446Y2465579D01*
X759926Y2464590D01*
X761523Y2463802D01*
X763209Y2463230D01*
X764956Y2462883D01*
X766732Y2462766D01*
X768509Y2462883D01*
X770255Y2463230D01*
X771941Y2463802D01*
X773538Y2464590D01*
X775019Y2465579D01*
X776357Y2466753D01*
X777531Y2468092D01*
X778520Y2469572D01*
X779308Y2471169D01*
X779880Y2472855D01*
X780227Y2474601D01*
X780344Y2476378D01*
X780227Y2478155D01*
X779880Y2479901D01*
X779308Y2481587D01*
X778520Y2483184D01*
X777531Y2484664D01*
X776357Y2486003D01*
X775019Y2487177D01*
X773538Y2488166D01*
X771941Y2488954D01*
X770255Y2489526D01*
X768509Y2489873D01*
X766732Y2489990D01*
D02*
G37*
%LPD*%
D41*
X485000Y4566215D02*
X585030Y4666245D01*
X485000Y4520000D02*
Y4566215D01*
X1033063Y2860070D02*
X1035497Y2862503D01*
X1027326Y2860070D02*
X1033063D01*
X921595Y2754339D02*
X1027326Y2860070D01*
D46*
X95906Y4774956D02*
Y4803499D01*
X51811Y3880000D02*
Y4465775D01*
X1033110Y3825940D02*
X1077402D01*
X95906Y4774956D02*
X117165Y4753696D01*
X77402Y4793459D02*
X95906Y4774956D01*
X77402Y4793459D02*
Y4822003D01*
X95906Y4803499D01*
X51811Y4465775D02*
X117165Y4531129D01*
Y4753696D01*
X1037402Y3393701D02*
X1054134Y3376968D01*
X1033465Y3145669D02*
Y3168307D01*
X598425Y2076772D02*
Y2566260D01*
D50*
X60000Y3881845D02*
X734860D01*
X734860Y3881845D01*
X1416370D01*
X1473260Y3824956D02*
X1477795D01*
X1416370Y3881845D02*
X1473260Y3824956D01*
D51*
X2084291Y4175349D02*
Y4203892D01*
Y4138932D02*
Y4175349D01*
Y4114326D02*
Y4138932D01*
X2045906Y3824956D02*
X2085276Y3864326D01*
X2084291Y3824956D02*
Y3863341D01*
X2005551Y3824956D02*
X2041968D01*
X2045906D02*
X2084291D01*
X1898622Y3105315D02*
X1916339Y3087598D01*
D52*
X616772Y3508026D02*
D03*
D53*
X488819Y3697003D02*
D03*
D54*
X734882D02*
D03*
D55*
X1377795Y3824956D02*
D03*
X1477795D02*
D03*
D57*
X50000Y3160000D02*
D03*
X2090000Y1660000D02*
D03*
X1007339Y2243412D02*
D03*
X1895000Y2920000D02*
D03*
X485000Y4520000D02*
D03*
X1275000Y4555000D02*
D03*
X1656747Y4441747D02*
D03*
X1630000Y4465000D02*
D03*
X1655000Y3785000D02*
D03*
X1630000Y3770000D02*
D03*
X130000Y3450000D02*
D03*
X880000Y2430000D02*
D03*
X739827Y2624653D02*
D03*
X350000Y2710000D02*
D03*
X1510000Y2150000D02*
D03*
Y2330000D02*
D03*
X332795Y4674956D02*
D03*
Y4774956D02*
D03*
X392825Y3129825D02*
D03*
X1922244Y2481299D02*
D03*
X1742662Y2936083D02*
D03*
X2001000Y2948000D02*
D03*
X1958870Y3211811D02*
D03*
X1510000Y3378000D02*
D03*
X1035497Y2862503D02*
D03*
X1936000Y2274000D02*
D03*
X886811Y2779528D02*
D03*
X2433701Y4374168D02*
D03*
X1916455Y3220000D02*
D03*
X1939000Y2787000D02*
D03*
X1910016Y2715425D02*
D03*
X1351772Y2264370D02*
D03*
X1316339D02*
D03*
X1018346Y2978369D02*
D03*
X1070866Y3037402D02*
D03*
X1033465Y3168307D02*
D03*
Y3145669D02*
D03*
X946850Y3351378D02*
D03*
X945866Y3315945D02*
D03*
X1007874Y3372047D02*
D03*
X1037402Y3393701D02*
D03*
X1054134Y3376968D02*
D03*
X1862205Y2738189D02*
D03*
X1808071Y2216535D02*
D03*
X1734252Y2437008D02*
D03*
X1558071Y2535433D02*
D03*
X1596457Y2450787D02*
D03*
X1608899Y2328109D02*
D03*
X1610000Y2196850D02*
D03*
X1266732Y2159449D02*
D03*
X1089567Y2159941D02*
D03*
X1241142Y2298228D02*
D03*
Y2247047D02*
D03*
X1118898Y2248819D02*
D03*
X1089567Y2219488D02*
D03*
X1266732Y2221457D02*
D03*
X1178150Y2072835D02*
D03*
X1211614Y2321850D02*
D03*
X1156496Y2322835D02*
D03*
X1266732Y2100394D02*
D03*
X1239173Y2072835D02*
D03*
X1089567Y2100394D02*
D03*
X1117126Y2072835D02*
D03*
X1000984Y2189961D02*
D03*
X994095Y2403543D02*
D03*
X766732Y2476378D02*
D03*
X598425Y2522146D02*
D03*
Y2543307D02*
D03*
Y2566260D02*
D03*
X808071Y2754921D02*
D03*
X905512Y2739173D02*
D03*
X1077402Y3825940D02*
D03*
X1057717D02*
D03*
X1033110D02*
D03*
X379567Y4457829D02*
D03*
X353976Y4469641D02*
D03*
X1665984Y1373184D02*
D03*
X2191559Y1322373D02*
D03*
X2563851Y1320648D02*
D03*
X2132787Y1372853D02*
D03*
X2446307Y1320648D02*
D03*
X2506803Y1372853D02*
D03*
Y1271892D02*
D03*
X2132787D02*
D03*
X1992756Y4954877D02*
D03*
X76417Y4636963D02*
D03*
X93740Y4674956D02*
D03*
Y4724956D02*
D03*
X77402Y4822003D02*
D03*
Y4793459D02*
D03*
X95906Y4774956D02*
D03*
X497677Y4750152D02*
D03*
X499646Y4698971D02*
D03*
X252008Y4724956D02*
D03*
X328386Y4469641D02*
D03*
X756535Y4422396D02*
D03*
X547874Y4097593D02*
D03*
Y4007042D02*
D03*
X584291Y4137948D02*
D03*
Y3966310D02*
D03*
Y4056861D02*
D03*
X651221Y3961767D02*
D03*
X773268Y4006058D02*
D03*
X719134Y3961767D02*
D03*
X773268D02*
D03*
X665984Y4187160D02*
D03*
X719134Y4235389D02*
D03*
X773268Y4187160D02*
D03*
Y4096609D02*
D03*
X814606D02*
D03*
X859882Y4097593D02*
D03*
X912047Y4096609D02*
D03*
X812638Y3959798D02*
D03*
X1006535Y3961767D02*
D03*
X916968Y3959798D02*
D03*
X813622Y4020822D02*
D03*
X914016D02*
D03*
X813622Y4169444D02*
D03*
X915984Y4168459D02*
D03*
X1574023Y4256049D02*
D03*
X2084291Y4203892D02*
D03*
Y3824956D02*
D03*
X2041968D02*
D03*
X2084291Y4175349D02*
D03*
X2238819Y4333814D02*
D03*
X2208307Y4310192D02*
D03*
X2336535Y4306137D02*
D03*
X2296890Y4329877D02*
D03*
X2336260D02*
D03*
X2375630D02*
D03*
Y4282633D02*
D03*
X2336260D02*
D03*
X2296890D02*
D03*
Y4306255D02*
D03*
X2375630D02*
D03*
X255551Y4627121D02*
D03*
X2000630Y3824956D02*
D03*
X2085276Y3864326D02*
D03*
X2084291Y4138932D02*
D03*
Y4114326D02*
D03*
X587244Y4751137D02*
D03*
X584291Y4665507D02*
D03*
X1536417Y3319882D02*
D03*
X1388780Y3324803D02*
D03*
X1334646Y3282480D02*
D03*
X1033465Y3119095D02*
D03*
X308071Y2817913D02*
D03*
X1503937Y2443898D02*
D03*
X1897638Y2422244D02*
D03*
X1994094Y3144685D02*
D03*
X1898622Y3105315D02*
D03*
X1916339Y3087598D02*
D03*
X1062992Y3136811D02*
D03*
X1179134Y3138780D02*
D03*
X1243110Y3142716D02*
D03*
X1298228Y3132874D02*
D03*
X1453740Y3129921D02*
D03*
X1561024Y3131890D02*
D03*
X1692913Y3127953D02*
D03*
X1689961Y3037402D02*
D03*
X1490158Y3033465D02*
D03*
X1165354Y3028543D02*
D03*
X1159449Y2895669D02*
D03*
X1107284Y2849409D02*
D03*
X1322835Y2904528D02*
D03*
X1454724Y2984252D02*
D03*
X1528543Y2981299D02*
D03*
X1689961Y2980315D02*
D03*
X1687992Y2893701D02*
D03*
X1700787Y2738189D02*
D03*
X1522638Y2885827D02*
D03*
X1504921Y2819882D02*
D03*
X1347441Y2612205D02*
D03*
X1086614Y2568898D02*
D03*
X1027559Y2476378D02*
D03*
X1083661Y2510827D02*
D03*
X1247047Y2507874D02*
D03*
X1375984Y2445866D02*
D03*
X1537402Y2502953D02*
D03*
X1809055Y2427165D02*
D03*
X677165Y3077756D02*
D03*
X2023622Y3095472D02*
D03*
X2088583Y3143701D02*
D03*
X2018701Y3209646D02*
D03*
X1773622Y3214567D02*
D03*
X1874016Y3273622D02*
D03*
X1946850Y3640748D02*
D03*
X1496063Y3729331D02*
D03*
X1492126Y3620079D02*
D03*
X236220Y4165354D02*
D03*
X147638Y4368110D02*
D03*
X631890Y4351378D02*
D03*
X843504Y4336614D02*
D03*
X643701Y4995079D02*
D03*
X683071Y4736221D02*
D03*
X518701Y4898622D02*
D03*
X1499016Y4531496D02*
D03*
X1438976Y4303150D02*
D03*
X2366142Y4928150D02*
D03*
X2356299Y5073819D02*
D03*
X1032480Y2091535D02*
D03*
X1468504Y2041339D02*
D03*
X1599409Y2034449D02*
D03*
X1651575Y1875000D02*
D03*
X1476378Y1856299D02*
D03*
X1333661Y1826772D02*
D03*
X1612205Y1283465D02*
D03*
X1332677Y952756D02*
D03*
X1180118Y1173228D02*
D03*
X687008Y1269685D02*
D03*
X767716Y1281496D02*
D03*
X688976Y754921D02*
D03*
X891732Y599409D02*
D03*
X709646Y597441D02*
D03*
X531496Y603346D02*
D03*
X344488Y625984D02*
D03*
X421260Y500000D02*
D03*
X771654Y701772D02*
D03*
X772638Y568898D02*
D03*
X1179134Y847441D02*
D03*
X1331693Y846457D02*
D03*
X1176181Y1012795D02*
D03*
X332677Y1929134D02*
D03*
X680118Y1937008D02*
D03*
X1551181Y1918307D02*
D03*
X1073819Y3064961D02*
D03*
X783465Y3322835D02*
D03*
X1079724Y3480315D02*
D03*
X1204724Y3325787D02*
D03*
X1171260Y3443898D02*
D03*
X1226378Y3523622D02*
D03*
X1319882Y3444882D02*
D03*
X1377953Y3492126D02*
D03*
X1327756Y3567913D02*
D03*
X1353347Y3616142D02*
D03*
X1476378Y3561024D02*
D03*
X1770669Y3750000D02*
D03*
X1950787Y3586614D02*
D03*
X2085630Y3738189D02*
D03*
X1925197Y3741142D02*
D03*
X1720472Y3949803D02*
D03*
X1397638Y3953740D02*
D03*
X1568000Y4003000D02*
D03*
X118110Y4165354D02*
D03*
X134843Y4269685D02*
D03*
X762795Y4771654D02*
D03*
X646654Y4805118D02*
D03*
X662402Y4899606D02*
D03*
X802165Y4999016D02*
D03*
X750000Y5068898D02*
D03*
X575787Y5092520D02*
D03*
X1072835Y5108268D02*
D03*
X1368110Y5053150D02*
D03*
X1724409Y4774606D02*
D03*
X1807087Y4773622D02*
D03*
X1930118Y4772638D02*
D03*
X2052165Y4855315D02*
D03*
X2145669Y5010827D02*
D03*
X696850Y2994095D02*
D03*
X723425D02*
D03*
X748032D02*
D03*
X771654D02*
D03*
X708661Y2972441D02*
D03*
X735236D02*
D03*
X759842D02*
D03*
X598425Y2076772D02*
D03*
X886811Y2079724D02*
D03*
%TF.MD5,19a39c4f04732bbe59a5593c326d9331*%
M02*
