%TF.GenerationSoftware,Altium Limited,Altium Designer,19.1.6 (110)*%
G04 Layer_Color=0*
%FSLAX26Y26*%
%MOIN*%
%TF.FileFunction,Other,M16-Top_Courtyard*%
%TF.Part,Single*%
G01*
G75*
%TA.AperFunction,NonConductor*%
%ADD109C,0.000394*%
D109*
X2153189Y4321019D02*
G03*
X2153189Y4321019I-31496J0D01*
G01*
X103189Y4419050D02*
X402402D01*
X103189Y4930861D02*
X402402D01*
X103189Y4419050D02*
Y4930861D01*
X402402Y4419050D02*
Y4930861D01*
X2557984Y1533003D02*
Y1534971D01*
Y1540877D01*
X2081606D02*
X2557984D01*
X2081606Y1281034D02*
Y1540877D01*
Y1281034D02*
X2105228D01*
X2557984D01*
Y1533003D01*
X680748Y4222593D02*
X763425D01*
X680748Y3970625D02*
Y4222593D01*
Y3970625D02*
X763425D01*
Y3956845D02*
Y3970625D01*
Y3956845D02*
X924843D01*
Y4021806D01*
X1007520D01*
Y4171412D01*
X924843D02*
X1007520D01*
X924843D02*
Y4236373D01*
X763425D02*
X924843D01*
X763425Y4222593D02*
Y4236373D01*
X895316Y2320034D02*
Y2487357D01*
Y2320034D02*
X1869725D01*
Y2387948D01*
Y3294444D01*
X895316D02*
X1869725D01*
X895316Y2487357D02*
Y3294444D01*
X1252953Y2120079D02*
Y2202756D01*
X1103347Y2120079D02*
X1252953D01*
X1103347D02*
Y2202756D01*
X1252953D01*
X1538819Y3763932D02*
Y3885979D01*
X1316772Y3763932D02*
X1538819D01*
X1316772D02*
Y3885979D01*
X1538819D01*
X562638Y4130869D02*
X672874D01*
Y4063940D02*
Y4130869D01*
X562638Y4063940D02*
X672874D01*
X562638D02*
Y4130869D01*
Y4040318D02*
X672874D01*
Y3973388D02*
Y4040318D01*
X562638Y3973388D02*
X672874D01*
X562638D02*
Y4040318D01*
X2214213Y4326924D02*
X2263425D01*
X2214213Y4238341D02*
Y4326924D01*
Y4238341D02*
X2263425D01*
Y4326924D01*
X2409095D02*
X2458307D01*
X2409095Y4238341D02*
Y4326924D01*
Y4238341D02*
X2458307D01*
Y4326924D01*
X1166339Y2084646D02*
Y2116142D01*
X1103346D02*
X1166339D01*
X1103346Y2084646D02*
Y2116142D01*
Y2084646D02*
X1166339D01*
X1189961D02*
Y2116142D01*
Y2084646D02*
X1252953D01*
Y2116142D01*
X1189961D02*
X1252953D01*
X1802165Y2260827D02*
X1851378D01*
X1802165Y2172244D02*
Y2260827D01*
Y2172244D02*
X1851378D01*
Y2260827D01*
X1766732Y2175197D02*
X1798228D01*
Y2238189D01*
X1766732D02*
X1798228D01*
X1766732Y2175197D02*
Y2238189D01*
X1660433Y2260827D02*
X1709646D01*
X1660433Y2172244D02*
Y2260827D01*
Y2172244D02*
X1709646D01*
Y2260827D01*
X1585394Y2205709D02*
X1634606D01*
Y2294291D01*
X1585394D02*
X1634606D01*
X1585394Y2205709D02*
Y2294291D01*
X2602205Y4387278D02*
Y4419759D01*
Y4387278D02*
X2653386D01*
Y4491609D01*
X2602205D02*
X2653386D01*
X2602205Y4419759D02*
Y4491609D01*
Y4384325D02*
X2653386D01*
X2602205Y4295743D02*
Y4384325D01*
Y4295743D02*
X2653386D01*
Y4384325D01*
X2463299Y4305496D02*
X2500701D01*
X2463299Y4242504D02*
Y4305496D01*
Y4242504D02*
X2500701D01*
Y4305496D01*
X57717Y4624168D02*
X95118D01*
X57717Y4561176D02*
Y4624168D01*
Y4561176D02*
X95118D01*
Y4624168D01*
X839236Y2599063D02*
Y2650244D01*
X750654D02*
X839236D01*
X750654Y2599063D02*
Y2650244D01*
Y2599063D02*
X839236D01*
X838583Y2543307D02*
Y2594488D01*
X750000D02*
X838583D01*
X750000Y2543307D02*
Y2594488D01*
Y2543307D02*
X838583D01*
Y2488189D02*
Y2539370D01*
X750000D02*
X838583D01*
X750000Y2488189D02*
Y2539370D01*
Y2488189D02*
X838583D01*
X1906291Y2266409D02*
Y2317591D01*
X1817709D02*
X1906291D01*
X1817709Y2266409D02*
Y2317591D01*
Y2266409D02*
X1906291D01*
X1811024Y2264764D02*
Y2315945D01*
X1722441D02*
X1811024D01*
X1722441Y2264764D02*
Y2315945D01*
Y2264764D02*
X1811024D01*
X1970118Y4229483D02*
X2031142D01*
X1970118D02*
Y4280664D01*
X2076417D01*
Y4229483D02*
Y4280664D01*
X2031142Y4229483D02*
X2076417D01*
X2092165D02*
X2153189D01*
X2092165D02*
Y4280664D01*
X2198465D01*
Y4229483D02*
Y4280664D01*
X2153189Y4229483D02*
X2198465D01*
X2267638Y4237239D02*
X2405433D01*
X2267638D02*
Y4375034D01*
X2405433D01*
Y4237239D02*
Y4375034D01*
X638425Y4697003D02*
Y4803302D01*
X512441Y4697003D02*
X638425D01*
X512441D02*
Y4803302D01*
X638425D01*
X2043032Y1472963D02*
Y1526113D01*
Y1472963D02*
X2072559D01*
Y1526113D01*
X2043032D02*
X2072559D01*
X1970472Y3120079D02*
Y3169291D01*
X1881890D02*
X1970472D01*
X1881890Y3120079D02*
Y3169291D01*
Y3120079D02*
X1970472D01*
X1019685Y2173228D02*
X1068898D01*
Y2261811D01*
X1019685D02*
X1068898D01*
X1019685Y2173228D02*
Y2261811D01*
%TF.MD5,4b7810546cb8b51ad9c4ab9798ddd80d*%
M02*
