G04 Layer_Color=128*
%FSLAX26Y26*%
%MOIN*%
%TF.FileFunction,Drillmap*%
%TF.Part,Single*%
G01*
G75*
%TA.AperFunction,NonConductor*%
%ADD109C,0.005000*%
D109*
X2058267Y568504D02*
X2093700D01*
X2075984Y550788D02*
Y586221D01*
X2158267Y568504D02*
X2193700D01*
X2175984Y550788D02*
Y586221D01*
X2058267Y668504D02*
X2093700D01*
X2075984Y650788D02*
Y686221D01*
X2158267Y668504D02*
X2193700D01*
X2175984Y650788D02*
Y686221D01*
X2058267Y768504D02*
X2093700D01*
X2075984Y750788D02*
Y786221D01*
X2158267Y768504D02*
X2193700D01*
X2175984Y750788D02*
Y786221D01*
X2058267Y868504D02*
X2093700D01*
X2075984Y850788D02*
Y886221D01*
X2158267Y868504D02*
X2193700D01*
X2175984Y850788D02*
Y886221D01*
X2058267Y968504D02*
X2093700D01*
X2075984Y950788D02*
Y986221D01*
X2158267Y968504D02*
X2193700D01*
X2175984Y950788D02*
Y986221D01*
X2058267Y1068504D02*
X2093700D01*
X2075984Y1050787D02*
Y1086220D01*
X2158267Y1068504D02*
X2193700D01*
X2175984Y1050787D02*
Y1086220D01*
X2058267Y1168504D02*
X2093700D01*
X2075984Y1150787D02*
Y1186220D01*
X2158267Y1168504D02*
X2193700D01*
X2175984Y1150787D02*
Y1186220D01*
X2058267Y1268504D02*
X2093700D01*
X2075984Y1250787D02*
Y1286220D01*
X2158267Y1268504D02*
X2193700D01*
X2175984Y1250787D02*
Y1286220D01*
X2058267Y1368504D02*
X2093700D01*
X2075984Y1350787D02*
Y1386220D01*
X2158267Y1368504D02*
X2193700D01*
X2175984Y1350787D02*
Y1386220D01*
X2058267Y1468504D02*
X2093700D01*
X2075984Y1450787D02*
Y1486220D01*
X2158267Y1468504D02*
X2193700D01*
X2175984Y1450787D02*
Y1486220D01*
X2058267Y1568504D02*
X2093700D01*
X2075984Y1550787D02*
Y1586220D01*
X2158267Y1568504D02*
X2193700D01*
X2175984Y1550787D02*
Y1586220D01*
X2058267Y1668504D02*
X2093700D01*
X2075984Y1650787D02*
Y1686220D01*
X2158267Y1668504D02*
X2193700D01*
X2175984Y1650787D02*
Y1686220D01*
X2058267Y1768504D02*
X2093700D01*
X2075984Y1750787D02*
Y1786220D01*
X2158267Y1768504D02*
X2193700D01*
X2175984Y1750787D02*
Y1786220D01*
X2058267Y1868504D02*
X2093700D01*
X2075984Y1850787D02*
Y1886220D01*
X2158267Y1868504D02*
X2193700D01*
X2175984Y1850787D02*
Y1886220D01*
X2058267Y1968504D02*
X2093700D01*
X2075984Y1950787D02*
Y1986220D01*
X2158267Y1968504D02*
X2193700D01*
X2175984Y1950787D02*
Y1986220D01*
X-67716Y568504D02*
X-32283D01*
X-50000Y550788D02*
Y586221D01*
X32283Y568504D02*
X67716D01*
X50000Y550788D02*
Y586221D01*
X-67716Y668504D02*
X-32283D01*
X-50000Y650788D02*
Y686221D01*
X32283Y668504D02*
X67716D01*
X50000Y650788D02*
Y686221D01*
X-67716Y768504D02*
X-32283D01*
X-50000Y750788D02*
Y786221D01*
X32283Y768504D02*
X67716D01*
X50000Y750788D02*
Y786221D01*
X-67716Y868504D02*
X-32283D01*
X-50000Y850788D02*
Y886221D01*
X32283Y868504D02*
X67716D01*
X50000Y850788D02*
Y886221D01*
X-67716Y968504D02*
X-32283D01*
X-50000Y950788D02*
Y986221D01*
X32283Y968504D02*
X67716D01*
X50000Y950788D02*
Y986221D01*
X-67716Y1068504D02*
X-32283D01*
X-50000Y1050787D02*
Y1086220D01*
X32283Y1068504D02*
X67716D01*
X50000Y1050787D02*
Y1086220D01*
X-67716Y1168504D02*
X-32283D01*
X-50000Y1150787D02*
Y1186220D01*
X32283Y1168504D02*
X67716D01*
X50000Y1150787D02*
Y1186220D01*
X-67716Y1268504D02*
X-32283D01*
X-50000Y1250787D02*
Y1286220D01*
X32283Y1268504D02*
X67716D01*
X50000Y1250787D02*
Y1286220D01*
X-67716Y1368504D02*
X-32283D01*
X-50000Y1350787D02*
Y1386220D01*
X32283Y1368504D02*
X67716D01*
X50000Y1350787D02*
Y1386220D01*
X-67716Y1468504D02*
X-32283D01*
X-50000Y1450787D02*
Y1486220D01*
X32283Y1468504D02*
X67716D01*
X50000Y1450787D02*
Y1486220D01*
X-67716Y1568504D02*
X-32283D01*
X-50000Y1550787D02*
Y1586220D01*
X32283Y1568504D02*
X67716D01*
X50000Y1550787D02*
Y1586220D01*
X-67716Y1668504D02*
X-32283D01*
X-50000Y1650787D02*
Y1686220D01*
X32283Y1668504D02*
X67716D01*
X50000Y1650787D02*
Y1686220D01*
X-67716Y1768504D02*
X-32283D01*
X-50000Y1750787D02*
Y1786220D01*
X32283Y1768504D02*
X67716D01*
X50000Y1750787D02*
Y1786220D01*
X-67716Y1868504D02*
X-32283D01*
X-50000Y1850787D02*
Y1886220D01*
X32283Y1868504D02*
X67716D01*
X50000Y1850787D02*
Y1886220D01*
X-67716Y1968504D02*
X-32283D01*
X-50000Y1950787D02*
Y1986220D01*
X32283Y1968504D02*
X67716D01*
X50000Y1950787D02*
Y1986220D01*
X1810473Y1447000D02*
X1869527D01*
X1840000Y1417473D02*
Y1476527D01*
X1010472Y1847000D02*
X1069527D01*
X1040000Y1817473D02*
Y1876527D01*
X1010472Y1547000D02*
X1069527D01*
X1040000Y1517473D02*
Y1576527D01*
X1010472Y1347000D02*
X1069527D01*
X1040000Y1317473D02*
Y1376527D01*
X1810473Y1847000D02*
X1869527D01*
X1840000Y1817473D02*
Y1876527D01*
X1810473Y1047000D02*
X1869527D01*
X1840000Y1017472D02*
Y1076527D01*
X1805473Y-53000D02*
X1864527D01*
X1835000Y-82528D02*
Y-23473D01*
X1805473Y747000D02*
X1864527D01*
X1835000Y717472D02*
Y776528D01*
X1005472Y247000D02*
X1064527D01*
X1035000Y217472D02*
Y276527D01*
X1005472Y447000D02*
X1064527D01*
X1035000Y417473D02*
Y476527D01*
X1005472Y747000D02*
X1064527D01*
X1035000Y717472D02*
Y776528D01*
X1805473Y347000D02*
X1864527D01*
X1835000Y317473D02*
Y376527D01*
X521063Y2100000D02*
X556889D01*
X538976Y2082086D02*
Y2117913D01*
X621063Y2100000D02*
X656889D01*
X638976Y2082086D02*
Y2117913D01*
X1160275Y2100000D02*
X1197677D01*
X1178976Y2081299D02*
Y2118701D01*
X1060275Y2100000D02*
X1097677D01*
X1078976Y2081299D02*
Y2118701D01*
X960275Y2100000D02*
X997677D01*
X978976Y2081299D02*
Y2118701D01*
X860275Y2100000D02*
X897677D01*
X878976Y2081299D02*
Y2118701D01*
X296063Y2100000D02*
X331889D01*
X313976Y2082086D02*
Y2117913D01*
X196063Y2100000D02*
X231889D01*
X213976Y2082086D02*
Y2117913D01*
X2066930Y2362204D02*
X2185040D01*
X2125985Y2303149D02*
Y2421260D01*
X-59055Y2362204D02*
X59055D01*
X0Y2303149D02*
Y2421260D01*
X2066929Y0D02*
X2185039D01*
X2125984Y-59055D02*
Y59055D01*
X-59055Y0D02*
X59055D01*
X0Y-59055D02*
Y59055D01*
X340158Y1415000D02*
X359842D01*
X350000Y1405158D02*
Y1424842D01*
X340158Y1371692D02*
X359842D01*
X350000Y1361850D02*
Y1381534D01*
X383466Y1415000D02*
X403151D01*
X393308Y1405158D02*
Y1424842D01*
X383466Y1371692D02*
X403151D01*
X393308Y1361850D02*
Y1381534D01*
X426772Y1415000D02*
X446457D01*
X436614Y1405158D02*
Y1424842D01*
X426772Y1371692D02*
X446457D01*
X436614Y1361850D02*
Y1381534D01*
X2176631Y2147788D02*
X2196316D01*
X2186473Y2137945D02*
Y2157630D01*
X2176631Y179284D02*
X2196316D01*
X2186473Y169441D02*
Y189126D01*
X1881355Y1950937D02*
X1901040D01*
X1891198Y1941095D02*
Y1960780D01*
X1881355Y1557236D02*
X1901040D01*
X1891198Y1547394D02*
Y1567079D01*
X1881355Y1163536D02*
X1901040D01*
X1891198Y1153693D02*
Y1173378D01*
X1979780Y572984D02*
X1999465D01*
X1989623Y563142D02*
Y582827D01*
X1782930Y2147788D02*
X1802615D01*
X1792772Y2137945D02*
Y2157630D01*
X1684505Y1950937D02*
X1704190D01*
X1694347Y1941095D02*
Y1960780D01*
X1782930Y1754087D02*
X1802615D01*
X1792772Y1744244D02*
Y1763929D01*
X1782930Y1360386D02*
X1802615D01*
X1792772Y1350543D02*
Y1370228D01*
X1782930Y966685D02*
X1802615D01*
X1792772Y956843D02*
Y976528D01*
X1684505Y769835D02*
X1704190D01*
X1694347Y759992D02*
Y779677D01*
X1782930Y572984D02*
X1802615D01*
X1792772Y563142D02*
Y582827D01*
X1782930Y179284D02*
X1802615D01*
X1792772Y169441D02*
Y189126D01*
X1487654Y1950937D02*
X1507339D01*
X1497497Y1941095D02*
Y1960780D01*
X1586080Y1754087D02*
X1605764D01*
X1595922Y1744244D02*
Y1763929D01*
X1487654Y1557236D02*
X1507339D01*
X1497497Y1547394D02*
Y1567079D01*
X1487654Y1163536D02*
X1507339D01*
X1497497Y1153693D02*
Y1173378D01*
X1487654Y769835D02*
X1507339D01*
X1497497Y759992D02*
Y779677D01*
X1586080Y572984D02*
X1605764D01*
X1595922Y563142D02*
Y582827D01*
X1487654Y376134D02*
X1507339D01*
X1497497Y366291D02*
Y385976D01*
X1586080Y179284D02*
X1605764D01*
X1595922Y169441D02*
Y189126D01*
X1487654Y-17567D02*
X1507339D01*
X1497497Y-27409D02*
Y-7724D01*
X1389229Y1754087D02*
X1408914D01*
X1399072Y1744244D02*
Y1763929D01*
X1290804Y1557236D02*
X1310489D01*
X1300646Y1547394D02*
Y1567079D01*
X1290804Y1163536D02*
X1310489D01*
X1300646Y1153693D02*
Y1173378D01*
X1389229Y572984D02*
X1408914D01*
X1399072Y563142D02*
Y582827D01*
X1389229Y179284D02*
X1408914D01*
X1399072Y169441D02*
Y189126D01*
X1290804Y-17567D02*
X1310489D01*
X1300646Y-27409D02*
Y-7724D01*
X1093954Y1950937D02*
X1113639D01*
X1103796Y1941095D02*
Y1960780D01*
X1192379Y1754087D02*
X1212064D01*
X1202221Y1744244D02*
Y1763929D01*
X1093954Y1163536D02*
X1113639D01*
X1103796Y1153693D02*
Y1173378D01*
X1093954Y376134D02*
X1113639D01*
X1103796Y366291D02*
Y385976D01*
X1192379Y179284D02*
X1212064D01*
X1202221Y169441D02*
Y189126D01*
X1093954Y-17567D02*
X1113639D01*
X1103796Y-27409D02*
Y-7724D01*
X897103Y2344638D02*
X916788D01*
X906946Y2334796D02*
Y2354481D01*
X995528Y1754087D02*
X1015213D01*
X1005371Y1744244D02*
Y1763929D01*
X897103Y1557236D02*
X916788D01*
X906946Y1547394D02*
Y1567079D01*
X897103Y1163536D02*
X916788D01*
X906946Y1153693D02*
Y1173378D01*
X897103Y769835D02*
X916788D01*
X906946Y759992D02*
Y779677D01*
X995528Y572984D02*
X1015213D01*
X1005371Y563142D02*
Y582827D01*
X897103Y376134D02*
X916788D01*
X906946Y366291D02*
Y385976D01*
X897103Y-17567D02*
X916788D01*
X906946Y-27409D02*
Y-7724D01*
X798678Y2147788D02*
X818363D01*
X808520Y2137945D02*
Y2157630D01*
X798678Y1754087D02*
X818363D01*
X808520Y1744244D02*
Y1763929D01*
X700253Y1557236D02*
X719938D01*
X710095Y1547394D02*
Y1567079D01*
X798678Y1360386D02*
X818363D01*
X808520Y1350543D02*
Y1370228D01*
X798678Y572984D02*
X818363D01*
X808520Y563142D02*
Y582827D01*
X798678Y179284D02*
X818363D01*
X808520Y169441D02*
Y189126D01*
X700253Y-17567D02*
X719938D01*
X710095Y-27409D02*
Y-7724D01*
X601827Y1754087D02*
X621513D01*
X611670Y1744244D02*
Y1763929D01*
X503402Y1557236D02*
X523087D01*
X513245Y1547394D02*
Y1567079D01*
X503402Y769835D02*
X523087D01*
X513245Y759992D02*
Y779677D01*
X601827Y572984D02*
X621513D01*
X611670Y563142D02*
Y582827D01*
X601827Y179284D02*
X621513D01*
X611670Y169441D02*
Y189126D01*
X503402Y-17567D02*
X523087D01*
X513245Y-27409D02*
Y-7724D01*
X404977Y2147788D02*
X424662D01*
X414820Y2137945D02*
Y2157630D01*
X306552Y1163536D02*
X326237D01*
X316394Y1153693D02*
Y1173378D01*
X404977Y572984D02*
X424662D01*
X414820Y563142D02*
Y582827D01*
X404977Y179284D02*
X424662D01*
X414820Y169441D02*
Y189126D01*
X306552Y-17567D02*
X326237D01*
X316394Y-27409D02*
Y-7724D01*
X109701Y1557236D02*
X129387D01*
X119544Y1547394D02*
Y1567079D01*
X109701Y1163536D02*
X129387D01*
X119544Y1153693D02*
Y1173378D01*
X109701Y769835D02*
X129387D01*
X119544Y759992D02*
Y779677D01*
X208127Y572984D02*
X227812D01*
X217969Y563142D02*
Y582827D01*
X109701Y376134D02*
X129387D01*
X119544Y366291D02*
Y385976D01*
X11276Y2147788D02*
X30961D01*
X21119Y2137945D02*
Y2157630D01*
X-87149Y376134D02*
X-67464D01*
X-77306Y366291D02*
Y385976D01*
X11276Y179284D02*
X30961D01*
X21119Y169441D02*
Y189126D01*
X440158Y2310000D02*
X459842D01*
X450000Y2300157D02*
Y2319843D01*
X131718Y2310574D02*
X151403D01*
X141560Y2300731D02*
Y2320416D01*
X577597Y1603348D02*
X597283D01*
X587440Y1593505D02*
Y1613190D01*
X522597Y1763348D02*
X542283D01*
X532440Y1753505D02*
Y1773190D01*
X635158Y1910000D02*
X654842D01*
X645000Y1900158D02*
Y1919842D01*
X744158Y2535000D02*
X763842D01*
X754000Y2525157D02*
Y2544843D01*
X746142Y2345000D02*
X765827D01*
X755985Y2335157D02*
Y2354842D01*
X351142Y2555000D02*
X370827D01*
X360985Y2545157D02*
Y2564842D01*
X686142Y370000D02*
X705827D01*
X695985Y360157D02*
Y379842D01*
X1301142Y805000D02*
X1320827D01*
X1310985Y795157D02*
Y814842D01*
X1991142Y2175000D02*
X2010827D01*
X2000985Y2165157D02*
Y2184842D01*
X606142Y645000D02*
X625827D01*
X615985Y635157D02*
Y654842D01*
X411158Y2526000D02*
X430842D01*
X421000Y2516157D02*
Y2535843D01*
X446142Y970000D02*
X465827D01*
X455985Y960157D02*
Y979842D01*
X423357Y1160000D02*
X451357D01*
X437357Y1146000D02*
Y1174000D01*
X514662Y1069362D02*
X542662D01*
X528662Y1055362D02*
Y1083362D01*
X1381985Y1393346D02*
X1409985D01*
X1395985Y1379346D02*
Y1407346D01*
X1036985Y2330000D02*
X1064985D01*
X1050985Y2316000D02*
Y2344000D01*
%TF.MD5,05546800a97ee8a64cd2092cd459cce9*%
M02*
