G04 Layer_Color=32768*
%FSLAX26Y26*%
%MOIN*%
%TF.FileFunction,Other,Mechanical_15*%
%TF.Part,Single*%
G01*
G75*
%TA.AperFunction,NonConductor*%
%ADD67C,0.003937*%
%ADD93C,0.001968*%
D67*
X1385000Y692314D02*
Y731684D01*
X1365316Y712000D02*
X1404686D01*
X393308Y1373662D02*
Y1413032D01*
X373622Y1393346D02*
X412992D01*
X570000Y2200314D02*
Y2239684D01*
X550316Y2220000D02*
X589686D01*
X230000Y2200314D02*
Y2239684D01*
X210316Y2220000D02*
X249686D01*
X1765316Y2340000D02*
X1804686D01*
X1785000Y2320314D02*
Y2359684D01*
X1840118Y2261260D02*
Y2418740D01*
X1729882Y2261260D02*
Y2418740D01*
Y2261260D02*
X1840118D01*
X1729882Y2418740D02*
X1840118D01*
X1900000Y2330314D02*
Y2369684D01*
X1880316Y2350000D02*
X1919686D01*
X1505000Y2447314D02*
Y2486684D01*
X1485316Y2467000D02*
X1524686D01*
X1390000Y2442314D02*
Y2481684D01*
X1370316Y2462000D02*
X1409686D01*
X1620316Y2335000D02*
X1659686D01*
X1640000Y2315314D02*
Y2354684D01*
X286299Y810002D02*
X325669D01*
X305985Y790316D02*
Y829686D01*
X610944Y805590D02*
Y844960D01*
X591260Y825276D02*
X630630D01*
X286299Y935000D02*
X325669D01*
X305985Y915314D02*
Y954684D01*
X757000Y420316D02*
Y459686D01*
X737316Y440000D02*
X776686D01*
X756000Y702316D02*
Y741686D01*
X736316Y722000D02*
X775686D01*
X220316Y2533500D02*
X259686D01*
X240000Y2513814D02*
Y2553186D01*
X-19684Y2533000D02*
X19686D01*
X0Y2513314D02*
Y2552684D01*
X567756Y2536840D02*
X607126D01*
X587440Y2517155D02*
Y2556526D01*
X715316Y584000D02*
X754686D01*
X735000Y564314D02*
Y603684D01*
X595000Y2385314D02*
Y2424684D01*
X575316Y2405000D02*
X614686D01*
X265000Y2380314D02*
Y2419684D01*
X245316Y2400000D02*
X284686D01*
X1410000Y2257314D02*
Y2296684D01*
X1390316Y2277000D02*
X1429686D01*
X1275316Y2272000D02*
X1314686D01*
X1295000Y2252314D02*
Y2291684D01*
X1170000Y2252314D02*
Y2291684D01*
X1150316Y2272000D02*
X1189686D01*
X1485316Y2277000D02*
X1524686D01*
X1505000Y2257314D02*
Y2296684D01*
X1565316Y2097000D02*
X1604686D01*
X1585000Y2077314D02*
Y2116684D01*
X454692Y863140D02*
X494062D01*
X474376Y843456D02*
Y882826D01*
X332874Y1579646D02*
Y1617048D01*
X314174Y1598346D02*
X351576D01*
X285630Y1576692D02*
X380118D01*
X285630Y1620000D02*
X380118D01*
X285630Y1576692D02*
Y1620000D01*
X380118Y1576692D02*
Y1620000D01*
X602874Y1383662D02*
Y1423032D01*
X583190Y1403346D02*
X622560D01*
X237244Y1119881D02*
Y1230118D01*
X394724Y1119881D02*
Y1230118D01*
X237244Y1119881D02*
X394724D01*
X237244Y1230118D02*
X394724D01*
X296300Y1174999D02*
X335670D01*
X315984Y1155315D02*
Y1194686D01*
X335984Y1049802D02*
Y1087204D01*
X317284Y1068504D02*
X354686D01*
X288740Y1090158D02*
X383228D01*
X288740Y1046850D02*
X383228D01*
Y1090158D01*
X288740Y1046850D02*
Y1090158D01*
X398308Y1875944D02*
Y1915314D01*
X378622Y1895630D02*
X417992D01*
X475000Y1588300D02*
Y1625700D01*
X456300Y1607000D02*
X493702D01*
X427756Y1585346D02*
X522244D01*
X427756Y1628654D02*
X522244D01*
X427756Y1585346D02*
Y1628654D01*
X522244Y1585346D02*
Y1628654D01*
X367874Y1728662D02*
Y1768032D01*
X348190Y1748346D02*
X387560D01*
X605000Y1277314D02*
Y1316684D01*
X585316Y1297000D02*
X624686D01*
X605000Y1487314D02*
Y1526684D01*
X585316Y1507000D02*
X624686D01*
X1655316Y1167000D02*
X1694686D01*
X1675000Y1147314D02*
Y1186684D01*
X1650316Y1497000D02*
X1689686D01*
X1670000Y1477314D02*
Y1516684D01*
X1660316Y15000D02*
X1699686D01*
X1680000Y-4686D02*
Y34684D01*
X1660316Y387000D02*
X1699686D01*
X1680000Y367314D02*
Y406684D01*
X1190316Y1212000D02*
X1229686D01*
X1210000Y1192314D02*
Y1231684D01*
X1245000Y1377314D02*
Y1416684D01*
X1225316Y1397000D02*
X1264686D01*
X1330316Y1042000D02*
X1369686D01*
X1350000Y1022314D02*
Y1061684D01*
X1410316Y1257000D02*
X1449686D01*
X1430000Y1237314D02*
Y1276684D01*
X780300Y1908000D02*
X819670D01*
X799984Y1888314D02*
Y1927684D01*
D93*
X1335788Y798614D02*
X1434212D01*
X1335788Y625386D02*
X1434212D01*
X1335788D02*
Y798614D01*
X1434212Y625386D02*
Y798614D01*
X285040Y1539016D02*
X501576D01*
X285040Y1247676D02*
X501576D01*
X285040D02*
Y1539016D01*
X501576Y1247676D02*
Y1539016D01*
X512914Y2175512D02*
X627086D01*
X512914Y2264488D02*
X627086D01*
X512914Y2175512D02*
Y2264488D01*
X627086Y2175512D02*
Y2264488D01*
X172914Y2175512D02*
X287086D01*
X172914Y2264488D02*
X287086D01*
X172914Y2175512D02*
Y2264488D01*
X287086Y2175512D02*
Y2264488D01*
X1860630Y2281102D02*
X1939370D01*
X1860630Y2418898D02*
X1939370D01*
Y2281102D02*
Y2418898D01*
X1860630Y2281102D02*
Y2418898D01*
X1453820Y2553614D02*
X1556182D01*
X1453820Y2380386D02*
X1556182D01*
X1453820D02*
Y2553614D01*
X1556182Y2380386D02*
Y2553614D01*
X1350630Y2530898D02*
X1429370D01*
X1350630Y2393102D02*
X1429370D01*
X1350630D02*
Y2530898D01*
X1429370Y2393102D02*
Y2530898D01*
X741252Y2430504D02*
X772748D01*
X741252Y2493496D02*
X772748D01*
Y2430504D02*
Y2493496D01*
X741252Y2430504D02*
Y2493496D01*
X757000Y2451174D02*
Y2472826D01*
X746174Y2462000D02*
X767828D01*
X404252Y2423504D02*
X435748D01*
X404252Y2486496D02*
X435748D01*
Y2423504D02*
Y2486496D01*
X404252Y2423504D02*
Y2486496D01*
X420000Y2444174D02*
Y2465826D01*
X409174Y2455000D02*
X430828D01*
X1573072Y2252322D02*
Y2417678D01*
X1706930Y2252322D02*
Y2417678D01*
X1573072D02*
X1706930D01*
X1573072Y2252322D02*
X1706930D01*
X374883Y770632D02*
Y849372D01*
X237087Y770632D02*
Y849372D01*
X374883D01*
X237087Y770632D02*
X374883D01*
X571574Y894174D02*
X650314D01*
X571574Y756378D02*
X650314D01*
X571574D02*
Y894174D01*
X650314Y756378D02*
Y894174D01*
X374881Y895630D02*
Y974370D01*
X237087Y895630D02*
Y974370D01*
X374881D01*
X237087Y895630D02*
X374881D01*
X664480Y394724D02*
X849520D01*
X664480Y485276D02*
X849520D01*
X664480Y394724D02*
Y485276D01*
X849520Y394724D02*
Y485276D01*
X663480Y676724D02*
X848520D01*
X663480Y767276D02*
X848520D01*
X663480Y676724D02*
Y767276D01*
X848520Y676724D02*
Y767276D01*
X332520Y2488224D02*
Y2578776D01*
X147480Y2488224D02*
Y2578776D01*
X332520D01*
X147480Y2488224D02*
X332520D01*
X-92520Y2487724D02*
Y2578276D01*
X92520Y2487724D02*
Y2578276D01*
X-92520Y2487724D02*
X92520D01*
X-92520Y2578276D02*
X92520D01*
X679960Y2491564D02*
Y2582117D01*
X494920Y2491564D02*
Y2582117D01*
X679960D01*
X494920Y2491564D02*
X679960D01*
X805866Y501322D02*
Y666678D01*
X664134Y501322D02*
Y666678D01*
Y501322D02*
X805866D01*
X664134Y666678D02*
X805866D01*
X483780Y2338070D02*
X706220D01*
X483780Y2471928D02*
X706220D01*
X483780Y2338070D02*
Y2471928D01*
X706220Y2338070D02*
Y2471928D01*
X153780Y2333070D02*
X376220D01*
X153780Y2466928D02*
X376220D01*
X153780Y2333070D02*
Y2466928D01*
X376220Y2333070D02*
Y2466928D01*
X1372598Y2198260D02*
X1447402D01*
X1372598Y2355740D02*
X1447402D01*
Y2198260D02*
Y2355740D01*
X1372598Y2198260D02*
Y2355740D01*
X1232008Y2179480D02*
Y2364520D01*
X1357992Y2179480D02*
Y2364520D01*
X1232008D02*
X1357992D01*
X1232008Y2179480D02*
X1357992D01*
X1124724D02*
X1215276D01*
X1124724Y2364520D02*
X1215276D01*
Y2179480D02*
Y2364520D01*
X1124724Y2179480D02*
Y2364520D01*
X1554212Y2190386D02*
Y2363614D01*
X1455788Y2190386D02*
Y2363614D01*
Y2190386D02*
X1554212D01*
X1455788Y2363614D02*
X1554212D01*
X1634212Y2010386D02*
Y2183614D01*
X1535788Y2010386D02*
Y2183614D01*
Y2010386D02*
X1634212D01*
X1535788Y2183614D02*
X1634212D01*
X391700Y792274D02*
Y934006D01*
X557054Y792274D02*
Y934006D01*
X391700Y792274D02*
X557054D01*
X391700Y934006D02*
X557054D01*
X533976Y1363976D02*
X671772D01*
X533976Y1442716D02*
X671772D01*
X533976Y1363976D02*
Y1442716D01*
X671772Y1363976D02*
Y1442716D01*
X329410Y1856260D02*
X467206D01*
X329410Y1935000D02*
X467206D01*
X329410Y1856260D02*
Y1935000D01*
X467206Y1856260D02*
Y1935000D01*
X252716Y1840866D02*
X483032D01*
X252716Y1655826D02*
X483032D01*
Y1840866D01*
X252716Y1655826D02*
Y1840866D01*
X518386Y1247788D02*
X691614D01*
X518386Y1346212D02*
X691614D01*
X518386Y1247788D02*
Y1346212D01*
X691614Y1247788D02*
Y1346212D01*
X518386Y1556212D02*
X691614D01*
X518386Y1457788D02*
X691614D01*
Y1556212D01*
X518386Y1457788D02*
Y1556212D01*
X1625788Y1080386D02*
Y1253614D01*
X1724212Y1080386D02*
Y1253614D01*
X1625788D02*
X1724212D01*
X1625788Y1080386D02*
X1724212D01*
X1620788Y1410386D02*
Y1583614D01*
X1719212Y1410386D02*
Y1583614D01*
X1620788D02*
X1719212D01*
X1620788Y1410386D02*
X1719212D01*
X1630788Y-71614D02*
Y101614D01*
X1729212Y-71614D02*
Y101614D01*
X1630788D02*
X1729212D01*
X1630788Y-71614D02*
X1729212D01*
X1630788Y300386D02*
Y473614D01*
X1729212Y300386D02*
Y473614D01*
X1630788D02*
X1729212D01*
X1630788Y300386D02*
X1729212D01*
X1160788Y1125386D02*
Y1298614D01*
X1259212Y1125386D02*
Y1298614D01*
X1160788D02*
X1259212D01*
X1160788Y1125386D02*
X1259212D01*
X1158386Y1446212D02*
X1331614D01*
X1158386Y1347788D02*
X1331614D01*
Y1446212D01*
X1158386Y1347788D02*
Y1446212D01*
X1285040Y973102D02*
Y1110898D01*
X1414962Y973102D02*
Y1110898D01*
X1285040D02*
X1414962D01*
X1285040Y973102D02*
X1414962D01*
X1494960Y1188102D02*
Y1325898D01*
X1365040Y1188102D02*
Y1325898D01*
Y1188102D02*
X1494960D01*
X1365040Y1325898D02*
X1494960D01*
X939748Y1833196D02*
Y1982802D01*
X660220Y1833196D02*
Y1982802D01*
Y1833196D02*
X939748D01*
X660220Y1982802D02*
X939748D01*
%TF.MD5,b4a27862de7db8f941bb4063cc78010b*%
M02*
