G04 Layer_Color=255*
%FSLAX26Y26*%
%MOIN*%
%TF.FileFunction,Pads,Top*%
%TF.Part,Single*%
G01*
G75*
%TA.AperFunction,SMDPad,CuDef*%
%ADD10R,0.110236X0.066929*%
%TA.AperFunction,ComponentPad*%
%ADD13R,0.060000X0.060000*%
%ADD14C,0.059055*%
%ADD15R,0.059055X0.059055*%
%ADD16C,0.118110*%
%TA.AperFunction,ViaPad*%
%ADD17C,0.196850*%
D10*
X863960Y1908000D02*
D03*
X736008D02*
D03*
D13*
X597442Y2100000D02*
D03*
X497442D02*
D03*
X397442D02*
D03*
X297442D02*
D03*
X1178976D02*
D03*
X1078976D02*
D03*
X978976D02*
D03*
X878976D02*
D03*
D14*
X2075984Y568504D02*
D03*
X2175984D02*
D03*
X2075984Y668504D02*
D03*
X2175984D02*
D03*
X2075984Y768504D02*
D03*
X2175984D02*
D03*
X2075984Y868504D02*
D03*
X2175984D02*
D03*
X2075984Y968504D02*
D03*
X2175984D02*
D03*
X2075984Y1068504D02*
D03*
X2175984D02*
D03*
X2075984Y1168504D02*
D03*
X2175984D02*
D03*
X2075984Y1268504D02*
D03*
X2175984D02*
D03*
X2075984Y1368504D02*
D03*
X2175984D02*
D03*
X2075984Y1468504D02*
D03*
X2175984D02*
D03*
X2075984Y1568504D02*
D03*
X2175984D02*
D03*
X2075984Y1668504D02*
D03*
X2175984D02*
D03*
X2075984Y1768504D02*
D03*
X2175984D02*
D03*
X2075984Y1868504D02*
D03*
X2175984D02*
D03*
X2075984Y1968504D02*
D03*
X-50000Y568504D02*
D03*
X50000D02*
D03*
X-50000Y668504D02*
D03*
X50000D02*
D03*
X-50000Y768504D02*
D03*
X50000D02*
D03*
X-50000Y868504D02*
D03*
X50000D02*
D03*
X-50000Y968504D02*
D03*
X50000D02*
D03*
X-50000Y1068504D02*
D03*
X50000D02*
D03*
X-50000Y1168504D02*
D03*
X50000D02*
D03*
X-50000Y1268504D02*
D03*
X50000D02*
D03*
X-50000Y1368504D02*
D03*
X50000D02*
D03*
X-50000Y1468504D02*
D03*
X50000D02*
D03*
X-50000Y1568504D02*
D03*
X50000D02*
D03*
X-50000Y1668504D02*
D03*
X50000D02*
D03*
X-50000Y1768504D02*
D03*
X50000D02*
D03*
X-50000Y1868504D02*
D03*
X50000D02*
D03*
X-50000Y1968504D02*
D03*
D15*
X2175984D02*
D03*
X50000D02*
D03*
D16*
X1840000Y1447000D02*
D03*
X1040000Y1847000D02*
D03*
Y1547000D02*
D03*
Y1347000D02*
D03*
X1840000Y1847000D02*
D03*
Y1047000D02*
D03*
X1835000Y-53000D02*
D03*
Y747000D02*
D03*
X1035000Y247000D02*
D03*
Y447000D02*
D03*
Y747000D02*
D03*
X1835000Y347000D02*
D03*
D17*
X2125985Y2362204D02*
D03*
X0D02*
D03*
X2125984Y0D02*
D03*
X0D02*
D03*
%TF.MD5,7b51a6b4296aced57f723eb91ac4f3c4*%
M02*
