G04 Layer_Color=2752767*
%FSLAX26Y26*%
%MOIN*%
%TF.FileFunction,Drawing*%
%TF.Part,Single*%
G01*
G75*
%TA.AperFunction,NonConductor*%
%ADD106C,0.005000*%
%ADD107C,0.006667*%
D106*
X577442Y2080000D02*
Y2120000D01*
X617442D01*
Y2080000D01*
X577442D01*
X477442D02*
Y2120000D01*
X517442D01*
Y2080000D01*
X477442D01*
X377442D02*
Y2120000D01*
X417442D01*
Y2080000D01*
X377442D01*
X277442D02*
Y2120000D01*
X317442D01*
Y2080000D01*
X277442D01*
X1840000Y1427000D02*
X1820000Y1467000D01*
X1860000D01*
X1840000Y1427000D01*
X1040000Y1827000D02*
X1020000Y1867000D01*
X1060000D01*
X1040000Y1827000D01*
Y1527000D02*
X1020000Y1567000D01*
X1060000D01*
X1040000Y1527000D01*
Y1327000D02*
X1020000Y1367000D01*
X1060000D01*
X1040000Y1327000D01*
X1840000Y1827000D02*
X1820000Y1867000D01*
X1860000D01*
X1840000Y1827000D01*
Y1027000D02*
X1820000Y1067000D01*
X1860000D01*
X1840000Y1027000D01*
X1835000Y-73000D02*
X1815000Y-33000D01*
X1855000D01*
X1835000Y-73000D01*
Y727000D02*
X1815000Y767000D01*
X1855000D01*
X1835000Y727000D01*
X1035000Y227000D02*
X1015000Y267000D01*
X1055000D01*
X1035000Y227000D01*
Y427000D02*
X1015000Y467000D01*
X1055000D01*
X1035000Y427000D01*
Y727000D02*
X1015000Y767000D01*
X1055000D01*
X1035000Y727000D01*
X1835000Y327000D02*
X1815000Y367000D01*
X1855000D01*
X1835000Y327000D01*
X1158976Y2080000D02*
Y2120000D01*
X1198976D01*
Y2080000D01*
X1158976D01*
X1058976D02*
Y2120000D01*
X1098976D01*
Y2080000D01*
X1058976D01*
X958976D02*
Y2120000D01*
X998976D01*
Y2080000D01*
X958976D01*
X858976D02*
Y2120000D01*
X898976D01*
Y2080000D01*
X858976D01*
X2125985Y2342204D02*
X2135985Y2352204D01*
X2145985D01*
X2135985Y2362204D01*
X2145985Y2372204D01*
X2135985D01*
X2125985Y2382204D01*
X2115985Y2372204D01*
X2105985D01*
X2115985Y2362204D01*
X2105985Y2352204D01*
X2115985D01*
X2125985Y2342204D01*
X0D02*
X10000Y2352204D01*
X20000D01*
X10000Y2362204D01*
X20000Y2372204D01*
X10000D01*
X0Y2382204D01*
X-10000Y2372204D01*
X-20000D01*
X-10000Y2362204D01*
X-20000Y2352204D01*
X-10000D01*
X0Y2342204D01*
X2125984Y-20000D02*
X2135984Y-10000D01*
X2145984D01*
X2135984Y0D01*
X2145984Y10000D01*
X2135984D01*
X2125984Y20000D01*
X2115984Y10000D01*
X2105984D01*
X2115984Y0D01*
X2105984Y-10000D01*
X2115984D01*
X2125984Y-20000D01*
X0D02*
X10000Y-10000D01*
X20000D01*
X10000Y0D01*
X20000Y10000D01*
X10000D01*
X0Y20000D01*
X-10000Y10000D01*
X-20000D01*
X-10000Y0D01*
X-20000Y-10000D01*
X-10000D01*
X0Y-20000D01*
X100000Y2288276D02*
X110000Y2308276D01*
X100000Y2328276D01*
X120000Y2318276D01*
X140000Y2328276D01*
X130000Y2308276D01*
X140000Y2288276D01*
X120000Y2298276D01*
X100000Y2288276D01*
X735985Y2506500D02*
X745985Y2526500D01*
X735985Y2546500D01*
X755985Y2536500D01*
X775985Y2546500D01*
X765985Y2526500D01*
X775985Y2506500D01*
X755985Y2516500D01*
X735985Y2506500D01*
X400000Y2485345D02*
X410000Y2505345D01*
X400000Y2525345D01*
X420000Y2515345D01*
X440000Y2525345D01*
X430000Y2505345D01*
X440000Y2485345D01*
X420000Y2495345D01*
X400000Y2485345D01*
X330000Y1395000D02*
X340000Y1415000D01*
X330000Y1435000D01*
X350000Y1425000D01*
X370000Y1435000D01*
X360000Y1415000D01*
X370000Y1395000D01*
X350000Y1405000D01*
X330000Y1395000D01*
Y1351692D02*
X340000Y1371692D01*
X330000Y1391692D01*
X350000Y1381692D01*
X370000Y1391692D01*
X360000Y1371692D01*
X370000Y1351692D01*
X350000Y1361692D01*
X330000Y1351692D01*
X373308Y1395000D02*
X383308Y1415000D01*
X373308Y1435000D01*
X393308Y1425000D01*
X413308Y1435000D01*
X403308Y1415000D01*
X413308Y1395000D01*
X393308Y1405000D01*
X373308Y1395000D01*
Y1351692D02*
X383308Y1371692D01*
X373308Y1391692D01*
X393308Y1381692D01*
X413308Y1391692D01*
X403308Y1371692D01*
X413308Y1351692D01*
X393308Y1361692D01*
X373308Y1351692D01*
X416614Y1395000D02*
X426614Y1415000D01*
X416614Y1435000D01*
X436614Y1425000D01*
X456614Y1435000D01*
X446614Y1415000D01*
X456614Y1395000D01*
X436614Y1405000D01*
X416614Y1395000D01*
Y1351692D02*
X426614Y1371692D01*
X416614Y1391692D01*
X436614Y1381692D01*
X456614Y1391692D01*
X446614Y1371692D01*
X456614Y1351692D01*
X436614Y1361692D01*
X416614Y1351692D01*
X2166473Y2127788D02*
X2176473Y2147788D01*
X2166473Y2167788D01*
X2186473Y2157788D01*
X2206473Y2167788D01*
X2196473Y2147788D01*
X2206473Y2127788D01*
X2186473Y2137788D01*
X2166473Y2127788D01*
Y159284D02*
X2176473Y179284D01*
X2166473Y199284D01*
X2186473Y189284D01*
X2206473Y199284D01*
X2196473Y179284D01*
X2206473Y159284D01*
X2186473Y169284D01*
X2166473Y159284D01*
X1871198Y1930937D02*
X1881198Y1950937D01*
X1871198Y1970937D01*
X1891198Y1960937D01*
X1911198Y1970937D01*
X1901198Y1950937D01*
X1911198Y1930937D01*
X1891198Y1940937D01*
X1871198Y1930937D01*
Y1537236D02*
X1881198Y1557236D01*
X1871198Y1577236D01*
X1891198Y1567236D01*
X1911198Y1577236D01*
X1901198Y1557236D01*
X1911198Y1537236D01*
X1891198Y1547236D01*
X1871198Y1537236D01*
Y1143536D02*
X1881198Y1163536D01*
X1871198Y1183536D01*
X1891198Y1173536D01*
X1911198Y1183536D01*
X1901198Y1163536D01*
X1911198Y1143536D01*
X1891198Y1153536D01*
X1871198Y1143536D01*
X1969623Y552984D02*
X1979623Y572984D01*
X1969623Y592984D01*
X1989623Y582984D01*
X2009623Y592984D01*
X1999623Y572984D01*
X2009623Y552984D01*
X1989623Y562984D01*
X1969623Y552984D01*
X1772772Y2127788D02*
X1782772Y2147788D01*
X1772772Y2167788D01*
X1792772Y2157788D01*
X1812772Y2167788D01*
X1802772Y2147788D01*
X1812772Y2127788D01*
X1792772Y2137788D01*
X1772772Y2127788D01*
X1674347Y1930937D02*
X1684347Y1950937D01*
X1674347Y1970937D01*
X1694347Y1960937D01*
X1714347Y1970937D01*
X1704347Y1950937D01*
X1714347Y1930937D01*
X1694347Y1940937D01*
X1674347Y1930937D01*
X1772772Y1734087D02*
X1782772Y1754087D01*
X1772772Y1774087D01*
X1792772Y1764087D01*
X1812772Y1774087D01*
X1802772Y1754087D01*
X1812772Y1734087D01*
X1792772Y1744087D01*
X1772772Y1734087D01*
Y1340386D02*
X1782772Y1360386D01*
X1772772Y1380386D01*
X1792772Y1370386D01*
X1812772Y1380386D01*
X1802772Y1360386D01*
X1812772Y1340386D01*
X1792772Y1350386D01*
X1772772Y1340386D01*
Y946685D02*
X1782772Y966685D01*
X1772772Y986685D01*
X1792772Y976685D01*
X1812772Y986685D01*
X1802772Y966685D01*
X1812772Y946685D01*
X1792772Y956685D01*
X1772772Y946685D01*
X1674347Y749835D02*
X1684347Y769835D01*
X1674347Y789835D01*
X1694347Y779835D01*
X1714347Y789835D01*
X1704347Y769835D01*
X1714347Y749835D01*
X1694347Y759835D01*
X1674347Y749835D01*
X1772772Y552984D02*
X1782772Y572984D01*
X1772772Y592984D01*
X1792772Y582984D01*
X1812772Y592984D01*
X1802772Y572984D01*
X1812772Y552984D01*
X1792772Y562984D01*
X1772772Y552984D01*
Y159284D02*
X1782772Y179284D01*
X1772772Y199284D01*
X1792772Y189284D01*
X1812772Y199284D01*
X1802772Y179284D01*
X1812772Y159284D01*
X1792772Y169284D01*
X1772772Y159284D01*
X1477497Y1930937D02*
X1487497Y1950937D01*
X1477497Y1970937D01*
X1497497Y1960937D01*
X1517497Y1970937D01*
X1507497Y1950937D01*
X1517497Y1930937D01*
X1497497Y1940937D01*
X1477497Y1930937D01*
X1575922Y1734087D02*
X1585922Y1754087D01*
X1575922Y1774087D01*
X1595922Y1764087D01*
X1615922Y1774087D01*
X1605922Y1754087D01*
X1615922Y1734087D01*
X1595922Y1744087D01*
X1575922Y1734087D01*
X1477497Y1537236D02*
X1487497Y1557236D01*
X1477497Y1577236D01*
X1497497Y1567236D01*
X1517497Y1577236D01*
X1507497Y1557236D01*
X1517497Y1537236D01*
X1497497Y1547236D01*
X1477497Y1537236D01*
Y1143536D02*
X1487497Y1163536D01*
X1477497Y1183536D01*
X1497497Y1173536D01*
X1517497Y1183536D01*
X1507497Y1163536D01*
X1517497Y1143536D01*
X1497497Y1153536D01*
X1477497Y1143536D01*
Y749835D02*
X1487497Y769835D01*
X1477497Y789835D01*
X1497497Y779835D01*
X1517497Y789835D01*
X1507497Y769835D01*
X1517497Y749835D01*
X1497497Y759835D01*
X1477497Y749835D01*
X1575922Y552984D02*
X1585922Y572984D01*
X1575922Y592984D01*
X1595922Y582984D01*
X1615922Y592984D01*
X1605922Y572984D01*
X1615922Y552984D01*
X1595922Y562984D01*
X1575922Y552984D01*
X1477497Y356134D02*
X1487497Y376134D01*
X1477497Y396134D01*
X1497497Y386134D01*
X1517497Y396134D01*
X1507497Y376134D01*
X1517497Y356134D01*
X1497497Y366134D01*
X1477497Y356134D01*
X1575922Y159284D02*
X1585922Y179284D01*
X1575922Y199284D01*
X1595922Y189284D01*
X1615922Y199284D01*
X1605922Y179284D01*
X1615922Y159284D01*
X1595922Y169284D01*
X1575922Y159284D01*
X1477497Y-37567D02*
X1487497Y-17567D01*
X1477497Y2433D01*
X1497497Y-7567D01*
X1517497Y2433D01*
X1507497Y-17567D01*
X1517497Y-37567D01*
X1497497Y-27567D01*
X1477497Y-37567D01*
X1379072Y1734087D02*
X1389072Y1754087D01*
X1379072Y1774087D01*
X1399072Y1764087D01*
X1419072Y1774087D01*
X1409072Y1754087D01*
X1419072Y1734087D01*
X1399072Y1744087D01*
X1379072Y1734087D01*
X1280646Y1537236D02*
X1290646Y1557236D01*
X1280646Y1577236D01*
X1300646Y1567236D01*
X1320646Y1577236D01*
X1310646Y1557236D01*
X1320646Y1537236D01*
X1300646Y1547236D01*
X1280646Y1537236D01*
Y1143536D02*
X1290646Y1163536D01*
X1280646Y1183536D01*
X1300646Y1173536D01*
X1320646Y1183536D01*
X1310646Y1163536D01*
X1320646Y1143536D01*
X1300646Y1153536D01*
X1280646Y1143536D01*
X1379072Y552984D02*
X1389072Y572984D01*
X1379072Y592984D01*
X1399072Y582984D01*
X1419072Y592984D01*
X1409072Y572984D01*
X1419072Y552984D01*
X1399072Y562984D01*
X1379072Y552984D01*
Y159284D02*
X1389072Y179284D01*
X1379072Y199284D01*
X1399072Y189284D01*
X1419072Y199284D01*
X1409072Y179284D01*
X1419072Y159284D01*
X1399072Y169284D01*
X1379072Y159284D01*
X1280646Y-37567D02*
X1290646Y-17567D01*
X1280646Y2433D01*
X1300646Y-7567D01*
X1320646Y2433D01*
X1310646Y-17567D01*
X1320646Y-37567D01*
X1300646Y-27567D01*
X1280646Y-37567D01*
X1083796Y1930937D02*
X1093796Y1950937D01*
X1083796Y1970937D01*
X1103796Y1960937D01*
X1123796Y1970937D01*
X1113796Y1950937D01*
X1123796Y1930937D01*
X1103796Y1940937D01*
X1083796Y1930937D01*
X1182221Y1734087D02*
X1192221Y1754087D01*
X1182221Y1774087D01*
X1202221Y1764087D01*
X1222221Y1774087D01*
X1212221Y1754087D01*
X1222221Y1734087D01*
X1202221Y1744087D01*
X1182221Y1734087D01*
X1083796Y1143536D02*
X1093796Y1163536D01*
X1083796Y1183536D01*
X1103796Y1173536D01*
X1123796Y1183536D01*
X1113796Y1163536D01*
X1123796Y1143536D01*
X1103796Y1153536D01*
X1083796Y1143536D01*
Y356134D02*
X1093796Y376134D01*
X1083796Y396134D01*
X1103796Y386134D01*
X1123796Y396134D01*
X1113796Y376134D01*
X1123796Y356134D01*
X1103796Y366134D01*
X1083796Y356134D01*
X1182221Y159284D02*
X1192221Y179284D01*
X1182221Y199284D01*
X1202221Y189284D01*
X1222221Y199284D01*
X1212221Y179284D01*
X1222221Y159284D01*
X1202221Y169284D01*
X1182221Y159284D01*
X1083796Y-37567D02*
X1093796Y-17567D01*
X1083796Y2433D01*
X1103796Y-7567D01*
X1123796Y2433D01*
X1113796Y-17567D01*
X1123796Y-37567D01*
X1103796Y-27567D01*
X1083796Y-37567D01*
X886946Y2324638D02*
X896946Y2344638D01*
X886946Y2364638D01*
X906946Y2354638D01*
X926946Y2364638D01*
X916946Y2344638D01*
X926946Y2324638D01*
X906946Y2334638D01*
X886946Y2324638D01*
X985371Y1734087D02*
X995371Y1754087D01*
X985371Y1774087D01*
X1005371Y1764087D01*
X1025371Y1774087D01*
X1015371Y1754087D01*
X1025371Y1734087D01*
X1005371Y1744087D01*
X985371Y1734087D01*
X886946Y1537236D02*
X896946Y1557236D01*
X886946Y1577236D01*
X906946Y1567236D01*
X926946Y1577236D01*
X916946Y1557236D01*
X926946Y1537236D01*
X906946Y1547236D01*
X886946Y1537236D01*
Y1143536D02*
X896946Y1163536D01*
X886946Y1183536D01*
X906946Y1173536D01*
X926946Y1183536D01*
X916946Y1163536D01*
X926946Y1143536D01*
X906946Y1153536D01*
X886946Y1143536D01*
Y749835D02*
X896946Y769835D01*
X886946Y789835D01*
X906946Y779835D01*
X926946Y789835D01*
X916946Y769835D01*
X926946Y749835D01*
X906946Y759835D01*
X886946Y749835D01*
X985371Y552984D02*
X995371Y572984D01*
X985371Y592984D01*
X1005371Y582984D01*
X1025371Y592984D01*
X1015371Y572984D01*
X1025371Y552984D01*
X1005371Y562984D01*
X985371Y552984D01*
X886946Y356134D02*
X896946Y376134D01*
X886946Y396134D01*
X906946Y386134D01*
X926946Y396134D01*
X916946Y376134D01*
X926946Y356134D01*
X906946Y366134D01*
X886946Y356134D01*
Y-37567D02*
X896946Y-17567D01*
X886946Y2433D01*
X906946Y-7567D01*
X926946Y2433D01*
X916946Y-17567D01*
X926946Y-37567D01*
X906946Y-27567D01*
X886946Y-37567D01*
X788520Y2127788D02*
X798520Y2147788D01*
X788520Y2167788D01*
X808520Y2157788D01*
X828520Y2167788D01*
X818520Y2147788D01*
X828520Y2127788D01*
X808520Y2137788D01*
X788520Y2127788D01*
Y1734087D02*
X798520Y1754087D01*
X788520Y1774087D01*
X808520Y1764087D01*
X828520Y1774087D01*
X818520Y1754087D01*
X828520Y1734087D01*
X808520Y1744087D01*
X788520Y1734087D01*
X690095Y1537236D02*
X700095Y1557236D01*
X690095Y1577236D01*
X710095Y1567236D01*
X730095Y1577236D01*
X720095Y1557236D01*
X730095Y1537236D01*
X710095Y1547236D01*
X690095Y1537236D01*
X788520Y1340386D02*
X798520Y1360386D01*
X788520Y1380386D01*
X808520Y1370386D01*
X828520Y1380386D01*
X818520Y1360386D01*
X828520Y1340386D01*
X808520Y1350386D01*
X788520Y1340386D01*
Y552984D02*
X798520Y572984D01*
X788520Y592984D01*
X808520Y582984D01*
X828520Y592984D01*
X818520Y572984D01*
X828520Y552984D01*
X808520Y562984D01*
X788520Y552984D01*
Y159284D02*
X798520Y179284D01*
X788520Y199284D01*
X808520Y189284D01*
X828520Y199284D01*
X818520Y179284D01*
X828520Y159284D01*
X808520Y169284D01*
X788520Y159284D01*
X690095Y-37567D02*
X700095Y-17567D01*
X690095Y2433D01*
X710095Y-7567D01*
X730095Y2433D01*
X720095Y-17567D01*
X730095Y-37567D01*
X710095Y-27567D01*
X690095Y-37567D01*
X493245Y1537236D02*
X503245Y1557236D01*
X493245Y1577236D01*
X513245Y1567236D01*
X533245Y1577236D01*
X523245Y1557236D01*
X533245Y1537236D01*
X513245Y1547236D01*
X493245Y1537236D01*
Y749835D02*
X503245Y769835D01*
X493245Y789835D01*
X513245Y779835D01*
X533245Y789835D01*
X523245Y769835D01*
X533245Y749835D01*
X513245Y759835D01*
X493245Y749835D01*
X591670Y552984D02*
X601670Y572984D01*
X591670Y592984D01*
X611670Y582984D01*
X631670Y592984D01*
X621670Y572984D01*
X631670Y552984D01*
X611670Y562984D01*
X591670Y552984D01*
Y159284D02*
X601670Y179284D01*
X591670Y199284D01*
X611670Y189284D01*
X631670Y199284D01*
X621670Y179284D01*
X631670Y159284D01*
X611670Y169284D01*
X591670Y159284D01*
X493245Y-37567D02*
X503245Y-17567D01*
X493245Y2433D01*
X513245Y-7567D01*
X533245Y2433D01*
X523245Y-17567D01*
X533245Y-37567D01*
X513245Y-27567D01*
X493245Y-37567D01*
X394820Y2127788D02*
X404820Y2147788D01*
X394820Y2167788D01*
X414820Y2157788D01*
X434820Y2167788D01*
X424820Y2147788D01*
X434820Y2127788D01*
X414820Y2137788D01*
X394820Y2127788D01*
X296394Y1143536D02*
X306394Y1163536D01*
X296394Y1183536D01*
X316394Y1173536D01*
X336394Y1183536D01*
X326394Y1163536D01*
X336394Y1143536D01*
X316394Y1153536D01*
X296394Y1143536D01*
X394820Y552984D02*
X404820Y572984D01*
X394820Y592984D01*
X414820Y582984D01*
X434820Y592984D01*
X424820Y572984D01*
X434820Y552984D01*
X414820Y562984D01*
X394820Y552984D01*
Y159284D02*
X404820Y179284D01*
X394820Y199284D01*
X414820Y189284D01*
X434820Y199284D01*
X424820Y179284D01*
X434820Y159284D01*
X414820Y169284D01*
X394820Y159284D01*
X296394Y-37567D02*
X306394Y-17567D01*
X296394Y2433D01*
X316394Y-7567D01*
X336394Y2433D01*
X326394Y-17567D01*
X336394Y-37567D01*
X316394Y-27567D01*
X296394Y-37567D01*
X99544Y1537236D02*
X109544Y1557236D01*
X99544Y1577236D01*
X119544Y1567236D01*
X139544Y1577236D01*
X129544Y1557236D01*
X139544Y1537236D01*
X119544Y1547236D01*
X99544Y1537236D01*
Y1143536D02*
X109544Y1163536D01*
X99544Y1183536D01*
X119544Y1173536D01*
X139544Y1183536D01*
X129544Y1163536D01*
X139544Y1143536D01*
X119544Y1153536D01*
X99544Y1143536D01*
Y749835D02*
X109544Y769835D01*
X99544Y789835D01*
X119544Y779835D01*
X139544Y789835D01*
X129544Y769835D01*
X139544Y749835D01*
X119544Y759835D01*
X99544Y749835D01*
X197969Y552984D02*
X207969Y572984D01*
X197969Y592984D01*
X217969Y582984D01*
X237969Y592984D01*
X227969Y572984D01*
X237969Y552984D01*
X217969Y562984D01*
X197969Y552984D01*
X99544Y356134D02*
X109544Y376134D01*
X99544Y396134D01*
X119544Y386134D01*
X139544Y396134D01*
X129544Y376134D01*
X139544Y356134D01*
X119544Y366134D01*
X99544Y356134D01*
X1119Y2127788D02*
X11119Y2147788D01*
X1119Y2167788D01*
X21119Y2157788D01*
X41119Y2167788D01*
X31119Y2147788D01*
X41119Y2127788D01*
X21119Y2137788D01*
X1119Y2127788D01*
X-97306Y356134D02*
X-87306Y376134D01*
X-97306Y396134D01*
X-77306Y386134D01*
X-57306Y396134D01*
X-67306Y376134D01*
X-57306Y356134D01*
X-77306Y366134D01*
X-97306Y356134D01*
X1119Y159284D02*
X11119Y179284D01*
X1119Y199284D01*
X21119Y189284D01*
X41119Y199284D01*
X31119Y179284D01*
X41119Y159284D01*
X21119Y169284D01*
X1119Y159284D01*
X430000Y2290000D02*
X440000Y2310000D01*
X430000Y2330000D01*
X450000Y2320000D01*
X470000Y2330000D01*
X460000Y2310000D01*
X470000Y2290000D01*
X450000Y2300000D01*
X430000Y2290000D01*
X567440Y1583348D02*
X577440Y1603348D01*
X567440Y1623348D01*
X587440Y1613348D01*
X607440Y1623348D01*
X597440Y1603348D01*
X607440Y1583348D01*
X587440Y1593348D01*
X567440Y1583348D01*
X500000Y1700000D02*
X510000Y1720000D01*
X500000Y1740000D01*
X520000Y1730000D01*
X540000Y1740000D01*
X530000Y1720000D01*
X540000Y1700000D01*
X520000Y1710000D01*
X500000Y1700000D01*
X625000Y1890000D02*
X635000Y1910000D01*
X625000Y1930000D01*
X645000Y1920000D01*
X665000Y1930000D01*
X655000Y1910000D01*
X665000Y1890000D01*
X645000Y1900000D01*
X625000Y1890000D01*
X735985Y2325000D02*
X745985Y2345000D01*
X735985Y2365000D01*
X755985Y2355000D01*
X775985Y2365000D01*
X765985Y2345000D01*
X775985Y2325000D01*
X755985Y2335000D01*
X735985Y2325000D01*
X340985Y2535000D02*
X350985Y2555000D01*
X340985Y2575000D01*
X360985Y2565000D01*
X380985Y2575000D01*
X370985Y2555000D01*
X380985Y2535000D01*
X360985Y2545000D01*
X340985Y2535000D01*
X675985Y350000D02*
X685985Y370000D01*
X675985Y390000D01*
X695985Y380000D01*
X715985Y390000D01*
X705985Y370000D01*
X715985Y350000D01*
X695985Y360000D01*
X675985Y350000D01*
X1290985Y785000D02*
X1300985Y805000D01*
X1290985Y825000D01*
X1310985Y815000D01*
X1330985Y825000D01*
X1320985Y805000D01*
X1330985Y785000D01*
X1310985Y795000D01*
X1290985Y785000D01*
X1980985Y2155000D02*
X1990985Y2175000D01*
X1980985Y2195000D01*
X2000985Y2185000D01*
X2020985Y2195000D01*
X2010985Y2175000D01*
X2020985Y2155000D01*
X2000985Y2165000D01*
X1980985Y2155000D01*
X595985Y625000D02*
X605985Y645000D01*
X595985Y665000D01*
X615985Y655000D01*
X635985Y665000D01*
X625985Y645000D01*
X635985Y625000D01*
X615985Y635000D01*
X595985Y625000D01*
X435985Y950000D02*
X445985Y970000D01*
X435985Y990000D01*
X455985Y980000D01*
X475985Y990000D01*
X465985Y970000D01*
X475985Y950000D01*
X455985Y960000D01*
X435985Y950000D01*
X427357Y1150000D02*
Y1140000D01*
X447357D01*
Y1150000D01*
X457357D01*
Y1170000D01*
X447357D01*
Y1180000D01*
X427357D01*
Y1170000D01*
X417357D01*
Y1150000D01*
X427357D01*
X518662Y1059362D02*
Y1049362D01*
X538662D01*
Y1059362D01*
X548662D01*
Y1079362D01*
X538662D01*
Y1089362D01*
X518662D01*
Y1079362D01*
X508662D01*
Y1059362D01*
X518662D01*
X1385985Y1383346D02*
Y1373346D01*
X1405985D01*
Y1383346D01*
X1415985D01*
Y1403346D01*
X1405985D01*
Y1413346D01*
X1385985D01*
Y1403346D01*
X1375985D01*
Y1383346D01*
X1385985D01*
X1040985Y2320000D02*
Y2310000D01*
X1060985D01*
Y2320000D01*
X1070985D01*
Y2340000D01*
X1060985D01*
Y2350000D01*
X1040985D01*
Y2340000D01*
X1030985D01*
Y2320000D01*
X1040985D01*
D107*
X2095984Y568504D02*
G03*
X2095984Y568504I-20000J0D01*
G01*
X2195984D02*
G03*
X2195984Y568504I-20000J0D01*
G01*
X2095984Y668504D02*
G03*
X2095984Y668504I-20000J0D01*
G01*
X2195984D02*
G03*
X2195984Y668504I-20000J0D01*
G01*
X2095984Y768504D02*
G03*
X2095984Y768504I-20000J0D01*
G01*
X2195984D02*
G03*
X2195984Y768504I-20000J0D01*
G01*
X2095984Y868504D02*
G03*
X2095984Y868504I-20000J0D01*
G01*
X2195984D02*
G03*
X2195984Y868504I-20000J0D01*
G01*
X2095984Y968504D02*
G03*
X2095984Y968504I-20000J0D01*
G01*
X2195984D02*
G03*
X2195984Y968504I-20000J0D01*
G01*
X2095984Y1068504D02*
G03*
X2095984Y1068504I-20000J0D01*
G01*
X2195984D02*
G03*
X2195984Y1068504I-20000J0D01*
G01*
X2095984Y1168504D02*
G03*
X2095984Y1168504I-20000J0D01*
G01*
X2195984D02*
G03*
X2195984Y1168504I-20000J0D01*
G01*
X2095984Y1268504D02*
G03*
X2095984Y1268504I-20000J0D01*
G01*
X2195984D02*
G03*
X2195984Y1268504I-20000J0D01*
G01*
X2095984Y1368504D02*
G03*
X2095984Y1368504I-20000J0D01*
G01*
X2195984D02*
G03*
X2195984Y1368504I-20000J0D01*
G01*
X2095984Y1468504D02*
G03*
X2095984Y1468504I-20000J0D01*
G01*
X2195984D02*
G03*
X2195984Y1468504I-20000J0D01*
G01*
X2095984Y1568504D02*
G03*
X2095984Y1568504I-20000J0D01*
G01*
X2195984D02*
G03*
X2195984Y1568504I-20000J0D01*
G01*
X2095984Y1668504D02*
G03*
X2095984Y1668504I-20000J0D01*
G01*
X2195984D02*
G03*
X2195984Y1668504I-20000J0D01*
G01*
X2095984Y1768504D02*
G03*
X2095984Y1768504I-20000J0D01*
G01*
X2195984D02*
G03*
X2195984Y1768504I-20000J0D01*
G01*
X2095984Y1868504D02*
G03*
X2095984Y1868504I-20000J0D01*
G01*
X2195984D02*
G03*
X2195984Y1868504I-20000J0D01*
G01*
X2095984Y1968504D02*
G03*
X2095984Y1968504I-20000J0D01*
G01*
X2195984D02*
G03*
X2195984Y1968504I-20000J0D01*
G01*
X-30000Y568504D02*
G03*
X-30000Y568504I-20000J0D01*
G01*
X70000D02*
G03*
X70000Y568504I-20000J0D01*
G01*
X-30000Y668504D02*
G03*
X-30000Y668504I-20000J0D01*
G01*
X70000D02*
G03*
X70000Y668504I-20000J0D01*
G01*
X-30000Y768504D02*
G03*
X-30000Y768504I-20000J0D01*
G01*
X70000D02*
G03*
X70000Y768504I-20000J0D01*
G01*
X-30000Y868504D02*
G03*
X-30000Y868504I-20000J0D01*
G01*
X70000D02*
G03*
X70000Y868504I-20000J0D01*
G01*
X-30000Y968504D02*
G03*
X-30000Y968504I-20000J0D01*
G01*
X70000D02*
G03*
X70000Y968504I-20000J0D01*
G01*
X-30000Y1068504D02*
G03*
X-30000Y1068504I-20000J0D01*
G01*
X70000D02*
G03*
X70000Y1068504I-20000J0D01*
G01*
X-30000Y1168504D02*
G03*
X-30000Y1168504I-20000J0D01*
G01*
X70000D02*
G03*
X70000Y1168504I-20000J0D01*
G01*
X-30000Y1268504D02*
G03*
X-30000Y1268504I-20000J0D01*
G01*
X70000D02*
G03*
X70000Y1268504I-20000J0D01*
G01*
X-30000Y1368504D02*
G03*
X-30000Y1368504I-20000J0D01*
G01*
X70000D02*
G03*
X70000Y1368504I-20000J0D01*
G01*
X-30000Y1468504D02*
G03*
X-30000Y1468504I-20000J0D01*
G01*
X70000D02*
G03*
X70000Y1468504I-20000J0D01*
G01*
X-30000Y1568504D02*
G03*
X-30000Y1568504I-20000J0D01*
G01*
X70000D02*
G03*
X70000Y1568504I-20000J0D01*
G01*
X-30000Y1668504D02*
G03*
X-30000Y1668504I-20000J0D01*
G01*
X70000D02*
G03*
X70000Y1668504I-20000J0D01*
G01*
X-30000Y1768504D02*
G03*
X-30000Y1768504I-20000J0D01*
G01*
X70000D02*
G03*
X70000Y1768504I-20000J0D01*
G01*
X-30000Y1868504D02*
G03*
X-30000Y1868504I-20000J0D01*
G01*
X70000D02*
G03*
X70000Y1868504I-20000J0D01*
G01*
X-30000Y1968504D02*
G03*
X-30000Y1968504I-20000J0D01*
G01*
X70000D02*
G03*
X70000Y1968504I-20000J0D01*
G01*
%TF.MD5,f774172264d3b9d42adc4b45b862fe6d*%
M02*
