G04 Layer_Color=65535*
%FSLAX26Y26*%
%MOIN*%
%TF.FileFunction,Legend,Top*%
%TF.Part,Single*%
G01*
G75*
%TA.AperFunction,NonConductor*%
%ADD56C,0.009842*%
%ADD58C,0.007874*%
%ADD59C,0.005900*%
%ADD69C,0.010000*%
%ADD70C,0.003937*%
D56*
X945654Y1908000D02*
G03*
X945654Y1908000I-4921J0D01*
G01*
X201882Y721125D02*
Y681767D01*
X228120D01*
X241239D02*
Y721125D01*
X254358Y708005D01*
X267477Y721125D01*
Y681767D01*
X280597Y701446D02*
X306835D01*
X319954Y714565D02*
X326514Y721125D01*
X339633D01*
X346192Y714565D01*
Y688327D01*
X339633Y681767D01*
X326514D01*
X319954Y688327D01*
Y714565D01*
X359311D02*
X365871Y721125D01*
X378990D01*
X385550Y714565D01*
Y688327D01*
X378990Y681767D01*
X365871D01*
X359311Y688327D01*
Y714565D01*
X398669D02*
X405228Y721125D01*
X418348D01*
X424907Y714565D01*
Y708005D01*
X418348Y701446D01*
X424907Y694886D01*
Y688327D01*
X418348Y681767D01*
X405228D01*
X398669Y688327D01*
Y694886D01*
X405228Y701446D01*
X398669Y708005D01*
Y714565D01*
X405228Y701446D02*
X418348D01*
X201882Y610917D02*
Y650274D01*
X221560D01*
X228120Y643714D01*
Y630595D01*
X221560Y624036D01*
X201882D01*
X247799Y610917D02*
X260918D01*
X267477Y617476D01*
Y630595D01*
X260918Y637155D01*
X247799D01*
X241239Y630595D01*
Y617476D01*
X247799Y610917D01*
X280597Y637155D02*
Y617476D01*
X287156Y610917D01*
X293716Y617476D01*
X300275Y610917D01*
X306835Y617476D01*
Y637155D01*
X339633Y610917D02*
X326514D01*
X319954Y617476D01*
Y630595D01*
X326514Y637155D01*
X339633D01*
X346192Y630595D01*
Y624036D01*
X319954D01*
X359311Y637155D02*
Y610917D01*
Y624036D01*
X365871Y630595D01*
X372430Y637155D01*
X378990D01*
X438026Y650274D02*
X451145D01*
X444586D01*
Y610917D01*
X438026D01*
X451145D01*
X470824D02*
Y637155D01*
X490503D01*
X497062Y630595D01*
Y610917D01*
X510181Y597797D02*
Y637155D01*
X529860D01*
X536420Y630595D01*
Y617476D01*
X529860Y610917D01*
X510181D01*
X549539Y637155D02*
Y617476D01*
X556098Y610917D01*
X575777D01*
Y637155D01*
X595456Y643714D02*
Y637155D01*
X588896D01*
X602015D01*
X595456D01*
Y617476D01*
X602015Y610917D01*
X661051D02*
Y650274D01*
X674170Y637155D01*
X687290Y650274D01*
Y610917D01*
X706968D02*
X720087D01*
X726647Y617476D01*
Y630595D01*
X720087Y637155D01*
X706968D01*
X700409Y630595D01*
Y617476D01*
X706968Y610917D01*
X766004Y650274D02*
Y610917D01*
X746326D01*
X739766Y617476D01*
Y630595D01*
X746326Y637155D01*
X766004D01*
X779124D02*
Y617476D01*
X785683Y610917D01*
X805362D01*
Y637155D01*
X818481Y610917D02*
X831600D01*
X825041D01*
Y650274D01*
X818481D01*
X870957Y610917D02*
X857838D01*
X851279Y617476D01*
Y630595D01*
X857838Y637155D01*
X870957D01*
X877517Y630595D01*
Y624036D01*
X851279D01*
X202999Y511811D02*
Y551168D01*
X222677D01*
X229237Y544609D01*
Y531490D01*
X222677Y524930D01*
X202999D01*
X216118D02*
X229237Y511811D01*
X268594Y551168D02*
X242356D01*
Y511811D01*
X268594D01*
X242356Y531490D02*
X255475D01*
X281713Y551168D02*
Y524930D01*
X294832Y511811D01*
X307952Y524930D01*
Y551168D01*
X386666Y544609D02*
X380107Y551168D01*
X366988D01*
X360428Y544609D01*
Y518371D01*
X366988Y511811D01*
X380107D01*
X386666Y518371D01*
X202999Y472428D02*
X229237D01*
Y465869D01*
X202999Y439630D01*
Y433071D01*
X229237D01*
X242356Y472428D02*
Y433071D01*
X268594D01*
X307952Y465869D02*
X301392Y472428D01*
X288273D01*
X281713Y465869D01*
Y459309D01*
X288273Y452750D01*
X301392D01*
X307952Y446190D01*
Y439630D01*
X301392Y433071D01*
X288273D01*
X281713Y439630D01*
X386666Y465869D02*
X380107Y472428D01*
X366988D01*
X360428Y465869D01*
Y439630D01*
X366988Y433071D01*
X380107D01*
X386666Y439630D01*
X406345Y433071D02*
X419464D01*
X426024Y439630D01*
Y452750D01*
X419464Y459309D01*
X406345D01*
X399786Y452750D01*
Y439630D01*
X406345Y433071D01*
X439143Y459309D02*
Y433071D01*
Y446190D01*
X445703Y452750D01*
X452262Y459309D01*
X458822D01*
X478500Y419952D02*
Y459309D01*
X498179D01*
X504739Y452750D01*
Y439630D01*
X498179Y433071D01*
X478500D01*
D58*
X711402Y1852882D02*
X888568D01*
X711402Y1963118D02*
X888568D01*
Y1852882D02*
Y1858788D01*
X711402Y1852882D02*
Y1858788D01*
X888568Y1957212D02*
Y1963118D01*
X711402Y1957212D02*
Y1963118D01*
D59*
X1711766Y2515376D02*
X1738004D01*
X1724885D01*
Y2476019D01*
X1770802Y2515376D02*
X1757683D01*
X1751123Y2508817D01*
Y2482578D01*
X1757683Y2476019D01*
X1770802D01*
X1777361Y2482578D01*
Y2508817D01*
X1770802Y2515376D01*
X1790480Y2476019D02*
Y2515376D01*
X1810159D01*
X1816719Y2508817D01*
Y2495698D01*
X1810159Y2489138D01*
X1790480D01*
X1795000Y2032582D02*
Y2011264D01*
X1799264Y2007000D01*
X1807792D01*
X1812055Y2011264D01*
Y2032582D01*
X1820583Y2007000D02*
X1829110D01*
X1824846D01*
Y2032582D01*
X1820583Y2028318D01*
X1841901Y2007000D02*
X1850429D01*
X1846165D01*
Y2032582D01*
X1841901Y2028318D01*
X1805000Y902582D02*
Y881264D01*
X1809264Y877000D01*
X1817792D01*
X1822055Y881264D01*
Y902582D01*
X1847638D02*
X1839110Y898318D01*
X1830583Y889791D01*
Y881264D01*
X1834846Y877000D01*
X1843374D01*
X1847638Y881264D01*
Y885527D01*
X1843374Y889791D01*
X1830583D01*
X560000Y1985381D02*
Y2010963D01*
X572791D01*
X577055Y2006699D01*
Y1998172D01*
X572791Y1993908D01*
X560000D01*
X602637Y2010963D02*
X585582D01*
Y1998172D01*
X594110Y2002436D01*
X598374D01*
X602637Y1998172D01*
Y1989644D01*
X598374Y1985381D01*
X589846D01*
X585582Y1989644D01*
X779985Y1813582D02*
Y1788000D01*
X792776D01*
X797039Y1792264D01*
Y1809318D01*
X792776Y1813582D01*
X779985D01*
X805567Y1788000D02*
X814094D01*
X809831D01*
Y1813582D01*
X805567Y1809318D01*
X993976Y1990000D02*
Y2015582D01*
X1006767D01*
X1011031Y2011319D01*
Y2002791D01*
X1006767Y1998527D01*
X993976D01*
X1019558Y2011319D02*
X1023822Y2015582D01*
X1032350D01*
X1036613Y2011319D01*
Y2007055D01*
X1032350Y2002791D01*
X1028086D01*
X1032350D01*
X1036613Y1998527D01*
Y1994264D01*
X1032350Y1990000D01*
X1023822D01*
X1019558Y1994264D01*
X240000Y1985381D02*
Y2010963D01*
X252791D01*
X257055Y2006699D01*
Y1998172D01*
X252791Y1993908D01*
X240000D01*
X278373Y1985381D02*
Y2010963D01*
X265582Y1998172D01*
X282637D01*
X500000Y2551582D02*
Y2526000D01*
X512791D01*
X517055Y2530264D01*
Y2534527D01*
X512791Y2538791D01*
X500000D01*
X512791D01*
X517055Y2543055D01*
Y2547319D01*
X512791Y2551582D01*
X500000D01*
X529846Y2543055D02*
X538374D01*
X542637Y2538791D01*
Y2526000D01*
X529846D01*
X525582Y2530264D01*
X529846Y2534527D01*
X542637D01*
X555428Y2547319D02*
Y2543055D01*
X551165D01*
X559692D01*
X555428D01*
Y2530264D01*
X559692Y2526000D01*
X576747Y2547319D02*
Y2543055D01*
X572483D01*
X581011D01*
X576747D01*
Y2530264D01*
X581011Y2526000D01*
X636439D02*
X619384D01*
X636439Y2543055D01*
Y2547319D01*
X632175Y2551582D01*
X623648D01*
X619384Y2547319D01*
X644577Y-2329D02*
X627520Y-27914D01*
Y-2329D02*
X644577D01*
X627520Y-27914D02*
X644577D01*
X650303Y-2329D02*
Y-27914D01*
X664923D01*
X684782Y-5984D02*
X682345Y-3547D01*
X678690Y-2329D01*
X673817D01*
X670162Y-3547D01*
X667725Y-5984D01*
Y-8420D01*
X668943Y-10857D01*
X670162Y-12075D01*
X672598Y-13293D01*
X679908Y-15730D01*
X682345Y-16948D01*
X683563Y-18167D01*
X684782Y-20604D01*
Y-24259D01*
X682345Y-26695D01*
X678690Y-27914D01*
X673817D01*
X670162Y-26695D01*
X667725Y-24259D01*
X200000Y2551582D02*
Y2526000D01*
X212791D01*
X217055Y2530264D01*
Y2534527D01*
X212791Y2538791D01*
X200000D01*
X212791D01*
X217055Y2543055D01*
Y2547319D01*
X212791Y2551582D01*
X200000D01*
X229846Y2543055D02*
X238374D01*
X242637Y2538791D01*
Y2526000D01*
X229846D01*
X225582Y2530264D01*
X229846Y2534527D01*
X242637D01*
X255428Y2547319D02*
Y2543055D01*
X251165D01*
X259692D01*
X255428D01*
Y2530264D01*
X259692Y2526000D01*
X276747Y2547319D02*
Y2543055D01*
X272483D01*
X281011D01*
X276747D01*
Y2530264D01*
X281011Y2526000D01*
X319384D02*
X327911D01*
X323648D01*
Y2551582D01*
X319384Y2547319D01*
X940000Y2526000D02*
Y2543055D01*
X948527Y2551582D01*
X957055Y2543055D01*
Y2526000D01*
Y2538791D01*
X940000D01*
X965582Y2543055D02*
Y2530264D01*
X969846Y2526000D01*
X982637D01*
Y2543055D01*
X991165D02*
X1008220Y2526000D01*
X999692Y2534527D01*
X1008220Y2543055D01*
X991165Y2526000D01*
X1016747D02*
X1033802Y2543055D01*
X1067911Y2526000D02*
X1076439D01*
X1072175D01*
Y2551582D01*
X1067911D01*
X1089230Y2526000D02*
X1097757D01*
X1093494D01*
Y2543055D01*
X1089230D01*
X1127604Y2551582D02*
Y2526000D01*
X1114812D01*
X1110549Y2530264D01*
Y2538791D01*
X1114812Y2543055D01*
X1127604D01*
D69*
X471337Y2100000D02*
G03*
X471337Y2100000I-22361J0D01*
G01*
X808976Y2100000D02*
G03*
X808976Y2100000I-30000J0D01*
G01*
X146337Y2100000D02*
G03*
X146337Y2100000I-22361J0D01*
G01*
X864370Y92086D02*
G03*
X864370Y92086I-196850J0D01*
G01*
X940000Y947000D02*
Y1947000D01*
Y1946982D02*
X1940004Y1947000D01*
X1940000Y947000D02*
Y1947000D01*
X940000Y947000D02*
X1940000D01*
X935000Y-153000D02*
X1935000D01*
Y847000D01*
X935000Y846982D02*
X1935004Y847000D01*
X935000Y-153000D02*
Y847000D01*
X448976Y2040000D02*
X728976D01*
X448976Y2480000D02*
X728976D01*
Y2040000D02*
Y2480000D01*
X448976Y2040000D02*
Y2480000D01*
X778976Y2040945D02*
Y2480000D01*
X1278976D01*
Y2040945D02*
Y2480000D01*
X778976Y2040945D02*
X1278976D01*
X123976Y2040000D02*
Y2480000D01*
X403976Y2040000D02*
Y2480000D01*
X123976D02*
X403976D01*
X123976Y2040000D02*
X403976D01*
X762520Y15086D02*
Y55086D01*
X607520Y35086D02*
Y185086D01*
Y35086D02*
X757520D01*
X587520Y190086D02*
X627520D01*
D70*
X851096Y92086D02*
G03*
X851096Y92086I-183576J0D01*
G01*
X637520Y155086D02*
X667520Y175086D01*
X727520Y65086D02*
X757520Y35086D01*
X727520Y65086D02*
X747520Y95086D01*
X647520Y105086D02*
X687520Y155086D01*
X667520Y85086D02*
X707520Y135086D01*
X647520Y105086D02*
X707520Y135086D01*
X667520Y85086D02*
X727520Y115086D01*
X607520Y185086D02*
X637520Y155086D01*
X687520Y65086D02*
X747520Y95086D01*
X627520Y125086D02*
X667520Y175086D01*
X627520Y125086D02*
X687520Y155086D01*
Y65086D02*
X727520Y115086D01*
%TF.MD5,04e99a6297fe216d4aae000bc4eaf7a7*%
M02*
