G04 Layer_Color=255*
%FSLAX26Y26*%
%MOIN*%
%TF.FileFunction,Pads,Bot*%
%TF.Part,Single*%
G01*
G75*
%TA.AperFunction,ComponentPad*%
%ADD13R,0.060000X0.060000*%
%ADD14C,0.059055*%
%ADD15R,0.059055X0.059055*%
%ADD16C,0.118110*%
%TA.AperFunction,ViaPad*%
%ADD17C,0.196850*%
%TA.AperFunction,SMDPad,CuDef*%
%ADD29R,0.059055X0.049213*%
%ADD30O,0.023622X0.057087*%
%ADD31R,0.122047X0.094488*%
%ADD32R,0.023622X0.015748*%
%ADD33R,0.102362X0.043307*%
%ADD34R,0.057087X0.045276*%
%ADD35R,0.061024X0.053150*%
%ADD36R,0.021654X0.017716*%
%ADD37R,0.021654X0.051181*%
%ADD38R,0.045276X0.057087*%
%ADD39R,0.045276X0.070866*%
G04:AMPARAMS|DCode=40|XSize=23.622mil|YSize=39.37mil|CornerRadius=2.008mil|HoleSize=0mil|Usage=FLASHONLY|Rotation=180.000|XOffset=0mil|YOffset=0mil|HoleType=Round|Shape=RoundedRectangle|*
%AMROUNDEDRECTD40*
21,1,0.023622,0.035354,0,0,180.0*
21,1,0.019606,0.039370,0,0,180.0*
1,1,0.004016,-0.009803,0.017677*
1,1,0.004016,0.009803,0.017677*
1,1,0.004016,0.009803,-0.017677*
1,1,0.004016,-0.009803,-0.017677*
%
%ADD40ROUNDEDRECTD40*%
%ADD41O,0.051181X0.017716*%
%ADD42R,0.066929X0.037402*%
%ADD43R,0.106299X0.045276*%
%ADD44R,0.070866X0.045276*%
%ADD45O,0.037402X0.023622*%
%ADD46R,0.031496X0.035433*%
%ADD47R,0.043307X0.102362*%
%ADD48R,0.078740X0.125984*%
%ADD49R,0.049213X0.059055*%
G04:AMPARAMS|DCode=50|XSize=21.654mil|YSize=31.496mil|CornerRadius=1.949mil|HoleSize=0mil|Usage=FLASHONLY|Rotation=0.000|XOffset=0mil|YOffset=0mil|HoleType=Round|Shape=RoundedRectangle|*
%AMROUNDEDRECTD50*
21,1,0.021654,0.027599,0,0,0.0*
21,1,0.017756,0.031496,0,0,0.0*
1,1,0.003898,0.008878,-0.013799*
1,1,0.003898,-0.008878,-0.013799*
1,1,0.003898,-0.008878,0.013799*
1,1,0.003898,0.008878,0.013799*
%
%ADD50ROUNDEDRECTD50*%
D13*
X597442Y2100000D02*
D03*
X497442D02*
D03*
X397442D02*
D03*
X297442D02*
D03*
X1178976D02*
D03*
X1078976D02*
D03*
X978976D02*
D03*
X878976D02*
D03*
D14*
X2075984Y568504D02*
D03*
X2175984D02*
D03*
X2075984Y668504D02*
D03*
X2175984D02*
D03*
X2075984Y768504D02*
D03*
X2175984D02*
D03*
X2075984Y868504D02*
D03*
X2175984D02*
D03*
X2075984Y968504D02*
D03*
X2175984D02*
D03*
X2075984Y1068504D02*
D03*
X2175984D02*
D03*
X2075984Y1168504D02*
D03*
X2175984D02*
D03*
X2075984Y1268504D02*
D03*
X2175984D02*
D03*
X2075984Y1368504D02*
D03*
X2175984D02*
D03*
X2075984Y1468504D02*
D03*
X2175984D02*
D03*
X2075984Y1568504D02*
D03*
X2175984D02*
D03*
X2075984Y1668504D02*
D03*
X2175984D02*
D03*
X2075984Y1768504D02*
D03*
X2175984D02*
D03*
X2075984Y1868504D02*
D03*
X2175984D02*
D03*
X2075984Y1968504D02*
D03*
X-50000Y568504D02*
D03*
X50000D02*
D03*
X-50000Y668504D02*
D03*
X50000D02*
D03*
X-50000Y768504D02*
D03*
X50000D02*
D03*
X-50000Y868504D02*
D03*
X50000D02*
D03*
X-50000Y968504D02*
D03*
X50000D02*
D03*
X-50000Y1068504D02*
D03*
X50000D02*
D03*
X-50000Y1168504D02*
D03*
X50000D02*
D03*
X-50000Y1268504D02*
D03*
X50000D02*
D03*
X-50000Y1368504D02*
D03*
X50000D02*
D03*
X-50000Y1468504D02*
D03*
X50000D02*
D03*
X-50000Y1568504D02*
D03*
X50000D02*
D03*
X-50000Y1668504D02*
D03*
X50000D02*
D03*
X-50000Y1768504D02*
D03*
X50000D02*
D03*
X-50000Y1868504D02*
D03*
X50000D02*
D03*
X-50000Y1968504D02*
D03*
D15*
X2175984D02*
D03*
X50000D02*
D03*
D16*
X1840000Y1447000D02*
D03*
X1040000Y1847000D02*
D03*
Y1547000D02*
D03*
Y1347000D02*
D03*
X1840000Y1847000D02*
D03*
Y1047000D02*
D03*
X1835000Y-53000D02*
D03*
Y747000D02*
D03*
X1035000Y247000D02*
D03*
Y447000D02*
D03*
Y747000D02*
D03*
X1835000Y347000D02*
D03*
D17*
X2125985Y2362204D02*
D03*
X0D02*
D03*
X2125984Y0D02*
D03*
X0D02*
D03*
D29*
X1385000Y753338D02*
D03*
Y670662D02*
D03*
X1505000Y2235662D02*
D03*
Y2318338D02*
D03*
X1585000Y2055662D02*
D03*
Y2138338D02*
D03*
X1675000Y1208338D02*
D03*
Y1125662D02*
D03*
X1670000Y1538338D02*
D03*
Y1455662D02*
D03*
X1680000Y56338D02*
D03*
Y-26338D02*
D03*
X1680000Y428338D02*
D03*
Y345662D02*
D03*
X1210000Y1253338D02*
D03*
Y1170662D02*
D03*
D30*
X318308Y1500630D02*
D03*
X368308D02*
D03*
X418308D02*
D03*
X468308D02*
D03*
X318308Y1286062D02*
D03*
X368308D02*
D03*
X418308D02*
D03*
X468308D02*
D03*
D31*
X393308Y1393346D02*
D03*
D32*
X528662Y2245590D02*
D03*
Y2220000D02*
D03*
Y2194410D02*
D03*
X611338D02*
D03*
Y2220000D02*
D03*
Y2245590D02*
D03*
X188662D02*
D03*
Y2220000D02*
D03*
Y2194410D02*
D03*
X271338D02*
D03*
Y2220000D02*
D03*
Y2245590D02*
D03*
D33*
X1785000Y2286850D02*
D03*
Y2393150D02*
D03*
D34*
X1900000Y2314566D02*
D03*
Y2385432D02*
D03*
X1390000Y2497432D02*
D03*
Y2426566D02*
D03*
X610944Y860708D02*
D03*
Y789842D02*
D03*
D35*
X1505000Y2506370D02*
D03*
Y2427630D02*
D03*
D36*
X757000Y2444284D02*
D03*
Y2479716D02*
D03*
X420000Y2437284D02*
D03*
Y2472716D02*
D03*
D37*
X1677402Y2382244D02*
D03*
X1640000D02*
D03*
X1602598D02*
D03*
Y2287756D02*
D03*
X1640000D02*
D03*
X1677402D02*
D03*
D38*
X341417Y810002D02*
D03*
X270551D02*
D03*
X341417Y935000D02*
D03*
X270551D02*
D03*
X567442Y1403346D02*
D03*
X638308D02*
D03*
X362874Y1895630D02*
D03*
X433740D02*
D03*
D39*
X697946Y440000D02*
D03*
X816056D02*
D03*
X696946Y722000D02*
D03*
X815056D02*
D03*
X299056Y2533500D02*
D03*
X180946D02*
D03*
X-59054Y2533000D02*
D03*
X59056D02*
D03*
X646496Y2536840D02*
D03*
X528386D02*
D03*
D40*
X697598Y529866D02*
D03*
X772402D02*
D03*
Y638134D02*
D03*
X735000D02*
D03*
X697598D02*
D03*
D41*
X512324Y2366614D02*
D03*
Y2392204D02*
D03*
Y2417796D02*
D03*
Y2443386D02*
D03*
X677678Y2366614D02*
D03*
Y2392204D02*
D03*
Y2417796D02*
D03*
Y2443386D02*
D03*
X182324Y2361614D02*
D03*
Y2387204D02*
D03*
Y2412796D02*
D03*
Y2438386D02*
D03*
X347678Y2361614D02*
D03*
Y2387204D02*
D03*
Y2412796D02*
D03*
Y2438386D02*
D03*
D42*
X1410000Y2221882D02*
D03*
Y2332118D02*
D03*
D43*
X1295000Y2331054D02*
D03*
Y2212944D02*
D03*
D44*
X1170000D02*
D03*
Y2331054D02*
D03*
D45*
X420242Y825740D02*
D03*
Y863140D02*
D03*
Y900542D02*
D03*
X528510Y825740D02*
D03*
Y863140D02*
D03*
Y900542D02*
D03*
D46*
X305316Y1598346D02*
D03*
X360434D02*
D03*
X363544Y1068504D02*
D03*
X308426D02*
D03*
X447442Y1607000D02*
D03*
X502560D02*
D03*
D47*
X262834Y1174999D02*
D03*
X369134D02*
D03*
D48*
X434804Y1748346D02*
D03*
X300946D02*
D03*
D49*
X563662Y1297000D02*
D03*
X646338D02*
D03*
Y1507000D02*
D03*
X563662D02*
D03*
X1286338Y1397000D02*
D03*
X1203662D02*
D03*
D50*
X1387402Y1092196D02*
D03*
X1312598D02*
D03*
Y991802D02*
D03*
X1350000D02*
D03*
X1387402D02*
D03*
X1392598Y1206804D02*
D03*
X1467402D02*
D03*
Y1307196D02*
D03*
X1430000D02*
D03*
X1392598D02*
D03*
%TF.MD5,240968654e8a741464dfcad4a69229be*%
M02*
