G04 Layer_Physical_Order=4*
G04 Layer_Color=16711680*
%FSLAX26Y26*%
%MOIN*%
%TF.FileFunction,Copper,L4,Bot,Signal*%
%TF.Part,Single*%
G01*
G75*
%TA.AperFunction,Conductor*%
%ADD11C,0.019685*%
%ADD12C,0.010000*%
%TA.AperFunction,ComponentPad*%
%ADD13R,0.060000X0.060000*%
%ADD14C,0.059055*%
%ADD15R,0.059055X0.059055*%
%ADD16C,0.118110*%
%TA.AperFunction,ViaPad*%
%ADD17C,0.196850*%
%ADD18C,0.039370*%
%ADD19C,0.050000*%
%TA.AperFunction,SMDPad,CuDef*%
%ADD29R,0.059055X0.049213*%
%ADD30O,0.023622X0.057087*%
%ADD31R,0.122047X0.094488*%
%ADD32R,0.023622X0.015748*%
%ADD33R,0.102362X0.043307*%
%ADD34R,0.057087X0.045276*%
%ADD35R,0.061024X0.053150*%
%ADD36R,0.021654X0.017716*%
%ADD37R,0.021654X0.051181*%
%ADD38R,0.045276X0.057087*%
%ADD39R,0.045276X0.070866*%
G04:AMPARAMS|DCode=40|XSize=23.622mil|YSize=39.37mil|CornerRadius=2.008mil|HoleSize=0mil|Usage=FLASHONLY|Rotation=180.000|XOffset=0mil|YOffset=0mil|HoleType=Round|Shape=RoundedRectangle|*
%AMROUNDEDRECTD40*
21,1,0.023622,0.035354,0,0,180.0*
21,1,0.019606,0.039370,0,0,180.0*
1,1,0.004016,-0.009803,0.017677*
1,1,0.004016,0.009803,0.017677*
1,1,0.004016,0.009803,-0.017677*
1,1,0.004016,-0.009803,-0.017677*
%
%ADD40ROUNDEDRECTD40*%
%ADD41O,0.051181X0.017716*%
%ADD42R,0.066929X0.037402*%
%ADD43R,0.106299X0.045276*%
%ADD44R,0.070866X0.045276*%
%ADD45O,0.037402X0.023622*%
%ADD46R,0.031496X0.035433*%
%ADD47R,0.043307X0.102362*%
%ADD48R,0.078740X0.125984*%
%ADD49R,0.049213X0.059055*%
G04:AMPARAMS|DCode=50|XSize=21.654mil|YSize=31.496mil|CornerRadius=1.949mil|HoleSize=0mil|Usage=FLASHONLY|Rotation=0.000|XOffset=0mil|YOffset=0mil|HoleType=Round|Shape=RoundedRectangle|*
%AMROUNDEDRECTD50*
21,1,0.021654,0.027599,0,0,0.0*
21,1,0.017756,0.031496,0,0,0.0*
1,1,0.003898,0.008878,-0.013799*
1,1,0.003898,-0.008878,-0.013799*
1,1,0.003898,-0.008878,0.013799*
1,1,0.003898,0.008878,0.013799*
%
%ADD50ROUNDEDRECTD50*%
%TA.AperFunction,Conductor*%
%ADD51C,0.015748*%
%ADD52C,0.027559*%
%ADD53C,0.011811*%
G36*
X2283465Y2594519D02*
Y-161386D01*
X-152480Y-161386D01*
Y2594519D01*
X2283465Y2594519D01*
D02*
G37*
%LPC*%
G36*
X265552Y805003D02*
X237914D01*
Y771459D01*
X265552D01*
Y805003D01*
D02*
G37*
G36*
X468308Y1319935D02*
X461749Y1318630D01*
X456188Y1314914D01*
X452472Y1309354D01*
X451168Y1302794D01*
Y1269330D01*
X452472Y1262770D01*
X456188Y1257210D01*
X461749Y1253494D01*
X468308Y1252189D01*
X470578Y1252641D01*
X518466Y1204752D01*
Y1097611D01*
X513533Y1095567D01*
X507266Y1090759D01*
X502457Y1084492D01*
X499434Y1077194D01*
X498403Y1069362D01*
X499434Y1061531D01*
X502457Y1054233D01*
X507266Y1047966D01*
X513533Y1043157D01*
X518466Y1041114D01*
Y917055D01*
X515061Y916378D01*
X509500Y912662D01*
X505785Y907101D01*
X504480Y900542D01*
X505785Y893983D01*
X509500Y888422D01*
X515061Y884706D01*
X516652Y884390D01*
Y879292D01*
X515061Y878976D01*
X509500Y875260D01*
X505785Y869699D01*
X504480Y863140D01*
X505785Y856581D01*
X509500Y851020D01*
X515061Y847304D01*
X516647Y846989D01*
Y841891D01*
X515061Y841576D01*
X509500Y837860D01*
X505785Y832299D01*
X504480Y825740D01*
X505785Y819181D01*
X509500Y813620D01*
X515061Y809904D01*
X521620Y808600D01*
X535400D01*
X541959Y809904D01*
X547520Y813620D01*
X548806Y815544D01*
X564917D01*
X577401Y803061D01*
Y762204D01*
X644487D01*
Y817480D01*
X591820D01*
X581230Y828070D01*
X583301Y833070D01*
X644487D01*
Y888346D01*
X577401D01*
Y873336D01*
X548806D01*
X547520Y875260D01*
X541959Y878976D01*
X540368Y879292D01*
Y884390D01*
X541959Y884706D01*
X547520Y888422D01*
X551235Y893983D01*
X552540Y900542D01*
X551235Y907101D01*
X547520Y912662D01*
X541959Y916378D01*
X538858Y916995D01*
Y1041114D01*
X543791Y1043157D01*
X550058Y1047966D01*
X554867Y1054233D01*
X557890Y1061531D01*
X558921Y1069362D01*
X557890Y1077194D01*
X554867Y1084492D01*
X550058Y1090759D01*
X543791Y1095567D01*
X538858Y1097611D01*
Y1208976D01*
X538082Y1212878D01*
X535872Y1216185D01*
X484997Y1267060D01*
X485448Y1269330D01*
Y1302794D01*
X484144Y1309354D01*
X480428Y1314914D01*
X474867Y1318630D01*
X468308Y1319935D01*
D02*
G37*
G36*
X1840000Y815897D02*
Y752000D01*
X1903897D01*
X1903056Y760537D01*
X1899107Y773554D01*
X1892695Y785551D01*
X1884066Y796066D01*
X1873551Y804695D01*
X1861554Y811107D01*
X1848537Y815056D01*
X1840000Y815897D01*
D02*
G37*
G36*
X303189Y805003D02*
X275552D01*
Y771459D01*
X303189D01*
Y805003D01*
D02*
G37*
G36*
X508245Y799118D02*
X505495Y798756D01*
X498274Y795765D01*
X492073Y791006D01*
X487315Y784805D01*
X484324Y777584D01*
X483962Y774835D01*
X508245D01*
Y799118D01*
D02*
G37*
G36*
X124544D02*
Y774835D01*
X148827D01*
X148465Y777584D01*
X145474Y784805D01*
X140716Y791006D01*
X134515Y795765D01*
X127293Y798756D01*
X124544Y799118D01*
D02*
G37*
G36*
X114544D02*
X111795Y798756D01*
X104573Y795765D01*
X98372Y791006D01*
X93614Y784805D01*
X90623Y777584D01*
X90261Y774835D01*
X114544D01*
Y799118D01*
D02*
G37*
G36*
X1492497Y764835D02*
X1468214D01*
X1468576Y762085D01*
X1471567Y754864D01*
X1476325Y748663D01*
X1482526Y743905D01*
X1489747Y740914D01*
X1492497Y740552D01*
Y764835D01*
D02*
G37*
G36*
X936229D02*
X911946D01*
Y740552D01*
X914695Y740914D01*
X921916Y743905D01*
X928117Y748663D01*
X932875Y754864D01*
X935867Y762085D01*
X936229Y764835D01*
D02*
G37*
G36*
X901946D02*
X877663D01*
X878025Y762085D01*
X881016Y754864D01*
X885774Y748663D01*
X891975Y743905D01*
X899196Y740914D01*
X901946Y740552D01*
Y764835D01*
D02*
G37*
G36*
X1526780D02*
X1502497D01*
Y740552D01*
X1505246Y740914D01*
X1512467Y743905D01*
X1518668Y748663D01*
X1523427Y754864D01*
X1526418Y762085D01*
X1526780Y764835D01*
D02*
G37*
G36*
X1830000Y815897D02*
X1821463Y815056D01*
X1808446Y811107D01*
X1796449Y804695D01*
X1785934Y796066D01*
X1777305Y785551D01*
X1770893Y773554D01*
X1766944Y760537D01*
X1766103Y752000D01*
X1830000D01*
Y815897D01*
D02*
G37*
G36*
X1723630Y764835D02*
X1699347D01*
Y740552D01*
X1702097Y740914D01*
X1709318Y743905D01*
X1715519Y748663D01*
X1720277Y754864D01*
X1723268Y762085D01*
X1723630Y764835D01*
D02*
G37*
G36*
X1689347D02*
X1665064D01*
X1665426Y762085D01*
X1668417Y754864D01*
X1673176Y748663D01*
X1679377Y743905D01*
X1686598Y740914D01*
X1689347Y740552D01*
Y764835D01*
D02*
G37*
G36*
X518245Y799118D02*
Y774835D01*
X542528D01*
X542166Y777584D01*
X539175Y784805D01*
X534416Y791006D01*
X528215Y795765D01*
X520994Y798756D01*
X518245Y799118D01*
D02*
G37*
G36*
X2170984Y863504D02*
X2136774D01*
X2137474Y858185D01*
X2141457Y848570D01*
X2147793Y840313D01*
X2156050Y833977D01*
X2165665Y829994D01*
X2170984Y829294D01*
Y863504D01*
D02*
G37*
G36*
X2070984D02*
X2036774D01*
X2037474Y858185D01*
X2041457Y848570D01*
X2047793Y840313D01*
X2056050Y833977D01*
X2065665Y829994D01*
X2070984Y829294D01*
Y863504D01*
D02*
G37*
G36*
X-55000D02*
X-89210D01*
X-88510Y858185D01*
X-84527Y848570D01*
X-78191Y840313D01*
X-69934Y833977D01*
X-60319Y829994D01*
X-55000Y829294D01*
Y863504D01*
D02*
G37*
G36*
X2115194D02*
X2080984D01*
Y829294D01*
X2086303Y829994D01*
X2095918Y833977D01*
X2104175Y840313D01*
X2110511Y848570D01*
X2114494Y858185D01*
X2115194Y863504D01*
D02*
G37*
G36*
X2070984Y907714D02*
X2065665Y907014D01*
X2056050Y903031D01*
X2047793Y896695D01*
X2041457Y888438D01*
X2037474Y878823D01*
X2036774Y873504D01*
X2070984D01*
Y907714D01*
D02*
G37*
G36*
X-55000D02*
X-60319Y907014D01*
X-69934Y903031D01*
X-78191Y896695D01*
X-84527Y888438D01*
X-88510Y878823D01*
X-89210Y873504D01*
X-55000D01*
Y907714D01*
D02*
G37*
G36*
X2215194Y863504D02*
X2180984D01*
Y829294D01*
X2186303Y829994D01*
X2195918Y833977D01*
X2204175Y840313D01*
X2210511Y848570D01*
X2214494Y858185D01*
X2215194Y863504D01*
D02*
G37*
G36*
X1492497Y799118D02*
X1489747Y798756D01*
X1482526Y795765D01*
X1476325Y791006D01*
X1471567Y784805D01*
X1468576Y777584D01*
X1468214Y774835D01*
X1492497D01*
Y799118D01*
D02*
G37*
G36*
X911946D02*
Y774835D01*
X936229D01*
X935867Y777584D01*
X932875Y784805D01*
X928117Y791006D01*
X921916Y795765D01*
X914695Y798756D01*
X911946Y799118D01*
D02*
G37*
G36*
X901946D02*
X899196Y798756D01*
X891975Y795765D01*
X885774Y791006D01*
X881016Y784805D01*
X878025Y777584D01*
X877663Y774835D01*
X901946D01*
Y799118D01*
D02*
G37*
G36*
X1502497D02*
Y774835D01*
X1526780D01*
X1526418Y777584D01*
X1523427Y784805D01*
X1518668Y791006D01*
X1512467Y795765D01*
X1505246Y798756D01*
X1502497Y799118D01*
D02*
G37*
G36*
X265552Y848546D02*
X237914D01*
Y815003D01*
X265552D01*
Y848546D01*
D02*
G37*
G36*
X1699347Y799118D02*
Y774835D01*
X1723630D01*
X1723268Y777584D01*
X1720277Y784805D01*
X1715519Y791006D01*
X1709318Y795765D01*
X1702097Y798756D01*
X1699347Y799118D01*
D02*
G37*
G36*
X1689347D02*
X1686598Y798756D01*
X1679377Y795765D01*
X1673176Y791006D01*
X1668417Y784805D01*
X1665426Y777584D01*
X1665064Y774835D01*
X1689347D01*
Y799118D01*
D02*
G37*
G36*
X542528Y764835D02*
X518245D01*
Y740552D01*
X520994Y740914D01*
X528215Y743905D01*
X534416Y748663D01*
X539175Y754864D01*
X542166Y762085D01*
X542528Y764835D01*
D02*
G37*
G36*
X1380000Y665662D02*
X1345473D01*
Y636056D01*
X1380000D01*
Y665662D01*
D02*
G37*
G36*
X2215194Y663504D02*
X2180984D01*
Y629294D01*
X2186303Y629994D01*
X2195918Y633977D01*
X2204175Y640313D01*
X2210511Y648570D01*
X2214494Y658185D01*
X2215194Y663504D01*
D02*
G37*
G36*
X2115194D02*
X2080984D01*
Y629294D01*
X2086303Y629994D01*
X2095918Y633977D01*
X2104175Y640313D01*
X2110511Y648570D01*
X2114494Y658185D01*
X2115194Y663504D01*
D02*
G37*
G36*
X1424527Y665662D02*
X1390000D01*
Y636056D01*
X1424527D01*
Y665662D01*
D02*
G37*
G36*
X55000Y707714D02*
Y673504D01*
X89210D01*
X88510Y678823D01*
X84527Y688438D01*
X78191Y696695D01*
X69934Y703031D01*
X60319Y707014D01*
X55000Y707714D01*
D02*
G37*
G36*
X2170984Y707714D02*
X2165665Y707014D01*
X2156050Y703031D01*
X2147793Y696695D01*
X2141457Y688438D01*
X2137474Y678823D01*
X2136774Y673504D01*
X2170984D01*
Y707714D01*
D02*
G37*
G36*
X2070984D02*
X2065665Y707014D01*
X2056050Y703031D01*
X2047793Y696695D01*
X2041457Y688438D01*
X2037474Y678823D01*
X2036774Y673504D01*
X2070984D01*
Y707714D01*
D02*
G37*
G36*
X1984623Y602267D02*
X1981873Y601905D01*
X1974652Y598914D01*
X1968451Y594156D01*
X1963693Y587955D01*
X1960702Y580734D01*
X1960340Y577984D01*
X1984623D01*
Y602267D01*
D02*
G37*
G36*
X1797772D02*
Y577984D01*
X1822055D01*
X1821693Y580734D01*
X1818702Y587955D01*
X1813944Y594156D01*
X1807743Y598914D01*
X1800522Y601905D01*
X1797772Y602267D01*
D02*
G37*
G36*
X1787772D02*
X1785023Y601905D01*
X1777802Y598914D01*
X1771601Y594156D01*
X1766843Y587955D01*
X1763851Y580734D01*
X1763489Y577984D01*
X1787772D01*
Y602267D01*
D02*
G37*
G36*
X1994623D02*
Y577984D01*
X2018906D01*
X2018544Y580734D01*
X2015553Y587955D01*
X2010794Y594156D01*
X2004593Y598914D01*
X1997372Y601905D01*
X1994623Y602267D01*
D02*
G37*
G36*
X89210Y663504D02*
X55000D01*
Y629294D01*
X60319Y629994D01*
X69934Y633977D01*
X78191Y640313D01*
X84527Y648570D01*
X88510Y658185D01*
X89210Y663504D01*
D02*
G37*
G36*
X2170984D02*
X2136774D01*
X2137474Y658185D01*
X2141457Y648570D01*
X2147793Y640313D01*
X2156050Y633977D01*
X2165665Y629994D01*
X2170984Y629294D01*
Y663504D01*
D02*
G37*
G36*
X2070984D02*
X2036774D01*
X2037474Y658185D01*
X2041457Y648570D01*
X2047793Y640313D01*
X2056050Y633977D01*
X2065665Y629994D01*
X2070984Y629294D01*
Y663504D01*
D02*
G37*
G36*
X2080984Y707714D02*
Y673504D01*
X2115194D01*
X2114494Y678823D01*
X2110511Y688438D01*
X2104175Y696695D01*
X2095918Y703031D01*
X2086303Y707014D01*
X2080984Y707714D01*
D02*
G37*
G36*
X2000985Y2200168D02*
X1991353Y2198253D01*
X1983188Y2192797D01*
X1977732Y2184631D01*
X1975816Y2175000D01*
X1977732Y2165368D01*
X1983188Y2157203D01*
X1990789Y2152124D01*
Y830000D01*
X1991565Y826098D01*
X1993775Y822790D01*
X2042909Y773656D01*
X2042231Y768504D01*
X2043381Y759768D01*
X2046753Y751627D01*
X2052117Y744637D01*
X2059107Y739273D01*
X2067248Y735901D01*
X2075984Y734751D01*
X2084720Y735901D01*
X2092861Y739273D01*
X2099851Y744637D01*
X2105215Y751627D01*
X2108587Y759768D01*
X2109737Y768504D01*
X2108587Y777240D01*
X2105215Y785381D01*
X2099851Y792371D01*
X2092861Y797735D01*
X2084720Y801107D01*
X2075984Y802257D01*
X2067248Y801107D01*
X2059107Y797735D01*
X2052635Y792769D01*
X2011180Y834223D01*
Y2152124D01*
X2018782Y2157203D01*
X2024237Y2165368D01*
X2026153Y2175000D01*
X2024237Y2184631D01*
X2018782Y2192797D01*
X2010616Y2198253D01*
X2000985Y2200168D01*
D02*
G37*
G36*
X847694Y767433D02*
X820056D01*
Y727000D01*
X847694D01*
Y767433D01*
D02*
G37*
G36*
X810056D02*
X782418D01*
Y727000D01*
X810056D01*
Y767433D01*
D02*
G37*
G36*
X2175984Y802257D02*
X2167248Y801107D01*
X2159107Y797735D01*
X2152117Y792371D01*
X2146753Y785381D01*
X2143381Y777240D01*
X2142231Y768504D01*
X2143381Y759768D01*
X2146753Y751627D01*
X2152117Y744637D01*
X2159107Y739273D01*
X2167248Y735901D01*
X2175984Y734751D01*
X2184720Y735901D01*
X2192861Y739273D01*
X2199851Y744637D01*
X2205215Y751627D01*
X2208587Y759768D01*
X2209737Y768504D01*
X2208587Y777240D01*
X2205215Y785381D01*
X2199851Y792371D01*
X2192861Y797735D01*
X2184720Y801107D01*
X2175984Y802257D01*
D02*
G37*
G36*
X508245Y764835D02*
X483962D01*
X484324Y762085D01*
X487315Y754864D01*
X492073Y748663D01*
X498274Y743905D01*
X505495Y740914D01*
X508245Y740552D01*
Y764835D01*
D02*
G37*
G36*
X148827D02*
X124544D01*
Y740552D01*
X127293Y740914D01*
X134515Y743905D01*
X140716Y748663D01*
X145474Y754864D01*
X148465Y762085D01*
X148827Y764835D01*
D02*
G37*
G36*
X114544D02*
X90261D01*
X90623Y762085D01*
X93614Y754864D01*
X98372Y748663D01*
X104573Y743905D01*
X111795Y740914D01*
X114544Y740552D01*
Y764835D01*
D02*
G37*
G36*
X1424527Y705268D02*
X1390000D01*
Y675662D01*
X1424527D01*
Y705268D01*
D02*
G37*
G36*
X1380000D02*
X1345473D01*
Y675662D01*
X1380000D01*
Y705268D01*
D02*
G37*
G36*
X2180984Y707714D02*
Y673504D01*
X2215194D01*
X2214494Y678823D01*
X2210511Y688438D01*
X2204175Y696695D01*
X2195918Y703031D01*
X2186303Y707014D01*
X2180984Y707714D01*
D02*
G37*
G36*
X810056Y717000D02*
X782418D01*
Y676567D01*
X810056D01*
Y717000D01*
D02*
G37*
G36*
X1903897Y742000D02*
X1840000D01*
Y678103D01*
X1848537Y678944D01*
X1861554Y682893D01*
X1873551Y689305D01*
X1884066Y697934D01*
X1892695Y708449D01*
X1899107Y720446D01*
X1903056Y733463D01*
X1903897Y742000D01*
D02*
G37*
G36*
X1830000D02*
X1766103D01*
X1766944Y733463D01*
X1770893Y720446D01*
X1777305Y708449D01*
X1785934Y697934D01*
X1796449Y689305D01*
X1808446Y682893D01*
X1821463Y678944D01*
X1830000Y678103D01*
Y742000D01*
D02*
G37*
G36*
X847694Y717000D02*
X820056D01*
Y676567D01*
X847694D01*
Y717000D01*
D02*
G37*
G36*
X1920481Y1158536D02*
X1896198D01*
Y1134253D01*
X1898947Y1134615D01*
X1906168Y1137606D01*
X1912369Y1142364D01*
X1917127Y1148565D01*
X1920119Y1155786D01*
X1920481Y1158536D01*
D02*
G37*
G36*
X1886198D02*
X1861915D01*
X1862277Y1155786D01*
X1865268Y1148565D01*
X1870026Y1142364D01*
X1876227Y1137606D01*
X1883448Y1134615D01*
X1886198Y1134253D01*
Y1158536D01*
D02*
G37*
G36*
X1526780D02*
X1502497D01*
Y1134253D01*
X1505246Y1134615D01*
X1512467Y1137606D01*
X1518668Y1142364D01*
X1523427Y1148565D01*
X1526418Y1155786D01*
X1526780Y1158536D01*
D02*
G37*
G36*
X2075984Y1202257D02*
X2067248Y1201107D01*
X2059107Y1197735D01*
X2052117Y1192371D01*
X2046753Y1185381D01*
X2043381Y1177240D01*
X2042231Y1168504D01*
X2043381Y1159768D01*
X2046753Y1151627D01*
X2052117Y1144637D01*
X2059107Y1139273D01*
X2067248Y1135901D01*
X2075984Y1134751D01*
X2084720Y1135901D01*
X2092861Y1139273D01*
X2099851Y1144637D01*
X2105215Y1151627D01*
X2108587Y1159768D01*
X2109737Y1168504D01*
X2108587Y1177240D01*
X2105215Y1185381D01*
X2099851Y1192371D01*
X2092861Y1197735D01*
X2084720Y1201107D01*
X2075984Y1202257D01*
D02*
G37*
G36*
X124544Y1192819D02*
Y1168536D01*
X148827D01*
X148465Y1171285D01*
X145474Y1178506D01*
X140716Y1184707D01*
X134515Y1189465D01*
X127293Y1192457D01*
X124544Y1192819D01*
D02*
G37*
G36*
X114544D02*
X111795Y1192457D01*
X104573Y1189465D01*
X98372Y1184707D01*
X93614Y1178506D01*
X90623Y1171285D01*
X90261Y1168536D01*
X114544D01*
Y1192819D01*
D02*
G37*
G36*
X2175984Y1202257D02*
X2167248Y1201107D01*
X2159107Y1197735D01*
X2152117Y1192371D01*
X2146753Y1185381D01*
X2143381Y1177240D01*
X2142231Y1168504D01*
X2143381Y1159768D01*
X2146753Y1151627D01*
X2152117Y1144637D01*
X2159107Y1139273D01*
X2167248Y1135901D01*
X2175984Y1134751D01*
X2184720Y1135901D01*
X2192861Y1139273D01*
X2199851Y1144637D01*
X2205215Y1151627D01*
X2208587Y1159768D01*
X2209737Y1168504D01*
X2208587Y1177240D01*
X2205215Y1185381D01*
X2199851Y1192371D01*
X2192861Y1197735D01*
X2184720Y1201107D01*
X2175984Y1202257D01*
D02*
G37*
G36*
X936229Y1158536D02*
X911946D01*
Y1134253D01*
X914695Y1134615D01*
X921916Y1137606D01*
X928117Y1142364D01*
X932875Y1148565D01*
X935867Y1155786D01*
X936229Y1158536D01*
D02*
G37*
G36*
X901946D02*
X877663D01*
X878025Y1155786D01*
X881016Y1148565D01*
X885774Y1142364D01*
X891975Y1137606D01*
X899196Y1134615D01*
X901946Y1134253D01*
Y1158536D01*
D02*
G37*
G36*
X294488Y1236181D02*
X267834D01*
Y1175000D01*
Y1113818D01*
X294488D01*
Y1136626D01*
X299488Y1139091D01*
X301424Y1137606D01*
X308645Y1134615D01*
X311394Y1134253D01*
Y1163536D01*
Y1192819D01*
X308645Y1192457D01*
X301424Y1189465D01*
X299488Y1187980D01*
X294488Y1190446D01*
Y1236181D01*
D02*
G37*
G36*
X1098796Y1158536D02*
X1074513D01*
X1074875Y1155786D01*
X1077866Y1148565D01*
X1082624Y1142364D01*
X1088825Y1137606D01*
X1096047Y1134615D01*
X1098796Y1134253D01*
Y1158536D01*
D02*
G37*
G36*
X1492497D02*
X1468214D01*
X1468576Y1155786D01*
X1471567Y1148565D01*
X1476325Y1142364D01*
X1482526Y1137606D01*
X1489747Y1134615D01*
X1492497Y1134253D01*
Y1158536D01*
D02*
G37*
G36*
X1329929D02*
X1305646D01*
Y1134253D01*
X1308396Y1134615D01*
X1315617Y1137606D01*
X1321818Y1142364D01*
X1326576Y1148565D01*
X1329567Y1155786D01*
X1329929Y1158536D01*
D02*
G37*
G36*
X1133079D02*
X1108796D01*
Y1134253D01*
X1111545Y1134615D01*
X1118767Y1137606D01*
X1124968Y1142364D01*
X1129726Y1148565D01*
X1132717Y1155786D01*
X1133079Y1158536D01*
D02*
G37*
G36*
X901946Y1192819D02*
X899196Y1192457D01*
X891975Y1189465D01*
X885774Y1184707D01*
X881016Y1178506D01*
X878025Y1171285D01*
X877663Y1168536D01*
X901946D01*
Y1192819D01*
D02*
G37*
G36*
X257834Y1236181D02*
X231181D01*
Y1180000D01*
X257834D01*
Y1236181D01*
D02*
G37*
G36*
X1896198Y1192819D02*
Y1168536D01*
X1920481D01*
X1920119Y1171285D01*
X1917127Y1178506D01*
X1912369Y1184707D01*
X1906168Y1189465D01*
X1898947Y1192457D01*
X1896198Y1192819D01*
D02*
G37*
G36*
X1886198D02*
X1883448Y1192457D01*
X1876227Y1189465D01*
X1870026Y1184707D01*
X1865268Y1178506D01*
X1862277Y1171285D01*
X1861915Y1168536D01*
X1886198D01*
Y1192819D01*
D02*
G37*
G36*
X368308Y1319935D02*
X361749Y1318630D01*
X356188Y1314914D01*
X352472Y1309354D01*
X351168Y1302794D01*
Y1269330D01*
X352472Y1262770D01*
X353588Y1261101D01*
Y1231181D01*
X342481D01*
Y1186516D01*
X337891Y1184827D01*
X337481Y1184773D01*
X331365Y1189465D01*
X324144Y1192457D01*
X321394Y1192819D01*
Y1163536D01*
Y1134253D01*
X324144Y1134615D01*
X331365Y1137606D01*
X337481Y1142299D01*
X337891Y1142244D01*
X342481Y1140556D01*
Y1118818D01*
X351206D01*
Y1091221D01*
X342796D01*
Y1045788D01*
X384292D01*
Y1091221D01*
X381473D01*
Y1118818D01*
X395788D01*
Y1144867D01*
X411155D01*
X415960Y1138603D01*
X422227Y1133795D01*
X429525Y1130772D01*
X437357Y1129741D01*
X445188Y1130772D01*
X452486Y1133795D01*
X458753Y1138603D01*
X463562Y1144870D01*
X466584Y1152168D01*
X467615Y1160000D01*
X466584Y1167831D01*
X463562Y1175129D01*
X458753Y1181396D01*
X452486Y1186205D01*
X445188Y1189228D01*
X437357Y1190259D01*
X429525Y1189228D01*
X422227Y1186205D01*
X415960Y1181396D01*
X411155Y1175133D01*
X395788D01*
Y1231181D01*
X383854D01*
Y1262338D01*
X384144Y1262770D01*
X385448Y1269330D01*
Y1302794D01*
X384144Y1309354D01*
X380428Y1314914D01*
X374867Y1318630D01*
X368308Y1319935D01*
D02*
G37*
G36*
X313308Y1281062D02*
X296070D01*
Y1269330D01*
X297762Y1260820D01*
X302583Y1253605D01*
X309798Y1248784D01*
X313308Y1248086D01*
Y1281062D01*
D02*
G37*
G36*
X2175984Y1302257D02*
X2167248Y1301107D01*
X2159107Y1297735D01*
X2152117Y1292371D01*
X2146753Y1285381D01*
X2143381Y1277240D01*
X2142231Y1268504D01*
X2143381Y1259768D01*
X2146753Y1251627D01*
X2152117Y1244637D01*
X2159107Y1239273D01*
X2167248Y1235901D01*
X2175984Y1234751D01*
X2184720Y1235901D01*
X2192861Y1239273D01*
X2199851Y1244637D01*
X2205215Y1251627D01*
X2208587Y1259768D01*
X2209737Y1268504D01*
X2208587Y1277240D01*
X2205215Y1285381D01*
X2199851Y1292371D01*
X2192861Y1297735D01*
X2184720Y1301107D01*
X2175984Y1302257D01*
D02*
G37*
G36*
X2075984D02*
X2067248Y1301107D01*
X2059107Y1297735D01*
X2052117Y1292371D01*
X2046753Y1285381D01*
X2043381Y1277240D01*
X2042231Y1268504D01*
X2043381Y1259768D01*
X2046753Y1251627D01*
X2052117Y1244637D01*
X2059107Y1239273D01*
X2067248Y1235901D01*
X2075984Y1234751D01*
X2084720Y1235901D01*
X2092861Y1239273D01*
X2099851Y1244637D01*
X2105215Y1251627D01*
X2108587Y1259768D01*
X2109737Y1268504D01*
X2108587Y1277240D01*
X2105215Y1285381D01*
X2099851Y1292371D01*
X2092861Y1297735D01*
X2084720Y1301107D01*
X2075984Y1302257D01*
D02*
G37*
G36*
X1108796Y1192819D02*
Y1168536D01*
X1133079D01*
X1132717Y1171285D01*
X1129726Y1178506D01*
X1124968Y1184707D01*
X1118767Y1189465D01*
X1111545Y1192457D01*
X1108796Y1192819D01*
D02*
G37*
G36*
X1098796D02*
X1096047Y1192457D01*
X1088825Y1189465D01*
X1082624Y1184707D01*
X1077866Y1178506D01*
X1074875Y1171285D01*
X1074513Y1168536D01*
X1098796D01*
Y1192819D01*
D02*
G37*
G36*
X911946D02*
Y1168536D01*
X936229D01*
X935867Y1171285D01*
X932875Y1178506D01*
X928117Y1184707D01*
X921916Y1189465D01*
X914695Y1192457D01*
X911946Y1192819D01*
D02*
G37*
G36*
X1295646D02*
X1292897Y1192457D01*
X1285676Y1189465D01*
X1279475Y1184707D01*
X1274717Y1178506D01*
X1271725Y1171285D01*
X1271363Y1168536D01*
X1295646D01*
Y1192819D01*
D02*
G37*
G36*
X1502497D02*
Y1168536D01*
X1526780D01*
X1526418Y1171285D01*
X1523427Y1178506D01*
X1518668Y1184707D01*
X1512467Y1189465D01*
X1505246Y1192457D01*
X1502497Y1192819D01*
D02*
G37*
G36*
X1233268Y1431527D02*
X1174056D01*
Y1362473D01*
X1193466D01*
Y1282944D01*
X1175473D01*
Y1223732D01*
X1244527D01*
Y1225230D01*
X1372899D01*
X1376635Y1220603D01*
Y1193005D01*
X1377175Y1190293D01*
X1378710Y1187995D01*
X1379804Y1187264D01*
Y1113080D01*
X1378524D01*
X1375813Y1112541D01*
X1373514Y1111005D01*
X1371978Y1108707D01*
X1371439Y1105995D01*
Y1078397D01*
X1371978Y1075686D01*
X1373514Y1073387D01*
X1375813Y1071851D01*
X1378524Y1071312D01*
X1388946D01*
X1420467Y1039790D01*
X1423775Y1037580D01*
X1427677Y1036804D01*
X1777707D01*
X1777919Y1034651D01*
X1781521Y1022777D01*
X1787371Y1011834D01*
X1795242Y1002242D01*
X1796545Y1001173D01*
X1794477Y996402D01*
X1792772Y996626D01*
X1785023Y995606D01*
X1777802Y992615D01*
X1771601Y987857D01*
X1766843Y981656D01*
X1763851Y974435D01*
X1763489Y971685D01*
X1822055D01*
X1821693Y974435D01*
X1818702Y981656D01*
X1817949Y982638D01*
X1820938Y986956D01*
X1827651Y984919D01*
X1840000Y983703D01*
X1852349Y984919D01*
X1864223Y988521D01*
X1875166Y994371D01*
X1884758Y1002242D01*
X1892629Y1011834D01*
X1898479Y1022777D01*
X1902081Y1034651D01*
X1903297Y1047000D01*
X1902081Y1059349D01*
X1898479Y1071223D01*
X1892629Y1082166D01*
X1884758Y1091758D01*
X1875166Y1099629D01*
X1864223Y1105479D01*
X1852349Y1109081D01*
X1840000Y1110297D01*
X1827651Y1109081D01*
X1815777Y1105479D01*
X1804834Y1099629D01*
X1795242Y1091758D01*
X1787371Y1082166D01*
X1781521Y1071223D01*
X1777919Y1059349D01*
X1777707Y1057196D01*
X1757885D01*
X1736791Y1078291D01*
Y1078988D01*
X1736015Y1082890D01*
X1733804Y1086198D01*
X1709527Y1110475D01*
Y1155268D01*
X1640473D01*
Y1096056D01*
X1695108D01*
X1716399Y1074765D01*
Y1074067D01*
X1717175Y1070165D01*
X1719385Y1066858D01*
X1724428Y1061815D01*
X1722514Y1057196D01*
X1431900D01*
X1403365Y1085731D01*
Y1105995D01*
X1402825Y1108707D01*
X1401290Y1111005D01*
X1400196Y1111736D01*
Y1185920D01*
X1401476D01*
X1404187Y1186459D01*
X1406486Y1187995D01*
X1408022Y1190293D01*
X1408561Y1193005D01*
Y1220603D01*
X1412297Y1225230D01*
X1439478D01*
X1451439Y1213269D01*
Y1193005D01*
X1451978Y1190293D01*
X1453514Y1187995D01*
X1455813Y1186459D01*
X1458524Y1185920D01*
X1470953D01*
X1473419Y1180920D01*
X1471567Y1178506D01*
X1468576Y1171285D01*
X1468214Y1168536D01*
X1492497D01*
Y1192819D01*
X1489747Y1192457D01*
X1488229Y1191828D01*
X1487310Y1192050D01*
X1483365Y1195225D01*
Y1220603D01*
X1482825Y1223314D01*
X1481290Y1225613D01*
X1478991Y1227149D01*
X1476280Y1227688D01*
X1465858D01*
X1450911Y1242636D01*
X1447603Y1244846D01*
X1443701Y1245622D01*
X1244527D01*
Y1282944D01*
X1213858D01*
Y1362473D01*
X1233268D01*
Y1431527D01*
D02*
G37*
G36*
X1305646Y1192819D02*
Y1168536D01*
X1329929D01*
X1329567Y1171285D01*
X1326576Y1178506D01*
X1321818Y1184707D01*
X1315617Y1189465D01*
X1308396Y1192457D01*
X1305646Y1192819D01*
D02*
G37*
G36*
X148827Y1158536D02*
X124544D01*
Y1134253D01*
X127293Y1134615D01*
X134515Y1137606D01*
X140716Y1142364D01*
X145474Y1148565D01*
X148465Y1155786D01*
X148827Y1158536D01*
D02*
G37*
G36*
X265551Y973544D02*
X237914D01*
Y940001D01*
X265551D01*
Y973544D01*
D02*
G37*
G36*
X1822055Y961685D02*
X1797772D01*
Y937402D01*
X1800522Y937764D01*
X1807743Y940755D01*
X1813944Y945514D01*
X1818702Y951715D01*
X1821693Y958936D01*
X1822055Y961685D01*
D02*
G37*
G36*
X1787772D02*
X1763489D01*
X1763851Y958936D01*
X1766843Y951715D01*
X1771601Y945514D01*
X1777802Y940755D01*
X1785023Y937764D01*
X1787772Y937402D01*
Y961685D01*
D02*
G37*
G36*
X303189Y973544D02*
X275551D01*
Y940001D01*
X303189D01*
Y973544D01*
D02*
G37*
G36*
X1345000Y1017784D02*
X1341122D01*
X1336460Y1016857D01*
X1332507Y1014216D01*
X1331299Y1012407D01*
X1327339Y1010929D01*
X1325143Y1011508D01*
X1324187Y1012147D01*
X1321476Y1012686D01*
X1303720D01*
X1301009Y1012147D01*
X1298710Y1010611D01*
X1297175Y1008312D01*
X1296635Y1005601D01*
Y978003D01*
X1297175Y975292D01*
X1298710Y972993D01*
X1301009Y971457D01*
X1301595Y971341D01*
Y828301D01*
X1301353Y828253D01*
X1293188Y822797D01*
X1287732Y814631D01*
X1285816Y805000D01*
X1287732Y795368D01*
X1293188Y787203D01*
X1301353Y781747D01*
X1310985Y779831D01*
X1320616Y781747D01*
X1328782Y787203D01*
X1334237Y795368D01*
X1336153Y805000D01*
X1334237Y814631D01*
X1328782Y822797D01*
X1321987Y827337D01*
Y971020D01*
X1324187Y971457D01*
X1325143Y972096D01*
X1327339Y972674D01*
X1331299Y971197D01*
X1332507Y969388D01*
X1336460Y966747D01*
X1341122Y965820D01*
X1345000D01*
Y991802D01*
Y1017784D01*
D02*
G37*
G36*
X2080984Y1007714D02*
Y973504D01*
X2115194D01*
X2114494Y978823D01*
X2110511Y988438D01*
X2104175Y996695D01*
X2095918Y1003031D01*
X2086303Y1007014D01*
X2080984Y1007714D01*
D02*
G37*
G36*
X2070984Y1007714D02*
X2065665Y1007014D01*
X2056050Y1003031D01*
X2047793Y996695D01*
X2041457Y988438D01*
X2037474Y978823D01*
X2036774Y973504D01*
X2070984D01*
Y1007714D01*
D02*
G37*
G36*
X2180984Y907714D02*
Y873504D01*
X2215194D01*
X2214494Y878823D01*
X2210511Y888438D01*
X2204175Y896695D01*
X2195918Y903031D01*
X2186303Y907014D01*
X2180984Y907714D01*
D02*
G37*
G36*
X2080984D02*
Y873504D01*
X2115194D01*
X2114494Y878823D01*
X2110511Y888438D01*
X2104175Y896695D01*
X2095918Y903031D01*
X2086303Y907014D01*
X2080984Y907714D01*
D02*
G37*
G36*
X2170984Y907714D02*
X2165665Y907014D01*
X2156050Y903031D01*
X2147793Y896695D01*
X2141457Y888438D01*
X2137474Y878823D01*
X2136774Y873504D01*
X2170984D01*
Y907714D01*
D02*
G37*
G36*
X455985Y995168D02*
X446353Y993253D01*
X438188Y987797D01*
X432732Y979631D01*
X430816Y970000D01*
X432599Y961034D01*
X414076Y942510D01*
X411865Y939202D01*
X411089Y935301D01*
Y920609D01*
X406089Y918538D01*
X405961Y918667D01*
X402653Y920877D01*
X398751Y921653D01*
X369055D01*
Y968544D01*
X313780D01*
Y901457D01*
X331942D01*
X331958Y901374D01*
X334168Y898066D01*
X337476Y895856D01*
X341378Y895080D01*
X345280Y895856D01*
X348588Y898066D01*
X350798Y901374D01*
X350814Y901457D01*
X358070D01*
X359055Y901261D01*
X394528D01*
X396452Y899337D01*
X397517Y893983D01*
X401232Y888422D01*
X402091Y887848D01*
X402081Y881841D01*
X397627Y878865D01*
X392807Y871650D01*
X392108Y868140D01*
X420241D01*
X448375D01*
X447677Y871650D01*
X442857Y878865D01*
X438403Y881841D01*
X438393Y887848D01*
X439252Y888422D01*
X442967Y893983D01*
X444272Y900542D01*
X442967Y907101D01*
X439252Y912662D01*
X433691Y916378D01*
X431481Y916817D01*
Y931077D01*
X447019Y946615D01*
X455985Y944831D01*
X465616Y946747D01*
X473781Y952203D01*
X479237Y960368D01*
X481153Y970000D01*
X479237Y979631D01*
X473781Y987797D01*
X465616Y993253D01*
X455985Y995168D01*
D02*
G37*
G36*
X2175984Y1002257D02*
X2167248Y1001107D01*
X2159107Y997735D01*
X2152117Y992371D01*
X2146753Y985381D01*
X2143381Y977240D01*
X2142231Y968504D01*
X2143381Y959768D01*
X2146753Y951627D01*
X2152117Y944637D01*
X2159107Y939273D01*
X2167248Y935901D01*
X2175984Y934751D01*
X2184720Y935901D01*
X2192861Y939273D01*
X2199851Y944637D01*
X2205215Y951627D01*
X2208587Y959768D01*
X2209737Y968504D01*
X2208587Y977240D01*
X2205215Y985381D01*
X2199851Y992371D01*
X2192861Y997735D01*
X2184720Y1001107D01*
X2175984Y1002257D01*
D02*
G37*
G36*
X2115194Y963504D02*
X2080984D01*
Y929294D01*
X2086303Y929994D01*
X2095918Y933977D01*
X2104175Y940313D01*
X2110511Y948570D01*
X2114494Y958185D01*
X2115194Y963504D01*
D02*
G37*
G36*
X2070984D02*
X2036774D01*
X2037474Y958185D01*
X2041457Y948570D01*
X2047793Y940313D01*
X2056050Y933977D01*
X2065665Y929994D01*
X2070984Y929294D01*
Y963504D01*
D02*
G37*
G36*
X1244527Y1200268D02*
X1175473D01*
Y1141056D01*
X1228621D01*
X1229606Y1140860D01*
X1254436D01*
X1296635Y1098661D01*
Y1078397D01*
X1297175Y1075686D01*
X1298710Y1073387D01*
X1301009Y1071851D01*
X1303720Y1071312D01*
X1314142D01*
X1363488Y1021965D01*
X1361025Y1017357D01*
X1358878Y1017784D01*
X1355000D01*
Y991802D01*
Y965820D01*
X1358878D01*
X1363540Y966747D01*
X1367493Y969388D01*
X1368701Y971197D01*
X1372661Y972674D01*
X1374857Y972096D01*
X1375813Y971457D01*
X1377206Y971180D01*
Y782944D01*
X1350473D01*
Y757196D01*
X1097293D01*
X1097081Y759349D01*
X1093479Y771223D01*
X1087629Y782166D01*
X1079758Y791758D01*
X1070166Y799629D01*
X1059223Y805479D01*
X1047349Y809081D01*
X1035000Y810297D01*
X1022651Y809081D01*
X1010777Y805479D01*
X999834Y799629D01*
X990242Y791758D01*
X982371Y782166D01*
X976521Y771223D01*
X972919Y759349D01*
X971703Y747000D01*
X972919Y734651D01*
X976521Y722777D01*
X982371Y711834D01*
X990242Y702242D01*
X999834Y694371D01*
X1010777Y688521D01*
X1022651Y684919D01*
X1035000Y683703D01*
X1047349Y684919D01*
X1059223Y688521D01*
X1070166Y694371D01*
X1079758Y702242D01*
X1087629Y711834D01*
X1093479Y722777D01*
X1097081Y734651D01*
X1097293Y736804D01*
X1350473D01*
Y723732D01*
X1419527D01*
Y782944D01*
X1397598D01*
Y971180D01*
X1398991Y971457D01*
X1401290Y972993D01*
X1402825Y975292D01*
X1403365Y978003D01*
Y1005601D01*
X1402825Y1008312D01*
X1401290Y1010611D01*
X1398991Y1012147D01*
X1396280Y1012686D01*
X1391771D01*
Y1018297D01*
X1390995Y1022199D01*
X1388785Y1025507D01*
X1328561Y1085731D01*
Y1105995D01*
X1328022Y1108707D01*
X1326486Y1111005D01*
X1324187Y1112541D01*
X1321476Y1113080D01*
X1311054D01*
X1294816Y1129319D01*
X1295646Y1131003D01*
Y1158536D01*
X1268114D01*
X1266430Y1157705D01*
X1265869Y1158265D01*
X1262561Y1160476D01*
X1258660Y1161252D01*
X1244527D01*
Y1200268D01*
D02*
G37*
G36*
X2180984Y1107714D02*
Y1073504D01*
X2215194D01*
X2214494Y1078823D01*
X2210511Y1088438D01*
X2204175Y1096695D01*
X2195918Y1103031D01*
X2186303Y1107014D01*
X2180984Y1107714D01*
D02*
G37*
G36*
X2080984D02*
Y1073504D01*
X2115194D01*
X2114494Y1078823D01*
X2110511Y1088438D01*
X2104175Y1096695D01*
X2095918Y1103031D01*
X2086303Y1107014D01*
X2080984Y1107714D01*
D02*
G37*
G36*
X2170984Y1107714D02*
X2165665Y1107014D01*
X2156050Y1103031D01*
X2147793Y1096695D01*
X2141457Y1088438D01*
X2137474Y1078823D01*
X2136774Y1073504D01*
X2170984D01*
Y1107714D01*
D02*
G37*
G36*
X303426Y1096221D02*
X282678D01*
Y1073505D01*
X303426D01*
Y1096221D01*
D02*
G37*
G36*
X114544Y1158536D02*
X90261D01*
X90623Y1155786D01*
X93614Y1148565D01*
X98372Y1142364D01*
X104573Y1137606D01*
X111795Y1134615D01*
X114544Y1134253D01*
Y1158536D01*
D02*
G37*
G36*
X257834Y1170000D02*
X231181D01*
Y1113818D01*
X257834D01*
Y1170000D01*
D02*
G37*
G36*
X334174Y1096221D02*
X313426D01*
Y1073505D01*
X334174D01*
Y1096221D01*
D02*
G37*
G36*
X2115194Y1063504D02*
X2080984D01*
Y1029294D01*
X2086303Y1029994D01*
X2095918Y1033977D01*
X2104175Y1040313D01*
X2110511Y1048570D01*
X2114494Y1058185D01*
X2115194Y1063504D01*
D02*
G37*
G36*
X2170984D02*
X2136774D01*
X2137474Y1058185D01*
X2141457Y1048570D01*
X2147793Y1040313D01*
X2156050Y1033977D01*
X2165665Y1029994D01*
X2170984Y1029294D01*
Y1063504D01*
D02*
G37*
G36*
X2070984D02*
X2036774D01*
X2037474Y1058185D01*
X2041457Y1048570D01*
X2047793Y1040313D01*
X2056050Y1033977D01*
X2065665Y1029994D01*
X2070984Y1029294D01*
Y1063504D01*
D02*
G37*
G36*
X2215194D02*
X2180984D01*
Y1029294D01*
X2186303Y1029994D01*
X2195918Y1033977D01*
X2204175Y1040313D01*
X2210511Y1048570D01*
X2214494Y1058185D01*
X2215194Y1063504D01*
D02*
G37*
G36*
X2070984Y1107714D02*
X2065665Y1107014D01*
X2056050Y1103031D01*
X2047793Y1096695D01*
X2041457Y1088438D01*
X2037474Y1078823D01*
X2036774Y1073504D01*
X2070984D01*
Y1107714D01*
D02*
G37*
G36*
X334174Y1063505D02*
X313426D01*
Y1040788D01*
X334174D01*
Y1063505D01*
D02*
G37*
G36*
X303426D02*
X282678D01*
Y1040788D01*
X303426D01*
Y1063505D01*
D02*
G37*
G36*
X1600922Y602267D02*
Y577984D01*
X1625205D01*
X1624843Y580734D01*
X1621852Y587955D01*
X1617094Y594156D01*
X1610893Y598914D01*
X1603671Y601905D01*
X1600922Y602267D01*
D02*
G37*
G36*
X419820Y208567D02*
Y184284D01*
X444103D01*
X443741Y187033D01*
X440749Y194254D01*
X435991Y200455D01*
X429790Y205213D01*
X422569Y208205D01*
X419820Y208567D01*
D02*
G37*
G36*
X409820D02*
X407070Y208205D01*
X399849Y205213D01*
X393648Y200455D01*
X388890Y194254D01*
X385899Y187033D01*
X385537Y184284D01*
X409820D01*
Y208567D01*
D02*
G37*
G36*
X26119D02*
Y184284D01*
X50402D01*
X50040Y187033D01*
X47049Y194254D01*
X42290Y200455D01*
X36089Y205213D01*
X28868Y208205D01*
X26119Y208567D01*
D02*
G37*
G36*
X606670D02*
X603921Y208205D01*
X596699Y205213D01*
X590498Y200455D01*
X585740Y194254D01*
X582749Y187033D01*
X582387Y184284D01*
X606670D01*
Y208567D01*
D02*
G37*
G36*
X813520D02*
Y184284D01*
X837803D01*
X837441Y187033D01*
X834450Y194254D01*
X829692Y200455D01*
X823491Y205213D01*
X816270Y208205D01*
X813520Y208567D01*
D02*
G37*
G36*
X803520D02*
X800771Y208205D01*
X793550Y205213D01*
X787349Y200455D01*
X782591Y194254D01*
X779599Y187033D01*
X779237Y184284D01*
X803520D01*
Y208567D01*
D02*
G37*
G36*
X616670D02*
Y184284D01*
X640953D01*
X640591Y187033D01*
X637600Y194254D01*
X632842Y200455D01*
X626641Y205213D01*
X619419Y208205D01*
X616670Y208567D01*
D02*
G37*
G36*
X1822055Y174284D02*
X1797772D01*
Y150001D01*
X1800522Y150363D01*
X1807743Y153354D01*
X1813944Y158112D01*
X1818702Y164313D01*
X1821693Y171534D01*
X1822055Y174284D01*
D02*
G37*
G36*
X1787772D02*
X1763489D01*
X1763851Y171534D01*
X1766843Y164313D01*
X1771601Y158112D01*
X1777802Y153354D01*
X1785023Y150363D01*
X1787772Y150001D01*
Y174284D01*
D02*
G37*
G36*
X1625205D02*
X1600922D01*
Y150001D01*
X1603671Y150363D01*
X1610893Y153354D01*
X1617094Y158112D01*
X1621852Y164313D01*
X1624843Y171534D01*
X1625205Y174284D01*
D02*
G37*
G36*
X2181473D02*
X2157190D01*
X2157552Y171534D01*
X2160543Y164313D01*
X2165302Y158112D01*
X2171503Y153354D01*
X2178724Y150363D01*
X2181473Y150001D01*
Y174284D01*
D02*
G37*
G36*
X16119Y208567D02*
X13369Y208205D01*
X6148Y205213D01*
X-53Y200455D01*
X-4811Y194254D01*
X-7802Y187033D01*
X-8164Y184284D01*
X16119D01*
Y208567D01*
D02*
G37*
G36*
X1035000Y310297D02*
X1022651Y309081D01*
X1010777Y305479D01*
X999834Y299629D01*
X990242Y291758D01*
X982371Y282166D01*
X976521Y271223D01*
X972919Y259349D01*
X971703Y247000D01*
X972919Y234651D01*
X976521Y222777D01*
X982371Y211834D01*
X990242Y202242D01*
X999834Y194371D01*
X1010777Y188521D01*
X1022651Y184919D01*
X1035000Y183703D01*
X1047349Y184919D01*
X1059223Y188521D01*
X1070166Y194371D01*
X1079758Y202242D01*
X1087629Y211834D01*
X1093479Y222777D01*
X1097081Y234651D01*
X1098297Y247000D01*
X1097081Y259349D01*
X1093479Y271223D01*
X1087629Y282166D01*
X1079758Y291758D01*
X1070166Y299629D01*
X1059223Y305479D01*
X1047349Y309081D01*
X1035000Y310297D01*
D02*
G37*
G36*
X2215756Y174284D02*
X2191473D01*
Y150001D01*
X2194223Y150363D01*
X2201444Y153354D01*
X2207645Y158112D01*
X2212403Y164313D01*
X2215394Y171534D01*
X2215756Y174284D01*
D02*
G37*
G36*
X1197221Y208567D02*
X1194472Y208205D01*
X1187251Y205213D01*
X1181050Y200455D01*
X1176291Y194254D01*
X1173300Y187033D01*
X1172938Y184284D01*
X1197221D01*
Y208567D01*
D02*
G37*
G36*
X707401Y554688D02*
X687795D01*
X685061Y554144D01*
X682742Y552596D01*
X681194Y550277D01*
X680650Y547543D01*
Y512189D01*
X681194Y509455D01*
X682742Y507137D01*
X685061Y505588D01*
X687402Y505122D01*
Y480433D01*
X670308D01*
Y399567D01*
X685789D01*
Y392875D01*
X678188Y387797D01*
X672732Y379631D01*
X670816Y370000D01*
X672732Y360368D01*
X678188Y352203D01*
X686353Y346747D01*
X695985Y344831D01*
X705616Y346747D01*
X713782Y352203D01*
X719237Y360368D01*
X721153Y370000D01*
X719237Y379631D01*
X713782Y387797D01*
X706181Y392875D01*
Y399567D01*
X725584D01*
Y480433D01*
X707794D01*
Y505122D01*
X710135Y505588D01*
X712453Y507137D01*
X714002Y509455D01*
X714546Y512189D01*
Y547543D01*
X714002Y550277D01*
X712453Y552596D01*
X710135Y554144D01*
X707401Y554688D01*
D02*
G37*
G36*
X2191473Y208567D02*
Y184284D01*
X2215756D01*
X2215394Y187033D01*
X2212403Y194254D01*
X2207645Y200455D01*
X2201444Y205213D01*
X2194223Y208205D01*
X2191473Y208567D01*
D02*
G37*
G36*
X2181473D02*
X2178724Y208205D01*
X2171503Y205213D01*
X2165302Y200455D01*
X2160543Y194254D01*
X2157552Y187033D01*
X2157190Y184284D01*
X2181473D01*
Y208567D01*
D02*
G37*
G36*
X-82306Y371134D02*
X-106589D01*
X-106227Y368385D01*
X-103236Y361163D01*
X-98478Y354962D01*
X-92277Y350204D01*
X-85056Y347213D01*
X-82306Y346851D01*
Y371134D01*
D02*
G37*
G36*
X148827D02*
X124544D01*
Y346851D01*
X127293Y347213D01*
X134515Y350204D01*
X140716Y354962D01*
X145474Y361163D01*
X148465Y368385D01*
X148827Y371134D01*
D02*
G37*
G36*
X114544D02*
X90261D01*
X90623Y368385D01*
X93614Y361163D01*
X98372Y354962D01*
X104573Y350204D01*
X111795Y347213D01*
X114544Y346851D01*
Y371134D01*
D02*
G37*
G36*
X-48023D02*
X-72306D01*
Y346851D01*
X-69557Y347213D01*
X-62336Y350204D01*
X-56135Y354962D01*
X-51377Y361163D01*
X-48385Y368385D01*
X-48023Y371134D01*
D02*
G37*
G36*
X1404072Y208567D02*
Y184284D01*
X1428355D01*
X1427993Y187033D01*
X1425001Y194254D01*
X1420243Y200455D01*
X1414042Y205213D01*
X1406821Y208205D01*
X1404072Y208567D01*
D02*
G37*
G36*
X1394072D02*
X1391322Y208205D01*
X1384101Y205213D01*
X1377900Y200455D01*
X1373142Y194254D01*
X1370151Y187033D01*
X1369789Y184284D01*
X1394072D01*
Y208567D01*
D02*
G37*
G36*
X1207221D02*
Y184284D01*
X1231504D01*
X1231142Y187033D01*
X1228151Y194254D01*
X1223393Y200455D01*
X1217192Y205213D01*
X1209971Y208205D01*
X1207221Y208567D01*
D02*
G37*
G36*
X1590922D02*
X1588173Y208205D01*
X1580951Y205213D01*
X1574750Y200455D01*
X1569992Y194254D01*
X1567001Y187033D01*
X1566639Y184284D01*
X1590922D01*
Y208567D01*
D02*
G37*
G36*
X1797772D02*
Y184284D01*
X1822055D01*
X1821693Y187033D01*
X1818702Y194254D01*
X1813944Y200455D01*
X1807743Y205213D01*
X1800522Y208205D01*
X1797772Y208567D01*
D02*
G37*
G36*
X1787772D02*
X1785023Y208205D01*
X1777802Y205213D01*
X1771601Y200455D01*
X1766843Y194254D01*
X1763851Y187033D01*
X1763489Y184284D01*
X1787772D01*
Y208567D01*
D02*
G37*
G36*
X1600922D02*
Y184284D01*
X1625205D01*
X1624843Y187033D01*
X1621852Y194254D01*
X1617094Y200455D01*
X1610893Y205213D01*
X1603671Y208205D01*
X1600922Y208567D01*
D02*
G37*
G36*
X1590922Y174284D02*
X1566639D01*
X1567001Y171534D01*
X1569992Y164313D01*
X1574750Y158112D01*
X1580951Y153354D01*
X1588173Y150363D01*
X1590922Y150001D01*
Y174284D01*
D02*
G37*
G36*
X901946Y11716D02*
X899196Y11354D01*
X891975Y8363D01*
X885774Y3605D01*
X881016Y-2596D01*
X878025Y-9817D01*
X877663Y-12567D01*
X901946D01*
Y11716D01*
D02*
G37*
G36*
X715095D02*
Y-12567D01*
X739378D01*
X739016Y-9817D01*
X736025Y-2596D01*
X731267Y3605D01*
X725066Y8363D01*
X717845Y11354D01*
X715095Y11716D01*
D02*
G37*
G36*
X705095D02*
X702346Y11354D01*
X695125Y8363D01*
X688924Y3605D01*
X684165Y-2596D01*
X681174Y-9817D01*
X680812Y-12567D01*
X705095D01*
Y11716D01*
D02*
G37*
G36*
X911946D02*
Y-12567D01*
X936229D01*
X935867Y-9817D01*
X932875Y-2596D01*
X928117Y3605D01*
X921916Y8363D01*
X914695Y11354D01*
X911946Y11716D01*
D02*
G37*
G36*
X1295646D02*
X1292897Y11354D01*
X1285676Y8363D01*
X1279475Y3605D01*
X1274717Y-2596D01*
X1271725Y-9817D01*
X1271363Y-12567D01*
X1295646D01*
Y11716D01*
D02*
G37*
G36*
X1108796D02*
Y-12567D01*
X1133079D01*
X1132717Y-9817D01*
X1129726Y-2596D01*
X1124968Y3605D01*
X1118767Y8363D01*
X1111545Y11354D01*
X1108796Y11716D01*
D02*
G37*
G36*
X1098796D02*
X1096047Y11354D01*
X1088825Y8363D01*
X1082624Y3605D01*
X1077866Y-2596D01*
X1074875Y-9817D01*
X1074513Y-12567D01*
X1098796D01*
Y11716D01*
D02*
G37*
G36*
X311394Y-22567D02*
X287111D01*
X287473Y-25316D01*
X290465Y-32537D01*
X295223Y-38738D01*
X301424Y-43497D01*
X308645Y-46488D01*
X311394Y-46850D01*
Y-22567D01*
D02*
G37*
G36*
X2125984Y102858D02*
X2105918Y100881D01*
X2086622Y95028D01*
X2068839Y85523D01*
X2053253Y72731D01*
X2040461Y57145D01*
X2030956Y39362D01*
X2025103Y20067D01*
X2023127Y0D01*
X2025103Y-20067D01*
X2030956Y-39362D01*
X2040461Y-57145D01*
X2053253Y-72731D01*
X2068839Y-85523D01*
X2086622Y-95028D01*
X2105918Y-100881D01*
X2125984Y-102858D01*
X2146050Y-100881D01*
X2165346Y-95028D01*
X2183129Y-85523D01*
X2198715Y-72731D01*
X2211507Y-57145D01*
X2221012Y-39362D01*
X2226865Y-20067D01*
X2228841Y0D01*
X2226865Y20067D01*
X2221012Y39362D01*
X2211507Y57145D01*
X2198715Y72731D01*
X2183129Y85523D01*
X2165346Y95028D01*
X2146050Y100881D01*
X2125984Y102858D01*
D02*
G37*
G36*
X0D02*
X-20067Y100881D01*
X-39362Y95028D01*
X-57145Y85523D01*
X-72731Y72731D01*
X-85523Y57145D01*
X-95028Y39362D01*
X-100881Y20067D01*
X-102858Y0D01*
X-100881Y-20067D01*
X-95028Y-39362D01*
X-85523Y-57145D01*
X-72731Y-72731D01*
X-57145Y-85523D01*
X-39362Y-95028D01*
X-20067Y-100881D01*
X0Y-102858D01*
X20067Y-100881D01*
X39362Y-95028D01*
X57145Y-85523D01*
X72731Y-72731D01*
X85523Y-57145D01*
X95028Y-39362D01*
X100881Y-20067D01*
X102858Y0D01*
X100881Y20067D01*
X95028Y39362D01*
X85523Y57145D01*
X72731Y72731D01*
X57145Y85523D01*
X39362Y95028D01*
X20067Y100881D01*
X0Y102858D01*
D02*
G37*
G36*
X345677Y-22567D02*
X321394D01*
Y-46850D01*
X324144Y-46488D01*
X331365Y-43497D01*
X337566Y-38738D01*
X342324Y-32537D01*
X345315Y-25316D01*
X345677Y-22567D01*
D02*
G37*
G36*
X518245Y11716D02*
Y-12567D01*
X542528D01*
X542166Y-9817D01*
X539175Y-2596D01*
X534416Y3605D01*
X528215Y8363D01*
X520994Y11354D01*
X518245Y11716D01*
D02*
G37*
G36*
X508245D02*
X505495Y11354D01*
X498274Y8363D01*
X492073Y3605D01*
X487315Y-2596D01*
X484324Y-9817D01*
X483962Y-12567D01*
X508245D01*
Y11716D01*
D02*
G37*
G36*
X311394D02*
X308645Y11354D01*
X301424Y8363D01*
X295223Y3605D01*
X290465Y-2596D01*
X287473Y-9817D01*
X287111Y-12567D01*
X311394D01*
Y11716D01*
D02*
G37*
G36*
X1305646D02*
Y-12567D01*
X1329929D01*
X1329567Y-9817D01*
X1326576Y-2596D01*
X1321818Y3605D01*
X1315617Y8363D01*
X1308396Y11354D01*
X1305646Y11716D01*
D02*
G37*
G36*
X837803Y174284D02*
X813520D01*
Y150001D01*
X816270Y150363D01*
X823491Y153354D01*
X829692Y158112D01*
X834450Y164313D01*
X837441Y171534D01*
X837803Y174284D01*
D02*
G37*
G36*
X803520D02*
X779237D01*
X779599Y171534D01*
X782591Y164313D01*
X787349Y158112D01*
X793550Y153354D01*
X800771Y150363D01*
X803520Y150001D01*
Y174284D01*
D02*
G37*
G36*
X640953D02*
X616670D01*
Y150001D01*
X619419Y150363D01*
X626641Y153354D01*
X632842Y158112D01*
X637600Y164313D01*
X640591Y171534D01*
X640953Y174284D01*
D02*
G37*
G36*
X1197221D02*
X1172938D01*
X1173300Y171534D01*
X1176291Y164313D01*
X1181050Y158112D01*
X1187251Y153354D01*
X1194472Y150363D01*
X1197221Y150001D01*
Y174284D01*
D02*
G37*
G36*
X1428355D02*
X1404072D01*
Y150001D01*
X1406821Y150363D01*
X1414042Y153354D01*
X1420243Y158112D01*
X1425001Y164313D01*
X1427993Y171534D01*
X1428355Y174284D01*
D02*
G37*
G36*
X1394072D02*
X1369789D01*
X1370151Y171534D01*
X1373142Y164313D01*
X1377900Y158112D01*
X1384101Y153354D01*
X1391322Y150363D01*
X1394072Y150001D01*
Y174284D01*
D02*
G37*
G36*
X1231504D02*
X1207221D01*
Y150001D01*
X1209971Y150363D01*
X1217192Y153354D01*
X1223393Y158112D01*
X1228151Y164313D01*
X1231142Y171534D01*
X1231504Y174284D01*
D02*
G37*
G36*
X16119D02*
X-8164D01*
X-7802Y171534D01*
X-4811Y164313D01*
X-53Y158112D01*
X6148Y153354D01*
X13369Y150363D01*
X16119Y150001D01*
Y174284D01*
D02*
G37*
G36*
X1502497Y11716D02*
Y-12567D01*
X1526780D01*
X1526418Y-9817D01*
X1523427Y-2596D01*
X1518668Y3605D01*
X1512467Y8363D01*
X1505246Y11354D01*
X1502497Y11716D01*
D02*
G37*
G36*
X1492497D02*
X1489747Y11354D01*
X1482526Y8363D01*
X1476325Y3605D01*
X1471567Y-2596D01*
X1468576Y-9817D01*
X1468214Y-12567D01*
X1492497D01*
Y11716D01*
D02*
G37*
G36*
X50402Y174284D02*
X26119D01*
Y150001D01*
X28868Y150363D01*
X36089Y153354D01*
X42290Y158112D01*
X47049Y164313D01*
X50040Y171534D01*
X50402Y174284D01*
D02*
G37*
G36*
X606670D02*
X582387D01*
X582749Y171534D01*
X585740Y164313D01*
X590498Y158112D01*
X596699Y153354D01*
X603921Y150363D01*
X606670Y150001D01*
Y174284D01*
D02*
G37*
G36*
X444103D02*
X419820D01*
Y150001D01*
X422569Y150363D01*
X429790Y153354D01*
X435991Y158112D01*
X440749Y164313D01*
X443741Y171534D01*
X444103Y174284D01*
D02*
G37*
G36*
X409820D02*
X385537D01*
X385899Y171534D01*
X388890Y164313D01*
X393648Y158112D01*
X399849Y153354D01*
X407070Y150363D01*
X409820Y150001D01*
Y174284D01*
D02*
G37*
G36*
X1428355Y567984D02*
X1404072D01*
Y543701D01*
X1406821Y544063D01*
X1414042Y547055D01*
X1420243Y551813D01*
X1425001Y558014D01*
X1427993Y565235D01*
X1428355Y567984D01*
D02*
G37*
G36*
X1394072D02*
X1369789D01*
X1370151Y565235D01*
X1373142Y558014D01*
X1377900Y551813D01*
X1384101Y547055D01*
X1391322Y544063D01*
X1394072Y543701D01*
Y567984D01*
D02*
G37*
G36*
X1034654D02*
X1010371D01*
Y543701D01*
X1013120Y544063D01*
X1020341Y547055D01*
X1026542Y551813D01*
X1031301Y558014D01*
X1034292Y565235D01*
X1034654Y567984D01*
D02*
G37*
G36*
X1590922D02*
X1566639D01*
X1567001Y565235D01*
X1569992Y558014D01*
X1574750Y551813D01*
X1580951Y547055D01*
X1588173Y544063D01*
X1590922Y543701D01*
Y567984D01*
D02*
G37*
G36*
X1822055D02*
X1797772D01*
Y543701D01*
X1800522Y544063D01*
X1807743Y547055D01*
X1813944Y551813D01*
X1818702Y558014D01*
X1821693Y565235D01*
X1822055Y567984D01*
D02*
G37*
G36*
X1787772D02*
X1763489D01*
X1763851Y565235D01*
X1766843Y558014D01*
X1771601Y551813D01*
X1777802Y547055D01*
X1785023Y544063D01*
X1787772Y543701D01*
Y567984D01*
D02*
G37*
G36*
X1625205D02*
X1600922D01*
Y543701D01*
X1603671Y544063D01*
X1610893Y547055D01*
X1617094Y551813D01*
X1621852Y558014D01*
X1624843Y565235D01*
X1625205Y567984D01*
D02*
G37*
G36*
X606670D02*
X582387D01*
X582749Y565235D01*
X585740Y558014D01*
X590498Y551813D01*
X596699Y547055D01*
X603921Y544063D01*
X606670Y543701D01*
Y567984D01*
D02*
G37*
G36*
X444103D02*
X419820D01*
Y543701D01*
X422569Y544063D01*
X429790Y547055D01*
X435991Y551813D01*
X440749Y558014D01*
X443741Y565235D01*
X444103Y567984D01*
D02*
G37*
G36*
X409820D02*
X385537D01*
X385899Y565235D01*
X388890Y558014D01*
X393648Y551813D01*
X399849Y547055D01*
X407070Y544063D01*
X409820Y543701D01*
Y567984D01*
D02*
G37*
G36*
X640953D02*
X616670D01*
Y543701D01*
X619419Y544063D01*
X626641Y547055D01*
X632842Y551813D01*
X637600Y558014D01*
X640591Y565235D01*
X640953Y567984D01*
D02*
G37*
G36*
X1000371D02*
X976088D01*
X976450Y565235D01*
X979441Y558014D01*
X984199Y551813D01*
X990400Y547055D01*
X997621Y544063D01*
X1000371Y543701D01*
Y567984D01*
D02*
G37*
G36*
X837803D02*
X813520D01*
Y543701D01*
X816270Y544063D01*
X823491Y547055D01*
X829692Y551813D01*
X834450Y558014D01*
X837441Y565235D01*
X837803Y567984D01*
D02*
G37*
G36*
X803520D02*
X779237D01*
X779599Y565235D01*
X781897Y559688D01*
X779820Y555558D01*
X778840Y554688D01*
X762599D01*
X759865Y554144D01*
X757547Y552596D01*
X755998Y550277D01*
X755454Y547543D01*
Y512189D01*
X755998Y509455D01*
X757547Y507137D01*
X759865Y505588D01*
X762599Y505044D01*
X782205D01*
X784939Y505588D01*
X787258Y507137D01*
X788806Y509455D01*
X789350Y512189D01*
Y543975D01*
X791592Y545619D01*
X794350Y546723D01*
X800771Y544063D01*
X803520Y543701D01*
Y567984D01*
D02*
G37*
G36*
X1984623D02*
X1960340D01*
X1960702Y565235D01*
X1963693Y558014D01*
X1968451Y551813D01*
X1974652Y547055D01*
X1981873Y544063D01*
X1984623Y543701D01*
Y567984D01*
D02*
G37*
G36*
X1000371Y602267D02*
X997621Y601905D01*
X990400Y598914D01*
X984199Y594156D01*
X979441Y587955D01*
X976450Y580734D01*
X976088Y577984D01*
X1000371D01*
Y602267D01*
D02*
G37*
G36*
X813520D02*
Y577984D01*
X837803D01*
X837441Y580734D01*
X834450Y587955D01*
X829692Y594156D01*
X823491Y598914D01*
X816270Y601905D01*
X813520Y602267D01*
D02*
G37*
G36*
X803520D02*
X800771Y601905D01*
X793550Y598914D01*
X787349Y594156D01*
X782591Y587955D01*
X779599Y580734D01*
X779237Y577984D01*
X803520D01*
Y602267D01*
D02*
G37*
G36*
X1010371D02*
Y577984D01*
X1034654D01*
X1034292Y580734D01*
X1031301Y587955D01*
X1026542Y594156D01*
X1020341Y598914D01*
X1013120Y601905D01*
X1010371Y602267D01*
D02*
G37*
G36*
X1590922D02*
X1588173Y601905D01*
X1580951Y598914D01*
X1574750Y594156D01*
X1569992Y587955D01*
X1567001Y580734D01*
X1566639Y577984D01*
X1590922D01*
Y602267D01*
D02*
G37*
G36*
X1404072D02*
Y577984D01*
X1428355D01*
X1427993Y580734D01*
X1425001Y587955D01*
X1420243Y594156D01*
X1414042Y598914D01*
X1406821Y601905D01*
X1404072Y602267D01*
D02*
G37*
G36*
X1394072D02*
X1391322Y601905D01*
X1384101Y598914D01*
X1377900Y594156D01*
X1373142Y587955D01*
X1370151Y580734D01*
X1369789Y577984D01*
X1394072D01*
Y602267D01*
D02*
G37*
G36*
X222969D02*
Y577984D01*
X247252D01*
X246890Y580734D01*
X243899Y587955D01*
X239141Y594156D01*
X232940Y598914D01*
X225719Y601905D01*
X222969Y602267D01*
D02*
G37*
G36*
X212969D02*
X210220Y601905D01*
X202999Y598914D01*
X196798Y594156D01*
X192039Y587955D01*
X189048Y580734D01*
X188686Y577984D01*
X212969D01*
Y602267D01*
D02*
G37*
G36*
X2018906Y567984D02*
X1994623D01*
Y543701D01*
X1997372Y544063D01*
X2004593Y547055D01*
X2010794Y551813D01*
X2015553Y558014D01*
X2018544Y565235D01*
X2018906Y567984D01*
D02*
G37*
G36*
X409820Y602267D02*
X407070Y601905D01*
X399849Y598914D01*
X393648Y594156D01*
X388890Y587955D01*
X385899Y580734D01*
X385537Y577984D01*
X409820D01*
Y602267D01*
D02*
G37*
G36*
X616670D02*
Y577984D01*
X640953D01*
X640591Y580734D01*
X637600Y587955D01*
X632842Y594156D01*
X626641Y598914D01*
X619419Y601905D01*
X616670Y602267D01*
D02*
G37*
G36*
X606670D02*
X603921Y601905D01*
X596699Y598914D01*
X590498Y594156D01*
X585740Y587955D01*
X582749Y580734D01*
X582387Y577984D01*
X606670D01*
Y602267D01*
D02*
G37*
G36*
X419820D02*
Y577984D01*
X444103D01*
X443741Y580734D01*
X440749Y587955D01*
X435991Y594156D01*
X429790Y598914D01*
X422569Y601905D01*
X419820Y602267D01*
D02*
G37*
G36*
X247252Y567984D02*
X222969D01*
Y543701D01*
X225719Y544063D01*
X232940Y547055D01*
X239141Y551813D01*
X243899Y558014D01*
X246890Y565235D01*
X247252Y567984D01*
D02*
G37*
G36*
X-72306Y405417D02*
Y381134D01*
X-48023D01*
X-48385Y383883D01*
X-51377Y391105D01*
X-56135Y397306D01*
X-62336Y402064D01*
X-69557Y405055D01*
X-72306Y405417D01*
D02*
G37*
G36*
X-82306D02*
X-85056Y405055D01*
X-92277Y402064D01*
X-98478Y397306D01*
X-103236Y391105D01*
X-106227Y383883D01*
X-106589Y381134D01*
X-82306D01*
Y405417D01*
D02*
G37*
G36*
X1030000Y442000D02*
X966103D01*
X966944Y433463D01*
X970893Y420446D01*
X977305Y408449D01*
X985934Y397934D01*
X996449Y389305D01*
X1008446Y382893D01*
X1021463Y378944D01*
X1030000Y378103D01*
Y442000D01*
D02*
G37*
G36*
X901946Y405417D02*
X899196Y405055D01*
X891975Y402064D01*
X885774Y397306D01*
X881016Y391105D01*
X878025Y383883D01*
X877663Y381134D01*
X901946D01*
Y405417D01*
D02*
G37*
G36*
X1108796D02*
Y381134D01*
X1133079D01*
X1132717Y383883D01*
X1129726Y391105D01*
X1124968Y397306D01*
X1118767Y402064D01*
X1111545Y405055D01*
X1108796Y405417D01*
D02*
G37*
G36*
X1103897Y442000D02*
X1040000D01*
Y378103D01*
X1048537Y378944D01*
X1061554Y382893D01*
X1071185Y388041D01*
X1075120Y384474D01*
X1074875Y383883D01*
X1074513Y381134D01*
X1098796D01*
Y405417D01*
X1096418Y405104D01*
X1094537Y406794D01*
X1093127Y409258D01*
X1099107Y420446D01*
X1103056Y433463D01*
X1103897Y442000D01*
D02*
G37*
G36*
X911946Y405417D02*
Y381134D01*
X936229D01*
X935867Y383883D01*
X932875Y391105D01*
X928117Y397306D01*
X921916Y402064D01*
X914695Y405055D01*
X911946Y405417D01*
D02*
G37*
G36*
X1098796Y371134D02*
X1074513D01*
X1074875Y368385D01*
X1077866Y361163D01*
X1082624Y354962D01*
X1088825Y350204D01*
X1096047Y347213D01*
X1098796Y346851D01*
Y371134D01*
D02*
G37*
G36*
X936229D02*
X911946D01*
Y346851D01*
X914695Y347213D01*
X921916Y350204D01*
X928117Y354962D01*
X932875Y361163D01*
X935867Y368385D01*
X936229Y371134D01*
D02*
G37*
G36*
X901946D02*
X877663D01*
X878025Y368385D01*
X881016Y361163D01*
X885774Y354962D01*
X891975Y350204D01*
X899196Y347213D01*
X901946Y346851D01*
Y371134D01*
D02*
G37*
G36*
X1133079D02*
X1108796D01*
Y346851D01*
X1111545Y347213D01*
X1118767Y350204D01*
X1124968Y354962D01*
X1129726Y361163D01*
X1132717Y368385D01*
X1133079Y371134D01*
D02*
G37*
G36*
X1835000Y410297D02*
X1822651Y409081D01*
X1810777Y405479D01*
X1799834Y399629D01*
X1790242Y391758D01*
X1782371Y382166D01*
X1776521Y371223D01*
X1772919Y359349D01*
X1772707Y357196D01*
X1714527D01*
Y375268D01*
X1645473D01*
Y316056D01*
X1669804D01*
Y85944D01*
X1645473D01*
Y26732D01*
X1714528D01*
Y85944D01*
X1690196D01*
Y316056D01*
X1714527D01*
Y336804D01*
X1772707D01*
X1772919Y334651D01*
X1776521Y322777D01*
X1782371Y311834D01*
X1790242Y302242D01*
X1799834Y294371D01*
X1810777Y288521D01*
X1822651Y284919D01*
X1835000Y283703D01*
X1847349Y284919D01*
X1859223Y288521D01*
X1870166Y294371D01*
X1879758Y302242D01*
X1887629Y311834D01*
X1893479Y322777D01*
X1897081Y334651D01*
X1898297Y347000D01*
X1897081Y359349D01*
X1893479Y371223D01*
X1887629Y382166D01*
X1879758Y391758D01*
X1870166Y399629D01*
X1859223Y405479D01*
X1847349Y409081D01*
X1835000Y410297D01*
D02*
G37*
G36*
X1526780Y371134D02*
X1502497D01*
Y346851D01*
X1505246Y347213D01*
X1512467Y350204D01*
X1518668Y354962D01*
X1523427Y361163D01*
X1526418Y368385D01*
X1526780Y371134D01*
D02*
G37*
G36*
X1492497D02*
X1468214D01*
X1468576Y368385D01*
X1471567Y361163D01*
X1476325Y354962D01*
X1482526Y350204D01*
X1489747Y347213D01*
X1492497Y346851D01*
Y371134D01*
D02*
G37*
G36*
Y405417D02*
X1489747Y405055D01*
X1482526Y402064D01*
X1476325Y397306D01*
X1471567Y391105D01*
X1468576Y383883D01*
X1468214Y381134D01*
X1492497D01*
Y405417D01*
D02*
G37*
G36*
X1030000Y515897D02*
X1021463Y515056D01*
X1008446Y511107D01*
X996449Y504695D01*
X985934Y496066D01*
X977305Y485551D01*
X970893Y473554D01*
X966944Y460537D01*
X966103Y452000D01*
X1030000D01*
Y515897D01*
D02*
G37*
G36*
X848694Y485433D02*
X821056D01*
Y445000D01*
X848694D01*
Y485433D01*
D02*
G37*
G36*
X811056D02*
X783418D01*
Y445000D01*
X811056D01*
Y485433D01*
D02*
G37*
G36*
X1040000Y515897D02*
Y452000D01*
X1103897D01*
X1103056Y460537D01*
X1099107Y473554D01*
X1092695Y485551D01*
X1084066Y496066D01*
X1073551Y504695D01*
X1061554Y511107D01*
X1048537Y515056D01*
X1040000Y515897D01*
D02*
G37*
G36*
X212969Y567984D02*
X188686D01*
X189048Y565235D01*
X192039Y558014D01*
X196798Y551813D01*
X202999Y547055D01*
X210220Y544063D01*
X212969Y543701D01*
Y567984D01*
D02*
G37*
G36*
X2175984Y602257D02*
X2167248Y601107D01*
X2159107Y597735D01*
X2152117Y592371D01*
X2146753Y585381D01*
X2143381Y577240D01*
X2142231Y568504D01*
X2143381Y559768D01*
X2146753Y551627D01*
X2152117Y544637D01*
X2159107Y539273D01*
X2167248Y535901D01*
X2175984Y534751D01*
X2184720Y535901D01*
X2192861Y539273D01*
X2199851Y544637D01*
X2205215Y551627D01*
X2208587Y559768D01*
X2209737Y568504D01*
X2208587Y577240D01*
X2205215Y585381D01*
X2199851Y592371D01*
X2192861Y597735D01*
X2184720Y601107D01*
X2175984Y602257D01*
D02*
G37*
G36*
X2075984D02*
X2067248Y601107D01*
X2059107Y597735D01*
X2052117Y592371D01*
X2046753Y585381D01*
X2043381Y577240D01*
X2042231Y568504D01*
X2043381Y559768D01*
X2046753Y551627D01*
X2052117Y544637D01*
X2059107Y539273D01*
X2067248Y535901D01*
X2075984Y534751D01*
X2084720Y535901D01*
X2092861Y539273D01*
X2099851Y544637D01*
X2105215Y551627D01*
X2108587Y559768D01*
X2109737Y568504D01*
X2108587Y577240D01*
X2105215Y585381D01*
X2099851Y592371D01*
X2092861Y597735D01*
X2084720Y601107D01*
X2075984Y602257D01*
D02*
G37*
G36*
X1719527Y423338D02*
X1685000D01*
Y393732D01*
X1719527D01*
Y423338D01*
D02*
G37*
G36*
X1675000D02*
X1640473D01*
Y393732D01*
X1675000D01*
Y423338D01*
D02*
G37*
G36*
X1502497Y405417D02*
Y381134D01*
X1526780D01*
X1526418Y383883D01*
X1523427Y391105D01*
X1518668Y397306D01*
X1512467Y402064D01*
X1505246Y405055D01*
X1502497Y405417D01*
D02*
G37*
G36*
X811056Y435000D02*
X783418D01*
Y394567D01*
X811056D01*
Y435000D01*
D02*
G37*
G36*
X1719527Y462944D02*
X1685000D01*
Y433338D01*
X1719527D01*
Y462944D01*
D02*
G37*
G36*
X1675000D02*
X1640473D01*
Y433338D01*
X1675000D01*
Y462944D01*
D02*
G37*
G36*
X848694Y435000D02*
X821056D01*
Y394567D01*
X848694D01*
Y435000D01*
D02*
G37*
G36*
X1580000Y2050662D02*
X1545473D01*
Y2021056D01*
X1580000D01*
Y2050662D01*
D02*
G37*
G36*
X2215512Y2008032D02*
X2180984D01*
Y1973504D01*
X2215512D01*
Y2008032D01*
D02*
G37*
G36*
X2170984D02*
X2136456D01*
Y1973504D01*
X2170984D01*
Y2008032D01*
D02*
G37*
G36*
X1624527Y2050662D02*
X1590000D01*
Y2021056D01*
X1624527D01*
Y2050662D01*
D02*
G37*
G36*
X592441Y2095000D02*
X557442D01*
Y2060000D01*
X592441D01*
Y2095000D01*
D02*
G37*
G36*
X437442D02*
X402441D01*
Y2060000D01*
X437442D01*
Y2095000D01*
D02*
G37*
G36*
X392441D02*
X357442D01*
Y2060000D01*
X392441D01*
Y2095000D01*
D02*
G37*
G36*
X1502497Y1980220D02*
Y1955937D01*
X1526780D01*
X1526418Y1958687D01*
X1523427Y1965908D01*
X1518668Y1972109D01*
X1512467Y1976867D01*
X1505246Y1979858D01*
X1502497Y1980220D01*
D02*
G37*
G36*
X1492497D02*
X1489747Y1979858D01*
X1482526Y1976867D01*
X1476325Y1972109D01*
X1471567Y1965908D01*
X1468576Y1958687D01*
X1468214Y1955937D01*
X1492497D01*
Y1980220D01*
D02*
G37*
G36*
X1108796D02*
Y1955937D01*
X1133079D01*
X1132717Y1958687D01*
X1129726Y1965908D01*
X1124968Y1972109D01*
X1118767Y1976867D01*
X1111545Y1979858D01*
X1108796Y1980220D01*
D02*
G37*
G36*
X1689347D02*
X1686598Y1979858D01*
X1679377Y1976867D01*
X1673176Y1972109D01*
X1668417Y1965908D01*
X1665426Y1958687D01*
X1665064Y1955937D01*
X1689347D01*
Y1980220D01*
D02*
G37*
G36*
X1896198D02*
Y1955937D01*
X1920481D01*
X1920119Y1958687D01*
X1917127Y1965908D01*
X1912369Y1972109D01*
X1906168Y1976867D01*
X1898947Y1979858D01*
X1896198Y1980220D01*
D02*
G37*
G36*
X1886198D02*
X1883448Y1979858D01*
X1876227Y1976867D01*
X1870026Y1972109D01*
X1865268Y1965908D01*
X1862277Y1958687D01*
X1861915Y1955937D01*
X1886198D01*
Y1980220D01*
D02*
G37*
G36*
X1699347D02*
Y1955937D01*
X1723630D01*
X1723268Y1958687D01*
X1720277Y1965908D01*
X1715519Y1972109D01*
X1709318Y1976867D01*
X1702097Y1979858D01*
X1699347Y1980220D01*
D02*
G37*
G36*
X1073976Y2140000D02*
X1038976D01*
Y2105000D01*
X1073976D01*
Y2140000D01*
D02*
G37*
G36*
X1012913Y2133937D02*
X945039D01*
Y2066063D01*
X1012913D01*
Y2133937D01*
D02*
G37*
G36*
X912913D02*
X845039D01*
Y2066063D01*
X912913D01*
Y2133937D01*
D02*
G37*
G36*
X1173976Y2140000D02*
X1138976D01*
Y2105000D01*
X1173976D01*
Y2140000D01*
D02*
G37*
G36*
X444103Y2142788D02*
X383305D01*
X380860Y2140000D01*
X357442D01*
Y2105000D01*
X397441D01*
X437442D01*
Y2128507D01*
X440749Y2132817D01*
X443741Y2140038D01*
X444103Y2142788D01*
D02*
G37*
G36*
X1218976Y2140000D02*
X1183976D01*
Y2105000D01*
X1218976D01*
Y2140000D01*
D02*
G37*
G36*
X1118976D02*
X1083976D01*
Y2105000D01*
X1118976D01*
Y2140000D01*
D02*
G37*
G36*
Y2095000D02*
X1083976D01*
Y2060000D01*
X1118976D01*
Y2095000D01*
D02*
G37*
G36*
X1073976D02*
X1038976D01*
Y2060000D01*
X1073976D01*
Y2095000D01*
D02*
G37*
G36*
X637442Y2095000D02*
X602441D01*
Y2060000D01*
X637442D01*
Y2095000D01*
D02*
G37*
G36*
X1173976Y2095000D02*
X1138976D01*
Y2060000D01*
X1173976D01*
Y2095000D01*
D02*
G37*
G36*
X1624527Y2090268D02*
X1590000D01*
Y2060662D01*
X1624527D01*
Y2090268D01*
D02*
G37*
G36*
X1580000D02*
X1545473D01*
Y2060662D01*
X1580000D01*
Y2090268D01*
D02*
G37*
G36*
X1218976Y2095000D02*
X1183976D01*
Y2060000D01*
X1218976D01*
Y2095000D01*
D02*
G37*
G36*
X1098796Y1980220D02*
X1096047Y1979858D01*
X1088825Y1976867D01*
X1082624Y1972109D01*
X1077866Y1965908D01*
X1074875Y1958687D01*
X1074513Y1955937D01*
X1098796D01*
Y1980220D01*
D02*
G37*
G36*
X1845000Y1915897D02*
Y1852000D01*
X1908897D01*
X1908056Y1860537D01*
X1904107Y1873554D01*
X1897695Y1885551D01*
X1889066Y1896066D01*
X1878551Y1904695D01*
X1866554Y1911107D01*
X1853537Y1915056D01*
X1845000Y1915897D01*
D02*
G37*
G36*
X1835000D02*
X1826463Y1915056D01*
X1813446Y1911107D01*
X1801449Y1904695D01*
X1790934Y1896066D01*
X1782305Y1885551D01*
X1775893Y1873554D01*
X1771944Y1860537D01*
X1771103Y1852000D01*
X1835000D01*
Y1915897D01*
D02*
G37*
G36*
X1045000D02*
Y1852000D01*
X1108897D01*
X1108056Y1860537D01*
X1104107Y1873554D01*
X1097695Y1885551D01*
X1089066Y1896066D01*
X1078551Y1904695D01*
X1066554Y1911107D01*
X1053537Y1915056D01*
X1045000Y1915897D01*
D02*
G37*
G36*
X357874Y1890630D02*
X330236D01*
Y1857087D01*
X357874D01*
Y1890630D01*
D02*
G37*
G36*
X55000Y1907714D02*
Y1873504D01*
X89210D01*
X88510Y1878823D01*
X84527Y1888438D01*
X78191Y1896695D01*
X69934Y1903031D01*
X60319Y1907014D01*
X55000Y1907714D01*
D02*
G37*
G36*
X45000Y1907714D02*
X39681Y1907014D01*
X30066Y1903031D01*
X21809Y1896695D01*
X15473Y1888438D01*
X11490Y1878823D01*
X10790Y1873504D01*
X45000D01*
Y1907714D01*
D02*
G37*
G36*
X395512Y1890630D02*
X367874D01*
Y1857087D01*
X395512D01*
Y1890630D01*
D02*
G37*
G36*
X89210Y1863504D02*
X55000D01*
Y1829294D01*
X60319Y1829994D01*
X69934Y1833977D01*
X78191Y1840313D01*
X84527Y1848570D01*
X88510Y1858185D01*
X89210Y1863504D01*
D02*
G37*
G36*
X45000D02*
X10790D01*
X11490Y1858185D01*
X15473Y1848570D01*
X21809Y1840313D01*
X30066Y1833977D01*
X39681Y1829994D01*
X45000Y1829294D01*
Y1863504D01*
D02*
G37*
G36*
X1908897Y1842000D02*
X1845000D01*
Y1778103D01*
X1853537Y1778944D01*
X1866554Y1782893D01*
X1878551Y1789305D01*
X1889066Y1797934D01*
X1897695Y1808449D01*
X1904107Y1820446D01*
X1908056Y1833463D01*
X1908897Y1842000D01*
D02*
G37*
G36*
X-50000Y1902257D02*
X-58736Y1901107D01*
X-66877Y1897735D01*
X-73867Y1892371D01*
X-79231Y1885381D01*
X-82603Y1877240D01*
X-83753Y1868504D01*
X-82603Y1859768D01*
X-79231Y1851627D01*
X-73867Y1844637D01*
X-66877Y1839273D01*
X-58736Y1835901D01*
X-50000Y1834751D01*
X-41264Y1835901D01*
X-33123Y1839273D01*
X-26133Y1844637D01*
X-20769Y1851627D01*
X-17397Y1859768D01*
X-16247Y1868504D01*
X-17397Y1877240D01*
X-20769Y1885381D01*
X-26133Y1892371D01*
X-33123Y1897735D01*
X-41264Y1901107D01*
X-50000Y1902257D01*
D02*
G37*
G36*
X1035000Y1915897D02*
X1026463Y1915056D01*
X1013446Y1911107D01*
X1001449Y1904695D01*
X990934Y1896066D01*
X982305Y1885551D01*
X975893Y1873554D01*
X971944Y1860537D01*
X971103Y1852000D01*
X1035000D01*
Y1915897D01*
D02*
G37*
G36*
X2175984Y1902257D02*
X2167248Y1901107D01*
X2159107Y1897735D01*
X2152117Y1892371D01*
X2146753Y1885381D01*
X2143381Y1877240D01*
X2142231Y1868504D01*
X2143381Y1859768D01*
X2146753Y1851627D01*
X2152117Y1844637D01*
X2159107Y1839273D01*
X2167248Y1835901D01*
X2175984Y1834751D01*
X2184720Y1835901D01*
X2192861Y1839273D01*
X2199851Y1844637D01*
X2205215Y1851627D01*
X2208587Y1859768D01*
X2209737Y1868504D01*
X2208587Y1877240D01*
X2205215Y1885381D01*
X2199851Y1892371D01*
X2192861Y1897735D01*
X2184720Y1901107D01*
X2175984Y1902257D01*
D02*
G37*
G36*
X2075984D02*
X2067248Y1901107D01*
X2059107Y1897735D01*
X2052117Y1892371D01*
X2046753Y1885381D01*
X2043381Y1877240D01*
X2042231Y1868504D01*
X2043381Y1859768D01*
X2046753Y1851627D01*
X2052117Y1844637D01*
X2059107Y1839273D01*
X2067248Y1835901D01*
X2075984Y1834751D01*
X2084720Y1835901D01*
X2092861Y1839273D01*
X2099851Y1844637D01*
X2105215Y1851627D01*
X2108587Y1859768D01*
X2109737Y1868504D01*
X2108587Y1877240D01*
X2105215Y1885381D01*
X2099851Y1892371D01*
X2092861Y1897735D01*
X2084720Y1901107D01*
X2075984Y1902257D01*
D02*
G37*
G36*
X1920481Y1945937D02*
X1896198D01*
Y1921654D01*
X1898947Y1922016D01*
X1906168Y1925007D01*
X1912369Y1929766D01*
X1917127Y1935967D01*
X1920119Y1943188D01*
X1920481Y1945937D01*
D02*
G37*
G36*
X1886198D02*
X1861915D01*
X1862277Y1943188D01*
X1865268Y1935967D01*
X1870026Y1929766D01*
X1876227Y1925007D01*
X1883448Y1922016D01*
X1886198Y1921654D01*
Y1945937D01*
D02*
G37*
G36*
X1723630D02*
X1699347D01*
Y1921654D01*
X1702097Y1922016D01*
X1709318Y1925007D01*
X1715519Y1929766D01*
X1720277Y1935967D01*
X1723268Y1943188D01*
X1723630Y1945937D01*
D02*
G37*
G36*
X2170984Y1963504D02*
X2136456D01*
Y1928976D01*
X2170984D01*
Y1963504D01*
D02*
G37*
G36*
X2075984Y2002257D02*
X2067248Y2001107D01*
X2059107Y1997735D01*
X2052117Y1992371D01*
X2046753Y1985381D01*
X2043381Y1977240D01*
X2042231Y1968504D01*
X2043381Y1959768D01*
X2046753Y1951627D01*
X2052117Y1944637D01*
X2059107Y1939273D01*
X2067248Y1935901D01*
X2075984Y1934751D01*
X2084720Y1935901D01*
X2092861Y1939273D01*
X2099851Y1944637D01*
X2105215Y1951627D01*
X2108587Y1959768D01*
X2109737Y1968504D01*
X2108587Y1977240D01*
X2105215Y1985381D01*
X2099851Y1992371D01*
X2092861Y1997735D01*
X2084720Y2001107D01*
X2075984Y2002257D01*
D02*
G37*
G36*
X-50000D02*
X-58736Y2001107D01*
X-66877Y1997735D01*
X-73867Y1992371D01*
X-79231Y1985381D01*
X-82603Y1977240D01*
X-83753Y1968504D01*
X-82603Y1959768D01*
X-79231Y1951627D01*
X-73867Y1944637D01*
X-66877Y1939273D01*
X-58736Y1935901D01*
X-50000Y1934751D01*
X-41264Y1935901D01*
X-33123Y1939273D01*
X-26133Y1944637D01*
X-20769Y1951627D01*
X-17397Y1959768D01*
X-16247Y1968504D01*
X-17397Y1977240D01*
X-20769Y1985381D01*
X-26133Y1992371D01*
X-33123Y1997735D01*
X-41264Y2001107D01*
X-50000Y2002257D01*
D02*
G37*
G36*
X2215512Y1963504D02*
X2180984D01*
Y1928976D01*
X2215512D01*
Y1963504D01*
D02*
G37*
G36*
X1098796Y1945937D02*
X1074513D01*
X1074875Y1943188D01*
X1077866Y1935967D01*
X1082624Y1929766D01*
X1088825Y1925007D01*
X1096047Y1922016D01*
X1098796Y1921654D01*
Y1945937D01*
D02*
G37*
G36*
X357874Y1934173D02*
X330236D01*
Y1900630D01*
X357874D01*
Y1934173D01*
D02*
G37*
G36*
X645000Y1935169D02*
X635368Y1933253D01*
X627203Y1927797D01*
X621747Y1919632D01*
X619831Y1910000D01*
X621747Y1900368D01*
X627203Y1892203D01*
X635368Y1886747D01*
X645000Y1884831D01*
X654632Y1886747D01*
X662797Y1892203D01*
X668253Y1900368D01*
X670169Y1910000D01*
X668253Y1919632D01*
X662797Y1927797D01*
X654632Y1933253D01*
X645000Y1935169D01*
D02*
G37*
G36*
X1133079Y1945937D02*
X1108796D01*
Y1921654D01*
X1111545Y1922016D01*
X1118767Y1925007D01*
X1124968Y1929766D01*
X1129726Y1935967D01*
X1132717Y1943188D01*
X1133079Y1945937D01*
D02*
G37*
G36*
X1689347D02*
X1665064D01*
X1665426Y1943188D01*
X1668417Y1935967D01*
X1673176Y1929766D01*
X1679377Y1925007D01*
X1686598Y1922016D01*
X1689347Y1921654D01*
Y1945937D01*
D02*
G37*
G36*
X1526780D02*
X1502497D01*
Y1921654D01*
X1505246Y1922016D01*
X1512467Y1925007D01*
X1518668Y1929766D01*
X1523427Y1935967D01*
X1526418Y1943188D01*
X1526780Y1945937D01*
D02*
G37*
G36*
X1492497D02*
X1468214D01*
X1468576Y1943188D01*
X1471567Y1935967D01*
X1476325Y1929766D01*
X1482526Y1925007D01*
X1489747Y1922016D01*
X1492497Y1921654D01*
Y1945937D01*
D02*
G37*
G36*
X755985Y2551668D02*
X746353Y2549753D01*
X738188Y2544297D01*
X732732Y2536131D01*
X730816Y2526500D01*
X732732Y2516868D01*
X738188Y2508703D01*
X746296Y2503285D01*
Y2493574D01*
X741173D01*
Y2465858D01*
X772827D01*
Y2493574D01*
X766688D01*
Y2503963D01*
X773782Y2508703D01*
X779237Y2516868D01*
X781153Y2526500D01*
X779237Y2536131D01*
X773782Y2544297D01*
X765616Y2549753D01*
X755985Y2551668D01*
D02*
G37*
G36*
X420000Y2530513D02*
X410368Y2528597D01*
X402203Y2523141D01*
X396747Y2514976D01*
X394831Y2505345D01*
X396747Y2495713D01*
X402203Y2487548D01*
X404173Y2486231D01*
Y2458858D01*
X435827D01*
Y2486231D01*
X437797Y2487548D01*
X443253Y2495713D01*
X445169Y2505345D01*
X443253Y2514976D01*
X437797Y2523141D01*
X429632Y2528597D01*
X420000Y2530513D01*
D02*
G37*
G36*
X772827Y2458142D02*
X741173D01*
Y2454031D01*
X703423D01*
X699817Y2456440D01*
X694410Y2457516D01*
X660946D01*
X655538Y2456440D01*
X650955Y2453377D01*
X647892Y2448793D01*
X646816Y2443386D01*
X647892Y2437979D01*
X650767Y2433675D01*
X647350Y2431392D01*
X643182Y2425154D01*
X642712Y2422796D01*
X677679D01*
X712643D01*
X712174Y2425154D01*
X709846Y2428639D01*
X712518Y2433639D01*
X741173D01*
Y2430426D01*
X746296D01*
Y2368215D01*
X738188Y2362797D01*
X732732Y2354631D01*
X730816Y2345000D01*
X732732Y2335368D01*
X738188Y2327203D01*
X746353Y2321747D01*
X755985Y2319831D01*
X765616Y2321747D01*
X773782Y2327203D01*
X779237Y2335368D01*
X781153Y2345000D01*
X779237Y2354631D01*
X773782Y2362797D01*
X766688Y2367536D01*
Y2430426D01*
X772827D01*
Y2458142D01*
D02*
G37*
G36*
X1545512Y2501370D02*
X1505000D01*
X1464488D01*
Y2472412D01*
X1464488Y2469795D01*
X1460475Y2467412D01*
X1428543D01*
Y2492431D01*
X1390000D01*
X1351457D01*
Y2467412D01*
X1335000D01*
X1331173Y2465827D01*
X1329588Y2462000D01*
Y2375000D01*
X1330660Y2372412D01*
X1328402Y2367412D01*
X1023426Y2367412D01*
X1019599Y2365827D01*
X1018014Y2362000D01*
X1018014Y2288000D01*
X1019600Y2284173D01*
X1023427Y2282588D01*
X1371491Y2282588D01*
X1374832Y2277588D01*
X1374588Y2277000D01*
Y2245583D01*
X1371535D01*
Y2198181D01*
X1374588D01*
Y2157000D01*
X1376173Y2153173D01*
X1380000Y2151588D01*
X1550473D01*
Y2108732D01*
X1619527D01*
Y2154864D01*
X1620412Y2157000D01*
X1620412Y2252166D01*
X1635000D01*
Y2287756D01*
X1645000D01*
Y2252166D01*
X1660588D01*
Y2245000D01*
X1662173Y2241173D01*
X1666000Y2239588D01*
X1846000Y2239588D01*
X1849827Y2241173D01*
X1851412Y2245000D01*
X1851412Y2331000D01*
X1850169Y2334000D01*
X1851412Y2337000D01*
Y2351588D01*
X1859969D01*
X1861457Y2347204D01*
X1861457Y2346588D01*
Y2319566D01*
X1938543D01*
Y2347204D01*
X1932482D01*
X1931487Y2352204D01*
X1933827Y2353173D01*
X1933827Y2353173D01*
X1935412Y2357000D01*
X1935412Y2367000D01*
Y2462000D01*
X1933827Y2465827D01*
X1930000Y2467412D01*
X1549525D01*
X1545512Y2469795D01*
X1545512Y2472412D01*
Y2501370D01*
D02*
G37*
G36*
X294056Y2528500D02*
X266418D01*
Y2488067D01*
X294056D01*
Y2528500D01*
D02*
G37*
G36*
X-26416Y2527999D02*
X-54054D01*
Y2487567D01*
X-26416D01*
Y2527999D01*
D02*
G37*
G36*
X-64054D02*
X-91692D01*
Y2487567D01*
X-64054D01*
Y2527999D01*
D02*
G37*
G36*
X936229Y2339638D02*
X911946D01*
Y2315355D01*
X914695Y2315717D01*
X921916Y2318708D01*
X928117Y2323466D01*
X932875Y2329667D01*
X935867Y2336889D01*
X936229Y2339638D01*
D02*
G37*
G36*
X901946D02*
X877663D01*
X878025Y2336889D01*
X881016Y2329667D01*
X885774Y2323466D01*
X891975Y2318708D01*
X899196Y2315717D01*
X901946Y2315355D01*
Y2339638D01*
D02*
G37*
G36*
X1938543Y2309566D02*
X1905000D01*
Y2281928D01*
X1938543D01*
Y2309566D01*
D02*
G37*
G36*
X901946Y2373921D02*
X899196Y2373559D01*
X891975Y2370568D01*
X885774Y2365810D01*
X881016Y2359609D01*
X878025Y2352387D01*
X877663Y2349638D01*
X901946D01*
Y2373921D01*
D02*
G37*
G36*
X208583Y2573933D02*
X153308D01*
Y2518986D01*
X132790Y2498468D01*
X130580Y2495161D01*
X129804Y2491259D01*
Y2420000D01*
X130238Y2417818D01*
X125630Y2415355D01*
X110196Y2430789D01*
Y2479260D01*
X109420Y2483162D01*
X107210Y2486470D01*
X86694Y2506986D01*
Y2573433D01*
X31418D01*
Y2492567D01*
X72275D01*
X89804Y2475037D01*
Y2426566D01*
X90580Y2422664D01*
X92790Y2419356D01*
X109804Y2402343D01*
Y2331152D01*
X102203Y2326073D01*
X100426Y2323413D01*
X95857Y2325575D01*
X100881Y2342138D01*
X102858Y2362204D01*
X100881Y2382271D01*
X95028Y2401566D01*
X85523Y2419349D01*
X72731Y2434936D01*
X57145Y2447727D01*
X39362Y2457232D01*
X20067Y2463086D01*
X0Y2465062D01*
X-20067Y2463086D01*
X-39362Y2457232D01*
X-57145Y2447727D01*
X-72731Y2434936D01*
X-85523Y2419349D01*
X-95028Y2401566D01*
X-100881Y2382271D01*
X-102858Y2362204D01*
X-100881Y2342138D01*
X-95028Y2322843D01*
X-85523Y2305060D01*
X-72731Y2289473D01*
X-57145Y2276682D01*
X-39362Y2267177D01*
X-20067Y2261323D01*
X0Y2259347D01*
X20067Y2261323D01*
X39362Y2267177D01*
X57145Y2276682D01*
X72731Y2289473D01*
X85523Y2305060D01*
X91210Y2315700D01*
X95969Y2313997D01*
X94831Y2308276D01*
X96747Y2298644D01*
X102203Y2290479D01*
X109804Y2285400D01*
Y2236221D01*
X110580Y2232319D01*
X112790Y2229011D01*
X154601Y2187200D01*
X157909Y2184990D01*
X161811Y2184214D01*
X171851D01*
Y2181536D01*
X205473D01*
Y2181536D01*
X209867Y2180072D01*
Y2153173D01*
X209867Y2153173D01*
X211019Y2147382D01*
X214299Y2142472D01*
X263505Y2093266D01*
Y2066063D01*
X331379D01*
Y2133937D01*
X265638D01*
X240133Y2159441D01*
Y2206588D01*
X254527D01*
Y2181536D01*
X288149D01*
Y2187088D01*
X289370D01*
X293272Y2187864D01*
X296580Y2190074D01*
X307210Y2200704D01*
X309420Y2204012D01*
X310196Y2207914D01*
Y2375314D01*
X315196Y2376831D01*
X317350Y2373608D01*
X320767Y2371325D01*
X317892Y2367021D01*
X316816Y2361614D01*
X317892Y2356207D01*
X320954Y2351623D01*
X325538Y2348560D01*
X330946Y2347484D01*
X364410D01*
X369817Y2348560D01*
X374401Y2351623D01*
X377464Y2356207D01*
X378540Y2361614D01*
X377464Y2367021D01*
X374589Y2371325D01*
X378006Y2373608D01*
X382174Y2379846D01*
X382644Y2382204D01*
X347679D01*
Y2392204D01*
X382643D01*
X382174Y2394562D01*
X378541Y2400000D01*
X382174Y2405438D01*
X382644Y2407796D01*
X347679D01*
X312713D01*
X313182Y2405438D01*
X316815Y2400000D01*
X313182Y2394562D01*
X312161Y2389430D01*
X308643Y2388300D01*
X306823Y2388226D01*
X249454Y2445596D01*
X246146Y2447806D01*
X242244Y2448582D01*
X208741D01*
X204464Y2451440D01*
X199056Y2452516D01*
X165592D01*
X160185Y2451440D01*
X155601Y2448377D01*
X155196Y2447772D01*
X150196Y2449289D01*
Y2487035D01*
X156228Y2493067D01*
X208583D01*
Y2573933D01*
D02*
G37*
G36*
X712644Y2412796D02*
X677679D01*
X642713D01*
X643182Y2410438D01*
X647350Y2404200D01*
X650768Y2401916D01*
X647892Y2397611D01*
X646816Y2392204D01*
X647892Y2386797D01*
X650955Y2382213D01*
X651409Y2381909D01*
Y2376909D01*
X650955Y2376605D01*
X647892Y2372021D01*
X646816Y2366614D01*
X647892Y2361207D01*
X650955Y2356623D01*
X655538Y2353560D01*
X660946Y2352484D01*
X694410D01*
X699817Y2353560D01*
X704402Y2356623D01*
X707464Y2361207D01*
X708540Y2366614D01*
X707464Y2372021D01*
X704402Y2376605D01*
X703947Y2376909D01*
Y2381909D01*
X704402Y2382213D01*
X707464Y2386797D01*
X708540Y2392204D01*
X707464Y2397611D01*
X704588Y2401916D01*
X708006Y2404200D01*
X712174Y2410438D01*
X712644Y2412796D01*
D02*
G37*
G36*
X911946Y2373921D02*
Y2349638D01*
X936229D01*
X935867Y2352387D01*
X932875Y2359609D01*
X928117Y2365810D01*
X921916Y2370568D01*
X914695Y2373559D01*
X911946Y2373921D01*
D02*
G37*
G36*
X-26416Y2578433D02*
X-54054D01*
Y2537999D01*
X-26416D01*
Y2578433D01*
D02*
G37*
G36*
X-64054D02*
X-91692D01*
Y2537999D01*
X-64054D01*
Y2578433D01*
D02*
G37*
G36*
X1545512Y2542945D02*
X1510000D01*
Y2511370D01*
X1545512D01*
Y2542945D01*
D02*
G37*
G36*
X294056Y2578933D02*
X266418D01*
Y2538500D01*
X294056D01*
Y2578933D01*
D02*
G37*
G36*
X360985Y2580168D02*
X351353Y2578253D01*
X343188Y2572797D01*
X337732Y2564631D01*
X336693Y2559412D01*
X331693Y2559904D01*
Y2578933D01*
X304056D01*
Y2538500D01*
X331693D01*
Y2550096D01*
X336693Y2550588D01*
X337732Y2545368D01*
X343188Y2537203D01*
X350002Y2532650D01*
Y2452516D01*
X330946D01*
X325538Y2451440D01*
X320954Y2448377D01*
X317892Y2443793D01*
X316816Y2438386D01*
X317892Y2432979D01*
X320767Y2428675D01*
X317350Y2426392D01*
X313182Y2420154D01*
X312712Y2417796D01*
X347679D01*
X382643D01*
X382174Y2420154D01*
X380514Y2422639D01*
X383187Y2427639D01*
X404173D01*
Y2423426D01*
X435827D01*
Y2451142D01*
X404173D01*
Y2448031D01*
X374633D01*
X374401Y2448377D01*
X370393Y2451055D01*
Y2531703D01*
X370616Y2531747D01*
X378781Y2537203D01*
X384237Y2545368D01*
X386153Y2555000D01*
X384237Y2564631D01*
X378781Y2572797D01*
X370616Y2578253D01*
X360985Y2580168D01*
D02*
G37*
G36*
X679134Y2582273D02*
X651496D01*
Y2541840D01*
X679134D01*
Y2582273D01*
D02*
G37*
G36*
X641496D02*
X613858D01*
Y2541840D01*
X641496D01*
Y2582273D01*
D02*
G37*
G36*
X679134Y2531840D02*
X651496D01*
Y2491407D01*
X679134D01*
Y2531840D01*
D02*
G37*
G36*
X641496D02*
X613858D01*
Y2491407D01*
X641496D01*
Y2531840D01*
D02*
G37*
G36*
X331693Y2528500D02*
X304056D01*
Y2488067D01*
X331693D01*
Y2528500D01*
D02*
G37*
G36*
X556024Y2577273D02*
X500748D01*
Y2539527D01*
X455408Y2494187D01*
X452998Y2490580D01*
X452151Y2486325D01*
X452151Y2486324D01*
Y2427631D01*
X452151Y2427630D01*
X452998Y2423375D01*
X455408Y2419767D01*
X465242Y2409934D01*
X465242Y2409934D01*
X468850Y2407523D01*
X471747Y2406947D01*
X471747Y2401849D01*
X470615Y2401624D01*
X467307Y2399414D01*
X442790Y2374897D01*
X440580Y2371589D01*
X439804Y2367687D01*
Y2332876D01*
X432203Y2327797D01*
X426747Y2319632D01*
X424831Y2310000D01*
X426747Y2300368D01*
X432203Y2292203D01*
X439804Y2287124D01*
Y2250631D01*
X440580Y2246729D01*
X442790Y2243421D01*
X499011Y2187200D01*
X502319Y2184990D01*
X506221Y2184214D01*
X511851D01*
Y2181536D01*
X545473D01*
Y2207126D01*
Y2234471D01*
X560417D01*
Y2169836D01*
X524518Y2133937D01*
X463505D01*
Y2066063D01*
X531379D01*
Y2111960D01*
X552823Y2133403D01*
X557442Y2131490D01*
Y2105000D01*
X592441D01*
Y2140000D01*
X565952D01*
X564039Y2144619D01*
X575655Y2156236D01*
X575791Y2156263D01*
X579399Y2158673D01*
X581809Y2162281D01*
X582655Y2166536D01*
Y2234471D01*
X594527D01*
Y2207126D01*
Y2181536D01*
X628149D01*
Y2187088D01*
X637284D01*
X641186Y2187864D01*
X644494Y2190074D01*
X652210Y2197790D01*
X654420Y2201098D01*
X655196Y2205000D01*
Y2328522D01*
X654420Y2332424D01*
X652210Y2335731D01*
X542846Y2445095D01*
X542110Y2448793D01*
X539048Y2453377D01*
X534463Y2456440D01*
X529056Y2457516D01*
X495592D01*
X490185Y2456440D01*
X485601Y2453377D01*
X482538Y2448793D01*
X481462Y2443386D01*
X482538Y2437979D01*
X485253Y2433915D01*
X484656Y2431551D01*
X483305Y2428915D01*
X477710D01*
X474390Y2432236D01*
Y2481719D01*
X496128Y2503457D01*
X500748Y2501544D01*
Y2496407D01*
X556024D01*
Y2577273D01*
D02*
G37*
G36*
X1500000Y2542945D02*
X1464488D01*
Y2511370D01*
X1500000D01*
Y2542945D01*
D02*
G37*
G36*
X1428543Y2530070D02*
X1395000D01*
Y2502431D01*
X1428543D01*
Y2530070D01*
D02*
G37*
G36*
X1385000D02*
X1351457D01*
Y2502431D01*
X1385000D01*
Y2530070D01*
D02*
G37*
G36*
X1895000Y2309566D02*
X1861457D01*
Y2281928D01*
X1895000D01*
Y2309566D01*
D02*
G37*
G36*
X16119Y2177071D02*
X13369Y2176709D01*
X6148Y2173717D01*
X-53Y2168959D01*
X-4811Y2162758D01*
X-7802Y2155537D01*
X-8164Y2152788D01*
X16119D01*
Y2177071D01*
D02*
G37*
G36*
X2215756Y2142788D02*
X2191473D01*
Y2118505D01*
X2194223Y2118867D01*
X2201444Y2121858D01*
X2207645Y2126616D01*
X2212403Y2132817D01*
X2215394Y2140038D01*
X2215756Y2142788D01*
D02*
G37*
G36*
X2181473D02*
X2157190D01*
X2157552Y2140038D01*
X2160543Y2132817D01*
X2165302Y2126616D01*
X2171503Y2121858D01*
X2178724Y2118867D01*
X2181473Y2118505D01*
Y2142788D01*
D02*
G37*
G36*
X26119Y2177071D02*
Y2152788D01*
X50402D01*
X50040Y2155537D01*
X47049Y2162758D01*
X42290Y2168959D01*
X36089Y2173717D01*
X28868Y2176709D01*
X26119Y2177071D01*
D02*
G37*
G36*
X803520D02*
X800771Y2176709D01*
X793550Y2173717D01*
X787349Y2168959D01*
X782591Y2162758D01*
X779599Y2155537D01*
X779237Y2152788D01*
X803520D01*
Y2177071D01*
D02*
G37*
G36*
X419820D02*
Y2152788D01*
X444103D01*
X443741Y2155537D01*
X440749Y2162758D01*
X435991Y2168959D01*
X429790Y2173717D01*
X422569Y2176709D01*
X419820Y2177071D01*
D02*
G37*
G36*
X409820D02*
X407070Y2176709D01*
X399849Y2173717D01*
X393648Y2168959D01*
X388890Y2162758D01*
X385899Y2155537D01*
X385537Y2152788D01*
X409820D01*
Y2177071D01*
D02*
G37*
G36*
X50402Y2142788D02*
X26119D01*
Y2118505D01*
X28868Y2118867D01*
X36089Y2121858D01*
X42290Y2126616D01*
X47049Y2132817D01*
X50040Y2140038D01*
X50402Y2142788D01*
D02*
G37*
G36*
X16119D02*
X-8164D01*
X-7802Y2140038D01*
X-4811Y2132817D01*
X-53Y2126616D01*
X6148Y2121858D01*
X13369Y2118867D01*
X16119Y2118505D01*
Y2142788D01*
D02*
G37*
G36*
X637442Y2140000D02*
X602441D01*
Y2105000D01*
X637442D01*
Y2140000D01*
D02*
G37*
G36*
X803520Y2142788D02*
X779237D01*
X779599Y2140038D01*
X782591Y2132817D01*
X787349Y2126616D01*
X793550Y2121858D01*
X800771Y2118867D01*
X803520Y2118505D01*
Y2142788D01*
D02*
G37*
G36*
X1822055D02*
X1797772D01*
Y2118505D01*
X1800522Y2118867D01*
X1807743Y2121858D01*
X1813944Y2126616D01*
X1818702Y2132817D01*
X1821693Y2140038D01*
X1822055Y2142788D01*
D02*
G37*
G36*
X1787772D02*
X1763489D01*
X1763851Y2140038D01*
X1766843Y2132817D01*
X1771601Y2126616D01*
X1777802Y2121858D01*
X1785023Y2118867D01*
X1787772Y2118505D01*
Y2142788D01*
D02*
G37*
G36*
X837803D02*
X813520D01*
Y2118505D01*
X816270Y2118867D01*
X823491Y2121858D01*
X829692Y2126616D01*
X834450Y2132817D01*
X837441Y2140038D01*
X837803Y2142788D01*
D02*
G37*
G36*
X1165000Y2245582D02*
X1124567D01*
Y2217944D01*
X1165000D01*
Y2245582D01*
D02*
G37*
G36*
X1358150Y2207944D02*
X1300000D01*
Y2180306D01*
X1358150D01*
Y2207944D01*
D02*
G37*
G36*
X1290000D02*
X1231850D01*
Y2180306D01*
X1290000D01*
Y2207944D01*
D02*
G37*
G36*
X1215433Y2245582D02*
X1175000D01*
Y2217944D01*
X1215433D01*
Y2245582D01*
D02*
G37*
G36*
X2125985Y2465062D02*
X2105918Y2463086D01*
X2086623Y2457232D01*
X2068840Y2447727D01*
X2053253Y2434936D01*
X2040462Y2419349D01*
X2030957Y2401566D01*
X2025103Y2382271D01*
X2023127Y2362204D01*
X2025103Y2342138D01*
X2030957Y2322843D01*
X2040462Y2305060D01*
X2053253Y2289473D01*
X2068840Y2276682D01*
X2086623Y2267177D01*
X2105918Y2261323D01*
X2125985Y2259347D01*
X2146051Y2261323D01*
X2165347Y2267177D01*
X2183129Y2276682D01*
X2198716Y2289473D01*
X2211508Y2305060D01*
X2221012Y2322843D01*
X2226866Y2342138D01*
X2228842Y2362204D01*
X2226866Y2382271D01*
X2221012Y2401566D01*
X2211508Y2419349D01*
X2198716Y2434936D01*
X2183129Y2447727D01*
X2165347Y2457232D01*
X2146051Y2463086D01*
X2125985Y2465062D01*
D02*
G37*
G36*
X1358150Y2245582D02*
X1300000D01*
Y2217944D01*
X1358150D01*
Y2245582D01*
D02*
G37*
G36*
X1290000D02*
X1231850D01*
Y2217944D01*
X1290000D01*
Y2245582D01*
D02*
G37*
G36*
X1797772Y2177071D02*
Y2152788D01*
X1822055D01*
X1821693Y2155537D01*
X1818702Y2162758D01*
X1813944Y2168959D01*
X1807743Y2173717D01*
X1800522Y2176709D01*
X1797772Y2177071D01*
D02*
G37*
G36*
X1787772D02*
X1785023Y2176709D01*
X1777802Y2173717D01*
X1771601Y2168959D01*
X1766843Y2162758D01*
X1763851Y2155537D01*
X1763489Y2152788D01*
X1787772D01*
Y2177071D01*
D02*
G37*
G36*
X813520D02*
Y2152788D01*
X837803D01*
X837441Y2155537D01*
X834450Y2162758D01*
X829692Y2168959D01*
X823491Y2173717D01*
X816270Y2176709D01*
X813520Y2177071D01*
D02*
G37*
G36*
X2181473D02*
X2178724Y2176709D01*
X2171503Y2173717D01*
X2165302Y2168959D01*
X2160543Y2162758D01*
X2157552Y2155537D01*
X2157190Y2152788D01*
X2181473D01*
Y2177071D01*
D02*
G37*
G36*
X1215433Y2207944D02*
X1175000D01*
Y2180306D01*
X1215433D01*
Y2207944D01*
D02*
G37*
G36*
X1165000D02*
X1124567D01*
Y2180306D01*
X1165000D01*
Y2207944D01*
D02*
G37*
G36*
X2191473Y2177071D02*
Y2152788D01*
X2215756D01*
X2215394Y2155537D01*
X2212403Y2162758D01*
X2207645Y2168959D01*
X2201444Y2173717D01*
X2194223Y2176709D01*
X2191473Y2177071D01*
D02*
G37*
G36*
X1835000Y1842000D02*
X1771103D01*
X1771944Y1833463D01*
X1775893Y1820446D01*
X1782305Y1808449D01*
X1790934Y1797934D01*
X1801449Y1789305D01*
X1813446Y1782893D01*
X1826463Y1778944D01*
X1835000Y1778103D01*
Y1842000D01*
D02*
G37*
G36*
X381182Y1621062D02*
X339686D01*
Y1575630D01*
X358112D01*
Y1530768D01*
X356188Y1529482D01*
X352472Y1523922D01*
X351168Y1517362D01*
Y1483898D01*
X352472Y1477338D01*
X356188Y1471778D01*
X361749Y1468062D01*
X368308Y1466757D01*
X374867Y1468062D01*
X380428Y1471778D01*
X384144Y1477338D01*
X385448Y1483898D01*
Y1517362D01*
X384144Y1523922D01*
X380428Y1529482D01*
X378504Y1530768D01*
Y1575630D01*
X381182D01*
Y1621062D01*
D02*
G37*
G36*
X345316Y1816338D02*
X256576D01*
Y1680354D01*
X287246D01*
Y1621062D01*
X284568D01*
Y1575630D01*
X305868D01*
Y1529004D01*
X302472Y1523922D01*
X301168Y1517362D01*
Y1483898D01*
X302472Y1477338D01*
X306188Y1471778D01*
X311749Y1468062D01*
X318308Y1466757D01*
X324867Y1468062D01*
X330428Y1471778D01*
X334144Y1477338D01*
X335448Y1483898D01*
Y1517362D01*
X334144Y1523922D01*
X330428Y1529482D01*
X326260Y1532267D01*
Y1585630D01*
X326064Y1586614D01*
Y1621062D01*
X307638D01*
Y1680354D01*
X345316D01*
Y1816338D01*
D02*
G37*
G36*
X1840000Y1510297D02*
X1827651Y1509081D01*
X1815777Y1505479D01*
X1804834Y1499629D01*
X1795242Y1491758D01*
X1787371Y1482166D01*
X1781521Y1471223D01*
X1777919Y1459349D01*
X1777707Y1457196D01*
X1704527D01*
Y1485268D01*
X1635473D01*
Y1426056D01*
X1664804D01*
Y1237944D01*
X1640473D01*
Y1178732D01*
X1709527D01*
Y1237944D01*
X1685196D01*
Y1426056D01*
X1704527D01*
Y1436804D01*
X1777707D01*
X1777919Y1434651D01*
X1781521Y1422777D01*
X1787371Y1411834D01*
X1795242Y1402242D01*
X1804834Y1394371D01*
X1815777Y1388521D01*
X1827651Y1384919D01*
X1840000Y1383703D01*
X1852349Y1384919D01*
X1864223Y1388521D01*
X1875166Y1394371D01*
X1884758Y1402242D01*
X1892629Y1411834D01*
X1898479Y1422777D01*
X1902081Y1434651D01*
X1903297Y1447000D01*
X1902081Y1459349D01*
X1898479Y1471223D01*
X1892629Y1482166D01*
X1884758Y1491758D01*
X1875166Y1499629D01*
X1864223Y1505479D01*
X1852349Y1509081D01*
X1840000Y1510297D01*
D02*
G37*
G36*
X468190Y1629716D02*
X426694D01*
Y1616244D01*
X425664Y1615556D01*
X411098Y1600990D01*
X408888Y1597682D01*
X408112Y1593780D01*
Y1530768D01*
X406188Y1529482D01*
X402472Y1523922D01*
X401168Y1517362D01*
Y1483898D01*
X402472Y1477338D01*
X406188Y1471778D01*
X411749Y1468062D01*
X418308Y1466757D01*
X424867Y1468062D01*
X430428Y1471778D01*
X434144Y1477338D01*
X435448Y1483898D01*
Y1517362D01*
X434144Y1523922D01*
X430428Y1529482D01*
X428504Y1530768D01*
Y1584284D01*
X468190D01*
Y1629716D01*
D02*
G37*
G36*
X1665000Y1533338D02*
X1630473D01*
Y1503732D01*
X1665000D01*
Y1533338D01*
D02*
G37*
G36*
X1108897Y1542000D02*
X1045000D01*
Y1478103D01*
X1053537Y1478944D01*
X1066554Y1482893D01*
X1078551Y1489305D01*
X1089066Y1497934D01*
X1097695Y1508449D01*
X1104107Y1520446D01*
X1108056Y1533463D01*
X1108897Y1542000D01*
D02*
G37*
G36*
X1035000D02*
X971103D01*
X971944Y1533463D01*
X975893Y1520446D01*
X982305Y1508449D01*
X990934Y1497934D01*
X1001449Y1489305D01*
X1013446Y1482893D01*
X1026463Y1478944D01*
X1035000Y1478103D01*
Y1542000D01*
D02*
G37*
G36*
X464332Y1450590D02*
X398308D01*
Y1398346D01*
X464332D01*
Y1404345D01*
X465535Y1407251D01*
X465897Y1410000D01*
X436614D01*
Y1420000D01*
X465897D01*
X465535Y1422749D01*
X464332Y1425655D01*
Y1450590D01*
D02*
G37*
G36*
X388308D02*
X322284D01*
Y1425659D01*
X321079Y1422749D01*
X320717Y1420000D01*
X350000D01*
Y1410000D01*
X320717D01*
X321079Y1407251D01*
X322284Y1404341D01*
Y1398346D01*
X388308D01*
Y1450590D01*
D02*
G37*
G36*
X1797772Y1389669D02*
Y1365386D01*
X1822055D01*
X1821693Y1368135D01*
X1818702Y1375357D01*
X1813944Y1381558D01*
X1807743Y1386316D01*
X1800522Y1389307D01*
X1797772Y1389669D01*
D02*
G37*
G36*
X-50000Y1502257D02*
X-58736Y1501107D01*
X-66877Y1497735D01*
X-73867Y1492371D01*
X-79231Y1485381D01*
X-82603Y1477240D01*
X-83753Y1468504D01*
X-82603Y1459768D01*
X-79231Y1451627D01*
X-73867Y1444637D01*
X-66877Y1439273D01*
X-58736Y1435901D01*
X-50000Y1434751D01*
X-41264Y1435901D01*
X-33123Y1439273D01*
X-26133Y1444637D01*
X-20769Y1451627D01*
X-17397Y1459768D01*
X-16247Y1468504D01*
X-17397Y1477240D01*
X-20769Y1485381D01*
X-26133Y1492371D01*
X-33123Y1497735D01*
X-41264Y1501107D01*
X-50000Y1502257D01*
D02*
G37*
G36*
X2175984D02*
X2167248Y1501107D01*
X2159107Y1497735D01*
X2152117Y1492371D01*
X2146753Y1485381D01*
X2143381Y1477240D01*
X2142231Y1468504D01*
X2143381Y1459768D01*
X2146753Y1451627D01*
X2152117Y1444637D01*
X2159107Y1439273D01*
X2167248Y1435901D01*
X2175984Y1434751D01*
X2184720Y1435901D01*
X2192861Y1439273D01*
X2199851Y1444637D01*
X2205215Y1451627D01*
X2208587Y1459768D01*
X2209737Y1468504D01*
X2208587Y1477240D01*
X2205215Y1485381D01*
X2199851Y1492371D01*
X2192861Y1497735D01*
X2184720Y1501107D01*
X2175984Y1502257D01*
D02*
G37*
G36*
X2075984D02*
X2067248Y1501107D01*
X2059107Y1497735D01*
X2052117Y1492371D01*
X2046753Y1485381D01*
X2043381Y1477240D01*
X2042231Y1468504D01*
X2043381Y1459768D01*
X2046753Y1451627D01*
X2052117Y1444637D01*
X2059107Y1439273D01*
X2067248Y1435901D01*
X2075984Y1434751D01*
X2084720Y1435901D01*
X2092861Y1439273D01*
X2099851Y1444637D01*
X2105215Y1451627D01*
X2108587Y1459768D01*
X2109737Y1468504D01*
X2108587Y1477240D01*
X2105215Y1485381D01*
X2099851Y1492371D01*
X2092861Y1497735D01*
X2084720Y1501107D01*
X2075984Y1502257D01*
D02*
G37*
G36*
X50000D02*
X41264Y1501107D01*
X33123Y1497735D01*
X26133Y1492371D01*
X20769Y1485381D01*
X17397Y1477240D01*
X16247Y1468504D01*
X17397Y1459768D01*
X20769Y1451627D01*
X26133Y1444637D01*
X33123Y1439273D01*
X41264Y1435901D01*
X50000Y1434751D01*
X58736Y1435901D01*
X66877Y1439273D01*
X73867Y1444637D01*
X79231Y1451627D01*
X82603Y1459768D01*
X83753Y1468504D01*
X82603Y1477240D01*
X79231Y1485381D01*
X73867Y1492371D01*
X66877Y1497735D01*
X58736Y1501107D01*
X50000Y1502257D01*
D02*
G37*
G36*
X1295646Y1552236D02*
X1271363D01*
X1271725Y1549487D01*
X1274717Y1542266D01*
X1279475Y1536065D01*
X1285676Y1531307D01*
X1292897Y1528315D01*
X1295646Y1527953D01*
Y1552236D01*
D02*
G37*
G36*
X936229D02*
X911946D01*
Y1527953D01*
X914695Y1528315D01*
X921916Y1531307D01*
X928117Y1536065D01*
X932875Y1542266D01*
X935867Y1549487D01*
X936229Y1552236D01*
D02*
G37*
G36*
X901946D02*
X877663D01*
X878025Y1549487D01*
X881016Y1542266D01*
X885774Y1536065D01*
X891975Y1531307D01*
X899196Y1528315D01*
X901946Y1527953D01*
Y1552236D01*
D02*
G37*
G36*
X1329929D02*
X1305646D01*
Y1527953D01*
X1308396Y1528315D01*
X1315617Y1531307D01*
X1321818Y1536065D01*
X1326576Y1542266D01*
X1329567Y1549487D01*
X1329929Y1552236D01*
D02*
G37*
G36*
X1886198D02*
X1861915D01*
X1862277Y1549487D01*
X1865268Y1542266D01*
X1870026Y1536065D01*
X1876227Y1531307D01*
X1883448Y1528315D01*
X1886198Y1527953D01*
Y1552236D01*
D02*
G37*
G36*
X1526780D02*
X1502497D01*
Y1527953D01*
X1505246Y1528315D01*
X1512467Y1531307D01*
X1518668Y1536065D01*
X1523427Y1542266D01*
X1526418Y1549487D01*
X1526780Y1552236D01*
D02*
G37*
G36*
X1492497D02*
X1468214D01*
X1468576Y1549487D01*
X1471567Y1542266D01*
X1476325Y1536065D01*
X1482526Y1531307D01*
X1489747Y1528315D01*
X1492497Y1527953D01*
Y1552236D01*
D02*
G37*
G36*
X114544D02*
X90261D01*
X90623Y1549487D01*
X93614Y1542266D01*
X98372Y1536065D01*
X104573Y1531307D01*
X111795Y1528315D01*
X114544Y1527953D01*
Y1552236D01*
D02*
G37*
G36*
X542528D02*
X518245D01*
Y1527953D01*
X520994Y1528315D01*
X528215Y1531307D01*
X529571Y1532347D01*
X534056Y1530136D01*
Y1510826D01*
X485448D01*
Y1517362D01*
X484144Y1523922D01*
X480428Y1529482D01*
X474867Y1533198D01*
X468308Y1534503D01*
X461749Y1533198D01*
X456188Y1529482D01*
X452472Y1523922D01*
X451168Y1517362D01*
Y1483898D01*
X452472Y1477338D01*
X456188Y1471778D01*
X461749Y1468062D01*
X468308Y1466757D01*
X474867Y1468062D01*
X480428Y1471778D01*
X484144Y1477338D01*
X485448Y1483898D01*
Y1490434D01*
X534056D01*
Y1472473D01*
X553466D01*
Y1436889D01*
X539804D01*
Y1369803D01*
X557246D01*
Y1331527D01*
X534056D01*
Y1262473D01*
X593268D01*
Y1331527D01*
X577638D01*
Y1369803D01*
X595080D01*
Y1436889D01*
X573858D01*
Y1472473D01*
X593268D01*
Y1541527D01*
X544281D01*
X540940Y1546528D01*
X542166Y1549487D01*
X542528Y1552236D01*
D02*
G37*
G36*
X1709527Y1533338D02*
X1675000D01*
Y1503732D01*
X1709527D01*
Y1533338D01*
D02*
G37*
G36*
X148827Y1552236D02*
X124544D01*
Y1527953D01*
X127293Y1528315D01*
X134515Y1531307D01*
X140716Y1536065D01*
X145474Y1542266D01*
X148465Y1549487D01*
X148827Y1552236D01*
D02*
G37*
G36*
X739378D02*
X715095D01*
Y1527953D01*
X717845Y1528315D01*
X725066Y1531307D01*
X731267Y1536065D01*
X736025Y1542266D01*
X739016Y1549487D01*
X739378Y1552236D01*
D02*
G37*
G36*
X705095D02*
X680812D01*
X681174Y1549487D01*
X684165Y1542266D01*
X688924Y1536065D01*
X695125Y1531307D01*
X702346Y1528315D01*
X705095Y1527953D01*
Y1552236D01*
D02*
G37*
G36*
X508245D02*
X483962D01*
X484324Y1549487D01*
X487315Y1542266D01*
X492073Y1536065D01*
X498274Y1531307D01*
X505495Y1528315D01*
X508245Y1527953D01*
Y1552236D01*
D02*
G37*
G36*
X1787772Y1389669D02*
X1785023Y1389307D01*
X1777802Y1386316D01*
X1771601Y1381558D01*
X1766843Y1375357D01*
X1763851Y1368135D01*
X1763489Y1365386D01*
X1787772D01*
Y1389669D01*
D02*
G37*
G36*
X313308Y1324038D02*
X309798Y1323340D01*
X302583Y1318519D01*
X297762Y1311304D01*
X296070Y1302794D01*
Y1291062D01*
X313308D01*
Y1324038D01*
D02*
G37*
G36*
X1040000Y1410297D02*
X1027651Y1409081D01*
X1015777Y1405479D01*
X1004834Y1399629D01*
X995242Y1391758D01*
X987371Y1382166D01*
X981521Y1371223D01*
X977919Y1359349D01*
X976703Y1347000D01*
X977919Y1334651D01*
X981521Y1322777D01*
X987371Y1311834D01*
X995242Y1302242D01*
X1004834Y1294371D01*
X1015777Y1288521D01*
X1027651Y1284919D01*
X1040000Y1283703D01*
X1052349Y1284919D01*
X1064223Y1288521D01*
X1075166Y1294371D01*
X1084758Y1302242D01*
X1092629Y1311834D01*
X1098479Y1322777D01*
X1102081Y1334651D01*
X1103297Y1347000D01*
X1102081Y1359349D01*
X1098479Y1371223D01*
X1092629Y1382166D01*
X1084758Y1391758D01*
X1075166Y1399629D01*
X1064223Y1405479D01*
X1052349Y1409081D01*
X1040000Y1410297D01*
D02*
G37*
G36*
X50000Y1402257D02*
X41264Y1401107D01*
X33123Y1397735D01*
X26133Y1392371D01*
X20769Y1385381D01*
X17397Y1377240D01*
X16247Y1368504D01*
X17397Y1359768D01*
X20769Y1351627D01*
X22259Y1349685D01*
X-9716Y1317709D01*
X-12997Y1312800D01*
X-14149Y1307008D01*
X-14149Y1307008D01*
Y1282464D01*
X-19149Y1281469D01*
X-20769Y1285381D01*
X-26133Y1292371D01*
X-33123Y1297735D01*
X-41264Y1301107D01*
X-50000Y1302257D01*
X-58736Y1301107D01*
X-66877Y1297735D01*
X-73867Y1292371D01*
X-79231Y1285381D01*
X-82603Y1277240D01*
X-83753Y1268504D01*
X-82603Y1259768D01*
X-79231Y1251627D01*
X-73867Y1244637D01*
X-66877Y1239273D01*
X-58736Y1235901D01*
X-50000Y1234751D01*
X-41264Y1235901D01*
X-33123Y1239273D01*
X-26133Y1244637D01*
X-20769Y1251627D01*
X-19149Y1255539D01*
X-14149Y1254544D01*
Y1182464D01*
X-19149Y1181469D01*
X-20769Y1185381D01*
X-26133Y1192371D01*
X-33123Y1197735D01*
X-41264Y1201107D01*
X-50000Y1202257D01*
X-58736Y1201107D01*
X-66877Y1197735D01*
X-73867Y1192371D01*
X-79231Y1185381D01*
X-82603Y1177240D01*
X-83753Y1168504D01*
X-82603Y1159768D01*
X-79231Y1151627D01*
X-73867Y1144637D01*
X-66877Y1139273D01*
X-58736Y1135901D01*
X-50000Y1134751D01*
X-41264Y1135901D01*
X-33123Y1139273D01*
X-26133Y1144637D01*
X-20769Y1151627D01*
X-19149Y1155539D01*
X-14149Y1154544D01*
Y1082464D01*
X-19149Y1081469D01*
X-20769Y1085381D01*
X-26133Y1092371D01*
X-33123Y1097735D01*
X-41264Y1101107D01*
X-50000Y1102257D01*
X-58736Y1101107D01*
X-66877Y1097735D01*
X-73867Y1092371D01*
X-79231Y1085381D01*
X-82603Y1077240D01*
X-83753Y1068504D01*
X-82603Y1059768D01*
X-79231Y1051627D01*
X-73867Y1044637D01*
X-66877Y1039273D01*
X-58736Y1035901D01*
X-50000Y1034751D01*
X-41264Y1035901D01*
X-33123Y1039273D01*
X-26133Y1044637D01*
X-20769Y1051627D01*
X-19149Y1055539D01*
X-14149Y1054544D01*
Y982464D01*
X-19149Y981470D01*
X-20769Y985381D01*
X-26133Y992371D01*
X-33123Y997735D01*
X-41264Y1001107D01*
X-50000Y1002257D01*
X-58736Y1001107D01*
X-66877Y997735D01*
X-73867Y992371D01*
X-79231Y985381D01*
X-82603Y977240D01*
X-83753Y968504D01*
X-82603Y959768D01*
X-79231Y951627D01*
X-73867Y944637D01*
X-66877Y939273D01*
X-58736Y935901D01*
X-50000Y934751D01*
X-41264Y935901D01*
X-33123Y939273D01*
X-26133Y944637D01*
X-20769Y951627D01*
X-19149Y955538D01*
X-14149Y954544D01*
Y894926D01*
X-19149Y893229D01*
X-21809Y896695D01*
X-30066Y903031D01*
X-39681Y907014D01*
X-45000Y907714D01*
Y868504D01*
Y829294D01*
X-39681Y829994D01*
X-30066Y833977D01*
X-21809Y840313D01*
X-19149Y843779D01*
X-14149Y842082D01*
Y782464D01*
X-19149Y781470D01*
X-20769Y785381D01*
X-26133Y792371D01*
X-33123Y797735D01*
X-41264Y801107D01*
X-50000Y802257D01*
X-58736Y801107D01*
X-66877Y797735D01*
X-73867Y792371D01*
X-79231Y785381D01*
X-82603Y777240D01*
X-83753Y768504D01*
X-82603Y759768D01*
X-79231Y751627D01*
X-73867Y744637D01*
X-66877Y739273D01*
X-58736Y735901D01*
X-50000Y734751D01*
X-41264Y735901D01*
X-33123Y739273D01*
X-26133Y744637D01*
X-20769Y751627D01*
X-19149Y755538D01*
X-14149Y754544D01*
Y682464D01*
X-19149Y681470D01*
X-20769Y685381D01*
X-26133Y692371D01*
X-33123Y697735D01*
X-41264Y701107D01*
X-50000Y702257D01*
X-58736Y701107D01*
X-66877Y697735D01*
X-73867Y692371D01*
X-79231Y685381D01*
X-82603Y677240D01*
X-83753Y668504D01*
X-82603Y659768D01*
X-79231Y651627D01*
X-73867Y644637D01*
X-66877Y639273D01*
X-58736Y635901D01*
X-50000Y634751D01*
X-41264Y635901D01*
X-33123Y639273D01*
X-26133Y644637D01*
X-20769Y651627D01*
X-19149Y655538D01*
X-14149Y654544D01*
Y582464D01*
X-19149Y581470D01*
X-20769Y585381D01*
X-26133Y592371D01*
X-33123Y597735D01*
X-41264Y601107D01*
X-50000Y602257D01*
X-58736Y601107D01*
X-66877Y597735D01*
X-73867Y592371D01*
X-79231Y585381D01*
X-82603Y577240D01*
X-83753Y568504D01*
X-82603Y559768D01*
X-79231Y551627D01*
X-73867Y544637D01*
X-66877Y539273D01*
X-58736Y535901D01*
X-50000Y534751D01*
X-41264Y535901D01*
X-33123Y539273D01*
X-26133Y544637D01*
X-20769Y551627D01*
X-19149Y555538D01*
X-14149Y554544D01*
Y460000D01*
X-14149Y460000D01*
X-12997Y454209D01*
X-9716Y449299D01*
X24283Y415299D01*
X24284Y415299D01*
X29193Y412019D01*
X34984Y410867D01*
X117632D01*
X117959Y405867D01*
X116323Y405651D01*
X111795Y405055D01*
X104573Y402064D01*
X98372Y397306D01*
X93614Y391105D01*
X90623Y383883D01*
X90261Y381134D01*
X148827D01*
X148465Y383883D01*
X145474Y391105D01*
X140716Y397306D01*
X134515Y402064D01*
X127293Y405055D01*
X122765Y405651D01*
X121129Y405867D01*
X121456Y410867D01*
X144732D01*
X169867Y385732D01*
Y180985D01*
X169867Y180984D01*
X171019Y175193D01*
X174299Y170284D01*
X330413Y14169D01*
X327581Y9930D01*
X324144Y11354D01*
X321394Y11716D01*
Y-12567D01*
X345677D01*
X345315Y-9817D01*
X343892Y-6380D01*
X348130Y-3548D01*
X408284Y-63701D01*
X413193Y-66981D01*
X418984Y-68133D01*
X1723661D01*
X1723662Y-68133D01*
X1723662Y-68133D01*
X1773764D01*
X1776521Y-77223D01*
X1782371Y-88166D01*
X1790242Y-97758D01*
X1799834Y-105629D01*
X1810777Y-111479D01*
X1822651Y-115081D01*
X1835000Y-116297D01*
X1847349Y-115081D01*
X1859223Y-111479D01*
X1870166Y-105629D01*
X1879758Y-97758D01*
X1887629Y-88166D01*
X1893479Y-77223D01*
X1897081Y-65349D01*
X1898297Y-53000D01*
X1897081Y-40651D01*
X1893479Y-28777D01*
X1887629Y-17834D01*
X1879758Y-8242D01*
X1870166Y-371D01*
X1859223Y5479D01*
X1847349Y9081D01*
X1835000Y10297D01*
X1822651Y9081D01*
X1810777Y5479D01*
X1799834Y-371D01*
X1790242Y-8242D01*
X1782371Y-17834D01*
X1776521Y-28777D01*
X1773764Y-37867D01*
X1729930D01*
X1714528Y-22464D01*
Y3268D01*
X1687849D01*
X1685791Y4643D01*
X1680000Y5795D01*
X1674209Y4643D01*
X1672151Y3268D01*
X1645473D01*
Y-37867D01*
X1524990D01*
X1522778Y-33382D01*
X1523427Y-32537D01*
X1526418Y-25316D01*
X1526780Y-22567D01*
X1468214D01*
X1468576Y-25316D01*
X1471567Y-32537D01*
X1472215Y-33382D01*
X1470004Y-37867D01*
X1328139D01*
X1325928Y-33382D01*
X1326576Y-32537D01*
X1329567Y-25316D01*
X1329929Y-22567D01*
X1271363D01*
X1271725Y-25316D01*
X1274717Y-32537D01*
X1275365Y-33382D01*
X1273153Y-37867D01*
X1131289D01*
X1129078Y-33382D01*
X1129726Y-32537D01*
X1132717Y-25316D01*
X1133079Y-22567D01*
X1074513D01*
X1074875Y-25316D01*
X1077866Y-32537D01*
X1078514Y-33382D01*
X1076303Y-37867D01*
X934439D01*
X932227Y-33382D01*
X932875Y-32537D01*
X935867Y-25316D01*
X936229Y-22567D01*
X877663D01*
X878025Y-25316D01*
X881016Y-32537D01*
X881664Y-33382D01*
X879453Y-37867D01*
X737588D01*
X735377Y-33382D01*
X736025Y-32537D01*
X739016Y-25316D01*
X739378Y-22567D01*
X680812D01*
X681174Y-25316D01*
X684165Y-32537D01*
X684814Y-33382D01*
X682602Y-37867D01*
X540738D01*
X538526Y-33382D01*
X539175Y-32537D01*
X542166Y-25316D01*
X542528Y-22567D01*
X483962D01*
X484324Y-25316D01*
X487315Y-32537D01*
X487963Y-33382D01*
X485752Y-37867D01*
X425253D01*
X200133Y187253D01*
Y392000D01*
X198981Y397791D01*
X195701Y402701D01*
X195701Y402701D01*
X161701Y436701D01*
X156791Y439981D01*
X151000Y441133D01*
X151000Y441133D01*
X41253D01*
X16118Y466268D01*
Y549790D01*
X19590Y551162D01*
X21118Y551172D01*
X26133Y544637D01*
X33123Y539273D01*
X41264Y535901D01*
X50000Y534751D01*
X58736Y535901D01*
X66877Y539273D01*
X73867Y544637D01*
X79231Y551627D01*
X82603Y559768D01*
X83753Y568504D01*
X82603Y577240D01*
X79231Y585381D01*
X73867Y592371D01*
X66877Y597735D01*
X58736Y601107D01*
X50000Y602257D01*
X41264Y601107D01*
X33123Y597735D01*
X26133Y592371D01*
X21118Y585836D01*
X19590Y585846D01*
X16118Y587218D01*
Y639951D01*
X20853Y641558D01*
X21809Y640313D01*
X30066Y633977D01*
X39681Y629994D01*
X45000Y629294D01*
Y668504D01*
Y707714D01*
X39681Y707014D01*
X30066Y703031D01*
X21809Y696695D01*
X20853Y695449D01*
X16118Y697057D01*
Y749790D01*
X19590Y751162D01*
X21118Y751172D01*
X26133Y744637D01*
X33123Y739273D01*
X41264Y735901D01*
X50000Y734751D01*
X58736Y735901D01*
X66877Y739273D01*
X73867Y744637D01*
X79231Y751627D01*
X82603Y759768D01*
X83753Y768504D01*
X82603Y777240D01*
X79231Y785381D01*
X73867Y792371D01*
X66877Y797735D01*
X58736Y801107D01*
X50000Y802257D01*
X41264Y801107D01*
X33123Y797735D01*
X26133Y792371D01*
X21118Y785836D01*
X19590Y785846D01*
X16118Y787218D01*
Y849790D01*
X19590Y851162D01*
X21118Y851172D01*
X26133Y844637D01*
X33123Y839273D01*
X41264Y835901D01*
X50000Y834751D01*
X58736Y835901D01*
X66877Y839273D01*
X73867Y844637D01*
X79231Y851627D01*
X82603Y859768D01*
X83753Y868504D01*
X82603Y877240D01*
X79231Y885381D01*
X73867Y892371D01*
X66877Y897735D01*
X58736Y901107D01*
X50000Y902257D01*
X41264Y901107D01*
X33123Y897735D01*
X26133Y892371D01*
X21118Y885836D01*
X19590Y885846D01*
X16118Y887218D01*
Y949790D01*
X19590Y951162D01*
X21118Y951172D01*
X26133Y944637D01*
X33123Y939273D01*
X41264Y935901D01*
X50000Y934751D01*
X58736Y935901D01*
X66877Y939273D01*
X73867Y944637D01*
X79231Y951627D01*
X82603Y959768D01*
X83753Y968504D01*
X82603Y977240D01*
X79231Y985381D01*
X73867Y992371D01*
X66877Y997735D01*
X58736Y1001107D01*
X50000Y1002257D01*
X41264Y1001107D01*
X33123Y997735D01*
X26133Y992371D01*
X21118Y985836D01*
X19590Y985846D01*
X16118Y987218D01*
Y1049790D01*
X19590Y1051161D01*
X21118Y1051172D01*
X26133Y1044637D01*
X33123Y1039273D01*
X41264Y1035901D01*
X50000Y1034751D01*
X58736Y1035901D01*
X66877Y1039273D01*
X73867Y1044637D01*
X79231Y1051627D01*
X82603Y1059768D01*
X83753Y1068504D01*
X82603Y1077240D01*
X79231Y1085381D01*
X73867Y1092371D01*
X66877Y1097735D01*
X58736Y1101107D01*
X50000Y1102257D01*
X41264Y1101107D01*
X33123Y1097735D01*
X26133Y1092371D01*
X21118Y1085836D01*
X19590Y1085847D01*
X16118Y1087218D01*
Y1149790D01*
X19590Y1151161D01*
X21118Y1151172D01*
X26133Y1144637D01*
X33123Y1139273D01*
X41264Y1135901D01*
X50000Y1134751D01*
X58736Y1135901D01*
X65417Y1138668D01*
X140788Y1063297D01*
Y985181D01*
X141564Y981279D01*
X143774Y977971D01*
X235371Y886374D01*
X238679Y884163D01*
X242581Y883387D01*
X259519D01*
X289741Y853165D01*
X287827Y848546D01*
X275552D01*
Y815003D01*
X303189D01*
Y833184D01*
X307809Y835097D01*
X313780Y829126D01*
Y776459D01*
X369055D01*
Y815544D01*
X399947D01*
X401232Y813620D01*
X406793Y809904D01*
X413352Y808600D01*
X427132D01*
X433691Y809904D01*
X439252Y813620D01*
X442967Y819181D01*
X444272Y825740D01*
X442967Y832299D01*
X439252Y837860D01*
X438395Y838432D01*
X438404Y844440D01*
X442857Y847415D01*
X447677Y854630D01*
X448375Y858140D01*
X420241D01*
X392108D01*
X392807Y854630D01*
X397627Y847415D01*
X401494Y844831D01*
X401827Y839780D01*
X398124Y835936D01*
X369055D01*
Y843546D01*
X328199D01*
X279907Y891838D01*
X281820Y896457D01*
X303189D01*
Y930001D01*
X270551D01*
X237914D01*
Y919203D01*
X233294Y917289D01*
X161180Y989404D01*
Y1067520D01*
X160404Y1071422D01*
X158193Y1074730D01*
X79836Y1153087D01*
X82603Y1159768D01*
X83753Y1168504D01*
X82603Y1177240D01*
X79231Y1185381D01*
X73867Y1192371D01*
X66877Y1197735D01*
X58736Y1201107D01*
X50000Y1202257D01*
X41264Y1201107D01*
X33123Y1197735D01*
X26133Y1192371D01*
X21118Y1185836D01*
X19590Y1185847D01*
X16118Y1187218D01*
Y1249790D01*
X19590Y1251161D01*
X21118Y1251172D01*
X26133Y1244637D01*
X33123Y1239273D01*
X41264Y1235901D01*
X50000Y1234751D01*
X58736Y1235901D01*
X66877Y1239273D01*
X73867Y1244637D01*
X79231Y1251627D01*
X82603Y1259768D01*
X83753Y1268504D01*
X82603Y1277240D01*
X79231Y1285381D01*
X73867Y1292371D01*
X66877Y1297735D01*
X58736Y1301107D01*
X50000Y1302257D01*
X41264Y1301107D01*
X33123Y1297735D01*
X26133Y1292371D01*
X21118Y1285836D01*
X19590Y1285847D01*
X16118Y1287218D01*
Y1300740D01*
X50148Y1334770D01*
X58736Y1335901D01*
X66877Y1339273D01*
X73867Y1344637D01*
X79231Y1351627D01*
X82603Y1359768D01*
X83753Y1368504D01*
X82603Y1377240D01*
X79231Y1385381D01*
X73867Y1392371D01*
X66877Y1397735D01*
X58736Y1401107D01*
X50000Y1402257D01*
D02*
G37*
G36*
X413308Y1324038D02*
X409798Y1323340D01*
X402583Y1318519D01*
X397762Y1311304D01*
X396070Y1302794D01*
Y1291062D01*
X413308D01*
Y1324038D01*
D02*
G37*
G36*
X641337Y1336527D02*
X611732D01*
Y1302000D01*
X641337D01*
Y1336527D01*
D02*
G37*
G36*
X423308Y1324038D02*
Y1291062D01*
X440546D01*
Y1302794D01*
X438853Y1311304D01*
X434033Y1318519D01*
X426818Y1323340D01*
X423308Y1324038D01*
D02*
G37*
G36*
X323308D02*
Y1291062D01*
X340546D01*
Y1302794D01*
X338853Y1311304D01*
X334033Y1318519D01*
X326818Y1323340D01*
X323308Y1324038D01*
D02*
G37*
G36*
X440546Y1281062D02*
X423308D01*
Y1248086D01*
X426818Y1248784D01*
X434033Y1253605D01*
X438853Y1260820D01*
X440546Y1269330D01*
Y1281062D01*
D02*
G37*
G36*
X340546D02*
X323308D01*
Y1248086D01*
X326818Y1248784D01*
X334033Y1253605D01*
X338853Y1260820D01*
X340546Y1269330D01*
Y1281062D01*
D02*
G37*
G36*
X413308D02*
X396070D01*
Y1269330D01*
X397762Y1260820D01*
X402583Y1253605D01*
X409798Y1248784D01*
X413308Y1248086D01*
Y1281062D01*
D02*
G37*
G36*
X641337Y1292000D02*
X611732D01*
Y1257473D01*
X641337D01*
Y1292000D01*
D02*
G37*
G36*
X1488463Y1302197D02*
X1472401D01*
Y1281214D01*
X1476280D01*
X1480942Y1282141D01*
X1484895Y1284782D01*
X1487535Y1288735D01*
X1488463Y1293397D01*
Y1302197D01*
D02*
G37*
G36*
X1315944Y1431527D02*
X1256732D01*
Y1362473D01*
X1304959D01*
X1305944Y1362277D01*
X1328020D01*
X1376635Y1313661D01*
Y1293397D01*
X1377175Y1290686D01*
X1378710Y1288387D01*
X1381009Y1286851D01*
X1383720Y1286312D01*
X1401476D01*
X1404187Y1286851D01*
X1405143Y1287490D01*
X1407339Y1288069D01*
X1411299Y1286591D01*
X1412507Y1284782D01*
X1416460Y1282141D01*
X1421122Y1281214D01*
X1425000D01*
Y1307197D01*
Y1333178D01*
X1421122D01*
X1416460Y1332251D01*
X1412507Y1329610D01*
X1411299Y1327801D01*
X1407339Y1326323D01*
X1405143Y1326902D01*
X1404187Y1327541D01*
X1402794Y1327818D01*
Y1363984D01*
X1403816Y1364118D01*
X1411114Y1367141D01*
X1417381Y1371950D01*
X1422190Y1378217D01*
X1425213Y1385514D01*
X1426244Y1393346D01*
X1425213Y1401178D01*
X1422190Y1408475D01*
X1417381Y1414742D01*
X1411114Y1419551D01*
X1403816Y1422574D01*
X1395985Y1423605D01*
X1388153Y1422574D01*
X1380855Y1419551D01*
X1374588Y1414742D01*
X1369780Y1408475D01*
X1366757Y1401178D01*
X1365726Y1393346D01*
X1366757Y1385514D01*
X1369780Y1378217D01*
X1374588Y1371950D01*
X1380855Y1367141D01*
X1382402Y1366500D01*
Y1343265D01*
X1377783Y1341352D01*
X1339452Y1379682D01*
X1336145Y1381892D01*
X1332243Y1382668D01*
X1315944D01*
Y1431527D01*
D02*
G37*
G36*
X680944Y1292000D02*
X651337D01*
Y1257473D01*
X680944D01*
Y1292000D01*
D02*
G37*
G36*
X388308Y1388346D02*
X322284D01*
Y1382351D01*
X321079Y1379441D01*
X320717Y1376692D01*
X350000D01*
Y1366692D01*
X320717D01*
X321079Y1363943D01*
X322284Y1361033D01*
Y1336102D01*
X388308D01*
Y1388346D01*
D02*
G37*
G36*
X2175984Y1402257D02*
X2167248Y1401107D01*
X2159107Y1397735D01*
X2152117Y1392371D01*
X2146753Y1385381D01*
X2143381Y1377240D01*
X2142231Y1368504D01*
X2143381Y1359768D01*
X2146753Y1351627D01*
X2152117Y1344637D01*
X2159107Y1339273D01*
X2167248Y1335901D01*
X2175984Y1334751D01*
X2184720Y1335901D01*
X2192861Y1339273D01*
X2199851Y1344637D01*
X2205215Y1351627D01*
X2208587Y1359768D01*
X2209737Y1368504D01*
X2208587Y1377240D01*
X2205215Y1385381D01*
X2199851Y1392371D01*
X2192861Y1397735D01*
X2184720Y1401107D01*
X2175984Y1402257D01*
D02*
G37*
G36*
X2075984D02*
X2067248Y1401107D01*
X2059107Y1397735D01*
X2052117Y1392371D01*
X2046753Y1385381D01*
X2043381Y1377240D01*
X2042231Y1368504D01*
X2043381Y1359768D01*
X2046753Y1351627D01*
X2052117Y1344637D01*
X2059107Y1339273D01*
X2067248Y1335901D01*
X2075984Y1334751D01*
X2084720Y1335901D01*
X2092861Y1339273D01*
X2099851Y1344637D01*
X2105215Y1351627D01*
X2108587Y1359768D01*
X2109737Y1368504D01*
X2108587Y1377240D01*
X2105215Y1385381D01*
X2099851Y1392371D01*
X2092861Y1397735D01*
X2084720Y1401107D01*
X2075984Y1402257D01*
D02*
G37*
G36*
X464332Y1388346D02*
X398308D01*
Y1336102D01*
X464332D01*
Y1361037D01*
X465535Y1363943D01*
X465897Y1366692D01*
X436614D01*
Y1376692D01*
X465897D01*
X465535Y1379441D01*
X464332Y1382347D01*
Y1388346D01*
D02*
G37*
G36*
X813520Y1389669D02*
Y1365386D01*
X837803D01*
X837441Y1368135D01*
X834450Y1375357D01*
X829692Y1381558D01*
X823491Y1386316D01*
X816270Y1389307D01*
X813520Y1389669D01*
D02*
G37*
G36*
X803520D02*
X800771Y1389307D01*
X793550Y1386316D01*
X787349Y1381558D01*
X782591Y1375357D01*
X779599Y1368135D01*
X779237Y1365386D01*
X803520D01*
Y1389669D01*
D02*
G37*
G36*
X83465Y2001968D02*
X16535D01*
Y1935040D01*
X83465D01*
Y1944867D01*
X369007D01*
X375081Y1938793D01*
X373168Y1934173D01*
X367874D01*
Y1900630D01*
X395512D01*
Y1911829D01*
X400131Y1913743D01*
X406102Y1907772D01*
Y1862087D01*
X418607D01*
Y1816338D01*
X390434D01*
Y1680354D01*
X479174D01*
Y1704867D01*
X500423D01*
X502203Y1702203D01*
X510368Y1696747D01*
X520000Y1694831D01*
X529632Y1696747D01*
X537797Y1702203D01*
X539577Y1704867D01*
X634519D01*
X637307Y1702080D01*
Y1541527D01*
X616732D01*
Y1472473D01*
X627190D01*
Y1436889D01*
X610670D01*
Y1369803D01*
X651527D01*
X679802Y1341527D01*
X677731Y1336528D01*
X677625Y1336527D01*
X677625Y1336528D01*
X677276Y1336527D01*
X651337D01*
Y1302000D01*
X680944D01*
X680944Y1332860D01*
Y1333208D01*
D01*
X680944Y1333314D01*
X681494Y1333542D01*
X685944Y1335385D01*
X760789Y1260541D01*
Y813057D01*
X710165Y762433D01*
X669308D01*
Y681567D01*
X687402D01*
Y662878D01*
X685061Y662412D01*
X682742Y660864D01*
X681194Y658545D01*
X680650Y655811D01*
Y655196D01*
X638860D01*
X633782Y662797D01*
X625616Y668253D01*
X615985Y670168D01*
X606353Y668253D01*
X598188Y662797D01*
X592732Y654631D01*
X590816Y645000D01*
X592732Y635368D01*
X598188Y627203D01*
X606353Y621747D01*
X615985Y619831D01*
X625616Y621747D01*
X633782Y627203D01*
X638860Y634804D01*
X680650D01*
Y620457D01*
X681194Y617723D01*
X682742Y615404D01*
X685061Y613856D01*
X687795Y613312D01*
X700127D01*
X700361Y613078D01*
X700895Y610391D01*
X703105Y607083D01*
X711823Y598365D01*
X715131Y596155D01*
X719033Y595379D01*
X750967D01*
X754869Y596155D01*
X758177Y598365D01*
X772801Y612989D01*
X773016Y613312D01*
X782205D01*
X784939Y613856D01*
X787258Y615404D01*
X788806Y617723D01*
X789350Y620457D01*
Y655811D01*
X788806Y658545D01*
X787258Y660864D01*
X784939Y662412D01*
X782205Y662956D01*
X762599D01*
X759865Y662412D01*
X754054Y663737D01*
X753820Y663929D01*
X753460Y664468D01*
X749488Y667122D01*
X744803Y668054D01*
X740000D01*
Y638134D01*
X730000D01*
Y668054D01*
X725197D01*
X720512Y667122D01*
X716540Y664468D01*
X711468Y663919D01*
X707794Y666415D01*
Y681567D01*
X724584D01*
Y748014D01*
X778194Y801624D01*
X780404Y804932D01*
X781181Y808834D01*
Y1264764D01*
X780404Y1268666D01*
X778194Y1271974D01*
X665946Y1384222D01*
Y1436889D01*
X657456D01*
Y1472473D01*
X675944D01*
Y1541527D01*
X667573D01*
Y1708348D01*
X666421Y1714139D01*
X663141Y1719049D01*
X663141Y1719049D01*
X651489Y1730701D01*
X646579Y1733981D01*
X640788Y1735133D01*
X640788Y1735133D01*
X539577D01*
X537797Y1737797D01*
X529632Y1743253D01*
X520000Y1745169D01*
X510368Y1743253D01*
X502203Y1737797D01*
X500423Y1735133D01*
X479174D01*
Y1816338D01*
X448873D01*
Y1862087D01*
X461378D01*
Y1929173D01*
X427504D01*
X385976Y1970701D01*
X381067Y1973981D01*
X375276Y1975133D01*
X375275Y1975133D01*
X83465D01*
Y2001968D01*
D02*
G37*
G36*
X803520Y1355386D02*
X779237D01*
X779599Y1352637D01*
X782591Y1345415D01*
X787349Y1339214D01*
X793550Y1334456D01*
X800771Y1331465D01*
X803520Y1331103D01*
Y1355386D01*
D02*
G37*
G36*
X1462401Y1333178D02*
X1458524D01*
X1453862Y1332251D01*
X1452396Y1331271D01*
X1448701Y1330019D01*
X1445006Y1331271D01*
X1443540Y1332251D01*
X1438878Y1333178D01*
X1435000D01*
Y1307197D01*
Y1281214D01*
X1438878D01*
X1443540Y1282141D01*
X1445006Y1283121D01*
X1448701Y1284373D01*
X1452396Y1283121D01*
X1453862Y1282141D01*
X1458524Y1281214D01*
X1462401D01*
Y1307197D01*
Y1333178D01*
D02*
G37*
G36*
X1476280D02*
X1472401D01*
Y1312197D01*
X1488463D01*
Y1320995D01*
X1487535Y1325657D01*
X1484895Y1329610D01*
X1480942Y1332251D01*
X1476280Y1333178D01*
D02*
G37*
G36*
X837803Y1355386D02*
X813520D01*
Y1331103D01*
X816270Y1331465D01*
X823491Y1334456D01*
X829692Y1339214D01*
X834450Y1345415D01*
X837441Y1352637D01*
X837803Y1355386D01*
D02*
G37*
G36*
X-50000Y1402257D02*
X-58736Y1401107D01*
X-66877Y1397735D01*
X-73867Y1392371D01*
X-79231Y1385381D01*
X-82603Y1377240D01*
X-83753Y1368504D01*
X-82603Y1359768D01*
X-79231Y1351627D01*
X-73867Y1344637D01*
X-66877Y1339273D01*
X-58736Y1335901D01*
X-50000Y1334751D01*
X-41264Y1335901D01*
X-33123Y1339273D01*
X-26133Y1344637D01*
X-20769Y1351627D01*
X-17397Y1359768D01*
X-16247Y1368504D01*
X-17397Y1377240D01*
X-20769Y1385381D01*
X-26133Y1392371D01*
X-33123Y1397735D01*
X-41264Y1401107D01*
X-50000Y1402257D01*
D02*
G37*
G36*
X1822055Y1355386D02*
X1797772D01*
Y1331103D01*
X1800522Y1331465D01*
X1807743Y1334456D01*
X1813944Y1339214D01*
X1818702Y1345415D01*
X1821693Y1352637D01*
X1822055Y1355386D01*
D02*
G37*
G36*
X1787772D02*
X1763489D01*
X1763851Y1352637D01*
X1766843Y1345415D01*
X1771601Y1339214D01*
X1777802Y1334456D01*
X1785023Y1331465D01*
X1787772Y1331103D01*
Y1355386D01*
D02*
G37*
G36*
X1590922Y1749087D02*
X1566639D01*
X1567001Y1746337D01*
X1569992Y1739116D01*
X1574750Y1732915D01*
X1580951Y1728157D01*
X1588173Y1725166D01*
X1590922Y1724804D01*
Y1749087D01*
D02*
G37*
G36*
X1428355D02*
X1404072D01*
Y1724804D01*
X1406821Y1725166D01*
X1414042Y1728157D01*
X1420243Y1732915D01*
X1425001Y1739116D01*
X1427993Y1746337D01*
X1428355Y1749087D01*
D02*
G37*
G36*
X1394072D02*
X1369789D01*
X1370151Y1746337D01*
X1373142Y1739116D01*
X1377900Y1732915D01*
X1384101Y1728157D01*
X1391322Y1725166D01*
X1394072Y1724804D01*
Y1749087D01*
D02*
G37*
G36*
X1625205D02*
X1600922D01*
Y1724804D01*
X1603671Y1725166D01*
X1610893Y1728157D01*
X1617094Y1732915D01*
X1621852Y1739116D01*
X1624843Y1746337D01*
X1625205Y1749087D01*
D02*
G37*
G36*
X-50000Y1802257D02*
X-58736Y1801107D01*
X-66877Y1797735D01*
X-73867Y1792371D01*
X-79231Y1785381D01*
X-82603Y1777240D01*
X-83753Y1768504D01*
X-82603Y1759768D01*
X-79231Y1751627D01*
X-73867Y1744637D01*
X-66877Y1739273D01*
X-58736Y1735901D01*
X-50000Y1734751D01*
X-41264Y1735901D01*
X-33123Y1739273D01*
X-26133Y1744637D01*
X-20769Y1751627D01*
X-17397Y1759768D01*
X-16247Y1768504D01*
X-17397Y1777240D01*
X-20769Y1785381D01*
X-26133Y1792371D01*
X-33123Y1797735D01*
X-41264Y1801107D01*
X-50000Y1802257D01*
D02*
G37*
G36*
X1822055Y1749087D02*
X1797772D01*
Y1724804D01*
X1800522Y1725166D01*
X1807743Y1728157D01*
X1813944Y1732915D01*
X1818702Y1739116D01*
X1821693Y1746337D01*
X1822055Y1749087D01*
D02*
G37*
G36*
X1787772D02*
X1763489D01*
X1763851Y1746337D01*
X1766843Y1739116D01*
X1771601Y1732915D01*
X1777802Y1728157D01*
X1785023Y1725166D01*
X1787772Y1724804D01*
Y1749087D01*
D02*
G37*
G36*
X1231504D02*
X1207221D01*
Y1724804D01*
X1209971Y1725166D01*
X1217192Y1728157D01*
X1223393Y1732915D01*
X1228151Y1739116D01*
X1231142Y1746337D01*
X1231504Y1749087D01*
D02*
G37*
G36*
X803520D02*
X779237D01*
X779599Y1746337D01*
X782591Y1739116D01*
X787349Y1732915D01*
X793550Y1728157D01*
X800771Y1725166D01*
X803520Y1724804D01*
Y1749087D01*
D02*
G37*
G36*
X2175984Y1702257D02*
X2167248Y1701107D01*
X2159107Y1697735D01*
X2152117Y1692371D01*
X2146753Y1685381D01*
X2143381Y1677240D01*
X2142231Y1668504D01*
X2143381Y1659768D01*
X2146753Y1651627D01*
X2152117Y1644637D01*
X2159107Y1639273D01*
X2167248Y1635901D01*
X2175984Y1634751D01*
X2184720Y1635901D01*
X2192861Y1639273D01*
X2199851Y1644637D01*
X2205215Y1651627D01*
X2208587Y1659768D01*
X2209737Y1668504D01*
X2208587Y1677240D01*
X2205215Y1685381D01*
X2199851Y1692371D01*
X2192861Y1697735D01*
X2184720Y1701107D01*
X2175984Y1702257D01*
D02*
G37*
G36*
X2075984D02*
X2067248Y1701107D01*
X2059107Y1697735D01*
X2052117Y1692371D01*
X2046753Y1685381D01*
X2043381Y1677240D01*
X2042231Y1668504D01*
X2043381Y1659768D01*
X2046753Y1651627D01*
X2052117Y1644637D01*
X2059107Y1639273D01*
X2067248Y1635901D01*
X2075984Y1634751D01*
X2084720Y1635901D01*
X2092861Y1639273D01*
X2099851Y1644637D01*
X2105215Y1651627D01*
X2108587Y1659768D01*
X2109737Y1668504D01*
X2108587Y1677240D01*
X2105215Y1685381D01*
X2099851Y1692371D01*
X2092861Y1697735D01*
X2084720Y1701107D01*
X2075984Y1702257D01*
D02*
G37*
G36*
X837803Y1749087D02*
X813520D01*
Y1724804D01*
X816270Y1725166D01*
X823491Y1728157D01*
X829692Y1732915D01*
X834450Y1739116D01*
X837441Y1746337D01*
X837803Y1749087D01*
D02*
G37*
G36*
X1197221D02*
X1172938D01*
X1173300Y1746337D01*
X1176291Y1739116D01*
X1181050Y1732915D01*
X1187251Y1728157D01*
X1194472Y1725166D01*
X1197221Y1724804D01*
Y1749087D01*
D02*
G37*
G36*
X1034654D02*
X1010371D01*
Y1724804D01*
X1013120Y1725166D01*
X1020341Y1728157D01*
X1026542Y1732915D01*
X1031301Y1739116D01*
X1034292Y1746337D01*
X1034654Y1749087D01*
D02*
G37*
G36*
X1000371D02*
X976088D01*
X976450Y1746337D01*
X979441Y1739116D01*
X984199Y1732915D01*
X990400Y1728157D01*
X997621Y1725166D01*
X1000371Y1724804D01*
Y1749087D01*
D02*
G37*
G36*
X1600922Y1783370D02*
Y1759087D01*
X1625205D01*
X1624843Y1761836D01*
X1621852Y1769057D01*
X1617094Y1775258D01*
X1610893Y1780017D01*
X1603671Y1783008D01*
X1600922Y1783370D01*
D02*
G37*
G36*
X1590922D02*
X1588173Y1783008D01*
X1580951Y1780017D01*
X1574750Y1775258D01*
X1569992Y1769057D01*
X1567001Y1761836D01*
X1566639Y1759087D01*
X1590922D01*
Y1783370D01*
D02*
G37*
G36*
X1404072D02*
Y1759087D01*
X1428355D01*
X1427993Y1761836D01*
X1425001Y1769057D01*
X1420243Y1775258D01*
X1414042Y1780017D01*
X1406821Y1783008D01*
X1404072Y1783370D01*
D02*
G37*
G36*
X1787772D02*
X1785023Y1783008D01*
X1777802Y1780017D01*
X1771601Y1775258D01*
X1766843Y1769057D01*
X1763851Y1761836D01*
X1763489Y1759087D01*
X1787772D01*
Y1783370D01*
D02*
G37*
G36*
X1108897Y1842000D02*
X1045000D01*
Y1778103D01*
X1053537Y1778944D01*
X1066554Y1782893D01*
X1078551Y1789305D01*
X1089066Y1797934D01*
X1097695Y1808449D01*
X1104107Y1820446D01*
X1108056Y1833463D01*
X1108897Y1842000D01*
D02*
G37*
G36*
X1035000D02*
X971103D01*
X971944Y1833463D01*
X975893Y1820446D01*
X982305Y1808449D01*
X990934Y1797934D01*
X1001449Y1789305D01*
X1002575Y1788703D01*
X1001635Y1783536D01*
X997621Y1783008D01*
X990400Y1780017D01*
X984199Y1775258D01*
X979441Y1769057D01*
X976450Y1761836D01*
X976088Y1759087D01*
X1034654D01*
X1034292Y1761836D01*
X1031301Y1769057D01*
X1027660Y1773802D01*
X1030001Y1778596D01*
X1035000Y1778103D01*
Y1842000D01*
D02*
G37*
G36*
X1797772Y1783370D02*
Y1759087D01*
X1822055D01*
X1821693Y1761836D01*
X1818702Y1769057D01*
X1813944Y1775258D01*
X1807743Y1780017D01*
X1800522Y1783008D01*
X1797772Y1783370D01*
D02*
G37*
G36*
X1394072D02*
X1391322Y1783008D01*
X1384101Y1780017D01*
X1377900Y1775258D01*
X1373142Y1769057D01*
X1370151Y1761836D01*
X1369789Y1759087D01*
X1394072D01*
Y1783370D01*
D02*
G37*
G36*
X2175984Y1802257D02*
X2167248Y1801107D01*
X2159107Y1797735D01*
X2152117Y1792371D01*
X2146753Y1785381D01*
X2143381Y1777240D01*
X2142231Y1768504D01*
X2143381Y1759768D01*
X2146753Y1751627D01*
X2152117Y1744637D01*
X2159107Y1739273D01*
X2167248Y1735901D01*
X2175984Y1734751D01*
X2184720Y1735901D01*
X2192861Y1739273D01*
X2199851Y1744637D01*
X2205215Y1751627D01*
X2208587Y1759768D01*
X2209737Y1768504D01*
X2208587Y1777240D01*
X2205215Y1785381D01*
X2199851Y1792371D01*
X2192861Y1797735D01*
X2184720Y1801107D01*
X2175984Y1802257D01*
D02*
G37*
G36*
X2075984D02*
X2067248Y1801107D01*
X2059107Y1797735D01*
X2052117Y1792371D01*
X2046753Y1785381D01*
X2043381Y1777240D01*
X2042231Y1768504D01*
X2043381Y1759768D01*
X2046753Y1751627D01*
X2052117Y1744637D01*
X2059107Y1739273D01*
X2067248Y1735901D01*
X2075984Y1734751D01*
X2084720Y1735901D01*
X2092861Y1739273D01*
X2099851Y1744637D01*
X2105215Y1751627D01*
X2108587Y1759768D01*
X2109737Y1768504D01*
X2108587Y1777240D01*
X2105215Y1785381D01*
X2099851Y1792371D01*
X2092861Y1797735D01*
X2084720Y1801107D01*
X2075984Y1802257D01*
D02*
G37*
G36*
X50000D02*
X41264Y1801107D01*
X33123Y1797735D01*
X26133Y1792371D01*
X20769Y1785381D01*
X17397Y1777240D01*
X16247Y1768504D01*
X17397Y1759768D01*
X20769Y1751627D01*
X26133Y1744637D01*
X33123Y1739273D01*
X41264Y1735901D01*
X50000Y1734751D01*
X58736Y1735901D01*
X66877Y1739273D01*
X73867Y1744637D01*
X79231Y1751627D01*
X82603Y1759768D01*
X83753Y1768504D01*
X82603Y1777240D01*
X79231Y1785381D01*
X73867Y1792371D01*
X66877Y1797735D01*
X58736Y1801107D01*
X50000Y1802257D01*
D02*
G37*
G36*
X803520Y1783370D02*
X800771Y1783008D01*
X793550Y1780017D01*
X787349Y1775258D01*
X782591Y1769057D01*
X779599Y1761836D01*
X779237Y1759087D01*
X803520D01*
Y1783370D01*
D02*
G37*
G36*
X1207221D02*
Y1759087D01*
X1231504D01*
X1231142Y1761836D01*
X1228151Y1769057D01*
X1223393Y1775258D01*
X1217192Y1780017D01*
X1209971Y1783008D01*
X1207221Y1783370D01*
D02*
G37*
G36*
X1197221D02*
X1194472Y1783008D01*
X1187251Y1780017D01*
X1181050Y1775258D01*
X1176291Y1769057D01*
X1173300Y1761836D01*
X1172938Y1759087D01*
X1197221D01*
Y1783370D01*
D02*
G37*
G36*
X813520D02*
Y1759087D01*
X837803D01*
X837441Y1761836D01*
X834450Y1769057D01*
X829692Y1775258D01*
X823491Y1780017D01*
X816270Y1783008D01*
X813520Y1783370D01*
D02*
G37*
G36*
X705095Y1586519D02*
X702346Y1586157D01*
X695125Y1583166D01*
X688924Y1578408D01*
X684165Y1572207D01*
X681174Y1564986D01*
X680812Y1562236D01*
X705095D01*
Y1586519D01*
D02*
G37*
G36*
X715095D02*
Y1562236D01*
X739378D01*
X739016Y1564986D01*
X736025Y1572207D01*
X731267Y1578408D01*
X725066Y1583166D01*
X717845Y1586157D01*
X715095Y1586519D01*
D02*
G37*
G36*
X114544D02*
X111795Y1586157D01*
X104573Y1583166D01*
X98372Y1578408D01*
X93614Y1572207D01*
X90623Y1564986D01*
X90261Y1562236D01*
X114544D01*
Y1586519D01*
D02*
G37*
G36*
X124544D02*
Y1562236D01*
X148827D01*
X148465Y1564986D01*
X145474Y1572207D01*
X140716Y1578408D01*
X134515Y1583166D01*
X127293Y1586157D01*
X124544Y1586519D01*
D02*
G37*
G36*
X901946D02*
X899196Y1586157D01*
X891975Y1583166D01*
X885774Y1578408D01*
X881016Y1572207D01*
X878025Y1564986D01*
X877663Y1562236D01*
X901946D01*
Y1586519D01*
D02*
G37*
G36*
X1305646D02*
Y1562236D01*
X1329929D01*
X1329567Y1564986D01*
X1326576Y1572207D01*
X1321818Y1578408D01*
X1315617Y1583166D01*
X1308396Y1586157D01*
X1305646Y1586519D01*
D02*
G37*
G36*
X1492497D02*
X1489747Y1586157D01*
X1482526Y1583166D01*
X1476325Y1578408D01*
X1471567Y1572207D01*
X1468576Y1564986D01*
X1468214Y1562236D01*
X1492497D01*
Y1586519D01*
D02*
G37*
G36*
X911946D02*
Y1562236D01*
X936229D01*
X935867Y1564986D01*
X932875Y1572207D01*
X928117Y1578408D01*
X921916Y1583166D01*
X914695Y1586157D01*
X911946Y1586519D01*
D02*
G37*
G36*
X1295646D02*
X1292897Y1586157D01*
X1285676Y1583166D01*
X1279475Y1578408D01*
X1274717Y1572207D01*
X1271725Y1564986D01*
X1271363Y1562236D01*
X1295646D01*
Y1586519D01*
D02*
G37*
G36*
X50000Y1602257D02*
X41264Y1601107D01*
X33123Y1597735D01*
X26133Y1592371D01*
X20769Y1585381D01*
X17397Y1577240D01*
X16247Y1568504D01*
X17397Y1559768D01*
X20769Y1551627D01*
X26133Y1544637D01*
X33123Y1539273D01*
X41264Y1535901D01*
X50000Y1534751D01*
X58736Y1535901D01*
X66877Y1539273D01*
X73867Y1544637D01*
X79231Y1551627D01*
X82603Y1559768D01*
X83753Y1568504D01*
X82603Y1577240D01*
X79231Y1585381D01*
X73867Y1592371D01*
X66877Y1597735D01*
X58736Y1601107D01*
X50000Y1602257D01*
D02*
G37*
G36*
X2075984D02*
X2067248Y1601107D01*
X2059107Y1597735D01*
X2052117Y1592371D01*
X2046753Y1585381D01*
X2043381Y1577240D01*
X2042231Y1568504D01*
X2043381Y1559768D01*
X2046753Y1551627D01*
X2052117Y1544637D01*
X2059107Y1539273D01*
X2067248Y1535901D01*
X2075984Y1534751D01*
X2084720Y1535901D01*
X2092861Y1539273D01*
X2099851Y1544637D01*
X2105215Y1551627D01*
X2108587Y1559768D01*
X2109737Y1568504D01*
X2108587Y1577240D01*
X2105215Y1585381D01*
X2099851Y1592371D01*
X2092861Y1597735D01*
X2084720Y1601107D01*
X2075984Y1602257D01*
D02*
G37*
G36*
X1920481Y1552236D02*
X1896198D01*
Y1527953D01*
X1898947Y1528315D01*
X1906168Y1531307D01*
X1912369Y1536065D01*
X1917127Y1542266D01*
X1920119Y1549487D01*
X1920481Y1552236D01*
D02*
G37*
G36*
X-50000Y1602257D02*
X-58736Y1601107D01*
X-66877Y1597735D01*
X-73867Y1592371D01*
X-79231Y1585381D01*
X-82603Y1577240D01*
X-83753Y1568504D01*
X-82603Y1559768D01*
X-79231Y1551627D01*
X-73867Y1544637D01*
X-66877Y1539273D01*
X-58736Y1535901D01*
X-50000Y1534751D01*
X-41264Y1535901D01*
X-33123Y1539273D01*
X-26133Y1544637D01*
X-20769Y1551627D01*
X-17397Y1559768D01*
X-16247Y1568504D01*
X-17397Y1577240D01*
X-20769Y1585381D01*
X-26133Y1592371D01*
X-33123Y1597735D01*
X-41264Y1601107D01*
X-50000Y1602257D01*
D02*
G37*
G36*
X2175984D02*
X2167248Y1601107D01*
X2159107Y1597735D01*
X2152117Y1592371D01*
X2146753Y1585381D01*
X2143381Y1577240D01*
X2142231Y1568504D01*
X2143381Y1559768D01*
X2146753Y1551627D01*
X2152117Y1544637D01*
X2159107Y1539273D01*
X2167248Y1535901D01*
X2175984Y1534751D01*
X2184720Y1535901D01*
X2192861Y1539273D01*
X2199851Y1544637D01*
X2205215Y1551627D01*
X2208587Y1559768D01*
X2209737Y1568504D01*
X2208587Y1577240D01*
X2205215Y1585381D01*
X2199851Y1592371D01*
X2192861Y1597735D01*
X2184720Y1601107D01*
X2175984Y1602257D01*
D02*
G37*
G36*
X1035000Y1615897D02*
X1026463Y1615056D01*
X1013446Y1611107D01*
X1001449Y1604695D01*
X990934Y1596066D01*
X982305Y1585551D01*
X975893Y1573554D01*
X971944Y1560537D01*
X971103Y1552000D01*
X1035000D01*
Y1615897D01*
D02*
G37*
G36*
X1045000D02*
Y1552000D01*
X1108897D01*
X1108056Y1560537D01*
X1104107Y1573554D01*
X1097695Y1585551D01*
X1089066Y1596066D01*
X1078551Y1604695D01*
X1066554Y1611107D01*
X1053537Y1615056D01*
X1045000Y1615897D01*
D02*
G37*
G36*
X1665000Y1572944D02*
X1630473D01*
Y1543338D01*
X1665000D01*
Y1572944D01*
D02*
G37*
G36*
X1709527D02*
X1675000D01*
Y1543338D01*
X1709527D01*
Y1572944D01*
D02*
G37*
G36*
X50000Y1702257D02*
X41264Y1701107D01*
X33123Y1697735D01*
X26133Y1692371D01*
X20769Y1685381D01*
X17397Y1677240D01*
X16247Y1668504D01*
X17397Y1659768D01*
X20769Y1651627D01*
X26133Y1644637D01*
X33123Y1639273D01*
X41264Y1635901D01*
X50000Y1634751D01*
X58736Y1635901D01*
X66877Y1639273D01*
X73867Y1644637D01*
X79231Y1651627D01*
X82603Y1659768D01*
X83753Y1668504D01*
X82603Y1677240D01*
X79231Y1685381D01*
X73867Y1692371D01*
X66877Y1697735D01*
X58736Y1701107D01*
X50000Y1702257D01*
D02*
G37*
G36*
X616723Y1598348D02*
X592440D01*
Y1574065D01*
X595189Y1574427D01*
X602411Y1577418D01*
X608612Y1582176D01*
X613370Y1588377D01*
X616361Y1595599D01*
X616723Y1598348D01*
D02*
G37*
G36*
X497560Y1634716D02*
X476812D01*
Y1612000D01*
X497560D01*
Y1634716D01*
D02*
G37*
G36*
X-50000Y1702257D02*
X-58736Y1701107D01*
X-66877Y1697735D01*
X-73867Y1692371D01*
X-79231Y1685381D01*
X-82603Y1677240D01*
X-83753Y1668504D01*
X-82603Y1659768D01*
X-79231Y1651627D01*
X-73867Y1644637D01*
X-66877Y1639273D01*
X-58736Y1635901D01*
X-50000Y1634751D01*
X-41264Y1635901D01*
X-33123Y1639273D01*
X-26133Y1644637D01*
X-20769Y1651627D01*
X-17397Y1659768D01*
X-16247Y1668504D01*
X-17397Y1677240D01*
X-20769Y1685381D01*
X-26133Y1692371D01*
X-33123Y1697735D01*
X-41264Y1701107D01*
X-50000Y1702257D01*
D02*
G37*
G36*
X528308Y1634716D02*
X507560D01*
Y1607000D01*
X502560D01*
Y1602000D01*
X476812D01*
Y1579284D01*
X486443D01*
X488908Y1574284D01*
X487315Y1572207D01*
X484324Y1564986D01*
X483962Y1562236D01*
X542528D01*
X542166Y1564986D01*
X539175Y1572207D01*
X534416Y1578408D01*
X528308Y1583095D01*
Y1593152D01*
X559532D01*
X561510Y1588377D01*
X566268Y1582176D01*
X572469Y1577418D01*
X579691Y1574427D01*
X582440Y1574065D01*
Y1603348D01*
Y1632631D01*
X579691Y1632269D01*
X572469Y1629278D01*
X566268Y1624520D01*
X561510Y1618319D01*
X559532Y1613544D01*
X528308D01*
Y1634716D01*
D02*
G37*
G36*
X592440Y1632631D02*
Y1608348D01*
X616723D01*
X616361Y1611097D01*
X613370Y1618319D01*
X608612Y1624520D01*
X602411Y1629278D01*
X595189Y1632269D01*
X592440Y1632631D01*
D02*
G37*
G36*
X1502497Y1586519D02*
Y1562236D01*
X1526780D01*
X1526418Y1564986D01*
X1523427Y1572207D01*
X1518668Y1578408D01*
X1512467Y1583166D01*
X1505246Y1586157D01*
X1502497Y1586519D01*
D02*
G37*
G36*
X1886198D02*
X1883448Y1586157D01*
X1876227Y1583166D01*
X1870026Y1578408D01*
X1865268Y1572207D01*
X1862277Y1564986D01*
X1861915Y1562236D01*
X1886198D01*
Y1586519D01*
D02*
G37*
G36*
X1896198D02*
Y1562236D01*
X1920481D01*
X1920119Y1564986D01*
X1917127Y1572207D01*
X1912369Y1578408D01*
X1906168Y1583166D01*
X1898947Y1586157D01*
X1896198Y1586519D01*
D02*
G37*
%LPD*%
G36*
X1565000Y2288000D02*
X1023427Y2288000D01*
X1023426Y2362000D01*
X1565000Y2362000D01*
Y2288000D01*
D02*
G37*
G36*
X1846000Y2331000D02*
X1846000Y2245000D01*
X1666000Y2245000D01*
X1666000Y2331000D01*
X1846000Y2331000D01*
D02*
G37*
G36*
X1615000Y2277000D02*
X1615000Y2157000D01*
X1380000D01*
Y2277000D01*
X1615000Y2277000D01*
D02*
G37*
G36*
X1930000Y2367000D02*
X1930000Y2357000D01*
X1846000D01*
Y2337000D01*
X1661665D01*
Y2356073D01*
X1660739Y2357000D01*
X1660738Y2416062D01*
X1620130Y2416062D01*
X1620130Y2357000D01*
X1580000Y2357000D01*
Y2375000D01*
X1335000D01*
Y2462000D01*
X1930000D01*
Y2367000D01*
D02*
G37*
G36*
X289804Y2376407D02*
Y2262778D01*
X288149Y2258464D01*
X254527D01*
X254527Y2258464D01*
Y2258464D01*
X254527Y2258464D01*
X250196Y2260079D01*
Y2395078D01*
X249420Y2398980D01*
X247210Y2402288D01*
X231579Y2417918D01*
X228272Y2420128D01*
X224370Y2420904D01*
X212381D01*
X210035Y2425496D01*
X212268Y2428190D01*
X238021D01*
X289804Y2376407D01*
D02*
G37*
G36*
X282985Y2212000D02*
X176985D01*
Y2253000D01*
X282985D01*
Y2212000D01*
D02*
G37*
G36*
X229804Y2390855D02*
Y2258412D01*
X205473D01*
Y2258464D01*
X171851D01*
Y2253672D01*
X171573Y2253000D01*
Y2212000D01*
X171851Y2211328D01*
Y2204606D01*
X166034D01*
X130196Y2240444D01*
Y2285400D01*
X137797Y2290479D01*
X143253Y2298644D01*
X145169Y2308276D01*
X143253Y2317908D01*
X137797Y2326073D01*
X130196Y2331152D01*
Y2377008D01*
X154687D01*
X156055Y2373809D01*
Y2371909D01*
X155601Y2371605D01*
X152538Y2367021D01*
X151462Y2361614D01*
X152538Y2356207D01*
X155601Y2351623D01*
X160185Y2348560D01*
X165592Y2347484D01*
X199056D01*
X204464Y2348560D01*
X209048Y2351623D01*
X212110Y2356207D01*
X213186Y2361614D01*
X212110Y2367021D01*
X209048Y2371605D01*
X208593Y2371909D01*
Y2376909D01*
X209048Y2377213D01*
X212110Y2381797D01*
X213186Y2387204D01*
X212110Y2392611D01*
X210172Y2395512D01*
X212398Y2400512D01*
X220146D01*
X229804Y2390855D01*
D02*
G37*
G36*
X634804Y2324299D02*
Y2211888D01*
X633149Y2210267D01*
X628149Y2212369D01*
Y2258464D01*
X594527D01*
Y2256709D01*
X582655D01*
Y2369915D01*
X587275Y2371828D01*
X634804Y2324299D01*
D02*
G37*
G36*
X560417Y2373069D02*
Y2256709D01*
X545473D01*
Y2258464D01*
X511851D01*
Y2210270D01*
X506851Y2208199D01*
X460196Y2254854D01*
Y2287124D01*
X467797Y2292203D01*
X473253Y2300368D01*
X475169Y2310000D01*
X473253Y2319632D01*
X467797Y2327797D01*
X460196Y2332876D01*
Y2363464D01*
X478740Y2382008D01*
X484687D01*
X486055Y2378809D01*
Y2376909D01*
X485601Y2376605D01*
X482538Y2372021D01*
X481462Y2366614D01*
X482538Y2361207D01*
X485601Y2356623D01*
X490185Y2353560D01*
X495592Y2352484D01*
X529056D01*
X534463Y2353560D01*
X539048Y2356623D01*
X542110Y2361207D01*
X543186Y2366614D01*
X542110Y2372021D01*
X539048Y2376605D01*
X538593Y2376909D01*
Y2381909D01*
X539048Y2382213D01*
X541112Y2385302D01*
X546798Y2386687D01*
X560417Y2373069D01*
D02*
G37*
D11*
X225000Y2153173D02*
Y2220000D01*
Y2153173D02*
X278173Y2100000D01*
X375276Y1960000D02*
X433740Y1901535D01*
X58504Y1960000D02*
X375276D01*
X50000Y1968504D02*
X58504Y1960000D01*
X640788Y1720000D02*
X652440Y1708348D01*
X463150Y1720000D02*
X640788D01*
X433740Y1749410D02*
X463150Y1720000D01*
X433740Y1893502D02*
X434804Y1894566D01*
X433740Y1749410D02*
Y1893502D01*
Y1895630D02*
Y1901535D01*
X638308Y1403346D02*
X642323Y1407361D01*
X1680000Y-9338D02*
X1723662Y-53000D01*
X652440Y1505118D02*
Y1708348D01*
X185000Y180984D02*
X418984Y-53000D01*
X185000Y180984D02*
Y392000D01*
X418984Y-53000D02*
X1723662D01*
X1835000D01*
X50000Y1368504D02*
X62480D01*
X642323Y1407361D02*
Y1491457D01*
X647440Y1496574D01*
X985Y1307008D02*
X62480Y1368504D01*
X985Y460000D02*
Y1307008D01*
Y460000D02*
X34984Y426000D01*
X151000D01*
X366339Y1070473D02*
X368308Y1068504D01*
Y1160000D02*
X368721Y1160413D01*
X151000Y426000D02*
X185000Y392000D01*
X366339Y1070473D02*
Y1158031D01*
X368308Y1160000D01*
Y1286062D02*
X368721Y1285649D01*
X368308Y1160000D02*
X437357D01*
X368721Y1160413D02*
Y1285649D01*
D12*
X1596771Y2281929D02*
X1602598Y2287756D01*
X1596771Y2267000D02*
Y2281929D01*
X1585040Y2255268D02*
X1596771Y2267000D01*
X1524606Y2255268D02*
X1585040D01*
X1386064Y2330582D02*
Y2332118D01*
X1792718Y2385432D02*
X1900000D01*
X1683229Y2393150D02*
X1785000D01*
X1671575Y2388071D02*
X1674862Y2384784D01*
X1671575Y2388071D02*
Y2419367D01*
X1664880Y2426062D02*
X1671575Y2419367D01*
X1600204Y2399402D02*
X1602598D01*
X1593551Y2406055D02*
X1600204Y2399402D01*
X1505000Y2426566D02*
X1525511Y2406055D01*
X1260000Y2326054D02*
X1381535D01*
X278173Y2100000D02*
X297442D01*
X497442D02*
X505000D01*
X645000Y2205000D02*
Y2328522D01*
X637284Y2197284D02*
X645000Y2205000D01*
X614212Y2197284D02*
X637284D01*
X530136Y2443386D02*
X645000Y2328522D01*
X505000Y2100000D02*
X571536Y2166536D01*
X755985Y2526500D02*
X756492Y2525992D01*
X450000Y2250631D02*
X506221Y2194410D01*
X450000Y2250631D02*
Y2367687D01*
X149292Y2410708D02*
X224370D01*
X140000Y2420000D02*
X149292Y2410708D01*
X140000Y2420000D02*
Y2491259D01*
X170946Y2522205D01*
X59056Y2520204D02*
X100000Y2479260D01*
Y2426566D02*
Y2479260D01*
Y2426566D02*
X120000Y2406566D01*
Y2236221D02*
Y2406566D01*
Y2387204D02*
X182324D01*
X242244Y2438386D02*
X300000Y2380630D01*
Y2207914D02*
Y2380630D01*
X289370Y2197284D02*
X300000Y2207914D01*
X274212Y2197284D02*
X289370D01*
X120000Y2236221D02*
X161811Y2194410D01*
X224370Y2410708D02*
X240000Y2395078D01*
Y2245590D02*
Y2395078D01*
Y2245590D02*
X271338D01*
X182324Y2438386D02*
X242244D01*
X474517Y2392204D02*
X512324D01*
X450000Y2367687D02*
X474517Y2392204D01*
X512324Y2443386D02*
X530136D01*
X756492Y2480224D02*
Y2525992D01*
X420000Y2505345D02*
X420500D01*
X420000Y2504845D02*
X420500Y2505345D01*
X59056Y2520204D02*
Y2533000D01*
X755985Y2345000D02*
X756492Y2345508D01*
X756551Y2443835D02*
X757000Y2444284D01*
X419449Y2437835D02*
X420000Y2437284D01*
X360197Y2554213D02*
X360985Y2555000D01*
X360197Y2441950D02*
Y2554213D01*
X1785000Y2393150D02*
X1792718Y2385432D01*
X1677402Y2382244D02*
Y2387323D01*
X1683229Y2393150D01*
X1677402Y2287756D02*
X1678308Y2286850D01*
X611338Y2194410D02*
X614212Y2197284D01*
X506221Y2194410D02*
X528662D01*
X170946Y2522205D02*
Y2535000D01*
X225000Y2220000D02*
X271338D01*
X188662D02*
X225000D01*
X188662D02*
Y2245590D01*
X271338Y2220000D02*
Y2245590D01*
X161811Y2194410D02*
X188662D01*
X271338D02*
X274212Y2197284D01*
X188662Y2245590D02*
X230000D01*
X316064Y1502874D02*
Y1585630D01*
X297442Y1744842D02*
X300946Y1748346D01*
X418308Y1500630D02*
Y1593780D01*
X432874Y1608346D01*
X528510Y863140D02*
X608512D01*
X610944Y860708D01*
X605038Y789842D02*
X610944D01*
X528510Y825740D02*
X569140D01*
X756492Y2480224D02*
X757000Y2479716D01*
X678127Y2443835D02*
X756551D01*
X420000Y2472716D02*
Y2504845D01*
X348229Y2437835D02*
X419449D01*
X697598Y638134D02*
Y721348D01*
X765591Y620199D02*
Y631323D01*
X697598Y630260D02*
Y638134D01*
X765591Y631323D02*
X772402Y638134D01*
X710315Y614293D02*
Y617543D01*
X696946Y722000D02*
X697598Y721348D01*
X316064Y1502874D02*
X318308Y1500630D01*
X647440Y1500118D02*
X652440Y1505118D01*
X567442Y1307440D02*
Y1403346D01*
X563662Y1407126D02*
Y1507000D01*
Y1407126D02*
X567442Y1403346D01*
X468308Y1500630D02*
X557292D01*
X563662Y1507000D01*
X1381535Y2326054D02*
X1386064Y2330582D01*
X1170000Y2331054D02*
X1295000D01*
X1410000Y2221882D02*
X1491220D01*
X1524606Y2255268D01*
X1608425Y2418499D02*
X1615988Y2426062D01*
X1664880D01*
X1608425Y2402834D02*
Y2418499D01*
X1604992Y2399402D02*
X1608425Y2402834D01*
X1602598Y2382244D02*
Y2399402D01*
X1525511Y2406055D02*
X1593551D01*
X1602598Y2399402D02*
X1604992D01*
X1675000Y1125662D02*
X1679921D01*
X1683662Y1447000D02*
X1840000D01*
X1675000Y1455662D02*
X1683662Y1447000D01*
X1681338Y347000D02*
X1835000D01*
X1680000Y345662D02*
X1681338Y347000D01*
X1680000Y73338D02*
Y345662D01*
X1387402Y1092196D02*
X1390000Y1094794D01*
X1387402Y1087275D02*
Y1092196D01*
X1427677Y1047000D02*
X1753662D01*
X1840000D01*
X1203662Y1259676D02*
X1227912Y1235426D01*
X1443701D01*
X1467402Y1211725D01*
X1312598Y1087275D02*
Y1097117D01*
X1258660Y1151056D02*
X1312598Y1097117D01*
Y1087275D02*
X1381575Y1018297D01*
Y997629D02*
Y1018297D01*
Y997629D02*
X1387402Y991802D01*
X1286338Y1392079D02*
Y1397000D01*
Y1392079D02*
X1305944Y1372473D01*
X1332243D01*
X1387402Y755740D02*
Y991802D01*
X1378662Y747000D02*
X1387402Y755740D01*
X1035000Y747000D02*
X1378662D01*
X567442Y1307440D02*
X571536Y1303346D01*
X297442Y1604252D02*
X316064Y1585630D01*
X341378Y820278D02*
X346840Y825740D01*
X647440Y1496574D02*
Y1500118D01*
X697598Y440348D02*
Y529866D01*
X502560Y1603348D02*
X587440D01*
X1390000Y2426566D02*
X1505000D01*
X347678Y2438386D02*
X348229Y2437835D01*
X677678Y2443386D02*
X678127Y2443835D01*
X368308Y1500630D02*
Y1598346D01*
X1675000Y1208338D02*
Y1455662D01*
X756492Y2443776D02*
X757000Y2444284D01*
X756492Y2345508D02*
Y2443776D01*
X356633Y2438386D02*
X360197Y2441950D01*
X347678Y2438386D02*
X356633D01*
X420242Y900542D02*
X421285Y901585D01*
X697598Y440348D02*
X697946Y440000D01*
X696946Y722000D02*
Y734795D01*
X647440Y1388309D02*
X770985Y1264764D01*
X696946Y734795D02*
X770985Y808834D01*
X647440Y1388309D02*
Y1403346D01*
X569140Y825740D02*
X605038Y789842D01*
X1390000Y1094794D02*
Y1204206D01*
X1392598Y1206804D01*
X1387402Y1087275D02*
X1427677Y1047000D01*
X346840Y825740D02*
X420242D01*
X297442Y1604252D02*
Y1744842D01*
X1332243Y1372473D02*
X1392598Y1312117D01*
X1203662Y1259676D02*
Y1397000D01*
X1467402Y1206804D02*
Y1211725D01*
X1229606Y1151056D02*
X1258660D01*
X1210000Y1170662D02*
X1229606Y1151056D01*
X1311791Y990995D02*
X1312598Y991802D01*
X1311791Y805807D02*
Y990995D01*
X1679921Y1125662D02*
X1726595Y1078988D01*
Y1074067D02*
Y1078988D01*
Y1074067D02*
X1753662Y1047000D01*
X2062480Y768504D02*
X2075984D01*
X2000985Y830000D02*
X2062480Y768504D01*
X2000985Y830000D02*
Y2175000D01*
X695985Y370000D02*
Y438039D01*
X697946Y440000D01*
X690787Y645000D02*
X697598Y638189D01*
Y638134D02*
Y638189D01*
X421285Y935301D02*
X455985Y970000D01*
X421285Y901585D02*
Y935301D01*
X353307Y917205D02*
X359055Y911457D01*
X398751D01*
X341378D02*
X347126Y917205D01*
X50000Y1168504D02*
X150984Y1067520D01*
Y985181D02*
X242581Y893583D01*
X150984Y985181D02*
Y1067520D01*
X242581Y893583D02*
X263742D01*
X334489Y822837D01*
Y816931D02*
Y822837D01*
X347126Y917205D02*
X353307D01*
X615985Y645000D02*
X690787D01*
X770985Y808834D02*
Y1264764D01*
X719033Y605575D02*
X750967D01*
X710315Y614293D02*
X719033Y605575D01*
X750967D02*
X765591Y620199D01*
X697598Y630260D02*
X710315Y617543D01*
X398751Y911457D02*
X409666Y900542D01*
X420242D01*
X468308Y1269330D02*
X528662Y1208976D01*
X1392598Y1307196D02*
Y1312117D01*
Y1389959D01*
X468308Y1269330D02*
Y1286062D01*
X528662Y913017D02*
Y1208976D01*
X341378Y905276D02*
Y911457D01*
X1310985Y805000D02*
X1311791Y805807D01*
X1040985Y2331054D02*
X1170000D01*
D13*
X597442Y2100000D02*
D03*
X497442D02*
D03*
X397442D02*
D03*
X297442D02*
D03*
X1178976D02*
D03*
X1078976D02*
D03*
X978976D02*
D03*
X878976D02*
D03*
D14*
X2075984Y568504D02*
D03*
X2175984D02*
D03*
X2075984Y668504D02*
D03*
X2175984D02*
D03*
X2075984Y768504D02*
D03*
X2175984D02*
D03*
X2075984Y868504D02*
D03*
X2175984D02*
D03*
X2075984Y968504D02*
D03*
X2175984D02*
D03*
X2075984Y1068504D02*
D03*
X2175984D02*
D03*
X2075984Y1168504D02*
D03*
X2175984D02*
D03*
X2075984Y1268504D02*
D03*
X2175984D02*
D03*
X2075984Y1368504D02*
D03*
X2175984D02*
D03*
X2075984Y1468504D02*
D03*
X2175984D02*
D03*
X2075984Y1568504D02*
D03*
X2175984D02*
D03*
X2075984Y1668504D02*
D03*
X2175984D02*
D03*
X2075984Y1768504D02*
D03*
X2175984D02*
D03*
X2075984Y1868504D02*
D03*
X2175984D02*
D03*
X2075984Y1968504D02*
D03*
X-50000Y568504D02*
D03*
X50000D02*
D03*
X-50000Y668504D02*
D03*
X50000D02*
D03*
X-50000Y768504D02*
D03*
X50000D02*
D03*
X-50000Y868504D02*
D03*
X50000D02*
D03*
X-50000Y968504D02*
D03*
X50000D02*
D03*
X-50000Y1068504D02*
D03*
X50000D02*
D03*
X-50000Y1168504D02*
D03*
X50000D02*
D03*
X-50000Y1268504D02*
D03*
X50000D02*
D03*
X-50000Y1368504D02*
D03*
X50000D02*
D03*
X-50000Y1468504D02*
D03*
X50000D02*
D03*
X-50000Y1568504D02*
D03*
X50000D02*
D03*
X-50000Y1668504D02*
D03*
X50000D02*
D03*
X-50000Y1768504D02*
D03*
X50000D02*
D03*
X-50000Y1868504D02*
D03*
X50000D02*
D03*
X-50000Y1968504D02*
D03*
D15*
X2175984D02*
D03*
X50000D02*
D03*
D16*
X1840000Y1447000D02*
D03*
X1040000Y1847000D02*
D03*
Y1547000D02*
D03*
Y1347000D02*
D03*
X1840000Y1847000D02*
D03*
Y1047000D02*
D03*
X1835000Y-53000D02*
D03*
Y747000D02*
D03*
X1035000Y247000D02*
D03*
Y447000D02*
D03*
Y747000D02*
D03*
X1835000Y347000D02*
D03*
D17*
X2125985Y2362204D02*
D03*
X0D02*
D03*
X2125984Y0D02*
D03*
X0D02*
D03*
D18*
X120000Y2308276D02*
D03*
X755985Y2526500D02*
D03*
X420000Y2505345D02*
D03*
X350000Y1415000D02*
D03*
Y1371692D02*
D03*
X393308Y1415000D02*
D03*
Y1371692D02*
D03*
X436614Y1415000D02*
D03*
Y1371692D02*
D03*
X2186473Y2147788D02*
D03*
Y179284D02*
D03*
X1891198Y1950937D02*
D03*
Y1557236D02*
D03*
Y1163536D02*
D03*
X1989623Y572984D02*
D03*
X1792772Y2147788D02*
D03*
X1694347Y1950937D02*
D03*
X1792772Y1754087D02*
D03*
Y1360386D02*
D03*
Y966685D02*
D03*
X1694347Y769835D02*
D03*
X1792772Y572984D02*
D03*
Y179284D02*
D03*
X1497497Y1950937D02*
D03*
X1595922Y1754087D02*
D03*
X1497497Y1557236D02*
D03*
Y1163536D02*
D03*
Y769835D02*
D03*
X1595922Y572984D02*
D03*
X1497497Y376134D02*
D03*
X1595922Y179284D02*
D03*
X1497497Y-17567D02*
D03*
X1399072Y1754087D02*
D03*
X1300646Y1557236D02*
D03*
Y1163536D02*
D03*
X1399072Y572984D02*
D03*
Y179284D02*
D03*
X1300646Y-17567D02*
D03*
X1103796Y1950937D02*
D03*
X1202221Y1754087D02*
D03*
X1103796Y1163536D02*
D03*
Y376134D02*
D03*
X1202221Y179284D02*
D03*
X1103796Y-17567D02*
D03*
X906946Y2344638D02*
D03*
X1005371Y1754087D02*
D03*
X906946Y1557236D02*
D03*
Y1163536D02*
D03*
Y769835D02*
D03*
X1005371Y572984D02*
D03*
X906946Y376134D02*
D03*
Y-17567D02*
D03*
X808520Y2147788D02*
D03*
Y1754087D02*
D03*
X710095Y1557236D02*
D03*
X808520Y1360386D02*
D03*
Y572984D02*
D03*
Y179284D02*
D03*
X710095Y-17567D02*
D03*
X513245Y1557236D02*
D03*
Y769835D02*
D03*
X611670Y572984D02*
D03*
Y179284D02*
D03*
X513245Y-17567D02*
D03*
X414820Y2147788D02*
D03*
X316394Y1163536D02*
D03*
X414820Y572984D02*
D03*
Y179284D02*
D03*
X316394Y-17567D02*
D03*
X119544Y1557236D02*
D03*
Y1163536D02*
D03*
Y769835D02*
D03*
X217969Y572984D02*
D03*
X119544Y376134D02*
D03*
X21119Y2147788D02*
D03*
X-77306Y376134D02*
D03*
X21119Y179284D02*
D03*
X450000Y2310000D02*
D03*
X587440Y1603348D02*
D03*
X520000Y1720000D02*
D03*
X645000Y1910000D02*
D03*
X755985Y2345000D02*
D03*
X360985Y2555000D02*
D03*
X695985Y370000D02*
D03*
X1310985Y805000D02*
D03*
X2000985Y2175000D02*
D03*
X615985Y645000D02*
D03*
X455985Y970000D02*
D03*
D19*
X437357Y1160000D02*
D03*
X528662Y1069362D02*
D03*
X1395985Y1393346D02*
D03*
X1050985Y2330000D02*
D03*
D29*
X1385000Y753338D02*
D03*
Y670662D02*
D03*
X1505000Y2235662D02*
D03*
Y2318338D02*
D03*
X1585000Y2055662D02*
D03*
Y2138338D02*
D03*
X1675000Y1208338D02*
D03*
Y1125662D02*
D03*
X1670000Y1538338D02*
D03*
Y1455662D02*
D03*
X1680000Y56338D02*
D03*
Y-26338D02*
D03*
X1680000Y428338D02*
D03*
Y345662D02*
D03*
X1210000Y1253338D02*
D03*
Y1170662D02*
D03*
D30*
X318308Y1500630D02*
D03*
X368308D02*
D03*
X418308D02*
D03*
X468308D02*
D03*
X318308Y1286062D02*
D03*
X368308D02*
D03*
X418308D02*
D03*
X468308D02*
D03*
D31*
X393308Y1393346D02*
D03*
D32*
X528662Y2245590D02*
D03*
Y2220000D02*
D03*
Y2194410D02*
D03*
X611338D02*
D03*
Y2220000D02*
D03*
Y2245590D02*
D03*
X188662D02*
D03*
Y2220000D02*
D03*
Y2194410D02*
D03*
X271338D02*
D03*
Y2220000D02*
D03*
Y2245590D02*
D03*
D33*
X1785000Y2286850D02*
D03*
Y2393150D02*
D03*
D34*
X1900000Y2314566D02*
D03*
Y2385432D02*
D03*
X1390000Y2497432D02*
D03*
Y2426566D02*
D03*
X610944Y860708D02*
D03*
Y789842D02*
D03*
D35*
X1505000Y2506370D02*
D03*
Y2427630D02*
D03*
D36*
X757000Y2444284D02*
D03*
Y2479716D02*
D03*
X420000Y2437284D02*
D03*
Y2472716D02*
D03*
D37*
X1677402Y2382244D02*
D03*
X1640000D02*
D03*
X1602598D02*
D03*
Y2287756D02*
D03*
X1640000D02*
D03*
X1677402D02*
D03*
D38*
X341417Y810002D02*
D03*
X270551D02*
D03*
X341417Y935000D02*
D03*
X270551D02*
D03*
X567442Y1403346D02*
D03*
X638308D02*
D03*
X362874Y1895630D02*
D03*
X433740D02*
D03*
D39*
X697946Y440000D02*
D03*
X816056D02*
D03*
X696946Y722000D02*
D03*
X815056D02*
D03*
X299056Y2533500D02*
D03*
X180946D02*
D03*
X-59054Y2533000D02*
D03*
X59056D02*
D03*
X646496Y2536840D02*
D03*
X528386D02*
D03*
D40*
X697598Y529866D02*
D03*
X772402D02*
D03*
Y638134D02*
D03*
X735000D02*
D03*
X697598D02*
D03*
D41*
X512324Y2366614D02*
D03*
Y2392204D02*
D03*
Y2417796D02*
D03*
Y2443386D02*
D03*
X677678Y2366614D02*
D03*
Y2392204D02*
D03*
Y2417796D02*
D03*
Y2443386D02*
D03*
X182324Y2361614D02*
D03*
Y2387204D02*
D03*
Y2412796D02*
D03*
Y2438386D02*
D03*
X347678Y2361614D02*
D03*
Y2387204D02*
D03*
Y2412796D02*
D03*
Y2438386D02*
D03*
D42*
X1410000Y2221882D02*
D03*
Y2332118D02*
D03*
D43*
X1295000Y2331054D02*
D03*
Y2212944D02*
D03*
D44*
X1170000D02*
D03*
Y2331054D02*
D03*
D45*
X420242Y825740D02*
D03*
Y863140D02*
D03*
Y900542D02*
D03*
X528510Y825740D02*
D03*
Y863140D02*
D03*
Y900542D02*
D03*
D46*
X305316Y1598346D02*
D03*
X360434D02*
D03*
X363544Y1068504D02*
D03*
X308426D02*
D03*
X447442Y1607000D02*
D03*
X502560D02*
D03*
D47*
X262834Y1174999D02*
D03*
X369134D02*
D03*
D48*
X434804Y1748346D02*
D03*
X300946D02*
D03*
D49*
X563662Y1297000D02*
D03*
X646338D02*
D03*
Y1507000D02*
D03*
X563662D02*
D03*
X1286338Y1397000D02*
D03*
X1203662D02*
D03*
D50*
X1387402Y1092196D02*
D03*
X1312598D02*
D03*
Y991802D02*
D03*
X1350000D02*
D03*
X1387402D02*
D03*
X1392598Y1206804D02*
D03*
X1467402D02*
D03*
Y1307196D02*
D03*
X1430000D02*
D03*
X1392598D02*
D03*
D51*
X1637047Y2346685D02*
Y2379291D01*
X1625433Y2335070D02*
X1637047Y2346685D01*
X1507952Y2335070D02*
X1625433D01*
X1637047Y2379291D02*
X1640000Y2382244D01*
X1505000Y2332118D02*
X1507952Y2335070D01*
X1386064Y2332118D02*
X1505000D01*
D52*
X1784547Y2287303D02*
X1785000Y2286850D01*
X1680355Y2287303D02*
X1784547D01*
D53*
X571536Y2245590D02*
Y2377675D01*
X537243Y2411968D02*
X571536Y2377675D01*
X530654Y2417796D02*
X536482Y2411968D01*
X463271Y2486325D02*
X509946Y2533000D01*
X463271Y2427630D02*
Y2486325D01*
X473105Y2417796D02*
X530654D01*
X463271Y2427630D02*
X473105Y2417796D01*
X536482Y2411968D02*
X537243D01*
X528662Y2245590D02*
X571536D01*
X611338D01*
X571536Y2166536D02*
Y2245590D01*
X528662Y2220000D02*
Y2245590D01*
X611338Y2220000D02*
Y2245590D01*
%TF.MD5,fc22bdc9136bc7626e808251eaeb7539*%
M02*
