%TF.GenerationSoftware,Altium Limited,Altium Designer,18.0.9 (584)*%
G04 Layer_Color=255*
%FSLAX26Y26*%
%MOIN*%
%TF.FileFunction,Pads,Bot*%
%TF.Part,Single*%
G01*
G75*
%TA.AperFunction,SMDPad,CuDef*%
%ADD10R,0.061024X0.053150*%
%ADD11R,0.053150X0.061024*%
%ADD12R,0.051181X0.033465*%
%ADD14R,0.057087X0.045276*%
%ADD22R,0.033465X0.051181*%
%ADD23R,0.053150X0.037402*%
%TA.AperFunction,ComponentPad*%
%ADD27C,0.060000*%
%ADD28C,0.059055*%
%ADD29C,0.062992*%
%ADD30C,0.040000*%
%ADD31R,0.059055X0.059055*%
%TA.AperFunction,ViaPad*%
%ADD32C,0.196850*%
%TA.AperFunction,ComponentPad*%
%ADD33C,0.042000*%
%TA.AperFunction,SMDPad,CuDef*%
%ADD49O,0.017716X0.055118*%
D10*
X1822110Y1052480D02*
D03*
Y973740D02*
D03*
X545110Y2906740D02*
D03*
Y2985480D02*
D03*
X2025000Y1835630D02*
D03*
Y1914370D02*
D03*
X1869134Y2024197D02*
D03*
Y2102937D02*
D03*
D11*
X1116764Y2873567D02*
D03*
X1195504D02*
D03*
D12*
X508110Y1271575D02*
D03*
Y1204646D02*
D03*
D14*
X1900000Y1839566D02*
D03*
Y1910432D02*
D03*
D22*
X433575Y1269110D02*
D03*
X366646D02*
D03*
D23*
X260110Y1085614D02*
D03*
Y1148606D02*
D03*
X1374110Y1454606D02*
D03*
Y1391614D02*
D03*
X591110Y1206614D02*
D03*
Y1269606D02*
D03*
D27*
X634913Y774110D02*
D03*
X2058338Y2423260D02*
D03*
X1908732D02*
D03*
X1315110Y3231110D02*
D03*
X1323110Y2735110D02*
D03*
X2466110Y3145110D02*
D03*
X2355110Y3145110D02*
D03*
X2250110Y3143810D02*
D03*
X1694110Y2997110D02*
D03*
X1132110Y1463110D02*
D03*
X760110Y774110D02*
D03*
X257759Y1005858D02*
D03*
X1275110Y868110D02*
D03*
X2511110Y1107110D02*
D03*
D28*
X150110Y2050110D02*
D03*
Y1950110D02*
D03*
Y1850110D02*
D03*
Y1750110D02*
D03*
Y1650110D02*
D03*
X250110Y2050110D02*
D03*
Y1950110D02*
D03*
Y1850110D02*
D03*
Y1750110D02*
D03*
Y1650110D02*
D03*
X1814134Y2209568D02*
D03*
Y2109568D02*
D03*
Y2009568D02*
D03*
Y1909568D02*
D03*
X2114134Y2209568D02*
D03*
Y2109568D02*
D03*
Y2009568D02*
D03*
X2450110Y850110D02*
D03*
Y750110D02*
D03*
Y650110D02*
D03*
Y550110D02*
D03*
Y450110D02*
D03*
X2550110Y850110D02*
D03*
Y750110D02*
D03*
Y650110D02*
D03*
Y550110D02*
D03*
Y450110D02*
D03*
X866110Y2027110D02*
D03*
Y2127110D02*
D03*
Y2227110D02*
D03*
Y2327110D02*
D03*
X566110Y2027110D02*
D03*
Y2127110D02*
D03*
Y2227110D02*
D03*
D29*
X1952110Y3390110D02*
D03*
X1852110D02*
D03*
D30*
X644110Y3669110D02*
D03*
X844110D02*
D03*
X744110Y3769110D02*
D03*
D31*
X2114134Y1909568D02*
D03*
X566110Y2327110D02*
D03*
D32*
X150110Y150110D02*
D03*
X2500110D02*
D03*
X150110Y2500110D02*
D03*
X2500110D02*
D03*
D33*
X1585110Y2995112D02*
D03*
Y2945112D02*
D03*
X1535110Y2995112D02*
D03*
Y2945112D02*
D03*
X1485110Y2995112D02*
D03*
Y2945112D02*
D03*
X1435110Y2995112D02*
D03*
Y2945112D02*
D03*
X1385110Y2995112D02*
D03*
Y2945112D02*
D03*
D49*
X406929Y1121252D02*
D03*
X432520D02*
D03*
X458110D02*
D03*
X483701D02*
D03*
X509291D02*
D03*
X534882D02*
D03*
X560473D02*
D03*
X406929Y888968D02*
D03*
X432520D02*
D03*
X458110D02*
D03*
X483701D02*
D03*
X509291D02*
D03*
X534882D02*
D03*
X560473D02*
D03*
%TF.MD5,efe54e18dff55f3c9f8f2bcafd7eef12*%
M02*
