G04 Layer_Color=2752767*
%FSLAX26Y26*%
%MOIN*%
%TF.FileFunction,Drawing*%
%TF.Part,Single*%
G01*
G75*
%TA.AperFunction,NonConductor*%
%ADD93C,0.005000*%
%ADD94C,0.006667*%
D93*
X881378Y-4593621D02*
X881378Y-4553621D01*
X921378Y-4553621D01*
X921378Y-4593621D01*
X881378Y-4593621D01*
X881378Y-4693621D02*
X881378Y-4653621D01*
X921378Y-4653621D01*
X921378Y-4693621D01*
X881378Y-4693621D01*
X881378Y-4793621D02*
X881378Y-4753621D01*
X921378Y-4753621D01*
X921378Y-4793621D01*
X881378Y-4793621D01*
X881378Y-4893621D02*
X881378Y-4853621D01*
X921378Y-4853621D01*
X921378Y-4893621D01*
X881378Y-4893621D01*
X600000Y-120000D02*
X580000Y-80000D01*
X620000Y-80000D01*
X600000Y-120000D01*
X600000Y-20000D02*
X580000Y20000D01*
X620000Y20000D01*
X600000Y-20000D01*
X500000Y-20000D02*
X480000Y20000D01*
X520000Y20000D01*
X500000Y-20000D01*
X400000Y-20000D02*
X380000Y20000D01*
X420000Y20000D01*
X400000Y-20000D01*
X300000Y-20000D02*
X280000Y20000D01*
X320000Y20000D01*
X300000Y-20000D01*
X200000Y-20000D02*
X180000Y20000D01*
X220000Y20000D01*
X200000Y-20000D01*
X100000Y-20000D02*
X80000Y20000D01*
X120000Y20000D01*
X100000Y-20000D01*
X0Y-20000D02*
X-20000Y20000D01*
X20000Y20000D01*
X0Y-20000D01*
X-100000Y-20000D02*
X-120000Y20000D01*
X-80000Y20000D01*
X-100000Y-20000D01*
X-200000Y-20000D02*
X-220000Y20000D01*
X-180000Y20000D01*
X-200000Y-20000D01*
X-300000Y-20000D02*
X-320000Y20000D01*
X-280000Y20000D01*
X-300000Y-20000D01*
X-400000Y-20000D02*
X-420000Y20000D01*
X-380000Y20000D01*
X-400000Y-20000D01*
X500000Y-120000D02*
X480000Y-80000D01*
X520000Y-80000D01*
X500000Y-120000D01*
X400000Y-120000D02*
X380000Y-80000D01*
X420000Y-80000D01*
X400000Y-120000D01*
X300000Y-120000D02*
X280000Y-80000D01*
X320000Y-80000D01*
X300000Y-120000D01*
X200000Y-120000D02*
X180000Y-80000D01*
X220000Y-80000D01*
X200000Y-120000D01*
X100000Y-120000D02*
X80000Y-80000D01*
X120000Y-80000D01*
X100000Y-120000D01*
X0Y-120000D02*
X-20000Y-80000D01*
X20000Y-80000D01*
X0Y-120000D01*
X-100000Y-120000D02*
X-120000Y-80000D01*
X-80000Y-80000D01*
X-100000Y-120000D01*
X-200000Y-120000D02*
X-220000Y-80000D01*
X-180000Y-80000D01*
X-200000Y-120000D01*
X-300000Y-120000D02*
X-320000Y-80000D01*
X-280000Y-80000D01*
X-300000Y-120000D01*
X-400000Y-120000D02*
X-420000Y-80000D01*
X-380000Y-80000D01*
X-400000Y-120000D01*
X700000Y-20000D02*
X680000Y20000D01*
X720000Y20000D01*
X700000Y-20000D01*
X700000Y-120000D02*
X680000Y-80000D01*
X720000Y-80000D01*
X700000Y-120000D01*
X-911810Y-1002918D02*
X-901810Y-992918D01*
X-891810Y-992918D01*
X-901810Y-982918D01*
X-891810Y-972918D01*
X-901810Y-972918D01*
X-911810Y-962918D01*
X-921810Y-972918D01*
X-931810Y-972918D01*
X-921810Y-982918D01*
X-931810Y-992918D01*
X-921810Y-992918D01*
X-911810Y-1002918D01*
X-911810Y-3365122D02*
X-901810Y-3355122D01*
X-891810Y-3355122D01*
X-901810Y-3345122D01*
X-891810Y-3335122D01*
X-901810Y-3335122D01*
X-911810Y-3325122D01*
X-921810Y-3335122D01*
X-931810Y-3335122D01*
X-921810Y-3345122D01*
X-931810Y-3355122D01*
X-921810Y-3355122D01*
X-911810Y-3365122D01*
X1214174Y-1002918D02*
X1224174Y-992918D01*
X1234174Y-992918D01*
X1224174Y-982918D01*
X1234174Y-972918D01*
X1224174Y-972918D01*
X1214174Y-962918D01*
X1204174Y-972918D01*
X1194174Y-972918D01*
X1204174Y-982918D01*
X1194174Y-992918D01*
X1204174Y-992918D01*
X1214174Y-1002918D01*
X1214174Y-3365122D02*
X1224174Y-3355122D01*
X1234174Y-3355122D01*
X1224174Y-3345122D01*
X1234174Y-3335122D01*
X1224174Y-3335122D01*
X1214174Y-3325122D01*
X1204174Y-3335122D01*
X1194174Y-3335122D01*
X1204174Y-3345122D01*
X1194174Y-3355122D01*
X1204174Y-3355122D01*
X1214174Y-3365122D01*
X-818622Y-4393622D02*
X-808622Y-4373622D01*
X-818622Y-4353622D01*
X-798622Y-4363622D01*
X-778622Y-4353622D01*
X-788622Y-4373622D01*
X-778622Y-4393622D01*
X-798622Y-4383622D01*
X-818622Y-4393622D01*
X1081378Y-4393622D02*
X1091378Y-4373622D01*
X1081378Y-4353622D01*
X1101378Y-4363622D01*
X1121378Y-4353622D01*
X1111378Y-4373622D01*
X1121378Y-4393622D01*
X1101378Y-4383622D01*
X1081378Y-4393622D01*
X956378Y-6993622D02*
X966378Y-6973622D01*
X956378Y-6953622D01*
X976378Y-6963622D01*
X996378Y-6953622D01*
X986378Y-6973622D01*
X996378Y-6993622D01*
X976378Y-6983622D01*
X956378Y-6993622D01*
X-693622Y-6993622D02*
X-683622Y-6973622D01*
X-693622Y-6953622D01*
X-673622Y-6963622D01*
X-653622Y-6953622D01*
X-663622Y-6973622D01*
X-653622Y-6993622D01*
X-673622Y-6983622D01*
X-693622Y-6993622D01*
X-758622Y-4583622D02*
X-758622Y-4593622D01*
X-738622Y-4593622D01*
X-738622Y-4583622D01*
X-728622Y-4583622D01*
X-728622Y-4563622D01*
X-738622Y-4563622D01*
X-738622Y-4553622D01*
X-758622Y-4553622D01*
X-758622Y-4563622D01*
X-768622Y-4563622D01*
X-768622Y-4583622D01*
X-758622Y-4583622D01*
X-758622Y-4683622D02*
X-758622Y-4693622D01*
X-738622Y-4693622D01*
X-738622Y-4683622D01*
X-728622Y-4683622D01*
X-728622Y-4663622D01*
X-738622Y-4663622D01*
X-738622Y-4653622D01*
X-758622Y-4653622D01*
X-758622Y-4663622D01*
X-768622Y-4663622D01*
X-768622Y-4683622D01*
X-758622Y-4683622D01*
X-758622Y-4783622D02*
X-758622Y-4793622D01*
X-738622Y-4793622D01*
X-738622Y-4783622D01*
X-728622Y-4783622D01*
X-728622Y-4763622D01*
X-738622Y-4763622D01*
X-738622Y-4753622D01*
X-758622Y-4753622D01*
X-758622Y-4763622D01*
X-768622Y-4763622D01*
X-768622Y-4783622D01*
X-758622Y-4783622D01*
X-758622Y-4883622D02*
X-758622Y-4893622D01*
X-738622Y-4893622D01*
X-738622Y-4883622D01*
X-728622Y-4883622D01*
X-728622Y-4863622D01*
X-738622Y-4863622D01*
X-738622Y-4853622D01*
X-758622Y-4853622D01*
X-758622Y-4863622D01*
X-768622Y-4863622D01*
X-768622Y-4883622D01*
X-758622Y-4883622D01*
X-758622Y-4983622D02*
X-758622Y-4993622D01*
X-738622Y-4993622D01*
X-738622Y-4983622D01*
X-728622Y-4983622D01*
X-728622Y-4963622D01*
X-738622Y-4963622D01*
X-738622Y-4953622D01*
X-758622Y-4953622D01*
X-758622Y-4963622D01*
X-768622Y-4963622D01*
X-768622Y-4983622D01*
X-758622Y-4983622D01*
X-758622Y-5083622D02*
X-758622Y-5093622D01*
X-738622Y-5093622D01*
X-738622Y-5083622D01*
X-728622Y-5083622D01*
X-728622Y-5063622D01*
X-738622Y-5063622D01*
X-738622Y-5053622D01*
X-758622Y-5053622D01*
X-758622Y-5063622D01*
X-768622Y-5063622D01*
X-768622Y-5083622D01*
X-758622Y-5083622D01*
X-758622Y-5183622D02*
X-758622Y-5193622D01*
X-738622Y-5193622D01*
X-738622Y-5183622D01*
X-728622Y-5183622D01*
X-728622Y-5163622D01*
X-738622Y-5163622D01*
X-738622Y-5153622D01*
X-758622Y-5153622D01*
X-758622Y-5163622D01*
X-768622Y-5163622D01*
X-768622Y-5183622D01*
X-758622Y-5183622D01*
X-758622Y-5283622D02*
X-758622Y-5293622D01*
X-738622Y-5293622D01*
X-738622Y-5283622D01*
X-728622Y-5283622D01*
X-728622Y-5263622D01*
X-738622Y-5263622D01*
X-738622Y-5253622D01*
X-758622Y-5253622D01*
X-758622Y-5263622D01*
X-768622Y-5263622D01*
X-768622Y-5283622D01*
X-758622Y-5283622D01*
X-758622Y-5383622D02*
X-758622Y-5393622D01*
X-738622Y-5393622D01*
X-738622Y-5383622D01*
X-728622Y-5383622D01*
X-728622Y-5363622D01*
X-738622Y-5363622D01*
X-738622Y-5353622D01*
X-758622Y-5353622D01*
X-758622Y-5363622D01*
X-768622Y-5363622D01*
X-768622Y-5383622D01*
X-758622Y-5383622D01*
X-758622Y-5483622D02*
X-758622Y-5493622D01*
X-738622Y-5493622D01*
X-738622Y-5483622D01*
X-728622Y-5483622D01*
X-728622Y-5463622D01*
X-738622Y-5463622D01*
X-738622Y-5453622D01*
X-758622Y-5453622D01*
X-758622Y-5463622D01*
X-768622Y-5463622D01*
X-768622Y-5483622D01*
X-758622Y-5483622D01*
X-758622Y-5583622D02*
X-758622Y-5593622D01*
X-738622Y-5593622D01*
X-738622Y-5583622D01*
X-728622Y-5583622D01*
X-728622Y-5563622D01*
X-738622Y-5563622D01*
X-738622Y-5553622D01*
X-758622Y-5553622D01*
X-758622Y-5563622D01*
X-768622Y-5563622D01*
X-768622Y-5583622D01*
X-758622Y-5583622D01*
X-758622Y-5683622D02*
X-758622Y-5693622D01*
X-738622Y-5693622D01*
X-738622Y-5683622D01*
X-728622Y-5683622D01*
X-728622Y-5663622D01*
X-738622Y-5663622D01*
X-738622Y-5653622D01*
X-758622Y-5653622D01*
X-758622Y-5663622D01*
X-768622Y-5663622D01*
X-768622Y-5683622D01*
X-758622Y-5683622D01*
X-758622Y-5783622D02*
X-758622Y-5793622D01*
X-738622Y-5793622D01*
X-738622Y-5783622D01*
X-728622Y-5783622D01*
X-728622Y-5763622D01*
X-738622Y-5763622D01*
X-738622Y-5753622D01*
X-758622Y-5753622D01*
X-758622Y-5763622D01*
X-768622Y-5763622D01*
X-768622Y-5783622D01*
X-758622Y-5783622D01*
X-758622Y-5883622D02*
X-758622Y-5893622D01*
X-738622Y-5893622D01*
X-738622Y-5883622D01*
X-728622Y-5883622D01*
X-728622Y-5863622D01*
X-738622Y-5863622D01*
X-738622Y-5853622D01*
X-758622Y-5853622D01*
X-758622Y-5863622D01*
X-768622Y-5863622D01*
X-768622Y-5883622D01*
X-758622Y-5883622D01*
X-758622Y-5983622D02*
X-758622Y-5993622D01*
X-738622Y-5993622D01*
X-738622Y-5983622D01*
X-728622Y-5983622D01*
X-728622Y-5963622D01*
X-738622Y-5963622D01*
X-738622Y-5953622D01*
X-758622Y-5953622D01*
X-758622Y-5963622D01*
X-768622Y-5963622D01*
X-768622Y-5983622D01*
X-758622Y-5983622D01*
X-758622Y-6083622D02*
X-758622Y-6093622D01*
X-738622Y-6093622D01*
X-738622Y-6083622D01*
X-728622Y-6083622D01*
X-728622Y-6063622D01*
X-738622Y-6063622D01*
X-738622Y-6053622D01*
X-758622Y-6053622D01*
X-758622Y-6063622D01*
X-768622Y-6063622D01*
X-768622Y-6083622D01*
X-758622Y-6083622D01*
X-758622Y-6183622D02*
X-758622Y-6193622D01*
X-738622Y-6193622D01*
X-738622Y-6183622D01*
X-728622Y-6183622D01*
X-728622Y-6163622D01*
X-738622Y-6163622D01*
X-738622Y-6153622D01*
X-758622Y-6153622D01*
X-758622Y-6163622D01*
X-768622Y-6163622D01*
X-768622Y-6183622D01*
X-758622Y-6183622D01*
X-758622Y-6283622D02*
X-758622Y-6293622D01*
X-738622Y-6293622D01*
X-738622Y-6283622D01*
X-728622Y-6283622D01*
X-728622Y-6263622D01*
X-738622Y-6263622D01*
X-738622Y-6253622D01*
X-758622Y-6253622D01*
X-758622Y-6263622D01*
X-768622Y-6263622D01*
X-768622Y-6283622D01*
X-758622Y-6283622D01*
X-758622Y-6383622D02*
X-758622Y-6393622D01*
X-738622Y-6393622D01*
X-738622Y-6383622D01*
X-728622Y-6383622D01*
X-728622Y-6363622D01*
X-738622Y-6363622D01*
X-738622Y-6353622D01*
X-758622Y-6353622D01*
X-758622Y-6363622D01*
X-768622Y-6363622D01*
X-768622Y-6383622D01*
X-758622Y-6383622D01*
X-758622Y-6483622D02*
X-758622Y-6493622D01*
X-738622Y-6493622D01*
X-738622Y-6483622D01*
X-728622Y-6483622D01*
X-728622Y-6463622D01*
X-738622Y-6463622D01*
X-738622Y-6453622D01*
X-758622Y-6453622D01*
X-758622Y-6463622D01*
X-768622Y-6463622D01*
X-768622Y-6483622D01*
X-758622Y-6483622D01*
X-758622Y-6583622D02*
X-758622Y-6593622D01*
X-738622Y-6593622D01*
X-738622Y-6583622D01*
X-728622Y-6583622D01*
X-728622Y-6563622D01*
X-738622Y-6563622D01*
X-738622Y-6553622D01*
X-758622Y-6553622D01*
X-758622Y-6563622D01*
X-768622Y-6563622D01*
X-768622Y-6583622D01*
X-758622Y-6583622D01*
X-758622Y-6683622D02*
X-758622Y-6693622D01*
X-738622Y-6693622D01*
X-738622Y-6683622D01*
X-728622Y-6683622D01*
X-728622Y-6663622D01*
X-738622Y-6663622D01*
X-738622Y-6653622D01*
X-758622Y-6653622D01*
X-758622Y-6663622D01*
X-768622Y-6663622D01*
X-768622Y-6683622D01*
X-758622Y-6683622D01*
X-758622Y-6783622D02*
X-758622Y-6793622D01*
X-738622Y-6793622D01*
X-738622Y-6783622D01*
X-728622Y-6783622D01*
X-728622Y-6763622D01*
X-738622Y-6763622D01*
X-738622Y-6753622D01*
X-758622Y-6753622D01*
X-758622Y-6763622D01*
X-768622Y-6763622D01*
X-768622Y-6783622D01*
X-758622Y-6783622D01*
X-858622Y-4683622D02*
X-858622Y-4693622D01*
X-838622Y-4693622D01*
X-838622Y-4683622D01*
X-828622Y-4683622D01*
X-828622Y-4663622D01*
X-838622Y-4663622D01*
X-838622Y-4653622D01*
X-858622Y-4653622D01*
X-858622Y-4663622D01*
X-868622Y-4663622D01*
X-868622Y-4683622D01*
X-858622Y-4683622D01*
X-858622Y-4783622D02*
X-858622Y-4793622D01*
X-838622Y-4793622D01*
X-838622Y-4783622D01*
X-828622Y-4783622D01*
X-828622Y-4763622D01*
X-838622Y-4763622D01*
X-838622Y-4753622D01*
X-858622Y-4753622D01*
X-858622Y-4763622D01*
X-868622Y-4763622D01*
X-868622Y-4783622D01*
X-858622Y-4783622D01*
X-858622Y-4883622D02*
X-858622Y-4893622D01*
X-838622Y-4893622D01*
X-838622Y-4883622D01*
X-828622Y-4883622D01*
X-828622Y-4863622D01*
X-838622Y-4863622D01*
X-838622Y-4853622D01*
X-858622Y-4853622D01*
X-858622Y-4863622D01*
X-868622Y-4863622D01*
X-868622Y-4883622D01*
X-858622Y-4883622D01*
X-858622Y-4983622D02*
X-858622Y-4993622D01*
X-838622Y-4993622D01*
X-838622Y-4983622D01*
X-828622Y-4983622D01*
X-828622Y-4963622D01*
X-838622Y-4963622D01*
X-838622Y-4953622D01*
X-858622Y-4953622D01*
X-858622Y-4963622D01*
X-868622Y-4963622D01*
X-868622Y-4983622D01*
X-858622Y-4983622D01*
X-858622Y-5083622D02*
X-858622Y-5093622D01*
X-838622Y-5093622D01*
X-838622Y-5083622D01*
X-828622Y-5083622D01*
X-828622Y-5063622D01*
X-838622Y-5063622D01*
X-838622Y-5053622D01*
X-858622Y-5053622D01*
X-858622Y-5063622D01*
X-868622Y-5063622D01*
X-868622Y-5083622D01*
X-858622Y-5083622D01*
X-858622Y-5183622D02*
X-858622Y-5193622D01*
X-838622Y-5193622D01*
X-838622Y-5183622D01*
X-828622Y-5183622D01*
X-828622Y-5163622D01*
X-838622Y-5163622D01*
X-838622Y-5153622D01*
X-858622Y-5153622D01*
X-858622Y-5163622D01*
X-868622Y-5163622D01*
X-868622Y-5183622D01*
X-858622Y-5183622D01*
X-858622Y-5283622D02*
X-858622Y-5293622D01*
X-838622Y-5293622D01*
X-838622Y-5283622D01*
X-828622Y-5283622D01*
X-828622Y-5263622D01*
X-838622Y-5263622D01*
X-838622Y-5253622D01*
X-858622Y-5253622D01*
X-858622Y-5263622D01*
X-868622Y-5263622D01*
X-868622Y-5283622D01*
X-858622Y-5283622D01*
X-858622Y-5383622D02*
X-858622Y-5393622D01*
X-838622Y-5393622D01*
X-838622Y-5383622D01*
X-828622Y-5383622D01*
X-828622Y-5363622D01*
X-838622Y-5363622D01*
X-838622Y-5353622D01*
X-858622Y-5353622D01*
X-858622Y-5363622D01*
X-868622Y-5363622D01*
X-868622Y-5383622D01*
X-858622Y-5383622D01*
X-858622Y-5483622D02*
X-858622Y-5493622D01*
X-838622Y-5493622D01*
X-838622Y-5483622D01*
X-828622Y-5483622D01*
X-828622Y-5463622D01*
X-838622Y-5463622D01*
X-838622Y-5453622D01*
X-858622Y-5453622D01*
X-858622Y-5463622D01*
X-868622Y-5463622D01*
X-868622Y-5483622D01*
X-858622Y-5483622D01*
X-858622Y-5583622D02*
X-858622Y-5593622D01*
X-838622Y-5593622D01*
X-838622Y-5583622D01*
X-828622Y-5583622D01*
X-828622Y-5563622D01*
X-838622Y-5563622D01*
X-838622Y-5553622D01*
X-858622Y-5553622D01*
X-858622Y-5563622D01*
X-868622Y-5563622D01*
X-868622Y-5583622D01*
X-858622Y-5583622D01*
X-858622Y-5683622D02*
X-858622Y-5693622D01*
X-838622Y-5693622D01*
X-838622Y-5683622D01*
X-828622Y-5683622D01*
X-828622Y-5663622D01*
X-838622Y-5663622D01*
X-838622Y-5653622D01*
X-858622Y-5653622D01*
X-858622Y-5663622D01*
X-868622Y-5663622D01*
X-868622Y-5683622D01*
X-858622Y-5683622D01*
X-858622Y-5783622D02*
X-858622Y-5793622D01*
X-838622Y-5793622D01*
X-838622Y-5783622D01*
X-828622Y-5783622D01*
X-828622Y-5763622D01*
X-838622Y-5763622D01*
X-838622Y-5753622D01*
X-858622Y-5753622D01*
X-858622Y-5763622D01*
X-868622Y-5763622D01*
X-868622Y-5783622D01*
X-858622Y-5783622D01*
X-858622Y-5883622D02*
X-858622Y-5893622D01*
X-838622Y-5893622D01*
X-838622Y-5883622D01*
X-828622Y-5883622D01*
X-828622Y-5863622D01*
X-838622Y-5863622D01*
X-838622Y-5853622D01*
X-858622Y-5853622D01*
X-858622Y-5863622D01*
X-868622Y-5863622D01*
X-868622Y-5883622D01*
X-858622Y-5883622D01*
X-858622Y-5983622D02*
X-858622Y-5993622D01*
X-838622Y-5993622D01*
X-838622Y-5983622D01*
X-828622Y-5983622D01*
X-828622Y-5963622D01*
X-838622Y-5963622D01*
X-838622Y-5953622D01*
X-858622Y-5953622D01*
X-858622Y-5963622D01*
X-868622Y-5963622D01*
X-868622Y-5983622D01*
X-858622Y-5983622D01*
X-858622Y-6083622D02*
X-858622Y-6093622D01*
X-838622Y-6093622D01*
X-838622Y-6083622D01*
X-828622Y-6083622D01*
X-828622Y-6063622D01*
X-838622Y-6063622D01*
X-838622Y-6053622D01*
X-858622Y-6053622D01*
X-858622Y-6063622D01*
X-868622Y-6063622D01*
X-868622Y-6083622D01*
X-858622Y-6083622D01*
X-858622Y-6183622D02*
X-858622Y-6193622D01*
X-838622Y-6193622D01*
X-838622Y-6183622D01*
X-828622Y-6183622D01*
X-828622Y-6163622D01*
X-838622Y-6163622D01*
X-838622Y-6153622D01*
X-858622Y-6153622D01*
X-858622Y-6163622D01*
X-868622Y-6163622D01*
X-868622Y-6183622D01*
X-858622Y-6183622D01*
X-858622Y-6283622D02*
X-858622Y-6293622D01*
X-838622Y-6293622D01*
X-838622Y-6283622D01*
X-828622Y-6283622D01*
X-828622Y-6263622D01*
X-838622Y-6263622D01*
X-838622Y-6253622D01*
X-858622Y-6253622D01*
X-858622Y-6263622D01*
X-868622Y-6263622D01*
X-868622Y-6283622D01*
X-858622Y-6283622D01*
X-858622Y-6383622D02*
X-858622Y-6393622D01*
X-838622Y-6393622D01*
X-838622Y-6383622D01*
X-828622Y-6383622D01*
X-828622Y-6363622D01*
X-838622Y-6363622D01*
X-838622Y-6353622D01*
X-858622Y-6353622D01*
X-858622Y-6363622D01*
X-868622Y-6363622D01*
X-868622Y-6383622D01*
X-858622Y-6383622D01*
X-858622Y-6483622D02*
X-858622Y-6493622D01*
X-838622Y-6493622D01*
X-838622Y-6483622D01*
X-828622Y-6483622D01*
X-828622Y-6463622D01*
X-838622Y-6463622D01*
X-838622Y-6453622D01*
X-858622Y-6453622D01*
X-858622Y-6463622D01*
X-868622Y-6463622D01*
X-868622Y-6483622D01*
X-858622Y-6483622D01*
X-858622Y-6583622D02*
X-858622Y-6593622D01*
X-838622Y-6593622D01*
X-838622Y-6583622D01*
X-828622Y-6583622D01*
X-828622Y-6563622D01*
X-838622Y-6563622D01*
X-838622Y-6553622D01*
X-858622Y-6553622D01*
X-858622Y-6563622D01*
X-868622Y-6563622D01*
X-868622Y-6583622D01*
X-858622Y-6583622D01*
X-858622Y-6683622D02*
X-858622Y-6693622D01*
X-838622Y-6693622D01*
X-838622Y-6683622D01*
X-828622Y-6683622D01*
X-828622Y-6663622D01*
X-838622Y-6663622D01*
X-838622Y-6653622D01*
X-858622Y-6653622D01*
X-858622Y-6663622D01*
X-868622Y-6663622D01*
X-868622Y-6683622D01*
X-858622Y-6683622D01*
X-858622Y-6783622D02*
X-858622Y-6793622D01*
X-838622Y-6793622D01*
X-838622Y-6783622D01*
X-828622Y-6783622D01*
X-828622Y-6763622D01*
X-838622Y-6763622D01*
X-838622Y-6753622D01*
X-858622Y-6753622D01*
X-858622Y-6763622D01*
X-868622Y-6763622D01*
X-868622Y-6783622D01*
X-858622Y-6783622D01*
X1041378Y-4583622D02*
X1041378Y-4593622D01*
X1061378Y-4593622D01*
X1061378Y-4583622D01*
X1071378Y-4583622D01*
X1071378Y-4563622D01*
X1061378Y-4563622D01*
X1061378Y-4553622D01*
X1041378Y-4553622D01*
X1041378Y-4563622D01*
X1031378Y-4563622D01*
X1031378Y-4583622D01*
X1041378Y-4583622D01*
X1141378Y-4583622D02*
X1141378Y-4593622D01*
X1161378Y-4593622D01*
X1161378Y-4583622D01*
X1171378Y-4583622D01*
X1171378Y-4563622D01*
X1161378Y-4563622D01*
X1161378Y-4553622D01*
X1141378Y-4553622D01*
X1141378Y-4563622D01*
X1131378Y-4563622D01*
X1131378Y-4583622D01*
X1141378Y-4583622D01*
X1141378Y-4683622D02*
X1141378Y-4693622D01*
X1161378Y-4693622D01*
X1161378Y-4683622D01*
X1171378Y-4683622D01*
X1171378Y-4663622D01*
X1161378Y-4663622D01*
X1161378Y-4653622D01*
X1141378Y-4653622D01*
X1141378Y-4663622D01*
X1131378Y-4663622D01*
X1131378Y-4683622D01*
X1141378Y-4683622D01*
X1141378Y-4783622D02*
X1141378Y-4793622D01*
X1161378Y-4793622D01*
X1161378Y-4783622D01*
X1171378Y-4783622D01*
X1171378Y-4763622D01*
X1161378Y-4763622D01*
X1161378Y-4753622D01*
X1141378Y-4753622D01*
X1141378Y-4763622D01*
X1131378Y-4763622D01*
X1131378Y-4783622D01*
X1141378Y-4783622D01*
X1141378Y-4883622D02*
X1141378Y-4893622D01*
X1161378Y-4893622D01*
X1161378Y-4883622D01*
X1171378Y-4883622D01*
X1171378Y-4863622D01*
X1161378Y-4863622D01*
X1161378Y-4853622D01*
X1141378Y-4853622D01*
X1141378Y-4863622D01*
X1131378Y-4863622D01*
X1131378Y-4883622D01*
X1141378Y-4883622D01*
X1141378Y-4983622D02*
X1141378Y-4993622D01*
X1161378Y-4993622D01*
X1161378Y-4983622D01*
X1171378Y-4983622D01*
X1171378Y-4963622D01*
X1161378Y-4963622D01*
X1161378Y-4953622D01*
X1141378Y-4953622D01*
X1141378Y-4963622D01*
X1131378Y-4963622D01*
X1131378Y-4983622D01*
X1141378Y-4983622D01*
X1141378Y-5083622D02*
X1141378Y-5093622D01*
X1161378Y-5093622D01*
X1161378Y-5083622D01*
X1171378Y-5083622D01*
X1171378Y-5063622D01*
X1161378Y-5063622D01*
X1161378Y-5053622D01*
X1141378Y-5053622D01*
X1141378Y-5063622D01*
X1131378Y-5063622D01*
X1131378Y-5083622D01*
X1141378Y-5083622D01*
X1141378Y-5183622D02*
X1141378Y-5193622D01*
X1161378Y-5193622D01*
X1161378Y-5183622D01*
X1171378Y-5183622D01*
X1171378Y-5163622D01*
X1161378Y-5163622D01*
X1161378Y-5153622D01*
X1141378Y-5153622D01*
X1141378Y-5163622D01*
X1131378Y-5163622D01*
X1131378Y-5183622D01*
X1141378Y-5183622D01*
X1141378Y-5283622D02*
X1141378Y-5293622D01*
X1161378Y-5293622D01*
X1161378Y-5283622D01*
X1171378Y-5283622D01*
X1171378Y-5263622D01*
X1161378Y-5263622D01*
X1161378Y-5253622D01*
X1141378Y-5253622D01*
X1141378Y-5263622D01*
X1131378Y-5263622D01*
X1131378Y-5283622D01*
X1141378Y-5283622D01*
X1141378Y-5383622D02*
X1141378Y-5393622D01*
X1161378Y-5393622D01*
X1161378Y-5383622D01*
X1171378Y-5383622D01*
X1171378Y-5363622D01*
X1161378Y-5363622D01*
X1161378Y-5353622D01*
X1141378Y-5353622D01*
X1141378Y-5363622D01*
X1131378Y-5363622D01*
X1131378Y-5383622D01*
X1141378Y-5383622D01*
X1141378Y-5483622D02*
X1141378Y-5493622D01*
X1161378Y-5493622D01*
X1161378Y-5483622D01*
X1171378Y-5483622D01*
X1171378Y-5463622D01*
X1161378Y-5463622D01*
X1161378Y-5453622D01*
X1141378Y-5453622D01*
X1141378Y-5463622D01*
X1131378Y-5463622D01*
X1131378Y-5483622D01*
X1141378Y-5483622D01*
X1141378Y-5583622D02*
X1141378Y-5593622D01*
X1161378Y-5593622D01*
X1161378Y-5583622D01*
X1171378Y-5583622D01*
X1171378Y-5563622D01*
X1161378Y-5563622D01*
X1161378Y-5553622D01*
X1141378Y-5553622D01*
X1141378Y-5563622D01*
X1131378Y-5563622D01*
X1131378Y-5583622D01*
X1141378Y-5583622D01*
X1141378Y-5683622D02*
X1141378Y-5693622D01*
X1161378Y-5693622D01*
X1161378Y-5683622D01*
X1171378Y-5683622D01*
X1171378Y-5663622D01*
X1161378Y-5663622D01*
X1161378Y-5653622D01*
X1141378Y-5653622D01*
X1141378Y-5663622D01*
X1131378Y-5663622D01*
X1131378Y-5683622D01*
X1141378Y-5683622D01*
X1141378Y-5783622D02*
X1141378Y-5793622D01*
X1161378Y-5793622D01*
X1161378Y-5783622D01*
X1171378Y-5783622D01*
X1171378Y-5763622D01*
X1161378Y-5763622D01*
X1161378Y-5753622D01*
X1141378Y-5753622D01*
X1141378Y-5763622D01*
X1131378Y-5763622D01*
X1131378Y-5783622D01*
X1141378Y-5783622D01*
X1141378Y-5883622D02*
X1141378Y-5893622D01*
X1161378Y-5893622D01*
X1161378Y-5883622D01*
X1171378Y-5883622D01*
X1171378Y-5863622D01*
X1161378Y-5863622D01*
X1161378Y-5853622D01*
X1141378Y-5853622D01*
X1141378Y-5863622D01*
X1131378Y-5863622D01*
X1131378Y-5883622D01*
X1141378Y-5883622D01*
X1141378Y-5983622D02*
X1141378Y-5993622D01*
X1161378Y-5993622D01*
X1161378Y-5983622D01*
X1171378Y-5983622D01*
X1171378Y-5963622D01*
X1161378Y-5963622D01*
X1161378Y-5953622D01*
X1141378Y-5953622D01*
X1141378Y-5963622D01*
X1131378Y-5963622D01*
X1131378Y-5983622D01*
X1141378Y-5983622D01*
X1141378Y-6083622D02*
X1141378Y-6093622D01*
X1161378Y-6093622D01*
X1161378Y-6083622D01*
X1171378Y-6083622D01*
X1171378Y-6063622D01*
X1161378Y-6063622D01*
X1161378Y-6053622D01*
X1141378Y-6053622D01*
X1141378Y-6063622D01*
X1131378Y-6063622D01*
X1131378Y-6083622D01*
X1141378Y-6083622D01*
X1141378Y-6183622D02*
X1141378Y-6193622D01*
X1161378Y-6193622D01*
X1161378Y-6183622D01*
X1171378Y-6183622D01*
X1171378Y-6163622D01*
X1161378Y-6163622D01*
X1161378Y-6153622D01*
X1141378Y-6153622D01*
X1141378Y-6163622D01*
X1131378Y-6163622D01*
X1131378Y-6183622D01*
X1141378Y-6183622D01*
X1141378Y-6283622D02*
X1141378Y-6293622D01*
X1161378Y-6293622D01*
X1161378Y-6283622D01*
X1171378Y-6283622D01*
X1171378Y-6263622D01*
X1161378Y-6263622D01*
X1161378Y-6253622D01*
X1141378Y-6253622D01*
X1141378Y-6263622D01*
X1131378Y-6263622D01*
X1131378Y-6283622D01*
X1141378Y-6283622D01*
X1141378Y-6383622D02*
X1141378Y-6393622D01*
X1161378Y-6393622D01*
X1161378Y-6383622D01*
X1171378Y-6383622D01*
X1171378Y-6363622D01*
X1161378Y-6363622D01*
X1161378Y-6353622D01*
X1141378Y-6353622D01*
X1141378Y-6363622D01*
X1131378Y-6363622D01*
X1131378Y-6383622D01*
X1141378Y-6383622D01*
X1141378Y-6483622D02*
X1141378Y-6493622D01*
X1161378Y-6493622D01*
X1161378Y-6483622D01*
X1171378Y-6483622D01*
X1171378Y-6463622D01*
X1161378Y-6463622D01*
X1161378Y-6453622D01*
X1141378Y-6453622D01*
X1141378Y-6463622D01*
X1131378Y-6463622D01*
X1131378Y-6483622D01*
X1141378Y-6483622D01*
X1141378Y-6583622D02*
X1141378Y-6593622D01*
X1161378Y-6593622D01*
X1161378Y-6583622D01*
X1171378Y-6583622D01*
X1171378Y-6563622D01*
X1161378Y-6563622D01*
X1161378Y-6553622D01*
X1141378Y-6553622D01*
X1141378Y-6563622D01*
X1131378Y-6563622D01*
X1131378Y-6583622D01*
X1141378Y-6583622D01*
X1141378Y-6683622D02*
X1141378Y-6693622D01*
X1161378Y-6693622D01*
X1161378Y-6683622D01*
X1171378Y-6683622D01*
X1171378Y-6663622D01*
X1161378Y-6663622D01*
X1161378Y-6653622D01*
X1141378Y-6653622D01*
X1141378Y-6663622D01*
X1131378Y-6663622D01*
X1131378Y-6683622D01*
X1141378Y-6683622D01*
X1141378Y-6783622D02*
X1141378Y-6793622D01*
X1161378Y-6793622D01*
X1161378Y-6783622D01*
X1171378Y-6783622D01*
X1171378Y-6763622D01*
X1161378Y-6763622D01*
X1161378Y-6753622D01*
X1141378Y-6753622D01*
X1141378Y-6763622D01*
X1131378Y-6763622D01*
X1131378Y-6783622D01*
X1141378Y-6783622D01*
X1041378Y-4683622D02*
X1041378Y-4693622D01*
X1061378Y-4693622D01*
X1061378Y-4683622D01*
X1071378Y-4683622D01*
X1071378Y-4663622D01*
X1061378Y-4663622D01*
X1061378Y-4653622D01*
X1041378Y-4653622D01*
X1041378Y-4663622D01*
X1031378Y-4663622D01*
X1031378Y-4683622D01*
X1041378Y-4683622D01*
X1041378Y-4783622D02*
X1041378Y-4793622D01*
X1061378Y-4793622D01*
X1061378Y-4783622D01*
X1071378Y-4783622D01*
X1071378Y-4763622D01*
X1061378Y-4763622D01*
X1061378Y-4753622D01*
X1041378Y-4753622D01*
X1041378Y-4763622D01*
X1031378Y-4763622D01*
X1031378Y-4783622D01*
X1041378Y-4783622D01*
X1041378Y-4883622D02*
X1041378Y-4893622D01*
X1061378Y-4893622D01*
X1061378Y-4883622D01*
X1071378Y-4883622D01*
X1071378Y-4863622D01*
X1061378Y-4863622D01*
X1061378Y-4853622D01*
X1041378Y-4853622D01*
X1041378Y-4863622D01*
X1031378Y-4863622D01*
X1031378Y-4883622D01*
X1041378Y-4883622D01*
X1041378Y-4983622D02*
X1041378Y-4993622D01*
X1061378Y-4993622D01*
X1061378Y-4983622D01*
X1071378Y-4983622D01*
X1071378Y-4963622D01*
X1061378Y-4963622D01*
X1061378Y-4953622D01*
X1041378Y-4953622D01*
X1041378Y-4963622D01*
X1031378Y-4963622D01*
X1031378Y-4983622D01*
X1041378Y-4983622D01*
X1041378Y-5083622D02*
X1041378Y-5093622D01*
X1061378Y-5093622D01*
X1061378Y-5083622D01*
X1071378Y-5083622D01*
X1071378Y-5063622D01*
X1061378Y-5063622D01*
X1061378Y-5053622D01*
X1041378Y-5053622D01*
X1041378Y-5063622D01*
X1031378Y-5063622D01*
X1031378Y-5083622D01*
X1041378Y-5083622D01*
X1041378Y-5183622D02*
X1041378Y-5193622D01*
X1061378Y-5193622D01*
X1061378Y-5183622D01*
X1071378Y-5183622D01*
X1071378Y-5163622D01*
X1061378Y-5163622D01*
X1061378Y-5153622D01*
X1041378Y-5153622D01*
X1041378Y-5163622D01*
X1031378Y-5163622D01*
X1031378Y-5183622D01*
X1041378Y-5183622D01*
X1041378Y-5283622D02*
X1041378Y-5293622D01*
X1061378Y-5293622D01*
X1061378Y-5283622D01*
X1071378Y-5283622D01*
X1071378Y-5263622D01*
X1061378Y-5263622D01*
X1061378Y-5253622D01*
X1041378Y-5253622D01*
X1041378Y-5263622D01*
X1031378Y-5263622D01*
X1031378Y-5283622D01*
X1041378Y-5283622D01*
X1041378Y-5383622D02*
X1041378Y-5393622D01*
X1061378Y-5393622D01*
X1061378Y-5383622D01*
X1071378Y-5383622D01*
X1071378Y-5363622D01*
X1061378Y-5363622D01*
X1061378Y-5353622D01*
X1041378Y-5353622D01*
X1041378Y-5363622D01*
X1031378Y-5363622D01*
X1031378Y-5383622D01*
X1041378Y-5383622D01*
X1041378Y-5483622D02*
X1041378Y-5493622D01*
X1061378Y-5493622D01*
X1061378Y-5483622D01*
X1071378Y-5483622D01*
X1071378Y-5463622D01*
X1061378Y-5463622D01*
X1061378Y-5453622D01*
X1041378Y-5453622D01*
X1041378Y-5463622D01*
X1031378Y-5463622D01*
X1031378Y-5483622D01*
X1041378Y-5483622D01*
X1041378Y-5583622D02*
X1041378Y-5593622D01*
X1061378Y-5593622D01*
X1061378Y-5583622D01*
X1071378Y-5583622D01*
X1071378Y-5563622D01*
X1061378Y-5563622D01*
X1061378Y-5553622D01*
X1041378Y-5553622D01*
X1041378Y-5563622D01*
X1031378Y-5563622D01*
X1031378Y-5583622D01*
X1041378Y-5583622D01*
X1041378Y-5683622D02*
X1041378Y-5693622D01*
X1061378Y-5693622D01*
X1061378Y-5683622D01*
X1071378Y-5683622D01*
X1071378Y-5663622D01*
X1061378Y-5663622D01*
X1061378Y-5653622D01*
X1041378Y-5653622D01*
X1041378Y-5663622D01*
X1031378Y-5663622D01*
X1031378Y-5683622D01*
X1041378Y-5683622D01*
X1041378Y-5783622D02*
X1041378Y-5793622D01*
X1061378Y-5793622D01*
X1061378Y-5783622D01*
X1071378Y-5783622D01*
X1071378Y-5763622D01*
X1061378Y-5763622D01*
X1061378Y-5753622D01*
X1041378Y-5753622D01*
X1041378Y-5763622D01*
X1031378Y-5763622D01*
X1031378Y-5783622D01*
X1041378Y-5783622D01*
X1041378Y-5883622D02*
X1041378Y-5893622D01*
X1061378Y-5893622D01*
X1061378Y-5883622D01*
X1071378Y-5883622D01*
X1071378Y-5863622D01*
X1061378Y-5863622D01*
X1061378Y-5853622D01*
X1041378Y-5853622D01*
X1041378Y-5863622D01*
X1031378Y-5863622D01*
X1031378Y-5883622D01*
X1041378Y-5883622D01*
X1041378Y-5983622D02*
X1041378Y-5993622D01*
X1061378Y-5993622D01*
X1061378Y-5983622D01*
X1071378Y-5983622D01*
X1071378Y-5963622D01*
X1061378Y-5963622D01*
X1061378Y-5953622D01*
X1041378Y-5953622D01*
X1041378Y-5963622D01*
X1031378Y-5963622D01*
X1031378Y-5983622D01*
X1041378Y-5983622D01*
X1041378Y-6083622D02*
X1041378Y-6093622D01*
X1061378Y-6093622D01*
X1061378Y-6083622D01*
X1071378Y-6083622D01*
X1071378Y-6063622D01*
X1061378Y-6063622D01*
X1061378Y-6053622D01*
X1041378Y-6053622D01*
X1041378Y-6063622D01*
X1031378Y-6063622D01*
X1031378Y-6083622D01*
X1041378Y-6083622D01*
X1041378Y-6183622D02*
X1041378Y-6193622D01*
X1061378Y-6193622D01*
X1061378Y-6183622D01*
X1071378Y-6183622D01*
X1071378Y-6163622D01*
X1061378Y-6163622D01*
X1061378Y-6153622D01*
X1041378Y-6153622D01*
X1041378Y-6163622D01*
X1031378Y-6163622D01*
X1031378Y-6183622D01*
X1041378Y-6183622D01*
X1041378Y-6283622D02*
X1041378Y-6293622D01*
X1061378Y-6293622D01*
X1061378Y-6283622D01*
X1071378Y-6283622D01*
X1071378Y-6263622D01*
X1061378Y-6263622D01*
X1061378Y-6253622D01*
X1041378Y-6253622D01*
X1041378Y-6263622D01*
X1031378Y-6263622D01*
X1031378Y-6283622D01*
X1041378Y-6283622D01*
X1041378Y-6383622D02*
X1041378Y-6393622D01*
X1061378Y-6393622D01*
X1061378Y-6383622D01*
X1071378Y-6383622D01*
X1071378Y-6363622D01*
X1061378Y-6363622D01*
X1061378Y-6353622D01*
X1041378Y-6353622D01*
X1041378Y-6363622D01*
X1031378Y-6363622D01*
X1031378Y-6383622D01*
X1041378Y-6383622D01*
X1041378Y-6483622D02*
X1041378Y-6493622D01*
X1061378Y-6493622D01*
X1061378Y-6483622D01*
X1071378Y-6483622D01*
X1071378Y-6463622D01*
X1061378Y-6463622D01*
X1061378Y-6453622D01*
X1041378Y-6453622D01*
X1041378Y-6463622D01*
X1031378Y-6463622D01*
X1031378Y-6483622D01*
X1041378Y-6483622D01*
X1041378Y-6583622D02*
X1041378Y-6593622D01*
X1061378Y-6593622D01*
X1061378Y-6583622D01*
X1071378Y-6583622D01*
X1071378Y-6563622D01*
X1061378Y-6563622D01*
X1061378Y-6553622D01*
X1041378Y-6553622D01*
X1041378Y-6563622D01*
X1031378Y-6563622D01*
X1031378Y-6583622D01*
X1041378Y-6583622D01*
X1041378Y-6683622D02*
X1041378Y-6693622D01*
X1061378Y-6693622D01*
X1061378Y-6683622D01*
X1071378Y-6683622D01*
X1071378Y-6663622D01*
X1061378Y-6663622D01*
X1061378Y-6653622D01*
X1041378Y-6653622D01*
X1041378Y-6663622D01*
X1031378Y-6663622D01*
X1031378Y-6683622D01*
X1041378Y-6683622D01*
X1041378Y-6783622D02*
X1041378Y-6793622D01*
X1061378Y-6793622D01*
X1061378Y-6783622D01*
X1071378Y-6783622D01*
X1071378Y-6763622D01*
X1061378Y-6763622D01*
X1061378Y-6753622D01*
X1041378Y-6753622D01*
X1041378Y-6763622D01*
X1031378Y-6763622D01*
X1031378Y-6783622D01*
X1041378Y-6783622D01*
X-868622Y-4593622D02*
X-858622Y-4593622D01*
X-848622Y-4583622D01*
X-838622Y-4593622D01*
X-828622Y-4593622D01*
X-828622Y-4583622D01*
X-838622Y-4573622D01*
X-828622Y-4563622D01*
X-828622Y-4553622D01*
X-838622Y-4553622D01*
X-848622Y-4563622D01*
X-858622Y-4553622D01*
X-868622Y-4553622D01*
X-868622Y-4563622D01*
X-858622Y-4573622D01*
X-868622Y-4583622D01*
X-868622Y-4593622D01*
X674324Y-3986122D02*
X694324Y-3966122D01*
X714324Y-3986122D01*
X694324Y-4006122D01*
X674324Y-3986122D01*
X-278352Y-3961122D02*
X-258352Y-3941122D01*
X-238352Y-3961122D01*
X-258352Y-3981122D01*
X-278352Y-3961122D01*
X1125000Y-3905000D02*
X1145000Y-3885000D01*
X1165000Y-3905000D01*
X1145000Y-3925000D01*
X1125000Y-3905000D01*
X341378Y-2103256D02*
X361378Y-2083256D01*
X381378Y-2103256D01*
X361378Y-2123256D01*
X341378Y-2103256D01*
X201378Y-5163622D02*
X221378Y-5143622D01*
X241378Y-5163622D01*
X221378Y-5183622D01*
X201378Y-5163622D01*
X257324Y-4693122D02*
X277324Y-4673122D01*
X297324Y-4693122D01*
X277324Y-4713122D01*
X257324Y-4693122D01*
X276324Y-4998122D02*
X296324Y-4978122D01*
X316324Y-4998122D01*
X296324Y-5018122D01*
X276324Y-4998122D01*
X-97676Y-4881122D02*
X-77676Y-4861122D01*
X-57676Y-4881122D01*
X-77676Y-4901122D01*
X-97676Y-4881122D01*
X-218676Y-5059122D02*
X-198676Y-5039122D01*
X-178676Y-5059122D01*
X-198676Y-5079122D01*
X-218676Y-5059122D01*
X-275676Y-4301122D02*
X-255676Y-4281122D01*
X-235676Y-4301122D01*
X-255676Y-4321122D01*
X-275676Y-4301122D01*
X198324Y-4311122D02*
X218324Y-4291122D01*
X238324Y-4311122D01*
X218324Y-4331122D01*
X198324Y-4311122D01*
X-268622Y-4858622D02*
X-248622Y-4838622D01*
X-228622Y-4858622D01*
X-248622Y-4878622D01*
X-268622Y-4858622D01*
X189450Y-4861024D02*
X209450Y-4841024D01*
X229450Y-4861024D01*
X209450Y-4881024D01*
X189450Y-4861024D01*
X-268622Y-5138622D02*
X-248622Y-5118622D01*
X-228622Y-5138622D01*
X-248622Y-5158622D01*
X-268622Y-5138622D01*
X-208622Y-4563622D02*
X-188622Y-4543622D01*
X-168622Y-4563622D01*
X-188622Y-4583622D01*
X-208622Y-4563622D01*
X266378Y-4563622D02*
X286378Y-4543622D01*
X306378Y-4563622D01*
X286378Y-4583622D01*
X266378Y-4563622D01*
X477324Y-1765122D02*
X497324Y-1745122D01*
X517324Y-1765122D01*
X497324Y-1785122D01*
X477324Y-1765122D01*
X517324Y-1700122D02*
X537324Y-1680122D01*
X557324Y-1700122D01*
X537324Y-1720122D01*
X517324Y-1700122D01*
X62324Y-1635122D02*
X82324Y-1615122D01*
X102324Y-1635122D01*
X82324Y-1655122D01*
X62324Y-1635122D01*
X622324Y-2010122D02*
X642324Y-1990122D01*
X662324Y-2010122D01*
X642324Y-2030122D01*
X622324Y-2010122D01*
X-112676Y-1785122D02*
X-92676Y-1765122D01*
X-72676Y-1785122D01*
X-92676Y-1805122D01*
X-112676Y-1785122D01*
X-17676Y-1545122D02*
X2324Y-1525122D01*
X22324Y-1545122D01*
X2324Y-1565122D01*
X-17676Y-1545122D01*
X42324Y-1995122D02*
X62324Y-1975122D01*
X82324Y-1995122D01*
X62324Y-2015122D01*
X42324Y-1995122D01*
X-277676Y-1965122D02*
X-257676Y-1945122D01*
X-237676Y-1965122D01*
X-257676Y-1985122D01*
X-277676Y-1965122D01*
X482324Y-2215122D02*
X502324Y-2195122D01*
X522324Y-2215122D01*
X502324Y-2235122D01*
X482324Y-2215122D01*
X467324Y-2025122D02*
X487324Y-2005122D01*
X507324Y-2025122D01*
X487324Y-2045122D01*
X467324Y-2025122D01*
X97324Y-2725122D02*
X117324Y-2705122D01*
X137324Y-2725122D01*
X117324Y-2745122D01*
X97324Y-2725122D01*
X1122324Y-3720122D02*
X1142324Y-3700122D01*
X1162324Y-3720122D01*
X1142324Y-3740122D01*
X1122324Y-3720122D01*
X-217676Y-2080122D02*
X-197676Y-2060122D01*
X-177676Y-2080122D01*
X-197676Y-2100122D01*
X-217676Y-2080122D01*
X1182324Y-2970122D02*
X1202324Y-2950122D01*
X1222324Y-2970122D01*
X1202324Y-2990122D01*
X1182324Y-2970122D01*
X-122676Y-2180122D02*
X-102676Y-2160122D01*
X-82676Y-2180122D01*
X-102676Y-2200122D01*
X-122676Y-2180122D01*
X137324Y-2440122D02*
X157324Y-2420122D01*
X177324Y-2440122D01*
X157324Y-2460122D01*
X137324Y-2440122D01*
X684118Y-1837918D02*
X704118Y-1817918D01*
X724118Y-1837918D01*
X704118Y-1857918D01*
X684118Y-1837918D01*
X682324Y-2568122D02*
X702324Y-2548122D01*
X722324Y-2568122D01*
X702324Y-2588122D01*
X682324Y-2568122D01*
X921378Y-3793622D02*
X941378Y-3773622D01*
X961378Y-3793622D01*
X941378Y-3813622D01*
X921378Y-3793622D01*
X341378Y-2013622D02*
X361378Y-1993622D01*
X381378Y-2013622D01*
X361378Y-2033622D01*
X341378Y-2013622D01*
X41378Y-2063622D02*
X61378Y-2043622D01*
X81378Y-2063622D01*
X61378Y-2083622D01*
X41378Y-2063622D01*
X-434354Y-1820224D02*
X-414354Y-1800224D01*
X-394354Y-1820224D01*
X-414354Y-1840224D01*
X-434354Y-1820224D01*
X961378Y-2063622D02*
X981378Y-2043622D01*
X1001378Y-2063622D01*
X981378Y-2083622D01*
X961378Y-2063622D01*
X911378Y-3673622D02*
X931378Y-3653622D01*
X951378Y-3673622D01*
X931378Y-3693622D01*
X911378Y-3673622D01*
X1244174Y-3641574D02*
X1264174Y-3621574D01*
X1284174Y-3641574D01*
X1264174Y-3661574D01*
X1244174Y-3641574D01*
X-984030Y-7218735D02*
X-964030Y-7198735D01*
X-944030Y-7218735D01*
X-964030Y-7238735D01*
X-984030Y-7218735D01*
X-885605Y-7021885D02*
X-865605Y-7001885D01*
X-845605Y-7021885D01*
X-865605Y-7041885D01*
X-885605Y-7021885D01*
X-984030Y-6825034D02*
X-964030Y-6805034D01*
X-944030Y-6825034D01*
X-964030Y-6845034D01*
X-984030Y-6825034D01*
X-984030Y-6431334D02*
X-964030Y-6411334D01*
X-944030Y-6431334D01*
X-964030Y-6451334D01*
X-984030Y-6431334D01*
X-984030Y-6037633D02*
X-964030Y-6017633D01*
X-944030Y-6037633D01*
X-964030Y-6057633D01*
X-984030Y-6037633D01*
X-984030Y-4069129D02*
X-964030Y-4049129D01*
X-944030Y-4069129D01*
X-964030Y-4089129D01*
X-984030Y-4069129D01*
X-984030Y-3675428D02*
X-964030Y-3655428D01*
X-944030Y-3675428D01*
X-964030Y-3695428D01*
X-984030Y-3675428D01*
X-885605Y-3478578D02*
X-865605Y-3458578D01*
X-845605Y-3478578D01*
X-865605Y-3498578D01*
X-885605Y-3478578D01*
X-885605Y-3084877D02*
X-865605Y-3064877D01*
X-845605Y-3084877D01*
X-865605Y-3104877D01*
X-885605Y-3084877D01*
X-984030Y-2888026D02*
X-964030Y-2868026D01*
X-944030Y-2888026D01*
X-964030Y-2908026D01*
X-984030Y-2888026D01*
X-984030Y-1313223D02*
X-964030Y-1293223D01*
X-944030Y-1313223D01*
X-964030Y-1333223D01*
X-984030Y-1313223D01*
X-885605Y-1116373D02*
X-865605Y-1096373D01*
X-845605Y-1116373D01*
X-865605Y-1136373D01*
X-885605Y-1116373D01*
X-885605Y-328971D02*
X-865605Y-308971D01*
X-845605Y-328971D01*
X-865605Y-348971D01*
X-885605Y-328971D01*
X-984030Y-132121D02*
X-964030Y-112121D01*
X-944030Y-132121D01*
X-964030Y-152121D01*
X-984030Y-132121D01*
X-885605Y64730D02*
X-865605Y84730D01*
X-845605Y64730D01*
X-865605Y44730D01*
X-885605Y64730D01*
X-984030Y261580D02*
X-964030Y281580D01*
X-944030Y261580D01*
X-964030Y241580D01*
X-984030Y261580D01*
X-787180Y-7218735D02*
X-767180Y-7198735D01*
X-747180Y-7218735D01*
X-767180Y-7238735D01*
X-787180Y-7218735D01*
X-688754Y-6628184D02*
X-668754Y-6608184D01*
X-648754Y-6628184D01*
X-668754Y-6648184D01*
X-688754Y-6628184D01*
X-688754Y-5840782D02*
X-668754Y-5820782D01*
X-648754Y-5840782D01*
X-668754Y-5860782D01*
X-688754Y-5840782D01*
X-787180Y-4069129D02*
X-767180Y-4049129D01*
X-747180Y-4069129D01*
X-767180Y-4089129D01*
X-787180Y-4069129D01*
X-688754Y-2297475D02*
X-668754Y-2277475D01*
X-648754Y-2297475D01*
X-668754Y-2317475D01*
X-688754Y-2297475D01*
X-688754Y-1510074D02*
X-668754Y-1490074D01*
X-648754Y-1510074D01*
X-668754Y-1530074D01*
X-688754Y-1510074D01*
X-787180Y-1313223D02*
X-767180Y-1293223D01*
X-747180Y-1313223D01*
X-767180Y-1333223D01*
X-787180Y-1313223D01*
X-688754Y-1116373D02*
X-668754Y-1096373D01*
X-648754Y-1116373D01*
X-668754Y-1136373D01*
X-688754Y-1116373D01*
X-787180Y-919522D02*
X-767180Y-899522D01*
X-747180Y-919522D01*
X-767180Y-939522D01*
X-787180Y-919522D01*
X-688754Y-722672D02*
X-668754Y-702672D01*
X-648754Y-722672D01*
X-668754Y-742672D01*
X-688754Y-722672D01*
X-688754Y-328971D02*
X-668754Y-308971D01*
X-648754Y-328971D01*
X-668754Y-348971D01*
X-688754Y-328971D01*
X-787180Y-132121D02*
X-767180Y-112121D01*
X-747180Y-132121D01*
X-767180Y-152121D01*
X-787180Y-132121D01*
X-688754Y64730D02*
X-668754Y84730D01*
X-648754Y64730D01*
X-668754Y44730D01*
X-688754Y64730D01*
X-787180Y261580D02*
X-767180Y281580D01*
X-747180Y261580D01*
X-767180Y241580D01*
X-787180Y261580D01*
X-590329Y-7218735D02*
X-570329Y-7198735D01*
X-550329Y-7218735D01*
X-570329Y-7238735D01*
X-590329Y-7218735D01*
X-491904Y-7021885D02*
X-471904Y-7001885D01*
X-451904Y-7021885D01*
X-471904Y-7041885D01*
X-491904Y-7021885D01*
X-590329Y-6825034D02*
X-570329Y-6805034D01*
X-550329Y-6825034D01*
X-570329Y-6845034D01*
X-590329Y-6825034D01*
X-491904Y-6628184D02*
X-471904Y-6608184D01*
X-451904Y-6628184D01*
X-471904Y-6648184D01*
X-491904Y-6628184D01*
X-491904Y-5447082D02*
X-471904Y-5427082D01*
X-451904Y-5447082D01*
X-471904Y-5467082D01*
X-491904Y-5447082D01*
X-491904Y-4659680D02*
X-471904Y-4639680D01*
X-451904Y-4659680D01*
X-471904Y-4679680D01*
X-491904Y-4659680D01*
X-491904Y-4265979D02*
X-471904Y-4245979D01*
X-451904Y-4265979D01*
X-471904Y-4285979D01*
X-491904Y-4265979D01*
X-491904Y-3478578D02*
X-471904Y-3458578D01*
X-451904Y-3478578D01*
X-471904Y-3498578D01*
X-491904Y-3478578D01*
X-491904Y-3084877D02*
X-471904Y-3064877D01*
X-451904Y-3084877D01*
X-471904Y-3104877D01*
X-491904Y-3084877D01*
X-491904Y-2691176D02*
X-471904Y-2671176D01*
X-451904Y-2691176D01*
X-471904Y-2711176D01*
X-491904Y-2691176D01*
X-491904Y-2297475D02*
X-471904Y-2277475D01*
X-451904Y-2297475D01*
X-471904Y-2317475D01*
X-491904Y-2297475D01*
X-491904Y-1510074D02*
X-471904Y-1490074D01*
X-451904Y-1510074D01*
X-471904Y-1530074D01*
X-491904Y-1510074D01*
X-491904Y-1116373D02*
X-471904Y-1096373D01*
X-451904Y-1116373D01*
X-471904Y-1136373D01*
X-491904Y-1116373D01*
X-491904Y-722672D02*
X-471904Y-702672D01*
X-451904Y-722672D01*
X-471904Y-742672D01*
X-491904Y-722672D01*
X-491904Y-328971D02*
X-471904Y-308971D01*
X-451904Y-328971D01*
X-471904Y-348971D01*
X-491904Y-328971D01*
X-590329Y-132121D02*
X-570329Y-112121D01*
X-550329Y-132121D01*
X-570329Y-152121D01*
X-590329Y-132121D01*
X-491904Y64730D02*
X-471904Y84730D01*
X-451904Y64730D01*
X-471904Y44730D01*
X-491904Y64730D01*
X-590329Y261580D02*
X-570329Y281580D01*
X-550329Y261580D01*
X-570329Y241580D01*
X-590329Y261580D01*
X-393479Y-7218735D02*
X-373479Y-7198735D01*
X-353479Y-7218735D01*
X-373479Y-7238735D01*
X-393479Y-7218735D01*
X-295054Y-7021885D02*
X-275054Y-7001885D01*
X-255054Y-7021885D01*
X-275054Y-7041885D01*
X-295054Y-7021885D01*
X-393479Y-6825034D02*
X-373479Y-6805034D01*
X-353479Y-6825034D01*
X-373479Y-6845034D01*
X-393479Y-6825034D01*
X-295054Y-6628184D02*
X-275054Y-6608184D01*
X-255054Y-6628184D01*
X-275054Y-6648184D01*
X-295054Y-6628184D01*
X-393479Y-6431334D02*
X-373479Y-6411334D01*
X-353479Y-6431334D01*
X-373479Y-6451334D01*
X-393479Y-6431334D01*
X-295054Y-6234483D02*
X-275054Y-6214483D01*
X-255054Y-6234483D01*
X-275054Y-6254483D01*
X-295054Y-6234483D01*
X-393479Y-5643932D02*
X-373479Y-5623932D01*
X-353479Y-5643932D01*
X-373479Y-5663932D01*
X-393479Y-5643932D01*
X-295054Y-5447082D02*
X-275054Y-5427082D01*
X-255054Y-5447082D01*
X-275054Y-5467082D01*
X-295054Y-5447082D01*
X-393479Y-5250231D02*
X-373479Y-5230231D01*
X-353479Y-5250231D01*
X-373479Y-5270231D01*
X-393479Y-5250231D01*
X-295054Y-4659680D02*
X-275054Y-4639680D01*
X-255054Y-4659680D01*
X-275054Y-4679680D01*
X-295054Y-4659680D01*
X-393479Y-4069129D02*
X-373479Y-4049129D01*
X-353479Y-4069129D01*
X-373479Y-4089129D01*
X-393479Y-4069129D01*
X-295054Y-3872278D02*
X-275054Y-3852278D01*
X-255054Y-3872278D01*
X-275054Y-3892278D01*
X-295054Y-3872278D01*
X-393479Y-3675428D02*
X-373479Y-3655428D01*
X-353479Y-3675428D01*
X-373479Y-3695428D01*
X-393479Y-3675428D01*
X-295054Y-3478578D02*
X-275054Y-3458578D01*
X-255054Y-3478578D01*
X-275054Y-3498578D01*
X-295054Y-3478578D01*
X-393479Y-3281727D02*
X-373479Y-3261727D01*
X-353479Y-3281727D01*
X-373479Y-3301727D01*
X-393479Y-3281727D01*
X-295054Y-3084877D02*
X-275054Y-3064877D01*
X-255054Y-3084877D01*
X-275054Y-3104877D01*
X-295054Y-3084877D01*
X-393479Y-2888026D02*
X-373479Y-2868026D01*
X-353479Y-2888026D01*
X-373479Y-2908026D01*
X-393479Y-2888026D01*
X-295054Y-2691176D02*
X-275054Y-2671176D01*
X-255054Y-2691176D01*
X-275054Y-2711176D01*
X-295054Y-2691176D01*
X-393479Y-2494326D02*
X-373479Y-2474326D01*
X-353479Y-2494326D01*
X-373479Y-2514326D01*
X-393479Y-2494326D01*
X-393479Y-1313223D02*
X-373479Y-1293223D01*
X-353479Y-1313223D01*
X-373479Y-1333223D01*
X-393479Y-1313223D01*
X-393479Y-919522D02*
X-373479Y-899522D01*
X-353479Y-919522D01*
X-373479Y-939522D01*
X-393479Y-919522D01*
X-393479Y-525822D02*
X-373479Y-505822D01*
X-353479Y-525822D01*
X-373479Y-545822D01*
X-393479Y-525822D01*
X-295054Y64730D02*
X-275054Y84730D01*
X-255054Y64730D01*
X-275054Y44730D01*
X-295054Y64730D01*
X-393479Y261580D02*
X-373479Y281580D01*
X-353479Y261580D01*
X-373479Y241580D01*
X-393479Y261580D01*
X-196628Y-7218735D02*
X-176628Y-7198735D01*
X-156628Y-7218735D01*
X-176628Y-7238735D01*
X-196628Y-7218735D01*
X-98203Y-7021885D02*
X-78203Y-7001885D01*
X-58203Y-7021885D01*
X-78203Y-7041885D01*
X-98203Y-7021885D01*
X-196628Y-6825034D02*
X-176628Y-6805034D01*
X-156628Y-6825034D01*
X-176628Y-6845034D01*
X-196628Y-6825034D01*
X-98203Y-6628184D02*
X-78203Y-6608184D01*
X-58203Y-6628184D01*
X-78203Y-6648184D01*
X-98203Y-6628184D01*
X-196628Y-6431334D02*
X-176628Y-6411334D01*
X-156628Y-6431334D01*
X-176628Y-6451334D01*
X-196628Y-6431334D01*
X-98203Y-6234483D02*
X-78203Y-6214483D01*
X-58203Y-6234483D01*
X-78203Y-6254483D01*
X-98203Y-6234483D01*
X-98203Y-4265979D02*
X-78203Y-4245979D01*
X-58203Y-4265979D01*
X-78203Y-4285979D01*
X-98203Y-4265979D01*
X-98203Y-3872278D02*
X-78203Y-3852278D01*
X-58203Y-3872278D01*
X-78203Y-3892278D01*
X-98203Y-3872278D01*
X-98203Y-3478578D02*
X-78203Y-3458578D01*
X-58203Y-3478578D01*
X-78203Y-3498578D01*
X-98203Y-3478578D01*
X-98203Y-3084877D02*
X-78203Y-3064877D01*
X-58203Y-3084877D01*
X-78203Y-3104877D01*
X-98203Y-3084877D01*
X-98203Y-2297475D02*
X-78203Y-2277475D01*
X-58203Y-2297475D01*
X-78203Y-2317475D01*
X-98203Y-2297475D01*
X-98203Y-1116373D02*
X-78203Y-1096373D01*
X-58203Y-1116373D01*
X-78203Y-1136373D01*
X-98203Y-1116373D01*
X-98203Y64730D02*
X-78203Y84730D01*
X-58203Y64730D01*
X-78203Y44730D01*
X-98203Y64730D01*
X-196628Y261580D02*
X-176628Y281580D01*
X-156628Y261580D01*
X-176628Y241580D01*
X-196628Y261580D01*
X222Y-7218735D02*
X20222Y-7198735D01*
X40222Y-7218735D01*
X20222Y-7238735D01*
X222Y-7218735D01*
X222Y-6825034D02*
X20222Y-6805034D01*
X40222Y-6825034D01*
X20222Y-6845034D01*
X222Y-6825034D01*
X98647Y-6628184D02*
X118647Y-6608184D01*
X138647Y-6628184D01*
X118647Y-6648184D01*
X98647Y-6628184D01*
X222Y-6431334D02*
X20222Y-6411334D01*
X40222Y-6431334D01*
X20222Y-6451334D01*
X222Y-6431334D01*
X98647Y-6234483D02*
X118647Y-6214483D01*
X138647Y-6234483D01*
X118647Y-6254483D01*
X98647Y-6234483D01*
X222Y-6037633D02*
X20222Y-6017633D01*
X40222Y-6037633D01*
X20222Y-6057633D01*
X222Y-6037633D01*
X98647Y-5840782D02*
X118647Y-5820782D01*
X138647Y-5840782D01*
X118647Y-5860782D01*
X98647Y-5840782D01*
X222Y-5250231D02*
X20222Y-5230231D01*
X40222Y-5250231D01*
X20222Y-5270231D01*
X222Y-5250231D01*
X98647Y-3872278D02*
X118647Y-3852278D01*
X138647Y-3872278D01*
X118647Y-3892278D01*
X98647Y-3872278D01*
X98647Y-3478578D02*
X118647Y-3458578D01*
X138647Y-3478578D01*
X118647Y-3498578D01*
X98647Y-3478578D01*
X98647Y-3084877D02*
X118647Y-3064877D01*
X138647Y-3084877D01*
X118647Y-3104877D01*
X98647Y-3084877D01*
X222Y-1313223D02*
X20222Y-1293223D01*
X40222Y-1313223D01*
X20222Y-1333223D01*
X222Y-1313223D01*
X222Y-919522D02*
X20222Y-899522D01*
X40222Y-919522D01*
X20222Y-939522D01*
X222Y-919522D01*
X222Y261580D02*
X20222Y281580D01*
X40222Y261580D01*
X20222Y241580D01*
X222Y261580D01*
X197072Y-7218735D02*
X217072Y-7198735D01*
X237072Y-7218735D01*
X217072Y-7238735D01*
X197072Y-7218735D01*
X295498Y-7021885D02*
X315498Y-7001885D01*
X335498Y-7021885D01*
X315498Y-7041885D01*
X295498Y-7021885D01*
X197072Y-6825034D02*
X217072Y-6805034D01*
X237072Y-6825034D01*
X217072Y-6845034D01*
X197072Y-6825034D01*
X295498Y-6628184D02*
X315498Y-6608184D01*
X335498Y-6628184D01*
X315498Y-6648184D01*
X295498Y-6628184D01*
X197072Y-6431334D02*
X217072Y-6411334D01*
X237072Y-6431334D01*
X217072Y-6451334D01*
X197072Y-6431334D01*
X295498Y-6234483D02*
X315498Y-6214483D01*
X335498Y-6234483D01*
X315498Y-6254483D01*
X295498Y-6234483D01*
X197072Y-6037633D02*
X217072Y-6017633D01*
X237072Y-6037633D01*
X217072Y-6057633D01*
X197072Y-6037633D01*
X295498Y-5840782D02*
X315498Y-5820782D01*
X335498Y-5840782D01*
X315498Y-5860782D01*
X295498Y-5840782D01*
X197072Y261580D02*
X217072Y281580D01*
X237072Y261580D01*
X217072Y241580D01*
X197072Y261580D01*
X393923Y-7218735D02*
X413923Y-7198735D01*
X433923Y-7218735D01*
X413923Y-7238735D01*
X393923Y-7218735D01*
X492348Y-7021885D02*
X512348Y-7001885D01*
X532348Y-7021885D01*
X512348Y-7041885D01*
X492348Y-7021885D01*
X393923Y-6825034D02*
X413923Y-6805034D01*
X433923Y-6825034D01*
X413923Y-6845034D01*
X393923Y-6825034D01*
X492348Y-6628184D02*
X512348Y-6608184D01*
X532348Y-6628184D01*
X512348Y-6648184D01*
X492348Y-6628184D01*
X393923Y-6431334D02*
X413923Y-6411334D01*
X433923Y-6431334D01*
X413923Y-6451334D01*
X393923Y-6431334D01*
X492348Y-6234483D02*
X512348Y-6214483D01*
X532348Y-6234483D01*
X512348Y-6254483D01*
X492348Y-6234483D01*
X393923Y-6037633D02*
X413923Y-6017633D01*
X433923Y-6037633D01*
X413923Y-6057633D01*
X393923Y-6037633D01*
X492348Y-5840782D02*
X512348Y-5820782D01*
X532348Y-5840782D01*
X512348Y-5860782D01*
X492348Y-5840782D01*
X393923Y-5643932D02*
X413923Y-5623932D01*
X433923Y-5643932D01*
X413923Y-5663932D01*
X393923Y-5643932D01*
X492348Y-5447082D02*
X512348Y-5427082D01*
X532348Y-5447082D01*
X512348Y-5467082D01*
X492348Y-5447082D01*
X492348Y-5053381D02*
X512348Y-5033381D01*
X532348Y-5053381D01*
X512348Y-5073381D01*
X492348Y-5053381D01*
X492348Y-4659680D02*
X512348Y-4639680D01*
X532348Y-4659680D01*
X512348Y-4679680D01*
X492348Y-4659680D01*
X492348Y-4265979D02*
X512348Y-4245979D01*
X532348Y-4265979D01*
X512348Y-4285979D01*
X492348Y-4265979D01*
X492348Y-3872278D02*
X512348Y-3852278D01*
X532348Y-3872278D01*
X512348Y-3892278D01*
X492348Y-3872278D01*
X492348Y-3478578D02*
X512348Y-3458578D01*
X532348Y-3478578D01*
X512348Y-3498578D01*
X492348Y-3478578D01*
X492348Y-3084877D02*
X512348Y-3064877D01*
X532348Y-3084877D01*
X512348Y-3104877D01*
X492348Y-3084877D01*
X492348Y-2297475D02*
X512348Y-2277475D01*
X532348Y-2297475D01*
X512348Y-2317475D01*
X492348Y-2297475D01*
X492348Y-1510074D02*
X512348Y-1490074D01*
X532348Y-1510074D01*
X512348Y-1530074D01*
X492348Y-1510074D01*
X492348Y-1116373D02*
X512348Y-1096373D01*
X532348Y-1116373D01*
X512348Y-1136373D01*
X492348Y-1116373D01*
X492348Y-722672D02*
X512348Y-702672D01*
X532348Y-722672D01*
X512348Y-742672D01*
X492348Y-722672D01*
X492348Y-328971D02*
X512348Y-308971D01*
X532348Y-328971D01*
X512348Y-348971D01*
X492348Y-328971D01*
X393923Y261580D02*
X413923Y281580D01*
X433923Y261580D01*
X413923Y241580D01*
X393923Y261580D01*
X590773Y-7218735D02*
X610773Y-7198735D01*
X630773Y-7218735D01*
X610773Y-7238735D01*
X590773Y-7218735D01*
X689198Y-7021885D02*
X709198Y-7001885D01*
X729198Y-7021885D01*
X709198Y-7041885D01*
X689198Y-7021885D01*
X590773Y-6825034D02*
X610773Y-6805034D01*
X630773Y-6825034D01*
X610773Y-6845034D01*
X590773Y-6825034D01*
X689198Y-6628184D02*
X709198Y-6608184D01*
X729198Y-6628184D01*
X709198Y-6648184D01*
X689198Y-6628184D01*
X590773Y-6431334D02*
X610773Y-6411334D01*
X630773Y-6431334D01*
X610773Y-6451334D01*
X590773Y-6431334D01*
X689198Y-6234483D02*
X709198Y-6214483D01*
X729198Y-6234483D01*
X709198Y-6254483D01*
X689198Y-6234483D01*
X590773Y-6037633D02*
X610773Y-6017633D01*
X630773Y-6037633D01*
X610773Y-6057633D01*
X590773Y-6037633D01*
X689198Y-5840782D02*
X709198Y-5820782D01*
X729198Y-5840782D01*
X709198Y-5860782D01*
X689198Y-5840782D01*
X590773Y-5643932D02*
X610773Y-5623932D01*
X630773Y-5643932D01*
X610773Y-5663932D01*
X590773Y-5643932D01*
X689198Y-5447082D02*
X709198Y-5427082D01*
X729198Y-5447082D01*
X709198Y-5467082D01*
X689198Y-5447082D01*
X689198Y-4659680D02*
X709198Y-4639680D01*
X729198Y-4659680D01*
X709198Y-4679680D01*
X689198Y-4659680D01*
X689198Y-4265979D02*
X709198Y-4245979D01*
X729198Y-4265979D01*
X709198Y-4285979D01*
X689198Y-4265979D01*
X689198Y-3478578D02*
X709198Y-3458578D01*
X729198Y-3478578D01*
X709198Y-3498578D01*
X689198Y-3478578D01*
X689198Y-3084877D02*
X709198Y-3064877D01*
X729198Y-3084877D01*
X709198Y-3104877D01*
X689198Y-3084877D01*
X590773Y-1706924D02*
X610773Y-1686924D01*
X630773Y-1706924D01*
X610773Y-1726924D01*
X590773Y-1706924D01*
X689198Y-1116373D02*
X709198Y-1096373D01*
X729198Y-1116373D01*
X709198Y-1136373D01*
X689198Y-1116373D01*
X590773Y-919522D02*
X610773Y-899522D01*
X630773Y-919522D01*
X610773Y-939522D01*
X590773Y-919522D01*
X689198Y-722672D02*
X709198Y-702672D01*
X729198Y-722672D01*
X709198Y-742672D01*
X689198Y-722672D01*
X590773Y-525822D02*
X610773Y-505822D01*
X630773Y-525822D01*
X610773Y-545822D01*
X590773Y-525822D01*
X689198Y-328971D02*
X709198Y-308971D01*
X729198Y-328971D01*
X709198Y-348971D01*
X689198Y-328971D01*
X590773Y261580D02*
X610773Y281580D01*
X630773Y261580D01*
X610773Y241580D01*
X590773Y261580D01*
X787624Y-7218735D02*
X807624Y-7198735D01*
X827624Y-7218735D01*
X807624Y-7238735D01*
X787624Y-7218735D01*
X787624Y-6825034D02*
X807624Y-6805034D01*
X827624Y-6825034D01*
X807624Y-6845034D01*
X787624Y-6825034D01*
X886049Y-6628184D02*
X906049Y-6608184D01*
X926049Y-6628184D01*
X906049Y-6648184D01*
X886049Y-6628184D01*
X787624Y-6431334D02*
X807624Y-6411334D01*
X827624Y-6431334D01*
X807624Y-6451334D01*
X787624Y-6431334D01*
X886049Y-6234483D02*
X906049Y-6214483D01*
X926049Y-6234483D01*
X906049Y-6254483D01*
X886049Y-6234483D01*
X787624Y-6037633D02*
X807624Y-6017633D01*
X827624Y-6037633D01*
X807624Y-6057633D01*
X787624Y-6037633D01*
X886049Y-5840782D02*
X906049Y-5820782D01*
X926049Y-5840782D01*
X906049Y-5860782D01*
X886049Y-5840782D01*
X787624Y-5643932D02*
X807624Y-5623932D01*
X827624Y-5643932D01*
X807624Y-5663932D01*
X787624Y-5643932D01*
X886049Y-5447082D02*
X906049Y-5427082D01*
X926049Y-5447082D01*
X906049Y-5467082D01*
X886049Y-5447082D01*
X787624Y-5250231D02*
X807624Y-5230231D01*
X827624Y-5250231D01*
X807624Y-5270231D01*
X787624Y-5250231D01*
X886049Y-5053381D02*
X906049Y-5033381D01*
X926049Y-5053381D01*
X906049Y-5073381D01*
X886049Y-5053381D01*
X787624Y-4462830D02*
X807624Y-4442830D01*
X827624Y-4462830D01*
X807624Y-4482830D01*
X787624Y-4462830D01*
X787624Y-4069129D02*
X807624Y-4049129D01*
X827624Y-4069129D01*
X807624Y-4089129D01*
X787624Y-4069129D01*
X787624Y-3675428D02*
X807624Y-3655428D01*
X827624Y-3675428D01*
X807624Y-3695428D01*
X787624Y-3675428D01*
X787624Y-3281727D02*
X807624Y-3261727D01*
X827624Y-3281727D01*
X807624Y-3301727D01*
X787624Y-3281727D01*
X787624Y-2888026D02*
X807624Y-2868026D01*
X827624Y-2888026D01*
X807624Y-2908026D01*
X787624Y-2888026D01*
X886049Y-2297475D02*
X906049Y-2277475D01*
X926049Y-2297475D01*
X906049Y-2317475D01*
X886049Y-2297475D01*
X787624Y-1706924D02*
X807624Y-1686924D01*
X827624Y-1706924D01*
X807624Y-1726924D01*
X787624Y-1706924D01*
X886049Y-1510074D02*
X906049Y-1490074D01*
X926049Y-1510074D01*
X906049Y-1530074D01*
X886049Y-1510074D01*
X787624Y-1313223D02*
X807624Y-1293223D01*
X827624Y-1313223D01*
X807624Y-1333223D01*
X787624Y-1313223D01*
X886049Y-1116373D02*
X906049Y-1096373D01*
X926049Y-1116373D01*
X906049Y-1136373D01*
X886049Y-1116373D01*
X787624Y-919522D02*
X807624Y-899522D01*
X827624Y-919522D01*
X807624Y-939522D01*
X787624Y-919522D01*
X886049Y-722672D02*
X906049Y-702672D01*
X926049Y-722672D01*
X906049Y-742672D01*
X886049Y-722672D01*
X787624Y-525822D02*
X807624Y-505822D01*
X827624Y-525822D01*
X807624Y-545822D01*
X787624Y-525822D01*
X886049Y-328971D02*
X906049Y-308971D01*
X926049Y-328971D01*
X906049Y-348971D01*
X886049Y-328971D01*
X787624Y-132121D02*
X807624Y-112121D01*
X827624Y-132121D01*
X807624Y-152121D01*
X787624Y-132121D01*
X886049Y64730D02*
X906049Y84730D01*
X926049Y64730D01*
X906049Y44730D01*
X886049Y64730D01*
X787624Y261580D02*
X807624Y281580D01*
X827624Y261580D01*
X807624Y241580D01*
X787624Y261580D01*
X984474Y-7218735D02*
X1004474Y-7198735D01*
X1024474Y-7218735D01*
X1004474Y-7238735D01*
X984474Y-7218735D01*
X1082899Y-7021885D02*
X1102899Y-7001885D01*
X1122899Y-7021885D01*
X1102899Y-7041885D01*
X1082899Y-7021885D01*
X984474Y-6825034D02*
X1004474Y-6805034D01*
X1024474Y-6825034D01*
X1004474Y-6845034D01*
X984474Y-6825034D01*
X984474Y-4069129D02*
X1004474Y-4049129D01*
X1024474Y-4069129D01*
X1004474Y-4089129D01*
X984474Y-4069129D01*
X984474Y-2494326D02*
X1004474Y-2474326D01*
X1024474Y-2494326D01*
X1004474Y-2514326D01*
X984474Y-2494326D01*
X984474Y-1313223D02*
X1004474Y-1293223D01*
X1024474Y-1313223D01*
X1004474Y-1333223D01*
X984474Y-1313223D01*
X1082899Y-1116373D02*
X1102899Y-1096373D01*
X1122899Y-1116373D01*
X1102899Y-1136373D01*
X1082899Y-1116373D01*
X984474Y-919522D02*
X1004474Y-899522D01*
X1024474Y-919522D01*
X1004474Y-939522D01*
X984474Y-919522D01*
X1082899Y-722672D02*
X1102899Y-702672D01*
X1122899Y-722672D01*
X1102899Y-742672D01*
X1082899Y-722672D01*
X1082899Y-328971D02*
X1102899Y-308971D01*
X1122899Y-328971D01*
X1102899Y-348971D01*
X1082899Y-328971D01*
X984474Y-132121D02*
X1004474Y-112121D01*
X1024474Y-132121D01*
X1004474Y-152121D01*
X984474Y-132121D01*
X1082899Y64730D02*
X1102899Y84730D01*
X1122899Y64730D01*
X1102899Y44730D01*
X1082899Y64730D01*
X1181324Y-7218735D02*
X1201324Y-7198735D01*
X1221324Y-7218735D01*
X1201324Y-7238735D01*
X1181324Y-7218735D01*
X1279750Y-7021885D02*
X1299750Y-7001885D01*
X1319750Y-7021885D01*
X1299750Y-7041885D01*
X1279750Y-7021885D01*
X1181324Y-6825034D02*
X1201324Y-6805034D01*
X1221324Y-6825034D01*
X1201324Y-6845034D01*
X1181324Y-6825034D01*
X1279750Y-6628184D02*
X1299750Y-6608184D01*
X1319750Y-6628184D01*
X1299750Y-6648184D01*
X1279750Y-6628184D01*
X1279750Y-6234483D02*
X1299750Y-6214483D01*
X1319750Y-6234483D01*
X1299750Y-6254483D01*
X1279750Y-6234483D01*
X1279750Y-5840782D02*
X1299750Y-5820782D01*
X1319750Y-5840782D01*
X1299750Y-5860782D01*
X1279750Y-5840782D01*
X1279750Y-5053381D02*
X1299750Y-5033381D01*
X1319750Y-5053381D01*
X1299750Y-5073381D01*
X1279750Y-5053381D01*
X1279750Y-722672D02*
X1299750Y-702672D01*
X1319750Y-722672D01*
X1299750Y-742672D01*
X1279750Y-722672D01*
X1181324Y-525822D02*
X1201324Y-505822D01*
X1221324Y-525822D01*
X1201324Y-545822D01*
X1181324Y-525822D01*
X1279750Y-328971D02*
X1299750Y-308971D01*
X1319750Y-328971D01*
X1299750Y-348971D01*
X1279750Y-328971D01*
X1181324Y-132121D02*
X1201324Y-112121D01*
X1221324Y-132121D01*
X1201324Y-152121D01*
X1181324Y-132121D01*
X1279750Y64730D02*
X1299750Y84730D01*
X1319750Y64730D01*
X1299750Y44730D01*
X1279750Y64730D01*
D94*
X-941811Y-2776618D02*
G03*
X-941811Y-2776618I-20000J0D01*
G01*
X-941811Y-2676618D02*
G03*
X-941811Y-2676618I-20000J0D01*
G01*
X-941811Y-2576618D02*
G03*
X-941811Y-2576618I-20000J0D01*
G01*
X-941811Y-2476618D02*
G03*
X-941811Y-2476618I-20000J0D01*
G01*
X-941811Y-2376618D02*
G03*
X-941811Y-2376618I-20000J0D01*
G01*
X-941811Y-2276618D02*
G03*
X-941811Y-2276618I-20000J0D01*
G01*
X-941811Y-2176618D02*
G03*
X-941811Y-2176618I-20000J0D01*
G01*
X-941811Y-2076618D02*
G03*
X-941811Y-2076618I-20000J0D01*
G01*
X-941811Y-1976618D02*
G03*
X-941811Y-1976618I-20000J0D01*
G01*
X-941811Y-1876618D02*
G03*
X-941811Y-1876618I-20000J0D01*
G01*
X-941811Y-1776618D02*
G03*
X-941811Y-1776618I-20000J0D01*
G01*
X-941811Y-1676618D02*
G03*
X-941811Y-1676618I-20000J0D01*
G01*
X-941811Y-1576618D02*
G03*
X-941811Y-1576618I-20000J0D01*
G01*
X-941811Y-1476618D02*
G03*
X-941811Y-1476618I-20000J0D01*
G01*
X-941811Y-1376618D02*
G03*
X-941811Y-1376618I-20000J0D01*
G01*
X-841811Y-2776618D02*
G03*
X-841811Y-2776618I-20000J0D01*
G01*
X-841811Y-2676618D02*
G03*
X-841811Y-2676618I-20000J0D01*
G01*
X-841811Y-2576618D02*
G03*
X-841811Y-2576618I-20000J0D01*
G01*
X-841811Y-2476618D02*
G03*
X-841811Y-2476618I-20000J0D01*
G01*
X-841811Y-2376618D02*
G03*
X-841811Y-2376618I-20000J0D01*
G01*
X-841811Y-2276618D02*
G03*
X-841811Y-2276618I-20000J0D01*
G01*
X-841811Y-2176618D02*
G03*
X-841811Y-2176618I-20000J0D01*
G01*
X-841811Y-2076618D02*
G03*
X-841811Y-2076618I-20000J0D01*
G01*
X-841811Y-1976618D02*
G03*
X-841811Y-1976618I-20000J0D01*
G01*
X-841811Y-1876618D02*
G03*
X-841811Y-1876618I-20000J0D01*
G01*
X-841811Y-1776618D02*
G03*
X-841811Y-1776618I-20000J0D01*
G01*
X-841811Y-1676618D02*
G03*
X-841811Y-1676618I-20000J0D01*
G01*
X-841811Y-1576618D02*
G03*
X-841811Y-1576618I-20000J0D01*
G01*
X-841811Y-1476618D02*
G03*
X-841811Y-1476618I-20000J0D01*
G01*
X-841811Y-1376618D02*
G03*
X-841811Y-1376618I-20000J0D01*
G01*
X1284173Y-1376618D02*
G03*
X1284173Y-1376618I-20000J0D01*
G01*
X1284173Y-1476618D02*
G03*
X1284173Y-1476618I-20000J0D01*
G01*
X1284173Y-1576618D02*
G03*
X1284173Y-1576618I-20000J0D01*
G01*
X1284173Y-1676618D02*
G03*
X1284173Y-1676618I-20000J0D01*
G01*
X1284173Y-1776618D02*
G03*
X1284173Y-1776618I-20000J0D01*
G01*
X1284173Y-1876618D02*
G03*
X1284173Y-1876618I-20000J0D01*
G01*
X1284173Y-1976618D02*
G03*
X1284173Y-1976618I-20000J0D01*
G01*
X1284173Y-2076618D02*
G03*
X1284173Y-2076618I-20000J0D01*
G01*
X1284173Y-2176618D02*
G03*
X1284173Y-2176618I-20000J0D01*
G01*
X1284173Y-2276618D02*
G03*
X1284173Y-2276618I-20000J0D01*
G01*
X1284173Y-2376618D02*
G03*
X1284173Y-2376618I-20000J0D01*
G01*
X1284173Y-2476618D02*
G03*
X1284173Y-2476618I-20000J0D01*
G01*
X1284173Y-2576618D02*
G03*
X1284173Y-2576618I-20000J0D01*
G01*
X1284173Y-2676618D02*
G03*
X1284173Y-2676618I-20000J0D01*
G01*
X1284173Y-2776618D02*
G03*
X1284173Y-2776618I-20000J0D01*
G01*
X1184173Y-1376618D02*
G03*
X1184173Y-1376618I-20000J0D01*
G01*
X1184173Y-1476618D02*
G03*
X1184173Y-1476618I-20000J0D01*
G01*
X1184173Y-1576618D02*
G03*
X1184173Y-1576618I-20000J0D01*
G01*
X1184173Y-1676618D02*
G03*
X1184173Y-1676618I-20000J0D01*
G01*
X1184173Y-1776618D02*
G03*
X1184173Y-1776618I-20000J0D01*
G01*
X1184173Y-1876618D02*
G03*
X1184173Y-1876618I-20000J0D01*
G01*
X1184173Y-1976618D02*
G03*
X1184173Y-1976618I-20000J0D01*
G01*
X1184173Y-2076618D02*
G03*
X1184173Y-2076618I-20000J0D01*
G01*
X1184173Y-2176618D02*
G03*
X1184173Y-2176618I-20000J0D01*
G01*
X1184173Y-2276618D02*
G03*
X1184173Y-2276618I-20000J0D01*
G01*
X1184173Y-2376618D02*
G03*
X1184173Y-2376618I-20000J0D01*
G01*
X1184173Y-2476618D02*
G03*
X1184173Y-2476618I-20000J0D01*
G01*
X1184173Y-2576618D02*
G03*
X1184173Y-2576618I-20000J0D01*
G01*
X1184173Y-2676618D02*
G03*
X1184173Y-2676618I-20000J0D01*
G01*
X1184173Y-2776618D02*
G03*
X1184173Y-2776618I-20000J0D01*
G01*
%TF.MD5,c5d686de5ceca3e75f9e6a7e33d43e7b*%
M02*
