G04 Layer_Color=128*
%FSLAX26Y26*%
%MOIN*%
%TF.FileFunction,Paste,Bot*%
%TF.Part,Single*%
G01*
G75*
%TA.AperFunction,SMDPad,CuDef*%
%ADD11R,0.051181X0.033465*%
%ADD19O,0.072835X0.013780*%
%ADD45R,0.053150X0.037402*%
D11*
X-1080000Y-4828465D02*
D03*
X-1080000Y-4761535D02*
D03*
X-1075000Y-5348465D02*
D03*
X-1075000Y-5281535D02*
D03*
X-1090000Y-5648465D02*
D03*
X-1090000Y-5581535D02*
D03*
X-1070000Y-4208465D02*
D03*
X-1070000Y-4141535D02*
D03*
X-1075000Y-5086845D02*
D03*
X-1075000Y-5019916D02*
D03*
X-1068622Y-4480158D02*
D03*
X-1068622Y-4547086D02*
D03*
D19*
X1041166Y-3946688D02*
D03*
X1041166Y-3921098D02*
D03*
X1041166Y-3895508D02*
D03*
X1041166Y-3869918D02*
D03*
X1041166Y-3844326D02*
D03*
X1041166Y-3818736D02*
D03*
X1041166Y-3793146D02*
D03*
X1041166Y-3767556D02*
D03*
X1271482Y-3946688D02*
D03*
X1271482Y-3921098D02*
D03*
X1271482Y-3895508D02*
D03*
X1271482Y-3869918D02*
D03*
X1271482Y-3844326D02*
D03*
X1271482Y-3818736D02*
D03*
X1271482Y-3793146D02*
D03*
X1271482Y-3767556D02*
D03*
D45*
X-988622Y-5582126D02*
D03*
X-988622Y-5645118D02*
D03*
X-988622Y-5282126D02*
D03*
X-988622Y-5345118D02*
D03*
X-988622Y-5022126D02*
D03*
X-988622Y-5085118D02*
D03*
X-988622Y-4482126D02*
D03*
X-988622Y-4545118D02*
D03*
X-988622Y-4762126D02*
D03*
X-988622Y-4825118D02*
D03*
X-988622Y-4142126D02*
D03*
X-988622Y-4205118D02*
D03*
%TF.MD5,7acd68849762b06bc72125687aaf486e*%
M02*
