G04 Layer_Color=8421504*
%FSLAX26Y26*%
%MOIN*%
%TF.FileFunction,Paste,Top*%
%TF.Part,Single*%
G01*
G75*
%TA.AperFunction,SMDPad,CuDef*%
%ADD10R,0.021654X0.017716*%
%ADD11R,0.051181X0.033465*%
G04:AMPARAMS|DCode=12|XSize=25.591mil|YSize=47.244mil|CornerRadius=1.919mil|HoleSize=0mil|Usage=FLASHONLY|Rotation=90.000|XOffset=0mil|YOffset=0mil|HoleType=Round|Shape=RoundedRectangle|*
%AMROUNDEDRECTD12*
21,1,0.025591,0.043406,0,0,90.0*
21,1,0.021752,0.047244,0,0,90.0*
1,1,0.003839,0.021703,0.010876*
1,1,0.003839,0.021703,-0.010876*
1,1,0.003839,-0.021703,-0.010876*
1,1,0.003839,-0.021703,0.010876*
%
%ADD12ROUNDEDRECTD12*%
%ADD13R,0.017716X0.021654*%
%ADD14R,0.057087X0.045276*%
%ADD15R,0.045276X0.057087*%
%ADD16R,0.037402X0.053150*%
G04:AMPARAMS|DCode=17|XSize=21.654mil|YSize=49.213mil|CornerRadius=1.949mil|HoleSize=0mil|Usage=FLASHONLY|Rotation=90.000|XOffset=0mil|YOffset=0mil|HoleType=Round|Shape=RoundedRectangle|*
%AMROUNDEDRECTD17*
21,1,0.021654,0.045315,0,0,90.0*
21,1,0.017756,0.049213,0,0,90.0*
1,1,0.003898,0.022657,0.008878*
1,1,0.003898,0.022657,-0.008878*
1,1,0.003898,-0.022657,-0.008878*
1,1,0.003898,-0.022657,0.008878*
%
%ADD17ROUNDEDRECTD17*%
%ADD18O,0.057087X0.009842*%
%ADD19O,0.072835X0.013780*%
%ADD20R,0.039370X0.023622*%
%ADD21R,0.020472X0.020472*%
D10*
X525000Y-1962716D02*
D03*
X525000Y-1927283D02*
D03*
X485000Y-1927284D02*
D03*
X485000Y-1962717D02*
D03*
X-80000Y-1962716D02*
D03*
X-80000Y-1927283D02*
D03*
X-120000Y-1927284D02*
D03*
X-120000Y-1962717D02*
D03*
X-162676Y-1962716D02*
D03*
X-162676Y-1927283D02*
D03*
X15000Y-2529202D02*
D03*
X15000Y-2564635D02*
D03*
X-40000Y-1962716D02*
D03*
X-40000Y-1927283D02*
D03*
X0Y-1927284D02*
D03*
X0Y-1962717D02*
D03*
X445434Y-1962716D02*
D03*
X445434Y-1927283D02*
D03*
X570000Y-1962716D02*
D03*
X570000Y-1927283D02*
D03*
X607324Y-1962838D02*
D03*
X607324Y-1927406D02*
D03*
X407324Y-1962838D02*
D03*
X407324Y-1927406D02*
D03*
X14196Y-2640658D02*
D03*
X14196Y-2605224D02*
D03*
X-25804Y-2710658D02*
D03*
X-25804Y-2675224D02*
D03*
X14196Y-2675224D02*
D03*
X14196Y-2710658D02*
D03*
X-203819Y-1962716D02*
D03*
X-203819Y-1927284D02*
D03*
D11*
X0Y-4848465D02*
D03*
X0Y-4781535D02*
D03*
X-20000Y-4568465D02*
D03*
X-20000Y-4501535D02*
D03*
X-495000Y-5143465D02*
D03*
X-495000Y-5076535D02*
D03*
X-40000Y-5161535D02*
D03*
X-40000Y-5228465D02*
D03*
X-490000Y-4573465D02*
D03*
X-490000Y-4506535D02*
D03*
X-468622Y-4800158D02*
D03*
X-468622Y-4867086D02*
D03*
D12*
X-286929Y-5067598D02*
D03*
X-286929Y-5142401D02*
D03*
X-403071Y-5142401D02*
D03*
X-403071Y-5105000D02*
D03*
X-403071Y-5067598D02*
D03*
X194017Y-4792598D02*
D03*
X194017Y-4867401D02*
D03*
X77875Y-4867401D02*
D03*
X77875Y-4830000D02*
D03*
X77875Y-4792598D02*
D03*
X182049Y-5080315D02*
D03*
X182049Y-5155118D02*
D03*
X65907Y-5155118D02*
D03*
X65907Y-5117717D02*
D03*
X65907Y-5080315D02*
D03*
X-266929Y-4486220D02*
D03*
X-266929Y-4561024D02*
D03*
X-383071Y-4561024D02*
D03*
X-383071Y-4523622D02*
D03*
X-383071Y-4486220D02*
D03*
X-381692Y-4786220D02*
D03*
X-381692Y-4823622D02*
D03*
X-381692Y-4861024D02*
D03*
X-265550Y-4861024D02*
D03*
X-265550Y-4786220D02*
D03*
X77875Y-4492598D02*
D03*
X77875Y-4530000D02*
D03*
X77875Y-4567402D02*
D03*
X194017Y-4567402D02*
D03*
X194017Y-4492598D02*
D03*
D13*
X1211024Y245276D02*
D03*
X1175591Y245276D02*
D03*
D14*
X-168622Y-4788188D02*
D03*
X-168622Y-4859054D02*
D03*
X-168622Y-5114567D02*
D03*
X-168622Y-5185433D02*
D03*
X7324Y-2190556D02*
D03*
X7324Y-2119688D02*
D03*
X387324Y-2240556D02*
D03*
X387324Y-2169688D02*
D03*
D15*
X-253188Y-4383622D02*
D03*
X-324054Y-4383622D02*
D03*
X216812Y-4993622D02*
D03*
X145946Y-4993622D02*
D03*
X206812Y-4683622D02*
D03*
X135946Y-4683622D02*
D03*
X216812Y-4383622D02*
D03*
X145946Y-4383622D02*
D03*
D16*
X1072600Y243386D02*
D03*
X1009608Y243386D02*
D03*
D17*
X123978Y-2520122D02*
D03*
X123978Y-2570122D02*
D03*
X123978Y-2620122D02*
D03*
X123978Y-2670122D02*
D03*
X330670Y-2520122D02*
D03*
X330670Y-2570122D02*
D03*
X330670Y-2620122D02*
D03*
X330670Y-2670122D02*
D03*
D18*
X134472Y-2083570D02*
D03*
X134472Y-2103256D02*
D03*
X134472Y-2122940D02*
D03*
X134472Y-2142626D02*
D03*
X134472Y-2162310D02*
D03*
X293922Y-2083570D02*
D03*
X293922Y-2103256D02*
D03*
X293922Y-2122940D02*
D03*
X293922Y-2142626D02*
D03*
X293922Y-2162310D02*
D03*
D19*
X82166Y-1735556D02*
D03*
X82166Y-1761146D02*
D03*
X82166Y-1786736D02*
D03*
X82166Y-1812326D02*
D03*
X82166Y-1837918D02*
D03*
X82166Y-1863508D02*
D03*
X82166Y-1889098D02*
D03*
X82166Y-1914688D02*
D03*
X312482Y-1735556D02*
D03*
X312482Y-1761146D02*
D03*
X312482Y-1786736D02*
D03*
X312482Y-1812326D02*
D03*
X312482Y-1837918D02*
D03*
X312482Y-1863508D02*
D03*
X312482Y-1889098D02*
D03*
X312482Y-1914688D02*
D03*
D20*
X268330Y-2305538D02*
D03*
X268330Y-2342940D02*
D03*
X268330Y-2380342D02*
D03*
X160062Y-2380342D02*
D03*
X160062Y-2342940D02*
D03*
X160062Y-2305538D02*
D03*
D21*
X377324Y-2340870D02*
D03*
X377324Y-2309374D02*
D03*
X87324Y-2340870D02*
D03*
X87324Y-2309374D02*
D03*
%TF.MD5,086a65eaa58d00d5bf02b6553c772659*%
M02*
