G04 Layer_Color=8421376*
%FSLAX26Y26*%
%MOIN*%
%TF.FileFunction,Other,Mechanical_1*%
%TF.Part,Single*%
G01*
G75*
%TA.AperFunction,NonConductor*%
%ADD43C,0.007874*%
%ADD48C,0.010000*%
%ADD85C,0.006000*%
D43*
X580000Y-4070643D02*
X580000Y-4110000D01*
X599679Y-4110000D01*
X606238Y-4103440D01*
X606238Y-4096881D01*
X599679Y-4090321D01*
X580000Y-4090321D01*
X599679Y-4090321D01*
X606238Y-4083762D01*
X606238Y-4077202D01*
X599679Y-4070643D01*
X580000Y-4070643D01*
X619357Y-4070643D02*
X619357Y-4110000D01*
X639036Y-4110000D01*
X645596Y-4103440D01*
X645596Y-4096881D01*
X639036Y-4090321D01*
X619357Y-4090321D01*
X639036Y-4090321D01*
X645596Y-4083762D01*
X645596Y-4077202D01*
X639036Y-4070643D01*
X619357Y-4070643D01*
X658715Y-4070643D02*
X658715Y-4110000D01*
X678394Y-4110000D01*
X684953Y-4103440D01*
X684953Y-4096881D01*
X678394Y-4090321D01*
X658715Y-4090321D01*
X678394Y-4090321D01*
X684953Y-4083762D01*
X684953Y-4077202D01*
X678394Y-4070643D01*
X658715Y-4070643D01*
X737430Y-4110000D02*
X737430Y-4070643D01*
X757108Y-4070643D01*
X763668Y-4077202D01*
X763668Y-4090321D01*
X757108Y-4096881D01*
X737430Y-4096881D01*
X783347Y-4110000D02*
X796466Y-4110000D01*
X803025Y-4103440D01*
X803025Y-4090321D01*
X796466Y-4083762D01*
X783347Y-4083762D01*
X776787Y-4090321D01*
X776787Y-4103440D01*
X783347Y-4110000D01*
X816144Y-4110000D02*
X835823Y-4110000D01*
X842383Y-4103440D01*
X835823Y-4096881D01*
X822704Y-4096881D01*
X816144Y-4090321D01*
X822704Y-4083762D01*
X842383Y-4083762D01*
X855502Y-4110000D02*
X868621Y-4110000D01*
X862061Y-4110000D01*
X862061Y-4083762D01*
X855502Y-4083762D01*
X894859Y-4077202D02*
X894859Y-4083762D01*
X888300Y-4083762D01*
X901419Y-4083762D01*
X894859Y-4083762D01*
X894859Y-4103440D01*
X901419Y-4110000D01*
X921097Y-4110000D02*
X934216Y-4110000D01*
X927657Y-4110000D01*
X927657Y-4083762D01*
X921097Y-4083762D01*
X960455Y-4110000D02*
X973574Y-4110000D01*
X980133Y-4103440D01*
X980133Y-4090321D01*
X973574Y-4083762D01*
X960455Y-4083762D01*
X953895Y-4090321D01*
X953895Y-4103440D01*
X960455Y-4110000D01*
X993253Y-4110000D02*
X993253Y-4083762D01*
X1012931Y-4083762D01*
X1019491Y-4090321D01*
X1019491Y-4110000D01*
X1111325Y-4070643D02*
X1137563Y-4110000D01*
X1137563Y-4070643D02*
X1111325Y-4110000D01*
X1150682Y-4083762D02*
X1157242Y-4083762D01*
X1157242Y-4090321D01*
X1150682Y-4090321D01*
X1150682Y-4083762D01*
X1150682Y-4103440D02*
X1157242Y-4103440D01*
X1157242Y-4110000D01*
X1150682Y-4110000D01*
X1150682Y-4103440D01*
X1222837Y-4110000D02*
X1235957Y-4110000D01*
X1229397Y-4110000D01*
X1229397Y-4070643D01*
X1222837Y-4077202D01*
X1255635Y-4077202D02*
X1262195Y-4070643D01*
X1275314Y-4070643D01*
X1281873Y-4077202D01*
X1281873Y-4083762D01*
X1275314Y-4090321D01*
X1268754Y-4090321D01*
X1275314Y-4090321D01*
X1281873Y-4096881D01*
X1281873Y-4103440D01*
X1275314Y-4110000D01*
X1262195Y-4110000D01*
X1255635Y-4103440D01*
X1321231Y-4110000D02*
X1294993Y-4110000D01*
X1321231Y-4083762D01*
X1321231Y-4077202D01*
X1314671Y-4070643D01*
X1301552Y-4070643D01*
X1294993Y-4077202D01*
X1334350Y-4077202D02*
X1340910Y-4070643D01*
X1354029Y-4070643D01*
X1360588Y-4077202D01*
X1360588Y-4103440D01*
X1354029Y-4110000D01*
X1340910Y-4110000D01*
X1334350Y-4103440D01*
X1334350Y-4077202D01*
X1413065Y-4110000D02*
X1413065Y-4083762D01*
X1419624Y-4083762D01*
X1426184Y-4090321D01*
X1426184Y-4110000D01*
X1426184Y-4090321D01*
X1432744Y-4083762D01*
X1439303Y-4090321D01*
X1439303Y-4110000D01*
X1452422Y-4110000D02*
X1465541Y-4110000D01*
X1458982Y-4110000D01*
X1458982Y-4083762D01*
X1452422Y-4083762D01*
X1485220Y-4110000D02*
X1498339Y-4110000D01*
X1491780Y-4110000D01*
X1491780Y-4070643D01*
X1485220Y-4070643D01*
X1636090Y-4070643D02*
X1636090Y-4077202D01*
X1649209Y-4090321D01*
X1662328Y-4077202D01*
X1662328Y-4070643D01*
X1649209Y-4090321D02*
X1649209Y-4110000D01*
X1675447Y-4083762D02*
X1682007Y-4083762D01*
X1682007Y-4090321D01*
X1675447Y-4090321D01*
X1675447Y-4083762D01*
X1675447Y-4103440D02*
X1682007Y-4103440D01*
X1682007Y-4110000D01*
X1675447Y-4110000D01*
X1675447Y-4103440D01*
X1708245Y-4110000D02*
X1721364Y-4110000D01*
X1714805Y-4110000D01*
X1714805Y-4070643D01*
X1708245Y-4077202D01*
X1767281Y-4070643D02*
X1754162Y-4077202D01*
X1741043Y-4090321D01*
X1741043Y-4103440D01*
X1747603Y-4110000D01*
X1760722Y-4110000D01*
X1767281Y-4103440D01*
X1767281Y-4096881D01*
X1760722Y-4090321D01*
X1741043Y-4090321D01*
X1780400Y-4077202D02*
X1786960Y-4070643D01*
X1800079Y-4070643D01*
X1806639Y-4077202D01*
X1806639Y-4103440D01*
X1800079Y-4110000D01*
X1786960Y-4110000D01*
X1780400Y-4103440D01*
X1780400Y-4077202D01*
X1819758Y-4077202D02*
X1826317Y-4070643D01*
X1839437Y-4070643D01*
X1845996Y-4077202D01*
X1845996Y-4103440D01*
X1839437Y-4110000D01*
X1826317Y-4110000D01*
X1819758Y-4103440D01*
X1819758Y-4077202D01*
X1898473Y-4110000D02*
X1898473Y-4083762D01*
X1905032Y-4083762D01*
X1911592Y-4090321D01*
X1911592Y-4110000D01*
X1911592Y-4090321D01*
X1918151Y-4083762D01*
X1924711Y-4090321D01*
X1924711Y-4110000D01*
X1937830Y-4110000D02*
X1950949Y-4110000D01*
X1944390Y-4110000D01*
X1944390Y-4083762D01*
X1937830Y-4083762D01*
X1970628Y-4110000D02*
X1983747Y-4110000D01*
X1977187Y-4110000D01*
X1977187Y-4070643D01*
X1970628Y-4070643D01*
D48*
X-1220000Y0D02*
X-108425Y0D01*
X-1220000Y3708676D02*
X-160481Y3708676D01*
X-1210000Y0D02*
X-1210000Y1657392D01*
X-1210000Y2019285D02*
X-1210000Y3708676D01*
X-1210000Y0D02*
X-1190000Y60000D01*
X-1230000Y60000D02*
X-1210000Y0D01*
X-1230000Y3648676D02*
X-1210000Y3708676D01*
X-1190000Y3648676D01*
X0Y170000D02*
X0Y310473D01*
X2300000Y170000D02*
X2300000Y285000D01*
X0Y180000D02*
X848087Y180000D01*
X1419913Y180000D02*
X2300000Y180000D01*
X0Y180000D02*
X60000Y160000D01*
X0Y180000D02*
X60000Y200000D01*
X2240000Y200000D02*
X2300000Y180000D01*
X2240000Y160000D02*
X2300000Y180000D01*
X-420000Y-150000D02*
X-145165Y-150000D01*
X-420000Y0D02*
X-108425Y0D01*
X-410000Y-150000D02*
X-410000Y-75000D01*
X-410000Y0D01*
X-410000Y-150000D02*
X-390000Y-90000D01*
X-430000Y-90000D02*
X-410000Y-150000D01*
X-430000Y-60000D02*
X-410000Y0D01*
X-390000Y-60000D01*
X0Y2458425D02*
X0Y3990000D01*
X2350000Y2458425D02*
X2350000Y3990000D01*
X0Y3980000D02*
X873087Y3980000D01*
X1444913Y3980000D02*
X2350000Y3980000D01*
X0Y3980000D02*
X60000Y3960000D01*
X0Y3980000D02*
X60000Y4000000D01*
X2290000Y4000000D02*
X2350000Y3980000D01*
X2290000Y3960000D02*
X2350000Y3980000D01*
X-1080000Y0D02*
X-108425Y0D01*
X-1080000Y2350000D02*
X-108425Y2350000D01*
X-1070000Y0D02*
X-1070000Y978053D01*
X-1070000Y1339947D02*
X-1070000Y2350000D01*
X-1070000Y0D02*
X-1050000Y60000D01*
X-1090000Y60000D02*
X-1070000Y0D01*
X-1090000Y2290000D02*
X-1070000Y2350000D01*
X-1050000Y2290000D01*
X-416591Y0D02*
X-108425Y0D01*
X-416591Y350000D02*
X-39528Y350000D01*
X-406591Y0D02*
X-406591Y175000D01*
X-406591Y350000D01*
X-406591Y0D02*
X-386591Y60000D01*
X-426591Y60000D02*
X-406591Y0D01*
X-426591Y290000D02*
X-406591Y350000D01*
X-386591Y290000D01*
X2439528Y1250000D02*
X3060000Y1250000D01*
X2458425Y0D02*
X3060000Y0D01*
X3050000Y814938D02*
X3050000Y1250000D01*
X3050000Y0D02*
X3050000Y403061D01*
X3030000Y1190000D02*
X3050000Y1250000D01*
X3070000Y1190000D01*
X3050000Y0D02*
X3070000Y60000D01*
X3030000Y60000D02*
X3050000Y0D01*
X-1347181Y3708677D02*
X-229016Y3708677D01*
X-1347181Y-3929166D02*
X-160480Y-3929166D01*
X-1337181Y149672D02*
X-1337181Y3708677D01*
X-1337181Y-3929166D02*
X-1337181Y-402160D01*
X-1357181Y3648677D02*
X-1337181Y3708677D01*
X-1317181Y3648677D01*
X-1337181Y-3929166D02*
X-1317181Y-3869166D01*
X-1357181Y-3869166D02*
X-1337181Y-3929166D01*
X-150481Y3718676D02*
X-150481Y4230000D01*
X2487520Y3708835D02*
X2487520Y4230000D01*
X-150481Y4220000D02*
X976571Y4220000D01*
X1328468Y4220000D02*
X2487520Y4220000D01*
X-150481Y4220000D02*
X-90481Y4200000D01*
X-150481Y4220000D02*
X-90481Y4240000D01*
X2427520Y4240000D02*
X2487520Y4220000D01*
X2427520Y4200000D02*
X2487520Y4220000D01*
X2439528Y300000D02*
X2710000Y300000D01*
X2458425Y0D02*
X2710000Y0D01*
X2700000Y150000D02*
X2700000Y300000D01*
X2700000Y0D02*
X2700000Y150000D01*
X2680000Y240000D02*
X2700000Y300000D01*
X2720000Y240000D01*
X2700000Y0D02*
X2720000Y60000D01*
X2680000Y60000D02*
X2700000Y0D01*
X1677649Y-1308322D02*
X2710000Y-1308322D01*
X1677649Y-2358322D02*
X2710000Y-2358322D01*
X2700000Y-1643384D02*
X2700000Y-1308322D01*
X2700000Y-2358322D02*
X2700000Y-2055261D01*
X2680000Y-1368322D02*
X2700000Y-1308322D01*
X2720000Y-1368322D01*
X2700000Y-2358322D02*
X2720000Y-2298322D01*
X2680000Y-2298322D02*
X2700000Y-2358322D01*
X-740000Y0D02*
X-108425Y0D01*
X-740000Y1500000D02*
X-39528Y1500000D01*
X-730000Y0D02*
X-730000Y558052D01*
X-730000Y909948D02*
X-730000Y1500000D01*
X-730000Y0D02*
X-710000Y60000D01*
X-750000Y60000D02*
X-730000Y0D01*
X-750000Y1440000D02*
X-730000Y1500000D01*
X-710000Y1440000D01*
D85*
X-1223994Y1673391D02*
X-1233990Y1683388D01*
X-1233990Y1703382D01*
X-1223994Y1713379D01*
X-1213997Y1713379D01*
X-1204000Y1703382D01*
X-1204000Y1693385D01*
X-1204000Y1703382D01*
X-1194003Y1713379D01*
X-1184006Y1713379D01*
X-1174010Y1703382D01*
X-1174010Y1683388D01*
X-1184006Y1673391D01*
X-1233990Y1733372D02*
X-1233990Y1773359D01*
X-1223994Y1773359D01*
X-1184006Y1733372D01*
X-1174010Y1733372D01*
X-1223994Y1793353D02*
X-1233990Y1803350D01*
X-1233990Y1823343D01*
X-1223994Y1833340D01*
X-1184006Y1833340D01*
X-1174010Y1823343D01*
X-1174010Y1803350D01*
X-1184006Y1793353D01*
X-1223994Y1793353D01*
X-1223994Y1853333D02*
X-1233990Y1863330D01*
X-1233990Y1883324D01*
X-1223994Y1893320D01*
X-1213997Y1893320D01*
X-1204000Y1883324D01*
X-1194003Y1893320D01*
X-1184006Y1893320D01*
X-1174010Y1883324D01*
X-1174010Y1863330D01*
X-1184006Y1853333D01*
X-1194003Y1853333D01*
X-1204000Y1863330D01*
X-1213997Y1853333D01*
X-1223994Y1853333D01*
X-1204000Y1863330D02*
X-1204000Y1883324D01*
X-1174010Y1913314D02*
X-1184006Y1913314D01*
X-1184006Y1923311D01*
X-1174010Y1923311D01*
X-1174010Y1913314D01*
X-1233990Y1963298D02*
X-1233990Y2003285D01*
X-1223994Y2003285D01*
X-1184006Y1963298D01*
X-1174010Y1963298D01*
X904074Y144010D02*
X864087Y144010D01*
X904074Y183997D01*
X904074Y193994D01*
X894078Y203990D01*
X874084Y203990D01*
X864087Y193994D01*
X924068Y193994D02*
X934065Y203990D01*
X954058Y203990D01*
X964055Y193994D01*
X964055Y183997D01*
X954058Y174000D01*
X944061Y174000D01*
X954058Y174000D01*
X964055Y164003D01*
X964055Y154006D01*
X954058Y144010D01*
X934065Y144010D01*
X924068Y154006D01*
X984048Y193994D02*
X994045Y203990D01*
X1014039Y203990D01*
X1024036Y193994D01*
X1024036Y154006D01*
X1014039Y144010D01*
X994045Y144010D01*
X984048Y154006D01*
X984048Y193994D01*
X1044029Y193994D02*
X1054026Y203990D01*
X1074019Y203990D01*
X1084016Y193994D01*
X1084016Y154006D01*
X1074019Y144010D01*
X1054026Y144010D01*
X1044029Y154006D01*
X1044029Y193994D01*
X1104010Y144010D02*
X1104010Y154006D01*
X1114006Y154006D01*
X1114006Y144010D01*
X1104010Y144010D01*
X1153994Y193994D02*
X1163990Y203990D01*
X1183984Y203990D01*
X1193981Y193994D01*
X1193981Y154006D01*
X1183984Y144010D01*
X1163990Y144010D01*
X1153994Y154006D01*
X1153994Y193994D01*
X1213974Y193994D02*
X1223971Y203990D01*
X1243964Y203990D01*
X1253961Y193994D01*
X1253961Y154006D01*
X1243964Y144010D01*
X1223971Y144010D01*
X1213974Y154006D01*
X1213974Y193994D01*
X1273955Y144010D02*
X1273955Y183997D01*
X1283951Y183997D01*
X1293948Y174000D01*
X1293948Y144010D01*
X1293948Y174000D01*
X1303945Y183997D01*
X1313942Y174000D01*
X1313942Y144010D01*
X1333935Y144010D02*
X1353929Y144010D01*
X1343932Y144010D01*
X1343932Y183997D01*
X1333935Y183997D01*
X1383919Y144010D02*
X1403913Y144010D01*
X1393916Y144010D01*
X1393916Y203990D01*
X1383919Y203990D01*
X-370000Y-450000D02*
X-370000Y-430007D01*
X-370000Y-440003D01*
X-429981Y-440003D01*
X-419984Y-450000D01*
X-429981Y-360029D02*
X-429981Y-400016D01*
X-399990Y-400016D01*
X-409987Y-380023D01*
X-409987Y-370026D01*
X-399990Y-360029D01*
X-379997Y-360029D01*
X-370000Y-370026D01*
X-370000Y-390019D01*
X-379997Y-400016D01*
X-419984Y-340036D02*
X-429981Y-330039D01*
X-429981Y-310045D01*
X-419984Y-300048D01*
X-379997Y-300048D01*
X-370000Y-310045D01*
X-370000Y-330039D01*
X-379997Y-340036D01*
X-419984Y-340036D01*
X-370000Y-280055D02*
X-379997Y-280055D01*
X-379997Y-270058D01*
X-370000Y-270058D01*
X-370000Y-280055D01*
X-419984Y-230071D02*
X-429981Y-220074D01*
X-429981Y-200081D01*
X-419984Y-190084D01*
X-379997Y-190084D01*
X-370000Y-200081D01*
X-370000Y-220074D01*
X-379997Y-230071D01*
X-419984Y-230071D01*
X929074Y3944010D02*
X889087Y3944010D01*
X929074Y3983997D01*
X929074Y3993994D01*
X919078Y4003990D01*
X899084Y4003990D01*
X889087Y3993994D01*
X949068Y3993994D02*
X959065Y4003990D01*
X979058Y4003990D01*
X989055Y3993994D01*
X989055Y3983997D01*
X979058Y3974000D01*
X969061Y3974000D01*
X979058Y3974000D01*
X989055Y3964003D01*
X989055Y3954006D01*
X979058Y3944010D01*
X959065Y3944010D01*
X949068Y3954006D01*
X1049036Y4003990D02*
X1009048Y4003990D01*
X1009048Y3974000D01*
X1029042Y3983997D01*
X1039039Y3983997D01*
X1049036Y3974000D01*
X1049036Y3954006D01*
X1039039Y3944010D01*
X1019045Y3944010D01*
X1009048Y3954006D01*
X1069029Y3993994D02*
X1079026Y4003990D01*
X1099019Y4003990D01*
X1109016Y3993994D01*
X1109016Y3954006D01*
X1099019Y3944010D01*
X1079026Y3944010D01*
X1069029Y3954006D01*
X1069029Y3993994D01*
X1129010Y3944010D02*
X1129010Y3954006D01*
X1139006Y3954006D01*
X1139006Y3944010D01*
X1129010Y3944010D01*
X1178994Y3993994D02*
X1188990Y4003990D01*
X1208984Y4003990D01*
X1218981Y3993994D01*
X1218981Y3954006D01*
X1208984Y3944010D01*
X1188990Y3944010D01*
X1178994Y3954006D01*
X1178994Y3993994D01*
X1238974Y3993994D02*
X1248971Y4003990D01*
X1268964Y4003990D01*
X1278961Y3993994D01*
X1278961Y3954006D01*
X1268964Y3944010D01*
X1248971Y3944010D01*
X1238974Y3954006D01*
X1238974Y3993994D01*
X1298955Y3944010D02*
X1298955Y3983997D01*
X1308951Y3983997D01*
X1318948Y3974000D01*
X1318948Y3944010D01*
X1318948Y3974000D01*
X1328945Y3983997D01*
X1338942Y3974000D01*
X1338942Y3944010D01*
X1358935Y3944010D02*
X1378929Y3944010D01*
X1368932Y3944010D01*
X1368932Y3983997D01*
X1358935Y3983997D01*
X1408919Y3944010D02*
X1428913Y3944010D01*
X1418916Y3944010D01*
X1418916Y4003990D01*
X1408919Y4003990D01*
X-1034010Y1034040D02*
X-1034010Y994053D01*
X-1073997Y1034040D01*
X-1083994Y1034040D01*
X-1093990Y1024044D01*
X-1093990Y1004050D01*
X-1083994Y994053D01*
X-1083994Y1054034D02*
X-1093990Y1064031D01*
X-1093990Y1084024D01*
X-1083994Y1094021D01*
X-1073997Y1094021D01*
X-1064000Y1084024D01*
X-1064000Y1074027D01*
X-1064000Y1084024D01*
X-1054003Y1094021D01*
X-1044006Y1094021D01*
X-1034010Y1084024D01*
X-1034010Y1064031D01*
X-1044006Y1054034D01*
X-1093990Y1154002D02*
X-1093990Y1114014D01*
X-1064000Y1114014D01*
X-1073997Y1134008D01*
X-1073997Y1144005D01*
X-1064000Y1154002D01*
X-1044006Y1154002D01*
X-1034010Y1144005D01*
X-1034010Y1124011D01*
X-1044006Y1114014D01*
X-1083994Y1173995D02*
X-1093990Y1183992D01*
X-1093990Y1203985D01*
X-1083994Y1213982D01*
X-1044006Y1213982D01*
X-1034010Y1203985D01*
X-1034010Y1183992D01*
X-1044006Y1173995D01*
X-1083994Y1173995D01*
X-1034010Y1233976D02*
X-1044006Y1233976D01*
X-1044006Y1243973D01*
X-1034010Y1243973D01*
X-1034010Y1233976D01*
X-1083994Y1283959D02*
X-1093990Y1293956D01*
X-1093990Y1313950D01*
X-1083994Y1323947D01*
X-1044006Y1323947D01*
X-1034010Y1313950D01*
X-1034010Y1293956D01*
X-1044006Y1283959D01*
X-1083994Y1283959D01*
X-429984Y380000D02*
X-439981Y389997D01*
X-439981Y409990D01*
X-429984Y419987D01*
X-419987Y419987D01*
X-409990Y409990D01*
X-409990Y399993D01*
X-409990Y409990D01*
X-399993Y419987D01*
X-389997Y419987D01*
X-380000Y409990D01*
X-380000Y389997D01*
X-389997Y380000D01*
X-439981Y479968D02*
X-439981Y439981D01*
X-409990Y439981D01*
X-419987Y459974D01*
X-419987Y469971D01*
X-409990Y479968D01*
X-389997Y479968D01*
X-380000Y469971D01*
X-380000Y449977D01*
X-389997Y439981D01*
X-429984Y499961D02*
X-439981Y509958D01*
X-439981Y529952D01*
X-429984Y539948D01*
X-389997Y539948D01*
X-380000Y529952D01*
X-380000Y509958D01*
X-389997Y499961D01*
X-429984Y499961D01*
X-380000Y559942D02*
X-389997Y559942D01*
X-389997Y569939D01*
X-380000Y569939D01*
X-380000Y559942D01*
X-429984Y609926D02*
X-439981Y619922D01*
X-439981Y639916D01*
X-429984Y649913D01*
X-389997Y649913D01*
X-380000Y639916D01*
X-380000Y619922D01*
X-389997Y609926D01*
X-429984Y609926D01*
X3085990Y419061D02*
X3085990Y439055D01*
X3085990Y429058D01*
X3026010Y429058D01*
X3036006Y419061D01*
X3085990Y509032D02*
X3085990Y469045D01*
X3046003Y509032D01*
X3036006Y509032D01*
X3026010Y499036D01*
X3026010Y479042D01*
X3036006Y469045D01*
X3026010Y569013D02*
X3026010Y529026D01*
X3056000Y529026D01*
X3046003Y549019D01*
X3046003Y559016D01*
X3056000Y569013D01*
X3075994Y569013D01*
X3085990Y559016D01*
X3085990Y539023D01*
X3075994Y529026D01*
X3036006Y589006D02*
X3026010Y599003D01*
X3026010Y618997D01*
X3036006Y628994D01*
X3075994Y628994D01*
X3085990Y618997D01*
X3085990Y599003D01*
X3075994Y589006D01*
X3036006Y589006D01*
X3085990Y648987D02*
X3075994Y648987D01*
X3075994Y658984D01*
X3085990Y658984D01*
X3085990Y648987D01*
X3036006Y698971D02*
X3026010Y708968D01*
X3026010Y728961D01*
X3036006Y738958D01*
X3075994Y738958D01*
X3085990Y728961D01*
X3085990Y708968D01*
X3075994Y698971D01*
X3036006Y698971D01*
X3036006Y758951D02*
X3026010Y768948D01*
X3026010Y788942D01*
X3036006Y798938D01*
X3075994Y798938D01*
X3085990Y788942D01*
X3085990Y768948D01*
X3075994Y758951D01*
X3036006Y758951D01*
X-1301191Y-386160D02*
X-1301191Y-366167D01*
X-1301191Y-376163D01*
X-1361171Y-376163D01*
X-1351175Y-386160D01*
X-1311188Y-336176D02*
X-1301191Y-326180D01*
X-1301191Y-306186D01*
X-1311188Y-296189D01*
X-1351175Y-296189D01*
X-1361171Y-306186D01*
X-1361171Y-326180D01*
X-1351175Y-336176D01*
X-1341178Y-336176D01*
X-1331181Y-326180D01*
X-1331181Y-296189D01*
X-1301191Y-276196D02*
X-1311188Y-276196D01*
X-1311188Y-266199D01*
X-1301191Y-266199D01*
X-1301191Y-276196D01*
X-1301191Y-196222D02*
X-1361171Y-196222D01*
X-1331181Y-226212D01*
X-1331181Y-186225D01*
X-1351175Y-166231D02*
X-1361171Y-156234D01*
X-1361171Y-136241D01*
X-1351175Y-126244D01*
X-1311188Y-126244D01*
X-1301191Y-136241D01*
X-1301191Y-156234D01*
X-1311188Y-166231D01*
X-1351175Y-166231D01*
X-1301191Y-26277D02*
X-1321184Y-46270D01*
X-1341178Y-46270D01*
X-1361171Y-26277D01*
X-1361171Y3714D02*
X-1361171Y23707D01*
X-1361171Y13710D01*
X-1301191Y13710D01*
X-1301191Y3714D01*
X-1301191Y23707D01*
X-1301191Y53697D02*
X-1341178Y53697D01*
X-1341178Y83688D01*
X-1331181Y93685D01*
X-1301191Y93685D01*
X-1301191Y113678D02*
X-1321184Y133672D01*
X-1341178Y133672D01*
X-1361171Y113678D01*
X1032558Y4184010D02*
X992571Y4184010D01*
X1032558Y4223997D01*
X1032558Y4233993D01*
X1022562Y4243990D01*
X1002568Y4243990D01*
X992571Y4233993D01*
X1052552Y4184010D02*
X1052552Y4194007D01*
X1062549Y4194007D01*
X1062549Y4184010D01*
X1052552Y4184010D01*
X1142523Y4243990D02*
X1122529Y4233993D01*
X1102536Y4214000D01*
X1102536Y4194007D01*
X1112533Y4184010D01*
X1132526Y4184010D01*
X1142523Y4194007D01*
X1142523Y4204003D01*
X1132526Y4214000D01*
X1102536Y4214000D01*
X1192507Y4184010D02*
X1192507Y4243990D01*
X1162516Y4214000D01*
X1202503Y4214000D01*
X1222497Y4184010D02*
X1242490Y4184010D01*
X1232494Y4184010D01*
X1232494Y4223997D01*
X1222497Y4223997D01*
X1272481Y4184010D02*
X1272481Y4223997D01*
X1302471Y4223997D01*
X1312468Y4214000D01*
X1312468Y4184010D01*
X2786006Y44053D02*
X2776010Y54050D01*
X2776010Y74044D01*
X2786006Y84040D01*
X2796003Y84040D01*
X2806000Y74044D01*
X2806000Y64047D01*
X2806000Y74044D01*
X2815997Y84040D01*
X2825994Y84040D01*
X2835990Y74044D01*
X2835990Y54050D01*
X2825994Y44053D01*
X2786006Y104034D02*
X2776010Y114031D01*
X2776010Y134024D01*
X2786006Y144021D01*
X2825994Y144021D01*
X2835990Y134024D01*
X2835990Y114031D01*
X2825994Y104034D01*
X2786006Y104034D01*
X2786006Y164014D02*
X2776010Y174011D01*
X2776010Y194005D01*
X2786006Y204002D01*
X2825994Y204002D01*
X2835990Y194005D01*
X2835990Y174011D01*
X2825994Y164014D01*
X2786006Y164014D01*
X2835990Y223995D02*
X2825994Y223995D01*
X2825994Y233992D01*
X2835990Y233992D01*
X2835990Y223995D01*
X2786006Y273979D02*
X2776010Y283976D01*
X2776010Y303969D01*
X2786006Y313966D01*
X2825994Y313966D01*
X2835990Y303969D01*
X2835990Y283976D01*
X2825994Y273979D01*
X2786006Y273979D01*
X2786006Y333959D02*
X2776010Y343956D01*
X2776010Y363950D01*
X2786006Y373947D01*
X2825994Y373947D01*
X2835990Y363950D01*
X2835990Y343956D01*
X2825994Y333959D01*
X2786006Y333959D01*
X2735990Y-2039261D02*
X2735990Y-2019267D01*
X2735990Y-2029264D01*
X2676010Y-2029264D01*
X2686006Y-2039261D01*
X2686006Y-1989277D02*
X2676010Y-1979280D01*
X2676010Y-1959287D01*
X2686006Y-1949290D01*
X2725994Y-1949290D01*
X2735990Y-1959287D01*
X2735990Y-1979280D01*
X2725994Y-1989277D01*
X2686006Y-1989277D01*
X2676010Y-1889310D02*
X2676010Y-1929297D01*
X2706000Y-1929297D01*
X2696003Y-1909303D01*
X2696003Y-1899306D01*
X2706000Y-1889310D01*
X2725994Y-1889310D01*
X2735990Y-1899306D01*
X2735990Y-1919300D01*
X2725994Y-1929297D01*
X2686006Y-1869316D02*
X2676010Y-1859319D01*
X2676010Y-1839326D01*
X2686006Y-1829329D01*
X2725994Y-1829329D01*
X2735990Y-1839326D01*
X2735990Y-1859319D01*
X2725994Y-1869316D01*
X2686006Y-1869316D01*
X2735990Y-1809335D02*
X2725994Y-1809335D01*
X2725994Y-1799339D01*
X2735990Y-1799339D01*
X2735990Y-1809335D01*
X2686006Y-1759352D02*
X2676010Y-1749355D01*
X2676010Y-1729361D01*
X2686006Y-1719364D01*
X2725994Y-1719364D01*
X2735990Y-1729361D01*
X2735990Y-1749355D01*
X2725994Y-1759352D01*
X2686006Y-1759352D01*
X2686006Y-1699371D02*
X2676010Y-1689374D01*
X2676010Y-1669381D01*
X2686006Y-1659384D01*
X2725994Y-1659384D01*
X2735990Y-1669381D01*
X2735990Y-1689374D01*
X2725994Y-1699371D01*
X2686006Y-1699371D01*
X-694010Y574052D02*
X-694010Y594045D01*
X-694010Y584048D01*
X-753990Y584048D01*
X-743994Y574052D01*
X-753990Y664023D02*
X-753990Y624035D01*
X-724000Y624035D01*
X-733997Y644029D01*
X-733997Y654026D01*
X-724000Y664023D01*
X-704006Y664023D01*
X-694010Y654026D01*
X-694010Y634032D01*
X-704006Y624035D01*
X-743994Y684016D02*
X-753990Y694013D01*
X-753990Y714006D01*
X-743994Y724003D01*
X-704006Y724003D01*
X-694010Y714006D01*
X-694010Y694013D01*
X-704006Y684016D01*
X-743994Y684016D01*
X-743994Y743997D02*
X-753990Y753994D01*
X-753990Y773987D01*
X-743994Y783984D01*
X-704006Y783984D01*
X-694010Y773987D01*
X-694010Y753994D01*
X-704006Y743997D01*
X-743994Y743997D01*
X-694010Y803977D02*
X-704006Y803977D01*
X-704006Y813974D01*
X-694010Y813974D01*
X-694010Y803977D01*
X-743994Y853961D02*
X-753990Y863958D01*
X-753990Y883951D01*
X-743994Y893948D01*
X-704006Y893948D01*
X-694010Y883951D01*
X-694010Y863958D01*
X-704006Y853961D01*
X-743994Y853961D01*
%TF.MD5,67ae93ac1d5400fb069da4e6ce7e58c1*%
M02*
