G04 Layer_Color=32896*
%FSLAX26Y26*%
%MOIN*%
%TF.FileFunction,Legend,Bot*%
%TF.Part,Single*%
G01*
G75*
%TA.AperFunction,NonConductor*%
%ADD37C,0.010000*%
%ADD38C,0.023622*%
%ADD39C,0.009842*%
%ADD40C,0.007874*%
%ADD41C,0.039370*%
%ADD42C,0.030000*%
%ADD43C,0.005000*%
D37*
X2478646Y3778910D02*
X2630425Y3778910D01*
X4835Y3778500D02*
X156614Y3778500D01*
X100000Y5378500D02*
X100000Y5878500D01*
X100000Y5378500D02*
X300000Y5378500D01*
X300000Y5878500D01*
X100000Y5878500D02*
X300000Y5878500D01*
X2400000Y4178500D02*
X2400000Y4678500D01*
X2400000Y4178500D02*
X2600000Y4178500D01*
X2600000Y4678500D01*
X2400000Y4678500D02*
X2600000Y4678500D01*
X2180597Y5522484D02*
X2180597Y6900438D01*
X1707797Y6900438D02*
X2180597Y6900438D01*
X1707797Y5522484D02*
X1707797Y6900438D01*
X1707797Y5522484D02*
X2180597Y5522484D01*
D38*
X1176480Y1040201D02*
G03*
X1176480Y1040201I-11811J0D01*
G01*
D39*
X1261126Y1097287D02*
G03*
X1261126Y1097287I-4921J0D01*
G01*
D40*
X918149Y2670178D02*
X1618149Y2670178D01*
X1618149Y2570178D02*
X1618149Y2670178D01*
X918149Y2570178D02*
X1618149Y2570178D01*
X918149Y2570178D02*
X918149Y2670178D01*
X2493410Y811855D02*
X2493410Y815791D01*
X2536716Y811855D02*
X2536716Y815791D01*
X2465850Y811855D02*
X2465850Y815791D01*
X2422544Y811855D02*
X2422544Y815791D01*
X208032Y7617639D02*
X211968Y7617639D01*
X208032Y7572363D02*
X211968Y7572363D01*
X778032Y7616137D02*
X781968Y7616137D01*
X778032Y7570861D02*
X781968Y7570861D01*
X588032Y7616137D02*
X591968Y7616137D01*
X588032Y7570861D02*
X591968Y7570861D01*
X398032Y7616137D02*
X401968Y7616137D01*
X398032Y7570861D02*
X401968Y7570861D01*
X768149Y2170178D02*
X768149Y2470178D01*
X668149Y2170178D02*
X768149Y2170178D01*
X668149Y2170178D02*
X668149Y2470178D01*
X768149Y2470178D01*
X1818149Y2170178D02*
X1818149Y2470178D01*
X1718149Y2170178D02*
X1818149Y2170178D01*
X1718149Y2170178D02*
X1718149Y2470178D01*
X1818149Y2470178D01*
X1865551Y7574540D02*
X1869487Y7574540D01*
X1865551Y7619814D02*
X1869487Y7619814D01*
X1078055Y878783D02*
X1204039Y878783D01*
X1078055Y1079571D02*
X1204039Y1079571D01*
X1078055Y878783D02*
X1078055Y1079571D01*
X1204039Y878783D02*
X1204039Y1079571D01*
X1368032Y7564862D02*
X1371969Y7564862D01*
X1368032Y7610138D02*
X1371969Y7610138D01*
D41*
X618149Y1405768D02*
X1868149Y1405768D01*
X618149Y1405768D02*
X618149Y2720178D01*
X1868149Y1405768D02*
X1868149Y2720178D01*
X618149Y2720178D02*
X1868149Y2720178D01*
D42*
X0Y3778500D02*
X2600000Y3778500D01*
D43*
X1598149Y2505178D02*
X1598149Y2525171D01*
X1588152Y2525171D01*
X1584820Y2521839D01*
X1584820Y2515175D01*
X1588152Y2511842D01*
X1598149Y2511842D01*
X1564826Y2525171D02*
X1571491Y2521839D01*
X1578155Y2515175D01*
X1578155Y2508510D01*
X1574823Y2505178D01*
X1568159Y2505178D01*
X1564826Y2508510D01*
X1564826Y2511842D01*
X1568159Y2515175D01*
X1578155Y2515175D01*
X320000Y7510000D02*
X320000Y7529993D01*
X310003Y7529993D01*
X306671Y7526661D01*
X306671Y7519997D01*
X310003Y7516664D01*
X320000Y7516664D01*
X313336Y7516664D02*
X306671Y7510000D01*
X286678Y7510000D02*
X300007Y7510000D01*
X286678Y7523329D01*
X286678Y7526661D01*
X290010Y7529993D01*
X296674Y7529993D01*
X300007Y7526661D01*
X266684Y7529993D02*
X280013Y7529993D01*
X280013Y7519997D01*
X273349Y7523329D01*
X270016Y7523329D01*
X266684Y7519997D01*
X266684Y7513332D01*
X270016Y7510000D01*
X276681Y7510000D01*
X280013Y7513332D01*
X890000Y7505000D02*
X890000Y7524993D01*
X880003Y7524993D01*
X876671Y7521661D01*
X876671Y7514997D01*
X880003Y7511664D01*
X890000Y7511664D01*
X883336Y7511664D02*
X876671Y7505000D01*
X856678Y7505000D02*
X870006Y7505000D01*
X856678Y7518329D01*
X856678Y7521661D01*
X860010Y7524993D01*
X866674Y7524993D01*
X870006Y7521661D01*
X840016Y7505000D02*
X840016Y7524993D01*
X850013Y7514997D01*
X836684Y7514997D01*
X299819Y5908398D02*
X299819Y5928391D01*
X289822Y5928391D01*
X286490Y5925059D01*
X286490Y5918394D01*
X289822Y5915062D01*
X299819Y5915062D01*
X279825Y5925059D02*
X276493Y5928391D01*
X269829Y5928391D01*
X266496Y5925059D01*
X266496Y5921727D01*
X269829Y5918394D01*
X266496Y5915062D01*
X266496Y5911730D01*
X269829Y5908398D01*
X276493Y5908398D01*
X279825Y5911730D01*
X279825Y5915062D01*
X276493Y5918394D01*
X279825Y5921727D01*
X279825Y5925059D01*
X276493Y5918394D02*
X269829Y5918394D01*
X2590000Y800000D02*
X2609994Y800000D01*
X2609994Y809997D01*
X2606661Y813329D01*
X2599997Y813329D01*
X2596664Y809997D01*
X2596664Y800000D01*
X2596664Y806664D02*
X2590000Y813329D01*
X2606661Y819994D02*
X2609994Y823326D01*
X2609994Y829990D01*
X2606661Y833322D01*
X2603329Y833322D01*
X2599997Y829990D01*
X2596664Y833322D01*
X2593332Y833322D01*
X2590000Y829990D01*
X2590000Y823326D01*
X2593332Y819994D01*
X2596664Y819994D01*
X2599997Y823326D01*
X2603329Y819994D01*
X2606661Y819994D01*
X2599997Y823326D02*
X2599997Y829990D01*
X2560000Y800000D02*
X2579994Y800000D01*
X2579994Y809997D01*
X2576661Y813329D01*
X2569997Y813329D01*
X2566664Y809997D01*
X2566664Y800000D01*
X2566664Y806664D02*
X2560000Y813329D01*
X2563332Y819994D02*
X2560000Y823326D01*
X2560000Y829990D01*
X2563332Y833322D01*
X2576661Y833322D01*
X2579994Y829990D01*
X2579994Y823326D01*
X2576661Y819994D01*
X2573329Y819994D01*
X2569997Y823326D01*
X2569997Y833322D01*
X2313000Y4294500D02*
X2332994Y4294500D01*
X2332994Y4304497D01*
X2329661Y4307829D01*
X2322997Y4307829D01*
X2319664Y4304497D01*
X2319664Y4294500D01*
X2332994Y4314493D02*
X2332994Y4327823D01*
X2329661Y4327823D01*
X2316332Y4314493D01*
X2313000Y4314493D01*
X700000Y7510000D02*
X700000Y7529993D01*
X690003Y7529993D01*
X686671Y7526661D01*
X686671Y7519997D01*
X690003Y7516664D01*
X700000Y7516664D01*
X693336Y7516664D02*
X686671Y7510000D01*
X666678Y7510000D02*
X680006Y7510000D01*
X666678Y7523329D01*
X666678Y7526661D01*
X670010Y7529993D01*
X676674Y7529993D01*
X680006Y7526661D01*
X660013Y7526661D02*
X656681Y7529993D01*
X650016Y7529993D01*
X646684Y7526661D01*
X646684Y7523329D01*
X650016Y7519997D01*
X653348Y7519997D01*
X650016Y7519997D01*
X646684Y7516664D01*
X646684Y7513332D01*
X650016Y7510000D01*
X656681Y7510000D01*
X660013Y7513332D01*
X510000Y7510000D02*
X510000Y7529993D01*
X500003Y7529993D01*
X496671Y7526661D01*
X496671Y7519997D01*
X500003Y7516664D01*
X510000Y7516664D01*
X503336Y7516664D02*
X496671Y7510000D01*
X476678Y7510000D02*
X490007Y7510000D01*
X476678Y7523329D01*
X476678Y7526661D01*
X480010Y7529993D01*
X486674Y7529993D01*
X490007Y7526661D01*
X456684Y7510000D02*
X470013Y7510000D01*
X456684Y7523329D01*
X456684Y7526661D01*
X460016Y7529993D01*
X466681Y7529993D01*
X470013Y7526661D01*
X2294386Y6383740D02*
X2314379Y6383740D01*
X2314379Y6393737D01*
X2311047Y6397069D01*
X2304383Y6397069D01*
X2301050Y6393737D01*
X2301050Y6383740D01*
X2301050Y6390405D02*
X2294386Y6397069D01*
X2294386Y6417063D02*
X2294386Y6403734D01*
X2307715Y6417063D01*
X2311047Y6417063D01*
X2314379Y6413730D01*
X2314379Y6407066D01*
X2311047Y6403734D01*
X2294386Y6423727D02*
X2294386Y6430392D01*
X2294386Y6427059D01*
X2314379Y6427059D01*
X2311047Y6423727D01*
X2200000Y6380000D02*
X2219994Y6380000D01*
X2219994Y6389997D01*
X2216661Y6393329D01*
X2209997Y6393329D01*
X2206664Y6389997D01*
X2206664Y6380000D01*
X2206664Y6386664D02*
X2200000Y6393329D01*
X2200000Y6413323D02*
X2200000Y6399993D01*
X2213329Y6413323D01*
X2216661Y6413323D01*
X2219994Y6409990D01*
X2219994Y6403326D01*
X2216661Y6399993D01*
X2216661Y6419987D02*
X2219994Y6423319D01*
X2219994Y6429984D01*
X2216661Y6433316D01*
X2203332Y6433316D01*
X2200000Y6429984D01*
X2200000Y6423319D01*
X2203332Y6419987D01*
X2216661Y6419987D01*
X240000Y7551493D02*
X240000Y7531500D01*
X230003Y7531500D01*
X226671Y7534832D01*
X226671Y7548161D01*
X230003Y7551493D01*
X240000Y7551493D01*
X206678Y7548161D02*
X210010Y7551493D01*
X216674Y7551493D01*
X220006Y7548161D01*
X220006Y7544829D01*
X216674Y7541497D01*
X210010Y7541497D01*
X206678Y7538164D01*
X206678Y7534832D01*
X210010Y7531500D01*
X216674Y7531500D01*
X220006Y7534832D01*
X200013Y7551493D02*
X186684Y7551493D01*
X186684Y7548161D01*
X200013Y7534832D01*
X200013Y7531500D01*
X805000Y7554993D02*
X805000Y7535000D01*
X795003Y7535000D01*
X791671Y7538332D01*
X791671Y7551661D01*
X795003Y7554993D01*
X805000Y7554993D01*
X771678Y7551661D02*
X775010Y7554993D01*
X781674Y7554993D01*
X785006Y7551661D01*
X785006Y7548329D01*
X781674Y7544997D01*
X775010Y7544997D01*
X771678Y7541664D01*
X771678Y7538332D01*
X775010Y7535000D01*
X781674Y7535000D01*
X785006Y7538332D01*
X751684Y7554993D02*
X758348Y7551661D01*
X765013Y7544997D01*
X765013Y7538332D01*
X761681Y7535000D01*
X755016Y7535000D01*
X751684Y7538332D01*
X751684Y7541664D01*
X755016Y7544997D01*
X765013Y7544997D01*
X620000Y7554993D02*
X620000Y7535000D01*
X610003Y7535000D01*
X606671Y7538332D01*
X606671Y7551661D01*
X610003Y7554993D01*
X620000Y7554993D01*
X586678Y7551661D02*
X590010Y7554993D01*
X596674Y7554993D01*
X600006Y7551661D01*
X600006Y7548329D01*
X596674Y7544997D01*
X590010Y7544997D01*
X586678Y7541664D01*
X586678Y7538332D01*
X590010Y7535000D01*
X596674Y7535000D01*
X600006Y7538332D01*
X566684Y7554993D02*
X580013Y7554993D01*
X580013Y7544997D01*
X573348Y7548329D01*
X570016Y7548329D01*
X566684Y7544997D01*
X566684Y7538332D01*
X570016Y7535000D01*
X576681Y7535000D01*
X580013Y7538332D01*
X430000Y7554993D02*
X430000Y7535000D01*
X420003Y7535000D01*
X416671Y7538332D01*
X416671Y7551661D01*
X420003Y7554993D01*
X430000Y7554993D01*
X396678Y7551661D02*
X400010Y7554993D01*
X406674Y7554993D01*
X410007Y7551661D01*
X410007Y7548329D01*
X406674Y7544997D01*
X400010Y7544997D01*
X396678Y7541664D01*
X396678Y7538332D01*
X400010Y7535000D01*
X406674Y7535000D01*
X410007Y7538332D01*
X380016Y7535000D02*
X380016Y7554993D01*
X390013Y7544997D01*
X376684Y7544997D01*
X2190819Y7030398D02*
X2190819Y7050391D01*
X2180822Y7050391D01*
X2177490Y7047059D01*
X2177490Y7040394D01*
X2180822Y7037062D01*
X2190819Y7037062D01*
X2170825Y7033730D02*
X2167493Y7030398D01*
X2160829Y7030398D01*
X2157496Y7033730D01*
X2157496Y7047059D01*
X2160829Y7050391D01*
X2167493Y7050391D01*
X2170825Y7047059D01*
X2170825Y7043727D01*
X2167493Y7040394D01*
X2157496Y7040394D01*
X828149Y2320178D02*
X848142Y2320178D01*
X848142Y2330175D01*
X844810Y2333507D01*
X838146Y2333507D01*
X834813Y2330175D01*
X834813Y2320178D01*
X828149Y2350168D02*
X848142Y2350168D01*
X838146Y2340171D01*
X838146Y2353500D01*
X1628149Y2320178D02*
X1648142Y2320178D01*
X1648142Y2330175D01*
X1644810Y2333507D01*
X1638146Y2333507D01*
X1634813Y2330175D01*
X1634813Y2320178D01*
X1644810Y2340171D02*
X1648142Y2343503D01*
X1648142Y2350168D01*
X1644810Y2353500D01*
X1641478Y2353500D01*
X1638146Y2350168D01*
X1638146Y2346836D01*
X1638146Y2350168D01*
X1634813Y2353500D01*
X1631481Y2353500D01*
X1628149Y2350168D01*
X1628149Y2343503D01*
X1631481Y2340171D01*
X1780000Y7545000D02*
X1780000Y7564679D01*
X1770161Y7564679D01*
X1766881Y7561399D01*
X1766881Y7554839D01*
X1770161Y7551560D01*
X1780000Y7551560D01*
X1773440Y7551560D02*
X1766881Y7545000D01*
X1747202Y7545000D02*
X1760321Y7545000D01*
X1747202Y7558119D01*
X1747202Y7561399D01*
X1750482Y7564679D01*
X1757042Y7564679D01*
X1760321Y7561399D01*
X1880000Y7559679D02*
X1880000Y7540000D01*
X1870161Y7540000D01*
X1866881Y7543280D01*
X1866881Y7556399D01*
X1870161Y7559679D01*
X1880000Y7559679D01*
X1847202Y7556399D02*
X1850482Y7559679D01*
X1857042Y7559679D01*
X1860321Y7556399D01*
X1860321Y7553119D01*
X1857042Y7549839D01*
X1850482Y7549839D01*
X1847202Y7546560D01*
X1847202Y7543280D01*
X1850482Y7540000D01*
X1857042Y7540000D01*
X1860321Y7543280D01*
X1840643Y7540000D02*
X1834083Y7540000D01*
X1837363Y7540000D01*
X1837363Y7559679D01*
X1840643Y7556399D01*
X1317819Y1252391D02*
X1317819Y1235730D01*
X1314487Y1232398D01*
X1307822Y1232398D01*
X1304490Y1235730D01*
X1304490Y1252391D01*
X1297825Y1249059D02*
X1294493Y1252391D01*
X1287829Y1252391D01*
X1284496Y1249059D01*
X1284496Y1245727D01*
X1287829Y1242394D01*
X1291161Y1242394D01*
X1287829Y1242394D01*
X1284496Y1239062D01*
X1284496Y1235730D01*
X1287829Y1232398D01*
X1294493Y1232398D01*
X1297825Y1235730D01*
X1400000Y7544993D02*
X1400000Y7525000D01*
X1390003Y7525000D01*
X1386671Y7528332D01*
X1386671Y7541661D01*
X1390003Y7544993D01*
X1400000Y7544993D01*
X1366678Y7541661D02*
X1370010Y7544993D01*
X1376674Y7544993D01*
X1380006Y7541661D01*
X1380006Y7538329D01*
X1376674Y7534997D01*
X1370010Y7534997D01*
X1366678Y7531664D01*
X1366678Y7528332D01*
X1370010Y7525000D01*
X1376674Y7525000D01*
X1380006Y7528332D01*
X1346684Y7525000D02*
X1360013Y7525000D01*
X1346684Y7538329D01*
X1346684Y7541661D01*
X1350016Y7544993D01*
X1356681Y7544993D01*
X1360013Y7541661D01*
X1570000Y7540000D02*
X1570000Y7559993D01*
X1560003Y7559993D01*
X1556671Y7556661D01*
X1556671Y7549997D01*
X1560003Y7546664D01*
X1570000Y7546664D01*
X1563335Y7546664D02*
X1556671Y7540000D01*
X1536678Y7540000D02*
X1550006Y7540000D01*
X1536678Y7553329D01*
X1536678Y7556661D01*
X1540010Y7559993D01*
X1546674Y7559993D01*
X1550006Y7556661D01*
X1516684Y7559993D02*
X1523349Y7556661D01*
X1530013Y7549997D01*
X1530013Y7543332D01*
X1526681Y7540000D01*
X1520016Y7540000D01*
X1516684Y7543332D01*
X1516684Y7546664D01*
X1520016Y7549997D01*
X1530013Y7549997D01*
X1585000Y6625000D02*
X1565006Y6625000D01*
X1565006Y6615003D01*
X1568339Y6611671D01*
X1575003Y6611671D01*
X1578335Y6615003D01*
X1578335Y6625000D01*
X1578335Y6618336D02*
X1585000Y6611671D01*
X1585000Y6591677D02*
X1585000Y6605007D01*
X1571671Y6591677D01*
X1568339Y6591677D01*
X1565006Y6595010D01*
X1565006Y6601674D01*
X1568339Y6605007D01*
X1565006Y6585013D02*
X1565006Y6571684D01*
X1568339Y6571684D01*
X1581668Y6585013D01*
X1585000Y6585013D01*
X585000Y1050000D02*
X565006Y1050000D01*
X565006Y1040003D01*
X568339Y1036671D01*
X575003Y1036671D01*
X578336Y1040003D01*
X578336Y1050000D01*
X578336Y1043335D02*
X585000Y1036671D01*
X585000Y1030006D02*
X585000Y1023342D01*
X585000Y1026674D01*
X565006Y1026674D01*
X568339Y1030006D01*
X568339Y1013345D02*
X565006Y1010013D01*
X565006Y1003348D01*
X568339Y1000016D01*
X571671Y1000016D01*
X575003Y1003348D01*
X575003Y1006681D01*
X575003Y1003348D01*
X578336Y1000016D01*
X581668Y1000016D01*
X585000Y1003348D01*
X585000Y1010013D01*
X581668Y1013345D01*
X2150003Y791000D02*
X2150003Y810994D01*
X2160000Y800997D01*
X2146671Y800997D01*
X2140006Y807661D02*
X2136674Y810994D01*
X2130010Y810994D01*
X2126677Y807661D01*
X2126677Y794332D01*
X2130010Y791000D01*
X2136674Y791000D01*
X2140006Y794332D01*
X2140006Y807661D01*
X540000Y805161D02*
X536668Y808494D01*
X530003Y808494D01*
X526671Y805161D01*
X526671Y801829D01*
X530003Y798497D01*
X533336Y798497D01*
X530003Y798497D01*
X526671Y795164D01*
X526671Y791832D01*
X530003Y788500D01*
X536668Y788500D01*
X540000Y791832D01*
X520006Y791832D02*
X516674Y788500D01*
X510010Y788500D01*
X506678Y791832D01*
X506678Y805161D01*
X510010Y808494D01*
X516674Y808494D01*
X520006Y805161D01*
X520006Y801829D01*
X516674Y798497D01*
X506678Y798497D01*
X250003Y788500D02*
X250003Y808494D01*
X260000Y798497D01*
X246671Y798497D01*
X240006Y805161D02*
X236674Y808494D01*
X230010Y808494D01*
X226678Y805161D01*
X226678Y791832D01*
X230010Y788500D01*
X236674Y788500D01*
X240006Y791832D01*
X240006Y805161D01*
X246671Y1788500D02*
X260000Y1788500D01*
X246671Y1801829D01*
X246671Y1805161D01*
X250003Y1808494D01*
X256668Y1808494D01*
X260000Y1805161D01*
X240006Y1805161D02*
X236674Y1808494D01*
X230010Y1808494D01*
X226678Y1805161D01*
X226678Y1791832D01*
X230010Y1788500D01*
X236674Y1788500D01*
X240006Y1791832D01*
X240006Y1805161D01*
X530000Y1778500D02*
X523336Y1778500D01*
X526668Y1778500D01*
X526668Y1798494D01*
X530000Y1795161D01*
X513339Y1781832D02*
X510006Y1778500D01*
X503342Y1778500D01*
X500010Y1781832D01*
X500010Y1795161D01*
X503342Y1798494D01*
X510006Y1798494D01*
X513339Y1795161D01*
X513339Y1791829D01*
X510006Y1788497D01*
X500010Y1788497D01*
X520000Y2788500D02*
X520000Y2808494D01*
X510003Y2808494D01*
X506671Y2805161D01*
X506671Y2798497D01*
X510003Y2795164D01*
X520000Y2795164D01*
X500007Y2805161D02*
X496674Y2808494D01*
X490010Y2808494D01*
X486678Y2805161D01*
X486678Y2801829D01*
X490010Y2798497D01*
X486678Y2795164D01*
X486678Y2791832D01*
X490010Y2788500D01*
X496674Y2788500D01*
X500007Y2791832D01*
X500007Y2795164D01*
X496674Y2798497D01*
X500007Y2801829D01*
X500007Y2805161D01*
X496674Y2798497D02*
X490010Y2798497D01*
X206671Y2688500D02*
X220000Y2688500D01*
X206671Y2701829D01*
X206671Y2705161D01*
X210003Y2708494D01*
X216668Y2708494D01*
X220000Y2705161D01*
X510000Y2688500D02*
X503336Y2688500D01*
X506668Y2688500D01*
X506668Y2708494D01*
X510000Y2705161D01*
X2146671Y1788500D02*
X2160000Y1788500D01*
X2146671Y1801829D01*
X2146671Y1805161D01*
X2150003Y1808494D01*
X2156668Y1808494D01*
X2160000Y1805161D01*
X2140006Y1805161D02*
X2136674Y1808494D01*
X2130010Y1808494D01*
X2126677Y1805161D01*
X2126677Y1791832D01*
X2130010Y1788500D01*
X2136674Y1788500D01*
X2140006Y1791832D01*
X2140006Y1805161D01*
X2450000Y1788500D02*
X2443336Y1788500D01*
X2446668Y1788500D01*
X2446668Y1808494D01*
X2450000Y1805161D01*
X2433339Y1791832D02*
X2430006Y1788500D01*
X2423342Y1788500D01*
X2420010Y1791832D01*
X2420010Y1805161D01*
X2423342Y1808494D01*
X2430006Y1808494D01*
X2433339Y1805161D01*
X2433339Y1801829D01*
X2430006Y1798497D01*
X2420010Y1798497D01*
X2106671Y2688500D02*
X2120000Y2688500D01*
X2106671Y2701829D01*
X2106671Y2705161D01*
X2110003Y2708494D01*
X2116668Y2708494D01*
X2120000Y2705161D01*
X2490000Y2688500D02*
X2483336Y2688500D01*
X2486668Y2688500D01*
X2486668Y2708494D01*
X2490000Y2705161D01*
X2510000Y2818500D02*
X2510000Y2838494D01*
X2500003Y2838494D01*
X2496671Y2835161D01*
X2496671Y2828497D01*
X2500003Y2825164D01*
X2510000Y2825164D01*
X2490006Y2821832D02*
X2486674Y2818500D01*
X2480010Y2818500D01*
X2476677Y2821832D01*
X2476677Y2835161D01*
X2480010Y2838494D01*
X2486674Y2838494D01*
X2490006Y2835161D01*
X2490006Y2831829D01*
X2486674Y2828497D01*
X2476677Y2828497D01*
X1628149Y2190171D02*
X1628149Y2170178D01*
X1614820Y2170178D01*
X1598159Y2170178D02*
X1604823Y2170178D01*
X1608155Y2173510D01*
X1608155Y2180175D01*
X1604823Y2183507D01*
X1598159Y2183507D01*
X1594826Y2180175D01*
X1594826Y2176842D01*
X1608155Y2176842D01*
X1588162Y2183507D02*
X1581497Y2170178D01*
X1574833Y2183507D01*
X1558171Y2170178D02*
X1564836Y2170178D01*
X1568168Y2173510D01*
X1568168Y2180175D01*
X1564836Y2183507D01*
X1558171Y2183507D01*
X1554839Y2180175D01*
X1554839Y2176842D01*
X1568168Y2176842D01*
X1548175Y2170178D02*
X1541510Y2170178D01*
X1544842Y2170178D01*
X1544842Y2190171D01*
X1548175Y2190171D01*
X1531514Y2170178D02*
X1521517Y2170178D01*
X1518185Y2173510D01*
X1521517Y2176842D01*
X1528181Y2176842D01*
X1531514Y2180175D01*
X1528181Y2183507D01*
X1518185Y2183507D01*
X1491526Y2190171D02*
X1491526Y2170178D01*
X1481530Y2170178D01*
X1478197Y2173510D01*
X1478197Y2176842D01*
X1481530Y2180175D01*
X1491526Y2180175D01*
X1481530Y2180175D01*
X1478197Y2183507D01*
X1478197Y2186839D01*
X1481530Y2190171D01*
X1491526Y2190171D01*
X1468201Y2170178D02*
X1461536Y2170178D01*
X1458204Y2173510D01*
X1458204Y2180175D01*
X1461536Y2183507D01*
X1468201Y2183507D01*
X1471533Y2180175D01*
X1471533Y2173510D01*
X1468201Y2170178D01*
X1448207Y2183507D02*
X1441543Y2183507D01*
X1438210Y2180175D01*
X1438210Y2170178D01*
X1448207Y2170178D01*
X1451540Y2173510D01*
X1448207Y2176842D01*
X1438210Y2176842D01*
X1431546Y2183507D02*
X1431546Y2170178D01*
X1431546Y2176842D01*
X1428214Y2180175D01*
X1424881Y2183507D01*
X1421549Y2183507D01*
X1398224Y2190171D02*
X1398224Y2170178D01*
X1408220Y2170178D01*
X1411553Y2173510D01*
X1411553Y2180175D01*
X1408220Y2183507D01*
X1398224Y2183507D01*
%TF.MD5,bdb4ebb42ba5fd1a62868efb59dc039a*%
M02*
