G04 Layer_Physical_Order=4*
G04 Layer_Color=36540*
%FSLAX26Y26*%
%MOIN*%
%TF.FileFunction,Copper,L4,Inr,Signal*%
%TF.Part,Single*%
G01*
G75*
%TA.AperFunction,Conductor*%
%ADD16C,0.010000*%
%TA.AperFunction,ComponentPad*%
%ADD17C,0.059055*%
%ADD18R,0.060000X0.060000*%
%ADD19C,0.047000*%
%ADD20C,0.100000*%
%ADD21R,0.059055X0.059055*%
%ADD22R,0.059055X0.059055*%
%TA.AperFunction,ViaPad*%
%ADD23C,0.085000*%
%ADD24C,0.196850*%
%ADD25C,0.196850*%
%TA.AperFunction,ComponentPad*%
%ADD26C,0.060000*%
%ADD27C,0.157480*%
%ADD28C,0.070866*%
%TA.AperFunction,ViaPad*%
%ADD29C,0.027559*%
%ADD30C,0.050000*%
D16*
X50000Y700000D02*
X50000Y1450000D01*
X-108425Y-1980575D02*
X-108425Y1291575D01*
X293165Y-15655D02*
X293165Y2486875D01*
X129425Y-179395D02*
X293165Y-15655D01*
X129425Y-2681925D02*
X129425Y-179395D01*
X2165000Y2155000D02*
X2190000Y2180000D01*
X2165000Y268750D02*
X2165000Y2155000D01*
X2165000Y268750D02*
X2220000Y213750D01*
X2210472Y1360472D02*
X2250000Y1400000D01*
X2210472Y459528D02*
X2250000Y420000D01*
X2210472Y459528D02*
X2210472Y1360472D01*
X2076500Y-1329000D02*
X2126499Y-1378999D01*
X2126499Y-2435568D02*
X2126499Y-1378999D01*
X2126499Y-2435568D02*
X2173432Y-2482500D01*
X2069425Y-1329000D02*
X2076500Y-1329000D01*
X1267808Y-2082227D02*
X1708080Y-2522500D01*
X778621Y-1497850D02*
X778621Y467150D01*
X1700000Y1388529D01*
X568149Y-1708322D02*
X778621Y-1497850D01*
X0Y1500000D02*
X50000Y1450000D01*
X50000Y700000D02*
X100000Y650000D01*
X337425Y-2655075D02*
X337425Y2389923D01*
X1600000Y1441029D02*
X1600000Y3368323D01*
X515649Y356678D02*
X1600000Y1441029D01*
X1597913Y3370410D02*
X1600000Y3368323D01*
X2069425Y-2329000D02*
X2069425Y-2321925D01*
X2014425Y2454425D02*
X2356000Y2796000D01*
X2014425Y-2366925D02*
X2069425Y-2421925D01*
X1700000Y1388529D02*
X1700000Y3368323D01*
X1697913Y3370410D02*
X1700000Y3368323D01*
X1397913Y3367913D02*
X1397913Y3370410D01*
X2069425Y-2429000D02*
X2069425Y-2421925D01*
X2029425Y-2281925D02*
X2069425Y-2321925D01*
X2169425Y-1729000D02*
X2169425Y-1723075D01*
X908000Y2878000D02*
X1397913Y3367913D01*
X825503Y2878000D02*
X908000Y2878000D01*
X337425Y2389923D02*
X825503Y2878000D01*
X293165Y2486875D02*
X1045433Y3239142D01*
X129425Y-2681925D02*
X167519Y-2720019D01*
X230000Y-2782500D02*
X267519Y-2820019D01*
X267519Y-2724981D02*
X337425Y-2655075D01*
X1045433Y3239142D02*
X1045433Y3379685D01*
X1084767Y3419019D02*
X1149020Y3419019D01*
X1197913Y3370409D02*
X1197913Y3370410D01*
X267519Y-2831164D02*
X267519Y-2820019D01*
X1197913Y3467913D02*
X1197913Y3470410D01*
X167519Y-2731164D02*
X167519Y-2720019D01*
X1045433Y3379685D02*
X1084767Y3419019D01*
X1149020Y3419019D02*
X1197913Y3467913D01*
X267519Y-2731164D02*
X267519Y-2724981D01*
X515649Y-1555822D02*
X515649Y356678D01*
X515649Y-1555822D02*
X568149Y-1608322D01*
X1215000Y-2963000D02*
X1216000Y-2962000D01*
X1216000Y-2030000D01*
X1217000Y-2029000D01*
X-108425Y1291575D02*
X0Y1400000D01*
X-108425Y-1980575D02*
X-56000Y-2033000D01*
X2062925Y-2522500D02*
X2069425Y-2529000D01*
X1267808Y-2082227D02*
X1267808Y-1757981D01*
X1708080Y-2522500D02*
X2062925Y-2522500D01*
X818149Y-1308322D02*
X1267808Y-1757981D01*
X2014425Y-2366925D02*
X2014425Y2454425D01*
X2173432Y-2482500D02*
X2242500Y-2482500D01*
X2282386Y-2522386D01*
X2282386Y-2705228D02*
X2282386Y-2522386D01*
X230000Y-2782500D02*
X230000Y-1170000D01*
X315000Y-1085000D01*
X315000Y2487496D01*
X1197913Y3370409D01*
X2169425Y-1723075D02*
X2220000Y-1672500D01*
X2220000Y213750D01*
X428087Y3560000D02*
X563520Y3424567D01*
X340000Y3560000D02*
X428087Y3560000D01*
X997913Y3370410D02*
X997913Y3372087D01*
X563520Y3424567D02*
X945433Y3424567D01*
X997913Y3372087D01*
X2029425Y-2281925D02*
X2029425Y2375425D01*
X2415000Y2761000D01*
X2415000Y2837000D01*
D17*
X0Y1600000D02*
D03*
X0Y1500000D02*
D03*
X0Y1700000D02*
D03*
X0Y1400000D02*
D03*
X2350000Y720000D02*
D03*
X2350000Y620000D02*
D03*
X2350000Y520000D02*
D03*
X2350000Y420000D02*
D03*
X2350000Y320000D02*
D03*
X2250000Y720000D02*
D03*
X2250000Y620000D02*
D03*
X2250000Y520000D02*
D03*
X2250000Y420000D02*
D03*
X2250000Y320000D02*
D03*
X2250000Y1900000D02*
D03*
X2250000Y1800000D02*
D03*
X2250000Y1700000D02*
D03*
X2250000Y1600000D02*
D03*
X2250000Y1500000D02*
D03*
X2350000Y1900000D02*
D03*
X2350000Y1800000D02*
D03*
X2350000Y1700000D02*
D03*
X2350000Y1600000D02*
D03*
X2350000Y1500000D02*
D03*
X2250000Y1400000D02*
D03*
X2250000Y1300000D02*
D03*
X2250000Y1200000D02*
D03*
X2350000Y1400000D02*
D03*
X2350000Y1300000D02*
D03*
X2350000Y1200000D02*
D03*
X0Y1050000D02*
D03*
X0Y950000D02*
D03*
X0Y850000D02*
D03*
X0Y750000D02*
D03*
X0Y650000D02*
D03*
X100000Y1050000D02*
D03*
X100000Y950000D02*
D03*
X100000Y850000D02*
D03*
X100000Y750000D02*
D03*
X100000Y650000D02*
D03*
X0Y550000D02*
D03*
X0Y450000D02*
D03*
X0Y350000D02*
D03*
X100000Y550000D02*
D03*
X100000Y450000D02*
D03*
X100000Y350000D02*
D03*
X818149Y-1308322D02*
D03*
X918149Y-1308322D02*
D03*
X1018149Y-1308322D02*
D03*
X1118149Y-1308322D02*
D03*
X1318149Y-1308322D02*
D03*
X1218149Y-1308322D02*
D03*
X568149Y-1608322D02*
D03*
X568149Y-1708322D02*
D03*
X1618149Y-1608322D02*
D03*
X1618149Y-1708322D02*
D03*
X1971999Y3133000D02*
D03*
X2071999Y3133000D02*
D03*
X2171999Y3133000D02*
D03*
X2271999Y3133000D02*
D03*
X2371999Y3133000D02*
D03*
D18*
X2267425Y3420000D02*
D03*
X2167425Y3420000D02*
D03*
X2067425Y3420000D02*
D03*
X1967425Y3420000D02*
D03*
X2367425Y3420000D02*
D03*
D19*
X1792597Y1908660D02*
D03*
X1794197Y2657260D02*
D03*
D20*
X1794197Y2819160D02*
D03*
X1794197Y1746760D02*
D03*
D21*
X1418149Y-1308322D02*
D03*
X1871999Y3133000D02*
D03*
D22*
X568149Y-1508322D02*
D03*
X1618149Y-1508322D02*
D03*
D23*
X568149Y-1308322D02*
D03*
X1618149Y-2358322D02*
D03*
X1618149Y-1308322D02*
D03*
X568149Y-2358322D02*
D03*
D24*
X2350000Y0D02*
D03*
X2350000Y2350000D02*
D03*
X0Y2350000D02*
D03*
D25*
X0Y0D02*
D03*
D26*
X170000Y-1222500D02*
D03*
X2070000Y-3422500D02*
D03*
X2070000Y-3322500D02*
D03*
X2070000Y-3222500D02*
D03*
X2070000Y-3122500D02*
D03*
X2070000Y-3022500D02*
D03*
X2070000Y-2922500D02*
D03*
X2070000Y-2822500D02*
D03*
X2070000Y-2722500D02*
D03*
X2070000Y-2622500D02*
D03*
X2070000Y-2522500D02*
D03*
X2070000Y-2422500D02*
D03*
X2070000Y-2322500D02*
D03*
X2070000Y-2222500D02*
D03*
X2070000Y-2122500D02*
D03*
X2070000Y-2022500D02*
D03*
X2070000Y-1922500D02*
D03*
X2070000Y-1822500D02*
D03*
X2070000Y-1722500D02*
D03*
X2070000Y-1622500D02*
D03*
X2070000Y-1522500D02*
D03*
X2070000Y-1422500D02*
D03*
X2070000Y-1322500D02*
D03*
X2170000Y-3422500D02*
D03*
X2170000Y-3322500D02*
D03*
X2170000Y-3222500D02*
D03*
X2170000Y-3122500D02*
D03*
X2170000Y-3022500D02*
D03*
X2170000Y-2922500D02*
D03*
X2170000Y-2822500D02*
D03*
X2170000Y-2722500D02*
D03*
X2170000Y-2622500D02*
D03*
X2170000Y-2522500D02*
D03*
X2170000Y-2422500D02*
D03*
X2170000Y-2322500D02*
D03*
X2170000Y-2222500D02*
D03*
X2170000Y-2122500D02*
D03*
X2170000Y-2022500D02*
D03*
X2170000Y-1922500D02*
D03*
X2170000Y-1822500D02*
D03*
X2170000Y-1722500D02*
D03*
X2170000Y-1622500D02*
D03*
X2170000Y-1522500D02*
D03*
X2170000Y-1422500D02*
D03*
X2170000Y-1322500D02*
D03*
X2170000Y-1222500D02*
D03*
X2070000Y-1222500D02*
D03*
X170000Y-3422500D02*
D03*
X170000Y-3322500D02*
D03*
X170000Y-3222500D02*
D03*
X170000Y-3122500D02*
D03*
X170000Y-3022500D02*
D03*
X170000Y-2922500D02*
D03*
X170000Y-2822500D02*
D03*
X170000Y-2722500D02*
D03*
X170000Y-2622500D02*
D03*
X170000Y-2522500D02*
D03*
X170000Y-2422500D02*
D03*
X170000Y-2322500D02*
D03*
X170000Y-2222500D02*
D03*
X170000Y-2122500D02*
D03*
X170000Y-2022500D02*
D03*
X170000Y-1922500D02*
D03*
X170000Y-1822500D02*
D03*
X170000Y-1722500D02*
D03*
X170000Y-1622500D02*
D03*
X170000Y-1522500D02*
D03*
X170000Y-1422500D02*
D03*
X170000Y-1322500D02*
D03*
X270000Y-3422500D02*
D03*
X270000Y-3322500D02*
D03*
X270000Y-3222500D02*
D03*
X270000Y-3122500D02*
D03*
X270000Y-3022500D02*
D03*
X270000Y-2922500D02*
D03*
X270000Y-2822500D02*
D03*
X270000Y-2722500D02*
D03*
X270000Y-2622500D02*
D03*
X270000Y-2522500D02*
D03*
X270000Y-2422500D02*
D03*
X270000Y-2322500D02*
D03*
X270000Y-2222500D02*
D03*
X270000Y-2122500D02*
D03*
X270000Y-2022500D02*
D03*
X270000Y-1922500D02*
D03*
X270000Y-1822500D02*
D03*
X270000Y-1722500D02*
D03*
X270000Y-1622500D02*
D03*
X270000Y-1522500D02*
D03*
X270000Y-1422500D02*
D03*
X270000Y-1322500D02*
D03*
X270000Y-1222500D02*
D03*
D27*
X345000Y-3597500D02*
D03*
X1995000Y-3597500D02*
D03*
X2120000Y-1022500D02*
D03*
X220000Y-1022500D02*
D03*
D28*
X600000Y3470000D02*
D03*
X600000Y3370000D02*
D03*
X1700000Y3470000D02*
D03*
X1600000Y3470000D02*
D03*
X1500000Y3470000D02*
D03*
X1400000Y3470000D02*
D03*
X1300000Y3470000D02*
D03*
X1200000Y3470000D02*
D03*
X1100000Y3470000D02*
D03*
X1000000Y3470000D02*
D03*
X900000Y3470000D02*
D03*
X800000Y3470000D02*
D03*
X1700000Y3370000D02*
D03*
X1600000Y3370000D02*
D03*
X1500000Y3370000D02*
D03*
X1400000Y3370000D02*
D03*
X1300000Y3370000D02*
D03*
X1200000Y3370000D02*
D03*
X1100000Y3370000D02*
D03*
X1000000Y3370000D02*
D03*
X900000Y3370000D02*
D03*
X800000Y3370000D02*
D03*
X700000Y3370000D02*
D03*
X700000Y3470000D02*
D03*
D29*
X1895000Y530000D02*
D03*
X1860000Y2300000D02*
D03*
X1760000Y2350000D02*
D03*
X1840000Y2380000D02*
D03*
X1183961Y-2937512D02*
D03*
X1404433Y-2744598D02*
D03*
X1404433Y-3101370D02*
D03*
X813882Y-2937512D02*
D03*
X1250890Y-2988693D02*
D03*
X1164276Y-2827276D02*
D03*
X1829630Y-2075307D02*
D03*
X1217000Y-2029000D02*
D03*
X1215000Y-2963000D02*
D03*
X480000Y3420000D02*
D03*
X340000Y3560000D02*
D03*
X215000Y3585000D02*
D03*
X85000Y3525000D02*
D03*
X1840000Y2420000D02*
D03*
D30*
X390000Y1125000D02*
D03*
X475000Y1025000D02*
D03*
X896000Y1891000D02*
D03*
X427000Y-915000D02*
D03*
X840000Y2843000D02*
D03*
X1942000Y2819000D02*
D03*
X2415000Y2837000D02*
D03*
X2356000Y2796000D02*
D03*
X2190000Y2180000D02*
D03*
X1095000Y2850000D02*
D03*
X1090000Y2925000D02*
D03*
X2286323Y-3020189D02*
D03*
X2282386Y-2705228D02*
D03*
X-90000Y-3510000D02*
D03*
X-56000Y-2033000D02*
D03*
X1787000Y3530000D02*
D03*
X949000Y3662000D02*
D03*
X1809000Y3601000D02*
D03*
%TF.MD5,1a57c54bbc28226549b607a7296b2df9*%
M02*
