G04 Layer_Physical_Order=1*
G04 Layer_Color=255*
%FSLAX26Y26*%
%MOIN*%
%TF.FileFunction,Copper,L1,Top,Signal*%
%TF.Part,Single*%
G01*
G75*
%TA.AperFunction,SMDPad,CuDef*%
%ADD10R,0.051181X0.033465*%
G04:AMPARAMS|DCode=11|XSize=25.591mil|YSize=47.244mil|CornerRadius=1.919mil|HoleSize=0mil|Usage=FLASHONLY|Rotation=90.000|XOffset=0mil|YOffset=0mil|HoleType=Round|Shape=RoundedRectangle|*
%AMROUNDEDRECTD11*
21,1,0.025591,0.043406,0,0,90.0*
21,1,0.021752,0.047244,0,0,90.0*
1,1,0.003839,0.021703,0.010876*
1,1,0.003839,0.021703,-0.010876*
1,1,0.003839,-0.021703,-0.010876*
1,1,0.003839,-0.021703,0.010876*
%
%ADD11ROUNDEDRECTD11*%
%ADD12R,0.055118X0.041339*%
%ADD13R,0.020472X0.020472*%
%ADD14R,0.045276X0.057087*%
%ADD15R,0.053150X0.061024*%
G04:AMPARAMS|DCode=16|XSize=17.716mil|YSize=55.118mil|CornerRadius=1.949mil|HoleSize=0mil|Usage=FLASHONLY|Rotation=90.000|XOffset=0mil|YOffset=0mil|HoleType=Round|Shape=RoundedRectangle|*
%AMROUNDEDRECTD16*
21,1,0.017716,0.051221,0,0,90.0*
21,1,0.013819,0.055118,0,0,90.0*
1,1,0.003898,0.025610,0.006910*
1,1,0.003898,0.025610,-0.006910*
1,1,0.003898,-0.025610,-0.006910*
1,1,0.003898,-0.025610,0.006910*
%
%ADD16ROUNDEDRECTD16*%
%ADD17R,0.025591X0.033465*%
%TA.AperFunction,Conductor*%
%ADD18C,0.010000*%
%TA.AperFunction,ComponentPad*%
%ADD19R,0.060000X0.060000*%
%TA.AperFunction,ViaPad*%
%ADD20C,0.196850*%
%ADD21C,0.196850*%
%ADD22C,0.085000*%
%TA.AperFunction,ComponentPad*%
%ADD23C,0.157480*%
%ADD24C,0.060000*%
%ADD25C,0.059055*%
%ADD26R,0.059055X0.059055*%
%ADD27R,0.059055X0.059055*%
%ADD28C,0.100000*%
%ADD29C,0.047000*%
%ADD30C,0.070866*%
%TA.AperFunction,ViaPad*%
%ADD31C,0.050000*%
%ADD32C,0.027559*%
G36*
X2387519Y2658676D02*
X2387520Y-4979166D01*
X-250480Y-4979166D01*
X-250480Y2658677D01*
X2387519Y2658676D01*
X2387519Y2658676D02*
G37*
%LPC*%
G36*
X1635630Y-3129489D02*
X1604055Y-3129489D01*
X1604055Y-3165001D01*
X1635630Y-3165001D01*
X1635630Y-3129489D01*
X1635630Y-3129489D02*
G37*
G36*
X1970000Y-3137198D02*
X1960863Y-3138401D01*
X1952349Y-3141928D01*
X1945038Y-3147538D01*
X1939428Y-3154849D01*
X1935901Y-3163363D01*
X1934698Y-3172500D01*
X1935901Y-3181637D01*
X1939428Y-3190151D01*
X1945038Y-3197462D01*
X1952349Y-3203072D01*
X1960863Y-3206599D01*
X1970000Y-3207802D01*
X1979137Y-3206599D01*
X1987651Y-3203072D01*
X1994962Y-3197462D01*
X2000572Y-3190151D01*
X2004099Y-3181637D01*
X2005302Y-3172500D01*
X2004099Y-3163363D01*
X2000572Y-3154849D01*
X1994962Y-3147538D01*
X1987651Y-3141928D01*
X1979137Y-3138401D01*
X1970000Y-3137198D01*
X1970000Y-3137198D02*
G37*
G36*
X1729630Y-3106160D02*
X1722303Y-3107617D01*
X1716091Y-3111768D01*
X1711940Y-3117980D01*
X1710483Y-3125307D01*
X1711314Y-3129489D01*
X1707623Y-3134489D01*
X1687795Y-3134489D01*
X1687795Y-3205512D01*
X1709174Y-3205512D01*
X1709174Y-3236457D01*
X1687796Y-3236457D01*
X1687796Y-3303544D01*
X1743072Y-3303544D01*
X1743072Y-3236457D01*
X1729566Y-3236457D01*
X1729566Y-3205512D01*
X1750945Y-3205512D01*
X1750945Y-3134489D01*
X1750945Y-3134489D01*
X1747946Y-3129489D01*
X1748777Y-3125307D01*
X1747320Y-3117980D01*
X1743169Y-3111768D01*
X1736957Y-3107617D01*
X1729630Y-3106160D01*
X1729630Y-3106160D02*
G37*
G36*
X1677205Y-3129489D02*
X1645630Y-3129489D01*
X1645630Y-3165001D01*
X1677205Y-3165001D01*
X1677205Y-3129489D01*
X1677205Y-3129489D02*
G37*
G36*
X1635630Y-3175001D02*
X1604055Y-3175001D01*
X1604055Y-3210512D01*
X1635630Y-3210512D01*
X1635630Y-3175001D01*
X1635630Y-3175001D02*
G37*
G36*
X1677206Y-3231457D02*
X1649568Y-3231457D01*
X1649568Y-3265001D01*
X1677206Y-3265001D01*
X1677206Y-3231457D01*
X1677206Y-3231457D02*
G37*
G36*
X-156000Y-3052741D02*
X-163832Y-3053772D01*
X-171130Y-3056795D01*
X-177396Y-3061604D01*
X-182205Y-3067871D01*
X-185228Y-3075168D01*
X-186259Y-3083000D01*
X-185228Y-3090832D01*
X-182205Y-3098129D01*
X-177396Y-3104396D01*
X-171130Y-3109205D01*
X-163832Y-3112228D01*
X-156000Y-3113259D01*
X-148168Y-3112228D01*
X-143235Y-3110184D01*
X-119416Y-3134003D01*
X-116109Y-3136213D01*
X-112207Y-3136989D01*
X51206Y-3136989D01*
X52303Y-3141730D01*
X52269Y-3141989D01*
X45038Y-3147538D01*
X39428Y-3154849D01*
X35901Y-3163363D01*
X34698Y-3172500D01*
X35901Y-3181637D01*
X39428Y-3190151D01*
X45038Y-3197462D01*
X52349Y-3203072D01*
X60863Y-3206599D01*
X70000Y-3207802D01*
X79137Y-3206599D01*
X87651Y-3203072D01*
X94962Y-3197462D01*
X100572Y-3190151D01*
X104099Y-3181637D01*
X105302Y-3172500D01*
X104099Y-3163363D01*
X100572Y-3154849D01*
X94962Y-3147538D01*
X87731Y-3141989D01*
X87697Y-3141730D01*
X88794Y-3136989D01*
X120070Y-3136989D01*
X138989Y-3155908D01*
X135901Y-3163363D01*
X134698Y-3172500D01*
X135901Y-3181637D01*
X139428Y-3190151D01*
X145038Y-3197462D01*
X152349Y-3203072D01*
X160863Y-3206599D01*
X170000Y-3207802D01*
X179137Y-3206599D01*
X187651Y-3203072D01*
X194962Y-3197462D01*
X200572Y-3190151D01*
X204099Y-3181637D01*
X205302Y-3172500D01*
X204099Y-3163363D01*
X200572Y-3154849D01*
X194962Y-3147538D01*
X187651Y-3141928D01*
X179137Y-3138401D01*
X170000Y-3137198D01*
X160863Y-3138401D01*
X153408Y-3141489D01*
X131503Y-3119584D01*
X128195Y-3117373D01*
X124293Y-3116597D01*
X-107984Y-3116597D01*
X-128816Y-3095765D01*
X-126772Y-3090832D01*
X-125741Y-3083000D01*
X-126772Y-3075168D01*
X-129795Y-3067871D01*
X-134604Y-3061604D01*
X-140870Y-3056795D01*
X-148168Y-3053772D01*
X-156000Y-3052741D01*
X-156000Y-3052741D02*
G37*
G36*
X1677205Y-3175001D02*
X1645630Y-3175001D01*
X1645630Y-3210512D01*
X1677205Y-3210512D01*
X1677205Y-3175001D01*
X1677205Y-3175001D02*
G37*
G36*
X170000Y-2937198D02*
X160863Y-2938401D01*
X152349Y-2941928D01*
X145038Y-2947538D01*
X139428Y-2954849D01*
X135901Y-2963363D01*
X134698Y-2972500D01*
X135901Y-2981637D01*
X139428Y-2990151D01*
X145038Y-2997462D01*
X152349Y-3003072D01*
X160863Y-3006599D01*
X170000Y-3007802D01*
X179137Y-3006599D01*
X187651Y-3003072D01*
X194962Y-2997462D01*
X200572Y-2990151D01*
X204099Y-2981637D01*
X205302Y-2972500D01*
X204099Y-2963363D01*
X200572Y-2954849D01*
X194962Y-2947538D01*
X187651Y-2941928D01*
X179137Y-2938401D01*
X170000Y-2937198D01*
X170000Y-2937198D02*
G37*
G36*
X70000Y-2937198D02*
X60863Y-2938401D01*
X52349Y-2941928D01*
X45038Y-2947538D01*
X39428Y-2954849D01*
X35901Y-2963363D01*
X34698Y-2972500D01*
X35901Y-2981637D01*
X39428Y-2990151D01*
X45038Y-2997462D01*
X52349Y-3003072D01*
X60863Y-3006599D01*
X70000Y-3007802D01*
X79137Y-3006599D01*
X87651Y-3003072D01*
X94962Y-2997462D01*
X100572Y-2990151D01*
X104099Y-2981637D01*
X105302Y-2972500D01*
X104099Y-2963363D01*
X100572Y-2954849D01*
X94962Y-2947538D01*
X87651Y-2941928D01*
X79137Y-2938401D01*
X70000Y-2937198D01*
X70000Y-2937198D02*
G37*
G36*
X2070000Y-2937198D02*
X2060863Y-2938401D01*
X2052349Y-2941928D01*
X2045038Y-2947538D01*
X2039428Y-2954849D01*
X2035901Y-2963363D01*
X2034698Y-2972500D01*
X2035901Y-2981637D01*
X2039428Y-2990151D01*
X2045038Y-2997462D01*
X2052349Y-3003072D01*
X2060863Y-3006599D01*
X2070000Y-3007802D01*
X2079137Y-3006599D01*
X2087651Y-3003072D01*
X2094962Y-2997462D01*
X2100572Y-2990151D01*
X2104099Y-2981637D01*
X2105302Y-2972500D01*
X2104099Y-2963363D01*
X2100572Y-2954849D01*
X2094962Y-2947538D01*
X2087651Y-2941928D01*
X2079137Y-2938401D01*
X2070000Y-2937198D01*
X2070000Y-2937198D02*
G37*
G36*
X1970000Y-2937198D02*
X1960863Y-2938401D01*
X1952349Y-2941928D01*
X1945038Y-2947538D01*
X1939428Y-2954849D01*
X1935901Y-2963363D01*
X1934698Y-2972500D01*
X1935901Y-2981637D01*
X1939428Y-2990151D01*
X1945038Y-2997462D01*
X1952349Y-3003072D01*
X1960863Y-3006599D01*
X1970000Y-3007802D01*
X1979137Y-3006599D01*
X1987651Y-3003072D01*
X1994962Y-2997462D01*
X2000572Y-2990151D01*
X2004099Y-2981637D01*
X2005302Y-2972500D01*
X2004099Y-2963363D01*
X2000572Y-2954849D01*
X1994962Y-2947538D01*
X1987651Y-2941928D01*
X1979137Y-2938401D01*
X1970000Y-2937198D01*
X1970000Y-2937198D02*
G37*
G36*
X170000Y-3037198D02*
X160863Y-3038401D01*
X152349Y-3041928D01*
X145038Y-3047538D01*
X139428Y-3054849D01*
X135901Y-3063363D01*
X134698Y-3072500D01*
X135901Y-3081637D01*
X139428Y-3090151D01*
X145038Y-3097462D01*
X152349Y-3103072D01*
X160863Y-3106599D01*
X170000Y-3107802D01*
X179137Y-3106599D01*
X187651Y-3103072D01*
X194962Y-3097462D01*
X200572Y-3090151D01*
X204099Y-3081637D01*
X205302Y-3072500D01*
X204099Y-3063363D01*
X200572Y-3054849D01*
X194962Y-3047538D01*
X187651Y-3041928D01*
X179137Y-3038401D01*
X170000Y-3037198D01*
X170000Y-3037198D02*
G37*
G36*
X70000Y-3037198D02*
X60863Y-3038401D01*
X52349Y-3041928D01*
X45038Y-3047538D01*
X39428Y-3054849D01*
X35901Y-3063363D01*
X34698Y-3072500D01*
X35901Y-3081637D01*
X39428Y-3090151D01*
X45038Y-3097462D01*
X52349Y-3103072D01*
X60863Y-3106599D01*
X70000Y-3107802D01*
X79137Y-3106599D01*
X87651Y-3103072D01*
X94962Y-3097462D01*
X100572Y-3090151D01*
X104099Y-3081637D01*
X105302Y-3072500D01*
X104099Y-3063363D01*
X100572Y-3054849D01*
X94962Y-3047538D01*
X87651Y-3041928D01*
X79137Y-3038401D01*
X70000Y-3037198D01*
X70000Y-3037198D02*
G37*
G36*
X2070000Y-3037198D02*
X2060863Y-3038401D01*
X2052349Y-3041928D01*
X2045038Y-3047538D01*
X2039428Y-3054849D01*
X2035901Y-3063363D01*
X2034698Y-3072500D01*
X2035901Y-3081637D01*
X2039428Y-3090151D01*
X2045038Y-3097462D01*
X2052349Y-3103072D01*
X2060863Y-3106599D01*
X2070000Y-3107802D01*
X2079137Y-3106599D01*
X2087651Y-3103072D01*
X2094962Y-3097462D01*
X2100572Y-3090151D01*
X2104099Y-3081637D01*
X2105302Y-3072500D01*
X2104099Y-3063363D01*
X2100572Y-3054849D01*
X2094962Y-3047538D01*
X2087651Y-3041928D01*
X2079137Y-3038401D01*
X2070000Y-3037198D01*
X2070000Y-3037198D02*
G37*
G36*
X1970000Y-3037198D02*
X1960863Y-3038401D01*
X1952349Y-3041928D01*
X1945038Y-3047538D01*
X1939428Y-3054849D01*
X1935901Y-3063363D01*
X1934698Y-3072500D01*
X1935901Y-3081637D01*
X1939428Y-3090151D01*
X1945038Y-3097462D01*
X1952349Y-3103072D01*
X1960863Y-3106599D01*
X1970000Y-3107802D01*
X1979137Y-3106599D01*
X1987651Y-3103072D01*
X1994962Y-3097462D01*
X2000572Y-3090151D01*
X2004099Y-3081637D01*
X2005302Y-3072500D01*
X2004099Y-3063363D01*
X2000572Y-3054849D01*
X1994962Y-3047538D01*
X1987651Y-3041928D01*
X1979137Y-3038401D01*
X1970000Y-3037198D01*
X1970000Y-3037198D02*
G37*
G36*
X468149Y-3355369D02*
X454444Y-3357174D01*
X441672Y-3362464D01*
X430705Y-3370879D01*
X422290Y-3381846D01*
X417000Y-3394617D01*
X415196Y-3408322D01*
X417000Y-3422028D01*
X422290Y-3434799D01*
X430705Y-3445766D01*
X441672Y-3454181D01*
X454444Y-3459471D01*
X468149Y-3461275D01*
X481854Y-3459471D01*
X494625Y-3454181D01*
X505592Y-3445766D01*
X514008Y-3434799D01*
X519298Y-3422028D01*
X521102Y-3408322D01*
X519298Y-3394617D01*
X514008Y-3381846D01*
X505592Y-3370879D01*
X494625Y-3362464D01*
X481854Y-3357174D01*
X468149Y-3355369D01*
X468149Y-3355369D02*
G37*
G36*
X2070000Y-3437198D02*
X2060863Y-3438401D01*
X2052349Y-3441928D01*
X2045038Y-3447538D01*
X2039428Y-3454849D01*
X2035901Y-3463363D01*
X2034698Y-3472500D01*
X2035901Y-3481637D01*
X2039428Y-3490151D01*
X2045038Y-3497462D01*
X2052349Y-3503072D01*
X2060863Y-3506599D01*
X2070000Y-3507802D01*
X2079137Y-3506599D01*
X2087651Y-3503072D01*
X2094962Y-3497462D01*
X2100572Y-3490151D01*
X2104099Y-3481637D01*
X2105302Y-3472500D01*
X2104099Y-3463363D01*
X2100572Y-3454849D01*
X2094962Y-3447538D01*
X2087651Y-3441928D01*
X2079137Y-3438401D01*
X2070000Y-3437198D01*
X2070000Y-3437198D02*
G37*
G36*
X70000Y-3337198D02*
X60863Y-3338401D01*
X52349Y-3341928D01*
X45038Y-3347538D01*
X39428Y-3354849D01*
X35901Y-3363363D01*
X34698Y-3372500D01*
X35901Y-3381637D01*
X39428Y-3390151D01*
X45038Y-3397462D01*
X52349Y-3403072D01*
X60863Y-3406599D01*
X70000Y-3407802D01*
X79137Y-3406599D01*
X87651Y-3403072D01*
X94962Y-3397462D01*
X100572Y-3390151D01*
X104099Y-3381637D01*
X105302Y-3372500D01*
X104099Y-3363363D01*
X100572Y-3354849D01*
X94962Y-3347538D01*
X87651Y-3341928D01*
X79137Y-3338401D01*
X70000Y-3337198D01*
X70000Y-3337198D02*
G37*
G36*
X1518149Y-3355369D02*
X1504444Y-3357174D01*
X1491672Y-3362464D01*
X1480706Y-3370879D01*
X1472290Y-3381846D01*
X1467000Y-3394617D01*
X1465196Y-3408322D01*
X1467000Y-3422028D01*
X1472290Y-3434799D01*
X1480706Y-3445766D01*
X1491672Y-3454181D01*
X1504444Y-3459471D01*
X1518149Y-3461275D01*
X1531854Y-3459471D01*
X1544625Y-3454181D01*
X1555592Y-3445766D01*
X1564007Y-3434799D01*
X1569298Y-3422028D01*
X1571102Y-3408322D01*
X1569298Y-3394617D01*
X1564007Y-3381846D01*
X1555592Y-3370879D01*
X1544625Y-3362464D01*
X1531854Y-3357174D01*
X1518149Y-3355369D01*
X1518149Y-3355369D02*
G37*
G36*
X70000Y-3437198D02*
X60863Y-3438401D01*
X52349Y-3441928D01*
X45038Y-3447538D01*
X39428Y-3454849D01*
X35901Y-3463363D01*
X34698Y-3472500D01*
X35901Y-3481637D01*
X39428Y-3490151D01*
X45038Y-3497462D01*
X52349Y-3503072D01*
X60863Y-3506599D01*
X70000Y-3507802D01*
X79137Y-3506599D01*
X87651Y-3503072D01*
X94962Y-3497462D01*
X100572Y-3490151D01*
X104099Y-3481637D01*
X105302Y-3472500D01*
X104099Y-3463363D01*
X100572Y-3454849D01*
X94962Y-3447538D01*
X87651Y-3441928D01*
X79137Y-3438401D01*
X70000Y-3437198D01*
X70000Y-3437198D02*
G37*
G36*
X2070000Y-3537198D02*
X2060863Y-3538401D01*
X2052349Y-3541928D01*
X2045038Y-3547538D01*
X2039428Y-3554849D01*
X2035901Y-3563363D01*
X2034698Y-3572500D01*
X2035901Y-3581637D01*
X2039428Y-3590151D01*
X2045038Y-3597462D01*
X2052349Y-3603072D01*
X2060863Y-3606599D01*
X2070000Y-3607802D01*
X2079137Y-3606599D01*
X2087651Y-3603072D01*
X2094962Y-3597462D01*
X2100572Y-3590151D01*
X2104099Y-3581637D01*
X2105302Y-3572500D01*
X2104099Y-3563363D01*
X2100572Y-3554849D01*
X2094962Y-3547538D01*
X2087651Y-3541928D01*
X2079137Y-3538401D01*
X2070000Y-3537198D01*
X2070000Y-3537198D02*
G37*
G36*
X1970000Y-3437198D02*
X1960863Y-3438401D01*
X1952349Y-3441928D01*
X1945038Y-3447538D01*
X1939428Y-3454849D01*
X1935901Y-3463363D01*
X1934698Y-3472500D01*
X1935901Y-3481637D01*
X1939428Y-3490151D01*
X1945038Y-3497462D01*
X1952349Y-3503072D01*
X1960863Y-3506599D01*
X1970000Y-3507802D01*
X1979137Y-3506599D01*
X1987651Y-3503072D01*
X1994962Y-3497462D01*
X2000572Y-3490151D01*
X2004099Y-3481637D01*
X2005302Y-3472500D01*
X2004099Y-3463363D01*
X2000572Y-3454849D01*
X1994962Y-3447538D01*
X1987651Y-3441928D01*
X1979137Y-3438401D01*
X1970000Y-3437198D01*
X1970000Y-3437198D02*
G37*
G36*
X170000Y-3437198D02*
X160863Y-3438401D01*
X152349Y-3441928D01*
X145038Y-3447538D01*
X139428Y-3454849D01*
X135901Y-3463363D01*
X134698Y-3472500D01*
X135901Y-3481637D01*
X139428Y-3490151D01*
X145038Y-3497462D01*
X152349Y-3503072D01*
X160863Y-3506599D01*
X170000Y-3507802D01*
X179137Y-3506599D01*
X187651Y-3503072D01*
X194962Y-3497462D01*
X200572Y-3490151D01*
X204099Y-3481637D01*
X205302Y-3472500D01*
X204099Y-3463363D01*
X200572Y-3454849D01*
X194962Y-3447538D01*
X187651Y-3441928D01*
X179137Y-3438401D01*
X170000Y-3437198D01*
X170000Y-3437198D02*
G37*
G36*
X70000Y-3237198D02*
X60863Y-3238401D01*
X52349Y-3241928D01*
X45038Y-3247538D01*
X39428Y-3254849D01*
X35901Y-3263363D01*
X34698Y-3272500D01*
X35901Y-3281637D01*
X39428Y-3290151D01*
X45038Y-3297462D01*
X52349Y-3303072D01*
X60863Y-3306599D01*
X70000Y-3307802D01*
X79137Y-3306599D01*
X87651Y-3303072D01*
X94962Y-3297462D01*
X100572Y-3290151D01*
X104099Y-3281637D01*
X105302Y-3272500D01*
X104099Y-3263363D01*
X100572Y-3254849D01*
X94962Y-3247538D01*
X87651Y-3241928D01*
X79137Y-3238401D01*
X70000Y-3237198D01*
X70000Y-3237198D02*
G37*
G36*
X1677206Y-3275001D02*
X1649568Y-3275001D01*
X1649568Y-3308544D01*
X1677206Y-3308544D01*
X1677206Y-3275001D01*
X1677206Y-3275001D02*
G37*
G36*
X1639568Y-3231457D02*
X1611930Y-3231457D01*
X1611930Y-3265001D01*
X1639568Y-3265001D01*
X1639568Y-3231457D01*
X1639568Y-3231457D02*
G37*
G36*
X170000Y-3237198D02*
X160863Y-3238401D01*
X152349Y-3241928D01*
X145038Y-3247538D01*
X139428Y-3254849D01*
X135901Y-3263363D01*
X134698Y-3272500D01*
X135901Y-3281637D01*
X139428Y-3290151D01*
X145038Y-3297462D01*
X152349Y-3303072D01*
X160863Y-3306599D01*
X170000Y-3307802D01*
X179137Y-3306599D01*
X187651Y-3303072D01*
X194962Y-3297462D01*
X200572Y-3290151D01*
X204099Y-3281637D01*
X205302Y-3272500D01*
X204099Y-3263363D01*
X200572Y-3254849D01*
X194962Y-3247538D01*
X187651Y-3241928D01*
X179137Y-3238401D01*
X170000Y-3237198D01*
X170000Y-3237198D02*
G37*
G36*
X1970000Y-3337198D02*
X1960863Y-3338401D01*
X1952349Y-3341928D01*
X1945038Y-3347538D01*
X1939428Y-3354849D01*
X1935901Y-3363363D01*
X1934698Y-3372500D01*
X1935901Y-3381637D01*
X1939428Y-3390151D01*
X1945038Y-3397462D01*
X1952349Y-3403072D01*
X1960863Y-3406599D01*
X1970000Y-3407802D01*
X1979137Y-3406599D01*
X1987651Y-3403072D01*
X1994962Y-3397462D01*
X2000572Y-3390151D01*
X2004099Y-3381637D01*
X2005302Y-3372500D01*
X2004099Y-3363363D01*
X2000572Y-3354849D01*
X1994962Y-3347538D01*
X1987651Y-3341928D01*
X1979137Y-3338401D01*
X1970000Y-3337198D01*
X1970000Y-3337198D02*
G37*
G36*
X170000Y-3337198D02*
X160863Y-3338401D01*
X152349Y-3341928D01*
X145038Y-3347538D01*
X139428Y-3354849D01*
X135901Y-3363363D01*
X134698Y-3372500D01*
X135901Y-3381637D01*
X139428Y-3390151D01*
X145038Y-3397462D01*
X152349Y-3403072D01*
X160863Y-3406599D01*
X170000Y-3407802D01*
X179137Y-3406599D01*
X187651Y-3403072D01*
X194962Y-3397462D01*
X200572Y-3390151D01*
X204099Y-3381637D01*
X205302Y-3372500D01*
X204099Y-3363363D01*
X200572Y-3354849D01*
X194962Y-3347538D01*
X187651Y-3341928D01*
X179137Y-3338401D01*
X170000Y-3337198D01*
X170000Y-3337198D02*
G37*
G36*
X1639568Y-3275001D02*
X1611930Y-3275001D01*
X1611930Y-3308544D01*
X1639568Y-3308544D01*
X1639568Y-3275001D01*
X1639568Y-3275001D02*
G37*
G36*
X2070000Y-3337198D02*
X2060863Y-3338401D01*
X2052349Y-3341928D01*
X2045038Y-3347538D01*
X2039428Y-3354849D01*
X2035901Y-3363363D01*
X2034698Y-3372500D01*
X2035901Y-3381637D01*
X2039428Y-3390151D01*
X2045038Y-3397462D01*
X2052349Y-3403072D01*
X2060863Y-3406599D01*
X2070000Y-3407802D01*
X2079137Y-3406599D01*
X2087651Y-3403072D01*
X2094962Y-3397462D01*
X2100572Y-3390151D01*
X2104099Y-3381637D01*
X2105302Y-3372500D01*
X2104099Y-3363363D01*
X2100572Y-3354849D01*
X2094962Y-3347538D01*
X2087651Y-3341928D01*
X2079137Y-3338401D01*
X2070000Y-3337198D01*
X2070000Y-3337198D02*
G37*
G36*
X70000Y-2837198D02*
X60863Y-2838401D01*
X52349Y-2841928D01*
X45038Y-2847538D01*
X39428Y-2854849D01*
X35901Y-2863363D01*
X34698Y-2872500D01*
X35901Y-2881637D01*
X39428Y-2890151D01*
X45038Y-2897462D01*
X52349Y-2903072D01*
X60863Y-2906599D01*
X70000Y-2907802D01*
X79137Y-2906599D01*
X87651Y-2903072D01*
X94962Y-2897462D01*
X100572Y-2890151D01*
X104099Y-2881637D01*
X105302Y-2872500D01*
X104099Y-2863363D01*
X100572Y-2854849D01*
X94962Y-2847538D01*
X87651Y-2841928D01*
X79137Y-2838401D01*
X70000Y-2837198D01*
X70000Y-2837198D02*
G37*
G36*
X1113149Y-2363322D02*
X1078939Y-2363322D01*
X1079639Y-2368641D01*
X1083622Y-2378257D01*
X1089957Y-2386514D01*
X1098215Y-2392850D01*
X1107830Y-2396832D01*
X1113149Y-2397533D01*
X1113149Y-2363322D01*
X1113149Y-2363322D02*
G37*
G36*
X70000Y-2337198D02*
X60863Y-2338401D01*
X52349Y-2341928D01*
X45038Y-2347538D01*
X39428Y-2354849D01*
X35901Y-2363363D01*
X34698Y-2372500D01*
X35901Y-2381637D01*
X39428Y-2390151D01*
X45038Y-2397462D01*
X52349Y-2403072D01*
X60863Y-2406599D01*
X70000Y-2407802D01*
X79137Y-2406599D01*
X87651Y-2403072D01*
X94962Y-2397462D01*
X100572Y-2390151D01*
X104099Y-2381637D01*
X105302Y-2372500D01*
X104099Y-2363363D01*
X100572Y-2354849D01*
X94962Y-2347538D01*
X87651Y-2341928D01*
X79137Y-2338401D01*
X70000Y-2337198D01*
X70000Y-2337198D02*
G37*
G36*
X1157359Y-2363322D02*
X1123149Y-2363322D01*
X1123149Y-2397533D01*
X1128468Y-2396832D01*
X1138083Y-2392850D01*
X1146340Y-2386514D01*
X1152676Y-2378257D01*
X1156659Y-2368641D01*
X1157359Y-2363322D01*
X1157359Y-2363322D02*
G37*
G36*
X1213149Y-2363322D02*
X1178939Y-2363322D01*
X1179639Y-2368641D01*
X1183622Y-2378257D01*
X1189957Y-2386514D01*
X1198215Y-2392850D01*
X1207830Y-2396832D01*
X1213149Y-2397533D01*
X1213149Y-2363322D01*
X1213149Y-2363322D02*
G37*
G36*
X1552676Y-2523795D02*
X1483621Y-2523795D01*
X1483621Y-2592850D01*
X1552676Y-2592850D01*
X1552676Y-2523795D01*
X1552676Y-2523795D02*
G37*
G36*
X502676Y-2523795D02*
X433621Y-2523795D01*
X433621Y-2592850D01*
X502676Y-2592850D01*
X502676Y-2523795D01*
X502676Y-2523795D02*
G37*
G36*
X468149Y-2305369D02*
X454444Y-2307174D01*
X441672Y-2312464D01*
X430705Y-2320879D01*
X422290Y-2331846D01*
X417000Y-2344617D01*
X415196Y-2358322D01*
X417000Y-2372028D01*
X422290Y-2384799D01*
X430705Y-2395766D01*
X441672Y-2404181D01*
X454444Y-2409471D01*
X468149Y-2411275D01*
X481854Y-2409471D01*
X494625Y-2404181D01*
X505592Y-2395766D01*
X514008Y-2384799D01*
X519298Y-2372028D01*
X521102Y-2358322D01*
X519298Y-2344617D01*
X514008Y-2331846D01*
X505592Y-2320879D01*
X494625Y-2312464D01*
X481854Y-2307174D01*
X468149Y-2305369D01*
X468149Y-2305369D02*
G37*
G36*
X170000Y-2437198D02*
X160863Y-2438401D01*
X152349Y-2441928D01*
X145038Y-2447538D01*
X139428Y-2454849D01*
X135901Y-2463363D01*
X134698Y-2472500D01*
X135901Y-2481637D01*
X139428Y-2490151D01*
X145038Y-2497462D01*
X152349Y-2503072D01*
X160863Y-2506599D01*
X170000Y-2507802D01*
X179137Y-2506599D01*
X187651Y-2503072D01*
X194962Y-2497462D01*
X200572Y-2490151D01*
X204099Y-2481637D01*
X205302Y-2472500D01*
X204099Y-2463363D01*
X200572Y-2454849D01*
X194962Y-2447538D01*
X187651Y-2441928D01*
X179137Y-2438401D01*
X170000Y-2437198D01*
X170000Y-2437198D02*
G37*
G36*
X1352676Y-2323795D02*
X1283621Y-2323795D01*
X1283621Y-2392850D01*
X1352676Y-2392850D01*
X1352676Y-2323795D01*
X1352676Y-2323795D02*
G37*
G36*
X1018149Y-2323497D02*
X1009135Y-2324684D01*
X1000736Y-2328163D01*
X993524Y-2333697D01*
X987989Y-2340910D01*
X984510Y-2349309D01*
X983323Y-2358322D01*
X984510Y-2367336D01*
X987989Y-2375735D01*
X993524Y-2382948D01*
X1000736Y-2388482D01*
X1009135Y-2391961D01*
X1018149Y-2393148D01*
X1027162Y-2391961D01*
X1035562Y-2388482D01*
X1042774Y-2382948D01*
X1048309Y-2375735D01*
X1051788Y-2367336D01*
X1052974Y-2358322D01*
X1051788Y-2349309D01*
X1048309Y-2340910D01*
X1042774Y-2333697D01*
X1035562Y-2328163D01*
X1027162Y-2324684D01*
X1018149Y-2323497D01*
X1018149Y-2323497D02*
G37*
G36*
X1213149Y-2319112D02*
X1207830Y-2319812D01*
X1198215Y-2323795D01*
X1189957Y-2330131D01*
X1183622Y-2338388D01*
X1179639Y-2348004D01*
X1178939Y-2353322D01*
X1213149Y-2353322D01*
X1213149Y-2319112D01*
X1213149Y-2319112D02*
G37*
G36*
X1113149Y-2319112D02*
X1107830Y-2319812D01*
X1098215Y-2323795D01*
X1089957Y-2330131D01*
X1083622Y-2338388D01*
X1079639Y-2348004D01*
X1078939Y-2353322D01*
X1113149Y-2353322D01*
X1113149Y-2319112D01*
X1113149Y-2319112D02*
G37*
G36*
X718149Y-2323497D02*
X709135Y-2324684D01*
X700736Y-2328163D01*
X693524Y-2333697D01*
X687989Y-2340910D01*
X684510Y-2349309D01*
X683323Y-2358322D01*
X684510Y-2367336D01*
X687989Y-2375735D01*
X693524Y-2382948D01*
X700736Y-2388482D01*
X709135Y-2391961D01*
X718149Y-2393148D01*
X727162Y-2391961D01*
X735562Y-2388482D01*
X742774Y-2382948D01*
X748309Y-2375735D01*
X751788Y-2367336D01*
X752974Y-2358322D01*
X751788Y-2349309D01*
X748309Y-2340910D01*
X742774Y-2333697D01*
X735562Y-2328163D01*
X727162Y-2324684D01*
X718149Y-2323497D01*
X718149Y-2323497D02*
G37*
G36*
X1257359Y-2363322D02*
X1223149Y-2363322D01*
X1223149Y-2397533D01*
X1228468Y-2396832D01*
X1238083Y-2392850D01*
X1246340Y-2386514D01*
X1252676Y-2378257D01*
X1256659Y-2368641D01*
X1257359Y-2363322D01*
X1257359Y-2363322D02*
G37*
G36*
X918149Y-2323497D02*
X909135Y-2324684D01*
X900736Y-2328163D01*
X893524Y-2333697D01*
X887989Y-2340910D01*
X884510Y-2349309D01*
X883323Y-2358322D01*
X884510Y-2367336D01*
X887989Y-2375735D01*
X893524Y-2382948D01*
X900736Y-2388482D01*
X909135Y-2391961D01*
X918149Y-2393148D01*
X927162Y-2391961D01*
X935562Y-2388482D01*
X942774Y-2382948D01*
X948309Y-2375735D01*
X951788Y-2367336D01*
X952974Y-2358322D01*
X951788Y-2349309D01*
X948309Y-2340910D01*
X942774Y-2333697D01*
X935562Y-2328163D01*
X927162Y-2324684D01*
X918149Y-2323497D01*
X918149Y-2323497D02*
G37*
G36*
X818149Y-2323497D02*
X809135Y-2324684D01*
X800736Y-2328163D01*
X793524Y-2333697D01*
X787989Y-2340910D01*
X784510Y-2349309D01*
X783323Y-2358322D01*
X784510Y-2367336D01*
X787989Y-2375735D01*
X793524Y-2382948D01*
X800736Y-2388482D01*
X809135Y-2391961D01*
X818149Y-2393148D01*
X827162Y-2391961D01*
X835562Y-2388482D01*
X842774Y-2382948D01*
X848309Y-2375735D01*
X851788Y-2367336D01*
X852974Y-2358322D01*
X851788Y-2349309D01*
X848309Y-2340910D01*
X842774Y-2333697D01*
X835562Y-2328163D01*
X827162Y-2324684D01*
X818149Y-2323497D01*
X818149Y-2323497D02*
G37*
G36*
X1970000Y-2737198D02*
X1960863Y-2738401D01*
X1952349Y-2741928D01*
X1945038Y-2747538D01*
X1939428Y-2754849D01*
X1935901Y-2763363D01*
X1934698Y-2772500D01*
X1935901Y-2781637D01*
X1939428Y-2790151D01*
X1945038Y-2797462D01*
X1952349Y-2803072D01*
X1960863Y-2806599D01*
X1970000Y-2807802D01*
X1979137Y-2806599D01*
X1987651Y-2803072D01*
X1994962Y-2797462D01*
X2000572Y-2790151D01*
X2004099Y-2781637D01*
X2005302Y-2772500D01*
X2004099Y-2763363D01*
X2000572Y-2754849D01*
X1994962Y-2747538D01*
X1987651Y-2741928D01*
X1979137Y-2738401D01*
X1970000Y-2737198D01*
X1970000Y-2737198D02*
G37*
G36*
X170000Y-2737198D02*
X160863Y-2738401D01*
X152349Y-2741928D01*
X145038Y-2747538D01*
X139428Y-2754849D01*
X135901Y-2763363D01*
X134698Y-2772500D01*
X135901Y-2781637D01*
X139428Y-2790151D01*
X145038Y-2797462D01*
X152349Y-2803072D01*
X160863Y-2806599D01*
X170000Y-2807802D01*
X179137Y-2806599D01*
X187651Y-2803072D01*
X194962Y-2797462D01*
X200572Y-2790151D01*
X204099Y-2781637D01*
X205302Y-2772500D01*
X204099Y-2763363D01*
X200572Y-2754849D01*
X194962Y-2747538D01*
X187651Y-2741928D01*
X179137Y-2738401D01*
X170000Y-2737198D01*
X170000Y-2737198D02*
G37*
G36*
X468149Y-2723497D02*
X459135Y-2724684D01*
X450736Y-2728163D01*
X443524Y-2733697D01*
X437989Y-2740910D01*
X434510Y-2749309D01*
X433324Y-2758322D01*
X434510Y-2767336D01*
X437989Y-2775735D01*
X443524Y-2782948D01*
X450736Y-2788482D01*
X459135Y-2791961D01*
X468149Y-2793148D01*
X477162Y-2791961D01*
X485562Y-2788482D01*
X492774Y-2782948D01*
X498309Y-2775735D01*
X501788Y-2767336D01*
X502974Y-2758322D01*
X501788Y-2749309D01*
X498309Y-2740910D01*
X492774Y-2733697D01*
X485562Y-2728163D01*
X477162Y-2724684D01*
X468149Y-2723497D01*
X468149Y-2723497D02*
G37*
G36*
X2070000Y-2737198D02*
X2060863Y-2738401D01*
X2052349Y-2741928D01*
X2045038Y-2747538D01*
X2039428Y-2754849D01*
X2035901Y-2763363D01*
X2034698Y-2772500D01*
X2035901Y-2781637D01*
X2039428Y-2790151D01*
X2045038Y-2797462D01*
X2052349Y-2803072D01*
X2060863Y-2806599D01*
X2070000Y-2807802D01*
X2079137Y-2806599D01*
X2087651Y-2803072D01*
X2094962Y-2797462D01*
X2100572Y-2790151D01*
X2104099Y-2781637D01*
X2105302Y-2772500D01*
X2104099Y-2763363D01*
X2100572Y-2754849D01*
X2094962Y-2747538D01*
X2087651Y-2741928D01*
X2079137Y-2738401D01*
X2070000Y-2737198D01*
X2070000Y-2737198D02*
G37*
G36*
X1970000Y-2837198D02*
X1960863Y-2838401D01*
X1952349Y-2841928D01*
X1945038Y-2847538D01*
X1939428Y-2854849D01*
X1935901Y-2863363D01*
X1934698Y-2872500D01*
X1935901Y-2881637D01*
X1939428Y-2890151D01*
X1945038Y-2897462D01*
X1952349Y-2903072D01*
X1960863Y-2906599D01*
X1970000Y-2907802D01*
X1979137Y-2906599D01*
X1987651Y-2903072D01*
X1994962Y-2897462D01*
X2000572Y-2890151D01*
X2004099Y-2881637D01*
X2005302Y-2872500D01*
X2004099Y-2863363D01*
X2000572Y-2854849D01*
X1994962Y-2847538D01*
X1987651Y-2841928D01*
X1979137Y-2838401D01*
X1970000Y-2837198D01*
X1970000Y-2837198D02*
G37*
G36*
X170000Y-2837198D02*
X160863Y-2838401D01*
X152349Y-2841928D01*
X145038Y-2847538D01*
X139428Y-2854849D01*
X135901Y-2863363D01*
X134698Y-2872500D01*
X135901Y-2881637D01*
X139428Y-2890151D01*
X145038Y-2897462D01*
X152349Y-2903072D01*
X160863Y-2906599D01*
X170000Y-2907802D01*
X179137Y-2906599D01*
X187651Y-2903072D01*
X194962Y-2897462D01*
X200572Y-2890151D01*
X204099Y-2881637D01*
X205302Y-2872500D01*
X204099Y-2863363D01*
X200572Y-2854849D01*
X194962Y-2847538D01*
X187651Y-2841928D01*
X179137Y-2838401D01*
X170000Y-2837198D01*
X170000Y-2837198D02*
G37*
G36*
X70000Y-2737198D02*
X60863Y-2738401D01*
X52349Y-2741928D01*
X45038Y-2747538D01*
X39428Y-2754849D01*
X35901Y-2763363D01*
X34698Y-2772500D01*
X35901Y-2781637D01*
X39428Y-2790151D01*
X45038Y-2797462D01*
X52349Y-2803072D01*
X60863Y-2806599D01*
X70000Y-2807802D01*
X79137Y-2806599D01*
X87651Y-2803072D01*
X94962Y-2797462D01*
X100572Y-2790151D01*
X104099Y-2781637D01*
X105302Y-2772500D01*
X104099Y-2763363D01*
X100572Y-2754849D01*
X94962Y-2747538D01*
X87651Y-2741928D01*
X79137Y-2738401D01*
X70000Y-2737198D01*
X70000Y-2737198D02*
G37*
G36*
X2070000Y-2837198D02*
X2060863Y-2838401D01*
X2052349Y-2841928D01*
X2045038Y-2847538D01*
X2039428Y-2854849D01*
X2035901Y-2863363D01*
X2034698Y-2872500D01*
X2035901Y-2881637D01*
X2039428Y-2890151D01*
X2045038Y-2897462D01*
X2052349Y-2903072D01*
X2060863Y-2906599D01*
X2070000Y-2907802D01*
X2079137Y-2906599D01*
X2087651Y-2903072D01*
X2094962Y-2897462D01*
X2100572Y-2890151D01*
X2104099Y-2881637D01*
X2105302Y-2872500D01*
X2104099Y-2863363D01*
X2100572Y-2854849D01*
X2094962Y-2847538D01*
X2087651Y-2841928D01*
X2079137Y-2838401D01*
X2070000Y-2837198D01*
X2070000Y-2837198D02*
G37*
G36*
X1518149Y-2623497D02*
X1509135Y-2624684D01*
X1500736Y-2628163D01*
X1493524Y-2633697D01*
X1487989Y-2640910D01*
X1484510Y-2649309D01*
X1483323Y-2658322D01*
X1484510Y-2667336D01*
X1487989Y-2675735D01*
X1493524Y-2682948D01*
X1500736Y-2688482D01*
X1509135Y-2691961D01*
X1518149Y-2693148D01*
X1527162Y-2691961D01*
X1535562Y-2688482D01*
X1542774Y-2682948D01*
X1548309Y-2675735D01*
X1551788Y-2667336D01*
X1552974Y-2658322D01*
X1551788Y-2649309D01*
X1548309Y-2640910D01*
X1542774Y-2633697D01*
X1535562Y-2628163D01*
X1527162Y-2624684D01*
X1518149Y-2623497D01*
X1518149Y-2623497D02*
G37*
G36*
X468149Y-2623497D02*
X459135Y-2624684D01*
X450736Y-2628163D01*
X443524Y-2633697D01*
X437989Y-2640910D01*
X434510Y-2649309D01*
X433324Y-2658322D01*
X434510Y-2667336D01*
X437989Y-2675735D01*
X443524Y-2682948D01*
X450736Y-2688482D01*
X459135Y-2691961D01*
X468149Y-2693148D01*
X477162Y-2691961D01*
X485562Y-2688482D01*
X492774Y-2682948D01*
X498309Y-2675735D01*
X501788Y-2667336D01*
X502974Y-2658322D01*
X501788Y-2649309D01*
X498309Y-2640910D01*
X492774Y-2633697D01*
X485562Y-2628163D01*
X477162Y-2624684D01*
X468149Y-2623497D01*
X468149Y-2623497D02*
G37*
G36*
X170000Y-2537198D02*
X160863Y-2538401D01*
X152349Y-2541928D01*
X145038Y-2547538D01*
X139428Y-2554849D01*
X135901Y-2563363D01*
X134698Y-2572500D01*
X135901Y-2581637D01*
X139428Y-2590151D01*
X145038Y-2597462D01*
X152349Y-2603072D01*
X160863Y-2606599D01*
X170000Y-2607802D01*
X179137Y-2606599D01*
X187651Y-2603072D01*
X194962Y-2597462D01*
X200572Y-2590151D01*
X204099Y-2581637D01*
X205302Y-2572500D01*
X204099Y-2563363D01*
X200572Y-2554849D01*
X194962Y-2547538D01*
X187651Y-2541928D01*
X179137Y-2538401D01*
X170000Y-2537198D01*
X170000Y-2537198D02*
G37*
G36*
X70000Y-2537198D02*
X60863Y-2538401D01*
X52349Y-2541928D01*
X45038Y-2547538D01*
X39428Y-2554849D01*
X35901Y-2563363D01*
X34698Y-2572500D01*
X35901Y-2581637D01*
X39428Y-2590151D01*
X45038Y-2597462D01*
X52349Y-2603072D01*
X60863Y-2606599D01*
X70000Y-2607802D01*
X79137Y-2606599D01*
X87651Y-2603072D01*
X94962Y-2597462D01*
X100572Y-2590151D01*
X104099Y-2581637D01*
X105302Y-2572500D01*
X104099Y-2563363D01*
X100572Y-2554849D01*
X94962Y-2547538D01*
X87651Y-2541928D01*
X79137Y-2538401D01*
X70000Y-2537198D01*
X70000Y-2537198D02*
G37*
G36*
X70000Y-2637198D02*
X60863Y-2638401D01*
X52349Y-2641928D01*
X45038Y-2647538D01*
X39428Y-2654849D01*
X35901Y-2663363D01*
X34698Y-2672500D01*
X35901Y-2681637D01*
X39428Y-2690151D01*
X45038Y-2697462D01*
X52349Y-2703072D01*
X60863Y-2706599D01*
X70000Y-2707802D01*
X79137Y-2706599D01*
X87651Y-2703072D01*
X94962Y-2697462D01*
X100572Y-2690151D01*
X104099Y-2681637D01*
X105302Y-2672500D01*
X104099Y-2663363D01*
X100572Y-2654849D01*
X94962Y-2647538D01*
X87651Y-2641928D01*
X79137Y-2638401D01*
X70000Y-2637198D01*
X70000Y-2637198D02*
G37*
G36*
X1518149Y-2723497D02*
X1509135Y-2724684D01*
X1500736Y-2728163D01*
X1493524Y-2733697D01*
X1487989Y-2740910D01*
X1484510Y-2749309D01*
X1483323Y-2758322D01*
X1484510Y-2767336D01*
X1487989Y-2775735D01*
X1493524Y-2782948D01*
X1500736Y-2788482D01*
X1509135Y-2791961D01*
X1518149Y-2793148D01*
X1527162Y-2791961D01*
X1535562Y-2788482D01*
X1542774Y-2782948D01*
X1548309Y-2775735D01*
X1551788Y-2767336D01*
X1552974Y-2758322D01*
X1551788Y-2749309D01*
X1548309Y-2740910D01*
X1542774Y-2733697D01*
X1535562Y-2728163D01*
X1527162Y-2724684D01*
X1518149Y-2723497D01*
X1518149Y-2723497D02*
G37*
G36*
X1970000Y-2637198D02*
X1960863Y-2638401D01*
X1952349Y-2641928D01*
X1945038Y-2647538D01*
X1939428Y-2654849D01*
X1935901Y-2663363D01*
X1934698Y-2672500D01*
X1935901Y-2681637D01*
X1939428Y-2690151D01*
X1945038Y-2697462D01*
X1952349Y-2703072D01*
X1960863Y-2706599D01*
X1970000Y-2707802D01*
X1979137Y-2706599D01*
X1987651Y-2703072D01*
X1994962Y-2697462D01*
X2000572Y-2690151D01*
X2004099Y-2681637D01*
X2005302Y-2672500D01*
X2004099Y-2663363D01*
X2000572Y-2654849D01*
X1994962Y-2647538D01*
X1987651Y-2641928D01*
X1979137Y-2638401D01*
X1970000Y-2637198D01*
X1970000Y-2637198D02*
G37*
G36*
X170000Y-2637198D02*
X160863Y-2638401D01*
X152349Y-2641928D01*
X145038Y-2647538D01*
X139428Y-2654849D01*
X135901Y-2663363D01*
X134698Y-2672500D01*
X135901Y-2681637D01*
X139428Y-2690151D01*
X145038Y-2697462D01*
X152349Y-2703072D01*
X160863Y-2706599D01*
X170000Y-2707802D01*
X179137Y-2706599D01*
X187651Y-2703072D01*
X194962Y-2697462D01*
X200572Y-2690151D01*
X204099Y-2681637D01*
X205302Y-2672500D01*
X204099Y-2663363D01*
X200572Y-2654849D01*
X194962Y-2647538D01*
X187651Y-2641928D01*
X179137Y-2638401D01*
X170000Y-2637198D01*
X170000Y-2637198D02*
G37*
G36*
X1970000Y-3537198D02*
X1960863Y-3538401D01*
X1952349Y-3541928D01*
X1945038Y-3547538D01*
X1939428Y-3554849D01*
X1935901Y-3563363D01*
X1934698Y-3572500D01*
X1935901Y-3581637D01*
X1939428Y-3590151D01*
X1945038Y-3597462D01*
X1952349Y-3603072D01*
X1960863Y-3606599D01*
X1970000Y-3607802D01*
X1979137Y-3606599D01*
X1987651Y-3603072D01*
X1994962Y-3597462D01*
X2000572Y-3590151D01*
X2004099Y-3581637D01*
X2005302Y-3572500D01*
X2004099Y-3563363D01*
X2000572Y-3554849D01*
X1994962Y-3547538D01*
X1987651Y-3541928D01*
X1979137Y-3538401D01*
X1970000Y-3537198D01*
X1970000Y-3537198D02*
G37*
G36*
X1975000Y-4332813D02*
X1975000Y-4367500D01*
X2009687Y-4367500D01*
X2008970Y-4362058D01*
X2004940Y-4352327D01*
X1998528Y-4343972D01*
X1990173Y-4337560D01*
X1980442Y-4333529D01*
X1975000Y-4332813D01*
X1975000Y-4332813D02*
G37*
G36*
X2065000Y-4332813D02*
X2059558Y-4333529D01*
X2049827Y-4337560D01*
X2041472Y-4343972D01*
X2035060Y-4352327D01*
X2031030Y-4362058D01*
X2030313Y-4367500D01*
X2065000Y-4367500D01*
X2065000Y-4332813D01*
X2065000Y-4332813D02*
G37*
G36*
X2193134Y-4333063D02*
X2162543Y-4333063D01*
X2162543Y-4354795D01*
X2193134Y-4354795D01*
X2193134Y-4333063D01*
X2193134Y-4333063D02*
G37*
G36*
X2075000Y-4332813D02*
X2075000Y-4367500D01*
X2109687Y-4367500D01*
X2108970Y-4362058D01*
X2104940Y-4352327D01*
X2098528Y-4343972D01*
X2090173Y-4337560D01*
X2080442Y-4333529D01*
X2075000Y-4332813D01*
X2075000Y-4332813D02*
G37*
G36*
X70000Y-4337198D02*
X60863Y-4338401D01*
X52349Y-4341928D01*
X45038Y-4347538D01*
X39428Y-4354849D01*
X35901Y-4363363D01*
X34698Y-4372500D01*
X35901Y-4381637D01*
X39428Y-4390151D01*
X45038Y-4397462D01*
X52349Y-4403072D01*
X60863Y-4406599D01*
X70000Y-4407802D01*
X79137Y-4406599D01*
X87651Y-4403072D01*
X94962Y-4397462D01*
X100572Y-4390151D01*
X104099Y-4381637D01*
X105302Y-4372500D01*
X104099Y-4363363D01*
X100572Y-4354849D01*
X94962Y-4347538D01*
X87651Y-4341928D01*
X79137Y-4338401D01*
X70000Y-4337198D01*
X70000Y-4337198D02*
G37*
G36*
X2109687Y-4377500D02*
X2075000Y-4377500D01*
X2075000Y-4412187D01*
X2080442Y-4411471D01*
X2090173Y-4407440D01*
X2098528Y-4401028D01*
X2104940Y-4392673D01*
X2108970Y-4382942D01*
X2109687Y-4377500D01*
X2109687Y-4377500D02*
G37*
G36*
X1965000Y-4332813D02*
X1959558Y-4333529D01*
X1949827Y-4337560D01*
X1941472Y-4343972D01*
X1935060Y-4352327D01*
X1931030Y-4362058D01*
X1930313Y-4367500D01*
X1965000Y-4367500D01*
X1965000Y-4332813D01*
X1965000Y-4332813D02*
G37*
G36*
X170000Y-4337198D02*
X160863Y-4338401D01*
X152349Y-4341928D01*
X145038Y-4347538D01*
X139428Y-4354849D01*
X135901Y-4363363D01*
X134698Y-4372500D01*
X135901Y-4381637D01*
X139428Y-4390151D01*
X145038Y-4397462D01*
X152349Y-4403072D01*
X160863Y-4406599D01*
X170000Y-4407802D01*
X179137Y-4406599D01*
X187651Y-4403072D01*
X194962Y-4397462D01*
X200572Y-4390151D01*
X204099Y-4381637D01*
X205302Y-4372500D01*
X204099Y-4363363D01*
X200572Y-4354849D01*
X194962Y-4347538D01*
X187651Y-4341928D01*
X179137Y-4338401D01*
X170000Y-4337198D01*
X170000Y-4337198D02*
G37*
G36*
X2070000Y-4137198D02*
X2060863Y-4138401D01*
X2052349Y-4141928D01*
X2045038Y-4147538D01*
X2039428Y-4154849D01*
X2035901Y-4163363D01*
X2034698Y-4172500D01*
X2035901Y-4181637D01*
X2039428Y-4190151D01*
X2045038Y-4197462D01*
X2052349Y-4203072D01*
X2060863Y-4206599D01*
X2070000Y-4207802D01*
X2079137Y-4206599D01*
X2086592Y-4203511D01*
X2139691Y-4256610D01*
X2142999Y-4258820D01*
X2146901Y-4259597D01*
X2167543Y-4259597D01*
X2167543Y-4282865D01*
X2228724Y-4282865D01*
X2228724Y-4271330D01*
X2234472Y-4271330D01*
X2234472Y-4282867D01*
X2295653Y-4282867D01*
X2295653Y-4239402D01*
X2234472Y-4239402D01*
X2234472Y-4250939D01*
X2228724Y-4250939D01*
X2228724Y-4239401D01*
X2187386Y-4239401D01*
X2186401Y-4239205D01*
X2151124Y-4239205D01*
X2101011Y-4189092D01*
X2104099Y-4181637D01*
X2105302Y-4172500D01*
X2104099Y-4163363D01*
X2100572Y-4154849D01*
X2094962Y-4147538D01*
X2087651Y-4141928D01*
X2079137Y-4138401D01*
X2070000Y-4137198D01*
X2070000Y-4137198D02*
G37*
G36*
X2070000Y-4237198D02*
X2060863Y-4238401D01*
X2052349Y-4241928D01*
X2045038Y-4247538D01*
X2039428Y-4254849D01*
X2035901Y-4263363D01*
X2034698Y-4272500D01*
X2035901Y-4281637D01*
X2039428Y-4290151D01*
X2045038Y-4297462D01*
X2052349Y-4303072D01*
X2060863Y-4306599D01*
X2070000Y-4307802D01*
X2079137Y-4306599D01*
X2087651Y-4303072D01*
X2094962Y-4297462D01*
X2100572Y-4290151D01*
X2104099Y-4281637D01*
X2105302Y-4272500D01*
X2104099Y-4263363D01*
X2100572Y-4254849D01*
X2094962Y-4247538D01*
X2087651Y-4241928D01*
X2079137Y-4238401D01*
X2070000Y-4237198D01*
X2070000Y-4237198D02*
G37*
G36*
X170000Y-4137198D02*
X160863Y-4138401D01*
X152349Y-4141928D01*
X145038Y-4147538D01*
X139428Y-4154849D01*
X135901Y-4163363D01*
X134698Y-4172500D01*
X135901Y-4181637D01*
X139428Y-4190151D01*
X145038Y-4197462D01*
X152349Y-4203072D01*
X160863Y-4206599D01*
X170000Y-4207802D01*
X179137Y-4206599D01*
X187651Y-4203072D01*
X194962Y-4197462D01*
X200572Y-4190151D01*
X204099Y-4181637D01*
X205302Y-4172500D01*
X204099Y-4163363D01*
X200572Y-4154849D01*
X194962Y-4147538D01*
X187651Y-4141928D01*
X179137Y-4138401D01*
X170000Y-4137198D01*
X170000Y-4137198D02*
G37*
G36*
X70000Y-4137198D02*
X60863Y-4138401D01*
X52349Y-4141928D01*
X45038Y-4147538D01*
X39428Y-4154849D01*
X35901Y-4163363D01*
X34698Y-4172500D01*
X35901Y-4181637D01*
X39428Y-4190151D01*
X45038Y-4197462D01*
X52349Y-4203072D01*
X60863Y-4206599D01*
X70000Y-4207802D01*
X79137Y-4206599D01*
X87651Y-4203072D01*
X94962Y-4197462D01*
X100572Y-4190151D01*
X104099Y-4181637D01*
X105302Y-4172500D01*
X104099Y-4163363D01*
X100572Y-4154849D01*
X94962Y-4147538D01*
X87651Y-4141928D01*
X79137Y-4138401D01*
X70000Y-4137198D01*
X70000Y-4137198D02*
G37*
G36*
X70000Y-4237198D02*
X60863Y-4238401D01*
X52349Y-4241928D01*
X45038Y-4247538D01*
X39428Y-4254849D01*
X35901Y-4263363D01*
X34698Y-4272500D01*
X35901Y-4281637D01*
X39428Y-4290151D01*
X45038Y-4297462D01*
X52349Y-4303072D01*
X60863Y-4306599D01*
X70000Y-4307802D01*
X79137Y-4306599D01*
X87651Y-4303072D01*
X94962Y-4297462D01*
X100572Y-4290151D01*
X104099Y-4281637D01*
X105302Y-4272500D01*
X104099Y-4263363D01*
X100572Y-4254849D01*
X94962Y-4247538D01*
X87651Y-4241928D01*
X79137Y-4238401D01*
X70000Y-4237198D01*
X70000Y-4237198D02*
G37*
G36*
X2193134Y-4301331D02*
X2162543Y-4301331D01*
X2162543Y-4323063D01*
X2193134Y-4323063D01*
X2193134Y-4301331D01*
X2193134Y-4301331D02*
G37*
G36*
X1970000Y-4237198D02*
X1960863Y-4238401D01*
X1952349Y-4241928D01*
X1945038Y-4247538D01*
X1939428Y-4254849D01*
X1935901Y-4263363D01*
X1934698Y-4272500D01*
X1935901Y-4281637D01*
X1939428Y-4290151D01*
X1945038Y-4297462D01*
X1952349Y-4303072D01*
X1960863Y-4306599D01*
X1970000Y-4307802D01*
X1979137Y-4306599D01*
X1987651Y-4303072D01*
X1994962Y-4297462D01*
X2000572Y-4290151D01*
X2004099Y-4281637D01*
X2005302Y-4272500D01*
X2004099Y-4263363D01*
X2000572Y-4254849D01*
X1994962Y-4247538D01*
X1987651Y-4241928D01*
X1979137Y-4238401D01*
X1970000Y-4237198D01*
X1970000Y-4237198D02*
G37*
G36*
X170000Y-4237198D02*
X160863Y-4238401D01*
X152349Y-4241928D01*
X145038Y-4247538D01*
X139428Y-4254849D01*
X135901Y-4263363D01*
X134698Y-4272500D01*
X135901Y-4281637D01*
X139428Y-4290151D01*
X145038Y-4297462D01*
X152349Y-4303072D01*
X160863Y-4306599D01*
X170000Y-4307802D01*
X179137Y-4306599D01*
X187651Y-4303072D01*
X194962Y-4297462D01*
X200572Y-4290151D01*
X204099Y-4281637D01*
X205302Y-4272500D01*
X204099Y-4263363D01*
X200572Y-4254849D01*
X194962Y-4247538D01*
X187651Y-4241928D01*
X179137Y-4238401D01*
X170000Y-4237198D01*
X170000Y-4237198D02*
G37*
G36*
X2009687Y-4477500D02*
X1975000Y-4477500D01*
X1975000Y-4512187D01*
X1980442Y-4511471D01*
X1990173Y-4507440D01*
X1998528Y-4501028D01*
X2004940Y-4492673D01*
X2008970Y-4482942D01*
X2009687Y-4477500D01*
X2009687Y-4477500D02*
G37*
G36*
X2065000Y-4477500D02*
X2030313Y-4477500D01*
X2031030Y-4482942D01*
X2035060Y-4492673D01*
X2041472Y-4501028D01*
X2049827Y-4507440D01*
X2059558Y-4511471D01*
X2065000Y-4512187D01*
X2065000Y-4477500D01*
X2065000Y-4477500D02*
G37*
G36*
X70000Y-4437198D02*
X60863Y-4438401D01*
X52349Y-4441928D01*
X45038Y-4447538D01*
X39428Y-4454849D01*
X35901Y-4463363D01*
X34698Y-4472500D01*
X35901Y-4481637D01*
X39428Y-4490151D01*
X45038Y-4497462D01*
X52349Y-4503072D01*
X60863Y-4506599D01*
X70000Y-4507802D01*
X79137Y-4506599D01*
X87651Y-4503072D01*
X94962Y-4497462D01*
X100572Y-4490151D01*
X104099Y-4481637D01*
X105302Y-4472500D01*
X104099Y-4463363D01*
X100572Y-4454849D01*
X94962Y-4447538D01*
X87651Y-4441928D01*
X79137Y-4438401D01*
X70000Y-4437198D01*
X70000Y-4437198D02*
G37*
G36*
X2109687Y-4477500D02*
X2075000Y-4477500D01*
X2075000Y-4512187D01*
X2080442Y-4511471D01*
X2090173Y-4507440D01*
X2098528Y-4501028D01*
X2104940Y-4492673D01*
X2108970Y-4482942D01*
X2109687Y-4477500D01*
X2109687Y-4477500D02*
G37*
G36*
X245000Y-4563355D02*
X228584Y-4564971D01*
X212799Y-4569760D01*
X198251Y-4577536D01*
X185500Y-4588000D01*
X175036Y-4600751D01*
X167260Y-4615299D01*
X162471Y-4631084D01*
X160855Y-4647500D01*
X162471Y-4663916D01*
X167260Y-4679701D01*
X175036Y-4694249D01*
X185500Y-4707000D01*
X198251Y-4717464D01*
X212799Y-4725240D01*
X228584Y-4730029D01*
X245000Y-4731645D01*
X261416Y-4730029D01*
X277201Y-4725240D01*
X291749Y-4717464D01*
X304500Y-4707000D01*
X314964Y-4694249D01*
X322740Y-4679701D01*
X327529Y-4663916D01*
X329145Y-4647500D01*
X327529Y-4631084D01*
X322740Y-4615299D01*
X314964Y-4600751D01*
X304500Y-4588000D01*
X291749Y-4577536D01*
X277201Y-4569760D01*
X261416Y-4564971D01*
X245000Y-4563355D01*
X245000Y-4563355D02*
G37*
G36*
X2233724Y-4301331D02*
X2203134Y-4301331D01*
X2203134Y-4328063D01*
X2203134Y-4354795D01*
X2233724Y-4354795D01*
X2234277Y-4359566D01*
X2234277Y-4451304D01*
X1945777Y-4739804D01*
X4223Y-4739804D01*
X-162816Y-4572765D01*
X-160772Y-4567832D01*
X-159741Y-4560000D01*
X-160772Y-4552168D01*
X-163795Y-4544871D01*
X-168604Y-4538604D01*
X-174870Y-4533795D01*
X-182168Y-4530772D01*
X-190000Y-4529741D01*
X-197832Y-4530772D01*
X-205130Y-4533795D01*
X-211396Y-4538604D01*
X-216205Y-4544871D01*
X-219228Y-4552168D01*
X-220259Y-4560000D01*
X-219228Y-4567832D01*
X-216205Y-4575129D01*
X-211396Y-4581396D01*
X-205130Y-4586205D01*
X-197832Y-4589228D01*
X-190000Y-4590259D01*
X-182168Y-4589228D01*
X-177235Y-4587184D01*
X-7210Y-4757210D01*
X-3902Y-4759420D01*
X0Y-4760196D01*
X1950000Y-4760196D01*
X1953902Y-4759420D01*
X1957210Y-4757210D01*
X2251682Y-4462737D01*
X2253892Y-4459429D01*
X2254668Y-4455528D01*
X2254668Y-4349795D01*
X2295653Y-4349795D01*
X2295653Y-4306330D01*
X2234473Y-4306330D01*
X2233724Y-4301640D01*
X2233724Y-4301331D01*
X2233724Y-4301331D02*
G37*
G36*
X1965000Y-4477500D02*
X1930313Y-4477500D01*
X1931030Y-4482942D01*
X1935060Y-4492673D01*
X1941472Y-4501028D01*
X1949827Y-4507440D01*
X1959558Y-4511471D01*
X1965000Y-4512187D01*
X1965000Y-4477500D01*
X1965000Y-4477500D02*
G37*
G36*
X1895000Y-4563355D02*
X1878584Y-4564971D01*
X1862799Y-4569760D01*
X1848251Y-4577536D01*
X1835500Y-4588000D01*
X1825036Y-4600751D01*
X1817260Y-4615299D01*
X1812472Y-4631084D01*
X1810855Y-4647500D01*
X1812472Y-4663916D01*
X1817260Y-4679701D01*
X1825036Y-4694249D01*
X1835500Y-4707000D01*
X1848251Y-4717464D01*
X1862799Y-4725240D01*
X1878584Y-4730029D01*
X1895000Y-4731645D01*
X1911416Y-4730029D01*
X1927201Y-4725240D01*
X1941749Y-4717464D01*
X1954500Y-4707000D01*
X1964964Y-4694249D01*
X1972740Y-4679701D01*
X1977528Y-4663916D01*
X1979145Y-4647500D01*
X1977528Y-4631084D01*
X1972740Y-4615299D01*
X1964964Y-4600751D01*
X1954500Y-4588000D01*
X1941749Y-4577536D01*
X1927201Y-4569760D01*
X1911416Y-4564971D01*
X1895000Y-4563355D01*
X1895000Y-4563355D02*
G37*
G36*
X1965000Y-4377500D02*
X1930313Y-4377500D01*
X1931030Y-4382942D01*
X1935060Y-4392673D01*
X1941472Y-4401028D01*
X1949827Y-4407440D01*
X1959558Y-4411471D01*
X1965000Y-4412187D01*
X1965000Y-4377500D01*
X1965000Y-4377500D02*
G37*
G36*
X2075000Y-4432813D02*
X2075000Y-4467500D01*
X2109687Y-4467500D01*
X2108970Y-4462058D01*
X2104940Y-4452327D01*
X2098528Y-4443972D01*
X2090173Y-4437560D01*
X2080442Y-4433529D01*
X2075000Y-4432813D01*
X2075000Y-4432813D02*
G37*
G36*
X2009687Y-4377500D02*
X1975000Y-4377500D01*
X1975000Y-4412187D01*
X1980442Y-4411471D01*
X1990173Y-4407440D01*
X1998528Y-4401028D01*
X2004940Y-4392673D01*
X2008970Y-4382942D01*
X2009687Y-4377500D01*
X2009687Y-4377500D02*
G37*
G36*
X2065000Y-4377500D02*
X2030313Y-4377500D01*
X2031030Y-4382942D01*
X2035060Y-4392673D01*
X2041472Y-4401028D01*
X2049827Y-4407440D01*
X2059558Y-4411471D01*
X2065000Y-4412187D01*
X2065000Y-4377500D01*
X2065000Y-4377500D02*
G37*
G36*
X1965000Y-4432813D02*
X1959558Y-4433529D01*
X1949827Y-4437560D01*
X1941472Y-4443972D01*
X1935060Y-4452327D01*
X1931030Y-4462058D01*
X1930313Y-4467500D01*
X1965000Y-4467500D01*
X1965000Y-4432813D01*
X1965000Y-4432813D02*
G37*
G36*
X170000Y-4437198D02*
X160863Y-4438401D01*
X152349Y-4441928D01*
X145038Y-4447538D01*
X139428Y-4454849D01*
X135901Y-4463363D01*
X134698Y-4472500D01*
X135901Y-4481637D01*
X139428Y-4490151D01*
X145038Y-4497462D01*
X152349Y-4503072D01*
X160863Y-4506599D01*
X170000Y-4507802D01*
X179137Y-4506599D01*
X187651Y-4503072D01*
X194962Y-4497462D01*
X200572Y-4490151D01*
X204099Y-4481637D01*
X205302Y-4472500D01*
X204099Y-4463363D01*
X200572Y-4454849D01*
X194962Y-4447538D01*
X187651Y-4441928D01*
X179137Y-4438401D01*
X170000Y-4437198D01*
X170000Y-4437198D02*
G37*
G36*
X1975000Y-4432813D02*
X1975000Y-4467500D01*
X2009687Y-4467500D01*
X2008970Y-4462058D01*
X2004940Y-4452327D01*
X1998528Y-4443972D01*
X1990173Y-4437560D01*
X1980442Y-4433529D01*
X1975000Y-4432813D01*
X1975000Y-4432813D02*
G37*
G36*
X2065000Y-4432813D02*
X2059558Y-4433529D01*
X2049827Y-4437560D01*
X2041472Y-4443972D01*
X2035060Y-4452327D01*
X2031030Y-4462058D01*
X2030313Y-4467500D01*
X2065000Y-4467500D01*
X2065000Y-4432813D01*
X2065000Y-4432813D02*
G37*
G36*
X1970000Y-4137198D02*
X1960863Y-4138401D01*
X1952349Y-4141928D01*
X1945038Y-4147538D01*
X1939428Y-4154849D01*
X1935901Y-4163363D01*
X1934698Y-4172500D01*
X1935901Y-4181637D01*
X1939428Y-4190151D01*
X1945038Y-4197462D01*
X1952349Y-4203072D01*
X1960863Y-4206599D01*
X1970000Y-4207802D01*
X1979137Y-4206599D01*
X1987651Y-4203072D01*
X1994962Y-4197462D01*
X2000572Y-4190151D01*
X2004099Y-4181637D01*
X2005302Y-4172500D01*
X2004099Y-4163363D01*
X2000572Y-4154849D01*
X1994962Y-4147538D01*
X1987651Y-4141928D01*
X1979137Y-4138401D01*
X1970000Y-4137198D01*
X1970000Y-4137198D02*
G37*
G36*
X70000Y-3737198D02*
X60863Y-3738401D01*
X52349Y-3741928D01*
X45038Y-3747538D01*
X39428Y-3754849D01*
X35901Y-3763363D01*
X34698Y-3772500D01*
X35901Y-3781637D01*
X39428Y-3790151D01*
X45038Y-3797462D01*
X52349Y-3803072D01*
X60863Y-3806599D01*
X70000Y-3807802D01*
X79137Y-3806599D01*
X87651Y-3803072D01*
X94962Y-3797462D01*
X100572Y-3790151D01*
X104099Y-3781637D01*
X105302Y-3772500D01*
X104099Y-3763363D01*
X100572Y-3754849D01*
X94962Y-3747538D01*
X87651Y-3741928D01*
X79137Y-3738401D01*
X70000Y-3737198D01*
X70000Y-3737198D02*
G37*
G36*
X2288843Y-3817316D02*
X2258252Y-3817316D01*
X2258252Y-3839048D01*
X2288843Y-3839048D01*
X2288843Y-3817316D01*
X2288843Y-3817316D02*
G37*
G36*
X1970000Y-3737198D02*
X1960863Y-3738401D01*
X1952349Y-3741928D01*
X1945038Y-3747538D01*
X1939428Y-3754849D01*
X1935901Y-3763363D01*
X1934698Y-3772500D01*
X1935901Y-3781637D01*
X1939428Y-3790151D01*
X1945038Y-3797462D01*
X1952349Y-3803072D01*
X1960863Y-3806599D01*
X1970000Y-3807802D01*
X1979137Y-3806599D01*
X1987651Y-3803072D01*
X1994962Y-3797462D01*
X2000572Y-3790151D01*
X2004099Y-3781637D01*
X2005302Y-3772500D01*
X2004099Y-3763363D01*
X2000572Y-3754849D01*
X1994962Y-3747538D01*
X1987651Y-3741928D01*
X1979137Y-3738401D01*
X1970000Y-3737198D01*
X1970000Y-3737198D02*
G37*
G36*
X170000Y-3737198D02*
X160863Y-3738401D01*
X152349Y-3741928D01*
X145038Y-3747538D01*
X139428Y-3754849D01*
X135901Y-3763363D01*
X134698Y-3772500D01*
X135901Y-3781637D01*
X139428Y-3790151D01*
X145038Y-3797462D01*
X152349Y-3803072D01*
X160863Y-3806599D01*
X170000Y-3807802D01*
X179137Y-3806599D01*
X187651Y-3803072D01*
X194962Y-3797462D01*
X200572Y-3790151D01*
X204099Y-3781637D01*
X205302Y-3772500D01*
X204099Y-3763363D01*
X200572Y-3754849D01*
X194962Y-3747538D01*
X187651Y-3741928D01*
X179137Y-3738401D01*
X170000Y-3737198D01*
X170000Y-3737198D02*
G37*
G36*
X2070000Y-3837198D02*
X2060863Y-3838401D01*
X2052349Y-3841928D01*
X2045038Y-3847538D01*
X2039428Y-3854849D01*
X2035901Y-3863363D01*
X2034698Y-3872500D01*
X2035901Y-3881637D01*
X2039428Y-3890151D01*
X2045038Y-3897462D01*
X2052349Y-3903072D01*
X2060863Y-3906599D01*
X2070000Y-3907802D01*
X2079137Y-3906599D01*
X2087651Y-3903072D01*
X2094962Y-3897462D01*
X2100572Y-3890151D01*
X2103660Y-3882696D01*
X2151795Y-3882696D01*
X2151795Y-3900976D01*
X2212976Y-3900976D01*
X2212976Y-3889439D01*
X2222662Y-3889439D01*
X2222662Y-3900976D01*
X2283843Y-3900976D01*
X2283843Y-3857511D01*
X2222662Y-3857511D01*
X2222662Y-3869048D01*
X2212976Y-3869048D01*
X2212976Y-3857511D01*
X2151795Y-3857511D01*
X2151795Y-3862304D01*
X2103660Y-3862304D01*
X2100572Y-3854849D01*
X2094962Y-3847538D01*
X2087651Y-3841928D01*
X2079137Y-3838401D01*
X2070000Y-3837198D01*
X2070000Y-3837198D02*
G37*
G36*
X1970000Y-3837198D02*
X1960863Y-3838401D01*
X1952349Y-3841928D01*
X1945038Y-3847538D01*
X1939428Y-3854849D01*
X1935901Y-3863363D01*
X1934698Y-3872500D01*
X1935901Y-3881637D01*
X1939428Y-3890151D01*
X1945038Y-3897462D01*
X1952349Y-3903072D01*
X1960863Y-3906599D01*
X1970000Y-3907802D01*
X1979137Y-3906599D01*
X1987651Y-3903072D01*
X1994962Y-3897462D01*
X2000572Y-3890151D01*
X2004099Y-3881637D01*
X2005302Y-3872500D01*
X2004099Y-3863363D01*
X2000572Y-3854849D01*
X1994962Y-3847538D01*
X1987651Y-3841928D01*
X1979137Y-3838401D01*
X1970000Y-3837198D01*
X1970000Y-3837198D02*
G37*
G36*
X2182386Y-3724969D02*
X2174554Y-3726000D01*
X2167256Y-3729023D01*
X2160990Y-3733832D01*
X2156181Y-3740099D01*
X2153158Y-3747397D01*
X2152127Y-3755228D01*
X2153158Y-3763060D01*
X2156181Y-3770358D01*
X2160990Y-3776625D01*
X2167256Y-3781433D01*
X2172190Y-3783477D01*
X2172190Y-3790583D01*
X2151795Y-3790583D01*
X2151795Y-3834048D01*
X2212661Y-3834048D01*
X2212976Y-3834048D01*
X2217662Y-3834808D01*
X2217662Y-3839048D01*
X2248252Y-3839048D01*
X2248252Y-3812316D01*
X2248252Y-3785583D01*
X2217662Y-3785583D01*
X2217662Y-3789823D01*
X2212976Y-3790583D01*
X2212661Y-3790583D01*
X2192582Y-3790583D01*
X2192582Y-3783477D01*
X2197515Y-3781433D01*
X2203782Y-3776625D01*
X2208591Y-3770358D01*
X2211614Y-3763060D01*
X2212645Y-3755228D01*
X2211614Y-3747397D01*
X2208591Y-3740099D01*
X2203782Y-3733832D01*
X2197515Y-3729023D01*
X2190217Y-3726000D01*
X2182386Y-3724969D01*
X2182386Y-3724969D02*
G37*
G36*
X1064276Y-3858128D02*
X1056948Y-3859586D01*
X1050736Y-3863736D01*
X1046586Y-3869948D01*
X1045128Y-3877276D01*
X1046586Y-3884603D01*
X1050736Y-3890815D01*
X1056948Y-3894965D01*
X1064276Y-3896423D01*
X1071603Y-3894965D01*
X1077815Y-3890815D01*
X1081966Y-3884603D01*
X1083423Y-3877276D01*
X1081966Y-3869948D01*
X1077815Y-3863736D01*
X1071603Y-3859586D01*
X1064276Y-3858128D01*
X1064276Y-3858128D02*
G37*
G36*
X2070000Y-3637198D02*
X2060863Y-3638401D01*
X2052349Y-3641928D01*
X2045038Y-3647538D01*
X2039428Y-3654849D01*
X2035901Y-3663363D01*
X2034698Y-3672500D01*
X2035901Y-3681637D01*
X2039428Y-3690151D01*
X2045038Y-3697462D01*
X2052349Y-3703072D01*
X2060863Y-3706599D01*
X2070000Y-3707802D01*
X2079137Y-3706599D01*
X2087651Y-3703072D01*
X2094962Y-3697462D01*
X2100572Y-3690151D01*
X2104099Y-3681637D01*
X2105302Y-3672500D01*
X2104099Y-3663363D01*
X2100572Y-3654849D01*
X2094962Y-3647538D01*
X2087651Y-3641928D01*
X2079137Y-3638401D01*
X2070000Y-3637198D01*
X2070000Y-3637198D02*
G37*
G36*
X1970000Y-3637198D02*
X1960863Y-3638401D01*
X1952349Y-3641928D01*
X1945038Y-3647538D01*
X1939428Y-3654849D01*
X1935901Y-3663363D01*
X1934698Y-3672500D01*
X1935901Y-3681637D01*
X1939428Y-3690151D01*
X1945038Y-3697462D01*
X1952349Y-3703072D01*
X1960863Y-3706599D01*
X1970000Y-3707802D01*
X1979137Y-3706599D01*
X1987651Y-3703072D01*
X1994962Y-3697462D01*
X2000572Y-3690151D01*
X2004099Y-3681637D01*
X2005302Y-3672500D01*
X2004099Y-3663363D01*
X2000572Y-3654849D01*
X1994962Y-3647538D01*
X1987651Y-3641928D01*
X1979137Y-3638401D01*
X1970000Y-3637198D01*
X1970000Y-3637198D02*
G37*
G36*
X170000Y-3537198D02*
X160863Y-3538401D01*
X152349Y-3541928D01*
X145038Y-3547538D01*
X139428Y-3554849D01*
X135901Y-3563363D01*
X134698Y-3572500D01*
X135901Y-3581637D01*
X139428Y-3590151D01*
X145038Y-3597462D01*
X152349Y-3603072D01*
X160863Y-3606599D01*
X170000Y-3607802D01*
X179137Y-3606599D01*
X187651Y-3603072D01*
X194962Y-3597462D01*
X200572Y-3590151D01*
X204099Y-3581637D01*
X205302Y-3572500D01*
X204099Y-3563363D01*
X200572Y-3554849D01*
X194962Y-3547538D01*
X187651Y-3541928D01*
X179137Y-3538401D01*
X170000Y-3537198D01*
X170000Y-3537198D02*
G37*
G36*
X70000Y-3537198D02*
X60863Y-3538401D01*
X52349Y-3541928D01*
X45038Y-3547538D01*
X39428Y-3554849D01*
X35901Y-3563363D01*
X34698Y-3572500D01*
X35901Y-3581637D01*
X39428Y-3590151D01*
X45038Y-3597462D01*
X52349Y-3603072D01*
X60863Y-3606599D01*
X70000Y-3607802D01*
X79137Y-3606599D01*
X87651Y-3603072D01*
X94962Y-3597462D01*
X100572Y-3590151D01*
X104099Y-3581637D01*
X105302Y-3572500D01*
X104099Y-3563363D01*
X100572Y-3554849D01*
X94962Y-3547538D01*
X87651Y-3541928D01*
X79137Y-3538401D01*
X70000Y-3537198D01*
X70000Y-3537198D02*
G37*
G36*
X2288843Y-3785583D02*
X2258252Y-3785583D01*
X2258252Y-3807316D01*
X2288843Y-3807316D01*
X2288843Y-3785583D01*
X2288843Y-3785583D02*
G37*
G36*
X2070000Y-3737198D02*
X2060863Y-3738401D01*
X2052349Y-3741928D01*
X2045038Y-3747538D01*
X2039428Y-3754849D01*
X2035901Y-3763363D01*
X2034698Y-3772500D01*
X2035901Y-3781637D01*
X2039428Y-3790151D01*
X2045038Y-3797462D01*
X2052349Y-3803072D01*
X2060863Y-3806599D01*
X2070000Y-3807802D01*
X2079137Y-3806599D01*
X2087651Y-3803072D01*
X2094962Y-3797462D01*
X2100572Y-3790151D01*
X2104099Y-3781637D01*
X2105302Y-3772500D01*
X2104099Y-3763363D01*
X2100572Y-3754849D01*
X2094962Y-3747538D01*
X2087651Y-3741928D01*
X2079137Y-3738401D01*
X2070000Y-3737198D01*
X2070000Y-3737198D02*
G37*
G36*
X170000Y-3637198D02*
X160863Y-3638401D01*
X152349Y-3641928D01*
X145038Y-3647538D01*
X139428Y-3654849D01*
X135901Y-3663363D01*
X134698Y-3672500D01*
X135901Y-3681637D01*
X139428Y-3690151D01*
X145038Y-3697462D01*
X152349Y-3703072D01*
X160863Y-3706599D01*
X170000Y-3707802D01*
X179137Y-3706599D01*
X187651Y-3703072D01*
X194962Y-3697462D01*
X200572Y-3690151D01*
X204099Y-3681637D01*
X205302Y-3672500D01*
X204099Y-3663363D01*
X200572Y-3654849D01*
X194962Y-3647538D01*
X187651Y-3641928D01*
X179137Y-3638401D01*
X170000Y-3637198D01*
X170000Y-3637198D02*
G37*
G36*
X70000Y-3637198D02*
X60863Y-3638401D01*
X52349Y-3641928D01*
X45038Y-3647538D01*
X39428Y-3654849D01*
X35901Y-3663363D01*
X34698Y-3672500D01*
X35901Y-3681637D01*
X39428Y-3690151D01*
X45038Y-3697462D01*
X52349Y-3703072D01*
X60863Y-3706599D01*
X70000Y-3707802D01*
X79137Y-3706599D01*
X87651Y-3703072D01*
X94962Y-3697462D01*
X100572Y-3690151D01*
X104099Y-3681637D01*
X105302Y-3672500D01*
X104099Y-3663363D01*
X100572Y-3654849D01*
X94962Y-3647538D01*
X87651Y-3641928D01*
X79137Y-3638401D01*
X70000Y-3637198D01*
X70000Y-3637198D02*
G37*
G36*
X1150890Y-4019546D02*
X1143562Y-4021003D01*
X1137351Y-4025154D01*
X1133200Y-4031365D01*
X1131742Y-4038693D01*
X1133200Y-4046020D01*
X1137351Y-4052232D01*
X1143562Y-4056383D01*
X1150890Y-4057840D01*
X1158217Y-4056383D01*
X1164429Y-4052232D01*
X1168580Y-4046020D01*
X1170037Y-4038693D01*
X1168580Y-4031365D01*
X1164429Y-4025154D01*
X1158217Y-4021003D01*
X1150890Y-4019546D01*
X1150890Y-4019546D02*
G37*
G36*
X2070000Y-4037198D02*
X2060863Y-4038401D01*
X2052349Y-4041928D01*
X2045038Y-4047538D01*
X2039428Y-4054849D01*
X2035901Y-4063363D01*
X2034698Y-4072500D01*
X2035901Y-4081637D01*
X2039428Y-4090151D01*
X2045038Y-4097462D01*
X2052349Y-4103072D01*
X2060863Y-4106599D01*
X2070000Y-4107802D01*
X2079137Y-4106599D01*
X2087651Y-4103072D01*
X2094962Y-4097462D01*
X2100572Y-4090151D01*
X2104099Y-4081637D01*
X2105302Y-4072500D01*
X2104099Y-4063363D01*
X2100572Y-4054849D01*
X2094962Y-4047538D01*
X2087651Y-4041928D01*
X2079137Y-4038401D01*
X2070000Y-4037198D01*
X2070000Y-4037198D02*
G37*
G36*
X2292780Y-4018102D02*
X2262190Y-4018102D01*
X2262190Y-4039834D01*
X2292780Y-4039834D01*
X2292780Y-4018102D01*
X2292780Y-4018102D02*
G37*
G36*
X2252190Y-3986369D02*
X2221599Y-3986369D01*
X2221599Y-3990611D01*
X2216913Y-3991370D01*
X2216599Y-3991370D01*
X2155732Y-3991370D01*
X2155732Y-4034835D01*
X2176127Y-4034835D01*
X2176127Y-4041940D01*
X2171193Y-4043984D01*
X2164927Y-4048793D01*
X2160118Y-4055060D01*
X2157095Y-4062357D01*
X2156064Y-4070189D01*
X2157095Y-4078021D01*
X2160118Y-4085318D01*
X2164927Y-4091585D01*
X2171193Y-4096394D01*
X2178491Y-4099417D01*
X2186323Y-4100448D01*
X2194154Y-4099417D01*
X2201452Y-4096394D01*
X2207719Y-4091585D01*
X2212528Y-4085318D01*
X2215551Y-4078021D01*
X2216582Y-4070189D01*
X2215551Y-4062357D01*
X2212528Y-4055060D01*
X2207719Y-4048793D01*
X2201452Y-4043984D01*
X2196519Y-4041940D01*
X2196519Y-4034835D01*
X2216599Y-4034835D01*
X2216913Y-4034835D01*
X2221599Y-4035594D01*
X2221599Y-4039834D01*
X2252190Y-4039834D01*
X2252190Y-4013102D01*
X2252190Y-3986369D01*
X2252190Y-3986369D02*
G37*
G36*
X70000Y-4037198D02*
X60863Y-4038401D01*
X52349Y-4041928D01*
X45038Y-4047538D01*
X39428Y-4054849D01*
X35901Y-4063363D01*
X34698Y-4072500D01*
X35901Y-4081637D01*
X39428Y-4090151D01*
X45038Y-4097462D01*
X52349Y-4103072D01*
X60863Y-4106599D01*
X70000Y-4107802D01*
X79137Y-4106599D01*
X87651Y-4103072D01*
X94962Y-4097462D01*
X100572Y-4090151D01*
X104099Y-4081637D01*
X105302Y-4072500D01*
X104099Y-4063363D01*
X100572Y-4054849D01*
X94962Y-4047538D01*
X87651Y-4041928D01*
X79137Y-4038401D01*
X70000Y-4037198D01*
X70000Y-4037198D02*
G37*
G36*
X1304433Y-3775451D02*
X1297106Y-3776909D01*
X1290894Y-3781059D01*
X1286743Y-3787271D01*
X1285286Y-3794598D01*
X1286743Y-3801926D01*
X1290894Y-3808138D01*
X1294237Y-3810372D01*
X1294237Y-4135597D01*
X1290894Y-4137831D01*
X1286743Y-4144043D01*
X1285286Y-4151370D01*
X1286743Y-4158698D01*
X1290894Y-4164909D01*
X1297106Y-4169060D01*
X1304433Y-4170517D01*
X1311761Y-4169060D01*
X1317972Y-4164909D01*
X1322123Y-4158698D01*
X1323581Y-4151370D01*
X1322123Y-4144043D01*
X1317972Y-4137831D01*
X1314629Y-4135597D01*
X1314629Y-3810372D01*
X1317972Y-3808138D01*
X1322123Y-3801926D01*
X1323581Y-3794598D01*
X1322123Y-3787271D01*
X1317972Y-3781059D01*
X1311761Y-3776909D01*
X1304433Y-3775451D01*
X1304433Y-3775451D02*
G37*
G36*
X1970000Y-4037198D02*
X1960863Y-4038401D01*
X1952349Y-4041928D01*
X1945038Y-4047538D01*
X1939428Y-4054849D01*
X1935901Y-4063363D01*
X1934698Y-4072500D01*
X1935901Y-4081637D01*
X1939428Y-4090151D01*
X1945038Y-4097462D01*
X1952349Y-4103072D01*
X1960863Y-4106599D01*
X1970000Y-4107802D01*
X1979137Y-4106599D01*
X1987651Y-4103072D01*
X1994962Y-4097462D01*
X2000572Y-4090151D01*
X2004099Y-4081637D01*
X2005302Y-4072500D01*
X2004099Y-4063363D01*
X2000572Y-4054849D01*
X1994962Y-4047538D01*
X1987651Y-4041928D01*
X1979137Y-4038401D01*
X1970000Y-4037198D01*
X1970000Y-4037198D02*
G37*
G36*
X170000Y-4037198D02*
X160863Y-4038401D01*
X152349Y-4041928D01*
X145038Y-4047538D01*
X139428Y-4054849D01*
X135901Y-4063363D01*
X134698Y-4072500D01*
X135901Y-4081637D01*
X139428Y-4090151D01*
X145038Y-4097462D01*
X152349Y-4103072D01*
X160863Y-4106599D01*
X170000Y-4107802D01*
X179137Y-4106599D01*
X187651Y-4103072D01*
X194962Y-4097462D01*
X200572Y-4090151D01*
X204099Y-4081637D01*
X205302Y-4072500D01*
X204099Y-4063363D01*
X200572Y-4054849D01*
X194962Y-4047538D01*
X187651Y-4041928D01*
X179137Y-4038401D01*
X170000Y-4037198D01*
X170000Y-4037198D02*
G37*
G36*
X2216913Y-3924440D02*
X2155732Y-3924440D01*
X2155732Y-3953485D01*
X2146914Y-3962304D01*
X2103660Y-3962304D01*
X2100572Y-3954849D01*
X2094962Y-3947538D01*
X2087651Y-3941928D01*
X2079137Y-3938401D01*
X2070000Y-3937198D01*
X2060863Y-3938401D01*
X2052349Y-3941928D01*
X2045038Y-3947538D01*
X2039428Y-3954849D01*
X2035901Y-3963363D01*
X2034698Y-3972500D01*
X2035901Y-3981637D01*
X2039428Y-3990151D01*
X2045038Y-3997462D01*
X2052349Y-4003072D01*
X2060863Y-4006599D01*
X2070000Y-4007802D01*
X2079137Y-4006599D01*
X2087651Y-4003072D01*
X2094962Y-3997462D01*
X2100572Y-3990151D01*
X2103660Y-3982696D01*
X2151137Y-3982696D01*
X2155039Y-3981920D01*
X2158347Y-3979710D01*
X2170152Y-3967905D01*
X2216913Y-3967905D01*
X2216913Y-3956370D01*
X2226599Y-3956370D01*
X2226599Y-3967906D01*
X2287780Y-3967906D01*
X2287780Y-3924441D01*
X2226599Y-3924441D01*
X2226599Y-3935978D01*
X2216913Y-3935978D01*
X2216913Y-3924440D01*
X2216913Y-3924440D02*
G37*
G36*
X713882Y-3968364D02*
X706554Y-3969822D01*
X700343Y-3973972D01*
X696192Y-3980184D01*
X694735Y-3987512D01*
X696192Y-3994839D01*
X700343Y-4001051D01*
X706554Y-4005202D01*
X713882Y-4006659D01*
X721209Y-4005202D01*
X727421Y-4001051D01*
X731572Y-3994839D01*
X733029Y-3987512D01*
X731572Y-3980184D01*
X727421Y-3973972D01*
X721209Y-3969822D01*
X713882Y-3968364D01*
X713882Y-3968364D02*
G37*
G36*
X170000Y-3837198D02*
X160863Y-3838401D01*
X152349Y-3841928D01*
X145038Y-3847538D01*
X139428Y-3854849D01*
X135901Y-3863363D01*
X134698Y-3872500D01*
X135901Y-3881637D01*
X139428Y-3890151D01*
X145038Y-3897462D01*
X152349Y-3903072D01*
X160863Y-3906599D01*
X170000Y-3907802D01*
X179137Y-3906599D01*
X187651Y-3903072D01*
X194962Y-3897462D01*
X200572Y-3890151D01*
X204099Y-3881637D01*
X205302Y-3872500D01*
X204099Y-3863363D01*
X200572Y-3854849D01*
X194962Y-3847538D01*
X187651Y-3841928D01*
X179137Y-3838401D01*
X170000Y-3837198D01*
X170000Y-3837198D02*
G37*
G36*
X70000Y-3837198D02*
X60863Y-3838401D01*
X52349Y-3841928D01*
X45038Y-3847538D01*
X39428Y-3854849D01*
X35901Y-3863363D01*
X34698Y-3872500D01*
X35901Y-3881637D01*
X39428Y-3890151D01*
X45038Y-3897462D01*
X52349Y-3903072D01*
X60863Y-3906599D01*
X70000Y-3907802D01*
X79137Y-3906599D01*
X87651Y-3903072D01*
X94962Y-3897462D01*
X100572Y-3890151D01*
X104099Y-3881637D01*
X105302Y-3872500D01*
X104099Y-3863363D01*
X100572Y-3854849D01*
X94962Y-3847538D01*
X87651Y-3841928D01*
X79137Y-3838401D01*
X70000Y-3837198D01*
X70000Y-3837198D02*
G37*
G36*
X2292780Y-3986369D02*
X2262190Y-3986369D01*
X2262190Y-4008102D01*
X2292780Y-4008102D01*
X2292780Y-3986369D01*
X2292780Y-3986369D02*
G37*
G36*
X1083961Y-3968364D02*
X1076633Y-3969822D01*
X1070421Y-3973972D01*
X1066271Y-3980184D01*
X1064813Y-3987512D01*
X1066271Y-3994839D01*
X1070421Y-4001051D01*
X1076633Y-4005202D01*
X1083961Y-4006659D01*
X1091288Y-4005202D01*
X1092699Y-4004259D01*
X1096962Y-4007424D01*
X1095853Y-4013000D01*
X1097310Y-4020327D01*
X1101461Y-4026539D01*
X1107673Y-4030690D01*
X1115000Y-4032147D01*
X1122327Y-4030690D01*
X1128539Y-4026539D01*
X1132690Y-4020327D01*
X1134147Y-4013000D01*
X1132690Y-4005673D01*
X1128539Y-3999461D01*
X1122327Y-3995310D01*
X1115000Y-3993853D01*
X1107673Y-3995310D01*
X1106262Y-3996253D01*
X1101999Y-3993088D01*
X1103108Y-3987512D01*
X1101650Y-3980184D01*
X1097500Y-3973972D01*
X1091288Y-3969822D01*
X1083961Y-3968364D01*
X1083961Y-3968364D02*
G37*
G36*
X170000Y-3937198D02*
X160863Y-3938401D01*
X152349Y-3941928D01*
X145038Y-3947538D01*
X139428Y-3954849D01*
X135901Y-3963363D01*
X134698Y-3972500D01*
X135901Y-3981637D01*
X139428Y-3990151D01*
X145038Y-3997462D01*
X152349Y-4003072D01*
X160863Y-4006599D01*
X170000Y-4007802D01*
X179137Y-4006599D01*
X187651Y-4003072D01*
X194962Y-3997462D01*
X200572Y-3990151D01*
X204099Y-3981637D01*
X205302Y-3972500D01*
X204099Y-3963363D01*
X200572Y-3954849D01*
X194962Y-3947538D01*
X187651Y-3941928D01*
X179137Y-3938401D01*
X170000Y-3937198D01*
X170000Y-3937198D02*
G37*
G36*
X70000Y-3937198D02*
X60863Y-3938401D01*
X52349Y-3941928D01*
X45038Y-3947538D01*
X39428Y-3954849D01*
X35901Y-3963363D01*
X34698Y-3972500D01*
X35901Y-3981637D01*
X39428Y-3990151D01*
X45038Y-3997462D01*
X52349Y-4003072D01*
X60863Y-4006599D01*
X70000Y-4007802D01*
X79137Y-4006599D01*
X87651Y-4003072D01*
X94962Y-3997462D01*
X100572Y-3990151D01*
X104099Y-3981637D01*
X105302Y-3972500D01*
X104099Y-3963363D01*
X100572Y-3954849D01*
X94962Y-3947538D01*
X87651Y-3941928D01*
X79137Y-3938401D01*
X70000Y-3937198D01*
X70000Y-3937198D02*
G37*
G36*
X1123149Y-2319112D02*
X1123149Y-2353322D01*
X1157359Y-2353322D01*
X1156659Y-2348004D01*
X1152676Y-2338388D01*
X1146340Y-2330131D01*
X1138083Y-2323795D01*
X1128468Y-2319812D01*
X1123149Y-2319112D01*
X1123149Y-2319112D02*
G37*
G36*
X2071999Y2117825D02*
X2062986Y2116639D01*
X2054587Y2113160D01*
X2047374Y2107625D01*
X2041840Y2100413D01*
X2038361Y2092014D01*
X2037174Y2083000D01*
X2038361Y2073987D01*
X2041840Y2065587D01*
X2047374Y2058375D01*
X2054587Y2052840D01*
X2062986Y2049361D01*
X2071999Y2048175D01*
X2081013Y2049361D01*
X2089412Y2052840D01*
X2096625Y2058375D01*
X2102159Y2065587D01*
X2105638Y2073987D01*
X2106825Y2083000D01*
X2105638Y2092014D01*
X2102159Y2100413D01*
X2096625Y2107625D01*
X2089412Y2113160D01*
X2081013Y2116639D01*
X2071999Y2117825D01*
X2071999Y2117825D02*
G37*
G36*
X1971999Y2117825D02*
X1962986Y2116639D01*
X1954587Y2113160D01*
X1947374Y2107625D01*
X1941840Y2100413D01*
X1938361Y2092014D01*
X1937174Y2083000D01*
X1938361Y2073987D01*
X1941840Y2065587D01*
X1947374Y2058375D01*
X1954587Y2052840D01*
X1962986Y2049361D01*
X1971999Y2048175D01*
X1981013Y2049361D01*
X1989412Y2052840D01*
X1996625Y2058375D01*
X2002159Y2065587D01*
X2005638Y2073987D01*
X2006825Y2083000D01*
X2005638Y2092014D01*
X2002159Y2100413D01*
X1996625Y2107625D01*
X1989412Y2113160D01*
X1981013Y2116639D01*
X1971999Y2117825D01*
X1971999Y2117825D02*
G37*
G36*
X2271999Y2117825D02*
X2262986Y2116639D01*
X2254587Y2113160D01*
X2247374Y2107625D01*
X2241840Y2100413D01*
X2238361Y2092014D01*
X2237174Y2083000D01*
X2238361Y2073987D01*
X2241840Y2065587D01*
X2247374Y2058375D01*
X2254587Y2052840D01*
X2262986Y2049361D01*
X2271999Y2048175D01*
X2281013Y2049361D01*
X2289412Y2052840D01*
X2296625Y2058375D01*
X2302159Y2065587D01*
X2305638Y2073987D01*
X2306825Y2083000D01*
X2305638Y2092014D01*
X2302159Y2100413D01*
X2296625Y2107625D01*
X2289412Y2113160D01*
X2281013Y2116639D01*
X2271999Y2117825D01*
X2271999Y2117825D02*
G37*
G36*
X2171999Y2117825D02*
X2162986Y2116639D01*
X2154587Y2113160D01*
X2147374Y2107625D01*
X2141840Y2100413D01*
X2138361Y2092014D01*
X2137174Y2083000D01*
X2138361Y2073987D01*
X2141840Y2065587D01*
X2147374Y2058375D01*
X2154587Y2052840D01*
X2162986Y2049361D01*
X2171999Y2048175D01*
X2181013Y2049361D01*
X2189412Y2052840D01*
X2196625Y2058375D01*
X2202159Y2065587D01*
X2205638Y2073987D01*
X2206825Y2083000D01*
X2205638Y2092014D01*
X2202159Y2100413D01*
X2196625Y2107625D01*
X2189412Y2113160D01*
X2181013Y2116639D01*
X2171999Y2117825D01*
X2171999Y2117825D02*
G37*
G36*
X2263503Y1938913D02*
X2248268Y1938913D01*
X2248268Y1923677D01*
X2263503Y1923677D01*
X2263503Y1938913D01*
X2263503Y1938913D02*
G37*
G36*
X2263503Y1913677D02*
X2248268Y1913677D01*
X2248268Y1898440D01*
X2263503Y1898440D01*
X2263503Y1913677D01*
X2263503Y1913677D02*
G37*
G36*
X1811527Y2078000D02*
X1776999Y2078000D01*
X1776999Y2043473D01*
X1811527Y2043473D01*
X1811527Y2078000D01*
X1811527Y2078000D02*
G37*
G36*
X1766999Y2078000D02*
X1732472Y2078000D01*
X1732472Y2043473D01*
X1766999Y2043473D01*
X1766999Y2078000D01*
X1766999Y2078000D02*
G37*
G36*
X345167Y2275000D02*
X305000Y2275000D01*
X305000Y2234833D01*
X311860Y2235736D01*
X322913Y2240314D01*
X332403Y2247597D01*
X339686Y2257088D01*
X344264Y2268140D01*
X345167Y2275000D01*
X345167Y2275000D02*
G37*
G36*
X495000Y2275000D02*
X454833Y2275000D01*
X455736Y2268140D01*
X460314Y2257088D01*
X467597Y2247597D01*
X477087Y2240314D01*
X488140Y2235736D01*
X495000Y2234833D01*
X495000Y2275000D01*
X495000Y2275000D02*
G37*
G36*
X400000Y2320782D02*
X389445Y2319392D01*
X379609Y2315318D01*
X371163Y2308837D01*
X364682Y2300391D01*
X360608Y2290555D01*
X359218Y2280000D01*
X360608Y2269445D01*
X364682Y2259609D01*
X371163Y2251163D01*
X379609Y2244682D01*
X389445Y2240608D01*
X400000Y2239218D01*
X410555Y2240608D01*
X420391Y2244682D01*
X428837Y2251163D01*
X435318Y2259609D01*
X439392Y2269445D01*
X440782Y2280000D01*
X439392Y2290555D01*
X435318Y2300391D01*
X428837Y2308837D01*
X420391Y2315318D01*
X410555Y2319392D01*
X400000Y2320782D01*
X400000Y2320782D02*
G37*
G36*
X545167Y2275000D02*
X505000Y2275000D01*
X505000Y2234833D01*
X511860Y2235736D01*
X522913Y2240314D01*
X532403Y2247597D01*
X539686Y2257088D01*
X544264Y2268140D01*
X545167Y2275000D01*
X545167Y2275000D02*
G37*
G36*
X1811527Y2122528D02*
X1776999Y2122528D01*
X1776999Y2088000D01*
X1811527Y2088000D01*
X1811527Y2122528D01*
X1811527Y2122528D02*
G37*
G36*
X1766999Y2122528D02*
X1732472Y2122528D01*
X1732472Y2088000D01*
X1766999Y2088000D01*
X1766999Y2122528D01*
X1766999Y2122528D02*
G37*
G36*
X295000Y2275000D02*
X254833Y2275000D01*
X255736Y2268140D01*
X260314Y2257088D01*
X267597Y2247597D01*
X277087Y2240314D01*
X288140Y2235736D01*
X295000Y2234833D01*
X295000Y2275000D01*
X295000Y2275000D02*
G37*
G36*
X1892519Y2363676D02*
X1822519Y2363676D01*
X1822519Y2293676D01*
X1878100Y2293676D01*
X1901331Y2270445D01*
X1901331Y2109223D01*
X1898276Y2108186D01*
X1896331Y2107851D01*
X1889412Y2113160D01*
X1881013Y2116639D01*
X1871999Y2117825D01*
X1862986Y2116639D01*
X1854587Y2113160D01*
X1847374Y2107625D01*
X1841840Y2100413D01*
X1838361Y2092014D01*
X1837174Y2083000D01*
X1838361Y2073987D01*
X1841840Y2065587D01*
X1847374Y2058375D01*
X1854587Y2052840D01*
X1862986Y2049361D01*
X1871999Y2048175D01*
X1881013Y2049361D01*
X1889412Y2052840D01*
X1896331Y2058149D01*
X1898276Y2057814D01*
X1901331Y2056777D01*
X1901331Y1956747D01*
X1874960Y1956747D01*
X1874960Y1905409D01*
X1940078Y1905409D01*
X1940078Y1956747D01*
X1921723Y1956747D01*
X1921723Y2274669D01*
X1920947Y2278570D01*
X1918737Y2281878D01*
X1892519Y2308096D01*
X1892519Y2363676D01*
X1892519Y2363676D02*
G37*
G36*
X2090000Y1160259D02*
X2082168Y1159228D01*
X2074870Y1156205D01*
X2068604Y1151396D01*
X2063795Y1145129D01*
X2060772Y1137832D01*
X2059741Y1130000D01*
X2060772Y1122168D01*
X2063795Y1114871D01*
X2068604Y1108604D01*
X2074870Y1103795D01*
X2082168Y1100772D01*
X2090000Y1099741D01*
X2097832Y1100772D01*
X2105130Y1103795D01*
X2111396Y1108604D01*
X2116205Y1114871D01*
X2119228Y1122168D01*
X2120259Y1130000D01*
X2119228Y1137832D01*
X2116205Y1145129D01*
X2111396Y1151396D01*
X2105130Y1156205D01*
X2097832Y1159228D01*
X2090000Y1160259D01*
X2090000Y1160259D02*
G37*
G36*
X1692597Y887406D02*
X1685157Y886426D01*
X1678224Y883555D01*
X1672270Y878986D01*
X1667702Y873033D01*
X1664830Y866100D01*
X1663851Y858660D01*
X1664830Y851220D01*
X1667702Y844287D01*
X1672270Y838334D01*
X1678224Y833765D01*
X1685157Y830894D01*
X1692597Y829914D01*
X1700037Y830894D01*
X1706970Y833765D01*
X1712923Y838334D01*
X1717492Y844287D01*
X1720363Y851220D01*
X1721343Y858660D01*
X1720363Y866100D01*
X1717492Y873033D01*
X1712923Y878986D01*
X1706970Y883555D01*
X1700037Y886426D01*
X1692597Y887406D01*
X1692597Y887406D02*
G37*
G36*
X2250000Y1403745D02*
X2233771Y1402468D01*
X2217941Y1398667D01*
X2202901Y1392438D01*
X2189020Y1383931D01*
X2176641Y1373359D01*
X2166068Y1360980D01*
X2157562Y1347099D01*
X2151333Y1332059D01*
X2147532Y1316229D01*
X2146255Y1300000D01*
X2147532Y1283771D01*
X2151333Y1267941D01*
X2157562Y1252901D01*
X2166068Y1239020D01*
X2176641Y1226641D01*
X2189020Y1216069D01*
X2202901Y1207562D01*
X2217941Y1201333D01*
X2233771Y1197532D01*
X2250000Y1196255D01*
X2266229Y1197532D01*
X2282059Y1201333D01*
X2297099Y1207562D01*
X2310980Y1216069D01*
X2323359Y1226641D01*
X2333932Y1239020D01*
X2342438Y1252901D01*
X2348667Y1267941D01*
X2352468Y1283771D01*
X2353745Y1300000D01*
X2352468Y1316229D01*
X2348667Y1332059D01*
X2342438Y1347099D01*
X2333932Y1360980D01*
X2323359Y1373359D01*
X2310980Y1383931D01*
X2297099Y1392438D01*
X2282059Y1398667D01*
X2266229Y1402468D01*
X2250000Y1403745D01*
X2250000Y1403745D02*
G37*
G36*
X-100000Y1403745D02*
X-116229Y1402468D01*
X-132059Y1398667D01*
X-147099Y1392438D01*
X-160980Y1383931D01*
X-173359Y1373359D01*
X-183931Y1360980D01*
X-192438Y1347099D01*
X-198667Y1332059D01*
X-202468Y1316229D01*
X-203745Y1300000D01*
X-202468Y1283771D01*
X-198667Y1267941D01*
X-192438Y1252901D01*
X-183931Y1239020D01*
X-173359Y1226641D01*
X-160980Y1216069D01*
X-147099Y1207562D01*
X-132059Y1201333D01*
X-116229Y1197532D01*
X-100000Y1196255D01*
X-83771Y1197532D01*
X-67941Y1201333D01*
X-52901Y1207562D01*
X-39020Y1216069D01*
X-26641Y1226641D01*
X-16069Y1239020D01*
X-7562Y1252901D01*
X-1333Y1267941D01*
X2468Y1283771D01*
X3745Y1300000D01*
X2468Y1316229D01*
X-1333Y1332059D01*
X-7562Y1347099D01*
X-16069Y1360980D01*
X-26641Y1373359D01*
X-39020Y1383931D01*
X-52901Y1392438D01*
X-67941Y1398667D01*
X-83771Y1402468D01*
X-100000Y1403745D01*
X-100000Y1403745D02*
G37*
G36*
X0Y884825D02*
X-9014Y883639D01*
X-17413Y880160D01*
X-24625Y874625D01*
X-30160Y867413D01*
X-33639Y859014D01*
X-34825Y850000D01*
X-33639Y840986D01*
X-30160Y832587D01*
X-24625Y825375D01*
X-17413Y819840D01*
X-9014Y816361D01*
X0Y815175D01*
X9014Y816361D01*
X17413Y819840D01*
X24625Y825375D01*
X30160Y832587D01*
X33639Y840986D01*
X34825Y850000D01*
X33639Y859014D01*
X30160Y867413D01*
X24625Y874625D01*
X17413Y880160D01*
X9014Y883639D01*
X0Y884825D01*
X0Y884825D02*
G37*
G36*
X-100000Y884825D02*
X-109013Y883639D01*
X-117413Y880160D01*
X-124625Y874625D01*
X-130160Y867413D01*
X-133639Y859014D01*
X-134825Y850000D01*
X-133639Y840986D01*
X-130160Y832587D01*
X-124625Y825375D01*
X-117413Y819840D01*
X-109013Y816361D01*
X-100000Y815175D01*
X-90987Y816361D01*
X-82587Y819840D01*
X-75375Y825375D01*
X-69840Y832587D01*
X-66361Y840986D01*
X-65175Y850000D01*
X-66361Y859014D01*
X-69840Y867413D01*
X-75375Y874625D01*
X-82587Y880160D01*
X-90987Y883639D01*
X-100000Y884825D01*
X-100000Y884825D02*
G37*
G36*
X2300000Y884825D02*
X2290986Y883639D01*
X2282587Y880160D01*
X2275375Y874625D01*
X2269840Y867413D01*
X2266361Y859014D01*
X2265175Y850000D01*
X2266361Y840986D01*
X2269840Y832587D01*
X2275375Y825375D01*
X2282587Y819840D01*
X2290986Y816361D01*
X2300000Y815175D01*
X2309014Y816361D01*
X2317413Y819840D01*
X2324625Y825375D01*
X2330160Y832587D01*
X2333639Y840986D01*
X2334825Y850000D01*
X2333639Y859014D01*
X2330160Y867413D01*
X2324625Y874625D01*
X2317413Y880160D01*
X2309014Y883639D01*
X2300000Y884825D01*
X2300000Y884825D02*
G37*
G36*
X2200000Y884825D02*
X2190986Y883639D01*
X2182587Y880160D01*
X2175375Y874625D01*
X2169840Y867413D01*
X2166361Y859014D01*
X2165175Y850000D01*
X2166361Y840986D01*
X2169840Y832587D01*
X2175375Y825375D01*
X2182587Y819840D01*
X2190986Y816361D01*
X2200000Y815175D01*
X2209014Y816361D01*
X2217413Y819840D01*
X2224625Y825375D01*
X2230160Y832587D01*
X2233639Y840986D01*
X2234825Y850000D01*
X2233639Y859014D01*
X2230160Y867413D01*
X2224625Y874625D01*
X2217413Y880160D01*
X2209014Y883639D01*
X2200000Y884825D01*
X2200000Y884825D02*
G37*
G36*
X1945078Y1741944D02*
X1912519Y1741944D01*
X1912519Y1716275D01*
X1945078Y1716275D01*
X1945078Y1741944D01*
X1945078Y1741944D02*
G37*
G36*
X1902519Y1741944D02*
X1869960Y1741944D01*
X1869960Y1716275D01*
X1902519Y1716275D01*
X1902519Y1741944D01*
X1902519Y1741944D02*
G37*
G36*
X1940078Y1881944D02*
X1874960Y1881944D01*
X1874960Y1830605D01*
X1899252Y1830605D01*
X1899252Y1811747D01*
X1874960Y1811747D01*
X1874960Y1760409D01*
X1940078Y1760409D01*
X1940078Y1811747D01*
X1919644Y1811747D01*
X1919644Y1830605D01*
X1940078Y1830605D01*
X1940078Y1836079D01*
X2000691Y1836079D01*
X2000691Y1835399D01*
X2001228Y1832699D01*
X2002757Y1830410D01*
X2005046Y1828881D01*
X2007746Y1828344D01*
X2051151Y1828344D01*
X2053851Y1828881D01*
X2056140Y1830410D01*
X2057669Y1832699D01*
X2058206Y1835399D01*
X2058206Y1857151D01*
X2057669Y1859851D01*
X2056297Y1861904D01*
X2059744Y1864207D01*
X2062379Y1868150D01*
X2063304Y1872800D01*
X2063304Y1878677D01*
X2029449Y1878677D01*
X1995593Y1878677D01*
X1995593Y1872800D01*
X1996518Y1868150D01*
X1999152Y1864207D01*
X2002600Y1861904D01*
X2001228Y1859851D01*
X2000691Y1857151D01*
X2000691Y1856471D01*
X1940078Y1856471D01*
X1940078Y1881944D01*
X1940078Y1881944D02*
G37*
G36*
X2051151Y1939009D02*
X2007746Y1939009D01*
X2005046Y1938472D01*
X2002757Y1936943D01*
X2001228Y1934654D01*
X2000691Y1931954D01*
X2000691Y1910202D01*
X2001228Y1907502D01*
X2002600Y1905449D01*
X1999152Y1903146D01*
X1996518Y1899203D01*
X1995593Y1894552D01*
X1995593Y1888677D01*
X2029449Y1888677D01*
X2063304Y1888677D01*
X2063304Y1894552D01*
X2062884Y1896664D01*
X2067492Y1899127D01*
X2116832Y1849787D01*
X2116832Y1838783D01*
X2116772Y1838480D01*
X2116772Y1818179D01*
X2114688Y1817904D01*
X2107390Y1814881D01*
X2101123Y1810073D01*
X2096314Y1803806D01*
X2093291Y1796508D01*
X2092260Y1788676D01*
X2093291Y1780845D01*
X2096314Y1773547D01*
X2101123Y1767280D01*
X2107390Y1762471D01*
X2114688Y1759448D01*
X2122519Y1758418D01*
X2130351Y1759448D01*
X2137649Y1762471D01*
X2143916Y1767280D01*
X2148724Y1773547D01*
X2151747Y1780845D01*
X2152778Y1788676D01*
X2151747Y1796508D01*
X2148724Y1803806D01*
X2143916Y1810073D01*
X2137649Y1814881D01*
X2137164Y1815082D01*
X2137164Y1828344D01*
X2167293Y1828344D01*
X2169992Y1828881D01*
X2172281Y1830410D01*
X2173811Y1832699D01*
X2174348Y1835399D01*
X2174348Y1857151D01*
X2173811Y1859851D01*
X2172281Y1862139D01*
X2169992Y1863669D01*
X2167293Y1864206D01*
X2131252Y1864206D01*
X2074965Y1920492D01*
X2071657Y1922703D01*
X2067756Y1923479D01*
X2058206Y1923479D01*
X2058206Y1931954D01*
X2057669Y1934654D01*
X2056140Y1936943D01*
X2053851Y1938472D01*
X2051151Y1939009D01*
X2051151Y1939009D02*
G37*
G36*
X1694197Y1636006D02*
X1686757Y1635026D01*
X1679824Y1632155D01*
X1673870Y1627586D01*
X1669302Y1621633D01*
X1666430Y1614700D01*
X1665451Y1607260D01*
X1666430Y1599820D01*
X1669302Y1592887D01*
X1673870Y1586934D01*
X1679824Y1582365D01*
X1686757Y1579494D01*
X1694197Y1578514D01*
X1701637Y1579494D01*
X1708570Y1582365D01*
X1714523Y1586934D01*
X1719091Y1592887D01*
X1721963Y1599820D01*
X1722943Y1607260D01*
X1721963Y1614700D01*
X1719091Y1621633D01*
X1714523Y1627586D01*
X1708570Y1632155D01*
X1701637Y1635026D01*
X1694197Y1636006D01*
X1694197Y1636006D02*
G37*
G36*
X1604528Y1960276D02*
X1535472Y1960276D01*
X1535472Y1931230D01*
X1523263Y1919021D01*
X1521053Y1915713D01*
X1520276Y1911811D01*
X1520276Y1495197D01*
X1490788Y1495197D01*
X1490788Y1451732D01*
X1546773Y1451732D01*
X1546773Y1428268D01*
X1490788Y1428268D01*
X1490788Y1384803D01*
X1537550Y1384803D01*
X1597294Y1325059D01*
X1597294Y1318881D01*
X1598070Y1314979D01*
X1600280Y1311671D01*
X1669161Y1242790D01*
X1672469Y1240580D01*
X1676371Y1239804D01*
X1744227Y1239804D01*
X1746461Y1236461D01*
X1752673Y1232310D01*
X1760000Y1230853D01*
X1767327Y1232310D01*
X1773539Y1236461D01*
X1777690Y1242673D01*
X1779147Y1250000D01*
X1777690Y1257327D01*
X1773539Y1263539D01*
X1767327Y1267690D01*
X1760000Y1269147D01*
X1752673Y1267690D01*
X1746461Y1263539D01*
X1744227Y1260196D01*
X1680594Y1260196D01*
X1664200Y1276590D01*
X1665846Y1282015D01*
X1667327Y1282310D01*
X1673539Y1286461D01*
X1675773Y1289804D01*
X1769929Y1289804D01*
X1773831Y1290580D01*
X1777139Y1292790D01*
X2218981Y1734632D01*
X2221191Y1737940D01*
X2221967Y1741842D01*
X2221967Y1893881D01*
X2223031Y1898440D01*
X2238268Y1898440D01*
X2238268Y1918677D01*
X2238268Y1938913D01*
X2223031Y1938913D01*
X2223031Y1933913D01*
X2196535Y1933913D01*
X2196535Y1930073D01*
X2174348Y1930073D01*
X2174348Y1931954D01*
X2173811Y1934654D01*
X2172281Y1936943D01*
X2169992Y1938472D01*
X2167293Y1939009D01*
X2123887Y1939009D01*
X2121188Y1938472D01*
X2118899Y1936943D01*
X2117369Y1934654D01*
X2116832Y1931954D01*
X2116832Y1910202D01*
X2117369Y1907502D01*
X2118899Y1905213D01*
X2121188Y1903684D01*
X2123887Y1903147D01*
X2167293Y1903147D01*
X2169992Y1903684D01*
X2172281Y1905213D01*
X2173811Y1907502D01*
X2174244Y1909681D01*
X2196535Y1909681D01*
X2196535Y1903440D01*
X2201575Y1903440D01*
X2201575Y1746065D01*
X1855210Y1399700D01*
X1850591Y1401613D01*
X1850591Y1428268D01*
X1789409Y1428268D01*
X1789409Y1399222D01*
X1763572Y1373385D01*
X1758147Y1375031D01*
X1757690Y1377327D01*
X1753539Y1383539D01*
X1747327Y1387690D01*
X1740000Y1389147D01*
X1732673Y1387690D01*
X1732343Y1387470D01*
X1720591Y1399222D01*
X1720591Y1428268D01*
X1659409Y1428268D01*
X1659409Y1419734D01*
X1657831Y1419420D01*
X1654523Y1417210D01*
X1652312Y1413902D01*
X1651536Y1410000D01*
X1652312Y1406098D01*
X1654523Y1402790D01*
X1657831Y1400580D01*
X1659409Y1400266D01*
X1659409Y1384803D01*
X1706171Y1384803D01*
X1720873Y1370102D01*
X1720853Y1370000D01*
X1722310Y1362673D01*
X1726461Y1356461D01*
X1732122Y1352678D01*
X1732417Y1350000D01*
X1732122Y1347322D01*
X1726461Y1343539D01*
X1722310Y1337327D01*
X1720853Y1330000D01*
X1722310Y1322673D01*
X1726461Y1316461D01*
X1728354Y1315196D01*
X1726837Y1310196D01*
X1675773Y1310196D01*
X1673539Y1313539D01*
X1667327Y1317690D01*
X1660000Y1319147D01*
X1656056Y1318363D01*
X1567165Y1407254D01*
X1567165Y1859724D01*
X1576536Y1859724D01*
X1576536Y1567874D01*
X1577312Y1563972D01*
X1579523Y1560665D01*
X1659409Y1480778D01*
X1659409Y1451732D01*
X1720591Y1451732D01*
X1720591Y1495197D01*
X1673829Y1495197D01*
X1596928Y1572097D01*
X1596928Y1859724D01*
X1604528Y1859724D01*
X1604528Y1903189D01*
X1542120Y1903189D01*
X1541270Y1908189D01*
X1549892Y1916811D01*
X1593543Y1916811D01*
X1594528Y1916615D01*
X1617175Y1916615D01*
X1705616Y1828174D01*
X1703281Y1823439D01*
X1694197Y1824635D01*
X1679839Y1822744D01*
X1666459Y1817202D01*
X1654970Y1808387D01*
X1646154Y1796897D01*
X1640612Y1783518D01*
X1638722Y1769160D01*
X1640612Y1754802D01*
X1646154Y1741423D01*
X1654970Y1729934D01*
X1666459Y1721118D01*
X1679839Y1715576D01*
X1694197Y1713685D01*
X1708555Y1715576D01*
X1721934Y1721118D01*
X1733423Y1729934D01*
X1742239Y1741423D01*
X1747781Y1754802D01*
X1749671Y1769160D01*
X1748476Y1778244D01*
X1753211Y1780579D01*
X1789214Y1744577D01*
X1789214Y1484055D01*
X1789409Y1483070D01*
X1789409Y1451732D01*
X1850591Y1451732D01*
X1850591Y1495197D01*
X1809605Y1495197D01*
X1809605Y1748800D01*
X1808829Y1752702D01*
X1806619Y1756010D01*
X1628608Y1934021D01*
X1625300Y1936231D01*
X1621399Y1937007D01*
X1604528Y1937007D01*
X1604528Y1960276D01*
X1604528Y1960276D02*
G37*
G36*
X1945078Y1706275D02*
X1912519Y1706275D01*
X1912519Y1680605D01*
X1945078Y1680605D01*
X1945078Y1706275D01*
X1945078Y1706275D02*
G37*
G36*
X1902519Y1706275D02*
X1869960Y1706275D01*
X1869960Y1680605D01*
X1902519Y1680605D01*
X1902519Y1706275D01*
X1902519Y1706275D02*
G37*
G36*
X1300000Y2320782D02*
X1289445Y2319392D01*
X1279609Y2315318D01*
X1271163Y2308837D01*
X1264682Y2300391D01*
X1260608Y2290555D01*
X1259218Y2280000D01*
X1260608Y2269445D01*
X1264682Y2259609D01*
X1271163Y2251163D01*
X1279609Y2244682D01*
X1289445Y2240608D01*
X1300000Y2239218D01*
X1310555Y2240608D01*
X1320391Y2244682D01*
X1328837Y2251163D01*
X1335318Y2259609D01*
X1339392Y2269445D01*
X1340782Y2280000D01*
X1339392Y2290555D01*
X1335318Y2300391D01*
X1328837Y2308837D01*
X1320391Y2315318D01*
X1310555Y2319392D01*
X1300000Y2320782D01*
X1300000Y2320782D02*
G37*
G36*
X1200000Y2420782D02*
X1189445Y2419392D01*
X1179609Y2415318D01*
X1171163Y2408837D01*
X1164682Y2400391D01*
X1160608Y2390555D01*
X1159218Y2380000D01*
X1160608Y2369445D01*
X1164682Y2359609D01*
X1171163Y2351163D01*
X1179609Y2344682D01*
X1189445Y2340608D01*
X1200000Y2339218D01*
X1210555Y2340608D01*
X1220391Y2344682D01*
X1228837Y2351163D01*
X1235318Y2359609D01*
X1239392Y2369445D01*
X1240782Y2380000D01*
X1239392Y2390555D01*
X1235318Y2400391D01*
X1228837Y2408837D01*
X1220391Y2415318D01*
X1210555Y2419392D01*
X1200000Y2420782D01*
X1200000Y2420782D02*
G37*
G36*
X1000000Y2420782D02*
X989445Y2419392D01*
X979609Y2415318D01*
X971163Y2408837D01*
X964682Y2400391D01*
X960608Y2390555D01*
X959218Y2380000D01*
X960608Y2369445D01*
X964682Y2359609D01*
X971163Y2351163D01*
X979609Y2344682D01*
X989445Y2340608D01*
X1000000Y2339218D01*
X1010555Y2340608D01*
X1020391Y2344682D01*
X1028837Y2351163D01*
X1035318Y2359609D01*
X1039392Y2369445D01*
X1040782Y2380000D01*
X1039392Y2390555D01*
X1035318Y2400391D01*
X1028837Y2408837D01*
X1020391Y2415318D01*
X1010555Y2419392D01*
X1000000Y2420782D01*
X1000000Y2420782D02*
G37*
G36*
X1400000Y2420782D02*
X1389445Y2419392D01*
X1379609Y2415318D01*
X1371163Y2408837D01*
X1364682Y2400391D01*
X1360608Y2390555D01*
X1359218Y2380000D01*
X1360608Y2369445D01*
X1364682Y2359609D01*
X1371163Y2351163D01*
X1379609Y2344682D01*
X1389445Y2340608D01*
X1400000Y2339218D01*
X1410555Y2340608D01*
X1420391Y2344682D01*
X1428837Y2351163D01*
X1435318Y2359609D01*
X1439392Y2369445D01*
X1440782Y2380000D01*
X1439392Y2390555D01*
X1435318Y2400391D01*
X1428837Y2408837D01*
X1420391Y2415318D01*
X1410555Y2419392D01*
X1400000Y2420782D01*
X1400000Y2420782D02*
G37*
G36*
X1300000Y2420782D02*
X1289445Y2419392D01*
X1279609Y2415318D01*
X1271163Y2408837D01*
X1264682Y2400391D01*
X1260608Y2390555D01*
X1259218Y2380000D01*
X1260608Y2369445D01*
X1264682Y2359609D01*
X1271163Y2351163D01*
X1279609Y2344682D01*
X1289445Y2340608D01*
X1300000Y2339218D01*
X1310555Y2340608D01*
X1320391Y2344682D01*
X1328837Y2351163D01*
X1335318Y2359609D01*
X1339392Y2369445D01*
X1340782Y2380000D01*
X1339392Y2390555D01*
X1335318Y2400391D01*
X1328837Y2408837D01*
X1320391Y2415318D01*
X1310555Y2419392D01*
X1300000Y2420782D01*
X1300000Y2420782D02*
G37*
G36*
X400000Y2420782D02*
X389445Y2419392D01*
X379609Y2415318D01*
X371163Y2408837D01*
X364682Y2400391D01*
X360608Y2390555D01*
X359218Y2380000D01*
X360608Y2369445D01*
X364682Y2359609D01*
X371163Y2351163D01*
X379609Y2344682D01*
X389445Y2340608D01*
X400000Y2339218D01*
X410555Y2340608D01*
X420391Y2344682D01*
X428837Y2351163D01*
X435318Y2359609D01*
X439392Y2369445D01*
X440782Y2380000D01*
X439392Y2390555D01*
X435318Y2400391D01*
X428837Y2408837D01*
X420391Y2415318D01*
X410555Y2419392D01*
X400000Y2420782D01*
X400000Y2420782D02*
G37*
G36*
X545167Y2375000D02*
X505000Y2375000D01*
X505000Y2334833D01*
X511860Y2335736D01*
X522913Y2340314D01*
X532403Y2347597D01*
X539686Y2357088D01*
X544264Y2368140D01*
X545167Y2375000D01*
X545167Y2375000D02*
G37*
G36*
X900000Y2420782D02*
X889445Y2419392D01*
X879609Y2415318D01*
X871163Y2408837D01*
X864682Y2400391D01*
X860608Y2390555D01*
X859218Y2380000D01*
X860608Y2369445D01*
X864682Y2359609D01*
X871163Y2351163D01*
X879609Y2344682D01*
X889445Y2340608D01*
X900000Y2339218D01*
X910555Y2340608D01*
X920391Y2344682D01*
X928837Y2351163D01*
X935318Y2359609D01*
X939392Y2369445D01*
X940782Y2380000D01*
X939392Y2390555D01*
X935318Y2400391D01*
X928837Y2408837D01*
X920391Y2415318D01*
X910555Y2419392D01*
X900000Y2420782D01*
X900000Y2420782D02*
G37*
G36*
X600000Y2420782D02*
X589445Y2419392D01*
X579609Y2415318D01*
X571163Y2408837D01*
X564682Y2400391D01*
X560608Y2390555D01*
X559218Y2380000D01*
X560608Y2369445D01*
X564682Y2359609D01*
X571163Y2351163D01*
X579609Y2344682D01*
X589445Y2340608D01*
X600000Y2339218D01*
X610555Y2340608D01*
X620391Y2344682D01*
X628837Y2351163D01*
X635318Y2359609D01*
X639392Y2369445D01*
X640782Y2380000D01*
X639392Y2390555D01*
X635318Y2400391D01*
X628837Y2408837D01*
X620391Y2415318D01*
X610555Y2419392D01*
X600000Y2420782D01*
X600000Y2420782D02*
G37*
G36*
X1667519Y2578935D02*
X1659688Y2577904D01*
X1652390Y2574881D01*
X1646123Y2570073D01*
X1641314Y2563806D01*
X1638291Y2556508D01*
X1637260Y2548676D01*
X1638291Y2540845D01*
X1641314Y2533547D01*
X1646123Y2527280D01*
X1652390Y2522471D01*
X1659688Y2519448D01*
X1667519Y2518418D01*
X1675351Y2519448D01*
X1682649Y2522471D01*
X1688916Y2527280D01*
X1693724Y2533547D01*
X1696747Y2540845D01*
X1697778Y2548676D01*
X1696747Y2556508D01*
X1693724Y2563806D01*
X1688916Y2570073D01*
X1682649Y2574881D01*
X1675351Y2577904D01*
X1667519Y2578935D01*
X1667519Y2578935D02*
G37*
G36*
X-70000Y2494147D02*
X-77327Y2492690D01*
X-83539Y2488539D01*
X-87690Y2482327D01*
X-89147Y2475000D01*
X-87690Y2467673D01*
X-83539Y2461461D01*
X-77327Y2457310D01*
X-70000Y2455853D01*
X-62673Y2457310D01*
X-56461Y2461461D01*
X-52310Y2467673D01*
X-50853Y2475000D01*
X-52310Y2482327D01*
X-56461Y2488539D01*
X-62673Y2492690D01*
X-70000Y2494147D01*
X-70000Y2494147D02*
G37*
G36*
X1795000Y2644147D02*
X1787673Y2642690D01*
X1781461Y2638539D01*
X1777310Y2632327D01*
X1775853Y2625000D01*
X1777310Y2617673D01*
X1781461Y2611461D01*
X1787673Y2607310D01*
X1795000Y2605853D01*
X1802327Y2607310D01*
X1808539Y2611461D01*
X1812690Y2617673D01*
X1814147Y2625000D01*
X1812690Y2632327D01*
X1808539Y2638539D01*
X1802327Y2642690D01*
X1795000Y2644147D01*
X1795000Y2644147D02*
G37*
G36*
X849000Y2642259D02*
X841168Y2641228D01*
X833870Y2638205D01*
X827604Y2633396D01*
X822795Y2627129D01*
X819772Y2619832D01*
X818741Y2612000D01*
X819772Y2604168D01*
X822795Y2596871D01*
X827604Y2590604D01*
X833870Y2585795D01*
X841168Y2582772D01*
X849000Y2581741D01*
X856832Y2582772D01*
X864130Y2585795D01*
X870396Y2590604D01*
X875205Y2596871D01*
X878228Y2604168D01*
X879259Y2612000D01*
X878228Y2619832D01*
X875205Y2627129D01*
X870396Y2633396D01*
X864130Y2638205D01*
X856832Y2641228D01*
X849000Y2642259D01*
X849000Y2642259D02*
G37*
G36*
X495000Y2425167D02*
X488140Y2424264D01*
X477087Y2419686D01*
X467597Y2412403D01*
X460314Y2402912D01*
X455736Y2391860D01*
X454833Y2385000D01*
X495000Y2385000D01*
X495000Y2425167D01*
X495000Y2425167D02*
G37*
G36*
X295000Y2425167D02*
X288140Y2424264D01*
X277087Y2419686D01*
X267597Y2412403D01*
X260314Y2402912D01*
X255736Y2391860D01*
X254833Y2385000D01*
X295000Y2385000D01*
X295000Y2425167D01*
X295000Y2425167D02*
G37*
G36*
X505000Y2425167D02*
X505000Y2385000D01*
X545167Y2385000D01*
X544264Y2391860D01*
X539686Y2402912D01*
X532403Y2412403D01*
X522913Y2419686D01*
X511860Y2424264D01*
X505000Y2425167D01*
X505000Y2425167D02*
G37*
G36*
X305000Y2425167D02*
X305000Y2385000D01*
X345167Y2385000D01*
X344264Y2391860D01*
X339686Y2402912D01*
X332403Y2412403D01*
X322913Y2419686D01*
X311860Y2424264D01*
X305000Y2425167D01*
X305000Y2425167D02*
G37*
G36*
X2052519Y2323677D02*
X2017519Y2323677D01*
X2017519Y2288676D01*
X2052519Y2288676D01*
X2052519Y2323677D01*
X2052519Y2323677D02*
G37*
G36*
X305000Y2325167D02*
X305000Y2285000D01*
X345167Y2285000D01*
X344264Y2291860D01*
X339686Y2302912D01*
X332403Y2312403D01*
X322913Y2319686D01*
X311860Y2324264D01*
X305000Y2325167D01*
X305000Y2325167D02*
G37*
G36*
X115000Y2554147D02*
X107673Y2552690D01*
X101461Y2548539D01*
X97310Y2542327D01*
X95853Y2535000D01*
X97310Y2527673D01*
X101461Y2521461D01*
X107673Y2517310D01*
X115000Y2515853D01*
X122327Y2517310D01*
X128539Y2521461D01*
X130773Y2524804D01*
X281292Y2524804D01*
X283965Y2519804D01*
X282310Y2517327D01*
X280853Y2510000D01*
X282310Y2502673D01*
X286461Y2496461D01*
X292673Y2492310D01*
X300000Y2490853D01*
X307327Y2492310D01*
X313539Y2496461D01*
X317690Y2502673D01*
X319147Y2510000D01*
X317690Y2517327D01*
X316035Y2519804D01*
X318708Y2524804D01*
X491837Y2524804D01*
X493354Y2519804D01*
X491461Y2518539D01*
X487310Y2512327D01*
X485853Y2505000D01*
X487310Y2497673D01*
X491461Y2491461D01*
X497673Y2487310D01*
X505000Y2485853D01*
X512327Y2487310D01*
X518539Y2491461D01*
X520773Y2494804D01*
X570777Y2494804D01*
X664902Y2400678D01*
X664682Y2400391D01*
X660608Y2390555D01*
X659218Y2380000D01*
X660608Y2369445D01*
X664682Y2359609D01*
X664902Y2359322D01*
X647357Y2341776D01*
X645147Y2338469D01*
X644371Y2334567D01*
X644371Y2291045D01*
X639392Y2290555D01*
X635318Y2300391D01*
X628837Y2308837D01*
X620391Y2315318D01*
X610555Y2319392D01*
X600000Y2320782D01*
X589445Y2319392D01*
X579609Y2315318D01*
X571163Y2308837D01*
X564682Y2300391D01*
X560608Y2290555D01*
X559218Y2280000D01*
X560608Y2269445D01*
X564682Y2259609D01*
X571163Y2251163D01*
X579609Y2244682D01*
X589445Y2240608D01*
X600000Y2239218D01*
X610555Y2240608D01*
X620391Y2244682D01*
X628837Y2251163D01*
X635318Y2259609D01*
X639392Y2269445D01*
X644371Y2268955D01*
X644371Y2070401D01*
X645147Y2066499D01*
X647357Y2063191D01*
X815084Y1895465D01*
X815084Y1888980D01*
X815623Y1886269D01*
X817159Y1883970D01*
X817159Y1882219D01*
X815623Y1879920D01*
X815084Y1877209D01*
X815084Y1863390D01*
X815623Y1860679D01*
X816191Y1859830D01*
X814150Y1855147D01*
X813925Y1854906D01*
X742212Y1854906D01*
X738310Y1854129D01*
X735003Y1851919D01*
X-222210Y894707D01*
X-224420Y891399D01*
X-225196Y887497D01*
X-225196Y-2187500D01*
X-224420Y-2191402D01*
X-222210Y-2194710D01*
X38989Y-2455908D01*
X35901Y-2463363D01*
X34698Y-2472500D01*
X35901Y-2481637D01*
X39428Y-2490151D01*
X45038Y-2497462D01*
X52349Y-2503072D01*
X60863Y-2506599D01*
X70000Y-2507802D01*
X79137Y-2506599D01*
X87651Y-2503072D01*
X94962Y-2497462D01*
X100572Y-2490151D01*
X104099Y-2481637D01*
X105302Y-2472500D01*
X104099Y-2463363D01*
X100572Y-2454849D01*
X94962Y-2447538D01*
X87651Y-2441928D01*
X79137Y-2438401D01*
X70000Y-2437198D01*
X60863Y-2438401D01*
X53408Y-2441489D01*
X-204804Y-2183277D01*
X-204804Y-1077915D01*
X-199804Y-1077323D01*
X-198667Y-1082059D01*
X-192437Y-1097099D01*
X-183931Y-1110980D01*
X-173359Y-1123359D01*
X-160980Y-1133931D01*
X-147099Y-1142437D01*
X-132059Y-1148667D01*
X-116229Y-1152467D01*
X-100000Y-1153745D01*
X-83771Y-1152467D01*
X-67941Y-1148667D01*
X-52901Y-1142437D01*
X-39020Y-1133931D01*
X-26641Y-1123359D01*
X-16069Y-1110980D01*
X-7563Y-1097099D01*
X-1333Y-1082059D01*
X2467Y-1066229D01*
X3745Y-1050000D01*
X2467Y-1033771D01*
X-1333Y-1017941D01*
X-2221Y-1015798D01*
X1937Y-1013020D01*
X634804Y-1645887D01*
X634804Y-2647500D01*
X635580Y-2651402D01*
X637790Y-2654710D01*
X1938989Y-3955908D01*
X1935901Y-3963363D01*
X1934698Y-3972500D01*
X1935901Y-3981637D01*
X1939428Y-3990151D01*
X1945038Y-3997462D01*
X1952349Y-4003072D01*
X1960863Y-4006599D01*
X1970000Y-4007802D01*
X1979137Y-4006599D01*
X1987651Y-4003072D01*
X1994962Y-3997462D01*
X2000572Y-3990151D01*
X2004099Y-3981637D01*
X2005302Y-3972500D01*
X2004099Y-3963363D01*
X2000572Y-3954849D01*
X1994962Y-3947538D01*
X1987651Y-3941928D01*
X1979137Y-3938401D01*
X1970000Y-3937198D01*
X1960863Y-3938401D01*
X1953408Y-3941489D01*
X1114709Y-3102790D01*
X1116753Y-3098648D01*
X1117115Y-3098124D01*
X1124327Y-3096690D01*
X1130539Y-3092539D01*
X1134690Y-3086327D01*
X1136147Y-3079000D01*
X1134690Y-3071673D01*
X1130539Y-3065461D01*
X1124327Y-3061310D01*
X1117000Y-3059853D01*
X1109673Y-3061310D01*
X1103461Y-3065461D01*
X1099310Y-3071673D01*
X1097876Y-3078885D01*
X1097352Y-3079247D01*
X1093210Y-3081291D01*
X655196Y-2643277D01*
X655196Y-1641664D01*
X654420Y-1637762D01*
X652210Y-1634454D01*
X-129332Y-852913D01*
X-129332Y-726223D01*
X-126276Y-725186D01*
X-124332Y-724851D01*
X-117413Y-730160D01*
X-109013Y-733639D01*
X-100000Y-734825D01*
X-90987Y-733639D01*
X-82587Y-730160D01*
X-75375Y-724625D01*
X-69840Y-717413D01*
X-66361Y-709014D01*
X-65175Y-700000D01*
X-66361Y-690986D01*
X-69840Y-682587D01*
X-75375Y-675375D01*
X-82587Y-669840D01*
X-90987Y-666361D01*
X-100000Y-665175D01*
X-109013Y-666361D01*
X-117413Y-669840D01*
X-124332Y-675149D01*
X-126276Y-674814D01*
X-129332Y-673777D01*
X-129332Y-633619D01*
X-124332Y-631153D01*
X-119934Y-634527D01*
X-110319Y-638510D01*
X-105000Y-639210D01*
X-105000Y-600000D01*
X-105000Y-560790D01*
X-110319Y-561490D01*
X-119934Y-565473D01*
X-124332Y-568847D01*
X-129332Y-566381D01*
X-129332Y-533619D01*
X-124332Y-531153D01*
X-119934Y-534527D01*
X-110319Y-538510D01*
X-105000Y-539210D01*
X-105000Y-500000D01*
X-105000Y-460790D01*
X-110319Y-461490D01*
X-119934Y-465473D01*
X-124332Y-468847D01*
X-129332Y-466381D01*
X-129332Y-433619D01*
X-124332Y-431153D01*
X-119934Y-434527D01*
X-110319Y-438510D01*
X-105000Y-439210D01*
X-105000Y-400000D01*
X-105000Y-360790D01*
X-110319Y-361490D01*
X-119934Y-365473D01*
X-124332Y-368847D01*
X-129332Y-366381D01*
X-129332Y-333619D01*
X-124332Y-331153D01*
X-119934Y-334527D01*
X-110319Y-338510D01*
X-105000Y-339210D01*
X-105000Y-300000D01*
X-105000Y-260790D01*
X-110319Y-261490D01*
X-119934Y-265473D01*
X-124332Y-268847D01*
X-129332Y-266381D01*
X-129332Y-233619D01*
X-124332Y-231153D01*
X-119934Y-234527D01*
X-110319Y-238510D01*
X-105000Y-239210D01*
X-105000Y-200000D01*
X-105000Y-160790D01*
X-110319Y-161490D01*
X-119934Y-165473D01*
X-124332Y-168847D01*
X-129332Y-166381D01*
X-129332Y-126223D01*
X-126276Y-125186D01*
X-124332Y-124851D01*
X-117413Y-130160D01*
X-109013Y-133639D01*
X-100000Y-134825D01*
X-90987Y-133639D01*
X-82587Y-130160D01*
X-75375Y-124625D01*
X-69840Y-117413D01*
X-66361Y-109013D01*
X-65175Y-100000D01*
X-66361Y-90987D01*
X-69840Y-82587D01*
X-75375Y-75375D01*
X-82587Y-69840D01*
X-90987Y-66361D01*
X-100000Y-65175D01*
X-109013Y-66361D01*
X-117413Y-69840D01*
X-124332Y-75149D01*
X-126276Y-74814D01*
X-129332Y-73777D01*
X-129332Y-43751D01*
X-116230Y-30649D01*
X-109013Y-33639D01*
X-100000Y-34825D01*
X-90987Y-33639D01*
X-82587Y-30160D01*
X-75375Y-24625D01*
X-69840Y-17413D01*
X-66361Y-9014D01*
X-65175Y0D01*
X-66361Y9014D01*
X-69840Y17413D01*
X-75375Y24625D01*
X-82587Y30160D01*
X-90987Y33639D01*
X-100000Y34825D01*
X-109013Y33639D01*
X-117413Y30160D01*
X-124625Y24625D01*
X-130160Y17413D01*
X-133639Y9014D01*
X-134825Y0D01*
X-133639Y-9014D01*
X-130649Y-16230D01*
X-146737Y-32318D01*
X-148947Y-35626D01*
X-149724Y-39528D01*
X-149724Y-857136D01*
X-148947Y-861038D01*
X-146737Y-864346D01*
X-63020Y-948063D01*
X-65798Y-952221D01*
X-67941Y-951333D01*
X-83771Y-947533D01*
X-100000Y-946255D01*
X-116229Y-947533D01*
X-132059Y-951333D01*
X-147099Y-957563D01*
X-160980Y-966069D01*
X-173359Y-976641D01*
X-183931Y-989020D01*
X-192437Y-1002901D01*
X-198667Y-1017941D01*
X-199804Y-1022677D01*
X-204804Y-1022085D01*
X-204804Y883274D01*
X704972Y1793050D01*
X710003Y1791010D01*
X710772Y1785168D01*
X713795Y1777871D01*
X718604Y1771604D01*
X724870Y1766795D01*
X732168Y1763772D01*
X740000Y1762741D01*
X747832Y1763772D01*
X755130Y1766795D01*
X761396Y1771604D01*
X766205Y1777871D01*
X769228Y1785168D01*
X770259Y1793000D01*
X769228Y1800832D01*
X768453Y1802701D01*
X774674Y1808922D01*
X813925Y1808922D01*
X814150Y1808680D01*
X816191Y1803997D01*
X815623Y1803148D01*
X815084Y1800437D01*
X815084Y1798349D01*
X812883Y1796879D01*
X742790Y1726786D01*
X740580Y1723478D01*
X739804Y1719576D01*
X739804Y1718249D01*
X734870Y1716205D01*
X728604Y1711396D01*
X723795Y1705129D01*
X720772Y1697832D01*
X719741Y1690000D01*
X720772Y1682168D01*
X723795Y1674871D01*
X728604Y1668604D01*
X734870Y1663795D01*
X742168Y1660772D01*
X750000Y1659741D01*
X757832Y1660772D01*
X765130Y1663795D01*
X771396Y1668604D01*
X776205Y1674871D01*
X779228Y1682168D01*
X780259Y1690000D01*
X779228Y1697832D01*
X776205Y1705129D01*
X771396Y1711396D01*
X766821Y1714907D01*
X765682Y1720839D01*
X810464Y1765622D01*
X815084Y1763708D01*
X815084Y1761028D01*
X815623Y1758317D01*
X817159Y1756018D01*
X817159Y1754265D01*
X815623Y1751966D01*
X815084Y1749255D01*
X815084Y1735436D01*
X815623Y1732725D01*
X817159Y1730426D01*
X819457Y1728891D01*
X822169Y1728351D01*
X873389Y1728351D01*
X876100Y1728891D01*
X878399Y1730426D01*
X879935Y1732725D01*
X880474Y1735436D01*
X880474Y1749255D01*
X879935Y1751966D01*
X878399Y1754265D01*
X878399Y1756018D01*
X879935Y1758317D01*
X880474Y1761028D01*
X880474Y1763116D01*
X882674Y1764586D01*
X892548Y1774459D01*
X894758Y1777767D01*
X895534Y1781669D01*
X895534Y2094662D01*
X894758Y2098564D01*
X892548Y2101872D01*
X735098Y2259322D01*
X735318Y2259609D01*
X739392Y2269445D01*
X740782Y2280000D01*
X739392Y2290555D01*
X735318Y2300391D01*
X728837Y2308837D01*
X720391Y2315318D01*
X710555Y2319392D01*
X700000Y2320782D01*
X689445Y2319392D01*
X679609Y2315318D01*
X671163Y2308837D01*
X669497Y2306667D01*
X664763Y2308274D01*
X664763Y2330344D01*
X679322Y2344902D01*
X679609Y2344682D01*
X689445Y2340608D01*
X700000Y2339218D01*
X710555Y2340608D01*
X720391Y2344682D01*
X728837Y2351163D01*
X735318Y2359609D01*
X739392Y2369445D01*
X740782Y2380000D01*
X739392Y2390555D01*
X735318Y2400391D01*
X728837Y2408837D01*
X720391Y2415318D01*
X710555Y2419392D01*
X700000Y2420782D01*
X689445Y2419392D01*
X679609Y2415318D01*
X679322Y2415098D01*
X582210Y2512210D01*
X578902Y2514420D01*
X575000Y2515196D01*
X520773Y2515196D01*
X518539Y2518539D01*
X516646Y2519804D01*
X518163Y2524804D01*
X640777Y2524804D01*
X764902Y2400678D01*
X764682Y2400391D01*
X760608Y2390555D01*
X759218Y2380000D01*
X760608Y2369445D01*
X764682Y2359609D01*
X771163Y2351163D01*
X779609Y2344682D01*
X789445Y2340608D01*
X800000Y2339218D01*
X810555Y2340608D01*
X820391Y2344682D01*
X820678Y2344902D01*
X844371Y2321210D01*
X844371Y2291045D01*
X839392Y2290555D01*
X835318Y2300391D01*
X828837Y2308837D01*
X820391Y2315318D01*
X810555Y2319392D01*
X800000Y2320782D01*
X789445Y2319392D01*
X779609Y2315318D01*
X771163Y2308837D01*
X764682Y2300391D01*
X760608Y2290555D01*
X759218Y2280000D01*
X760608Y2269445D01*
X764682Y2259609D01*
X771163Y2251163D01*
X779609Y2244682D01*
X789445Y2240608D01*
X800000Y2239218D01*
X810555Y2240608D01*
X820391Y2244682D01*
X820678Y2244902D01*
X1049257Y2016324D01*
X1049257Y1907530D01*
X1047907Y1905510D01*
X1047368Y1902799D01*
X1047368Y1888980D01*
X1047907Y1886269D01*
X1049443Y1883970D01*
X1049443Y1882219D01*
X1047907Y1879920D01*
X1047368Y1877209D01*
X1047368Y1863390D01*
X1047907Y1860679D01*
X1048475Y1859830D01*
X1046434Y1855147D01*
X1046209Y1854906D01*
X1024514Y1854906D01*
X1017184Y1862235D01*
X1019228Y1867168D01*
X1020259Y1875000D01*
X1019228Y1882832D01*
X1016205Y1890129D01*
X1011396Y1896396D01*
X1005130Y1901205D01*
X997832Y1904228D01*
X990000Y1905259D01*
X982168Y1904228D01*
X974870Y1901205D01*
X968604Y1896396D01*
X963795Y1890129D01*
X960772Y1882832D01*
X959741Y1875000D01*
X960772Y1867168D01*
X963795Y1859871D01*
X968604Y1853604D01*
X974870Y1848795D01*
X982168Y1845772D01*
X990000Y1844741D01*
X997832Y1845772D01*
X1002765Y1847816D01*
X1013081Y1837500D01*
X1016389Y1835290D01*
X1020290Y1834514D01*
X1040197Y1834514D01*
X1042963Y1829514D01*
X1042270Y1826027D01*
X1042270Y1824118D01*
X1080063Y1824118D01*
X1080063Y1814118D01*
X1042270Y1814118D01*
X1042270Y1812208D01*
X1042319Y1811960D01*
X1038216Y1806960D01*
X1024343Y1806960D01*
X1024228Y1807832D01*
X1021205Y1815129D01*
X1016396Y1821396D01*
X1010130Y1826205D01*
X1002832Y1829228D01*
X995000Y1830259D01*
X987168Y1829228D01*
X979870Y1826205D01*
X973604Y1821396D01*
X968795Y1815129D01*
X965772Y1807832D01*
X964741Y1800000D01*
X965772Y1792168D01*
X968795Y1784871D01*
X973604Y1778604D01*
X979870Y1773795D01*
X987168Y1770772D01*
X995000Y1769741D01*
X1002832Y1770772D01*
X1010130Y1773795D01*
X1016396Y1778604D01*
X1021205Y1784871D01*
X1021908Y1786568D01*
X1047378Y1786568D01*
X1047907Y1783907D01*
X1049443Y1781609D01*
X1049443Y1779857D01*
X1047907Y1777558D01*
X1047368Y1774847D01*
X1047368Y1761028D01*
X1047907Y1758317D01*
X1049443Y1756018D01*
X1049443Y1754265D01*
X1047907Y1751966D01*
X1047368Y1749255D01*
X1047368Y1735436D01*
X1047907Y1732725D01*
X1049443Y1730426D01*
X1051741Y1728891D01*
X1054453Y1728351D01*
X1105673Y1728351D01*
X1108384Y1728891D01*
X1110683Y1730426D01*
X1112219Y1732725D01*
X1112758Y1735436D01*
X1112758Y1749255D01*
X1112219Y1751966D01*
X1110683Y1754265D01*
X1110683Y1756018D01*
X1112219Y1758317D01*
X1112758Y1761028D01*
X1112758Y1763116D01*
X1114958Y1764586D01*
X1117807Y1767434D01*
X1122426Y1765521D01*
X1122426Y1067378D01*
X1123202Y1063476D01*
X1125412Y1060168D01*
X1882318Y303263D01*
X1885626Y301053D01*
X1889528Y300276D01*
X2191205Y300276D01*
X2202198Y289283D01*
X2200771Y286389D01*
X2199633Y284777D01*
X2190986Y283639D01*
X2182587Y280160D01*
X2175375Y274625D01*
X2169840Y267413D01*
X2166361Y259014D01*
X2165175Y250000D01*
X2166361Y240987D01*
X2169840Y232587D01*
X2175375Y225375D01*
X2182587Y219840D01*
X2190986Y216361D01*
X2200000Y215175D01*
X2209014Y216361D01*
X2217413Y219840D01*
X2224625Y225375D01*
X2230160Y232587D01*
X2233639Y240987D01*
X2234304Y246040D01*
X2239304Y245712D01*
X2239304Y154288D01*
X2234304Y153960D01*
X2233639Y159013D01*
X2230160Y167413D01*
X2224625Y174625D01*
X2217413Y180160D01*
X2209014Y183639D01*
X2200000Y184825D01*
X2190986Y183639D01*
X2182587Y180160D01*
X2175375Y174625D01*
X2169840Y167413D01*
X2166851Y160196D01*
X1247586Y160196D01*
X911045Y496737D01*
X907737Y498947D01*
X903835Y499724D01*
X-35304Y499724D01*
X-69350Y533770D01*
X-66361Y540986D01*
X-65175Y550000D01*
X-66361Y559014D01*
X-69840Y567413D01*
X-75375Y574625D01*
X-82587Y580160D01*
X-90987Y583639D01*
X-100000Y584825D01*
X-109013Y583639D01*
X-117413Y580160D01*
X-124625Y574625D01*
X-130160Y567413D01*
X-133639Y559014D01*
X-134825Y550000D01*
X-133639Y540986D01*
X-130160Y532587D01*
X-124625Y525375D01*
X-117413Y519840D01*
X-109013Y516361D01*
X-100000Y515175D01*
X-90987Y516361D01*
X-83770Y519351D01*
X-46737Y482318D01*
X-43429Y480108D01*
X-39528Y479332D01*
X-26223Y479332D01*
X-25186Y476276D01*
X-24851Y474332D01*
X-30160Y467413D01*
X-33639Y459014D01*
X-34825Y450000D01*
X-33639Y440986D01*
X-30160Y432587D01*
X-24625Y425375D01*
X-17413Y419840D01*
X-9014Y416361D01*
X0Y415175D01*
X9014Y416361D01*
X17413Y419840D01*
X24625Y425375D01*
X30160Y432587D01*
X33639Y440986D01*
X34825Y450000D01*
X33639Y459014D01*
X30160Y467413D01*
X24851Y474332D01*
X25186Y476276D01*
X26223Y479332D01*
X899612Y479332D01*
X1236153Y142790D01*
X1239461Y140580D01*
X1243363Y139804D01*
X2166851Y139804D01*
X2169840Y132587D01*
X2175375Y125375D01*
X2182587Y119840D01*
X2190986Y116361D01*
X2200000Y115175D01*
X2209014Y116361D01*
X2217413Y119840D01*
X2224625Y125375D01*
X2230160Y132587D01*
X2233639Y140987D01*
X2234304Y146040D01*
X2239304Y145712D01*
X2239304Y-327375D01*
X2234831Y-329803D01*
X2234304Y-329775D01*
X2228191Y-321809D01*
X2219934Y-315473D01*
X2210319Y-311490D01*
X2205000Y-310790D01*
X2205000Y-350000D01*
X2205000Y-389210D01*
X2210319Y-388510D01*
X2219934Y-384527D01*
X2228191Y-378191D01*
X2234304Y-370225D01*
X2234831Y-370197D01*
X2239304Y-372625D01*
X2239304Y-445712D01*
X2234304Y-446040D01*
X2233639Y-440986D01*
X2230160Y-432587D01*
X2224625Y-425375D01*
X2217413Y-419840D01*
X2209014Y-416361D01*
X2200000Y-415175D01*
X2190986Y-416361D01*
X2183770Y-419351D01*
X1682210Y82210D01*
X1678902Y84420D01*
X1675000Y85196D01*
X318249Y85196D01*
X316205Y90129D01*
X311396Y96396D01*
X305130Y101205D01*
X297832Y104228D01*
X290000Y105259D01*
X282168Y104228D01*
X274870Y101205D01*
X268604Y96396D01*
X263795Y90129D01*
X260772Y82832D01*
X259741Y75000D01*
X260772Y67168D01*
X263795Y59871D01*
X268604Y53604D01*
X274870Y48795D01*
X282168Y45772D01*
X290000Y44741D01*
X297832Y45772D01*
X305130Y48795D01*
X311396Y53604D01*
X316205Y59871D01*
X318249Y64804D01*
X1670777Y64804D01*
X2169351Y-433770D01*
X2166361Y-440986D01*
X2165175Y-450000D01*
X2166361Y-459014D01*
X2169840Y-467413D01*
X2175375Y-474625D01*
X2182587Y-480160D01*
X2190986Y-483639D01*
X2200000Y-484825D01*
X2209014Y-483639D01*
X2217413Y-480160D01*
X2224625Y-474625D01*
X2230160Y-467413D01*
X2233639Y-459014D01*
X2234304Y-453960D01*
X2239304Y-454288D01*
X2239304Y-545712D01*
X2234304Y-546040D01*
X2233639Y-540986D01*
X2230160Y-532587D01*
X2224625Y-525375D01*
X2217413Y-519840D01*
X2209014Y-516361D01*
X2200000Y-515175D01*
X2190986Y-516361D01*
X2183770Y-519351D01*
X1682210Y-17790D01*
X1678902Y-15580D01*
X1675000Y-14804D01*
X403249Y-14804D01*
X401205Y-9871D01*
X396396Y-3604D01*
X390130Y1205D01*
X382832Y4228D01*
X375000Y5259D01*
X367168Y4228D01*
X359870Y1205D01*
X353604Y-3604D01*
X348795Y-9871D01*
X345772Y-17168D01*
X344741Y-25000D01*
X345772Y-32832D01*
X348795Y-40129D01*
X353604Y-46396D01*
X359870Y-51205D01*
X367168Y-54228D01*
X375000Y-55259D01*
X382832Y-54228D01*
X390130Y-51205D01*
X396396Y-46396D01*
X401205Y-40129D01*
X403249Y-35196D01*
X1670777Y-35196D01*
X2169351Y-533770D01*
X2166361Y-540986D01*
X2165175Y-550000D01*
X2166361Y-559014D01*
X2169840Y-567413D01*
X2175375Y-574625D01*
X2182587Y-580160D01*
X2190986Y-583639D01*
X2200000Y-584825D01*
X2209014Y-583639D01*
X2217413Y-580160D01*
X2224625Y-574625D01*
X2230160Y-567413D01*
X2233639Y-559014D01*
X2234304Y-553960D01*
X2239304Y-554288D01*
X2239304Y-645712D01*
X2234304Y-646040D01*
X2233639Y-640986D01*
X2230160Y-632587D01*
X2224625Y-625375D01*
X2217413Y-619840D01*
X2209014Y-616361D01*
X2200000Y-615175D01*
X2190986Y-616361D01*
X2182587Y-619840D01*
X2175375Y-625375D01*
X2169840Y-632587D01*
X2166361Y-640986D01*
X2165175Y-650000D01*
X2166361Y-659014D01*
X2169840Y-667413D01*
X2175375Y-674625D01*
X2182587Y-680160D01*
X2190986Y-683639D01*
X2200000Y-684825D01*
X2209014Y-683639D01*
X2217413Y-680160D01*
X2224625Y-674625D01*
X2230160Y-667413D01*
X2233639Y-659014D01*
X2234304Y-653960D01*
X2239304Y-654288D01*
X2239304Y-745712D01*
X2234304Y-746040D01*
X2233639Y-740986D01*
X2230160Y-732587D01*
X2224625Y-725375D01*
X2217413Y-719840D01*
X2209014Y-716361D01*
X2200000Y-715175D01*
X2190986Y-716361D01*
X2182587Y-719840D01*
X2175375Y-725375D01*
X2169840Y-732587D01*
X2166361Y-740986D01*
X2165175Y-750000D01*
X2166361Y-759014D01*
X2169840Y-767413D01*
X2175375Y-774625D01*
X2182587Y-780160D01*
X2190986Y-783639D01*
X2200000Y-784825D01*
X2209014Y-783639D01*
X2217413Y-780160D01*
X2221842Y-776761D01*
X2232831Y-787750D01*
X2186078Y-834503D01*
X2186078Y-834503D01*
X2134365Y-886216D01*
X2132155Y-889523D01*
X2131379Y-893425D01*
X2131379Y-3153270D01*
X2109763Y-3174886D01*
X2106749Y-3173399D01*
X2105276Y-3172302D01*
X2104099Y-3163363D01*
X2100572Y-3154849D01*
X2094962Y-3147538D01*
X2087651Y-3141928D01*
X2079137Y-3138401D01*
X2070000Y-3137198D01*
X2060863Y-3138401D01*
X2052349Y-3141928D01*
X2045038Y-3147538D01*
X2039428Y-3154849D01*
X2035901Y-3163363D01*
X2034698Y-3172500D01*
X2035901Y-3181637D01*
X2039428Y-3190151D01*
X2044916Y-3197304D01*
X2044650Y-3199121D01*
X2043570Y-3202304D01*
X2030000Y-3202304D01*
X2026098Y-3203080D01*
X2022790Y-3205290D01*
X1986592Y-3241489D01*
X1979137Y-3238401D01*
X1970000Y-3237198D01*
X1960863Y-3238401D01*
X1952349Y-3241928D01*
X1945038Y-3247538D01*
X1939428Y-3254849D01*
X1935901Y-3263363D01*
X1934698Y-3272500D01*
X1935901Y-3281637D01*
X1939428Y-3290151D01*
X1945038Y-3297462D01*
X1952349Y-3303072D01*
X1960863Y-3306599D01*
X1970000Y-3307802D01*
X1979137Y-3306599D01*
X1987651Y-3303072D01*
X1994962Y-3297462D01*
X2000572Y-3290151D01*
X2004099Y-3281637D01*
X2005302Y-3272500D01*
X2004099Y-3263363D01*
X2001011Y-3255908D01*
X2034223Y-3222696D01*
X2086568Y-3222696D01*
X2090470Y-3221920D01*
X2093778Y-3219710D01*
X2148784Y-3164703D01*
X2150995Y-3161396D01*
X2151771Y-3157494D01*
X2151771Y-1095931D01*
X2156675Y-1094956D01*
X2157562Y-1097099D01*
X2166068Y-1110980D01*
X2176641Y-1123359D01*
X2189020Y-1133931D01*
X2202901Y-1142438D01*
X2217941Y-1148667D01*
X2233771Y-1152468D01*
X2250000Y-1153745D01*
X2266229Y-1152468D01*
X2282059Y-1148667D01*
X2297099Y-1142438D01*
X2310980Y-1133931D01*
X2323359Y-1123359D01*
X2333932Y-1110980D01*
X2342438Y-1097099D01*
X2348667Y-1082059D01*
X2352468Y-1066229D01*
X2353745Y-1050000D01*
X2352468Y-1033771D01*
X2348667Y-1017941D01*
X2342438Y-1002901D01*
X2333932Y-989020D01*
X2323359Y-976641D01*
X2310980Y-966068D01*
X2297099Y-957562D01*
X2282059Y-951333D01*
X2266229Y-947532D01*
X2250000Y-946255D01*
X2233771Y-947532D01*
X2217941Y-951333D01*
X2202901Y-957562D01*
X2189020Y-966068D01*
X2176641Y-976641D01*
X2166068Y-989020D01*
X2157562Y-1002901D01*
X2156675Y-1005044D01*
X2151771Y-1004069D01*
X2151771Y-897649D01*
X2200497Y-848922D01*
X2200497Y-848922D01*
X2249269Y-800150D01*
X2249500Y-800196D01*
X2253402Y-799420D01*
X2256710Y-797210D01*
X2258920Y-793902D01*
X2259696Y-790000D01*
X2259696Y130947D01*
X2264696Y131941D01*
X2265473Y130066D01*
X2271809Y121809D01*
X2280066Y115473D01*
X2289681Y111490D01*
X2295000Y110790D01*
X2295000Y150000D01*
X2295000Y189210D01*
X2289681Y188510D01*
X2280066Y184527D01*
X2271809Y178191D01*
X2265473Y169934D01*
X2264696Y168059D01*
X2259696Y169053D01*
X2259696Y230947D01*
X2264696Y231941D01*
X2265473Y230066D01*
X2271809Y221809D01*
X2280066Y215473D01*
X2289681Y211490D01*
X2295000Y210790D01*
X2295000Y250000D01*
X2295000Y289210D01*
X2289681Y288510D01*
X2280066Y284527D01*
X2271809Y278191D01*
X2265473Y269934D01*
X2262803Y263490D01*
X2257161Y262934D01*
X2256710Y263610D01*
X2208578Y311742D01*
X2210439Y316952D01*
X2217413Y319840D01*
X2224625Y325375D01*
X2230160Y332587D01*
X2233639Y340986D01*
X2234825Y350000D01*
X2233639Y359014D01*
X2230160Y367413D01*
X2224625Y374625D01*
X2217413Y380160D01*
X2209014Y383639D01*
X2200000Y384825D01*
X2190986Y383639D01*
X2182587Y380160D01*
X2175375Y374625D01*
X2169840Y367413D01*
X2166361Y359014D01*
X2165175Y350000D01*
X2166361Y340986D01*
X2169840Y332587D01*
X2175149Y325668D01*
X2174814Y323724D01*
X2173777Y320668D01*
X1893751Y320668D01*
X1142818Y1071601D01*
X1142818Y1142121D01*
X1145894Y1143616D01*
X1147818Y1143867D01*
X1788422Y503263D01*
X1791730Y501053D01*
X1795632Y500276D01*
X2291205Y500276D01*
X2296968Y494513D01*
X2295177Y489234D01*
X2289681Y488510D01*
X2280066Y484527D01*
X2271809Y478191D01*
X2265473Y469934D01*
X2261490Y460319D01*
X2260790Y455000D01*
X2300000Y455000D01*
X2300000Y450000D01*
X2305000Y450000D01*
X2305000Y410790D01*
X2310319Y411490D01*
X2319934Y415473D01*
X2328191Y421809D01*
X2334527Y430066D01*
X2338510Y439681D01*
X2339234Y445176D01*
X2344513Y446969D01*
X2359804Y431677D01*
X2359804Y-146348D01*
X2354804Y-148045D01*
X2351396Y-143604D01*
X2345130Y-138795D01*
X2337832Y-135772D01*
X2330000Y-134741D01*
X2322168Y-135772D01*
X2314870Y-138795D01*
X2308604Y-143604D01*
X2303795Y-149871D01*
X2300772Y-157168D01*
X2299741Y-165000D01*
X2300772Y-172832D01*
X2303795Y-180129D01*
X2308604Y-186396D01*
X2314870Y-191205D01*
X2322168Y-194228D01*
X2330000Y-195259D01*
X2337832Y-194228D01*
X2345130Y-191205D01*
X2351396Y-186396D01*
X2354804Y-181955D01*
X2359804Y-183652D01*
X2359804Y-2968277D01*
X2086592Y-3241489D01*
X2079137Y-3238401D01*
X2070000Y-3237198D01*
X2060863Y-3238401D01*
X2052349Y-3241928D01*
X2045038Y-3247538D01*
X2039428Y-3254849D01*
X2035901Y-3263363D01*
X2034698Y-3272500D01*
X2035901Y-3281637D01*
X2039428Y-3290151D01*
X2045038Y-3297462D01*
X2052349Y-3303072D01*
X2060863Y-3306599D01*
X2070000Y-3307802D01*
X2079137Y-3306599D01*
X2087651Y-3303072D01*
X2094962Y-3297462D01*
X2100572Y-3290151D01*
X2104099Y-3281637D01*
X2105302Y-3272500D01*
X2104099Y-3263363D01*
X2101011Y-3255908D01*
X2377210Y-2979710D01*
X2379420Y-2976402D01*
X2380196Y-2972500D01*
X2380196Y-165000D01*
X2380196Y435900D01*
X2379420Y439802D01*
X2377210Y443110D01*
X2313093Y507227D01*
X2314266Y513125D01*
X2319934Y515473D01*
X2328191Y521809D01*
X2334527Y530066D01*
X2338510Y539681D01*
X2339210Y545000D01*
X2260790Y545000D01*
X2261490Y539681D01*
X2265473Y530066D01*
X2268847Y525668D01*
X2266381Y520668D01*
X2226223Y520668D01*
X2225186Y523724D01*
X2224851Y525668D01*
X2230160Y532587D01*
X2233639Y540986D01*
X2234825Y550000D01*
X2233639Y559014D01*
X2230160Y567413D01*
X2224625Y574625D01*
X2217413Y580160D01*
X2209014Y583639D01*
X2200000Y584825D01*
X2190986Y583639D01*
X2182587Y580160D01*
X2175375Y574625D01*
X2169840Y567413D01*
X2166361Y559014D01*
X2165175Y550000D01*
X2166361Y540986D01*
X2169840Y532587D01*
X2175149Y525668D01*
X2174814Y523724D01*
X2173777Y520668D01*
X1799855Y520668D01*
X1682778Y637746D01*
X1685113Y642481D01*
X1694197Y641285D01*
X1708555Y643176D01*
X1721934Y648718D01*
X1733423Y657534D01*
X1742239Y669023D01*
X1747781Y682402D01*
X1749671Y696760D01*
X1747781Y711118D01*
X1742239Y724497D01*
X1733423Y735986D01*
X1721934Y744802D01*
X1708555Y750344D01*
X1694197Y752235D01*
X1679839Y750344D01*
X1666459Y744802D01*
X1654970Y735986D01*
X1646154Y724497D01*
X1640612Y711118D01*
X1638722Y696760D01*
X1639918Y687676D01*
X1635182Y685341D01*
X1164763Y1155760D01*
X1164763Y2251726D01*
X1169497Y2253333D01*
X1171163Y2251163D01*
X1179609Y2244682D01*
X1189445Y2240608D01*
X1200000Y2239218D01*
X1210555Y2240608D01*
X1220391Y2244682D01*
X1228837Y2251163D01*
X1235318Y2259609D01*
X1239392Y2269445D01*
X1240782Y2280000D01*
X1239392Y2290555D01*
X1235318Y2300391D01*
X1228837Y2308837D01*
X1220391Y2315318D01*
X1210555Y2319392D01*
X1200000Y2320782D01*
X1189445Y2319392D01*
X1179609Y2315318D01*
X1171163Y2308837D01*
X1169497Y2306667D01*
X1164763Y2308274D01*
X1164763Y2325433D01*
X1163987Y2329335D01*
X1161776Y2332643D01*
X1135098Y2359322D01*
X1135318Y2359609D01*
X1139392Y2369445D01*
X1140782Y2380000D01*
X1139392Y2390555D01*
X1135318Y2400391D01*
X1128837Y2408837D01*
X1120391Y2415318D01*
X1110555Y2419392D01*
X1100000Y2420782D01*
X1089445Y2419392D01*
X1079609Y2415318D01*
X1071163Y2408837D01*
X1064682Y2400391D01*
X1060608Y2390555D01*
X1059218Y2380000D01*
X1060608Y2369445D01*
X1064682Y2359609D01*
X1071163Y2351163D01*
X1079609Y2344682D01*
X1089445Y2340608D01*
X1100000Y2339218D01*
X1110555Y2340608D01*
X1120391Y2344682D01*
X1120678Y2344902D01*
X1144371Y2321210D01*
X1144371Y2291045D01*
X1139392Y2290555D01*
X1135318Y2300391D01*
X1128837Y2308837D01*
X1120391Y2315318D01*
X1110555Y2319392D01*
X1100000Y2320782D01*
X1089445Y2319392D01*
X1079609Y2315318D01*
X1071163Y2308837D01*
X1064682Y2300391D01*
X1060608Y2290555D01*
X1059218Y2280000D01*
X1060608Y2269445D01*
X1064682Y2259609D01*
X1071163Y2251163D01*
X1079609Y2244682D01*
X1089445Y2240608D01*
X1100000Y2239218D01*
X1110555Y2240608D01*
X1120391Y2244682D01*
X1128837Y2251163D01*
X1135318Y2259609D01*
X1139392Y2269445D01*
X1144371Y2268955D01*
X1144371Y2156794D01*
X1141295Y2155299D01*
X1139371Y2155048D01*
X1035098Y2259322D01*
X1035318Y2259609D01*
X1039392Y2269445D01*
X1040782Y2280000D01*
X1039392Y2290555D01*
X1035318Y2300391D01*
X1028837Y2308837D01*
X1020391Y2315318D01*
X1010555Y2319392D01*
X1000000Y2320782D01*
X989445Y2319392D01*
X979609Y2315318D01*
X971163Y2308837D01*
X964682Y2300391D01*
X960608Y2290555D01*
X959218Y2280000D01*
X960608Y2269445D01*
X964682Y2259609D01*
X971163Y2251163D01*
X979609Y2244682D01*
X989445Y2240608D01*
X1000000Y2239218D01*
X1010555Y2240608D01*
X1020391Y2244682D01*
X1020678Y2244902D01*
X1122426Y2143155D01*
X1122426Y1999739D01*
X1117807Y1997826D01*
X869483Y2246149D01*
X872787Y2249917D01*
X879609Y2244682D01*
X889445Y2240608D01*
X900000Y2239218D01*
X910555Y2240608D01*
X920391Y2244682D01*
X928837Y2251163D01*
X935318Y2259609D01*
X939392Y2269445D01*
X940782Y2280000D01*
X939392Y2290555D01*
X935318Y2300391D01*
X928837Y2308837D01*
X920391Y2315318D01*
X910555Y2319392D01*
X900000Y2320782D01*
X889445Y2319392D01*
X879609Y2315318D01*
X871163Y2308837D01*
X869497Y2306667D01*
X864763Y2308274D01*
X864763Y2325433D01*
X863987Y2329335D01*
X861777Y2332643D01*
X835098Y2359322D01*
X835318Y2359609D01*
X839392Y2369445D01*
X840782Y2380000D01*
X839392Y2390555D01*
X835318Y2400391D01*
X828837Y2408837D01*
X820391Y2415318D01*
X810555Y2419392D01*
X800000Y2420782D01*
X789445Y2419392D01*
X779609Y2415318D01*
X779322Y2415098D01*
X652210Y2542210D01*
X648902Y2544420D01*
X645000Y2545196D01*
X130773Y2545196D01*
X128539Y2548539D01*
X122327Y2552690D01*
X115000Y2554147D01*
X115000Y2554147D02*
G37*
G36*
X2097519Y2323677D02*
X2062519Y2323677D01*
X2062519Y2288676D01*
X2097519Y2288676D01*
X2097519Y2323677D01*
X2097519Y2323677D02*
G37*
G36*
X495000Y2325167D02*
X488140Y2324264D01*
X477087Y2319686D01*
X467597Y2312403D01*
X460314Y2302912D01*
X455736Y2291860D01*
X454833Y2285000D01*
X495000Y2285000D01*
X495000Y2325167D01*
X495000Y2325167D02*
G37*
G36*
X1400000Y2320782D02*
X1389445Y2319392D01*
X1379609Y2315318D01*
X1371163Y2308837D01*
X1364682Y2300391D01*
X1360608Y2290555D01*
X1359218Y2280000D01*
X1360608Y2269445D01*
X1364682Y2259609D01*
X1371163Y2251163D01*
X1379609Y2244682D01*
X1389445Y2240608D01*
X1400000Y2239218D01*
X1410555Y2240608D01*
X1420391Y2244682D01*
X1428837Y2251163D01*
X1435318Y2259609D01*
X1439392Y2269445D01*
X1440782Y2280000D01*
X1439392Y2290555D01*
X1435318Y2300391D01*
X1428837Y2308837D01*
X1420391Y2315318D01*
X1410555Y2319392D01*
X1400000Y2320782D01*
X1400000Y2320782D02*
G37*
G36*
X505000Y2325167D02*
X505000Y2285000D01*
X545167Y2285000D01*
X544264Y2291860D01*
X539686Y2302912D01*
X532403Y2312403D01*
X522913Y2319686D01*
X511860Y2324264D01*
X505000Y2325167D01*
X505000Y2325167D02*
G37*
G36*
X295000Y2325167D02*
X288140Y2324264D01*
X277087Y2319686D01*
X267597Y2312403D01*
X260314Y2302912D01*
X255736Y2291860D01*
X254833Y2285000D01*
X295000Y2285000D01*
X295000Y2325167D01*
X295000Y2325167D02*
G37*
G36*
X295000Y2375000D02*
X254833Y2375000D01*
X255736Y2368140D01*
X260314Y2357088D01*
X267597Y2347597D01*
X277087Y2340314D01*
X288140Y2335736D01*
X295000Y2334833D01*
X295000Y2375000D01*
X295000Y2375000D02*
G37*
G36*
X2097519Y2368676D02*
X2062519Y2368676D01*
X2062519Y2333677D01*
X2097519Y2333677D01*
X2097519Y2368676D01*
X2097519Y2368676D02*
G37*
G36*
X345167Y2375000D02*
X305000Y2375000D01*
X305000Y2334833D01*
X311860Y2335736D01*
X322913Y2340314D01*
X332403Y2347597D01*
X339686Y2357088D01*
X344264Y2368140D01*
X345167Y2375000D01*
X345167Y2375000D02*
G37*
G36*
X495000Y2375000D02*
X454833Y2375000D01*
X455736Y2368140D01*
X460314Y2357088D01*
X467597Y2347597D01*
X477087Y2340314D01*
X488140Y2335736D01*
X495000Y2334833D01*
X495000Y2375000D01*
X495000Y2375000D02*
G37*
G36*
X1992519Y2363676D02*
X1922519Y2363676D01*
X1922519Y2293676D01*
X1992519Y2293676D01*
X1992519Y2363676D01*
X1992519Y2363676D02*
G37*
G36*
X1792519Y2363676D02*
X1722519Y2363676D01*
X1722519Y2293676D01*
X1792519Y2293676D01*
X1792519Y2363676D01*
X1792519Y2363676D02*
G37*
G36*
X2052519Y2368676D02*
X2017519Y2368676D01*
X2017519Y2333677D01*
X2052519Y2333677D01*
X2052519Y2368676D01*
X2052519Y2368676D02*
G37*
G36*
X2192519Y2363676D02*
X2122519Y2363676D01*
X2122519Y2293676D01*
X2192519Y2293676D01*
X2192519Y2363676D01*
X2192519Y2363676D02*
G37*
G36*
X-95000Y-460790D02*
X-95000Y-495000D01*
X-60790Y-495000D01*
X-61490Y-489681D01*
X-65473Y-480066D01*
X-71809Y-471809D01*
X-80066Y-465473D01*
X-89681Y-461490D01*
X-95000Y-460790D01*
X-95000Y-460790D02*
G37*
G36*
X2300000Y-415175D02*
X2290986Y-416361D01*
X2282587Y-419840D01*
X2275375Y-425375D01*
X2269840Y-432587D01*
X2266361Y-440986D01*
X2265175Y-450000D01*
X2266361Y-459014D01*
X2269840Y-467413D01*
X2275375Y-474625D01*
X2282587Y-480160D01*
X2290986Y-483639D01*
X2300000Y-484825D01*
X2309014Y-483639D01*
X2317413Y-480160D01*
X2324625Y-474625D01*
X2330160Y-467413D01*
X2333639Y-459014D01*
X2334825Y-450000D01*
X2333639Y-440986D01*
X2330160Y-432587D01*
X2324625Y-425375D01*
X2317413Y-419840D01*
X2309014Y-416361D01*
X2300000Y-415175D01*
X2300000Y-415175D02*
G37*
G36*
X-60790Y-405000D02*
X-95000Y-405000D01*
X-95000Y-439210D01*
X-89681Y-438510D01*
X-80066Y-434527D01*
X-71809Y-428191D01*
X-65473Y-419934D01*
X-61490Y-410319D01*
X-60790Y-405000D01*
X-60790Y-405000D02*
G37*
G36*
X1795000Y-500853D02*
X1787673Y-502310D01*
X1781461Y-506461D01*
X1777310Y-512673D01*
X1775853Y-520000D01*
X1777310Y-527327D01*
X1781461Y-533539D01*
X1787673Y-537690D01*
X1795000Y-539147D01*
X1802327Y-537690D01*
X1808539Y-533539D01*
X1812690Y-527327D01*
X1814147Y-520000D01*
X1812690Y-512673D01*
X1808539Y-506461D01*
X1802327Y-502310D01*
X1795000Y-500853D01*
X1795000Y-500853D02*
G37*
G36*
X-95000Y-560790D02*
X-95000Y-595000D01*
X-60790Y-595000D01*
X-61490Y-589681D01*
X-65473Y-580066D01*
X-71809Y-571809D01*
X-80066Y-565473D01*
X-89681Y-561490D01*
X-95000Y-560790D01*
X-95000Y-560790D02*
G37*
G36*
X2300000Y-515175D02*
X2290986Y-516361D01*
X2282587Y-519840D01*
X2275375Y-525375D01*
X2269840Y-532587D01*
X2266361Y-540986D01*
X2265175Y-550000D01*
X2266361Y-559014D01*
X2269840Y-567413D01*
X2275375Y-574625D01*
X2282587Y-580160D01*
X2290986Y-583639D01*
X2300000Y-584825D01*
X2309014Y-583639D01*
X2317413Y-580160D01*
X2324625Y-574625D01*
X2330160Y-567413D01*
X2333639Y-559014D01*
X2334825Y-550000D01*
X2333639Y-540986D01*
X2330160Y-532587D01*
X2324625Y-525375D01*
X2317413Y-519840D01*
X2309014Y-516361D01*
X2300000Y-515175D01*
X2300000Y-515175D02*
G37*
G36*
X-60790Y-505000D02*
X-95000Y-505000D01*
X-95000Y-539210D01*
X-89681Y-538510D01*
X-80066Y-534527D01*
X-71809Y-528191D01*
X-65473Y-519934D01*
X-61490Y-510319D01*
X-60790Y-505000D01*
X-60790Y-505000D02*
G37*
G36*
X-95000Y-360790D02*
X-95000Y-395000D01*
X-60790Y-395000D01*
X-61490Y-389681D01*
X-65473Y-380066D01*
X-71809Y-371809D01*
X-80066Y-365473D01*
X-89681Y-361490D01*
X-95000Y-360790D01*
X-95000Y-360790D02*
G37*
G36*
X-95000Y-260790D02*
X-95000Y-295000D01*
X-60790Y-295000D01*
X-61490Y-289681D01*
X-65473Y-280066D01*
X-71809Y-271809D01*
X-80066Y-265473D01*
X-89681Y-261490D01*
X-95000Y-260790D01*
X-95000Y-260790D02*
G37*
G36*
X-60790Y-205000D02*
X-95000Y-205000D01*
X-95000Y-239210D01*
X-89681Y-238510D01*
X-80066Y-234527D01*
X-71809Y-228191D01*
X-65473Y-219934D01*
X-61490Y-210319D01*
X-60790Y-205000D01*
X-60790Y-205000D02*
G37*
G36*
X-95000Y-160790D02*
X-95000Y-195000D01*
X-60790Y-195000D01*
X-61490Y-189681D01*
X-65473Y-180066D01*
X-71809Y-171809D01*
X-80066Y-165473D01*
X-89681Y-161490D01*
X-95000Y-160790D01*
X-95000Y-160790D02*
G37*
G36*
X-60790Y-305000D02*
X-95000Y-305000D01*
X-95000Y-339210D01*
X-89681Y-338510D01*
X-80066Y-334527D01*
X-71809Y-328191D01*
X-65473Y-319934D01*
X-61490Y-310319D01*
X-60790Y-305000D01*
X-60790Y-305000D02*
G37*
G36*
X2195000Y-355000D02*
X2160790Y-355000D01*
X2161490Y-360319D01*
X2165473Y-369934D01*
X2171809Y-378191D01*
X2180066Y-384527D01*
X2189681Y-388510D01*
X2195000Y-389210D01*
X2195000Y-355000D01*
X2195000Y-355000D02*
G37*
G36*
X2300000Y-315175D02*
X2290986Y-316361D01*
X2282587Y-319840D01*
X2275375Y-325375D01*
X2269840Y-332587D01*
X2266361Y-340986D01*
X2265175Y-350000D01*
X2266361Y-359014D01*
X2269840Y-367413D01*
X2275375Y-374625D01*
X2282587Y-380160D01*
X2290986Y-383639D01*
X2300000Y-384825D01*
X2309014Y-383639D01*
X2317413Y-380160D01*
X2324625Y-374625D01*
X2330160Y-367413D01*
X2333639Y-359014D01*
X2334825Y-350000D01*
X2333639Y-340986D01*
X2330160Y-332587D01*
X2324625Y-325375D01*
X2317413Y-319840D01*
X2309014Y-316361D01*
X2300000Y-315175D01*
X2300000Y-315175D02*
G37*
G36*
X2195000Y-310790D02*
X2189681Y-311490D01*
X2180066Y-315473D01*
X2171809Y-321809D01*
X2165473Y-330066D01*
X2161490Y-339681D01*
X2160790Y-345000D01*
X2195000Y-345000D01*
X2195000Y-310790D01*
X2195000Y-310790D02*
G37*
G36*
X-60790Y-605000D02*
X-95000Y-605000D01*
X-95000Y-639210D01*
X-89681Y-638510D01*
X-80066Y-634527D01*
X-71809Y-628191D01*
X-65473Y-619934D01*
X-61490Y-610319D01*
X-60790Y-605000D01*
X-60790Y-605000D02*
G37*
G36*
X109687Y-2277500D02*
X75000Y-2277500D01*
X75000Y-2312187D01*
X80442Y-2311470D01*
X90173Y-2307440D01*
X98528Y-2301028D01*
X104940Y-2292673D01*
X108971Y-2282942D01*
X109687Y-2277500D01*
X109687Y-2277500D02*
G37*
G36*
X209687Y-2277500D02*
X175000Y-2277500D01*
X175000Y-2312187D01*
X180442Y-2311470D01*
X190173Y-2307440D01*
X198528Y-2301028D01*
X204940Y-2292673D01*
X208970Y-2282942D01*
X209687Y-2277500D01*
X209687Y-2277500D02*
G37*
G36*
X2109687Y-2277500D02*
X2075000Y-2277500D01*
X2075000Y-2312187D01*
X2080442Y-2311470D01*
X2090173Y-2307440D01*
X2098528Y-2301028D01*
X2104940Y-2292673D01*
X2108970Y-2282942D01*
X2109687Y-2277500D01*
X2109687Y-2277500D02*
G37*
G36*
X165000Y-2277500D02*
X130313Y-2277500D01*
X131030Y-2282942D01*
X135060Y-2292673D01*
X141472Y-2301028D01*
X149827Y-2307440D01*
X159558Y-2311470D01*
X165000Y-2312187D01*
X165000Y-2277500D01*
X165000Y-2277500D02*
G37*
G36*
X1223149Y-2319112D02*
X1223149Y-2353322D01*
X1257359Y-2353322D01*
X1256659Y-2348004D01*
X1252676Y-2338388D01*
X1246340Y-2330131D01*
X1238083Y-2323795D01*
X1228468Y-2319812D01*
X1223149Y-2319112D01*
X1223149Y-2319112D02*
G37*
G36*
X327000Y-1934741D02*
X319168Y-1935772D01*
X311870Y-1938795D01*
X305604Y-1943604D01*
X300795Y-1949871D01*
X297772Y-1957168D01*
X296741Y-1965000D01*
X297772Y-1972832D01*
X300795Y-1980129D01*
X305604Y-1986396D01*
X311870Y-1991205D01*
X316804Y-1993249D01*
X316804Y-2211277D01*
X186592Y-2341489D01*
X179137Y-2338401D01*
X170000Y-2337198D01*
X160863Y-2338401D01*
X152349Y-2341928D01*
X145038Y-2347538D01*
X139428Y-2354849D01*
X135901Y-2363363D01*
X134698Y-2372500D01*
X135901Y-2381637D01*
X139428Y-2390151D01*
X145038Y-2397462D01*
X152349Y-2403072D01*
X160863Y-2406599D01*
X170000Y-2407802D01*
X179137Y-2406599D01*
X187651Y-2403072D01*
X194962Y-2397462D01*
X200572Y-2390151D01*
X204099Y-2381637D01*
X205302Y-2372500D01*
X204099Y-2363363D01*
X201011Y-2355908D01*
X334210Y-2222710D01*
X336420Y-2219402D01*
X337196Y-2215500D01*
X337196Y-1993249D01*
X342130Y-1991205D01*
X348396Y-1986396D01*
X353205Y-1980129D01*
X356228Y-1972832D01*
X357259Y-1965000D01*
X356228Y-1957168D01*
X353205Y-1949871D01*
X348396Y-1943604D01*
X342130Y-1938795D01*
X334832Y-1935772D01*
X327000Y-1934741D01*
X327000Y-1934741D02*
G37*
G36*
X65000Y-2277500D02*
X30313Y-2277500D01*
X31029Y-2282942D01*
X35060Y-2292673D01*
X41472Y-2301028D01*
X49827Y-2307440D01*
X59558Y-2311470D01*
X65000Y-2312187D01*
X65000Y-2277500D01*
X65000Y-2277500D02*
G37*
G36*
X65000Y-2232813D02*
X59558Y-2233530D01*
X49827Y-2237560D01*
X41472Y-2243972D01*
X35060Y-2252327D01*
X31029Y-2262058D01*
X30313Y-2267500D01*
X65000Y-2267500D01*
X65000Y-2232813D01*
X65000Y-2232813D02*
G37*
G36*
X120000Y-1988355D02*
X103584Y-1989972D01*
X87799Y-1994760D01*
X73251Y-2002536D01*
X60500Y-2013000D01*
X50036Y-2025751D01*
X42260Y-2040299D01*
X37471Y-2056084D01*
X35855Y-2072500D01*
X37471Y-2088916D01*
X42260Y-2104701D01*
X50036Y-2119249D01*
X60500Y-2132000D01*
X73251Y-2142464D01*
X87799Y-2150240D01*
X103584Y-2155028D01*
X120000Y-2156645D01*
X136416Y-2155028D01*
X152201Y-2150240D01*
X166749Y-2142464D01*
X179500Y-2132000D01*
X189964Y-2119249D01*
X197740Y-2104701D01*
X202529Y-2088916D01*
X204145Y-2072500D01*
X202529Y-2056084D01*
X197740Y-2040299D01*
X189964Y-2025751D01*
X179500Y-2013000D01*
X166749Y-2002536D01*
X152201Y-1994760D01*
X136416Y-1989972D01*
X120000Y-1988355D01*
X120000Y-1988355D02*
G37*
G36*
X2300000Y-715175D02*
X2290986Y-716361D01*
X2282587Y-719840D01*
X2275375Y-725375D01*
X2269840Y-732587D01*
X2266361Y-740986D01*
X2265175Y-750000D01*
X2266361Y-759014D01*
X2269840Y-767413D01*
X2275375Y-774625D01*
X2282587Y-780160D01*
X2290986Y-783639D01*
X2300000Y-784825D01*
X2309014Y-783639D01*
X2317413Y-780160D01*
X2324625Y-774625D01*
X2330160Y-767413D01*
X2333639Y-759014D01*
X2334825Y-750000D01*
X2333639Y-740986D01*
X2330160Y-732587D01*
X2324625Y-725375D01*
X2317413Y-719840D01*
X2309014Y-716361D01*
X2300000Y-715175D01*
X2300000Y-715175D02*
G37*
G36*
X2300000Y-615175D02*
X2290986Y-616361D01*
X2282587Y-619840D01*
X2275375Y-625375D01*
X2269840Y-632587D01*
X2266361Y-640986D01*
X2265175Y-650000D01*
X2266361Y-659014D01*
X2269840Y-667413D01*
X2275375Y-674625D01*
X2282587Y-680160D01*
X2290986Y-683639D01*
X2300000Y-684825D01*
X2309014Y-683639D01*
X2317413Y-680160D01*
X2324625Y-674625D01*
X2330160Y-667413D01*
X2333639Y-659014D01*
X2334825Y-650000D01*
X2333639Y-640986D01*
X2330160Y-632587D01*
X2324625Y-625375D01*
X2317413Y-619840D01*
X2309014Y-616361D01*
X2300000Y-615175D01*
X2300000Y-615175D02*
G37*
G36*
X2075000Y-2232813D02*
X2075000Y-2267500D01*
X2109687Y-2267500D01*
X2108970Y-2262058D01*
X2104940Y-2252327D01*
X2098528Y-2243972D01*
X2090173Y-2237560D01*
X2080442Y-2233530D01*
X2075000Y-2232813D01*
X2075000Y-2232813D02*
G37*
G36*
X165000Y-2232813D02*
X159558Y-2233530D01*
X149827Y-2237560D01*
X141472Y-2243972D01*
X135060Y-2252327D01*
X131030Y-2262058D01*
X130313Y-2267500D01*
X165000Y-2267500D01*
X165000Y-2232813D01*
X165000Y-2232813D02*
G37*
G36*
X75000Y-2232813D02*
X75000Y-2267500D01*
X109687Y-2267500D01*
X108971Y-2262058D01*
X104940Y-2252327D01*
X98528Y-2243972D01*
X90173Y-2237560D01*
X80442Y-2233530D01*
X75000Y-2232813D01*
X75000Y-2232813D02*
G37*
G36*
X175000Y-2232813D02*
X175000Y-2267500D01*
X209687Y-2267500D01*
X208970Y-2262058D01*
X204940Y-2252327D01*
X198528Y-2243972D01*
X190173Y-2237560D01*
X180442Y-2233530D01*
X175000Y-2232813D01*
X175000Y-2232813D02*
G37*
G36*
X2295000Y589210D02*
X2289681Y588510D01*
X2280066Y584527D01*
X2271809Y578191D01*
X2265473Y569934D01*
X2261490Y560319D01*
X2260790Y555000D01*
X2295000Y555000D01*
X2295000Y589210D01*
X2295000Y589210D02*
G37*
G36*
X0Y584825D02*
X-9014Y583639D01*
X-17413Y580160D01*
X-24625Y574625D01*
X-30160Y567413D01*
X-33639Y559014D01*
X-34825Y550000D01*
X-33639Y540986D01*
X-30160Y532587D01*
X-24625Y525375D01*
X-17413Y519840D01*
X-9014Y516361D01*
X0Y515175D01*
X9014Y516361D01*
X17413Y519840D01*
X24625Y525375D01*
X30160Y532587D01*
X33639Y540986D01*
X34825Y550000D01*
X33639Y559014D01*
X30160Y567413D01*
X24625Y574625D01*
X17413Y580160D01*
X9014Y583639D01*
X0Y584825D01*
X0Y584825D02*
G37*
G36*
X2295000Y645000D02*
X2260790Y645000D01*
X2261490Y639681D01*
X2265473Y630066D01*
X2271809Y621809D01*
X2280066Y615473D01*
X2289681Y611490D01*
X2295000Y610790D01*
X2295000Y645000D01*
X2295000Y645000D02*
G37*
G36*
X2305000Y589210D02*
X2305000Y555000D01*
X2339210Y555000D01*
X2338510Y560319D01*
X2334527Y569934D01*
X2328191Y578191D01*
X2319934Y584527D01*
X2310319Y588510D01*
X2305000Y589210D01*
X2305000Y589210D02*
G37*
G36*
X2200000Y784825D02*
X2190986Y783639D01*
X2182587Y780160D01*
X2175375Y774625D01*
X2169840Y767413D01*
X2166361Y759014D01*
X2165175Y750000D01*
X2166361Y740986D01*
X2169840Y732587D01*
X2175375Y725375D01*
X2182587Y719840D01*
X2190986Y716361D01*
X2200000Y715175D01*
X2209014Y716361D01*
X2217413Y719840D01*
X2224625Y725375D01*
X2230160Y732587D01*
X2233639Y740986D01*
X2234825Y750000D01*
X2233639Y759014D01*
X2230160Y767413D01*
X2224625Y774625D01*
X2217413Y780160D01*
X2209014Y783639D01*
X2200000Y784825D01*
X2200000Y784825D02*
G37*
G36*
X2200000Y484825D02*
X2190986Y483639D01*
X2182587Y480160D01*
X2175375Y474625D01*
X2169840Y467413D01*
X2166361Y459014D01*
X2165175Y450000D01*
X2166361Y440986D01*
X2169840Y432587D01*
X2175375Y425375D01*
X2182587Y419840D01*
X2190986Y416361D01*
X2200000Y415175D01*
X2209014Y416361D01*
X2217413Y419840D01*
X2224625Y425375D01*
X2230160Y432587D01*
X2233639Y440986D01*
X2234825Y450000D01*
X2233639Y459014D01*
X2230160Y467413D01*
X2224625Y474625D01*
X2217413Y480160D01*
X2209014Y483639D01*
X2200000Y484825D01*
X2200000Y484825D02*
G37*
G36*
X-95000Y489210D02*
X-95000Y455000D01*
X-60790Y455000D01*
X-61490Y460319D01*
X-65473Y469934D01*
X-71809Y478191D01*
X-80066Y484527D01*
X-89681Y488510D01*
X-95000Y489210D01*
X-95000Y489210D02*
G37*
G36*
X-105000Y489210D02*
X-110319Y488510D01*
X-119934Y484527D01*
X-128191Y478191D01*
X-134527Y469934D01*
X-138510Y460319D01*
X-139210Y455000D01*
X-105000Y455000D01*
X-105000Y489210D01*
X-105000Y489210D02*
G37*
G36*
X2295000Y689210D02*
X2289681Y688510D01*
X2280066Y684527D01*
X2271809Y678191D01*
X2265473Y669934D01*
X2261490Y660319D01*
X2260790Y655000D01*
X2295000Y655000D01*
X2295000Y689210D01*
X2295000Y689210D02*
G37*
G36*
X2200000Y684825D02*
X2190986Y683639D01*
X2182587Y680160D01*
X2175375Y674625D01*
X2169840Y667413D01*
X2166361Y659014D01*
X2165175Y650000D01*
X2166361Y640986D01*
X2169840Y632587D01*
X2175375Y625375D01*
X2182587Y619840D01*
X2190986Y616361D01*
X2200000Y615175D01*
X2209014Y616361D01*
X2217413Y619840D01*
X2224625Y625375D01*
X2230160Y632587D01*
X2233639Y640986D01*
X2234825Y650000D01*
X2233639Y659014D01*
X2230160Y667413D01*
X2224625Y674625D01*
X2217413Y680160D01*
X2209014Y683639D01*
X2200000Y684825D01*
X2200000Y684825D02*
G37*
G36*
X-100000Y784825D02*
X-109013Y783639D01*
X-117413Y780160D01*
X-124625Y774625D01*
X-130160Y767413D01*
X-133639Y759014D01*
X-134825Y750000D01*
X-133639Y740986D01*
X-130160Y732587D01*
X-124625Y725375D01*
X-117413Y719840D01*
X-109013Y716361D01*
X-100000Y715175D01*
X-90987Y716361D01*
X-82587Y719840D01*
X-75375Y725375D01*
X-69840Y732587D01*
X-66361Y740986D01*
X-65175Y750000D01*
X-66361Y759014D01*
X-69840Y767413D01*
X-75375Y774625D01*
X-82587Y780160D01*
X-90987Y783639D01*
X-100000Y784825D01*
X-100000Y784825D02*
G37*
G36*
X2305000Y689210D02*
X2305000Y655000D01*
X2339210Y655000D01*
X2338510Y660319D01*
X2334527Y669934D01*
X2328191Y678191D01*
X2319934Y684527D01*
X2310319Y688510D01*
X2305000Y689210D01*
X2305000Y689210D02*
G37*
G36*
X0Y784825D02*
X-9014Y783639D01*
X-17413Y780160D01*
X-24625Y774625D01*
X-30160Y767413D01*
X-33639Y759014D01*
X-34825Y750000D01*
X-33639Y740986D01*
X-30160Y732587D01*
X-24625Y725375D01*
X-17413Y719840D01*
X-9014Y716361D01*
X0Y715175D01*
X9014Y716361D01*
X17413Y719840D01*
X24625Y725375D01*
X30160Y732587D01*
X33639Y740986D01*
X34825Y750000D01*
X33639Y759014D01*
X30160Y767413D01*
X24625Y774625D01*
X17413Y780160D01*
X9014Y783639D01*
X0Y784825D01*
X0Y784825D02*
G37*
G36*
X2339210Y645000D02*
X2305000Y645000D01*
X2305000Y610790D01*
X2310319Y611490D01*
X2319934Y615473D01*
X2328191Y621809D01*
X2334527Y630066D01*
X2338510Y639681D01*
X2339210Y645000D01*
X2339210Y645000D02*
G37*
G36*
X0Y684825D02*
X-9014Y683639D01*
X-17413Y680160D01*
X-24625Y674625D01*
X-30160Y667413D01*
X-33639Y659014D01*
X-34825Y650000D01*
X-33639Y640986D01*
X-30160Y632587D01*
X-24625Y625375D01*
X-17413Y619840D01*
X-9014Y616361D01*
X0Y615175D01*
X9014Y616361D01*
X17413Y619840D01*
X24625Y625375D01*
X30160Y632587D01*
X33639Y640986D01*
X34825Y650000D01*
X33639Y659014D01*
X30160Y667413D01*
X24625Y674625D01*
X17413Y680160D01*
X9014Y683639D01*
X0Y684825D01*
X0Y684825D02*
G37*
G36*
X-100000Y684825D02*
X-109013Y683639D01*
X-117413Y680160D01*
X-124625Y674625D01*
X-130160Y667413D01*
X-133639Y659014D01*
X-134825Y650000D01*
X-133639Y640986D01*
X-130160Y632587D01*
X-124625Y625375D01*
X-117413Y619840D01*
X-109013Y616361D01*
X-100000Y615175D01*
X-90987Y616361D01*
X-82587Y619840D01*
X-75375Y625375D01*
X-69840Y632587D01*
X-66361Y640986D01*
X-65175Y650000D01*
X-66361Y659014D01*
X-69840Y667413D01*
X-75375Y674625D01*
X-82587Y680160D01*
X-90987Y683639D01*
X-100000Y684825D01*
X-100000Y684825D02*
G37*
G36*
X2305000Y289210D02*
X2305000Y255000D01*
X2339210Y255000D01*
X2338510Y260319D01*
X2334527Y269934D01*
X2328191Y278191D01*
X2319934Y284527D01*
X2310319Y288510D01*
X2305000Y289210D01*
X2305000Y289210D02*
G37*
G36*
X2295000Y345000D02*
X2260790Y345000D01*
X2261490Y339681D01*
X2265473Y330066D01*
X2271809Y321809D01*
X2280066Y315473D01*
X2289681Y311490D01*
X2295000Y310790D01*
X2295000Y345000D01*
X2295000Y345000D02*
G37*
G36*
X2339210Y345000D02*
X2305000Y345000D01*
X2305000Y310790D01*
X2310319Y311490D01*
X2319934Y315473D01*
X2328191Y321809D01*
X2334527Y330066D01*
X2338510Y339681D01*
X2339210Y345000D01*
X2339210Y345000D02*
G37*
G36*
X2339210Y245000D02*
X2305000Y245000D01*
X2305000Y210790D01*
X2310319Y211490D01*
X2319934Y215473D01*
X2328191Y221809D01*
X2334527Y230066D01*
X2338510Y239681D01*
X2339210Y245000D01*
X2339210Y245000D02*
G37*
G36*
X0Y34825D02*
X-9014Y33639D01*
X-17413Y30160D01*
X-24625Y24625D01*
X-30160Y17413D01*
X-33639Y9014D01*
X-34825Y0D01*
X-33639Y-9014D01*
X-30649Y-16230D01*
X-46737Y-32318D01*
X-48947Y-35626D01*
X-49724Y-39528D01*
X-49724Y-716373D01*
X-48947Y-720275D01*
X-46737Y-723582D01*
X1531804Y-2302124D01*
X1529469Y-2306860D01*
X1518149Y-2305369D01*
X1504444Y-2307174D01*
X1491672Y-2312464D01*
X1480706Y-2320879D01*
X1472290Y-2331846D01*
X1467000Y-2344617D01*
X1465196Y-2358322D01*
X1467000Y-2372028D01*
X1472290Y-2384799D01*
X1480706Y-2395766D01*
X1491672Y-2404181D01*
X1504444Y-2409471D01*
X1518149Y-2411275D01*
X1531854Y-2409471D01*
X1544625Y-2404181D01*
X1555592Y-2395766D01*
X1564007Y-2384799D01*
X1569298Y-2372028D01*
X1571102Y-2358322D01*
X1569612Y-2347002D01*
X1574347Y-2344667D01*
X1709390Y-2479710D01*
X1712698Y-2481920D01*
X1716600Y-2482696D01*
X1936340Y-2482696D01*
X1939428Y-2490151D01*
X1945038Y-2497462D01*
X1952349Y-2503072D01*
X1960863Y-2506599D01*
X1970000Y-2507802D01*
X1979137Y-2506599D01*
X1987651Y-2503072D01*
X1994962Y-2497462D01*
X2000572Y-2490151D01*
X2004099Y-2481637D01*
X2004963Y-2475072D01*
X2005000Y-2474794D01*
X2008226Y-2475006D01*
X2010000Y-2479271D01*
X2010000Y-2565729D01*
X2008226Y-2569994D01*
X2005000Y-2570206D01*
X2004963Y-2569928D01*
X2004099Y-2563363D01*
X2000572Y-2554849D01*
X1994962Y-2547538D01*
X1987651Y-2541928D01*
X1979137Y-2538401D01*
X1970000Y-2537198D01*
X1960863Y-2538401D01*
X1952349Y-2541928D01*
X1945038Y-2547538D01*
X1939428Y-2554849D01*
X1935901Y-2563363D01*
X1934698Y-2572500D01*
X1935901Y-2581637D01*
X1939428Y-2590151D01*
X1945038Y-2597462D01*
X1952349Y-2603072D01*
X1960863Y-2606599D01*
X1970000Y-2607802D01*
X1979137Y-2606599D01*
X1987651Y-2603072D01*
X1994962Y-2597462D01*
X2000572Y-2590151D01*
X2004099Y-2581637D01*
X2004963Y-2575072D01*
X2005000Y-2574794D01*
X2008226Y-2575006D01*
X2010000Y-2579271D01*
X2010000Y-2622696D01*
X2010776Y-2626598D01*
X2012986Y-2629905D01*
X2038989Y-2655908D01*
X2035901Y-2663363D01*
X2034698Y-2672500D01*
X2035901Y-2681637D01*
X2039428Y-2690151D01*
X2045038Y-2697462D01*
X2052349Y-2703072D01*
X2060863Y-2706599D01*
X2070000Y-2707802D01*
X2079137Y-2706599D01*
X2087651Y-2703072D01*
X2094962Y-2697462D01*
X2100572Y-2690151D01*
X2104099Y-2681637D01*
X2105302Y-2672500D01*
X2104099Y-2663363D01*
X2100572Y-2654849D01*
X2094962Y-2647538D01*
X2087651Y-2641928D01*
X2079137Y-2638401D01*
X2070000Y-2637198D01*
X2060863Y-2638401D01*
X2053408Y-2641489D01*
X2030392Y-2618473D01*
X2030392Y-2578098D01*
X2035392Y-2577770D01*
X2035901Y-2581637D01*
X2039428Y-2590151D01*
X2045038Y-2597462D01*
X2052349Y-2603072D01*
X2060863Y-2606599D01*
X2070000Y-2607802D01*
X2079137Y-2606599D01*
X2087651Y-2603072D01*
X2094962Y-2597462D01*
X2100572Y-2590151D01*
X2104099Y-2581637D01*
X2105302Y-2572500D01*
X2104099Y-2563363D01*
X2100572Y-2554849D01*
X2094962Y-2547538D01*
X2087651Y-2541928D01*
X2079137Y-2538401D01*
X2070000Y-2537198D01*
X2060863Y-2538401D01*
X2052349Y-2541928D01*
X2045038Y-2547538D01*
X2039428Y-2554849D01*
X2035901Y-2563363D01*
X2035392Y-2567230D01*
X2030392Y-2566902D01*
X2030392Y-2478098D01*
X2035392Y-2477770D01*
X2035901Y-2481637D01*
X2039428Y-2490151D01*
X2045038Y-2497462D01*
X2052349Y-2503072D01*
X2060863Y-2506599D01*
X2070000Y-2507802D01*
X2079137Y-2506599D01*
X2087651Y-2503072D01*
X2094962Y-2497462D01*
X2100572Y-2490151D01*
X2104099Y-2481637D01*
X2105302Y-2472500D01*
X2104099Y-2463363D01*
X2100572Y-2454849D01*
X2094962Y-2447538D01*
X2087651Y-2441928D01*
X2079137Y-2438401D01*
X2070000Y-2437198D01*
X2060863Y-2438401D01*
X2052349Y-2441928D01*
X2045038Y-2447538D01*
X2039428Y-2454849D01*
X2035901Y-2463363D01*
X2035392Y-2467230D01*
X2030392Y-2466902D01*
X2030392Y-2378098D01*
X2035392Y-2377770D01*
X2035901Y-2381637D01*
X2039428Y-2390151D01*
X2045038Y-2397462D01*
X2052349Y-2403072D01*
X2060863Y-2406599D01*
X2070000Y-2407802D01*
X2079137Y-2406599D01*
X2087651Y-2403072D01*
X2094962Y-2397462D01*
X2100572Y-2390151D01*
X2104099Y-2381637D01*
X2105302Y-2372500D01*
X2104099Y-2363363D01*
X2100572Y-2354849D01*
X2094962Y-2347538D01*
X2087651Y-2341928D01*
X2079137Y-2338401D01*
X2070000Y-2337198D01*
X2060863Y-2338401D01*
X2052349Y-2341928D01*
X2045038Y-2347538D01*
X2039428Y-2354849D01*
X2035901Y-2363363D01*
X2035392Y-2367230D01*
X2030392Y-2366902D01*
X2030392Y-2296613D01*
X2031347Y-2295857D01*
X2038127Y-2296670D01*
X2041472Y-2301028D01*
X2049827Y-2307440D01*
X2059558Y-2311470D01*
X2065000Y-2312187D01*
X2065000Y-2272500D01*
X2065000Y-2232813D01*
X2059558Y-2233530D01*
X2049827Y-2237560D01*
X2041472Y-2243972D01*
X2038127Y-2248330D01*
X2031347Y-2249143D01*
X2030392Y-2248387D01*
X2030392Y-2198193D01*
X2029616Y-2194292D01*
X2027406Y-2190984D01*
X1993667Y-2157245D01*
X1996317Y-2152824D01*
X2003584Y-2155028D01*
X2020000Y-2156645D01*
X2036416Y-2155028D01*
X2052201Y-2150240D01*
X2066749Y-2142464D01*
X2079500Y-2132000D01*
X2089964Y-2119249D01*
X2097740Y-2104701D01*
X2102528Y-2088916D01*
X2104145Y-2072500D01*
X2102528Y-2056084D01*
X2097740Y-2040299D01*
X2089964Y-2025751D01*
X2079500Y-2013000D01*
X2066749Y-2002536D01*
X2052201Y-1994760D01*
X2036416Y-1989972D01*
X2020000Y-1988355D01*
X2003584Y-1989972D01*
X1987799Y-1994760D01*
X1973251Y-2002536D01*
X1960500Y-2013000D01*
X1950036Y-2025751D01*
X1945881Y-2033524D01*
X1940881Y-2032272D01*
X1940881Y-2030685D01*
X1940105Y-2026783D01*
X1937895Y-2023475D01*
X30649Y-116230D01*
X33639Y-109013D01*
X34825Y-100000D01*
X33639Y-90987D01*
X30160Y-82587D01*
X24625Y-75375D01*
X17413Y-69840D01*
X9014Y-66361D01*
X0Y-65175D01*
X-9014Y-66361D01*
X-17413Y-69840D01*
X-24332Y-75149D01*
X-26276Y-74814D01*
X-29332Y-73777D01*
X-29332Y-43751D01*
X-16230Y-30649D01*
X-9014Y-33639D01*
X0Y-34825D01*
X9014Y-33639D01*
X17413Y-30160D01*
X24625Y-24625D01*
X30160Y-17413D01*
X33639Y-9014D01*
X34825Y0D01*
X33639Y9014D01*
X30160Y17413D01*
X24625Y24625D01*
X17413Y30160D01*
X9014Y33639D01*
X0Y34825D01*
X0Y34825D02*
G37*
G36*
X2339210Y145000D02*
X2305000Y145000D01*
X2305000Y110790D01*
X2310319Y111490D01*
X2319934Y115473D01*
X2328191Y121809D01*
X2334527Y130066D01*
X2338510Y139681D01*
X2339210Y145000D01*
X2339210Y145000D02*
G37*
G36*
X2305000Y189210D02*
X2305000Y155000D01*
X2339210Y155000D01*
X2338510Y160319D01*
X2334527Y169934D01*
X2328191Y178191D01*
X2319934Y184527D01*
X2310319Y188510D01*
X2305000Y189210D01*
X2305000Y189210D02*
G37*
G36*
X2295000Y389210D02*
X2289681Y388510D01*
X2280066Y384527D01*
X2271809Y378191D01*
X2265473Y369934D01*
X2261490Y360319D01*
X2260790Y355000D01*
X2295000Y355000D01*
X2295000Y389210D01*
X2295000Y389210D02*
G37*
G36*
X-60790Y445000D02*
X-95000Y445000D01*
X-95000Y410790D01*
X-89681Y411490D01*
X-80066Y415473D01*
X-71809Y421809D01*
X-65473Y430066D01*
X-61490Y439681D01*
X-60790Y445000D01*
X-60790Y445000D02*
G37*
G36*
X2300000Y784825D02*
X2290986Y783639D01*
X2282587Y780160D01*
X2275375Y774625D01*
X2269840Y767413D01*
X2266361Y759014D01*
X2265175Y750000D01*
X2266361Y740986D01*
X2269840Y732587D01*
X2275375Y725375D01*
X2282587Y719840D01*
X2290986Y716361D01*
X2300000Y715175D01*
X2309014Y716361D01*
X2317413Y719840D01*
X2324625Y725375D01*
X2330160Y732587D01*
X2333639Y740986D01*
X2334825Y750000D01*
X2333639Y759014D01*
X2330160Y767413D01*
X2324625Y774625D01*
X2317413Y780160D01*
X2309014Y783639D01*
X2300000Y784825D01*
X2300000Y784825D02*
G37*
G36*
X2295000Y445000D02*
X2260790Y445000D01*
X2261490Y439681D01*
X2265473Y430066D01*
X2271809Y421809D01*
X2280066Y415473D01*
X2289681Y411490D01*
X2295000Y410790D01*
X2295000Y445000D01*
X2295000Y445000D02*
G37*
G36*
X2305000Y389210D02*
X2305000Y355000D01*
X2339210Y355000D01*
X2338510Y360319D01*
X2334527Y369934D01*
X2328191Y378191D01*
X2319934Y384527D01*
X2310319Y388510D01*
X2305000Y389210D01*
X2305000Y389210D02*
G37*
G36*
X-105000Y445000D02*
X-139210Y445000D01*
X-138510Y439681D01*
X-134527Y430066D01*
X-128191Y421809D01*
X-119934Y415473D01*
X-110319Y411490D01*
X-105000Y410790D01*
X-105000Y445000D01*
X-105000Y445000D02*
G37*
%LPD*%
G36*
X1107426Y1979368D02*
X1107426Y1911322D01*
X1105673Y1909884D01*
X1069649Y1909884D01*
X1069649Y2010612D01*
X1074268Y2012526D01*
X1107426Y1979368D01*
X1107426Y1979368D02*
G37*
G36*
X671163Y2251163D02*
X679609Y2244682D01*
X689445Y2240608D01*
X700000Y2239218D01*
X710555Y2240608D01*
X720391Y2244682D01*
X720678Y2244902D01*
X875142Y2090439D01*
X875142Y1911322D01*
X873389Y1909884D01*
X829503Y1909884D01*
X664763Y2074624D01*
X664763Y2251726D01*
X669497Y2253333D01*
X671163Y2251163D01*
X671163Y2251163D02*
G37*
G36*
X-17413Y-130160D02*
X-9014Y-133639D01*
X0Y-134825D01*
X9014Y-133639D01*
X16230Y-130649D01*
X1920489Y-2034908D01*
X1920489Y-2108682D01*
X1921265Y-2112584D01*
X1923475Y-2115892D01*
X2010000Y-2202417D01*
X2010000Y-2251478D01*
X2005000Y-2252472D01*
X2004940Y-2252327D01*
X1998528Y-2243972D01*
X1990173Y-2237560D01*
X1980442Y-2233530D01*
X1975000Y-2232813D01*
X1975000Y-2272500D01*
X1975000Y-2312187D01*
X1980442Y-2311470D01*
X1990173Y-2307440D01*
X1998528Y-2301028D01*
X2004940Y-2292673D01*
X2005000Y-2292528D01*
X2010000Y-2293522D01*
X2010000Y-2365729D01*
X2008226Y-2369994D01*
X2005000Y-2370206D01*
X2004963Y-2369928D01*
X2004099Y-2363363D01*
X2000572Y-2354849D01*
X1994962Y-2347538D01*
X1987651Y-2341928D01*
X1979137Y-2338401D01*
X1970000Y-2337198D01*
X1960863Y-2338401D01*
X1952349Y-2341928D01*
X1945038Y-2347538D01*
X1939428Y-2354849D01*
X1935901Y-2363363D01*
X1934698Y-2372500D01*
X1935901Y-2381637D01*
X1939428Y-2390151D01*
X1945038Y-2397462D01*
X1952349Y-2403072D01*
X1960863Y-2406599D01*
X1970000Y-2407802D01*
X1979137Y-2406599D01*
X1987651Y-2403072D01*
X1994962Y-2397462D01*
X2000572Y-2390151D01*
X2004099Y-2381637D01*
X2004963Y-2375072D01*
X2005000Y-2374794D01*
X2008226Y-2375006D01*
X2010000Y-2379271D01*
X2010000Y-2465729D01*
X2008226Y-2469994D01*
X2005000Y-2470206D01*
X2004963Y-2469928D01*
X2004099Y-2463363D01*
X2000572Y-2454849D01*
X1994962Y-2447538D01*
X1987651Y-2441928D01*
X1979137Y-2438401D01*
X1970000Y-2437198D01*
X1960863Y-2438401D01*
X1952349Y-2441928D01*
X1945038Y-2447538D01*
X1939428Y-2454849D01*
X1936340Y-2462304D01*
X1720823Y-2462304D01*
X-2198Y-739283D01*
X-771Y-736389D01*
X367Y-734777D01*
X9014Y-733639D01*
X17413Y-730160D01*
X24625Y-724625D01*
X30160Y-717413D01*
X33639Y-709014D01*
X34825Y-700000D01*
X33639Y-690986D01*
X30160Y-682587D01*
X24625Y-675375D01*
X17413Y-669840D01*
X9014Y-666361D01*
X0Y-665175D01*
X-9014Y-666361D01*
X-17413Y-669840D01*
X-24332Y-675149D01*
X-26276Y-674814D01*
X-29332Y-673777D01*
X-29332Y-633619D01*
X-24332Y-631153D01*
X-19934Y-634527D01*
X-10319Y-638510D01*
X-5000Y-639210D01*
X-5000Y-600000D01*
X-5000Y-560790D01*
X-10319Y-561490D01*
X-19934Y-565473D01*
X-24332Y-568847D01*
X-29332Y-566381D01*
X-29332Y-526223D01*
X-26276Y-525186D01*
X-24332Y-524851D01*
X-17413Y-530160D01*
X-9014Y-533639D01*
X0Y-534825D01*
X9014Y-533639D01*
X17413Y-530160D01*
X24625Y-524625D01*
X30160Y-517413D01*
X33639Y-509014D01*
X34825Y-500000D01*
X33639Y-490986D01*
X30160Y-482587D01*
X24625Y-475375D01*
X17413Y-469840D01*
X9014Y-466361D01*
X0Y-465175D01*
X-9014Y-466361D01*
X-17413Y-469840D01*
X-24332Y-475149D01*
X-26276Y-474814D01*
X-29332Y-473777D01*
X-29332Y-426223D01*
X-26276Y-425186D01*
X-24332Y-424851D01*
X-17413Y-430160D01*
X-9014Y-433639D01*
X0Y-434825D01*
X9014Y-433639D01*
X17413Y-430160D01*
X24625Y-424625D01*
X30160Y-417413D01*
X33639Y-409014D01*
X34825Y-400000D01*
X33639Y-390986D01*
X30160Y-382587D01*
X24625Y-375375D01*
X17413Y-369840D01*
X9014Y-366361D01*
X0Y-365175D01*
X-9014Y-366361D01*
X-17413Y-369840D01*
X-24332Y-375149D01*
X-26276Y-374814D01*
X-29332Y-373777D01*
X-29332Y-326223D01*
X-26276Y-325186D01*
X-24332Y-324851D01*
X-17413Y-330160D01*
X-9014Y-333639D01*
X0Y-334825D01*
X9014Y-333639D01*
X17413Y-330160D01*
X24625Y-324625D01*
X30160Y-317413D01*
X33639Y-309014D01*
X34825Y-300000D01*
X33639Y-290986D01*
X30160Y-282587D01*
X24625Y-275375D01*
X17413Y-269840D01*
X9014Y-266361D01*
X0Y-265175D01*
X-9014Y-266361D01*
X-17413Y-269840D01*
X-24332Y-275149D01*
X-26276Y-274814D01*
X-29332Y-273777D01*
X-29332Y-226223D01*
X-26276Y-225186D01*
X-24332Y-224851D01*
X-17413Y-230160D01*
X-9014Y-233639D01*
X0Y-234825D01*
X9014Y-233639D01*
X17413Y-230160D01*
X24625Y-224625D01*
X30160Y-217413D01*
X33639Y-209013D01*
X34825Y-200000D01*
X33639Y-190987D01*
X30160Y-182587D01*
X24625Y-175375D01*
X17413Y-169840D01*
X9014Y-166361D01*
X0Y-165175D01*
X-9014Y-166361D01*
X-17413Y-169840D01*
X-24332Y-175149D01*
X-26276Y-174814D01*
X-29332Y-173777D01*
X-29332Y-126223D01*
X-26276Y-125186D01*
X-24332Y-124851D01*
X-17413Y-130160D01*
X-17413Y-130160D02*
G37*
%LPC*%
G36*
X39210Y-605000D02*
X5000Y-605000D01*
X5000Y-639210D01*
X10319Y-638510D01*
X19934Y-634527D01*
X28191Y-628191D01*
X34527Y-619934D01*
X38510Y-610319D01*
X39210Y-605000D01*
X39210Y-605000D02*
G37*
G36*
X5000Y-560790D02*
X5000Y-595000D01*
X39210Y-595000D01*
X38510Y-589681D01*
X34527Y-580066D01*
X28191Y-571809D01*
X19934Y-565473D01*
X10319Y-561490D01*
X5000Y-560790D01*
X5000Y-560790D02*
G37*
G36*
X1965000Y-2277500D02*
X1930313Y-2277500D01*
X1931030Y-2282942D01*
X1935060Y-2292673D01*
X1941472Y-2301028D01*
X1949827Y-2307440D01*
X1959558Y-2311470D01*
X1965000Y-2312187D01*
X1965000Y-2277500D01*
X1965000Y-2277500D02*
G37*
G36*
X1965000Y-2232813D02*
X1959558Y-2233530D01*
X1949827Y-2237560D01*
X1941472Y-2243972D01*
X1935060Y-2252327D01*
X1931030Y-2262058D01*
X1930313Y-2267500D01*
X1965000Y-2267500D01*
X1965000Y-2232813D01*
X1965000Y-2232813D02*
G37*
%LPD*%
D10*
X1820000Y1473465D02*
D03*
X1820000Y1406535D02*
D03*
X1690000Y1473465D02*
D03*
X1690000Y1406535D02*
D03*
X1521378Y1473465D02*
D03*
X1521378Y1406535D02*
D03*
X2182386Y-3812316D02*
D03*
X2182386Y-3879244D02*
D03*
X2253252Y-3879244D02*
D03*
X2253252Y-3812316D02*
D03*
X2265063Y-4328062D02*
D03*
X2265063Y-4261134D02*
D03*
X2186323Y-4013102D02*
D03*
X2186323Y-3946172D02*
D03*
X2198134Y-4261133D02*
D03*
X2198134Y-4328063D02*
D03*
X2257190Y-3946174D02*
D03*
X2257190Y-4013102D02*
D03*
D11*
X2145590Y1921078D02*
D03*
X2145590Y1846275D02*
D03*
X2029448Y1846275D02*
D03*
X2029448Y1883676D02*
D03*
X2029448Y1921078D02*
D03*
D12*
X1907519Y1856275D02*
D03*
X1907519Y1931078D02*
D03*
X1907519Y1711275D02*
D03*
X1907519Y1786078D02*
D03*
D13*
X2211771Y1918676D02*
D03*
X2243267Y1918676D02*
D03*
D14*
X1644568Y-3270001D02*
D03*
X1715434Y-3270001D02*
D03*
D15*
X1640630Y-3170001D02*
D03*
X1719370Y-3170001D02*
D03*
D16*
X847779Y1895890D02*
D03*
X847779Y1870300D02*
D03*
X847779Y1844710D02*
D03*
X847779Y1819118D02*
D03*
X847779Y1793528D02*
D03*
X847779Y1767938D02*
D03*
X847779Y1742346D02*
D03*
X1080063Y1895890D02*
D03*
X1080063Y1870300D02*
D03*
X1080063Y1844710D02*
D03*
X1080063Y1819118D02*
D03*
X1080063Y1793528D02*
D03*
X1080063Y1767938D02*
D03*
X1080063Y1742346D02*
D03*
D17*
X1553268Y1938543D02*
D03*
X1586732Y1938543D02*
D03*
X1586732Y1881457D02*
D03*
X1553268Y1881457D02*
D03*
D18*
X1660000Y1300000D02*
X1769929Y1300000D01*
X1857598Y2328598D02*
X1911527Y2274669D01*
X1911527Y1935086D02*
X1911527Y2274669D01*
X1907519Y1931078D02*
X1911527Y1935086D01*
X851637Y1771796D02*
X875465Y1771796D01*
X885338Y1781669D01*
X885338Y2094662D01*
X700000Y2280000D02*
X885338Y2094662D01*
X1154567Y1151537D02*
X1795632Y510472D01*
X1769929Y1300000D02*
X2211771Y1741842D01*
X2211771Y1914641D01*
X1909448Y1840605D02*
X1915118Y1846275D01*
X2122519Y1788676D02*
X2126968Y1793125D01*
X2126968Y1838480D01*
X2206535Y1919877D02*
X2211771Y1914641D01*
X1857598Y2328598D02*
X1857598Y2328676D01*
X2126968Y1838480D02*
X2134763Y1846275D01*
X2145590Y1846275D01*
X2146791Y1919877D02*
X2206535Y1919877D01*
X2145590Y1921078D02*
X2146791Y1919877D01*
X2029448Y1921078D02*
X2037244Y1913283D01*
X2067756Y1913283D02*
X2134763Y1846275D01*
X2037244Y1913283D02*
X2067756Y1913283D01*
X1907519Y1791078D02*
X1909448Y1793007D01*
X1909448Y1840605D01*
X1915118Y1846275D02*
X2029448Y1846275D01*
X1621399Y1926811D02*
X1799409Y1748800D01*
X1799409Y1484055D02*
X1799409Y1748800D01*
X2370000Y-165000D02*
X2370000Y435900D01*
X2370000Y-2972500D02*
X2370000Y-165000D01*
X2330000Y-165000D02*
X2370000Y-165000D01*
X2295428Y510472D02*
X2370000Y435900D01*
X2069425Y-3273075D02*
X2370000Y-2972500D01*
X2193287Y-841713D02*
X2245000Y-790000D01*
X2193287Y-841713D02*
X2193287Y-841713D01*
X2141575Y-893425D02*
X2193287Y-841713D01*
X2249500Y-790000D02*
X2249500Y256400D01*
X2141575Y-3157494D02*
X2141575Y-893425D01*
X2209500Y-750000D02*
X2249500Y-790000D01*
X2195428Y310472D02*
X2249500Y256400D01*
X2200000Y-750000D02*
X2209500Y-750000D01*
X375000Y-25000D02*
X1675000Y-25000D01*
X2200000Y-550000D01*
X1675000Y75000D02*
X2200000Y-450000D01*
X1735394Y1370000D02*
X1740000Y1370000D01*
X1695394Y1410000D02*
X1735394Y1370000D01*
X820093Y1789669D02*
X843921Y1789669D01*
X847779Y1793528D01*
X742212Y1844710D02*
X847779Y1844710D01*
X1059453Y1899748D02*
X1063311Y1895890D01*
X2244472Y-4455528D02*
X2244472Y-4339795D01*
X1950000Y-4750000D02*
X2244472Y-4455528D01*
X0Y-4750000D02*
X1950000Y-4750000D01*
X-190000Y-4560000D02*
X0Y-4750000D01*
X1930685Y-2108682D02*
X2020196Y-2198193D01*
X2020196Y-2622696D02*
X2020196Y-2198193D01*
X2020196Y-2622696D02*
X2069425Y-2671925D01*
X-139528Y-857136D02*
X645000Y-1641664D01*
X645000Y-2647500D02*
X645000Y-1641664D01*
X645000Y-2647500D02*
X1967519Y-3970019D01*
X327000Y-2215500D02*
X327000Y-1965000D01*
X-156000Y-3083000D02*
X-112207Y-3126793D01*
X0Y-100000D02*
X1930685Y-2030685D01*
X-39528Y-716373D02*
X1716600Y-2472500D01*
X-215000Y-2187500D02*
X-215000Y887497D01*
X1715434Y-3270001D02*
X1719370Y-3266065D01*
X1719370Y-3170001D01*
X1729630Y-3159741D01*
X1729630Y-3125307D01*
X2086568Y-3212500D02*
X2141575Y-3157494D01*
X1969425Y-3273075D02*
X2030000Y-3212500D01*
X1969425Y-3279000D02*
X1969425Y-3273075D01*
X1967519Y-3981164D02*
X1967519Y-3970019D01*
X1930685Y-2108682D02*
X1930685Y-2030685D01*
X169425Y-3179000D02*
X169425Y-3171925D01*
X124293Y-3126793D02*
X169425Y-3171925D01*
X-112207Y-3126793D02*
X124293Y-3126793D01*
X-215000Y887497D02*
X742212Y1844710D01*
X2244472Y-4339795D02*
X2254267Y-4330000D01*
X2265000Y-4330000D01*
X2069425Y-2679000D02*
X2069425Y-2671925D01*
X2030000Y-3212500D02*
X2086568Y-3212500D01*
X2069425Y-3279000D02*
X2069425Y-3273075D01*
X69425Y-2479000D02*
X69425Y-2471925D01*
X1080063Y1742346D02*
X1080063Y1767938D01*
X847779Y1742346D02*
X847779Y1767938D01*
X1080063Y1870300D02*
X1080063Y1895890D01*
X1080063Y1767938D02*
X1083921Y1771796D01*
X1107749Y1771796D01*
X1304433Y-4151370D02*
X1304433Y-3794598D01*
X2182386Y-3812316D02*
X2182386Y-3755228D01*
X2182386Y-3879244D02*
X2253252Y-3879244D01*
X2076183Y-3872500D02*
X2175642Y-3872500D01*
X2067519Y-3881164D02*
X2076183Y-3872500D01*
X2186323Y-4013102D02*
X2186323Y-4013102D01*
X2186323Y-4070189D02*
X2186323Y-4013102D01*
X2186324Y-3946174D02*
X2257190Y-3946174D01*
X2186323Y-3946172D02*
X2186324Y-3946174D01*
X2076183Y-3972500D02*
X2151137Y-3972500D01*
X2067519Y-3981164D02*
X2076183Y-3972500D01*
X2198135Y-4261134D02*
X2265063Y-4261134D01*
X2067519Y-4181164D02*
X2078664Y-4181164D01*
X2146901Y-4249401D01*
X2186401Y-4249401D01*
X1063311Y1895890D02*
X1080063Y1895890D01*
X-215000Y-2187500D02*
X69425Y-2471925D01*
X770451Y1819118D02*
X847779Y1819118D01*
X1020290Y1844710D02*
X1080063Y1844710D01*
X990000Y1875000D02*
X1020290Y1844710D01*
X1076827Y1796764D02*
X1080063Y1793528D01*
X998236Y1796764D02*
X1076827Y1796764D01*
X995000Y1800000D02*
X998236Y1796764D01*
X847779Y1767938D02*
X851637Y1771796D01*
X744333Y1793000D02*
X770451Y1819118D01*
X742726Y1793000D02*
X744333Y1793000D01*
X169425Y-2379000D02*
X169425Y-2373075D01*
X327000Y-2215500D01*
X1607490Y1318881D02*
X1607490Y1329282D01*
X1801142Y1396535D02*
X1820000Y1396535D01*
X1743360Y1338753D02*
X1801142Y1396535D01*
X1521378Y1473465D02*
X1530472Y1482559D01*
X1530472Y1911811D01*
X1586732Y1934606D02*
X1594528Y1926811D01*
X1621399Y1926811D01*
X1586732Y1934606D02*
X1586732Y1938543D01*
X1743360Y1333360D02*
X1743360Y1338753D01*
X1799409Y1484055D02*
X1820000Y1463465D01*
X1530472Y1911811D02*
X1553268Y1934606D01*
X1553268Y1938543D01*
X1553268Y1881457D02*
X1556969Y1877755D01*
X1661732Y1410000D02*
X1695394Y1410000D01*
X1586732Y1567874D02*
X1586732Y1881457D01*
X1680000Y1473465D02*
X1680000Y1474606D01*
X1586732Y1567874D02*
X1680000Y1474606D01*
X1530237Y1406535D02*
X1607490Y1329282D01*
X1607490Y1318881D02*
X1676371Y1250000D01*
X1556969Y1403031D02*
X1660000Y1300000D01*
X1556969Y1403031D02*
X1556969Y1877755D01*
X1521378Y1406535D02*
X1530237Y1406535D01*
X2151137Y-3972500D02*
X2177465Y-3946172D01*
X2186323Y-3946172D01*
X2186401Y-4249401D02*
X2198135Y-4261134D01*
X2175642Y-3872500D02*
X2182386Y-3879244D01*
X-39528Y-716373D02*
X-39528Y-39528D01*
X1716600Y-2472500D02*
X1962925Y-2472500D01*
X-39528Y-39528D02*
X0Y0D01*
X1962925Y-2472500D02*
X1969425Y-2479000D01*
X-139528Y-857136D02*
X-139528Y-39528D01*
X-100000Y0D01*
X1676371Y1250000D02*
X1760000Y1250000D01*
X290000Y75000D02*
X1675000Y75000D01*
X1795632Y510472D02*
X2295428Y510472D01*
X1132622Y1067378D02*
X1889528Y310472D01*
X903835Y489528D02*
X1243363Y150000D01*
X2200000Y150000D01*
X-39528Y489528D02*
X903835Y489528D01*
X-100000Y550000D02*
X-39528Y489528D01*
X575000Y2505000D02*
X700000Y2380000D01*
X654567Y2070401D02*
X654567Y2334567D01*
X505000Y2505000D02*
X575000Y2505000D01*
X1059453Y1899748D02*
X1059453Y2020547D01*
X800000Y2280000D02*
X1059453Y2020547D01*
X115000Y2535000D02*
X645000Y2535000D01*
X854567Y2246646D02*
X1117622Y1983591D01*
X1117622Y1781669D02*
X1117622Y1983591D01*
X1107749Y1771796D02*
X1117622Y1781669D01*
X854567Y2246646D02*
X854567Y2325433D01*
X654567Y2070401D02*
X832936Y1892031D01*
X847779Y1892031D01*
X847779Y1870300D02*
X847779Y1892031D01*
X654567Y2334567D02*
X690000Y2370000D01*
X695000Y2370000D01*
X1132622Y1067378D02*
X1132622Y2147378D01*
X1000000Y2280000D02*
X1132622Y2147378D01*
X1100000Y2380000D02*
X1154567Y2325433D01*
X1154567Y1151537D02*
X1154567Y2325433D01*
X1889528Y310472D02*
X2195428Y310472D01*
X645000Y2535000D02*
X854567Y2325433D01*
X1740000Y1330000D02*
X1743360Y1333360D01*
X750000Y1690000D02*
X750000Y1719576D01*
X820093Y1789669D01*
D19*
X2057519Y2328676D02*
D03*
X1957519Y2328676D02*
D03*
X1857519Y2328676D02*
D03*
X1757519Y2328676D02*
D03*
X2157519Y2328676D02*
D03*
D20*
X-100000Y1300000D02*
D03*
X2250000Y1300000D02*
D03*
X2250000Y-1050000D02*
D03*
D21*
X-100000Y-1050000D02*
D03*
D22*
X468149Y-3408322D02*
D03*
X1518149Y-2358322D02*
D03*
X1518149Y-3408322D02*
D03*
X468149Y-2358322D02*
D03*
D23*
X120000Y-2072500D02*
D03*
X2020000Y-2072500D02*
D03*
X1895000Y-4647500D02*
D03*
X245000Y-4647500D02*
D03*
D24*
X170000Y-2272500D02*
D03*
X170000Y-2372500D02*
D03*
X170000Y-2472500D02*
D03*
X170000Y-2572500D02*
D03*
X170000Y-2672500D02*
D03*
X170000Y-2772500D02*
D03*
X170000Y-2872500D02*
D03*
X170000Y-2972500D02*
D03*
X170000Y-3072500D02*
D03*
X170000Y-3172500D02*
D03*
X170000Y-3272500D02*
D03*
X170000Y-3372500D02*
D03*
X170000Y-3472500D02*
D03*
X170000Y-3572500D02*
D03*
X170000Y-3672500D02*
D03*
X170000Y-3772500D02*
D03*
X170000Y-3872500D02*
D03*
X170000Y-3972500D02*
D03*
X170000Y-4072500D02*
D03*
X170000Y-4172500D02*
D03*
X170000Y-4272500D02*
D03*
X170000Y-4372500D02*
D03*
X170000Y-4472500D02*
D03*
X70000Y-2372500D02*
D03*
X70000Y-2472500D02*
D03*
X70000Y-2572500D02*
D03*
X70000Y-2672500D02*
D03*
X70000Y-2772500D02*
D03*
X70000Y-2872500D02*
D03*
X70000Y-2972500D02*
D03*
X70000Y-3072500D02*
D03*
X70000Y-3172500D02*
D03*
X70000Y-3272500D02*
D03*
X70000Y-3372500D02*
D03*
X70000Y-3472500D02*
D03*
X70000Y-3572500D02*
D03*
X70000Y-3672500D02*
D03*
X70000Y-3772500D02*
D03*
X70000Y-3872500D02*
D03*
X70000Y-3972500D02*
D03*
X70000Y-4072500D02*
D03*
X70000Y-4172500D02*
D03*
X70000Y-4272500D02*
D03*
X70000Y-4372500D02*
D03*
X70000Y-4472500D02*
D03*
X1970000Y-2272500D02*
D03*
X2070000Y-2272500D02*
D03*
X2070000Y-2372500D02*
D03*
X2070000Y-2472500D02*
D03*
X2070000Y-2572500D02*
D03*
X2070000Y-2672500D02*
D03*
X2070000Y-2772500D02*
D03*
X2070000Y-2872500D02*
D03*
X2070000Y-2972500D02*
D03*
X2070000Y-3072500D02*
D03*
X2070000Y-3172500D02*
D03*
X2070000Y-3272500D02*
D03*
X2070000Y-3372500D02*
D03*
X2070000Y-3472500D02*
D03*
X2070000Y-3572500D02*
D03*
X2070000Y-3672500D02*
D03*
X2070000Y-3772500D02*
D03*
X2070000Y-3872500D02*
D03*
X2070000Y-3972500D02*
D03*
X2070000Y-4072500D02*
D03*
X2070000Y-4172500D02*
D03*
X2070000Y-4272500D02*
D03*
X2070000Y-4372500D02*
D03*
X2070000Y-4472500D02*
D03*
X1970000Y-2372500D02*
D03*
X1970000Y-2472500D02*
D03*
X1970000Y-2572500D02*
D03*
X1970000Y-2672500D02*
D03*
X1970000Y-2772500D02*
D03*
X1970000Y-2872500D02*
D03*
X1970000Y-2972500D02*
D03*
X1970000Y-3072500D02*
D03*
X1970000Y-3172500D02*
D03*
X1970000Y-3272500D02*
D03*
X1970000Y-3372500D02*
D03*
X1970000Y-3472500D02*
D03*
X1970000Y-3572500D02*
D03*
X1970000Y-3672500D02*
D03*
X1970000Y-3772500D02*
D03*
X1970000Y-3872500D02*
D03*
X1970000Y-3972500D02*
D03*
X1970000Y-4072500D02*
D03*
X1970000Y-4172500D02*
D03*
X1970000Y-4272500D02*
D03*
X1970000Y-4372500D02*
D03*
X1970000Y-4472500D02*
D03*
X70000Y-2272500D02*
D03*
D25*
X0Y-700000D02*
D03*
X0Y-600000D02*
D03*
X0Y-500000D02*
D03*
X-100000Y-700000D02*
D03*
X-100000Y-600000D02*
D03*
X-100000Y-500000D02*
D03*
X0Y-400000D02*
D03*
X0Y-300000D02*
D03*
X0Y-200000D02*
D03*
X0Y-100000D02*
D03*
X0Y0D02*
D03*
X-100000Y-400000D02*
D03*
X-100000Y-300000D02*
D03*
X-100000Y-200000D02*
D03*
X-100000Y-100000D02*
D03*
X-100000Y0D02*
D03*
X2300000Y150000D02*
D03*
X2300000Y250000D02*
D03*
X2300000Y350000D02*
D03*
X2200000Y150000D02*
D03*
X2200000Y250000D02*
D03*
X2200000Y350000D02*
D03*
X2300000Y450000D02*
D03*
X2300000Y550000D02*
D03*
X2300000Y650000D02*
D03*
X2300000Y750000D02*
D03*
X2300000Y850000D02*
D03*
X2200000Y450000D02*
D03*
X2200000Y550000D02*
D03*
X2200000Y650000D02*
D03*
X2200000Y750000D02*
D03*
X2200000Y850000D02*
D03*
X2271999Y2083000D02*
D03*
X2171999Y2083000D02*
D03*
X2071999Y2083000D02*
D03*
X1971999Y2083000D02*
D03*
X1871999Y2083000D02*
D03*
X1118149Y-2358322D02*
D03*
X1218149Y-2358322D02*
D03*
X1018149Y-2358322D02*
D03*
X918149Y-2358322D02*
D03*
X818149Y-2358322D02*
D03*
X718149Y-2358322D02*
D03*
X1518149Y-2758322D02*
D03*
X1518149Y-2658322D02*
D03*
X468149Y-2758322D02*
D03*
X468149Y-2658322D02*
D03*
X2200000Y-750000D02*
D03*
X2200000Y-650000D02*
D03*
X2200000Y-550000D02*
D03*
X2200000Y-450000D02*
D03*
X2200000Y-350000D02*
D03*
X2300000Y-750000D02*
D03*
X2300000Y-650000D02*
D03*
X2300000Y-550000D02*
D03*
X2300000Y-450000D02*
D03*
X2300000Y-350000D02*
D03*
X-100000Y450000D02*
D03*
X-100000Y550000D02*
D03*
X-100000Y650000D02*
D03*
X-100000Y750000D02*
D03*
X-100000Y850000D02*
D03*
X0Y450000D02*
D03*
X0Y550000D02*
D03*
X0Y650000D02*
D03*
X0Y750000D02*
D03*
X0Y850000D02*
D03*
D26*
X1771999Y2083000D02*
D03*
X1318149Y-2358322D02*
D03*
D27*
X1518149Y-2558322D02*
D03*
X468149Y-2558322D02*
D03*
D28*
X1694197Y696760D02*
D03*
X1694197Y1769160D02*
D03*
D29*
X1694197Y1607260D02*
D03*
X1692597Y858660D02*
D03*
D30*
X400000Y2380000D02*
D03*
X400000Y2280000D02*
D03*
X500000Y2280000D02*
D03*
X600000Y2280000D02*
D03*
X700000Y2280000D02*
D03*
X800000Y2280000D02*
D03*
X900000Y2280000D02*
D03*
X1000000Y2280000D02*
D03*
X1100000Y2280000D02*
D03*
X1200000Y2280000D02*
D03*
X1300000Y2280000D02*
D03*
X1400000Y2280000D02*
D03*
X500000Y2380000D02*
D03*
X600000Y2380000D02*
D03*
X700000Y2380000D02*
D03*
X800000Y2380000D02*
D03*
X900000Y2380000D02*
D03*
X1000000Y2380000D02*
D03*
X1100000Y2380000D02*
D03*
X1200000Y2380000D02*
D03*
X1300000Y2380000D02*
D03*
X1400000Y2380000D02*
D03*
X300000Y2280000D02*
D03*
X300000Y2380000D02*
D03*
D31*
X1667519Y2548676D02*
D03*
X2122519Y1788676D02*
D03*
X2330000Y-165000D02*
D03*
X849000Y2612000D02*
D03*
X-156000Y-3083000D02*
D03*
X-190000Y-4560000D02*
D03*
X2182386Y-3755228D02*
D03*
X2186323Y-4070189D02*
D03*
X990000Y1875000D02*
D03*
X995000Y1800000D02*
D03*
X2090000Y1130000D02*
D03*
X740000Y1793000D02*
D03*
X327000Y-1965000D02*
D03*
X375000Y-25000D02*
D03*
X290000Y75000D02*
D03*
X750000Y1690000D02*
D03*
D32*
X1740000Y1370000D02*
D03*
X115000Y2535000D02*
D03*
X1115000Y-4013000D02*
D03*
X1117000Y-3079000D02*
D03*
X1729630Y-3125307D02*
D03*
X1064276Y-3877276D02*
D03*
X1150890Y-4038693D02*
D03*
X713882Y-3987512D02*
D03*
X1304433Y-4151370D02*
D03*
X1304433Y-3794598D02*
D03*
X1083961Y-3987512D02*
D03*
X1740000Y1330000D02*
D03*
X1660000Y1300000D02*
D03*
X1760000Y1250000D02*
D03*
X1795000Y-520000D02*
D03*
X1795000Y2625000D02*
D03*
X-70000Y2475000D02*
D03*
X300000Y2510000D02*
D03*
X505000Y2505000D02*
D03*
%TF.MD5,58db7b12f426687813df6767cda79ac6*%
M02*
