G04 Layer_Color=8421504*
%FSLAX26Y26*%
%MOIN*%
%TF.FileFunction,Paste,Top*%
%TF.Part,Single*%
G01*
G75*
%TA.AperFunction,SMDPad,CuDef*%
%ADD10R,0.051181X0.033465*%
G04:AMPARAMS|DCode=11|XSize=25.591mil|YSize=47.244mil|CornerRadius=1.919mil|HoleSize=0mil|Usage=FLASHONLY|Rotation=90.000|XOffset=0mil|YOffset=0mil|HoleType=Round|Shape=RoundedRectangle|*
%AMROUNDEDRECTD11*
21,1,0.025591,0.043406,0,0,90.0*
21,1,0.021752,0.047244,0,0,90.0*
1,1,0.003839,0.021703,0.010876*
1,1,0.003839,0.021703,-0.010876*
1,1,0.003839,-0.021703,-0.010876*
1,1,0.003839,-0.021703,0.010876*
%
%ADD11ROUNDEDRECTD11*%
%ADD12R,0.055118X0.041339*%
%ADD13R,0.020472X0.020472*%
%ADD14R,0.045276X0.057087*%
%ADD15R,0.053150X0.061024*%
G04:AMPARAMS|DCode=16|XSize=17.716mil|YSize=55.118mil|CornerRadius=1.949mil|HoleSize=0mil|Usage=FLASHONLY|Rotation=90.000|XOffset=0mil|YOffset=0mil|HoleType=Round|Shape=RoundedRectangle|*
%AMROUNDEDRECTD16*
21,1,0.017716,0.051221,0,0,90.0*
21,1,0.013819,0.055118,0,0,90.0*
1,1,0.003898,0.025610,0.006910*
1,1,0.003898,0.025610,-0.006910*
1,1,0.003898,-0.025610,-0.006910*
1,1,0.003898,-0.025610,0.006910*
%
%ADD16ROUNDEDRECTD16*%
%ADD17R,0.025591X0.033465*%
D10*
X1820000Y1473465D02*
D03*
X1820000Y1406535D02*
D03*
X1690000Y1473465D02*
D03*
X1690000Y1406535D02*
D03*
X1521378Y1473465D02*
D03*
X1521378Y1406535D02*
D03*
X2182386Y-3812316D02*
D03*
X2182386Y-3879244D02*
D03*
X2253252Y-3879244D02*
D03*
X2253252Y-3812316D02*
D03*
X2265063Y-4328062D02*
D03*
X2265063Y-4261134D02*
D03*
X2186323Y-4013102D02*
D03*
X2186323Y-3946172D02*
D03*
X2198134Y-4261133D02*
D03*
X2198134Y-4328063D02*
D03*
X2257190Y-3946174D02*
D03*
X2257190Y-4013102D02*
D03*
D11*
X2145590Y1921078D02*
D03*
X2145590Y1846275D02*
D03*
X2029448Y1846275D02*
D03*
X2029448Y1883676D02*
D03*
X2029448Y1921078D02*
D03*
D12*
X1907519Y1856275D02*
D03*
X1907519Y1931078D02*
D03*
X1907519Y1711275D02*
D03*
X1907519Y1786078D02*
D03*
D13*
X2211771Y1918676D02*
D03*
X2243267Y1918676D02*
D03*
D14*
X1644568Y-3270001D02*
D03*
X1715434Y-3270001D02*
D03*
D15*
X1640630Y-3170001D02*
D03*
X1719370Y-3170001D02*
D03*
D16*
X847779Y1895890D02*
D03*
X847779Y1870300D02*
D03*
X847779Y1844710D02*
D03*
X847779Y1819118D02*
D03*
X847779Y1793528D02*
D03*
X847779Y1767938D02*
D03*
X847779Y1742346D02*
D03*
X1080063Y1895890D02*
D03*
X1080063Y1870300D02*
D03*
X1080063Y1844710D02*
D03*
X1080063Y1819118D02*
D03*
X1080063Y1793528D02*
D03*
X1080063Y1767938D02*
D03*
X1080063Y1742346D02*
D03*
D17*
X1553268Y1938543D02*
D03*
X1586732Y1938543D02*
D03*
X1586732Y1881457D02*
D03*
X1553268Y1881457D02*
D03*
%TF.MD5,54dc4e8492a3720626beba1b15d23e4a*%
M02*
