G04 Layer_Color=2752767*
%FSLAX26Y26*%
%MOIN*%
%TF.FileFunction,Drawing*%
%TF.Part,Single*%
G01*
G75*
%TA.AperFunction,NonConductor*%
%ADD49C,0.005000*%
%ADD108C,0.006667*%
%ADD109C,0.004000*%
D49*
X1150000Y1830000D02*
X1150000Y1870000D01*
X1190000Y1870000D01*
X1190000Y1830000D01*
X1150000Y1830000D01*
X0Y2330000D02*
X-20000Y2370000D01*
X20000Y2370000D01*
X0Y2330000D01*
X0Y-20000D02*
X-20000Y20000D01*
X20000Y20000D01*
X0Y-20000D01*
X2350000Y2330000D02*
X2330000Y2370000D01*
X2370000Y2370000D01*
X2350000Y2330000D01*
X2350000Y-20000D02*
X2330000Y20000D01*
X2370000Y20000D01*
X2350000Y-20000D01*
X568149Y-2378322D02*
X578149Y-2368322D01*
X588149Y-2368322D01*
X578149Y-2358322D01*
X588149Y-2348322D01*
X578149Y-2348322D01*
X568149Y-2338322D01*
X558149Y-2348322D01*
X548149Y-2348322D01*
X558149Y-2358322D01*
X548149Y-2368322D01*
X558149Y-2368322D01*
X568149Y-2378322D01*
X1618149Y-1328322D02*
X1628149Y-1318322D01*
X1638149Y-1318322D01*
X1628149Y-1308322D01*
X1638149Y-1298322D01*
X1628149Y-1298322D01*
X1618149Y-1288322D01*
X1608149Y-1298322D01*
X1598149Y-1298322D01*
X1608149Y-1308322D01*
X1598149Y-1318322D01*
X1608149Y-1318322D01*
X1618149Y-1328322D01*
X1618149Y-2378322D02*
X1628149Y-2368322D01*
X1638149Y-2368322D01*
X1628149Y-2358322D01*
X1638149Y-2348322D01*
X1628149Y-2348322D01*
X1618149Y-2338322D01*
X1608149Y-2348322D01*
X1598149Y-2348322D01*
X1608149Y-2358322D01*
X1598149Y-2368322D01*
X1608149Y-2368322D01*
X1618149Y-2378322D01*
X568149Y-1328322D02*
X578149Y-1318322D01*
X588149Y-1318322D01*
X578149Y-1308322D01*
X588149Y-1298322D01*
X578149Y-1298322D01*
X568149Y-1288322D01*
X558149Y-1298322D01*
X548149Y-1298322D01*
X558149Y-1308322D01*
X548149Y-1318322D01*
X558149Y-1318322D01*
X568149Y-1328322D01*
X200000Y-1042500D02*
X210000Y-1022500D01*
X200000Y-1002500D01*
X220000Y-1012500D01*
X240000Y-1002500D01*
X230000Y-1022500D01*
X240000Y-1042500D01*
X220000Y-1032500D01*
X200000Y-1042500D01*
X2100000Y-1042500D02*
X2110000Y-1022500D01*
X2100000Y-1002500D01*
X2120000Y-1012500D01*
X2140000Y-1002500D01*
X2130000Y-1022500D01*
X2140000Y-1042500D01*
X2120000Y-1032500D01*
X2100000Y-1042500D01*
X1975000Y-3617500D02*
X1985000Y-3597500D01*
X1975000Y-3577500D01*
X1995000Y-3587500D01*
X2015000Y-3577500D01*
X2005000Y-3597500D01*
X2015000Y-3617500D01*
X1995000Y-3607500D01*
X1975000Y-3617500D01*
X325000Y-3617500D02*
X335000Y-3597500D01*
X325000Y-3577500D01*
X345000Y-3587500D01*
X365000Y-3577500D01*
X355000Y-3597500D01*
X365000Y-3617500D01*
X345000Y-3607500D01*
X325000Y-3617500D01*
X260000Y-1232500D02*
X260000Y-1242500D01*
X280000Y-1242500D01*
X280000Y-1232500D01*
X290000Y-1232500D01*
X290000Y-1212500D01*
X280000Y-1212500D01*
X280000Y-1202500D01*
X260000Y-1202500D01*
X260000Y-1212500D01*
X250000Y-1212500D01*
X250000Y-1232500D01*
X260000Y-1232500D01*
X260000Y-1332500D02*
X260000Y-1342500D01*
X280000Y-1342500D01*
X280000Y-1332500D01*
X290000Y-1332500D01*
X290000Y-1312500D01*
X280000Y-1312500D01*
X280000Y-1302500D01*
X260000Y-1302500D01*
X260000Y-1312500D01*
X250000Y-1312500D01*
X250000Y-1332500D01*
X260000Y-1332500D01*
X260000Y-1432500D02*
X260000Y-1442500D01*
X280000Y-1442500D01*
X280000Y-1432500D01*
X290000Y-1432500D01*
X290000Y-1412500D01*
X280000Y-1412500D01*
X280000Y-1402500D01*
X260000Y-1402500D01*
X260000Y-1412500D01*
X250000Y-1412500D01*
X250000Y-1432500D01*
X260000Y-1432500D01*
X260000Y-1532500D02*
X260000Y-1542500D01*
X280000Y-1542500D01*
X280000Y-1532500D01*
X290000Y-1532500D01*
X290000Y-1512500D01*
X280000Y-1512500D01*
X280000Y-1502500D01*
X260000Y-1502500D01*
X260000Y-1512500D01*
X250000Y-1512500D01*
X250000Y-1532500D01*
X260000Y-1532500D01*
X260000Y-1632500D02*
X260000Y-1642500D01*
X280000Y-1642500D01*
X280000Y-1632500D01*
X290000Y-1632500D01*
X290000Y-1612500D01*
X280000Y-1612500D01*
X280000Y-1602500D01*
X260000Y-1602500D01*
X260000Y-1612500D01*
X250000Y-1612500D01*
X250000Y-1632500D01*
X260000Y-1632500D01*
X260000Y-1732500D02*
X260000Y-1742500D01*
X280000Y-1742500D01*
X280000Y-1732500D01*
X290000Y-1732500D01*
X290000Y-1712500D01*
X280000Y-1712500D01*
X280000Y-1702500D01*
X260000Y-1702500D01*
X260000Y-1712500D01*
X250000Y-1712500D01*
X250000Y-1732500D01*
X260000Y-1732500D01*
X260000Y-1832500D02*
X260000Y-1842500D01*
X280000Y-1842500D01*
X280000Y-1832500D01*
X290000Y-1832500D01*
X290000Y-1812500D01*
X280000Y-1812500D01*
X280000Y-1802500D01*
X260000Y-1802500D01*
X260000Y-1812500D01*
X250000Y-1812500D01*
X250000Y-1832500D01*
X260000Y-1832500D01*
X260000Y-1932500D02*
X260000Y-1942500D01*
X280000Y-1942500D01*
X280000Y-1932500D01*
X290000Y-1932500D01*
X290000Y-1912500D01*
X280000Y-1912500D01*
X280000Y-1902500D01*
X260000Y-1902500D01*
X260000Y-1912500D01*
X250000Y-1912500D01*
X250000Y-1932500D01*
X260000Y-1932500D01*
X260000Y-2032500D02*
X260000Y-2042500D01*
X280000Y-2042500D01*
X280000Y-2032500D01*
X290000Y-2032500D01*
X290000Y-2012500D01*
X280000Y-2012500D01*
X280000Y-2002500D01*
X260000Y-2002500D01*
X260000Y-2012500D01*
X250000Y-2012500D01*
X250000Y-2032500D01*
X260000Y-2032500D01*
X260000Y-2132500D02*
X260000Y-2142500D01*
X280000Y-2142500D01*
X280000Y-2132500D01*
X290000Y-2132500D01*
X290000Y-2112500D01*
X280000Y-2112500D01*
X280000Y-2102500D01*
X260000Y-2102500D01*
X260000Y-2112500D01*
X250000Y-2112500D01*
X250000Y-2132500D01*
X260000Y-2132500D01*
X260000Y-2232500D02*
X260000Y-2242500D01*
X280000Y-2242500D01*
X280000Y-2232500D01*
X290000Y-2232500D01*
X290000Y-2212500D01*
X280000Y-2212500D01*
X280000Y-2202500D01*
X260000Y-2202500D01*
X260000Y-2212500D01*
X250000Y-2212500D01*
X250000Y-2232500D01*
X260000Y-2232500D01*
X260000Y-2332500D02*
X260000Y-2342500D01*
X280000Y-2342500D01*
X280000Y-2332500D01*
X290000Y-2332500D01*
X290000Y-2312500D01*
X280000Y-2312500D01*
X280000Y-2302500D01*
X260000Y-2302500D01*
X260000Y-2312500D01*
X250000Y-2312500D01*
X250000Y-2332500D01*
X260000Y-2332500D01*
X260000Y-2432500D02*
X260000Y-2442500D01*
X280000Y-2442500D01*
X280000Y-2432500D01*
X290000Y-2432500D01*
X290000Y-2412500D01*
X280000Y-2412500D01*
X280000Y-2402500D01*
X260000Y-2402500D01*
X260000Y-2412500D01*
X250000Y-2412500D01*
X250000Y-2432500D01*
X260000Y-2432500D01*
X260000Y-2532500D02*
X260000Y-2542500D01*
X280000Y-2542500D01*
X280000Y-2532500D01*
X290000Y-2532500D01*
X290000Y-2512500D01*
X280000Y-2512500D01*
X280000Y-2502500D01*
X260000Y-2502500D01*
X260000Y-2512500D01*
X250000Y-2512500D01*
X250000Y-2532500D01*
X260000Y-2532500D01*
X260000Y-2632500D02*
X260000Y-2642500D01*
X280000Y-2642500D01*
X280000Y-2632500D01*
X290000Y-2632500D01*
X290000Y-2612500D01*
X280000Y-2612500D01*
X280000Y-2602500D01*
X260000Y-2602500D01*
X260000Y-2612500D01*
X250000Y-2612500D01*
X250000Y-2632500D01*
X260000Y-2632500D01*
X260000Y-2732500D02*
X260000Y-2742500D01*
X280000Y-2742500D01*
X280000Y-2732500D01*
X290000Y-2732500D01*
X290000Y-2712500D01*
X280000Y-2712500D01*
X280000Y-2702500D01*
X260000Y-2702500D01*
X260000Y-2712500D01*
X250000Y-2712500D01*
X250000Y-2732500D01*
X260000Y-2732500D01*
X260000Y-2832500D02*
X260000Y-2842500D01*
X280000Y-2842500D01*
X280000Y-2832500D01*
X290000Y-2832500D01*
X290000Y-2812500D01*
X280000Y-2812500D01*
X280000Y-2802500D01*
X260000Y-2802500D01*
X260000Y-2812500D01*
X250000Y-2812500D01*
X250000Y-2832500D01*
X260000Y-2832500D01*
X260000Y-2932500D02*
X260000Y-2942500D01*
X280000Y-2942500D01*
X280000Y-2932500D01*
X290000Y-2932500D01*
X290000Y-2912500D01*
X280000Y-2912500D01*
X280000Y-2902500D01*
X260000Y-2902500D01*
X260000Y-2912500D01*
X250000Y-2912500D01*
X250000Y-2932500D01*
X260000Y-2932500D01*
X260000Y-3032500D02*
X260000Y-3042500D01*
X280000Y-3042500D01*
X280000Y-3032500D01*
X290000Y-3032500D01*
X290000Y-3012500D01*
X280000Y-3012500D01*
X280000Y-3002500D01*
X260000Y-3002500D01*
X260000Y-3012500D01*
X250000Y-3012500D01*
X250000Y-3032500D01*
X260000Y-3032500D01*
X260000Y-3132500D02*
X260000Y-3142500D01*
X280000Y-3142500D01*
X280000Y-3132500D01*
X290000Y-3132500D01*
X290000Y-3112500D01*
X280000Y-3112500D01*
X280000Y-3102500D01*
X260000Y-3102500D01*
X260000Y-3112500D01*
X250000Y-3112500D01*
X250000Y-3132500D01*
X260000Y-3132500D01*
X260000Y-3232500D02*
X260000Y-3242500D01*
X280000Y-3242500D01*
X280000Y-3232500D01*
X290000Y-3232500D01*
X290000Y-3212500D01*
X280000Y-3212500D01*
X280000Y-3202500D01*
X260000Y-3202500D01*
X260000Y-3212500D01*
X250000Y-3212500D01*
X250000Y-3232500D01*
X260000Y-3232500D01*
X260000Y-3332500D02*
X260000Y-3342500D01*
X280000Y-3342500D01*
X280000Y-3332500D01*
X290000Y-3332500D01*
X290000Y-3312500D01*
X280000Y-3312500D01*
X280000Y-3302500D01*
X260000Y-3302500D01*
X260000Y-3312500D01*
X250000Y-3312500D01*
X250000Y-3332500D01*
X260000Y-3332500D01*
X260000Y-3432500D02*
X260000Y-3442500D01*
X280000Y-3442500D01*
X280000Y-3432500D01*
X290000Y-3432500D01*
X290000Y-3412500D01*
X280000Y-3412500D01*
X280000Y-3402500D01*
X260000Y-3402500D01*
X260000Y-3412500D01*
X250000Y-3412500D01*
X250000Y-3432500D01*
X260000Y-3432500D01*
X160000Y-1332500D02*
X160000Y-1342500D01*
X180000Y-1342500D01*
X180000Y-1332500D01*
X190000Y-1332500D01*
X190000Y-1312500D01*
X180000Y-1312500D01*
X180000Y-1302500D01*
X160000Y-1302500D01*
X160000Y-1312500D01*
X150000Y-1312500D01*
X150000Y-1332500D01*
X160000Y-1332500D01*
X160000Y-1432500D02*
X160000Y-1442500D01*
X180000Y-1442500D01*
X180000Y-1432500D01*
X190000Y-1432500D01*
X190000Y-1412500D01*
X180000Y-1412500D01*
X180000Y-1402500D01*
X160000Y-1402500D01*
X160000Y-1412500D01*
X150000Y-1412500D01*
X150000Y-1432500D01*
X160000Y-1432500D01*
X160000Y-1532500D02*
X160000Y-1542500D01*
X180000Y-1542500D01*
X180000Y-1532500D01*
X190000Y-1532500D01*
X190000Y-1512500D01*
X180000Y-1512500D01*
X180000Y-1502500D01*
X160000Y-1502500D01*
X160000Y-1512500D01*
X150000Y-1512500D01*
X150000Y-1532500D01*
X160000Y-1532500D01*
X160000Y-1632500D02*
X160000Y-1642500D01*
X180000Y-1642500D01*
X180000Y-1632500D01*
X190000Y-1632500D01*
X190000Y-1612500D01*
X180000Y-1612500D01*
X180000Y-1602500D01*
X160000Y-1602500D01*
X160000Y-1612500D01*
X150000Y-1612500D01*
X150000Y-1632500D01*
X160000Y-1632500D01*
X160000Y-1732500D02*
X160000Y-1742500D01*
X180000Y-1742500D01*
X180000Y-1732500D01*
X190000Y-1732500D01*
X190000Y-1712500D01*
X180000Y-1712500D01*
X180000Y-1702500D01*
X160000Y-1702500D01*
X160000Y-1712500D01*
X150000Y-1712500D01*
X150000Y-1732500D01*
X160000Y-1732500D01*
X160000Y-1832500D02*
X160000Y-1842500D01*
X180000Y-1842500D01*
X180000Y-1832500D01*
X190000Y-1832500D01*
X190000Y-1812500D01*
X180000Y-1812500D01*
X180000Y-1802500D01*
X160000Y-1802500D01*
X160000Y-1812500D01*
X150000Y-1812500D01*
X150000Y-1832500D01*
X160000Y-1832500D01*
X160000Y-1932500D02*
X160000Y-1942500D01*
X180000Y-1942500D01*
X180000Y-1932500D01*
X190000Y-1932500D01*
X190000Y-1912500D01*
X180000Y-1912500D01*
X180000Y-1902500D01*
X160000Y-1902500D01*
X160000Y-1912500D01*
X150000Y-1912500D01*
X150000Y-1932500D01*
X160000Y-1932500D01*
X160000Y-2032500D02*
X160000Y-2042500D01*
X180000Y-2042500D01*
X180000Y-2032500D01*
X190000Y-2032500D01*
X190000Y-2012500D01*
X180000Y-2012500D01*
X180000Y-2002500D01*
X160000Y-2002500D01*
X160000Y-2012500D01*
X150000Y-2012500D01*
X150000Y-2032500D01*
X160000Y-2032500D01*
X160000Y-2132500D02*
X160000Y-2142500D01*
X180000Y-2142500D01*
X180000Y-2132500D01*
X190000Y-2132500D01*
X190000Y-2112500D01*
X180000Y-2112500D01*
X180000Y-2102500D01*
X160000Y-2102500D01*
X160000Y-2112500D01*
X150000Y-2112500D01*
X150000Y-2132500D01*
X160000Y-2132500D01*
X160000Y-2232500D02*
X160000Y-2242500D01*
X180000Y-2242500D01*
X180000Y-2232500D01*
X190000Y-2232500D01*
X190000Y-2212500D01*
X180000Y-2212500D01*
X180000Y-2202500D01*
X160000Y-2202500D01*
X160000Y-2212500D01*
X150000Y-2212500D01*
X150000Y-2232500D01*
X160000Y-2232500D01*
X160000Y-2332500D02*
X160000Y-2342500D01*
X180000Y-2342500D01*
X180000Y-2332500D01*
X190000Y-2332500D01*
X190000Y-2312500D01*
X180000Y-2312500D01*
X180000Y-2302500D01*
X160000Y-2302500D01*
X160000Y-2312500D01*
X150000Y-2312500D01*
X150000Y-2332500D01*
X160000Y-2332500D01*
X160000Y-2432500D02*
X160000Y-2442500D01*
X180000Y-2442500D01*
X180000Y-2432500D01*
X190000Y-2432500D01*
X190000Y-2412500D01*
X180000Y-2412500D01*
X180000Y-2402500D01*
X160000Y-2402500D01*
X160000Y-2412500D01*
X150000Y-2412500D01*
X150000Y-2432500D01*
X160000Y-2432500D01*
X160000Y-2532500D02*
X160000Y-2542500D01*
X180000Y-2542500D01*
X180000Y-2532500D01*
X190000Y-2532500D01*
X190000Y-2512500D01*
X180000Y-2512500D01*
X180000Y-2502500D01*
X160000Y-2502500D01*
X160000Y-2512500D01*
X150000Y-2512500D01*
X150000Y-2532500D01*
X160000Y-2532500D01*
X160000Y-2632500D02*
X160000Y-2642500D01*
X180000Y-2642500D01*
X180000Y-2632500D01*
X190000Y-2632500D01*
X190000Y-2612500D01*
X180000Y-2612500D01*
X180000Y-2602500D01*
X160000Y-2602500D01*
X160000Y-2612500D01*
X150000Y-2612500D01*
X150000Y-2632500D01*
X160000Y-2632500D01*
X160000Y-2732500D02*
X160000Y-2742500D01*
X180000Y-2742500D01*
X180000Y-2732500D01*
X190000Y-2732500D01*
X190000Y-2712500D01*
X180000Y-2712500D01*
X180000Y-2702500D01*
X160000Y-2702500D01*
X160000Y-2712500D01*
X150000Y-2712500D01*
X150000Y-2732500D01*
X160000Y-2732500D01*
X160000Y-2832500D02*
X160000Y-2842500D01*
X180000Y-2842500D01*
X180000Y-2832500D01*
X190000Y-2832500D01*
X190000Y-2812500D01*
X180000Y-2812500D01*
X180000Y-2802500D01*
X160000Y-2802500D01*
X160000Y-2812500D01*
X150000Y-2812500D01*
X150000Y-2832500D01*
X160000Y-2832500D01*
X160000Y-2932500D02*
X160000Y-2942500D01*
X180000Y-2942500D01*
X180000Y-2932500D01*
X190000Y-2932500D01*
X190000Y-2912500D01*
X180000Y-2912500D01*
X180000Y-2902500D01*
X160000Y-2902500D01*
X160000Y-2912500D01*
X150000Y-2912500D01*
X150000Y-2932500D01*
X160000Y-2932500D01*
X160000Y-3032500D02*
X160000Y-3042500D01*
X180000Y-3042500D01*
X180000Y-3032500D01*
X190000Y-3032500D01*
X190000Y-3012500D01*
X180000Y-3012500D01*
X180000Y-3002500D01*
X160000Y-3002500D01*
X160000Y-3012500D01*
X150000Y-3012500D01*
X150000Y-3032500D01*
X160000Y-3032500D01*
X160000Y-3132500D02*
X160000Y-3142500D01*
X180000Y-3142500D01*
X180000Y-3132500D01*
X190000Y-3132500D01*
X190000Y-3112500D01*
X180000Y-3112500D01*
X180000Y-3102500D01*
X160000Y-3102500D01*
X160000Y-3112500D01*
X150000Y-3112500D01*
X150000Y-3132500D01*
X160000Y-3132500D01*
X160000Y-3232500D02*
X160000Y-3242500D01*
X180000Y-3242500D01*
X180000Y-3232500D01*
X190000Y-3232500D01*
X190000Y-3212500D01*
X180000Y-3212500D01*
X180000Y-3202500D01*
X160000Y-3202500D01*
X160000Y-3212500D01*
X150000Y-3212500D01*
X150000Y-3232500D01*
X160000Y-3232500D01*
X160000Y-3332500D02*
X160000Y-3342500D01*
X180000Y-3342500D01*
X180000Y-3332500D01*
X190000Y-3332500D01*
X190000Y-3312500D01*
X180000Y-3312500D01*
X180000Y-3302500D01*
X160000Y-3302500D01*
X160000Y-3312500D01*
X150000Y-3312500D01*
X150000Y-3332500D01*
X160000Y-3332500D01*
X160000Y-3432500D02*
X160000Y-3442500D01*
X180000Y-3442500D01*
X180000Y-3432500D01*
X190000Y-3432500D01*
X190000Y-3412500D01*
X180000Y-3412500D01*
X180000Y-3402500D01*
X160000Y-3402500D01*
X160000Y-3412500D01*
X150000Y-3412500D01*
X150000Y-3432500D01*
X160000Y-3432500D01*
X2060000Y-1232500D02*
X2060000Y-1242500D01*
X2080000Y-1242500D01*
X2080000Y-1232500D01*
X2090000Y-1232500D01*
X2090000Y-1212500D01*
X2080000Y-1212500D01*
X2080000Y-1202500D01*
X2060000Y-1202500D01*
X2060000Y-1212500D01*
X2050000Y-1212500D01*
X2050000Y-1232500D01*
X2060000Y-1232500D01*
X2160000Y-1232500D02*
X2160000Y-1242500D01*
X2180000Y-1242500D01*
X2180000Y-1232500D01*
X2190000Y-1232500D01*
X2190000Y-1212500D01*
X2180000Y-1212500D01*
X2180000Y-1202500D01*
X2160000Y-1202500D01*
X2160000Y-1212500D01*
X2150000Y-1212500D01*
X2150000Y-1232500D01*
X2160000Y-1232500D01*
X2160000Y-1332500D02*
X2160000Y-1342500D01*
X2180000Y-1342500D01*
X2180000Y-1332500D01*
X2190000Y-1332500D01*
X2190000Y-1312500D01*
X2180000Y-1312500D01*
X2180000Y-1302500D01*
X2160000Y-1302500D01*
X2160000Y-1312500D01*
X2150000Y-1312500D01*
X2150000Y-1332500D01*
X2160000Y-1332500D01*
X2160000Y-1432500D02*
X2160000Y-1442500D01*
X2180000Y-1442500D01*
X2180000Y-1432500D01*
X2190000Y-1432500D01*
X2190000Y-1412500D01*
X2180000Y-1412500D01*
X2180000Y-1402500D01*
X2160000Y-1402500D01*
X2160000Y-1412500D01*
X2150000Y-1412500D01*
X2150000Y-1432500D01*
X2160000Y-1432500D01*
X2160000Y-1532500D02*
X2160000Y-1542500D01*
X2180000Y-1542500D01*
X2180000Y-1532500D01*
X2190000Y-1532500D01*
X2190000Y-1512500D01*
X2180000Y-1512500D01*
X2180000Y-1502500D01*
X2160000Y-1502500D01*
X2160000Y-1512500D01*
X2150000Y-1512500D01*
X2150000Y-1532500D01*
X2160000Y-1532500D01*
X2160000Y-1632500D02*
X2160000Y-1642500D01*
X2180000Y-1642500D01*
X2180000Y-1632500D01*
X2190000Y-1632500D01*
X2190000Y-1612500D01*
X2180000Y-1612500D01*
X2180000Y-1602500D01*
X2160000Y-1602500D01*
X2160000Y-1612500D01*
X2150000Y-1612500D01*
X2150000Y-1632500D01*
X2160000Y-1632500D01*
X2160000Y-1732500D02*
X2160000Y-1742500D01*
X2180000Y-1742500D01*
X2180000Y-1732500D01*
X2190000Y-1732500D01*
X2190000Y-1712500D01*
X2180000Y-1712500D01*
X2180000Y-1702500D01*
X2160000Y-1702500D01*
X2160000Y-1712500D01*
X2150000Y-1712500D01*
X2150000Y-1732500D01*
X2160000Y-1732500D01*
X2160000Y-1832500D02*
X2160000Y-1842500D01*
X2180000Y-1842500D01*
X2180000Y-1832500D01*
X2190000Y-1832500D01*
X2190000Y-1812500D01*
X2180000Y-1812500D01*
X2180000Y-1802500D01*
X2160000Y-1802500D01*
X2160000Y-1812500D01*
X2150000Y-1812500D01*
X2150000Y-1832500D01*
X2160000Y-1832500D01*
X2160000Y-1932500D02*
X2160000Y-1942500D01*
X2180000Y-1942500D01*
X2180000Y-1932500D01*
X2190000Y-1932500D01*
X2190000Y-1912500D01*
X2180000Y-1912500D01*
X2180000Y-1902500D01*
X2160000Y-1902500D01*
X2160000Y-1912500D01*
X2150000Y-1912500D01*
X2150000Y-1932500D01*
X2160000Y-1932500D01*
X2160000Y-2032500D02*
X2160000Y-2042500D01*
X2180000Y-2042500D01*
X2180000Y-2032500D01*
X2190000Y-2032500D01*
X2190000Y-2012500D01*
X2180000Y-2012500D01*
X2180000Y-2002500D01*
X2160000Y-2002500D01*
X2160000Y-2012500D01*
X2150000Y-2012500D01*
X2150000Y-2032500D01*
X2160000Y-2032500D01*
X2160000Y-2132500D02*
X2160000Y-2142500D01*
X2180000Y-2142500D01*
X2180000Y-2132500D01*
X2190000Y-2132500D01*
X2190000Y-2112500D01*
X2180000Y-2112500D01*
X2180000Y-2102500D01*
X2160000Y-2102500D01*
X2160000Y-2112500D01*
X2150000Y-2112500D01*
X2150000Y-2132500D01*
X2160000Y-2132500D01*
X2160000Y-2232500D02*
X2160000Y-2242500D01*
X2180000Y-2242500D01*
X2180000Y-2232500D01*
X2190000Y-2232500D01*
X2190000Y-2212500D01*
X2180000Y-2212500D01*
X2180000Y-2202500D01*
X2160000Y-2202500D01*
X2160000Y-2212500D01*
X2150000Y-2212500D01*
X2150000Y-2232500D01*
X2160000Y-2232500D01*
X2160000Y-2332500D02*
X2160000Y-2342500D01*
X2180000Y-2342500D01*
X2180000Y-2332500D01*
X2190000Y-2332500D01*
X2190000Y-2312500D01*
X2180000Y-2312500D01*
X2180000Y-2302500D01*
X2160000Y-2302500D01*
X2160000Y-2312500D01*
X2150000Y-2312500D01*
X2150000Y-2332500D01*
X2160000Y-2332500D01*
X2160000Y-2432500D02*
X2160000Y-2442500D01*
X2180000Y-2442500D01*
X2180000Y-2432500D01*
X2190000Y-2432500D01*
X2190000Y-2412500D01*
X2180000Y-2412500D01*
X2180000Y-2402500D01*
X2160000Y-2402500D01*
X2160000Y-2412500D01*
X2150000Y-2412500D01*
X2150000Y-2432500D01*
X2160000Y-2432500D01*
X2160000Y-2532500D02*
X2160000Y-2542500D01*
X2180000Y-2542500D01*
X2180000Y-2532500D01*
X2190000Y-2532500D01*
X2190000Y-2512500D01*
X2180000Y-2512500D01*
X2180000Y-2502500D01*
X2160000Y-2502500D01*
X2160000Y-2512500D01*
X2150000Y-2512500D01*
X2150000Y-2532500D01*
X2160000Y-2532500D01*
X2160000Y-2632500D02*
X2160000Y-2642500D01*
X2180000Y-2642500D01*
X2180000Y-2632500D01*
X2190000Y-2632500D01*
X2190000Y-2612500D01*
X2180000Y-2612500D01*
X2180000Y-2602500D01*
X2160000Y-2602500D01*
X2160000Y-2612500D01*
X2150000Y-2612500D01*
X2150000Y-2632500D01*
X2160000Y-2632500D01*
X2160000Y-2732500D02*
X2160000Y-2742500D01*
X2180000Y-2742500D01*
X2180000Y-2732500D01*
X2190000Y-2732500D01*
X2190000Y-2712500D01*
X2180000Y-2712500D01*
X2180000Y-2702500D01*
X2160000Y-2702500D01*
X2160000Y-2712500D01*
X2150000Y-2712500D01*
X2150000Y-2732500D01*
X2160000Y-2732500D01*
X2160000Y-2832500D02*
X2160000Y-2842500D01*
X2180000Y-2842500D01*
X2180000Y-2832500D01*
X2190000Y-2832500D01*
X2190000Y-2812500D01*
X2180000Y-2812500D01*
X2180000Y-2802500D01*
X2160000Y-2802500D01*
X2160000Y-2812500D01*
X2150000Y-2812500D01*
X2150000Y-2832500D01*
X2160000Y-2832500D01*
X2160000Y-2932500D02*
X2160000Y-2942500D01*
X2180000Y-2942500D01*
X2180000Y-2932500D01*
X2190000Y-2932500D01*
X2190000Y-2912500D01*
X2180000Y-2912500D01*
X2180000Y-2902500D01*
X2160000Y-2902500D01*
X2160000Y-2912500D01*
X2150000Y-2912500D01*
X2150000Y-2932500D01*
X2160000Y-2932500D01*
X2160000Y-3032500D02*
X2160000Y-3042500D01*
X2180000Y-3042500D01*
X2180000Y-3032500D01*
X2190000Y-3032500D01*
X2190000Y-3012500D01*
X2180000Y-3012500D01*
X2180000Y-3002500D01*
X2160000Y-3002500D01*
X2160000Y-3012500D01*
X2150000Y-3012500D01*
X2150000Y-3032500D01*
X2160000Y-3032500D01*
X2160000Y-3132500D02*
X2160000Y-3142500D01*
X2180000Y-3142500D01*
X2180000Y-3132500D01*
X2190000Y-3132500D01*
X2190000Y-3112500D01*
X2180000Y-3112500D01*
X2180000Y-3102500D01*
X2160000Y-3102500D01*
X2160000Y-3112500D01*
X2150000Y-3112500D01*
X2150000Y-3132500D01*
X2160000Y-3132500D01*
X2160000Y-3232500D02*
X2160000Y-3242500D01*
X2180000Y-3242500D01*
X2180000Y-3232500D01*
X2190000Y-3232500D01*
X2190000Y-3212500D01*
X2180000Y-3212500D01*
X2180000Y-3202500D01*
X2160000Y-3202500D01*
X2160000Y-3212500D01*
X2150000Y-3212500D01*
X2150000Y-3232500D01*
X2160000Y-3232500D01*
X2160000Y-3332500D02*
X2160000Y-3342500D01*
X2180000Y-3342500D01*
X2180000Y-3332500D01*
X2190000Y-3332500D01*
X2190000Y-3312500D01*
X2180000Y-3312500D01*
X2180000Y-3302500D01*
X2160000Y-3302500D01*
X2160000Y-3312500D01*
X2150000Y-3312500D01*
X2150000Y-3332500D01*
X2160000Y-3332500D01*
X2160000Y-3432500D02*
X2160000Y-3442500D01*
X2180000Y-3442500D01*
X2180000Y-3432500D01*
X2190000Y-3432500D01*
X2190000Y-3412500D01*
X2180000Y-3412500D01*
X2180000Y-3402500D01*
X2160000Y-3402500D01*
X2160000Y-3412500D01*
X2150000Y-3412500D01*
X2150000Y-3432500D01*
X2160000Y-3432500D01*
X2060000Y-1332500D02*
X2060000Y-1342500D01*
X2080000Y-1342500D01*
X2080000Y-1332500D01*
X2090000Y-1332500D01*
X2090000Y-1312500D01*
X2080000Y-1312500D01*
X2080000Y-1302500D01*
X2060000Y-1302500D01*
X2060000Y-1312500D01*
X2050000Y-1312500D01*
X2050000Y-1332500D01*
X2060000Y-1332500D01*
X2060000Y-1432500D02*
X2060000Y-1442500D01*
X2080000Y-1442500D01*
X2080000Y-1432500D01*
X2090000Y-1432500D01*
X2090000Y-1412500D01*
X2080000Y-1412500D01*
X2080000Y-1402500D01*
X2060000Y-1402500D01*
X2060000Y-1412500D01*
X2050000Y-1412500D01*
X2050000Y-1432500D01*
X2060000Y-1432500D01*
X2060000Y-1532500D02*
X2060000Y-1542500D01*
X2080000Y-1542500D01*
X2080000Y-1532500D01*
X2090000Y-1532500D01*
X2090000Y-1512500D01*
X2080000Y-1512500D01*
X2080000Y-1502500D01*
X2060000Y-1502500D01*
X2060000Y-1512500D01*
X2050000Y-1512500D01*
X2050000Y-1532500D01*
X2060000Y-1532500D01*
X2060000Y-1632500D02*
X2060000Y-1642500D01*
X2080000Y-1642500D01*
X2080000Y-1632500D01*
X2090000Y-1632500D01*
X2090000Y-1612500D01*
X2080000Y-1612500D01*
X2080000Y-1602500D01*
X2060000Y-1602500D01*
X2060000Y-1612500D01*
X2050000Y-1612500D01*
X2050000Y-1632500D01*
X2060000Y-1632500D01*
X2060000Y-1732500D02*
X2060000Y-1742500D01*
X2080000Y-1742500D01*
X2080000Y-1732500D01*
X2090000Y-1732500D01*
X2090000Y-1712500D01*
X2080000Y-1712500D01*
X2080000Y-1702500D01*
X2060000Y-1702500D01*
X2060000Y-1712500D01*
X2050000Y-1712500D01*
X2050000Y-1732500D01*
X2060000Y-1732500D01*
X2060000Y-1832500D02*
X2060000Y-1842500D01*
X2080000Y-1842500D01*
X2080000Y-1832500D01*
X2090000Y-1832500D01*
X2090000Y-1812500D01*
X2080000Y-1812500D01*
X2080000Y-1802500D01*
X2060000Y-1802500D01*
X2060000Y-1812500D01*
X2050000Y-1812500D01*
X2050000Y-1832500D01*
X2060000Y-1832500D01*
X2060000Y-1932500D02*
X2060000Y-1942500D01*
X2080000Y-1942500D01*
X2080000Y-1932500D01*
X2090000Y-1932500D01*
X2090000Y-1912500D01*
X2080000Y-1912500D01*
X2080000Y-1902500D01*
X2060000Y-1902500D01*
X2060000Y-1912500D01*
X2050000Y-1912500D01*
X2050000Y-1932500D01*
X2060000Y-1932500D01*
X2060000Y-2032500D02*
X2060000Y-2042500D01*
X2080000Y-2042500D01*
X2080000Y-2032500D01*
X2090000Y-2032500D01*
X2090000Y-2012500D01*
X2080000Y-2012500D01*
X2080000Y-2002500D01*
X2060000Y-2002500D01*
X2060000Y-2012500D01*
X2050000Y-2012500D01*
X2050000Y-2032500D01*
X2060000Y-2032500D01*
X2060000Y-2132500D02*
X2060000Y-2142500D01*
X2080000Y-2142500D01*
X2080000Y-2132500D01*
X2090000Y-2132500D01*
X2090000Y-2112500D01*
X2080000Y-2112500D01*
X2080000Y-2102500D01*
X2060000Y-2102500D01*
X2060000Y-2112500D01*
X2050000Y-2112500D01*
X2050000Y-2132500D01*
X2060000Y-2132500D01*
X2060000Y-2232500D02*
X2060000Y-2242500D01*
X2080000Y-2242500D01*
X2080000Y-2232500D01*
X2090000Y-2232500D01*
X2090000Y-2212500D01*
X2080000Y-2212500D01*
X2080000Y-2202500D01*
X2060000Y-2202500D01*
X2060000Y-2212500D01*
X2050000Y-2212500D01*
X2050000Y-2232500D01*
X2060000Y-2232500D01*
X2060000Y-2332500D02*
X2060000Y-2342500D01*
X2080000Y-2342500D01*
X2080000Y-2332500D01*
X2090000Y-2332500D01*
X2090000Y-2312500D01*
X2080000Y-2312500D01*
X2080000Y-2302500D01*
X2060000Y-2302500D01*
X2060000Y-2312500D01*
X2050000Y-2312500D01*
X2050000Y-2332500D01*
X2060000Y-2332500D01*
X2060000Y-2432500D02*
X2060000Y-2442500D01*
X2080000Y-2442500D01*
X2080000Y-2432500D01*
X2090000Y-2432500D01*
X2090000Y-2412500D01*
X2080000Y-2412500D01*
X2080000Y-2402500D01*
X2060000Y-2402500D01*
X2060000Y-2412500D01*
X2050000Y-2412500D01*
X2050000Y-2432500D01*
X2060000Y-2432500D01*
X2060000Y-2532500D02*
X2060000Y-2542500D01*
X2080000Y-2542500D01*
X2080000Y-2532500D01*
X2090000Y-2532500D01*
X2090000Y-2512500D01*
X2080000Y-2512500D01*
X2080000Y-2502500D01*
X2060000Y-2502500D01*
X2060000Y-2512500D01*
X2050000Y-2512500D01*
X2050000Y-2532500D01*
X2060000Y-2532500D01*
X2060000Y-2632500D02*
X2060000Y-2642500D01*
X2080000Y-2642500D01*
X2080000Y-2632500D01*
X2090000Y-2632500D01*
X2090000Y-2612500D01*
X2080000Y-2612500D01*
X2080000Y-2602500D01*
X2060000Y-2602500D01*
X2060000Y-2612500D01*
X2050000Y-2612500D01*
X2050000Y-2632500D01*
X2060000Y-2632500D01*
X2060000Y-2732500D02*
X2060000Y-2742500D01*
X2080000Y-2742500D01*
X2080000Y-2732500D01*
X2090000Y-2732500D01*
X2090000Y-2712500D01*
X2080000Y-2712500D01*
X2080000Y-2702500D01*
X2060000Y-2702500D01*
X2060000Y-2712500D01*
X2050000Y-2712500D01*
X2050000Y-2732500D01*
X2060000Y-2732500D01*
X2060000Y-2832500D02*
X2060000Y-2842500D01*
X2080000Y-2842500D01*
X2080000Y-2832500D01*
X2090000Y-2832500D01*
X2090000Y-2812500D01*
X2080000Y-2812500D01*
X2080000Y-2802500D01*
X2060000Y-2802500D01*
X2060000Y-2812500D01*
X2050000Y-2812500D01*
X2050000Y-2832500D01*
X2060000Y-2832500D01*
X2060000Y-2932500D02*
X2060000Y-2942500D01*
X2080000Y-2942500D01*
X2080000Y-2932500D01*
X2090000Y-2932500D01*
X2090000Y-2912500D01*
X2080000Y-2912500D01*
X2080000Y-2902500D01*
X2060000Y-2902500D01*
X2060000Y-2912500D01*
X2050000Y-2912500D01*
X2050000Y-2932500D01*
X2060000Y-2932500D01*
X2060000Y-3032500D02*
X2060000Y-3042500D01*
X2080000Y-3042500D01*
X2080000Y-3032500D01*
X2090000Y-3032500D01*
X2090000Y-3012500D01*
X2080000Y-3012500D01*
X2080000Y-3002500D01*
X2060000Y-3002500D01*
X2060000Y-3012500D01*
X2050000Y-3012500D01*
X2050000Y-3032500D01*
X2060000Y-3032500D01*
X2060000Y-3132500D02*
X2060000Y-3142500D01*
X2080000Y-3142500D01*
X2080000Y-3132500D01*
X2090000Y-3132500D01*
X2090000Y-3112500D01*
X2080000Y-3112500D01*
X2080000Y-3102500D01*
X2060000Y-3102500D01*
X2060000Y-3112500D01*
X2050000Y-3112500D01*
X2050000Y-3132500D01*
X2060000Y-3132500D01*
X2060000Y-3232500D02*
X2060000Y-3242500D01*
X2080000Y-3242500D01*
X2080000Y-3232500D01*
X2090000Y-3232500D01*
X2090000Y-3212500D01*
X2080000Y-3212500D01*
X2080000Y-3202500D01*
X2060000Y-3202500D01*
X2060000Y-3212500D01*
X2050000Y-3212500D01*
X2050000Y-3232500D01*
X2060000Y-3232500D01*
X2060000Y-3332500D02*
X2060000Y-3342500D01*
X2080000Y-3342500D01*
X2080000Y-3332500D01*
X2090000Y-3332500D01*
X2090000Y-3312500D01*
X2080000Y-3312500D01*
X2080000Y-3302500D01*
X2060000Y-3302500D01*
X2060000Y-3312500D01*
X2050000Y-3312500D01*
X2050000Y-3332500D01*
X2060000Y-3332500D01*
X2060000Y-3432500D02*
X2060000Y-3442500D01*
X2080000Y-3442500D01*
X2080000Y-3432500D01*
X2090000Y-3432500D01*
X2090000Y-3412500D01*
X2080000Y-3412500D01*
X2080000Y-3402500D01*
X2060000Y-3402500D01*
X2060000Y-3412500D01*
X2050000Y-3412500D01*
X2050000Y-3432500D01*
X2060000Y-3432500D01*
X150000Y-1242500D02*
X150000Y-1202500D01*
X190000Y-1202500D01*
X190000Y-1242500D01*
X150000Y-1242500D01*
X80000Y330000D02*
X90000Y330000D01*
X100000Y340000D01*
X110000Y330000D01*
X120000Y330000D01*
X120000Y340000D01*
X110000Y350000D01*
X120000Y360000D01*
X120000Y370000D01*
X110000Y370000D01*
X100000Y360000D01*
X90000Y370000D01*
X80000Y370000D01*
X80000Y360000D01*
X90000Y350000D01*
X80000Y340000D01*
X80000Y330000D01*
X80000Y430000D02*
X90000Y430000D01*
X100000Y440000D01*
X110000Y430000D01*
X120000Y430000D01*
X120000Y440000D01*
X110000Y450000D01*
X120000Y460000D01*
X120000Y470000D01*
X110000Y470000D01*
X100000Y460000D01*
X90000Y470000D01*
X80000Y470000D01*
X80000Y460000D01*
X90000Y450000D01*
X80000Y440000D01*
X80000Y430000D01*
X80000Y530000D02*
X90000Y530000D01*
X100000Y540000D01*
X110000Y530000D01*
X120000Y530000D01*
X120000Y540000D01*
X110000Y550000D01*
X120000Y560000D01*
X120000Y570000D01*
X110000Y570000D01*
X100000Y560000D01*
X90000Y570000D01*
X80000Y570000D01*
X80000Y560000D01*
X90000Y550000D01*
X80000Y540000D01*
X80000Y530000D01*
X-20000Y330000D02*
X-10000Y330000D01*
X0Y340000D01*
X10000Y330000D01*
X20000Y330000D01*
X20000Y340000D01*
X10000Y350000D01*
X20000Y360000D01*
X20000Y370000D01*
X10000Y370000D01*
X0Y360000D01*
X-10000Y370000D01*
X-20000Y370000D01*
X-20000Y360000D01*
X-10000Y350000D01*
X-20000Y340000D01*
X-20000Y330000D01*
X-20000Y430000D02*
X-10000Y430000D01*
X0Y440000D01*
X10000Y430000D01*
X20000Y430000D01*
X20000Y440000D01*
X10000Y450000D01*
X20000Y460000D01*
X20000Y470000D01*
X10000Y470000D01*
X0Y460000D01*
X-10000Y470000D01*
X-20000Y470000D01*
X-20000Y460000D01*
X-10000Y450000D01*
X-20000Y440000D01*
X-20000Y430000D01*
X-20000Y530000D02*
X-10000Y530000D01*
X0Y540000D01*
X10000Y530000D01*
X20000Y530000D01*
X20000Y540000D01*
X10000Y550000D01*
X20000Y560000D01*
X20000Y570000D01*
X10000Y570000D01*
X0Y560000D01*
X-10000Y570000D01*
X-20000Y570000D01*
X-20000Y560000D01*
X-10000Y550000D01*
X-20000Y540000D01*
X-20000Y530000D01*
X80000Y630000D02*
X90000Y630000D01*
X100000Y640000D01*
X110000Y630000D01*
X120000Y630000D01*
X120000Y640000D01*
X110000Y650000D01*
X120000Y660000D01*
X120000Y670000D01*
X110000Y670000D01*
X100000Y660000D01*
X90000Y670000D01*
X80000Y670000D01*
X80000Y660000D01*
X90000Y650000D01*
X80000Y640000D01*
X80000Y630000D01*
X80000Y730000D02*
X90000Y730000D01*
X100000Y740000D01*
X110000Y730000D01*
X120000Y730000D01*
X120000Y740000D01*
X110000Y750000D01*
X120000Y760000D01*
X120000Y770000D01*
X110000Y770000D01*
X100000Y760000D01*
X90000Y770000D01*
X80000Y770000D01*
X80000Y760000D01*
X90000Y750000D01*
X80000Y740000D01*
X80000Y730000D01*
X80000Y830000D02*
X90000Y830000D01*
X100000Y840000D01*
X110000Y830000D01*
X120000Y830000D01*
X120000Y840000D01*
X110000Y850000D01*
X120000Y860000D01*
X120000Y870000D01*
X110000Y870000D01*
X100000Y860000D01*
X90000Y870000D01*
X80000Y870000D01*
X80000Y860000D01*
X90000Y850000D01*
X80000Y840000D01*
X80000Y830000D01*
X80000Y930000D02*
X90000Y930000D01*
X100000Y940000D01*
X110000Y930000D01*
X120000Y930000D01*
X120000Y940000D01*
X110000Y950000D01*
X120000Y960000D01*
X120000Y970000D01*
X110000Y970000D01*
X100000Y960000D01*
X90000Y970000D01*
X80000Y970000D01*
X80000Y960000D01*
X90000Y950000D01*
X80000Y940000D01*
X80000Y930000D01*
X80000Y1030000D02*
X90000Y1030000D01*
X100000Y1040000D01*
X110000Y1030000D01*
X120000Y1030000D01*
X120000Y1040000D01*
X110000Y1050000D01*
X120000Y1060000D01*
X120000Y1070000D01*
X110000Y1070000D01*
X100000Y1060000D01*
X90000Y1070000D01*
X80000Y1070000D01*
X80000Y1060000D01*
X90000Y1050000D01*
X80000Y1040000D01*
X80000Y1030000D01*
X-20000Y630000D02*
X-10000Y630000D01*
X0Y640000D01*
X10000Y630000D01*
X20000Y630000D01*
X20000Y640000D01*
X10000Y650000D01*
X20000Y660000D01*
X20000Y670000D01*
X10000Y670000D01*
X0Y660000D01*
X-10000Y670000D01*
X-20000Y670000D01*
X-20000Y660000D01*
X-10000Y650000D01*
X-20000Y640000D01*
X-20000Y630000D01*
X-20000Y730000D02*
X-10000Y730000D01*
X0Y740000D01*
X10000Y730000D01*
X20000Y730000D01*
X20000Y740000D01*
X10000Y750000D01*
X20000Y760000D01*
X20000Y770000D01*
X10000Y770000D01*
X0Y760000D01*
X-10000Y770000D01*
X-20000Y770000D01*
X-20000Y760000D01*
X-10000Y750000D01*
X-20000Y740000D01*
X-20000Y730000D01*
X-20000Y830000D02*
X-10000Y830000D01*
X0Y840000D01*
X10000Y830000D01*
X20000Y830000D01*
X20000Y840000D01*
X10000Y850000D01*
X20000Y860000D01*
X20000Y870000D01*
X10000Y870000D01*
X0Y860000D01*
X-10000Y870000D01*
X-20000Y870000D01*
X-20000Y860000D01*
X-10000Y850000D01*
X-20000Y840000D01*
X-20000Y830000D01*
X-20000Y930000D02*
X-10000Y930000D01*
X0Y940000D01*
X10000Y930000D01*
X20000Y930000D01*
X20000Y940000D01*
X10000Y950000D01*
X20000Y960000D01*
X20000Y970000D01*
X10000Y970000D01*
X0Y960000D01*
X-10000Y970000D01*
X-20000Y970000D01*
X-20000Y960000D01*
X-10000Y950000D01*
X-20000Y940000D01*
X-20000Y930000D01*
X-20000Y1030000D02*
X-10000Y1030000D01*
X0Y1040000D01*
X10000Y1030000D01*
X20000Y1030000D01*
X20000Y1040000D01*
X10000Y1050000D01*
X20000Y1060000D01*
X20000Y1070000D01*
X10000Y1070000D01*
X0Y1060000D01*
X-10000Y1070000D01*
X-20000Y1070000D01*
X-20000Y1060000D01*
X-10000Y1050000D01*
X-20000Y1040000D01*
X-20000Y1030000D01*
X2380000Y1230000D02*
X2390000Y1230000D01*
X2400000Y1240000D01*
X2410000Y1230000D01*
X2420000Y1230000D01*
X2420000Y1240000D01*
X2410000Y1250000D01*
X2420000Y1260000D01*
X2420000Y1270000D01*
X2410000Y1270000D01*
X2400000Y1260000D01*
X2390000Y1270000D01*
X2380000Y1270000D01*
X2380000Y1260000D01*
X2390000Y1250000D01*
X2380000Y1240000D01*
X2380000Y1230000D01*
X2380000Y1330000D02*
X2390000Y1330000D01*
X2400000Y1340000D01*
X2410000Y1330000D01*
X2420000Y1330000D01*
X2420000Y1340000D01*
X2410000Y1350000D01*
X2420000Y1360000D01*
X2420000Y1370000D01*
X2410000Y1370000D01*
X2400000Y1360000D01*
X2390000Y1370000D01*
X2380000Y1370000D01*
X2380000Y1360000D01*
X2390000Y1350000D01*
X2380000Y1340000D01*
X2380000Y1330000D01*
X2380000Y1430000D02*
X2390000Y1430000D01*
X2400000Y1440000D01*
X2410000Y1430000D01*
X2420000Y1430000D01*
X2420000Y1440000D01*
X2410000Y1450000D01*
X2420000Y1460000D01*
X2420000Y1470000D01*
X2410000Y1470000D01*
X2400000Y1460000D01*
X2390000Y1470000D01*
X2380000Y1470000D01*
X2380000Y1460000D01*
X2390000Y1450000D01*
X2380000Y1440000D01*
X2380000Y1430000D01*
X2280000Y1230000D02*
X2290000Y1230000D01*
X2300000Y1240000D01*
X2310000Y1230000D01*
X2320000Y1230000D01*
X2320000Y1240000D01*
X2310000Y1250000D01*
X2320000Y1260000D01*
X2320000Y1270000D01*
X2310000Y1270000D01*
X2300000Y1260000D01*
X2290000Y1270000D01*
X2280000Y1270000D01*
X2280000Y1260000D01*
X2290000Y1250000D01*
X2280000Y1240000D01*
X2280000Y1230000D01*
X2280000Y1330000D02*
X2290000Y1330000D01*
X2300000Y1340000D01*
X2310000Y1330000D01*
X2320000Y1330000D01*
X2320000Y1340000D01*
X2310000Y1350000D01*
X2320000Y1360000D01*
X2320000Y1370000D01*
X2310000Y1370000D01*
X2300000Y1360000D01*
X2290000Y1370000D01*
X2280000Y1370000D01*
X2280000Y1360000D01*
X2290000Y1350000D01*
X2280000Y1340000D01*
X2280000Y1330000D01*
X2280000Y1430000D02*
X2290000Y1430000D01*
X2300000Y1440000D01*
X2310000Y1430000D01*
X2320000Y1430000D01*
X2320000Y1440000D01*
X2310000Y1450000D01*
X2320000Y1460000D01*
X2320000Y1470000D01*
X2310000Y1470000D01*
X2300000Y1460000D01*
X2290000Y1470000D01*
X2280000Y1470000D01*
X2280000Y1460000D01*
X2290000Y1450000D01*
X2280000Y1440000D01*
X2280000Y1430000D01*
X2380000Y1530000D02*
X2390000Y1530000D01*
X2400000Y1540000D01*
X2410000Y1530000D01*
X2420000Y1530000D01*
X2420000Y1540000D01*
X2410000Y1550000D01*
X2420000Y1560000D01*
X2420000Y1570000D01*
X2410000Y1570000D01*
X2400000Y1560000D01*
X2390000Y1570000D01*
X2380000Y1570000D01*
X2380000Y1560000D01*
X2390000Y1550000D01*
X2380000Y1540000D01*
X2380000Y1530000D01*
X2380000Y1630000D02*
X2390000Y1630000D01*
X2400000Y1640000D01*
X2410000Y1630000D01*
X2420000Y1630000D01*
X2420000Y1640000D01*
X2410000Y1650000D01*
X2420000Y1660000D01*
X2420000Y1670000D01*
X2410000Y1670000D01*
X2400000Y1660000D01*
X2390000Y1670000D01*
X2380000Y1670000D01*
X2380000Y1660000D01*
X2390000Y1650000D01*
X2380000Y1640000D01*
X2380000Y1630000D01*
X2380000Y1730000D02*
X2390000Y1730000D01*
X2400000Y1740000D01*
X2410000Y1730000D01*
X2420000Y1730000D01*
X2420000Y1740000D01*
X2410000Y1750000D01*
X2420000Y1760000D01*
X2420000Y1770000D01*
X2410000Y1770000D01*
X2400000Y1760000D01*
X2390000Y1770000D01*
X2380000Y1770000D01*
X2380000Y1760000D01*
X2390000Y1750000D01*
X2380000Y1740000D01*
X2380000Y1730000D01*
X2380000Y1830000D02*
X2390000Y1830000D01*
X2400000Y1840000D01*
X2410000Y1830000D01*
X2420000Y1830000D01*
X2420000Y1840000D01*
X2410000Y1850000D01*
X2420000Y1860000D01*
X2420000Y1870000D01*
X2410000Y1870000D01*
X2400000Y1860000D01*
X2390000Y1870000D01*
X2380000Y1870000D01*
X2380000Y1860000D01*
X2390000Y1850000D01*
X2380000Y1840000D01*
X2380000Y1830000D01*
X2380000Y1930000D02*
X2390000Y1930000D01*
X2400000Y1940000D01*
X2410000Y1930000D01*
X2420000Y1930000D01*
X2420000Y1940000D01*
X2410000Y1950000D01*
X2420000Y1960000D01*
X2420000Y1970000D01*
X2410000Y1970000D01*
X2400000Y1960000D01*
X2390000Y1970000D01*
X2380000Y1970000D01*
X2380000Y1960000D01*
X2390000Y1950000D01*
X2380000Y1940000D01*
X2380000Y1930000D01*
X2280000Y1530000D02*
X2290000Y1530000D01*
X2300000Y1540000D01*
X2310000Y1530000D01*
X2320000Y1530000D01*
X2320000Y1540000D01*
X2310000Y1550000D01*
X2320000Y1560000D01*
X2320000Y1570000D01*
X2310000Y1570000D01*
X2300000Y1560000D01*
X2290000Y1570000D01*
X2280000Y1570000D01*
X2280000Y1560000D01*
X2290000Y1550000D01*
X2280000Y1540000D01*
X2280000Y1530000D01*
X2280000Y1630000D02*
X2290000Y1630000D01*
X2300000Y1640000D01*
X2310000Y1630000D01*
X2320000Y1630000D01*
X2320000Y1640000D01*
X2310000Y1650000D01*
X2320000Y1660000D01*
X2320000Y1670000D01*
X2310000Y1670000D01*
X2300000Y1660000D01*
X2290000Y1670000D01*
X2280000Y1670000D01*
X2280000Y1660000D01*
X2290000Y1650000D01*
X2280000Y1640000D01*
X2280000Y1630000D01*
X2280000Y1730000D02*
X2290000Y1730000D01*
X2300000Y1740000D01*
X2310000Y1730000D01*
X2320000Y1730000D01*
X2320000Y1740000D01*
X2310000Y1750000D01*
X2320000Y1760000D01*
X2320000Y1770000D01*
X2310000Y1770000D01*
X2300000Y1760000D01*
X2290000Y1770000D01*
X2280000Y1770000D01*
X2280000Y1760000D01*
X2290000Y1750000D01*
X2280000Y1740000D01*
X2280000Y1730000D01*
X2280000Y1830000D02*
X2290000Y1830000D01*
X2300000Y1840000D01*
X2310000Y1830000D01*
X2320000Y1830000D01*
X2320000Y1840000D01*
X2310000Y1850000D01*
X2320000Y1860000D01*
X2320000Y1870000D01*
X2310000Y1870000D01*
X2300000Y1860000D01*
X2290000Y1870000D01*
X2280000Y1870000D01*
X2280000Y1860000D01*
X2290000Y1850000D01*
X2280000Y1840000D01*
X2280000Y1830000D01*
X2280000Y1930000D02*
X2290000Y1930000D01*
X2300000Y1940000D01*
X2310000Y1930000D01*
X2320000Y1930000D01*
X2320000Y1940000D01*
X2310000Y1950000D01*
X2320000Y1960000D01*
X2320000Y1970000D01*
X2310000Y1970000D01*
X2300000Y1960000D01*
X2290000Y1970000D01*
X2280000Y1970000D01*
X2280000Y1960000D01*
X2290000Y1950000D01*
X2280000Y1940000D01*
X2280000Y1930000D01*
X1774197Y1746760D02*
X1794197Y1766760D01*
X1814197Y1746760D01*
X1794197Y1726760D01*
X1774197Y1746760D01*
X1774197Y2819160D02*
X1794197Y2839160D01*
X1814197Y2819160D01*
X1794197Y2799160D01*
X1774197Y2819160D01*
X1774197Y2637260D02*
X1774197Y2677260D01*
X1814197Y2677260D01*
X1814197Y2637260D01*
X1774197Y2637260D01*
X1782197Y2645260D02*
X1782197Y2669260D01*
X1806197Y2669260D01*
X1806197Y2645260D01*
X1782197Y2645260D01*
X1772597Y1888660D02*
X1772597Y1928660D01*
X1812597Y1928660D01*
X1812597Y1888660D01*
X1772597Y1888660D01*
X1780597Y1896660D02*
X1780597Y1920660D01*
X1804597Y1920660D01*
X1804597Y1896660D01*
X1780597Y1896660D01*
X2280000Y280000D02*
X2290000Y280000D01*
X2300000Y290000D01*
X2310000Y280000D01*
X2320000Y280000D01*
X2320000Y290000D01*
X2310000Y300000D01*
X2320000Y310000D01*
X2320000Y320000D01*
X2310000Y320000D01*
X2300000Y310000D01*
X2290000Y320000D01*
X2280000Y320000D01*
X2280000Y310000D01*
X2290000Y300000D01*
X2280000Y290000D01*
X2280000Y280000D01*
X2280000Y380000D02*
X2290000Y380000D01*
X2300000Y390000D01*
X2310000Y380000D01*
X2320000Y380000D01*
X2320000Y390000D01*
X2310000Y400000D01*
X2320000Y410000D01*
X2320000Y420000D01*
X2310000Y420000D01*
X2300000Y410000D01*
X2290000Y420000D01*
X2280000Y420000D01*
X2280000Y410000D01*
X2290000Y400000D01*
X2280000Y390000D01*
X2280000Y380000D01*
X2280000Y480000D02*
X2290000Y480000D01*
X2300000Y490000D01*
X2310000Y480000D01*
X2320000Y480000D01*
X2320000Y490000D01*
X2310000Y500000D01*
X2320000Y510000D01*
X2320000Y520000D01*
X2310000Y520000D01*
X2300000Y510000D01*
X2290000Y520000D01*
X2280000Y520000D01*
X2280000Y510000D01*
X2290000Y500000D01*
X2280000Y490000D01*
X2280000Y480000D01*
X2280000Y580000D02*
X2290000Y580000D01*
X2300000Y590000D01*
X2310000Y580000D01*
X2320000Y580000D01*
X2320000Y590000D01*
X2310000Y600000D01*
X2320000Y610000D01*
X2320000Y620000D01*
X2310000Y620000D01*
X2300000Y610000D01*
X2290000Y620000D01*
X2280000Y620000D01*
X2280000Y610000D01*
X2290000Y600000D01*
X2280000Y590000D01*
X2280000Y580000D01*
X2280000Y680000D02*
X2290000Y680000D01*
X2300000Y690000D01*
X2310000Y680000D01*
X2320000Y680000D01*
X2320000Y690000D01*
X2310000Y700000D01*
X2320000Y710000D01*
X2320000Y720000D01*
X2310000Y720000D01*
X2300000Y710000D01*
X2290000Y720000D01*
X2280000Y720000D01*
X2280000Y710000D01*
X2290000Y700000D01*
X2280000Y690000D01*
X2280000Y680000D01*
X2380000Y280000D02*
X2390000Y280000D01*
X2400000Y290000D01*
X2410000Y280000D01*
X2420000Y280000D01*
X2420000Y290000D01*
X2410000Y300000D01*
X2420000Y310000D01*
X2420000Y320000D01*
X2410000Y320000D01*
X2400000Y310000D01*
X2390000Y320000D01*
X2380000Y320000D01*
X2380000Y310000D01*
X2390000Y300000D01*
X2380000Y290000D01*
X2380000Y280000D01*
X2380000Y380000D02*
X2390000Y380000D01*
X2400000Y390000D01*
X2410000Y380000D01*
X2420000Y380000D01*
X2420000Y390000D01*
X2410000Y400000D01*
X2420000Y410000D01*
X2420000Y420000D01*
X2410000Y420000D01*
X2400000Y410000D01*
X2390000Y420000D01*
X2380000Y420000D01*
X2380000Y410000D01*
X2390000Y400000D01*
X2380000Y390000D01*
X2380000Y380000D01*
X2380000Y480000D02*
X2390000Y480000D01*
X2400000Y490000D01*
X2410000Y480000D01*
X2420000Y480000D01*
X2420000Y490000D01*
X2410000Y500000D01*
X2420000Y510000D01*
X2420000Y520000D01*
X2410000Y520000D01*
X2400000Y510000D01*
X2390000Y520000D01*
X2380000Y520000D01*
X2380000Y510000D01*
X2390000Y500000D01*
X2380000Y490000D01*
X2380000Y480000D01*
X2380000Y580000D02*
X2390000Y580000D01*
X2400000Y590000D01*
X2410000Y580000D01*
X2420000Y580000D01*
X2420000Y590000D01*
X2410000Y600000D01*
X2420000Y610000D01*
X2420000Y620000D01*
X2410000Y620000D01*
X2400000Y610000D01*
X2390000Y620000D01*
X2380000Y620000D01*
X2380000Y610000D01*
X2390000Y600000D01*
X2380000Y590000D01*
X2380000Y580000D01*
X2380000Y680000D02*
X2390000Y680000D01*
X2400000Y690000D01*
X2410000Y680000D01*
X2420000Y680000D01*
X2420000Y690000D01*
X2410000Y700000D01*
X2420000Y710000D01*
X2420000Y720000D01*
X2410000Y720000D01*
X2400000Y710000D01*
X2390000Y720000D01*
X2380000Y720000D01*
X2380000Y710000D01*
X2390000Y700000D01*
X2380000Y690000D01*
X2380000Y680000D01*
X-20000Y1480000D02*
X-10000Y1480000D01*
X0Y1490000D01*
X10000Y1480000D01*
X20000Y1480000D01*
X20000Y1490000D01*
X10000Y1500000D01*
X20000Y1510000D01*
X20000Y1520000D01*
X10000Y1520000D01*
X0Y1510000D01*
X-10000Y1520000D01*
X-20000Y1520000D01*
X-20000Y1510000D01*
X-10000Y1500000D01*
X-20000Y1490000D01*
X-20000Y1480000D01*
X-20000Y1580000D02*
X-10000Y1580000D01*
X0Y1590000D01*
X10000Y1580000D01*
X20000Y1580000D01*
X20000Y1590000D01*
X10000Y1600000D01*
X20000Y1610000D01*
X20000Y1620000D01*
X10000Y1620000D01*
X0Y1610000D01*
X-10000Y1620000D01*
X-20000Y1620000D01*
X-20000Y1610000D01*
X-10000Y1600000D01*
X-20000Y1590000D01*
X-20000Y1580000D01*
X-20000Y1680000D02*
X-10000Y1680000D01*
X0Y1690000D01*
X10000Y1680000D01*
X20000Y1680000D01*
X20000Y1690000D01*
X10000Y1700000D01*
X20000Y1710000D01*
X20000Y1720000D01*
X10000Y1720000D01*
X0Y1710000D01*
X-10000Y1720000D01*
X-20000Y1720000D01*
X-20000Y1710000D01*
X-10000Y1700000D01*
X-20000Y1690000D01*
X-20000Y1680000D01*
X-20000Y1780000D02*
X-10000Y1780000D01*
X0Y1790000D01*
X10000Y1780000D01*
X20000Y1780000D01*
X20000Y1790000D01*
X10000Y1800000D01*
X20000Y1810000D01*
X20000Y1820000D01*
X10000Y1820000D01*
X0Y1810000D01*
X-10000Y1820000D01*
X-20000Y1820000D01*
X-20000Y1810000D01*
X-10000Y1800000D01*
X-20000Y1790000D01*
X-20000Y1780000D01*
X-20000Y1880000D02*
X-10000Y1880000D01*
X0Y1890000D01*
X10000Y1880000D01*
X20000Y1880000D01*
X20000Y1890000D01*
X10000Y1900000D01*
X20000Y1910000D01*
X20000Y1920000D01*
X10000Y1920000D01*
X0Y1910000D01*
X-10000Y1920000D01*
X-20000Y1920000D01*
X-20000Y1910000D01*
X-10000Y1900000D01*
X-20000Y1890000D01*
X-20000Y1880000D01*
X80000Y1480000D02*
X90000Y1480000D01*
X100000Y1490000D01*
X110000Y1480000D01*
X120000Y1480000D01*
X120000Y1490000D01*
X110000Y1500000D01*
X120000Y1510000D01*
X120000Y1520000D01*
X110000Y1520000D01*
X100000Y1510000D01*
X90000Y1520000D01*
X80000Y1520000D01*
X80000Y1510000D01*
X90000Y1500000D01*
X80000Y1490000D01*
X80000Y1480000D01*
X80000Y1580000D02*
X90000Y1580000D01*
X100000Y1590000D01*
X110000Y1580000D01*
X120000Y1580000D01*
X120000Y1590000D01*
X110000Y1600000D01*
X120000Y1610000D01*
X120000Y1620000D01*
X110000Y1620000D01*
X100000Y1610000D01*
X90000Y1620000D01*
X80000Y1620000D01*
X80000Y1610000D01*
X90000Y1600000D01*
X80000Y1590000D01*
X80000Y1580000D01*
X80000Y1680000D02*
X90000Y1680000D01*
X100000Y1690000D01*
X110000Y1680000D01*
X120000Y1680000D01*
X120000Y1690000D01*
X110000Y1700000D01*
X120000Y1710000D01*
X120000Y1720000D01*
X110000Y1720000D01*
X100000Y1710000D01*
X90000Y1720000D01*
X80000Y1720000D01*
X80000Y1710000D01*
X90000Y1700000D01*
X80000Y1690000D01*
X80000Y1680000D01*
X80000Y1780000D02*
X90000Y1780000D01*
X100000Y1790000D01*
X110000Y1780000D01*
X120000Y1780000D01*
X120000Y1790000D01*
X110000Y1800000D01*
X120000Y1810000D01*
X120000Y1820000D01*
X110000Y1820000D01*
X100000Y1810000D01*
X90000Y1820000D01*
X80000Y1820000D01*
X80000Y1810000D01*
X90000Y1800000D01*
X80000Y1790000D01*
X80000Y1780000D01*
X80000Y1880000D02*
X90000Y1880000D01*
X100000Y1890000D01*
X110000Y1880000D01*
X120000Y1880000D01*
X120000Y1890000D01*
X110000Y1900000D01*
X120000Y1910000D01*
X120000Y1920000D01*
X110000Y1920000D01*
X100000Y1910000D01*
X90000Y1920000D01*
X80000Y1920000D01*
X80000Y1910000D01*
X90000Y1900000D01*
X80000Y1890000D01*
X80000Y1880000D01*
X740000Y2640000D02*
X720000Y2680000D01*
X760000Y2680000D01*
X740000Y2640000D01*
X740000Y2648000D02*
X728000Y2672000D01*
X752000Y2672000D01*
X740000Y2648000D01*
X630000Y3030000D02*
X610000Y3070000D01*
X650000Y3070000D01*
X630000Y3030000D01*
X630000Y3038000D02*
X618000Y3062000D01*
X642000Y3062000D01*
X630000Y3038000D01*
X1900000Y520000D02*
X1910000Y530000D01*
X1920000Y530000D01*
X1910000Y540000D01*
X1920000Y550000D01*
X1910000Y550000D01*
X1900000Y560000D01*
X1890000Y550000D01*
X1880000Y550000D01*
X1890000Y540000D01*
X1880000Y530000D01*
X1890000Y530000D01*
X1900000Y520000D01*
X1900000Y528000D02*
X1906000Y534000D01*
X1912000Y534000D01*
X1906000Y540000D01*
X1912000Y546000D01*
X1906000Y546000D01*
X1900000Y552000D01*
X1894000Y546000D01*
X1888000Y546000D01*
X1894000Y540000D01*
X1888000Y534000D01*
X1894000Y534000D01*
X1900000Y528000D01*
X1510000Y-70000D02*
X1490000Y-30000D01*
X1530000Y-30000D01*
X1510000Y-70000D01*
X1510000Y-62000D02*
X1498000Y-38000D01*
X1522000Y-38000D01*
X1510000Y-62000D01*
X710000Y720000D02*
X690000Y760000D01*
X730000Y760000D01*
X710000Y720000D01*
X710000Y728000D02*
X698000Y752000D01*
X722000Y752000D01*
X710000Y728000D01*
X1420000Y-120000D02*
X1400000Y-80000D01*
X1440000Y-80000D01*
X1420000Y-120000D01*
X1420000Y-112000D02*
X1408000Y-88000D01*
X1432000Y-88000D01*
X1420000Y-112000D01*
X560000Y640000D02*
X540000Y680000D01*
X580000Y680000D01*
X560000Y640000D01*
X560000Y648000D02*
X548000Y672000D01*
X572000Y672000D01*
X560000Y648000D01*
X580000Y-800000D02*
X560000Y-760000D01*
X600000Y-760000D01*
X580000Y-800000D01*
X580000Y-792000D02*
X568000Y-768000D01*
X592000Y-768000D01*
X580000Y-792000D01*
X1220000Y3190000D02*
X1200000Y3230000D01*
X1240000Y3230000D01*
X1220000Y3190000D01*
X1220000Y3198000D02*
X1208000Y3222000D01*
X1232000Y3222000D01*
X1220000Y3198000D01*
X1170000Y2980000D02*
X1150000Y3020000D01*
X1190000Y3020000D01*
X1170000Y2980000D01*
X1170000Y2988000D02*
X1158000Y3012000D01*
X1182000Y3012000D01*
X1170000Y2988000D01*
X440000Y2530000D02*
X420000Y2570000D01*
X460000Y2570000D01*
X440000Y2530000D01*
X440000Y2538000D02*
X428000Y2562000D01*
X452000Y2562000D01*
X440000Y2538000D01*
X1310000Y2130000D02*
X1290000Y2170000D01*
X1330000Y2170000D01*
X1310000Y2130000D01*
X1310000Y2138000D02*
X1298000Y2162000D01*
X1322000Y2162000D01*
X1310000Y2138000D01*
X1360000Y2370000D02*
X1340000Y2410000D01*
X1380000Y2410000D01*
X1360000Y2370000D01*
X1360000Y2378000D02*
X1348000Y2402000D01*
X1372000Y2402000D01*
X1360000Y2378000D01*
X380000Y2340000D02*
X360000Y2380000D01*
X400000Y2380000D01*
X380000Y2340000D01*
X380000Y2348000D02*
X368000Y2372000D01*
X392000Y2372000D01*
X380000Y2348000D01*
X1110000Y3639000D02*
X1090000Y3679000D01*
X1130000Y3679000D01*
X1110000Y3639000D01*
X1110000Y3647000D02*
X1098000Y3671000D01*
X1122000Y3671000D01*
X1110000Y3647000D01*
X1767519Y3578676D02*
X1747519Y3618676D01*
X1787519Y3618676D01*
X1767519Y3578676D01*
X1767519Y3586676D02*
X1755519Y3610676D01*
X1779519Y3610676D01*
X1767519Y3586676D01*
X2222519Y2818676D02*
X2202519Y2858676D01*
X2242519Y2858676D01*
X2222519Y2818676D01*
X2222519Y2826676D02*
X2210519Y2850676D01*
X2234519Y2850676D01*
X2222519Y2826676D01*
X2430000Y865000D02*
X2410000Y905000D01*
X2450000Y905000D01*
X2430000Y865000D01*
X2430000Y873000D02*
X2418000Y897000D01*
X2442000Y897000D01*
X2430000Y873000D01*
X1840000Y2400000D02*
X1850000Y2410000D01*
X1860000Y2410000D01*
X1850000Y2420000D01*
X1860000Y2430000D01*
X1850000Y2430000D01*
X1840000Y2440000D01*
X1830000Y2430000D01*
X1820000Y2430000D01*
X1830000Y2420000D01*
X1820000Y2410000D01*
X1830000Y2410000D01*
X1840000Y2400000D01*
X1840000Y2408000D02*
X1846000Y2414000D01*
X1852000Y2414000D01*
X1846000Y2420000D01*
X1852000Y2426000D01*
X1846000Y2426000D01*
X1840000Y2432000D01*
X1834000Y2426000D01*
X1828000Y2426000D01*
X1834000Y2420000D01*
X1828000Y2414000D01*
X1834000Y2414000D01*
X1840000Y2408000D01*
X215000Y3565000D02*
X225000Y3575000D01*
X235000Y3575000D01*
X225000Y3585000D01*
X235000Y3595000D01*
X225000Y3595000D01*
X215000Y3605000D01*
X205000Y3595000D01*
X195000Y3595000D01*
X205000Y3585000D01*
X195000Y3575000D01*
X205000Y3575000D01*
X215000Y3565000D01*
X215000Y3573000D02*
X221000Y3579000D01*
X227000Y3579000D01*
X221000Y3585000D01*
X227000Y3591000D01*
X221000Y3591000D01*
X215000Y3597000D01*
X209000Y3591000D01*
X203000Y3591000D01*
X209000Y3585000D01*
X203000Y3579000D01*
X209000Y3579000D01*
X215000Y3573000D01*
X-56000Y-2053000D02*
X-76000Y-2013000D01*
X-36000Y-2013000D01*
X-56000Y-2053000D01*
X-56000Y-2045000D02*
X-68000Y-2021000D01*
X-44000Y-2021000D01*
X-56000Y-2045000D01*
X1215000Y-2983000D02*
X1225000Y-2973000D01*
X1235000Y-2973000D01*
X1225000Y-2963000D01*
X1235000Y-2953000D01*
X1225000Y-2953000D01*
X1215000Y-2943000D01*
X1205000Y-2953000D01*
X1195000Y-2953000D01*
X1205000Y-2963000D01*
X1195000Y-2973000D01*
X1205000Y-2973000D01*
X1215000Y-2983000D01*
X1215000Y-2975000D02*
X1221000Y-2969000D01*
X1227000Y-2969000D01*
X1221000Y-2963000D01*
X1227000Y-2957000D01*
X1221000Y-2957000D01*
X1215000Y-2951000D01*
X1209000Y-2957000D01*
X1203000Y-2957000D01*
X1209000Y-2963000D01*
X1203000Y-2969000D01*
X1209000Y-2969000D01*
X1215000Y-2975000D01*
X1217000Y-2049000D02*
X1227000Y-2039000D01*
X1237000Y-2039000D01*
X1227000Y-2029000D01*
X1237000Y-2019000D01*
X1227000Y-2019000D01*
X1217000Y-2009000D01*
X1207000Y-2019000D01*
X1197000Y-2019000D01*
X1207000Y-2029000D01*
X1197000Y-2039000D01*
X1207000Y-2039000D01*
X1217000Y-2049000D01*
X1217000Y-2041000D02*
X1223000Y-2035000D01*
X1229000Y-2035000D01*
X1223000Y-2029000D01*
X1229000Y-2023000D01*
X1223000Y-2023000D01*
X1217000Y-2017000D01*
X1211000Y-2023000D01*
X1205000Y-2023000D01*
X1211000Y-2029000D01*
X1205000Y-2035000D01*
X1211000Y-2035000D01*
X1217000Y-2041000D01*
X-90000Y-3530000D02*
X-110000Y-3490000D01*
X-70000Y-3490000D01*
X-90000Y-3530000D01*
X-90000Y-3522000D02*
X-102000Y-3498000D01*
X-78000Y-3498000D01*
X-90000Y-3522000D01*
X1829630Y-2095307D02*
X1839630Y-2085307D01*
X1849630Y-2085307D01*
X1839630Y-2075307D01*
X1849630Y-2065307D01*
X1839630Y-2065307D01*
X1829630Y-2055307D01*
X1819630Y-2065307D01*
X1809630Y-2065307D01*
X1819630Y-2075307D01*
X1809630Y-2085307D01*
X1819630Y-2085307D01*
X1829630Y-2095307D01*
X1829630Y-2087307D02*
X1835630Y-2081307D01*
X1841630Y-2081307D01*
X1835630Y-2075307D01*
X1841630Y-2069307D01*
X1835630Y-2069307D01*
X1829630Y-2063307D01*
X1823630Y-2069307D01*
X1817630Y-2069307D01*
X1823630Y-2075307D01*
X1817630Y-2081307D01*
X1823630Y-2081307D01*
X1829630Y-2087307D01*
X1164276Y-2847276D02*
X1174276Y-2837276D01*
X1184276Y-2837276D01*
X1174276Y-2827276D01*
X1184276Y-2817276D01*
X1174276Y-2817276D01*
X1164276Y-2807276D01*
X1154276Y-2817276D01*
X1144276Y-2817276D01*
X1154276Y-2827276D01*
X1144276Y-2837276D01*
X1154276Y-2837276D01*
X1164276Y-2847276D01*
X1164276Y-2839276D02*
X1170276Y-2833276D01*
X1176276Y-2833276D01*
X1170276Y-2827276D01*
X1176276Y-2821276D01*
X1170276Y-2821276D01*
X1164276Y-2815276D01*
X1158276Y-2821276D01*
X1152276Y-2821276D01*
X1158276Y-2827276D01*
X1152276Y-2833276D01*
X1158276Y-2833276D01*
X1164276Y-2839276D01*
X1250890Y-3008693D02*
X1260890Y-2998693D01*
X1270890Y-2998693D01*
X1260890Y-2988693D01*
X1270890Y-2978693D01*
X1260890Y-2978693D01*
X1250890Y-2968693D01*
X1240890Y-2978693D01*
X1230890Y-2978693D01*
X1240890Y-2988693D01*
X1230890Y-2998693D01*
X1240890Y-2998693D01*
X1250890Y-3008693D01*
X1250890Y-3000693D02*
X1256890Y-2994693D01*
X1262890Y-2994693D01*
X1256890Y-2988693D01*
X1262890Y-2982693D01*
X1256890Y-2982693D01*
X1250890Y-2976693D01*
X1244890Y-2982693D01*
X1238890Y-2982693D01*
X1244890Y-2988693D01*
X1238890Y-2994693D01*
X1244890Y-2994693D01*
X1250890Y-3000693D01*
X813882Y-2957512D02*
X823882Y-2947512D01*
X833882Y-2947512D01*
X823882Y-2937512D01*
X833882Y-2927512D01*
X823882Y-2927512D01*
X813882Y-2917512D01*
X803882Y-2927512D01*
X793882Y-2927512D01*
X803882Y-2937512D01*
X793882Y-2947512D01*
X803882Y-2947512D01*
X813882Y-2957512D01*
X813882Y-2949512D02*
X819882Y-2943512D01*
X825882Y-2943512D01*
X819882Y-2937512D01*
X825882Y-2931512D01*
X819882Y-2931512D01*
X813882Y-2925512D01*
X807882Y-2931512D01*
X801882Y-2931512D01*
X807882Y-2937512D01*
X801882Y-2943512D01*
X807882Y-2943512D01*
X813882Y-2949512D01*
X1404433Y-3121370D02*
X1414433Y-3111370D01*
X1424433Y-3111370D01*
X1414433Y-3101370D01*
X1424433Y-3091370D01*
X1414433Y-3091370D01*
X1404433Y-3081370D01*
X1394433Y-3091370D01*
X1384433Y-3091370D01*
X1394433Y-3101370D01*
X1384433Y-3111370D01*
X1394433Y-3111370D01*
X1404433Y-3121370D01*
X1404433Y-3113370D02*
X1410433Y-3107370D01*
X1416433Y-3107370D01*
X1410433Y-3101370D01*
X1416433Y-3095370D01*
X1410433Y-3095370D01*
X1404433Y-3089370D01*
X1398433Y-3095370D01*
X1392433Y-3095370D01*
X1398433Y-3101370D01*
X1392433Y-3107370D01*
X1398433Y-3107370D01*
X1404433Y-3113370D01*
X1404433Y-2764598D02*
X1414433Y-2754598D01*
X1424433Y-2754598D01*
X1414433Y-2744598D01*
X1424433Y-2734598D01*
X1414433Y-2734598D01*
X1404433Y-2724598D01*
X1394433Y-2734598D01*
X1384433Y-2734598D01*
X1394433Y-2744598D01*
X1384433Y-2754598D01*
X1394433Y-2754598D01*
X1404433Y-2764598D01*
X1404433Y-2756598D02*
X1410433Y-2750598D01*
X1416433Y-2750598D01*
X1410433Y-2744598D01*
X1416433Y-2738598D01*
X1410433Y-2738598D01*
X1404433Y-2732598D01*
X1398433Y-2738598D01*
X1392433Y-2738598D01*
X1398433Y-2744598D01*
X1392433Y-2750598D01*
X1398433Y-2750598D01*
X1404433Y-2756598D01*
X2282386Y-2725228D02*
X2262386Y-2685228D01*
X2302386Y-2685228D01*
X2282386Y-2725228D01*
X2282386Y-2717228D02*
X2270386Y-2693228D01*
X2294386Y-2693228D01*
X2282386Y-2717228D01*
X2286323Y-3040189D02*
X2266323Y-3000189D01*
X2306323Y-3000189D01*
X2286323Y-3040189D01*
X2286323Y-3032189D02*
X2274323Y-3008189D01*
X2298323Y-3008189D01*
X2286323Y-3032189D01*
X1090000Y2905000D02*
X1070000Y2945000D01*
X1110000Y2945000D01*
X1090000Y2905000D01*
X1090000Y2913000D02*
X1078000Y2937000D01*
X1102000Y2937000D01*
X1090000Y2913000D01*
X1095000Y2830000D02*
X1075000Y2870000D01*
X1115000Y2870000D01*
X1095000Y2830000D01*
X1095000Y2838000D02*
X1083000Y2862000D01*
X1107000Y2862000D01*
X1095000Y2838000D01*
X2190000Y2160000D02*
X2170000Y2200000D01*
X2210000Y2200000D01*
X2190000Y2160000D01*
X2190000Y2168000D02*
X2178000Y2192000D01*
X2202000Y2192000D01*
X2190000Y2168000D01*
X1183961Y-2957512D02*
X1193961Y-2947512D01*
X1203961Y-2947512D01*
X1193961Y-2937512D01*
X1203961Y-2927512D01*
X1193961Y-2927512D01*
X1183961Y-2917512D01*
X1173961Y-2927512D01*
X1163961Y-2927512D01*
X1173961Y-2937512D01*
X1163961Y-2947512D01*
X1173961Y-2947512D01*
X1183961Y-2957512D01*
X1183961Y-2949512D02*
X1189961Y-2943512D01*
X1195961Y-2943512D01*
X1189961Y-2937512D01*
X1195961Y-2931512D01*
X1189961Y-2931512D01*
X1183961Y-2925512D01*
X1177961Y-2931512D01*
X1171961Y-2931512D01*
X1177961Y-2937512D01*
X1171961Y-2943512D01*
X1177961Y-2943512D01*
X1183961Y-2949512D01*
X840000Y2823000D02*
X820000Y2863000D01*
X860000Y2863000D01*
X840000Y2823000D01*
X840000Y2831000D02*
X828000Y2855000D01*
X852000Y2855000D01*
X840000Y2831000D01*
X1840000Y2360000D02*
X1850000Y2370000D01*
X1860000Y2370000D01*
X1850000Y2380000D01*
X1860000Y2390000D01*
X1850000Y2390000D01*
X1840000Y2400000D01*
X1830000Y2390000D01*
X1820000Y2390000D01*
X1830000Y2380000D01*
X1820000Y2370000D01*
X1830000Y2370000D01*
X1840000Y2360000D01*
X1840000Y2368000D02*
X1846000Y2374000D01*
X1852000Y2374000D01*
X1846000Y2380000D01*
X1852000Y2386000D01*
X1846000Y2386000D01*
X1840000Y2392000D01*
X1834000Y2386000D01*
X1828000Y2386000D01*
X1834000Y2380000D01*
X1828000Y2374000D01*
X1834000Y2374000D01*
X1840000Y2368000D01*
X1760000Y2330000D02*
X1770000Y2340000D01*
X1780000Y2340000D01*
X1770000Y2350000D01*
X1780000Y2360000D01*
X1770000Y2360000D01*
X1760000Y2370000D01*
X1750000Y2360000D01*
X1740000Y2360000D01*
X1750000Y2350000D01*
X1740000Y2340000D01*
X1750000Y2340000D01*
X1760000Y2330000D01*
X1760000Y2338000D02*
X1766000Y2344000D01*
X1772000Y2344000D01*
X1766000Y2350000D01*
X1772000Y2356000D01*
X1766000Y2356000D01*
X1760000Y2362000D01*
X1754000Y2356000D01*
X1748000Y2356000D01*
X1754000Y2350000D01*
X1748000Y2344000D01*
X1754000Y2344000D01*
X1760000Y2338000D01*
X1860000Y2280000D02*
X1870000Y2290000D01*
X1880000Y2290000D01*
X1870000Y2300000D01*
X1880000Y2310000D01*
X1870000Y2310000D01*
X1860000Y2320000D01*
X1850000Y2310000D01*
X1840000Y2310000D01*
X1850000Y2300000D01*
X1840000Y2290000D01*
X1850000Y2290000D01*
X1860000Y2280000D01*
X1860000Y2288000D02*
X1866000Y2294000D01*
X1872000Y2294000D01*
X1866000Y2300000D01*
X1872000Y2306000D01*
X1866000Y2306000D01*
X1860000Y2312000D01*
X1854000Y2306000D01*
X1848000Y2306000D01*
X1854000Y2300000D01*
X1848000Y2294000D01*
X1854000Y2294000D01*
X1860000Y2288000D01*
X475000Y1005000D02*
X455000Y1045000D01*
X495000Y1045000D01*
X475000Y1005000D01*
X475000Y1013000D02*
X463000Y1037000D01*
X487000Y1037000D01*
X475000Y1013000D01*
X390000Y1105000D02*
X370000Y1145000D01*
X410000Y1145000D01*
X390000Y1105000D01*
X390000Y1113000D02*
X378000Y1137000D01*
X402000Y1137000D01*
X390000Y1113000D01*
X1895000Y3655000D02*
X1905000Y3665000D01*
X1915000Y3665000D01*
X1905000Y3675000D01*
X1915000Y3685000D01*
X1905000Y3685000D01*
X1895000Y3695000D01*
X1885000Y3685000D01*
X1875000Y3685000D01*
X1885000Y3675000D01*
X1875000Y3665000D01*
X1885000Y3665000D01*
X1895000Y3655000D01*
X1895000Y3663000D02*
X1901000Y3669000D01*
X1907000Y3669000D01*
X1901000Y3675000D01*
X1907000Y3681000D01*
X1901000Y3681000D01*
X1895000Y3687000D01*
X1889000Y3681000D01*
X1883000Y3681000D01*
X1889000Y3675000D01*
X1883000Y3669000D01*
X1889000Y3669000D01*
X1895000Y3663000D01*
X30000Y3505000D02*
X40000Y3515000D01*
X50000Y3515000D01*
X40000Y3525000D01*
X50000Y3535000D01*
X40000Y3535000D01*
X30000Y3545000D01*
X20000Y3535000D01*
X10000Y3535000D01*
X20000Y3525000D01*
X10000Y3515000D01*
X20000Y3515000D01*
X30000Y3505000D01*
X30000Y3513000D02*
X36000Y3519000D01*
X42000Y3519000D01*
X36000Y3525000D01*
X42000Y3531000D01*
X36000Y3531000D01*
X30000Y3537000D01*
X24000Y3531000D01*
X18000Y3531000D01*
X24000Y3525000D01*
X18000Y3519000D01*
X24000Y3519000D01*
X30000Y3513000D01*
X400000Y3540000D02*
X410000Y3550000D01*
X420000Y3550000D01*
X410000Y3560000D01*
X420000Y3570000D01*
X410000Y3570000D01*
X400000Y3580000D01*
X390000Y3570000D01*
X380000Y3570000D01*
X390000Y3560000D01*
X380000Y3550000D01*
X390000Y3550000D01*
X400000Y3540000D01*
X400000Y3548000D02*
X406000Y3554000D01*
X412000Y3554000D01*
X406000Y3560000D01*
X412000Y3566000D01*
X406000Y3566000D01*
X400000Y3572000D01*
X394000Y3566000D01*
X388000Y3566000D01*
X394000Y3560000D01*
X388000Y3554000D01*
X394000Y3554000D01*
X400000Y3548000D01*
X850000Y2720000D02*
X830000Y2760000D01*
X870000Y2760000D01*
X850000Y2720000D01*
X850000Y2728000D02*
X838000Y2752000D01*
X862000Y2752000D01*
X850000Y2728000D01*
D108*
X2177519Y3378676D02*
G03*
X2177519Y3378676I-20000J0D01*
G01*
X2077519Y3378676D02*
G03*
X2077519Y3378676I-20000J0D01*
G01*
X1977519Y3378676D02*
G03*
X1977519Y3378676I-20000J0D01*
G01*
X1877519Y3378676D02*
G03*
X1877519Y3378676I-20000J0D01*
G01*
X2277519Y3378676D02*
G03*
X2277519Y3378676I-20000J0D01*
G01*
X2391999Y3133000D02*
G03*
X2391999Y3133000I-20000J0D01*
G01*
X2291999Y3133000D02*
G03*
X2291999Y3133000I-20000J0D01*
G01*
X2191999Y3133000D02*
G03*
X2191999Y3133000I-20000J0D01*
G01*
X2091999Y3133000D02*
G03*
X2091999Y3133000I-20000J0D01*
G01*
X1991999Y3133000D02*
G03*
X1991999Y3133000I-20000J0D01*
G01*
X1891999Y3133000D02*
G03*
X1891999Y3133000I-20000J0D01*
G01*
X1238149Y-1308322D02*
G03*
X1238149Y-1308322I-20000J0D01*
G01*
X1438149Y-1308322D02*
G03*
X1438149Y-1308322I-20000J0D01*
G01*
X1338149Y-1308322D02*
G03*
X1338149Y-1308322I-20000J0D01*
G01*
X1138149Y-1308322D02*
G03*
X1138149Y-1308322I-20000J0D01*
G01*
X1038149Y-1308322D02*
G03*
X1038149Y-1308322I-20000J0D01*
G01*
X938149Y-1308322D02*
G03*
X938149Y-1308322I-20000J0D01*
G01*
X838149Y-1308322D02*
G03*
X838149Y-1308322I-20000J0D01*
G01*
X1638149Y-1708322D02*
G03*
X1638149Y-1708322I-20000J0D01*
G01*
X1638149Y-1608322D02*
G03*
X1638149Y-1608322I-20000J0D01*
G01*
X1638149Y-1508322D02*
G03*
X1638149Y-1508322I-20000J0D01*
G01*
X588149Y-1708322D02*
G03*
X588149Y-1708322I-20000J0D01*
G01*
X588149Y-1608322D02*
G03*
X588149Y-1608322I-20000J0D01*
G01*
X588149Y-1508322D02*
G03*
X588149Y-1508322I-20000J0D01*
G01*
X1410000Y3320000D02*
G03*
X1410000Y3320000I-20000J0D01*
G01*
X1410000Y3420000D02*
G03*
X1410000Y3420000I-20000J0D01*
G01*
X1310000Y3420000D02*
G03*
X1310000Y3420000I-20000J0D01*
G01*
X1210000Y3420000D02*
G03*
X1210000Y3420000I-20000J0D01*
G01*
X1110000Y3420000D02*
G03*
X1110000Y3420000I-20000J0D01*
G01*
X1010000Y3420000D02*
G03*
X1010000Y3420000I-20000J0D01*
G01*
X910000Y3420000D02*
G03*
X910000Y3420000I-20000J0D01*
G01*
X810000Y3420000D02*
G03*
X810000Y3420000I-20000J0D01*
G01*
X710000Y3420000D02*
G03*
X710000Y3420000I-20000J0D01*
G01*
X610000Y3420000D02*
G03*
X610000Y3420000I-20000J0D01*
G01*
X510000Y3420000D02*
G03*
X510000Y3420000I-20000J0D01*
G01*
X410000Y3420000D02*
G03*
X410000Y3420000I-20000J0D01*
G01*
X1310000Y3320000D02*
G03*
X1310000Y3320000I-20000J0D01*
G01*
X1210000Y3320000D02*
G03*
X1210000Y3320000I-20000J0D01*
G01*
X1110000Y3320000D02*
G03*
X1110000Y3320000I-20000J0D01*
G01*
X1010000Y3320000D02*
G03*
X1010000Y3320000I-20000J0D01*
G01*
X910000Y3320000D02*
G03*
X910000Y3320000I-20000J0D01*
G01*
X810000Y3320000D02*
G03*
X810000Y3320000I-20000J0D01*
G01*
X710000Y3320000D02*
G03*
X710000Y3320000I-20000J0D01*
G01*
X610000Y3320000D02*
G03*
X610000Y3320000I-20000J0D01*
G01*
X510000Y3320000D02*
G03*
X510000Y3320000I-20000J0D01*
G01*
X410000Y3320000D02*
G03*
X410000Y3320000I-20000J0D01*
G01*
X1510000Y3420000D02*
G03*
X1510000Y3420000I-20000J0D01*
G01*
X1510000Y3320000D02*
G03*
X1510000Y3320000I-20000J0D01*
G01*
D109*
X1402000Y3320000D02*
G03*
X1402000Y3320000I-12000J0D01*
G01*
X1402000Y3420000D02*
G03*
X1402000Y3420000I-12000J0D01*
G01*
X1302000Y3420000D02*
G03*
X1302000Y3420000I-12000J0D01*
G01*
X1202000Y3420000D02*
G03*
X1202000Y3420000I-12000J0D01*
G01*
X1102000Y3420000D02*
G03*
X1102000Y3420000I-12000J0D01*
G01*
X1002000Y3420000D02*
G03*
X1002000Y3420000I-12000J0D01*
G01*
X902000Y3420000D02*
G03*
X902000Y3420000I-12000J0D01*
G01*
X802000Y3420000D02*
G03*
X802000Y3420000I-12000J0D01*
G01*
X702000Y3420000D02*
G03*
X702000Y3420000I-12000J0D01*
G01*
X602000Y3420000D02*
G03*
X602000Y3420000I-12000J0D01*
G01*
X502000Y3420000D02*
G03*
X502000Y3420000I-12000J0D01*
G01*
X402000Y3420000D02*
G03*
X402000Y3420000I-12000J0D01*
G01*
X1302000Y3320000D02*
G03*
X1302000Y3320000I-12000J0D01*
G01*
X1202000Y3320000D02*
G03*
X1202000Y3320000I-12000J0D01*
G01*
X1102000Y3320000D02*
G03*
X1102000Y3320000I-12000J0D01*
G01*
X1002000Y3320000D02*
G03*
X1002000Y3320000I-12000J0D01*
G01*
X902000Y3320000D02*
G03*
X902000Y3320000I-12000J0D01*
G01*
X802000Y3320000D02*
G03*
X802000Y3320000I-12000J0D01*
G01*
X702000Y3320000D02*
G03*
X702000Y3320000I-12000J0D01*
G01*
X602000Y3320000D02*
G03*
X602000Y3320000I-12000J0D01*
G01*
X502000Y3320000D02*
G03*
X502000Y3320000I-12000J0D01*
G01*
X402000Y3320000D02*
G03*
X402000Y3320000I-12000J0D01*
G01*
X1502000Y3420000D02*
G03*
X1502000Y3420000I-12000J0D01*
G01*
X1502000Y3320000D02*
G03*
X1502000Y3320000I-12000J0D01*
G01*
%TF.MD5,3233061961fc45a4e627a4178ac4f18f*%
M02*
