G04 Layer_Color=32896*
%FSLAX26Y26*%
%MOIN*%
%TF.FileFunction,Legend,Bot*%
%TF.Part,Single*%
G01*
G75*
%TA.AperFunction,NonConductor*%
%ADD42C,0.009842*%
%ADD43C,0.023622*%
%ADD44C,0.007874*%
%ADD45C,0.010000*%
%ADD46C,0.030000*%
%ADD47C,0.039370*%
%ADD48C,0.005000*%
D42*
X-624614Y472835D02*
G03*
X-624614Y472835I-4921J0D01*
G01*
X-1376874Y1097287D02*
G03*
X-1376874Y1097287I-4921J0D01*
G01*
D43*
X-658866Y567323D02*
G03*
X-658866Y567323I-11811J0D01*
G01*
X-1461520Y1040201D02*
G03*
X-1461520Y1040201I-11811J0D01*
G01*
D44*
X-981622Y288032D02*
X-981622Y291969D01*
X-934378Y288032D02*
X-934378Y291969D01*
X-833394Y288032D02*
X-833394Y291969D01*
X-882606Y288032D02*
X-882606Y291969D01*
X-731425Y278031D02*
X-731425Y281969D01*
X-784575Y278031D02*
X-784575Y281969D01*
X-671622Y298032D02*
X-671622Y301969D01*
X-624378Y298032D02*
X-624378Y301969D01*
X-1044693Y527953D02*
X-631307Y527953D01*
X-1044693Y772047D02*
X-631307Y772047D01*
X-631307Y527953D02*
X-631307Y772047D01*
X-1044693Y527953D02*
X-1044693Y772047D01*
X-1269968Y7610138D02*
X-1266031Y7610138D01*
X-1269968Y7564862D02*
X-1266031Y7564862D01*
X-1433961Y878783D02*
X-1433961Y1079571D01*
X-1559945Y878783D02*
X-1559945Y1079571D01*
X-1433961Y1079571D01*
X-1559945Y878783D02*
X-1433961Y878783D01*
X-772449Y7619814D02*
X-768513Y7619814D01*
X-772449Y7574540D02*
X-768513Y7574540D01*
X-919851Y2470178D02*
X-819851Y2470178D01*
X-919851Y2170178D02*
X-919851Y2470178D01*
X-919851Y2170178D02*
X-819851Y2170178D01*
X-819851Y2470178D01*
X-1969851Y2470178D02*
X-1869851Y2470178D01*
X-1969851Y2170178D02*
X-1969851Y2470178D01*
X-1969851Y2170178D02*
X-1869851Y2170178D01*
X-1869851Y2470178D01*
X-2239968Y7570861D02*
X-2236032Y7570861D01*
X-2239968Y7616137D02*
X-2236032Y7616137D01*
X-2049968Y7570861D02*
X-2046032Y7570861D01*
X-2049968Y7616137D02*
X-2046032Y7616137D01*
X-1859968Y7570861D02*
X-1856032Y7570861D01*
X-1859968Y7616137D02*
X-1856032Y7616137D01*
X-2429968Y7572363D02*
X-2426032Y7572363D01*
X-2429968Y7617639D02*
X-2426032Y7617639D01*
X-215456Y811855D02*
X-215456Y815791D01*
X-172150Y811855D02*
X-172150Y815791D01*
X-101284Y811855D02*
X-101284Y815791D01*
X-144590Y811855D02*
X-144590Y815791D01*
X-1719851Y2570178D02*
X-1719851Y2670178D01*
X-1719851Y2570178D02*
X-1019851Y2570178D01*
X-1019851Y2670178D01*
X-1719851Y2670178D02*
X-1019851Y2670178D01*
D45*
X-930203Y5522484D02*
X-457403Y5522484D01*
X-930203Y5522484D02*
X-930203Y6900438D01*
X-457403Y6900438D01*
X-457403Y5522484D02*
X-457403Y6900438D01*
X-238000Y4678500D02*
X-38000Y4678500D01*
X-38000Y4178500D02*
X-38000Y4678500D01*
X-238000Y4178500D02*
X-38000Y4178500D01*
X-238000Y4178500D02*
X-238000Y4678500D01*
X-2538000Y5878500D02*
X-2338000Y5878500D01*
X-2338000Y5378500D02*
X-2338000Y5878500D01*
X-2538000Y5378500D02*
X-2338000Y5378500D01*
X-2538000Y5378500D02*
X-2538000Y5878500D01*
X-2633165Y3778500D02*
X-2481385Y3778500D01*
X-159355Y3778910D02*
X-7575Y3778910D01*
D46*
X-2638000Y3778500D02*
X-38000Y3778500D01*
D47*
X-2019851Y2720178D02*
X-769851Y2720178D01*
X-769851Y1405768D02*
X-769851Y2720178D01*
X-2019851Y1405768D02*
X-2019851Y2720178D01*
X-2019851Y1405768D02*
X-769851Y1405768D01*
D48*
X-928000Y180000D02*
X-928000Y199994D01*
X-937997Y199994D01*
X-941329Y196661D01*
X-941329Y189997D01*
X-937997Y186665D01*
X-928000Y186665D01*
X-934664Y186665D02*
X-941329Y180000D01*
X-961322Y180000D02*
X-947994Y180000D01*
X-961322Y193329D01*
X-961322Y196661D01*
X-957990Y199994D01*
X-951326Y199994D01*
X-947994Y196661D01*
X-967987Y183332D02*
X-971319Y180000D01*
X-977984Y180000D01*
X-981316Y183332D01*
X-981316Y196661D01*
X-977984Y199994D01*
X-971319Y199994D01*
X-967987Y196661D01*
X-967987Y193329D01*
X-971319Y189997D01*
X-981316Y189997D01*
X-861329Y196661D02*
X-857997Y199994D01*
X-851332Y199994D01*
X-848000Y196661D01*
X-848000Y183332D01*
X-851332Y180000D01*
X-857997Y180000D01*
X-861329Y183332D01*
X-881322Y180000D02*
X-867994Y180000D01*
X-881322Y193329D01*
X-881322Y196661D01*
X-877990Y199994D01*
X-871326Y199994D01*
X-867994Y196661D01*
X-761329Y176661D02*
X-757997Y179994D01*
X-751332Y179994D01*
X-748000Y176661D01*
X-748000Y163332D01*
X-751332Y160000D01*
X-757997Y160000D01*
X-761329Y163332D01*
X-767994Y176661D02*
X-771326Y179994D01*
X-777990Y179994D01*
X-781322Y176661D01*
X-781322Y173329D01*
X-777990Y169997D01*
X-774658Y169997D01*
X-777990Y169997D01*
X-781322Y166665D01*
X-781322Y163332D01*
X-777990Y160000D01*
X-771326Y160000D01*
X-767994Y163332D01*
X-628000Y160000D02*
X-628000Y179994D01*
X-637997Y179994D01*
X-641329Y176661D01*
X-641329Y169997D01*
X-637997Y166665D01*
X-628000Y166665D01*
X-634664Y166665D02*
X-641329Y160000D01*
X-647994Y160000D02*
X-654658Y160000D01*
X-651326Y160000D01*
X-651326Y179994D01*
X-647994Y176661D01*
X-677984Y160000D02*
X-664655Y160000D01*
X-677984Y173329D01*
X-677984Y176661D01*
X-674652Y179994D01*
X-667987Y179994D01*
X-664655Y176661D01*
X-625181Y916391D02*
X-625181Y899730D01*
X-628513Y896398D01*
X-635178Y896398D01*
X-638510Y899730D01*
X-638510Y916391D01*
X-658504Y916391D02*
X-651839Y913059D01*
X-645175Y906394D01*
X-645175Y899730D01*
X-648507Y896398D01*
X-655171Y896398D01*
X-658504Y899730D01*
X-658504Y903062D01*
X-655171Y906394D01*
X-645175Y906394D01*
X-2053000Y1050000D02*
X-2072994Y1050000D01*
X-2072994Y1040003D01*
X-2069661Y1036671D01*
X-2062997Y1036671D01*
X-2059664Y1040003D01*
X-2059664Y1050000D01*
X-2059664Y1043335D02*
X-2053000Y1036671D01*
X-2053000Y1030006D02*
X-2053000Y1023342D01*
X-2053000Y1026674D01*
X-2072994Y1026674D01*
X-2069661Y1030006D01*
X-2069661Y1013345D02*
X-2072994Y1010013D01*
X-2072994Y1003348D01*
X-2069661Y1000016D01*
X-2066329Y1000016D01*
X-2062997Y1003348D01*
X-2062997Y1006681D01*
X-2062997Y1003348D01*
X-2059664Y1000016D01*
X-2056332Y1000016D01*
X-2053000Y1003348D01*
X-2053000Y1010013D01*
X-2056332Y1013345D01*
X-1053000Y6625000D02*
X-1072994Y6625000D01*
X-1072994Y6615003D01*
X-1069661Y6611671D01*
X-1062997Y6611671D01*
X-1059665Y6615003D01*
X-1059665Y6625000D01*
X-1059665Y6618336D02*
X-1053000Y6611671D01*
X-1053000Y6591677D02*
X-1053000Y6605007D01*
X-1066329Y6591677D01*
X-1069661Y6591677D01*
X-1072994Y6595010D01*
X-1072994Y6601674D01*
X-1069661Y6605007D01*
X-1072994Y6585013D02*
X-1072994Y6571684D01*
X-1069661Y6571684D01*
X-1056332Y6585013D01*
X-1053000Y6585013D01*
X-1068000Y7540000D02*
X-1068000Y7559993D01*
X-1077997Y7559993D01*
X-1081329Y7556661D01*
X-1081329Y7549997D01*
X-1077997Y7546664D01*
X-1068000Y7546664D01*
X-1074665Y7546664D02*
X-1081329Y7540000D01*
X-1101322Y7540000D02*
X-1087994Y7540000D01*
X-1101322Y7553329D01*
X-1101322Y7556661D01*
X-1097990Y7559993D01*
X-1091326Y7559993D01*
X-1087994Y7556661D01*
X-1121316Y7559993D02*
X-1114651Y7556661D01*
X-1107987Y7549997D01*
X-1107987Y7543332D01*
X-1111319Y7540000D01*
X-1117984Y7540000D01*
X-1121316Y7543332D01*
X-1121316Y7546664D01*
X-1117984Y7549997D01*
X-1107987Y7549997D01*
X-1238000Y7544993D02*
X-1238000Y7525000D01*
X-1247997Y7525000D01*
X-1251329Y7528332D01*
X-1251329Y7541661D01*
X-1247997Y7544993D01*
X-1238000Y7544993D01*
X-1271322Y7541661D02*
X-1267990Y7544993D01*
X-1261326Y7544993D01*
X-1257994Y7541661D01*
X-1257994Y7538329D01*
X-1261326Y7534997D01*
X-1267990Y7534997D01*
X-1271322Y7531664D01*
X-1271322Y7528332D01*
X-1267990Y7525000D01*
X-1261326Y7525000D01*
X-1257994Y7528332D01*
X-1291316Y7525000D02*
X-1277987Y7525000D01*
X-1291316Y7538329D01*
X-1291316Y7541661D01*
X-1287984Y7544993D01*
X-1281319Y7544993D01*
X-1277987Y7541661D01*
X-1320181Y1252391D02*
X-1320181Y1235730D01*
X-1323513Y1232398D01*
X-1330178Y1232398D01*
X-1333510Y1235730D01*
X-1333510Y1252391D01*
X-1340175Y1249059D02*
X-1343507Y1252391D01*
X-1350171Y1252391D01*
X-1353504Y1249059D01*
X-1353504Y1245727D01*
X-1350171Y1242394D01*
X-1346839Y1242394D01*
X-1350171Y1242394D01*
X-1353504Y1239062D01*
X-1353504Y1235730D01*
X-1350171Y1232398D01*
X-1343507Y1232398D01*
X-1340175Y1235730D01*
X-758000Y7559679D02*
X-758000Y7540000D01*
X-767839Y7540000D01*
X-771119Y7543280D01*
X-771119Y7556399D01*
X-767839Y7559679D01*
X-758000Y7559679D01*
X-790798Y7556399D02*
X-787518Y7559679D01*
X-780958Y7559679D01*
X-777679Y7556399D01*
X-777679Y7553119D01*
X-780958Y7549839D01*
X-787518Y7549839D01*
X-790798Y7546560D01*
X-790798Y7543280D01*
X-787518Y7540000D01*
X-780958Y7540000D01*
X-777679Y7543280D01*
X-797357Y7540000D02*
X-803917Y7540000D01*
X-800637Y7540000D01*
X-800637Y7559679D01*
X-797357Y7556399D01*
X-1039851Y2505178D02*
X-1039851Y2525171D01*
X-1049848Y2525171D01*
X-1053180Y2521839D01*
X-1053180Y2515175D01*
X-1049848Y2511842D01*
X-1039851Y2511842D01*
X-1073174Y2525171D02*
X-1066509Y2521839D01*
X-1059845Y2515175D01*
X-1059845Y2508510D01*
X-1063177Y2505178D01*
X-1069841Y2505178D01*
X-1073174Y2508510D01*
X-1073174Y2511842D01*
X-1069841Y2515175D01*
X-1059845Y2515175D01*
X-858000Y7545000D02*
X-858000Y7564679D01*
X-867839Y7564679D01*
X-871119Y7561399D01*
X-871119Y7554839D01*
X-867839Y7551560D01*
X-858000Y7551560D01*
X-864559Y7551560D02*
X-871119Y7545000D01*
X-890798Y7545000D02*
X-877679Y7545000D01*
X-890798Y7558119D01*
X-890798Y7561399D01*
X-887518Y7564679D01*
X-880958Y7564679D01*
X-877679Y7561399D01*
X-1009851Y2320178D02*
X-989858Y2320178D01*
X-989858Y2330175D01*
X-993190Y2333507D01*
X-999854Y2333507D01*
X-1003187Y2330175D01*
X-1003187Y2320178D01*
X-993190Y2340171D02*
X-989858Y2343503D01*
X-989858Y2350168D01*
X-993190Y2353500D01*
X-996522Y2353500D01*
X-999854Y2350168D01*
X-999854Y2346836D01*
X-999854Y2350168D01*
X-1003187Y2353500D01*
X-1006519Y2353500D01*
X-1009851Y2350168D01*
X-1009851Y2343503D01*
X-1006519Y2340171D01*
X-1809851Y2320178D02*
X-1789858Y2320178D01*
X-1789858Y2330175D01*
X-1793190Y2333507D01*
X-1799854Y2333507D01*
X-1803187Y2330175D01*
X-1803187Y2320178D01*
X-1809851Y2350168D02*
X-1789858Y2350168D01*
X-1799854Y2340171D01*
X-1799854Y2353500D01*
X-447181Y7030398D02*
X-447181Y7050391D01*
X-457178Y7050391D01*
X-460510Y7047059D01*
X-460510Y7040394D01*
X-457178Y7037062D01*
X-447181Y7037062D01*
X-467175Y7033730D02*
X-470507Y7030398D01*
X-477171Y7030398D01*
X-480504Y7033730D01*
X-480504Y7047059D01*
X-477171Y7050391D01*
X-470507Y7050391D01*
X-467175Y7047059D01*
X-467175Y7043727D01*
X-470507Y7040394D01*
X-480504Y7040394D01*
X-2208000Y7554993D02*
X-2208000Y7535000D01*
X-2217997Y7535000D01*
X-2221329Y7538332D01*
X-2221329Y7551661D01*
X-2217997Y7554993D01*
X-2208000Y7554993D01*
X-2241323Y7551661D02*
X-2237990Y7554993D01*
X-2231326Y7554993D01*
X-2227994Y7551661D01*
X-2227994Y7548329D01*
X-2231326Y7544997D01*
X-2237990Y7544997D01*
X-2241323Y7541664D01*
X-2241323Y7538332D01*
X-2237990Y7535000D01*
X-2231326Y7535000D01*
X-2227994Y7538332D01*
X-2257984Y7535000D02*
X-2257984Y7554993D01*
X-2247987Y7544997D01*
X-2261316Y7544997D01*
X-2018000Y7554993D02*
X-2018000Y7535000D01*
X-2027997Y7535000D01*
X-2031329Y7538332D01*
X-2031329Y7551661D01*
X-2027997Y7554993D01*
X-2018000Y7554993D01*
X-2051323Y7551661D02*
X-2047990Y7554993D01*
X-2041326Y7554993D01*
X-2037994Y7551661D01*
X-2037994Y7548329D01*
X-2041326Y7544997D01*
X-2047990Y7544997D01*
X-2051323Y7541664D01*
X-2051323Y7538332D01*
X-2047990Y7535000D01*
X-2041326Y7535000D01*
X-2037994Y7538332D01*
X-2071316Y7554993D02*
X-2057987Y7554993D01*
X-2057987Y7544997D01*
X-2064651Y7548329D01*
X-2067984Y7548329D01*
X-2071316Y7544997D01*
X-2071316Y7538332D01*
X-2067984Y7535000D01*
X-2061319Y7535000D01*
X-2057987Y7538332D01*
X-1833000Y7554993D02*
X-1833000Y7535000D01*
X-1842997Y7535000D01*
X-1846329Y7538332D01*
X-1846329Y7551661D01*
X-1842997Y7554993D01*
X-1833000Y7554993D01*
X-1866322Y7551661D02*
X-1862990Y7554993D01*
X-1856326Y7554993D01*
X-1852994Y7551661D01*
X-1852994Y7548329D01*
X-1856326Y7544997D01*
X-1862990Y7544997D01*
X-1866322Y7541664D01*
X-1866322Y7538332D01*
X-1862990Y7535000D01*
X-1856326Y7535000D01*
X-1852994Y7538332D01*
X-1886316Y7554993D02*
X-1879651Y7551661D01*
X-1872987Y7544997D01*
X-1872987Y7538332D01*
X-1876319Y7535000D01*
X-1882984Y7535000D01*
X-1886316Y7538332D01*
X-1886316Y7541664D01*
X-1882984Y7544997D01*
X-1872987Y7544997D01*
X-2398000Y7551493D02*
X-2398000Y7531500D01*
X-2407997Y7531500D01*
X-2411329Y7534832D01*
X-2411329Y7548161D01*
X-2407997Y7551493D01*
X-2398000Y7551493D01*
X-2431323Y7548161D02*
X-2427990Y7551493D01*
X-2421326Y7551493D01*
X-2417994Y7548161D01*
X-2417994Y7544829D01*
X-2421326Y7541497D01*
X-2427990Y7541497D01*
X-2431323Y7538164D01*
X-2431323Y7534832D01*
X-2427990Y7531500D01*
X-2421326Y7531500D01*
X-2417994Y7534832D01*
X-2437987Y7551493D02*
X-2451316Y7551493D01*
X-2451316Y7548161D01*
X-2437987Y7534832D01*
X-2437987Y7531500D01*
X-438000Y6380000D02*
X-418007Y6380000D01*
X-418007Y6389997D01*
X-421339Y6393329D01*
X-428003Y6393329D01*
X-431336Y6389997D01*
X-431336Y6380000D01*
X-431336Y6386664D02*
X-438000Y6393329D01*
X-438000Y6413323D02*
X-438000Y6399993D01*
X-424671Y6413323D01*
X-421339Y6413323D01*
X-418007Y6409990D01*
X-418007Y6403326D01*
X-421339Y6399993D01*
X-421339Y6419987D02*
X-418007Y6423319D01*
X-418007Y6429984D01*
X-421339Y6433316D01*
X-434668Y6433316D01*
X-438000Y6429984D01*
X-438000Y6423319D01*
X-434668Y6419987D01*
X-421339Y6419987D01*
X-343614Y6383740D02*
X-323621Y6383740D01*
X-323621Y6393737D01*
X-326953Y6397069D01*
X-333617Y6397069D01*
X-336950Y6393737D01*
X-336950Y6383740D01*
X-336950Y6390405D02*
X-343614Y6397069D01*
X-343614Y6417063D02*
X-343614Y6403734D01*
X-330285Y6417063D01*
X-326953Y6417063D01*
X-323621Y6413730D01*
X-323621Y6407066D01*
X-326953Y6403734D01*
X-343614Y6423727D02*
X-343614Y6430392D01*
X-343614Y6427059D01*
X-323621Y6427059D01*
X-326953Y6423727D01*
X-2128000Y7510000D02*
X-2128000Y7529993D01*
X-2137997Y7529993D01*
X-2141329Y7526661D01*
X-2141329Y7519997D01*
X-2137997Y7516664D01*
X-2128000Y7516664D01*
X-2134664Y7516664D02*
X-2141329Y7510000D01*
X-2161323Y7510000D02*
X-2147994Y7510000D01*
X-2161323Y7523329D01*
X-2161323Y7526661D01*
X-2157990Y7529993D01*
X-2151326Y7529993D01*
X-2147994Y7526661D01*
X-2181316Y7510000D02*
X-2167987Y7510000D01*
X-2181316Y7523329D01*
X-2181316Y7526661D01*
X-2177984Y7529993D01*
X-2171319Y7529993D01*
X-2167987Y7526661D01*
X-1938000Y7510000D02*
X-1938000Y7529993D01*
X-1947997Y7529993D01*
X-1951329Y7526661D01*
X-1951329Y7519997D01*
X-1947997Y7516664D01*
X-1938000Y7516664D01*
X-1944665Y7516664D02*
X-1951329Y7510000D01*
X-1971322Y7510000D02*
X-1957994Y7510000D01*
X-1971322Y7523329D01*
X-1971322Y7526661D01*
X-1967990Y7529993D01*
X-1961326Y7529993D01*
X-1957994Y7526661D01*
X-1977987Y7526661D02*
X-1981319Y7529993D01*
X-1987984Y7529993D01*
X-1991316Y7526661D01*
X-1991316Y7523329D01*
X-1987984Y7519997D01*
X-1984651Y7519997D01*
X-1987984Y7519997D01*
X-1991316Y7516664D01*
X-1991316Y7513332D01*
X-1987984Y7510000D01*
X-1981319Y7510000D01*
X-1977987Y7513332D01*
X-325000Y4294500D02*
X-305007Y4294500D01*
X-305007Y4304497D01*
X-308339Y4307829D01*
X-315003Y4307829D01*
X-318336Y4304497D01*
X-318336Y4294500D01*
X-305007Y4314493D02*
X-305007Y4327823D01*
X-308339Y4327823D01*
X-321668Y4314493D01*
X-325000Y4314493D01*
X-78000Y800000D02*
X-58007Y800000D01*
X-58007Y809997D01*
X-61339Y813329D01*
X-68003Y813329D01*
X-71335Y809997D01*
X-71335Y800000D01*
X-71335Y806664D02*
X-78000Y813329D01*
X-74668Y819994D02*
X-78000Y823326D01*
X-78000Y829990D01*
X-74668Y833322D01*
X-61339Y833322D01*
X-58007Y829990D01*
X-58007Y823326D01*
X-61339Y819994D01*
X-64671Y819994D01*
X-68003Y823326D01*
X-68003Y833322D01*
X-48000Y800000D02*
X-28006Y800000D01*
X-28006Y809997D01*
X-31339Y813329D01*
X-38003Y813329D01*
X-41336Y809997D01*
X-41336Y800000D01*
X-41336Y806664D02*
X-48000Y813329D01*
X-31339Y819994D02*
X-28006Y823326D01*
X-28006Y829990D01*
X-31339Y833322D01*
X-34671Y833322D01*
X-38003Y829990D01*
X-41336Y833322D01*
X-44668Y833322D01*
X-48000Y829990D01*
X-48000Y823326D01*
X-44668Y819994D01*
X-41336Y819994D01*
X-38003Y823326D01*
X-34671Y819994D01*
X-31339Y819994D01*
X-38003Y823326D02*
X-38003Y829990D01*
X-2338181Y5908398D02*
X-2338181Y5928391D01*
X-2348178Y5928391D01*
X-2351510Y5925059D01*
X-2351510Y5918394D01*
X-2348178Y5915062D01*
X-2338181Y5915062D01*
X-2358175Y5925059D02*
X-2361507Y5928391D01*
X-2368171Y5928391D01*
X-2371504Y5925059D01*
X-2371504Y5921727D01*
X-2368171Y5918394D01*
X-2371504Y5915062D01*
X-2371504Y5911730D01*
X-2368171Y5908398D01*
X-2361507Y5908398D01*
X-2358175Y5911730D01*
X-2358175Y5915062D01*
X-2361507Y5918394D01*
X-2358175Y5921727D01*
X-2358175Y5925059D01*
X-2361507Y5918394D02*
X-2368171Y5918394D01*
X-1748000Y7505000D02*
X-1748000Y7524993D01*
X-1757997Y7524993D01*
X-1761329Y7521661D01*
X-1761329Y7514997D01*
X-1757997Y7511664D01*
X-1748000Y7511664D01*
X-1754665Y7511664D02*
X-1761329Y7505000D01*
X-1781322Y7505000D02*
X-1767994Y7505000D01*
X-1781322Y7518329D01*
X-1781322Y7521661D01*
X-1777990Y7524993D01*
X-1771326Y7524993D01*
X-1767994Y7521661D01*
X-1797984Y7505000D02*
X-1797984Y7524993D01*
X-1787987Y7514997D01*
X-1801316Y7514997D01*
X-2318000Y7510000D02*
X-2318000Y7529993D01*
X-2327997Y7529993D01*
X-2331329Y7526661D01*
X-2331329Y7519997D01*
X-2327997Y7516664D01*
X-2318000Y7516664D01*
X-2324664Y7516664D02*
X-2331329Y7510000D01*
X-2351323Y7510000D02*
X-2337994Y7510000D01*
X-2351323Y7523329D01*
X-2351323Y7526661D01*
X-2347990Y7529993D01*
X-2341326Y7529993D01*
X-2337994Y7526661D01*
X-2371316Y7529993D02*
X-2357987Y7529993D01*
X-2357987Y7519997D01*
X-2364651Y7523329D01*
X-2367984Y7523329D01*
X-2371316Y7519997D01*
X-2371316Y7513332D01*
X-2367984Y7510000D01*
X-2361319Y7510000D01*
X-2357987Y7513332D01*
X-1009851Y2190171D02*
X-1009851Y2170178D01*
X-1023180Y2170178D01*
X-1039841Y2170178D02*
X-1033177Y2170178D01*
X-1029845Y2173510D01*
X-1029845Y2180175D01*
X-1033177Y2183507D01*
X-1039841Y2183507D01*
X-1043174Y2180175D01*
X-1043174Y2176842D01*
X-1029845Y2176842D01*
X-1049838Y2183507D02*
X-1056503Y2170178D01*
X-1063167Y2183507D01*
X-1079829Y2170178D02*
X-1073164Y2170178D01*
X-1069832Y2173510D01*
X-1069832Y2180175D01*
X-1073164Y2183507D01*
X-1079829Y2183507D01*
X-1083161Y2180175D01*
X-1083161Y2176842D01*
X-1069832Y2176842D01*
X-1089825Y2170178D02*
X-1096490Y2170178D01*
X-1093158Y2170178D01*
X-1093158Y2190171D01*
X-1089825Y2190171D01*
X-1106486Y2170178D02*
X-1116483Y2170178D01*
X-1119815Y2173510D01*
X-1116483Y2176842D01*
X-1109819Y2176842D01*
X-1106486Y2180175D01*
X-1109819Y2183507D01*
X-1119815Y2183507D01*
X-1146474Y2190171D02*
X-1146474Y2170178D01*
X-1156470Y2170178D01*
X-1159803Y2173510D01*
X-1159803Y2176842D01*
X-1156470Y2180175D01*
X-1146474Y2180175D01*
X-1156470Y2180175D01*
X-1159803Y2183507D01*
X-1159803Y2186839D01*
X-1156470Y2190171D01*
X-1146474Y2190171D01*
X-1169799Y2170178D02*
X-1176464Y2170178D01*
X-1179796Y2173510D01*
X-1179796Y2180175D01*
X-1176464Y2183507D01*
X-1169799Y2183507D01*
X-1166467Y2180175D01*
X-1166467Y2173510D01*
X-1169799Y2170178D01*
X-1189793Y2183507D02*
X-1196457Y2183507D01*
X-1199790Y2180175D01*
X-1199790Y2170178D01*
X-1189793Y2170178D01*
X-1186460Y2173510D01*
X-1189793Y2176842D01*
X-1199790Y2176842D01*
X-1206454Y2183507D02*
X-1206454Y2170178D01*
X-1206454Y2176842D01*
X-1209786Y2180175D01*
X-1213119Y2183507D01*
X-1216451Y2183507D01*
X-1239776Y2190171D02*
X-1239776Y2170178D01*
X-1229780Y2170178D01*
X-1226447Y2173510D01*
X-1226447Y2180175D01*
X-1229780Y2183507D01*
X-1239776Y2183507D01*
X-128000Y2818500D02*
X-128000Y2838494D01*
X-137997Y2838494D01*
X-141329Y2835161D01*
X-141329Y2828497D01*
X-137997Y2825164D01*
X-128000Y2825164D01*
X-147994Y2821832D02*
X-151326Y2818500D01*
X-157990Y2818500D01*
X-161322Y2821832D01*
X-161322Y2835161D01*
X-157990Y2838494D01*
X-151326Y2838494D01*
X-147994Y2835161D01*
X-147994Y2831829D01*
X-151326Y2828497D01*
X-161322Y2828497D01*
X-148000Y2688500D02*
X-154665Y2688500D01*
X-151332Y2688500D01*
X-151332Y2708494D01*
X-148000Y2705161D01*
X-531329Y2688500D02*
X-518000Y2688500D01*
X-531329Y2701829D01*
X-531329Y2705161D01*
X-527997Y2708494D01*
X-521332Y2708494D01*
X-518000Y2705161D01*
X-188000Y1788500D02*
X-194665Y1788500D01*
X-191332Y1788500D01*
X-191332Y1808494D01*
X-188000Y1805161D01*
X-204661Y1791832D02*
X-207994Y1788500D01*
X-214658Y1788500D01*
X-217990Y1791832D01*
X-217990Y1805161D01*
X-214658Y1808494D01*
X-207994Y1808494D01*
X-204661Y1805161D01*
X-204661Y1801829D01*
X-207994Y1798497D01*
X-217990Y1798497D01*
X-491329Y1788500D02*
X-478000Y1788500D01*
X-491329Y1801829D01*
X-491329Y1805161D01*
X-487997Y1808494D01*
X-481332Y1808494D01*
X-478000Y1805161D01*
X-497993Y1805161D02*
X-501326Y1808494D01*
X-507990Y1808494D01*
X-511322Y1805161D01*
X-511322Y1791832D01*
X-507990Y1788500D01*
X-501326Y1788500D01*
X-497993Y1791832D01*
X-497993Y1805161D01*
X-2128000Y2688500D02*
X-2134664Y2688500D01*
X-2131332Y2688500D01*
X-2131332Y2708494D01*
X-2128000Y2705161D01*
X-2431329Y2688500D02*
X-2418000Y2688500D01*
X-2431329Y2701829D01*
X-2431329Y2705161D01*
X-2427997Y2708494D01*
X-2421332Y2708494D01*
X-2418000Y2705161D01*
X-2118000Y2788500D02*
X-2118000Y2808494D01*
X-2127997Y2808494D01*
X-2131329Y2805161D01*
X-2131329Y2798497D01*
X-2127997Y2795164D01*
X-2118000Y2795164D01*
X-2137994Y2805161D02*
X-2141326Y2808494D01*
X-2147990Y2808494D01*
X-2151323Y2805161D01*
X-2151323Y2801829D01*
X-2147990Y2798497D01*
X-2151323Y2795164D01*
X-2151323Y2791832D01*
X-2147990Y2788500D01*
X-2141326Y2788500D01*
X-2137994Y2791832D01*
X-2137994Y2795164D01*
X-2141326Y2798497D01*
X-2137994Y2801829D01*
X-2137994Y2805161D01*
X-2141326Y2798497D02*
X-2147990Y2798497D01*
X-2108000Y1778500D02*
X-2114664Y1778500D01*
X-2111332Y1778500D01*
X-2111332Y1798494D01*
X-2108000Y1795161D01*
X-2124661Y1781832D02*
X-2127994Y1778500D01*
X-2134658Y1778500D01*
X-2137990Y1781832D01*
X-2137990Y1795161D01*
X-2134658Y1798494D01*
X-2127994Y1798494D01*
X-2124661Y1795161D01*
X-2124661Y1791829D01*
X-2127994Y1788497D01*
X-2137990Y1788497D01*
X-2391329Y1788500D02*
X-2378000Y1788500D01*
X-2391329Y1801829D01*
X-2391329Y1805161D01*
X-2387997Y1808494D01*
X-2381332Y1808494D01*
X-2378000Y1805161D01*
X-2397994Y1805161D02*
X-2401326Y1808494D01*
X-2407990Y1808494D01*
X-2411323Y1805161D01*
X-2411323Y1791832D01*
X-2407990Y1788500D01*
X-2401326Y1788500D01*
X-2397994Y1791832D01*
X-2397994Y1805161D01*
X-2387997Y788500D02*
X-2387997Y808494D01*
X-2378000Y798497D01*
X-2391329Y798497D01*
X-2397994Y805161D02*
X-2401326Y808494D01*
X-2407990Y808494D01*
X-2411323Y805161D01*
X-2411323Y791832D01*
X-2407990Y788500D01*
X-2401326Y788500D01*
X-2397994Y791832D01*
X-2397994Y805161D01*
X-2098000Y805161D02*
X-2101332Y808494D01*
X-2107997Y808494D01*
X-2111329Y805161D01*
X-2111329Y801829D01*
X-2107997Y798497D01*
X-2104664Y798497D01*
X-2107997Y798497D01*
X-2111329Y795164D01*
X-2111329Y791832D01*
X-2107997Y788500D01*
X-2101332Y788500D01*
X-2098000Y791832D01*
X-2117994Y791832D02*
X-2121326Y788500D01*
X-2127990Y788500D01*
X-2131323Y791832D01*
X-2131323Y805161D01*
X-2127990Y808494D01*
X-2121326Y808494D01*
X-2117994Y805161D01*
X-2117994Y801829D01*
X-2121326Y798497D01*
X-2131323Y798497D01*
X-487997Y791000D02*
X-487997Y810994D01*
X-478000Y800997D01*
X-491329Y800997D01*
X-497993Y807661D02*
X-501326Y810994D01*
X-507990Y810994D01*
X-511322Y807661D01*
X-511322Y794332D01*
X-507990Y791000D01*
X-501326Y791000D01*
X-497993Y794332D01*
X-497993Y807661D01*
%TF.MD5,2ee9e5b47ad9385a4701689f4da6ed25*%
M02*
