G04 Layer_Color=0*
%FSLAX26Y26*%
%MOIN*%
%TF.FileFunction,Plated,1,6,PTH,Drill*%
%TF.Part,Single*%
G01*
G75*
%TA.AperFunction,ComponentDrill*%
%ADD73C,0.035433*%
%ADD74C,0.027953*%
%TA.AperFunction,OtherDrill,Free Pad (718.149mil,2620.178mil)*%
%ADD75C,0.095000*%
%TA.AperFunction,OtherDrill,Free Pad (1768.149mil,1570.178mil)*%
%ADD76C,0.095000*%
%TA.AperFunction,OtherDrill,Free Pad (1768.149mil,2620.178mil)*%
%ADD77C,0.095000*%
%TA.AperFunction,OtherDrill,Free Pad (718.149mil,1570.178mil)*%
%ADD78C,0.095000*%
%TA.AperFunction,OtherDrill,Free Pad (2500mil,3928.5mil)*%
%ADD79C,0.098425*%
%TA.AperFunction,OtherDrill,Free Pad (2500mil,6278.5mil)*%
%ADD80C,0.098425*%
%TA.AperFunction,OtherDrill,Free Pad (150mil,3928.5mil)*%
%ADD81C,0.098425*%
%TA.AperFunction,OtherDrill,Free Pad (150mil,6278.5mil)*%
%ADD82C,0.098425*%
%TA.AperFunction,OtherDrill,Pad Free-2 (1320mil,5778.5mil)*%
%ADD83C,0.030000*%
%TA.AperFunction,ComponentDrill*%
%ADD84C,0.118110*%
%ADD85C,0.031496*%
%ADD86C,0.030000*%
%ADD87C,0.037402*%
%ADD88C,0.047000*%
%ADD89C,0.100000*%
%ADD90C,0.035433*%
%TA.AperFunction,ViaDrill,NotFilled*%
%ADD91C,0.028000*%
%ADD92C,0.011811*%
D73*
X968149Y2620178D02*
D03*
X1068149Y2620178D02*
D03*
X1168149Y2620178D02*
D03*
X1268149Y2620178D02*
D03*
X1468149Y2620178D02*
D03*
X1568149Y2620178D02*
D03*
X1368149Y2620178D02*
D03*
X2407519Y7307176D02*
D03*
X2007519Y7307176D02*
D03*
X2107519Y7307176D02*
D03*
X2207519Y7307176D02*
D03*
X2307519Y7307176D02*
D03*
X2021999Y7061500D02*
D03*
X2121999Y7061500D02*
D03*
X2221999Y7061500D02*
D03*
X2321999Y7061500D02*
D03*
X2421999Y7061500D02*
D03*
X2521999Y7061500D02*
D03*
D74*
X2450000Y5878500D02*
D03*
X2450000Y5778500D02*
D03*
X2450000Y5678500D02*
D03*
X2450000Y5578500D02*
D03*
X2450000Y5478500D02*
D03*
X2550000Y5878500D02*
D03*
X2550000Y5778500D02*
D03*
X2550000Y5678500D02*
D03*
X2550000Y5578500D02*
D03*
X2550000Y5478500D02*
D03*
X2450000Y5378500D02*
D03*
X2450000Y5278500D02*
D03*
X2450000Y5178500D02*
D03*
X2550000Y5378500D02*
D03*
X2550000Y5278500D02*
D03*
X2550000Y5178500D02*
D03*
X150000Y4978500D02*
D03*
X150000Y4878500D02*
D03*
X150000Y4778500D02*
D03*
X150000Y4678500D02*
D03*
X150000Y4578500D02*
D03*
X250000Y4978500D02*
D03*
X250000Y4878500D02*
D03*
X250000Y4778500D02*
D03*
X250000Y4678500D02*
D03*
X250000Y4578500D02*
D03*
X150000Y4478500D02*
D03*
X150000Y4378500D02*
D03*
X150000Y4278500D02*
D03*
X250000Y4478500D02*
D03*
X250000Y4378500D02*
D03*
X250000Y4278500D02*
D03*
X250000Y5828500D02*
D03*
X250000Y5728500D02*
D03*
X250000Y5628500D02*
D03*
X250000Y5528500D02*
D03*
X250000Y5428500D02*
D03*
X150000Y5828500D02*
D03*
X150000Y5728500D02*
D03*
X150000Y5628500D02*
D03*
X150000Y5528500D02*
D03*
X150000Y5428500D02*
D03*
X2550000Y4628500D02*
D03*
X2550000Y4528500D02*
D03*
X2550000Y4428500D02*
D03*
X2550000Y4328500D02*
D03*
X2550000Y4228500D02*
D03*
X2450000Y4628500D02*
D03*
X2450000Y4528500D02*
D03*
X2450000Y4428500D02*
D03*
X2450000Y4328500D02*
D03*
X2450000Y4228500D02*
D03*
D75*
X718149Y2620178D02*
D03*
D76*
X1768149Y1570178D02*
D03*
D77*
X1768149Y2620178D02*
D03*
D78*
X718149Y1570178D02*
D03*
D79*
X2500000Y3928500D02*
D03*
D80*
X2500000Y6278500D02*
D03*
D81*
X150000Y3928500D02*
D03*
D82*
X150000Y6278500D02*
D03*
D83*
X1320000Y5778500D02*
D03*
D84*
X370000Y2900000D02*
D03*
X2270000Y2900000D02*
D03*
X2145000Y300000D02*
D03*
X495000Y300000D02*
D03*
D85*
X420000Y2700000D02*
D03*
X420000Y2600000D02*
D03*
X420000Y2500000D02*
D03*
X420000Y2400000D02*
D03*
X420000Y2300000D02*
D03*
X420000Y2200000D02*
D03*
X420000Y2100000D02*
D03*
X420000Y2000000D02*
D03*
X420000Y1900000D02*
D03*
X420000Y1800000D02*
D03*
X420000Y1700000D02*
D03*
X420000Y1600000D02*
D03*
X420000Y1500000D02*
D03*
X420000Y1400000D02*
D03*
X420000Y1300000D02*
D03*
X420000Y1200000D02*
D03*
X420000Y1100000D02*
D03*
X420000Y1000000D02*
D03*
X420000Y900000D02*
D03*
X420000Y800000D02*
D03*
X420000Y700000D02*
D03*
X420000Y600000D02*
D03*
X420000Y500000D02*
D03*
X320000Y2600000D02*
D03*
X320000Y2500000D02*
D03*
X320000Y2400000D02*
D03*
X320000Y2300000D02*
D03*
X320000Y2200000D02*
D03*
X320000Y2100000D02*
D03*
X320000Y2000000D02*
D03*
X320000Y1900000D02*
D03*
X320000Y1800000D02*
D03*
X320000Y1700000D02*
D03*
X320000Y1600000D02*
D03*
X320000Y1500000D02*
D03*
X320000Y1400000D02*
D03*
X320000Y1300000D02*
D03*
X320000Y1200000D02*
D03*
X320000Y1100000D02*
D03*
X320000Y1000000D02*
D03*
X320000Y900000D02*
D03*
X320000Y800000D02*
D03*
X320000Y700000D02*
D03*
X320000Y600000D02*
D03*
X320000Y500000D02*
D03*
X2220000Y2700000D02*
D03*
X2320000Y2700000D02*
D03*
X2320000Y2600000D02*
D03*
X2320000Y2500000D02*
D03*
X2320000Y2400000D02*
D03*
X2320000Y2300000D02*
D03*
X2320000Y2200000D02*
D03*
X2320000Y2100000D02*
D03*
X2320000Y2000000D02*
D03*
X2320000Y1900000D02*
D03*
X2320000Y1800000D02*
D03*
X2320000Y1700000D02*
D03*
X2320000Y1600000D02*
D03*
X2320000Y1500000D02*
D03*
X2320000Y1400000D02*
D03*
X2320000Y1300000D02*
D03*
X2320000Y1200000D02*
D03*
X2320000Y1100000D02*
D03*
X2320000Y1000000D02*
D03*
X2320000Y900000D02*
D03*
X2320000Y800000D02*
D03*
X2320000Y700000D02*
D03*
X2320000Y600000D02*
D03*
X2320000Y500000D02*
D03*
X2220000Y2600000D02*
D03*
X2220000Y2500000D02*
D03*
X2220000Y2400000D02*
D03*
X2220000Y2300000D02*
D03*
X2220000Y2200000D02*
D03*
X2220000Y2100000D02*
D03*
X2220000Y2000000D02*
D03*
X2220000Y1900000D02*
D03*
X2220000Y1800000D02*
D03*
X2220000Y1700000D02*
D03*
X2220000Y1600000D02*
D03*
X2220000Y1500000D02*
D03*
X2220000Y1400000D02*
D03*
X2220000Y1300000D02*
D03*
X2220000Y1200000D02*
D03*
X2220000Y1100000D02*
D03*
X2220000Y1000000D02*
D03*
X2220000Y900000D02*
D03*
X2220000Y800000D02*
D03*
X2220000Y700000D02*
D03*
X2220000Y600000D02*
D03*
X2220000Y500000D02*
D03*
D86*
X320000Y2700000D02*
D03*
D87*
X1640000Y7248500D02*
D03*
X1640000Y7348500D02*
D03*
X540000Y7248500D02*
D03*
X640000Y7248500D02*
D03*
X740000Y7248500D02*
D03*
X840000Y7248500D02*
D03*
X940000Y7248500D02*
D03*
X1040000Y7248500D02*
D03*
X1140000Y7248500D02*
D03*
X1240000Y7248500D02*
D03*
X1340000Y7248500D02*
D03*
X1440000Y7248500D02*
D03*
X540000Y7348500D02*
D03*
X640000Y7348500D02*
D03*
X740000Y7348500D02*
D03*
X840000Y7348500D02*
D03*
X940000Y7348500D02*
D03*
X1040000Y7348500D02*
D03*
X1140000Y7348500D02*
D03*
X1240000Y7348500D02*
D03*
X1340000Y7348500D02*
D03*
X1440000Y7348500D02*
D03*
X1540000Y7348500D02*
D03*
X1540000Y7248500D02*
D03*
D88*
X1942597Y5837160D02*
D03*
X1944197Y6585760D02*
D03*
D89*
X1944197Y6747660D02*
D03*
X1944197Y5675260D02*
D03*
D90*
X718149Y2420178D02*
D03*
X718149Y2320178D02*
D03*
X718149Y2220178D02*
D03*
X1768149Y2420178D02*
D03*
X1768149Y2320178D02*
D03*
X1768149Y2220178D02*
D03*
D91*
X1000000Y6668500D02*
D03*
X540000Y5053500D02*
D03*
X625000Y4953500D02*
D03*
X990000Y6771500D02*
D03*
X2340000Y6108500D02*
D03*
X1245000Y6778500D02*
D03*
X1240000Y6853500D02*
D03*
X2436323Y908311D02*
D03*
X2432386Y1223272D02*
D03*
X60000Y418500D02*
D03*
X2580000Y4813500D02*
D03*
X2372519Y6767176D02*
D03*
X1917519Y7527176D02*
D03*
X1260000Y7587500D02*
D03*
X530000Y6288500D02*
D03*
X1510000Y6318500D02*
D03*
X1460000Y6078500D02*
D03*
X590000Y6478500D02*
D03*
X1320000Y6928500D02*
D03*
X1370000Y7138500D02*
D03*
X730000Y3148500D02*
D03*
X710000Y4588500D02*
D03*
X1570000Y3828500D02*
D03*
X860000Y4668500D02*
D03*
X1660000Y3878500D02*
D03*
X780000Y6978500D02*
D03*
X890000Y6588500D02*
D03*
X2020000Y2035000D02*
D03*
X1930000Y1755000D02*
D03*
D92*
X550000Y7488500D02*
D03*
X180000Y7453500D02*
D03*
X2010000Y6228500D02*
D03*
X1910000Y6278500D02*
D03*
X1990000Y6308500D02*
D03*
X1333961Y990988D02*
D03*
X963882Y990988D02*
D03*
X1314276Y1101224D02*
D03*
X1365000Y965500D02*
D03*
X365000Y7513500D02*
D03*
X1990000Y6348500D02*
D03*
X2050000Y4468500D02*
D03*
X1940000Y7600000D02*
D03*
X1367000Y1899500D02*
D03*
%TF.MD5,e8795bd9d94f8ad724130e27297b72ee*%
M02*
