G04 Layer_Color=128*
%FSLAX26Y26*%
%MOIN*%
%TF.FileFunction,Paste,Bot*%
%TF.Part,Single*%
G01*
G75*
%TA.AperFunction,SMDPad,CuDef*%
%ADD12R,0.051181X0.033465*%
%ADD31O,0.066929X0.011811*%
%ADD32R,0.059055X0.049213*%
%ADD33O,0.072835X0.013780*%
%ADD34R,0.037402X0.053150*%
%ADD35R,0.078740X0.024000*%
%ADD36R,0.055118X0.041339*%
%ADD37R,0.070866X0.039370*%
%ADD38R,0.019685X0.070866*%
%ADD39R,0.019685X0.066929*%
%ADD40R,0.049213X0.059055*%
D12*
X2365064Y-3081213D02*
D03*
X2365064Y-3148141D02*
D03*
X2294196Y-3148141D02*
D03*
X2294196Y-3081213D02*
D03*
X144590Y3304614D02*
D03*
X144590Y3371544D02*
D03*
X2085535Y2434535D02*
D03*
X2085535Y2501465D02*
D03*
X263315Y3304614D02*
D03*
X263315Y3371544D02*
D03*
X400315Y3304614D02*
D03*
X400315Y3371544D02*
D03*
X489315Y3306898D02*
D03*
X489315Y3373828D02*
D03*
D31*
X1664606Y-2036008D02*
D03*
X1664606Y-2016323D02*
D03*
X1664606Y-1996638D02*
D03*
X1664606Y-1976953D02*
D03*
X1664606Y-1957268D02*
D03*
X1826024Y-2036008D02*
D03*
X1826024Y-2016323D02*
D03*
X1826024Y-1996638D02*
D03*
X1826024Y-1976953D02*
D03*
X1826024Y-1957268D02*
D03*
D32*
X1467424Y2745559D02*
D03*
X1467424Y2662881D02*
D03*
D33*
X875889Y-3038889D02*
D03*
X875889Y-3013299D02*
D03*
X875889Y-2987709D02*
D03*
X875889Y-2962117D02*
D03*
X875889Y-2936527D02*
D03*
X875889Y-2910937D02*
D03*
X875889Y-2885347D02*
D03*
X875889Y-2859755D02*
D03*
X1106205Y-3038889D02*
D03*
X1106205Y-3013299D02*
D03*
X1106205Y-2987709D02*
D03*
X1106205Y-2962117D02*
D03*
X1106205Y-2936527D02*
D03*
X1106205Y-2910937D02*
D03*
X1106205Y-2885347D02*
D03*
X1106205Y-2859755D02*
D03*
D34*
X146496Y3630001D02*
D03*
X83504Y3630001D02*
D03*
X276811Y3633362D02*
D03*
X213819Y3633362D02*
D03*
X401496Y3639999D02*
D03*
X338504Y3639999D02*
D03*
X541811Y3633362D02*
D03*
X478819Y3633362D02*
D03*
X1681819Y3672362D02*
D03*
X1744811Y3672362D02*
D03*
X1024504Y3659000D02*
D03*
X1087496Y3659000D02*
D03*
D35*
X1951797Y1908660D02*
D03*
D03*
X1951797Y1948060D02*
D03*
X1951797Y1987460D02*
D03*
X1951797Y2026860D02*
D03*
X1951797Y2066260D02*
D03*
X1951797Y2105660D02*
D03*
X1951797Y2145060D02*
D03*
X1951797Y2184460D02*
D03*
X1951797Y2223860D02*
D03*
X1951797Y2263260D02*
D03*
X1951797Y2302660D02*
D03*
X1951797Y2342060D02*
D03*
X1951797Y2381460D02*
D03*
X1951797Y2420860D02*
D03*
X1951797Y2460260D02*
D03*
X1951797Y2499660D02*
D03*
X1951797Y2539060D02*
D03*
X1951797Y2578460D02*
D03*
X1951797Y2617860D02*
D03*
X1951797Y2657260D02*
D03*
X1636597Y1908660D02*
D03*
X1636597Y1948060D02*
D03*
X1636597Y1987460D02*
D03*
X1636597Y2026860D02*
D03*
X1636597Y2066260D02*
D03*
X1636597Y2105660D02*
D03*
X1636597Y2145060D02*
D03*
X1636597Y2184460D02*
D03*
X1636597Y2223860D02*
D03*
X1636597Y2263260D02*
D03*
X1636597Y2302660D02*
D03*
X1636597Y2342060D02*
D03*
X1636597Y2381460D02*
D03*
X1636597Y2420860D02*
D03*
X1636597Y2460260D02*
D03*
X1636597Y2499660D02*
D03*
X1636597Y2539060D02*
D03*
X1636597Y2578460D02*
D03*
X1636597Y2617860D02*
D03*
X1636597Y2657260D02*
D03*
D36*
X2195772Y2497527D02*
D03*
X2195772Y2422725D02*
D03*
X1890000Y-2197401D02*
D03*
X1890000Y-2122598D02*
D03*
D37*
X1570000Y-2040787D02*
D03*
X1570000Y-2139213D02*
D03*
D38*
X1169528Y-3342992D02*
D03*
D39*
X1110472Y-3341024D02*
D03*
D40*
X1519659Y3669000D02*
D03*
X1602335Y3669000D02*
D03*
X1173842Y3660898D02*
D03*
X1256520Y3660898D02*
D03*
%TF.MD5,65d832bed72d9fa63bfdf4bba96aa683*%
M02*
