G04 Layer_Physical_Order=4*
G04 Layer_Color=36540*
%FSLAX26Y26*%
%MOIN*%
%TF.FileFunction,Copper,L4,Inr,Signal*%
%TF.Part,Single*%
G01*
G75*
%TA.AperFunction,Conductor*%
%ADD18C,0.010000*%
%TA.AperFunction,ComponentPad*%
%ADD19C,0.059055*%
%ADD20R,0.059055X0.059055*%
%TA.AperFunction,ViaPad*%
%ADD21C,0.085000*%
%ADD22C,0.196850*%
%ADD23C,0.196850*%
%ADD24C,0.060000*%
%TA.AperFunction,ComponentPad*%
%ADD25R,0.060000X0.060000*%
%ADD26C,0.157480*%
%ADD27C,0.060000*%
%ADD28C,0.070866*%
%ADD29C,0.047000*%
%ADD30C,0.100000*%
%ADD31R,0.059055X0.059055*%
%TA.AperFunction,ViaPad*%
%ADD32C,0.050000*%
%ADD33C,0.027559*%
D18*
X968149Y2620178D02*
X1412489Y2175838D01*
X590000Y2448327D02*
X590000Y6478500D01*
X590000Y2448327D02*
X718149Y2320178D01*
X2165000Y6559657D02*
X2372519Y6767176D01*
X250000Y4578500D02*
X289528Y4618028D01*
X2410472Y4412127D02*
X2447593Y4375007D01*
X2360000Y2240000D02*
X2360000Y6077676D01*
X2340000Y6097676D02*
X2360000Y6077676D01*
X457425Y4430025D02*
X457425Y6726636D01*
X280000Y1240000D02*
X280000Y4252600D01*
X2319500Y2199500D02*
X2360000Y2240000D01*
X2219425Y2599500D02*
X2220500Y2599500D01*
X2276499Y1486932D02*
X2323432Y1440000D01*
X780000Y2282029D02*
X780000Y6978500D01*
X718149Y2220178D02*
X780000Y2282029D01*
X2180000Y1640000D02*
X2219425Y1600575D01*
X2165000Y1555000D02*
X2165000Y6559657D01*
X2219425Y1499500D02*
X2219425Y1500575D01*
X2219425Y1599500D02*
X2219425Y1600575D01*
X2319425Y2199500D02*
X2319500Y2199500D01*
X280000Y4252600D02*
X457425Y4430025D01*
X380000Y2784503D02*
X472425Y2876928D01*
X417519Y1197519D02*
X487425Y1267425D01*
X380000Y1140000D02*
X417519Y1102481D01*
X317519Y1197336D02*
X317519Y1202481D01*
X417519Y1197336D02*
X417519Y1197519D01*
X2218925Y1400000D02*
X2219425Y1399500D01*
X2207519Y7307176D02*
X2334671Y7180025D01*
X2447593Y4375007D02*
X2503493Y4375007D01*
X2550000Y4328500D01*
X2340000Y6097676D02*
X2340000Y6108500D01*
X289528Y4618028D02*
X289528Y5388972D01*
X250000Y5428500D02*
X289528Y5388972D01*
X2180000Y6111836D02*
X2561527Y6493363D01*
X2165000Y1555000D02*
X2219425Y1500575D01*
X2459375Y7180025D02*
X2561527Y7077873D01*
X2180000Y1640000D02*
X2180000Y6111836D01*
X2334671Y7180025D02*
X2459375Y7180025D01*
X2561527Y6493363D02*
X2561527Y7077873D01*
X487425Y6245925D02*
X530000Y6288500D01*
X487425Y1267425D02*
X487425Y6245925D01*
X2410472Y5338972D02*
X2450000Y5378500D01*
X2410472Y4412127D02*
X2410472Y5338972D01*
X1100000Y7488500D02*
X1240000Y7348500D01*
X550000Y7488500D02*
X1100000Y7488500D01*
X1250000Y7138500D02*
X1370000Y7138500D01*
X1140000Y7248500D02*
X1250000Y7138500D01*
X759289Y7028500D02*
X820000Y7028500D01*
X280000Y1240000D02*
X317519Y1202481D01*
X820000Y7028500D02*
X1040000Y7248500D01*
X457425Y6726636D02*
X759289Y7028500D01*
X765503Y7013500D02*
X869252Y7013500D01*
X472425Y6720423D02*
X765503Y7013500D01*
X869252Y7013500D02*
X1085433Y7229681D01*
X1040000Y7348500D02*
X1085433Y7303067D01*
X1085433Y7229681D02*
X1085433Y7303067D01*
X2220500Y2599500D02*
X2276499Y2543501D01*
X2336568Y1440000D02*
X2432386Y1344183D01*
X2432386Y1223272D02*
X2432386Y1344183D01*
X2323432Y1440000D02*
X2336568Y1440000D01*
X2276499Y1486932D02*
X2276499Y2543501D01*
X472425Y2876928D02*
X472425Y6720423D01*
X417519Y1097336D02*
X417519Y1102481D01*
X380000Y1140000D02*
X380000Y2784503D01*
X1366000Y1898500D02*
X1367000Y1899500D01*
X1365000Y965500D02*
X1366000Y966500D01*
X1366000Y1898500D01*
X1857009Y1400000D02*
X2218925Y1400000D01*
X1412489Y1844521D02*
X1412489Y2175838D01*
X1412489Y1844521D02*
X1857009Y1400000D01*
D19*
X968149Y2620178D02*
D03*
X1068149Y2620178D02*
D03*
X1168149Y2620178D02*
D03*
X1268149Y2620178D02*
D03*
X1468149Y2620178D02*
D03*
X1368149Y2620178D02*
D03*
X2450000Y5878500D02*
D03*
X2450000Y5778500D02*
D03*
X2450000Y5678500D02*
D03*
X2450000Y5578500D02*
D03*
X2450000Y5478500D02*
D03*
X2550000Y5878500D02*
D03*
X2550000Y5778500D02*
D03*
X2550000Y5678500D02*
D03*
X2550000Y5578500D02*
D03*
X2550000Y5478500D02*
D03*
X2450000Y5378500D02*
D03*
X2450000Y5278500D02*
D03*
X2450000Y5178500D02*
D03*
X2550000Y5378500D02*
D03*
X2550000Y5278500D02*
D03*
X2550000Y5178500D02*
D03*
X150000Y4978500D02*
D03*
X150000Y4878500D02*
D03*
X150000Y4778500D02*
D03*
X150000Y4678500D02*
D03*
X150000Y4578500D02*
D03*
X250000Y4978500D02*
D03*
X250000Y4878500D02*
D03*
X250000Y4778500D02*
D03*
X250000Y4678500D02*
D03*
X250000Y4578500D02*
D03*
X150000Y4478500D02*
D03*
X150000Y4378500D02*
D03*
X150000Y4278500D02*
D03*
X250000Y4478500D02*
D03*
X250000Y4378500D02*
D03*
X250000Y4278500D02*
D03*
X250000Y5828500D02*
D03*
X250000Y5728500D02*
D03*
X250000Y5628500D02*
D03*
X250000Y5528500D02*
D03*
X250000Y5428500D02*
D03*
X150000Y5828500D02*
D03*
X150000Y5728500D02*
D03*
X150000Y5628500D02*
D03*
X150000Y5528500D02*
D03*
X150000Y5428500D02*
D03*
X2121999Y7061500D02*
D03*
X2221999Y7061500D02*
D03*
X2321999Y7061500D02*
D03*
X2421999Y7061500D02*
D03*
X2521999Y7061500D02*
D03*
X2550000Y4628500D02*
D03*
X2550000Y4528500D02*
D03*
X2550000Y4428500D02*
D03*
X2550000Y4328500D02*
D03*
X2550000Y4228500D02*
D03*
X2450000Y4628500D02*
D03*
X2450000Y4528500D02*
D03*
X2450000Y4428500D02*
D03*
X2450000Y4328500D02*
D03*
X2450000Y4228500D02*
D03*
X718149Y2320178D02*
D03*
X718149Y2220178D02*
D03*
X1768149Y2320178D02*
D03*
X1768149Y2220178D02*
D03*
D20*
X1568149Y2620178D02*
D03*
X2021999Y7061500D02*
D03*
D21*
X718149Y2620178D02*
D03*
X1768149Y1570178D02*
D03*
X1768149Y2620178D02*
D03*
X718149Y1570178D02*
D03*
D22*
X2500000Y3928500D02*
D03*
X2500000Y6278500D02*
D03*
X150000Y6278500D02*
D03*
D23*
X150000Y3928500D02*
D03*
D24*
X1320000Y5778500D02*
D03*
D25*
X2407519Y7307176D02*
D03*
X2007519Y7307176D02*
D03*
X2107519Y7307176D02*
D03*
X2207519Y7307176D02*
D03*
X2307519Y7307176D02*
D03*
D26*
X370000Y2900000D02*
D03*
X2270000Y2900000D02*
D03*
X2145000Y300000D02*
D03*
X495000Y300000D02*
D03*
D27*
X420000Y2700000D02*
D03*
X420000Y2600000D02*
D03*
X420000Y2500000D02*
D03*
X420000Y2400000D02*
D03*
X420000Y2300000D02*
D03*
X420000Y2200000D02*
D03*
X420000Y2100000D02*
D03*
X420000Y2000000D02*
D03*
X420000Y1900000D02*
D03*
X420000Y1800000D02*
D03*
X420000Y1700000D02*
D03*
X420000Y1600000D02*
D03*
X420000Y1500000D02*
D03*
X420000Y1400000D02*
D03*
X420000Y1300000D02*
D03*
X420000Y1200000D02*
D03*
X420000Y1100000D02*
D03*
X420000Y1000000D02*
D03*
X420000Y900000D02*
D03*
X420000Y800000D02*
D03*
X420000Y700000D02*
D03*
X420000Y600000D02*
D03*
X420000Y500000D02*
D03*
X320000Y2600000D02*
D03*
X320000Y2500000D02*
D03*
X320000Y2400000D02*
D03*
X320000Y2300000D02*
D03*
X320000Y2200000D02*
D03*
X320000Y2100000D02*
D03*
X320000Y2000000D02*
D03*
X320000Y1900000D02*
D03*
X320000Y1800000D02*
D03*
X320000Y1700000D02*
D03*
X320000Y1600000D02*
D03*
X320000Y1500000D02*
D03*
X320000Y1400000D02*
D03*
X320000Y1300000D02*
D03*
X320000Y1200000D02*
D03*
X320000Y1100000D02*
D03*
X320000Y1000000D02*
D03*
X320000Y900000D02*
D03*
X320000Y800000D02*
D03*
X320000Y700000D02*
D03*
X320000Y600000D02*
D03*
X320000Y500000D02*
D03*
X2220000Y2700000D02*
D03*
X2320000Y2700000D02*
D03*
X2320000Y2600000D02*
D03*
X2320000Y2500000D02*
D03*
X2320000Y2400000D02*
D03*
X2320000Y2300000D02*
D03*
X2320000Y2200000D02*
D03*
X2320000Y2100000D02*
D03*
X2320000Y2000000D02*
D03*
X2320000Y1900000D02*
D03*
X2320000Y1800000D02*
D03*
X2320000Y1700000D02*
D03*
X2320000Y1600000D02*
D03*
X2320000Y1500000D02*
D03*
X2320000Y1400000D02*
D03*
X2320000Y1300000D02*
D03*
X2320000Y1200000D02*
D03*
X2320000Y1100000D02*
D03*
X2320000Y1000000D02*
D03*
X2320000Y900000D02*
D03*
X2320000Y800000D02*
D03*
X2320000Y700000D02*
D03*
X2320000Y600000D02*
D03*
X2320000Y500000D02*
D03*
X2220000Y2600000D02*
D03*
X2220000Y2500000D02*
D03*
X2220000Y2400000D02*
D03*
X2220000Y2300000D02*
D03*
X2220000Y2200000D02*
D03*
X2220000Y2100000D02*
D03*
X2220000Y2000000D02*
D03*
X2220000Y1900000D02*
D03*
X2220000Y1800000D02*
D03*
X2220000Y1700000D02*
D03*
X2220000Y1600000D02*
D03*
X2220000Y1500000D02*
D03*
X2220000Y1400000D02*
D03*
X2220000Y1300000D02*
D03*
X2220000Y1200000D02*
D03*
X2220000Y1100000D02*
D03*
X2220000Y1000000D02*
D03*
X2220000Y900000D02*
D03*
X2220000Y800000D02*
D03*
X2220000Y700000D02*
D03*
X2220000Y600000D02*
D03*
X2220000Y500000D02*
D03*
X320000Y2700000D02*
D03*
D28*
X1640000Y7248500D02*
D03*
X1640000Y7348500D02*
D03*
X540000Y7248500D02*
D03*
X640000Y7248500D02*
D03*
X740000Y7248500D02*
D03*
X840000Y7248500D02*
D03*
X940000Y7248500D02*
D03*
X1040000Y7248500D02*
D03*
X1140000Y7248500D02*
D03*
X1240000Y7248500D02*
D03*
X1340000Y7248500D02*
D03*
X1440000Y7248500D02*
D03*
X540000Y7348500D02*
D03*
X640000Y7348500D02*
D03*
X740000Y7348500D02*
D03*
X840000Y7348500D02*
D03*
X940000Y7348500D02*
D03*
X1040000Y7348500D02*
D03*
X1140000Y7348500D02*
D03*
X1240000Y7348500D02*
D03*
X1340000Y7348500D02*
D03*
X1440000Y7348500D02*
D03*
X1540000Y7348500D02*
D03*
X1540000Y7248500D02*
D03*
D29*
X1942597Y5837160D02*
D03*
X1944197Y6585760D02*
D03*
D30*
X1944197Y6747660D02*
D03*
X1944197Y5675260D02*
D03*
D31*
X718149Y2420178D02*
D03*
X1768149Y2420178D02*
D03*
D32*
X1000000Y6668500D02*
D03*
X540000Y5053500D02*
D03*
X625000Y4953500D02*
D03*
X990000Y6771500D02*
D03*
X2340000Y6108500D02*
D03*
X1245000Y6778500D02*
D03*
X1240000Y6853500D02*
D03*
X2436323Y908311D02*
D03*
X2432386Y1223272D02*
D03*
X60000Y418500D02*
D03*
X2580000Y4813500D02*
D03*
X2372519Y6767176D02*
D03*
X1917519Y7527176D02*
D03*
X1260000Y7587500D02*
D03*
X530000Y6288500D02*
D03*
X1510000Y6318500D02*
D03*
X1460000Y6078500D02*
D03*
X590000Y6478500D02*
D03*
X1320000Y6928500D02*
D03*
X1370000Y7138500D02*
D03*
X730000Y3148500D02*
D03*
X710000Y4588500D02*
D03*
X1570000Y3828500D02*
D03*
X860000Y4668500D02*
D03*
X1660000Y3878500D02*
D03*
X780000Y6978500D02*
D03*
X890000Y6588500D02*
D03*
X2020000Y2035000D02*
D03*
X1930000Y1755000D02*
D03*
D33*
X550000Y7488500D02*
D03*
X180000Y7453500D02*
D03*
X2010000Y6228500D02*
D03*
X1910000Y6278500D02*
D03*
X1990000Y6308500D02*
D03*
X1333961Y990988D02*
D03*
X963882Y990988D02*
D03*
X1314276Y1101224D02*
D03*
X1365000Y965500D02*
D03*
X365000Y7513500D02*
D03*
X1990000Y6348500D02*
D03*
X2050000Y4468500D02*
D03*
X1940000Y7600000D02*
D03*
X1367000Y1899500D02*
D03*
%TF.MD5,5250f7eef4bde1fb98270c1c2f3a54df*%
M02*
