G04 Layer_Physical_Order=6*
G04 Layer_Color=16711680*
%FSLAX26Y26*%
%MOIN*%
%TF.FileFunction,Copper,L6,Bot,Signal*%
%TF.Part,Single*%
G01*
G75*
%TA.AperFunction,SMDPad,CuDef*%
%ADD10R,0.051181X0.033465*%
%ADD12R,0.055118X0.041339*%
%TA.AperFunction,Conductor*%
%ADD18C,0.010000*%
%TA.AperFunction,ComponentPad*%
%ADD19R,0.060000X0.060000*%
%TA.AperFunction,ViaPad*%
%ADD20C,0.196850*%
%ADD21C,0.196850*%
%ADD22C,0.085000*%
%TA.AperFunction,ComponentPad*%
%ADD23C,0.157480*%
%ADD24C,0.060000*%
%ADD25C,0.059055*%
%ADD26R,0.059055X0.059055*%
%ADD27R,0.059055X0.059055*%
%ADD28C,0.100000*%
%ADD29C,0.047000*%
%ADD30C,0.070866*%
%TA.AperFunction,ViaPad*%
%ADD31C,0.050000*%
%ADD32C,0.027559*%
%TA.AperFunction,SMDPad,CuDef*%
%ADD33R,0.049213X0.059055*%
%ADD34R,0.037402X0.053150*%
%ADD35R,0.019685X0.066929*%
%ADD36R,0.019685X0.070866*%
%ADD37O,0.066929X0.011811*%
%ADD38O,0.072835X0.013780*%
%ADD39R,0.078740X0.024000*%
%ADD40R,0.059055X0.049213*%
%ADD41R,0.043307X0.023622*%
G36*
X2387519Y2658676D02*
X2387519Y-4979166D01*
X-250480Y-4979166D01*
X-250481Y2658677D01*
X2387519Y2658676D01*
X2387519Y2658676D02*
G37*
%LPC*%
G36*
X1018149Y-2323497D02*
X1009135Y-2324684D01*
X1000736Y-2328163D01*
X993524Y-2333697D01*
X987989Y-2340910D01*
X984510Y-2349309D01*
X983323Y-2358322D01*
X984510Y-2367336D01*
X987989Y-2375735D01*
X993524Y-2382948D01*
X1000736Y-2388482D01*
X1009135Y-2391961D01*
X1018149Y-2393148D01*
X1027162Y-2391961D01*
X1035562Y-2388482D01*
X1042774Y-2382948D01*
X1048309Y-2375735D01*
X1051788Y-2367336D01*
X1052974Y-2358322D01*
X1051788Y-2349309D01*
X1048309Y-2340910D01*
X1042774Y-2333697D01*
X1035562Y-2328163D01*
X1027162Y-2324684D01*
X1018149Y-2323497D01*
X1018149Y-2323497D02*
G37*
G36*
X918149Y-2323497D02*
X909135Y-2324684D01*
X900736Y-2328163D01*
X893524Y-2333697D01*
X887989Y-2340910D01*
X884510Y-2349309D01*
X883323Y-2358322D01*
X884510Y-2367336D01*
X887989Y-2375735D01*
X893524Y-2382948D01*
X900736Y-2388482D01*
X909135Y-2391961D01*
X918149Y-2393148D01*
X927162Y-2391961D01*
X935562Y-2388482D01*
X942774Y-2382948D01*
X948309Y-2375735D01*
X951788Y-2367336D01*
X952974Y-2358322D01*
X951788Y-2349309D01*
X948309Y-2340910D01*
X942774Y-2333697D01*
X935562Y-2328163D01*
X927162Y-2324684D01*
X918149Y-2323497D01*
X918149Y-2323497D02*
G37*
G36*
X1113149Y-2319112D02*
X1107830Y-2319812D01*
X1098215Y-2323795D01*
X1089957Y-2330131D01*
X1083622Y-2338388D01*
X1079639Y-2348004D01*
X1078939Y-2353322D01*
X1113149Y-2353322D01*
X1113149Y-2319112D01*
X1113149Y-2319112D02*
G37*
G36*
X1352676Y-2323795D02*
X1283621Y-2323795D01*
X1283621Y-2392850D01*
X1352676Y-2392850D01*
X1352676Y-2323795D01*
X1352676Y-2323795D02*
G37*
G36*
X818149Y-2323497D02*
X809135Y-2324684D01*
X800736Y-2328163D01*
X793524Y-2333697D01*
X787989Y-2340910D01*
X784510Y-2349309D01*
X783323Y-2358322D01*
X784510Y-2367336D01*
X787989Y-2375735D01*
X793524Y-2382948D01*
X800736Y-2388482D01*
X809135Y-2391961D01*
X818149Y-2393148D01*
X827162Y-2391961D01*
X835562Y-2388482D01*
X842774Y-2382948D01*
X848309Y-2375735D01*
X851788Y-2367336D01*
X852974Y-2358322D01*
X851788Y-2349309D01*
X848309Y-2340910D01*
X842774Y-2333697D01*
X835562Y-2328163D01*
X827162Y-2324684D01*
X818149Y-2323497D01*
X818149Y-2323497D02*
G37*
G36*
X1213149Y-2363322D02*
X1178939Y-2363322D01*
X1179639Y-2368641D01*
X1183622Y-2378257D01*
X1189957Y-2386514D01*
X1198215Y-2392850D01*
X1207830Y-2396832D01*
X1213149Y-2397533D01*
X1213149Y-2363322D01*
X1213149Y-2363322D02*
G37*
G36*
X1113149Y-2363322D02*
X1078939Y-2363322D01*
X1079639Y-2368641D01*
X1083622Y-2378257D01*
X1089957Y-2386514D01*
X1098215Y-2392850D01*
X1107830Y-2396832D01*
X1113149Y-2397533D01*
X1113149Y-2363322D01*
X1113149Y-2363322D02*
G37*
G36*
X718149Y-2323497D02*
X709135Y-2324684D01*
X700736Y-2328163D01*
X693524Y-2333697D01*
X687989Y-2340910D01*
X684510Y-2349309D01*
X683323Y-2358322D01*
X684510Y-2367336D01*
X687989Y-2375735D01*
X693524Y-2382948D01*
X700736Y-2388482D01*
X709135Y-2391961D01*
X718149Y-2393148D01*
X727162Y-2391961D01*
X735562Y-2388482D01*
X742774Y-2382948D01*
X748309Y-2375735D01*
X751788Y-2367336D01*
X752974Y-2358322D01*
X751788Y-2349309D01*
X748309Y-2340910D01*
X742774Y-2333697D01*
X735562Y-2328163D01*
X727162Y-2324684D01*
X718149Y-2323497D01*
X718149Y-2323497D02*
G37*
G36*
X1157359Y-2363322D02*
X1123149Y-2363322D01*
X1123149Y-2397533D01*
X1128468Y-2396832D01*
X1138083Y-2392850D01*
X1146340Y-2386514D01*
X1152676Y-2378257D01*
X1156659Y-2368641D01*
X1157359Y-2363322D01*
X1157359Y-2363322D02*
G37*
G36*
X1213149Y-2319112D02*
X1207830Y-2319812D01*
X1198215Y-2323795D01*
X1189957Y-2330131D01*
X1183622Y-2338388D01*
X1179639Y-2348004D01*
X1178939Y-2353322D01*
X1213149Y-2353322D01*
X1213149Y-2319112D01*
X1213149Y-2319112D02*
G37*
G36*
X2109687Y-2277500D02*
X2075000Y-2277500D01*
X2075000Y-2312187D01*
X2080442Y-2311470D01*
X2090173Y-2307440D01*
X2098528Y-2301028D01*
X2104940Y-2292673D01*
X2108970Y-2282942D01*
X2109687Y-2277500D01*
X2109687Y-2277500D02*
G37*
G36*
X2009687Y-2277500D02*
X1975000Y-2277500D01*
X1975000Y-2312187D01*
X1980442Y-2311470D01*
X1990173Y-2307440D01*
X1998528Y-2301028D01*
X2004940Y-2292673D01*
X2008970Y-2282942D01*
X2009687Y-2277500D01*
X2009687Y-2277500D02*
G37*
G36*
X165000Y-2232813D02*
X159558Y-2233530D01*
X149827Y-2237560D01*
X141472Y-2243972D01*
X135060Y-2252327D01*
X131030Y-2262058D01*
X130313Y-2267500D01*
X165000Y-2267500D01*
X165000Y-2232813D01*
X165000Y-2232813D02*
G37*
G36*
X65000Y-2232813D02*
X59558Y-2233530D01*
X49827Y-2237560D01*
X41472Y-2243972D01*
X35060Y-2252327D01*
X31029Y-2262058D01*
X30313Y-2267500D01*
X65000Y-2267500D01*
X65000Y-2232813D01*
X65000Y-2232813D02*
G37*
G36*
X109687Y-2277500D02*
X75000Y-2277500D01*
X75000Y-2312187D01*
X80442Y-2311470D01*
X90173Y-2307440D01*
X98528Y-2301028D01*
X104940Y-2292673D01*
X108971Y-2282942D01*
X109687Y-2277500D01*
X109687Y-2277500D02*
G37*
G36*
X65000Y-2277500D02*
X30313Y-2277500D01*
X31029Y-2282942D01*
X35060Y-2292673D01*
X41472Y-2301028D01*
X49827Y-2307440D01*
X59558Y-2311470D01*
X65000Y-2312187D01*
X65000Y-2277500D01*
X65000Y-2277500D02*
G37*
G36*
X1123149Y-2319112D02*
X1123149Y-2353322D01*
X1157359Y-2353322D01*
X1156659Y-2348004D01*
X1152676Y-2338388D01*
X1146340Y-2330131D01*
X1138083Y-2323795D01*
X1128468Y-2319812D01*
X1123149Y-2319112D01*
X1123149Y-2319112D02*
G37*
G36*
X1965000Y-2277500D02*
X1930313Y-2277500D01*
X1931030Y-2282942D01*
X1935060Y-2292673D01*
X1941472Y-2301028D01*
X1949827Y-2307440D01*
X1959558Y-2311470D01*
X1965000Y-2312187D01*
X1965000Y-2277500D01*
X1965000Y-2277500D02*
G37*
G36*
X2065000Y-2277500D02*
X2030313Y-2277500D01*
X2031030Y-2282942D01*
X2035060Y-2292673D01*
X2041472Y-2301028D01*
X2049827Y-2307440D01*
X2059558Y-2311470D01*
X2065000Y-2312187D01*
X2065000Y-2277500D01*
X2065000Y-2277500D02*
G37*
G36*
X2070000Y-2337198D02*
X2060863Y-2338401D01*
X2052349Y-2341928D01*
X2045038Y-2347538D01*
X2039428Y-2354849D01*
X2035901Y-2363363D01*
X2034698Y-2372500D01*
X2035901Y-2381637D01*
X2039428Y-2390151D01*
X2045038Y-2397462D01*
X2052349Y-2403072D01*
X2060863Y-2406599D01*
X2070000Y-2407802D01*
X2079137Y-2406599D01*
X2087651Y-2403072D01*
X2094962Y-2397462D01*
X2100572Y-2390151D01*
X2104099Y-2381637D01*
X2105302Y-2372500D01*
X2104099Y-2363363D01*
X2100572Y-2354849D01*
X2094962Y-2347538D01*
X2087651Y-2341928D01*
X2079137Y-2338401D01*
X2070000Y-2337198D01*
X2070000Y-2337198D02*
G37*
G36*
X468149Y-2623497D02*
X459135Y-2624684D01*
X450736Y-2628163D01*
X443524Y-2633697D01*
X437989Y-2640910D01*
X434510Y-2649309D01*
X433324Y-2658322D01*
X434510Y-2667336D01*
X437989Y-2675735D01*
X443524Y-2682948D01*
X450736Y-2688482D01*
X459135Y-2691961D01*
X468149Y-2693148D01*
X477162Y-2691961D01*
X485562Y-2688482D01*
X492774Y-2682948D01*
X498309Y-2675735D01*
X501788Y-2667336D01*
X502974Y-2658322D01*
X501788Y-2649309D01*
X498309Y-2640910D01*
X492774Y-2633697D01*
X485562Y-2628163D01*
X477162Y-2624684D01*
X468149Y-2623497D01*
X468149Y-2623497D02*
G37*
G36*
X1970000Y-2637198D02*
X1960863Y-2638401D01*
X1952349Y-2641928D01*
X1945038Y-2647538D01*
X1939428Y-2654849D01*
X1935901Y-2663363D01*
X1934698Y-2672500D01*
X1935901Y-2681637D01*
X1939428Y-2690151D01*
X1945038Y-2697462D01*
X1952349Y-2703072D01*
X1960863Y-2706599D01*
X1970000Y-2707802D01*
X1979137Y-2706599D01*
X1987651Y-2703072D01*
X1994962Y-2697462D01*
X2000572Y-2690151D01*
X2004099Y-2681637D01*
X2005302Y-2672500D01*
X2004099Y-2663363D01*
X2000572Y-2654849D01*
X1994962Y-2647538D01*
X1987651Y-2641928D01*
X1979137Y-2638401D01*
X1970000Y-2637198D01*
X1970000Y-2637198D02*
G37*
G36*
X70000Y-2537198D02*
X60863Y-2538401D01*
X52349Y-2541928D01*
X45038Y-2547538D01*
X39428Y-2554849D01*
X35901Y-2563363D01*
X34698Y-2572500D01*
X35901Y-2581637D01*
X39428Y-2590151D01*
X45038Y-2597462D01*
X52349Y-2603072D01*
X60863Y-2606599D01*
X70000Y-2607802D01*
X79137Y-2606599D01*
X87651Y-2603072D01*
X94962Y-2597462D01*
X100572Y-2590151D01*
X104099Y-2581637D01*
X105302Y-2572500D01*
X104099Y-2563363D01*
X100572Y-2554849D01*
X94962Y-2547538D01*
X87651Y-2541928D01*
X79137Y-2538401D01*
X70000Y-2537198D01*
X70000Y-2537198D02*
G37*
G36*
X1518149Y-2623497D02*
X1509135Y-2624684D01*
X1500736Y-2628163D01*
X1493524Y-2633697D01*
X1487989Y-2640910D01*
X1484510Y-2649309D01*
X1483323Y-2658322D01*
X1484510Y-2667336D01*
X1487989Y-2675735D01*
X1493524Y-2682948D01*
X1500736Y-2688482D01*
X1509135Y-2691961D01*
X1518149Y-2693148D01*
X1527162Y-2691961D01*
X1535562Y-2688482D01*
X1542774Y-2682948D01*
X1548309Y-2675735D01*
X1551788Y-2667336D01*
X1552974Y-2658322D01*
X1551788Y-2649309D01*
X1548309Y-2640910D01*
X1542774Y-2633697D01*
X1535562Y-2628163D01*
X1527162Y-2624684D01*
X1518149Y-2623497D01*
X1518149Y-2623497D02*
G37*
G36*
X170000Y-2637198D02*
X160863Y-2638401D01*
X152349Y-2641928D01*
X145038Y-2647538D01*
X139428Y-2654849D01*
X135901Y-2663363D01*
X134698Y-2672500D01*
X135901Y-2681637D01*
X139428Y-2690151D01*
X145038Y-2697462D01*
X152349Y-2703072D01*
X160863Y-2706599D01*
X170000Y-2707802D01*
X179137Y-2706599D01*
X187651Y-2703072D01*
X194962Y-2697462D01*
X200572Y-2690151D01*
X204099Y-2681637D01*
X205302Y-2672500D01*
X204099Y-2663363D01*
X200572Y-2654849D01*
X194962Y-2647538D01*
X187651Y-2641928D01*
X179137Y-2638401D01*
X170000Y-2637198D01*
X170000Y-2637198D02*
G37*
G36*
X1970000Y-2737198D02*
X1960863Y-2738401D01*
X1952349Y-2741928D01*
X1945038Y-2747538D01*
X1939428Y-2754849D01*
X1935901Y-2763363D01*
X1934698Y-2772500D01*
X1935901Y-2781637D01*
X1939428Y-2790151D01*
X1945038Y-2797462D01*
X1952349Y-2803072D01*
X1960863Y-2806599D01*
X1970000Y-2807802D01*
X1979137Y-2806599D01*
X1987651Y-2803072D01*
X1994962Y-2797462D01*
X2000572Y-2790151D01*
X2004099Y-2781637D01*
X2005302Y-2772500D01*
X2004099Y-2763363D01*
X2000572Y-2754849D01*
X1994962Y-2747538D01*
X1987651Y-2741928D01*
X1979137Y-2738401D01*
X1970000Y-2737198D01*
X1970000Y-2737198D02*
G37*
G36*
X170000Y-2737198D02*
X160863Y-2738401D01*
X152349Y-2741928D01*
X145038Y-2747538D01*
X139428Y-2754849D01*
X135901Y-2763363D01*
X134698Y-2772500D01*
X135901Y-2781637D01*
X139428Y-2790151D01*
X145038Y-2797462D01*
X152349Y-2803072D01*
X160863Y-2806599D01*
X170000Y-2807802D01*
X179137Y-2806599D01*
X187651Y-2803072D01*
X194962Y-2797462D01*
X200572Y-2790151D01*
X204099Y-2781637D01*
X205302Y-2772500D01*
X204099Y-2763363D01*
X200572Y-2754849D01*
X194962Y-2747538D01*
X187651Y-2741928D01*
X179137Y-2738401D01*
X170000Y-2737198D01*
X170000Y-2737198D02*
G37*
G36*
X70000Y-2637198D02*
X60863Y-2638401D01*
X52349Y-2641928D01*
X45038Y-2647538D01*
X39428Y-2654849D01*
X35901Y-2663363D01*
X34698Y-2672500D01*
X35901Y-2681637D01*
X39428Y-2690151D01*
X45038Y-2697462D01*
X52349Y-2703072D01*
X60863Y-2706599D01*
X70000Y-2707802D01*
X79137Y-2706599D01*
X87651Y-2703072D01*
X94962Y-2697462D01*
X100572Y-2690151D01*
X104099Y-2681637D01*
X105302Y-2672500D01*
X104099Y-2663363D01*
X100572Y-2654849D01*
X94962Y-2647538D01*
X87651Y-2641928D01*
X79137Y-2638401D01*
X70000Y-2637198D01*
X70000Y-2637198D02*
G37*
G36*
X468149Y-2723497D02*
X459135Y-2724684D01*
X450736Y-2728163D01*
X443524Y-2733697D01*
X437989Y-2740910D01*
X434510Y-2749309D01*
X433324Y-2758322D01*
X434510Y-2767336D01*
X437989Y-2775735D01*
X443524Y-2782948D01*
X450736Y-2788482D01*
X459135Y-2791961D01*
X468149Y-2793148D01*
X477162Y-2791961D01*
X485562Y-2788482D01*
X492774Y-2782948D01*
X498309Y-2775735D01*
X501788Y-2767336D01*
X502974Y-2758322D01*
X501788Y-2749309D01*
X498309Y-2740910D01*
X492774Y-2733697D01*
X485562Y-2728163D01*
X477162Y-2724684D01*
X468149Y-2723497D01*
X468149Y-2723497D02*
G37*
G36*
X170000Y-2537198D02*
X160863Y-2538401D01*
X152349Y-2541928D01*
X145038Y-2547538D01*
X139428Y-2554849D01*
X135901Y-2563363D01*
X134698Y-2572500D01*
X135901Y-2581637D01*
X139428Y-2590151D01*
X145038Y-2597462D01*
X152349Y-2603072D01*
X160863Y-2606599D01*
X170000Y-2607802D01*
X179137Y-2606599D01*
X187651Y-2603072D01*
X194962Y-2597462D01*
X200572Y-2590151D01*
X204099Y-2581637D01*
X205302Y-2572500D01*
X204099Y-2563363D01*
X200572Y-2554849D01*
X194962Y-2547538D01*
X187651Y-2541928D01*
X179137Y-2538401D01*
X170000Y-2537198D01*
X170000Y-2537198D02*
G37*
G36*
X1518149Y-2305369D02*
X1504444Y-2307174D01*
X1491672Y-2312464D01*
X1480706Y-2320879D01*
X1472290Y-2331846D01*
X1467000Y-2344617D01*
X1465196Y-2358322D01*
X1467000Y-2372028D01*
X1472290Y-2384799D01*
X1480706Y-2395766D01*
X1491672Y-2404181D01*
X1504444Y-2409471D01*
X1518149Y-2411275D01*
X1531854Y-2409471D01*
X1544625Y-2404181D01*
X1555592Y-2395766D01*
X1564007Y-2384799D01*
X1569298Y-2372028D01*
X1571102Y-2358322D01*
X1569298Y-2344617D01*
X1564007Y-2331846D01*
X1555592Y-2320879D01*
X1544625Y-2312464D01*
X1531854Y-2307174D01*
X1518149Y-2305369D01*
X1518149Y-2305369D02*
G37*
G36*
X468149Y-2305369D02*
X454444Y-2307174D01*
X441672Y-2312464D01*
X430705Y-2320879D01*
X422290Y-2331846D01*
X417000Y-2344617D01*
X415196Y-2358322D01*
X417000Y-2372028D01*
X422290Y-2384799D01*
X430705Y-2395766D01*
X441672Y-2404181D01*
X454444Y-2409471D01*
X468149Y-2411275D01*
X481854Y-2409471D01*
X494625Y-2404181D01*
X505592Y-2395766D01*
X514008Y-2384799D01*
X519298Y-2372028D01*
X521102Y-2358322D01*
X519298Y-2344617D01*
X514008Y-2331846D01*
X505592Y-2320879D01*
X494625Y-2312464D01*
X481854Y-2307174D01*
X468149Y-2305369D01*
X468149Y-2305369D02*
G37*
G36*
X1970000Y-2337198D02*
X1960863Y-2338401D01*
X1952349Y-2341928D01*
X1945038Y-2347538D01*
X1939428Y-2354849D01*
X1935901Y-2363363D01*
X1934698Y-2372500D01*
X1935901Y-2381637D01*
X1939428Y-2390151D01*
X1945038Y-2397462D01*
X1952349Y-2403072D01*
X1960863Y-2406599D01*
X1970000Y-2407802D01*
X1979137Y-2406599D01*
X1987651Y-2403072D01*
X1994962Y-2397462D01*
X2000572Y-2390151D01*
X2004099Y-2381637D01*
X2005302Y-2372500D01*
X2004099Y-2363363D01*
X2000572Y-2354849D01*
X1994962Y-2347538D01*
X1987651Y-2341928D01*
X1979137Y-2338401D01*
X1970000Y-2337198D01*
X1970000Y-2337198D02*
G37*
G36*
X170000Y-2337198D02*
X160863Y-2338401D01*
X152349Y-2341928D01*
X145038Y-2347538D01*
X139428Y-2354849D01*
X135901Y-2363363D01*
X134698Y-2372500D01*
X135901Y-2381637D01*
X139428Y-2390151D01*
X145038Y-2397462D01*
X152349Y-2403072D01*
X160863Y-2406599D01*
X170000Y-2407802D01*
X179137Y-2406599D01*
X187651Y-2403072D01*
X194962Y-2397462D01*
X200572Y-2390151D01*
X204099Y-2381637D01*
X205302Y-2372500D01*
X204099Y-2363363D01*
X200572Y-2354849D01*
X194962Y-2347538D01*
X187651Y-2341928D01*
X179137Y-2338401D01*
X170000Y-2337198D01*
X170000Y-2337198D02*
G37*
G36*
X1970000Y-2437198D02*
X1960863Y-2438401D01*
X1952349Y-2441928D01*
X1945038Y-2447538D01*
X1939428Y-2454849D01*
X1935901Y-2463363D01*
X1934698Y-2472500D01*
X1935901Y-2481637D01*
X1939428Y-2490151D01*
X1945038Y-2497462D01*
X1952349Y-2503072D01*
X1960863Y-2506599D01*
X1970000Y-2507802D01*
X1979137Y-2506599D01*
X1987651Y-2503072D01*
X1994962Y-2497462D01*
X2000572Y-2490151D01*
X2004099Y-2481637D01*
X2005302Y-2472500D01*
X2004099Y-2463363D01*
X2000572Y-2454849D01*
X1994962Y-2447538D01*
X1987651Y-2441928D01*
X1979137Y-2438401D01*
X1970000Y-2437198D01*
X1970000Y-2437198D02*
G37*
G36*
X502676Y-2523795D02*
X433621Y-2523795D01*
X433621Y-2592850D01*
X502676Y-2592850D01*
X502676Y-2523795D01*
X502676Y-2523795D02*
G37*
G36*
X1970000Y-2537198D02*
X1960863Y-2538401D01*
X1952349Y-2541928D01*
X1945038Y-2547538D01*
X1939428Y-2554849D01*
X1935901Y-2563363D01*
X1934698Y-2572500D01*
X1935901Y-2581637D01*
X1939428Y-2590151D01*
X1945038Y-2597462D01*
X1952349Y-2603072D01*
X1960863Y-2606599D01*
X1970000Y-2607802D01*
X1979137Y-2606599D01*
X1987651Y-2603072D01*
X1994962Y-2597462D01*
X2000572Y-2590151D01*
X2004099Y-2581637D01*
X2005302Y-2572500D01*
X2004099Y-2563363D01*
X2000572Y-2554849D01*
X1994962Y-2547538D01*
X1987651Y-2541928D01*
X1979137Y-2538401D01*
X1970000Y-2537198D01*
X1970000Y-2537198D02*
G37*
G36*
X70000Y-2437198D02*
X60863Y-2438401D01*
X52349Y-2441928D01*
X45038Y-2447538D01*
X39428Y-2454849D01*
X35901Y-2463363D01*
X34698Y-2472500D01*
X35901Y-2481637D01*
X39428Y-2490151D01*
X45038Y-2497462D01*
X52349Y-2503072D01*
X60863Y-2506599D01*
X70000Y-2507802D01*
X79137Y-2506599D01*
X87651Y-2503072D01*
X94962Y-2497462D01*
X100572Y-2490151D01*
X104099Y-2481637D01*
X105302Y-2472500D01*
X104099Y-2463363D01*
X100572Y-2454849D01*
X94962Y-2447538D01*
X87651Y-2441928D01*
X79137Y-2438401D01*
X70000Y-2437198D01*
X70000Y-2437198D02*
G37*
G36*
X1552676Y-2523795D02*
X1483621Y-2523795D01*
X1483621Y-2592850D01*
X1552676Y-2592850D01*
X1552676Y-2523795D01*
X1552676Y-2523795D02*
G37*
G36*
X2016126Y1406267D02*
X1954945Y1406267D01*
X1954945Y1362802D01*
X1995930Y1362802D01*
X1995930Y109377D01*
X1996706Y105475D01*
X1998916Y102167D01*
X2329332Y-228248D01*
X2329332Y-323777D01*
X2326276Y-324814D01*
X2324332Y-325149D01*
X2317413Y-319840D01*
X2309014Y-316361D01*
X2300000Y-315175D01*
X2290986Y-316361D01*
X2282587Y-319840D01*
X2275375Y-325375D01*
X2269840Y-332587D01*
X2266361Y-340986D01*
X2265175Y-350000D01*
X2266361Y-359014D01*
X2269840Y-367413D01*
X2275375Y-374625D01*
X2282587Y-380160D01*
X2290986Y-383639D01*
X2300000Y-384825D01*
X2309014Y-383639D01*
X2317413Y-380160D01*
X2324332Y-374851D01*
X2326276Y-375186D01*
X2329332Y-376223D01*
X2329332Y-423777D01*
X2326276Y-424814D01*
X2324332Y-425149D01*
X2317413Y-419840D01*
X2309014Y-416361D01*
X2300000Y-415175D01*
X2290986Y-416361D01*
X2282587Y-419840D01*
X2275375Y-425375D01*
X2269840Y-432587D01*
X2266361Y-440986D01*
X2265175Y-450000D01*
X2266361Y-459014D01*
X2269840Y-467413D01*
X2275375Y-474625D01*
X2282587Y-480160D01*
X2290986Y-483639D01*
X2300000Y-484825D01*
X2309014Y-483639D01*
X2317413Y-480160D01*
X2324332Y-474851D01*
X2326276Y-475186D01*
X2329332Y-476223D01*
X2329332Y-523777D01*
X2326276Y-524814D01*
X2324332Y-525149D01*
X2317413Y-519840D01*
X2309014Y-516361D01*
X2300000Y-515175D01*
X2290986Y-516361D01*
X2283770Y-519351D01*
X2267682Y-503263D01*
X2264374Y-501053D01*
X2260472Y-500276D01*
X2106934Y-500276D01*
X2103032Y-501053D01*
X2099725Y-503263D01*
X2086041Y-516947D01*
X1950076Y-516947D01*
X1813151Y-514991D01*
X1812690Y-512673D01*
X1808539Y-506461D01*
X1805196Y-504227D01*
X1805196Y836660D01*
X1846797Y836660D01*
X1846797Y858660D01*
X1851797Y858660D01*
X1851797Y863660D01*
X1901167Y863660D01*
X1901167Y876060D01*
X1901167Y893060D01*
X1851797Y893060D01*
X1851797Y903060D01*
X1901167Y903060D01*
X1901167Y920060D01*
X1901001Y920060D01*
X1896167Y920460D01*
X1896167Y954460D01*
X1861993Y954460D01*
X1861993Y959860D01*
X1896167Y959860D01*
X1896167Y993860D01*
X1807427Y993860D01*
X1807427Y975412D01*
X1802807Y973499D01*
X1670196Y1106110D01*
X1670196Y1284227D01*
X1673539Y1286461D01*
X1677690Y1292673D01*
X1679147Y1300000D01*
X1677690Y1307327D01*
X1673539Y1313539D01*
X1667327Y1317690D01*
X1660000Y1319147D01*
X1652673Y1317690D01*
X1646461Y1313539D01*
X1642310Y1307327D01*
X1640853Y1300000D01*
X1642310Y1292673D01*
X1646461Y1286461D01*
X1649804Y1284227D01*
X1649804Y1101887D01*
X1650580Y1097985D01*
X1652790Y1094677D01*
X1807427Y940041D01*
X1807427Y934879D01*
X1787790Y915243D01*
X1785580Y911935D01*
X1784804Y908033D01*
X1784804Y-504227D01*
X1781461Y-506461D01*
X1777310Y-512673D01*
X1775853Y-520000D01*
X1777310Y-527327D01*
X1781461Y-533539D01*
X1787673Y-537690D01*
X1795000Y-539147D01*
X1802327Y-537690D01*
X1805931Y-535282D01*
X1949854Y-537338D01*
X1949927Y-537324D01*
X1950000Y-537339D01*
X2090264Y-537339D01*
X2094166Y-536563D01*
X2097473Y-534352D01*
X2111158Y-520668D01*
X2173777Y-520668D01*
X2174814Y-523724D01*
X2175149Y-525668D01*
X2169840Y-532587D01*
X2166361Y-540986D01*
X2165175Y-550000D01*
X2166361Y-559014D01*
X2169840Y-567413D01*
X2175375Y-574625D01*
X2182587Y-580160D01*
X2190986Y-583639D01*
X2200000Y-584825D01*
X2209014Y-583639D01*
X2217413Y-580160D01*
X2224625Y-574625D01*
X2230160Y-567413D01*
X2233639Y-559014D01*
X2234825Y-550000D01*
X2233639Y-540986D01*
X2230160Y-532587D01*
X2224851Y-525668D01*
X2225186Y-523724D01*
X2226223Y-520668D01*
X2256249Y-520668D01*
X2269351Y-533770D01*
X2266361Y-540986D01*
X2265175Y-550000D01*
X2266361Y-559014D01*
X2269840Y-567413D01*
X2275375Y-574625D01*
X2282587Y-580160D01*
X2290986Y-583639D01*
X2300000Y-584825D01*
X2309014Y-583639D01*
X2317413Y-580160D01*
X2324332Y-574851D01*
X2326276Y-575186D01*
X2329332Y-576223D01*
X2329332Y-623777D01*
X2326276Y-624814D01*
X2324332Y-625149D01*
X2317413Y-619840D01*
X2309014Y-616361D01*
X2300000Y-615175D01*
X2290986Y-616361D01*
X2282587Y-619840D01*
X2275375Y-625375D01*
X2269840Y-632587D01*
X2266361Y-640986D01*
X2265175Y-650000D01*
X2266361Y-659014D01*
X2269840Y-667413D01*
X2275375Y-674625D01*
X2282587Y-680160D01*
X2290986Y-683639D01*
X2300000Y-684825D01*
X2309014Y-683639D01*
X2317413Y-680160D01*
X2324332Y-674851D01*
X2326276Y-675186D01*
X2329332Y-676223D01*
X2329332Y-723777D01*
X2326276Y-724814D01*
X2324332Y-725149D01*
X2317413Y-719840D01*
X2309014Y-716361D01*
X2300000Y-715175D01*
X2290986Y-716361D01*
X2282587Y-719840D01*
X2275375Y-725375D01*
X2269840Y-732587D01*
X2266361Y-740986D01*
X2265175Y-750000D01*
X2266361Y-759014D01*
X2269351Y-766230D01*
X2026408Y-1009173D01*
X1830631Y-1009173D01*
X1826729Y-1009949D01*
X1823422Y-1012159D01*
X1592790Y-1242790D01*
X1590580Y-1246098D01*
X1589804Y-1250000D01*
X1589804Y-2728148D01*
X1557432Y-2760521D01*
X1554538Y-2759094D01*
X1552926Y-2757955D01*
X1551788Y-2749309D01*
X1548309Y-2740910D01*
X1542774Y-2733697D01*
X1535562Y-2728163D01*
X1527162Y-2724684D01*
X1518149Y-2723497D01*
X1509135Y-2724684D01*
X1500736Y-2728163D01*
X1493524Y-2733697D01*
X1487989Y-2740910D01*
X1484510Y-2749309D01*
X1483323Y-2758322D01*
X1484510Y-2767336D01*
X1487989Y-2775735D01*
X1493524Y-2782948D01*
X1500736Y-2788482D01*
X1509135Y-2791961D01*
X1517782Y-2793099D01*
X1518920Y-2794712D01*
X1520347Y-2797605D01*
X1258444Y-3059509D01*
X1256234Y-3062816D01*
X1255458Y-3066718D01*
X1255458Y-3801596D01*
X1087904Y-3969149D01*
X1083961Y-3968364D01*
X1076633Y-3969822D01*
X1070421Y-3973972D01*
X1068516Y-3976824D01*
X1050987Y-3976824D01*
X1050407Y-3976125D01*
X1048772Y-3971824D01*
X1051643Y-3967527D01*
X1051959Y-3965938D01*
X1006205Y-3965938D01*
X960452Y-3965938D01*
X960768Y-3967527D01*
X964501Y-3973114D01*
X968106Y-3975523D01*
X968106Y-3977956D01*
X965478Y-3981888D01*
X964555Y-3986527D01*
X965478Y-3991166D01*
X968106Y-3995099D01*
X970269Y-3996544D01*
X970286Y-3996588D01*
X970286Y-4002057D01*
X970269Y-4002100D01*
X968106Y-4003545D01*
X965478Y-4007478D01*
X964555Y-4012117D01*
X965478Y-4016756D01*
X968106Y-4020689D01*
X970270Y-4022135D01*
X970288Y-4022181D01*
X970288Y-4027646D01*
X970270Y-4027691D01*
X968106Y-4029137D01*
X965478Y-4033070D01*
X964555Y-4037709D01*
X965478Y-4042349D01*
X968106Y-4046281D01*
X970269Y-4047727D01*
X970286Y-4047770D01*
X970286Y-4053239D01*
X970269Y-4053282D01*
X968106Y-4054727D01*
X965478Y-4058660D01*
X964555Y-4063299D01*
X965478Y-4067939D01*
X968106Y-4071871D01*
X970269Y-4073316D01*
X970286Y-4073360D01*
X970286Y-4078829D01*
X970269Y-4078872D01*
X968106Y-4080317D01*
X965478Y-4084250D01*
X964555Y-4088889D01*
X965478Y-4093528D01*
X968106Y-4097461D01*
X972039Y-4100089D01*
X976678Y-4101012D01*
X1035733Y-4101012D01*
X1040372Y-4100089D01*
X1041874Y-4099085D01*
X1189441Y-4099085D01*
X1193343Y-4098309D01*
X1196650Y-4096099D01*
X1647210Y-3645540D01*
X1649420Y-3642232D01*
X1650196Y-3638330D01*
X1650196Y-3006223D01*
X1652464Y-3004539D01*
X1654142Y-3004940D01*
X1657218Y-3006573D01*
X1657877Y-3009885D01*
X1660287Y-3013492D01*
X1660287Y-3017453D01*
X1657877Y-3021060D01*
X1657031Y-3025315D01*
X1657877Y-3029570D01*
X1659339Y-3031758D01*
X1659938Y-3035157D01*
X1659339Y-3038557D01*
X1657877Y-3040745D01*
X1657031Y-3045000D01*
X1657877Y-3049255D01*
X1660287Y-3052862D01*
X1660287Y-3056823D01*
X1657877Y-3060430D01*
X1657031Y-3064685D01*
X1657877Y-3068940D01*
X1659339Y-3071128D01*
X1659938Y-3074528D01*
X1659339Y-3077927D01*
X1657877Y-3080115D01*
X1657031Y-3084370D01*
X1657877Y-3088625D01*
X1660287Y-3092233D01*
X1663895Y-3094643D01*
X1668150Y-3095489D01*
X1719434Y-3095489D01*
X1719434Y-3109534D01*
X1716091Y-3111768D01*
X1711940Y-3117980D01*
X1710483Y-3125307D01*
X1711940Y-3132635D01*
X1716091Y-3138846D01*
X1719434Y-3141080D01*
X1719434Y-3193921D01*
X1720210Y-3197823D01*
X1722420Y-3201131D01*
X1757441Y-3236151D01*
X1757441Y-3273071D01*
X1822559Y-3273071D01*
X1822559Y-3221732D01*
X1771860Y-3221732D01*
X1739826Y-3189698D01*
X1739826Y-3141080D01*
X1743169Y-3138846D01*
X1747320Y-3132635D01*
X1748777Y-3125307D01*
X1747320Y-3117980D01*
X1743169Y-3111768D01*
X1739826Y-3109534D01*
X1739826Y-3096021D01*
X1744445Y-3094108D01*
X1757245Y-3106908D01*
X1757245Y-3156929D01*
X1757441Y-3157914D01*
X1757441Y-3198268D01*
X1815044Y-3198268D01*
X1852323Y-3235547D01*
X1852323Y-4437100D01*
X1478296Y-4811128D01*
X166743Y-4811128D01*
X22715Y-4667100D01*
X22715Y-3755547D01*
X41742Y-3736519D01*
X52340Y-3736519D01*
X53334Y-3741519D01*
X52349Y-3741928D01*
X45038Y-3747538D01*
X39428Y-3754849D01*
X35901Y-3763363D01*
X34698Y-3772500D01*
X35901Y-3781637D01*
X39428Y-3790151D01*
X45038Y-3797462D01*
X52349Y-3803072D01*
X60863Y-3806599D01*
X70000Y-3807802D01*
X79137Y-3806599D01*
X87651Y-3803072D01*
X94962Y-3797462D01*
X100572Y-3790151D01*
X104099Y-3781637D01*
X105302Y-3772500D01*
X104099Y-3763363D01*
X100572Y-3754849D01*
X94962Y-3747538D01*
X87651Y-3741928D01*
X86666Y-3741519D01*
X87660Y-3736519D01*
X112519Y-3736519D01*
X116421Y-3735743D01*
X119729Y-3733533D01*
X151127Y-3702135D01*
X152349Y-3703072D01*
X160863Y-3706599D01*
X170000Y-3707802D01*
X179137Y-3706599D01*
X187651Y-3703072D01*
X194962Y-3697462D01*
X200572Y-3690151D01*
X204099Y-3681637D01*
X205302Y-3672500D01*
X204099Y-3663363D01*
X200572Y-3654849D01*
X194962Y-3647538D01*
X187651Y-3641928D01*
X179137Y-3638401D01*
X170000Y-3637198D01*
X160863Y-3638401D01*
X152349Y-3641928D01*
X145038Y-3647538D01*
X139428Y-3654849D01*
X135901Y-3663363D01*
X134698Y-3672500D01*
X135901Y-3681637D01*
X137918Y-3686506D01*
X108296Y-3716128D01*
X37519Y-3716128D01*
X33617Y-3716904D01*
X30310Y-3719114D01*
X5310Y-3744114D01*
X3099Y-3747422D01*
X2323Y-3751324D01*
X2323Y-4671324D01*
X3099Y-4675225D01*
X5310Y-4678533D01*
X155310Y-4828533D01*
X158617Y-4830743D01*
X162519Y-4831520D01*
X1482519Y-4831520D01*
X1486421Y-4830743D01*
X1489729Y-4828533D01*
X1869729Y-4448533D01*
X1871939Y-4445225D01*
X1872715Y-4441324D01*
X1872715Y-3231324D01*
X1871939Y-3227422D01*
X1869729Y-3224114D01*
X1822559Y-3176944D01*
X1822559Y-3146929D01*
X1777637Y-3146929D01*
X1777637Y-3102685D01*
X1777374Y-3101365D01*
X1781983Y-3098902D01*
X1938989Y-3255908D01*
X1935901Y-3263363D01*
X1934698Y-3272500D01*
X1935901Y-3281637D01*
X1939428Y-3290151D01*
X1945038Y-3297462D01*
X1952349Y-3303072D01*
X1960863Y-3306599D01*
X1970000Y-3307802D01*
X1979137Y-3306599D01*
X1987651Y-3303072D01*
X1994962Y-3297462D01*
X2000572Y-3290151D01*
X2004099Y-3281637D01*
X2005302Y-3272500D01*
X2004099Y-3263363D01*
X2000572Y-3254849D01*
X1994962Y-3247538D01*
X1987651Y-3241928D01*
X1979137Y-3238401D01*
X1970000Y-3237198D01*
X1960863Y-3238401D01*
X1953408Y-3241489D01*
X1752430Y-3040511D01*
X1754501Y-3035511D01*
X1762023Y-3035511D01*
X1946222Y-3219710D01*
X1949530Y-3221920D01*
X1953431Y-3222696D01*
X2005777Y-3222696D01*
X2038989Y-3255908D01*
X2035901Y-3263363D01*
X2034698Y-3272500D01*
X2035901Y-3281637D01*
X2039428Y-3290151D01*
X2045038Y-3297462D01*
X2052349Y-3303072D01*
X2060863Y-3306599D01*
X2070000Y-3307802D01*
X2079137Y-3306599D01*
X2087651Y-3303072D01*
X2094962Y-3297462D01*
X2100572Y-3290151D01*
X2104099Y-3281637D01*
X2105302Y-3272500D01*
X2104099Y-3263363D01*
X2100572Y-3254849D01*
X2094962Y-3247538D01*
X2087651Y-3241928D01*
X2079137Y-3238401D01*
X2070000Y-3237198D01*
X2060863Y-3238401D01*
X2053408Y-3241489D01*
X2017210Y-3205290D01*
X2013902Y-3203080D01*
X2010000Y-3202304D01*
X1996430Y-3202304D01*
X1995350Y-3199121D01*
X1995084Y-3197304D01*
X2000572Y-3190151D01*
X2004099Y-3181637D01*
X2005302Y-3172500D01*
X2004099Y-3163363D01*
X2000572Y-3154849D01*
X1994962Y-3147538D01*
X1987651Y-3141928D01*
X1979137Y-3138401D01*
X1970000Y-3137198D01*
X1960863Y-3138401D01*
X1952349Y-3141928D01*
X1945038Y-3147538D01*
X1939428Y-3154849D01*
X1935901Y-3163363D01*
X1934724Y-3172302D01*
X1933251Y-3173399D01*
X1930237Y-3174886D01*
X1776177Y-3020826D01*
X1778248Y-3015826D01*
X1898907Y-3015826D01*
X1938989Y-3055908D01*
X1935901Y-3063363D01*
X1934698Y-3072500D01*
X1935901Y-3081637D01*
X1939428Y-3090151D01*
X1945038Y-3097462D01*
X1952349Y-3103072D01*
X1960863Y-3106599D01*
X1970000Y-3107802D01*
X1979137Y-3106599D01*
X1987651Y-3103072D01*
X1994962Y-3097462D01*
X2000572Y-3090151D01*
X2004099Y-3081637D01*
X2005302Y-3072500D01*
X2004099Y-3063363D01*
X2000572Y-3054849D01*
X1994962Y-3047538D01*
X1987651Y-3041928D01*
X1979137Y-3038401D01*
X1970000Y-3037198D01*
X1960863Y-3038401D01*
X1953408Y-3041489D01*
X1939235Y-3027315D01*
X1941148Y-3022696D01*
X2005777Y-3022696D01*
X2038989Y-3055908D01*
X2035901Y-3063363D01*
X2034698Y-3072500D01*
X2035901Y-3081637D01*
X2039428Y-3090151D01*
X2045038Y-3097462D01*
X2052349Y-3103072D01*
X2060863Y-3106599D01*
X2070000Y-3107802D01*
X2079137Y-3106599D01*
X2087651Y-3103072D01*
X2094962Y-3097462D01*
X2100572Y-3090151D01*
X2104099Y-3081637D01*
X2105302Y-3072500D01*
X2104099Y-3063363D01*
X2100572Y-3054849D01*
X2094962Y-3047538D01*
X2087651Y-3041928D01*
X2079137Y-3038401D01*
X2070000Y-3037198D01*
X2060863Y-3038401D01*
X2053408Y-3041489D01*
X2017210Y-3005290D01*
X2013902Y-3003080D01*
X2010000Y-3002304D01*
X1996430Y-3002304D01*
X1995350Y-2999121D01*
X1995084Y-2997304D01*
X2000572Y-2990151D01*
X2004099Y-2981637D01*
X2005302Y-2972500D01*
X2004099Y-2963363D01*
X2000572Y-2954849D01*
X1994962Y-2947538D01*
X1987651Y-2941928D01*
X1979137Y-2938401D01*
X1970000Y-2937198D01*
X1960863Y-2938401D01*
X1952349Y-2941928D01*
X1945038Y-2947538D01*
X1939428Y-2954849D01*
X1935901Y-2963363D01*
X1934698Y-2972500D01*
X1935901Y-2981637D01*
X1939428Y-2990151D01*
X1944916Y-2997304D01*
X1944650Y-2999121D01*
X1943570Y-3002304D01*
X1935437Y-3002304D01*
X1915647Y-2982515D01*
X1912339Y-2980305D01*
X1908438Y-2979528D01*
X1650276Y-2979528D01*
X1646374Y-2980305D01*
X1643066Y-2982515D01*
X1632790Y-2992790D01*
X1630580Y-2996098D01*
X1629804Y-3000000D01*
X1629804Y-3634107D01*
X1185217Y-4078693D01*
X1045945Y-4078693D01*
X1044928Y-4077469D01*
X1044305Y-4071871D01*
X1046933Y-4067939D01*
X1047855Y-4063299D01*
X1046933Y-4058660D01*
X1044305Y-4054727D01*
X1042314Y-4053397D01*
X1043831Y-4048397D01*
X1134788Y-4048397D01*
X1137351Y-4052232D01*
X1143562Y-4056383D01*
X1150890Y-4057840D01*
X1158217Y-4056383D01*
X1164429Y-4052232D01*
X1168580Y-4046020D01*
X1170037Y-4038693D01*
X1169253Y-4034749D01*
X1287863Y-3916139D01*
X1290073Y-3912831D01*
X1290849Y-3908929D01*
X1290849Y-3814122D01*
X1295849Y-3811449D01*
X1297106Y-3812288D01*
X1304433Y-3813746D01*
X1311761Y-3812288D01*
X1317972Y-3808138D01*
X1322123Y-3801926D01*
X1323581Y-3794598D01*
X1322123Y-3787271D01*
X1317972Y-3781059D01*
X1314629Y-3778825D01*
X1314629Y-3134790D01*
X1394223Y-3055196D01*
X1459849Y-3055196D01*
X1461920Y-3060196D01*
X1450163Y-3071954D01*
X1405866Y-3071954D01*
X1405866Y-3105576D01*
X1459173Y-3105576D01*
X1459173Y-3091782D01*
X1476074Y-3074881D01*
X1493943Y-3074881D01*
X1496616Y-3079881D01*
X1496460Y-3080115D01*
X1495613Y-3084370D01*
X1496460Y-3088625D01*
X1498870Y-3092233D01*
X1502477Y-3094643D01*
X1506732Y-3095489D01*
X1524095Y-3095489D01*
X1524095Y-3115328D01*
X1505737Y-3133687D01*
X1459173Y-3133687D01*
X1459173Y-3127072D01*
X1405866Y-3127072D01*
X1405866Y-3160694D01*
X1459173Y-3160694D01*
X1459173Y-3154079D01*
X1509960Y-3154079D01*
X1513862Y-3153303D01*
X1517170Y-3151092D01*
X1541501Y-3126761D01*
X1543711Y-3123453D01*
X1544487Y-3119551D01*
X1544487Y-3095489D01*
X1561850Y-3095489D01*
X1566105Y-3094643D01*
X1569713Y-3092233D01*
X1572123Y-3088625D01*
X1572970Y-3084370D01*
X1572123Y-3080115D01*
X1571858Y-3079718D01*
X1569862Y-3076364D01*
X1572800Y-3073532D01*
X1575010Y-3070225D01*
X1575786Y-3066323D01*
X1575010Y-3062421D01*
X1572800Y-3059113D01*
X1571079Y-3057963D01*
X1569713Y-3052862D01*
X1572123Y-3049255D01*
X1572970Y-3045000D01*
X1572123Y-3040745D01*
X1570661Y-3038557D01*
X1570062Y-3035157D01*
X1570661Y-3031758D01*
X1572123Y-3029570D01*
X1572970Y-3025315D01*
X1572123Y-3021060D01*
X1570661Y-3018872D01*
X1573318Y-3017097D01*
X1576833Y-3011836D01*
X1577073Y-3010630D01*
X1534291Y-3010630D01*
X1491100Y-3010630D01*
X1488388Y-3015119D01*
X1384685Y-3015119D01*
X1380783Y-3015895D01*
X1377475Y-3018105D01*
X1280469Y-3115112D01*
X1275849Y-3113198D01*
X1275849Y-3070941D01*
X1607210Y-2739581D01*
X1609420Y-2736273D01*
X1610196Y-2732372D01*
X1610196Y-1254223D01*
X1834855Y-1029565D01*
X2030631Y-1029565D01*
X2034533Y-1028789D01*
X2037841Y-1026578D01*
X2283770Y-780649D01*
X2290986Y-783639D01*
X2299633Y-784777D01*
X2300771Y-786389D01*
X2302198Y-789283D01*
X2134365Y-957116D01*
X2132155Y-960424D01*
X2131379Y-964326D01*
X2131379Y-2369202D01*
X2085777Y-2414804D01*
X2045000Y-2414804D01*
X2041098Y-2415580D01*
X2037790Y-2417790D01*
X2022790Y-2432790D01*
X2020580Y-2436098D01*
X2019804Y-2440000D01*
X2019804Y-2832500D01*
X2020580Y-2836402D01*
X2022790Y-2839710D01*
X2038989Y-2855908D01*
X2035901Y-2863363D01*
X2034698Y-2872500D01*
X2035901Y-2881637D01*
X2039428Y-2890151D01*
X2045038Y-2897462D01*
X2052349Y-2903072D01*
X2060863Y-2906599D01*
X2070000Y-2907802D01*
X2079137Y-2906599D01*
X2087651Y-2903072D01*
X2094962Y-2897462D01*
X2100572Y-2890151D01*
X2104099Y-2881637D01*
X2105302Y-2872500D01*
X2104099Y-2863363D01*
X2100572Y-2854849D01*
X2094962Y-2847538D01*
X2087651Y-2841928D01*
X2079137Y-2838401D01*
X2070000Y-2837198D01*
X2060863Y-2838401D01*
X2053408Y-2841489D01*
X2040196Y-2828277D01*
X2040196Y-2798930D01*
X2043379Y-2797849D01*
X2045196Y-2797584D01*
X2052349Y-2803072D01*
X2060863Y-2806599D01*
X2070000Y-2807802D01*
X2079137Y-2806599D01*
X2087651Y-2803072D01*
X2094962Y-2797462D01*
X2100572Y-2790151D01*
X2104099Y-2781637D01*
X2105302Y-2772500D01*
X2104099Y-2763363D01*
X2100572Y-2754849D01*
X2094962Y-2747538D01*
X2087651Y-2741928D01*
X2079137Y-2738401D01*
X2070000Y-2737198D01*
X2060863Y-2738401D01*
X2052349Y-2741928D01*
X2045196Y-2747416D01*
X2043379Y-2747151D01*
X2040196Y-2746070D01*
X2040196Y-2698930D01*
X2043379Y-2697849D01*
X2045196Y-2697584D01*
X2052349Y-2703072D01*
X2060863Y-2706599D01*
X2070000Y-2707802D01*
X2079137Y-2706599D01*
X2087651Y-2703072D01*
X2094962Y-2697462D01*
X2100572Y-2690151D01*
X2104099Y-2681637D01*
X2105302Y-2672500D01*
X2104099Y-2663363D01*
X2100572Y-2654849D01*
X2094962Y-2647538D01*
X2087651Y-2641928D01*
X2079137Y-2638401D01*
X2070000Y-2637198D01*
X2060863Y-2638401D01*
X2052349Y-2641928D01*
X2045196Y-2647416D01*
X2043379Y-2647151D01*
X2040196Y-2646070D01*
X2040196Y-2598930D01*
X2043379Y-2597849D01*
X2045196Y-2597584D01*
X2052349Y-2603072D01*
X2060863Y-2606599D01*
X2070000Y-2607802D01*
X2079137Y-2606599D01*
X2087651Y-2603072D01*
X2094962Y-2597462D01*
X2100572Y-2590151D01*
X2104099Y-2581637D01*
X2105302Y-2572500D01*
X2104099Y-2563363D01*
X2100572Y-2554849D01*
X2094962Y-2547538D01*
X2087651Y-2541928D01*
X2079137Y-2538401D01*
X2070000Y-2537198D01*
X2060863Y-2538401D01*
X2052349Y-2541928D01*
X2045196Y-2547416D01*
X2043379Y-2547151D01*
X2040196Y-2546070D01*
X2040196Y-2498930D01*
X2043379Y-2497849D01*
X2045196Y-2497584D01*
X2052349Y-2503072D01*
X2060863Y-2506599D01*
X2070000Y-2507802D01*
X2079137Y-2506599D01*
X2086592Y-2503511D01*
X2290458Y-2707377D01*
X2290458Y-4109481D01*
X2234473Y-4109481D01*
X2234473Y-4121017D01*
X2224787Y-4121017D01*
X2224787Y-4109481D01*
X2178025Y-4109481D01*
X2169754Y-4101210D01*
X2172586Y-4096971D01*
X2178491Y-4099417D01*
X2186323Y-4100448D01*
X2194154Y-4099417D01*
X2201452Y-4096394D01*
X2207719Y-4091585D01*
X2212528Y-4085318D01*
X2215551Y-4078021D01*
X2216582Y-4070189D01*
X2215551Y-4062357D01*
X2212528Y-4055060D01*
X2207719Y-4048793D01*
X2201452Y-4043984D01*
X2194154Y-4040961D01*
X2186323Y-4039930D01*
X2178491Y-4040961D01*
X2171193Y-4043984D01*
X2164927Y-4048793D01*
X2160118Y-4055060D01*
X2157095Y-4062357D01*
X2156064Y-4070189D01*
X2157095Y-4078021D01*
X2159541Y-4083926D01*
X2155302Y-4086758D01*
X2133834Y-4065290D01*
X2130527Y-4063080D01*
X2126625Y-4062304D01*
X2103660Y-4062304D01*
X2100572Y-4054849D01*
X2094962Y-4047538D01*
X2087651Y-4041928D01*
X2079137Y-4038401D01*
X2070000Y-4037198D01*
X2060863Y-4038401D01*
X2052349Y-4041928D01*
X2045038Y-4047538D01*
X2039428Y-4054849D01*
X2035901Y-4063363D01*
X2034698Y-4072500D01*
X2035901Y-4081637D01*
X2039428Y-4090151D01*
X2045038Y-4097462D01*
X2052349Y-4103072D01*
X2060863Y-4106599D01*
X2070000Y-4107802D01*
X2079137Y-4106599D01*
X2087651Y-4103072D01*
X2094962Y-4097462D01*
X2100572Y-4090151D01*
X2103660Y-4082696D01*
X2122401Y-4082696D01*
X2163606Y-4123900D01*
X2163606Y-4152946D01*
X2224787Y-4152946D01*
X2224787Y-4141409D01*
X2234473Y-4141409D01*
X2234473Y-4152945D01*
X2290458Y-4152945D01*
X2290458Y-4167185D01*
X2281235Y-4176409D01*
X2234787Y-4176409D01*
X2234473Y-4176409D01*
X2229787Y-4175651D01*
X2229787Y-4171409D01*
X2199196Y-4171409D01*
X2199196Y-4198141D01*
X2199196Y-4224874D01*
X2229787Y-4224874D01*
X2229787Y-4220631D01*
X2234473Y-4219873D01*
X2234787Y-4219873D01*
X2295654Y-4219873D01*
X2295654Y-4190828D01*
X2307864Y-4178618D01*
X2310074Y-4175311D01*
X2310850Y-4171409D01*
X2310850Y-2703154D01*
X2310074Y-2699252D01*
X2307864Y-2695945D01*
X2101011Y-2489092D01*
X2104099Y-2481637D01*
X2105302Y-2472500D01*
X2104099Y-2463363D01*
X2100572Y-2454849D01*
X2094962Y-2447538D01*
X2087651Y-2441928D01*
X2083470Y-2440196D01*
X2084465Y-2435196D01*
X2090000Y-2435196D01*
X2093902Y-2434420D01*
X2097210Y-2432210D01*
X2148784Y-2380635D01*
X2150995Y-2377327D01*
X2151771Y-2373425D01*
X2151771Y-1095931D01*
X2156675Y-1094956D01*
X2157562Y-1097099D01*
X2166068Y-1110980D01*
X2176641Y-1123359D01*
X2189020Y-1133931D01*
X2202901Y-1142438D01*
X2217941Y-1148667D01*
X2233771Y-1152468D01*
X2250000Y-1153745D01*
X2266229Y-1152468D01*
X2282059Y-1148667D01*
X2297099Y-1142438D01*
X2310980Y-1133931D01*
X2323359Y-1123359D01*
X2333932Y-1110980D01*
X2342438Y-1097099D01*
X2348667Y-1082059D01*
X2352468Y-1066229D01*
X2353745Y-1050000D01*
X2352468Y-1033771D01*
X2348667Y-1017941D01*
X2342438Y-1002901D01*
X2333932Y-989020D01*
X2323359Y-976641D01*
X2310980Y-966068D01*
X2297099Y-957562D01*
X2282059Y-951333D01*
X2266229Y-947532D01*
X2250000Y-946255D01*
X2233771Y-947532D01*
X2217941Y-951333D01*
X2202901Y-957562D01*
X2189020Y-966068D01*
X2176641Y-976641D01*
X2166068Y-989020D01*
X2157562Y-1002901D01*
X2156675Y-1005044D01*
X2151771Y-1004069D01*
X2151771Y-968549D01*
X2346737Y-773582D01*
X2348947Y-770275D01*
X2349724Y-766373D01*
X2349724Y-224025D01*
X2348947Y-220123D01*
X2346737Y-216815D01*
X2329950Y-200028D01*
X2331990Y-194997D01*
X2337832Y-194228D01*
X2345130Y-191205D01*
X2351396Y-186396D01*
X2356205Y-180129D01*
X2359228Y-172832D01*
X2360259Y-165000D01*
X2359228Y-157168D01*
X2356205Y-149871D01*
X2351396Y-143604D01*
X2345130Y-138795D01*
X2337832Y-135772D01*
X2330000Y-134741D01*
X2322168Y-135772D01*
X2314870Y-138795D01*
X2308604Y-143604D01*
X2303795Y-149871D01*
X2300772Y-157168D01*
X2300003Y-163010D01*
X2294972Y-165050D01*
X2016322Y113600D01*
X2016322Y1372802D01*
X2016126Y1373787D01*
X2016126Y1406267D01*
X2016126Y1406267D02*
G37*
G36*
X0Y-265175D02*
X-9014Y-266361D01*
X-17413Y-269840D01*
X-24625Y-275375D01*
X-30160Y-282587D01*
X-33639Y-290986D01*
X-34825Y-300000D01*
X-33639Y-309014D01*
X-30160Y-317413D01*
X-24625Y-324625D01*
X-17413Y-330160D01*
X-9014Y-333639D01*
X0Y-334825D01*
X9014Y-333639D01*
X17413Y-330160D01*
X24625Y-324625D01*
X30160Y-317413D01*
X33639Y-309014D01*
X34825Y-300000D01*
X33639Y-290986D01*
X30160Y-282587D01*
X24625Y-275375D01*
X17413Y-269840D01*
X9014Y-266361D01*
X0Y-265175D01*
X0Y-265175D02*
G37*
G36*
X-105000Y-205000D02*
X-139210Y-205000D01*
X-138510Y-210319D01*
X-134527Y-219934D01*
X-128191Y-228191D01*
X-119934Y-234527D01*
X-110319Y-238510D01*
X-105000Y-239210D01*
X-105000Y-205000D01*
X-105000Y-205000D02*
G37*
G36*
X-105000Y-260790D02*
X-110319Y-261490D01*
X-119934Y-265473D01*
X-128191Y-271809D01*
X-134527Y-280066D01*
X-138510Y-289681D01*
X-139210Y-295000D01*
X-105000Y-295000D01*
X-105000Y-260790D01*
X-105000Y-260790D02*
G37*
G36*
X-105000Y-305000D02*
X-139210Y-305000D01*
X-138510Y-310319D01*
X-134527Y-319934D01*
X-128191Y-328191D01*
X-119934Y-334527D01*
X-110319Y-338510D01*
X-105000Y-339210D01*
X-105000Y-305000D01*
X-105000Y-305000D02*
G37*
G36*
X2239210Y-355000D02*
X2205000Y-355000D01*
X2205000Y-389210D01*
X2210319Y-388510D01*
X2219934Y-384527D01*
X2228191Y-378191D01*
X2234527Y-369934D01*
X2238510Y-360319D01*
X2239210Y-355000D01*
X2239210Y-355000D02*
G37*
G36*
X2195000Y-355000D02*
X2160790Y-355000D01*
X2161490Y-360319D01*
X2165473Y-369934D01*
X2171809Y-378191D01*
X2180066Y-384527D01*
X2189681Y-388510D01*
X2195000Y-389210D01*
X2195000Y-355000D01*
X2195000Y-355000D02*
G37*
G36*
X2205000Y-310790D02*
X2205000Y-345000D01*
X2239210Y-345000D01*
X2238510Y-339681D01*
X2234527Y-330066D01*
X2228191Y-321809D01*
X2219934Y-315473D01*
X2210319Y-311490D01*
X2205000Y-310790D01*
X2205000Y-310790D02*
G37*
G36*
X2195000Y-310790D02*
X2189681Y-311490D01*
X2180066Y-315473D01*
X2171809Y-321809D01*
X2165473Y-330066D01*
X2161490Y-339681D01*
X2160790Y-345000D01*
X2195000Y-345000D01*
X2195000Y-310790D01*
X2195000Y-310790D02*
G37*
G36*
X0Y-165175D02*
X-9014Y-166361D01*
X-17413Y-169840D01*
X-24625Y-175375D01*
X-30160Y-182587D01*
X-33639Y-190987D01*
X-34825Y-200000D01*
X-33639Y-209013D01*
X-30160Y-217413D01*
X-24625Y-224625D01*
X-17413Y-230160D01*
X-9014Y-233639D01*
X0Y-234825D01*
X9014Y-233639D01*
X17413Y-230160D01*
X24625Y-224625D01*
X30160Y-217413D01*
X33639Y-209013D01*
X34825Y-200000D01*
X33639Y-190987D01*
X30160Y-182587D01*
X24625Y-175375D01*
X17413Y-169840D01*
X9014Y-166361D01*
X0Y-165175D01*
X0Y-165175D02*
G37*
G36*
X750000Y1720259D02*
X742168Y1719228D01*
X734870Y1716205D01*
X728604Y1711396D01*
X723795Y1705129D01*
X720772Y1697832D01*
X719741Y1690000D01*
X720772Y1682168D01*
X723795Y1674871D01*
X728604Y1668604D01*
X734870Y1663795D01*
X739804Y1661751D01*
X739804Y1574223D01*
X319790Y1154210D01*
X317580Y1150902D01*
X316804Y1147000D01*
X316804Y97562D01*
X311804Y95865D01*
X311396Y96396D01*
X305130Y101205D01*
X297832Y104228D01*
X290000Y105259D01*
X282168Y104228D01*
X274870Y101205D01*
X268604Y96396D01*
X263795Y90129D01*
X260772Y82832D01*
X259741Y75000D01*
X260772Y67168D01*
X263795Y59871D01*
X268604Y53604D01*
X274870Y48795D01*
X282168Y45772D01*
X290000Y44741D01*
X297832Y45772D01*
X305130Y48795D01*
X311396Y53604D01*
X311804Y54135D01*
X316804Y52438D01*
X316804Y-1936751D01*
X311870Y-1938795D01*
X305604Y-1943604D01*
X300795Y-1949871D01*
X297772Y-1957168D01*
X296741Y-1965000D01*
X297772Y-1972832D01*
X300795Y-1980129D01*
X305604Y-1986396D01*
X311870Y-1991205D01*
X319168Y-1994228D01*
X327000Y-1995259D01*
X334832Y-1994228D01*
X342130Y-1991205D01*
X348396Y-1986396D01*
X353205Y-1980129D01*
X356228Y-1972832D01*
X357259Y-1965000D01*
X356228Y-1957168D01*
X353205Y-1949871D01*
X348396Y-1943604D01*
X342130Y-1938795D01*
X337196Y-1936751D01*
X337196Y1142777D01*
X757210Y1562790D01*
X759420Y1566098D01*
X760196Y1570000D01*
X760196Y1661751D01*
X765130Y1663795D01*
X771396Y1668604D01*
X776205Y1674871D01*
X779228Y1682168D01*
X780259Y1690000D01*
X779228Y1697832D01*
X776205Y1705129D01*
X771396Y1711396D01*
X765130Y1716205D01*
X757832Y1719228D01*
X750000Y1720259D01*
X750000Y1720259D02*
G37*
G36*
X0Y34825D02*
X-9014Y33639D01*
X-17413Y30160D01*
X-24625Y24625D01*
X-30160Y17413D01*
X-33639Y9014D01*
X-34825Y0D01*
X-33639Y-9014D01*
X-30160Y-17413D01*
X-24625Y-24625D01*
X-17413Y-30160D01*
X-9014Y-33639D01*
X0Y-34825D01*
X9014Y-33639D01*
X17413Y-30160D01*
X24625Y-24625D01*
X30160Y-17413D01*
X33639Y-9014D01*
X34825Y0D01*
X33639Y9014D01*
X30160Y17413D01*
X24625Y24625D01*
X17413Y30160D01*
X9014Y33639D01*
X0Y34825D01*
X0Y34825D02*
G37*
G36*
X2339210Y145000D02*
X2305000Y145000D01*
X2305000Y110790D01*
X2310319Y111490D01*
X2319934Y115473D01*
X2328191Y121809D01*
X2334527Y130066D01*
X2338510Y139681D01*
X2339210Y145000D01*
X2339210Y145000D02*
G37*
G36*
X2295000Y145000D02*
X2260790Y145000D01*
X2261490Y139681D01*
X2265473Y130066D01*
X2271809Y121809D01*
X2280066Y115473D01*
X2289681Y111490D01*
X2295000Y110790D01*
X2295000Y145000D01*
X2295000Y145000D02*
G37*
G36*
X-100000Y34825D02*
X-109013Y33639D01*
X-117413Y30160D01*
X-124625Y24625D01*
X-130160Y17413D01*
X-133639Y9014D01*
X-134825Y0D01*
X-133639Y-9014D01*
X-130160Y-17413D01*
X-124625Y-24625D01*
X-117413Y-30160D01*
X-109013Y-33639D01*
X-100000Y-34825D01*
X-90987Y-33639D01*
X-82587Y-30160D01*
X-75375Y-24625D01*
X-69840Y-17413D01*
X-66361Y-9014D01*
X-65175Y0D01*
X-66361Y9014D01*
X-69840Y17413D01*
X-75375Y24625D01*
X-82587Y30160D01*
X-90987Y33639D01*
X-100000Y34825D01*
X-100000Y34825D02*
G37*
G36*
X-100000Y-65175D02*
X-109013Y-66361D01*
X-117413Y-69840D01*
X-124625Y-75375D01*
X-130160Y-82587D01*
X-133639Y-90987D01*
X-134825Y-100000D01*
X-133639Y-109013D01*
X-130160Y-117413D01*
X-124625Y-124625D01*
X-117413Y-130160D01*
X-109013Y-133639D01*
X-100000Y-134825D01*
X-90987Y-133639D01*
X-82587Y-130160D01*
X-75375Y-124625D01*
X-69840Y-117413D01*
X-66361Y-109013D01*
X-65175Y-100000D01*
X-66361Y-90987D01*
X-69840Y-82587D01*
X-75375Y-75375D01*
X-82587Y-69840D01*
X-90987Y-66361D01*
X-100000Y-65175D01*
X-100000Y-65175D02*
G37*
G36*
X-105000Y-160790D02*
X-110319Y-161490D01*
X-119934Y-165473D01*
X-128191Y-171809D01*
X-134527Y-180066D01*
X-138510Y-189681D01*
X-139210Y-195000D01*
X-105000Y-195000D01*
X-105000Y-160790D01*
X-105000Y-160790D02*
G37*
G36*
X375000Y5259D02*
X367168Y4228D01*
X359870Y1205D01*
X353604Y-3604D01*
X348795Y-9871D01*
X345772Y-17168D01*
X344741Y-25000D01*
X345772Y-32832D01*
X348795Y-40129D01*
X353604Y-46396D01*
X359870Y-51205D01*
X367168Y-54228D01*
X375000Y-55259D01*
X382832Y-54228D01*
X390130Y-51205D01*
X396396Y-46396D01*
X401205Y-40129D01*
X404228Y-32832D01*
X405259Y-25000D01*
X404228Y-17168D01*
X401205Y-9871D01*
X396396Y-3604D01*
X390130Y1205D01*
X382832Y4228D01*
X375000Y5259D01*
X375000Y5259D02*
G37*
G36*
X0Y-65175D02*
X-9014Y-66361D01*
X-17413Y-69840D01*
X-24625Y-75375D01*
X-30160Y-82587D01*
X-33639Y-90987D01*
X-34825Y-100000D01*
X-33639Y-109013D01*
X-30160Y-117413D01*
X-24625Y-124625D01*
X-17413Y-130160D01*
X-9014Y-133639D01*
X0Y-134825D01*
X9014Y-133639D01*
X17413Y-130160D01*
X24625Y-124625D01*
X30160Y-117413D01*
X33639Y-109013D01*
X34825Y-100000D01*
X33639Y-90987D01*
X30160Y-82587D01*
X24625Y-75375D01*
X17413Y-69840D01*
X9014Y-66361D01*
X0Y-65175D01*
X0Y-65175D02*
G37*
G36*
X-105000Y-360790D02*
X-110319Y-361490D01*
X-119934Y-365473D01*
X-128191Y-371809D01*
X-134527Y-380066D01*
X-138510Y-389681D01*
X-139210Y-395000D01*
X-105000Y-395000D01*
X-105000Y-360790D01*
X-105000Y-360790D02*
G37*
G36*
X2020000Y-1988355D02*
X2003584Y-1989972D01*
X1987799Y-1994760D01*
X1973251Y-2002536D01*
X1960500Y-2013000D01*
X1950036Y-2025751D01*
X1942260Y-2040299D01*
X1937472Y-2056084D01*
X1935855Y-2072500D01*
X1937472Y-2088916D01*
X1942260Y-2104701D01*
X1950036Y-2119249D01*
X1960500Y-2132000D01*
X1973251Y-2142464D01*
X1987799Y-2150240D01*
X2003584Y-2155028D01*
X2020000Y-2156645D01*
X2036416Y-2155028D01*
X2052201Y-2150240D01*
X2066749Y-2142464D01*
X2079500Y-2132000D01*
X2089964Y-2119249D01*
X2097740Y-2104701D01*
X2102528Y-2088916D01*
X2104145Y-2072500D01*
X2102528Y-2056084D01*
X2097740Y-2040299D01*
X2089964Y-2025751D01*
X2079500Y-2013000D01*
X2066749Y-2002536D01*
X2052201Y-1994760D01*
X2036416Y-1989972D01*
X2020000Y-1988355D01*
X2020000Y-1988355D02*
G37*
G36*
X120000Y-1988355D02*
X103584Y-1989972D01*
X87799Y-1994760D01*
X73251Y-2002536D01*
X60500Y-2013000D01*
X50036Y-2025751D01*
X42260Y-2040299D01*
X37471Y-2056084D01*
X35855Y-2072500D01*
X37471Y-2088916D01*
X42260Y-2104701D01*
X50036Y-2119249D01*
X60500Y-2132000D01*
X73251Y-2142464D01*
X87799Y-2150240D01*
X103584Y-2155028D01*
X120000Y-2156645D01*
X136416Y-2155028D01*
X152201Y-2150240D01*
X166749Y-2142464D01*
X179500Y-2132000D01*
X189964Y-2119249D01*
X197740Y-2104701D01*
X202529Y-2088916D01*
X204145Y-2072500D01*
X202529Y-2056084D01*
X197740Y-2040299D01*
X189964Y-2025751D01*
X179500Y-2013000D01*
X166749Y-2002536D01*
X152201Y-1994760D01*
X136416Y-1989972D01*
X120000Y-1988355D01*
X120000Y-1988355D02*
G37*
G36*
X2200000Y-615175D02*
X2190986Y-616361D01*
X2182587Y-619840D01*
X2175375Y-625375D01*
X2169840Y-632587D01*
X2166361Y-640986D01*
X2165175Y-650000D01*
X2166361Y-659014D01*
X2169840Y-667413D01*
X2175375Y-674625D01*
X2182587Y-680160D01*
X2190986Y-683639D01*
X2200000Y-684825D01*
X2209014Y-683639D01*
X2217413Y-680160D01*
X2224625Y-674625D01*
X2230160Y-667413D01*
X2233639Y-659014D01*
X2234825Y-650000D01*
X2233639Y-640986D01*
X2230160Y-632587D01*
X2224625Y-625375D01*
X2217413Y-619840D01*
X2209014Y-616361D01*
X2200000Y-615175D01*
X2200000Y-615175D02*
G37*
G36*
X2200000Y-715175D02*
X2190986Y-716361D01*
X2182587Y-719840D01*
X2175375Y-725375D01*
X2169840Y-732587D01*
X2166361Y-740986D01*
X2165175Y-750000D01*
X2166361Y-759014D01*
X2169840Y-767413D01*
X2175375Y-774625D01*
X2182587Y-780160D01*
X2190986Y-783639D01*
X2200000Y-784825D01*
X2209014Y-783639D01*
X2217413Y-780160D01*
X2224625Y-774625D01*
X2230160Y-767413D01*
X2233639Y-759014D01*
X2234825Y-750000D01*
X2233639Y-740986D01*
X2230160Y-732587D01*
X2224625Y-725375D01*
X2217413Y-719840D01*
X2209014Y-716361D01*
X2200000Y-715175D01*
X2200000Y-715175D02*
G37*
G36*
X2075000Y-2232813D02*
X2075000Y-2267500D01*
X2109687Y-2267500D01*
X2108970Y-2262058D01*
X2104940Y-2252327D01*
X2098528Y-2243972D01*
X2090173Y-2237560D01*
X2080442Y-2233530D01*
X2075000Y-2232813D01*
X2075000Y-2232813D02*
G37*
G36*
X2065000Y-2232813D02*
X2059558Y-2233530D01*
X2049827Y-2237560D01*
X2041472Y-2243972D01*
X2035060Y-2252327D01*
X2031030Y-2262058D01*
X2030313Y-2267500D01*
X2065000Y-2267500D01*
X2065000Y-2232813D01*
X2065000Y-2232813D02*
G37*
G36*
X1965000Y-2232813D02*
X1959558Y-2233530D01*
X1949827Y-2237560D01*
X1941472Y-2243972D01*
X1935060Y-2252327D01*
X1931030Y-2262058D01*
X1930313Y-2267500D01*
X1965000Y-2267500D01*
X1965000Y-2232813D01*
X1965000Y-2232813D02*
G37*
G36*
X1975000Y-2232813D02*
X1975000Y-2267500D01*
X2009687Y-2267500D01*
X2008970Y-2262058D01*
X2004940Y-2252327D01*
X1998528Y-2243972D01*
X1990173Y-2237560D01*
X1980442Y-2233530D01*
X1975000Y-2232813D01*
X1975000Y-2232813D02*
G37*
G36*
X75000Y-2232813D02*
X75000Y-2267500D01*
X109687Y-2267500D01*
X108971Y-2262058D01*
X104940Y-2252327D01*
X98528Y-2243972D01*
X90173Y-2237560D01*
X80442Y-2233530D01*
X75000Y-2232813D01*
X75000Y-2232813D02*
G37*
G36*
X-105000Y-605000D02*
X-139210Y-605000D01*
X-138510Y-610319D01*
X-134527Y-619934D01*
X-128191Y-628191D01*
X-119934Y-634527D01*
X-110319Y-638510D01*
X-105000Y-639210D01*
X-105000Y-605000D01*
X-105000Y-605000D02*
G37*
G36*
X2200000Y-415175D02*
X2190986Y-416361D01*
X2182587Y-419840D01*
X2175375Y-425375D01*
X2169840Y-432587D01*
X2166361Y-440986D01*
X2165175Y-450000D01*
X2166361Y-459014D01*
X2169840Y-467413D01*
X2175375Y-474625D01*
X2182587Y-480160D01*
X2190986Y-483639D01*
X2200000Y-484825D01*
X2209014Y-483639D01*
X2217413Y-480160D01*
X2224625Y-474625D01*
X2230160Y-467413D01*
X2233639Y-459014D01*
X2234825Y-450000D01*
X2233639Y-440986D01*
X2230160Y-432587D01*
X2224625Y-425375D01*
X2217413Y-419840D01*
X2209014Y-416361D01*
X2200000Y-415175D01*
X2200000Y-415175D02*
G37*
G36*
X-105000Y-460790D02*
X-110319Y-461490D01*
X-119934Y-465473D01*
X-128191Y-471809D01*
X-134527Y-480066D01*
X-138510Y-489681D01*
X-139210Y-495000D01*
X-105000Y-495000D01*
X-105000Y-460790D01*
X-105000Y-460790D02*
G37*
G36*
X0Y-365175D02*
X-9014Y-366361D01*
X-17413Y-369840D01*
X-24625Y-375375D01*
X-30160Y-382587D01*
X-33639Y-390986D01*
X-34825Y-400000D01*
X-33639Y-409014D01*
X-30160Y-417413D01*
X-24625Y-424625D01*
X-17413Y-430160D01*
X-9014Y-433639D01*
X0Y-434825D01*
X9014Y-433639D01*
X17413Y-430160D01*
X24625Y-424625D01*
X30160Y-417413D01*
X33639Y-409014D01*
X34825Y-400000D01*
X33639Y-390986D01*
X30160Y-382587D01*
X24625Y-375375D01*
X17413Y-369840D01*
X9014Y-366361D01*
X0Y-365175D01*
X0Y-365175D02*
G37*
G36*
X-105000Y-405000D02*
X-139210Y-405000D01*
X-138510Y-410319D01*
X-134527Y-419934D01*
X-128191Y-428191D01*
X-119934Y-434527D01*
X-110319Y-438510D01*
X-105000Y-439210D01*
X-105000Y-405000D01*
X-105000Y-405000D02*
G37*
G36*
X0Y-465175D02*
X-9014Y-466361D01*
X-17413Y-469840D01*
X-24625Y-475375D01*
X-30160Y-482587D01*
X-33639Y-490986D01*
X-34825Y-500000D01*
X-33639Y-509014D01*
X-30160Y-517413D01*
X-24625Y-524625D01*
X-17413Y-530160D01*
X-9014Y-533639D01*
X0Y-534825D01*
X9014Y-533639D01*
X17413Y-530160D01*
X24625Y-524625D01*
X30160Y-517413D01*
X33639Y-509014D01*
X34825Y-500000D01*
X33639Y-490986D01*
X30160Y-482587D01*
X24625Y-475375D01*
X17413Y-469840D01*
X9014Y-466361D01*
X0Y-465175D01*
X0Y-465175D02*
G37*
G36*
X-105000Y-560790D02*
X-110319Y-561490D01*
X-119934Y-565473D01*
X-128191Y-571809D01*
X-134527Y-580066D01*
X-138510Y-589681D01*
X-139210Y-595000D01*
X-105000Y-595000D01*
X-105000Y-560790D01*
X-105000Y-560790D02*
G37*
G36*
X39210Y-605000D02*
X5000Y-605000D01*
X5000Y-639210D01*
X10319Y-638510D01*
X19934Y-634527D01*
X28191Y-628191D01*
X34527Y-619934D01*
X38510Y-610319D01*
X39210Y-605000D01*
X39210Y-605000D02*
G37*
G36*
X-105000Y-505000D02*
X-139210Y-505000D01*
X-138510Y-510319D01*
X-134527Y-519934D01*
X-128191Y-528191D01*
X-119934Y-534527D01*
X-110319Y-538510D01*
X-105000Y-539210D01*
X-105000Y-505000D01*
X-105000Y-505000D02*
G37*
G36*
X5000Y-560790D02*
X5000Y-595000D01*
X39210Y-595000D01*
X38510Y-589681D01*
X34527Y-580066D01*
X28191Y-571809D01*
X19934Y-565473D01*
X10319Y-561490D01*
X5000Y-560790D01*
X5000Y-560790D02*
G37*
G36*
X70000Y-2737198D02*
X60863Y-2738401D01*
X52349Y-2741928D01*
X45038Y-2747538D01*
X39428Y-2754849D01*
X35901Y-2763363D01*
X34698Y-2772500D01*
X35901Y-2781637D01*
X39428Y-2790151D01*
X45038Y-2797462D01*
X52349Y-2803072D01*
X60863Y-2806599D01*
X70000Y-2807802D01*
X79137Y-2806599D01*
X87651Y-2803072D01*
X94962Y-2797462D01*
X100572Y-2790151D01*
X104099Y-2781637D01*
X105302Y-2772500D01*
X104099Y-2763363D01*
X100572Y-2754849D01*
X94962Y-2747538D01*
X87651Y-2741928D01*
X79137Y-2738401D01*
X70000Y-2737198D01*
X70000Y-2737198D02*
G37*
G36*
X2075000Y-4332813D02*
X2075000Y-4367500D01*
X2109687Y-4367500D01*
X2108970Y-4362058D01*
X2104940Y-4352327D01*
X2098528Y-4343972D01*
X2090173Y-4337560D01*
X2080442Y-4333529D01*
X2075000Y-4332813D01*
X2075000Y-4332813D02*
G37*
G36*
X1975000Y-4332813D02*
X1975000Y-4367500D01*
X2009687Y-4367500D01*
X2008970Y-4362058D01*
X2004940Y-4352327D01*
X1998528Y-4343972D01*
X1990173Y-4337560D01*
X1980442Y-4333529D01*
X1975000Y-4332813D01*
X1975000Y-4332813D02*
G37*
G36*
X1970000Y-4237198D02*
X1960863Y-4238401D01*
X1952349Y-4241928D01*
X1945038Y-4247538D01*
X1939428Y-4254849D01*
X1935901Y-4263363D01*
X1934698Y-4272500D01*
X1935901Y-4281637D01*
X1939428Y-4290151D01*
X1945038Y-4297462D01*
X1952349Y-4303072D01*
X1960863Y-4306599D01*
X1970000Y-4307802D01*
X1979137Y-4306599D01*
X1987651Y-4303072D01*
X1994962Y-4297462D01*
X2000572Y-4290151D01*
X2004099Y-4281637D01*
X2005302Y-4272500D01*
X2004099Y-4263363D01*
X2000572Y-4254849D01*
X1994962Y-4247538D01*
X1987651Y-4241928D01*
X1979137Y-4238401D01*
X1970000Y-4237198D01*
X1970000Y-4237198D02*
G37*
G36*
X70000Y-4237198D02*
X60863Y-4238401D01*
X52349Y-4241928D01*
X45038Y-4247538D01*
X39428Y-4254849D01*
X35901Y-4263363D01*
X34698Y-4272500D01*
X35901Y-4281637D01*
X39428Y-4290151D01*
X45038Y-4297462D01*
X52349Y-4303072D01*
X60863Y-4306599D01*
X70000Y-4307802D01*
X79137Y-4306599D01*
X87651Y-4303072D01*
X94962Y-4297462D01*
X100572Y-4290151D01*
X104099Y-4281637D01*
X105302Y-4272500D01*
X104099Y-4263363D01*
X100572Y-4254849D01*
X94962Y-4247538D01*
X87651Y-4241928D01*
X79137Y-4238401D01*
X70000Y-4237198D01*
X70000Y-4237198D02*
G37*
G36*
X2065000Y-4332813D02*
X2059558Y-4333529D01*
X2049827Y-4337560D01*
X2041472Y-4343972D01*
X2035060Y-4352327D01*
X2031030Y-4362058D01*
X2030313Y-4367500D01*
X2065000Y-4367500D01*
X2065000Y-4332813D01*
X2065000Y-4332813D02*
G37*
G36*
X1005472Y-4347559D02*
X990630Y-4347559D01*
X990630Y-4386024D01*
X1005472Y-4386024D01*
X1005472Y-4347559D01*
X1005472Y-4347559D02*
G37*
G36*
X170000Y-4337198D02*
X160863Y-4338401D01*
X152349Y-4341928D01*
X145038Y-4347538D01*
X139428Y-4354849D01*
X135901Y-4363363D01*
X134698Y-4372500D01*
X135901Y-4381637D01*
X139428Y-4390151D01*
X145038Y-4397462D01*
X152349Y-4403072D01*
X160863Y-4406599D01*
X170000Y-4407802D01*
X179137Y-4406599D01*
X187651Y-4403072D01*
X194962Y-4397462D01*
X200572Y-4390151D01*
X204099Y-4381637D01*
X205302Y-4372500D01*
X204099Y-4363363D01*
X200572Y-4354849D01*
X194962Y-4347538D01*
X187651Y-4341928D01*
X179137Y-4338401D01*
X170000Y-4337198D01*
X170000Y-4337198D02*
G37*
G36*
X1965000Y-4332813D02*
X1959558Y-4333529D01*
X1949827Y-4337560D01*
X1941472Y-4343972D01*
X1935060Y-4352327D01*
X1931030Y-4362058D01*
X1930313Y-4367500D01*
X1965000Y-4367500D01*
X1965000Y-4332813D01*
X1965000Y-4332813D02*
G37*
G36*
X1030315Y-4347559D02*
X1015472Y-4347559D01*
X1015472Y-4386024D01*
X1030315Y-4386024D01*
X1030315Y-4347559D01*
X1030315Y-4347559D02*
G37*
G36*
X2070000Y-4237198D02*
X2060863Y-4238401D01*
X2052349Y-4241928D01*
X2045038Y-4247538D01*
X2039428Y-4254849D01*
X2035901Y-4263363D01*
X2034698Y-4272500D01*
X2035901Y-4281637D01*
X2039428Y-4290151D01*
X2045038Y-4297462D01*
X2052349Y-4303072D01*
X2060863Y-4306599D01*
X2070000Y-4307802D01*
X2079137Y-4306599D01*
X2087651Y-4303072D01*
X2094962Y-4297462D01*
X2100572Y-4290151D01*
X2104099Y-4281637D01*
X2105302Y-4272500D01*
X2104099Y-4263363D01*
X2100572Y-4254849D01*
X2094962Y-4247538D01*
X2087651Y-4241928D01*
X2079137Y-4238401D01*
X2070000Y-4237198D01*
X2070000Y-4237198D02*
G37*
G36*
X70000Y-3937198D02*
X60863Y-3938401D01*
X52349Y-3941928D01*
X45038Y-3947538D01*
X39428Y-3954849D01*
X35901Y-3963363D01*
X34698Y-3972500D01*
X35901Y-3981637D01*
X39428Y-3990151D01*
X45038Y-3997462D01*
X52349Y-4003072D01*
X60863Y-4006599D01*
X70000Y-4007802D01*
X79137Y-4006599D01*
X87651Y-4003072D01*
X94962Y-3997462D01*
X100572Y-3990151D01*
X104099Y-3981637D01*
X105302Y-3972500D01*
X104099Y-3963363D01*
X100572Y-3954849D01*
X94962Y-3947538D01*
X87651Y-3941928D01*
X79137Y-3938401D01*
X70000Y-3937198D01*
X70000Y-3937198D02*
G37*
G36*
X1970000Y-4037198D02*
X1960863Y-4038401D01*
X1952349Y-4041928D01*
X1945038Y-4047538D01*
X1939428Y-4054849D01*
X1935901Y-4063363D01*
X1934698Y-4072500D01*
X1935901Y-4081637D01*
X1939428Y-4090151D01*
X1945038Y-4097462D01*
X1952349Y-4103072D01*
X1960863Y-4106599D01*
X1970000Y-4107802D01*
X1979137Y-4106599D01*
X1987651Y-4103072D01*
X1994962Y-4097462D01*
X2000572Y-4090151D01*
X2004099Y-4081637D01*
X2005302Y-4072500D01*
X2004099Y-4063363D01*
X2000572Y-4054849D01*
X1994962Y-4047538D01*
X1987651Y-4041928D01*
X1979137Y-4038401D01*
X1970000Y-4037198D01*
X1970000Y-4037198D02*
G37*
G36*
X2070000Y-3937198D02*
X2060863Y-3938401D01*
X2052349Y-3941928D01*
X2045038Y-3947538D01*
X2039428Y-3954849D01*
X2035901Y-3963363D01*
X2034698Y-3972500D01*
X2035901Y-3981637D01*
X2039428Y-3990151D01*
X2045038Y-3997462D01*
X2052349Y-4003072D01*
X2060863Y-4006599D01*
X2070000Y-4007802D01*
X2079137Y-4006599D01*
X2087651Y-4003072D01*
X2094962Y-3997462D01*
X2100572Y-3990151D01*
X2104099Y-3981637D01*
X2105302Y-3972500D01*
X2104099Y-3963363D01*
X2100572Y-3954849D01*
X2094962Y-3947538D01*
X2087651Y-3941928D01*
X2079137Y-3938401D01*
X2070000Y-3937198D01*
X2070000Y-3937198D02*
G37*
G36*
X1970000Y-3937198D02*
X1960863Y-3938401D01*
X1952349Y-3941928D01*
X1945038Y-3947538D01*
X1939428Y-3954849D01*
X1935901Y-3963363D01*
X1934698Y-3972500D01*
X1935901Y-3981637D01*
X1939428Y-3990151D01*
X1945038Y-3997462D01*
X1952349Y-4003072D01*
X1960863Y-4006599D01*
X1970000Y-4007802D01*
X1979137Y-4006599D01*
X1987651Y-4003072D01*
X1994962Y-3997462D01*
X2000572Y-3990151D01*
X2004099Y-3981637D01*
X2005302Y-3972500D01*
X2004099Y-3963363D01*
X2000572Y-3954849D01*
X1994962Y-3947538D01*
X1987651Y-3941928D01*
X1979137Y-3938401D01*
X1970000Y-3937198D01*
X1970000Y-3937198D02*
G37*
G36*
X1304433Y-4132223D02*
X1297106Y-4133680D01*
X1290894Y-4137831D01*
X1286743Y-4144043D01*
X1286646Y-4144534D01*
X1282199Y-4144534D01*
X1278298Y-4145310D01*
X1274990Y-4147520D01*
X1069951Y-4352559D01*
X1054685Y-4352559D01*
X1054685Y-4433425D01*
X1084370Y-4433425D01*
X1084370Y-4366978D01*
X1286423Y-4164926D01*
X1290918Y-4164926D01*
X1297106Y-4169060D01*
X1304433Y-4170517D01*
X1311761Y-4169060D01*
X1317972Y-4164909D01*
X1322123Y-4158698D01*
X1323581Y-4151370D01*
X1322123Y-4144043D01*
X1317972Y-4137831D01*
X1311761Y-4133680D01*
X1304433Y-4132223D01*
X1304433Y-4132223D02*
G37*
G36*
X1970000Y-4137198D02*
X1960863Y-4138401D01*
X1952349Y-4141928D01*
X1945038Y-4147538D01*
X1939428Y-4154849D01*
X1935901Y-4163363D01*
X1934698Y-4172500D01*
X1935901Y-4181637D01*
X1939428Y-4190151D01*
X1945038Y-4197462D01*
X1952349Y-4203072D01*
X1960863Y-4206599D01*
X1970000Y-4207802D01*
X1979137Y-4206599D01*
X1987651Y-4203072D01*
X1994962Y-4197462D01*
X2000572Y-4190151D01*
X2004099Y-4181637D01*
X2005302Y-4172500D01*
X2004099Y-4163363D01*
X2000572Y-4154849D01*
X1994962Y-4147538D01*
X1987651Y-4141928D01*
X1979137Y-4138401D01*
X1970000Y-4137198D01*
X1970000Y-4137198D02*
G37*
G36*
X2189196Y-4203141D02*
X2158606Y-4203141D01*
X2158606Y-4224874D01*
X2189196Y-4224874D01*
X2189196Y-4203141D01*
X2189196Y-4203141D02*
G37*
G36*
X2189196Y-4171409D02*
X2158606Y-4171409D01*
X2158606Y-4193141D01*
X2189196Y-4193141D01*
X2189196Y-4171409D01*
X2189196Y-4171409D02*
G37*
G36*
X2070000Y-4137198D02*
X2060863Y-4138401D01*
X2052349Y-4141928D01*
X2045038Y-4147538D01*
X2039428Y-4154849D01*
X2035901Y-4163363D01*
X2034698Y-4172500D01*
X2035901Y-4181637D01*
X2039428Y-4190151D01*
X2045038Y-4197462D01*
X2052349Y-4203072D01*
X2060863Y-4206599D01*
X2070000Y-4207802D01*
X2079137Y-4206599D01*
X2087651Y-4203072D01*
X2094962Y-4197462D01*
X2100572Y-4190151D01*
X2104099Y-4181637D01*
X2105302Y-4172500D01*
X2104099Y-4163363D01*
X2100572Y-4154849D01*
X2094962Y-4147538D01*
X2087651Y-4141928D01*
X2079137Y-4138401D01*
X2070000Y-4137198D01*
X2070000Y-4137198D02*
G37*
G36*
X70000Y-4337198D02*
X60863Y-4338401D01*
X52349Y-4341928D01*
X45038Y-4347538D01*
X39428Y-4354849D01*
X35901Y-4363363D01*
X34698Y-4372500D01*
X35901Y-4381637D01*
X39428Y-4390151D01*
X45038Y-4397462D01*
X52349Y-4403072D01*
X60863Y-4406599D01*
X70000Y-4407802D01*
X79137Y-4406599D01*
X87651Y-4403072D01*
X94962Y-4397462D01*
X100572Y-4390151D01*
X104099Y-4381637D01*
X105302Y-4372500D01*
X104099Y-4363363D01*
X100572Y-4354849D01*
X94962Y-4347538D01*
X87651Y-4341928D01*
X79137Y-4338401D01*
X70000Y-4337198D01*
X70000Y-4337198D02*
G37*
G36*
X2109687Y-4477500D02*
X2075000Y-4477500D01*
X2075000Y-4512187D01*
X2080442Y-4511471D01*
X2090173Y-4507440D01*
X2098528Y-4501028D01*
X2104940Y-4492673D01*
X2108970Y-4482942D01*
X2109687Y-4477500D01*
X2109687Y-4477500D02*
G37*
G36*
X2009687Y-4477500D02*
X1975000Y-4477500D01*
X1975000Y-4512187D01*
X1980442Y-4511471D01*
X1990173Y-4507440D01*
X1998528Y-4501028D01*
X2004940Y-4492673D01*
X2008970Y-4482942D01*
X2009687Y-4477500D01*
X2009687Y-4477500D02*
G37*
G36*
X170000Y-4437198D02*
X160863Y-4438401D01*
X152349Y-4441928D01*
X145038Y-4447538D01*
X139428Y-4454849D01*
X135901Y-4463363D01*
X134698Y-4472500D01*
X135901Y-4481637D01*
X139428Y-4490151D01*
X145038Y-4497462D01*
X152349Y-4503072D01*
X160863Y-4506599D01*
X170000Y-4507802D01*
X179137Y-4506599D01*
X187651Y-4503072D01*
X194962Y-4497462D01*
X200572Y-4490151D01*
X204099Y-4481637D01*
X205302Y-4472500D01*
X204099Y-4463363D01*
X200572Y-4454849D01*
X194962Y-4447538D01*
X187651Y-4441928D01*
X179137Y-4438401D01*
X170000Y-4437198D01*
X170000Y-4437198D02*
G37*
G36*
X70000Y-4437198D02*
X60863Y-4438401D01*
X52349Y-4441928D01*
X45038Y-4447538D01*
X39428Y-4454849D01*
X35901Y-4463363D01*
X34698Y-4472500D01*
X35901Y-4481637D01*
X39428Y-4490151D01*
X45038Y-4497462D01*
X52349Y-4503072D01*
X60863Y-4506599D01*
X70000Y-4507802D01*
X79137Y-4506599D01*
X87651Y-4503072D01*
X94962Y-4497462D01*
X100572Y-4490151D01*
X104099Y-4481637D01*
X105302Y-4472500D01*
X104099Y-4463363D01*
X100572Y-4454849D01*
X94962Y-4447538D01*
X87651Y-4441928D01*
X79137Y-4438401D01*
X70000Y-4437198D01*
X70000Y-4437198D02*
G37*
G36*
X2065000Y-4477500D02*
X2030313Y-4477500D01*
X2031030Y-4482942D01*
X2035060Y-4492673D01*
X2041472Y-4501028D01*
X2049827Y-4507440D01*
X2059558Y-4511471D01*
X2065000Y-4512187D01*
X2065000Y-4477500D01*
X2065000Y-4477500D02*
G37*
G36*
X1895000Y-4563355D02*
X1878584Y-4564971D01*
X1862799Y-4569760D01*
X1848251Y-4577536D01*
X1835500Y-4588000D01*
X1825036Y-4600751D01*
X1817260Y-4615299D01*
X1812472Y-4631084D01*
X1810855Y-4647500D01*
X1812472Y-4663916D01*
X1817260Y-4679701D01*
X1825036Y-4694249D01*
X1835500Y-4707000D01*
X1848251Y-4717464D01*
X1862799Y-4725240D01*
X1878584Y-4730029D01*
X1895000Y-4731645D01*
X1911416Y-4730029D01*
X1927201Y-4725240D01*
X1941749Y-4717464D01*
X1954500Y-4707000D01*
X1964964Y-4694249D01*
X1972740Y-4679701D01*
X1977528Y-4663916D01*
X1979145Y-4647500D01*
X1977528Y-4631084D01*
X1972740Y-4615299D01*
X1964964Y-4600751D01*
X1954500Y-4588000D01*
X1941749Y-4577536D01*
X1927201Y-4569760D01*
X1911416Y-4564971D01*
X1895000Y-4563355D01*
X1895000Y-4563355D02*
G37*
G36*
X245000Y-4563355D02*
X228584Y-4564971D01*
X212799Y-4569760D01*
X198251Y-4577536D01*
X185500Y-4588000D01*
X175036Y-4600751D01*
X167260Y-4615299D01*
X162471Y-4631084D01*
X160855Y-4647500D01*
X162471Y-4663916D01*
X167260Y-4679701D01*
X175036Y-4694249D01*
X185500Y-4707000D01*
X198251Y-4717464D01*
X212799Y-4725240D01*
X228584Y-4730029D01*
X245000Y-4731645D01*
X261416Y-4730029D01*
X277201Y-4725240D01*
X291749Y-4717464D01*
X304500Y-4707000D01*
X314964Y-4694249D01*
X322740Y-4679701D01*
X327529Y-4663916D01*
X329145Y-4647500D01*
X327529Y-4631084D01*
X322740Y-4615299D01*
X314964Y-4600751D01*
X304500Y-4588000D01*
X291749Y-4577536D01*
X277201Y-4569760D01*
X261416Y-4564971D01*
X245000Y-4563355D01*
X245000Y-4563355D02*
G37*
G36*
X1965000Y-4477500D02*
X1930313Y-4477500D01*
X1931030Y-4482942D01*
X1935060Y-4492673D01*
X1941472Y-4501028D01*
X1949827Y-4507440D01*
X1959558Y-4511471D01*
X1965000Y-4512187D01*
X1965000Y-4477500D01*
X1965000Y-4477500D02*
G37*
G36*
X-190000Y-4529741D02*
X-197832Y-4530772D01*
X-205130Y-4533795D01*
X-211396Y-4538604D01*
X-216205Y-4544871D01*
X-219228Y-4552168D01*
X-220259Y-4560000D01*
X-219228Y-4567832D01*
X-216205Y-4575129D01*
X-211396Y-4581396D01*
X-205130Y-4586205D01*
X-197832Y-4589228D01*
X-190000Y-4590259D01*
X-182168Y-4589228D01*
X-174870Y-4586205D01*
X-168604Y-4581396D01*
X-163795Y-4575129D01*
X-160772Y-4567832D01*
X-159741Y-4560000D01*
X-160772Y-4552168D01*
X-163795Y-4544871D01*
X-168604Y-4538604D01*
X-174870Y-4533795D01*
X-182168Y-4530772D01*
X-190000Y-4529741D01*
X-190000Y-4529741D02*
G37*
G36*
X1965000Y-4432813D02*
X1959558Y-4433529D01*
X1949827Y-4437560D01*
X1941472Y-4443972D01*
X1935060Y-4452327D01*
X1931030Y-4462058D01*
X1930313Y-4467500D01*
X1965000Y-4467500D01*
X1965000Y-4432813D01*
X1965000Y-4432813D02*
G37*
G36*
X2065000Y-4377500D02*
X2030313Y-4377500D01*
X2031030Y-4382942D01*
X2035060Y-4392673D01*
X2041472Y-4401028D01*
X2049827Y-4407440D01*
X2059558Y-4411471D01*
X2065000Y-4412187D01*
X2065000Y-4377500D01*
X2065000Y-4377500D02*
G37*
G36*
X1965000Y-4377500D02*
X1930313Y-4377500D01*
X1931030Y-4382942D01*
X1935060Y-4392673D01*
X1941472Y-4401028D01*
X1949827Y-4407440D01*
X1959558Y-4411471D01*
X1965000Y-4412187D01*
X1965000Y-4377500D01*
X1965000Y-4377500D02*
G37*
G36*
X2109687Y-4377500D02*
X2075000Y-4377500D01*
X2075000Y-4412187D01*
X2080442Y-4411471D01*
X2090173Y-4407440D01*
X2098528Y-4401028D01*
X2104940Y-4392673D01*
X2108970Y-4382942D01*
X2109687Y-4377500D01*
X2109687Y-4377500D02*
G37*
G36*
X2009687Y-4377500D02*
X1975000Y-4377500D01*
X1975000Y-4412187D01*
X1980442Y-4411471D01*
X1990173Y-4407440D01*
X1998528Y-4401028D01*
X2004940Y-4392673D01*
X2008970Y-4382942D01*
X2009687Y-4377500D01*
X2009687Y-4377500D02*
G37*
G36*
X1030315Y-4396024D02*
X1015472Y-4396024D01*
X1015472Y-4434488D01*
X1030315Y-4434488D01*
X1030315Y-4396024D01*
X1030315Y-4396024D02*
G37*
G36*
X1975000Y-4432813D02*
X1975000Y-4467500D01*
X2009687Y-4467500D01*
X2008970Y-4462058D01*
X2004940Y-4452327D01*
X1998528Y-4443972D01*
X1990173Y-4437560D01*
X1980442Y-4433529D01*
X1975000Y-4432813D01*
X1975000Y-4432813D02*
G37*
G36*
X2065000Y-4432813D02*
X2059558Y-4433529D01*
X2049827Y-4437560D01*
X2041472Y-4443972D01*
X2035060Y-4452327D01*
X2031030Y-4462058D01*
X2030313Y-4467500D01*
X2065000Y-4467500D01*
X2065000Y-4432813D01*
X2065000Y-4432813D02*
G37*
G36*
X1005472Y-4396024D02*
X990630Y-4396024D01*
X990630Y-4434488D01*
X1005472Y-4434488D01*
X1005472Y-4396024D01*
X1005472Y-4396024D02*
G37*
G36*
X2075000Y-4432813D02*
X2075000Y-4467500D01*
X2109687Y-4467500D01*
X2108970Y-4462058D01*
X2104940Y-4452327D01*
X2098528Y-4443972D01*
X2090173Y-4437560D01*
X2080442Y-4433529D01*
X2075000Y-4432813D01*
X2075000Y-4432813D02*
G37*
G36*
X70000Y-3137198D02*
X60863Y-3138401D01*
X52349Y-3141928D01*
X45038Y-3147538D01*
X39428Y-3154849D01*
X35901Y-3163363D01*
X34698Y-3172500D01*
X35901Y-3181637D01*
X39428Y-3190151D01*
X45038Y-3197462D01*
X52349Y-3203072D01*
X60863Y-3206599D01*
X70000Y-3207802D01*
X79137Y-3206599D01*
X87651Y-3203072D01*
X94962Y-3197462D01*
X100572Y-3190151D01*
X104099Y-3181637D01*
X105302Y-3172500D01*
X104099Y-3163363D01*
X100572Y-3154849D01*
X94962Y-3147538D01*
X87651Y-3141928D01*
X79137Y-3138401D01*
X70000Y-3137198D01*
X70000Y-3137198D02*
G37*
G36*
X170000Y-3237198D02*
X160863Y-3238401D01*
X152349Y-3241928D01*
X145038Y-3247538D01*
X139428Y-3254849D01*
X135901Y-3263363D01*
X134698Y-3272500D01*
X135901Y-3281637D01*
X139428Y-3290151D01*
X145038Y-3297462D01*
X152349Y-3303072D01*
X160863Y-3306599D01*
X170000Y-3307802D01*
X179137Y-3306599D01*
X187651Y-3303072D01*
X194962Y-3297462D01*
X200572Y-3290151D01*
X204099Y-3281637D01*
X205302Y-3272500D01*
X204099Y-3263363D01*
X200572Y-3254849D01*
X194962Y-3247538D01*
X187651Y-3241928D01*
X179137Y-3238401D01*
X170000Y-3237198D01*
X170000Y-3237198D02*
G37*
G36*
X2070000Y-3137198D02*
X2060863Y-3138401D01*
X2052349Y-3141928D01*
X2045038Y-3147538D01*
X2039428Y-3154849D01*
X2035901Y-3163363D01*
X2034698Y-3172500D01*
X2035901Y-3181637D01*
X2039428Y-3190151D01*
X2045038Y-3197462D01*
X2052349Y-3203072D01*
X2060863Y-3206599D01*
X2070000Y-3207802D01*
X2079137Y-3206599D01*
X2087651Y-3203072D01*
X2094962Y-3197462D01*
X2100572Y-3190151D01*
X2104099Y-3181637D01*
X2105302Y-3172500D01*
X2104099Y-3163363D01*
X2100572Y-3154849D01*
X2094962Y-3147538D01*
X2087651Y-3141928D01*
X2079137Y-3138401D01*
X2070000Y-3137198D01*
X2070000Y-3137198D02*
G37*
G36*
X170000Y-3137198D02*
X160863Y-3138401D01*
X152349Y-3141928D01*
X145038Y-3147538D01*
X139428Y-3154849D01*
X135901Y-3163363D01*
X134698Y-3172500D01*
X135901Y-3181637D01*
X139428Y-3190151D01*
X145038Y-3197462D01*
X152349Y-3203072D01*
X160863Y-3206599D01*
X170000Y-3207802D01*
X179137Y-3206599D01*
X187651Y-3203072D01*
X194962Y-3197462D01*
X200572Y-3190151D01*
X204099Y-3181637D01*
X205302Y-3172500D01*
X204099Y-3163363D01*
X200572Y-3154849D01*
X194962Y-3147538D01*
X187651Y-3141928D01*
X179137Y-3138401D01*
X170000Y-3137198D01*
X170000Y-3137198D02*
G37*
G36*
X70000Y-3237198D02*
X60863Y-3238401D01*
X52349Y-3241928D01*
X45038Y-3247538D01*
X39428Y-3254849D01*
X35901Y-3263363D01*
X34698Y-3272500D01*
X35901Y-3281637D01*
X39428Y-3290151D01*
X45038Y-3297462D01*
X52349Y-3303072D01*
X60863Y-3306599D01*
X70000Y-3307802D01*
X79137Y-3306599D01*
X87651Y-3303072D01*
X94962Y-3297462D01*
X100572Y-3290151D01*
X104099Y-3281637D01*
X105302Y-3272500D01*
X104099Y-3263363D01*
X100572Y-3254849D01*
X94962Y-3247538D01*
X87651Y-3241928D01*
X79137Y-3238401D01*
X70000Y-3237198D01*
X70000Y-3237198D02*
G37*
G36*
X1518149Y-3355369D02*
X1504444Y-3357174D01*
X1491672Y-3362464D01*
X1480706Y-3370879D01*
X1472290Y-3381846D01*
X1467000Y-3394617D01*
X1465196Y-3408322D01*
X1467000Y-3422028D01*
X1472290Y-3434799D01*
X1480706Y-3445766D01*
X1491672Y-3454181D01*
X1504444Y-3459471D01*
X1518149Y-3461275D01*
X1531854Y-3459471D01*
X1544625Y-3454181D01*
X1555592Y-3445766D01*
X1564007Y-3434799D01*
X1569298Y-3422028D01*
X1571102Y-3408322D01*
X1569298Y-3394617D01*
X1564007Y-3381846D01*
X1555592Y-3370879D01*
X1544625Y-3362464D01*
X1531854Y-3357174D01*
X1518149Y-3355369D01*
X1518149Y-3355369D02*
G37*
G36*
X468149Y-3355369D02*
X454444Y-3357174D01*
X441672Y-3362464D01*
X430705Y-3370879D01*
X422290Y-3381846D01*
X417000Y-3394617D01*
X415196Y-3408322D01*
X417000Y-3422028D01*
X422290Y-3434799D01*
X430705Y-3445766D01*
X441672Y-3454181D01*
X454444Y-3459471D01*
X468149Y-3461275D01*
X481854Y-3459471D01*
X494625Y-3454181D01*
X505592Y-3445766D01*
X514008Y-3434799D01*
X519298Y-3422028D01*
X521102Y-3408322D01*
X519298Y-3394617D01*
X514008Y-3381846D01*
X505592Y-3370879D01*
X494625Y-3362464D01*
X481854Y-3357174D01*
X468149Y-3355369D01*
X468149Y-3355369D02*
G37*
G36*
X2070000Y-3337198D02*
X2060863Y-3338401D01*
X2052349Y-3341928D01*
X2045038Y-3347538D01*
X2039428Y-3354849D01*
X2035901Y-3363363D01*
X2034698Y-3372500D01*
X2035901Y-3381637D01*
X2039428Y-3390151D01*
X2045038Y-3397462D01*
X2052349Y-3403072D01*
X2060863Y-3406599D01*
X2070000Y-3407802D01*
X2079137Y-3406599D01*
X2087651Y-3403072D01*
X2094962Y-3397462D01*
X2100572Y-3390151D01*
X2104099Y-3381637D01*
X2105302Y-3372500D01*
X2104099Y-3363363D01*
X2100572Y-3354849D01*
X2094962Y-3347538D01*
X2087651Y-3341928D01*
X2079137Y-3338401D01*
X2070000Y-3337198D01*
X2070000Y-3337198D02*
G37*
G36*
X1970000Y-3337198D02*
X1960863Y-3338401D01*
X1952349Y-3341928D01*
X1945038Y-3347538D01*
X1939428Y-3354849D01*
X1935901Y-3363363D01*
X1934698Y-3372500D01*
X1935901Y-3381637D01*
X1939428Y-3390151D01*
X1945038Y-3397462D01*
X1952349Y-3403072D01*
X1960863Y-3406599D01*
X1970000Y-3407802D01*
X1979137Y-3406599D01*
X1987651Y-3403072D01*
X1994962Y-3397462D01*
X2000572Y-3390151D01*
X2004099Y-3381637D01*
X2005302Y-3372500D01*
X2004099Y-3363363D01*
X2000572Y-3354849D01*
X1994962Y-3347538D01*
X1987651Y-3341928D01*
X1979137Y-3338401D01*
X1970000Y-3337198D01*
X1970000Y-3337198D02*
G37*
G36*
X70000Y-3037198D02*
X60863Y-3038401D01*
X52349Y-3041928D01*
X45038Y-3047538D01*
X39428Y-3054849D01*
X35901Y-3063363D01*
X34698Y-3072500D01*
X35901Y-3081637D01*
X39428Y-3090151D01*
X45038Y-3097462D01*
X52349Y-3103072D01*
X60863Y-3106599D01*
X70000Y-3107802D01*
X79137Y-3106599D01*
X87651Y-3103072D01*
X94962Y-3097462D01*
X100572Y-3090151D01*
X104099Y-3081637D01*
X105302Y-3072500D01*
X104099Y-3063363D01*
X100572Y-3054849D01*
X94962Y-3047538D01*
X87651Y-3041928D01*
X79137Y-3038401D01*
X70000Y-3037198D01*
X70000Y-3037198D02*
G37*
G36*
X70000Y-2837198D02*
X60863Y-2838401D01*
X52349Y-2841928D01*
X45038Y-2847538D01*
X39428Y-2854849D01*
X35901Y-2863363D01*
X34698Y-2872500D01*
X35901Y-2881637D01*
X39428Y-2890151D01*
X45038Y-2897462D01*
X52349Y-2903072D01*
X60863Y-2906599D01*
X70000Y-2907802D01*
X79137Y-2906599D01*
X87651Y-2903072D01*
X94962Y-2897462D01*
X100572Y-2890151D01*
X104099Y-2881637D01*
X105302Y-2872500D01*
X104099Y-2863363D01*
X100572Y-2854849D01*
X94962Y-2847538D01*
X87651Y-2841928D01*
X79137Y-2838401D01*
X70000Y-2837198D01*
X70000Y-2837198D02*
G37*
G36*
X1561850Y-2989413D02*
X1539291Y-2989413D01*
X1539291Y-3000630D01*
X1577073Y-3000630D01*
X1576833Y-2999424D01*
X1573318Y-2994163D01*
X1568056Y-2990647D01*
X1561850Y-2989413D01*
X1561850Y-2989413D02*
G37*
G36*
X1970000Y-2837198D02*
X1960863Y-2838401D01*
X1952349Y-2841928D01*
X1945038Y-2847538D01*
X1939428Y-2854849D01*
X1935901Y-2863363D01*
X1934698Y-2872500D01*
X1935901Y-2881637D01*
X1939428Y-2890151D01*
X1945038Y-2897462D01*
X1952349Y-2903072D01*
X1960863Y-2906599D01*
X1970000Y-2907802D01*
X1979137Y-2906599D01*
X1987651Y-2903072D01*
X1994962Y-2897462D01*
X2000572Y-2890151D01*
X2004099Y-2881637D01*
X2005302Y-2872500D01*
X2004099Y-2863363D01*
X2000572Y-2854849D01*
X1994962Y-2847538D01*
X1987651Y-2841928D01*
X1979137Y-2838401D01*
X1970000Y-2837198D01*
X1970000Y-2837198D02*
G37*
G36*
X170000Y-2837198D02*
X160863Y-2838401D01*
X152349Y-2841928D01*
X145038Y-2847538D01*
X139428Y-2854849D01*
X135901Y-2863363D01*
X134698Y-2872500D01*
X135901Y-2881637D01*
X139428Y-2890151D01*
X145038Y-2897462D01*
X152349Y-2903072D01*
X160863Y-2906599D01*
X170000Y-2907802D01*
X179137Y-2906599D01*
X187651Y-2903072D01*
X194962Y-2897462D01*
X200572Y-2890151D01*
X204099Y-2881637D01*
X205302Y-2872500D01*
X204099Y-2863363D01*
X200572Y-2854849D01*
X194962Y-2847538D01*
X187651Y-2841928D01*
X179137Y-2838401D01*
X170000Y-2837198D01*
X170000Y-2837198D02*
G37*
G36*
X1529291Y-2989413D02*
X1506732Y-2989413D01*
X1500526Y-2990647D01*
X1495265Y-2994163D01*
X1491750Y-2999424D01*
X1491510Y-3000630D01*
X1529291Y-3000630D01*
X1529291Y-2989413D01*
X1529291Y-2989413D02*
G37*
G36*
X70000Y-2937198D02*
X60863Y-2938401D01*
X52349Y-2941928D01*
X45038Y-2947538D01*
X39428Y-2954849D01*
X35901Y-2963363D01*
X34698Y-2972500D01*
X35901Y-2981637D01*
X39428Y-2990151D01*
X45038Y-2997462D01*
X52349Y-3003072D01*
X60863Y-3006599D01*
X70000Y-3007802D01*
X79137Y-3006599D01*
X87651Y-3003072D01*
X94962Y-2997462D01*
X100572Y-2990151D01*
X104099Y-2981637D01*
X105302Y-2972500D01*
X104099Y-2963363D01*
X100572Y-2954849D01*
X94962Y-2947538D01*
X87651Y-2941928D01*
X79137Y-2938401D01*
X70000Y-2937198D01*
X70000Y-2937198D02*
G37*
G36*
X170000Y-3037198D02*
X160863Y-3038401D01*
X152349Y-3041928D01*
X145038Y-3047538D01*
X139428Y-3054849D01*
X135901Y-3063363D01*
X134698Y-3072500D01*
X135901Y-3081637D01*
X139428Y-3090151D01*
X145038Y-3097462D01*
X152349Y-3103072D01*
X160863Y-3106599D01*
X170000Y-3107802D01*
X179137Y-3106599D01*
X187651Y-3103072D01*
X194962Y-3097462D01*
X200572Y-3090151D01*
X204099Y-3081637D01*
X205302Y-3072500D01*
X204099Y-3063363D01*
X200572Y-3054849D01*
X194962Y-3047538D01*
X187651Y-3041928D01*
X179137Y-3038401D01*
X170000Y-3037198D01*
X170000Y-3037198D02*
G37*
G36*
X2070000Y-2937198D02*
X2060863Y-2938401D01*
X2052349Y-2941928D01*
X2045038Y-2947538D01*
X2039428Y-2954849D01*
X2035901Y-2963363D01*
X2034698Y-2972500D01*
X2035901Y-2981637D01*
X2039428Y-2990151D01*
X2045038Y-2997462D01*
X2052349Y-3003072D01*
X2060863Y-3006599D01*
X2070000Y-3007802D01*
X2079137Y-3006599D01*
X2087651Y-3003072D01*
X2094962Y-2997462D01*
X2100572Y-2990151D01*
X2104099Y-2981637D01*
X2105302Y-2972500D01*
X2104099Y-2963363D01*
X2100572Y-2954849D01*
X2094962Y-2947538D01*
X2087651Y-2941928D01*
X2079137Y-2938401D01*
X2070000Y-2937198D01*
X2070000Y-2937198D02*
G37*
G36*
X170000Y-2937198D02*
X160863Y-2938401D01*
X152349Y-2941928D01*
X145038Y-2947538D01*
X139428Y-2954849D01*
X135901Y-2963363D01*
X134698Y-2972500D01*
X135901Y-2981637D01*
X139428Y-2990151D01*
X145038Y-2997462D01*
X152349Y-3003072D01*
X160863Y-3006599D01*
X170000Y-3007802D01*
X179137Y-3006599D01*
X187651Y-3003072D01*
X194962Y-2997462D01*
X200572Y-2990151D01*
X204099Y-2981637D01*
X205302Y-2972500D01*
X204099Y-2963363D01*
X200572Y-2954849D01*
X194962Y-2947538D01*
X187651Y-2941928D01*
X179137Y-2938401D01*
X170000Y-2937198D01*
X170000Y-2937198D02*
G37*
G36*
X2070000Y-3437198D02*
X2060863Y-3438401D01*
X2052349Y-3441928D01*
X2045038Y-3447538D01*
X2039428Y-3454849D01*
X2035901Y-3463363D01*
X2034698Y-3472500D01*
X2035901Y-3481637D01*
X2039428Y-3490151D01*
X2045038Y-3497462D01*
X2052349Y-3503072D01*
X2060863Y-3506599D01*
X2070000Y-3507802D01*
X2079137Y-3506599D01*
X2087651Y-3503072D01*
X2094962Y-3497462D01*
X2100572Y-3490151D01*
X2104099Y-3481637D01*
X2105302Y-3472500D01*
X2104099Y-3463363D01*
X2100572Y-3454849D01*
X2094962Y-3447538D01*
X2087651Y-3441928D01*
X2079137Y-3438401D01*
X2070000Y-3437198D01*
X2070000Y-3437198D02*
G37*
G36*
X1970000Y-3737198D02*
X1960863Y-3738401D01*
X1952349Y-3741928D01*
X1945038Y-3747538D01*
X1939428Y-3754849D01*
X1935901Y-3763363D01*
X1934698Y-3772500D01*
X1935901Y-3781637D01*
X1939428Y-3790151D01*
X1945038Y-3797462D01*
X1952349Y-3803072D01*
X1960863Y-3806599D01*
X1970000Y-3807802D01*
X1979137Y-3806599D01*
X1987651Y-3803072D01*
X1994962Y-3797462D01*
X2000572Y-3790151D01*
X2004099Y-3781637D01*
X2005302Y-3772500D01*
X2004099Y-3763363D01*
X2000572Y-3754849D01*
X1994962Y-3747538D01*
X1987651Y-3741928D01*
X1979137Y-3738401D01*
X1970000Y-3737198D01*
X1970000Y-3737198D02*
G37*
G36*
X170000Y-3737198D02*
X160863Y-3738401D01*
X152349Y-3741928D01*
X145038Y-3747538D01*
X139428Y-3754849D01*
X135901Y-3763363D01*
X134698Y-3772500D01*
X135901Y-3781637D01*
X139428Y-3790151D01*
X145038Y-3797462D01*
X152349Y-3803072D01*
X160863Y-3806599D01*
X170000Y-3807802D01*
X179137Y-3806599D01*
X187651Y-3803072D01*
X194962Y-3797462D01*
X200572Y-3790151D01*
X204099Y-3781637D01*
X205302Y-3772500D01*
X204099Y-3763363D01*
X200572Y-3754849D01*
X194962Y-3747538D01*
X187651Y-3741928D01*
X179137Y-3738401D01*
X170000Y-3737198D01*
X170000Y-3737198D02*
G37*
G36*
X2182386Y-3724969D02*
X2174554Y-3726000D01*
X2167256Y-3729023D01*
X2160990Y-3733832D01*
X2156181Y-3740099D01*
X2153158Y-3747397D01*
X2152127Y-3755228D01*
X2153158Y-3763060D01*
X2156181Y-3770358D01*
X2160990Y-3776625D01*
X2167256Y-3781433D01*
X2174554Y-3784456D01*
X2182386Y-3785487D01*
X2190217Y-3784456D01*
X2197515Y-3781433D01*
X2203782Y-3776625D01*
X2208591Y-3770358D01*
X2211614Y-3763060D01*
X2212645Y-3755228D01*
X2211614Y-3747397D01*
X2208591Y-3740099D01*
X2203782Y-3733832D01*
X2197515Y-3729023D01*
X2190217Y-3726000D01*
X2182386Y-3724969D01*
X2182386Y-3724969D02*
G37*
G36*
X2070000Y-3737198D02*
X2060863Y-3738401D01*
X2052349Y-3741928D01*
X2045038Y-3747538D01*
X2039428Y-3754849D01*
X2035901Y-3763363D01*
X2034698Y-3772500D01*
X2035901Y-3781637D01*
X2039428Y-3790151D01*
X2045038Y-3797462D01*
X2052349Y-3803072D01*
X2060863Y-3806599D01*
X2070000Y-3807802D01*
X2079137Y-3806599D01*
X2087651Y-3803072D01*
X2094962Y-3797462D01*
X2100572Y-3790151D01*
X2104099Y-3781637D01*
X2105302Y-3772500D01*
X2104099Y-3763363D01*
X2100572Y-3754849D01*
X2094962Y-3747538D01*
X2087651Y-3741928D01*
X2079137Y-3738401D01*
X2070000Y-3737198D01*
X2070000Y-3737198D02*
G37*
G36*
X1064276Y-3858128D02*
X1056948Y-3859586D01*
X1050736Y-3863736D01*
X1046586Y-3869948D01*
X1045128Y-3877276D01*
X1046586Y-3884603D01*
X1050736Y-3890815D01*
X1054080Y-3893049D01*
X1054080Y-3901105D01*
X1050718Y-3903945D01*
X1045541Y-3903034D01*
X1044305Y-3901183D01*
X1040372Y-3898556D01*
X1035733Y-3897633D01*
X976678Y-3897633D01*
X972039Y-3898556D01*
X968106Y-3901183D01*
X965478Y-3905116D01*
X965125Y-3906889D01*
X858397Y-4013617D01*
X856187Y-4016925D01*
X855411Y-4020826D01*
X855411Y-4048362D01*
X821027Y-4082745D01*
X814948Y-4081753D01*
X813989Y-4080317D01*
X811826Y-4078872D01*
X811808Y-4078829D01*
X811808Y-4073360D01*
X811826Y-4073316D01*
X813989Y-4071871D01*
X816617Y-4067939D01*
X817539Y-4063299D01*
X816617Y-4058660D01*
X813989Y-4054727D01*
X811826Y-4053282D01*
X811808Y-4053239D01*
X811808Y-4047770D01*
X811826Y-4047727D01*
X813989Y-4046281D01*
X816617Y-4042349D01*
X817539Y-4037709D01*
X816617Y-4033070D01*
X813989Y-4029137D01*
X811824Y-4027691D01*
X811806Y-4027646D01*
X811806Y-4022181D01*
X811824Y-4022135D01*
X813989Y-4020689D01*
X816617Y-4016756D01*
X817539Y-4012117D01*
X816617Y-4007478D01*
X813989Y-4003545D01*
X811826Y-4002100D01*
X811808Y-4002057D01*
X811808Y-3996588D01*
X811826Y-3996544D01*
X813989Y-3995099D01*
X816617Y-3991166D01*
X817539Y-3986527D01*
X816617Y-3981888D01*
X813989Y-3977956D01*
X813989Y-3975523D01*
X817594Y-3973114D01*
X821327Y-3967527D01*
X821643Y-3965938D01*
X775889Y-3965938D01*
X730136Y-3965938D01*
X730452Y-3967527D01*
X730984Y-3968324D01*
X728615Y-3973777D01*
X727479Y-3973963D01*
X727210Y-3973831D01*
X721209Y-3969822D01*
X713882Y-3968364D01*
X706554Y-3969822D01*
X700343Y-3973972D01*
X696192Y-3980184D01*
X694735Y-3987512D01*
X696192Y-3994839D01*
X700343Y-4001051D01*
X706554Y-4005202D01*
X713882Y-4006659D01*
X721209Y-4005202D01*
X727421Y-4001051D01*
X729984Y-3997215D01*
X738263Y-3997215D01*
X739780Y-4002215D01*
X737790Y-4003545D01*
X735162Y-4007478D01*
X734239Y-4012117D01*
X735162Y-4016756D01*
X737790Y-4020689D01*
X739954Y-4022135D01*
X739972Y-4022181D01*
X739972Y-4027646D01*
X739954Y-4027691D01*
X737790Y-4029137D01*
X735162Y-4033070D01*
X734239Y-4037709D01*
X735162Y-4042349D01*
X737790Y-4046281D01*
X739953Y-4047727D01*
X739970Y-4047770D01*
X739970Y-4053239D01*
X739953Y-4053282D01*
X737790Y-4054727D01*
X735162Y-4058660D01*
X734239Y-4063299D01*
X735162Y-4067939D01*
X737790Y-4071871D01*
X739953Y-4073316D01*
X739970Y-4073360D01*
X739970Y-4078829D01*
X739953Y-4078872D01*
X737790Y-4080317D01*
X735162Y-4084250D01*
X734239Y-4088889D01*
X735162Y-4093528D01*
X737790Y-4097461D01*
X741723Y-4100089D01*
X746362Y-4101012D01*
X796228Y-4101012D01*
X798141Y-4105631D01*
X741468Y-4162304D01*
X203660Y-4162304D01*
X200572Y-4154849D01*
X194962Y-4147538D01*
X187651Y-4141928D01*
X179137Y-4138401D01*
X170000Y-4137198D01*
X160863Y-4138401D01*
X156128Y-4140362D01*
X153296Y-4136123D01*
X166723Y-4122696D01*
X373772Y-4122696D01*
X377673Y-4121920D01*
X380981Y-4119710D01*
X555148Y-3945543D01*
X730685Y-3945543D01*
X732994Y-3950543D01*
X730452Y-3954347D01*
X730136Y-3955938D01*
X775889Y-3955938D01*
X821643Y-3955938D01*
X821327Y-3954347D01*
X817594Y-3948761D01*
X813989Y-3946352D01*
X813989Y-3943919D01*
X816617Y-3939986D01*
X817539Y-3935347D01*
X816617Y-3930708D01*
X813989Y-3926775D01*
X811824Y-3925329D01*
X811806Y-3925284D01*
X811806Y-3919819D01*
X811824Y-3919773D01*
X813989Y-3918327D01*
X816617Y-3914394D01*
X817539Y-3909755D01*
X816617Y-3905116D01*
X813989Y-3901183D01*
X810056Y-3898556D01*
X805417Y-3897633D01*
X746362Y-3897633D01*
X741723Y-3898556D01*
X740220Y-3899559D01*
X513720Y-3899559D01*
X509818Y-3900336D01*
X506511Y-3902546D01*
X399252Y-4009804D01*
X184465Y-4009804D01*
X183470Y-4004804D01*
X187651Y-4003072D01*
X194962Y-3997462D01*
X200572Y-3990151D01*
X204099Y-3981637D01*
X205302Y-3972500D01*
X204099Y-3963363D01*
X200572Y-3954849D01*
X194962Y-3947538D01*
X187651Y-3941928D01*
X179137Y-3938401D01*
X170000Y-3937198D01*
X160863Y-3938401D01*
X152349Y-3941928D01*
X145038Y-3947538D01*
X139428Y-3954849D01*
X135901Y-3963363D01*
X134698Y-3972500D01*
X135901Y-3981637D01*
X139428Y-3990151D01*
X145038Y-3997462D01*
X152349Y-4003072D01*
X156530Y-4004804D01*
X155535Y-4009804D01*
X150000Y-4009804D01*
X146098Y-4010580D01*
X142790Y-4012790D01*
X112790Y-4042790D01*
X110580Y-4046098D01*
X109804Y-4050000D01*
X109804Y-4068390D01*
X104804Y-4068718D01*
X104099Y-4063363D01*
X100572Y-4054849D01*
X94962Y-4047538D01*
X87651Y-4041928D01*
X79137Y-4038401D01*
X70000Y-4037198D01*
X60863Y-4038401D01*
X52349Y-4041928D01*
X45038Y-4047538D01*
X39428Y-4054849D01*
X35901Y-4063363D01*
X34698Y-4072500D01*
X35901Y-4081637D01*
X39428Y-4090151D01*
X45038Y-4097462D01*
X52349Y-4103072D01*
X60863Y-4106599D01*
X70000Y-4107802D01*
X79137Y-4106599D01*
X87651Y-4103072D01*
X94962Y-4097462D01*
X100572Y-4090151D01*
X104099Y-4081637D01*
X104804Y-4076282D01*
X109804Y-4076610D01*
X109804Y-4118277D01*
X86592Y-4141489D01*
X79137Y-4138401D01*
X70000Y-4137198D01*
X60863Y-4138401D01*
X52349Y-4141928D01*
X45038Y-4147538D01*
X39428Y-4154849D01*
X35901Y-4163363D01*
X34698Y-4172500D01*
X35901Y-4181637D01*
X39428Y-4190151D01*
X45038Y-4197462D01*
X52349Y-4203072D01*
X60863Y-4206599D01*
X70000Y-4207802D01*
X79137Y-4206599D01*
X87651Y-4203072D01*
X94962Y-4197462D01*
X100572Y-4190151D01*
X104099Y-4181637D01*
X105302Y-4172500D01*
X104099Y-4163363D01*
X101011Y-4155908D01*
X115398Y-4141521D01*
X120006Y-4143984D01*
X119804Y-4145000D01*
X119804Y-4232500D01*
X120580Y-4236402D01*
X122790Y-4239710D01*
X138989Y-4255908D01*
X135901Y-4263363D01*
X134698Y-4272500D01*
X135901Y-4281637D01*
X139428Y-4290151D01*
X145038Y-4297462D01*
X152349Y-4303072D01*
X160863Y-4306599D01*
X170000Y-4307802D01*
X179137Y-4306599D01*
X187651Y-4303072D01*
X194962Y-4297462D01*
X200572Y-4290151D01*
X204099Y-4281637D01*
X205302Y-4272500D01*
X204099Y-4263363D01*
X200572Y-4254849D01*
X194962Y-4247538D01*
X187651Y-4241928D01*
X179137Y-4238401D01*
X170000Y-4237198D01*
X160863Y-4238401D01*
X153408Y-4241489D01*
X140196Y-4228277D01*
X140196Y-4198930D01*
X143379Y-4197850D01*
X145196Y-4197584D01*
X152349Y-4203072D01*
X160863Y-4206599D01*
X170000Y-4207802D01*
X179137Y-4206599D01*
X187651Y-4203072D01*
X194962Y-4197462D01*
X200572Y-4190151D01*
X203660Y-4182696D01*
X745692Y-4182696D01*
X749594Y-4181920D01*
X752901Y-4179710D01*
X872816Y-4059795D01*
X875027Y-4056487D01*
X875803Y-4052585D01*
X875803Y-4025050D01*
X960784Y-3940068D01*
X966463Y-3941461D01*
X968106Y-3943919D01*
X968106Y-3946352D01*
X964501Y-3948761D01*
X960768Y-3954347D01*
X960452Y-3955938D01*
X1006205Y-3955938D01*
X1051959Y-3955938D01*
X1051643Y-3954347D01*
X1047910Y-3948761D01*
X1044305Y-3946352D01*
X1044305Y-3943919D01*
X1046933Y-3939986D01*
X1047285Y-3938214D01*
X1071485Y-3914014D01*
X1073695Y-3910706D01*
X1074472Y-3906805D01*
X1074472Y-3893049D01*
X1077815Y-3890815D01*
X1081966Y-3884603D01*
X1083423Y-3877276D01*
X1081966Y-3869948D01*
X1077815Y-3863736D01*
X1071603Y-3859586D01*
X1064276Y-3858128D01*
X1064276Y-3858128D02*
G37*
G36*
X170000Y-3837198D02*
X160863Y-3838401D01*
X152349Y-3841928D01*
X145038Y-3847538D01*
X139428Y-3854849D01*
X135901Y-3863363D01*
X134698Y-3872500D01*
X135901Y-3881637D01*
X139428Y-3890151D01*
X145038Y-3897462D01*
X152349Y-3903072D01*
X160863Y-3906599D01*
X170000Y-3907802D01*
X179137Y-3906599D01*
X187651Y-3903072D01*
X194962Y-3897462D01*
X200572Y-3890151D01*
X204099Y-3881637D01*
X205302Y-3872500D01*
X204099Y-3863363D01*
X200572Y-3854849D01*
X194962Y-3847538D01*
X187651Y-3841928D01*
X179137Y-3838401D01*
X170000Y-3837198D01*
X170000Y-3837198D02*
G37*
G36*
X70000Y-3837198D02*
X60863Y-3838401D01*
X52349Y-3841928D01*
X45038Y-3847538D01*
X39428Y-3854849D01*
X35901Y-3863363D01*
X34698Y-3872500D01*
X35901Y-3881637D01*
X39428Y-3890151D01*
X45038Y-3897462D01*
X52349Y-3903072D01*
X60863Y-3906599D01*
X70000Y-3907802D01*
X79137Y-3906599D01*
X87651Y-3903072D01*
X94962Y-3897462D01*
X100572Y-3890151D01*
X104099Y-3881637D01*
X105302Y-3872500D01*
X104099Y-3863363D01*
X100572Y-3854849D01*
X94962Y-3847538D01*
X87651Y-3841928D01*
X79137Y-3838401D01*
X70000Y-3837198D01*
X70000Y-3837198D02*
G37*
G36*
X2070000Y-3837198D02*
X2060863Y-3838401D01*
X2052349Y-3841928D01*
X2045038Y-3847538D01*
X2039428Y-3854849D01*
X2035901Y-3863363D01*
X2034698Y-3872500D01*
X2035901Y-3881637D01*
X2039428Y-3890151D01*
X2045038Y-3897462D01*
X2052349Y-3903072D01*
X2060863Y-3906599D01*
X2070000Y-3907802D01*
X2079137Y-3906599D01*
X2087651Y-3903072D01*
X2094962Y-3897462D01*
X2100572Y-3890151D01*
X2104099Y-3881637D01*
X2105302Y-3872500D01*
X2104099Y-3863363D01*
X2100572Y-3854849D01*
X2094962Y-3847538D01*
X2087651Y-3841928D01*
X2079137Y-3838401D01*
X2070000Y-3837198D01*
X2070000Y-3837198D02*
G37*
G36*
X1970000Y-3837198D02*
X1960863Y-3838401D01*
X1952349Y-3841928D01*
X1945038Y-3847538D01*
X1939428Y-3854849D01*
X1935901Y-3863363D01*
X1934698Y-3872500D01*
X1935901Y-3881637D01*
X1939428Y-3890151D01*
X1945038Y-3897462D01*
X1952349Y-3903072D01*
X1960863Y-3906599D01*
X1970000Y-3907802D01*
X1979137Y-3906599D01*
X1987651Y-3903072D01*
X1994962Y-3897462D01*
X2000572Y-3890151D01*
X2004099Y-3881637D01*
X2005302Y-3872500D01*
X2004099Y-3863363D01*
X2000572Y-3854849D01*
X1994962Y-3847538D01*
X1987651Y-3841928D01*
X1979137Y-3838401D01*
X1970000Y-3837198D01*
X1970000Y-3837198D02*
G37*
G36*
X70000Y-3637198D02*
X60863Y-3638401D01*
X52349Y-3641928D01*
X45038Y-3647538D01*
X39428Y-3654849D01*
X35901Y-3663363D01*
X34698Y-3672500D01*
X35901Y-3681637D01*
X39428Y-3690151D01*
X45038Y-3697462D01*
X52349Y-3703072D01*
X60863Y-3706599D01*
X70000Y-3707802D01*
X79137Y-3706599D01*
X87651Y-3703072D01*
X94962Y-3697462D01*
X100572Y-3690151D01*
X104099Y-3681637D01*
X105302Y-3672500D01*
X104099Y-3663363D01*
X100572Y-3654849D01*
X94962Y-3647538D01*
X87651Y-3641928D01*
X79137Y-3638401D01*
X70000Y-3637198D01*
X70000Y-3637198D02*
G37*
G36*
X70000Y-3437198D02*
X60863Y-3438401D01*
X52349Y-3441928D01*
X45038Y-3447538D01*
X39428Y-3454849D01*
X35901Y-3463363D01*
X34698Y-3472500D01*
X35901Y-3481637D01*
X39428Y-3490151D01*
X45038Y-3497462D01*
X52349Y-3503072D01*
X60863Y-3506599D01*
X70000Y-3507802D01*
X79137Y-3506599D01*
X87651Y-3503072D01*
X94962Y-3497462D01*
X100572Y-3490151D01*
X104099Y-3481637D01*
X105302Y-3472500D01*
X104099Y-3463363D01*
X100572Y-3454849D01*
X94962Y-3447538D01*
X87651Y-3441928D01*
X79137Y-3438401D01*
X70000Y-3437198D01*
X70000Y-3437198D02*
G37*
G36*
X2070000Y-3537198D02*
X2060863Y-3538401D01*
X2052349Y-3541928D01*
X2045038Y-3547538D01*
X2039428Y-3554849D01*
X2035901Y-3563363D01*
X2034698Y-3572500D01*
X2035901Y-3581637D01*
X2039428Y-3590151D01*
X2045038Y-3597462D01*
X2052349Y-3603072D01*
X2060863Y-3606599D01*
X2070000Y-3607802D01*
X2079137Y-3606599D01*
X2087651Y-3603072D01*
X2094962Y-3597462D01*
X2100572Y-3590151D01*
X2104099Y-3581637D01*
X2105302Y-3572500D01*
X2104099Y-3563363D01*
X2100572Y-3554849D01*
X2094962Y-3547538D01*
X2087651Y-3541928D01*
X2079137Y-3538401D01*
X2070000Y-3537198D01*
X2070000Y-3537198D02*
G37*
G36*
X1970000Y-3437198D02*
X1960863Y-3438401D01*
X1952349Y-3441928D01*
X1945038Y-3447538D01*
X1939428Y-3454849D01*
X1935901Y-3463363D01*
X1934698Y-3472500D01*
X1935901Y-3481637D01*
X1939428Y-3490151D01*
X1945038Y-3497462D01*
X1952349Y-3503072D01*
X1960863Y-3506599D01*
X1970000Y-3507802D01*
X1979137Y-3506599D01*
X1987651Y-3503072D01*
X1994962Y-3497462D01*
X2000572Y-3490151D01*
X2004099Y-3481637D01*
X2005302Y-3472500D01*
X2004099Y-3463363D01*
X2000572Y-3454849D01*
X1994962Y-3447538D01*
X1987651Y-3441928D01*
X1979137Y-3438401D01*
X1970000Y-3437198D01*
X1970000Y-3437198D02*
G37*
G36*
X170000Y-3437198D02*
X160863Y-3438401D01*
X152349Y-3441928D01*
X145038Y-3447538D01*
X139428Y-3454849D01*
X135901Y-3463363D01*
X134698Y-3472500D01*
X135901Y-3481637D01*
X139428Y-3490151D01*
X145038Y-3497462D01*
X152349Y-3503072D01*
X160863Y-3506599D01*
X170000Y-3507802D01*
X179137Y-3506599D01*
X187651Y-3503072D01*
X194962Y-3497462D01*
X200572Y-3490151D01*
X204099Y-3481637D01*
X205302Y-3472500D01*
X204099Y-3463363D01*
X200572Y-3454849D01*
X194962Y-3447538D01*
X187651Y-3441928D01*
X179137Y-3438401D01*
X170000Y-3437198D01*
X170000Y-3437198D02*
G37*
G36*
X1970000Y-3537198D02*
X1960863Y-3538401D01*
X1952349Y-3541928D01*
X1945038Y-3547538D01*
X1939428Y-3554849D01*
X1935901Y-3563363D01*
X1934698Y-3572500D01*
X1935901Y-3581637D01*
X1939428Y-3590151D01*
X1945038Y-3597462D01*
X1952349Y-3603072D01*
X1960863Y-3606599D01*
X1970000Y-3607802D01*
X1979137Y-3606599D01*
X1987651Y-3603072D01*
X1994962Y-3597462D01*
X2000572Y-3590151D01*
X2004099Y-3581637D01*
X2005302Y-3572500D01*
X2004099Y-3563363D01*
X2000572Y-3554849D01*
X1994962Y-3547538D01*
X1987651Y-3541928D01*
X1979137Y-3538401D01*
X1970000Y-3537198D01*
X1970000Y-3537198D02*
G37*
G36*
X2070000Y-3637198D02*
X2060863Y-3638401D01*
X2052349Y-3641928D01*
X2045038Y-3647538D01*
X2039428Y-3654849D01*
X2035901Y-3663363D01*
X2034698Y-3672500D01*
X2035901Y-3681637D01*
X2039428Y-3690151D01*
X2045038Y-3697462D01*
X2052349Y-3703072D01*
X2060863Y-3706599D01*
X2070000Y-3707802D01*
X2079137Y-3706599D01*
X2087651Y-3703072D01*
X2094962Y-3697462D01*
X2100572Y-3690151D01*
X2104099Y-3681637D01*
X2105302Y-3672500D01*
X2104099Y-3663363D01*
X2100572Y-3654849D01*
X2094962Y-3647538D01*
X2087651Y-3641928D01*
X2079137Y-3638401D01*
X2070000Y-3637198D01*
X2070000Y-3637198D02*
G37*
G36*
X1970000Y-3637198D02*
X1960863Y-3638401D01*
X1952349Y-3641928D01*
X1945038Y-3647538D01*
X1939428Y-3654849D01*
X1935901Y-3663363D01*
X1934698Y-3672500D01*
X1935901Y-3681637D01*
X1939428Y-3690151D01*
X1945038Y-3697462D01*
X1952349Y-3703072D01*
X1960863Y-3706599D01*
X1970000Y-3707802D01*
X1979137Y-3706599D01*
X1987651Y-3703072D01*
X1994962Y-3697462D01*
X2000572Y-3690151D01*
X2004099Y-3681637D01*
X2005302Y-3672500D01*
X2004099Y-3663363D01*
X2000572Y-3654849D01*
X1994962Y-3647538D01*
X1987651Y-3641928D01*
X1979137Y-3638401D01*
X1970000Y-3637198D01*
X1970000Y-3637198D02*
G37*
G36*
X170000Y-3537198D02*
X160863Y-3538401D01*
X152349Y-3541928D01*
X145038Y-3547538D01*
X139428Y-3554849D01*
X135901Y-3563363D01*
X134698Y-3572500D01*
X135901Y-3581637D01*
X139428Y-3590151D01*
X145038Y-3597462D01*
X152349Y-3603072D01*
X160863Y-3606599D01*
X170000Y-3607802D01*
X179137Y-3606599D01*
X187651Y-3603072D01*
X194962Y-3597462D01*
X200572Y-3590151D01*
X204099Y-3581637D01*
X205302Y-3572500D01*
X204099Y-3563363D01*
X200572Y-3554849D01*
X194962Y-3547538D01*
X187651Y-3541928D01*
X179137Y-3538401D01*
X170000Y-3537198D01*
X170000Y-3537198D02*
G37*
G36*
X70000Y-3537198D02*
X60863Y-3538401D01*
X52349Y-3541928D01*
X45038Y-3547538D01*
X39428Y-3554849D01*
X35901Y-3563363D01*
X34698Y-3572500D01*
X35901Y-3581637D01*
X39428Y-3590151D01*
X45038Y-3597462D01*
X52349Y-3603072D01*
X60863Y-3606599D01*
X70000Y-3607802D01*
X79137Y-3606599D01*
X87651Y-3603072D01*
X94962Y-3597462D01*
X100572Y-3590151D01*
X104099Y-3581637D01*
X105302Y-3572500D01*
X104099Y-3563363D01*
X100572Y-3554849D01*
X94962Y-3547538D01*
X87651Y-3541928D01*
X79137Y-3538401D01*
X70000Y-3537198D01*
X70000Y-3537198D02*
G37*
G36*
X2200000Y184825D02*
X2190986Y183639D01*
X2182587Y180160D01*
X2175375Y174625D01*
X2169840Y167413D01*
X2166361Y159013D01*
X2165175Y150000D01*
X2166361Y140987D01*
X2169840Y132587D01*
X2175375Y125375D01*
X2182587Y119840D01*
X2190986Y116361D01*
X2200000Y115175D01*
X2209014Y116361D01*
X2217413Y119840D01*
X2224625Y125375D01*
X2230160Y132587D01*
X2233639Y140987D01*
X2234825Y150000D01*
X2233639Y159013D01*
X2230160Y167413D01*
X2224625Y174625D01*
X2217413Y180160D01*
X2209014Y183639D01*
X2200000Y184825D01*
X2200000Y184825D02*
G37*
G36*
X2052519Y2323677D02*
X2017519Y2323677D01*
X2017519Y2288676D01*
X2052519Y2288676D01*
X2052519Y2323677D01*
X2052519Y2323677D02*
G37*
G36*
X305000Y2325167D02*
X305000Y2285000D01*
X345167Y2285000D01*
X344264Y2291860D01*
X339686Y2302912D01*
X332403Y2312403D01*
X322913Y2319686D01*
X311860Y2324264D01*
X305000Y2325167D01*
X305000Y2325167D02*
G37*
G36*
X1000000Y2420782D02*
X989445Y2419392D01*
X979609Y2415318D01*
X971163Y2408837D01*
X964682Y2400391D01*
X960608Y2390555D01*
X959218Y2380000D01*
X960608Y2369445D01*
X964682Y2359609D01*
X971163Y2351163D01*
X979609Y2344682D01*
X989445Y2340608D01*
X1000000Y2339218D01*
X1010555Y2340608D01*
X1020391Y2344682D01*
X1020678Y2344902D01*
X1044371Y2321210D01*
X1044371Y2291045D01*
X1039392Y2290555D01*
X1035318Y2300391D01*
X1028837Y2308837D01*
X1020391Y2315318D01*
X1010555Y2319392D01*
X1000000Y2320782D01*
X989445Y2319392D01*
X979609Y2315318D01*
X971163Y2308837D01*
X964682Y2300391D01*
X960608Y2290555D01*
X959218Y2280000D01*
X960608Y2269445D01*
X964682Y2259609D01*
X971163Y2251163D01*
X979609Y2244682D01*
X989445Y2240608D01*
X1000000Y2239218D01*
X1010555Y2240608D01*
X1020391Y2244682D01*
X1028837Y2251163D01*
X1035318Y2259609D01*
X1039392Y2269445D01*
X1044371Y2268955D01*
X1044371Y2175433D01*
X1045147Y2171531D01*
X1047357Y2168224D01*
X1247481Y1968100D01*
X1247481Y-2324704D01*
X1242481Y-2327169D01*
X1238083Y-2323795D01*
X1228468Y-2319812D01*
X1223149Y-2319112D01*
X1223149Y-2358322D01*
X1223149Y-2397533D01*
X1228468Y-2396832D01*
X1238083Y-2392850D01*
X1242481Y-2389475D01*
X1247481Y-2391941D01*
X1247481Y-2934100D01*
X1120944Y-3060637D01*
X1117000Y-3059853D01*
X1109673Y-3061310D01*
X1103461Y-3065461D01*
X1099310Y-3071673D01*
X1097853Y-3079000D01*
X1099310Y-3086327D01*
X1103461Y-3092539D01*
X1109673Y-3096690D01*
X1117000Y-3098147D01*
X1124327Y-3096690D01*
X1130539Y-3092539D01*
X1134690Y-3086327D01*
X1136147Y-3079000D01*
X1135363Y-3075056D01*
X1264886Y-2945533D01*
X1267096Y-2942225D01*
X1267872Y-2938323D01*
X1267872Y1972323D01*
X1267096Y1976225D01*
X1264886Y1979533D01*
X1064763Y2179656D01*
X1064763Y2251726D01*
X1069497Y2253333D01*
X1071163Y2251163D01*
X1079609Y2244682D01*
X1089445Y2240608D01*
X1100000Y2239218D01*
X1110555Y2240608D01*
X1120391Y2244682D01*
X1128837Y2251163D01*
X1135318Y2259609D01*
X1139392Y2269445D01*
X1140782Y2280000D01*
X1139392Y2290555D01*
X1135318Y2300391D01*
X1128837Y2308837D01*
X1120391Y2315318D01*
X1110555Y2319392D01*
X1100000Y2320782D01*
X1089445Y2319392D01*
X1079609Y2315318D01*
X1071163Y2308837D01*
X1069497Y2306667D01*
X1064763Y2308274D01*
X1064763Y2325433D01*
X1063987Y2329335D01*
X1061776Y2332643D01*
X1035098Y2359322D01*
X1035318Y2359609D01*
X1039392Y2369445D01*
X1040782Y2380000D01*
X1039392Y2390555D01*
X1035318Y2400391D01*
X1028837Y2408837D01*
X1020391Y2415318D01*
X1010555Y2419392D01*
X1000000Y2420782D01*
X1000000Y2420782D02*
G37*
G36*
X2097519Y2323677D02*
X2062519Y2323677D01*
X2062519Y2288676D01*
X2097519Y2288676D01*
X2097519Y2323677D01*
X2097519Y2323677D02*
G37*
G36*
X505000Y2325167D02*
X505000Y2285000D01*
X545167Y2285000D01*
X544264Y2291860D01*
X539686Y2302912D01*
X532403Y2312403D01*
X522913Y2319686D01*
X511860Y2324264D01*
X505000Y2325167D01*
X505000Y2325167D02*
G37*
G36*
X1400000Y2320782D02*
X1389445Y2319392D01*
X1379609Y2315318D01*
X1371163Y2308837D01*
X1364682Y2300391D01*
X1360608Y2290555D01*
X1359218Y2280000D01*
X1360608Y2269445D01*
X1364682Y2259609D01*
X1371163Y2251163D01*
X1379609Y2244682D01*
X1389445Y2240608D01*
X1400000Y2239218D01*
X1410555Y2240608D01*
X1420391Y2244682D01*
X1428837Y2251163D01*
X1435318Y2259609D01*
X1439392Y2269445D01*
X1440782Y2280000D01*
X1439392Y2290555D01*
X1435318Y2300391D01*
X1428837Y2308837D01*
X1420391Y2315318D01*
X1410555Y2319392D01*
X1400000Y2320782D01*
X1400000Y2320782D02*
G37*
G36*
X1300000Y2320782D02*
X1289445Y2319392D01*
X1279609Y2315318D01*
X1271163Y2308837D01*
X1264682Y2300391D01*
X1260608Y2290555D01*
X1259218Y2280000D01*
X1260608Y2269445D01*
X1264682Y2259609D01*
X1271163Y2251163D01*
X1279609Y2244682D01*
X1289445Y2240608D01*
X1300000Y2239218D01*
X1310555Y2240608D01*
X1320391Y2244682D01*
X1328837Y2251163D01*
X1335318Y2259609D01*
X1339392Y2269445D01*
X1340782Y2280000D01*
X1339392Y2290555D01*
X1335318Y2300391D01*
X1328837Y2308837D01*
X1320391Y2315318D01*
X1310555Y2319392D01*
X1300000Y2320782D01*
X1300000Y2320782D02*
G37*
G36*
X295000Y2325167D02*
X288140Y2324264D01*
X277087Y2319686D01*
X267597Y2312403D01*
X260314Y2302912D01*
X255736Y2291860D01*
X254833Y2285000D01*
X295000Y2285000D01*
X295000Y2325167D01*
X295000Y2325167D02*
G37*
G36*
X495000Y2325167D02*
X488140Y2324264D01*
X477087Y2319686D01*
X467597Y2312403D01*
X460314Y2302912D01*
X455736Y2291860D01*
X454833Y2285000D01*
X495000Y2285000D01*
X495000Y2325167D01*
X495000Y2325167D02*
G37*
G36*
X1792519Y2363676D02*
X1722519Y2363676D01*
X1722519Y2293676D01*
X1792519Y2293676D01*
X1792519Y2363676D01*
X1792519Y2363676D02*
G37*
G36*
X495000Y2375000D02*
X454833Y2375000D01*
X455736Y2368140D01*
X460314Y2357088D01*
X467597Y2347597D01*
X477087Y2340314D01*
X488140Y2335736D01*
X495000Y2334833D01*
X495000Y2375000D01*
X495000Y2375000D02*
G37*
G36*
X295000Y2375000D02*
X254833Y2375000D01*
X255736Y2368140D01*
X260314Y2357088D01*
X267597Y2347597D01*
X277087Y2340314D01*
X288140Y2335736D01*
X295000Y2334833D01*
X295000Y2375000D01*
X295000Y2375000D02*
G37*
G36*
X545167Y2375000D02*
X505000Y2375000D01*
X505000Y2334833D01*
X511860Y2335736D01*
X522913Y2340314D01*
X532403Y2347597D01*
X539686Y2357088D01*
X544264Y2368140D01*
X545167Y2375000D01*
X545167Y2375000D02*
G37*
G36*
X345167Y2375000D02*
X305000Y2375000D01*
X305000Y2334833D01*
X311860Y2335736D01*
X322913Y2340314D01*
X332403Y2347597D01*
X339686Y2357088D01*
X344264Y2368140D01*
X345167Y2375000D01*
X345167Y2375000D02*
G37*
G36*
X2097519Y2368676D02*
X2062519Y2368676D01*
X2062519Y2333677D01*
X2097519Y2333677D01*
X2097519Y2368676D01*
X2097519Y2368676D02*
G37*
G36*
X1992519Y2363676D02*
X1922519Y2363676D01*
X1922519Y2293676D01*
X1992519Y2293676D01*
X1992519Y2363676D01*
X1992519Y2363676D02*
G37*
G36*
X1892519Y2363676D02*
X1822519Y2363676D01*
X1822519Y2293676D01*
X1892519Y2293676D01*
X1892519Y2363676D01*
X1892519Y2363676D02*
G37*
G36*
X2052519Y2368676D02*
X2017519Y2368676D01*
X2017519Y2333677D01*
X2052519Y2333677D01*
X2052519Y2368676D01*
X2052519Y2368676D02*
G37*
G36*
X2192519Y2363676D02*
X2122519Y2363676D01*
X2122519Y2293676D01*
X2192519Y2293676D01*
X2192519Y2363676D01*
X2192519Y2363676D02*
G37*
G36*
X1200000Y2320782D02*
X1189445Y2319392D01*
X1179609Y2315318D01*
X1171163Y2308837D01*
X1164682Y2300391D01*
X1160608Y2290555D01*
X1159218Y2280000D01*
X1160608Y2269445D01*
X1164682Y2259609D01*
X1171163Y2251163D01*
X1179609Y2244682D01*
X1189445Y2240608D01*
X1200000Y2239218D01*
X1210555Y2240608D01*
X1220391Y2244682D01*
X1228837Y2251163D01*
X1235318Y2259609D01*
X1239392Y2269445D01*
X1240782Y2280000D01*
X1239392Y2290555D01*
X1235318Y2300391D01*
X1228837Y2308837D01*
X1220391Y2315318D01*
X1210555Y2319392D01*
X1200000Y2320782D01*
X1200000Y2320782D02*
G37*
G36*
X1871999Y2117825D02*
X1862986Y2116639D01*
X1854587Y2113160D01*
X1847374Y2107625D01*
X1841840Y2100413D01*
X1838361Y2092014D01*
X1837174Y2083000D01*
X1838361Y2073987D01*
X1841840Y2065587D01*
X1847374Y2058375D01*
X1854587Y2052840D01*
X1862986Y2049361D01*
X1871999Y2048175D01*
X1881013Y2049361D01*
X1889412Y2052840D01*
X1896625Y2058375D01*
X1902159Y2065587D01*
X1905638Y2073987D01*
X1906825Y2083000D01*
X1905638Y2092014D01*
X1902159Y2100413D01*
X1896625Y2107625D01*
X1889412Y2113160D01*
X1881013Y2116639D01*
X1871999Y2117825D01*
X1871999Y2117825D02*
G37*
G36*
X1811527Y2078000D02*
X1776999Y2078000D01*
X1776999Y2043473D01*
X1811527Y2043473D01*
X1811527Y2078000D01*
X1811527Y2078000D02*
G37*
G36*
X2271999Y2117825D02*
X2262986Y2116639D01*
X2254587Y2113160D01*
X2247374Y2107625D01*
X2241840Y2100413D01*
X2238361Y2092014D01*
X2237174Y2083000D01*
X2238361Y2073987D01*
X2241840Y2065587D01*
X2247374Y2058375D01*
X2254587Y2052840D01*
X2262986Y2049361D01*
X2271999Y2048175D01*
X2281013Y2049361D01*
X2289412Y2052840D01*
X2296625Y2058375D01*
X2302159Y2065587D01*
X2305638Y2073987D01*
X2306825Y2083000D01*
X2305638Y2092014D01*
X2302159Y2100413D01*
X2296625Y2107625D01*
X2289412Y2113160D01*
X2281013Y2116639D01*
X2271999Y2117825D01*
X2271999Y2117825D02*
G37*
G36*
X1971999Y2117825D02*
X1962986Y2116639D01*
X1954587Y2113160D01*
X1947374Y2107625D01*
X1941840Y2100413D01*
X1938361Y2092014D01*
X1937174Y2083000D01*
X1938361Y2073987D01*
X1941840Y2065587D01*
X1947374Y2058375D01*
X1954587Y2052840D01*
X1962986Y2049361D01*
X1971999Y2048175D01*
X1981013Y2049361D01*
X1989412Y2052840D01*
X1996625Y2058375D01*
X2002159Y2065587D01*
X2005638Y2073987D01*
X2006825Y2083000D01*
X2005638Y2092014D01*
X2002159Y2100413D01*
X1996625Y2107625D01*
X1989412Y2113160D01*
X1981013Y2116639D01*
X1971999Y2117825D01*
X1971999Y2117825D02*
G37*
G36*
X1766999Y2078000D02*
X1732472Y2078000D01*
X1732472Y2043473D01*
X1766999Y2043473D01*
X1766999Y2078000D01*
X1766999Y2078000D02*
G37*
G36*
X2122519Y1818935D02*
X2114688Y1817904D01*
X2107390Y1814881D01*
X2101123Y1810073D01*
X2096314Y1803806D01*
X2093291Y1796508D01*
X2092260Y1788676D01*
X2093291Y1780845D01*
X2096314Y1773547D01*
X2101123Y1767280D01*
X2107390Y1762471D01*
X2114688Y1759448D01*
X2122519Y1758418D01*
X2130351Y1759448D01*
X2137649Y1762471D01*
X2143916Y1767280D01*
X2148724Y1773547D01*
X2151747Y1780845D01*
X2152778Y1788676D01*
X2151747Y1796508D01*
X2148724Y1803806D01*
X2143916Y1810073D01*
X2137649Y1814881D01*
X2130351Y1817904D01*
X2122519Y1818935D01*
X2122519Y1818935D02*
G37*
G36*
X1694197Y1824635D02*
X1679839Y1822744D01*
X1666459Y1817202D01*
X1654970Y1808387D01*
X1646154Y1796897D01*
X1640612Y1783518D01*
X1638722Y1769160D01*
X1640612Y1754802D01*
X1646154Y1741423D01*
X1654970Y1729934D01*
X1666459Y1721118D01*
X1679839Y1715576D01*
X1694197Y1713685D01*
X1708555Y1715576D01*
X1721934Y1721118D01*
X1733423Y1729934D01*
X1742239Y1741423D01*
X1747781Y1754802D01*
X1749671Y1769160D01*
X1747781Y1783518D01*
X1742239Y1796897D01*
X1733423Y1808387D01*
X1721934Y1817202D01*
X1708555Y1822744D01*
X1694197Y1824635D01*
X1694197Y1824635D02*
G37*
G36*
X990000Y1905259D02*
X982168Y1904228D01*
X974870Y1901205D01*
X968604Y1896396D01*
X963795Y1890129D01*
X960772Y1882832D01*
X959741Y1875000D01*
X960772Y1867168D01*
X962816Y1862235D01*
X952790Y1852210D01*
X950580Y1848902D01*
X949804Y1845000D01*
X949804Y-1534845D01*
X215012Y-2269638D01*
X209732Y-2267846D01*
X208970Y-2262058D01*
X204940Y-2252327D01*
X198528Y-2243972D01*
X190173Y-2237560D01*
X180442Y-2233530D01*
X175000Y-2232813D01*
X175000Y-2272500D01*
X170000Y-2272500D01*
X170000Y-2277500D01*
X130313Y-2277500D01*
X131030Y-2282942D01*
X135060Y-2292673D01*
X138614Y-2297304D01*
X136148Y-2302304D01*
X130000Y-2302304D01*
X126098Y-2303080D01*
X122790Y-2305290D01*
X86592Y-2341489D01*
X79137Y-2338401D01*
X70000Y-2337198D01*
X60863Y-2338401D01*
X52349Y-2341928D01*
X45038Y-2347538D01*
X39428Y-2354849D01*
X35901Y-2363363D01*
X34698Y-2372500D01*
X35901Y-2381637D01*
X39428Y-2390151D01*
X45038Y-2397462D01*
X52349Y-2403072D01*
X60863Y-2406599D01*
X70000Y-2407802D01*
X79137Y-2406599D01*
X87651Y-2403072D01*
X94962Y-2397462D01*
X100572Y-2390151D01*
X104099Y-2381637D01*
X105302Y-2372500D01*
X104099Y-2363363D01*
X101011Y-2355908D01*
X134223Y-2322696D01*
X186569Y-2322696D01*
X190470Y-2321920D01*
X193778Y-2319710D01*
X967210Y-1546278D01*
X969420Y-1542970D01*
X970196Y-1539069D01*
X970196Y1775267D01*
X975196Y1777382D01*
X979870Y1773795D01*
X984804Y1771751D01*
X984804Y-1643277D01*
X186592Y-2441489D01*
X179137Y-2438401D01*
X170000Y-2437198D01*
X160863Y-2438401D01*
X152349Y-2441928D01*
X145038Y-2447538D01*
X139428Y-2454849D01*
X135901Y-2463363D01*
X134698Y-2472500D01*
X135901Y-2481637D01*
X139428Y-2490151D01*
X145038Y-2497462D01*
X152349Y-2503072D01*
X160863Y-2506599D01*
X170000Y-2507802D01*
X179137Y-2506599D01*
X187651Y-2503072D01*
X194962Y-2497462D01*
X200572Y-2490151D01*
X204099Y-2481637D01*
X205302Y-2472500D01*
X204099Y-2463363D01*
X201011Y-2455908D01*
X1002210Y-1654710D01*
X1004420Y-1651402D01*
X1005196Y-1647500D01*
X1005196Y1771751D01*
X1010130Y1773795D01*
X1016396Y1778604D01*
X1021205Y1784871D01*
X1024228Y1792168D01*
X1025259Y1800000D01*
X1024228Y1807832D01*
X1021205Y1815129D01*
X1016396Y1821396D01*
X1010130Y1826205D01*
X1002832Y1829228D01*
X995000Y1830259D01*
X987168Y1829228D01*
X979870Y1826205D01*
X975196Y1822618D01*
X970196Y1824733D01*
X970196Y1840777D01*
X977235Y1847816D01*
X982168Y1845772D01*
X990000Y1844741D01*
X997832Y1845772D01*
X1005130Y1848795D01*
X1011396Y1853604D01*
X1016205Y1859871D01*
X1019228Y1867168D01*
X1020259Y1875000D01*
X1019228Y1882832D01*
X1016205Y1890129D01*
X1011396Y1896396D01*
X1005130Y1901205D01*
X997832Y1904228D01*
X990000Y1905259D01*
X990000Y1905259D02*
G37*
G36*
X740000Y1823259D02*
X732168Y1822228D01*
X724870Y1819205D01*
X718604Y1814396D01*
X713795Y1808129D01*
X710772Y1800832D01*
X709741Y1793000D01*
X710772Y1785168D01*
X713795Y1777871D01*
X718604Y1771604D01*
X724870Y1766795D01*
X732168Y1763772D01*
X740000Y1762741D01*
X747832Y1763772D01*
X755130Y1766795D01*
X761396Y1771604D01*
X766205Y1777871D01*
X769228Y1785168D01*
X770259Y1793000D01*
X769228Y1800832D01*
X766205Y1808129D01*
X761396Y1814396D01*
X755130Y1819205D01*
X747832Y1822228D01*
X740000Y1823259D01*
X740000Y1823259D02*
G37*
G36*
X1766999Y2122528D02*
X1732472Y2122528D01*
X1732472Y2088000D01*
X1766999Y2088000D01*
X1766999Y2122528D01*
X1766999Y2122528D02*
G37*
G36*
X700000Y2320782D02*
X689445Y2319392D01*
X679609Y2315318D01*
X671163Y2308837D01*
X664682Y2300391D01*
X660608Y2290555D01*
X659218Y2280000D01*
X660608Y2269445D01*
X664682Y2259609D01*
X671163Y2251163D01*
X679609Y2244682D01*
X689445Y2240608D01*
X700000Y2239218D01*
X710555Y2240608D01*
X720391Y2244682D01*
X728837Y2251163D01*
X735318Y2259609D01*
X739392Y2269445D01*
X740782Y2280000D01*
X739392Y2290555D01*
X735318Y2300391D01*
X728837Y2308837D01*
X720391Y2315318D01*
X710555Y2319392D01*
X700000Y2320782D01*
X700000Y2320782D02*
G37*
G36*
X600000Y2320782D02*
X589445Y2319392D01*
X579609Y2315318D01*
X571163Y2308837D01*
X564682Y2300391D01*
X560608Y2290555D01*
X559218Y2280000D01*
X560608Y2269445D01*
X564682Y2259609D01*
X571163Y2251163D01*
X579609Y2244682D01*
X589445Y2240608D01*
X600000Y2239218D01*
X610555Y2240608D01*
X620391Y2244682D01*
X628837Y2251163D01*
X635318Y2259609D01*
X639392Y2269445D01*
X640782Y2280000D01*
X639392Y2290555D01*
X635318Y2300391D01*
X628837Y2308837D01*
X620391Y2315318D01*
X610555Y2319392D01*
X600000Y2320782D01*
X600000Y2320782D02*
G37*
G36*
X900000Y2320782D02*
X889445Y2319392D01*
X879609Y2315318D01*
X871163Y2308837D01*
X864682Y2300391D01*
X860608Y2290555D01*
X859218Y2280000D01*
X860608Y2269445D01*
X864682Y2259609D01*
X871163Y2251163D01*
X879609Y2244682D01*
X889445Y2240608D01*
X900000Y2239218D01*
X910555Y2240608D01*
X920391Y2244682D01*
X928837Y2251163D01*
X935318Y2259609D01*
X939392Y2269445D01*
X940782Y2280000D01*
X939392Y2290555D01*
X935318Y2300391D01*
X928837Y2308837D01*
X920391Y2315318D01*
X910555Y2319392D01*
X900000Y2320782D01*
X900000Y2320782D02*
G37*
G36*
X800000Y2320782D02*
X789445Y2319392D01*
X779609Y2315318D01*
X771163Y2308837D01*
X764682Y2300391D01*
X760608Y2290555D01*
X759218Y2280000D01*
X760608Y2269445D01*
X764682Y2259609D01*
X771163Y2251163D01*
X779609Y2244682D01*
X789445Y2240608D01*
X800000Y2239218D01*
X810555Y2240608D01*
X820391Y2244682D01*
X828837Y2251163D01*
X835318Y2259609D01*
X839392Y2269445D01*
X840782Y2280000D01*
X839392Y2290555D01*
X835318Y2300391D01*
X828837Y2308837D01*
X820391Y2315318D01*
X810555Y2319392D01*
X800000Y2320782D01*
X800000Y2320782D02*
G37*
G36*
X545167Y2275000D02*
X505000Y2275000D01*
X505000Y2234833D01*
X511860Y2235736D01*
X522913Y2240314D01*
X532403Y2247597D01*
X539686Y2257088D01*
X544264Y2268140D01*
X545167Y2275000D01*
X545167Y2275000D02*
G37*
G36*
X295000Y2275000D02*
X254833Y2275000D01*
X255736Y2268140D01*
X260314Y2257088D01*
X267597Y2247597D01*
X277087Y2240314D01*
X288140Y2235736D01*
X295000Y2234833D01*
X295000Y2275000D01*
X295000Y2275000D02*
G37*
G36*
X1811527Y2122528D02*
X1776999Y2122528D01*
X1776999Y2088000D01*
X1811527Y2088000D01*
X1811527Y2122528D01*
X1811527Y2122528D02*
G37*
G36*
X345167Y2275000D02*
X305000Y2275000D01*
X305000Y2234833D01*
X311860Y2235736D01*
X322913Y2240314D01*
X332403Y2247597D01*
X339686Y2257088D01*
X344264Y2268140D01*
X345167Y2275000D01*
X345167Y2275000D02*
G37*
G36*
X495000Y2275000D02*
X454833Y2275000D01*
X455736Y2268140D01*
X460314Y2257088D01*
X467597Y2247597D01*
X477087Y2240314D01*
X488140Y2235736D01*
X495000Y2234833D01*
X495000Y2275000D01*
X495000Y2275000D02*
G37*
G36*
X600000Y2420782D02*
X589445Y2419392D01*
X579609Y2415318D01*
X571163Y2408837D01*
X564682Y2400391D01*
X560608Y2390555D01*
X559218Y2380000D01*
X560608Y2369445D01*
X564682Y2359609D01*
X571163Y2351163D01*
X579609Y2344682D01*
X589445Y2340608D01*
X600000Y2339218D01*
X610555Y2340608D01*
X620391Y2344682D01*
X628837Y2351163D01*
X635318Y2359609D01*
X639392Y2369445D01*
X640782Y2380000D01*
X639392Y2390555D01*
X635318Y2400391D01*
X628837Y2408837D01*
X620391Y2415318D01*
X610555Y2419392D01*
X600000Y2420782D01*
X600000Y2420782D02*
G37*
G36*
X465590Y2583268D02*
X435000Y2583268D01*
X435000Y2561535D01*
X465590Y2561535D01*
X465590Y2583268D01*
X465590Y2583268D02*
G37*
G36*
X395197Y2646574D02*
X395197Y2646574D01*
X394980Y2646574D01*
X347795Y2646574D01*
X347795Y2583425D01*
X389474Y2583425D01*
X391507Y2583360D01*
X394409Y2579290D01*
X394409Y2578711D01*
X394409Y2561535D01*
X425000Y2561535D01*
X425000Y2583268D01*
X400132Y2583268D01*
X398099Y2583332D01*
X395197Y2587402D01*
X395197Y2587981D01*
X395197Y2599832D01*
X399409Y2601733D01*
X460590Y2601733D01*
X460590Y2645198D01*
X399410Y2645198D01*
X399410Y2645198D01*
X395197Y2646574D01*
X395197Y2646574D02*
G37*
G36*
X1421178Y2603677D02*
X1391572Y2603677D01*
X1391572Y2569149D01*
X1421178Y2569149D01*
X1421178Y2603677D01*
X1421178Y2603677D02*
G37*
G36*
X630000Y2583268D02*
X630000Y2561535D01*
X660590Y2561535D01*
X660590Y2583268D01*
X630000Y2583268D01*
X630000Y2583268D02*
G37*
G36*
X85590Y2583268D02*
X55000Y2583268D01*
X55000Y2561535D01*
X85590Y2561535D01*
X85590Y2583268D01*
X85590Y2583268D02*
G37*
G36*
X620000Y2551535D02*
X589409Y2551535D01*
X589409Y2529803D01*
X620000Y2529803D01*
X620000Y2551535D01*
X620000Y2551535D02*
G37*
G36*
X465590Y2551535D02*
X435000Y2551535D01*
X435000Y2529803D01*
X465590Y2529803D01*
X465590Y2551535D01*
X465590Y2551535D02*
G37*
G36*
X15197Y2646576D02*
X15197Y2646575D01*
X14980Y2646575D01*
X-32205Y2646575D01*
X-32205Y2583426D01*
X9475Y2583426D01*
X11507Y2583361D01*
X14409Y2579292D01*
X14409Y2578712D01*
X14409Y2561535D01*
X45000Y2561535D01*
X45000Y2583268D01*
X20131Y2583268D01*
X18099Y2583333D01*
X15197Y2587401D01*
X15197Y2587981D01*
X15197Y2599832D01*
X19410Y2601733D01*
X80590Y2601733D01*
X80590Y2645198D01*
X19410Y2645198D01*
X19410Y2645198D01*
X15197Y2646576D01*
X15197Y2646576D02*
G37*
G36*
X660590Y2551535D02*
X630000Y2551535D01*
X630000Y2529803D01*
X660590Y2529803D01*
X660590Y2551535D01*
X660590Y2551535D02*
G37*
G36*
X1460785Y2603677D02*
X1431178Y2603677D01*
X1431178Y2569149D01*
X1460785Y2569149D01*
X1460785Y2603677D01*
X1460785Y2603677D02*
G37*
G36*
X1460785Y2648204D02*
X1431178Y2648204D01*
X1431178Y2613677D01*
X1460785Y2613677D01*
X1460785Y2648204D01*
X1460785Y2648204D02*
G37*
G36*
X1421178Y2648204D02*
X1391572Y2648204D01*
X1391572Y2613677D01*
X1421178Y2613677D01*
X1421178Y2648204D01*
X1421178Y2648204D02*
G37*
G36*
X1609724Y2650251D02*
X1562322Y2650251D01*
X1562322Y2632557D01*
X1538461Y2632557D01*
X1538461Y2643204D01*
X1479248Y2643204D01*
X1479248Y2574149D01*
X1538461Y2574149D01*
X1538461Y2612166D01*
X1562322Y2612166D01*
X1562322Y2587101D01*
X1609724Y2587101D01*
X1609724Y2650251D01*
X1609724Y2650251D02*
G37*
G36*
X1103449Y2645425D02*
X1044236Y2645425D01*
X1044236Y2619196D01*
X1011197Y2619196D01*
X1011197Y2640575D01*
X963795Y2640575D01*
X963795Y2577425D01*
X1011197Y2577425D01*
X1011197Y2598804D01*
X1044236Y2598804D01*
X1044236Y2576370D01*
X1103449Y2576370D01*
X1103449Y2645425D01*
X1103449Y2645425D02*
G37*
G36*
X1672716Y2650251D02*
X1625314Y2650251D01*
X1625314Y2587101D01*
X1672716Y2587101D01*
X1672716Y2614804D01*
X1779227Y2614804D01*
X1781461Y2611461D01*
X1787673Y2607310D01*
X1795000Y2605853D01*
X1802327Y2607310D01*
X1808539Y2611461D01*
X1812690Y2617673D01*
X1814147Y2625000D01*
X1812690Y2632327D01*
X1808539Y2638539D01*
X1802327Y2642690D01*
X1795000Y2644147D01*
X1787673Y2642690D01*
X1781461Y2638539D01*
X1779227Y2635196D01*
X1672716Y2635196D01*
X1672716Y2650251D01*
X1672716Y2650251D02*
G37*
G36*
X332205Y2646574D02*
X284803Y2646574D01*
X284803Y2588022D01*
X284769Y2585153D01*
X284769Y2585153D01*
X284796Y2587418D01*
X283957Y2584787D01*
X280645Y2583293D01*
X280388Y2583284D01*
X279765Y2583268D01*
X276339Y2583268D01*
X250000Y2583268D01*
X250000Y2561535D01*
X280590Y2561535D01*
X280590Y2578288D01*
X280591Y2578671D01*
X280612Y2578892D01*
X285525Y2581726D01*
X286931Y2581077D01*
X287105Y2580893D01*
X288308Y2579613D01*
X288308Y2524774D01*
X286461Y2523539D01*
X282310Y2517327D01*
X280853Y2510000D01*
X282310Y2502673D01*
X286461Y2496461D01*
X292673Y2492310D01*
X300000Y2490853D01*
X307327Y2492310D01*
X313539Y2496461D01*
X317690Y2502673D01*
X319147Y2510000D01*
X317690Y2517327D01*
X313539Y2523539D01*
X308700Y2526773D01*
X308700Y2583425D01*
X332205Y2583425D01*
X332205Y2646574D01*
X332205Y2646574D02*
G37*
G36*
X849000Y2642259D02*
X841168Y2641228D01*
X833870Y2638205D01*
X827604Y2633396D01*
X822795Y2627129D01*
X819772Y2619832D01*
X818741Y2612000D01*
X819772Y2604168D01*
X822795Y2596871D01*
X827604Y2590604D01*
X833870Y2585795D01*
X841168Y2582772D01*
X849000Y2581741D01*
X856832Y2582772D01*
X864130Y2585795D01*
X870396Y2590604D01*
X875205Y2596871D01*
X877249Y2601804D01*
X900803Y2601804D01*
X900803Y2577425D01*
X948205Y2577425D01*
X948205Y2640575D01*
X900803Y2640575D01*
X900803Y2622196D01*
X877249Y2622196D01*
X875205Y2627129D01*
X870396Y2633396D01*
X864130Y2638205D01*
X856832Y2641228D01*
X849000Y2642259D01*
X849000Y2642259D02*
G37*
G36*
X585197Y2646574D02*
X537795Y2646574D01*
X537795Y2583425D01*
X580521Y2583425D01*
X584371Y2583424D01*
X584994Y2583408D01*
X585251Y2583400D01*
X589120Y2581654D01*
X589409Y2578671D01*
X589409Y2578288D01*
X589409Y2561535D01*
X620000Y2561535D01*
X620000Y2583268D01*
X594085Y2583268D01*
X590235Y2583268D01*
X589612Y2583284D01*
X589355Y2583293D01*
X585486Y2585038D01*
X585197Y2588022D01*
X585197Y2588404D01*
X585197Y2613269D01*
X594409Y2613269D01*
X594409Y2601733D01*
X655590Y2601733D01*
X655590Y2645198D01*
X594409Y2645198D01*
X594409Y2633661D01*
X585197Y2633661D01*
X585197Y2646574D01*
X585197Y2646574D02*
G37*
G36*
X205197Y2646574D02*
X157795Y2646574D01*
X157795Y2583425D01*
X200521Y2583425D01*
X204371Y2583424D01*
X204994Y2583408D01*
X205251Y2583400D01*
X209120Y2581654D01*
X209409Y2578671D01*
X209409Y2578288D01*
X209409Y2561535D01*
X240000Y2561535D01*
X240000Y2583268D01*
X214085Y2583268D01*
X210235Y2583268D01*
X209612Y2583284D01*
X209355Y2583293D01*
X205486Y2585038D01*
X205197Y2588022D01*
X205197Y2588404D01*
X205197Y2613269D01*
X214409Y2613269D01*
X214409Y2601733D01*
X275590Y2601733D01*
X275590Y2645198D01*
X214409Y2645198D01*
X214409Y2633661D01*
X205197Y2633661D01*
X205197Y2646574D01*
X205197Y2646574D02*
G37*
G36*
X425000Y2551535D02*
X394409Y2551535D01*
X394409Y2529803D01*
X425000Y2529803D01*
X425000Y2551535D01*
X425000Y2551535D02*
G37*
G36*
X1400000Y2420782D02*
X1389445Y2419392D01*
X1379609Y2415318D01*
X1371163Y2408837D01*
X1364682Y2400391D01*
X1360608Y2390555D01*
X1359218Y2380000D01*
X1360608Y2369445D01*
X1364682Y2359609D01*
X1371163Y2351163D01*
X1379609Y2344682D01*
X1389445Y2340608D01*
X1400000Y2339218D01*
X1410555Y2340608D01*
X1420391Y2344682D01*
X1428837Y2351163D01*
X1435318Y2359609D01*
X1439392Y2369445D01*
X1440782Y2380000D01*
X1439392Y2390555D01*
X1435318Y2400391D01*
X1428837Y2408837D01*
X1420391Y2415318D01*
X1410555Y2419392D01*
X1400000Y2420782D01*
X1400000Y2420782D02*
G37*
G36*
X1300000Y2420782D02*
X1289445Y2419392D01*
X1279609Y2415318D01*
X1271163Y2408837D01*
X1264682Y2400391D01*
X1260608Y2390555D01*
X1259218Y2380000D01*
X1260608Y2369445D01*
X1264682Y2359609D01*
X1271163Y2351163D01*
X1279609Y2344682D01*
X1289445Y2340608D01*
X1300000Y2339218D01*
X1310555Y2340608D01*
X1320391Y2344682D01*
X1328837Y2351163D01*
X1335318Y2359609D01*
X1339392Y2369445D01*
X1340782Y2380000D01*
X1339392Y2390555D01*
X1335318Y2400391D01*
X1328837Y2408837D01*
X1320391Y2415318D01*
X1310555Y2419392D01*
X1300000Y2420782D01*
X1300000Y2420782D02*
G37*
G36*
X495000Y2425167D02*
X488140Y2424264D01*
X477087Y2419686D01*
X467597Y2412403D01*
X460314Y2402912D01*
X455736Y2391860D01*
X454833Y2385000D01*
X495000Y2385000D01*
X495000Y2425167D01*
X495000Y2425167D02*
G37*
G36*
X295000Y2425167D02*
X288140Y2424264D01*
X277087Y2419686D01*
X267597Y2412403D01*
X260314Y2402912D01*
X255736Y2391860D01*
X254833Y2385000D01*
X295000Y2385000D01*
X295000Y2425167D01*
X295000Y2425167D02*
G37*
G36*
X1200000Y2420782D02*
X1189445Y2419392D01*
X1179609Y2415318D01*
X1171163Y2408837D01*
X1164682Y2400391D01*
X1160608Y2390555D01*
X1159218Y2380000D01*
X1160608Y2369445D01*
X1164682Y2359609D01*
X1171163Y2351163D01*
X1179609Y2344682D01*
X1189445Y2340608D01*
X1200000Y2339218D01*
X1210555Y2340608D01*
X1220391Y2344682D01*
X1228837Y2351163D01*
X1235318Y2359609D01*
X1239392Y2369445D01*
X1240782Y2380000D01*
X1239392Y2390555D01*
X1235318Y2400391D01*
X1228837Y2408837D01*
X1220391Y2415318D01*
X1210555Y2419392D01*
X1200000Y2420782D01*
X1200000Y2420782D02*
G37*
G36*
X800000Y2420782D02*
X789445Y2419392D01*
X779609Y2415318D01*
X771163Y2408837D01*
X764682Y2400391D01*
X760608Y2390555D01*
X759218Y2380000D01*
X760608Y2369445D01*
X764682Y2359609D01*
X771163Y2351163D01*
X779609Y2344682D01*
X789445Y2340608D01*
X800000Y2339218D01*
X810555Y2340608D01*
X820391Y2344682D01*
X828837Y2351163D01*
X835318Y2359609D01*
X839392Y2369445D01*
X840782Y2380000D01*
X839392Y2390555D01*
X835318Y2400391D01*
X828837Y2408837D01*
X820391Y2415318D01*
X810555Y2419392D01*
X800000Y2420782D01*
X800000Y2420782D02*
G37*
G36*
X700000Y2420782D02*
X689445Y2419392D01*
X679609Y2415318D01*
X671163Y2408837D01*
X664682Y2400391D01*
X660608Y2390555D01*
X659218Y2380000D01*
X660608Y2369445D01*
X664682Y2359609D01*
X671163Y2351163D01*
X679609Y2344682D01*
X689445Y2340608D01*
X700000Y2339218D01*
X710555Y2340608D01*
X720391Y2344682D01*
X728837Y2351163D01*
X735318Y2359609D01*
X739392Y2369445D01*
X740782Y2380000D01*
X739392Y2390555D01*
X735318Y2400391D01*
X728837Y2408837D01*
X720391Y2415318D01*
X710555Y2419392D01*
X700000Y2420782D01*
X700000Y2420782D02*
G37*
G36*
X1100000Y2420782D02*
X1089445Y2419392D01*
X1079609Y2415318D01*
X1071163Y2408837D01*
X1064682Y2400391D01*
X1060608Y2390555D01*
X1059218Y2380000D01*
X1060608Y2369445D01*
X1064682Y2359609D01*
X1071163Y2351163D01*
X1079609Y2344682D01*
X1089445Y2340608D01*
X1100000Y2339218D01*
X1110555Y2340608D01*
X1120391Y2344682D01*
X1128837Y2351163D01*
X1135318Y2359609D01*
X1139392Y2369445D01*
X1140782Y2380000D01*
X1139392Y2390555D01*
X1135318Y2400391D01*
X1128837Y2408837D01*
X1120391Y2415318D01*
X1110555Y2419392D01*
X1100000Y2420782D01*
X1100000Y2420782D02*
G37*
G36*
X900000Y2420782D02*
X889445Y2419392D01*
X879609Y2415318D01*
X871163Y2408837D01*
X864682Y2400391D01*
X860608Y2390555D01*
X859218Y2380000D01*
X860608Y2369445D01*
X864682Y2359609D01*
X871163Y2351163D01*
X879609Y2344682D01*
X889445Y2340608D01*
X900000Y2339218D01*
X910555Y2340608D01*
X920391Y2344682D01*
X928837Y2351163D01*
X935318Y2359609D01*
X939392Y2369445D01*
X940782Y2380000D01*
X939392Y2390555D01*
X935318Y2400391D01*
X928837Y2408837D01*
X920391Y2415318D01*
X910555Y2419392D01*
X900000Y2420782D01*
X900000Y2420782D02*
G37*
G36*
X305000Y2425167D02*
X305000Y2385000D01*
X345167Y2385000D01*
X344264Y2391860D01*
X339686Y2402912D01*
X332403Y2412403D01*
X322913Y2419686D01*
X311860Y2424264D01*
X305000Y2425167D01*
X305000Y2425167D02*
G37*
G36*
X85590Y2551535D02*
X55000Y2551535D01*
X55000Y2529803D01*
X85590Y2529803D01*
X85590Y2551535D01*
X85590Y2551535D02*
G37*
G36*
X45000Y2551535D02*
X14409Y2551535D01*
X14409Y2529803D01*
X45000Y2529803D01*
X45000Y2551535D01*
X45000Y2551535D02*
G37*
G36*
X280590Y2551535D02*
X250000Y2551535D01*
X250000Y2529803D01*
X280590Y2529803D01*
X280590Y2551535D01*
X280590Y2551535D02*
G37*
G36*
X240000Y2551535D02*
X209409Y2551535D01*
X209409Y2529803D01*
X240000Y2529803D01*
X240000Y2551535D01*
X240000Y2551535D02*
G37*
G36*
X1186126Y2645425D02*
X1126913Y2645425D01*
X1126913Y2576370D01*
X1171707Y2576370D01*
X1204286Y2543790D01*
X1207594Y2541580D01*
X1211496Y2540804D01*
X1638308Y2540804D01*
X1641314Y2533547D01*
X1646123Y2527280D01*
X1652390Y2522471D01*
X1659688Y2519448D01*
X1667519Y2518418D01*
X1675351Y2519448D01*
X1682649Y2522471D01*
X1688916Y2527280D01*
X1693724Y2533547D01*
X1696747Y2540845D01*
X1697778Y2548676D01*
X1696747Y2556508D01*
X1693724Y2563806D01*
X1688916Y2570073D01*
X1682649Y2574881D01*
X1675351Y2577904D01*
X1667519Y2578935D01*
X1659688Y2577904D01*
X1652390Y2574881D01*
X1646123Y2570073D01*
X1641314Y2563806D01*
X1640233Y2561196D01*
X1215719Y2561196D01*
X1186126Y2590789D01*
X1186126Y2645425D01*
X1186126Y2645425D02*
G37*
G36*
X-47795Y2646575D02*
X-95197Y2646575D01*
X-95197Y2583426D01*
X-80196Y2583426D01*
X-80196Y2490773D01*
X-83539Y2488539D01*
X-87690Y2482327D01*
X-89147Y2475000D01*
X-87690Y2467673D01*
X-83539Y2461461D01*
X-77327Y2457310D01*
X-70000Y2455853D01*
X-62673Y2457310D01*
X-56461Y2461461D01*
X-52310Y2467673D01*
X-50853Y2475000D01*
X-52310Y2482327D01*
X-56461Y2488539D01*
X-59804Y2490773D01*
X-59804Y2583426D01*
X-47795Y2583426D01*
X-47795Y2646575D01*
X-47795Y2646575D02*
G37*
G36*
X505000Y2425167D02*
X505000Y2385000D01*
X545167Y2385000D01*
X544264Y2391860D01*
X539686Y2402912D01*
X532403Y2412403D01*
X522913Y2419686D01*
X511860Y2424264D01*
X505000Y2425167D01*
X505000Y2425167D02*
G37*
G36*
X142205Y2646574D02*
X94803Y2646574D01*
X94803Y2583425D01*
X104804Y2583425D01*
X104804Y2550773D01*
X101461Y2548539D01*
X97310Y2542327D01*
X95853Y2535000D01*
X97310Y2527673D01*
X101461Y2521461D01*
X107673Y2517310D01*
X115000Y2515853D01*
X122327Y2517310D01*
X128539Y2521461D01*
X132690Y2527673D01*
X134147Y2535000D01*
X132690Y2542327D01*
X128539Y2548539D01*
X125196Y2550773D01*
X125196Y2583425D01*
X142205Y2583425D01*
X142205Y2646574D01*
X142205Y2646574D02*
G37*
G36*
X522205Y2646574D02*
X474803Y2646574D01*
X474803Y2583425D01*
X494804Y2583425D01*
X494804Y2520773D01*
X491461Y2518539D01*
X487310Y2512327D01*
X485853Y2505000D01*
X487310Y2497673D01*
X491461Y2491461D01*
X497673Y2487310D01*
X505000Y2485853D01*
X512327Y2487310D01*
X518539Y2491461D01*
X522690Y2497673D01*
X524147Y2505000D01*
X522690Y2512327D01*
X518539Y2518539D01*
X515196Y2520773D01*
X515196Y2583425D01*
X522205Y2583425D01*
X522205Y2646574D01*
X522205Y2646574D02*
G37*
G36*
X2305000Y589210D02*
X2305000Y555000D01*
X2339210Y555000D01*
X2338510Y560319D01*
X2334527Y569934D01*
X2328191Y578191D01*
X2319934Y584527D01*
X2310319Y588510D01*
X2305000Y589210D01*
X2305000Y589210D02*
G37*
G36*
X2295000Y589210D02*
X2289681Y588510D01*
X2280066Y584527D01*
X2271809Y578191D01*
X2265473Y569934D01*
X2261490Y560319D01*
X2260790Y555000D01*
X2295000Y555000D01*
X2295000Y589210D01*
X2295000Y589210D02*
G37*
G36*
X2339210Y645000D02*
X2305000Y645000D01*
X2305000Y610790D01*
X2310319Y611490D01*
X2319934Y615473D01*
X2328191Y621809D01*
X2334527Y630066D01*
X2338510Y639681D01*
X2339210Y645000D01*
X2339210Y645000D02*
G37*
G36*
X2295000Y645000D02*
X2260790Y645000D01*
X2261490Y639681D01*
X2265473Y630066D01*
X2271809Y621809D01*
X2280066Y615473D01*
X2289681Y611490D01*
X2295000Y610790D01*
X2295000Y645000D01*
X2295000Y645000D02*
G37*
G36*
X2200000Y584825D02*
X2190986Y583639D01*
X2182587Y580160D01*
X2175375Y574625D01*
X2169840Y567413D01*
X2166361Y559014D01*
X2165175Y550000D01*
X2166361Y540986D01*
X2169840Y532587D01*
X2175375Y525375D01*
X2182587Y519840D01*
X2190986Y516361D01*
X2200000Y515175D01*
X2209014Y516361D01*
X2217413Y519840D01*
X2224625Y525375D01*
X2230160Y532587D01*
X2233639Y540986D01*
X2234825Y550000D01*
X2233639Y559014D01*
X2230160Y567413D01*
X2224625Y574625D01*
X2217413Y580160D01*
X2209014Y583639D01*
X2200000Y584825D01*
X2200000Y584825D02*
G37*
G36*
X2339210Y545000D02*
X2305000Y545000D01*
X2305000Y510790D01*
X2310319Y511490D01*
X2319934Y515473D01*
X2328191Y521809D01*
X2334527Y530066D01*
X2338510Y539681D01*
X2339210Y545000D01*
X2339210Y545000D02*
G37*
G36*
X2295000Y545000D02*
X2260790Y545000D01*
X2261490Y539681D01*
X2265473Y530066D01*
X2271809Y521809D01*
X2280066Y515473D01*
X2289681Y511490D01*
X2295000Y510790D01*
X2295000Y545000D01*
X2295000Y545000D02*
G37*
G36*
X0Y584825D02*
X-9014Y583639D01*
X-17413Y580160D01*
X-24625Y574625D01*
X-30160Y567413D01*
X-33639Y559014D01*
X-34825Y550000D01*
X-33639Y540986D01*
X-30160Y532587D01*
X-24625Y525375D01*
X-17413Y519840D01*
X-9014Y516361D01*
X0Y515175D01*
X9014Y516361D01*
X17413Y519840D01*
X24625Y525375D01*
X30160Y532587D01*
X33639Y540986D01*
X34825Y550000D01*
X33639Y559014D01*
X30160Y567413D01*
X24625Y574625D01*
X17413Y580160D01*
X9014Y583639D01*
X0Y584825D01*
X0Y584825D02*
G37*
G36*
X-100000Y584825D02*
X-109013Y583639D01*
X-117413Y580160D01*
X-124625Y574625D01*
X-130160Y567413D01*
X-133639Y559014D01*
X-134825Y550000D01*
X-133639Y540986D01*
X-130160Y532587D01*
X-124625Y525375D01*
X-117413Y519840D01*
X-109013Y516361D01*
X-100000Y515175D01*
X-90987Y516361D01*
X-82587Y519840D01*
X-75375Y525375D01*
X-69840Y532587D01*
X-66361Y540986D01*
X-65175Y550000D01*
X-66361Y559014D01*
X-69840Y567413D01*
X-75375Y574625D01*
X-82587Y580160D01*
X-90987Y583639D01*
X-100000Y584825D01*
X-100000Y584825D02*
G37*
G36*
X2200000Y684825D02*
X2190986Y683639D01*
X2182587Y680160D01*
X2175375Y674625D01*
X2169840Y667413D01*
X2166361Y659014D01*
X2165175Y650000D01*
X2166361Y640986D01*
X2169840Y632587D01*
X2175375Y625375D01*
X2182587Y619840D01*
X2190986Y616361D01*
X2200000Y615175D01*
X2209014Y616361D01*
X2217413Y619840D01*
X2224625Y625375D01*
X2230160Y632587D01*
X2233639Y640986D01*
X2234825Y650000D01*
X2233639Y659014D01*
X2230160Y667413D01*
X2224625Y674625D01*
X2217413Y680160D01*
X2209014Y683639D01*
X2200000Y684825D01*
X2200000Y684825D02*
G37*
G36*
X-100000Y884825D02*
X-109013Y883639D01*
X-117413Y880160D01*
X-124625Y874625D01*
X-130160Y867413D01*
X-133639Y859014D01*
X-134825Y850000D01*
X-133639Y840986D01*
X-130160Y832587D01*
X-124625Y825375D01*
X-117413Y819840D01*
X-109013Y816361D01*
X-100000Y815175D01*
X-90987Y816361D01*
X-82587Y819840D01*
X-75375Y825375D01*
X-69840Y832587D01*
X-66361Y840986D01*
X-65175Y850000D01*
X-66361Y859014D01*
X-69840Y867413D01*
X-75375Y874625D01*
X-82587Y880160D01*
X-90987Y883639D01*
X-100000Y884825D01*
X-100000Y884825D02*
G37*
G36*
X2300000Y784825D02*
X2290986Y783639D01*
X2282587Y780160D01*
X2275375Y774625D01*
X2269840Y767413D01*
X2266361Y759014D01*
X2265175Y750000D01*
X2266361Y740986D01*
X2269840Y732587D01*
X2275375Y725375D01*
X2282587Y719840D01*
X2290986Y716361D01*
X2300000Y715175D01*
X2309014Y716361D01*
X2317413Y719840D01*
X2324625Y725375D01*
X2330160Y732587D01*
X2333639Y740986D01*
X2334825Y750000D01*
X2333639Y759014D01*
X2330160Y767413D01*
X2324625Y774625D01*
X2317413Y780160D01*
X2309014Y783639D01*
X2300000Y784825D01*
X2300000Y784825D02*
G37*
G36*
X2200000Y884825D02*
X2190986Y883639D01*
X2182587Y880160D01*
X2175375Y874625D01*
X2169840Y867413D01*
X2166361Y859014D01*
X2165175Y850000D01*
X2166361Y840986D01*
X2169840Y832587D01*
X2175375Y825375D01*
X2182587Y819840D01*
X2190986Y816361D01*
X2200000Y815175D01*
X2209014Y816361D01*
X2217413Y819840D01*
X2224625Y825375D01*
X2230160Y832587D01*
X2233639Y840986D01*
X2234825Y850000D01*
X2233639Y859014D01*
X2230160Y867413D01*
X2224625Y874625D01*
X2217413Y880160D01*
X2209014Y883639D01*
X2200000Y884825D01*
X2200000Y884825D02*
G37*
G36*
X400000Y2420782D02*
X389445Y2419392D01*
X379609Y2415318D01*
X371163Y2408837D01*
X364682Y2400391D01*
X360608Y2390555D01*
X359218Y2380000D01*
X360608Y2369445D01*
X364682Y2359609D01*
X371163Y2351163D01*
X379609Y2344682D01*
X389445Y2340608D01*
X389804Y2340560D01*
X389804Y2319440D01*
X389445Y2319392D01*
X379609Y2315318D01*
X371163Y2308837D01*
X364682Y2300391D01*
X360608Y2290555D01*
X359218Y2280000D01*
X360608Y2269445D01*
X364682Y2259609D01*
X371163Y2251163D01*
X379609Y2244682D01*
X389445Y2240608D01*
X389804Y2240560D01*
X389804Y1310124D01*
X-46737Y873582D01*
X-48947Y870275D01*
X-49724Y866373D01*
X-49724Y674696D01*
X-54223Y670196D01*
X-60000Y670196D01*
X-63086Y669582D01*
X-71505Y669582D01*
X-75375Y674625D01*
X-82587Y680160D01*
X-90987Y683639D01*
X-100000Y684825D01*
X-109013Y683639D01*
X-117413Y680160D01*
X-124625Y674625D01*
X-130160Y667413D01*
X-133639Y659014D01*
X-134825Y650000D01*
X-133639Y640986D01*
X-130160Y632587D01*
X-124625Y625375D01*
X-117413Y619840D01*
X-109013Y616361D01*
X-100000Y615175D01*
X-90987Y616361D01*
X-82587Y619840D01*
X-75375Y625375D01*
X-69840Y632587D01*
X-66361Y640986D01*
X-65394Y648334D01*
X-65196Y648363D01*
X-60196Y644054D01*
X-60196Y470260D01*
X-65196Y469266D01*
X-65473Y469934D01*
X-71809Y478191D01*
X-80066Y484527D01*
X-89681Y488510D01*
X-95000Y489210D01*
X-95000Y450000D01*
X-95000Y410790D01*
X-89681Y411490D01*
X-80066Y415473D01*
X-71809Y421809D01*
X-65473Y430066D01*
X-65196Y430734D01*
X-60196Y429740D01*
X-60196Y-179740D01*
X-65196Y-180734D01*
X-65473Y-180066D01*
X-71809Y-171809D01*
X-80066Y-165473D01*
X-89681Y-161490D01*
X-95000Y-160790D01*
X-95000Y-200000D01*
X-95000Y-239210D01*
X-89681Y-238510D01*
X-80066Y-234527D01*
X-71809Y-228191D01*
X-65473Y-219934D01*
X-65196Y-219266D01*
X-60196Y-220260D01*
X-60196Y-279740D01*
X-65196Y-280734D01*
X-65473Y-280066D01*
X-71809Y-271809D01*
X-80066Y-265473D01*
X-89681Y-261490D01*
X-95000Y-260790D01*
X-95000Y-300000D01*
X-95000Y-339210D01*
X-89681Y-338510D01*
X-80066Y-334527D01*
X-71809Y-328191D01*
X-65473Y-319934D01*
X-65196Y-319266D01*
X-60196Y-320260D01*
X-60196Y-379740D01*
X-65196Y-380734D01*
X-65473Y-380066D01*
X-71809Y-371809D01*
X-80066Y-365473D01*
X-89681Y-361490D01*
X-95000Y-360790D01*
X-95000Y-400000D01*
X-95000Y-439210D01*
X-89681Y-438510D01*
X-80066Y-434527D01*
X-71809Y-428191D01*
X-65473Y-419934D01*
X-65196Y-419266D01*
X-60196Y-420260D01*
X-60196Y-479740D01*
X-65196Y-480734D01*
X-65473Y-480066D01*
X-71809Y-471809D01*
X-80066Y-465473D01*
X-89681Y-461490D01*
X-95000Y-460790D01*
X-95000Y-500000D01*
X-95000Y-539210D01*
X-89681Y-538510D01*
X-80066Y-534527D01*
X-71809Y-528191D01*
X-65473Y-519934D01*
X-65196Y-519266D01*
X-60196Y-520260D01*
X-60196Y-579740D01*
X-65196Y-580734D01*
X-65473Y-580066D01*
X-71809Y-571809D01*
X-80066Y-565473D01*
X-89681Y-561490D01*
X-95000Y-560790D01*
X-95000Y-600000D01*
X-95000Y-639210D01*
X-89681Y-638510D01*
X-80066Y-634527D01*
X-71809Y-628191D01*
X-65473Y-619934D01*
X-65196Y-619266D01*
X-60196Y-620260D01*
X-60196Y-650777D01*
X-80704Y-671285D01*
X-82587Y-669840D01*
X-90987Y-666361D01*
X-100000Y-665175D01*
X-109013Y-666361D01*
X-117413Y-669840D01*
X-124625Y-675375D01*
X-130160Y-682587D01*
X-133639Y-690986D01*
X-134825Y-700000D01*
X-133639Y-709014D01*
X-130160Y-717413D01*
X-124625Y-724625D01*
X-117413Y-730160D01*
X-109013Y-733639D01*
X-100000Y-734825D01*
X-90987Y-733639D01*
X-82587Y-730160D01*
X-75375Y-724625D01*
X-69840Y-717413D01*
X-66361Y-709014D01*
X-65175Y-700000D01*
X-66361Y-690986D01*
X-67886Y-687305D01*
X-47500Y-666919D01*
X-30649Y-683770D01*
X-33639Y-690986D01*
X-34825Y-700000D01*
X-33639Y-709014D01*
X-30160Y-717413D01*
X-24625Y-724625D01*
X-17413Y-730160D01*
X-9014Y-733639D01*
X0Y-734825D01*
X9014Y-733639D01*
X17413Y-730160D01*
X24625Y-724625D01*
X30160Y-717413D01*
X33639Y-709014D01*
X34825Y-700000D01*
X33639Y-690986D01*
X30160Y-682587D01*
X24625Y-675375D01*
X17413Y-669840D01*
X9014Y-666361D01*
X0Y-665175D01*
X-9014Y-666361D01*
X-16230Y-669351D01*
X-39804Y-645777D01*
X-39804Y-620260D01*
X-34804Y-619266D01*
X-34527Y-619934D01*
X-28191Y-628191D01*
X-19934Y-634527D01*
X-10319Y-638510D01*
X-5000Y-639210D01*
X-5000Y-600000D01*
X-5000Y-560790D01*
X-10319Y-561490D01*
X-19934Y-565473D01*
X-28191Y-571809D01*
X-34527Y-580066D01*
X-34804Y-580734D01*
X-39804Y-579740D01*
X-39804Y651399D01*
X-39674Y651480D01*
X-37807Y650910D01*
X-34656Y648712D01*
X-33639Y640986D01*
X-30160Y632587D01*
X-24625Y625375D01*
X-17413Y619840D01*
X-9014Y616361D01*
X0Y615175D01*
X9014Y616361D01*
X17413Y619840D01*
X24625Y625375D01*
X30160Y632587D01*
X33639Y640986D01*
X34825Y650000D01*
X33639Y659014D01*
X30160Y667413D01*
X24625Y674625D01*
X17413Y680160D01*
X9014Y683639D01*
X0Y684825D01*
X-9014Y683639D01*
X-17413Y680160D01*
X-24332Y674851D01*
X-25649Y675078D01*
X-29332Y676705D01*
X-29332Y723777D01*
X-26276Y724814D01*
X-24332Y725149D01*
X-17413Y719840D01*
X-9014Y716361D01*
X0Y715175D01*
X9014Y716361D01*
X17413Y719840D01*
X24625Y725375D01*
X30160Y732587D01*
X33639Y740986D01*
X34825Y750000D01*
X33639Y759014D01*
X30160Y767413D01*
X24625Y774625D01*
X17413Y780160D01*
X9014Y783639D01*
X0Y784825D01*
X-9014Y783639D01*
X-17413Y780160D01*
X-24332Y774851D01*
X-26276Y775186D01*
X-29332Y776223D01*
X-29332Y823777D01*
X-26276Y824814D01*
X-24332Y825149D01*
X-17413Y819840D01*
X-9014Y816361D01*
X0Y815175D01*
X9014Y816361D01*
X17413Y819840D01*
X24625Y825375D01*
X30160Y832587D01*
X33639Y840986D01*
X34825Y850000D01*
X33639Y859014D01*
X30160Y867413D01*
X24625Y874625D01*
X17413Y880160D01*
X9014Y883639D01*
X367Y884777D01*
X-771Y886389D01*
X-2198Y889283D01*
X407210Y1298691D01*
X409420Y1301999D01*
X410196Y1305900D01*
X410196Y2240560D01*
X410555Y2240608D01*
X420391Y2244682D01*
X428837Y2251163D01*
X435318Y2259609D01*
X439392Y2269445D01*
X440782Y2280000D01*
X439392Y2290555D01*
X435318Y2300391D01*
X428837Y2308837D01*
X420391Y2315318D01*
X410555Y2319392D01*
X410196Y2319440D01*
X410196Y2340560D01*
X410555Y2340608D01*
X420391Y2344682D01*
X428837Y2351163D01*
X435318Y2359609D01*
X439392Y2369445D01*
X440782Y2380000D01*
X439392Y2390555D01*
X435318Y2400391D01*
X428837Y2408837D01*
X420391Y2415318D01*
X410555Y2419392D01*
X400000Y2420782D01*
X400000Y2420782D02*
G37*
G36*
X2200000Y784825D02*
X2190986Y783639D01*
X2182587Y780160D01*
X2175375Y774625D01*
X2169840Y767413D01*
X2166361Y759014D01*
X2165175Y750000D01*
X2166361Y740986D01*
X2169840Y732587D01*
X2175375Y725375D01*
X2182587Y719840D01*
X2190986Y716361D01*
X2200000Y715175D01*
X2209014Y716361D01*
X2217413Y719840D01*
X2224625Y725375D01*
X2230160Y732587D01*
X2233639Y740986D01*
X2234825Y750000D01*
X2233639Y759014D01*
X2230160Y767413D01*
X2224625Y774625D01*
X2217413Y780160D01*
X2209014Y783639D01*
X2200000Y784825D01*
X2200000Y784825D02*
G37*
G36*
X2295000Y689210D02*
X2289681Y688510D01*
X2280066Y684527D01*
X2271809Y678191D01*
X2265473Y669934D01*
X2261490Y660319D01*
X2260790Y655000D01*
X2295000Y655000D01*
X2295000Y689210D01*
X2295000Y689210D02*
G37*
G36*
X1694197Y752235D02*
X1679839Y750344D01*
X1666459Y744802D01*
X1654970Y735986D01*
X1646154Y724497D01*
X1640612Y711118D01*
X1638722Y696760D01*
X1640612Y682402D01*
X1646154Y669023D01*
X1654970Y657534D01*
X1666459Y648718D01*
X1679839Y643176D01*
X1694197Y641285D01*
X1708555Y643176D01*
X1721934Y648718D01*
X1733423Y657534D01*
X1742239Y669023D01*
X1747781Y682402D01*
X1749671Y696760D01*
X1747781Y711118D01*
X1742239Y724497D01*
X1733423Y735986D01*
X1721934Y744802D01*
X1708555Y750344D01*
X1694197Y752235D01*
X1694197Y752235D02*
G37*
G36*
X-100000Y784825D02*
X-109013Y783639D01*
X-117413Y780160D01*
X-124625Y774625D01*
X-130160Y767413D01*
X-133639Y759014D01*
X-134825Y750000D01*
X-133639Y740986D01*
X-130649Y733770D01*
X-215635Y648785D01*
X-217845Y645477D01*
X-218621Y641575D01*
X-218621Y-3080072D01*
X-217845Y-3083974D01*
X-215635Y-3087282D01*
X36793Y-3339710D01*
X40101Y-3341920D01*
X43313Y-3342559D01*
X44505Y-3344884D01*
X44916Y-3347696D01*
X39428Y-3354849D01*
X35901Y-3363363D01*
X34698Y-3372500D01*
X35901Y-3381637D01*
X39428Y-3390151D01*
X45038Y-3397462D01*
X52349Y-3403072D01*
X60863Y-3406599D01*
X70000Y-3407802D01*
X79137Y-3406599D01*
X87651Y-3403072D01*
X94962Y-3397462D01*
X100572Y-3390151D01*
X104099Y-3381637D01*
X105302Y-3372500D01*
X104099Y-3363363D01*
X100572Y-3354849D01*
X95084Y-3347696D01*
X95350Y-3345879D01*
X96430Y-3342696D01*
X125777Y-3342696D01*
X138989Y-3355908D01*
X135901Y-3363363D01*
X134698Y-3372500D01*
X135901Y-3381637D01*
X139428Y-3390151D01*
X145038Y-3397462D01*
X152349Y-3403072D01*
X160863Y-3406599D01*
X170000Y-3407802D01*
X179137Y-3406599D01*
X187651Y-3403072D01*
X194962Y-3397462D01*
X200572Y-3390151D01*
X204099Y-3381637D01*
X205302Y-3372500D01*
X204099Y-3363363D01*
X200572Y-3354849D01*
X194962Y-3347538D01*
X187651Y-3341928D01*
X179137Y-3338401D01*
X170000Y-3337198D01*
X160863Y-3338401D01*
X153408Y-3341489D01*
X137210Y-3325290D01*
X133902Y-3323080D01*
X130000Y-3322304D01*
X48226Y-3322304D01*
X-156050Y-3118028D01*
X-154010Y-3112997D01*
X-148168Y-3112228D01*
X-140870Y-3109205D01*
X-134604Y-3104396D01*
X-129795Y-3098129D01*
X-126772Y-3090832D01*
X-125741Y-3083000D01*
X-126772Y-3075168D01*
X-129795Y-3067871D01*
X-134604Y-3061604D01*
X-140870Y-3056795D01*
X-148168Y-3053772D01*
X-156000Y-3052741D01*
X-163832Y-3053772D01*
X-171130Y-3056795D01*
X-177396Y-3061604D01*
X-182205Y-3067871D01*
X-185228Y-3075168D01*
X-185997Y-3081010D01*
X-191028Y-3083050D01*
X-198229Y-3075849D01*
X-198229Y-1095931D01*
X-193325Y-1094956D01*
X-192437Y-1097099D01*
X-183931Y-1110980D01*
X-173359Y-1123359D01*
X-160980Y-1133931D01*
X-147099Y-1142437D01*
X-132059Y-1148667D01*
X-116229Y-1152467D01*
X-100000Y-1153745D01*
X-83771Y-1152467D01*
X-67941Y-1148667D01*
X-52901Y-1142437D01*
X-39020Y-1133931D01*
X-26641Y-1123359D01*
X-16069Y-1110980D01*
X-7563Y-1097099D01*
X-1333Y-1082059D01*
X2467Y-1066229D01*
X3745Y-1050000D01*
X2467Y-1033771D01*
X-1333Y-1017941D01*
X-7563Y-1002901D01*
X-16069Y-989020D01*
X-26641Y-976641D01*
X-39020Y-966069D01*
X-52901Y-957563D01*
X-67941Y-951333D01*
X-83771Y-947533D01*
X-100000Y-946255D01*
X-116229Y-947533D01*
X-132059Y-951333D01*
X-147099Y-957563D01*
X-160980Y-966069D01*
X-173359Y-976641D01*
X-183931Y-989020D01*
X-192437Y-1002901D01*
X-193325Y-1005044D01*
X-198229Y-1004069D01*
X-198229Y637352D01*
X-116230Y719351D01*
X-109013Y716361D01*
X-100000Y715175D01*
X-90987Y716361D01*
X-82587Y719840D01*
X-75375Y725375D01*
X-69840Y732587D01*
X-66361Y740986D01*
X-65175Y750000D01*
X-66361Y759014D01*
X-69840Y767413D01*
X-75375Y774625D01*
X-82587Y780160D01*
X-90987Y783639D01*
X-100000Y784825D01*
X-100000Y784825D02*
G37*
G36*
X2305000Y689210D02*
X2305000Y655000D01*
X2339210Y655000D01*
X2338510Y660319D01*
X2334527Y669934D01*
X2328191Y678191D01*
X2319934Y684527D01*
X2310319Y688510D01*
X2305000Y689210D01*
X2305000Y689210D02*
G37*
G36*
X2305000Y489210D02*
X2305000Y455000D01*
X2339210Y455000D01*
X2338510Y460319D01*
X2334527Y469934D01*
X2328191Y478191D01*
X2319934Y484527D01*
X2310319Y488510D01*
X2305000Y489210D01*
X2305000Y489210D02*
G37*
G36*
X2305000Y289210D02*
X2305000Y255000D01*
X2339210Y255000D01*
X2338510Y260319D01*
X2334527Y269934D01*
X2328191Y278191D01*
X2319934Y284527D01*
X2310319Y288510D01*
X2305000Y289210D01*
X2305000Y289210D02*
G37*
G36*
X2295000Y289210D02*
X2289681Y288510D01*
X2280066Y284527D01*
X2271809Y278191D01*
X2265473Y269934D01*
X2261490Y260319D01*
X2260790Y255000D01*
X2295000Y255000D01*
X2295000Y289210D01*
X2295000Y289210D02*
G37*
G36*
X2339210Y345000D02*
X2305000Y345000D01*
X2305000Y310790D01*
X2310319Y311490D01*
X2319934Y315473D01*
X2328191Y321809D01*
X2334527Y330066D01*
X2338510Y339681D01*
X2339210Y345000D01*
X2339210Y345000D02*
G37*
G36*
X2295000Y345000D02*
X2260790Y345000D01*
X2261490Y339681D01*
X2265473Y330066D01*
X2271809Y321809D01*
X2280066Y315473D01*
X2289681Y311490D01*
X2295000Y310790D01*
X2295000Y345000D01*
X2295000Y345000D02*
G37*
G36*
X2200000Y284825D02*
X2190986Y283639D01*
X2182587Y280160D01*
X2175375Y274625D01*
X2169840Y267413D01*
X2166361Y259014D01*
X2165175Y250000D01*
X2166361Y240987D01*
X2169840Y232587D01*
X2175375Y225375D01*
X2182587Y219840D01*
X2190986Y216361D01*
X2200000Y215175D01*
X2209014Y216361D01*
X2217413Y219840D01*
X2224625Y225375D01*
X2230160Y232587D01*
X2233639Y240987D01*
X2234825Y250000D01*
X2233639Y259014D01*
X2230160Y267413D01*
X2224625Y274625D01*
X2217413Y280160D01*
X2209014Y283639D01*
X2200000Y284825D01*
X2200000Y284825D02*
G37*
G36*
X2305000Y189210D02*
X2305000Y155000D01*
X2339210Y155000D01*
X2338510Y160319D01*
X2334527Y169934D01*
X2328191Y178191D01*
X2319934Y184527D01*
X2310319Y188510D01*
X2305000Y189210D01*
X2305000Y189210D02*
G37*
G36*
X2295000Y189210D02*
X2289681Y188510D01*
X2280066Y184527D01*
X2271809Y178191D01*
X2265473Y169934D01*
X2261490Y160319D01*
X2260790Y155000D01*
X2295000Y155000D01*
X2295000Y189210D01*
X2295000Y189210D02*
G37*
G36*
X2339210Y245000D02*
X2305000Y245000D01*
X2305000Y210790D01*
X2310319Y211490D01*
X2319934Y215473D01*
X2328191Y221809D01*
X2334527Y230066D01*
X2338510Y239681D01*
X2339210Y245000D01*
X2339210Y245000D02*
G37*
G36*
X2295000Y245000D02*
X2260790Y245000D01*
X2261490Y239681D01*
X2265473Y230066D01*
X2271809Y221809D01*
X2280066Y215473D01*
X2289681Y211490D01*
X2295000Y210790D01*
X2295000Y245000D01*
X2295000Y245000D02*
G37*
G36*
X2200000Y384825D02*
X2190986Y383639D01*
X2182587Y380160D01*
X2175375Y374625D01*
X2169840Y367413D01*
X2166361Y359014D01*
X2165175Y350000D01*
X2166361Y340986D01*
X2169840Y332587D01*
X2175375Y325375D01*
X2182587Y319840D01*
X2190986Y316361D01*
X2200000Y315175D01*
X2209014Y316361D01*
X2217413Y319840D01*
X2224625Y325375D01*
X2230160Y332587D01*
X2233639Y340986D01*
X2234825Y350000D01*
X2233639Y359014D01*
X2230160Y367413D01*
X2224625Y374625D01*
X2217413Y380160D01*
X2209014Y383639D01*
X2200000Y384825D01*
X2200000Y384825D02*
G37*
G36*
X2200000Y484825D02*
X2190986Y483639D01*
X2182587Y480160D01*
X2175375Y474625D01*
X2169840Y467413D01*
X2166361Y459014D01*
X2165175Y450000D01*
X2166361Y440986D01*
X2169840Y432587D01*
X2175375Y425375D01*
X2182587Y419840D01*
X2190986Y416361D01*
X2200000Y415175D01*
X2209014Y416361D01*
X2217413Y419840D01*
X2224625Y425375D01*
X2230160Y432587D01*
X2233639Y440986D01*
X2234825Y450000D01*
X2233639Y459014D01*
X2230160Y467413D01*
X2224625Y474625D01*
X2217413Y480160D01*
X2209014Y483639D01*
X2200000Y484825D01*
X2200000Y484825D02*
G37*
G36*
X0Y484825D02*
X-9014Y483639D01*
X-17413Y480160D01*
X-24625Y474625D01*
X-30160Y467413D01*
X-33639Y459014D01*
X-34825Y450000D01*
X-33639Y440986D01*
X-30160Y432587D01*
X-24625Y425375D01*
X-17413Y419840D01*
X-9014Y416361D01*
X0Y415175D01*
X9014Y416361D01*
X17413Y419840D01*
X24625Y425375D01*
X30160Y432587D01*
X33639Y440986D01*
X34825Y450000D01*
X33639Y459014D01*
X30160Y467413D01*
X24625Y474625D01*
X17413Y480160D01*
X9014Y483639D01*
X0Y484825D01*
X0Y484825D02*
G37*
G36*
X2295000Y489210D02*
X2289681Y488510D01*
X2280066Y484527D01*
X2271809Y478191D01*
X2265473Y469934D01*
X2261490Y460319D01*
X2260790Y455000D01*
X2295000Y455000D01*
X2295000Y489210D01*
X2295000Y489210D02*
G37*
G36*
X-105000Y489210D02*
X-110319Y488510D01*
X-119934Y484527D01*
X-128191Y478191D01*
X-134527Y469934D01*
X-138510Y460319D01*
X-139210Y455000D01*
X-105000Y455000D01*
X-105000Y489210D01*
X-105000Y489210D02*
G37*
G36*
X2339210Y445000D02*
X2305000Y445000D01*
X2305000Y410790D01*
X2310319Y411490D01*
X2319934Y415473D01*
X2328191Y421809D01*
X2334527Y430066D01*
X2338510Y439681D01*
X2339210Y445000D01*
X2339210Y445000D02*
G37*
G36*
X2305000Y389210D02*
X2305000Y355000D01*
X2339210Y355000D01*
X2338510Y360319D01*
X2334527Y369934D01*
X2328191Y378191D01*
X2319934Y384527D01*
X2310319Y388510D01*
X2305000Y389210D01*
X2305000Y389210D02*
G37*
G36*
X2295000Y389210D02*
X2289681Y388510D01*
X2280066Y384527D01*
X2271809Y378191D01*
X2265473Y369934D01*
X2261490Y360319D01*
X2260790Y355000D01*
X2295000Y355000D01*
X2295000Y389210D01*
X2295000Y389210D02*
G37*
G36*
X2295000Y445000D02*
X2260790Y445000D01*
X2261490Y439681D01*
X2265473Y430066D01*
X2271809Y421809D01*
X2280066Y415473D01*
X2289681Y411490D01*
X2295000Y410790D01*
X2295000Y445000D01*
X2295000Y445000D02*
G37*
G36*
X-105000Y445000D02*
X-139210Y445000D01*
X-138510Y439681D01*
X-134527Y430066D01*
X-128191Y421809D01*
X-119934Y415473D01*
X-110319Y411490D01*
X-105000Y410790D01*
X-105000Y445000D01*
X-105000Y445000D02*
G37*
G36*
X2300000Y884825D02*
X2290986Y883639D01*
X2282587Y880160D01*
X2275375Y874625D01*
X2269840Y867413D01*
X2266361Y859014D01*
X2265175Y850000D01*
X2266361Y840986D01*
X2269840Y832587D01*
X2275375Y825375D01*
X2282587Y819840D01*
X2290986Y816361D01*
X2300000Y815175D01*
X2309014Y816361D01*
X2317413Y819840D01*
X2324625Y825375D01*
X2330160Y832587D01*
X2333639Y840986D01*
X2334825Y850000D01*
X2333639Y859014D01*
X2330160Y867413D01*
X2324625Y874625D01*
X2317413Y880160D01*
X2309014Y883639D01*
X2300000Y884825D01*
X2300000Y884825D02*
G37*
G36*
X1580967Y1348460D02*
X1492227Y1348460D01*
X1492227Y1314460D01*
X1580967Y1314460D01*
X1580967Y1348460D01*
X1580967Y1348460D02*
G37*
G36*
X1896167Y1309060D02*
X1807427Y1309060D01*
X1807427Y1275060D01*
X1896167Y1275060D01*
X1896167Y1309060D01*
X1896167Y1309060D02*
G37*
G36*
X1580967Y1387860D02*
X1492227Y1387860D01*
X1492227Y1353860D01*
X1580967Y1353860D01*
X1580967Y1387860D01*
X1580967Y1387860D02*
G37*
G36*
X1580967Y1427260D02*
X1492227Y1427260D01*
X1492227Y1393260D01*
X1580967Y1393260D01*
X1580967Y1427260D01*
X1580967Y1427260D02*
G37*
G36*
X1740000Y1389147D02*
X1732673Y1387690D01*
X1726461Y1383539D01*
X1722310Y1377327D01*
X1720853Y1370000D01*
X1722310Y1362673D01*
X1726461Y1356461D01*
X1732122Y1352678D01*
X1732417Y1350000D01*
X1732122Y1347322D01*
X1726461Y1343539D01*
X1722310Y1337327D01*
X1720853Y1330000D01*
X1722310Y1322673D01*
X1726461Y1316461D01*
X1732673Y1312310D01*
X1740000Y1310853D01*
X1747327Y1312310D01*
X1753539Y1316461D01*
X1756261Y1320534D01*
X1807427Y1320534D01*
X1807427Y1314460D01*
X1896167Y1314460D01*
X1896167Y1348460D01*
X1807427Y1348460D01*
X1807427Y1340926D01*
X1755285Y1340926D01*
X1753539Y1343539D01*
X1747878Y1347322D01*
X1747583Y1350000D01*
X1747878Y1352678D01*
X1753539Y1356461D01*
X1756061Y1360234D01*
X1807427Y1360234D01*
X1807427Y1353860D01*
X1896167Y1353860D01*
X1896167Y1387860D01*
X1807427Y1387860D01*
X1807427Y1380626D01*
X1755486Y1380626D01*
X1753539Y1383539D01*
X1747327Y1387690D01*
X1740000Y1389147D01*
X1740000Y1389147D02*
G37*
G36*
X1896167Y1230260D02*
X1807427Y1230260D01*
X1807427Y1196260D01*
X1896167Y1196260D01*
X1896167Y1230260D01*
X1896167Y1230260D02*
G37*
G36*
X1580967Y1230260D02*
X1492227Y1230260D01*
X1492227Y1196260D01*
X1580967Y1196260D01*
X1580967Y1230260D01*
X1580967Y1230260D02*
G37*
G36*
X1580967Y1269660D02*
X1492227Y1269660D01*
X1492227Y1235660D01*
X1580967Y1235660D01*
X1580967Y1269660D01*
X1580967Y1269660D02*
G37*
G36*
X1580967Y1309060D02*
X1492227Y1309060D01*
X1492227Y1275060D01*
X1580967Y1275060D01*
X1580967Y1309060D01*
X1580967Y1309060D02*
G37*
G36*
X1896167Y1269660D02*
X1807427Y1269660D01*
X1807427Y1261526D01*
X1774885Y1261526D01*
X1773539Y1263539D01*
X1767327Y1267690D01*
X1760000Y1269147D01*
X1752673Y1267690D01*
X1746461Y1263539D01*
X1742310Y1257327D01*
X1740853Y1250000D01*
X1742310Y1242673D01*
X1746461Y1236461D01*
X1752673Y1232310D01*
X1760000Y1230853D01*
X1767327Y1232310D01*
X1773539Y1236461D01*
X1776662Y1241134D01*
X1807427Y1241134D01*
X1807427Y1235660D01*
X1896167Y1235660D01*
X1896167Y1269660D01*
X1896167Y1269660D02*
G37*
G36*
X1896167Y1584860D02*
X1807427Y1584860D01*
X1807427Y1550860D01*
X1896167Y1550860D01*
X1896167Y1584860D01*
X1896167Y1584860D02*
G37*
G36*
X1580967Y1584860D02*
X1492227Y1584860D01*
X1492227Y1550860D01*
X1580967Y1550860D01*
X1580967Y1584860D01*
X1580967Y1584860D02*
G37*
G36*
X1401952Y1642488D02*
X1332897Y1642488D01*
X1332897Y1583275D01*
X1401952Y1583275D01*
X1401952Y1597064D01*
X1492227Y1597064D01*
X1492227Y1590260D01*
X1580967Y1590260D01*
X1580967Y1624260D01*
X1492227Y1624260D01*
X1492227Y1617456D01*
X1401952Y1617456D01*
X1401952Y1642488D01*
X1401952Y1642488D02*
G37*
G36*
X2071999Y2117825D02*
X2062986Y2116639D01*
X2054587Y2113160D01*
X2047374Y2107625D01*
X2041840Y2100413D01*
X2038361Y2092014D01*
X2037174Y2083000D01*
X2038361Y2073987D01*
X2041840Y2065587D01*
X2047374Y2058375D01*
X2054587Y2052840D01*
X2061803Y2049851D01*
X2061803Y1929416D01*
X1742034Y1609646D01*
X1737893Y1612576D01*
X1737893Y1621136D01*
X1737117Y1625038D01*
X1734906Y1628346D01*
X1680090Y1683163D01*
X1676782Y1685373D01*
X1672880Y1686149D01*
X1401952Y1686149D01*
X1401952Y1725166D01*
X1332897Y1725166D01*
X1332897Y1665953D01*
X1386046Y1665953D01*
X1387031Y1665757D01*
X1668657Y1665757D01*
X1693461Y1640952D01*
X1691669Y1635673D01*
X1686757Y1635026D01*
X1679824Y1632155D01*
X1673870Y1627586D01*
X1669302Y1621633D01*
X1666430Y1614700D01*
X1665451Y1607260D01*
X1666430Y1599820D01*
X1669302Y1592887D01*
X1673870Y1586934D01*
X1679824Y1582365D01*
X1686757Y1579494D01*
X1694197Y1578514D01*
X1701637Y1579494D01*
X1708570Y1582365D01*
X1714523Y1586934D01*
X1719091Y1592887D01*
X1719946Y1594949D01*
X1724850Y1595924D01*
X1730804Y1589970D01*
X1730804Y1533087D01*
X1731580Y1529185D01*
X1733790Y1525877D01*
X1807427Y1452241D01*
X1807427Y1432660D01*
X1896167Y1432660D01*
X1896167Y1439464D01*
X1954945Y1439464D01*
X1954945Y1429732D01*
X2016126Y1429732D01*
X2016126Y1473197D01*
X1954945Y1473197D01*
X1954945Y1459856D01*
X1896167Y1459856D01*
X1896167Y1466660D01*
X1826154Y1466660D01*
X1825887Y1467060D01*
X1828559Y1472060D01*
X1896167Y1472060D01*
X1896167Y1506060D01*
X1807427Y1506060D01*
X1807427Y1487612D01*
X1802807Y1485699D01*
X1751196Y1537310D01*
X1751196Y1589970D01*
X2079209Y1917983D01*
X2081419Y1921291D01*
X2082195Y1925193D01*
X2082195Y2049851D01*
X2089412Y2052840D01*
X2096625Y2058375D01*
X2102159Y2065587D01*
X2105638Y2073987D01*
X2106825Y2083000D01*
X2105638Y2092014D01*
X2102159Y2100413D01*
X2096625Y2107625D01*
X2089412Y2113160D01*
X2081013Y2116639D01*
X2071999Y2117825D01*
X2071999Y2117825D02*
G37*
G36*
X1896167Y1624260D02*
X1807427Y1624260D01*
X1807427Y1590260D01*
X1896167Y1590260D01*
X1896167Y1624260D01*
X1896167Y1624260D02*
G37*
G36*
X1580967Y1466660D02*
X1492227Y1466660D01*
X1492227Y1432660D01*
X1580967Y1432660D01*
X1580967Y1466660D01*
X1580967Y1466660D02*
G37*
G36*
X1896167Y1427260D02*
X1807427Y1427260D01*
X1807427Y1393260D01*
X1896167Y1393260D01*
X1896167Y1427260D01*
X1896167Y1427260D02*
G37*
G36*
X1580967Y1506060D02*
X1492227Y1506060D01*
X1492227Y1472060D01*
X1580967Y1472060D01*
X1580967Y1506060D01*
X1580967Y1506060D02*
G37*
G36*
X2171999Y2117825D02*
X2162986Y2116639D01*
X2154587Y2113160D01*
X2147374Y2107625D01*
X2141840Y2100413D01*
X2138361Y2092014D01*
X2137174Y2083000D01*
X2138361Y2073987D01*
X2141840Y2065587D01*
X2147374Y2058375D01*
X2154587Y2052840D01*
X2161803Y2049851D01*
X2161803Y1689844D01*
X2010615Y1538656D01*
X1896167Y1538656D01*
X1896167Y1545460D01*
X1807427Y1545460D01*
X1807427Y1511460D01*
X1896167Y1511460D01*
X1896167Y1518264D01*
X2010615Y1518264D01*
X2033830Y1495050D01*
X2033830Y1492383D01*
X2034606Y1488481D01*
X2036816Y1485174D01*
X2063213Y1458777D01*
X2063213Y1421857D01*
X2128331Y1421857D01*
X2128331Y1473196D01*
X2077632Y1473196D01*
X2054221Y1496607D01*
X2054221Y1499273D01*
X2053445Y1503175D01*
X2051235Y1506483D01*
X2029258Y1528460D01*
X2179209Y1678411D01*
X2181419Y1681719D01*
X2182195Y1685621D01*
X2182195Y2049851D01*
X2189412Y2052840D01*
X2196625Y2058375D01*
X2202159Y2065587D01*
X2205638Y2073987D01*
X2206825Y2083000D01*
X2205638Y2092014D01*
X2202159Y2100413D01*
X2196625Y2107625D01*
X2189412Y2113160D01*
X2181013Y2116639D01*
X2171999Y2117825D01*
X2171999Y2117825D02*
G37*
G36*
X1580967Y1545460D02*
X1492227Y1545460D01*
X1492227Y1511460D01*
X1580967Y1511460D01*
X1580967Y1545460D01*
X1580967Y1545460D02*
G37*
G36*
X2250000Y1403745D02*
X2233771Y1402468D01*
X2217941Y1398667D01*
X2202901Y1392438D01*
X2189020Y1383931D01*
X2176641Y1373359D01*
X2166068Y1360980D01*
X2157562Y1347099D01*
X2151333Y1332059D01*
X2147532Y1316229D01*
X2146255Y1300000D01*
X2147532Y1283771D01*
X2151333Y1267941D01*
X2157562Y1252901D01*
X2166068Y1239020D01*
X2176641Y1226641D01*
X2189020Y1216069D01*
X2202901Y1207562D01*
X2217941Y1201333D01*
X2233771Y1197532D01*
X2250000Y1196255D01*
X2266229Y1197532D01*
X2282059Y1201333D01*
X2297099Y1207562D01*
X2310980Y1216069D01*
X2323359Y1226641D01*
X2333932Y1239020D01*
X2342438Y1252901D01*
X2348667Y1267941D01*
X2352468Y1283771D01*
X2353745Y1300000D01*
X2352468Y1316229D01*
X2348667Y1332059D01*
X2342438Y1347099D01*
X2333932Y1360980D01*
X2323359Y1373359D01*
X2310980Y1383931D01*
X2297099Y1392438D01*
X2282059Y1398667D01*
X2266229Y1402468D01*
X2250000Y1403745D01*
X2250000Y1403745D02*
G37*
G36*
X1580967Y1033260D02*
X1492227Y1033260D01*
X1492227Y999260D01*
X1580967Y999260D01*
X1580967Y1033260D01*
X1580967Y1033260D02*
G37*
G36*
X1580967Y993860D02*
X1492227Y993860D01*
X1492227Y959860D01*
X1580967Y959860D01*
X1580967Y993860D01*
X1580967Y993860D02*
G37*
G36*
X1580967Y1072660D02*
X1492227Y1072660D01*
X1492227Y1038660D01*
X1580967Y1038660D01*
X1580967Y1072660D01*
X1580967Y1072660D02*
G37*
G36*
X1896167Y1033260D02*
X1807427Y1033260D01*
X1807427Y999260D01*
X1896167Y999260D01*
X1896167Y1033260D01*
X1896167Y1033260D02*
G37*
G36*
X1580967Y954460D02*
X1492227Y954460D01*
X1492227Y920460D01*
X1580967Y920460D01*
X1580967Y954460D01*
X1580967Y954460D02*
G37*
G36*
X1901167Y853660D02*
X1856797Y853660D01*
X1856797Y836660D01*
X1901167Y836660D01*
X1901167Y853660D01*
X1901167Y853660D02*
G37*
G36*
X1692597Y887406D02*
X1685157Y886426D01*
X1678224Y883555D01*
X1672270Y878986D01*
X1667702Y873033D01*
X1664830Y866100D01*
X1663851Y858660D01*
X1664830Y851220D01*
X1667702Y844287D01*
X1672270Y838334D01*
X1678224Y833765D01*
X1685157Y830894D01*
X1692597Y829914D01*
X1700037Y830894D01*
X1706970Y833765D01*
X1712923Y838334D01*
X1717492Y844287D01*
X1720363Y851220D01*
X1721343Y858660D01*
X1720363Y866100D01*
X1717492Y873033D01*
X1712923Y878986D01*
X1706970Y883555D01*
X1700037Y886426D01*
X1692597Y887406D01*
X1692597Y887406D02*
G37*
G36*
X1580967Y915060D02*
X1492227Y915060D01*
X1492227Y881060D01*
X1580967Y881060D01*
X1580967Y915060D01*
X1580967Y915060D02*
G37*
G36*
X1580967Y875660D02*
X1492227Y875660D01*
X1492227Y841660D01*
X1580967Y841660D01*
X1580967Y875660D01*
X1580967Y875660D02*
G37*
G36*
X1580967Y1190860D02*
X1492227Y1190860D01*
X1492227Y1156860D01*
X1580967Y1156860D01*
X1580967Y1190860D01*
X1580967Y1190860D02*
G37*
G36*
X1896167Y1151460D02*
X1807427Y1151460D01*
X1807427Y1117460D01*
X1896167Y1117460D01*
X1896167Y1151460D01*
X1896167Y1151460D02*
G37*
G36*
X-100000Y1403745D02*
X-116229Y1402468D01*
X-132059Y1398667D01*
X-147099Y1392438D01*
X-160980Y1383931D01*
X-173359Y1373359D01*
X-183931Y1360980D01*
X-192438Y1347099D01*
X-198667Y1332059D01*
X-202468Y1316229D01*
X-203745Y1300000D01*
X-202468Y1283771D01*
X-198667Y1267941D01*
X-192438Y1252901D01*
X-183931Y1239020D01*
X-173359Y1226641D01*
X-160980Y1216069D01*
X-147099Y1207562D01*
X-132059Y1201333D01*
X-116229Y1197532D01*
X-100000Y1196255D01*
X-83771Y1197532D01*
X-67941Y1201333D01*
X-52901Y1207562D01*
X-39020Y1216069D01*
X-26641Y1226641D01*
X-16069Y1239020D01*
X-7562Y1252901D01*
X-1333Y1267941D01*
X2468Y1283771D01*
X3745Y1300000D01*
X2468Y1316229D01*
X-1333Y1332059D01*
X-7562Y1347099D01*
X-16069Y1360980D01*
X-26641Y1373359D01*
X-39020Y1383931D01*
X-52901Y1392438D01*
X-67941Y1398667D01*
X-83771Y1402468D01*
X-100000Y1403745D01*
X-100000Y1403745D02*
G37*
G36*
X1896167Y1190860D02*
X1807427Y1190860D01*
X1807427Y1156860D01*
X1896167Y1156860D01*
X1896167Y1190860D01*
X1896167Y1190860D02*
G37*
G36*
X1580967Y1151460D02*
X1492227Y1151460D01*
X1492227Y1117460D01*
X1580967Y1117460D01*
X1580967Y1151460D01*
X1580967Y1151460D02*
G37*
G36*
X1896167Y1072660D02*
X1807427Y1072660D01*
X1807427Y1038660D01*
X1896167Y1038660D01*
X1896167Y1072660D01*
X1896167Y1072660D02*
G37*
G36*
X1580967Y1112060D02*
X1492227Y1112060D01*
X1492227Y1078060D01*
X1580967Y1078060D01*
X1580967Y1112060D01*
X1580967Y1112060D02*
G37*
G36*
X2128331Y1398394D02*
X2063213Y1398394D01*
X2063213Y1347055D01*
X2079804Y1347055D01*
X2079804Y1158249D01*
X2074870Y1156205D01*
X2068604Y1151396D01*
X2063795Y1145129D01*
X2060772Y1137832D01*
X2059741Y1130000D01*
X2060772Y1122168D01*
X2063795Y1114871D01*
X2068604Y1108604D01*
X2074870Y1103795D01*
X2082168Y1100772D01*
X2090000Y1099741D01*
X2097832Y1100772D01*
X2105130Y1103795D01*
X2111396Y1108604D01*
X2116205Y1114871D01*
X2119228Y1122168D01*
X2120259Y1130000D01*
X2119228Y1137832D01*
X2116205Y1145129D01*
X2111396Y1151396D01*
X2105130Y1156205D01*
X2100196Y1158249D01*
X2100196Y1347055D01*
X2128331Y1347055D01*
X2128331Y1398394D01*
X2128331Y1398394D02*
G37*
G36*
X1896167Y1112060D02*
X1807427Y1112060D01*
X1807427Y1078060D01*
X1896167Y1078060D01*
X1896167Y1112060D01*
X1896167Y1112060D02*
G37*
%LPD*%
G36*
X1270458Y-3821967D02*
X1270458Y-3904706D01*
X1154833Y-4020330D01*
X1150890Y-4019546D01*
X1143562Y-4021003D01*
X1137622Y-4024972D01*
X1137222Y-4025140D01*
X1135602Y-4024969D01*
X1133114Y-4021003D01*
X1132825Y-4019649D01*
X1134147Y-4013000D01*
X1132690Y-4005673D01*
X1128539Y-3999461D01*
X1122327Y-3995310D01*
X1115000Y-3993853D01*
X1107673Y-3995310D01*
X1106262Y-3996253D01*
X1101999Y-3993088D01*
X1103108Y-3987512D01*
X1102323Y-3983568D01*
X1265838Y-3820053D01*
X1270458Y-3821967D01*
X1270458Y-3821967D02*
G37*
G36*
X735074Y-3922551D02*
X733572Y-3925151D01*
X550924Y-3925151D01*
X547022Y-3925928D01*
X543715Y-3928138D01*
X369548Y-4102304D01*
X196430Y-4102304D01*
X195350Y-4099121D01*
X195084Y-4097304D01*
X200572Y-4090151D01*
X204099Y-4081637D01*
X205302Y-4072500D01*
X204099Y-4063363D01*
X200572Y-4054849D01*
X194962Y-4047538D01*
X187651Y-4041928D01*
X179137Y-4038401D01*
X170000Y-4037198D01*
X160863Y-4038401D01*
X152349Y-4041928D01*
X145038Y-4047538D01*
X139428Y-4054849D01*
X135901Y-4063363D01*
X135196Y-4068718D01*
X130196Y-4068390D01*
X130196Y-4054223D01*
X154223Y-4030196D01*
X403476Y-4030196D01*
X407377Y-4029420D01*
X410685Y-4027210D01*
X517943Y-3919951D01*
X733572Y-3919951D01*
X735074Y-3922551D01*
X735074Y-3922551D02*
G37*
D10*
X1985535Y1451465D02*
D03*
X1985535Y1384535D02*
D03*
X245000Y2623465D02*
D03*
X245000Y2556535D02*
D03*
X430000Y2623465D02*
D03*
X430000Y2556535D02*
D03*
X625000Y2623465D02*
D03*
X625000Y2556535D02*
D03*
X50000Y2623465D02*
D03*
X50000Y2556535D02*
D03*
X2194196Y-4131213D02*
D03*
X2194196Y-4198141D02*
D03*
X2265064Y-4198141D02*
D03*
X2265064Y-4131213D02*
D03*
D12*
X1790000Y-3172598D02*
D03*
X1790000Y-3247401D02*
D03*
X2095772Y1372725D02*
D03*
X2095772Y1447527D02*
D03*
D18*
X1563978Y-3066323D02*
X1565591Y-3066323D01*
X1562687Y-3065032D02*
X1563978Y-3066323D01*
X1534782Y-3065032D02*
X1562687Y-3065032D01*
X1533455Y-3064685D02*
X1534291Y-3065522D01*
X1471850Y-3064685D02*
X1533455Y-3064685D01*
X1280653Y-3129347D02*
X1384685Y-3025315D01*
X1304433Y-3130567D02*
X1390000Y-3045000D01*
X1534291Y-3046638D02*
X1542047Y-3046638D01*
X1534291Y-3026953D02*
X1542047Y-3026953D01*
X1534291Y-3065522D02*
X1534782Y-3065032D01*
X1445748Y-3090787D02*
X1471850Y-3064685D01*
X1430000Y-3090787D02*
X1445748Y-3090787D01*
X1533455Y-3045000D02*
X1534291Y-3045836D01*
X1390000Y-3045000D02*
X1533455Y-3045000D01*
X1304433Y-3794598D02*
X1304433Y-3130567D01*
X1533455Y-3025315D02*
X1534291Y-3026151D01*
X1384685Y-3025315D02*
X1533455Y-3025315D01*
X1280653Y-3908929D02*
X1280653Y-3129347D01*
X1695709Y-3045000D02*
X1696055Y-3045346D01*
X1766246Y-3025315D02*
X1953431Y-3212500D01*
X1903130Y-3005630D02*
X1967519Y-3070019D01*
X1908438Y-2989724D02*
X1931213Y-3012500D01*
X2010000Y-3012500D02*
X2067519Y-3070019D01*
X1640000Y-3638330D02*
X1640000Y-3000000D01*
X1189441Y-4088889D02*
X1640000Y-3638330D01*
X-90614Y659386D02*
X-60614Y659386D01*
X-100000Y650000D02*
X-90614Y659386D01*
X-60614Y659386D02*
X-60000Y660000D01*
X2339528Y-766373D02*
X2339528Y-224025D01*
X1830631Y-1019369D02*
X2030631Y-1019369D01*
X2300000Y-750000D01*
X2141575Y-964326D02*
X2339528Y-766373D01*
X2006126Y109377D02*
X2006126Y1372802D01*
X2090264Y-527143D02*
X2106934Y-510472D01*
X1950000Y-527143D02*
X2090264Y-527143D01*
X2106934Y-510472D02*
X2260472Y-510472D01*
X2300000Y-550000D01*
X849000Y2612000D02*
X921504Y2612000D01*
X1740000Y1370000D02*
X1740430Y1370430D01*
X1851367Y1370430D01*
X921504Y2612000D02*
X924504Y2609000D01*
X1211496Y2551000D02*
X1667519Y2551000D01*
X1156520Y2605976D02*
X1156520Y2610898D01*
X1156520Y2605976D02*
X1211496Y2551000D01*
X1071945Y2609000D02*
X1073842Y2610898D01*
X987496Y2609000D02*
X1071945Y2609000D01*
X298504Y2511496D02*
X300000Y2510000D01*
X298504Y2511496D02*
X298504Y2589999D01*
X162500Y-4112500D02*
X373772Y-4112500D01*
X130000Y-4145000D02*
X162500Y-4112500D01*
X130000Y-4232500D02*
X130000Y-4145000D01*
X120000Y-4050000D02*
X150000Y-4020000D01*
X120000Y-4122500D02*
X120000Y-4050000D01*
X67519Y-4174981D02*
X120000Y-4122500D01*
X403476Y-4020000D02*
X513720Y-3909755D01*
X150000Y-4020000D02*
X403476Y-4020000D01*
X2045000Y-2425000D02*
X2090000Y-2425000D01*
X2030000Y-2440000D02*
X2045000Y-2425000D01*
X2030000Y-2832500D02*
X2030000Y-2440000D01*
X995000Y-1647500D02*
X995000Y1800000D01*
X960000Y-1539069D02*
X960000Y1845000D01*
X1301073Y-4154730D02*
X1304433Y-4151370D01*
X1282199Y-4154730D02*
X1301073Y-4154730D01*
X1067519Y-4369410D02*
X1282199Y-4154730D01*
X2067519Y-3281164D02*
X2067519Y-3270019D01*
X1695709Y-3025315D02*
X1766246Y-3025315D01*
X1783110Y-3247401D02*
X1790000Y-3247401D01*
X1729630Y-3193921D02*
X1783110Y-3247401D01*
X1729630Y-3193921D02*
X1729630Y-3086087D01*
X1151873Y-4037709D02*
X1280653Y-3908929D01*
X1265653Y-3805819D02*
X1265653Y-3066718D01*
X1083961Y-3987512D02*
X1265653Y-3805819D01*
X1824427Y1449660D02*
X1983731Y1449660D01*
X1741000Y1594193D02*
X2071999Y1925193D01*
X2071999Y2083000D01*
X2014838Y1528460D02*
X2171999Y1685621D01*
X2044025Y1492383D02*
X2088882Y1447527D01*
X2044025Y1492383D02*
X2044025Y1499273D01*
X2014838Y1528460D02*
X2044025Y1499273D01*
X2171999Y1685621D02*
X2171999Y2083000D01*
X1851797Y1528460D02*
X2014838Y1528460D01*
X1257677Y-2938323D02*
X1257677Y1972323D01*
X1117000Y-3079000D02*
X1257677Y-2938323D01*
X1006647Y-4012559D02*
X1114559Y-4012559D01*
X1115000Y-4013000D01*
X1967519Y-3081164D02*
X1967519Y-3070019D01*
X1985535Y1384535D02*
X1994394Y1384535D01*
X2006126Y1372802D01*
X1503979Y2622362D02*
X1581819Y2622362D01*
X1502315Y2620698D02*
X1503979Y2622362D01*
X865607Y-4052585D02*
X865607Y-4020826D01*
X745692Y-4172500D02*
X865607Y-4052585D01*
X67519Y-4181164D02*
X67519Y-4174981D01*
X167519Y-4181164D02*
X176183Y-4172500D01*
X167519Y-4281164D02*
X167519Y-4270019D01*
X130000Y-4232500D02*
X167519Y-4270019D01*
X373772Y-4112500D02*
X550924Y-3935347D01*
X513720Y-3909755D02*
X775889Y-3909755D01*
X865607Y-4020826D02*
X976678Y-3909755D01*
X176183Y-4172500D02*
X745692Y-4172500D01*
X1006205Y-3986527D02*
X1006697Y-3987020D01*
X1006205Y-4012117D02*
X1006647Y-4012559D01*
X1006205Y-3935347D02*
X1035733Y-3935347D01*
X1006697Y-4038201D02*
X1150398Y-4038201D01*
X1006697Y-3987020D02*
X1083468Y-3987020D01*
X1006205Y-4037709D02*
X1006697Y-4038201D01*
X1035733Y-3935347D02*
X1064276Y-3906805D01*
X1064276Y-3877276D01*
X1695709Y-3005630D02*
X1903130Y-3005630D01*
X775397Y-3987020D02*
X775889Y-3986527D01*
X714374Y-3987020D02*
X775397Y-3987020D01*
X1006205Y-4088889D02*
X1189441Y-4088889D01*
X1650276Y-2989724D02*
X1908438Y-2989724D01*
X2067519Y-3081164D02*
X2067519Y-3070019D01*
X1640000Y-3000000D02*
X1650276Y-2989724D01*
X1067519Y-4388284D02*
X1067519Y-4369410D01*
X2067519Y-4081164D02*
X2076183Y-4072500D01*
X2126625Y-4072500D01*
X2194197Y-4131213D02*
X2265064Y-4131213D01*
X2194196Y-4131213D02*
X2194197Y-4131213D01*
X2067519Y-2481164D02*
X2078664Y-2481164D01*
X2300654Y-4171409D02*
X2300654Y-2703154D01*
X2078664Y-2481164D02*
X2300654Y-2703154D01*
X2273922Y-4198141D02*
X2300654Y-4171409D01*
X1373045Y1607260D02*
X1536597Y1607260D01*
X1367424Y1612881D02*
X1373045Y1607260D01*
X1367424Y1695559D02*
X1387031Y1675953D01*
X1672880Y1675953D02*
X1727697Y1621136D01*
X1983731Y1449660D02*
X1985535Y1451465D01*
X2088882Y1447527D02*
X2095772Y1447527D01*
X550924Y-3935347D02*
X775889Y-3935347D01*
X1150398Y-4038201D02*
X1150890Y-4038693D01*
X976678Y-3909755D02*
X1006205Y-3909755D01*
X713882Y-3987512D02*
X714374Y-3987020D01*
X1851797Y937460D02*
X1851797Y976860D01*
X169425Y-2479000D02*
X169425Y-2473075D01*
X995000Y-1647500D01*
X960000Y1845000D02*
X990000Y1875000D01*
X186569Y-2312500D02*
X960000Y-1539069D01*
X69425Y-2379000D02*
X69425Y-2373075D01*
X2030000Y-2832500D02*
X2069425Y-2871925D01*
X2069425Y-2879000D02*
X2069425Y-2871925D01*
X2090000Y1366953D02*
X2095772Y1372725D01*
X2090000Y1130000D02*
X2090000Y1366953D01*
X1083468Y-3987020D02*
X1083961Y-3987512D01*
X-47575Y-652426D02*
X0Y-700000D01*
X69425Y-2373075D02*
X130000Y-2312500D01*
X186569Y-2312500D01*
X1851367Y1370430D02*
X1851797Y1370860D01*
X1851067Y1330730D02*
X1851797Y1331460D01*
X1740730Y1330730D02*
X1851067Y1330730D01*
X1740000Y1330000D02*
X1740730Y1330730D01*
X1727697Y1607496D02*
X1727697Y1621136D01*
X1727697Y1607496D02*
X1741000Y1594193D01*
X1741000Y1533087D02*
X1824427Y1449660D01*
X1761330Y1251330D02*
X1850467Y1251330D01*
X1851797Y1252660D01*
X2265064Y-4198141D02*
X2273922Y-4198141D01*
X2126625Y-4072500D02*
X2185338Y-4131213D01*
X2194196Y-4131213D01*
X1149906Y-4037709D02*
X1151873Y-4037709D01*
X1387031Y1675953D02*
X1672880Y1675953D01*
X1741000Y1533087D02*
X1741000Y1594193D01*
X1760000Y1250000D02*
X1761330Y1251330D01*
X1931213Y-3012500D02*
X2010000Y-3012500D01*
X1953431Y-3212500D02*
X2010000Y-3212500D01*
X2067519Y-3270019D01*
X1696055Y-3045346D02*
X1742846Y-3045346D01*
X1967519Y-3281164D02*
X1967519Y-3270019D01*
X1725039Y-3066323D02*
X1731079Y-3066323D01*
X1767441Y-3156929D02*
X1783110Y-3172598D01*
X1742846Y-3045346D02*
X1967519Y-3270019D01*
X1731079Y-3066323D02*
X1767441Y-3102685D01*
X1783110Y-3172598D02*
X1790000Y-3172598D01*
X1795000Y-520000D02*
X1795000Y908033D01*
X1824427Y937460D01*
X1660000Y1101887D02*
X1660000Y1300000D01*
X1660000Y1101887D02*
X1824427Y937460D01*
X1851797Y937460D01*
X1800000Y-525000D02*
X1950000Y-527143D01*
X2090000Y-2425000D02*
X2141575Y-2373425D01*
X2006126Y109377D02*
X2339528Y-224025D01*
X2141575Y-2373425D02*
X2141575Y-964326D01*
X1644811Y2622362D02*
X1647449Y2625000D01*
X1795000Y2625000D01*
X400000Y1305900D02*
X400000Y2380000D01*
X505000Y2513111D02*
X505000Y2605000D01*
X505000Y2513111D02*
X508111Y2510000D01*
X500000Y2610000D02*
X505000Y2605000D01*
X-70000Y2625000D02*
X-65748Y2629252D01*
X115000Y2611495D02*
X118504Y2614999D01*
X115000Y2535000D02*
X115000Y2611495D01*
X189962Y2623465D02*
X245000Y2623465D01*
X181496Y2614999D02*
X189962Y2623465D01*
X379962Y2623465D02*
X430000Y2623465D01*
X371496Y2614999D02*
X379962Y2623465D01*
X569962Y2623465D02*
X625000Y2623465D01*
X561496Y2614999D02*
X569962Y2623465D01*
X-39Y2623465D02*
X50000Y2623465D01*
X-8504Y2615001D02*
X-39Y2623465D01*
X508111Y2510000D02*
X510000Y2510000D01*
X-70000Y2475000D02*
X-70000Y2625000D01*
X1054567Y2175433D02*
X1054567Y2325433D01*
X1054567Y2175433D02*
X1257677Y1972323D01*
X1000000Y2380000D02*
X1054567Y2325433D01*
X1534291Y-3119551D02*
X1534291Y-3084370D01*
X1509960Y-3143883D02*
X1534291Y-3119551D01*
X1432519Y-3143883D02*
X1509960Y-3143883D01*
X1767441Y-3156929D02*
X1767441Y-3102685D01*
X1790000Y-3172598D02*
X1803794Y-3172598D01*
X1862519Y-3231324D01*
X1862519Y-4441324D02*
X1862519Y-3231324D01*
X1482519Y-4821324D02*
X1862519Y-4441324D01*
X162519Y-4821324D02*
X1482519Y-4821324D01*
X12519Y-4671324D02*
X162519Y-4821324D01*
X12519Y-4671324D02*
X12519Y-3751324D01*
X37519Y-3726324D01*
X112519Y-3726324D01*
X157519Y-3681324D01*
X172519Y-3681324D01*
X-39528Y866373D02*
X400000Y1305900D01*
X-50000Y660000D02*
X-39528Y670472D01*
X-39528Y866373D01*
X-60000Y660000D02*
X-50000Y660000D01*
X327000Y-1965000D02*
X327000Y1147000D01*
X750000Y1570000D01*
X750000Y1690000D01*
X-95000Y-700000D02*
X-50000Y-655000D01*
X-50000Y660000D01*
X-208425Y641575D02*
X-100000Y750000D01*
X-208425Y-3080072D02*
X-208425Y641575D01*
X-208425Y-3080072D02*
X44003Y-3332500D01*
X130000Y-3332500D01*
X170000Y-3372500D01*
X1265653Y-3066718D02*
X1600000Y-2732372D01*
X1600000Y-1250000D01*
X1830631Y-1019369D01*
D19*
X2057519Y2328676D02*
D03*
X1957519Y2328676D02*
D03*
X1857519Y2328676D02*
D03*
X1757519Y2328676D02*
D03*
X2157519Y2328676D02*
D03*
D20*
X-100000Y1300000D02*
D03*
X2250000Y1300000D02*
D03*
X2250000Y-1050000D02*
D03*
D21*
X-100000Y-1050000D02*
D03*
D22*
X468149Y-3408322D02*
D03*
X1518149Y-2358322D02*
D03*
X1518149Y-3408322D02*
D03*
X468149Y-2358322D02*
D03*
D23*
X120000Y-2072500D02*
D03*
X2020000Y-2072500D02*
D03*
X1895000Y-4647500D02*
D03*
X245000Y-4647500D02*
D03*
D24*
X170000Y-2272500D02*
D03*
X170000Y-2372500D02*
D03*
X170000Y-2472500D02*
D03*
X170000Y-2572500D02*
D03*
X170000Y-2672500D02*
D03*
X170000Y-2772500D02*
D03*
X170000Y-2872500D02*
D03*
X170000Y-2972500D02*
D03*
X170000Y-3072500D02*
D03*
X170000Y-3172500D02*
D03*
X170000Y-3272500D02*
D03*
X170000Y-3372500D02*
D03*
X170000Y-3472500D02*
D03*
X170000Y-3572500D02*
D03*
X170000Y-3672500D02*
D03*
X170000Y-3772500D02*
D03*
X170000Y-3872500D02*
D03*
X170000Y-3972500D02*
D03*
X170000Y-4072500D02*
D03*
X170000Y-4172500D02*
D03*
X170000Y-4272500D02*
D03*
X170000Y-4372500D02*
D03*
X170000Y-4472500D02*
D03*
X70000Y-2372500D02*
D03*
X70000Y-2472500D02*
D03*
X70000Y-2572500D02*
D03*
X70000Y-2672500D02*
D03*
X70000Y-2772500D02*
D03*
X70000Y-2872500D02*
D03*
X70000Y-2972500D02*
D03*
X70000Y-3072500D02*
D03*
X70000Y-3172500D02*
D03*
X70000Y-3272500D02*
D03*
X70000Y-3372500D02*
D03*
X70000Y-3472500D02*
D03*
X70000Y-3572500D02*
D03*
X70000Y-3672500D02*
D03*
X70000Y-3772500D02*
D03*
X70000Y-3872500D02*
D03*
X70000Y-3972500D02*
D03*
X70000Y-4072500D02*
D03*
X70000Y-4172500D02*
D03*
X70000Y-4272500D02*
D03*
X70000Y-4372500D02*
D03*
X70000Y-4472500D02*
D03*
X1970000Y-2272500D02*
D03*
X2070000Y-2272500D02*
D03*
X2070000Y-2372500D02*
D03*
X2070000Y-2472500D02*
D03*
X2070000Y-2572500D02*
D03*
X2070000Y-2672500D02*
D03*
X2070000Y-2772500D02*
D03*
X2070000Y-2872500D02*
D03*
X2070000Y-2972500D02*
D03*
X2070000Y-3072500D02*
D03*
X2070000Y-3172500D02*
D03*
X2070000Y-3272500D02*
D03*
X2070000Y-3372500D02*
D03*
X2070000Y-3472500D02*
D03*
X2070000Y-3572500D02*
D03*
X2070000Y-3672500D02*
D03*
X2070000Y-3772500D02*
D03*
X2070000Y-3872500D02*
D03*
X2070000Y-3972500D02*
D03*
X2070000Y-4072500D02*
D03*
X2070000Y-4172500D02*
D03*
X2070000Y-4272500D02*
D03*
X2070000Y-4372500D02*
D03*
X2070000Y-4472500D02*
D03*
X1970000Y-2372500D02*
D03*
X1970000Y-2472500D02*
D03*
X1970000Y-2572500D02*
D03*
X1970000Y-2672500D02*
D03*
X1970000Y-2772500D02*
D03*
X1970000Y-2872500D02*
D03*
X1970000Y-2972500D02*
D03*
X1970000Y-3072500D02*
D03*
X1970000Y-3172500D02*
D03*
X1970000Y-3272500D02*
D03*
X1970000Y-3372500D02*
D03*
X1970000Y-3472500D02*
D03*
X1970000Y-3572500D02*
D03*
X1970000Y-3672500D02*
D03*
X1970000Y-3772500D02*
D03*
X1970000Y-3872500D02*
D03*
X1970000Y-3972500D02*
D03*
X1970000Y-4072500D02*
D03*
X1970000Y-4172500D02*
D03*
X1970000Y-4272500D02*
D03*
X1970000Y-4372500D02*
D03*
X1970000Y-4472500D02*
D03*
X70000Y-2272500D02*
D03*
D25*
X0Y-700000D02*
D03*
X0Y-600000D02*
D03*
X0Y-500000D02*
D03*
X-100000Y-700000D02*
D03*
X-100000Y-600000D02*
D03*
X-100000Y-500000D02*
D03*
X0Y-400000D02*
D03*
X0Y-300000D02*
D03*
X0Y-200000D02*
D03*
X0Y-100000D02*
D03*
X0Y0D02*
D03*
X-100000Y-400000D02*
D03*
X-100000Y-300000D02*
D03*
X-100000Y-200000D02*
D03*
X-100000Y-100000D02*
D03*
X-100000Y0D02*
D03*
X2300000Y150000D02*
D03*
X2300000Y250000D02*
D03*
X2300000Y350000D02*
D03*
X2200000Y150000D02*
D03*
X2200000Y250000D02*
D03*
X2200000Y350000D02*
D03*
X2300000Y450000D02*
D03*
X2300000Y550000D02*
D03*
X2300000Y650000D02*
D03*
X2300000Y750000D02*
D03*
X2300000Y850000D02*
D03*
X2200000Y450000D02*
D03*
X2200000Y550000D02*
D03*
X2200000Y650000D02*
D03*
X2200000Y750000D02*
D03*
X2200000Y850000D02*
D03*
X2271999Y2083000D02*
D03*
X2171999Y2083000D02*
D03*
X2071999Y2083000D02*
D03*
X1971999Y2083000D02*
D03*
X1871999Y2083000D02*
D03*
X1118149Y-2358322D02*
D03*
X1218149Y-2358322D02*
D03*
X1018149Y-2358322D02*
D03*
X918149Y-2358322D02*
D03*
X818149Y-2358322D02*
D03*
X718149Y-2358322D02*
D03*
X1518149Y-2758322D02*
D03*
X1518149Y-2658322D02*
D03*
X468149Y-2758322D02*
D03*
X468149Y-2658322D02*
D03*
X2200000Y-750000D02*
D03*
X2200000Y-650000D02*
D03*
X2200000Y-550000D02*
D03*
X2200000Y-450000D02*
D03*
X2200000Y-350000D02*
D03*
X2300000Y-750000D02*
D03*
X2300000Y-650000D02*
D03*
X2300000Y-550000D02*
D03*
X2300000Y-450000D02*
D03*
X2300000Y-350000D02*
D03*
X-100000Y450000D02*
D03*
X-100000Y550000D02*
D03*
X-100000Y650000D02*
D03*
X-100000Y750000D02*
D03*
X-100000Y850000D02*
D03*
X0Y450000D02*
D03*
X0Y550000D02*
D03*
X0Y650000D02*
D03*
X0Y750000D02*
D03*
X0Y850000D02*
D03*
D26*
X1771999Y2083000D02*
D03*
X1318149Y-2358322D02*
D03*
D27*
X1518149Y-2558322D02*
D03*
X468149Y-2558322D02*
D03*
D28*
X1694197Y696760D02*
D03*
X1694197Y1769160D02*
D03*
D29*
X1694197Y1607260D02*
D03*
X1692597Y858660D02*
D03*
D30*
X400000Y2380000D02*
D03*
X400000Y2280000D02*
D03*
X500000Y2280000D02*
D03*
X600000Y2280000D02*
D03*
X700000Y2280000D02*
D03*
X800000Y2280000D02*
D03*
X900000Y2280000D02*
D03*
X1000000Y2280000D02*
D03*
X1100000Y2280000D02*
D03*
X1200000Y2280000D02*
D03*
X1300000Y2280000D02*
D03*
X1400000Y2280000D02*
D03*
X500000Y2380000D02*
D03*
X600000Y2380000D02*
D03*
X700000Y2380000D02*
D03*
X800000Y2380000D02*
D03*
X900000Y2380000D02*
D03*
X1000000Y2380000D02*
D03*
X1100000Y2380000D02*
D03*
X1200000Y2380000D02*
D03*
X1300000Y2380000D02*
D03*
X1400000Y2380000D02*
D03*
X300000Y2280000D02*
D03*
X300000Y2380000D02*
D03*
D31*
X1667519Y2548676D02*
D03*
X2122519Y1788676D02*
D03*
X2330000Y-165000D02*
D03*
X849000Y2612000D02*
D03*
X-156000Y-3083000D02*
D03*
X-190000Y-4560000D02*
D03*
X2182386Y-3755228D02*
D03*
X2186323Y-4070189D02*
D03*
X990000Y1875000D02*
D03*
X995000Y1800000D02*
D03*
X2090000Y1130000D02*
D03*
X740000Y1793000D02*
D03*
X327000Y-1965000D02*
D03*
X375000Y-25000D02*
D03*
X290000Y75000D02*
D03*
X750000Y1690000D02*
D03*
D32*
X1740000Y1370000D02*
D03*
X115000Y2535000D02*
D03*
X1115000Y-4013000D02*
D03*
X1117000Y-3079000D02*
D03*
X1729630Y-3125307D02*
D03*
X1064276Y-3877276D02*
D03*
X1150890Y-4038693D02*
D03*
X713882Y-3987512D02*
D03*
X1304433Y-4151370D02*
D03*
X1304433Y-3794598D02*
D03*
X1083961Y-3987512D02*
D03*
X1740000Y1330000D02*
D03*
X1660000Y1300000D02*
D03*
X1760000Y1250000D02*
D03*
X1795000Y-520000D02*
D03*
X1795000Y2625000D02*
D03*
X-70000Y2475000D02*
D03*
X300000Y2510000D02*
D03*
X505000Y2505000D02*
D03*
D33*
X1156520Y2610898D02*
D03*
X1073842Y2610898D02*
D03*
X1508855Y2608677D02*
D03*
X1426179Y2608677D02*
D03*
D34*
X987496Y2609000D02*
D03*
X924504Y2609000D02*
D03*
X1649015Y2618676D02*
D03*
X1586023Y2618676D02*
D03*
X118504Y2614999D02*
D03*
X181496Y2614999D02*
D03*
X308504Y2614999D02*
D03*
X371496Y2614999D02*
D03*
X498504Y2614999D02*
D03*
X561496Y2614999D02*
D03*
X-71496Y2615001D02*
D03*
X-8504Y2615001D02*
D03*
D35*
X1010472Y-4391024D02*
D03*
D36*
X1069528Y-4392992D02*
D03*
D37*
X1695709Y-3005630D02*
D03*
X1695709Y-3025315D02*
D03*
X1695709Y-3045000D02*
D03*
X1695709Y-3064685D02*
D03*
X1695709Y-3084370D02*
D03*
X1534291Y-3005630D02*
D03*
X1534291Y-3025315D02*
D03*
X1534291Y-3045000D02*
D03*
X1534291Y-3064685D02*
D03*
X1534291Y-3084370D02*
D03*
D38*
X1006205Y-3909755D02*
D03*
X1006205Y-3935347D02*
D03*
X1006205Y-3960937D02*
D03*
X1006205Y-3986527D02*
D03*
X1006205Y-4012117D02*
D03*
X1006205Y-4037709D02*
D03*
X1006205Y-4063299D02*
D03*
X1006205Y-4088889D02*
D03*
X775889Y-3909755D02*
D03*
X775889Y-3935347D02*
D03*
X775889Y-3960937D02*
D03*
X775889Y-3986527D02*
D03*
X775889Y-4012117D02*
D03*
X775889Y-4037709D02*
D03*
X775889Y-4063299D02*
D03*
X775889Y-4088889D02*
D03*
D39*
X1536597Y1607260D02*
D03*
X1536597Y1567860D02*
D03*
X1536597Y1528460D02*
D03*
X1536597Y1489060D02*
D03*
X1536597Y1449660D02*
D03*
X1536597Y1410260D02*
D03*
X1536597Y1370860D02*
D03*
X1536597Y1331460D02*
D03*
X1536597Y1292060D02*
D03*
X1536597Y1252660D02*
D03*
X1536597Y1213260D02*
D03*
X1536597Y1173860D02*
D03*
X1536597Y1134460D02*
D03*
X1536597Y1095060D02*
D03*
X1536597Y1055660D02*
D03*
X1536597Y1016260D02*
D03*
X1536597Y976860D02*
D03*
X1536597Y937460D02*
D03*
X1536597Y898060D02*
D03*
X1536597Y858660D02*
D03*
X1851797Y1607260D02*
D03*
X1851797Y1567860D02*
D03*
X1851797Y1528460D02*
D03*
X1851797Y1489060D02*
D03*
X1851797Y1449660D02*
D03*
X1851797Y1410260D02*
D03*
X1851797Y1370860D02*
D03*
X1851797Y1331460D02*
D03*
X1851797Y1292060D02*
D03*
X1851797Y1252660D02*
D03*
X1851797Y1213260D02*
D03*
X1851797Y1173860D02*
D03*
X1851797Y1134460D02*
D03*
X1851797Y1095060D02*
D03*
X1851797Y1055660D02*
D03*
X1851797Y1016260D02*
D03*
X1851797Y976860D02*
D03*
X1851797Y937460D02*
D03*
X1851797Y898060D02*
D03*
X1851797Y858660D02*
D03*
D03*
D40*
X1367424Y1612881D02*
D03*
X1367424Y1695559D02*
D03*
D41*
X1432519Y-3088765D02*
D03*
X1432519Y-3143883D02*
D03*
%TF.MD5,84c22a7801334bf6b518ac53eae72aff*%
M02*
