G04 Layer_Color=32768*
%FSLAX26Y26*%
%MOIN*%
%TF.FileFunction,Other,Mechanical_15*%
%TF.Part,Single*%
G01*
G75*
%TA.AperFunction,NonConductor*%
%ADD75C,0.003937*%
%ADD143C,0.001968*%
D75*
X570318Y-1330002D02*
X609688Y-1330002D01*
X590002Y-1349686D02*
X590002Y-1310316D01*
X1310098Y2207448D02*
X1310098Y2246818D01*
X1290412Y2227134D02*
X1329782Y2227134D01*
X2719544Y-733496D02*
X2758914Y-733496D01*
X2739228Y-753180D02*
X2739228Y-713810D01*
X2823874Y-753180D02*
X2823874Y-713810D01*
X2804188Y-733494D02*
X2843558Y-733494D01*
X2463638Y-1717748D02*
X2503008Y-1717748D01*
X2483324Y-1737432D02*
X2483324Y-1698062D01*
X2006946Y-1048458D02*
X2046316Y-1048458D01*
X2026630Y-1068142D02*
X2026630Y-1028772D01*
X1199858Y3262566D02*
X1239228Y3262566D01*
X1219544Y3242880D02*
X1219544Y3282250D01*
X959702Y3490914D02*
X959702Y3530284D01*
X940016Y3510598D02*
X979386Y3510598D01*
X2900646Y4268472D02*
X2940016Y4268472D01*
X2920330Y4248786D02*
X2920330Y4288156D01*
X2801986Y4092588D02*
X2841356Y4092588D01*
X2821672Y4072904D02*
X2821672Y4112274D01*
X2844986Y3987590D02*
X2884356Y3987590D01*
X2864670Y3967906D02*
X2864670Y4007276D01*
X680174Y1392486D02*
X680174Y1431856D01*
X660490Y1412172D02*
X699860Y1412172D01*
X2309112Y3913314D02*
X2309112Y3952684D01*
X2289426Y3933000D02*
X2328796Y3933000D01*
X766786Y5231070D02*
X806156Y5231070D01*
X786470Y5211386D02*
X786470Y5250756D01*
X3081746Y1884614D02*
X3081746Y1923984D01*
X3062062Y1904298D02*
X3101432Y1904298D01*
X2617184Y1333434D02*
X2617184Y1372804D01*
X2597498Y1353118D02*
X2636868Y1353118D01*
X2617178Y1490914D02*
X2617178Y1530284D01*
X2597494Y1510598D02*
X2636864Y1510598D01*
X2499072Y2179888D02*
X2538442Y2179888D01*
X2518758Y2160204D02*
X2518758Y2199574D01*
X1947892Y2691698D02*
X1947892Y2731068D01*
X1928206Y2711384D02*
X1967576Y2711384D01*
X1947890Y2612962D02*
X1947890Y2652332D01*
X1928206Y2632646D02*
X1967576Y2632646D01*
X2341592Y-1702000D02*
X2341592Y-1662630D01*
X2321908Y-1682314D02*
X2361278Y-1682314D01*
X2247104Y-1698064D02*
X2247104Y-1658694D01*
X2227418Y-1678378D02*
X2266788Y-1678378D01*
X176238Y549966D02*
X176238Y589336D01*
X156554Y569652D02*
X195924Y569652D01*
X1062064Y5644456D02*
X1101434Y5644456D01*
X1081750Y5624770D02*
X1081750Y5664142D01*
X835668Y405906D02*
X835668Y445276D01*
X815984Y425592D02*
X855354Y425592D01*
X1711672Y1461386D02*
X1711672Y1500756D01*
X1691986Y1481072D02*
X1731356Y1481072D01*
X2105670Y-274096D02*
X2105670Y-234726D01*
X2085986Y-254410D02*
X2125356Y-254410D01*
X2095526Y-114402D02*
X2095526Y-75032D01*
X2075842Y-94716D02*
X2115212Y-94716D01*
X2233322Y-841764D02*
X2233322Y-802394D01*
X2213638Y-822080D02*
X2253008Y-822080D01*
X2213640Y-654754D02*
X2253010Y-654754D01*
X2233324Y-674440D02*
X2233324Y-635070D01*
X1790410Y-664598D02*
X1790410Y-625228D01*
X1770724Y-644914D02*
X1810094Y-644914D01*
X1790410Y-733496D02*
X1790410Y-694126D01*
X1770726Y-713812D02*
X1810096Y-713812D01*
X1778600Y-914596D02*
X1778600Y-875226D01*
X1758916Y-894912D02*
X1798286Y-894912D01*
X1778600Y-981528D02*
X1778600Y-942158D01*
X1758914Y-961842D02*
X1798284Y-961842D01*
X1778598Y-1048456D02*
X1778598Y-1009086D01*
X1758914Y-1028770D02*
X1798284Y-1028770D01*
X1778600Y-1115388D02*
X1778600Y-1076018D01*
X1758914Y-1095702D02*
X1798284Y-1095702D01*
X2282536Y-999246D02*
X2282536Y-959876D01*
X2262852Y-979562D02*
X2302222Y-979562D01*
X2282536Y-1146882D02*
X2282536Y-1107512D01*
X2262850Y-1127198D02*
X2302220Y-1127198D01*
X2282536Y-1215778D02*
X2282536Y-1176408D01*
X2262852Y-1196094D02*
X2302222Y-1196094D01*
X2282536Y-1068144D02*
X2282536Y-1028774D01*
X2262850Y-1048458D02*
X2302220Y-1048458D01*
X2026630Y-654756D02*
X2026630Y-615386D01*
X2006946Y-635072D02*
X2046316Y-635072D01*
X483324Y577528D02*
X522694Y577528D01*
X503010Y557842D02*
X503010Y597212D01*
X1199860Y5152330D02*
X1239230Y5152330D01*
X1219546Y5132644D02*
X1219546Y5172014D01*
X983322Y4935792D02*
X983322Y4975162D01*
X963636Y4955478D02*
X1003006Y4955478D01*
X235292Y3734416D02*
X235292Y3773786D01*
X215606Y3754102D02*
X254976Y3754102D01*
X254978Y3576936D02*
X254978Y3616306D01*
X235292Y3596622D02*
X274662Y3596622D01*
X1544938Y2166896D02*
X1584308Y2166896D01*
X1564622Y2147212D02*
X1564622Y2186582D01*
X1544940Y2066898D02*
X1584310Y2066898D01*
X1564626Y2047212D02*
X1564626Y2086582D01*
X294346Y1565718D02*
X294346Y1605088D01*
X274662Y1585404D02*
X314032Y1585404D01*
X298284Y1845244D02*
X298284Y1884614D01*
X278600Y1864930D02*
X317970Y1864930D01*
X995984Y2094590D02*
X1035354Y2094590D01*
X1015668Y2074906D02*
X1015668Y2114276D01*
X1751042Y2967290D02*
X1790412Y2967290D01*
X1770726Y2947606D02*
X1770726Y2986976D01*
X1778600Y4341306D02*
X1778600Y4380676D01*
X1758914Y4360992D02*
X1798284Y4360992D01*
X1995136Y4410204D02*
X2034506Y4410204D01*
X2014820Y4390518D02*
X2014820Y4429888D01*
X1995134Y4282252D02*
X2034504Y4282252D01*
X2014820Y4262566D02*
X2014820Y4301936D01*
X1542380Y4321622D02*
X1542380Y4360992D01*
X1522696Y4341308D02*
X1562066Y4341308D01*
X1199860Y5733038D02*
X1199860Y5772408D01*
X1180176Y5752724D02*
X1219546Y5752724D01*
X2888838Y4605084D02*
X2928210Y4605084D01*
X2908524Y4585400D02*
X2908524Y4624770D01*
X2887986Y4691588D02*
X2927358Y4691588D01*
X2907672Y4671904D02*
X2907672Y4711274D01*
X2658984Y3987592D02*
X2698354Y3987592D01*
X2678670Y3967908D02*
X2678670Y4007278D01*
X2908672Y4525780D02*
X2908672Y4549402D01*
X2896862Y4537590D02*
X2920484Y4537590D01*
X2873240Y4551370D02*
X2944106Y4551370D01*
X2873240Y4523810D02*
X2944106Y4523810D01*
X2944106Y4551370D01*
X2873240Y4523810D02*
X2873240Y4551370D01*
X3148676Y2219258D02*
X3148676Y2258628D01*
X3128990Y2238944D02*
X3168360Y2238944D01*
X3237262Y2219260D02*
X3237262Y2258630D01*
X3217576Y2238944D02*
X3256946Y2238944D01*
X2774662Y2219260D02*
X2774662Y2258630D01*
X2754976Y2238946D02*
X2794346Y2238946D01*
X2863244Y2219260D02*
X2863244Y2258630D01*
X2843558Y2238944D02*
X2882928Y2238944D01*
X1347498Y5624768D02*
X1347498Y5664138D01*
X1327812Y5644454D02*
X1367182Y5644454D01*
X3178204Y1628708D02*
X3178204Y1668078D01*
X3158520Y1648394D02*
X3197890Y1648394D01*
X3099466Y1628708D02*
X3099466Y1668078D01*
X3079780Y1648394D02*
X3119150Y1648394D01*
X2882932Y4414140D02*
X2922302Y4414140D01*
X2902618Y4394454D02*
X2902618Y4433824D01*
X274662Y746818D02*
X274662Y786188D01*
X254978Y766502D02*
X294348Y766502D01*
X298286Y1254692D02*
X298286Y1294062D01*
X278600Y1274376D02*
X317970Y1274376D01*
X278600Y549968D02*
X278600Y589338D01*
X258914Y569654D02*
X298284Y569654D01*
X2902614Y2937762D02*
X2941984Y2937762D01*
X2922300Y2918078D02*
X2922300Y2957448D01*
X2016788Y3164140D02*
X2016788Y3203510D01*
X1997104Y3183826D02*
X2036474Y3183826D01*
X2016788Y3528314D02*
X2016788Y3567684D01*
X1997102Y3547998D02*
X2036472Y3547998D01*
X2194938Y3949574D02*
X2194938Y3988946D01*
X2175254Y3969260D02*
X2214624Y3969260D01*
X2774662Y2524378D02*
X2774662Y2563748D01*
X2754978Y2544062D02*
X2794348Y2544062D01*
X3146268Y2521228D02*
X3146268Y2560598D01*
X3126582Y2540912D02*
X3165952Y2540912D01*
X3185732Y1326740D02*
X3185732Y1366110D01*
X3166048Y1346426D02*
X3205418Y1346426D01*
X2851434Y5719258D02*
X2851434Y5758628D01*
X2831748Y5738942D02*
X2871118Y5738942D01*
X2695922Y5719258D02*
X2695922Y5758628D01*
X2676236Y5738942D02*
X2715606Y5738942D01*
X2378992Y5719258D02*
X2378992Y5758628D01*
X2359308Y5738942D02*
X2398678Y5738942D01*
X2542380Y5719258D02*
X2542380Y5758628D01*
X2522694Y5738944D02*
X2562064Y5738944D01*
X2222466Y5719258D02*
X2222466Y5758628D01*
X2202780Y5738942D02*
X2242150Y5738942D01*
X953796Y5733040D02*
X953796Y5772410D01*
X934112Y5752724D02*
X973482Y5752724D01*
X1061934Y3626834D02*
X1061934Y3666204D01*
X1042248Y3646518D02*
X1081618Y3646518D01*
X293364Y1719062D02*
X293364Y1758432D01*
X273678Y1738746D02*
X313048Y1738746D01*
X282734Y1219652D02*
X282734Y1259022D01*
X263050Y1239338D02*
X302420Y1239338D01*
X1217578Y4366896D02*
X1217578Y4406266D01*
X1197892Y4386580D02*
X1237262Y4386580D01*
X1316000Y4370834D02*
X1355370Y4370834D01*
X1335684Y4351150D02*
X1335684Y4390520D01*
X1473482Y4351150D02*
X1473482Y4390520D01*
X1453798Y4370836D02*
X1493168Y4370836D01*
X3197892Y5132644D02*
X3237262Y5132644D01*
X3217576Y5112960D02*
X3217576Y5152330D01*
X2784504Y5112960D02*
X2784504Y5152330D01*
X2764820Y5132644D02*
X2804190Y5132644D01*
X922302Y4961386D02*
X961672Y4961386D01*
X941986Y4941700D02*
X941986Y4981070D01*
X2774662Y2219258D02*
X2774662Y2258628D01*
X2754978Y2238944D02*
X2794348Y2238944D01*
X2676670Y2218906D02*
X2676670Y2258276D01*
X2656986Y2238590D02*
X2696356Y2238590D01*
X3148678Y2209416D02*
X3148678Y2248786D01*
X3128992Y2229102D02*
X3168362Y2229102D01*
X3060096Y2209418D02*
X3060096Y2248788D01*
X3040410Y2229102D02*
X3079780Y2229102D01*
X3150694Y2513354D02*
X3150694Y2552724D01*
X3131008Y2533038D02*
X3170380Y2533038D01*
X2764818Y2514536D02*
X2764818Y2553906D01*
X2745134Y2534220D02*
X2784504Y2534220D01*
X542378Y2412172D02*
X542378Y2451542D01*
X522694Y2431858D02*
X562064Y2431858D01*
X542378Y2309810D02*
X542378Y2349180D01*
X522694Y2329496D02*
X562064Y2329496D01*
X542378Y2105086D02*
X542378Y2144456D01*
X522694Y2124772D02*
X562064Y2124772D01*
X542378Y2207448D02*
X542378Y2246818D01*
X522694Y2227134D02*
X562064Y2227134D01*
X782538Y3061778D02*
X821908Y3061778D01*
X802222Y3042092D02*
X802222Y3081462D01*
X899984Y3062590D02*
X939354Y3062590D01*
X919668Y3042906D02*
X919668Y3082276D01*
X951826Y3384612D02*
X951826Y3423982D01*
X932142Y3404298D02*
X971512Y3404298D01*
X659898Y1767096D02*
X659898Y1806466D01*
X640214Y1786782D02*
X679584Y1786782D01*
X650056Y1865522D02*
X650056Y1904892D01*
X630372Y1885208D02*
X669742Y1885208D01*
X659898Y1658830D02*
X659898Y1698200D01*
X640212Y1678516D02*
X679582Y1678516D01*
X648088Y1585996D02*
X687458Y1585996D01*
X667774Y1566312D02*
X667774Y1605682D01*
X2621120Y4193668D02*
X2621120Y4233038D01*
X2601434Y4213352D02*
X2640804Y4213352D01*
X2621670Y4300904D02*
X2621670Y4340274D01*
X2601984Y4320590D02*
X2641354Y4320590D01*
X1014820Y2311780D02*
X1014820Y2351150D01*
X995136Y2331464D02*
X1034506Y2331464D01*
X1014820Y2213354D02*
X1014820Y2252724D01*
X995136Y2233040D02*
X1034506Y2233040D01*
X273676Y1663746D02*
X313046Y1663746D01*
X293360Y1644060D02*
X293360Y1683432D01*
X293362Y1744062D02*
X293362Y1783432D01*
X273678Y1763748D02*
X313048Y1763748D01*
X243166Y2211386D02*
X282536Y2211386D01*
X262852Y2191700D02*
X262852Y2231070D01*
X1310096Y2124772D02*
X1310096Y2164142D01*
X1290412Y2144458D02*
X1329782Y2144458D01*
X1310096Y2038160D02*
X1310096Y2077530D01*
X1290412Y2057844D02*
X1329782Y2057844D01*
X1310096Y1959416D02*
X1310096Y1998786D01*
X1290412Y1979102D02*
X1329782Y1979102D01*
X542380Y2412176D02*
X542380Y2451546D01*
X522696Y2431860D02*
X562066Y2431860D01*
X522692Y2329494D02*
X562062Y2329494D01*
X542378Y2309810D02*
X542378Y2349180D01*
X522694Y2227132D02*
X562064Y2227132D01*
X542378Y2207448D02*
X542378Y2246818D01*
X542380Y2105088D02*
X542380Y2144458D01*
X522696Y2124774D02*
X562066Y2124774D01*
X384898Y2309810D02*
X384898Y2349180D01*
X365214Y2329496D02*
X404584Y2329496D01*
X853404Y1124774D02*
X892774Y1124774D01*
X873088Y1105088D02*
X873088Y1144458D01*
X853402Y1046032D02*
X892772Y1046032D01*
X873088Y1026346D02*
X873088Y1065716D01*
X853404Y1207448D02*
X892774Y1207448D01*
X873088Y1187764D02*
X873088Y1227134D01*
X853404Y1290126D02*
X892774Y1290126D01*
X873088Y1270442D02*
X873088Y1309812D01*
X1014818Y1278314D02*
X1014818Y1317684D01*
X995134Y1298000D02*
X1034504Y1298000D01*
X298284Y1935794D02*
X298284Y1975164D01*
X278600Y1955480D02*
X317970Y1955480D01*
X274662Y704692D02*
X274662Y744062D01*
X254978Y724378D02*
X294348Y724378D01*
X270726Y2152332D02*
X270726Y2191702D01*
X251040Y2172016D02*
X290410Y2172016D01*
X235294Y3498196D02*
X274664Y3498196D01*
X254980Y3478510D02*
X254980Y3517880D01*
X491198Y3687762D02*
X530568Y3687762D01*
X510882Y3668076D02*
X510882Y3707446D01*
X510886Y3479102D02*
X510886Y3518472D01*
X491200Y3498786D02*
X530570Y3498786D01*
X739232Y4065716D02*
X778602Y4065716D01*
X758918Y4046030D02*
X758918Y4085400D01*
X941986Y4370834D02*
X941986Y4410204D01*
X922300Y4390520D02*
X961670Y4390520D01*
X1253992Y2120046D02*
X1253992Y2159416D01*
X1234308Y2139732D02*
X1273678Y2139732D01*
X794348Y1140520D02*
X794348Y1179890D01*
X774662Y1160204D02*
X814032Y1160204D01*
X2980614Y5123590D02*
X3019986Y5123590D01*
X3000300Y5103906D02*
X3000300Y5143276D01*
D143*
X627404Y-1398898D02*
X627404Y-1261104D01*
X552600Y-1398898D02*
X552600Y-1261104D01*
X552600Y-1398898D02*
X627404Y-1398898D01*
X552600Y-1261104D02*
X627404Y-1261104D01*
X917574Y3901740D02*
X917574Y4122212D01*
X917574Y3901740D02*
X2049464Y3901740D01*
X917574Y4122212D02*
X2049464Y4122212D01*
X2049464Y3901740D02*
X2049464Y4122212D01*
X1241200Y2264536D02*
X1378994Y2264536D01*
X1241200Y2189732D02*
X1378994Y2189732D01*
X1378994Y2264536D01*
X1241200Y2189732D02*
X1241200Y2264536D01*
X2701828Y-802394D02*
X2701828Y-664598D01*
X2776630Y-802394D02*
X2776630Y-664598D01*
X2701828Y-664598D02*
X2776630Y-664598D01*
X2701828Y-802394D02*
X2776630Y-802394D01*
X2786472Y-802392D02*
X2861276Y-802392D01*
X2786472Y-664598D02*
X2861276Y-664598D01*
X2861276Y-802392D02*
X2861276Y-664598D01*
X2786472Y-802392D02*
X2786472Y-664598D01*
X2375056Y-1865386D02*
X2375056Y-1570110D01*
X2591592Y-1865386D02*
X2591592Y-1570110D01*
X2375056Y-1570110D02*
X2591592Y-1570110D01*
X2375056Y-1865386D02*
X2591592Y-1865386D01*
X2190016Y-1240386D02*
X2190016Y-856528D01*
X1863244Y-1240386D02*
X1863244Y-856528D01*
X2190016Y-856528D01*
X1863244Y-1240386D02*
X2190016Y-1240386D01*
X1268756Y3175952D02*
X1268756Y3349180D01*
X1170330Y3175952D02*
X1170330Y3349180D01*
X1170330Y3175952D02*
X1268756Y3175952D01*
X1170330Y3349180D02*
X1268756Y3349180D01*
X890804Y3473196D02*
X1028600Y3473196D01*
X890804Y3548000D02*
X1028600Y3548000D01*
X1028600Y3473196D02*
X1028600Y3548000D01*
X890804Y3473196D02*
X890804Y3548000D01*
X3006944Y4219258D02*
X3006944Y4317684D01*
X2833716Y4219258D02*
X2833716Y4317684D01*
X3006944Y4317684D01*
X2833716Y4219258D02*
X3006944Y4219258D01*
X2735058Y4043376D02*
X2735058Y4141802D01*
X2908286Y4043376D02*
X2908286Y4141802D01*
X2735058Y4043376D02*
X2908286Y4043376D01*
X2735058Y4141802D02*
X2908286Y4141802D01*
X2951284Y3938378D02*
X2951284Y4036804D01*
X2778056Y3938378D02*
X2778056Y4036804D01*
X2951284Y4036804D01*
X2778056Y3938378D02*
X2951284Y3938378D01*
X640804Y1343274D02*
X719544Y1343274D01*
X640804Y1481068D02*
X719544Y1481068D01*
X640804Y1343274D02*
X640804Y1481068D01*
X719544Y1343274D02*
X719544Y1481068D01*
X2272694Y3893630D02*
X2345528Y3893630D01*
X2272694Y3972370D02*
X2345528Y3972370D01*
X2345528Y3893630D02*
X2345528Y3972370D01*
X2272694Y3893630D02*
X2272694Y3972370D01*
X747100Y5162172D02*
X747100Y5299968D01*
X825842Y5162172D02*
X825842Y5299968D01*
X747100Y5299968D02*
X825842Y5299968D01*
X747100Y5162172D02*
X825842Y5162172D01*
X3012848Y1866896D02*
X3150644Y1866896D01*
X3012848Y1941700D02*
X3150644Y1941700D01*
X3150644Y1866896D02*
X3150644Y1941700D01*
X3012848Y1866896D02*
X3012848Y1941700D01*
X2548286Y1315716D02*
X2686082Y1315716D01*
X2548286Y1390520D02*
X2686082Y1390520D01*
X2548286Y1315716D02*
X2548286Y1390520D01*
X2686082Y1315716D02*
X2686082Y1390520D01*
X2548280Y1548000D02*
X2686076Y1548000D01*
X2548280Y1473196D02*
X2686076Y1473196D01*
X2686076Y1548000D01*
X2548280Y1473196D02*
X2548280Y1548000D01*
X2481356Y2110990D02*
X2481356Y2248786D01*
X2556160Y2110990D02*
X2556160Y2248786D01*
X2481356Y2248786D02*
X2556160Y2248786D01*
X2481356Y2110990D02*
X2556160Y2110990D01*
X1878994Y2748786D02*
X2016788Y2748786D01*
X1878994Y2673982D02*
X2016788Y2673982D01*
X2016788Y2748786D01*
X1878994Y2673982D02*
X1878994Y2748786D01*
X1878992Y2595244D02*
X2016788Y2595244D01*
X1878992Y2670048D02*
X2016788Y2670048D01*
X1878992Y2595244D02*
X1878992Y2670048D01*
X2016788Y2595244D02*
X2016788Y2670048D01*
X2302222Y-1751212D02*
X2380962Y-1751212D01*
X2302222Y-1613416D02*
X2380962Y-1613416D01*
X2380962Y-1751212D02*
X2380962Y-1613416D01*
X2302222Y-1751212D02*
X2302222Y-1613416D01*
X2195922Y-1764994D02*
X2298286Y-1764994D01*
X2195922Y-1591764D02*
X2298286Y-1591764D01*
X2298286Y-1764994D02*
X2298286Y-1591764D01*
X2195922Y-1764994D02*
X2195922Y-1591764D01*
X127026Y483038D02*
X225450Y483038D01*
X127026Y656266D02*
X225450Y656266D01*
X225450Y483038D02*
X225450Y656266D01*
X127026Y483038D02*
X127026Y656266D01*
X1032536Y5557842D02*
X1032536Y5731070D01*
X1130962Y5557842D02*
X1130962Y5731070D01*
X1032536Y5731070D02*
X1130962Y5731070D01*
X1032536Y5557842D02*
X1130962Y5557842D01*
X786456Y338978D02*
X884880Y338978D01*
X786456Y512206D02*
X884880Y512206D01*
X786456Y338978D02*
X786456Y512206D01*
X884880Y338978D02*
X884880Y512206D01*
X1662460Y1567686D02*
X1760884Y1567686D01*
X1662460Y1394456D02*
X1760884Y1394456D01*
X1760884Y1567686D01*
X1662460Y1394456D02*
X1662460Y1567686D01*
X2036772Y-215040D02*
X2174568Y-215040D01*
X2036772Y-293782D02*
X2174568Y-293782D01*
X2174568Y-215040D01*
X2036772Y-293782D02*
X2036772Y-215040D01*
X1932140Y-212826D02*
X2258912Y-212826D01*
X1932140Y23394D02*
X2258912Y23394D01*
X1932140Y-212826D02*
X1932140Y23394D01*
X2258912Y-212826D02*
X2258912Y23394D01*
X2164424Y-782710D02*
X2302220Y-782710D01*
X2164424Y-861450D02*
X2302220Y-861450D01*
X2302220Y-782710D01*
X2164424Y-861450D02*
X2164424Y-782710D01*
X2272694Y-723652D02*
X2272694Y-585856D01*
X2193954Y-723652D02*
X2193954Y-585856D01*
X2193954Y-723652D02*
X2272694Y-723652D01*
X2193954Y-585856D02*
X2272694Y-585856D01*
X1735292Y-674442D02*
X1845528Y-674442D01*
X1735292Y-615386D02*
X1845528Y-615386D01*
X1735292Y-674442D02*
X1735292Y-615386D01*
X1845528Y-674442D02*
X1845528Y-615386D01*
X1735292Y-684284D02*
X1845528Y-684284D01*
X1735292Y-743340D02*
X1845528Y-743340D01*
X1845528Y-684284D01*
X1735292Y-743340D02*
X1735292Y-684284D01*
X1723482Y-865384D02*
X1833718Y-865384D01*
X1723482Y-924440D02*
X1833718Y-924440D01*
X1833718Y-865384D01*
X1723482Y-924440D02*
X1723482Y-865384D01*
X1723482Y-991370D02*
X1833718Y-991370D01*
X1723482Y-932314D02*
X1833718Y-932314D01*
X1723482Y-991370D02*
X1723482Y-932314D01*
X1833718Y-991370D02*
X1833718Y-932314D01*
X1723480Y-999242D02*
X1833716Y-999242D01*
X1723480Y-1058298D02*
X1833716Y-1058298D01*
X1833716Y-999242D01*
X1723480Y-1058298D02*
X1723480Y-999242D01*
X1723482Y-1125230D02*
X1833718Y-1125230D01*
X1723482Y-1066174D02*
X1833718Y-1066174D01*
X1723482Y-1125230D02*
X1723482Y-1066174D01*
X1833718Y-1125230D02*
X1833718Y-1066174D01*
X2227418Y-950034D02*
X2337654Y-950034D01*
X2227418Y-1009090D02*
X2337654Y-1009090D01*
X2337654Y-950034D01*
X2227418Y-1009090D02*
X2227418Y-950034D01*
X2227418Y-1156726D02*
X2337654Y-1156726D01*
X2227418Y-1097670D02*
X2337654Y-1097670D01*
X2227418Y-1156726D02*
X2227418Y-1097670D01*
X2337654Y-1156726D02*
X2337654Y-1097670D01*
X2227418Y-1166566D02*
X2337654Y-1166566D01*
X2227418Y-1225622D02*
X2337654Y-1225622D01*
X2337654Y-1166566D01*
X2227418Y-1225622D02*
X2227418Y-1166566D01*
X2227418Y-1077986D02*
X2337654Y-1077986D01*
X2227418Y-1018930D02*
X2337654Y-1018930D01*
X2227418Y-1077986D02*
X2227418Y-1018930D01*
X2337654Y-1077986D02*
X2337654Y-1018930D01*
X1880962Y-743338D02*
X2172300Y-743338D01*
X1880962Y-526804D02*
X2172300Y-526804D01*
X1880962Y-743338D02*
X1880962Y-526804D01*
X2172300Y-743338D02*
X2172300Y-526804D01*
X589624Y528316D02*
X589624Y626740D01*
X416396Y528316D02*
X416396Y626740D01*
X416396Y528316D02*
X589624Y528316D01*
X416396Y626740D02*
X589624Y626740D01*
X1258916Y5083432D02*
X1258916Y5221228D01*
X1180176Y5083432D02*
X1180176Y5221228D01*
X1258916Y5221228D01*
X1180176Y5083432D02*
X1258916Y5083432D01*
X943952Y5024376D02*
X1022692Y5024376D01*
X943952Y4886580D02*
X1022692Y4886580D01*
X943952Y4886580D02*
X943952Y5024376D01*
X1022692Y4886580D02*
X1022692Y5024376D01*
X166394Y3793472D02*
X304190Y3793472D01*
X166394Y3714730D02*
X304190Y3714730D01*
X304190Y3793472D01*
X166394Y3714730D02*
X166394Y3793472D01*
X205766Y3683236D02*
X304190Y3683236D01*
X205766Y3510006D02*
X304190Y3510006D01*
X205766Y3510006D02*
X205766Y3683236D01*
X304190Y3510006D02*
X304190Y3683236D01*
X1478008Y2117684D02*
X1478008Y2216110D01*
X1651236Y2117684D02*
X1651236Y2216110D01*
X1478008Y2216110D02*
X1651236Y2216110D01*
X1478008Y2117684D02*
X1651236Y2117684D01*
X1478010Y2017684D02*
X1478010Y2116110D01*
X1651240Y2017684D02*
X1651240Y2116110D01*
X1478010Y2116110D02*
X1651240Y2116110D01*
X1478010Y2017684D02*
X1651240Y2017684D01*
X225448Y1624774D02*
X363244Y1624774D01*
X225448Y1546032D02*
X363244Y1546032D01*
X225448Y1546032D02*
X225448Y1624774D01*
X363244Y1546032D02*
X363244Y1624774D01*
X211670Y1815718D02*
X384898Y1815718D01*
X211670Y1914142D02*
X384898Y1914142D01*
X211670Y1815718D02*
X211670Y1914142D01*
X384898Y1815718D02*
X384898Y1914142D01*
X976298Y2025694D02*
X976298Y2163488D01*
X1055038Y2025694D02*
X1055038Y2163488D01*
X976298Y2025694D02*
X1055038Y2025694D01*
X976298Y2163488D02*
X1055038Y2163488D01*
X1634900Y2878708D02*
X1634900Y3055874D01*
X1906554Y2878708D02*
X1906554Y3055874D01*
X1634900Y2878708D02*
X1906554Y2878708D01*
X1634900Y3055874D02*
X1906554Y3055874D01*
X1613246Y4240914D02*
X1943954Y4240914D01*
X1613246Y4481070D02*
X1943954Y4481070D01*
X1613246Y4240914D02*
X1613246Y4481070D01*
X1943954Y4240914D02*
X1943954Y4481070D01*
X2083718Y4370834D02*
X2083718Y4449574D01*
X1945922Y4370834D02*
X1945922Y4449574D01*
X2083718Y4449574D01*
X1945922Y4370834D02*
X2083718Y4370834D01*
X2083718Y4242882D02*
X2083718Y4321622D01*
X1945922Y4242882D02*
X1945922Y4321622D01*
X2083718Y4321622D01*
X1945922Y4242882D02*
X2083718Y4242882D01*
X1487262Y4420048D02*
X1597498Y4420048D01*
X1487262Y4262566D02*
X1597498Y4262566D01*
X1487262Y4262566D02*
X1487262Y4420048D01*
X1597498Y4262566D02*
X1597498Y4420048D01*
X1144742Y5784220D02*
X1254978Y5784220D01*
X1144742Y5721226D02*
X1254978Y5721226D01*
X1254978Y5784220D01*
X1144742Y5721226D02*
X1144742Y5784220D01*
X2882926Y4160202D02*
X2882926Y4219258D01*
X2764816Y4160202D02*
X2764816Y4219258D01*
X2882926Y4219258D01*
X2764816Y4160202D02*
X2882926Y4160202D01*
X2805170Y4189730D02*
X2842572Y4189730D01*
X2823872Y4171030D02*
X2823872Y4208432D01*
X2977422Y4565714D02*
X2977422Y4644456D01*
X2839626Y4565714D02*
X2839626Y4644456D01*
X2977422Y4644456D01*
X2839626Y4565714D02*
X2977422Y4565714D01*
X3000192Y4646314D02*
X3000192Y4736864D01*
X2815152Y4646314D02*
X2815152Y4736864D01*
X3000192Y4736864D01*
X2815152Y4646314D02*
X3000192Y4646314D01*
X2609772Y3948222D02*
X2609772Y4026962D01*
X2747568Y3948222D02*
X2747568Y4026962D01*
X2609772Y3948222D02*
X2747568Y3948222D01*
X2609772Y4026962D02*
X2747568Y4026962D01*
X3119148Y2294062D02*
X3178204Y2294062D01*
X3119148Y2183826D02*
X3178204Y2183826D01*
X3119148Y2183826D02*
X3119148Y2294062D01*
X3178204Y2183826D02*
X3178204Y2294062D01*
X3207734Y2183826D02*
X3266788Y2183826D01*
X3207734Y2294062D02*
X3266788Y2294062D01*
X3266788Y2183826D02*
X3266788Y2294062D01*
X3207734Y2183826D02*
X3207734Y2294062D01*
X2745134Y2294064D02*
X2804190Y2294064D01*
X2745134Y2183828D02*
X2804190Y2183828D01*
X2745134Y2183828D02*
X2745134Y2294064D01*
X2804190Y2183828D02*
X2804190Y2294064D01*
X2833716Y2183826D02*
X2892770Y2183826D01*
X2833716Y2294062D02*
X2892770Y2294062D01*
X2892770Y2183826D02*
X2892770Y2294062D01*
X2833716Y2183826D02*
X2833716Y2294062D01*
X1298284Y5557840D02*
X1396710Y5557840D01*
X1298284Y5731068D02*
X1396710Y5731068D01*
X1396710Y5557840D02*
X1396710Y5731068D01*
X1298284Y5557840D02*
X1298284Y5731068D01*
X3148678Y1703512D02*
X3207732Y1703512D01*
X3148678Y1593276D02*
X3207732Y1593276D01*
X3148678Y1593276D02*
X3148678Y1703512D01*
X3207732Y1593276D02*
X3207732Y1703512D01*
X3069938Y1703512D02*
X3128994Y1703512D01*
X3069938Y1593276D02*
X3128994Y1593276D01*
X3069938Y1593276D02*
X3069938Y1703512D01*
X3128994Y1593276D02*
X3128994Y1703512D01*
X2985294Y4347210D02*
X2985294Y4481068D01*
X2819940Y4347210D02*
X2819940Y4481068D01*
X2985294Y4481068D01*
X2819940Y4347210D02*
X2985294Y4347210D01*
X235292Y835400D02*
X314032Y835400D01*
X235292Y697606D02*
X314032Y697606D01*
X235292Y697606D02*
X235292Y835400D01*
X314032Y697606D02*
X314032Y835400D01*
X258916Y1343274D02*
X337656Y1343274D01*
X258916Y1205480D02*
X337656Y1205480D01*
X258916Y1205480D02*
X258916Y1343274D01*
X337656Y1205480D02*
X337656Y1343274D01*
X229388Y656268D02*
X327812Y656268D01*
X229388Y483040D02*
X327812Y483040D01*
X229388Y483040D02*
X229388Y656268D01*
X327812Y483040D02*
X327812Y656268D01*
X2786472Y2849180D02*
X2786472Y3026346D01*
X3058126Y2849180D02*
X3058126Y3026346D01*
X2786472Y2849180D02*
X3058126Y2849180D01*
X2786472Y3026346D02*
X3058126Y3026346D01*
X1928206Y3047998D02*
X2105370Y3047998D01*
X1928206Y3319652D02*
X2105370Y3319652D01*
X2105370Y3047998D02*
X2105370Y3319652D01*
X1928206Y3047998D02*
X1928206Y3319652D01*
X1928204Y3683826D02*
X2105370Y3683826D01*
X1928204Y3412172D02*
X2105370Y3412172D01*
X1928204Y3412172D02*
X1928204Y3683826D01*
X2105370Y3412172D02*
X2105370Y3683826D01*
X2145726Y4055874D02*
X2244150Y4055874D01*
X2145726Y3882646D02*
X2244150Y3882646D01*
X2145726Y3882646D02*
X2145726Y4055874D01*
X2244150Y3882646D02*
X2244150Y4055874D01*
X2641986Y2307842D02*
X2907340Y2307842D01*
X2641986Y2780284D02*
X2907340Y2780284D01*
X2907340Y2307842D02*
X2907340Y2779890D01*
X2641986Y2307842D02*
X2641986Y2779890D01*
X3013590Y2304692D02*
X3278944Y2304692D01*
X3013590Y2777132D02*
X3278944Y2777132D01*
X3278944Y2304692D02*
X3278944Y2776738D01*
X3013590Y2304692D02*
X3013590Y2776738D01*
X3053056Y1582646D02*
X3318410Y1582646D01*
X3053056Y1110206D02*
X3318410Y1110206D01*
X3053056Y1110600D02*
X3053056Y1582646D01*
X3318410Y1110600D02*
X3318410Y1582646D01*
X2796316Y5770440D02*
X2906552Y5770440D01*
X2796316Y5707446D02*
X2906552Y5707446D01*
X2906552Y5770440D01*
X2796316Y5707446D02*
X2796316Y5770440D01*
X2640804Y5770440D02*
X2751040Y5770440D01*
X2640804Y5707446D02*
X2751040Y5707446D01*
X2751040Y5770440D01*
X2640804Y5707446D02*
X2640804Y5770440D01*
X2323874Y5770440D02*
X2434110Y5770440D01*
X2323874Y5707446D02*
X2434110Y5707446D01*
X2434110Y5770440D01*
X2323874Y5707446D02*
X2323874Y5770440D01*
X2487262Y5770440D02*
X2597498Y5770440D01*
X2487262Y5707446D02*
X2597498Y5707446D01*
X2597498Y5770440D01*
X2487262Y5707446D02*
X2487262Y5770440D01*
X2167346Y5770440D02*
X2277584Y5770440D01*
X2167346Y5707446D02*
X2277584Y5707446D01*
X2277584Y5770440D01*
X2167346Y5707446D02*
X2167346Y5770440D01*
X898678Y5784222D02*
X1008916Y5784222D01*
X898678Y5721228D02*
X1008916Y5721228D01*
X1008916Y5784222D01*
X898678Y5721228D02*
X898678Y5784222D01*
X1006816Y3676046D02*
X1117052Y3676046D01*
X1006816Y3616990D02*
X1117052Y3616990D01*
X1006816Y3616990D02*
X1006816Y3676046D01*
X1117052Y3616990D02*
X1117052Y3676046D01*
X129978Y1620636D02*
X456750Y1620636D01*
X129978Y1856858D02*
X456750Y1856858D01*
X456750Y1620636D02*
X456750Y1856858D01*
X129978Y1620636D02*
X129978Y1856858D01*
X150844Y1415518D02*
X414624Y1415518D01*
X150844Y1063156D02*
X414624Y1063156D01*
X150844Y1063156D02*
X150844Y1415518D01*
X414624Y1063156D02*
X414624Y1415518D01*
X1178208Y4317682D02*
X1256948Y4317682D01*
X1178208Y4455478D02*
X1256948Y4455478D01*
X1178208Y4317682D02*
X1178208Y4455478D01*
X1256948Y4317682D02*
X1256948Y4455478D01*
X1390802Y4292094D02*
X1390802Y4449574D01*
X1280566Y4292094D02*
X1280566Y4449574D01*
X1390802Y4449574D01*
X1280566Y4292094D02*
X1390802Y4292094D01*
X1418364Y4292096D02*
X1528600Y4292096D01*
X1418364Y4449576D02*
X1528600Y4449576D01*
X1418364Y4292096D02*
X1418364Y4449576D01*
X1528600Y4292096D02*
X1528600Y4449576D01*
X3262852Y5040124D02*
X3262852Y5225164D01*
X3172302Y5040124D02*
X3172302Y5225164D01*
X3262852Y5225164D01*
X3172302Y5040124D02*
X3262852Y5040124D01*
X2739228Y5040126D02*
X2829780Y5040126D01*
X2739228Y5225164D02*
X2829780Y5225164D01*
X2739228Y5040126D02*
X2739228Y5225164D01*
X2829780Y5040126D02*
X2829780Y5225164D01*
X751042Y4750756D02*
X751042Y5172016D01*
X1132932Y4750756D02*
X1132932Y5172016D01*
X751042Y5172016D02*
X1132932Y5172016D01*
X751042Y4750756D02*
X1132932Y4750756D01*
X2745134Y2183826D02*
X2804190Y2183826D01*
X2745134Y2294062D02*
X2804190Y2294062D01*
X2745134Y2183826D02*
X2745134Y2294062D01*
X2804190Y2183826D02*
X2804190Y2294062D01*
X2647144Y2183472D02*
X2706198Y2183472D01*
X2647144Y2293708D02*
X2706198Y2293708D01*
X2647144Y2183472D02*
X2647144Y2293708D01*
X2706198Y2183472D02*
X2706198Y2293708D01*
X3119150Y2173984D02*
X3178204Y2173984D01*
X3119150Y2284220D02*
X3178204Y2284220D01*
X3119150Y2173984D02*
X3119150Y2284220D01*
X3178204Y2173984D02*
X3178204Y2284220D01*
X3030568Y2173984D02*
X3089624Y2173984D01*
X3030568Y2284220D02*
X3089624Y2284220D01*
X3030568Y2173984D02*
X3030568Y2284220D01*
X3089624Y2173984D02*
X3089624Y2284220D01*
X3018016Y2296818D02*
X3283372Y2296818D01*
X3018016Y2769260D02*
X3283372Y2769260D01*
X3018016Y2296818D02*
X3018016Y2768866D01*
X3283372Y2296818D02*
X3283372Y2768866D01*
X2632142Y2298000D02*
X2897496Y2298000D01*
X2632142Y2770440D02*
X2897496Y2770440D01*
X2632142Y2298000D02*
X2632142Y2770046D01*
X2897496Y2298000D02*
X2897496Y2770046D01*
X455764Y2382644D02*
X628992Y2382644D01*
X455764Y2481070D02*
X628992Y2481070D01*
X628992Y2382644D02*
X628992Y2481070D01*
X455764Y2382644D02*
X455764Y2481070D01*
X455764Y2280284D02*
X628992Y2280284D01*
X455764Y2378708D02*
X628992Y2378708D01*
X628992Y2280284D02*
X628992Y2378708D01*
X455764Y2280284D02*
X455764Y2378708D01*
X455764Y2075558D02*
X628992Y2075558D01*
X455764Y2173984D02*
X628992Y2173984D01*
X628992Y2075558D02*
X628992Y2173984D01*
X455764Y2075558D02*
X455764Y2173984D01*
X455764Y2177922D02*
X628992Y2177922D01*
X455764Y2276346D02*
X628992Y2276346D01*
X628992Y2177922D02*
X628992Y2276346D01*
X455764Y2177922D02*
X455764Y2276346D01*
X753010Y2975164D02*
X753010Y3148392D01*
X851436Y2975164D02*
X851436Y3148392D01*
X753010Y2975164D02*
X851436Y2975164D01*
X753010Y3148392D02*
X851436Y3148392D01*
X870456Y2975976D02*
X870456Y3149204D01*
X968882Y2975976D02*
X968882Y3149204D01*
X870456Y2975976D02*
X968882Y2975976D01*
X870456Y3149204D02*
X968882Y3149204D01*
X865212Y3453510D02*
X1038440Y3453510D01*
X865212Y3355084D02*
X1038440Y3355084D01*
X865212Y3355084D02*
X865212Y3453510D01*
X1038440Y3355084D02*
X1038440Y3453510D01*
X573284Y1737570D02*
X746512Y1737570D01*
X573284Y1835994D02*
X746512Y1835994D01*
X573284Y1737570D02*
X573284Y1835994D01*
X746512Y1737570D02*
X746512Y1835994D01*
X581158Y1924578D02*
X718954Y1924578D01*
X581158Y1845836D02*
X718954Y1845836D01*
X718954Y1924578D01*
X581158Y1845836D02*
X581158Y1924578D01*
X573284Y1629304D02*
X746512Y1629304D01*
X573284Y1727728D02*
X746512Y1727728D01*
X573284Y1629304D02*
X573284Y1727728D01*
X746512Y1629304D02*
X746512Y1727728D01*
X736670Y1546626D02*
X736670Y1625366D01*
X598876Y1546626D02*
X598876Y1625366D01*
X736670Y1625366D01*
X598876Y1546626D02*
X736670Y1546626D01*
X2528600Y4258628D02*
X2713640Y4258628D01*
X2528600Y4168078D02*
X2713640Y4168078D01*
X2713640Y4258628D01*
X2528600Y4168078D02*
X2528600Y4258628D01*
X2529150Y4383582D02*
X2714190Y4383582D01*
X2529150Y4257598D02*
X2714190Y4257598D01*
X2714190Y4383582D01*
X2529150Y4257598D02*
X2529150Y4383582D01*
X928206Y2380678D02*
X1101434Y2380678D01*
X928206Y2282252D02*
X1101434Y2282252D01*
X1101434Y2380678D01*
X928206Y2282252D02*
X928206Y2380678D01*
X928206Y2282252D02*
X1101434Y2282252D01*
X928206Y2183826D02*
X1101434Y2183826D01*
X1101434Y2282252D01*
X928206Y2183826D02*
X928206Y2282252D01*
X379974Y1614534D02*
X379974Y1712958D01*
X206746Y1614534D02*
X206746Y1712958D01*
X379974Y1712958D01*
X206746Y1614534D02*
X379974Y1614534D01*
X206748Y1714536D02*
X379976Y1714536D01*
X206748Y1812960D02*
X379976Y1812960D01*
X206748Y1714536D02*
X206748Y1812960D01*
X379976Y1714536D02*
X379976Y1812960D01*
X394742Y2109024D02*
X394742Y2313748D01*
X130962Y2109024D02*
X130962Y2313748D01*
X130962Y2109024D02*
X394742Y2109024D01*
X130962Y2313748D02*
X394742Y2313748D01*
X1241198Y2183828D02*
X1378994Y2183828D01*
X1241198Y2105086D02*
X1378994Y2105086D01*
X1378994Y2183828D01*
X1241198Y2105086D02*
X1241198Y2183828D01*
X1241198Y2020442D02*
X1378994Y2020442D01*
X1241198Y2095246D02*
X1378994Y2095246D01*
X1241198Y2020442D02*
X1241198Y2095246D01*
X1378994Y2020442D02*
X1378994Y2095246D01*
X1241198Y2016504D02*
X1378994Y2016504D01*
X1241198Y1941700D02*
X1378994Y1941700D01*
X1378994Y2016504D01*
X1241198Y1941700D02*
X1241198Y2016504D01*
X473482Y2469262D02*
X611278Y2469262D01*
X473482Y2394458D02*
X611278Y2394458D01*
X611278Y2469262D01*
X473482Y2394458D02*
X473482Y2469262D01*
X597496Y2297998D02*
X597496Y2360990D01*
X487260Y2297998D02*
X487260Y2360990D01*
X597496Y2360990D01*
X487260Y2297998D02*
X597496Y2297998D01*
X597496Y2195636D02*
X597496Y2258628D01*
X487260Y2195636D02*
X487260Y2258628D01*
X597496Y2258628D01*
X487260Y2195636D02*
X597496Y2195636D01*
X473482Y2162176D02*
X611278Y2162176D01*
X473482Y2087372D02*
X611278Y2087372D01*
X611278Y2162176D01*
X473482Y2087372D02*
X473482Y2162176D01*
X316002Y2366898D02*
X453796Y2366898D01*
X316002Y2292094D02*
X453796Y2292094D01*
X453796Y2366898D01*
X316002Y2292094D02*
X316002Y2366898D01*
X941986Y1085404D02*
X941986Y1164144D01*
X804192Y1085404D02*
X804192Y1164144D01*
X941986Y1164144D01*
X804192Y1085404D02*
X941986Y1085404D01*
X941986Y1006662D02*
X941986Y1085402D01*
X804190Y1006662D02*
X804190Y1085402D01*
X941986Y1085402D01*
X804190Y1006662D02*
X941986Y1006662D01*
X941986Y1168078D02*
X941986Y1246818D01*
X804192Y1168078D02*
X804192Y1246818D01*
X941986Y1246818D01*
X804192Y1168078D02*
X941986Y1168078D01*
X941986Y1250756D02*
X941986Y1329496D01*
X804192Y1250756D02*
X804192Y1329496D01*
X941986Y1329496D01*
X804192Y1250756D02*
X941986Y1250756D01*
X975448Y1229102D02*
X1054188Y1229102D01*
X975448Y1366896D02*
X1054188Y1366896D01*
X975448Y1229102D02*
X975448Y1366896D01*
X1054188Y1229102D02*
X1054188Y1366896D01*
X229386Y1994850D02*
X367182Y1994850D01*
X229386Y1916108D02*
X367182Y1916108D01*
X367182Y1994850D01*
X229386Y1916108D02*
X229386Y1994850D01*
X142772Y548196D02*
X406552Y548196D01*
X142772Y900558D02*
X406552Y900558D01*
X406552Y548196D02*
X406552Y900558D01*
X142772Y548196D02*
X142772Y900558D01*
X239230Y2116898D02*
X302222Y2116898D01*
X239230Y2227134D02*
X302222Y2227134D01*
X302222Y2116898D02*
X302222Y2227134D01*
X239230Y2116898D02*
X239230Y2227134D01*
X64034Y3287566D02*
X64034Y3708826D01*
X445924Y3287566D02*
X445924Y3708826D01*
X64034Y3708826D02*
X445924Y3708826D01*
X64034Y3287566D02*
X445924Y3287566D01*
X471512Y3618864D02*
X471512Y3756660D01*
X550252Y3618864D02*
X550252Y3756660D01*
X471512Y3756660D02*
X550252Y3756660D01*
X471512Y3618864D02*
X550252Y3618864D01*
X471516Y3567684D02*
X550256Y3567684D01*
X471516Y3429888D02*
X550256Y3429888D01*
X471516Y3429888D02*
X471516Y3567684D01*
X550256Y3429888D02*
X550256Y3567684D01*
X672304Y4016502D02*
X672304Y4114928D01*
X845532Y4016502D02*
X845532Y4114928D01*
X672304Y4016502D02*
X845532Y4016502D01*
X672304Y4114928D02*
X845532Y4114928D01*
X897142Y4576542D02*
X986828Y4576542D01*
X897142Y4204496D02*
X986828Y4204496D01*
X986828Y4576542D01*
X897142Y4204496D02*
X897142Y4576542D01*
X1100450Y1999968D02*
X1407536Y1999968D01*
X1100450Y2279496D02*
X1407536Y2279496D01*
X1407536Y1999968D02*
X1407536Y2279496D01*
X1100450Y1999968D02*
X1100450Y2279496D01*
X640804Y994850D02*
X947890Y994850D01*
X640804Y1325558D02*
X947890Y1325558D01*
X947890Y994850D02*
X947890Y1325558D01*
X640804Y994850D02*
X640804Y1325558D01*
X2854630Y5015322D02*
X2854630Y5231858D01*
X3145970Y5015322D02*
X3145970Y5231858D01*
X2854630Y5231858D02*
X3145970Y5231858D01*
X2854630Y5015322D02*
X3145970Y5015322D01*
%TF.MD5,cc87148bce23a7f053c2fc8eae890d15*%
M02*
