G04 Layer_Color=65535*
%FSLAX26Y26*%
%MOIN*%
%TF.FileFunction,Legend,Top*%
%TF.Part,Single*%
G01*
G75*
%TA.AperFunction,NonConductor*%
%ADD42C,0.009842*%
%ADD43C,0.023622*%
%ADD44C,0.007874*%
%ADD45C,0.010000*%
%ADD46C,0.030000*%
%ADD48C,0.005000*%
%ADD80C,0.003937*%
%ADD81C,0.001000*%
G36*
X-1093000Y3575000D02*
X-1093000Y2700000D01*
X-1743000Y2700000D01*
X-1743000Y3575000D01*
X-1093000Y3575000D01*
X-1093000Y3575000D02*
G37*
D42*
X-1535299Y6904902D02*
G03*
X-1535299Y6904902I-4921J0D01*
G01*
X-860953Y6919878D02*
G03*
X-860953Y6919878I-4921J0D01*
G01*
X-353630Y6934027D02*
G03*
X-353630Y6934027I-4921J0D01*
G01*
X-662449Y1759291D02*
G03*
X-662449Y1759291I-4921J0D01*
G01*
D43*
X-1445732Y6858642D02*
G03*
X-1445732Y6858642I-11811J0D01*
G01*
D44*
X-1194142Y600000D02*
G03*
X-1194142Y600000I-133858J0D01*
G01*
X-1140992Y655118D02*
X-1140992Y674803D01*
X-1150835Y664961D02*
X-1131149Y664961D01*
X-666001Y7011500D02*
X-66001Y7011500D01*
X-666001Y7111500D02*
X-66001Y7111500D01*
X-666001Y7011500D02*
X-666001Y7111500D01*
X-66001Y7011500D02*
X-66001Y7111500D01*
X-1496913Y6697224D02*
X-1496913Y6898012D01*
X-1351243Y6697224D02*
X-1351243Y6898012D01*
X-1496913Y6898012D02*
X-1351243Y6898012D01*
X-1496913Y6697224D02*
X-1351243Y6697224D01*
X-183960Y1130753D02*
X-183960Y1134688D01*
X-227268Y1130753D02*
X-227268Y1134688D01*
X-156402Y1130753D02*
X-156402Y1134688D01*
X-113094Y1130753D02*
X-113094Y1134688D01*
X-144591Y681934D02*
X-144591Y685870D01*
X-101283Y681934D02*
X-101283Y685870D01*
X-223331Y996894D02*
X-223331Y1000832D01*
X-180023Y996894D02*
X-180023Y1000832D01*
X-168212Y681933D02*
X-168212Y685871D01*
X-211520Y681933D02*
X-211520Y685871D01*
X-109158Y996894D02*
X-109158Y1000830D01*
X-152464Y996894D02*
X-152464Y1000830D01*
X-280796Y6801153D02*
X-280796Y6923200D01*
X-320166Y6801153D02*
X-320166Y6923200D01*
X-320166Y6801153D02*
X-280796Y6801153D01*
X-320166Y6923200D02*
X-280796Y6923200D01*
D45*
X-716339Y7307176D02*
G03*
X-716339Y7307176I-14142J0D01*
G01*
X-2181150Y6643500D02*
G03*
X-2181150Y6643500I-196850J0D01*
G01*
X-2198000Y7148500D02*
X-2198000Y7448500D01*
X-2198000Y7148500D02*
X-898000Y7148500D01*
X-898000Y7448500D01*
X-2198000Y7448500D02*
X-898000Y7448500D01*
X-2393000Y75000D02*
X-2393000Y3475000D01*
X-2393000Y75000D02*
X-243000Y75000D01*
X-2393000Y3475000D02*
X-243000Y3475000D01*
X-243000Y75000D02*
X-243000Y3475000D01*
X-730481Y7157176D02*
X-730481Y7457176D01*
X-130481Y7457176D01*
X-130481Y7157176D02*
X-130481Y7457176D01*
X-730481Y7157176D02*
X-130481Y7157176D01*
X-2283000Y6566500D02*
X-2283000Y6606500D01*
X-2438000Y6586500D02*
X-2438000Y6736500D01*
X-2438000Y6586500D02*
X-2288000Y6586500D01*
X-2458000Y6741500D02*
X-2418000Y6741500D01*
X-2538000Y5028500D02*
X-2338000Y5028500D01*
X-2538000Y4228500D02*
X-2538000Y5028500D01*
X-2538000Y4228500D02*
X-2338000Y4228500D01*
X-2338000Y5028500D01*
X-238000Y5928500D02*
X-38000Y5928500D01*
X-238000Y5128500D02*
X-238000Y5928500D01*
X-238000Y5128500D02*
X-38000Y5128500D01*
X-38000Y5928500D01*
X-2386511Y6570734D02*
X-2418000Y6523500D01*
X-2418000Y6570734D02*
X-2386511Y6570734D01*
X-2418000Y6523500D02*
X-2386511Y6523500D01*
X-2375939Y6570734D02*
X-2375939Y6523500D01*
X-2348948Y6523500D01*
X-2312286Y6563986D02*
X-2316784Y6568485D01*
X-2323532Y6570734D01*
X-2332529Y6570734D01*
X-2339277Y6568485D01*
X-2343775Y6563986D01*
X-2343775Y6559488D01*
X-2341526Y6554989D01*
X-2339277Y6552740D01*
X-2334778Y6550491D01*
X-2321283Y6545992D01*
X-2316784Y6543743D01*
X-2314535Y6541494D01*
X-2312286Y6536995D01*
X-2312286Y6530248D01*
X-2316784Y6525749D01*
X-2323532Y6523500D01*
X-2332529Y6523500D01*
X-2339277Y6525749D01*
X-2343775Y6530248D01*
X-2578000Y7089984D02*
X-2578000Y7040000D01*
X-2544677Y7040000D01*
X-2528016Y7040000D02*
X-2528016Y7089984D01*
X-2511355Y7073323D01*
X-2494694Y7089984D01*
X-2494694Y7040000D01*
X-2478032Y7064992D02*
X-2444710Y7064992D01*
X-2428049Y7081653D02*
X-2419718Y7089984D01*
X-2403057Y7089984D01*
X-2394726Y7081653D01*
X-2394726Y7048331D01*
X-2403057Y7040000D01*
X-2419718Y7040000D01*
X-2428049Y7048331D01*
X-2428049Y7081653D01*
X-2378065Y7081653D02*
X-2369734Y7089984D01*
X-2353073Y7089984D01*
X-2344742Y7081653D01*
X-2344742Y7048331D01*
X-2353073Y7040000D01*
X-2369734Y7040000D01*
X-2378065Y7048331D01*
X-2378065Y7081653D01*
X-2328081Y7081653D02*
X-2319750Y7089984D01*
X-2303089Y7089984D01*
X-2294758Y7081653D01*
X-2294758Y7073323D01*
X-2303089Y7064992D01*
X-2311420Y7064992D01*
X-2303089Y7064992D01*
X-2294758Y7056661D01*
X-2294758Y7048331D01*
X-2303089Y7040000D01*
X-2319750Y7040000D01*
X-2328081Y7048331D01*
X-2578000Y6968500D02*
X-2578000Y7018484D01*
X-2553008Y7018484D01*
X-2544677Y7010153D01*
X-2544677Y6993492D01*
X-2553008Y6985161D01*
X-2578000Y6985161D01*
X-2561339Y6985161D02*
X-2544677Y6968500D01*
X-2494694Y7018484D02*
X-2528016Y7018484D01*
X-2528016Y6968500D01*
X-2494694Y6968500D01*
X-2528016Y6993492D02*
X-2511355Y6993492D01*
X-2478032Y7018484D02*
X-2478032Y6985161D01*
X-2461371Y6968500D01*
X-2444710Y6985161D01*
X-2444710Y7018484D01*
X-2378065Y6968500D02*
X-2378065Y7001823D01*
X-2361403Y7018484D01*
X-2344742Y7001823D01*
X-2344742Y6968500D01*
X-2344742Y6993492D01*
X-2378065Y6993492D01*
X-2578000Y6943484D02*
X-2544677Y6943484D01*
X-2544677Y6935153D01*
X-2578000Y6901831D01*
X-2578000Y6893500D01*
X-2544677Y6893500D01*
X-2528016Y6943484D02*
X-2528016Y6893500D01*
X-2494694Y6893500D01*
X-2444710Y6935153D02*
X-2453041Y6943484D01*
X-2469702Y6943484D01*
X-2478032Y6935153D01*
X-2478032Y6926823D01*
X-2469702Y6918492D01*
X-2453041Y6918492D01*
X-2444710Y6910161D01*
X-2444710Y6901831D01*
X-2453041Y6893500D01*
X-2469702Y6893500D01*
X-2478032Y6901831D01*
X-2344742Y6935153D02*
X-2353073Y6943484D01*
X-2369734Y6943484D01*
X-2378065Y6935153D01*
X-2378065Y6901831D01*
X-2369734Y6893500D01*
X-2353073Y6893500D01*
X-2344742Y6901831D01*
X-2319750Y6893500D02*
X-2303089Y6893500D01*
X-2294758Y6901831D01*
X-2294758Y6918492D01*
X-2303089Y6926823D01*
X-2319750Y6926823D01*
X-2328081Y6918492D01*
X-2328081Y6901831D01*
X-2319750Y6893500D01*
X-2278097Y6926823D02*
X-2278097Y6893500D01*
X-2278097Y6910161D01*
X-2269767Y6918492D01*
X-2261436Y6926823D01*
X-2253105Y6926823D01*
X-2228113Y6876839D02*
X-2228113Y6926823D01*
X-2203122Y6926823D01*
X-2194791Y6918492D01*
X-2194791Y6901831D01*
X-2203122Y6893500D01*
X-2228113Y6893500D01*
D46*
X-2637590Y3778910D02*
X-8575Y3778910D01*
D48*
X-2183000Y7593500D02*
X-2183000Y7606619D01*
X-2176441Y7613179D01*
X-2169881Y7606619D01*
X-2169881Y7593500D01*
X-2169881Y7603339D01*
X-2183000Y7603339D01*
X-2163321Y7606619D02*
X-2163321Y7593500D01*
X-2163321Y7600060D01*
X-2160042Y7603339D01*
X-2156762Y7606619D01*
X-2153482Y7606619D01*
X-2143643Y7606619D02*
X-2143643Y7593500D01*
X-2143643Y7600060D01*
X-2140363Y7603339D01*
X-2137083Y7606619D01*
X-2133803Y7606619D01*
X-2114125Y7593500D02*
X-2120684Y7593500D01*
X-2123964Y7596780D01*
X-2123964Y7603339D01*
X-2120684Y7606619D01*
X-2114125Y7606619D01*
X-2110845Y7603339D01*
X-2110845Y7600060D01*
X-2123964Y7600060D01*
X-2104286Y7593500D02*
X-2094446Y7593500D01*
X-2091166Y7596780D01*
X-2094446Y7600060D01*
X-2101006Y7600060D01*
X-2104286Y7603339D01*
X-2101006Y7606619D01*
X-2091166Y7606619D01*
X-2081327Y7609899D02*
X-2081327Y7606619D01*
X-2084607Y7606619D01*
X-2078048Y7606619D01*
X-2081327Y7606619D01*
X-2081327Y7596780D01*
X-2078048Y7593500D01*
X-2068208Y7593500D02*
X-2068208Y7606619D01*
X-2064928Y7606619D01*
X-2061649Y7603339D01*
X-2061649Y7593500D01*
X-2061649Y7603339D01*
X-2058369Y7606619D01*
X-2055089Y7603339D01*
X-2055089Y7593500D01*
X-2038690Y7593500D02*
X-2045250Y7593500D01*
X-2048530Y7596780D01*
X-2048530Y7603339D01*
X-2045250Y7606619D01*
X-2038690Y7606619D01*
X-2035410Y7603339D01*
X-2035410Y7600060D01*
X-2048530Y7600060D01*
X-2028851Y7593500D02*
X-2028851Y7606619D01*
X-2019012Y7606619D01*
X-2015732Y7603339D01*
X-2015732Y7593500D01*
X-2005892Y7609899D02*
X-2005892Y7606619D01*
X-2009172Y7606619D01*
X-2002613Y7606619D01*
X-2005892Y7606619D01*
X-2005892Y7596780D01*
X-2002613Y7593500D01*
X-2313000Y7593500D02*
X-2313000Y7613179D01*
X-2306441Y7606619D01*
X-2299881Y7613179D01*
X-2299881Y7593500D01*
X-2283482Y7593500D02*
X-2290042Y7593500D01*
X-2293321Y7596780D01*
X-2293321Y7603339D01*
X-2290042Y7606619D01*
X-2283482Y7606619D01*
X-2280202Y7603339D01*
X-2280202Y7600060D01*
X-2293321Y7600060D01*
X-2270363Y7609899D02*
X-2270363Y7606619D01*
X-2273643Y7606619D01*
X-2267083Y7606619D01*
X-2270363Y7606619D01*
X-2270363Y7596780D01*
X-2267083Y7593500D01*
X-2247405Y7593500D02*
X-2253964Y7593500D01*
X-2257244Y7596780D01*
X-2257244Y7603339D01*
X-2253964Y7606619D01*
X-2247405Y7606619D01*
X-2244125Y7603339D01*
X-2244125Y7600060D01*
X-2257244Y7600060D01*
X-2237565Y7606619D02*
X-2237565Y7593500D01*
X-2237565Y7600060D01*
X-2234285Y7603339D01*
X-2231006Y7606619D01*
X-2227726Y7606619D01*
X-886881Y7628687D02*
X-890161Y7631967D01*
X-896720Y7631967D01*
X-900000Y7628687D01*
X-900000Y7615568D01*
X-896720Y7612288D01*
X-890161Y7612288D01*
X-886881Y7615568D01*
X-877042Y7612288D02*
X-870482Y7612288D01*
X-867202Y7615568D01*
X-867202Y7622127D01*
X-870482Y7625407D01*
X-877042Y7625407D01*
X-880321Y7622127D01*
X-880321Y7615568D01*
X-877042Y7612288D01*
X-860643Y7612288D02*
X-860643Y7625407D01*
X-857363Y7625407D01*
X-854083Y7622127D01*
X-854083Y7612288D01*
X-854083Y7622127D01*
X-850803Y7625407D01*
X-847524Y7622127D01*
X-847524Y7612288D01*
X-840964Y7605729D02*
X-840964Y7625407D01*
X-831125Y7625407D01*
X-827845Y7622127D01*
X-827845Y7615568D01*
X-831125Y7612288D01*
X-840964Y7612288D01*
X-821286Y7625407D02*
X-821286Y7615568D01*
X-818006Y7612288D01*
X-808167Y7612288D01*
X-808167Y7625407D01*
X-798327Y7628687D02*
X-798327Y7625407D01*
X-801607Y7625407D01*
X-795048Y7625407D01*
X-798327Y7625407D01*
X-798327Y7615568D01*
X-795048Y7612288D01*
X-775369Y7612288D02*
X-781928Y7612288D01*
X-785208Y7615568D01*
X-785208Y7622127D01*
X-781928Y7625407D01*
X-775369Y7625407D01*
X-772089Y7622127D01*
X-772089Y7618848D01*
X-785208Y7618848D01*
X-765529Y7625407D02*
X-765529Y7612288D01*
X-765529Y7618848D01*
X-762250Y7622127D01*
X-758970Y7625407D01*
X-755690Y7625407D01*
X-900000Y7570114D02*
X-900000Y7589793D01*
X-890161Y7589793D01*
X-886881Y7586513D01*
X-886881Y7579954D01*
X-890161Y7576674D01*
X-900000Y7576674D01*
X-877042Y7570114D02*
X-870482Y7570114D01*
X-867202Y7573394D01*
X-867202Y7579954D01*
X-870482Y7583233D01*
X-877042Y7583233D01*
X-880321Y7579954D01*
X-880321Y7573394D01*
X-877042Y7570114D01*
X-860643Y7583233D02*
X-860643Y7573394D01*
X-857363Y7570114D01*
X-854083Y7573394D01*
X-850803Y7570114D01*
X-847524Y7573394D01*
X-847524Y7583233D01*
X-831125Y7570114D02*
X-837684Y7570114D01*
X-840964Y7573394D01*
X-840964Y7579954D01*
X-837684Y7583233D01*
X-831125Y7583233D01*
X-827845Y7579954D01*
X-827845Y7576674D01*
X-840964Y7576674D01*
X-821286Y7583233D02*
X-821286Y7570114D01*
X-821286Y7576674D01*
X-818006Y7579954D01*
X-814726Y7583233D01*
X-811446Y7583233D01*
X-890161Y7554179D02*
X-896720Y7554179D01*
X-900000Y7550899D01*
X-900000Y7537780D01*
X-896720Y7534500D01*
X-890161Y7534500D01*
X-886881Y7537780D01*
X-886881Y7550899D01*
X-890161Y7554179D01*
X-880321Y7534500D02*
X-880321Y7547619D01*
X-870482Y7547619D01*
X-867202Y7544339D01*
X-867202Y7534500D01*
X-1879881Y7609899D02*
X-1883161Y7613179D01*
X-1889720Y7613179D01*
X-1893000Y7609899D01*
X-1893000Y7596780D01*
X-1889720Y7593500D01*
X-1883161Y7593500D01*
X-1879881Y7596780D01*
X-1879881Y7603339D01*
X-1886440Y7603339D01*
X-1863482Y7593500D02*
X-1870042Y7593500D01*
X-1873321Y7596780D01*
X-1873321Y7603339D01*
X-1870042Y7606619D01*
X-1863482Y7606619D01*
X-1860202Y7603339D01*
X-1860202Y7600060D01*
X-1873321Y7600060D01*
X-1850363Y7606619D02*
X-1843803Y7606619D01*
X-1840524Y7603339D01*
X-1840524Y7593500D01*
X-1850363Y7593500D01*
X-1853643Y7596780D01*
X-1850363Y7600060D01*
X-1840524Y7600060D01*
X-1833964Y7606619D02*
X-1833964Y7593500D01*
X-1833964Y7600060D01*
X-1830684Y7603339D01*
X-1827405Y7606619D01*
X-1824125Y7606619D01*
X-1814286Y7613179D02*
X-1814286Y7593500D01*
X-1804446Y7593500D01*
X-1801167Y7596780D01*
X-1801167Y7600060D01*
X-1801167Y7603339D01*
X-1804446Y7606619D01*
X-1814286Y7606619D01*
X-1791327Y7593500D02*
X-1784768Y7593500D01*
X-1781488Y7596780D01*
X-1781488Y7603339D01*
X-1784768Y7606619D01*
X-1791327Y7606619D01*
X-1794607Y7603339D01*
X-1794607Y7596780D01*
X-1791327Y7593500D01*
X-1774928Y7606619D02*
X-1761809Y7593500D01*
X-1768369Y7600060D01*
X-1761809Y7606619D01*
X-1774928Y7593500D01*
X-2469881Y7617073D02*
X-2473161Y7620352D01*
X-2479720Y7620352D01*
X-2483000Y7617073D01*
X-2483000Y7603954D01*
X-2479720Y7600674D01*
X-2473161Y7600674D01*
X-2469881Y7603954D01*
X-2460042Y7600674D02*
X-2453482Y7600674D01*
X-2450202Y7603954D01*
X-2450202Y7610513D01*
X-2453482Y7613793D01*
X-2460042Y7613793D01*
X-2463321Y7610513D01*
X-2463321Y7603954D01*
X-2460042Y7600674D01*
X-2443643Y7600674D02*
X-2443643Y7613793D01*
X-2433803Y7613793D01*
X-2430524Y7610513D01*
X-2430524Y7600674D01*
X-2423964Y7600674D02*
X-2423964Y7613793D01*
X-2414125Y7613793D01*
X-2410845Y7610513D01*
X-2410845Y7600674D01*
X-2404286Y7600674D02*
X-2397726Y7600674D01*
X-2401006Y7600674D01*
X-2401006Y7613793D01*
X-2404286Y7613793D01*
X-2387887Y7600674D02*
X-2387887Y7613793D01*
X-2378047Y7613793D01*
X-2374768Y7610513D01*
X-2374768Y7600674D01*
X-2361649Y7594114D02*
X-2358369Y7594114D01*
X-2355089Y7597394D01*
X-2355089Y7613793D01*
X-2364928Y7613793D01*
X-2368208Y7610513D01*
X-2368208Y7603954D01*
X-2364928Y7600674D01*
X-2355089Y7600674D01*
X-2483000Y7578179D02*
X-2469881Y7578179D01*
X-2476441Y7578179D01*
X-2476441Y7558500D01*
X-2460042Y7558500D02*
X-2453482Y7558500D01*
X-2450202Y7561780D01*
X-2450202Y7568339D01*
X-2453482Y7571619D01*
X-2460042Y7571619D01*
X-2463321Y7568339D01*
X-2463321Y7561780D01*
X-2460042Y7558500D01*
X-2443643Y7571619D02*
X-2443643Y7561780D01*
X-2440363Y7558500D01*
X-2437083Y7561780D01*
X-2433803Y7558500D01*
X-2430524Y7561780D01*
X-2430524Y7571619D01*
X-2414125Y7558500D02*
X-2420684Y7558500D01*
X-2423964Y7561780D01*
X-2423964Y7568339D01*
X-2420684Y7571619D01*
X-2414125Y7571619D01*
X-2410845Y7568339D01*
X-2410845Y7565060D01*
X-2423964Y7565060D01*
X-2404286Y7571619D02*
X-2404286Y7558500D01*
X-2404286Y7565060D01*
X-2401006Y7568339D01*
X-2397726Y7571619D01*
X-2394446Y7571619D01*
X-460457Y7550205D02*
X-460457Y7530212D01*
X-450460Y7530212D01*
X-447128Y7533544D01*
X-447128Y7546873D01*
X-450460Y7550205D01*
X-460457Y7550205D01*
X-440463Y7530212D02*
X-433799Y7530212D01*
X-437131Y7530212D01*
X-437131Y7543541D01*
X-440463Y7543541D01*
X-423802Y7530212D02*
X-413805Y7530212D01*
X-410473Y7533544D01*
X-413805Y7536876D01*
X-420470Y7536876D01*
X-423802Y7540208D01*
X-420470Y7543541D01*
X-410473Y7543541D01*
X-403808Y7523547D02*
X-403808Y7543541D01*
X-393812Y7543541D01*
X-390479Y7540208D01*
X-390479Y7533544D01*
X-393812Y7530212D01*
X-403808Y7530212D01*
X-383815Y7530212D02*
X-377150Y7530212D01*
X-380483Y7530212D01*
X-380483Y7550205D01*
X-383815Y7550205D01*
X-363821Y7543541D02*
X-357157Y7543541D01*
X-353825Y7540208D01*
X-353825Y7530212D01*
X-363821Y7530212D01*
X-367154Y7533544D01*
X-363821Y7536876D01*
X-353825Y7536876D01*
X-347160Y7543541D02*
X-347160Y7533544D01*
X-343828Y7530212D01*
X-333831Y7530212D01*
X-333831Y7526879D01*
X-337163Y7523547D01*
X-340496Y7523547D01*
X-333831Y7530212D02*
X-333831Y7543541D01*
X-1461181Y782391D02*
X-1461181Y762398D01*
X-1451184Y762398D01*
X-1447852Y765730D01*
X-1447852Y769062D01*
X-1451184Y772394D01*
X-1461181Y772394D01*
X-1451184Y772394D01*
X-1447852Y775727D01*
X-1447852Y779059D01*
X-1451184Y782391D01*
X-1461181Y782391D01*
X-1441188Y782391D02*
X-1427859Y782391D01*
X-1434523Y782391D01*
X-1434523Y762398D01*
X-1421194Y762398D02*
X-1414530Y762398D01*
X-1417862Y762398D01*
X-1417862Y782391D01*
X-1421194Y779059D01*
X-2008000Y1785000D02*
X-2027994Y1785000D01*
X-2027994Y1794997D01*
X-2024661Y1798329D01*
X-2017997Y1798329D01*
X-2014665Y1794997D01*
X-2014665Y1785000D01*
X-2014665Y1791665D02*
X-2008000Y1798329D01*
X-2008000Y1818322D02*
X-2008000Y1804994D01*
X-2021329Y1818322D01*
X-2024661Y1818322D01*
X-2027994Y1814990D01*
X-2027994Y1808326D01*
X-2024661Y1804994D01*
X-2024661Y1824987D02*
X-2027994Y1828319D01*
X-2027994Y1834984D01*
X-2024661Y1838316D01*
X-2021329Y1838316D01*
X-2017997Y1834984D01*
X-2014665Y1838316D01*
X-2011332Y1838316D01*
X-2008000Y1834984D01*
X-2008000Y1828319D01*
X-2011332Y1824987D01*
X-2014665Y1824987D01*
X-2017997Y1828319D01*
X-2021329Y1824987D01*
X-2024661Y1824987D01*
X-2017997Y1828319D02*
X-2017997Y1834984D01*
X-538000Y1930000D02*
X-557994Y1930000D01*
X-557994Y1939997D01*
X-554661Y1943329D01*
X-547997Y1943329D01*
X-544664Y1939997D01*
X-544664Y1930000D01*
X-544664Y1936665D02*
X-538000Y1943329D01*
X-538000Y1949994D02*
X-538000Y1956658D01*
X-538000Y1953326D01*
X-557994Y1953326D01*
X-554661Y1949994D01*
X-554661Y1966655D02*
X-557994Y1969987D01*
X-557994Y1976652D01*
X-554661Y1979984D01*
X-541332Y1979984D01*
X-538000Y1976652D01*
X-538000Y1969987D01*
X-541332Y1966655D01*
X-554661Y1966655D01*
X-363000Y6769993D02*
X-363000Y6753332D01*
X-359668Y6750000D01*
X-353003Y6750000D01*
X-349671Y6753332D01*
X-349671Y6769993D01*
X-329678Y6750000D02*
X-343007Y6750000D01*
X-329678Y6763329D01*
X-329678Y6766661D01*
X-333010Y6769993D01*
X-339674Y6769993D01*
X-343007Y6766661D01*
X-678000Y2025000D02*
X-697994Y2025000D01*
X-697994Y2034997D01*
X-694661Y2038329D01*
X-687997Y2038329D01*
X-684664Y2034997D01*
X-684664Y2025000D01*
X-684664Y2031665D02*
X-678000Y2038329D01*
X-678000Y2044994D02*
X-678000Y2051658D01*
X-678000Y2048326D01*
X-697994Y2048326D01*
X-694661Y2044994D01*
X-678000Y2061655D02*
X-678000Y2068319D01*
X-678000Y2064987D01*
X-697994Y2064987D01*
X-694661Y2061655D01*
X-149671Y6951661D02*
X-153003Y6954993D01*
X-159668Y6954993D01*
X-163000Y6951661D01*
X-163000Y6938332D01*
X-159668Y6935000D01*
X-153003Y6935000D01*
X-149671Y6938332D01*
X-143006Y6935000D02*
X-136342Y6935000D01*
X-139674Y6935000D01*
X-139674Y6954993D01*
X-143006Y6951661D01*
X-1173000Y7105000D02*
X-1173000Y7124993D01*
X-1163003Y7124993D01*
X-1159671Y7121661D01*
X-1159671Y7114997D01*
X-1163003Y7111664D01*
X-1173000Y7111664D01*
X-1153006Y7105000D02*
X-1146342Y7105000D01*
X-1149674Y7105000D01*
X-1149674Y7124993D01*
X-1153006Y7121661D01*
X-1136345Y7105000D02*
X-1129681Y7105000D01*
X-1133013Y7105000D01*
X-1133013Y7124993D01*
X-1136345Y7121661D01*
X-1887425Y3018994D02*
X-1887425Y3002332D01*
X-1884093Y2999000D01*
X-1877428Y2999000D01*
X-1874096Y3002332D01*
X-1874096Y3018994D01*
X-1867432Y2999000D02*
X-1860767Y2999000D01*
X-1864099Y2999000D01*
X-1864099Y3018994D01*
X-1867432Y3015661D01*
X-2261150Y4618461D02*
X-2281143Y4618461D01*
X-2281143Y4628458D01*
X-2277811Y4631790D01*
X-2271146Y4631790D01*
X-2267814Y4628458D01*
X-2267814Y4618461D01*
X-2261150Y4638454D02*
X-2261150Y4645119D01*
X-2261150Y4641787D01*
X-2281143Y4641787D01*
X-2277811Y4638454D01*
X-306110Y5484799D02*
X-326104Y5484799D01*
X-326104Y5494796D01*
X-322772Y5498128D01*
X-316107Y5498128D01*
X-312775Y5494796D01*
X-312775Y5484799D01*
X-306110Y5518122D02*
X-306110Y5504793D01*
X-319439Y5518122D01*
X-322772Y5518122D01*
X-326104Y5514789D01*
X-326104Y5508125D01*
X-322772Y5504793D01*
X-748000Y7050000D02*
X-748000Y7069993D01*
X-738003Y7069993D01*
X-734671Y7066661D01*
X-734671Y7059997D01*
X-738003Y7056664D01*
X-748000Y7056664D01*
X-728006Y7050000D02*
X-721342Y7050000D01*
X-724674Y7050000D01*
X-724674Y7069993D01*
X-728006Y7066661D01*
X-711345Y7066661D02*
X-708013Y7069993D01*
X-701348Y7069993D01*
X-698016Y7066661D01*
X-698016Y7053332D01*
X-701348Y7050000D01*
X-708013Y7050000D01*
X-711345Y7053332D01*
X-711345Y7066661D01*
X-893000Y6390000D02*
X-912994Y6390000D01*
X-912994Y6399997D01*
X-909661Y6403329D01*
X-902997Y6403329D01*
X-899664Y6399997D01*
X-899664Y6390000D01*
X-899664Y6396664D02*
X-893000Y6403329D01*
X-893000Y6409993D02*
X-893000Y6416658D01*
X-893000Y6413326D01*
X-912994Y6413326D01*
X-909661Y6409993D01*
X-912994Y6426655D02*
X-912994Y6439984D01*
X-909661Y6439984D01*
X-896332Y6426655D01*
X-893000Y6426655D01*
X-598000Y6395000D02*
X-617994Y6395000D01*
X-617994Y6404997D01*
X-614661Y6408329D01*
X-607997Y6408329D01*
X-604664Y6404997D01*
X-604664Y6395000D01*
X-604664Y6401664D02*
X-598000Y6408329D01*
X-598000Y6414993D02*
X-598000Y6421658D01*
X-598000Y6418326D01*
X-617994Y6418326D01*
X-614661Y6414993D01*
X-614661Y6431655D02*
X-617994Y6434987D01*
X-617994Y6441652D01*
X-614661Y6444984D01*
X-611329Y6444984D01*
X-607997Y6441652D01*
X-604664Y6444984D01*
X-601332Y6444984D01*
X-598000Y6441652D01*
X-598000Y6434987D01*
X-601332Y6431655D01*
X-604664Y6431655D01*
X-607997Y6434987D01*
X-611329Y6431655D01*
X-614661Y6431655D01*
X-607997Y6434987D02*
X-607997Y6441652D01*
X-738000Y6400000D02*
X-757994Y6400000D01*
X-757994Y6409997D01*
X-754661Y6413329D01*
X-747997Y6413329D01*
X-744664Y6409997D01*
X-744664Y6400000D01*
X-744664Y6406664D02*
X-738000Y6413329D01*
X-738000Y6419993D02*
X-738000Y6426658D01*
X-738000Y6423326D01*
X-757994Y6423326D01*
X-754661Y6419993D01*
X-741332Y6436655D02*
X-738000Y6439987D01*
X-738000Y6446652D01*
X-741332Y6449984D01*
X-754661Y6449984D01*
X-757994Y6446652D01*
X-757994Y6439987D01*
X-754661Y6436655D01*
X-751329Y6436655D01*
X-747997Y6439987D01*
X-747997Y6449984D01*
X-88000Y7310000D02*
X-88000Y7329993D01*
X-78003Y7329993D01*
X-74671Y7326661D01*
X-74671Y7319997D01*
X-78003Y7316664D01*
X-88000Y7316664D01*
X-54678Y7329993D02*
X-68007Y7329993D01*
X-68007Y7319997D01*
X-61342Y7323329D01*
X-58010Y7323329D01*
X-54678Y7319997D01*
X-54678Y7313332D01*
X-58010Y7310000D01*
X-64674Y7310000D01*
X-68007Y7313332D01*
X-1488000Y6954993D02*
X-1488000Y6938332D01*
X-1484668Y6935000D01*
X-1478003Y6935000D01*
X-1474671Y6938332D01*
X-1474671Y6954993D01*
X-1454678Y6954993D02*
X-1468006Y6954993D01*
X-1468006Y6944997D01*
X-1461342Y6948329D01*
X-1458010Y6948329D01*
X-1454678Y6944997D01*
X-1454678Y6938332D01*
X-1458010Y6935000D01*
X-1464674Y6935000D01*
X-1468006Y6938332D01*
X-73000Y1145000D02*
X-53007Y1145000D01*
X-53007Y1135003D01*
X-56339Y1131671D01*
X-63003Y1131671D01*
X-66335Y1135003D01*
X-66335Y1145000D01*
X-66335Y1138335D02*
X-73000Y1131671D01*
X-73000Y1125006D02*
X-73000Y1118342D01*
X-73000Y1121674D01*
X-53007Y1121674D01*
X-56339Y1125006D01*
X-38000Y1145000D02*
X-18006Y1145000D01*
X-18006Y1135003D01*
X-21339Y1131671D01*
X-28003Y1131671D01*
X-31335Y1135003D01*
X-31335Y1145000D01*
X-31335Y1138335D02*
X-38000Y1131671D01*
X-21339Y1125006D02*
X-18006Y1121674D01*
X-18006Y1115010D01*
X-21339Y1111678D01*
X-24671Y1111678D01*
X-28003Y1115010D01*
X-28003Y1118342D01*
X-28003Y1115010D01*
X-31335Y1111678D01*
X-34668Y1111678D01*
X-38000Y1115010D01*
X-38000Y1121674D01*
X-34668Y1125006D01*
X-43000Y705000D02*
X-23006Y705000D01*
X-23006Y695003D01*
X-26339Y691671D01*
X-33003Y691671D01*
X-36336Y695003D01*
X-36336Y705000D01*
X-36336Y698336D02*
X-43000Y691671D01*
X-43000Y675010D02*
X-23006Y675010D01*
X-33003Y685006D01*
X-33003Y671678D01*
X-78000Y1015000D02*
X-58007Y1015000D01*
X-58007Y1005003D01*
X-61339Y1001671D01*
X-68003Y1001671D01*
X-71335Y1005003D01*
X-71335Y1015000D01*
X-71335Y1008336D02*
X-78000Y1001671D01*
X-58007Y981678D02*
X-61339Y988342D01*
X-68003Y995006D01*
X-74668Y995006D01*
X-78000Y991674D01*
X-78000Y985010D01*
X-74668Y981678D01*
X-71335Y981678D01*
X-68003Y985010D01*
X-68003Y995006D01*
X-73000Y705000D02*
X-53007Y705000D01*
X-53007Y695003D01*
X-56339Y691671D01*
X-63003Y691671D01*
X-66335Y695003D01*
X-66335Y705000D01*
X-66335Y698336D02*
X-73000Y691671D01*
X-53007Y671678D02*
X-53007Y685006D01*
X-63003Y685006D01*
X-59671Y678342D01*
X-59671Y675010D01*
X-63003Y671678D01*
X-69668Y671678D01*
X-73000Y675010D01*
X-73000Y681674D01*
X-69668Y685006D01*
X-43000Y1015000D02*
X-23006Y1015000D01*
X-23006Y1005003D01*
X-26339Y1001671D01*
X-33003Y1001671D01*
X-36336Y1005003D01*
X-36336Y1015000D01*
X-36336Y1008336D02*
X-43000Y1001671D01*
X-23006Y995006D02*
X-23006Y981678D01*
X-26339Y981678D01*
X-39668Y995006D01*
X-43000Y995006D01*
X-848000Y6984993D02*
X-848000Y6965000D01*
X-838003Y6965000D01*
X-834671Y6968332D01*
X-834671Y6981661D01*
X-838003Y6984993D01*
X-848000Y6984993D01*
X-814678Y6981661D02*
X-818010Y6984993D01*
X-824674Y6984993D01*
X-828006Y6981661D01*
X-828006Y6978329D01*
X-824674Y6974997D01*
X-818010Y6974997D01*
X-814678Y6971664D01*
X-814678Y6968332D01*
X-818010Y6965000D01*
X-824674Y6965000D01*
X-828006Y6968332D01*
X-808013Y6981661D02*
X-804681Y6984993D01*
X-798016Y6984993D01*
X-794684Y6981661D01*
X-794684Y6978329D01*
X-798016Y6974997D01*
X-801348Y6974997D01*
X-798016Y6974997D01*
X-794684Y6971664D01*
X-794684Y6968332D01*
X-798016Y6965000D01*
X-804681Y6965000D01*
X-808013Y6968332D01*
X-558000Y6890000D02*
X-558000Y6909993D01*
X-548003Y6909993D01*
X-544671Y6906661D01*
X-544671Y6899997D01*
X-548003Y6896664D01*
X-558000Y6896664D01*
X-551336Y6896664D02*
X-544671Y6890000D01*
X-538006Y6890000D02*
X-531342Y6890000D01*
X-534674Y6890000D01*
X-534674Y6909993D01*
X-538006Y6906661D01*
X-511348Y6890000D02*
X-511348Y6909993D01*
X-521345Y6899997D01*
X-508016Y6899997D01*
X-563000Y6820000D02*
X-563000Y6839993D01*
X-553003Y6839993D01*
X-549671Y6836661D01*
X-549671Y6829997D01*
X-553003Y6826664D01*
X-563000Y6826664D01*
X-556336Y6826664D02*
X-549671Y6820000D01*
X-543006Y6820000D02*
X-536342Y6820000D01*
X-539674Y6820000D01*
X-539674Y6839993D01*
X-543006Y6836661D01*
X-513016Y6839993D02*
X-526345Y6839993D01*
X-526345Y6829997D01*
X-519681Y6833329D01*
X-516348Y6833329D01*
X-513016Y6829997D01*
X-513016Y6823332D01*
X-516348Y6820000D01*
X-523013Y6820000D01*
X-526345Y6823332D01*
X-568000Y6760000D02*
X-568000Y6779993D01*
X-558003Y6779993D01*
X-554671Y6776661D01*
X-554671Y6769997D01*
X-558003Y6766664D01*
X-568000Y6766664D01*
X-561336Y6766664D02*
X-554671Y6760000D01*
X-548006Y6760000D02*
X-541342Y6760000D01*
X-544674Y6760000D01*
X-544674Y6779993D01*
X-548006Y6776661D01*
X-518016Y6779993D02*
X-524681Y6776661D01*
X-531345Y6769997D01*
X-531345Y6763332D01*
X-528013Y6760000D01*
X-521348Y6760000D01*
X-518016Y6763332D01*
X-518016Y6766664D01*
X-521348Y6769997D01*
X-531345Y6769997D01*
X-734994Y1835000D02*
X-718332Y1835000D01*
X-715000Y1838332D01*
X-715000Y1844997D01*
X-718332Y1848329D01*
X-734994Y1848329D01*
X-715000Y1864990D02*
X-734994Y1864990D01*
X-724997Y1854994D01*
X-724997Y1868322D01*
X-2068000Y2625000D02*
X-2087994Y2625000D01*
X-2087994Y2634997D01*
X-2084661Y2638329D01*
X-2077997Y2638329D01*
X-2074664Y2634997D01*
X-2074664Y2625000D01*
X-2084661Y2644994D02*
X-2087994Y2648326D01*
X-2087994Y2654990D01*
X-2084661Y2658323D01*
X-2081329Y2658323D01*
X-2077997Y2654990D01*
X-2074664Y2658323D01*
X-2071332Y2658323D01*
X-2068000Y2654990D01*
X-2068000Y2648326D01*
X-2071332Y2644994D01*
X-2074664Y2644994D01*
X-2077997Y2648326D01*
X-2081329Y2644994D01*
X-2084661Y2644994D01*
X-2077997Y2648326D02*
X-2077997Y2654990D01*
X-518000Y2625000D02*
X-537994Y2625000D01*
X-537994Y2634997D01*
X-534661Y2638329D01*
X-527997Y2638329D01*
X-524664Y2634997D01*
X-524664Y2625000D01*
X-521332Y2644994D02*
X-518000Y2648326D01*
X-518000Y2654990D01*
X-521332Y2658323D01*
X-534661Y2658323D01*
X-537994Y2654990D01*
X-537994Y2648326D01*
X-534661Y2644994D01*
X-531329Y2644994D01*
X-527997Y2648326D01*
X-527997Y2658323D01*
X-1274671Y7614993D02*
X-1288000Y7614993D01*
X-1288000Y7604997D01*
X-1281335Y7604997D01*
X-1288000Y7604997D01*
X-1288000Y7595000D01*
X-1268006Y7608329D02*
X-1268006Y7598332D01*
X-1264674Y7595000D01*
X-1254678Y7595000D01*
X-1254678Y7608329D01*
X-1248013Y7595000D02*
X-1238016Y7595000D01*
X-1234684Y7598332D01*
X-1238016Y7601664D01*
X-1244681Y7601664D01*
X-1248013Y7604997D01*
X-1244681Y7608329D01*
X-1234684Y7608329D01*
X-1218023Y7595000D02*
X-1224687Y7595000D01*
X-1228020Y7598332D01*
X-1228020Y7604997D01*
X-1224687Y7608329D01*
X-1218023Y7608329D01*
X-1214690Y7604997D01*
X-1214690Y7601664D01*
X-1228020Y7601664D01*
D80*
X-2194424Y6643500D02*
G03*
X-2194424Y6643500I-183576J0D01*
G01*
X-2408000Y6706500D02*
X-2378000Y6726500D01*
X-2318000Y6616500D02*
X-2288000Y6586500D01*
X-2318000Y6616500D02*
X-2298000Y6646500D01*
X-2398000Y6656500D02*
X-2358000Y6706500D01*
X-2378000Y6636500D02*
X-2338000Y6686500D01*
X-2398000Y6656500D02*
X-2338000Y6686500D01*
X-2378000Y6636500D02*
X-2318000Y6666500D01*
X-2438000Y6736500D02*
X-2408000Y6706500D01*
X-2358000Y6616500D02*
X-2298000Y6646500D01*
X-2418000Y6676500D02*
X-2378000Y6726500D01*
X-2418000Y6676500D02*
X-2358000Y6706500D01*
X-2358000Y6616500D02*
X-2318000Y6666500D01*
D81*
X-2632575Y3778910D02*
X-2480795Y3778910D01*
%TF.MD5,4b8f0a9354035d8ec6df208c0e36f603*%
M02*
