G04 Layer_Color=16711935*
%FSLAX26Y26*%
%MOIN*%
%TF.FileFunction,Other,Mechanical_13*%
%TF.Part,Single*%
G01*
G75*
%TA.AperFunction,NonConductor*%
%ADD43C,0.007874*%
%ADD82C,0.003937*%
D43*
X1204961Y-3352835D02*
X1204961Y-3333150D01*
X1195118Y-3342992D02*
X1214803Y-3342992D01*
D82*
X1030457Y2934079D02*
G03*
X1030457Y2934079I-19685J0D01*
G01*
X1273858Y-3530000D02*
G03*
X1273858Y-3530000I-133858J0D01*
G01*
X1709094Y-2020591D02*
G03*
X1709094Y-2020591I-19685J0D01*
G01*
X1063882Y-2884362D02*
G03*
X1063882Y-2884362I-19685J0D01*
G01*
X1946575Y2446693D02*
X1946575Y2533307D01*
X1893425Y2446693D02*
X1893425Y2533307D01*
X1946575Y2533307D01*
X1893425Y2446693D02*
X1946575Y2446693D01*
X1816575Y2446693D02*
X1816575Y2533307D01*
X1763425Y2446693D02*
X1763425Y2533307D01*
X1816575Y2533307D01*
X1763425Y2446693D02*
X1816575Y2446693D01*
X1647953Y2446693D02*
X1647953Y2533307D01*
X1594803Y2446693D02*
X1594803Y2533307D01*
X1647953Y2533307D01*
X1594803Y2446693D02*
X1647953Y2446693D01*
X2153070Y2873637D02*
X2221968Y2873637D01*
X2153070Y2993716D02*
X2221968Y2993716D01*
X2221968Y2873637D02*
X2221968Y2993716D01*
X2153070Y2873637D02*
X2153070Y2993716D01*
X1980945Y2900369D02*
X1980945Y2986983D01*
X2034094Y2900369D02*
X2034094Y2986983D01*
X1980945Y2900369D02*
X2034094Y2900369D01*
X1980945Y2986983D02*
X2034094Y2986983D01*
X1980945Y2755369D02*
X1980945Y2841983D01*
X2034094Y2755369D02*
X2034094Y2841983D01*
X1980945Y2755369D02*
X2034094Y2755369D01*
X1980945Y2841983D02*
X2034094Y2841983D01*
X2305866Y2956865D02*
X2305866Y2980487D01*
X2349173Y2956865D02*
X2349173Y2980487D01*
X2305866Y2980487D02*
X2349173Y2980487D01*
X2305866Y2956865D02*
X2349173Y2956865D01*
X1736694Y-2248543D02*
X1736694Y-2191457D01*
X1823308Y-2248543D02*
X1823308Y-2191457D01*
X1736694Y-2191457D02*
X1823308Y-2191457D01*
X1736694Y-2248543D02*
X1823308Y-2248543D01*
X1736694Y-2148543D02*
X1736694Y-2091457D01*
X1823308Y-2148543D02*
X1823308Y-2091457D01*
X1736694Y-2091457D02*
X1823308Y-2091457D01*
X1736694Y-2148543D02*
X1823308Y-2148543D01*
X975339Y2768724D02*
X975339Y2969512D01*
X1152505Y2768724D02*
X1152505Y2969512D01*
X975339Y2969512D02*
X1152505Y2969512D01*
X975339Y2768724D02*
X1152505Y2768724D01*
X2308960Y-2839086D02*
X2308960Y-2752472D01*
X2255812Y-2839086D02*
X2255812Y-2752472D01*
X2308960Y-2752472D01*
X2255812Y-2839086D02*
X2308960Y-2839086D01*
X2326678Y-2839088D02*
X2326678Y-2752474D01*
X2379826Y-2839088D02*
X2379826Y-2752474D01*
X2326678Y-2839088D02*
X2379826Y-2839088D01*
X2326678Y-2752474D02*
X2379826Y-2752474D01*
X2338489Y-3287906D02*
X2338489Y-3201292D01*
X2391637Y-3287906D02*
X2391637Y-3201292D01*
X2338489Y-3287906D02*
X2391637Y-3287906D01*
X2338489Y-3201292D02*
X2391637Y-3201292D01*
X2259749Y-2972944D02*
X2259749Y-2886330D01*
X2312897Y-2972944D02*
X2312897Y-2886330D01*
X2259749Y-2972944D02*
X2312897Y-2972944D01*
X2259749Y-2886330D02*
X2312897Y-2886330D01*
X2324708Y-3287905D02*
X2324708Y-3201291D01*
X2271560Y-3287905D02*
X2271560Y-3201291D01*
X2324708Y-3201291D01*
X2271560Y-3287905D02*
X2324708Y-3287905D01*
X2383764Y-2972946D02*
X2383764Y-2886330D01*
X2330614Y-2972946D02*
X2330614Y-2886330D01*
X2383764Y-2886330D01*
X2330614Y-2972946D02*
X2383764Y-2972946D01*
X1638504Y2991496D02*
X1701496Y2991496D01*
X1638504Y2928504D02*
X1701496Y2928504D01*
X1701496Y2991496D01*
X1638504Y2928504D02*
X1638504Y2991496D01*
X1423307Y3632425D02*
X1423307Y3685575D01*
X1336693Y3632425D02*
X1336693Y3685575D01*
X1423307Y3685575D01*
X1336693Y3632425D02*
X1423307Y3632425D01*
X1176693Y3687543D02*
X1263307Y3687543D01*
X1176693Y3630457D02*
X1263307Y3630457D01*
X1263307Y3687543D01*
X1176693Y3630457D02*
X1176693Y3687543D01*
X1863425Y-2203307D02*
X1863425Y-2116693D01*
X1916575Y-2203307D02*
X1916575Y-2116693D01*
X1863425Y-2116693D02*
X1916575Y-2116693D01*
X1863425Y-2203307D02*
X1916575Y-2203307D01*
X1653976Y-1933976D02*
X1776024Y-1933976D01*
X1653976Y-2056024D02*
X1776024Y-2056024D01*
X1776024Y-1933976D01*
X1653976Y-2056024D02*
X1653976Y-1933976D01*
X1079629Y-3049717D02*
X1079629Y-2848929D01*
X902465Y-3049717D02*
X902465Y-2848929D01*
X1079629Y-2848929D01*
X902465Y-3049717D02*
X1079629Y-3049717D01*
X1760825Y3640134D02*
X1760825Y3697220D01*
X1674211Y3640134D02*
X1674211Y3697220D01*
X1760825Y3697220D01*
X1674211Y3640134D02*
X1760825Y3640134D01*
X1524209Y3685253D02*
X1610825Y3685253D01*
X1524209Y3632102D02*
X1610825Y3632102D01*
X1610825Y3685253D01*
X1524209Y3632102D02*
X1524209Y3685253D01*
X1494000Y2660913D02*
X1494000Y2747527D01*
X1440850Y2660913D02*
X1440850Y2747527D01*
X1440850Y2660913D02*
X1494000Y2660913D01*
X1440850Y2747527D02*
X1494000Y2747527D01*
X2058961Y2424693D02*
X2058961Y2511307D01*
X2112110Y2424693D02*
X2112110Y2511307D01*
X2058961Y2511307D02*
X2112110Y2511307D01*
X2058961Y2424693D02*
X2112110Y2424693D01*
X2169198Y2416819D02*
X2222346Y2416819D01*
X2169198Y2503433D02*
X2222346Y2503433D01*
X2222346Y2416819D02*
X2222346Y2503433D01*
X2169198Y2416819D02*
X2169198Y2503433D01*
X206694Y3636457D02*
X206694Y3693543D01*
X293308Y3636457D02*
X293308Y3693543D01*
X206694Y3636457D02*
X293308Y3636457D01*
X206694Y3693543D02*
X293308Y3693543D01*
X396694Y3636457D02*
X396694Y3693543D01*
X483308Y3636457D02*
X483308Y3693543D01*
X396694Y3636457D02*
X483308Y3636457D01*
X396694Y3693543D02*
X483308Y3693543D01*
X586694Y3636457D02*
X586694Y3693543D01*
X673308Y3636457D02*
X673308Y3693543D01*
X586694Y3636457D02*
X673308Y3636457D01*
X586694Y3693543D02*
X673308Y3693543D01*
X16692Y3636457D02*
X16692Y3693543D01*
X103306Y3636457D02*
X103306Y3693543D01*
X16692Y3636457D02*
X103306Y3636457D01*
X16692Y3693543D02*
X103306Y3693543D01*
X318426Y3596693D02*
X318426Y3683307D01*
X371576Y3596693D02*
X371576Y3683307D01*
X318426Y3683307D02*
X371576Y3683307D01*
X318426Y3596693D02*
X371576Y3596693D01*
X503426Y3596693D02*
X503426Y3683307D01*
X556576Y3596693D02*
X556576Y3683307D01*
X503426Y3683307D02*
X556576Y3683307D01*
X503426Y3596693D02*
X556576Y3596693D01*
X698426Y3596693D02*
X698426Y3683307D01*
X751576Y3596693D02*
X751576Y3683307D01*
X698426Y3683307D02*
X751576Y3683307D01*
X698426Y3596693D02*
X751576Y3596693D01*
X123426Y3596693D02*
X123426Y3683307D01*
X176576Y3596693D02*
X176576Y3683307D01*
X123426Y3683307D02*
X176576Y3683307D01*
X123426Y3596693D02*
X176576Y3596693D01*
X2267622Y-3157983D02*
X2267622Y-3071369D01*
X2320772Y-3157983D02*
X2320772Y-3071369D01*
X2267622Y-3071369D02*
X2320772Y-3071369D01*
X2267622Y-3157983D02*
X2320772Y-3157983D01*
X2391638Y-3157985D02*
X2391638Y-3071371D01*
X2338488Y-3157985D02*
X2338488Y-3071371D01*
X2338488Y-3157985D02*
X2391638Y-3157985D01*
X2338488Y-3071371D02*
X2391638Y-3071371D01*
%TF.MD5,8b43d98100473329dc5f04105313d59c*%
M02*
