G04 Layer_Color=255*
%FSLAX26Y26*%
%MOIN*%
%TF.FileFunction,Pads,Top*%
%TF.Part,Single*%
G01*
G75*
%TA.AperFunction,SMDPad,CuDef*%
%ADD10R,0.021654X0.017716*%
%ADD11R,0.051181X0.033465*%
G04:AMPARAMS|DCode=12|XSize=25.591mil|YSize=47.244mil|CornerRadius=1.919mil|HoleSize=0mil|Usage=FLASHONLY|Rotation=90.000|XOffset=0mil|YOffset=0mil|HoleType=Round|Shape=RoundedRectangle|*
%AMROUNDEDRECTD12*
21,1,0.025591,0.043406,0,0,90.0*
21,1,0.021752,0.047244,0,0,90.0*
1,1,0.003839,0.021703,0.010876*
1,1,0.003839,0.021703,-0.010876*
1,1,0.003839,-0.021703,-0.010876*
1,1,0.003839,-0.021703,0.010876*
%
%ADD12ROUNDEDRECTD12*%
%ADD13R,0.017716X0.021654*%
%ADD14R,0.057087X0.045276*%
%ADD15R,0.045276X0.057087*%
%ADD16R,0.037402X0.053150*%
G04:AMPARAMS|DCode=17|XSize=21.654mil|YSize=49.213mil|CornerRadius=1.949mil|HoleSize=0mil|Usage=FLASHONLY|Rotation=90.000|XOffset=0mil|YOffset=0mil|HoleType=Round|Shape=RoundedRectangle|*
%AMROUNDEDRECTD17*
21,1,0.021654,0.045315,0,0,90.0*
21,1,0.017756,0.049213,0,0,90.0*
1,1,0.003898,0.022657,0.008878*
1,1,0.003898,0.022657,-0.008878*
1,1,0.003898,-0.022657,-0.008878*
1,1,0.003898,-0.022657,0.008878*
%
%ADD17ROUNDEDRECTD17*%
%ADD18O,0.057087X0.009842*%
%ADD19O,0.072835X0.013780*%
%ADD20R,0.039370X0.023622*%
%ADD21R,0.020472X0.020472*%
%TA.AperFunction,ComponentPad*%
%ADD23R,0.059055X0.059055*%
%ADD24C,0.059055*%
%ADD25R,0.059055X0.059055*%
%ADD26C,0.070866*%
%TA.AperFunction,WasherPad*%
%ADD27C,0.196850*%
%TA.AperFunction,ComponentPad*%
%ADD28C,0.157480*%
%ADD29C,0.060000*%
D10*
X525000Y-1962716D02*
D03*
X525000Y-1927283D02*
D03*
X485000Y-1927284D02*
D03*
X485000Y-1962717D02*
D03*
X-80000Y-1962716D02*
D03*
X-80000Y-1927283D02*
D03*
X-120000Y-1927284D02*
D03*
X-120000Y-1962717D02*
D03*
X-162676Y-1962716D02*
D03*
X-162676Y-1927283D02*
D03*
X15000Y-2529202D02*
D03*
X15000Y-2564635D02*
D03*
X-40000Y-1962716D02*
D03*
X-40000Y-1927283D02*
D03*
X0Y-1927284D02*
D03*
X0Y-1962717D02*
D03*
X445434Y-1962716D02*
D03*
X445434Y-1927283D02*
D03*
X570000Y-1962716D02*
D03*
X570000Y-1927283D02*
D03*
X607324Y-1962838D02*
D03*
X607324Y-1927406D02*
D03*
X407324Y-1962838D02*
D03*
X407324Y-1927406D02*
D03*
X14196Y-2640658D02*
D03*
X14196Y-2605224D02*
D03*
X-25804Y-2710658D02*
D03*
X-25804Y-2675224D02*
D03*
X14196Y-2675224D02*
D03*
X14196Y-2710658D02*
D03*
X-203819Y-1962716D02*
D03*
X-203819Y-1927284D02*
D03*
D11*
X0Y-4848465D02*
D03*
X0Y-4781535D02*
D03*
X-20000Y-4568465D02*
D03*
X-20000Y-4501535D02*
D03*
X-495000Y-5143465D02*
D03*
X-495000Y-5076535D02*
D03*
X-40000Y-5161535D02*
D03*
X-40000Y-5228465D02*
D03*
X-490000Y-4573465D02*
D03*
X-490000Y-4506535D02*
D03*
X-468622Y-4800158D02*
D03*
X-468622Y-4867086D02*
D03*
D12*
X-286929Y-5067598D02*
D03*
X-286929Y-5142401D02*
D03*
X-403071Y-5142401D02*
D03*
X-403071Y-5105000D02*
D03*
X-403071Y-5067598D02*
D03*
X194017Y-4792598D02*
D03*
X194017Y-4867401D02*
D03*
X77875Y-4867401D02*
D03*
X77875Y-4830000D02*
D03*
X77875Y-4792598D02*
D03*
X182049Y-5080315D02*
D03*
X182049Y-5155118D02*
D03*
X65907Y-5155118D02*
D03*
X65907Y-5117717D02*
D03*
X65907Y-5080315D02*
D03*
X-266929Y-4486220D02*
D03*
X-266929Y-4561024D02*
D03*
X-383071Y-4561024D02*
D03*
X-383071Y-4523622D02*
D03*
X-383071Y-4486220D02*
D03*
X-381692Y-4786220D02*
D03*
X-381692Y-4823622D02*
D03*
X-381692Y-4861024D02*
D03*
X-265550Y-4861024D02*
D03*
X-265550Y-4786220D02*
D03*
X77875Y-4492598D02*
D03*
X77875Y-4530000D02*
D03*
X77875Y-4567402D02*
D03*
X194017Y-4567402D02*
D03*
X194017Y-4492598D02*
D03*
D13*
X1211024Y245276D02*
D03*
X1175591Y245276D02*
D03*
D14*
X-168622Y-4788188D02*
D03*
X-168622Y-4859054D02*
D03*
X-168622Y-5114567D02*
D03*
X-168622Y-5185433D02*
D03*
X7324Y-2190556D02*
D03*
X7324Y-2119688D02*
D03*
X387324Y-2240556D02*
D03*
X387324Y-2169688D02*
D03*
D15*
X-253188Y-4383622D02*
D03*
X-324054Y-4383622D02*
D03*
X216812Y-4993622D02*
D03*
X145946Y-4993622D02*
D03*
X206812Y-4683622D02*
D03*
X135946Y-4683622D02*
D03*
X216812Y-4383622D02*
D03*
X145946Y-4383622D02*
D03*
D16*
X1072600Y243386D02*
D03*
X1009608Y243386D02*
D03*
D17*
X123978Y-2520122D02*
D03*
X123978Y-2570122D02*
D03*
X123978Y-2620122D02*
D03*
X123978Y-2670122D02*
D03*
X330670Y-2520122D02*
D03*
X330670Y-2570122D02*
D03*
X330670Y-2620122D02*
D03*
X330670Y-2670122D02*
D03*
D18*
X134472Y-2083570D02*
D03*
X134472Y-2103256D02*
D03*
X134472Y-2122940D02*
D03*
X134472Y-2142626D02*
D03*
X134472Y-2162310D02*
D03*
X293922Y-2083570D02*
D03*
X293922Y-2103256D02*
D03*
X293922Y-2122940D02*
D03*
X293922Y-2142626D02*
D03*
X293922Y-2162310D02*
D03*
D19*
X82166Y-1735556D02*
D03*
X82166Y-1761146D02*
D03*
X82166Y-1786736D02*
D03*
X82166Y-1812326D02*
D03*
X82166Y-1837918D02*
D03*
X82166Y-1863508D02*
D03*
X82166Y-1889098D02*
D03*
X82166Y-1914688D02*
D03*
X312482Y-1735556D02*
D03*
X312482Y-1761146D02*
D03*
X312482Y-1786736D02*
D03*
X312482Y-1812326D02*
D03*
X312482Y-1837918D02*
D03*
X312482Y-1863508D02*
D03*
X312482Y-1889098D02*
D03*
X312482Y-1914688D02*
D03*
D20*
X268330Y-2305538D02*
D03*
X268330Y-2342940D02*
D03*
X268330Y-2380342D02*
D03*
X160062Y-2380342D02*
D03*
X160062Y-2342940D02*
D03*
X160062Y-2305538D02*
D03*
D21*
X377324Y-2340870D02*
D03*
X377324Y-2309374D02*
D03*
X87324Y-2340870D02*
D03*
X87324Y-2309374D02*
D03*
D23*
X901378Y-4573621D02*
D03*
D24*
X901378Y-4673621D02*
D03*
X901378Y-4773621D02*
D03*
X901378Y-4873621D02*
D03*
X-961811Y-2776618D02*
D03*
X-961811Y-2676618D02*
D03*
X-961811Y-2576618D02*
D03*
X-961811Y-2476618D02*
D03*
X-961811Y-2376618D02*
D03*
X-961811Y-2276618D02*
D03*
X-961811Y-2176618D02*
D03*
X-961811Y-2076618D02*
D03*
X-961811Y-1976618D02*
D03*
X-961811Y-1876618D02*
D03*
X-961811Y-1776618D02*
D03*
X-961811Y-1676618D02*
D03*
X-961811Y-1576618D02*
D03*
X-961811Y-1476618D02*
D03*
X-961811Y-1376618D02*
D03*
X-861811Y-2776618D02*
D03*
X-861811Y-2676618D02*
D03*
X-861811Y-2576618D02*
D03*
X-861811Y-2476618D02*
D03*
X-861811Y-2376618D02*
D03*
X-861811Y-2276618D02*
D03*
X-861811Y-2176618D02*
D03*
X-861811Y-2076618D02*
D03*
X-861811Y-1976618D02*
D03*
X-861811Y-1876618D02*
D03*
X-861811Y-1776618D02*
D03*
X-861811Y-1676618D02*
D03*
X-861811Y-1576618D02*
D03*
X-861811Y-1476618D02*
D03*
X1264173Y-1476618D02*
D03*
X1264173Y-1576618D02*
D03*
X1264173Y-1676618D02*
D03*
X1264173Y-1776618D02*
D03*
X1264173Y-1876618D02*
D03*
X1264173Y-1976618D02*
D03*
X1264173Y-2076618D02*
D03*
X1264173Y-2176618D02*
D03*
X1264173Y-2276618D02*
D03*
X1264173Y-2376618D02*
D03*
X1264173Y-2476618D02*
D03*
X1264173Y-2576618D02*
D03*
X1264173Y-2676618D02*
D03*
X1264173Y-2776618D02*
D03*
X1164173Y-1376618D02*
D03*
X1164173Y-1476618D02*
D03*
X1164173Y-1576618D02*
D03*
X1164173Y-1676618D02*
D03*
X1164173Y-1776618D02*
D03*
X1164173Y-1876618D02*
D03*
X1164173Y-1976618D02*
D03*
X1164173Y-2076618D02*
D03*
X1164173Y-2176618D02*
D03*
X1164173Y-2276618D02*
D03*
X1164173Y-2376618D02*
D03*
X1164173Y-2476618D02*
D03*
X1164173Y-2576618D02*
D03*
X1164173Y-2676618D02*
D03*
X1164173Y-2776618D02*
D03*
D25*
X-861811Y-1376618D02*
D03*
X1264173Y-1376618D02*
D03*
D26*
X600000Y-100000D02*
D03*
X600000Y0D02*
D03*
X500000Y0D02*
D03*
X400000Y0D02*
D03*
X300000Y0D02*
D03*
X200000Y0D02*
D03*
X100000Y0D02*
D03*
X0Y0D02*
D03*
X-100000Y0D02*
D03*
X-200000Y0D02*
D03*
X-300000Y0D02*
D03*
X-400000Y0D02*
D03*
X500000Y-100000D02*
D03*
X400000Y-100000D02*
D03*
X300000Y-100000D02*
D03*
X200000Y-100000D02*
D03*
X100000Y-100000D02*
D03*
X0Y-100000D02*
D03*
X-100000Y-100000D02*
D03*
X-200000Y-100000D02*
D03*
X-300000Y-100000D02*
D03*
X-400000Y-100000D02*
D03*
X700000Y0D02*
D03*
X700000Y-100000D02*
D03*
D27*
X-911810Y-982918D02*
D03*
X-911810Y-3345122D02*
D03*
X1214174Y-982918D02*
D03*
X1214174Y-3345122D02*
D03*
D28*
X-798622Y-4373622D02*
D03*
X1101378Y-4373622D02*
D03*
X976378Y-6973622D02*
D03*
X-673622Y-6973622D02*
D03*
D29*
X-748622Y-4573622D02*
D03*
X-748622Y-4673622D02*
D03*
X-748622Y-4773622D02*
D03*
X-748622Y-4873622D02*
D03*
X-748622Y-4973622D02*
D03*
X-748622Y-5073622D02*
D03*
X-748622Y-5173622D02*
D03*
X-748622Y-5273622D02*
D03*
X-748622Y-5373622D02*
D03*
X-748622Y-5473622D02*
D03*
X-748622Y-5573622D02*
D03*
X-748622Y-5673622D02*
D03*
X-748622Y-5773622D02*
D03*
X-748622Y-5873622D02*
D03*
X-748622Y-5973622D02*
D03*
X-748622Y-6073622D02*
D03*
X-748622Y-6173622D02*
D03*
X-748622Y-6273622D02*
D03*
X-748622Y-6373622D02*
D03*
X-748622Y-6473622D02*
D03*
X-748622Y-6573622D02*
D03*
X-748622Y-6673622D02*
D03*
X-748622Y-6773622D02*
D03*
X-848622Y-4673622D02*
D03*
X-848622Y-4773622D02*
D03*
X-848622Y-4873622D02*
D03*
X-848622Y-4973622D02*
D03*
X-848622Y-5073622D02*
D03*
X-848622Y-5173622D02*
D03*
X-848622Y-5273622D02*
D03*
X-848622Y-5373622D02*
D03*
X-848622Y-5473622D02*
D03*
X-848622Y-5573622D02*
D03*
X-848622Y-5673622D02*
D03*
X-848622Y-5773622D02*
D03*
X-848622Y-5873622D02*
D03*
X-848622Y-5973622D02*
D03*
X-848622Y-6073622D02*
D03*
X-848622Y-6173622D02*
D03*
X-848622Y-6273622D02*
D03*
X-848622Y-6373622D02*
D03*
X-848622Y-6473622D02*
D03*
X-848622Y-6573622D02*
D03*
X-848622Y-6673622D02*
D03*
X-848622Y-6773622D02*
D03*
X1051378Y-4573622D02*
D03*
X1151378Y-4573622D02*
D03*
X1151378Y-4673622D02*
D03*
X1151378Y-4773622D02*
D03*
X1151378Y-4873622D02*
D03*
X1151378Y-4973622D02*
D03*
X1151378Y-5073622D02*
D03*
X1151378Y-5173622D02*
D03*
X1151378Y-5273622D02*
D03*
X1151378Y-5373622D02*
D03*
X1151378Y-5473622D02*
D03*
X1151378Y-5573622D02*
D03*
X1151378Y-5673622D02*
D03*
X1151378Y-5773622D02*
D03*
X1151378Y-5873622D02*
D03*
X1151378Y-5973622D02*
D03*
X1151378Y-6073622D02*
D03*
X1151378Y-6173622D02*
D03*
X1151378Y-6273622D02*
D03*
X1151378Y-6373622D02*
D03*
X1151378Y-6473622D02*
D03*
X1151378Y-6573622D02*
D03*
X1151378Y-6673622D02*
D03*
X1151378Y-6773622D02*
D03*
X1051378Y-4673622D02*
D03*
X1051378Y-4773622D02*
D03*
X1051378Y-4873622D02*
D03*
X1051378Y-4973622D02*
D03*
X1051378Y-5073622D02*
D03*
X1051378Y-5173622D02*
D03*
X1051378Y-5273622D02*
D03*
X1051378Y-5373622D02*
D03*
X1051378Y-5473622D02*
D03*
X1051378Y-5573622D02*
D03*
X1051378Y-5673622D02*
D03*
X1051378Y-5773622D02*
D03*
X1051378Y-5873622D02*
D03*
X1051378Y-5973622D02*
D03*
X1051378Y-6073622D02*
D03*
X1051378Y-6173622D02*
D03*
X1051378Y-6273622D02*
D03*
X1051378Y-6373622D02*
D03*
X1051378Y-6473622D02*
D03*
X1051378Y-6573622D02*
D03*
X1051378Y-6673622D02*
D03*
X1051378Y-6773622D02*
D03*
X-848622Y-4573622D02*
D03*
%TF.MD5,34f8b99184e2897e9d840827840de2b4*%
M02*
