G04 Layer_Color=255*
%FSLAX26Y26*%
%MOIN*%
%TF.FileFunction,Pads,Bot*%
%TF.Part,Single*%
G01*
G75*
%TA.AperFunction,SMDPad,CuDef*%
%ADD11R,0.051181X0.033465*%
%ADD19O,0.072835X0.013780*%
%TA.AperFunction,ComponentPad*%
%ADD23R,0.059055X0.059055*%
%ADD24C,0.059055*%
%ADD25R,0.059055X0.059055*%
%ADD26C,0.070866*%
%TA.AperFunction,WasherPad*%
%ADD27C,0.196850*%
%TA.AperFunction,ComponentPad*%
%ADD28C,0.157480*%
%ADD29C,0.060000*%
%TA.AperFunction,SMDPad,CuDef*%
%ADD45R,0.053150X0.037402*%
D11*
X-1080000Y-4828465D02*
D03*
X-1080000Y-4761535D02*
D03*
X-1075000Y-5348465D02*
D03*
X-1075000Y-5281535D02*
D03*
X-1090000Y-5648465D02*
D03*
X-1090000Y-5581535D02*
D03*
X-1070000Y-4208465D02*
D03*
X-1070000Y-4141535D02*
D03*
X-1075000Y-5086845D02*
D03*
X-1075000Y-5019916D02*
D03*
X-1068622Y-4480158D02*
D03*
X-1068622Y-4547086D02*
D03*
D19*
X1041166Y-3946688D02*
D03*
X1041166Y-3921098D02*
D03*
X1041166Y-3895508D02*
D03*
X1041166Y-3869918D02*
D03*
X1041166Y-3844326D02*
D03*
X1041166Y-3818736D02*
D03*
X1041166Y-3793146D02*
D03*
X1041166Y-3767556D02*
D03*
X1271482Y-3946688D02*
D03*
X1271482Y-3921098D02*
D03*
X1271482Y-3895508D02*
D03*
X1271482Y-3869918D02*
D03*
X1271482Y-3844326D02*
D03*
X1271482Y-3818736D02*
D03*
X1271482Y-3793146D02*
D03*
X1271482Y-3767556D02*
D03*
D23*
X901378Y-4573621D02*
D03*
D24*
X901378Y-4673621D02*
D03*
X901378Y-4773621D02*
D03*
X901378Y-4873621D02*
D03*
X-961811Y-2776618D02*
D03*
X-961811Y-2676618D02*
D03*
X-961811Y-2576618D02*
D03*
X-961811Y-2476618D02*
D03*
X-961811Y-2376618D02*
D03*
X-961811Y-2276618D02*
D03*
X-961811Y-2176618D02*
D03*
X-961811Y-2076618D02*
D03*
X-961811Y-1976618D02*
D03*
X-961811Y-1876618D02*
D03*
X-961811Y-1776618D02*
D03*
X-961811Y-1676618D02*
D03*
X-961811Y-1576618D02*
D03*
X-961811Y-1476618D02*
D03*
X-961811Y-1376618D02*
D03*
X-861811Y-2776618D02*
D03*
X-861811Y-2676618D02*
D03*
X-861811Y-2576618D02*
D03*
X-861811Y-2476618D02*
D03*
X-861811Y-2376618D02*
D03*
X-861811Y-2276618D02*
D03*
X-861811Y-2176618D02*
D03*
X-861811Y-2076618D02*
D03*
X-861811Y-1976618D02*
D03*
X-861811Y-1876618D02*
D03*
X-861811Y-1776618D02*
D03*
X-861811Y-1676618D02*
D03*
X-861811Y-1576618D02*
D03*
X-861811Y-1476618D02*
D03*
X1264173Y-1476618D02*
D03*
X1264173Y-1576618D02*
D03*
X1264173Y-1676618D02*
D03*
X1264173Y-1776618D02*
D03*
X1264173Y-1876618D02*
D03*
X1264173Y-1976618D02*
D03*
X1264173Y-2076618D02*
D03*
X1264173Y-2176618D02*
D03*
X1264173Y-2276618D02*
D03*
X1264173Y-2376618D02*
D03*
X1264173Y-2476618D02*
D03*
X1264173Y-2576618D02*
D03*
X1264173Y-2676618D02*
D03*
X1264173Y-2776618D02*
D03*
X1164173Y-1376618D02*
D03*
X1164173Y-1476618D02*
D03*
X1164173Y-1576618D02*
D03*
X1164173Y-1676618D02*
D03*
X1164173Y-1776618D02*
D03*
X1164173Y-1876618D02*
D03*
X1164173Y-1976618D02*
D03*
X1164173Y-2076618D02*
D03*
X1164173Y-2176618D02*
D03*
X1164173Y-2276618D02*
D03*
X1164173Y-2376618D02*
D03*
X1164173Y-2476618D02*
D03*
X1164173Y-2576618D02*
D03*
X1164173Y-2676618D02*
D03*
X1164173Y-2776618D02*
D03*
D25*
X-861811Y-1376618D02*
D03*
X1264173Y-1376618D02*
D03*
D26*
X600000Y-100000D02*
D03*
X600000Y0D02*
D03*
X500000Y0D02*
D03*
X400000Y0D02*
D03*
X300000Y0D02*
D03*
X200000Y0D02*
D03*
X100000Y0D02*
D03*
X0Y0D02*
D03*
X-100000Y0D02*
D03*
X-200000Y0D02*
D03*
X-300000Y0D02*
D03*
X-400000Y0D02*
D03*
X500000Y-100000D02*
D03*
X400000Y-100000D02*
D03*
X300000Y-100000D02*
D03*
X200000Y-100000D02*
D03*
X100000Y-100000D02*
D03*
X0Y-100000D02*
D03*
X-100000Y-100000D02*
D03*
X-200000Y-100000D02*
D03*
X-300000Y-100000D02*
D03*
X-400000Y-100000D02*
D03*
X700000Y0D02*
D03*
X700000Y-100000D02*
D03*
D27*
X-911810Y-982918D02*
D03*
X-911810Y-3345122D02*
D03*
X1214174Y-982918D02*
D03*
X1214174Y-3345122D02*
D03*
D28*
X-798622Y-4373622D02*
D03*
X1101378Y-4373622D02*
D03*
X976378Y-6973622D02*
D03*
X-673622Y-6973622D02*
D03*
D29*
X-748622Y-4573622D02*
D03*
X-748622Y-4673622D02*
D03*
X-748622Y-4773622D02*
D03*
X-748622Y-4873622D02*
D03*
X-748622Y-4973622D02*
D03*
X-748622Y-5073622D02*
D03*
X-748622Y-5173622D02*
D03*
X-748622Y-5273622D02*
D03*
X-748622Y-5373622D02*
D03*
X-748622Y-5473622D02*
D03*
X-748622Y-5573622D02*
D03*
X-748622Y-5673622D02*
D03*
X-748622Y-5773622D02*
D03*
X-748622Y-5873622D02*
D03*
X-748622Y-5973622D02*
D03*
X-748622Y-6073622D02*
D03*
X-748622Y-6173622D02*
D03*
X-748622Y-6273622D02*
D03*
X-748622Y-6373622D02*
D03*
X-748622Y-6473622D02*
D03*
X-748622Y-6573622D02*
D03*
X-748622Y-6673622D02*
D03*
X-748622Y-6773622D02*
D03*
X-848622Y-4673622D02*
D03*
X-848622Y-4773622D02*
D03*
X-848622Y-4873622D02*
D03*
X-848622Y-4973622D02*
D03*
X-848622Y-5073622D02*
D03*
X-848622Y-5173622D02*
D03*
X-848622Y-5273622D02*
D03*
X-848622Y-5373622D02*
D03*
X-848622Y-5473622D02*
D03*
X-848622Y-5573622D02*
D03*
X-848622Y-5673622D02*
D03*
X-848622Y-5773622D02*
D03*
X-848622Y-5873622D02*
D03*
X-848622Y-5973622D02*
D03*
X-848622Y-6073622D02*
D03*
X-848622Y-6173622D02*
D03*
X-848622Y-6273622D02*
D03*
X-848622Y-6373622D02*
D03*
X-848622Y-6473622D02*
D03*
X-848622Y-6573622D02*
D03*
X-848622Y-6673622D02*
D03*
X-848622Y-6773622D02*
D03*
X1051378Y-4573622D02*
D03*
X1151378Y-4573622D02*
D03*
X1151378Y-4673622D02*
D03*
X1151378Y-4773622D02*
D03*
X1151378Y-4873622D02*
D03*
X1151378Y-4973622D02*
D03*
X1151378Y-5073622D02*
D03*
X1151378Y-5173622D02*
D03*
X1151378Y-5273622D02*
D03*
X1151378Y-5373622D02*
D03*
X1151378Y-5473622D02*
D03*
X1151378Y-5573622D02*
D03*
X1151378Y-5673622D02*
D03*
X1151378Y-5773622D02*
D03*
X1151378Y-5873622D02*
D03*
X1151378Y-5973622D02*
D03*
X1151378Y-6073622D02*
D03*
X1151378Y-6173622D02*
D03*
X1151378Y-6273622D02*
D03*
X1151378Y-6373622D02*
D03*
X1151378Y-6473622D02*
D03*
X1151378Y-6573622D02*
D03*
X1151378Y-6673622D02*
D03*
X1151378Y-6773622D02*
D03*
X1051378Y-4673622D02*
D03*
X1051378Y-4773622D02*
D03*
X1051378Y-4873622D02*
D03*
X1051378Y-4973622D02*
D03*
X1051378Y-5073622D02*
D03*
X1051378Y-5173622D02*
D03*
X1051378Y-5273622D02*
D03*
X1051378Y-5373622D02*
D03*
X1051378Y-5473622D02*
D03*
X1051378Y-5573622D02*
D03*
X1051378Y-5673622D02*
D03*
X1051378Y-5773622D02*
D03*
X1051378Y-5873622D02*
D03*
X1051378Y-5973622D02*
D03*
X1051378Y-6073622D02*
D03*
X1051378Y-6173622D02*
D03*
X1051378Y-6273622D02*
D03*
X1051378Y-6373622D02*
D03*
X1051378Y-6473622D02*
D03*
X1051378Y-6573622D02*
D03*
X1051378Y-6673622D02*
D03*
X1051378Y-6773622D02*
D03*
X-848622Y-4573622D02*
D03*
D45*
X-988622Y-5582126D02*
D03*
X-988622Y-5645118D02*
D03*
X-988622Y-5282126D02*
D03*
X-988622Y-5345118D02*
D03*
X-988622Y-5022126D02*
D03*
X-988622Y-5085118D02*
D03*
X-988622Y-4482126D02*
D03*
X-988622Y-4545118D02*
D03*
X-988622Y-4762126D02*
D03*
X-988622Y-4825118D02*
D03*
X-988622Y-4142126D02*
D03*
X-988622Y-4205118D02*
D03*
%TF.MD5,1f9eab2186842e1ab3c6d5157b49075f*%
M02*
