G04 Layer_Color=65535*
%FSLAX26Y26*%
%MOIN*%
%TF.FileFunction,Legend,Top*%
%TF.Part,Single*%
G01*
G75*
%TA.AperFunction,NonConductor*%
%ADD34C,0.007874*%
%ADD35C,0.010000*%
%ADD49C,0.003937*%
%ADD50C,0.005905*%
D34*
X811276Y576354D02*
X815212D01*
X811276Y621630D02*
X815212D01*
X973512Y576354D02*
X977448D01*
X973512Y621630D02*
X977448D01*
X1143513Y578591D02*
X1147448D01*
X1143513Y623867D02*
X1147448D01*
X998032Y-36654D02*
X1001968D01*
X998032Y6654D02*
X1001968D01*
X1163720Y-103346D02*
X1167656D01*
X1163720Y-146654D02*
X1167656D01*
X998032D02*
X1001968D01*
X998032Y-103346D02*
X1001968D01*
X1439874Y710231D02*
X1466112D01*
X1452993D01*
Y670874D01*
X1498910Y710231D02*
X1485791D01*
X1479231Y703672D01*
Y677434D01*
X1485791Y670874D01*
X1498910D01*
X1505470Y677434D01*
Y703672D01*
X1498910Y710231D01*
X1518589Y670874D02*
Y710231D01*
X1538267D01*
X1544827Y703672D01*
Y690553D01*
X1538267Y683993D01*
X1518589D01*
X293000Y-2163000D02*
Y-2123642D01*
X312679D01*
X319238Y-2130202D01*
Y-2143321D01*
X312679Y-2149881D01*
X293000D01*
X358596Y-2123642D02*
X332358D01*
Y-2143321D01*
X345477Y-2136762D01*
X352036D01*
X358596Y-2143321D01*
Y-2156440D01*
X352036Y-2163000D01*
X338917D01*
X332358Y-2156440D01*
X883000Y-1199000D02*
Y-1159642D01*
X902679D01*
X909238Y-1166202D01*
Y-1179321D01*
X902679Y-1185881D01*
X883000D01*
X948596Y-1159642D02*
X935477Y-1166202D01*
X922358Y-1179321D01*
Y-1192440D01*
X928917Y-1199000D01*
X942036D01*
X948596Y-1192440D01*
Y-1185881D01*
X942036Y-1179321D01*
X922358D01*
X1447882Y-2169000D02*
Y-2129642D01*
X1467561D01*
X1474120Y-2136202D01*
Y-2149321D01*
X1467561Y-2155881D01*
X1447882D01*
X1487239Y-2136202D02*
X1493799Y-2129642D01*
X1506918D01*
X1513477Y-2136202D01*
Y-2142762D01*
X1506918Y-2149321D01*
X1500358D01*
X1506918D01*
X1513477Y-2155881D01*
Y-2162440D01*
X1506918Y-2169000D01*
X1493799D01*
X1487239Y-2162440D01*
X775150Y690342D02*
Y650984D01*
X794828D01*
X801388Y657544D01*
Y683782D01*
X794828Y690342D01*
X775150D01*
X840745Y683782D02*
X834186Y690342D01*
X821067D01*
X814507Y683782D01*
Y677222D01*
X821067Y670663D01*
X834186D01*
X840745Y664103D01*
Y657544D01*
X834186Y650984D01*
X821067D01*
X814507Y657544D01*
X853864Y650984D02*
X866984D01*
X860424D01*
Y690342D01*
X853864Y683782D01*
X1092961Y695782D02*
Y656425D01*
X1112639D01*
X1119199Y662984D01*
Y689222D01*
X1112639Y695782D01*
X1092961D01*
X1158556Y689222D02*
X1151997Y695782D01*
X1138878D01*
X1132318Y689222D01*
Y682663D01*
X1138878Y676103D01*
X1151997D01*
X1158556Y669544D01*
Y662984D01*
X1151997Y656425D01*
X1138878D01*
X1132318Y662984D01*
X1197914Y656425D02*
X1171675D01*
X1197914Y682663D01*
Y689222D01*
X1191354Y695782D01*
X1178235D01*
X1171675Y689222D01*
X924717Y690342D02*
Y650984D01*
X944396D01*
X950955Y657544D01*
Y683782D01*
X944396Y690342D01*
X924717D01*
X990313Y683782D02*
X983753Y690342D01*
X970634D01*
X964075Y683782D01*
Y677222D01*
X970634Y670663D01*
X983753D01*
X990313Y664103D01*
Y657544D01*
X983753Y650984D01*
X970634D01*
X964075Y657544D01*
X1003432Y683782D02*
X1009992Y690342D01*
X1023111D01*
X1029670Y683782D01*
Y677222D01*
X1023111Y670663D01*
X1016551D01*
X1023111D01*
X1029670Y664103D01*
Y657544D01*
X1023111Y650984D01*
X1009992D01*
X1003432Y657544D01*
X1117688Y-83000D02*
Y-43643D01*
X1137367D01*
X1143926Y-50202D01*
Y-63321D01*
X1137367Y-69881D01*
X1117688D01*
X1130807D02*
X1143926Y-83000D01*
X1183284D02*
X1157046D01*
X1183284Y-56762D01*
Y-50202D01*
X1176724Y-43643D01*
X1163605D01*
X1157046Y-50202D01*
X1222641Y-43643D02*
X1196403D01*
Y-63321D01*
X1209522Y-56762D01*
X1216082D01*
X1222641Y-63321D01*
Y-76440D01*
X1216082Y-83000D01*
X1202963D01*
X1196403Y-76440D01*
X820000Y-145000D02*
Y-105643D01*
X839679D01*
X846238Y-112202D01*
Y-125321D01*
X839679Y-131881D01*
X820000D01*
X833119D02*
X846238Y-145000D01*
X885596D02*
X859357D01*
X885596Y-118762D01*
Y-112202D01*
X879036Y-105643D01*
X865917D01*
X859357Y-112202D01*
X924953Y-105643D02*
X911834Y-112202D01*
X898715Y-125321D01*
Y-138440D01*
X905274Y-145000D01*
X918394D01*
X924953Y-138440D01*
Y-131881D01*
X918394Y-125321D01*
X898715D01*
X820000Y-35000D02*
Y4357D01*
X839679D01*
X846238Y-2202D01*
Y-15321D01*
X839679Y-21881D01*
X820000D01*
X833119D02*
X846238Y-35000D01*
X885596D02*
X859357D01*
X885596Y-8762D01*
Y-2202D01*
X879036Y4357D01*
X865917D01*
X859357Y-2202D01*
X898715Y4357D02*
X924953D01*
Y-2202D01*
X898715Y-28440D01*
Y-35000D01*
X1830000Y-2330000D02*
Y-2290643D01*
X1849679D01*
X1856238Y-2297202D01*
Y-2310321D01*
X1849679Y-2316881D01*
X1830000D01*
X1869357Y-2297202D02*
X1875917Y-2290643D01*
X1889036D01*
X1895596Y-2297202D01*
Y-2303762D01*
X1889036Y-2310321D01*
X1895596Y-2316881D01*
Y-2323440D01*
X1889036Y-2330000D01*
X1875917D01*
X1869357Y-2323440D01*
Y-2316881D01*
X1875917Y-2310321D01*
X1869357Y-2303762D01*
Y-2297202D01*
X1875917Y-2310321D02*
X1889036D01*
X-80000Y-2330000D02*
Y-2290643D01*
X-60321D01*
X-53762Y-2297202D01*
Y-2310321D01*
X-60321Y-2316881D01*
X-80000D01*
X-40643Y-2323440D02*
X-34083Y-2330000D01*
X-20964D01*
X-14404Y-2323440D01*
Y-2297202D01*
X-20964Y-2290643D01*
X-34083D01*
X-40643Y-2297202D01*
Y-2303762D01*
X-34083Y-2310321D01*
X-14404D01*
X200000Y-2400016D02*
Y-2450000D01*
X233323D01*
X249984D02*
Y-2400016D01*
X266645Y-2416677D01*
X283306Y-2400016D01*
Y-2450000D01*
X299968Y-2425008D02*
X333290D01*
X349951Y-2408347D02*
X358282Y-2400016D01*
X374943D01*
X383274Y-2408347D01*
Y-2441669D01*
X374943Y-2450000D01*
X358282D01*
X349951Y-2441669D01*
Y-2408347D01*
X399935D02*
X408266Y-2400016D01*
X424927D01*
X433258Y-2408347D01*
Y-2441669D01*
X424927Y-2450000D01*
X408266D01*
X399935Y-2441669D01*
Y-2408347D01*
X474911Y-2450000D02*
Y-2400016D01*
X449919Y-2425008D01*
X483242D01*
X200000Y-2550000D02*
Y-2500016D01*
X224992D01*
X233323Y-2508347D01*
Y-2525008D01*
X224992Y-2533339D01*
X200000D01*
X216661D02*
X233323Y-2550000D01*
X283306Y-2500016D02*
X249984D01*
Y-2550000D01*
X283306D01*
X249984Y-2525008D02*
X266645D01*
X299968Y-2500016D02*
Y-2533339D01*
X316629Y-2550000D01*
X333290Y-2533339D01*
Y-2500016D01*
X399935D02*
Y-2550000D01*
X424927D01*
X433258Y-2541669D01*
Y-2533339D01*
X424927Y-2525008D01*
X399935D01*
X424927D01*
X433258Y-2516677D01*
Y-2508347D01*
X424927Y-2500016D01*
X399935D01*
X200000Y-2600016D02*
X233323D01*
Y-2608347D01*
X200000Y-2641669D01*
Y-2650000D01*
X233323D01*
X249984Y-2600016D02*
Y-2650000D01*
X283306D01*
X333290Y-2608347D02*
X324959Y-2600016D01*
X308298D01*
X299968Y-2608347D01*
Y-2616677D01*
X308298Y-2625008D01*
X324959D01*
X333290Y-2633339D01*
Y-2641669D01*
X324959Y-2650000D01*
X308298D01*
X299968Y-2641669D01*
X433258Y-2608347D02*
X424927Y-2600016D01*
X408266D01*
X399935Y-2608347D01*
Y-2641669D01*
X408266Y-2650000D01*
X424927D01*
X433258Y-2641669D01*
X458250Y-2650000D02*
X474911D01*
X483242Y-2641669D01*
Y-2625008D01*
X474911Y-2616677D01*
X458250D01*
X449919Y-2625008D01*
Y-2641669D01*
X458250Y-2650000D01*
X499903Y-2616677D02*
Y-2650000D01*
Y-2633339D01*
X508233Y-2625008D01*
X516564Y-2616677D01*
X524895D01*
X549887Y-2666661D02*
Y-2616677D01*
X574879D01*
X583209Y-2625008D01*
Y-2641669D01*
X574879Y-2650000D01*
X549887D01*
X1419238Y-2196202D02*
X1412679Y-2189642D01*
X1399560D01*
X1393000Y-2196202D01*
Y-2202762D01*
X1399560Y-2209321D01*
X1412679D01*
X1419238Y-2215881D01*
Y-2222440D01*
X1412679Y-2229000D01*
X1399560D01*
X1393000Y-2222440D01*
X1432358Y-2189642D02*
Y-2229000D01*
Y-2209321D01*
X1438917Y-2202762D01*
X1452036D01*
X1458596Y-2209321D01*
Y-2229000D01*
X1478275Y-2202762D02*
X1491394D01*
X1497953Y-2209321D01*
Y-2229000D01*
X1478275D01*
X1471715Y-2222440D01*
X1478275Y-2215881D01*
X1497953D01*
X1517632Y-2229000D02*
Y-2196202D01*
Y-2209321D01*
X1511072D01*
X1524191D01*
X1517632D01*
Y-2196202D01*
X1524191Y-2189642D01*
X1550430Y-2196202D02*
Y-2202762D01*
X1543870D01*
X1556989D01*
X1550430D01*
Y-2222440D01*
X1556989Y-2229000D01*
X143000Y-2239000D02*
Y-2212762D01*
X156119Y-2199642D01*
X169238Y-2212762D01*
Y-2239000D01*
Y-2219321D01*
X143000D01*
X182358Y-2212762D02*
Y-2239000D01*
Y-2225881D01*
X188917Y-2219321D01*
X195477Y-2212762D01*
X202036D01*
X221715D02*
Y-2239000D01*
Y-2225881D01*
X228275Y-2219321D01*
X234834Y-2212762D01*
X241394D01*
X280751Y-2239000D02*
X267632D01*
X261072Y-2232440D01*
Y-2219321D01*
X267632Y-2212762D01*
X280751D01*
X287311Y-2219321D01*
Y-2225881D01*
X261072D01*
X300430Y-2239000D02*
X320108D01*
X326668Y-2232440D01*
X320108Y-2225881D01*
X306989D01*
X300430Y-2219321D01*
X306989Y-2212762D01*
X326668D01*
X346347Y-2206202D02*
Y-2212762D01*
X339787D01*
X352906D01*
X346347D01*
Y-2232440D01*
X352906Y-2239000D01*
X372585D02*
Y-2212762D01*
X379145D01*
X385704Y-2219321D01*
Y-2239000D01*
Y-2219321D01*
X392264Y-2212762D01*
X398823Y-2219321D01*
Y-2239000D01*
X431621D02*
X418502D01*
X411942Y-2232440D01*
Y-2219321D01*
X418502Y-2212762D01*
X431621D01*
X438181Y-2219321D01*
Y-2225881D01*
X411942D01*
X451300Y-2239000D02*
Y-2212762D01*
X470978D01*
X477538Y-2219321D01*
Y-2239000D01*
X497217Y-2206202D02*
Y-2212762D01*
X490657D01*
X503776D01*
X497217D01*
Y-2232440D01*
X503776Y-2239000D01*
X826238Y-544108D02*
X800000D01*
Y-583465D01*
X826238D01*
X800000Y-563787D02*
X813119D01*
X839357Y-583465D02*
Y-557227D01*
X859036D01*
X865596Y-563787D01*
Y-583465D01*
X904953Y-557227D02*
X885274D01*
X878715Y-563787D01*
Y-576906D01*
X885274Y-583465D01*
X904953D01*
X924632D02*
X937751D01*
X944310Y-576906D01*
Y-563787D01*
X937751Y-557227D01*
X924632D01*
X918072Y-563787D01*
Y-576906D01*
X924632Y-583465D01*
X983668Y-544108D02*
Y-583465D01*
X963989D01*
X957430Y-576906D01*
Y-563787D01*
X963989Y-557227D01*
X983668D01*
X1016466Y-583465D02*
X1003347D01*
X996787Y-576906D01*
Y-563787D01*
X1003347Y-557227D01*
X1016466D01*
X1023025Y-563787D01*
Y-570346D01*
X996787D01*
X1036144Y-557227D02*
Y-583465D01*
Y-570346D01*
X1042704Y-563787D01*
X1049264Y-557227D01*
X1055823D01*
D35*
X1111326Y-2474385D02*
G03*
X1111326Y-2474385I-196850J0D01*
G01*
X194810Y-2027897D02*
G03*
X194810Y-2027897I-22361J0D01*
G01*
X1375912D02*
G03*
X1375912Y-2027897I-22361J0D01*
G01*
X843983Y-2534386D02*
Y-2384386D01*
Y-2534386D02*
X993983D01*
X823983Y-2379386D02*
X863983D01*
X172449Y-2087897D02*
X452449D01*
X172449Y-1647897D02*
X452449D01*
Y-2087897D02*
Y-1647897D01*
X172449Y-2087897D02*
Y-1647897D01*
X1353551Y-2087897D02*
X1633551D01*
X1353551Y-1647897D02*
X1633551D01*
Y-2087897D02*
Y-1647897D01*
X1353551Y-2087897D02*
Y-1647897D01*
X563000Y-1129000D02*
Y-649000D01*
Y-1129000D02*
X1233000D01*
Y-649000D01*
X563000D02*
X1233000D01*
D49*
X1098052Y-2474385D02*
G03*
X1098052Y-2474385I-183576J0D01*
G01*
X873983Y-2414386D02*
X903983Y-2394386D01*
X963983Y-2504386D02*
X993983Y-2534386D01*
X963983Y-2504386D02*
X983983Y-2474386D01*
X883983Y-2464386D02*
X923983Y-2414386D01*
X903983Y-2484386D02*
X943983Y-2434386D01*
X883983Y-2464386D02*
X943983Y-2434386D01*
X903983Y-2484386D02*
X963983Y-2454386D01*
X843983Y-2384386D02*
X873983Y-2414386D01*
X923983Y-2504386D02*
X983983Y-2474386D01*
X863983Y-2444386D02*
X903983Y-2394386D01*
X863983Y-2444386D02*
X923983Y-2414386D01*
Y-2504386D02*
X963983Y-2454386D01*
D50*
X906459Y-2569317D02*
X886778Y-2598839D01*
Y-2569317D02*
X906459D01*
X886778Y-2598839D02*
X906459D01*
X913066Y-2569317D02*
Y-2598839D01*
X929936D01*
X952850Y-2573535D02*
X950038Y-2570723D01*
X945821Y-2569317D01*
X940198D01*
X935981Y-2570723D01*
X933169Y-2573535D01*
Y-2576346D01*
X934575Y-2579158D01*
X935981Y-2580564D01*
X938792Y-2581969D01*
X947227Y-2584781D01*
X950038Y-2586187D01*
X951444Y-2587592D01*
X952850Y-2590404D01*
Y-2594621D01*
X950038Y-2597433D01*
X945821Y-2598839D01*
X940198D01*
X935981Y-2597433D01*
X933169Y-2594621D01*
%TF.MD5,370848fdec72a54cf5a65959b0173cad*%
M02*
