G04 Layer_Color=255*
%FSLAX26Y26*%
%MOIN*%
%TF.FileFunction,Pads,Bot*%
%TF.Part,Single*%
G01*
G75*
%TA.AperFunction,SMDPad,CuDef*%
%ADD12R,0.020472X0.020472*%
%ADD13R,0.020472X0.020472*%
%ADD20R,0.057087X0.045276*%
%TA.AperFunction,ComponentPad*%
%ADD30C,0.062992*%
%ADD31C,0.040000*%
%ADD32R,0.059055X0.059055*%
%ADD33C,0.059055*%
%ADD34C,0.060000*%
%TA.AperFunction,ViaPad*%
%ADD35C,0.196850*%
%TA.AperFunction,SMDPad,CuDef*%
%ADD48R,0.045276X0.057087*%
D12*
X1381772Y1248457D02*
D03*
X1350276D02*
D03*
D13*
X1663024Y1790709D02*
D03*
Y1822205D02*
D03*
X894181Y694378D02*
D03*
Y725874D02*
D03*
X1484024Y1959205D02*
D03*
Y1927709D02*
D03*
D20*
X578024Y1346024D02*
D03*
Y1416890D02*
D03*
D30*
X2306299Y3000000D02*
D03*
X2206299D02*
D03*
X2106299D02*
D03*
X1700000D02*
D03*
X1800000D02*
D03*
D31*
X890000Y3620000D02*
D03*
X990000Y3520000D02*
D03*
X790000D02*
D03*
D32*
X1729024Y1789457D02*
D03*
D33*
Y1889457D02*
D03*
Y1989457D02*
D03*
Y2089457D02*
D03*
X1429024Y1789457D02*
D03*
Y1889457D02*
D03*
Y1989457D02*
D03*
Y2089457D02*
D03*
X2400000Y300000D02*
D03*
Y400000D02*
D03*
Y500000D02*
D03*
Y600000D02*
D03*
Y700000D02*
D03*
X2300000Y300000D02*
D03*
Y400000D02*
D03*
Y500000D02*
D03*
Y600000D02*
D03*
Y700000D02*
D03*
X0Y1700000D02*
D03*
Y1600000D02*
D03*
Y1500000D02*
D03*
X100000Y1700000D02*
D03*
Y1600000D02*
D03*
Y1500000D02*
D03*
D34*
X1523622Y2303150D02*
D03*
X1673228D02*
D03*
D35*
X2350000Y2350000D02*
D03*
X0D02*
D03*
X2350000Y0D02*
D03*
X0D02*
D03*
D48*
X1433591Y1674457D02*
D03*
X1504457D02*
D03*
%TF.MD5,af0a9f3d836a32eab55abd381a9c0160*%
M02*
