G04 Layer_Color=65535*
%FSLAX26Y26*%
%MOIN*%
%TF.FileFunction,Legend,Top*%
%TF.Part,Single*%
G01*
G75*
%TA.AperFunction,NonConductor*%
%ADD26C,0.010000*%
%ADD53C,0.007874*%
%ADD54C,0.005000*%
%ADD79C,0.009842*%
%ADD80C,0.015748*%
%ADD81C,0.023622*%
%ADD82C,0.003937*%
D26*
X1636750Y2255000D02*
G03*
X1636750Y2355000I250J50000D01*
G01*
X1427250D02*
G03*
X1427250Y2255000I-250J-50000D01*
G01*
X476362Y460221D02*
G03*
X476362Y460221I-196850J0D01*
G01*
X2450000Y270000D02*
Y770000D01*
X2250000Y270000D02*
X2450000D01*
X2250000D02*
Y770000D01*
X2450000D01*
X1427250Y2255000D02*
X1636750D01*
X1427250Y2355000D02*
X1636750D01*
X879024Y1949457D02*
Y2099457D01*
Y1949457D02*
X1229024D01*
Y2099457D01*
X879024D02*
X1229024D01*
X199512Y558221D02*
X239512D01*
X219512Y403221D02*
X369512D01*
X219512D02*
Y553221D01*
X374512Y383221D02*
Y423221D01*
X1906000Y2232000D02*
X2146000D01*
X1906000D02*
Y2602000D01*
X2146000D01*
Y2232000D02*
Y2602000D01*
X213992Y156492D02*
Y96512D01*
X253979D01*
X273973D02*
Y156492D01*
X293966Y136499D01*
X313960Y156492D01*
Y96512D01*
X333953Y126502D02*
X373940D01*
X393934Y146496D02*
X403931Y156492D01*
X423924D01*
X433921Y146496D01*
Y106509D01*
X423924Y96512D01*
X403931D01*
X393934Y106509D01*
Y146496D01*
X453914D02*
X463911Y156492D01*
X483905D01*
X493902Y146496D01*
Y106509D01*
X483905Y96512D01*
X463911D01*
X453914Y106509D01*
Y146496D01*
X553882Y96512D02*
X513895D01*
X553882Y136499D01*
Y146496D01*
X543885Y156492D01*
X523892D01*
X513895Y146496D01*
X213992Y21512D02*
Y60869D01*
X233671D01*
X240230Y54310D01*
Y41191D01*
X233671Y34631D01*
X213992D01*
X227111D02*
X240230Y21512D01*
X279588Y60869D02*
X253350D01*
Y21512D01*
X279588D01*
X253350Y41191D02*
X266469D01*
X292707Y60869D02*
Y34631D01*
X305826Y21512D01*
X318945Y34631D01*
Y60869D01*
X371422Y21512D02*
Y47750D01*
X384541Y60869D01*
X397660Y47750D01*
Y21512D01*
Y41191D01*
X371422D01*
X213992Y-14131D02*
X240230D01*
Y-20690D01*
X213992Y-46929D01*
Y-53488D01*
X240230D01*
X253350Y-14131D02*
Y-53488D01*
X279588D01*
X318945Y-20690D02*
X312386Y-14131D01*
X299267D01*
X292707Y-20690D01*
Y-27250D01*
X299267Y-33809D01*
X312386D01*
X318945Y-40369D01*
Y-46929D01*
X312386Y-53488D01*
X299267D01*
X292707Y-46929D01*
X397660Y-20690D02*
X391100Y-14131D01*
X377981D01*
X371422Y-20690D01*
Y-46929D01*
X377981Y-53488D01*
X391100D01*
X397660Y-46929D01*
X417339Y-53488D02*
X430458D01*
X437017Y-46929D01*
Y-33809D01*
X430458Y-27250D01*
X417339D01*
X410779Y-33809D01*
Y-46929D01*
X417339Y-53488D01*
X450137Y-27250D02*
Y-53488D01*
Y-40369D01*
X456696Y-33809D01*
X463256Y-27250D01*
X469815D01*
X489494Y-66607D02*
Y-27250D01*
X509173D01*
X515732Y-33809D01*
Y-46929D01*
X509173Y-53488D01*
X489494D01*
X271001Y387454D02*
X239512Y340221D01*
Y387454D02*
X271001D01*
X239512Y340221D02*
X271001D01*
X281572Y387454D02*
Y340221D01*
X308563D01*
X345226Y380707D02*
X340727Y385205D01*
X333980Y387454D01*
X324983D01*
X318235Y385205D01*
X313737Y380707D01*
Y376208D01*
X315986Y371710D01*
X318235Y369461D01*
X322733Y367211D01*
X336229Y362713D01*
X340727Y360464D01*
X342977Y358214D01*
X345226Y353716D01*
Y346968D01*
X340727Y342470D01*
X333980Y340221D01*
X324983D01*
X318235Y342470D01*
X313737Y346968D01*
D53*
X1604024Y1738669D02*
G03*
X1554024Y1738669I-25000J0D01*
G01*
X329024Y2175244D02*
G03*
X379024Y2175244I25000J0D01*
G01*
X935638Y650992D02*
Y771071D01*
X864772Y650992D02*
Y771071D01*
Y650992D02*
X935638D01*
X864772Y771071D02*
X935638D01*
X1179614Y711110D02*
Y911898D01*
X1321346Y711110D02*
Y911898D01*
X1179614D02*
X1321346D01*
X1179614Y711110D02*
X1321346D01*
X551661Y759339D02*
X591032D01*
X551661Y641229D02*
X591032D01*
X551661D02*
Y759339D01*
X591032Y641229D02*
Y759339D01*
X760231Y1014772D02*
Y1054142D01*
X882279Y1014772D02*
Y1054142D01*
X760231Y1014772D02*
X882279D01*
X760231Y1054142D02*
X882279D01*
X970402Y1013207D02*
Y1052577D01*
X1092449Y1013207D02*
Y1052577D01*
X970402Y1013207D02*
X1092449D01*
X970402Y1052577D02*
X1092449D01*
X1655992Y1680599D02*
Y1713079D01*
X1695362D01*
X1655992Y1591032D02*
Y1623512D01*
Y1591032D02*
X1695362D01*
X1403000Y1611898D02*
X1435480D01*
X1403000D02*
Y1651268D01*
X1492567Y1611898D02*
X1525047D01*
Y1651268D01*
X661898Y823315D02*
Y855795D01*
X622528Y823315D02*
X661898D01*
Y912882D02*
Y945362D01*
X622528D02*
X661898D01*
X531417Y1051488D02*
Y1055425D01*
X580630Y1051488D02*
Y1055425D01*
X907055Y1487095D02*
X910992D01*
X907055Y1441819D02*
X910992D01*
X912055Y1357095D02*
X915992D01*
X912055Y1311819D02*
X915992D01*
X313000Y1079772D02*
Y1119142D01*
X435047Y1079772D02*
Y1119142D01*
X313000Y1079772D02*
X435047D01*
X313000Y1119142D02*
X435047D01*
X1474693Y2140244D02*
X1683354D01*
X1474693Y1738669D02*
X1554024D01*
X1604024D02*
X1683354D01*
X1474693D02*
Y2140244D01*
X1683354Y1738669D02*
Y2140244D01*
X506189Y1269536D02*
Y1529378D01*
X651858Y1269536D02*
Y1529378D01*
X506189D02*
X651858D01*
X506189Y1269536D02*
X651858D01*
X1215598Y1417449D02*
X1412449D01*
X1215598Y1291465D02*
X1412449D01*
Y1417449D01*
X1215598Y1291465D02*
Y1417449D01*
X249693Y1773669D02*
X458354D01*
X379024Y2175244D02*
X458354D01*
X249693D02*
X329024D01*
X458354Y1773669D02*
Y2175244D01*
X249693Y1773669D02*
Y2175244D01*
X67000Y2035000D02*
X27643D01*
Y2054679D01*
X34202Y2061238D01*
X47321D01*
X53881Y2054679D01*
Y2035000D01*
Y2048119D02*
X67000Y2061238D01*
Y2074357D02*
Y2087477D01*
Y2080917D01*
X27643D01*
X34202Y2074357D01*
Y2107155D02*
X27643Y2113715D01*
Y2126834D01*
X34202Y2133393D01*
X40762D01*
X47321Y2126834D01*
X53881Y2133393D01*
X60440D01*
X67000Y2126834D01*
Y2113715D01*
X60440Y2107155D01*
X53881D01*
X47321Y2113715D01*
X40762Y2107155D01*
X34202D01*
X47321Y2113715D02*
Y2126834D01*
D54*
X590047Y627442D02*
Y611044D01*
X593327Y607764D01*
X599887D01*
X603166Y611044D01*
Y627442D01*
X622845D02*
X616285Y624163D01*
X609726Y617603D01*
Y611044D01*
X613006Y607764D01*
X619565D01*
X622845Y611044D01*
Y614323D01*
X619565Y617603D01*
X609726D01*
X1046218Y602952D02*
X1049497Y606232D01*
Y612791D01*
X1046218Y616071D01*
X1033099D01*
X1029819Y612791D01*
Y606232D01*
X1033099Y602952D01*
X1029819Y583273D02*
Y596392D01*
X1042938Y583273D01*
X1046218D01*
X1049497Y586553D01*
Y593113D01*
X1046218Y596392D01*
Y576714D02*
X1049497Y573434D01*
Y566875D01*
X1046218Y563595D01*
X1033099D01*
X1029819Y566875D01*
Y573434D01*
X1033099Y576714D01*
X1046218D01*
X616946Y793375D02*
X613666Y796655D01*
X607107D01*
X603827Y793375D01*
Y780256D01*
X607107Y776976D01*
X613666D01*
X616946Y780256D01*
X623505Y776976D02*
X630065D01*
X626785D01*
Y796655D01*
X623505Y793375D01*
X653024Y796655D02*
X646464Y793375D01*
X639904Y786816D01*
Y780256D01*
X643184Y776976D01*
X649744D01*
X653024Y780256D01*
Y783536D01*
X649744Y786816D01*
X639904D01*
X262625Y1162576D02*
X259345Y1159296D01*
Y1152737D01*
X262625Y1149457D01*
X275744D01*
X279024Y1152737D01*
Y1159296D01*
X275744Y1162576D01*
X279024Y1169135D02*
Y1175695D01*
Y1172415D01*
X259345D01*
X262625Y1169135D01*
X330904Y1273058D02*
X334184Y1269778D01*
X340744D01*
X344024Y1273058D01*
Y1286177D01*
X340744Y1289457D01*
X334184D01*
X330904Y1286177D01*
X311226Y1289457D02*
X324345D01*
X311226Y1276338D01*
Y1273058D01*
X314506Y1269778D01*
X321065D01*
X324345Y1273058D01*
X387625Y842576D02*
X384345Y839296D01*
Y832737D01*
X387625Y829457D01*
X400744D01*
X404024Y832737D01*
Y839296D01*
X400744Y842576D01*
X387625Y849135D02*
X384345Y852415D01*
Y858975D01*
X387625Y862255D01*
X390904D01*
X394184Y858975D01*
Y855695D01*
Y858975D01*
X397464Y862255D01*
X400744D01*
X404024Y858975D01*
Y852415D01*
X400744Y849135D01*
X212625Y847576D02*
X209345Y844296D01*
Y837737D01*
X212625Y834457D01*
X225744D01*
X229024Y837737D01*
Y844296D01*
X225744Y847576D01*
X229024Y863975D02*
X209345D01*
X219184Y854135D01*
Y867255D01*
X628625Y1024576D02*
X625345Y1021296D01*
Y1014737D01*
X628625Y1011457D01*
X641744D01*
X645024Y1014737D01*
Y1021296D01*
X641744Y1024576D01*
Y1031135D02*
X645024Y1034415D01*
Y1040975D01*
X641744Y1044255D01*
X628625D01*
X625345Y1040975D01*
Y1034415D01*
X628625Y1031135D01*
X631904D01*
X635184Y1034415D01*
Y1044255D01*
X972625Y1453576D02*
X969345Y1450296D01*
Y1443737D01*
X972625Y1440457D01*
X985744D01*
X989024Y1443737D01*
Y1450296D01*
X985744Y1453576D01*
X989024Y1460135D02*
Y1466695D01*
Y1463415D01*
X969345D01*
X972625Y1460135D01*
Y1476534D02*
X969345Y1479814D01*
Y1486374D01*
X972625Y1489653D01*
X985744D01*
X989024Y1486374D01*
Y1479814D01*
X985744Y1476534D01*
X972625D01*
X977625Y1325576D02*
X974345Y1322296D01*
Y1315737D01*
X977625Y1312457D01*
X990744D01*
X994024Y1315737D01*
Y1322296D01*
X990744Y1325576D01*
X994024Y1332135D02*
Y1338695D01*
Y1335415D01*
X974345D01*
X977625Y1332135D01*
X994024Y1348534D02*
Y1355094D01*
Y1351814D01*
X974345D01*
X977625Y1348534D01*
X756861Y818348D02*
X753581Y815068D01*
Y808508D01*
X756861Y805229D01*
X769980D01*
X773260Y808508D01*
Y815068D01*
X769980Y818348D01*
X773260Y824907D02*
Y831467D01*
Y828187D01*
X753581D01*
X756861Y824907D01*
X753581Y841306D02*
Y854425D01*
X756861D01*
X769980Y841306D01*
X773260D01*
X921625Y1124576D02*
X918345Y1121296D01*
Y1114737D01*
X921625Y1111457D01*
X934744D01*
X938024Y1114737D01*
Y1121296D01*
X934744Y1124576D01*
X938024Y1131135D02*
Y1137695D01*
Y1134415D01*
X918345D01*
X921625Y1131135D01*
Y1147534D02*
X918345Y1150814D01*
Y1157374D01*
X921625Y1160653D01*
X924904D01*
X928184Y1157374D01*
X931464Y1160653D01*
X934744D01*
X938024Y1157374D01*
Y1150814D01*
X934744Y1147534D01*
X931464D01*
X928184Y1150814D01*
X924904Y1147534D01*
X921625D01*
X928184Y1150814D02*
Y1157374D01*
X2014000Y2173000D02*
Y2192679D01*
X2023839D01*
X2027119Y2189399D01*
Y2182839D01*
X2023839Y2179559D01*
X2014000D01*
X2033679Y2173000D02*
X2040238D01*
X2036958D01*
Y2192679D01*
X2033679Y2189399D01*
X878890Y2150890D02*
Y2170568D01*
X888729D01*
X892009Y2167289D01*
Y2160729D01*
X888729Y2157449D01*
X878890D01*
X911688Y2150890D02*
X898568D01*
X911688Y2164009D01*
Y2167289D01*
X908408Y2170568D01*
X901848D01*
X898568Y2167289D01*
X224024Y1154457D02*
X204345D01*
Y1164296D01*
X207625Y1167576D01*
X214184D01*
X217464Y1164296D01*
Y1154457D01*
Y1161016D02*
X224024Y1167576D01*
Y1174135D02*
Y1180695D01*
Y1177415D01*
X204345D01*
X207625Y1174135D01*
X284024Y829457D02*
X264345D01*
Y839296D01*
X267625Y842576D01*
X274184D01*
X277464Y839296D01*
Y829457D01*
Y836016D02*
X284024Y842576D01*
Y862255D02*
Y849135D01*
X270904Y862255D01*
X267625D01*
X264345Y858975D01*
Y852415D01*
X267625Y849135D01*
X339024Y1414457D02*
X319345D01*
Y1424296D01*
X322625Y1427576D01*
X329184D01*
X332464Y1424296D01*
Y1414457D01*
Y1421016D02*
X339024Y1427576D01*
X322625Y1434135D02*
X319345Y1437415D01*
Y1443975D01*
X322625Y1447255D01*
X325904D01*
X329184Y1443975D01*
Y1440695D01*
Y1443975D01*
X332464Y1447255D01*
X335744D01*
X339024Y1443975D01*
Y1437415D01*
X335744Y1434135D01*
X339024Y829457D02*
X319345D01*
Y839296D01*
X322625Y842576D01*
X329184D01*
X332464Y839296D01*
Y829457D01*
Y836016D02*
X339024Y842576D01*
Y858975D02*
X319345D01*
X329184Y849135D01*
Y862255D01*
X469024Y829457D02*
X449345D01*
Y839296D01*
X452625Y842576D01*
X459184D01*
X462464Y839296D01*
Y829457D01*
Y836016D02*
X469024Y842576D01*
X449345Y862255D02*
Y849135D01*
X459184D01*
X455904Y855695D01*
Y858975D01*
X459184Y862255D01*
X465744D01*
X469024Y858975D01*
Y852415D01*
X465744Y849135D01*
X1433772Y2375866D02*
Y2395545D01*
X1443611D01*
X1446891Y2392265D01*
Y2385705D01*
X1443611Y2382426D01*
X1433772D01*
X1440331D02*
X1446891Y2375866D01*
X1466569Y2395545D02*
X1460010Y2392265D01*
X1453450Y2385705D01*
Y2379146D01*
X1456730Y2375866D01*
X1463290D01*
X1466569Y2379146D01*
Y2382426D01*
X1463290Y2385705D01*
X1453450D01*
X1644024Y1529457D02*
Y1549135D01*
X1653863D01*
X1657143Y1545856D01*
Y1539296D01*
X1653863Y1536016D01*
X1644024D01*
X1650583D02*
X1657143Y1529457D01*
X1676821D02*
X1663702D01*
X1676821Y1542576D01*
Y1545856D01*
X1673542Y1549135D01*
X1666982D01*
X1663702Y1545856D01*
X1683381D02*
X1686661Y1549135D01*
X1693220D01*
X1696500Y1545856D01*
Y1532737D01*
X1693220Y1529457D01*
X1686661D01*
X1683381Y1532737D01*
Y1545856D01*
X1344024Y1549457D02*
Y1569135D01*
X1353863D01*
X1357143Y1565856D01*
Y1559296D01*
X1353863Y1556016D01*
X1344024D01*
X1350583D02*
X1357143Y1549457D01*
X1376821D02*
X1363702D01*
X1376821Y1562576D01*
Y1565856D01*
X1373542Y1569135D01*
X1366982D01*
X1363702Y1565856D01*
X1383381Y1549457D02*
X1389940D01*
X1386661D01*
Y1569135D01*
X1383381Y1565856D01*
X864024Y1261457D02*
X844345D01*
Y1271296D01*
X847625Y1274576D01*
X854184D01*
X857464Y1271296D01*
Y1261457D01*
Y1268016D02*
X864024Y1274576D01*
X844345Y1281135D02*
Y1294255D01*
X847625D01*
X860744Y1281135D01*
X864024D01*
X830024Y1544457D02*
X810345D01*
Y1554296D01*
X813625Y1557576D01*
X820184D01*
X823464Y1554296D01*
Y1544457D01*
Y1551016D02*
X830024Y1557576D01*
X813625Y1564135D02*
X810345Y1567415D01*
Y1573975D01*
X813625Y1577255D01*
X816904D01*
X820184Y1573975D01*
X823464Y1577255D01*
X826744D01*
X830024Y1573975D01*
Y1567415D01*
X826744Y1564135D01*
X823464D01*
X820184Y1567415D01*
X816904Y1564135D01*
X813625D01*
X820184Y1567415D02*
Y1573975D01*
X1064024Y1424457D02*
Y1444135D01*
X1073863D01*
X1077143Y1440856D01*
Y1434296D01*
X1073863Y1431016D01*
X1064024D01*
X1070583D02*
X1077143Y1424457D01*
X1083702Y1427737D02*
X1086982Y1424457D01*
X1093542D01*
X1096821Y1427737D01*
Y1440856D01*
X1093542Y1444135D01*
X1086982D01*
X1083702Y1440856D01*
Y1437576D01*
X1086982Y1434296D01*
X1096821D01*
X1051024Y1543457D02*
Y1563135D01*
X1060863D01*
X1064143Y1559856D01*
Y1553296D01*
X1060863Y1550016D01*
X1051024D01*
X1057583D02*
X1064143Y1543457D01*
X1070702D02*
X1077262D01*
X1073982D01*
Y1563135D01*
X1070702Y1559856D01*
X1087101D02*
X1090381Y1563135D01*
X1096940D01*
X1100220Y1559856D01*
Y1546737D01*
X1096940Y1543457D01*
X1090381D01*
X1087101Y1546737D01*
Y1559856D01*
X682567Y856780D02*
X702245D01*
Y846940D01*
X698966Y843660D01*
X692406D01*
X689126Y846940D01*
Y856780D01*
Y850220D02*
X682567Y843660D01*
Y837101D02*
Y830542D01*
Y833821D01*
X702245D01*
X698966Y837101D01*
X685847Y820702D02*
X682567Y817422D01*
Y810863D01*
X685847Y807583D01*
X698966D01*
X702245Y810863D01*
Y817422D01*
X698966Y820702D01*
X695686D01*
X692406Y817422D01*
Y807583D01*
X757024Y1286457D02*
X737345D01*
Y1296296D01*
X740625Y1299576D01*
X747184D01*
X750464Y1296296D01*
Y1286457D01*
Y1293016D02*
X757024Y1299576D01*
Y1306135D02*
Y1312695D01*
Y1309415D01*
X737345D01*
X740625Y1306135D01*
X757024Y1335653D02*
Y1322534D01*
X743904Y1335653D01*
X740625D01*
X737345Y1332374D01*
Y1325814D01*
X740625Y1322534D01*
X1055024Y1181457D02*
Y1201135D01*
X1064863D01*
X1068143Y1197856D01*
Y1191296D01*
X1064863Y1188016D01*
X1055024D01*
X1061583D02*
X1068143Y1181457D01*
X1074702D02*
X1081262D01*
X1077982D01*
Y1201135D01*
X1074702Y1197856D01*
X1091101D02*
X1094381Y1201135D01*
X1100940D01*
X1104220Y1197856D01*
Y1194576D01*
X1100940Y1191296D01*
X1097661D01*
X1100940D01*
X1104220Y1188016D01*
Y1184737D01*
X1100940Y1181457D01*
X1094381D01*
X1091101Y1184737D01*
X751024Y1504457D02*
X731345D01*
Y1514296D01*
X734625Y1517576D01*
X741184D01*
X744464Y1514296D01*
Y1504457D01*
Y1511016D02*
X751024Y1517576D01*
Y1524135D02*
Y1530695D01*
Y1527415D01*
X731345D01*
X734625Y1524135D01*
X751024Y1550374D02*
X731345D01*
X741184Y1540534D01*
Y1553653D01*
X1052024Y1309457D02*
Y1329135D01*
X1061863D01*
X1065143Y1325856D01*
Y1319296D01*
X1061863Y1316016D01*
X1052024D01*
X1058583D02*
X1065143Y1309457D01*
X1071702D02*
X1078262D01*
X1074982D01*
Y1329135D01*
X1071702Y1325856D01*
X1101220Y1329135D02*
X1088101D01*
Y1319296D01*
X1094661Y1322576D01*
X1097940D01*
X1101220Y1319296D01*
Y1312737D01*
X1097940Y1309457D01*
X1091381D01*
X1088101Y1312737D01*
X993024Y1223457D02*
X973345D01*
Y1233296D01*
X976625Y1236576D01*
X983184D01*
X986464Y1233296D01*
Y1223457D01*
Y1230016D02*
X993024Y1236576D01*
Y1243135D02*
Y1249695D01*
Y1246415D01*
X973345D01*
X976625Y1243135D01*
X973345Y1272653D02*
X976625Y1266094D01*
X983184Y1259534D01*
X989744D01*
X993024Y1262814D01*
Y1269374D01*
X989744Y1272653D01*
X986464D01*
X983184Y1269374D01*
Y1259534D01*
X916024Y1525457D02*
X896345D01*
Y1535296D01*
X899625Y1538576D01*
X906184D01*
X909464Y1535296D01*
Y1525457D01*
Y1532016D02*
X916024Y1538576D01*
Y1545135D02*
Y1551695D01*
Y1548415D01*
X896345D01*
X899625Y1545135D01*
X896345Y1561534D02*
Y1574653D01*
X899625D01*
X912744Y1561534D01*
X916024D01*
X458345Y1005457D02*
X474744D01*
X478024Y1008737D01*
Y1015296D01*
X474744Y1018576D01*
X458345D01*
X478024Y1025135D02*
Y1031695D01*
Y1028415D01*
X458345D01*
X461625Y1025135D01*
X1360723Y1853827D02*
X1377122D01*
X1380402Y1857107D01*
Y1863666D01*
X1377122Y1866946D01*
X1360723D01*
X1380402Y1886625D02*
Y1873505D01*
X1367283Y1886625D01*
X1364003D01*
X1360723Y1883345D01*
Y1876785D01*
X1364003Y1873505D01*
X429890Y1597568D02*
Y1581170D01*
X433170Y1577890D01*
X439729D01*
X443009Y1581170D01*
Y1597568D01*
X449568Y1594289D02*
X452848Y1597568D01*
X459408D01*
X462688Y1594289D01*
Y1591009D01*
X459408Y1587729D01*
X456128D01*
X459408D01*
X462688Y1584449D01*
Y1581170D01*
X459408Y1577890D01*
X452848D01*
X449568Y1581170D01*
X1215890Y1531568D02*
Y1515170D01*
X1219170Y1511890D01*
X1225729D01*
X1229009Y1515170D01*
Y1531568D01*
X1245408Y1511890D02*
Y1531568D01*
X1235568Y1521729D01*
X1248688D01*
X389024Y2229135D02*
Y2212737D01*
X392303Y2209457D01*
X398863D01*
X402143Y2212737D01*
Y2229135D01*
X421821D02*
X408702D01*
Y2219296D01*
X415262Y2222576D01*
X418541D01*
X421821Y2219296D01*
Y2212737D01*
X418541Y2209457D01*
X411982D01*
X408702Y2212737D01*
X709625Y1125576D02*
X706345Y1122296D01*
Y1115737D01*
X709625Y1112457D01*
X722744D01*
X726024Y1115737D01*
Y1122296D01*
X722744Y1125576D01*
X726024Y1145255D02*
Y1132135D01*
X712904Y1145255D01*
X709625D01*
X706345Y1141975D01*
Y1135415D01*
X709625Y1132135D01*
X726024Y1151814D02*
Y1158373D01*
Y1155094D01*
X706345D01*
X709625Y1151814D01*
X85000Y1595000D02*
Y1614679D01*
X94839D01*
X98119Y1611399D01*
Y1604839D01*
X94839Y1601560D01*
X85000D01*
X104679Y1611399D02*
X107958Y1614679D01*
X114518D01*
X117798Y1611399D01*
Y1608119D01*
X114518Y1604839D01*
X111238D01*
X114518D01*
X117798Y1601560D01*
Y1598280D01*
X114518Y1595000D01*
X107958D01*
X104679Y1598280D01*
X1118345Y941457D02*
X1134744D01*
X1138024Y944737D01*
Y951296D01*
X1134744Y954576D01*
X1118345D01*
Y961135D02*
Y974255D01*
X1121625D01*
X1134744Y961135D01*
X1138024D01*
X907345Y941457D02*
X923744D01*
X927024Y944737D01*
Y951296D01*
X923744Y954576D01*
X907345D01*
X927024Y961135D02*
Y967695D01*
Y964415D01*
X907345D01*
X910625Y961135D01*
Y977534D02*
X907345Y980814D01*
Y987374D01*
X910625Y990653D01*
X923744D01*
X927024Y987374D01*
Y980814D01*
X923744Y977534D01*
X910625D01*
X2228000Y713000D02*
X2208321D01*
Y722839D01*
X2211601Y726119D01*
X2218161D01*
X2221441Y722839D01*
Y713000D01*
X2228000Y742518D02*
X2208321D01*
X2218161Y732679D01*
Y745798D01*
X1268000Y956679D02*
Y940280D01*
X1271280Y937000D01*
X1277839D01*
X1281119Y940280D01*
Y956679D01*
X1287679Y953399D02*
X1290958Y956679D01*
X1297518D01*
X1300798Y953399D01*
Y950119D01*
X1297518Y946839D01*
X1300798Y943559D01*
Y940280D01*
X1297518Y937000D01*
X1290958D01*
X1287679Y940280D01*
Y943559D01*
X1290958Y946839D01*
X1287679Y950119D01*
Y953399D01*
X1290958Y946839D02*
X1297518D01*
X916205Y619353D02*
Y635752D01*
X912925Y639032D01*
X906365D01*
X903086Y635752D01*
Y619353D01*
X896526Y635752D02*
X893246Y639032D01*
X886687D01*
X883407Y635752D01*
Y622633D01*
X886687Y619353D01*
X893246D01*
X896526Y622633D01*
Y625913D01*
X893246Y629192D01*
X883407D01*
D79*
X984850Y645087D02*
G03*
X984850Y645087I-4921J0D01*
G01*
X1144181Y916819D02*
G03*
X1144181Y916819I-4921J0D01*
G01*
X522134Y771150D02*
G03*
X522134Y771150I-4921J0D01*
G01*
X754326Y976386D02*
G03*
X754326Y976386I-4921J0D01*
G01*
X964496Y974821D02*
G03*
X964496Y974821I-4921J0D01*
G01*
X1733748Y1580205D02*
G03*
X1733748Y1580205I-4921J0D01*
G01*
X1540795Y1684732D02*
G03*
X1540795Y1684732I-4921J0D01*
G01*
X593984Y956189D02*
G03*
X593984Y956189I-4921J0D01*
G01*
X307094Y1041386D02*
G03*
X307094Y1041386I-4921J0D01*
G01*
X1733945Y1738276D02*
G03*
X1733945Y1738276I-4921J0D01*
G01*
X470756Y1543158D02*
G03*
X470756Y1543158I-4921J0D01*
G01*
X1426425Y1457803D02*
G03*
X1426425Y1457803I-4921J0D01*
G01*
X208945Y2175638D02*
G03*
X208945Y2175638I-4921J0D01*
G01*
D80*
X912016Y682488D02*
G03*
X912016Y682488I-7874J0D01*
G01*
D81*
X1230795Y872528D02*
G03*
X1230795Y872528I-11811J0D01*
G01*
X1655795Y1778040D02*
G03*
X1655795Y1778040I-11811J0D01*
G01*
X557370Y1490008D02*
G03*
X557370Y1490008I-11811J0D01*
G01*
X1384890Y1378079D02*
G03*
X1384890Y1378079I-11811J0D01*
G01*
X300874Y2135874D02*
G03*
X300874Y2135874I-11811J0D01*
G01*
D82*
X463087Y460221D02*
G03*
X463087Y460221I-183576J0D01*
G01*
X299512Y433221D02*
X339512Y483221D01*
X239512Y493221D02*
X299512Y523221D01*
X239512Y493221D02*
X279512Y543221D01*
X299512Y433221D02*
X359512Y463221D01*
X219512Y553221D02*
X249512Y523221D01*
X279512Y453221D02*
X339512Y483221D01*
X259512Y473221D02*
X319512Y503221D01*
X279512Y453221D02*
X319512Y503221D01*
X259512Y473221D02*
X299512Y523221D01*
X339512Y433221D02*
X359512Y463221D01*
X339512Y433221D02*
X369512Y403221D01*
X249512Y523221D02*
X279512Y543221D01*
%TF.MD5,9e49bb834d6d4bda79514def26d6391e*%
M02*
