G04 Layer_Color=255*
%FSLAX26Y26*%
%MOIN*%
%TF.FileFunction,Pads,Top*%
%TF.Part,Single*%
G01*
G75*
%TA.AperFunction,SMDPad,CuDef*%
%ADD10R,0.029528X0.025591*%
%ADD11O,0.057087X0.009842*%
%ADD12O,0.049213X0.013780*%
%ADD13R,0.020472X0.020472*%
%ADD14R,0.020472X0.020472*%
%ADD15R,0.039370X0.023622*%
G04:AMPARAMS|DCode=16|XSize=25.591mil|YSize=47.244mil|CornerRadius=1.919mil|HoleSize=0mil|Usage=FLASHONLY|Rotation=180.000|XOffset=0mil|YOffset=0mil|HoleType=Round|Shape=RoundedRectangle|*
%AMROUNDEDRECTD16*
21,1,0.025591,0.043406,0,0,180.0*
21,1,0.021752,0.047244,0,0,180.0*
1,1,0.003839,-0.010876,0.021703*
1,1,0.003839,0.010876,0.021703*
1,1,0.003839,0.010876,-0.021703*
1,1,0.003839,-0.010876,-0.021703*
%
%ADD16ROUNDEDRECTD16*%
%ADD17R,0.035433X0.025591*%
%ADD18R,0.025591X0.035433*%
%ADD19R,0.025591X0.029528*%
%ADD20R,0.057087X0.045276*%
%ADD21R,0.037402X0.053150*%
%ADD22O,0.055118X0.013780*%
G04:AMPARAMS|DCode=23|XSize=21.654mil|YSize=49.213mil|CornerRadius=1.949mil|HoleSize=0mil|Usage=FLASHONLY|Rotation=0.000|XOffset=0mil|YOffset=0mil|HoleType=Round|Shape=RoundedRectangle|*
%AMROUNDEDRECTD23*
21,1,0.021654,0.045315,0,0,0.0*
21,1,0.017756,0.049213,0,0,0.0*
1,1,0.003898,0.008878,-0.022657*
1,1,0.003898,-0.008878,-0.022657*
1,1,0.003898,-0.008878,0.022657*
1,1,0.003898,0.008878,0.022657*
%
%ADD23ROUNDEDRECTD23*%
%TA.AperFunction,ViaPad*%
%ADD27C,0.196850*%
%TA.AperFunction,ComponentPad*%
%ADD28C,0.059055*%
%ADD29C,0.040000*%
%ADD30C,0.062992*%
%ADD31C,0.060000*%
%ADD32C,0.037000*%
%ADD33R,0.037000X0.037000*%
%ADD34R,0.059055X0.059055*%
D10*
X112000Y2062346D02*
D03*
Y2105653D02*
D03*
X424024Y927803D02*
D03*
Y971110D02*
D03*
X204024Y1121110D02*
D03*
Y1077803D02*
D03*
X274024Y927803D02*
D03*
Y971110D02*
D03*
X944024Y1276110D02*
D03*
Y1232803D02*
D03*
Y1522803D02*
D03*
Y1566110D02*
D03*
X374024Y1466110D02*
D03*
Y1422803D02*
D03*
X334024Y971110D02*
D03*
Y927803D02*
D03*
D11*
X979929Y671662D02*
D03*
Y691346D02*
D03*
Y711032D02*
D03*
Y730717D02*
D03*
Y750402D02*
D03*
X820480Y671662D02*
D03*
Y691346D02*
D03*
Y711032D02*
D03*
Y730717D02*
D03*
Y750402D02*
D03*
D12*
X1139260Y888276D02*
D03*
Y862685D02*
D03*
Y837095D02*
D03*
Y811504D02*
D03*
Y785913D02*
D03*
Y760323D02*
D03*
Y734732D02*
D03*
X1361701Y888276D02*
D03*
Y862685D02*
D03*
Y837095D02*
D03*
Y811504D02*
D03*
Y785913D02*
D03*
Y760323D02*
D03*
Y734732D02*
D03*
D13*
X552095Y787693D02*
D03*
X583591D02*
D03*
X303276Y1224457D02*
D03*
X334772D02*
D03*
D14*
X1041819Y666819D02*
D03*
Y635323D02*
D03*
X264024Y1083709D02*
D03*
Y1115205D02*
D03*
X379024Y943709D02*
D03*
Y975205D02*
D03*
X224024Y923709D02*
D03*
Y955205D02*
D03*
X764260Y781976D02*
D03*
Y750480D02*
D03*
X933024Y1058709D02*
D03*
Y1090205D02*
D03*
X717024Y1057709D02*
D03*
Y1089205D02*
D03*
D15*
X517213Y737685D02*
D03*
Y700284D02*
D03*
Y662882D02*
D03*
X625480D02*
D03*
Y700284D02*
D03*
Y737685D02*
D03*
D16*
X783853Y976386D02*
D03*
X821255D02*
D03*
X858657D02*
D03*
Y1092528D02*
D03*
X783853D02*
D03*
X994024Y974821D02*
D03*
X1031425D02*
D03*
X1068827D02*
D03*
Y1090963D02*
D03*
X994024D02*
D03*
X336622Y1041386D02*
D03*
X374024D02*
D03*
X411425D02*
D03*
Y1157528D02*
D03*
X336622D02*
D03*
D17*
X1638276Y1652055D02*
D03*
X1728827Y1689457D02*
D03*
Y1614654D02*
D03*
X679614Y884339D02*
D03*
X589063Y846937D02*
D03*
Y921740D02*
D03*
D18*
X1464024Y1594181D02*
D03*
X1426622Y1684732D02*
D03*
X1501425D02*
D03*
D19*
X777370Y1464457D02*
D03*
X820677D02*
D03*
X820677Y1514457D02*
D03*
X777370D02*
D03*
X1100677Y1469457D02*
D03*
X1057370D02*
D03*
X1100677Y1519457D02*
D03*
X1057370D02*
D03*
X777370Y1284457D02*
D03*
X820677D02*
D03*
X1100677Y1229457D02*
D03*
X1057370D02*
D03*
X820677Y1334457D02*
D03*
X777370D02*
D03*
X1100677Y1279457D02*
D03*
X1057370D02*
D03*
D20*
X556024Y1018024D02*
D03*
Y1088890D02*
D03*
D21*
X877528Y1464457D02*
D03*
X940520D02*
D03*
X882528Y1334457D02*
D03*
X945520D02*
D03*
D22*
X465835Y1514614D02*
D03*
Y1489024D02*
D03*
Y1463433D02*
D03*
Y1437843D02*
D03*
Y1412252D02*
D03*
Y1386661D02*
D03*
Y1361071D02*
D03*
Y1335480D02*
D03*
Y1309890D02*
D03*
Y1284299D02*
D03*
X692213Y1514614D02*
D03*
Y1489024D02*
D03*
Y1463433D02*
D03*
Y1437843D02*
D03*
Y1412252D02*
D03*
Y1386661D02*
D03*
Y1361071D02*
D03*
Y1335480D02*
D03*
Y1309890D02*
D03*
Y1284299D02*
D03*
D23*
X1389024Y1457803D02*
D03*
X1339024D02*
D03*
X1289024D02*
D03*
X1239024D02*
D03*
X1389024Y1251110D02*
D03*
X1339024D02*
D03*
X1289024D02*
D03*
X1239024D02*
D03*
D27*
X0Y0D02*
D03*
X2350000D02*
D03*
X0Y2350000D02*
D03*
X2350000D02*
D03*
D28*
X2300000Y720000D02*
D03*
Y620000D02*
D03*
Y520000D02*
D03*
Y420000D02*
D03*
Y320000D02*
D03*
X2400000Y720000D02*
D03*
Y620000D02*
D03*
Y520000D02*
D03*
Y420000D02*
D03*
Y320000D02*
D03*
X1429024Y2089457D02*
D03*
Y1989457D02*
D03*
Y1889457D02*
D03*
Y1789457D02*
D03*
X1729024Y2089457D02*
D03*
Y1989457D02*
D03*
Y1889457D02*
D03*
X504024Y1824457D02*
D03*
Y1924457D02*
D03*
Y2024457D02*
D03*
Y2124457D02*
D03*
X204024Y1824457D02*
D03*
Y1924457D02*
D03*
Y2024457D02*
D03*
D29*
X689024Y2409457D02*
D03*
X489024D02*
D03*
X589024Y2509457D02*
D03*
D30*
X0Y1400000D02*
D03*
Y1500000D02*
D03*
Y1600000D02*
D03*
Y1700000D02*
D03*
X2076000Y2282000D02*
D03*
X1976000D02*
D03*
D31*
X1607000Y2305000D02*
D03*
X1457394D02*
D03*
D32*
X979024Y2049457D02*
D03*
X1129024D02*
D03*
X1079024D02*
D03*
X1029024D02*
D03*
X929024D02*
D03*
X1179024Y1999457D02*
D03*
X1129024D02*
D03*
X1079024D02*
D03*
X1029024D02*
D03*
X979024D02*
D03*
X929024D02*
D03*
D33*
X1179024Y2049457D02*
D03*
D34*
X1729024Y1789457D02*
D03*
X204024Y2124457D02*
D03*
%TF.MD5,1848e1bfddb68244dd8abb2a1e69ec5d*%
M02*
