G04 Layer_Color=16711935*
%FSLAX26Y26*%
%MOIN*%
%TF.FileFunction,Soldermask,Bot*%
%TF.Part,Single*%
G01*
G75*
%TA.AperFunction,SMDPad,CuDef*%
%ADD53R,0.028472X0.028472*%
%ADD54R,0.028472X0.028472*%
%ADD61R,0.065087X0.053276*%
%TA.AperFunction,ComponentPad*%
%ADD70C,0.048000*%
%ADD71C,0.070992*%
%ADD72R,0.067055X0.067055*%
%ADD73C,0.067055*%
%ADD74C,0.068000*%
%TA.AperFunction,ViaPad*%
%ADD75C,0.204850*%
%ADD76C,0.047370*%
%ADD77C,0.058000*%
%TA.AperFunction,SMDPad,CuDef*%
%ADD84R,0.053276X0.065087*%
D53*
X1381772Y1248457D02*
D03*
X1350276D02*
D03*
D54*
X1663024Y1790709D02*
D03*
Y1822205D02*
D03*
X894181Y694378D02*
D03*
Y725874D02*
D03*
X1484024Y1959205D02*
D03*
Y1927709D02*
D03*
D61*
X578024Y1346024D02*
D03*
Y1416890D02*
D03*
D70*
X890000Y3620000D02*
D03*
X990000Y3520000D02*
D03*
X790000D02*
D03*
D71*
X1700000Y3000000D02*
D03*
X1800000D02*
D03*
X2306299D02*
D03*
X2206299D02*
D03*
X2106299D02*
D03*
X415000Y808804D02*
D03*
X315000D02*
D03*
X510000Y1640000D02*
D03*
X410000D02*
D03*
D72*
X1729024Y1789457D02*
D03*
D73*
Y1889457D02*
D03*
Y1989457D02*
D03*
Y2089457D02*
D03*
X1429024Y1789457D02*
D03*
Y1889457D02*
D03*
Y1989457D02*
D03*
Y2089457D02*
D03*
X0Y1700000D02*
D03*
Y1600000D02*
D03*
Y1500000D02*
D03*
X100000Y1700000D02*
D03*
Y1600000D02*
D03*
Y1500000D02*
D03*
X2400000Y300000D02*
D03*
Y400000D02*
D03*
Y500000D02*
D03*
Y600000D02*
D03*
Y700000D02*
D03*
X2300000Y300000D02*
D03*
Y400000D02*
D03*
Y500000D02*
D03*
Y600000D02*
D03*
Y700000D02*
D03*
D74*
X1523622Y2303150D02*
D03*
X1673228D02*
D03*
D75*
X2350000Y2350000D02*
D03*
X0D02*
D03*
X2350000Y0D02*
D03*
X0D02*
D03*
D76*
X776000Y1227000D02*
D03*
X1239756Y1377756D02*
D03*
X1099354Y1377000D02*
D03*
X994024Y1149457D02*
D03*
X774024Y1569457D02*
D03*
X489024Y1089457D02*
D03*
X644024Y1559457D02*
D03*
X758024Y1412457D02*
D03*
X288024Y1174457D02*
D03*
X783024Y1159457D02*
D03*
X702024Y1234457D02*
D03*
X246024Y1017457D02*
D03*
X893197Y761307D02*
D03*
X1433551Y836110D02*
D03*
X1042803Y708158D02*
D03*
X1085126Y863669D02*
D03*
X675677Y665106D02*
D03*
D77*
X1003000Y1399000D02*
D03*
X526000Y2041000D02*
D03*
X533000Y2118000D02*
D03*
X1444024Y1249457D02*
D03*
X538843Y603693D02*
D03*
X1230000Y1870000D02*
D03*
X1130000Y2220000D02*
D03*
Y1850000D02*
D03*
X1080000Y1890000D02*
D03*
D84*
X1433591Y1674457D02*
D03*
X1504457D02*
D03*
%TF.MD5,0501bb828b5912db79b46e28d5665757*%
M02*
