G04 Layer_Color=2752767*
%FSLAX26Y26*%
%MOIN*%
%TF.FileFunction,Drawing*%
%TF.Part,Single*%
G01*
G75*
%TA.AperFunction,NonConductor*%
%ADD50C,0.005000*%
%ADD100C,0.006667*%
D50*
X2286299Y2980000D02*
Y3020000D01*
X2326299D01*
Y2980000D01*
X2286299D01*
X2186299D02*
Y3020000D01*
X2226299D01*
Y2980000D01*
X2186299D01*
X2086299D02*
Y3020000D01*
X2126299D01*
Y2980000D01*
X2086299D01*
X1680000D02*
Y3020000D01*
X1720000D01*
Y2980000D01*
X1680000D01*
X1780000D02*
Y3020000D01*
X1820000D01*
Y2980000D01*
X1780000D01*
X1729024Y1769457D02*
X1709024Y1809457D01*
X1749024D01*
X1729024Y1769457D01*
Y1869457D02*
X1709024Y1909457D01*
X1749024D01*
X1729024Y1869457D01*
Y1969457D02*
X1709024Y2009457D01*
X1749024D01*
X1729024Y1969457D01*
Y2069457D02*
X1709024Y2109457D01*
X1749024D01*
X1729024Y2069457D01*
X1429024Y1769457D02*
X1409024Y1809457D01*
X1449024D01*
X1429024Y1769457D01*
Y1869457D02*
X1409024Y1909457D01*
X1449024D01*
X1429024Y1869457D01*
Y1969457D02*
X1409024Y2009457D01*
X1449024D01*
X1429024Y1969457D01*
Y2069457D02*
X1409024Y2109457D01*
X1449024D01*
X1429024Y2069457D01*
X1523622Y2283150D02*
X1533622Y2293150D01*
X1543622D01*
X1533622Y2303150D01*
X1543622Y2313150D01*
X1533622D01*
X1523622Y2323150D01*
X1513622Y2313150D01*
X1503622D01*
X1513622Y2303150D01*
X1503622Y2293150D01*
X1513622D01*
X1523622Y2283150D01*
X1673228D02*
X1683228Y2293150D01*
X1693228D01*
X1683228Y2303150D01*
X1693228Y2313150D01*
X1683228D01*
X1673228Y2323150D01*
X1663228Y2313150D01*
X1653228D01*
X1663228Y2303150D01*
X1653228Y2293150D01*
X1663228D01*
X1673228Y2283150D01*
X2380000Y280000D02*
Y320000D01*
X2420000D01*
Y280000D01*
X2380000D01*
Y380000D02*
Y420000D01*
X2420000D01*
Y380000D01*
X2380000D01*
Y480000D02*
Y520000D01*
X2420000D01*
Y480000D01*
X2380000D01*
Y580000D02*
Y620000D01*
X2420000D01*
Y580000D01*
X2380000D01*
Y680000D02*
Y720000D01*
X2420000D01*
Y680000D01*
X2380000D01*
X2280000Y280000D02*
Y320000D01*
X2320000D01*
Y280000D01*
X2280000D01*
Y380000D02*
Y420000D01*
X2320000D01*
Y380000D01*
X2280000D01*
Y480000D02*
Y520000D01*
X2320000D01*
Y480000D01*
X2280000D01*
Y580000D02*
Y620000D01*
X2320000D01*
Y580000D01*
X2280000D01*
Y680000D02*
Y720000D01*
X2320000D01*
Y680000D01*
X2280000D01*
X2330000Y2330000D02*
X2340000Y2350000D01*
X2330000Y2370000D01*
X2350000Y2360000D01*
X2370000Y2370000D01*
X2360000Y2350000D01*
X2370000Y2330000D01*
X2350000Y2340000D01*
X2330000Y2330000D01*
X-20000D02*
X-10000Y2350000D01*
X-20000Y2370000D01*
X0Y2360000D01*
X20000Y2370000D01*
X10000Y2350000D01*
X20000Y2330000D01*
X0Y2340000D01*
X-20000Y2330000D01*
X2330000Y-20000D02*
X2340000Y0D01*
X2330000Y20000D01*
X2350000Y10000D01*
X2370000Y20000D01*
X2360000Y0D01*
X2370000Y-20000D01*
X2350000Y-10000D01*
X2330000Y-20000D01*
X-20000D02*
X-10000Y0D01*
X-20000Y20000D01*
X0Y10000D01*
X20000Y20000D01*
X10000Y0D01*
X20000Y-20000D01*
X0Y-10000D01*
X-20000Y-20000D01*
Y1680000D02*
Y1720000D01*
X20000D01*
Y1680000D01*
X-20000D01*
Y1580000D02*
Y1620000D01*
X20000D01*
Y1580000D01*
X-20000D01*
Y1480000D02*
Y1520000D01*
X20000D01*
Y1480000D01*
X-20000D01*
X80000Y1680000D02*
Y1720000D01*
X120000D01*
Y1680000D01*
X80000D01*
Y1580000D02*
Y1620000D01*
X120000D01*
Y1580000D01*
X80000D01*
Y1480000D02*
Y1520000D01*
X120000D01*
Y1480000D01*
X80000D01*
X766000Y1217000D02*
Y1207000D01*
X786000D01*
Y1217000D01*
X796000D01*
Y1237000D01*
X786000D01*
Y1247000D01*
X766000D01*
Y1237000D01*
X756000D01*
Y1217000D01*
X766000D01*
X983000Y1379000D02*
X993000D01*
X1003000Y1389000D01*
X1013000Y1379000D01*
X1023000D01*
Y1389000D01*
X1013000Y1399000D01*
X1023000Y1409000D01*
Y1419000D01*
X1013000D01*
X1003000Y1409000D01*
X993000Y1419000D01*
X983000D01*
Y1409000D01*
X993000Y1399000D01*
X983000Y1389000D01*
Y1379000D01*
X506000Y2021000D02*
X516000D01*
X526000Y2031000D01*
X536000Y2021000D01*
X546000D01*
Y2031000D01*
X536000Y2041000D01*
X546000Y2051000D01*
Y2061000D01*
X536000D01*
X526000Y2051000D01*
X516000Y2061000D01*
X506000D01*
Y2051000D01*
X516000Y2041000D01*
X506000Y2031000D01*
Y2021000D01*
X513000Y2098000D02*
X523000D01*
X533000Y2108000D01*
X543000Y2098000D01*
X553000D01*
Y2108000D01*
X543000Y2118000D01*
X553000Y2128000D01*
Y2138000D01*
X543000D01*
X533000Y2128000D01*
X523000Y2138000D01*
X513000D01*
Y2128000D01*
X523000Y2118000D01*
X513000Y2108000D01*
Y2098000D01*
X1229756Y1367756D02*
Y1357756D01*
X1249756D01*
Y1367756D01*
X1259756D01*
Y1387756D01*
X1249756D01*
Y1397756D01*
X1229756D01*
Y1387756D01*
X1219756D01*
Y1367756D01*
X1229756D01*
X1089354Y1367000D02*
Y1357000D01*
X1109354D01*
Y1367000D01*
X1119354D01*
Y1387000D01*
X1109354D01*
Y1397000D01*
X1089354D01*
Y1387000D01*
X1079354D01*
Y1367000D01*
X1089354D01*
X984024Y1139457D02*
Y1129457D01*
X1004024D01*
Y1139457D01*
X1014024D01*
Y1159457D01*
X1004024D01*
Y1169457D01*
X984024D01*
Y1159457D01*
X974024D01*
Y1139457D01*
X984024D01*
X1424024Y1229457D02*
X1434024D01*
X1444024Y1239457D01*
X1454024Y1229457D01*
X1464024D01*
Y1239457D01*
X1454024Y1249457D01*
X1464024Y1259457D01*
Y1269457D01*
X1454024D01*
X1444024Y1259457D01*
X1434024Y1269457D01*
X1424024D01*
Y1259457D01*
X1434024Y1249457D01*
X1424024Y1239457D01*
Y1229457D01*
X764024Y1559457D02*
Y1549457D01*
X784024D01*
Y1559457D01*
X794024D01*
Y1579457D01*
X784024D01*
Y1589457D01*
X764024D01*
Y1579457D01*
X754024D01*
Y1559457D01*
X764024D01*
X479024Y1079457D02*
Y1069457D01*
X499024D01*
Y1079457D01*
X509024D01*
Y1099457D01*
X499024D01*
Y1109457D01*
X479024D01*
Y1099457D01*
X469024D01*
Y1079457D01*
X479024D01*
X634024Y1549457D02*
Y1539457D01*
X654024D01*
Y1549457D01*
X664024D01*
Y1569457D01*
X654024D01*
Y1579457D01*
X634024D01*
Y1569457D01*
X624024D01*
Y1549457D01*
X634024D01*
X748024Y1402457D02*
Y1392457D01*
X768024D01*
Y1402457D01*
X778024D01*
Y1422457D01*
X768024D01*
Y1432457D01*
X748024D01*
Y1422457D01*
X738024D01*
Y1402457D01*
X748024D01*
X278024Y1164457D02*
Y1154457D01*
X298024D01*
Y1164457D01*
X308024D01*
Y1184457D01*
X298024D01*
Y1194457D01*
X278024D01*
Y1184457D01*
X268024D01*
Y1164457D01*
X278024D01*
X518843Y583693D02*
X528843D01*
X538843Y593693D01*
X548843Y583693D01*
X558843D01*
Y593693D01*
X548843Y603693D01*
X558843Y613693D01*
Y623693D01*
X548843D01*
X538843Y613693D01*
X528843Y623693D01*
X518843D01*
Y613693D01*
X528843Y603693D01*
X518843Y593693D01*
Y583693D01*
X773024Y1149457D02*
Y1139457D01*
X793024D01*
Y1149457D01*
X803024D01*
Y1169457D01*
X793024D01*
Y1179457D01*
X773024D01*
Y1169457D01*
X763024D01*
Y1149457D01*
X773024D01*
X692024Y1224457D02*
Y1214457D01*
X712024D01*
Y1224457D01*
X722024D01*
Y1244457D01*
X712024D01*
Y1254457D01*
X692024D01*
Y1244457D01*
X682024D01*
Y1224457D01*
X692024D01*
X236024Y1007457D02*
Y997457D01*
X256024D01*
Y1007457D01*
X266024D01*
Y1027457D01*
X256024D01*
Y1037457D01*
X236024D01*
Y1027457D01*
X226024D01*
Y1007457D01*
X236024D01*
X883197Y751307D02*
Y741307D01*
X903197D01*
Y751307D01*
X913197D01*
Y771307D01*
X903197D01*
Y781307D01*
X883197D01*
Y771307D01*
X873197D01*
Y751307D01*
X883197D01*
X1423551Y826110D02*
Y816110D01*
X1443551D01*
Y826110D01*
X1453551D01*
Y846110D01*
X1443551D01*
Y856110D01*
X1423551D01*
Y846110D01*
X1413551D01*
Y826110D01*
X1423551D01*
X1032803Y698158D02*
Y688158D01*
X1052803D01*
Y698158D01*
X1062803D01*
Y718158D01*
X1052803D01*
Y728158D01*
X1032803D01*
Y718158D01*
X1022803D01*
Y698158D01*
X1032803D01*
X1075126Y853669D02*
Y843669D01*
X1095126D01*
Y853669D01*
X1105126D01*
Y873669D01*
X1095126D01*
Y883669D01*
X1075126D01*
Y873669D01*
X1065126D01*
Y853669D01*
X1075126D01*
X665677Y655106D02*
Y645106D01*
X685677D01*
Y655106D01*
X695677D01*
Y675106D01*
X685677D01*
Y685106D01*
X665677D01*
Y675106D01*
X655677D01*
Y655106D01*
X665677D01*
X1210000Y1850000D02*
X1220000D01*
X1230000Y1860000D01*
X1240000Y1850000D01*
X1250000D01*
Y1860000D01*
X1240000Y1870000D01*
X1250000Y1880000D01*
Y1890000D01*
X1240000D01*
X1230000Y1880000D01*
X1220000Y1890000D01*
X1210000D01*
Y1880000D01*
X1220000Y1870000D01*
X1210000Y1860000D01*
Y1850000D01*
X1110000Y2200000D02*
X1120000D01*
X1130000Y2210000D01*
X1140000Y2200000D01*
X1150000D01*
Y2210000D01*
X1140000Y2220000D01*
X1150000Y2230000D01*
Y2240000D01*
X1140000D01*
X1130000Y2230000D01*
X1120000Y2240000D01*
X1110000D01*
Y2230000D01*
X1120000Y2220000D01*
X1110000Y2210000D01*
Y2200000D01*
Y1830000D02*
X1120000D01*
X1130000Y1840000D01*
X1140000Y1830000D01*
X1150000D01*
Y1840000D01*
X1140000Y1850000D01*
X1150000Y1860000D01*
Y1870000D01*
X1140000D01*
X1130000Y1860000D01*
X1120000Y1870000D01*
X1110000D01*
Y1860000D01*
X1120000Y1850000D01*
X1110000Y1840000D01*
Y1830000D01*
X1060000Y1870000D02*
X1070000D01*
X1080000Y1880000D01*
X1090000Y1870000D01*
X1100000D01*
Y1880000D01*
X1090000Y1890000D01*
X1100000Y1900000D01*
Y1910000D01*
X1090000D01*
X1080000Y1900000D01*
X1070000Y1910000D01*
X1060000D01*
Y1900000D01*
X1070000Y1890000D01*
X1060000Y1880000D01*
Y1870000D01*
D100*
X910000Y3620000D02*
G03*
X910000Y3620000I-20000J0D01*
G01*
X1010000Y3520000D02*
G03*
X1010000Y3520000I-20000J0D01*
G01*
X810000D02*
G03*
X810000Y3520000I-20000J0D01*
G01*
%TF.MD5,5070d9c313efa04cfaeecfac9ffcda19*%
M02*
