G04 Layer_Color=255*
%FSLAX26Y26*%
%MOIN*%
%TF.FileFunction,Pads,Bot*%
%TF.Part,Single*%
G01*
G75*
%TA.AperFunction,SMDPad,CuDef*%
%ADD14R,0.020472X0.020472*%
%ADD15R,0.020472X0.020472*%
%ADD22R,0.057087X0.045276*%
%TA.AperFunction,ComponentPad*%
%ADD30C,0.059055*%
%ADD31C,0.062992*%
%TA.AperFunction,ViaPad*%
%ADD32C,0.196850*%
%TA.AperFunction,ComponentPad*%
%ADD33C,0.060000*%
%ADD34R,0.059055X0.059055*%
%ADD35C,0.040000*%
%TA.AperFunction,SMDPad,CuDef*%
%ADD48R,0.045276X0.057087*%
D14*
X1350276Y1248457D02*
D03*
X1381772D02*
D03*
D15*
X1484024Y1927709D02*
D03*
Y1959205D02*
D03*
X894181Y725874D02*
D03*
Y694378D02*
D03*
X1663024Y1822205D02*
D03*
Y1790709D02*
D03*
D22*
X578024Y1416890D02*
D03*
Y1346024D02*
D03*
D30*
X100000Y1500000D02*
D03*
Y1600000D02*
D03*
Y1700000D02*
D03*
X0Y1500000D02*
D03*
Y1600000D02*
D03*
Y1700000D02*
D03*
X2300000Y700000D02*
D03*
Y600000D02*
D03*
Y500000D02*
D03*
Y400000D02*
D03*
Y300000D02*
D03*
X2400000Y700000D02*
D03*
Y600000D02*
D03*
Y500000D02*
D03*
Y400000D02*
D03*
Y300000D02*
D03*
X1429024Y2089457D02*
D03*
Y1989457D02*
D03*
Y1889457D02*
D03*
Y1789457D02*
D03*
X1729024Y2089457D02*
D03*
Y1989457D02*
D03*
Y1889457D02*
D03*
D31*
X2106299Y3000000D02*
D03*
X2206299D02*
D03*
X2306299D02*
D03*
X1800000D02*
D03*
X1700000D02*
D03*
D32*
X0Y0D02*
D03*
X2350000D02*
D03*
X0Y2350000D02*
D03*
X2350000D02*
D03*
D33*
X1673228Y2303150D02*
D03*
X1523622D02*
D03*
D34*
X1729024Y1789457D02*
D03*
D35*
X790000Y3520000D02*
D03*
X990000D02*
D03*
X890000Y3620000D02*
D03*
D48*
X1504457Y1674457D02*
D03*
X1433591D02*
D03*
%TF.MD5,feff9395382440bc27b38afec541adc2*%
M02*
