G04 Layer_Color=2752767*
%FSLAX26Y26*%
%MOIN*%
%TF.FileFunction,Drawing*%
%TF.Part,Single*%
G01*
G75*
%TA.AperFunction,NonConductor*%
%ADD50C,0.005000*%
%ADD100C,0.006667*%
D50*
X80000Y1480000D02*
Y1520000D01*
X120000D01*
Y1480000D01*
X80000D01*
Y1580000D02*
Y1620000D01*
X120000D01*
Y1580000D01*
X80000D01*
Y1680000D02*
Y1720000D01*
X120000D01*
Y1680000D01*
X80000D01*
X-20000Y1480000D02*
Y1520000D01*
X20000D01*
Y1480000D01*
X-20000D01*
Y1580000D02*
Y1620000D01*
X20000D01*
Y1580000D01*
X-20000D01*
Y1680000D02*
Y1720000D01*
X20000D01*
Y1680000D01*
X-20000D01*
X2086299Y2980000D02*
Y3020000D01*
X2126299D01*
Y2980000D01*
X2086299D01*
X2186299D02*
Y3020000D01*
X2226299D01*
Y2980000D01*
X2186299D01*
X2286299D02*
Y3020000D01*
X2326299D01*
Y2980000D01*
X2286299D01*
X2280000Y680000D02*
Y720000D01*
X2320000D01*
Y680000D01*
X2280000D01*
Y580000D02*
Y620000D01*
X2320000D01*
Y580000D01*
X2280000D01*
Y480000D02*
Y520000D01*
X2320000D01*
Y480000D01*
X2280000D01*
Y380000D02*
Y420000D01*
X2320000D01*
Y380000D01*
X2280000D01*
Y280000D02*
Y320000D01*
X2320000D01*
Y280000D01*
X2280000D01*
X2380000Y680000D02*
Y720000D01*
X2420000D01*
Y680000D01*
X2380000D01*
Y580000D02*
Y620000D01*
X2420000D01*
Y580000D01*
X2380000D01*
Y480000D02*
Y520000D01*
X2420000D01*
Y480000D01*
X2380000D01*
Y380000D02*
Y420000D01*
X2420000D01*
Y380000D01*
X2380000D01*
Y280000D02*
Y320000D01*
X2420000D01*
Y280000D01*
X2380000D01*
X1673228Y2283150D02*
X1653228Y2323150D01*
X1693228D01*
X1673228Y2283150D01*
X1523622D02*
X1503622Y2323150D01*
X1543622D01*
X1523622Y2283150D01*
X1429024Y2069457D02*
X1439024Y2079457D01*
X1449024D01*
X1439024Y2089457D01*
X1449024Y2099457D01*
X1439024D01*
X1429024Y2109457D01*
X1419024Y2099457D01*
X1409024D01*
X1419024Y2089457D01*
X1409024Y2079457D01*
X1419024D01*
X1429024Y2069457D01*
Y1969457D02*
X1439024Y1979457D01*
X1449024D01*
X1439024Y1989457D01*
X1449024Y1999457D01*
X1439024D01*
X1429024Y2009457D01*
X1419024Y1999457D01*
X1409024D01*
X1419024Y1989457D01*
X1409024Y1979457D01*
X1419024D01*
X1429024Y1969457D01*
Y1869457D02*
X1439024Y1879457D01*
X1449024D01*
X1439024Y1889457D01*
X1449024Y1899457D01*
X1439024D01*
X1429024Y1909457D01*
X1419024Y1899457D01*
X1409024D01*
X1419024Y1889457D01*
X1409024Y1879457D01*
X1419024D01*
X1429024Y1869457D01*
Y1769457D02*
X1439024Y1779457D01*
X1449024D01*
X1439024Y1789457D01*
X1449024Y1799457D01*
X1439024D01*
X1429024Y1809457D01*
X1419024Y1799457D01*
X1409024D01*
X1419024Y1789457D01*
X1409024Y1779457D01*
X1419024D01*
X1429024Y1769457D01*
X1729024Y2069457D02*
X1739024Y2079457D01*
X1749024D01*
X1739024Y2089457D01*
X1749024Y2099457D01*
X1739024D01*
X1729024Y2109457D01*
X1719024Y2099457D01*
X1709024D01*
X1719024Y2089457D01*
X1709024Y2079457D01*
X1719024D01*
X1729024Y2069457D01*
Y1969457D02*
X1739024Y1979457D01*
X1749024D01*
X1739024Y1989457D01*
X1749024Y1999457D01*
X1739024D01*
X1729024Y2009457D01*
X1719024Y1999457D01*
X1709024D01*
X1719024Y1989457D01*
X1709024Y1979457D01*
X1719024D01*
X1729024Y1969457D01*
Y1869457D02*
X1739024Y1879457D01*
X1749024D01*
X1739024Y1889457D01*
X1749024Y1899457D01*
X1739024D01*
X1729024Y1909457D01*
X1719024Y1899457D01*
X1709024D01*
X1719024Y1889457D01*
X1709024Y1879457D01*
X1719024D01*
X1729024Y1869457D01*
Y1769457D02*
X1739024Y1779457D01*
X1749024D01*
X1739024Y1789457D01*
X1749024Y1799457D01*
X1739024D01*
X1729024Y1809457D01*
X1719024Y1799457D01*
X1709024D01*
X1719024Y1789457D01*
X1709024Y1779457D01*
X1719024D01*
X1729024Y1769457D01*
X1780000Y2980000D02*
Y3020000D01*
X1820000D01*
Y2980000D01*
X1780000D01*
X1680000D02*
Y3020000D01*
X1720000D01*
Y2980000D01*
X1680000D01*
X770000Y3500000D02*
X780000Y3520000D01*
X770000Y3540000D01*
X790000Y3530000D01*
X810000Y3540000D01*
X800000Y3520000D01*
X810000Y3500000D01*
X790000Y3510000D01*
X770000Y3500000D01*
X970000D02*
X980000Y3520000D01*
X970000Y3540000D01*
X990000Y3530000D01*
X1010000Y3540000D01*
X1000000Y3520000D01*
X1010000Y3500000D01*
X990000Y3510000D01*
X970000Y3500000D01*
X870000Y3600000D02*
X880000Y3620000D01*
X870000Y3640000D01*
X890000Y3630000D01*
X910000Y3640000D01*
X900000Y3620000D01*
X910000Y3600000D01*
X890000Y3610000D01*
X870000Y3600000D01*
X1070000Y1880000D02*
Y1870000D01*
X1090000D01*
Y1880000D01*
X1100000D01*
Y1900000D01*
X1090000D01*
Y1910000D01*
X1070000D01*
Y1900000D01*
X1060000D01*
Y1880000D01*
X1070000D01*
X1120000Y1840000D02*
Y1830000D01*
X1140000D01*
Y1840000D01*
X1150000D01*
Y1860000D01*
X1140000D01*
Y1870000D01*
X1120000D01*
Y1860000D01*
X1110000D01*
Y1840000D01*
X1120000D01*
Y2210000D02*
Y2200000D01*
X1140000D01*
Y2210000D01*
X1150000D01*
Y2230000D01*
X1140000D01*
Y2240000D01*
X1120000D01*
Y2230000D01*
X1110000D01*
Y2210000D01*
X1120000D01*
X1220000Y1860000D02*
Y1850000D01*
X1240000D01*
Y1860000D01*
X1250000D01*
Y1880000D01*
X1240000D01*
Y1890000D01*
X1220000D01*
Y1880000D01*
X1210000D01*
Y1860000D01*
X1220000D01*
X655677Y645106D02*
X665677D01*
X675677Y655106D01*
X685677Y645106D01*
X695677D01*
Y655106D01*
X685677Y665106D01*
X695677Y675106D01*
Y685106D01*
X685677D01*
X675677Y675106D01*
X665677Y685106D01*
X655677D01*
Y675106D01*
X665677Y665106D01*
X655677Y655106D01*
Y645106D01*
X1065126Y843669D02*
X1075126D01*
X1085126Y853669D01*
X1095126Y843669D01*
X1105126D01*
Y853669D01*
X1095126Y863669D01*
X1105126Y873669D01*
Y883669D01*
X1095126D01*
X1085126Y873669D01*
X1075126Y883669D01*
X1065126D01*
Y873669D01*
X1075126Y863669D01*
X1065126Y853669D01*
Y843669D01*
X1022803Y688158D02*
X1032803D01*
X1042803Y698158D01*
X1052803Y688158D01*
X1062803D01*
Y698158D01*
X1052803Y708158D01*
X1062803Y718158D01*
Y728158D01*
X1052803D01*
X1042803Y718158D01*
X1032803Y728158D01*
X1022803D01*
Y718158D01*
X1032803Y708158D01*
X1022803Y698158D01*
Y688158D01*
X1413551Y816110D02*
X1423551D01*
X1433551Y826110D01*
X1443551Y816110D01*
X1453551D01*
Y826110D01*
X1443551Y836110D01*
X1453551Y846110D01*
Y856110D01*
X1443551D01*
X1433551Y846110D01*
X1423551Y856110D01*
X1413551D01*
Y846110D01*
X1423551Y836110D01*
X1413551Y826110D01*
Y816110D01*
X873197Y741307D02*
X883197D01*
X893197Y751307D01*
X903197Y741307D01*
X913197D01*
Y751307D01*
X903197Y761307D01*
X913197Y771307D01*
Y781307D01*
X903197D01*
X893197Y771307D01*
X883197Y781307D01*
X873197D01*
Y771307D01*
X883197Y761307D01*
X873197Y751307D01*
Y741307D01*
X226024Y997457D02*
X236024D01*
X246024Y1007457D01*
X256024Y997457D01*
X266024D01*
Y1007457D01*
X256024Y1017457D01*
X266024Y1027457D01*
Y1037457D01*
X256024D01*
X246024Y1027457D01*
X236024Y1037457D01*
X226024D01*
Y1027457D01*
X236024Y1017457D01*
X226024Y1007457D01*
Y997457D01*
X682024Y1214457D02*
X692024D01*
X702024Y1224457D01*
X712024Y1214457D01*
X722024D01*
Y1224457D01*
X712024Y1234457D01*
X722024Y1244457D01*
Y1254457D01*
X712024D01*
X702024Y1244457D01*
X692024Y1254457D01*
X682024D01*
Y1244457D01*
X692024Y1234457D01*
X682024Y1224457D01*
Y1214457D01*
X763024Y1139457D02*
X773024D01*
X783024Y1149457D01*
X793024Y1139457D01*
X803024D01*
Y1149457D01*
X793024Y1159457D01*
X803024Y1169457D01*
Y1179457D01*
X793024D01*
X783024Y1169457D01*
X773024Y1179457D01*
X763024D01*
Y1169457D01*
X773024Y1159457D01*
X763024Y1149457D01*
Y1139457D01*
X528843Y593693D02*
Y583693D01*
X548843D01*
Y593693D01*
X558843D01*
Y613693D01*
X548843D01*
Y623693D01*
X528843D01*
Y613693D01*
X518843D01*
Y593693D01*
X528843D01*
X268024Y1154457D02*
X278024D01*
X288024Y1164457D01*
X298024Y1154457D01*
X308024D01*
Y1164457D01*
X298024Y1174457D01*
X308024Y1184457D01*
Y1194457D01*
X298024D01*
X288024Y1184457D01*
X278024Y1194457D01*
X268024D01*
Y1184457D01*
X278024Y1174457D01*
X268024Y1164457D01*
Y1154457D01*
X738024Y1392457D02*
X748024D01*
X758024Y1402457D01*
X768024Y1392457D01*
X778024D01*
Y1402457D01*
X768024Y1412457D01*
X778024Y1422457D01*
Y1432457D01*
X768024D01*
X758024Y1422457D01*
X748024Y1432457D01*
X738024D01*
Y1422457D01*
X748024Y1412457D01*
X738024Y1402457D01*
Y1392457D01*
X624024Y1539457D02*
X634024D01*
X644024Y1549457D01*
X654024Y1539457D01*
X664024D01*
Y1549457D01*
X654024Y1559457D01*
X664024Y1569457D01*
Y1579457D01*
X654024D01*
X644024Y1569457D01*
X634024Y1579457D01*
X624024D01*
Y1569457D01*
X634024Y1559457D01*
X624024Y1549457D01*
Y1539457D01*
X469024Y1069457D02*
X479024D01*
X489024Y1079457D01*
X499024Y1069457D01*
X509024D01*
Y1079457D01*
X499024Y1089457D01*
X509024Y1099457D01*
Y1109457D01*
X499024D01*
X489024Y1099457D01*
X479024Y1109457D01*
X469024D01*
Y1099457D01*
X479024Y1089457D01*
X469024Y1079457D01*
Y1069457D01*
X754024Y1549457D02*
X764024D01*
X774024Y1559457D01*
X784024Y1549457D01*
X794024D01*
Y1559457D01*
X784024Y1569457D01*
X794024Y1579457D01*
Y1589457D01*
X784024D01*
X774024Y1579457D01*
X764024Y1589457D01*
X754024D01*
Y1579457D01*
X764024Y1569457D01*
X754024Y1559457D01*
Y1549457D01*
X1434024Y1239457D02*
Y1229457D01*
X1454024D01*
Y1239457D01*
X1464024D01*
Y1259457D01*
X1454024D01*
Y1269457D01*
X1434024D01*
Y1259457D01*
X1424024D01*
Y1239457D01*
X1434024D01*
X974024Y1129457D02*
X984024D01*
X994024Y1139457D01*
X1004024Y1129457D01*
X1014024D01*
Y1139457D01*
X1004024Y1149457D01*
X1014024Y1159457D01*
Y1169457D01*
X1004024D01*
X994024Y1159457D01*
X984024Y1169457D01*
X974024D01*
Y1159457D01*
X984024Y1149457D01*
X974024Y1139457D01*
Y1129457D01*
X1079354Y1357000D02*
X1089354D01*
X1099354Y1367000D01*
X1109354Y1357000D01*
X1119354D01*
Y1367000D01*
X1109354Y1377000D01*
X1119354Y1387000D01*
Y1397000D01*
X1109354D01*
X1099354Y1387000D01*
X1089354Y1397000D01*
X1079354D01*
Y1387000D01*
X1089354Y1377000D01*
X1079354Y1367000D01*
Y1357000D01*
X1219756Y1357756D02*
X1229756D01*
X1239756Y1367756D01*
X1249756Y1357756D01*
X1259756D01*
Y1367756D01*
X1249756Y1377756D01*
X1259756Y1387756D01*
Y1397756D01*
X1249756D01*
X1239756Y1387756D01*
X1229756Y1397756D01*
X1219756D01*
Y1387756D01*
X1229756Y1377756D01*
X1219756Y1367756D01*
Y1357756D01*
X523000Y2108000D02*
Y2098000D01*
X543000D01*
Y2108000D01*
X553000D01*
Y2128000D01*
X543000D01*
Y2138000D01*
X523000D01*
Y2128000D01*
X513000D01*
Y2108000D01*
X523000D01*
X516000Y2031000D02*
Y2021000D01*
X536000D01*
Y2031000D01*
X546000D01*
Y2051000D01*
X536000D01*
Y2061000D01*
X516000D01*
Y2051000D01*
X506000D01*
Y2031000D01*
X516000D01*
X993000Y1389000D02*
Y1379000D01*
X1013000D01*
Y1389000D01*
X1023000D01*
Y1409000D01*
X1013000D01*
Y1419000D01*
X993000D01*
Y1409000D01*
X983000D01*
Y1389000D01*
X993000D01*
X756000Y1207000D02*
X766000D01*
X776000Y1217000D01*
X786000Y1207000D01*
X796000D01*
Y1217000D01*
X786000Y1227000D01*
X796000Y1237000D01*
Y1247000D01*
X786000D01*
X776000Y1237000D01*
X766000Y1247000D01*
X756000D01*
Y1237000D01*
X766000Y1227000D01*
X756000Y1217000D01*
Y1207000D01*
D100*
X20000Y0D02*
G03*
X20000Y0I-20000J0D01*
G01*
X2370000D02*
G03*
X2370000Y0I-20000J0D01*
G01*
X20000Y2350000D02*
G03*
X20000Y2350000I-20000J0D01*
G01*
X2370000D02*
G03*
X2370000Y2350000I-20000J0D01*
G01*
%TF.MD5,bee66a1608be04bbaadf8b3055c176a5*%
M02*
