G04 Layer_Color=16711935*
%FSLAX26Y26*%
%MOIN*%
%TF.FileFunction,Other,Mechanical_1*%
%TF.Part,Single*%
G01*
G75*
%TA.AperFunction,NonConductor*%
%ADD50C,0.010000*%
%ADD51C,0.005000*%
%ADD86C,0.006000*%
D50*
X-150110Y-997551D02*
Y-160110D01*
X2487685Y-997551D02*
Y-160110D01*
X-150110Y-987551D02*
X1031821D01*
X1273754D02*
X2487685D01*
X-150110D02*
X-90110Y-1007551D01*
X-150110Y-987551D02*
X-90110Y-967551D01*
X2427685D02*
X2487685Y-987551D01*
X2427685Y-1007551D02*
X2487685Y-987551D01*
X-931000Y3702000D02*
X-160111D01*
X-931000Y-150110D02*
X-160110D01*
X-921000Y1880911D02*
Y3702000D01*
Y-150110D02*
Y1638979D01*
X-941000Y3642000D02*
X-921000Y3702000D01*
X-901000Y3642000D01*
X-921000Y-150110D02*
X-901000Y-90110D01*
X-941000D02*
X-921000Y-150110D01*
X2462425Y0D02*
X2859890D01*
X2462425Y2350000D02*
X2859890D01*
X2849890Y0D02*
Y948063D01*
Y1369937D02*
Y2350000D01*
Y0D02*
X2869890Y60000D01*
X2829890D02*
X2849890Y0D01*
X2829890Y2290000D02*
X2849890Y2350000D01*
X2869890Y2290000D01*
X0Y-721961D02*
Y-112425D01*
X2350000Y-721961D02*
Y-112425D01*
X0Y-711961D02*
X948063D01*
X1369937D02*
X2350000D01*
X0D02*
X60000Y-731961D01*
X0Y-711961D02*
X60000Y-691961D01*
X2290000D02*
X2350000Y-711961D01*
X2290000Y-731961D02*
X2350000Y-711961D01*
X-150000Y-354008D02*
Y-160000D01*
X0Y-354008D02*
Y-112425D01*
Y-344008D02*
X100000D01*
X-250000D02*
X-150000D01*
X0D02*
X60000Y-364008D01*
X0Y-344008D02*
X60000Y-324008D01*
X-210000D02*
X-150000Y-344008D01*
X-210000Y-364008D02*
X-150000Y-344008D01*
X-392000Y0D02*
X-112425D01*
X-392000Y-150110D02*
X-160110D01*
X-382000Y-250110D02*
Y-150110D01*
Y0D02*
Y100000D01*
X-402000Y-210110D02*
X-382000Y-150110D01*
X-362000Y-210110D01*
X-382000Y0D02*
X-362000Y60000D01*
X-402000D02*
X-382000Y0D01*
X2462425D02*
X2694535D01*
X2447913Y300000D02*
X2694535D01*
X2684535Y0D02*
Y150000D01*
Y300000D01*
Y0D02*
X2704535Y60000D01*
X2664535D02*
X2684535Y0D01*
X2664535Y240000D02*
X2684535Y300000D01*
X2704535Y240000D01*
X-730000Y1500000D02*
X-47913D01*
X-730000Y0D02*
X-112425D01*
X-720000Y939938D02*
Y1500000D01*
Y0D02*
Y528061D01*
X-740000Y1440000D02*
X-720000Y1500000D01*
X-700000Y1440000D01*
X-720000Y0D02*
X-700000Y60000D01*
X-740000D02*
X-720000Y0D01*
D51*
X50000Y3829994D02*
X63329D01*
X56664D01*
Y3810000D01*
X73326D02*
X79990D01*
X83323Y3813332D01*
Y3819997D01*
X79990Y3823329D01*
X73326D01*
X69993Y3819997D01*
Y3813332D01*
X73326Y3810000D01*
X89987Y3803336D02*
Y3823329D01*
X99984D01*
X103316Y3819997D01*
Y3813332D01*
X99984Y3810000D01*
X89987D01*
X133306D02*
Y3826661D01*
Y3819997D01*
X129974D01*
X136638D01*
X133306D01*
Y3826661D01*
X136638Y3829994D01*
X149968Y3823329D02*
X156632D01*
X159964Y3819997D01*
Y3810000D01*
X149968D01*
X146635Y3813332D01*
X149968Y3816664D01*
X159964D01*
X179958Y3823329D02*
X169961D01*
X166629Y3819997D01*
Y3813332D01*
X169961Y3810000D01*
X179958D01*
X196619D02*
X189955D01*
X186622Y3813332D01*
Y3819997D01*
X189955Y3823329D01*
X196619D01*
X199951Y3819997D01*
Y3816664D01*
X186622D01*
X206616Y3810000D02*
X216613D01*
X219945Y3813332D01*
X216613Y3816664D01*
X209948D01*
X206616Y3819997D01*
X209948Y3823329D01*
X219945D01*
X246603Y3810000D02*
X253267D01*
X249935D01*
Y3823329D01*
X246603D01*
X263264Y3810000D02*
Y3823329D01*
X273261D01*
X276593Y3819997D01*
Y3810000D01*
X283258Y3823329D02*
Y3813332D01*
X286590Y3810000D01*
X289922Y3813332D01*
X293254Y3810000D01*
X296587Y3813332D01*
Y3823329D01*
X306583D02*
X313248D01*
X316580Y3819997D01*
Y3810000D01*
X306583D01*
X303251Y3813332D01*
X306583Y3816664D01*
X316580D01*
X323245Y3823329D02*
Y3810000D01*
Y3816664D01*
X326577Y3819997D01*
X329909Y3823329D01*
X333241D01*
X356567Y3829994D02*
Y3810000D01*
X346570D01*
X343238Y3813332D01*
Y3819997D01*
X346570Y3823329D01*
X356567D01*
X386557Y3826661D02*
Y3823329D01*
X383225D01*
X389890D01*
X386557D01*
Y3813332D01*
X389890Y3810000D01*
X403219D02*
X409883D01*
X413215Y3813332D01*
Y3819997D01*
X409883Y3823329D01*
X403219D01*
X399886Y3819997D01*
Y3813332D01*
X403219Y3810000D01*
X453202Y3823329D02*
X443206D01*
X439873Y3819997D01*
Y3813332D01*
X443206Y3810000D01*
X453202D01*
X469864D02*
X463199D01*
X459867Y3813332D01*
Y3819997D01*
X463199Y3823329D01*
X469864D01*
X473196Y3819997D01*
Y3816664D01*
X459867D01*
X479860Y3810000D02*
Y3823329D01*
X489857D01*
X493189Y3819997D01*
Y3810000D01*
X503186Y3826661D02*
Y3823329D01*
X499854D01*
X506518D01*
X503186D01*
Y3813332D01*
X506518Y3810000D01*
X526512D02*
X519847D01*
X516515Y3813332D01*
Y3819997D01*
X519847Y3823329D01*
X526512D01*
X529844Y3819997D01*
Y3816664D01*
X516515D01*
X536509Y3823329D02*
Y3810000D01*
Y3816664D01*
X539841Y3819997D01*
X543173Y3823329D01*
X546505D01*
X579828Y3810000D02*
X586492D01*
X589825Y3813332D01*
Y3819997D01*
X586492Y3823329D01*
X579828D01*
X576496Y3819997D01*
Y3813332D01*
X579828Y3810000D01*
X599822D02*
Y3826661D01*
Y3819997D01*
X596489D01*
X603154D01*
X599822D01*
Y3826661D01*
X603154Y3829994D01*
X633144Y3810000D02*
Y3823329D01*
X636476D01*
X639808Y3819997D01*
Y3810000D01*
Y3819997D01*
X643141Y3823329D01*
X646473Y3819997D01*
Y3810000D01*
X663134D02*
X656470D01*
X653138Y3813332D01*
Y3819997D01*
X656470Y3823329D01*
X663134D01*
X666466Y3819997D01*
Y3816664D01*
X653138D01*
X676463Y3826661D02*
Y3823329D01*
X673131D01*
X679795D01*
X676463D01*
Y3813332D01*
X679795Y3810000D01*
X699789D02*
X693125D01*
X689792Y3813332D01*
Y3819997D01*
X693125Y3823329D01*
X699789D01*
X703121Y3819997D01*
Y3816664D01*
X689792D01*
X709786Y3823329D02*
Y3810000D01*
Y3816664D01*
X713118Y3819997D01*
X716450Y3823329D01*
X719783D01*
D86*
X1087809Y-1023542D02*
X1047821D01*
X1087809Y-983554D01*
Y-973558D01*
X1077812Y-963561D01*
X1057818D01*
X1047821Y-973558D01*
X1107802Y-1023542D02*
Y-1013545D01*
X1117799D01*
Y-1023542D01*
X1107802D01*
X1197773Y-963561D02*
X1177779Y-973558D01*
X1157786Y-993551D01*
Y-1013545D01*
X1167783Y-1023542D01*
X1187776D01*
X1197773Y-1013545D01*
Y-1003548D01*
X1187776Y-993551D01*
X1157786D01*
X1247757Y-1023542D02*
Y-963561D01*
X1217766Y-993551D01*
X1257754D01*
X-934994Y1654979D02*
X-944990Y1664976D01*
Y1684969D01*
X-934994Y1694966D01*
X-924997D01*
X-915000Y1684969D01*
Y1674972D01*
Y1684969D01*
X-905003Y1694966D01*
X-895006D01*
X-885010Y1684969D01*
Y1664976D01*
X-895006Y1654979D01*
X-885010Y1714959D02*
X-895006D01*
Y1724956D01*
X-885010D01*
Y1714959D01*
X-934994Y1764943D02*
X-944990Y1774940D01*
Y1794934D01*
X-934994Y1804930D01*
X-924997D01*
X-915000Y1794934D01*
X-905003Y1804930D01*
X-895006D01*
X-885010Y1794934D01*
Y1774940D01*
X-895006Y1764943D01*
X-905003D01*
X-915000Y1774940D01*
X-924997Y1764943D01*
X-934994D01*
X-915000Y1774940D02*
Y1794934D01*
X-944990Y1864911D02*
Y1824924D01*
X-915000D01*
X-924997Y1844917D01*
Y1854914D01*
X-915000Y1864911D01*
X-895006D01*
X-885010Y1854914D01*
Y1834921D01*
X-895006Y1824924D01*
X2885880Y1004050D02*
Y964063D01*
X2845893Y1004050D01*
X2835896D01*
X2825899Y994053D01*
Y974060D01*
X2835896Y964063D01*
Y1024044D02*
X2825899Y1034040D01*
Y1054034D01*
X2835896Y1064031D01*
X2845893D01*
X2855890Y1054034D01*
Y1044037D01*
Y1054034D01*
X2865887Y1064031D01*
X2875883D01*
X2885880Y1054034D01*
Y1034040D01*
X2875883Y1024044D01*
X2825899Y1124011D02*
Y1084024D01*
X2855890D01*
X2845893Y1104018D01*
Y1114014D01*
X2855890Y1124011D01*
X2875883D01*
X2885880Y1114014D01*
Y1094021D01*
X2875883Y1084024D01*
X2835896Y1144005D02*
X2825899Y1154002D01*
Y1173995D01*
X2835896Y1183992D01*
X2875883D01*
X2885880Y1173995D01*
Y1154002D01*
X2875883Y1144005D01*
X2835896D01*
X2885880Y1203985D02*
X2875883D01*
Y1213982D01*
X2885880D01*
Y1203985D01*
X2835896Y1253969D02*
X2825899Y1263966D01*
Y1283959D01*
X2835896Y1293956D01*
X2875883D01*
X2885880Y1283959D01*
Y1263966D01*
X2875883Y1253969D01*
X2835896D01*
Y1313950D02*
X2825899Y1323947D01*
Y1343940D01*
X2835896Y1353937D01*
X2875883D01*
X2885880Y1343940D01*
Y1323947D01*
X2875883Y1313950D01*
X2835896D01*
X1004050Y-747951D02*
X964063D01*
X1004050Y-707964D01*
Y-697967D01*
X994053Y-687970D01*
X974060D01*
X964063Y-697967D01*
X1024044D02*
X1034040Y-687970D01*
X1054034D01*
X1064031Y-697967D01*
Y-707964D01*
X1054034Y-717961D01*
X1044037D01*
X1054034D01*
X1064031Y-727957D01*
Y-737954D01*
X1054034Y-747951D01*
X1034040D01*
X1024044Y-737954D01*
X1124011Y-687970D02*
X1084024D01*
Y-717961D01*
X1104018Y-707964D01*
X1114014D01*
X1124011Y-717961D01*
Y-737954D01*
X1114014Y-747951D01*
X1094021D01*
X1084024Y-737954D01*
X1144005Y-697967D02*
X1154002Y-687970D01*
X1173995D01*
X1183992Y-697967D01*
Y-737954D01*
X1173995Y-747951D01*
X1154002D01*
X1144005Y-737954D01*
Y-697967D01*
X1203985Y-747951D02*
Y-737954D01*
X1213982D01*
Y-747951D01*
X1203985D01*
X1253969Y-697967D02*
X1263966Y-687970D01*
X1283959D01*
X1293956Y-697967D01*
Y-737954D01*
X1283959Y-747951D01*
X1263966D01*
X1253969Y-737954D01*
Y-697967D01*
X1313950D02*
X1323947Y-687970D01*
X1343940D01*
X1353937Y-697967D01*
Y-737954D01*
X1343940Y-747951D01*
X1323947D01*
X1313950Y-737954D01*
Y-697967D01*
X131386Y-365661D02*
X151379D01*
X141383D01*
Y-305681D01*
X131386Y-315678D01*
X221357Y-305681D02*
X181370D01*
Y-335671D01*
X201363Y-325674D01*
X211360D01*
X221357Y-335671D01*
Y-355665D01*
X211360Y-365661D01*
X191367D01*
X181370Y-355665D01*
X241350Y-315678D02*
X251347Y-305681D01*
X271341D01*
X281337Y-315678D01*
Y-355665D01*
X271341Y-365661D01*
X251347D01*
X241350Y-355665D01*
Y-315678D01*
X301331Y-365661D02*
Y-355665D01*
X311328D01*
Y-365661D01*
X301331D01*
X351315Y-315678D02*
X361312Y-305681D01*
X381305D01*
X391302Y-315678D01*
Y-355665D01*
X381305Y-365661D01*
X361312D01*
X351315Y-355665D01*
Y-315678D01*
X411295D02*
X421292Y-305681D01*
X441286D01*
X451282Y-315678D01*
Y-355665D01*
X441286Y-365661D01*
X421292D01*
X411295Y-355665D01*
Y-315678D01*
X-382000Y118000D02*
Y137994D01*
Y127997D01*
X-441981D01*
X-431984Y118000D01*
X-441981Y207971D02*
Y167984D01*
X-411990D01*
X-421987Y187977D01*
Y197974D01*
X-411990Y207971D01*
X-391997D01*
X-382000Y197974D01*
Y177981D01*
X-391997Y167984D01*
X-431984Y227964D02*
X-441981Y237961D01*
Y257955D01*
X-431984Y267952D01*
X-391997D01*
X-382000Y257955D01*
Y237961D01*
X-391997Y227964D01*
X-431984D01*
X-382000Y287945D02*
X-391997D01*
Y297942D01*
X-382000D01*
Y287945D01*
Y337929D02*
Y357922D01*
Y347926D01*
X-441981D01*
X-431984Y337929D01*
X-382000Y387913D02*
Y407906D01*
Y397909D01*
X-441981D01*
X-431984Y387913D01*
X2642426Y405008D02*
X2632429Y415005D01*
Y434998D01*
X2642426Y444995D01*
X2652422D01*
X2662419Y434998D01*
Y425001D01*
Y434998D01*
X2672416Y444995D01*
X2682413D01*
X2692410Y434998D01*
Y415005D01*
X2682413Y405008D01*
X2642426Y464988D02*
X2632429Y474985D01*
Y494979D01*
X2642426Y504976D01*
X2682413D01*
X2692410Y494979D01*
Y474985D01*
X2682413Y464988D01*
X2642426D01*
Y524969D02*
X2632429Y534966D01*
Y554959D01*
X2642426Y564956D01*
X2682413D01*
X2692410Y554959D01*
Y534966D01*
X2682413Y524969D01*
X2642426D01*
X2692410Y584950D02*
X2682413D01*
Y594947D01*
X2692410D01*
Y584950D01*
X2642426Y634933D02*
X2632429Y644930D01*
Y664924D01*
X2642426Y674921D01*
X2682413D01*
X2692410Y664924D01*
Y644930D01*
X2682413Y634933D01*
X2642426D01*
Y694914D02*
X2632429Y704911D01*
Y724904D01*
X2642426Y734901D01*
X2682413D01*
X2692410Y724904D01*
Y704911D01*
X2682413Y694914D01*
X2642426D01*
X-684010Y544061D02*
Y564055D01*
Y554058D01*
X-743990D01*
X-733994Y544061D01*
X-743990Y634032D02*
Y594045D01*
X-714000D01*
X-723997Y614039D01*
Y624035D01*
X-714000Y634032D01*
X-694006D01*
X-684010Y624035D01*
Y604042D01*
X-694006Y594045D01*
X-733994Y654026D02*
X-743990Y664023D01*
Y684016D01*
X-733994Y694013D01*
X-694006D01*
X-684010Y684016D01*
Y664023D01*
X-694006Y654026D01*
X-733994D01*
Y714006D02*
X-743990Y724003D01*
Y743997D01*
X-733994Y753994D01*
X-694006D01*
X-684010Y743997D01*
Y724003D01*
X-694006Y714006D01*
X-733994D01*
X-684010Y773987D02*
X-694006D01*
Y783984D01*
X-684010D01*
Y773987D01*
X-733994Y823971D02*
X-743990Y833968D01*
Y853961D01*
X-733994Y863958D01*
X-694006D01*
X-684010Y853961D01*
Y833968D01*
X-694006Y823971D01*
X-733994D01*
Y883951D02*
X-743990Y893948D01*
Y913942D01*
X-733994Y923938D01*
X-694006D01*
X-684010Y913942D01*
Y893948D01*
X-694006Y883951D01*
X-733994D01*
%TF.MD5,eb07b2817960ba9d71694942865e5ef6*%
M02*
