G04 Layer_Color=32768*
%FSLAX26Y26*%
%MOIN*%
%TF.FileFunction,Other,Mechanical_15*%
%TF.Part,Single*%
G01*
G75*
%TA.AperFunction,NonConductor*%
%ADD51C,0.005000*%
%ADD85C,0.001968*%
D51*
X579024Y1379772D02*
Y1419142D01*
X559338Y1399457D02*
X598709D01*
X142000Y2011315D02*
Y2050685D01*
X122315Y2031000D02*
X161685D01*
X1294339Y1354457D02*
X1333709D01*
X1314024Y1334772D02*
Y1374142D01*
X1559339Y1939457D02*
X1598709D01*
X1579024Y1919772D02*
Y1959142D01*
X354339Y1099457D02*
X393709D01*
X374024Y1079772D02*
Y1119142D01*
X894338Y1334457D02*
X933709D01*
X914024Y1314772D02*
Y1354142D01*
X889338Y1464457D02*
X928709D01*
X909024Y1444772D02*
Y1484142D01*
X556024Y1033772D02*
Y1073142D01*
X536339Y1053457D02*
X575709D01*
X614654Y884339D02*
X654024D01*
X634339Y864654D02*
Y904024D01*
X1464024Y1619772D02*
Y1659142D01*
X1444339Y1639457D02*
X1483709D01*
X1663866Y1652055D02*
X1703236D01*
X1683551Y1632370D02*
Y1671740D01*
X1011740Y1032892D02*
X1051110D01*
X1031425Y1013207D02*
Y1052577D01*
X801570Y1034457D02*
X840940D01*
X821255Y1014772D02*
Y1054142D01*
X1449339Y1674457D02*
X1488709D01*
X1469024Y1654772D02*
Y1694142D01*
X578024Y1361772D02*
Y1401142D01*
X558339Y1381457D02*
X597709D01*
X571346Y680599D02*
Y719969D01*
X551661Y700284D02*
X591032D01*
X1159339Y2049457D02*
X1198709D01*
X1179024Y2029772D02*
Y2069142D01*
X363315Y1876000D02*
X402685D01*
X383000Y1856315D02*
Y1895685D01*
X397000Y2063315D02*
Y2102685D01*
X377315Y2083000D02*
X416685D01*
X900205Y691346D02*
Y730717D01*
X880520Y711032D02*
X919890D01*
X1250480Y791819D02*
Y831189D01*
X1230795Y811504D02*
X1270165D01*
D85*
X425480Y1259693D02*
X732567D01*
X425480Y1539221D02*
X732567D01*
Y1259693D02*
Y1539221D01*
X425480Y1259693D02*
Y1539221D01*
X439000Y2175189D02*
Y2198811D01*
X427189Y2187000D02*
X450811D01*
X407504Y2171252D02*
X470496D01*
X407504Y2202748D02*
X470496D01*
Y2171252D02*
Y2202748D01*
X407504Y2171252D02*
Y2202748D01*
X-17811Y2028000D02*
X5811D01*
X-6000Y2016189D02*
Y2039811D01*
X9748Y1996504D02*
Y2059496D01*
X-21748Y1996504D02*
Y2059496D01*
X9748D01*
X-21748Y1996504D02*
X9748D01*
X17984Y1958165D02*
X266016D01*
X17984Y2103835D02*
X266016D01*
Y1958165D02*
Y2103835D01*
X17984Y1958165D02*
Y2103835D01*
X705213Y1073457D02*
X728835D01*
X717024Y1061646D02*
Y1085268D01*
X732772Y1041961D02*
Y1104953D01*
X701276Y1041961D02*
Y1104953D01*
X732772D01*
X701276Y1041961D02*
X732772D01*
X1211661Y1222567D02*
Y1486347D01*
X1416386Y1222567D02*
Y1486347D01*
X1211661Y1222567D02*
X1416386D01*
X1211661Y1486347D02*
X1416386D01*
X323197Y949457D02*
X344850D01*
X334024Y938630D02*
Y960284D01*
X310402Y906150D02*
Y992764D01*
X357646Y906150D02*
Y992764D01*
X310402Y906150D02*
X357646D01*
X310402Y992764D02*
X357646D01*
X363197Y1444457D02*
X384850D01*
X374024Y1433630D02*
Y1455284D01*
X350402Y1401150D02*
Y1487764D01*
X397646Y1401150D02*
Y1487764D01*
X350402Y1401150D02*
X397646D01*
X350402Y1487764D02*
X397646D01*
X1769968Y1728827D02*
Y2150087D01*
X1388079Y1728827D02*
Y2150087D01*
Y1728827D02*
X1769968D01*
X1388079Y2150087D02*
X1769968D01*
X454732Y999063D02*
Y1199851D01*
X293315Y999063D02*
Y1199851D01*
X454732D01*
X293315Y999063D02*
X454732D01*
X920402Y1587764D02*
X967646D01*
X920402Y1501150D02*
X967646D01*
Y1587764D01*
X920402Y1501150D02*
Y1587764D01*
X944024Y1533630D02*
Y1555284D01*
X933197Y1544457D02*
X954850D01*
X920402Y1211150D02*
X967646D01*
X920402Y1297764D02*
X967646D01*
X920402Y1211150D02*
Y1297764D01*
X967646Y1211150D02*
Y1297764D01*
X944024Y1243630D02*
Y1265284D01*
X933197Y1254457D02*
X954850D01*
X1079024Y1268630D02*
Y1290284D01*
X1068197Y1279457D02*
X1089850D01*
X1035716Y1303079D02*
X1122331D01*
X1035716Y1255835D02*
X1122331D01*
X1035716D02*
Y1303079D01*
X1122331Y1255835D02*
Y1303079D01*
X755717Y1310835D02*
Y1358079D01*
X842331Y1310835D02*
Y1358079D01*
X755717D02*
X842331D01*
X755717Y1310835D02*
X842331D01*
X788197Y1334457D02*
X809850D01*
X799024Y1323630D02*
Y1345284D01*
X263197Y949457D02*
X284850D01*
X274024Y938630D02*
Y960284D01*
X297646Y906150D02*
Y992764D01*
X250401Y906150D02*
Y992764D01*
X297646D01*
X250401Y906150D02*
X297646D01*
X1079024Y1218630D02*
Y1240284D01*
X1068197Y1229457D02*
X1089850D01*
X1035716Y1253079D02*
X1122331D01*
X1035716Y1205835D02*
X1122331D01*
X1035716D02*
Y1253079D01*
X1122331Y1205835D02*
Y1253079D01*
X193197Y1099457D02*
X214850D01*
X204024Y1088630D02*
Y1110284D01*
X180402Y1056150D02*
Y1142764D01*
X227646Y1056150D02*
Y1142764D01*
X180402Y1056150D02*
X227646D01*
X180402Y1142764D02*
X227646D01*
X921213Y1074457D02*
X944835D01*
X933024Y1062646D02*
Y1086268D01*
X948772Y1042961D02*
Y1105953D01*
X917276Y1042961D02*
Y1105953D01*
X948772D01*
X917276Y1042961D02*
X948772D01*
X842331Y1260835D02*
Y1308079D01*
X755716Y1260835D02*
Y1308079D01*
Y1260835D02*
X842331D01*
X755716Y1308079D02*
X842331D01*
X788197Y1284457D02*
X809850D01*
X799024Y1273630D02*
Y1295284D01*
X752449Y766229D02*
X776071D01*
X764260Y754417D02*
Y778039D01*
X748512Y734732D02*
Y797725D01*
X780008Y734732D02*
Y797725D01*
X748512Y734732D02*
X780008D01*
X748512Y797725D02*
X780008D01*
X969142Y1302961D02*
Y1365953D01*
X858905Y1302961D02*
Y1365953D01*
Y1302961D02*
X969142D01*
X858905Y1365953D02*
X969142D01*
X964142Y1432961D02*
Y1495953D01*
X853905Y1432961D02*
Y1495953D01*
Y1432961D02*
X964142D01*
X853905Y1495953D02*
X964142D01*
X516654Y1122354D02*
X595394D01*
X516654Y984559D02*
X595394D01*
Y1122354D01*
X516654Y984559D02*
Y1122354D01*
X561504Y813473D02*
Y955205D01*
X707173Y813473D02*
Y955205D01*
X561504D02*
X707173D01*
X561504Y813473D02*
X707173D01*
X208275Y970953D02*
X239772D01*
X208275Y907961D02*
X239772D01*
Y970953D01*
X208275Y907961D02*
Y970953D01*
X224024Y927646D02*
Y951268D01*
X212213Y939457D02*
X235835D01*
X363276Y990953D02*
X394772D01*
X363276Y927961D02*
X394772D01*
Y990953D01*
X363276Y927961D02*
Y990953D01*
X379024Y947646D02*
Y971268D01*
X367213Y959457D02*
X390835D01*
X350520Y1208709D02*
Y1240205D01*
X287527Y1208709D02*
Y1240205D01*
Y1208709D02*
X350520D01*
X287527Y1240205D02*
X350520D01*
X307212Y1224457D02*
X330835D01*
X319024Y1212646D02*
Y1236268D01*
X1079024Y1508630D02*
Y1530284D01*
X1068197Y1519457D02*
X1089850D01*
X1035716Y1543079D02*
X1122331D01*
X1035716Y1495835D02*
X1122331D01*
X1035716D02*
Y1543079D01*
X1122331Y1495835D02*
Y1543079D01*
X248275Y1130953D02*
X279772D01*
X248275Y1067961D02*
X279772D01*
Y1130953D01*
X248275Y1067961D02*
Y1130953D01*
X264024Y1087646D02*
Y1111268D01*
X252213Y1099457D02*
X275835D01*
X1079024Y1458630D02*
Y1480284D01*
X1068197Y1469457D02*
X1089850D01*
X1035716Y1493079D02*
X1122331D01*
X1035716Y1445835D02*
X1122331D01*
X1035716D02*
Y1493079D01*
X1122331Y1445835D02*
Y1493079D01*
X755717Y1490835D02*
Y1538079D01*
X842331Y1490835D02*
Y1538079D01*
X755717D02*
X842331D01*
X755717Y1490835D02*
X842331D01*
X788197Y1514457D02*
X809850D01*
X799024Y1503630D02*
Y1525284D01*
X842331Y1440835D02*
Y1488079D01*
X755716Y1440835D02*
Y1488079D01*
Y1440835D02*
X842331D01*
X755716Y1488079D02*
X842331D01*
X788197Y1464457D02*
X809850D01*
X799024Y1453630D02*
Y1475284D01*
X1393158Y1712292D02*
X1534890D01*
X1393158Y1566622D02*
X1534890D01*
Y1712292D01*
X1393158Y1566622D02*
Y1712292D01*
X1756386Y1581189D02*
Y1722921D01*
X1610717Y1581189D02*
Y1722921D01*
Y1581189D02*
X1756386D01*
X1610717Y1722921D02*
X1756386D01*
X413197Y949457D02*
X434850D01*
X424024Y938630D02*
Y960284D01*
X447646Y906150D02*
Y992764D01*
X400401Y906150D02*
Y992764D01*
X447646D01*
X400401Y906150D02*
X447646D01*
X1112134Y932499D02*
Y1133286D01*
X950716Y932499D02*
Y1133286D01*
X1112134D01*
X950716Y932499D02*
X1112134D01*
X901964Y934063D02*
Y1134851D01*
X740546Y934063D02*
Y1134851D01*
X901964D01*
X740546Y934063D02*
X901964D01*
X1651213Y1806457D02*
X1674835D01*
X1663024Y1794646D02*
Y1818268D01*
X1678772Y1774961D02*
Y1837953D01*
X1647276Y1774961D02*
Y1837953D01*
Y1774961D02*
X1678772D01*
X1647276Y1837953D02*
X1678772D01*
X1400126Y1635087D02*
Y1713827D01*
X1537921Y1635087D02*
Y1713827D01*
X1400126Y1635087D02*
X1537921D01*
X1400126Y1713827D02*
X1537921D01*
X538654Y1312559D02*
X617394D01*
X538654Y1450354D02*
X617394D01*
Y1312559D02*
Y1450354D01*
X538654Y1312559D02*
Y1450354D01*
X882370Y710126D02*
X905992D01*
X894181Y698315D02*
Y721937D01*
X909929Y678630D02*
Y741622D01*
X878433Y678630D02*
Y741622D01*
Y678630D02*
X909929D01*
X878433Y741622D02*
X909929D01*
X488669Y631386D02*
X654024D01*
X488669Y769181D02*
X654024D01*
Y631386D02*
Y769181D01*
X488669Y631386D02*
Y769181D01*
X1050087Y1910480D02*
X1307961D01*
Y2188433D01*
X1050087D02*
X1307961D01*
X1050087Y1910480D02*
Y2188433D01*
X459772Y1757890D02*
Y1994110D01*
X306228Y1757890D02*
Y1994110D01*
X459772D01*
X306228Y1757890D02*
X459772D01*
X296606Y2002291D02*
X497394D01*
X296606Y2163709D02*
X497394D01*
Y2002291D02*
Y2163709D01*
X296606Y2002291D02*
Y2163709D01*
X788000Y775992D02*
X1012409D01*
X788000Y646071D02*
X1012409D01*
X788000D02*
Y775992D01*
X1012409Y646071D02*
Y775992D01*
X1110716Y707173D02*
X1390244D01*
X1110716Y915835D02*
X1390244D01*
Y707173D02*
Y915835D01*
X1110716Y707173D02*
Y915835D01*
X567843Y775882D02*
Y799504D01*
X556032Y787693D02*
X579654D01*
X536347Y771945D02*
X599339D01*
X536347Y803441D02*
X599339D01*
Y771945D02*
Y803441D01*
X536347Y771945D02*
Y803441D01*
X1030008Y651071D02*
X1053630D01*
X1041819Y639260D02*
Y662882D01*
X1026071Y619575D02*
Y682567D01*
X1057567Y619575D02*
Y682567D01*
X1026071Y619575D02*
X1057567D01*
X1026071Y682567D02*
X1057567D01*
X1472213Y1943457D02*
X1495835D01*
X1484024Y1931646D02*
Y1955268D01*
X1468275Y1911961D02*
Y1974953D01*
X1499772Y1911961D02*
Y1974953D01*
X1468275D02*
X1499772D01*
X1468275Y1911961D02*
X1499772D01*
X1366024Y1236646D02*
Y1260268D01*
X1354213Y1248457D02*
X1377835D01*
X1334528Y1264205D02*
X1397520D01*
X1334528Y1232709D02*
X1397520D01*
Y1264205D01*
X1334528Y1232709D02*
Y1264205D01*
%TF.MD5,87f763543a14d2aba40dabbf08435ae1*%
M02*
