G04 Layer_Color=255*
%FSLAX26Y26*%
%MOIN*%
%TF.FileFunction,Pads,Bot*%
%TF.Part,Single*%
G01*
G75*
%TA.AperFunction,SMDPad,CuDef*%
%ADD12R,0.033465X0.051181*%
%ADD16R,0.020472X0.020472*%
%TA.AperFunction,ComponentPad*%
%ADD19R,0.060000X0.060000*%
%ADD20C,0.070866*%
%TA.AperFunction,SMDPad,CuDef*%
%ADD30R,0.041339X0.055118*%
%ADD31R,0.118110X0.062992*%
%ADD32R,0.244095X0.228346*%
%ADD33R,0.025591X0.029528*%
D12*
X1344488Y842520D02*
D03*
X1411417D02*
D03*
X1344488Y433071D02*
D03*
X1411417D02*
D03*
X1344488Y1259842D02*
D03*
X1411417D02*
D03*
X1344488Y1681102D02*
D03*
X1411417D02*
D03*
D16*
X848000Y1156748D02*
D03*
Y1125252D02*
D03*
D19*
X123032Y2501575D02*
D03*
X223032D02*
D03*
X323032D02*
D03*
Y2401575D02*
D03*
X223032D02*
D03*
X123032D02*
D03*
D20*
X1590551D02*
D03*
Y2501575D02*
D03*
X1490551D02*
D03*
X1390551D02*
D03*
X1290551D02*
D03*
X1190551D02*
D03*
X1090551D02*
D03*
X990551D02*
D03*
X890551D02*
D03*
X790551D02*
D03*
X690551D02*
D03*
X590551D02*
D03*
X1490551Y2401575D02*
D03*
X1390551D02*
D03*
X1290551D02*
D03*
X1190551D02*
D03*
X1090551D02*
D03*
X990551D02*
D03*
X890551D02*
D03*
X790551D02*
D03*
X690551D02*
D03*
X590551D02*
D03*
X1690551Y2501575D02*
D03*
Y2401575D02*
D03*
X157480Y2097244D02*
D03*
Y1997244D02*
D03*
X2101063Y1871898D02*
D03*
Y1771898D02*
D03*
Y523150D02*
D03*
Y623150D02*
D03*
Y2288148D02*
D03*
Y2188148D02*
D03*
X157480Y1664173D02*
D03*
Y1564173D02*
D03*
X2101063Y1039399D02*
D03*
Y939399D02*
D03*
X157480Y1231102D02*
D03*
Y1131102D02*
D03*
Y737402D02*
D03*
Y837402D02*
D03*
X2101063Y1355649D02*
D03*
Y1455649D02*
D03*
X170000Y170000D02*
D03*
Y270000D02*
D03*
Y370000D02*
D03*
Y470000D02*
D03*
D30*
X273622Y468504D02*
D03*
X348426D02*
D03*
X344489Y263779D02*
D03*
X269685D02*
D03*
X348426Y732283D02*
D03*
X273622D02*
D03*
X344489Y1129921D02*
D03*
X269685D02*
D03*
Y1562992D02*
D03*
X344489D02*
D03*
D31*
X1515748Y437402D02*
D03*
Y617717D02*
D03*
Y846850D02*
D03*
Y1027165D02*
D03*
Y1260236D02*
D03*
Y1440551D02*
D03*
Y1681496D02*
D03*
Y1861811D02*
D03*
D32*
X1799213Y527559D02*
D03*
Y937008D02*
D03*
Y1350394D02*
D03*
Y1771653D02*
D03*
D33*
X265748Y2000000D02*
D03*
X309055D02*
D03*
%TF.MD5,dded03a4bec03d3f8e41afecc50247a1*%
M02*
