G04 Layer_Color=16711935*
%FSLAX26Y26*%
%MOIN*%
%TF.FileFunction,Soldermask,Bot*%
%TF.Part,Single*%
G01*
G75*
%TA.AperFunction,SMDPad,CuDef*%
%ADD49R,0.059118X0.045339*%
%ADD50R,0.061087X0.049276*%
%ADD51R,0.065024X0.057150*%
%ADD52O,0.027622X0.082740*%
%ADD53R,0.033528X0.029591*%
%ADD54R,0.029591X0.033528*%
%ADD55R,0.041402X0.057150*%
%ADD56O,0.076835X0.017779*%
%ADD57R,0.082740X0.028000*%
%ADD58R,0.055181X0.037465*%
%TA.AperFunction,ComponentPad*%
%ADD59C,0.039433*%
%ADD60C,0.104000*%
%ADD61C,0.051000*%
%ADD62C,0.031953*%
%ADD63C,0.041402*%
%ADD64C,0.034000*%
%ADD65C,0.035496*%
%ADD66C,0.122110*%
%TA.AperFunction,ViaPad*%
%ADD67C,0.034000*%
%TA.AperFunction,WasherPad*%
%ADD68C,0.102425*%
%ADD69C,0.099000*%
%TA.AperFunction,ViaPad*%
%ADD70C,0.032000*%
%ADD71C,0.036000*%
%ADD72C,0.015811*%
D49*
X-958000Y327402D02*
D03*
X-958000Y252599D02*
D03*
X-648000Y337402D02*
D03*
X-648000Y262599D02*
D03*
D50*
X-858000Y254567D02*
D03*
X-858000Y325433D02*
D03*
D51*
X-758000Y240630D02*
D03*
X-758000Y319370D02*
D03*
D52*
X-663000Y472835D02*
D03*
X-713000Y472835D02*
D03*
X-763000Y472835D02*
D03*
X-813000Y472835D02*
D03*
X-863000Y472835D02*
D03*
X-913000Y472835D02*
D03*
X-963000Y472835D02*
D03*
X-1013000Y472835D02*
D03*
X-663000Y827165D02*
D03*
X-713000Y827165D02*
D03*
X-763000Y827165D02*
D03*
X-813000Y827165D02*
D03*
X-863000Y827165D02*
D03*
X-913000Y827165D02*
D03*
X-963000Y827165D02*
D03*
X-1013000Y827165D02*
D03*
D53*
X-1018000Y6583346D02*
D03*
X-1018000Y6626654D02*
D03*
X-2108000Y1003346D02*
D03*
X-2108000Y1046653D02*
D03*
X-1773000Y7558346D02*
D03*
X-1773000Y7601654D02*
D03*
X-383000Y6383346D02*
D03*
X-383000Y6426654D02*
D03*
X-298000Y6383346D02*
D03*
X-298000Y6426654D02*
D03*
X-2153000Y7558346D02*
D03*
X-2153000Y7601654D02*
D03*
X-1963000Y7558346D02*
D03*
X-1963000Y7601654D02*
D03*
X-2343000Y7558346D02*
D03*
X-2343000Y7601654D02*
D03*
D54*
X-1071346Y7590000D02*
D03*
X-1114653Y7590000D02*
D03*
X-899654Y7595000D02*
D03*
X-856346Y7595000D02*
D03*
D55*
X-1236504Y7587500D02*
D03*
X-1299496Y7587500D02*
D03*
X-738985Y7597176D02*
D03*
X-801977Y7597176D02*
D03*
X-2269496Y7593499D02*
D03*
X-2206504Y7593499D02*
D03*
X-2079496Y7593499D02*
D03*
X-2016504Y7593499D02*
D03*
X-1889496Y7593499D02*
D03*
X-1826504Y7593499D02*
D03*
X-2459496Y7595001D02*
D03*
X-2396504Y7595001D02*
D03*
D56*
X-1381795Y1068745D02*
D03*
X-1381795Y1043153D02*
D03*
X-1381795Y1017563D02*
D03*
X-1381795Y991973D02*
D03*
X-1381795Y966383D02*
D03*
X-1381795Y940791D02*
D03*
X-1381795Y915201D02*
D03*
X-1381795Y889611D02*
D03*
X-1612111Y1068745D02*
D03*
X-1612111Y1043153D02*
D03*
X-1612111Y1017563D02*
D03*
X-1612111Y991973D02*
D03*
X-1612111Y966383D02*
D03*
X-1612111Y940791D02*
D03*
X-1612111Y915201D02*
D03*
X-1612111Y889611D02*
D03*
D57*
X-851403Y6585760D02*
D03*
X-851403Y6546360D02*
D03*
X-851403Y6506960D02*
D03*
X-851403Y6467560D02*
D03*
X-851403Y6428160D02*
D03*
X-851403Y6388760D02*
D03*
X-851403Y6349360D02*
D03*
X-851403Y6309960D02*
D03*
X-851403Y6270560D02*
D03*
X-851403Y6231160D02*
D03*
X-851403Y6191760D02*
D03*
X-851403Y6152360D02*
D03*
X-851403Y6112960D02*
D03*
X-851403Y6073560D02*
D03*
X-851403Y6034160D02*
D03*
X-851403Y5994760D02*
D03*
X-851403Y5955360D02*
D03*
X-851403Y5915960D02*
D03*
X-851403Y5876560D02*
D03*
X-851403Y5837160D02*
D03*
X-536203Y6585760D02*
D03*
X-536203Y6546360D02*
D03*
X-536203Y6506960D02*
D03*
X-536203Y6467560D02*
D03*
X-536203Y6428160D02*
D03*
X-536203Y6388760D02*
D03*
X-536203Y6349360D02*
D03*
X-536203Y6309960D02*
D03*
X-536203Y6270560D02*
D03*
X-536203Y6231160D02*
D03*
X-536203Y6191760D02*
D03*
X-536203Y6152360D02*
D03*
X-536203Y6112960D02*
D03*
X-536203Y6073560D02*
D03*
X-536203Y6034160D02*
D03*
X-536203Y5994760D02*
D03*
X-536203Y5955360D02*
D03*
X-536203Y5915960D02*
D03*
X-536203Y5876560D02*
D03*
X-536203Y5837160D02*
D03*
D03*
D58*
X-193804Y847287D02*
D03*
X-193804Y780359D02*
D03*
X-122936Y780359D02*
D03*
X-122936Y847287D02*
D03*
D59*
X-869851Y2220178D02*
D03*
X-869851Y2320178D02*
D03*
X-869851Y2420178D02*
D03*
X-1919851Y2220178D02*
D03*
X-1919851Y2320178D02*
D03*
X-1919851Y2420178D02*
D03*
X-116001Y7061500D02*
D03*
X-216001Y7061500D02*
D03*
X-316001Y7061500D02*
D03*
X-416001Y7061500D02*
D03*
X-516001Y7061500D02*
D03*
X-616001Y7061500D02*
D03*
X-330481Y7307176D02*
D03*
X-430481Y7307176D02*
D03*
X-530481Y7307176D02*
D03*
X-630481Y7307176D02*
D03*
X-230481Y7307176D02*
D03*
X-1269851Y2620178D02*
D03*
X-1069851Y2620178D02*
D03*
X-1169851Y2620178D02*
D03*
X-1369851Y2620178D02*
D03*
X-1469851Y2620178D02*
D03*
X-1569851Y2620178D02*
D03*
X-1669851Y2620178D02*
D03*
D60*
X-693803Y5675260D02*
D03*
X-693803Y6747660D02*
D03*
D61*
X-693803Y6585760D02*
D03*
X-695403Y5837160D02*
D03*
D62*
X-188000Y4228500D02*
D03*
X-188000Y4328500D02*
D03*
X-188000Y4428500D02*
D03*
X-188000Y4528500D02*
D03*
X-188000Y4628500D02*
D03*
X-88000Y4228500D02*
D03*
X-88000Y4328500D02*
D03*
X-88000Y4428500D02*
D03*
X-88000Y4528500D02*
D03*
X-88000Y4628500D02*
D03*
X-2488000Y5428500D02*
D03*
X-2488000Y5528500D02*
D03*
X-2488000Y5628500D02*
D03*
X-2488000Y5728500D02*
D03*
X-2488000Y5828500D02*
D03*
X-2388000Y5428500D02*
D03*
X-2388000Y5528500D02*
D03*
X-2388000Y5628500D02*
D03*
X-2388000Y5728500D02*
D03*
X-2388000Y5828500D02*
D03*
X-2388000Y4278500D02*
D03*
X-2388000Y4378500D02*
D03*
X-2388000Y4478500D02*
D03*
X-2488000Y4278500D02*
D03*
X-2488000Y4378500D02*
D03*
X-2488000Y4478500D02*
D03*
X-2388000Y4578500D02*
D03*
X-2388000Y4678500D02*
D03*
X-2388000Y4778500D02*
D03*
X-2388000Y4878500D02*
D03*
X-2388000Y4978500D02*
D03*
X-2488000Y4578500D02*
D03*
X-2488000Y4678500D02*
D03*
X-2488000Y4778500D02*
D03*
X-2488000Y4878500D02*
D03*
X-2488000Y4978500D02*
D03*
X-88000Y5178500D02*
D03*
X-88000Y5278500D02*
D03*
X-88000Y5378500D02*
D03*
X-188000Y5178500D02*
D03*
X-188000Y5278500D02*
D03*
X-188000Y5378500D02*
D03*
X-88000Y5478500D02*
D03*
X-88000Y5578500D02*
D03*
X-88000Y5678500D02*
D03*
X-88000Y5778500D02*
D03*
X-88000Y5878500D02*
D03*
X-188000Y5478500D02*
D03*
X-188000Y5578500D02*
D03*
X-188000Y5678500D02*
D03*
X-188000Y5778500D02*
D03*
X-188000Y5878500D02*
D03*
D63*
X-1098000Y7248500D02*
D03*
X-1098000Y7348500D02*
D03*
X-1198000Y7348500D02*
D03*
X-1298000Y7348500D02*
D03*
X-1398000Y7348500D02*
D03*
X-1498000Y7348500D02*
D03*
X-1598000Y7348500D02*
D03*
X-1698000Y7348500D02*
D03*
X-1798000Y7348500D02*
D03*
X-1898000Y7348500D02*
D03*
X-1998000Y7348500D02*
D03*
X-2098000Y7348500D02*
D03*
X-1198000Y7248500D02*
D03*
X-1298000Y7248500D02*
D03*
X-1398000Y7248500D02*
D03*
X-1498000Y7248500D02*
D03*
X-1598000Y7248500D02*
D03*
X-1698000Y7248500D02*
D03*
X-1798000Y7248500D02*
D03*
X-1898000Y7248500D02*
D03*
X-1998000Y7248500D02*
D03*
X-2098000Y7248500D02*
D03*
X-998000Y7348500D02*
D03*
X-998000Y7248500D02*
D03*
D64*
X-2318000Y2700000D02*
D03*
D65*
X-418000Y500000D02*
D03*
X-418000Y600000D02*
D03*
X-418000Y700000D02*
D03*
X-418000Y800000D02*
D03*
X-418000Y900000D02*
D03*
X-418000Y1000000D02*
D03*
X-418000Y1100000D02*
D03*
X-418000Y1200000D02*
D03*
X-418000Y1300000D02*
D03*
X-418000Y1400000D02*
D03*
X-418000Y1500000D02*
D03*
X-418000Y1600000D02*
D03*
X-418000Y1700000D02*
D03*
X-418000Y1800000D02*
D03*
X-418000Y1900000D02*
D03*
X-418000Y2000000D02*
D03*
X-418000Y2100000D02*
D03*
X-418000Y2200000D02*
D03*
X-418000Y2300000D02*
D03*
X-418000Y2400000D02*
D03*
X-418000Y2500000D02*
D03*
X-418000Y2600000D02*
D03*
X-318000Y500000D02*
D03*
X-318000Y600000D02*
D03*
X-318000Y700000D02*
D03*
X-318000Y800000D02*
D03*
X-318000Y900000D02*
D03*
X-318000Y1000000D02*
D03*
X-318000Y1100000D02*
D03*
X-318000Y1200000D02*
D03*
X-318000Y1300000D02*
D03*
X-318000Y1400000D02*
D03*
X-318000Y1500000D02*
D03*
X-318000Y1600000D02*
D03*
X-318000Y1700000D02*
D03*
X-318000Y1800000D02*
D03*
X-318000Y1900000D02*
D03*
X-318000Y2000000D02*
D03*
X-318000Y2100000D02*
D03*
X-318000Y2200000D02*
D03*
X-318000Y2300000D02*
D03*
X-318000Y2400000D02*
D03*
X-318000Y2500000D02*
D03*
X-318000Y2600000D02*
D03*
X-318000Y2700000D02*
D03*
X-418000Y2700000D02*
D03*
X-2318000Y500000D02*
D03*
X-2318000Y600000D02*
D03*
X-2318000Y700000D02*
D03*
X-2318000Y800000D02*
D03*
X-2318000Y900000D02*
D03*
X-2318000Y1000000D02*
D03*
X-2318000Y1100000D02*
D03*
X-2318000Y1200000D02*
D03*
X-2318000Y1300000D02*
D03*
X-2318000Y1400000D02*
D03*
X-2318000Y1500000D02*
D03*
X-2318000Y1600000D02*
D03*
X-2318000Y1700000D02*
D03*
X-2318000Y1800000D02*
D03*
X-2318000Y1900000D02*
D03*
X-2318000Y2000000D02*
D03*
X-2318000Y2100000D02*
D03*
X-2318000Y2200000D02*
D03*
X-2318000Y2300000D02*
D03*
X-2318000Y2400000D02*
D03*
X-2318000Y2500000D02*
D03*
X-2318000Y2600000D02*
D03*
X-2218000Y500000D02*
D03*
X-2218000Y600000D02*
D03*
X-2218000Y700000D02*
D03*
X-2218000Y800000D02*
D03*
X-2218000Y900000D02*
D03*
X-2218000Y1000000D02*
D03*
X-2218000Y1100000D02*
D03*
X-2218000Y1200000D02*
D03*
X-2218000Y1300000D02*
D03*
X-2218000Y1400000D02*
D03*
X-2218000Y1500000D02*
D03*
X-2218000Y1600000D02*
D03*
X-2218000Y1700000D02*
D03*
X-2218000Y1800000D02*
D03*
X-2218000Y1900000D02*
D03*
X-2218000Y2000000D02*
D03*
X-2218000Y2100000D02*
D03*
X-2218000Y2200000D02*
D03*
X-2218000Y2300000D02*
D03*
X-2218000Y2400000D02*
D03*
X-2218000Y2500000D02*
D03*
X-2218000Y2600000D02*
D03*
X-2218000Y2700000D02*
D03*
D66*
X-2143000Y300000D02*
D03*
X-493000Y300000D02*
D03*
X-368000Y2900000D02*
D03*
X-2268000Y2900000D02*
D03*
D67*
X-1318000Y5778500D02*
D03*
D68*
X-2488000Y6278500D02*
D03*
X-2488000Y3928500D02*
D03*
X-138000Y6278500D02*
D03*
X-138000Y3928500D02*
D03*
D69*
X-1919851Y1570178D02*
D03*
X-869851Y2620178D02*
D03*
X-869851Y1570178D02*
D03*
X-1919851Y2620178D02*
D03*
D70*
X-1179948Y5964948D02*
D03*
X-708000Y1755000D02*
D03*
X-618000Y2035000D02*
D03*
X-1748000Y6588500D02*
D03*
X-1858000Y6978500D02*
D03*
X-978000Y3878500D02*
D03*
X-1778000Y4668500D02*
D03*
X-1068000Y3828500D02*
D03*
X-1928000Y4588500D02*
D03*
X-1908000Y3148500D02*
D03*
X-1268000Y7138500D02*
D03*
X-1318000Y6928500D02*
D03*
X-2048000Y6478500D02*
D03*
X-1128000Y6318500D02*
D03*
X-2108000Y6288500D02*
D03*
X-1378000Y7587500D02*
D03*
X-720481Y7527176D02*
D03*
X-265481Y6767176D02*
D03*
X-58000Y4813500D02*
D03*
X-2578000Y418500D02*
D03*
X-205614Y1223272D02*
D03*
X-201677Y908311D02*
D03*
X-1398000Y6853500D02*
D03*
X-1393000Y6778500D02*
D03*
X-298000Y6108500D02*
D03*
X-1648000Y6771500D02*
D03*
X-2013000Y4953500D02*
D03*
X-2098000Y5053500D02*
D03*
X-1638000Y6668500D02*
D03*
D71*
X-763000Y715000D02*
D03*
D72*
X-1568000Y620000D02*
D03*
X-718000Y410000D02*
D03*
X-1271000Y1899500D02*
D03*
X-698000Y7600000D02*
D03*
X-588000Y4468500D02*
D03*
X-648000Y6348500D02*
D03*
X-2273000Y7513500D02*
D03*
X-1273000Y965500D02*
D03*
X-1323724Y1101224D02*
D03*
X-1674118Y990988D02*
D03*
X-1304039Y990988D02*
D03*
X-648000Y6308500D02*
D03*
X-728000Y6278500D02*
D03*
X-628000Y6228500D02*
D03*
X-2458000Y7453500D02*
D03*
X-2088000Y7488500D02*
D03*
%TF.MD5,9c2e4fb1779b3eee6b87ef6225b56acc*%
M02*
