%TF.GenerationSoftware,Altium Limited,Altium Designer,19.1.6 (110)*%
G04 Layer_Color=128*
%FSLAX26Y26*%
%MOIN*%
%TF.FileFunction,Paste,Bot*%
%TF.Part,Single*%
G01*
G75*
%TA.AperFunction,SMDPad,CuDef*%
%ADD11R,0.035433X0.033465*%
%ADD30R,0.043307X0.043307*%
%ADD31R,0.051181X0.033465*%
%ADD32R,0.057087X0.045276*%
%ADD33R,0.098425X0.066929*%
%ADD34R,0.009842X0.015748*%
%ADD35R,0.021654X0.055118*%
D11*
X41000Y-1590409D02*
D03*
Y-1641591D02*
D03*
X-12000Y-209410D02*
D03*
Y-260591D02*
D03*
D30*
X117000Y-1568567D02*
D03*
Y-1639433D02*
D03*
X67000Y-185567D02*
D03*
Y-256433D02*
D03*
D31*
X56000Y674535D02*
D03*
Y741465D02*
D03*
X-19000Y674535D02*
D03*
Y741465D02*
D03*
X-89000Y674535D02*
D03*
Y741465D02*
D03*
X-109000Y909535D02*
D03*
Y976465D02*
D03*
X466000Y840465D02*
D03*
Y773535D02*
D03*
X-70000Y1406535D02*
D03*
Y1473465D02*
D03*
X-140000Y1406535D02*
D03*
Y1473465D02*
D03*
D32*
X155000Y645567D02*
D03*
Y716433D02*
D03*
D33*
X31000Y913000D02*
D03*
D34*
X80213Y977961D02*
D03*
X60528D02*
D03*
X40843D02*
D03*
X21157D02*
D03*
X1472D02*
D03*
X-18213D02*
D03*
Y848039D02*
D03*
X1472D02*
D03*
X21157D02*
D03*
X40843D02*
D03*
X60528D02*
D03*
X80213D02*
D03*
D35*
X318598Y770008D02*
D03*
X356000D02*
D03*
X393401D02*
D03*
Y645992D02*
D03*
X356000D02*
D03*
X318598D02*
D03*
%TF.MD5,fd57e5606b923d60599dc32cbb443cac*%
M02*
