%TF.GenerationSoftware,Altium Limited,Altium Designer,19.1.6 (110)*%
G04 Layer_Color=32768*
%FSLAX26Y26*%
%MOIN*%
%TF.FileFunction,Other,M15-Bottom_Assembly*%
%TF.Part,Single*%
G01*
G75*
%TA.AperFunction,NonConductor*%
%ADD55C,0.003937*%
%ADD66C,0.001968*%
D55*
X-24000Y-599402D02*
Y-561606D01*
X-42898Y-580504D02*
X-5102D01*
X-390685Y-1784000D02*
X-351315D01*
X-371000Y-1803685D02*
Y-1764315D01*
X-170898Y-1946000D02*
X-133102D01*
X-152000Y-1964898D02*
Y-1927102D01*
X-6898Y-1965000D02*
X30898D01*
X12000Y-1983898D02*
Y-1946102D01*
X23315Y-1775000D02*
X62685D01*
X43000Y-1794685D02*
Y-1755315D01*
X-219000Y-594402D02*
Y-556606D01*
X-237898Y-575504D02*
X-200102D01*
X6157Y-421528D02*
Y-382158D01*
X-13527Y-401842D02*
X25843D01*
X-340496Y-430189D02*
Y-390819D01*
X-360181Y-410504D02*
X-320811D01*
D66*
X-136701Y-278000D02*
X-99299D01*
X-118000Y-296701D02*
Y-259299D01*
X-147528Y-337055D02*
Y-218945D01*
X-88472Y-337055D02*
Y-218945D01*
X-147528Y-337055D02*
X-88472D01*
X-147528Y-218945D02*
X-88472D01*
X-113528Y-526449D02*
X-54472D01*
X-113528Y-644559D02*
X-54472D01*
Y-526449D01*
X-113528Y-644559D02*
Y-526449D01*
X-84000Y-604205D02*
Y-566803D01*
X-102701Y-585504D02*
X-65299D01*
X-47622Y-625779D02*
X-378D01*
X-47622Y-535228D02*
X-378D01*
X-47622Y-625779D02*
Y-535228D01*
X-378Y-625779D02*
Y-535228D01*
X-120000Y-1848701D02*
Y-1811299D01*
X-138701Y-1830000D02*
X-101299D01*
X-179055Y-1859528D02*
X-60945D01*
X-179055Y-1800473D02*
X-60945D01*
Y-1859528D02*
Y-1800473D01*
X-179055Y-1859528D02*
Y-1800473D01*
X-463520Y-1854866D02*
X-278480D01*
X-463520D02*
Y-1713134D01*
X-278480D01*
Y-1854866D02*
Y-1713134D01*
X-446701Y-1632000D02*
X-409299D01*
X-428000Y-1650701D02*
Y-1613299D01*
X-398472Y-1691055D02*
Y-1572945D01*
X-457527Y-1691055D02*
Y-1572945D01*
X-398472D01*
X-457527Y-1691055D02*
X-398472D01*
X-175622Y-1991275D02*
Y-1900724D01*
X-128378Y-1991275D02*
Y-1900724D01*
X-175622Y-1991275D02*
X-128378D01*
X-175622Y-1900724D02*
X-128378D01*
X35622Y-2010276D02*
Y-1919725D01*
X-11622Y-2010276D02*
Y-1919725D01*
X35622D01*
X-11622Y-2010276D02*
X35622D01*
X54299Y-1970000D02*
X91701D01*
X73000Y-1988701D02*
Y-1951299D01*
X43472Y-2029055D02*
Y-1910945D01*
X102528Y-2029055D02*
Y-1910945D01*
X43472Y-2029055D02*
X102528D01*
X43472Y-1910945D02*
X102528D01*
X-117701Y-1677000D02*
X-80299D01*
X-99000Y-1695701D02*
Y-1658299D01*
X-128528Y-1736055D02*
Y-1617945D01*
X-69472Y-1736055D02*
Y-1617945D01*
X-128528Y-1736055D02*
X-69472D01*
X-128528Y-1617945D02*
X-69472D01*
X-104701Y-1924000D02*
X-67299D01*
X-86000Y-1942701D02*
Y-1905299D01*
X-56472Y-1983055D02*
Y-1864945D01*
X-115528Y-1983055D02*
Y-1864945D01*
X-56472D01*
X-115528Y-1983055D02*
X-56472D01*
X125677Y-1857677D02*
Y-1692323D01*
X-39677Y-1857677D02*
Y-1692323D01*
Y-1857677D02*
X125677D01*
X-39677Y-1692323D02*
X125677D01*
X157299Y-1684000D02*
X194701D01*
X176000Y-1702701D02*
Y-1665299D01*
X146472Y-1743055D02*
Y-1624945D01*
X205528Y-1743055D02*
Y-1624945D01*
X146472Y-1743055D02*
X205528D01*
X146472Y-1624945D02*
X205528D01*
X-446779Y1782827D02*
X-219220D01*
Y1661173D02*
Y1782827D01*
X-446779Y1661173D02*
X-219220D01*
X-446779D02*
Y1782827D01*
X-333000Y1702315D02*
Y1741685D01*
X-352685Y1722000D02*
X-313315D01*
X-242622Y-530228D02*
X-195378D01*
X-242622Y-620779D02*
X-195378D01*
Y-530228D01*
X-242622Y-620779D02*
Y-530228D01*
X-76520Y-319165D02*
X88835D01*
X-76520Y-484520D02*
X88835D01*
X-76520D02*
Y-319165D01*
X88835Y-484520D02*
Y-319165D01*
X-247976Y-481370D02*
Y-339638D01*
X-433016D02*
X-247976D01*
X-433016Y-481370D02*
Y-339638D01*
Y-481370D02*
X-247976D01*
X-425024Y-299559D02*
X-365969D01*
X-425024Y-181449D02*
X-365969D01*
X-425024Y-299559D02*
Y-181449D01*
X-365969Y-299559D02*
Y-181449D01*
X-395496Y-259205D02*
Y-221803D01*
X-414197Y-240504D02*
X-376795D01*
X-183528Y-644559D02*
X-124472D01*
X-183528Y-526449D02*
X-124472D01*
X-183528Y-644559D02*
Y-526449D01*
X-124472Y-644559D02*
Y-526449D01*
X-154000Y-604205D02*
Y-566803D01*
X-172701Y-585504D02*
X-135299D01*
X-228055Y-490031D02*
Y-430976D01*
X-109945Y-490031D02*
Y-430976D01*
X-228055D02*
X-109945D01*
X-228055Y-490031D02*
X-109945D01*
X-187701Y-460504D02*
X-150299D01*
X-169000Y-479205D02*
Y-441803D01*
X111472Y-251449D02*
X170528D01*
X111472Y-369559D02*
X170528D01*
Y-251449D01*
X111472Y-369559D02*
Y-251449D01*
X141000Y-329205D02*
Y-291803D01*
X122299Y-310504D02*
X159701D01*
%TF.MD5,dbd61930482d6321403d2d0cc69530a5*%
M02*
