%TF.GenerationSoftware,Altium Limited,Altium Designer,19.1.6 (110)*%
G04 Layer_Color=0*
%FSLAX26Y26*%
%MOIN*%
%TF.FileFunction,Plated,1,2,PTH,Drill*%
%TF.Part,Single*%
G01*
G75*
%TA.AperFunction,ComponentDrill*%
%ADD69C,0.036221*%
%ADD70C,0.025000*%
%ADD71C,0.043307*%
%TA.AperFunction,ViaDrill,NotFilled*%
%ADD72C,0.007874*%
%ADD73C,0.019685*%
%ADD74C,0.028000*%
D69*
X-1341205Y2047956D02*
D03*
Y1947956D02*
D03*
Y1847956D02*
D03*
Y1747956D02*
D03*
Y1647956D02*
D03*
Y1547956D02*
D03*
Y1447956D02*
D03*
Y1347956D02*
D03*
Y1247956D02*
D03*
Y1147956D02*
D03*
Y1047956D02*
D03*
Y947956D02*
D03*
Y847956D02*
D03*
Y747956D02*
D03*
Y647956D02*
D03*
Y547956D02*
D03*
Y447955D02*
D03*
Y347955D02*
D03*
Y247956D02*
D03*
Y147956D02*
D03*
Y47956D02*
D03*
Y-52044D02*
D03*
Y-152044D02*
D03*
Y-252044D02*
D03*
Y-352045D02*
D03*
Y-452045D02*
D03*
Y-552044D02*
D03*
Y-652044D02*
D03*
Y-752044D02*
D03*
Y-852044D02*
D03*
Y-952044D02*
D03*
Y-1052044D02*
D03*
Y-1152044D02*
D03*
Y-1252044D02*
D03*
Y-1352044D02*
D03*
Y-1452044D02*
D03*
Y-1552044D02*
D03*
Y-1652044D02*
D03*
Y-1752044D02*
D03*
Y-1852044D02*
D03*
X-1241205Y2047956D02*
D03*
Y1947956D02*
D03*
Y1847956D02*
D03*
Y1747956D02*
D03*
Y1647956D02*
D03*
Y1547956D02*
D03*
Y1447956D02*
D03*
Y1347956D02*
D03*
Y1247956D02*
D03*
Y1147956D02*
D03*
Y1047956D02*
D03*
Y947956D02*
D03*
Y847956D02*
D03*
Y747956D02*
D03*
Y647956D02*
D03*
Y547956D02*
D03*
Y447955D02*
D03*
Y347955D02*
D03*
Y247956D02*
D03*
Y147956D02*
D03*
Y47956D02*
D03*
Y-52044D02*
D03*
Y-152044D02*
D03*
Y-252044D02*
D03*
Y-352045D02*
D03*
Y-452045D02*
D03*
Y-552044D02*
D03*
Y-652044D02*
D03*
Y-752044D02*
D03*
Y-852044D02*
D03*
Y-952044D02*
D03*
Y-1052044D02*
D03*
Y-1152044D02*
D03*
Y-1252044D02*
D03*
Y-1352044D02*
D03*
Y-1452044D02*
D03*
Y-1552044D02*
D03*
Y-1652044D02*
D03*
Y-1752044D02*
D03*
Y-1852044D02*
D03*
X1158795Y-1853029D02*
D03*
Y-1753029D02*
D03*
Y-1653029D02*
D03*
Y-1553029D02*
D03*
Y-1453029D02*
D03*
Y-1353029D02*
D03*
Y-1253029D02*
D03*
Y-1153029D02*
D03*
Y-1053029D02*
D03*
Y-953029D02*
D03*
Y-853029D02*
D03*
Y-753029D02*
D03*
Y-653029D02*
D03*
Y-553029D02*
D03*
Y-453029D02*
D03*
Y-353029D02*
D03*
Y-253029D02*
D03*
Y-153029D02*
D03*
Y-53029D02*
D03*
Y46971D02*
D03*
Y146971D02*
D03*
Y246971D02*
D03*
Y346971D02*
D03*
Y446971D02*
D03*
Y546971D02*
D03*
Y646971D02*
D03*
Y746971D02*
D03*
Y846971D02*
D03*
Y946971D02*
D03*
Y1046971D02*
D03*
Y1146971D02*
D03*
Y1246971D02*
D03*
Y1346971D02*
D03*
Y1446971D02*
D03*
Y1546971D02*
D03*
Y1646971D02*
D03*
Y1746971D02*
D03*
Y1846971D02*
D03*
Y1946971D02*
D03*
Y2046971D02*
D03*
X1058795Y-1853029D02*
D03*
Y-1753029D02*
D03*
Y-1653029D02*
D03*
Y-1553029D02*
D03*
Y-1453029D02*
D03*
Y-1353029D02*
D03*
Y-1253029D02*
D03*
Y-1153029D02*
D03*
Y-1053029D02*
D03*
Y-953029D02*
D03*
Y-853029D02*
D03*
Y-753029D02*
D03*
Y-653029D02*
D03*
Y-553029D02*
D03*
Y-453029D02*
D03*
Y-353029D02*
D03*
Y-253029D02*
D03*
Y-153029D02*
D03*
Y-53029D02*
D03*
Y46971D02*
D03*
Y146971D02*
D03*
Y246971D02*
D03*
Y346971D02*
D03*
Y446971D02*
D03*
Y546971D02*
D03*
Y646971D02*
D03*
Y746971D02*
D03*
Y846971D02*
D03*
Y946971D02*
D03*
Y1046971D02*
D03*
Y1146971D02*
D03*
Y1246971D02*
D03*
Y1346971D02*
D03*
Y1446971D02*
D03*
Y1546971D02*
D03*
Y1646971D02*
D03*
Y1746971D02*
D03*
Y1846971D02*
D03*
Y1946971D02*
D03*
Y2046971D02*
D03*
D70*
X-75000Y1285520D02*
D03*
Y1335520D02*
D03*
X-25000Y1285520D02*
D03*
Y1335520D02*
D03*
X25000Y1285520D02*
D03*
Y1335520D02*
D03*
X75000Y1285520D02*
D03*
Y1335520D02*
D03*
X76000Y25520D02*
D03*
Y-24480D02*
D03*
X26000Y25520D02*
D03*
Y-24480D02*
D03*
X-24000Y25520D02*
D03*
Y-24480D02*
D03*
X-74000Y25520D02*
D03*
Y-24480D02*
D03*
X-75000Y-1382480D02*
D03*
Y-1332480D02*
D03*
X-25000Y-1382480D02*
D03*
Y-1332480D02*
D03*
X25000Y-1382480D02*
D03*
Y-1332480D02*
D03*
X75000Y-1382480D02*
D03*
Y-1332480D02*
D03*
D71*
X-283000Y1722000D02*
D03*
X-383000D02*
D03*
D72*
X-166500Y-353500D02*
D03*
X-14000Y-309000D02*
D03*
X-588000Y-562000D02*
D03*
X359000Y331000D02*
D03*
X360000Y291000D02*
D03*
X359000Y375000D02*
D03*
X228000Y710000D02*
D03*
X97000Y-436000D02*
D03*
X-476000Y-1022000D02*
D03*
Y-1044000D02*
D03*
X60528Y808473D02*
D03*
X-476000Y-1604000D02*
D03*
X-443000Y-208000D02*
D03*
X53000Y-1682000D02*
D03*
X33150Y-1873000D02*
D03*
X13000Y-1853000D02*
D03*
X125677Y-1805000D02*
D03*
X27811Y-380189D02*
D03*
X-39677Y-1765000D02*
D03*
X64654Y-1796654D02*
D03*
X21346D02*
D03*
X64654Y-1753347D02*
D03*
X21346D02*
D03*
X-15496Y-380189D02*
D03*
Y-423496D02*
D03*
X27811D02*
D03*
X-4000Y-484504D02*
D03*
X17000Y-511504D02*
D03*
X37000Y-485504D02*
D03*
X16000Y-295000D02*
D03*
X-84000Y-526449D02*
D03*
X101000Y848000D02*
D03*
X-89000Y643000D02*
D03*
D73*
X145000Y-184000D02*
D03*
X135000Y-1540000D02*
D03*
X1055150Y2677709D02*
D03*
X1252000Y2284008D02*
D03*
Y1496606D02*
D03*
Y-78197D02*
D03*
Y-865598D02*
D03*
Y-1653000D02*
D03*
X1055150Y-2046701D02*
D03*
X661449Y2677709D02*
D03*
X858299Y2284008D02*
D03*
X661449Y1890307D02*
D03*
X858299Y1496606D02*
D03*
X661449Y315504D02*
D03*
X858299Y-78197D02*
D03*
X661449Y-471898D02*
D03*
Y-2046701D02*
D03*
X267748Y2677709D02*
D03*
X464598Y2284008D02*
D03*
X267748Y1890307D02*
D03*
X464598Y1496606D02*
D03*
X267748Y1102906D02*
D03*
Y315504D02*
D03*
Y-471898D02*
D03*
X464598Y-865598D02*
D03*
X267748Y-1259299D02*
D03*
X464598Y-1653000D02*
D03*
X267748Y-2046701D02*
D03*
X-125953Y2677709D02*
D03*
X70898Y2284008D02*
D03*
X-125953Y1890307D02*
D03*
X70898Y1496606D02*
D03*
X-125953Y315504D02*
D03*
X70898Y-865598D02*
D03*
X-125953Y-1259299D02*
D03*
Y-2046701D02*
D03*
X-519654Y2677709D02*
D03*
X-322803Y2284008D02*
D03*
X-519654Y1890307D02*
D03*
X-322803Y1496606D02*
D03*
Y709205D02*
D03*
Y-78197D02*
D03*
X-519654Y-471898D02*
D03*
Y-1259299D02*
D03*
X-322803Y-1653000D02*
D03*
X-519654Y-2046701D02*
D03*
X-913354Y2677709D02*
D03*
X-716504Y2284008D02*
D03*
X-913354Y1890307D02*
D03*
Y1102906D02*
D03*
X-716504Y709205D02*
D03*
X-913354Y315504D02*
D03*
X-716504Y-78197D02*
D03*
X-913354Y-471898D02*
D03*
X-716504Y-865598D02*
D03*
X-913354Y-1259299D02*
D03*
X-716504Y-1653000D02*
D03*
X-913354Y-2046701D02*
D03*
X-1307055Y2677709D02*
D03*
X-1110205Y2284008D02*
D03*
Y709205D02*
D03*
Y-78197D02*
D03*
Y-865598D02*
D03*
Y-1653000D02*
D03*
X-1307055Y-2046701D02*
D03*
D74*
X-687000Y-692000D02*
D03*
X-1012000Y-1682000D02*
D03*
X-749000Y1706000D02*
D03*
%TF.MD5,88703f96c2d6c1aa26bf7afd6662a246*%
M02*
