G04 Layer_Physical_Order=1*
G04 Layer_Color=255*
%FSLAX26Y26*%
%MOIN*%
%TF.FileFunction,Copper,L1,Top,Signal*%
%TF.Part,Single*%
G01*
G75*
%TA.AperFunction,Conductor*%
%ADD10C,0.010000*%
%TA.AperFunction,ComponentPad*%
%ADD11C,0.070866*%
%ADD12R,0.060000X0.060000*%
%ADD13C,0.157480*%
%ADD14C,0.060000*%
%TA.AperFunction,ViaPad*%
%ADD15C,0.050000*%
G36*
X2800000Y0D02*
X0D01*
Y4600000D01*
X2800000D01*
Y0D01*
D02*
G37*
%LPC*%
G36*
X2300000Y1222802D02*
X2290863Y1221599D01*
X2282349Y1218072D01*
X2275038Y1212462D01*
X2269428Y1205151D01*
X2265901Y1196637D01*
X2264698Y1187500D01*
X2265901Y1178363D01*
X2269428Y1169849D01*
X2275038Y1162538D01*
X2282349Y1156928D01*
X2290863Y1153401D01*
X2300000Y1152198D01*
X2309137Y1153401D01*
X2317651Y1156928D01*
X2324962Y1162538D01*
X2330572Y1169849D01*
X2334099Y1178363D01*
X2335302Y1187500D01*
X2334099Y1196637D01*
X2330572Y1205151D01*
X2324962Y1212462D01*
X2317651Y1218072D01*
X2309137Y1221599D01*
X2300000Y1222802D01*
D02*
G37*
G36*
X400000D02*
X390863Y1221599D01*
X382349Y1218072D01*
X375038Y1212462D01*
X369428Y1205151D01*
X365901Y1196637D01*
X364698Y1187500D01*
X365901Y1178363D01*
X369428Y1169849D01*
X375038Y1162538D01*
X382349Y1156928D01*
X390863Y1153401D01*
X400000Y1152198D01*
X409137Y1153401D01*
X417651Y1156928D01*
X424962Y1162538D01*
X430572Y1169849D01*
X434099Y1178363D01*
X435302Y1187500D01*
X434099Y1196637D01*
X430572Y1205151D01*
X424962Y1212462D01*
X417651Y1218072D01*
X409137Y1221599D01*
X400000Y1222802D01*
D02*
G37*
G36*
X2400000Y1122802D02*
X2390863Y1121599D01*
X2382349Y1118072D01*
X2375038Y1112462D01*
X2369428Y1105151D01*
X2365901Y1096637D01*
X2364698Y1087500D01*
X2365901Y1078363D01*
X2369428Y1069849D01*
X2375038Y1062538D01*
X2382349Y1056928D01*
X2390863Y1053401D01*
X2400000Y1052198D01*
X2409137Y1053401D01*
X2417651Y1056928D01*
X2424962Y1062538D01*
X2430572Y1069849D01*
X2434099Y1078363D01*
X2435302Y1087500D01*
X2434099Y1096637D01*
X2430572Y1105151D01*
X2424962Y1112462D01*
X2417651Y1118072D01*
X2409137Y1121599D01*
X2400000Y1122802D01*
D02*
G37*
G36*
Y1222802D02*
X2390863Y1221599D01*
X2382349Y1218072D01*
X2375038Y1212462D01*
X2369428Y1205151D01*
X2365901Y1196637D01*
X2364698Y1187500D01*
X2365901Y1178363D01*
X2369428Y1169849D01*
X2375038Y1162538D01*
X2382349Y1156928D01*
X2390863Y1153401D01*
X2400000Y1152198D01*
X2409137Y1153401D01*
X2417651Y1156928D01*
X2424962Y1162538D01*
X2430572Y1169849D01*
X2434099Y1178363D01*
X2435302Y1187500D01*
X2434099Y1196637D01*
X2430572Y1205151D01*
X2424962Y1212462D01*
X2417651Y1218072D01*
X2409137Y1221599D01*
X2400000Y1222802D01*
D02*
G37*
G36*
Y1322802D02*
X2390863Y1321599D01*
X2382349Y1318072D01*
X2375038Y1312462D01*
X2369428Y1305151D01*
X2365901Y1296637D01*
X2364698Y1287500D01*
X2365901Y1278363D01*
X2369428Y1269849D01*
X2375038Y1262538D01*
X2382349Y1256928D01*
X2390863Y1253401D01*
X2400000Y1252198D01*
X2409137Y1253401D01*
X2417651Y1256928D01*
X2424962Y1262538D01*
X2430572Y1269849D01*
X2434099Y1278363D01*
X2435302Y1287500D01*
X2434099Y1296637D01*
X2430572Y1305151D01*
X2424962Y1312462D01*
X2417651Y1318072D01*
X2409137Y1321599D01*
X2400000Y1322802D01*
D02*
G37*
G36*
X2300000D02*
X2290863Y1321599D01*
X2282349Y1318072D01*
X2275038Y1312462D01*
X2269428Y1305151D01*
X2265901Y1296637D01*
X2264698Y1287500D01*
X2265901Y1278363D01*
X2269428Y1269849D01*
X2275038Y1262538D01*
X2282349Y1256928D01*
X2290863Y1253401D01*
X2300000Y1252198D01*
X2309137Y1253401D01*
X2317651Y1256928D01*
X2324962Y1262538D01*
X2330572Y1269849D01*
X2334099Y1278363D01*
X2335302Y1287500D01*
X2334099Y1296637D01*
X2330572Y1305151D01*
X2324962Y1312462D01*
X2317651Y1318072D01*
X2309137Y1321599D01*
X2300000Y1322802D01*
D02*
G37*
G36*
X500000D02*
X490863Y1321599D01*
X482349Y1318072D01*
X475038Y1312462D01*
X469428Y1305151D01*
X465901Y1296637D01*
X464698Y1287500D01*
X465901Y1278363D01*
X469428Y1269849D01*
X475038Y1262538D01*
X482349Y1256928D01*
X490863Y1253401D01*
X500000Y1252198D01*
X509137Y1253401D01*
X517651Y1256928D01*
X524962Y1262538D01*
X530572Y1269849D01*
X534099Y1278363D01*
X535302Y1287500D01*
X534099Y1296637D01*
X530572Y1305151D01*
X524962Y1312462D01*
X517651Y1318072D01*
X509137Y1321599D01*
X500000Y1322802D01*
D02*
G37*
G36*
X2300000Y1022802D02*
X2290863Y1021599D01*
X2282349Y1018072D01*
X2275038Y1012462D01*
X2269428Y1005151D01*
X2265901Y996637D01*
X2264698Y987500D01*
X2265901Y978363D01*
X2269428Y969849D01*
X2275038Y962538D01*
X2282349Y956928D01*
X2290863Y953401D01*
X2300000Y952198D01*
X2309137Y953401D01*
X2317651Y956928D01*
X2324962Y962538D01*
X2330572Y969849D01*
X2334099Y978363D01*
X2335302Y987500D01*
X2334099Y996637D01*
X2330572Y1005151D01*
X2324962Y1012462D01*
X2317651Y1018072D01*
X2309137Y1021599D01*
X2300000Y1022802D01*
D02*
G37*
G36*
X500000D02*
X490863Y1021599D01*
X482349Y1018072D01*
X475038Y1012462D01*
X469428Y1005151D01*
X465901Y996637D01*
X464698Y987500D01*
X465901Y978363D01*
X469428Y969849D01*
X475038Y962538D01*
X482349Y956928D01*
X490863Y953401D01*
X500000Y952198D01*
X509137Y953401D01*
X517651Y956928D01*
X524962Y962538D01*
X530572Y969849D01*
X534099Y978363D01*
X535302Y987500D01*
X534099Y996637D01*
X530572Y1005151D01*
X524962Y1012462D01*
X517651Y1018072D01*
X509137Y1021599D01*
X500000Y1022802D01*
D02*
G37*
G36*
X400000D02*
X390863Y1021599D01*
X382349Y1018072D01*
X375038Y1012462D01*
X369428Y1005151D01*
X365901Y996637D01*
X364698Y987500D01*
X365901Y978363D01*
X369428Y969849D01*
X375038Y962538D01*
X382349Y956928D01*
X390863Y953401D01*
X400000Y952198D01*
X409137Y953401D01*
X417651Y956928D01*
X424962Y962538D01*
X430572Y969849D01*
X434099Y978363D01*
X435302Y987500D01*
X434099Y996637D01*
X430572Y1005151D01*
X424962Y1012462D01*
X417651Y1018072D01*
X409137Y1021599D01*
X400000Y1022802D01*
D02*
G37*
G36*
X2400000D02*
X2390863Y1021599D01*
X2382349Y1018072D01*
X2375038Y1012462D01*
X2369428Y1005151D01*
X2365901Y996637D01*
X2364698Y987500D01*
X2365901Y978363D01*
X2369428Y969849D01*
X2375038Y962538D01*
X2382349Y956928D01*
X2390863Y953401D01*
X2400000Y952198D01*
X2409137Y953401D01*
X2417651Y956928D01*
X2424962Y962538D01*
X2430572Y969849D01*
X2434099Y978363D01*
X2435302Y987500D01*
X2434099Y996637D01*
X2430572Y1005151D01*
X2424962Y1012462D01*
X2417651Y1018072D01*
X2409137Y1021599D01*
X2400000Y1022802D01*
D02*
G37*
G36*
X2300000Y1122802D02*
X2290863Y1121599D01*
X2282349Y1118072D01*
X2275038Y1112462D01*
X2269428Y1105151D01*
X2265901Y1096637D01*
X2264698Y1087500D01*
X2265901Y1078363D01*
X2269428Y1069849D01*
X2275038Y1062538D01*
X2282349Y1056928D01*
X2290863Y1053401D01*
X2300000Y1052198D01*
X2309137Y1053401D01*
X2317651Y1056928D01*
X2324962Y1062538D01*
X2330572Y1069849D01*
X2334099Y1078363D01*
X2335302Y1087500D01*
X2334099Y1096637D01*
X2330572Y1105151D01*
X2324962Y1112462D01*
X2317651Y1118072D01*
X2309137Y1121599D01*
X2300000Y1122802D01*
D02*
G37*
G36*
X500000D02*
X490863Y1121599D01*
X482349Y1118072D01*
X475038Y1112462D01*
X469428Y1105151D01*
X465901Y1096637D01*
X464698Y1087500D01*
X465901Y1078363D01*
X469428Y1069849D01*
X475038Y1062538D01*
X482349Y1056928D01*
X490863Y1053401D01*
X500000Y1052198D01*
X509137Y1053401D01*
X517651Y1056928D01*
X524962Y1062538D01*
X530572Y1069849D01*
X534099Y1078363D01*
X535302Y1087500D01*
X534099Y1096637D01*
X530572Y1105151D01*
X524962Y1112462D01*
X517651Y1118072D01*
X509137Y1121599D01*
X500000Y1122802D01*
D02*
G37*
G36*
X400000D02*
X390863Y1121599D01*
X382349Y1118072D01*
X375038Y1112462D01*
X369428Y1105151D01*
X365901Y1096637D01*
X364698Y1087500D01*
X365901Y1078363D01*
X369428Y1069849D01*
X375038Y1062538D01*
X382349Y1056928D01*
X390863Y1053401D01*
X400000Y1052198D01*
X409137Y1053401D01*
X417651Y1056928D01*
X424962Y1062538D01*
X430572Y1069849D01*
X434099Y1078363D01*
X435302Y1087500D01*
X434099Y1096637D01*
X430572Y1105151D01*
X424962Y1112462D01*
X417651Y1118072D01*
X409137Y1121599D01*
X400000Y1122802D01*
D02*
G37*
G36*
Y1422802D02*
X390863Y1421599D01*
X382349Y1418072D01*
X375038Y1412462D01*
X369428Y1405151D01*
X365901Y1396637D01*
X364698Y1387500D01*
X365901Y1378363D01*
X369428Y1369849D01*
X375038Y1362538D01*
X382349Y1356928D01*
X390863Y1353401D01*
X400000Y1352198D01*
X409137Y1353401D01*
X417651Y1356928D01*
X424962Y1362538D01*
X430572Y1369849D01*
X434099Y1378363D01*
X435302Y1387500D01*
X434099Y1396637D01*
X430572Y1405151D01*
X424962Y1412462D01*
X417651Y1418072D01*
X409137Y1421599D01*
X400000Y1422802D01*
D02*
G37*
G36*
X2400000Y1622802D02*
X2390863Y1621599D01*
X2382349Y1618072D01*
X2375038Y1612462D01*
X2369428Y1605151D01*
X2365901Y1596637D01*
X2364698Y1587500D01*
X2365901Y1578363D01*
X2369428Y1569849D01*
X2375038Y1562538D01*
X2382349Y1556928D01*
X2390863Y1553401D01*
X2400000Y1552198D01*
X2409137Y1553401D01*
X2417651Y1556928D01*
X2424962Y1562538D01*
X2430572Y1569849D01*
X2434099Y1578363D01*
X2435302Y1587500D01*
X2434099Y1596637D01*
X2430572Y1605151D01*
X2424962Y1612462D01*
X2417651Y1618072D01*
X2409137Y1621599D01*
X2400000Y1622802D01*
D02*
G37*
G36*
X2300000D02*
X2290863Y1621599D01*
X2282349Y1618072D01*
X2275038Y1612462D01*
X2269428Y1605151D01*
X2265901Y1596637D01*
X2264698Y1587500D01*
X2265901Y1578363D01*
X2269428Y1569849D01*
X2275038Y1562538D01*
X2282349Y1556928D01*
X2290863Y1553401D01*
X2300000Y1552198D01*
X2309137Y1553401D01*
X2317651Y1556928D01*
X2324962Y1562538D01*
X2330572Y1569849D01*
X2334099Y1578363D01*
X2335302Y1587500D01*
X2334099Y1596637D01*
X2330572Y1605151D01*
X2324962Y1612462D01*
X2317651Y1618072D01*
X2309137Y1621599D01*
X2300000Y1622802D01*
D02*
G37*
G36*
X500000D02*
X490863Y1621599D01*
X482349Y1618072D01*
X475038Y1612462D01*
X469428Y1605151D01*
X465901Y1596637D01*
X464698Y1587500D01*
X465901Y1578363D01*
X469428Y1569849D01*
X475038Y1562538D01*
X482349Y1556928D01*
X490863Y1553401D01*
X500000Y1552198D01*
X509137Y1553401D01*
X517651Y1556928D01*
X524962Y1562538D01*
X530572Y1569849D01*
X534099Y1578363D01*
X535302Y1587500D01*
X534099Y1596637D01*
X530572Y1605151D01*
X524962Y1612462D01*
X517651Y1618072D01*
X509137Y1621599D01*
X500000Y1622802D01*
D02*
G37*
G36*
X400000Y1722802D02*
X390863Y1721599D01*
X382349Y1718072D01*
X375038Y1712462D01*
X369428Y1705151D01*
X365901Y1696637D01*
X364698Y1687500D01*
X365901Y1678363D01*
X369428Y1669849D01*
X375038Y1662538D01*
X382349Y1656928D01*
X390863Y1653401D01*
X400000Y1652198D01*
X409137Y1653401D01*
X417651Y1656928D01*
X424962Y1662538D01*
X430572Y1669849D01*
X434099Y1678363D01*
X435302Y1687500D01*
X434099Y1696637D01*
X430572Y1705151D01*
X424962Y1712462D01*
X417651Y1718072D01*
X409137Y1721599D01*
X400000Y1722802D01*
D02*
G37*
G36*
X2400000D02*
X2390863Y1721599D01*
X2382349Y1718072D01*
X2375038Y1712462D01*
X2369428Y1705151D01*
X2365901Y1696637D01*
X2364698Y1687500D01*
X2365901Y1678363D01*
X2369428Y1669849D01*
X2375038Y1662538D01*
X2382349Y1656928D01*
X2390863Y1653401D01*
X2400000Y1652198D01*
X2409137Y1653401D01*
X2417651Y1656928D01*
X2424962Y1662538D01*
X2430572Y1669849D01*
X2434099Y1678363D01*
X2435302Y1687500D01*
X2434099Y1696637D01*
X2430572Y1705151D01*
X2424962Y1712462D01*
X2417651Y1718072D01*
X2409137Y1721599D01*
X2400000Y1722802D01*
D02*
G37*
G36*
X2300000D02*
X2290863Y1721599D01*
X2282349Y1718072D01*
X2275038Y1712462D01*
X2269428Y1705151D01*
X2265901Y1696637D01*
X2264698Y1687500D01*
X2265901Y1678363D01*
X2269428Y1669849D01*
X2275038Y1662538D01*
X2282349Y1656928D01*
X2290863Y1653401D01*
X2300000Y1652198D01*
X2309137Y1653401D01*
X2317651Y1656928D01*
X2324962Y1662538D01*
X2330572Y1669849D01*
X2334099Y1678363D01*
X2335302Y1687500D01*
X2334099Y1696637D01*
X2330572Y1705151D01*
X2324962Y1712462D01*
X2317651Y1718072D01*
X2309137Y1721599D01*
X2300000Y1722802D01*
D02*
G37*
G36*
X500000D02*
X490863Y1721599D01*
X482349Y1718072D01*
X475038Y1712462D01*
X469428Y1705151D01*
X465901Y1696637D01*
X464698Y1687500D01*
X465901Y1678363D01*
X469428Y1669849D01*
X475038Y1662538D01*
X482349Y1656928D01*
X490863Y1653401D01*
X500000Y1652198D01*
X509137Y1653401D01*
X517651Y1656928D01*
X524962Y1662538D01*
X530572Y1669849D01*
X534099Y1678363D01*
X535302Y1687500D01*
X534099Y1696637D01*
X530572Y1705151D01*
X524962Y1712462D01*
X517651Y1718072D01*
X509137Y1721599D01*
X500000Y1722802D01*
D02*
G37*
G36*
X400000Y1522802D02*
X390863Y1521599D01*
X382349Y1518072D01*
X375038Y1512462D01*
X369428Y1505151D01*
X365901Y1496637D01*
X364698Y1487500D01*
X365901Y1478363D01*
X369428Y1469849D01*
X375038Y1462538D01*
X382349Y1456928D01*
X390863Y1453401D01*
X400000Y1452198D01*
X409137Y1453401D01*
X417651Y1456928D01*
X424962Y1462538D01*
X430572Y1469849D01*
X434099Y1478363D01*
X435302Y1487500D01*
X434099Y1496637D01*
X430572Y1505151D01*
X424962Y1512462D01*
X417651Y1518072D01*
X409137Y1521599D01*
X400000Y1522802D01*
D02*
G37*
G36*
X2400000Y1422802D02*
X2390863Y1421599D01*
X2382349Y1418072D01*
X2375038Y1412462D01*
X2369428Y1405151D01*
X2365901Y1396637D01*
X2364698Y1387500D01*
X2365901Y1378363D01*
X2369428Y1369849D01*
X2375038Y1362538D01*
X2382349Y1356928D01*
X2390863Y1353401D01*
X2400000Y1352198D01*
X2409137Y1353401D01*
X2417651Y1356928D01*
X2424962Y1362538D01*
X2430572Y1369849D01*
X2434099Y1378363D01*
X2435302Y1387500D01*
X2434099Y1396637D01*
X2430572Y1405151D01*
X2424962Y1412462D01*
X2417651Y1418072D01*
X2409137Y1421599D01*
X2400000Y1422802D01*
D02*
G37*
G36*
X2300000D02*
X2290863Y1421599D01*
X2282349Y1418072D01*
X2275038Y1412462D01*
X2269428Y1405151D01*
X2265901Y1396637D01*
X2264698Y1387500D01*
X2265901Y1378363D01*
X2269428Y1369849D01*
X2275038Y1362538D01*
X2282349Y1356928D01*
X2290863Y1353401D01*
X2300000Y1352198D01*
X2309137Y1353401D01*
X2317651Y1356928D01*
X2324962Y1362538D01*
X2330572Y1369849D01*
X2334099Y1378363D01*
X2335302Y1387500D01*
X2334099Y1396637D01*
X2330572Y1405151D01*
X2324962Y1412462D01*
X2317651Y1418072D01*
X2309137Y1421599D01*
X2300000Y1422802D01*
D02*
G37*
G36*
X500000Y1522802D02*
X490863Y1521599D01*
X482349Y1518072D01*
X475038Y1512462D01*
X469428Y1505151D01*
X465901Y1496637D01*
X464698Y1487500D01*
X465901Y1478363D01*
X469428Y1469849D01*
X475038Y1462538D01*
X482349Y1456928D01*
X490863Y1453401D01*
X500000Y1452198D01*
X509137Y1453401D01*
X517651Y1456928D01*
X524962Y1462538D01*
X530572Y1469849D01*
X534099Y1478363D01*
X535302Y1487500D01*
X534099Y1496637D01*
X530572Y1505151D01*
X524962Y1512462D01*
X517651Y1518072D01*
X509137Y1521599D01*
X500000Y1522802D01*
D02*
G37*
G36*
X400000Y1622802D02*
X390863Y1621599D01*
X382349Y1618072D01*
X375038Y1612462D01*
X369428Y1605151D01*
X365901Y1596637D01*
X364698Y1587500D01*
X365901Y1578363D01*
X369428Y1569849D01*
X375038Y1562538D01*
X382349Y1556928D01*
X390863Y1553401D01*
X400000Y1552198D01*
X409137Y1553401D01*
X417651Y1556928D01*
X424962Y1562538D01*
X430572Y1569849D01*
X434099Y1578363D01*
X435302Y1587500D01*
X434099Y1596637D01*
X430572Y1605151D01*
X424962Y1612462D01*
X417651Y1618072D01*
X409137Y1621599D01*
X400000Y1622802D01*
D02*
G37*
G36*
X2400000Y1522802D02*
X2390863Y1521599D01*
X2382349Y1518072D01*
X2375038Y1512462D01*
X2369428Y1505151D01*
X2365901Y1496637D01*
X2364698Y1487500D01*
X2365901Y1478363D01*
X2369428Y1469849D01*
X2375038Y1462538D01*
X2382349Y1456928D01*
X2390863Y1453401D01*
X2400000Y1452198D01*
X2409137Y1453401D01*
X2417651Y1456928D01*
X2424962Y1462538D01*
X2430572Y1469849D01*
X2434099Y1478363D01*
X2435302Y1487500D01*
X2434099Y1496637D01*
X2430572Y1505151D01*
X2424962Y1512462D01*
X2417651Y1518072D01*
X2409137Y1521599D01*
X2400000Y1522802D01*
D02*
G37*
G36*
X2300000D02*
X2290863Y1521599D01*
X2282349Y1518072D01*
X2275038Y1512462D01*
X2269428Y1505151D01*
X2265901Y1496637D01*
X2264698Y1487500D01*
X2265901Y1478363D01*
X2269428Y1469849D01*
X2275038Y1462538D01*
X2282349Y1456928D01*
X2290863Y1453401D01*
X2300000Y1452198D01*
X2309137Y1453401D01*
X2317651Y1456928D01*
X2324962Y1462538D01*
X2330572Y1469849D01*
X2334099Y1478363D01*
X2335302Y1487500D01*
X2334099Y1496637D01*
X2330572Y1505151D01*
X2324962Y1512462D01*
X2317651Y1518072D01*
X2309137Y1521599D01*
X2300000Y1522802D01*
D02*
G37*
G36*
X2400000Y922802D02*
X2390863Y921599D01*
X2382349Y918072D01*
X2375038Y912462D01*
X2369428Y905151D01*
X2365901Y896637D01*
X2364698Y887500D01*
X2365901Y878363D01*
X2369428Y869849D01*
X2375038Y862538D01*
X2382349Y856928D01*
X2390863Y853401D01*
X2400000Y852198D01*
X2409137Y853401D01*
X2417651Y856928D01*
X2424962Y862538D01*
X2430572Y869849D01*
X2434099Y878363D01*
X2435302Y887500D01*
X2434099Y896637D01*
X2430572Y905151D01*
X2424962Y912462D01*
X2417651Y918072D01*
X2409137Y921599D01*
X2400000Y922802D01*
D02*
G37*
G36*
X2395000Y627187D02*
X2389558Y626471D01*
X2379827Y622440D01*
X2371472Y616028D01*
X2365060Y607673D01*
X2361030Y597942D01*
X2360313Y592500D01*
X2395000D01*
Y627187D01*
D02*
G37*
G36*
X2295000D02*
X2289558Y626471D01*
X2279827Y622440D01*
X2271472Y616028D01*
X2265060Y607673D01*
X2261030Y597942D01*
X2260313Y592500D01*
X2295000D01*
Y627187D01*
D02*
G37*
G36*
X500000Y622802D02*
X490863Y621599D01*
X482349Y618072D01*
X475038Y612462D01*
X469428Y605151D01*
X465901Y596637D01*
X464698Y587500D01*
X465901Y578363D01*
X469428Y569849D01*
X475038Y562538D01*
X482349Y556928D01*
X490863Y553401D01*
X500000Y552198D01*
X509137Y553401D01*
X517651Y556928D01*
X524962Y562538D01*
X530572Y569849D01*
X534099Y578363D01*
X535302Y587500D01*
X534099Y596637D01*
X530572Y605151D01*
X524962Y612462D01*
X517651Y618072D01*
X509137Y621599D01*
X500000Y622802D01*
D02*
G37*
G36*
X2305000Y627187D02*
Y592500D01*
X2339687D01*
X2338970Y597942D01*
X2334940Y607673D01*
X2328528Y616028D01*
X2320173Y622440D01*
X2310442Y626471D01*
X2305000Y627187D01*
D02*
G37*
G36*
X2395000Y682500D02*
X2360313D01*
X2361030Y677058D01*
X2365060Y667327D01*
X2371472Y658972D01*
X2379827Y652560D01*
X2389558Y648529D01*
X2395000Y647813D01*
Y682500D01*
D02*
G37*
G36*
X2295000D02*
X2260313D01*
X2261030Y677058D01*
X2265060Y667327D01*
X2271472Y658972D01*
X2279827Y652560D01*
X2289558Y648529D01*
X2295000Y647813D01*
Y682500D01*
D02*
G37*
G36*
X2405000Y627187D02*
Y592500D01*
X2439687D01*
X2438970Y597942D01*
X2434940Y607673D01*
X2428528Y616028D01*
X2420173Y622440D01*
X2410442Y626471D01*
X2405000Y627187D01*
D02*
G37*
G36*
X2295000Y582500D02*
X2260313D01*
X2261030Y577058D01*
X2265060Y567327D01*
X2271472Y558972D01*
X2279827Y552560D01*
X2289558Y548529D01*
X2295000Y547813D01*
Y582500D01*
D02*
G37*
G36*
X2225000Y496645D02*
X2208584Y495029D01*
X2192799Y490240D01*
X2178251Y482464D01*
X2165500Y472000D01*
X2155036Y459249D01*
X2147260Y444701D01*
X2142472Y428916D01*
X2140855Y412500D01*
X2142472Y396084D01*
X2147260Y380299D01*
X2155036Y365751D01*
X2165500Y353000D01*
X2178251Y342536D01*
X2192799Y334760D01*
X2208584Y329971D01*
X2225000Y328355D01*
X2241416Y329971D01*
X2257201Y334760D01*
X2271749Y342536D01*
X2284500Y353000D01*
X2294964Y365751D01*
X2302740Y380299D01*
X2307528Y396084D01*
X2309145Y412500D01*
X2307528Y428916D01*
X2302740Y444701D01*
X2294964Y459249D01*
X2284500Y472000D01*
X2271749Y482464D01*
X2257201Y490240D01*
X2241416Y495029D01*
X2225000Y496645D01*
D02*
G37*
G36*
X575000D02*
X558584Y495029D01*
X542799Y490240D01*
X528251Y482464D01*
X515500Y472000D01*
X505036Y459249D01*
X497260Y444701D01*
X492471Y428916D01*
X490855Y412500D01*
X492471Y396084D01*
X497260Y380299D01*
X505036Y365751D01*
X515500Y353000D01*
X528251Y342536D01*
X542799Y334760D01*
X558584Y329971D01*
X575000Y328355D01*
X591416Y329971D01*
X607201Y334760D01*
X621749Y342536D01*
X634500Y353000D01*
X644964Y365751D01*
X652740Y380299D01*
X657529Y396084D01*
X659145Y412500D01*
X657529Y428916D01*
X652740Y444701D01*
X644964Y459249D01*
X634500Y472000D01*
X621749Y482464D01*
X607201Y490240D01*
X591416Y495029D01*
X575000Y496645D01*
D02*
G37*
G36*
X2395000Y582500D02*
X2360313D01*
X2361030Y577058D01*
X2365060Y567327D01*
X2371472Y558972D01*
X2379827Y552560D01*
X2389558Y548529D01*
X2395000Y547813D01*
Y582500D01*
D02*
G37*
G36*
X400000Y622802D02*
X390863Y621599D01*
X382349Y618072D01*
X375038Y612462D01*
X369428Y605151D01*
X365901Y596637D01*
X364698Y587500D01*
X365901Y578363D01*
X369428Y569849D01*
X375038Y562538D01*
X382349Y556928D01*
X390863Y553401D01*
X400000Y552198D01*
X409137Y553401D01*
X417651Y556928D01*
X424962Y562538D01*
X430572Y569849D01*
X434099Y578363D01*
X435302Y587500D01*
X434099Y596637D01*
X430572Y605151D01*
X424962Y612462D01*
X417651Y618072D01*
X409137Y621599D01*
X400000Y622802D01*
D02*
G37*
G36*
X2439687Y582500D02*
X2405000D01*
Y547813D01*
X2410442Y548529D01*
X2420173Y552560D01*
X2428528Y558972D01*
X2434940Y567327D01*
X2438970Y577058D01*
X2439687Y582500D01*
D02*
G37*
G36*
X2339687D02*
X2305000D01*
Y547813D01*
X2310442Y548529D01*
X2320173Y552560D01*
X2328528Y558972D01*
X2334940Y567327D01*
X2338970Y577058D01*
X2339687Y582500D01*
D02*
G37*
G36*
Y682500D02*
X2305000D01*
Y647813D01*
X2310442Y648529D01*
X2320173Y652560D01*
X2328528Y658972D01*
X2334940Y667327D01*
X2338970Y677058D01*
X2339687Y682500D01*
D02*
G37*
G36*
X2300000Y822802D02*
X2290863Y821599D01*
X2282349Y818072D01*
X2275038Y812462D01*
X2269428Y805151D01*
X2265901Y796637D01*
X2264698Y787500D01*
X2265901Y778363D01*
X2269428Y769849D01*
X2275038Y762538D01*
X2282349Y756928D01*
X2290863Y753401D01*
X2300000Y752198D01*
X2309137Y753401D01*
X2317651Y756928D01*
X2324962Y762538D01*
X2330572Y769849D01*
X2334099Y778363D01*
X2335302Y787500D01*
X2334099Y796637D01*
X2330572Y805151D01*
X2324962Y812462D01*
X2317651Y818072D01*
X2309137Y821599D01*
X2300000Y822802D01*
D02*
G37*
G36*
X500000D02*
X490863Y821599D01*
X482349Y818072D01*
X475038Y812462D01*
X469428Y805151D01*
X465901Y796637D01*
X464698Y787500D01*
X465901Y778363D01*
X469428Y769849D01*
X475038Y762538D01*
X482349Y756928D01*
X490863Y753401D01*
X500000Y752198D01*
X509137Y753401D01*
X517651Y756928D01*
X524962Y762538D01*
X530572Y769849D01*
X534099Y778363D01*
X535302Y787500D01*
X534099Y796637D01*
X530572Y805151D01*
X524962Y812462D01*
X517651Y818072D01*
X509137Y821599D01*
X500000Y822802D01*
D02*
G37*
G36*
X400000D02*
X390863Y821599D01*
X382349Y818072D01*
X375038Y812462D01*
X369428Y805151D01*
X365901Y796637D01*
X364698Y787500D01*
X365901Y778363D01*
X369428Y769849D01*
X375038Y762538D01*
X382349Y756928D01*
X390863Y753401D01*
X400000Y752198D01*
X409137Y753401D01*
X417651Y756928D01*
X424962Y762538D01*
X430572Y769849D01*
X434099Y778363D01*
X435302Y787500D01*
X434099Y796637D01*
X430572Y805151D01*
X424962Y812462D01*
X417651Y818072D01*
X409137Y821599D01*
X400000Y822802D01*
D02*
G37*
G36*
X2400000D02*
X2390863Y821599D01*
X2382349Y818072D01*
X2375038Y812462D01*
X2369428Y805151D01*
X2365901Y796637D01*
X2364698Y787500D01*
X2365901Y778363D01*
X2369428Y769849D01*
X2375038Y762538D01*
X2382349Y756928D01*
X2390863Y753401D01*
X2400000Y752198D01*
X2409137Y753401D01*
X2417651Y756928D01*
X2424962Y762538D01*
X2430572Y769849D01*
X2434099Y778363D01*
X2435302Y787500D01*
X2434099Y796637D01*
X2430572Y805151D01*
X2424962Y812462D01*
X2417651Y818072D01*
X2409137Y821599D01*
X2400000Y822802D01*
D02*
G37*
G36*
X2300000Y922802D02*
X2290863Y921599D01*
X2282349Y918072D01*
X2275038Y912462D01*
X2269428Y905151D01*
X2265901Y896637D01*
X2264698Y887500D01*
X2265901Y878363D01*
X2269428Y869849D01*
X2275038Y862538D01*
X2282349Y856928D01*
X2290863Y853401D01*
X2300000Y852198D01*
X2309137Y853401D01*
X2317651Y856928D01*
X2324962Y862538D01*
X2330572Y869849D01*
X2334099Y878363D01*
X2335302Y887500D01*
X2334099Y896637D01*
X2330572Y905151D01*
X2324962Y912462D01*
X2317651Y918072D01*
X2309137Y921599D01*
X2300000Y922802D01*
D02*
G37*
G36*
X500000D02*
X490863Y921599D01*
X482349Y918072D01*
X475038Y912462D01*
X469428Y905151D01*
X465901Y896637D01*
X464698Y887500D01*
X465901Y878363D01*
X469428Y869849D01*
X475038Y862538D01*
X482349Y856928D01*
X490863Y853401D01*
X500000Y852198D01*
X509137Y853401D01*
X517651Y856928D01*
X524962Y862538D01*
X530572Y869849D01*
X534099Y878363D01*
X535302Y887500D01*
X534099Y896637D01*
X530572Y905151D01*
X524962Y912462D01*
X517651Y918072D01*
X509137Y921599D01*
X500000Y922802D01*
D02*
G37*
G36*
X400000D02*
X390863Y921599D01*
X382349Y918072D01*
X375038Y912462D01*
X369428Y905151D01*
X365901Y896637D01*
X364698Y887500D01*
X365901Y878363D01*
X369428Y869849D01*
X375038Y862538D01*
X382349Y856928D01*
X390863Y853401D01*
X400000Y852198D01*
X409137Y853401D01*
X417651Y856928D01*
X424962Y862538D01*
X430572Y869849D01*
X434099Y878363D01*
X435302Y887500D01*
X434099Y896637D01*
X430572Y905151D01*
X424962Y912462D01*
X417651Y918072D01*
X409137Y921599D01*
X400000Y922802D01*
D02*
G37*
G36*
X500000Y722802D02*
X490863Y721599D01*
X482349Y718072D01*
X475038Y712462D01*
X469428Y705151D01*
X465901Y696637D01*
X464698Y687500D01*
X465901Y678363D01*
X469428Y669849D01*
X475038Y662538D01*
X482349Y656928D01*
X490863Y653401D01*
X500000Y652198D01*
X509137Y653401D01*
X517651Y656928D01*
X524962Y662538D01*
X530572Y669849D01*
X534099Y678363D01*
X535302Y687500D01*
X534099Y696637D01*
X530572Y705151D01*
X524962Y712462D01*
X517651Y718072D01*
X509137Y721599D01*
X500000Y722802D01*
D02*
G37*
G36*
X400000D02*
X390863Y721599D01*
X382349Y718072D01*
X375038Y712462D01*
X369428Y705151D01*
X365901Y696637D01*
X364698Y687500D01*
X365901Y678363D01*
X369428Y669849D01*
X375038Y662538D01*
X382349Y656928D01*
X390863Y653401D01*
X400000Y652198D01*
X409137Y653401D01*
X417651Y656928D01*
X424962Y662538D01*
X430572Y669849D01*
X434099Y678363D01*
X435302Y687500D01*
X434099Y696637D01*
X430572Y705151D01*
X424962Y712462D01*
X417651Y718072D01*
X409137Y721599D01*
X400000Y722802D01*
D02*
G37*
G36*
X2439687Y682500D02*
X2405000D01*
Y647813D01*
X2410442Y648529D01*
X2420173Y652560D01*
X2428528Y658972D01*
X2434940Y667327D01*
X2438970Y677058D01*
X2439687Y682500D01*
D02*
G37*
G36*
X2295000Y727187D02*
X2289558Y726471D01*
X2279827Y722440D01*
X2271472Y716028D01*
X2265060Y707673D01*
X2261030Y697942D01*
X2260313Y692500D01*
X2295000D01*
Y727187D01*
D02*
G37*
G36*
X2405000D02*
Y692500D01*
X2439687D01*
X2438970Y697942D01*
X2434940Y707673D01*
X2428528Y716028D01*
X2420173Y722440D01*
X2410442Y726471D01*
X2405000Y727187D01*
D02*
G37*
G36*
X2305000D02*
Y692500D01*
X2339687D01*
X2338970Y697942D01*
X2334940Y707673D01*
X2328528Y716028D01*
X2320173Y722440D01*
X2310442Y726471D01*
X2305000Y727187D01*
D02*
G37*
G36*
X2395000D02*
X2389558Y726471D01*
X2379827Y722440D01*
X2371472Y716028D01*
X2365060Y707673D01*
X2361030Y697942D01*
X2360313Y692500D01*
X2395000D01*
Y727187D01*
D02*
G37*
G36*
X2400000Y2522802D02*
X2390863Y2521599D01*
X2382349Y2518072D01*
X2375038Y2512462D01*
X2369428Y2505151D01*
X2365901Y2496637D01*
X2364698Y2487500D01*
X2365901Y2478363D01*
X2369428Y2469849D01*
X2375038Y2462538D01*
X2382349Y2456928D01*
X2390863Y2453401D01*
X2400000Y2452198D01*
X2409137Y2453401D01*
X2417651Y2456928D01*
X2424962Y2462538D01*
X2430572Y2469849D01*
X2434099Y2478363D01*
X2435302Y2487500D01*
X2434099Y2496637D01*
X2430572Y2505151D01*
X2424962Y2512462D01*
X2417651Y2518072D01*
X2409137Y2521599D01*
X2400000Y2522802D01*
D02*
G37*
G36*
X2300000D02*
X2290863Y2521599D01*
X2282349Y2518072D01*
X2275038Y2512462D01*
X2269428Y2505151D01*
X2265901Y2496637D01*
X2264698Y2487500D01*
X2265901Y2478363D01*
X2269428Y2469849D01*
X2275038Y2462538D01*
X2282349Y2456928D01*
X2290863Y2453401D01*
X2300000Y2452198D01*
X2309137Y2453401D01*
X2317651Y2456928D01*
X2324962Y2462538D01*
X2330572Y2469849D01*
X2334099Y2478363D01*
X2335302Y2487500D01*
X2334099Y2496637D01*
X2330572Y2505151D01*
X2324962Y2512462D01*
X2317651Y2518072D01*
X2309137Y2521599D01*
X2300000Y2522802D01*
D02*
G37*
G36*
X500000D02*
X490863Y2521599D01*
X482349Y2518072D01*
X475038Y2512462D01*
X469428Y2505151D01*
X465901Y2496637D01*
X464698Y2487500D01*
X465901Y2478363D01*
X469428Y2469849D01*
X475038Y2462538D01*
X482349Y2456928D01*
X490863Y2453401D01*
X500000Y2452198D01*
X509137Y2453401D01*
X517651Y2456928D01*
X524962Y2462538D01*
X530572Y2469849D01*
X534099Y2478363D01*
X535302Y2487500D01*
X534099Y2496637D01*
X530572Y2505151D01*
X524962Y2512462D01*
X517651Y2518072D01*
X509137Y2521599D01*
X500000Y2522802D01*
D02*
G37*
G36*
X395000Y2782500D02*
X360313D01*
X361029Y2777058D01*
X365060Y2767327D01*
X371472Y2758972D01*
X379827Y2752560D01*
X389558Y2748530D01*
X395000Y2747813D01*
Y2782500D01*
D02*
G37*
G36*
X500000Y2622802D02*
X490863Y2621599D01*
X482349Y2618072D01*
X475038Y2612462D01*
X469428Y2605151D01*
X465901Y2596637D01*
X464698Y2587500D01*
X465901Y2578363D01*
X469428Y2569849D01*
X475038Y2562538D01*
X482349Y2556928D01*
X490863Y2553401D01*
X500000Y2552198D01*
X509137Y2553401D01*
X517651Y2556928D01*
X524962Y2562538D01*
X530572Y2569849D01*
X534099Y2578363D01*
X535302Y2587500D01*
X534099Y2596637D01*
X530572Y2605151D01*
X524962Y2612462D01*
X517651Y2618072D01*
X509137Y2621599D01*
X500000Y2622802D01*
D02*
G37*
G36*
X400000D02*
X390863Y2621599D01*
X382349Y2618072D01*
X375038Y2612462D01*
X369428Y2605151D01*
X365901Y2596637D01*
X364698Y2587500D01*
X365901Y2578363D01*
X369428Y2569849D01*
X375038Y2562538D01*
X382349Y2556928D01*
X390863Y2553401D01*
X400000Y2552198D01*
X409137Y2553401D01*
X417651Y2556928D01*
X424962Y2562538D01*
X430572Y2569849D01*
X434099Y2578363D01*
X435302Y2587500D01*
X434099Y2596637D01*
X430572Y2605151D01*
X424962Y2612462D01*
X417651Y2618072D01*
X409137Y2621599D01*
X400000Y2622802D01*
D02*
G37*
G36*
X500000Y2422802D02*
X490863Y2421599D01*
X482349Y2418072D01*
X475038Y2412462D01*
X469428Y2405151D01*
X465901Y2396637D01*
X464698Y2387500D01*
X465901Y2378363D01*
X469428Y2369849D01*
X475038Y2362538D01*
X482349Y2356928D01*
X490863Y2353401D01*
X500000Y2352198D01*
X509137Y2353401D01*
X517651Y2356928D01*
X524962Y2362538D01*
X530572Y2369849D01*
X534099Y2378363D01*
X535302Y2387500D01*
X534099Y2396637D01*
X530572Y2405151D01*
X524962Y2412462D01*
X517651Y2418072D01*
X509137Y2421599D01*
X500000Y2422802D01*
D02*
G37*
G36*
X400000D02*
X390863Y2421599D01*
X382349Y2418072D01*
X375038Y2412462D01*
X369428Y2405151D01*
X365901Y2396637D01*
X364698Y2387500D01*
X365901Y2378363D01*
X369428Y2369849D01*
X375038Y2362538D01*
X382349Y2356928D01*
X390863Y2353401D01*
X400000Y2352198D01*
X409137Y2353401D01*
X417651Y2356928D01*
X424962Y2362538D01*
X430572Y2369849D01*
X434099Y2378363D01*
X435302Y2387500D01*
X434099Y2396637D01*
X430572Y2405151D01*
X424962Y2412462D01*
X417651Y2418072D01*
X409137Y2421599D01*
X400000Y2422802D01*
D02*
G37*
G36*
X2400000Y2322802D02*
X2390863Y2321599D01*
X2382349Y2318072D01*
X2375038Y2312462D01*
X2369428Y2305151D01*
X2365901Y2296637D01*
X2364698Y2287500D01*
X2365901Y2278363D01*
X2369428Y2269849D01*
X2375038Y2262538D01*
X2382349Y2256928D01*
X2390863Y2253401D01*
X2400000Y2252198D01*
X2409137Y2253401D01*
X2417651Y2256928D01*
X2424962Y2262538D01*
X2430572Y2269849D01*
X2434099Y2278363D01*
X2435302Y2287500D01*
X2434099Y2296637D01*
X2430572Y2305151D01*
X2424962Y2312462D01*
X2417651Y2318072D01*
X2409137Y2321599D01*
X2400000Y2322802D01*
D02*
G37*
G36*
X400000Y2522802D02*
X390863Y2521599D01*
X382349Y2518072D01*
X375038Y2512462D01*
X369428Y2505151D01*
X365901Y2496637D01*
X364698Y2487500D01*
X365901Y2478363D01*
X369428Y2469849D01*
X375038Y2462538D01*
X382349Y2456928D01*
X390863Y2453401D01*
X400000Y2452198D01*
X409137Y2453401D01*
X417651Y2456928D01*
X424962Y2462538D01*
X430572Y2469849D01*
X434099Y2478363D01*
X435302Y2487500D01*
X434099Y2496637D01*
X430572Y2505151D01*
X424962Y2512462D01*
X417651Y2518072D01*
X409137Y2521599D01*
X400000Y2522802D01*
D02*
G37*
G36*
X2400000Y2422802D02*
X2390863Y2421599D01*
X2382349Y2418072D01*
X2375038Y2412462D01*
X2369428Y2405151D01*
X2365901Y2396637D01*
X2364698Y2387500D01*
X2365901Y2378363D01*
X2369428Y2369849D01*
X2375038Y2362538D01*
X2382349Y2356928D01*
X2390863Y2353401D01*
X2400000Y2352198D01*
X2409137Y2353401D01*
X2417651Y2356928D01*
X2424962Y2362538D01*
X2430572Y2369849D01*
X2434099Y2378363D01*
X2435302Y2387500D01*
X2434099Y2396637D01*
X2430572Y2405151D01*
X2424962Y2412462D01*
X2417651Y2418072D01*
X2409137Y2421599D01*
X2400000Y2422802D01*
D02*
G37*
G36*
X2300000D02*
X2290863Y2421599D01*
X2282349Y2418072D01*
X2275038Y2412462D01*
X2269428Y2405151D01*
X2265901Y2396637D01*
X2264698Y2387500D01*
X2265901Y2378363D01*
X2269428Y2369849D01*
X2275038Y2362538D01*
X2282349Y2356928D01*
X2290863Y2353401D01*
X2300000Y2352198D01*
X2309137Y2353401D01*
X2317651Y2356928D01*
X2324962Y2362538D01*
X2330572Y2369849D01*
X2334099Y2378363D01*
X2335302Y2387500D01*
X2334099Y2396637D01*
X2330572Y2405151D01*
X2324962Y2412462D01*
X2317651Y2418072D01*
X2309137Y2421599D01*
X2300000Y2422802D01*
D02*
G37*
G36*
X450000Y3071645D02*
X433584Y3070028D01*
X417799Y3065240D01*
X403251Y3057464D01*
X390500Y3047000D01*
X380036Y3034249D01*
X372260Y3019701D01*
X367471Y3003916D01*
X365855Y2987500D01*
X367471Y2971084D01*
X372260Y2955299D01*
X380036Y2940751D01*
X390500Y2928000D01*
X403251Y2917536D01*
X417799Y2909760D01*
X433584Y2904972D01*
X450000Y2903355D01*
X466416Y2904972D01*
X482201Y2909760D01*
X496749Y2917536D01*
X509500Y2928000D01*
X519964Y2940751D01*
X527740Y2955299D01*
X532529Y2971084D01*
X534145Y2987500D01*
X532529Y3003916D01*
X527740Y3019701D01*
X519964Y3034249D01*
X509500Y3047000D01*
X496749Y3057464D01*
X482201Y3065240D01*
X466416Y3070028D01*
X450000Y3071645D01*
D02*
G37*
G36*
X2405000Y2827187D02*
Y2792500D01*
X2439687D01*
X2438970Y2797942D01*
X2434940Y2807673D01*
X2428528Y2816028D01*
X2420173Y2822440D01*
X2410442Y2826470D01*
X2405000Y2827187D01*
D02*
G37*
G36*
X405000D02*
Y2792500D01*
X439687D01*
X438971Y2797942D01*
X434940Y2807673D01*
X428528Y2816028D01*
X420173Y2822440D01*
X410442Y2826470D01*
X405000Y2827187D01*
D02*
G37*
G36*
X1500000Y4260629D02*
X740936D01*
X737034Y4259853D01*
X733726Y4257643D01*
X527790Y4051707D01*
X525580Y4048399D01*
X524804Y4044497D01*
Y4035000D01*
X465000D01*
Y4011348D01*
X460000Y4008686D01*
X458902Y4009420D01*
X455000Y4010196D01*
X435000D01*
Y4035000D01*
X365000D01*
Y3965000D01*
X435000D01*
Y3989804D01*
X444804D01*
Y3963787D01*
X445580Y3959885D01*
X447790Y3956577D01*
X456577Y3947790D01*
X459885Y3945580D01*
X463787Y3944804D01*
X536213D01*
X540115Y3945580D01*
X543423Y3947790D01*
X560185Y3964553D01*
X565000Y3965000D01*
X565000Y3965000D01*
X565000Y3965000D01*
X635000D01*
Y3989804D01*
X655000D01*
X660000Y3985758D01*
Y3960000D01*
X689804D01*
Y2991723D01*
X520370Y2822289D01*
X520173Y2822440D01*
X510442Y2826470D01*
X505000Y2827187D01*
Y2787500D01*
X500000D01*
Y2782500D01*
X460313D01*
X461029Y2777058D01*
X465060Y2767327D01*
X471472Y2758972D01*
X479827Y2752560D01*
X485535Y2750196D01*
X484540Y2745196D01*
X447500D01*
X443598Y2744420D01*
X440290Y2742210D01*
X416592Y2718511D01*
X409137Y2721599D01*
X400000Y2722802D01*
X390863Y2721599D01*
X382349Y2718072D01*
X375038Y2712462D01*
X369428Y2705151D01*
X365901Y2696637D01*
X364698Y2687500D01*
X365901Y2678363D01*
X369428Y2669849D01*
X375038Y2662538D01*
X382349Y2656928D01*
X390863Y2653401D01*
X400000Y2652198D01*
X409137Y2653401D01*
X417651Y2656928D01*
X424962Y2662538D01*
X430572Y2669849D01*
X434099Y2678363D01*
X435302Y2687500D01*
X434099Y2696637D01*
X431011Y2704092D01*
X451723Y2724804D01*
X485535D01*
X486530Y2719804D01*
X482349Y2718072D01*
X475038Y2712462D01*
X469428Y2705151D01*
X465901Y2696637D01*
X464698Y2687500D01*
X465901Y2678363D01*
X469428Y2669849D01*
X475038Y2662538D01*
X482349Y2656928D01*
X490863Y2653401D01*
X500000Y2652198D01*
X509137Y2653401D01*
X517651Y2656928D01*
X524962Y2662538D01*
X530572Y2669849D01*
X534099Y2678363D01*
X535302Y2687500D01*
X534099Y2696637D01*
X530572Y2705151D01*
X524962Y2712462D01*
X517651Y2718072D01*
X509947Y2721264D01*
X509326Y2724276D01*
X509490Y2726596D01*
X511278Y2727790D01*
X1707210Y3923722D01*
X1709420Y3927030D01*
X1710196Y3930932D01*
Y4060560D01*
X1710555Y4060608D01*
X1720391Y4064682D01*
X1728837Y4071163D01*
X1735318Y4079609D01*
X1739392Y4089445D01*
X1744371Y4088955D01*
Y2589722D01*
X539763Y1385114D01*
X536749Y1386601D01*
X535276Y1387698D01*
X534099Y1396637D01*
X530572Y1405151D01*
X524962Y1412462D01*
X517651Y1418072D01*
X509137Y1421599D01*
X500000Y1422802D01*
X490863Y1421599D01*
X482349Y1418072D01*
X475038Y1412462D01*
X469428Y1405151D01*
X465901Y1396637D01*
X464698Y1387500D01*
X465901Y1378363D01*
X469428Y1369849D01*
X474916Y1362696D01*
X474651Y1360879D01*
X473570Y1357696D01*
X460000D01*
X456098Y1356920D01*
X452790Y1354710D01*
X416592Y1318511D01*
X409137Y1321599D01*
X400000Y1322802D01*
X390863Y1321599D01*
X382349Y1318072D01*
X375038Y1312462D01*
X369428Y1305151D01*
X365901Y1296637D01*
X364698Y1287500D01*
X365901Y1278363D01*
X369428Y1269849D01*
X375038Y1262538D01*
X382349Y1256928D01*
X390863Y1253401D01*
X400000Y1252198D01*
X409137Y1253401D01*
X417651Y1256928D01*
X424962Y1262538D01*
X430572Y1269849D01*
X434099Y1278363D01*
X435302Y1287500D01*
X434099Y1296637D01*
X431011Y1304092D01*
X464223Y1337304D01*
X516568D01*
X520470Y1338080D01*
X523778Y1340290D01*
X1761776Y2578289D01*
X1763987Y2581597D01*
X1764763Y2585498D01*
Y4071726D01*
X1769497Y4073333D01*
X1771163Y4071163D01*
X1779609Y4064682D01*
X1789445Y4060608D01*
X1789804Y4060560D01*
Y2404223D01*
X583277Y1197696D01*
X533660D01*
X530572Y1205151D01*
X524962Y1212462D01*
X517651Y1218072D01*
X509137Y1221599D01*
X500000Y1222802D01*
X490863Y1221599D01*
X482349Y1218072D01*
X475038Y1212462D01*
X469428Y1205151D01*
X465901Y1196637D01*
X464698Y1187500D01*
X465901Y1178363D01*
X469428Y1169849D01*
X475038Y1162538D01*
X482349Y1156928D01*
X490863Y1153401D01*
X500000Y1152198D01*
X509137Y1153401D01*
X517651Y1156928D01*
X524962Y1162538D01*
X530572Y1169849D01*
X533660Y1177304D01*
X587500D01*
X591402Y1178080D01*
X594710Y1180290D01*
X1807210Y2392790D01*
X1809420Y2396098D01*
X1810196Y2400000D01*
Y4060560D01*
X1810555Y4060608D01*
X1820391Y4064682D01*
X1828837Y4071163D01*
X1835318Y4079609D01*
X1839392Y4089445D01*
X1840782Y4100000D01*
X1839392Y4110555D01*
X1835318Y4120391D01*
X1828837Y4128837D01*
X1820391Y4135318D01*
X1810555Y4139392D01*
X1800000Y4140782D01*
X1789445Y4139392D01*
X1779609Y4135318D01*
X1771163Y4128837D01*
X1769497Y4126667D01*
X1764763Y4128274D01*
Y4150344D01*
X1779322Y4164902D01*
X1779609Y4164682D01*
X1789445Y4160608D01*
X1800000Y4159218D01*
X1810555Y4160608D01*
X1820391Y4164682D01*
X1828837Y4171163D01*
X1835318Y4179609D01*
X1839392Y4189445D01*
X1840782Y4200000D01*
X1839392Y4210555D01*
X1835318Y4220391D01*
X1828837Y4228837D01*
X1826667Y4230502D01*
X1828274Y4235237D01*
X1871726D01*
X1873333Y4230502D01*
X1871163Y4228837D01*
X1864682Y4220391D01*
X1860608Y4210555D01*
X1859218Y4200000D01*
X1860608Y4189445D01*
X1864682Y4179609D01*
X1871163Y4171163D01*
X1879609Y4164682D01*
X1889445Y4160608D01*
X1900000Y4159218D01*
X1910555Y4160608D01*
X1920391Y4164682D01*
X1928837Y4171163D01*
X1935318Y4179609D01*
X1939392Y4189445D01*
X1940782Y4200000D01*
X1939392Y4210555D01*
X1935318Y4220391D01*
X1928837Y4228837D01*
X1926667Y4230502D01*
X1928274Y4235237D01*
X1971726D01*
X1973333Y4230502D01*
X1971163Y4228837D01*
X1964682Y4220391D01*
X1960608Y4210555D01*
X1959218Y4200000D01*
X1960608Y4189445D01*
X1964682Y4179609D01*
X1971163Y4171163D01*
X1979609Y4164682D01*
X1989445Y4160608D01*
X2000000Y4159218D01*
X2010555Y4160608D01*
X2020391Y4164682D01*
X2028837Y4171163D01*
X2035318Y4179609D01*
X2039392Y4189445D01*
X2040782Y4200000D01*
X2039392Y4210555D01*
X2035318Y4220391D01*
X2028837Y4228837D01*
X2026667Y4230502D01*
X2028274Y4235237D01*
X2071726D01*
X2073333Y4230502D01*
X2071163Y4228837D01*
X2064682Y4220391D01*
X2060608Y4210555D01*
X2059218Y4200000D01*
X2060608Y4189445D01*
X2064682Y4179609D01*
X2071163Y4171163D01*
X2079609Y4164682D01*
X2089445Y4160608D01*
X2100000Y4159218D01*
X2110555Y4160608D01*
X2120391Y4164682D01*
X2128837Y4171163D01*
X2135318Y4179609D01*
X2139392Y4189445D01*
X2140782Y4200000D01*
X2139392Y4210555D01*
X2135318Y4220391D01*
X2128837Y4228837D01*
X2126667Y4230502D01*
X2128274Y4235237D01*
X2171726D01*
X2173333Y4230502D01*
X2171163Y4228837D01*
X2164682Y4220391D01*
X2160608Y4210555D01*
X2159218Y4200000D01*
X2160608Y4189445D01*
X2164682Y4179609D01*
X2171163Y4171163D01*
X2179609Y4164682D01*
X2189445Y4160608D01*
X2200000Y4159218D01*
X2210555Y4160608D01*
X2220391Y4164682D01*
X2228837Y4171163D01*
X2235318Y4179609D01*
X2239392Y4189445D01*
X2240782Y4200000D01*
X2239392Y4210555D01*
X2235318Y4220391D01*
X2228837Y4228837D01*
X2226667Y4230502D01*
X2228274Y4235237D01*
X2271726D01*
X2273333Y4230502D01*
X2271163Y4228837D01*
X2264682Y4220391D01*
X2260608Y4210555D01*
X2259218Y4200000D01*
X2260608Y4189445D01*
X2264682Y4179609D01*
X2271163Y4171163D01*
X2279609Y4164682D01*
X2289445Y4160608D01*
X2300000Y4159218D01*
X2310555Y4160608D01*
X2320391Y4164682D01*
X2328837Y4171163D01*
X2330503Y4173333D01*
X2335237Y4171726D01*
Y4128274D01*
X2330503Y4126667D01*
X2328837Y4128837D01*
X2320391Y4135318D01*
X2310555Y4139392D01*
X2300000Y4140782D01*
X2289445Y4139392D01*
X2279609Y4135318D01*
X2271163Y4128837D01*
X2264682Y4120391D01*
X2260608Y4110555D01*
X2259218Y4100000D01*
X2260608Y4089445D01*
X2264682Y4079609D01*
X2271163Y4071163D01*
X2279609Y4064682D01*
X2289445Y4060608D01*
X2300000Y4059218D01*
X2310423Y4060590D01*
X2310695Y4060378D01*
X2313192Y4056288D01*
X2249050Y3992146D01*
X2246840Y3988838D01*
X2246064Y3984937D01*
Y2948672D01*
X2246840Y2944770D01*
X2249050Y2941462D01*
X2339804Y2850708D01*
Y2809140D01*
X2335298Y2807802D01*
X2334804Y2807850D01*
X2328528Y2816028D01*
X2320173Y2822440D01*
X2310442Y2826470D01*
X2305000Y2827187D01*
Y2787500D01*
Y2747813D01*
X2310442Y2748530D01*
X2320173Y2752560D01*
X2328528Y2758972D01*
X2334804Y2767150D01*
X2335298Y2767198D01*
X2339804Y2765860D01*
Y2691610D01*
X2334804Y2691282D01*
X2334099Y2696637D01*
X2330572Y2705151D01*
X2324962Y2712462D01*
X2317651Y2718072D01*
X2309137Y2721599D01*
X2300000Y2722802D01*
X2290863Y2721599D01*
X2282349Y2718072D01*
X2275038Y2712462D01*
X2269428Y2705151D01*
X2265901Y2696637D01*
X2264698Y2687500D01*
X2265901Y2678363D01*
X2269428Y2669849D01*
X2275038Y2662538D01*
X2282349Y2656928D01*
X2290863Y2653401D01*
X2300000Y2652198D01*
X2309137Y2653401D01*
X2317651Y2656928D01*
X2324962Y2662538D01*
X2330572Y2669849D01*
X2334099Y2678363D01*
X2334804Y2683718D01*
X2339804Y2683390D01*
Y2641723D01*
X2316592Y2618511D01*
X2309137Y2621599D01*
X2300000Y2622802D01*
X2290863Y2621599D01*
X2282349Y2618072D01*
X2275038Y2612462D01*
X2269428Y2605151D01*
X2265901Y2596637D01*
X2264698Y2587500D01*
X2265901Y2578363D01*
X2269428Y2569849D01*
X2275038Y2562538D01*
X2282349Y2556928D01*
X2290863Y2553401D01*
X2300000Y2552198D01*
X2309137Y2553401D01*
X2317651Y2556928D01*
X2324962Y2562538D01*
X2330572Y2569849D01*
X2333660Y2577304D01*
X2366340D01*
X2369428Y2569849D01*
X2375038Y2562538D01*
X2382349Y2556928D01*
X2390863Y2553401D01*
X2400000Y2552198D01*
X2409137Y2553401D01*
X2417651Y2556928D01*
X2424962Y2562538D01*
X2430572Y2569849D01*
X2434099Y2578363D01*
X2435302Y2587500D01*
X2434099Y2596637D01*
X2430572Y2605151D01*
X2424962Y2612462D01*
X2417651Y2618072D01*
X2409137Y2621599D01*
X2400000Y2622802D01*
X2390863Y2621599D01*
X2382349Y2618072D01*
X2375038Y2612462D01*
X2369428Y2605151D01*
X2366340Y2597696D01*
X2333660D01*
X2331011Y2604092D01*
X2357210Y2630290D01*
X2359420Y2633598D01*
X2360196Y2637500D01*
Y2683390D01*
X2365196Y2683718D01*
X2365901Y2678363D01*
X2369428Y2669849D01*
X2375038Y2662538D01*
X2382349Y2656928D01*
X2390863Y2653401D01*
X2400000Y2652198D01*
X2409137Y2653401D01*
X2417651Y2656928D01*
X2424962Y2662538D01*
X2430572Y2669849D01*
X2434099Y2678363D01*
X2435302Y2687500D01*
X2434099Y2696637D01*
X2430572Y2705151D01*
X2424962Y2712462D01*
X2417651Y2718072D01*
X2409137Y2721599D01*
X2400000Y2722802D01*
X2390863Y2721599D01*
X2382349Y2718072D01*
X2375038Y2712462D01*
X2369428Y2705151D01*
X2365901Y2696637D01*
X2365196Y2691282D01*
X2360196Y2691610D01*
Y2765860D01*
X2364702Y2767198D01*
X2365196Y2767150D01*
X2371472Y2758972D01*
X2379827Y2752560D01*
X2389558Y2748530D01*
X2395000Y2747813D01*
Y2787500D01*
Y2827187D01*
X2389558Y2826470D01*
X2379827Y2822440D01*
X2371472Y2816028D01*
X2365196Y2807850D01*
X2364702Y2807802D01*
X2360196Y2809140D01*
Y2854931D01*
X2359420Y2858833D01*
X2357210Y2862141D01*
X2312345Y2907006D01*
X2315356Y2911066D01*
X2317799Y2909760D01*
X2333584Y2904972D01*
X2350000Y2903355D01*
X2366416Y2904972D01*
X2382201Y2909760D01*
X2396749Y2917536D01*
X2409500Y2928000D01*
X2419964Y2940751D01*
X2427740Y2955299D01*
X2432528Y2971084D01*
X2434145Y2987500D01*
X2432528Y3003916D01*
X2427740Y3019701D01*
X2419964Y3034249D01*
X2409500Y3047000D01*
X2396749Y3057464D01*
X2382201Y3065240D01*
X2366416Y3070028D01*
X2350000Y3071645D01*
X2333584Y3070028D01*
X2317799Y3065240D01*
X2303251Y3057464D01*
X2290500Y3047000D01*
X2280036Y3034249D01*
X2272260Y3019701D01*
X2271456Y3017050D01*
X2266456Y3017792D01*
Y3980713D01*
X2352643Y4066900D01*
X2354853Y4070208D01*
X2355629Y4074110D01*
Y4218819D01*
X2354853Y4222721D01*
X2352643Y4226029D01*
X2326029Y4252643D01*
X2322721Y4254853D01*
X2318819Y4255629D01*
X1545433D01*
X1541531Y4254853D01*
X1538224Y4252643D01*
X1520678Y4235098D01*
X1520391Y4235318D01*
X1510555Y4239392D01*
X1510196Y4239440D01*
Y4250433D01*
X1509420Y4254335D01*
X1507210Y4257643D01*
X1503902Y4259853D01*
X1500000Y4260629D01*
D02*
G37*
G36*
X2200000Y4140782D02*
X2189445Y4139392D01*
X2179609Y4135318D01*
X2171163Y4128837D01*
X2164682Y4120391D01*
X2160608Y4110555D01*
X2159218Y4100000D01*
X2160608Y4089445D01*
X2164682Y4079609D01*
X2171163Y4071163D01*
X2179609Y4064682D01*
X2189445Y4060608D01*
X2200000Y4059218D01*
X2210555Y4060608D01*
X2220391Y4064682D01*
X2228837Y4071163D01*
X2235318Y4079609D01*
X2239392Y4089445D01*
X2240782Y4100000D01*
X2239392Y4110555D01*
X2235318Y4120391D01*
X2228837Y4128837D01*
X2220391Y4135318D01*
X2210555Y4139392D01*
X2200000Y4140782D01*
D02*
G37*
G36*
X2100000D02*
X2089445Y4139392D01*
X2079609Y4135318D01*
X2071163Y4128837D01*
X2064682Y4120391D01*
X2060608Y4110555D01*
X2059218Y4100000D01*
X2060608Y4089445D01*
X2064682Y4079609D01*
X2071163Y4071163D01*
X2079609Y4064682D01*
X2089445Y4060608D01*
X2100000Y4059218D01*
X2110555Y4060608D01*
X2120391Y4064682D01*
X2128837Y4071163D01*
X2135318Y4079609D01*
X2139392Y4089445D01*
X2140782Y4100000D01*
X2139392Y4110555D01*
X2135318Y4120391D01*
X2128837Y4128837D01*
X2120391Y4135318D01*
X2110555Y4139392D01*
X2100000Y4140782D01*
D02*
G37*
G36*
X2439687Y2782500D02*
X2405000D01*
Y2747813D01*
X2410442Y2748530D01*
X2420173Y2752560D01*
X2428528Y2758972D01*
X2434940Y2767327D01*
X2438970Y2777058D01*
X2439687Y2782500D01*
D02*
G37*
G36*
X439687D02*
X405000D01*
Y2747813D01*
X410442Y2748530D01*
X420173Y2752560D01*
X428528Y2758972D01*
X434940Y2767327D01*
X438971Y2777058D01*
X439687Y2782500D01*
D02*
G37*
G36*
X2295000D02*
X2260313D01*
X2261030Y2777058D01*
X2265060Y2767327D01*
X2271472Y2758972D01*
X2279827Y2752560D01*
X2289558Y2748530D01*
X2295000Y2747813D01*
Y2782500D01*
D02*
G37*
G36*
Y2827187D02*
X2289558Y2826470D01*
X2279827Y2822440D01*
X2271472Y2816028D01*
X2265060Y2807673D01*
X2261030Y2797942D01*
X2260313Y2792500D01*
X2295000D01*
Y2827187D01*
D02*
G37*
G36*
X495000D02*
X489558Y2826470D01*
X479827Y2822440D01*
X471472Y2816028D01*
X465060Y2807673D01*
X461029Y2797942D01*
X460313Y2792500D01*
X495000D01*
Y2827187D01*
D02*
G37*
G36*
X395000D02*
X389558Y2826470D01*
X379827Y2822440D01*
X371472Y2816028D01*
X365060Y2807673D01*
X361029Y2797942D01*
X360313Y2792500D01*
X395000D01*
Y2827187D01*
D02*
G37*
G36*
X400000Y2022802D02*
X390863Y2021599D01*
X382349Y2018072D01*
X375038Y2012462D01*
X369428Y2005151D01*
X365901Y1996637D01*
X364698Y1987500D01*
X365901Y1978363D01*
X369428Y1969849D01*
X375038Y1962538D01*
X382349Y1956928D01*
X390863Y1953401D01*
X400000Y1952198D01*
X409137Y1953401D01*
X417651Y1956928D01*
X424962Y1962538D01*
X430572Y1969849D01*
X434099Y1978363D01*
X435302Y1987500D01*
X434099Y1996637D01*
X430572Y2005151D01*
X424962Y2012462D01*
X417651Y2018072D01*
X409137Y2021599D01*
X400000Y2022802D01*
D02*
G37*
G36*
X2400000Y1922802D02*
X2390863Y1921599D01*
X2382349Y1918072D01*
X2375038Y1912462D01*
X2369428Y1905151D01*
X2365901Y1896637D01*
X2364698Y1887500D01*
X2365901Y1878363D01*
X2369428Y1869849D01*
X2375038Y1862538D01*
X2382349Y1856928D01*
X2390863Y1853401D01*
X2400000Y1852198D01*
X2409137Y1853401D01*
X2417651Y1856928D01*
X2424962Y1862538D01*
X2430572Y1869849D01*
X2434099Y1878363D01*
X2435302Y1887500D01*
X2434099Y1896637D01*
X2430572Y1905151D01*
X2424962Y1912462D01*
X2417651Y1918072D01*
X2409137Y1921599D01*
X2400000Y1922802D01*
D02*
G37*
G36*
X2300000D02*
X2290863Y1921599D01*
X2282349Y1918072D01*
X2275038Y1912462D01*
X2269428Y1905151D01*
X2265901Y1896637D01*
X2264698Y1887500D01*
X2265901Y1878363D01*
X2269428Y1869849D01*
X2275038Y1862538D01*
X2282349Y1856928D01*
X2290863Y1853401D01*
X2300000Y1852198D01*
X2309137Y1853401D01*
X2317651Y1856928D01*
X2324962Y1862538D01*
X2330572Y1869849D01*
X2334099Y1878363D01*
X2335302Y1887500D01*
X2334099Y1896637D01*
X2330572Y1905151D01*
X2324962Y1912462D01*
X2317651Y1918072D01*
X2309137Y1921599D01*
X2300000Y1922802D01*
D02*
G37*
G36*
X2400000Y2022802D02*
X2390863Y2021599D01*
X2382349Y2018072D01*
X2375038Y2012462D01*
X2369428Y2005151D01*
X2365901Y1996637D01*
X2364698Y1987500D01*
X2365901Y1978363D01*
X2369428Y1969849D01*
X2375038Y1962538D01*
X2382349Y1956928D01*
X2390863Y1953401D01*
X2400000Y1952198D01*
X2409137Y1953401D01*
X2417651Y1956928D01*
X2424962Y1962538D01*
X2430572Y1969849D01*
X2434099Y1978363D01*
X2435302Y1987500D01*
X2434099Y1996637D01*
X2430572Y2005151D01*
X2424962Y2012462D01*
X2417651Y2018072D01*
X2409137Y2021599D01*
X2400000Y2022802D01*
D02*
G37*
G36*
X2300000D02*
X2290863Y2021599D01*
X2282349Y2018072D01*
X2275038Y2012462D01*
X2269428Y2005151D01*
X2265901Y1996637D01*
X2264698Y1987500D01*
X2265901Y1978363D01*
X2269428Y1969849D01*
X2275038Y1962538D01*
X2282349Y1956928D01*
X2290863Y1953401D01*
X2300000Y1952198D01*
X2309137Y1953401D01*
X2317651Y1956928D01*
X2324962Y1962538D01*
X2330572Y1969849D01*
X2334099Y1978363D01*
X2335302Y1987500D01*
X2334099Y1996637D01*
X2330572Y2005151D01*
X2324962Y2012462D01*
X2317651Y2018072D01*
X2309137Y2021599D01*
X2300000Y2022802D01*
D02*
G37*
G36*
X500000D02*
X490863Y2021599D01*
X482349Y2018072D01*
X475038Y2012462D01*
X469428Y2005151D01*
X465901Y1996637D01*
X464698Y1987500D01*
X465901Y1978363D01*
X469428Y1969849D01*
X475038Y1962538D01*
X482349Y1956928D01*
X490863Y1953401D01*
X500000Y1952198D01*
X509137Y1953401D01*
X517651Y1956928D01*
X524962Y1962538D01*
X530572Y1969849D01*
X534099Y1978363D01*
X535302Y1987500D01*
X534099Y1996637D01*
X530572Y2005151D01*
X524962Y2012462D01*
X517651Y2018072D01*
X509137Y2021599D01*
X500000Y2022802D01*
D02*
G37*
G36*
X1900000Y4140782D02*
X1889445Y4139392D01*
X1879609Y4135318D01*
X1871163Y4128837D01*
X1864682Y4120391D01*
X1860608Y4110555D01*
X1859218Y4100000D01*
X1860608Y4089445D01*
X1864682Y4079609D01*
X1871163Y4071163D01*
X1879609Y4064682D01*
X1889445Y4060608D01*
X1889804Y4060560D01*
Y2187500D01*
X1890580Y2183598D01*
X1892790Y2180290D01*
X2268989Y1804092D01*
X2265901Y1796637D01*
X2264698Y1787500D01*
X2265901Y1778363D01*
X2269428Y1769849D01*
X2275038Y1762538D01*
X2282349Y1756928D01*
X2290863Y1753401D01*
X2300000Y1752198D01*
X2309137Y1753401D01*
X2317651Y1756928D01*
X2324962Y1762538D01*
X2330572Y1769849D01*
X2334099Y1778363D01*
X2335302Y1787500D01*
X2334099Y1796637D01*
X2330572Y1805151D01*
X2324962Y1812462D01*
X2317651Y1818072D01*
X2309137Y1821599D01*
X2300000Y1822802D01*
X2290863Y1821599D01*
X2283408Y1818511D01*
X1910196Y2191723D01*
Y4060560D01*
X1910555Y4060608D01*
X1920391Y4064682D01*
X1928837Y4071163D01*
X1935318Y4079609D01*
X1939392Y4089445D01*
X1940782Y4100000D01*
X1939392Y4110555D01*
X1935318Y4120391D01*
X1928837Y4128837D01*
X1920391Y4135318D01*
X1910555Y4139392D01*
X1900000Y4140782D01*
D02*
G37*
G36*
X500000Y1822802D02*
X490863Y1821599D01*
X482349Y1818072D01*
X475038Y1812462D01*
X469428Y1805151D01*
X465901Y1796637D01*
X464698Y1787500D01*
X465901Y1778363D01*
X469428Y1769849D01*
X475038Y1762538D01*
X482349Y1756928D01*
X490863Y1753401D01*
X500000Y1752198D01*
X509137Y1753401D01*
X517651Y1756928D01*
X524962Y1762538D01*
X530572Y1769849D01*
X534099Y1778363D01*
X535302Y1787500D01*
X534099Y1796637D01*
X530572Y1805151D01*
X524962Y1812462D01*
X517651Y1818072D01*
X509137Y1821599D01*
X500000Y1822802D01*
D02*
G37*
G36*
X400000D02*
X390863Y1821599D01*
X382349Y1818072D01*
X375038Y1812462D01*
X369428Y1805151D01*
X365901Y1796637D01*
X364698Y1787500D01*
X365901Y1778363D01*
X369428Y1769849D01*
X375038Y1762538D01*
X382349Y1756928D01*
X390863Y1753401D01*
X400000Y1752198D01*
X409137Y1753401D01*
X417651Y1756928D01*
X424962Y1762538D01*
X430572Y1769849D01*
X434099Y1778363D01*
X435302Y1787500D01*
X434099Y1796637D01*
X430572Y1805151D01*
X424962Y1812462D01*
X417651Y1818072D01*
X409137Y1821599D01*
X400000Y1822802D01*
D02*
G37*
G36*
X500000Y1922802D02*
X490863Y1921599D01*
X482349Y1918072D01*
X475038Y1912462D01*
X469428Y1905151D01*
X465901Y1896637D01*
X464698Y1887500D01*
X465901Y1878363D01*
X469428Y1869849D01*
X475038Y1862538D01*
X482349Y1856928D01*
X490863Y1853401D01*
X500000Y1852198D01*
X509137Y1853401D01*
X517651Y1856928D01*
X524962Y1862538D01*
X530572Y1869849D01*
X534099Y1878363D01*
X535302Y1887500D01*
X534099Y1896637D01*
X530572Y1905151D01*
X524962Y1912462D01*
X517651Y1918072D01*
X509137Y1921599D01*
X500000Y1922802D01*
D02*
G37*
G36*
X400000D02*
X390863Y1921599D01*
X382349Y1918072D01*
X375038Y1912462D01*
X369428Y1905151D01*
X365901Y1896637D01*
X364698Y1887500D01*
X365901Y1878363D01*
X369428Y1869849D01*
X375038Y1862538D01*
X382349Y1856928D01*
X390863Y1853401D01*
X400000Y1852198D01*
X409137Y1853401D01*
X417651Y1856928D01*
X424962Y1862538D01*
X430572Y1869849D01*
X434099Y1878363D01*
X435302Y1887500D01*
X434099Y1896637D01*
X430572Y1905151D01*
X424962Y1912462D01*
X417651Y1918072D01*
X409137Y1921599D01*
X400000Y1922802D01*
D02*
G37*
G36*
X2400000Y1822802D02*
X2390863Y1821599D01*
X2382349Y1818072D01*
X2375038Y1812462D01*
X2369428Y1805151D01*
X2365901Y1796637D01*
X2364698Y1787500D01*
X2365901Y1778363D01*
X2369428Y1769849D01*
X2375038Y1762538D01*
X2382349Y1756928D01*
X2390863Y1753401D01*
X2400000Y1752198D01*
X2409137Y1753401D01*
X2417651Y1756928D01*
X2424962Y1762538D01*
X2430572Y1769849D01*
X2434099Y1778363D01*
X2435302Y1787500D01*
X2434099Y1796637D01*
X2430572Y1805151D01*
X2424962Y1812462D01*
X2417651Y1818072D01*
X2409137Y1821599D01*
X2400000Y1822802D01*
D02*
G37*
G36*
X2000000Y4140782D02*
X1989445Y4139392D01*
X1979609Y4135318D01*
X1971163Y4128837D01*
X1964682Y4120391D01*
X1960608Y4110555D01*
X1959218Y4100000D01*
X1960608Y4089445D01*
X1964682Y4079609D01*
X1971163Y4071163D01*
X1979609Y4064682D01*
X1989445Y4060608D01*
X1989804Y4060560D01*
Y2268249D01*
X1984871Y2266205D01*
X1978604Y2261396D01*
X1973795Y2255129D01*
X1970772Y2247832D01*
X1969741Y2240000D01*
X1970772Y2232168D01*
X1973795Y2224871D01*
X1978604Y2218604D01*
X1984871Y2213795D01*
X1992168Y2210772D01*
X2000000Y2209741D01*
X2007832Y2210772D01*
X2015129Y2213795D01*
X2021396Y2218604D01*
X2026205Y2224871D01*
X2029228Y2232168D01*
X2030259Y2240000D01*
X2029228Y2247832D01*
X2026205Y2255129D01*
X2021396Y2261396D01*
X2015129Y2266205D01*
X2010196Y2268249D01*
Y4060560D01*
X2010555Y4060608D01*
X2020391Y4064682D01*
X2028837Y4071163D01*
X2035318Y4079609D01*
X2039392Y4089445D01*
X2040782Y4100000D01*
X2039392Y4110555D01*
X2035318Y4120391D01*
X2028837Y4128837D01*
X2020391Y4135318D01*
X2010555Y4139392D01*
X2000000Y4140782D01*
D02*
G37*
G36*
X2400000Y2222802D02*
X2390863Y2221599D01*
X2382349Y2218072D01*
X2375038Y2212462D01*
X2369428Y2205151D01*
X2365901Y2196637D01*
X2364698Y2187500D01*
X2365901Y2178363D01*
X2369428Y2169849D01*
X2375038Y2162538D01*
X2382349Y2156928D01*
X2390863Y2153401D01*
X2400000Y2152198D01*
X2409137Y2153401D01*
X2417651Y2156928D01*
X2424962Y2162538D01*
X2430572Y2169849D01*
X2434099Y2178363D01*
X2435302Y2187500D01*
X2434099Y2196637D01*
X2430572Y2205151D01*
X2424962Y2212462D01*
X2417651Y2218072D01*
X2409137Y2221599D01*
X2400000Y2222802D01*
D02*
G37*
G36*
X2300000D02*
X2290863Y2221599D01*
X2282349Y2218072D01*
X2275038Y2212462D01*
X2269428Y2205151D01*
X2265901Y2196637D01*
X2264698Y2187500D01*
X2265901Y2178363D01*
X2269428Y2169849D01*
X2275038Y2162538D01*
X2282349Y2156928D01*
X2290863Y2153401D01*
X2300000Y2152198D01*
X2309137Y2153401D01*
X2317651Y2156928D01*
X2324962Y2162538D01*
X2330572Y2169849D01*
X2334099Y2178363D01*
X2335302Y2187500D01*
X2334099Y2196637D01*
X2330572Y2205151D01*
X2324962Y2212462D01*
X2317651Y2218072D01*
X2309137Y2221599D01*
X2300000Y2222802D01*
D02*
G37*
G36*
Y2322802D02*
X2290863Y2321599D01*
X2282349Y2318072D01*
X2275038Y2312462D01*
X2269428Y2305151D01*
X2265901Y2296637D01*
X2264698Y2287500D01*
X2265901Y2278363D01*
X2269428Y2269849D01*
X2275038Y2262538D01*
X2282349Y2256928D01*
X2290863Y2253401D01*
X2300000Y2252198D01*
X2309137Y2253401D01*
X2317651Y2256928D01*
X2324962Y2262538D01*
X2330572Y2269849D01*
X2334099Y2278363D01*
X2335302Y2287500D01*
X2334099Y2296637D01*
X2330572Y2305151D01*
X2324962Y2312462D01*
X2317651Y2318072D01*
X2309137Y2321599D01*
X2300000Y2322802D01*
D02*
G37*
G36*
X500000D02*
X490863Y2321599D01*
X482349Y2318072D01*
X475038Y2312462D01*
X469428Y2305151D01*
X465901Y2296637D01*
X464698Y2287500D01*
X465901Y2278363D01*
X469428Y2269849D01*
X475038Y2262538D01*
X482349Y2256928D01*
X490863Y2253401D01*
X500000Y2252198D01*
X509137Y2253401D01*
X517651Y2256928D01*
X524962Y2262538D01*
X530572Y2269849D01*
X534099Y2278363D01*
X535302Y2287500D01*
X534099Y2296637D01*
X530572Y2305151D01*
X524962Y2312462D01*
X517651Y2318072D01*
X509137Y2321599D01*
X500000Y2322802D01*
D02*
G37*
G36*
X400000D02*
X390863Y2321599D01*
X382349Y2318072D01*
X375038Y2312462D01*
X369428Y2305151D01*
X365901Y2296637D01*
X364698Y2287500D01*
X365901Y2278363D01*
X369428Y2269849D01*
X375038Y2262538D01*
X382349Y2256928D01*
X390863Y2253401D01*
X400000Y2252198D01*
X409137Y2253401D01*
X417651Y2256928D01*
X424962Y2262538D01*
X430572Y2269849D01*
X434099Y2278363D01*
X435302Y2287500D01*
X434099Y2296637D01*
X430572Y2305151D01*
X424962Y2312462D01*
X417651Y2318072D01*
X409137Y2321599D01*
X400000Y2322802D01*
D02*
G37*
G36*
X2300000Y2122802D02*
X2290863Y2121599D01*
X2282349Y2118072D01*
X2275038Y2112462D01*
X2269428Y2105151D01*
X2265901Y2096637D01*
X2264698Y2087500D01*
X2265901Y2078363D01*
X2269428Y2069849D01*
X2275038Y2062538D01*
X2282349Y2056928D01*
X2290863Y2053401D01*
X2300000Y2052198D01*
X2309137Y2053401D01*
X2317651Y2056928D01*
X2324962Y2062538D01*
X2330572Y2069849D01*
X2334099Y2078363D01*
X2335302Y2087500D01*
X2334099Y2096637D01*
X2330572Y2105151D01*
X2324962Y2112462D01*
X2317651Y2118072D01*
X2309137Y2121599D01*
X2300000Y2122802D01*
D02*
G37*
G36*
X500000D02*
X490863Y2121599D01*
X482349Y2118072D01*
X475038Y2112462D01*
X469428Y2105151D01*
X465901Y2096637D01*
X464698Y2087500D01*
X465901Y2078363D01*
X469428Y2069849D01*
X475038Y2062538D01*
X482349Y2056928D01*
X490863Y2053401D01*
X500000Y2052198D01*
X509137Y2053401D01*
X517651Y2056928D01*
X524962Y2062538D01*
X530572Y2069849D01*
X534099Y2078363D01*
X535302Y2087500D01*
X534099Y2096637D01*
X530572Y2105151D01*
X524962Y2112462D01*
X517651Y2118072D01*
X509137Y2121599D01*
X500000Y2122802D01*
D02*
G37*
G36*
X400000D02*
X390863Y2121599D01*
X382349Y2118072D01*
X375038Y2112462D01*
X369428Y2105151D01*
X365901Y2096637D01*
X364698Y2087500D01*
X365901Y2078363D01*
X369428Y2069849D01*
X375038Y2062538D01*
X382349Y2056928D01*
X390863Y2053401D01*
X400000Y2052198D01*
X409137Y2053401D01*
X417651Y2056928D01*
X424962Y2062538D01*
X430572Y2069849D01*
X434099Y2078363D01*
X435302Y2087500D01*
X434099Y2096637D01*
X430572Y2105151D01*
X424962Y2112462D01*
X417651Y2118072D01*
X409137Y2121599D01*
X400000Y2122802D01*
D02*
G37*
G36*
Y2222802D02*
X390863Y2221599D01*
X382349Y2218072D01*
X375038Y2212462D01*
X369428Y2205151D01*
X365901Y2196637D01*
X364698Y2187500D01*
X365901Y2178363D01*
X369428Y2169849D01*
X375038Y2162538D01*
X382349Y2156928D01*
X390863Y2153401D01*
X400000Y2152198D01*
X409137Y2153401D01*
X417651Y2156928D01*
X424962Y2162538D01*
X430572Y2169849D01*
X434099Y2178363D01*
X435302Y2187500D01*
X434099Y2196637D01*
X430572Y2205151D01*
X424962Y2212462D01*
X417651Y2218072D01*
X409137Y2221599D01*
X400000Y2222802D01*
D02*
G37*
G36*
X500000D02*
X490863Y2221599D01*
X482349Y2218072D01*
X475038Y2212462D01*
X469428Y2205151D01*
X465901Y2196637D01*
X464698Y2187500D01*
X465901Y2178363D01*
X469428Y2169849D01*
X475038Y2162538D01*
X482349Y2156928D01*
X490863Y2153401D01*
X500000Y2152198D01*
X509137Y2153401D01*
X517651Y2156928D01*
X524962Y2162538D01*
X530572Y2169849D01*
X534099Y2178363D01*
X535302Y2187500D01*
X534099Y2196637D01*
X530572Y2205151D01*
X524962Y2212462D01*
X517651Y2218072D01*
X509137Y2221599D01*
X500000Y2222802D01*
D02*
G37*
G36*
X2400000Y2122802D02*
X2390863Y2121599D01*
X2382349Y2118072D01*
X2375038Y2112462D01*
X2369428Y2105151D01*
X2365901Y2096637D01*
X2364698Y2087500D01*
X2365901Y2078363D01*
X2369428Y2069849D01*
X2375038Y2062538D01*
X2382349Y2056928D01*
X2390863Y2053401D01*
X2400000Y2052198D01*
X2409137Y2053401D01*
X2417651Y2056928D01*
X2424962Y2062538D01*
X2430572Y2069849D01*
X2434099Y2078363D01*
X2435302Y2087500D01*
X2434099Y2096637D01*
X2430572Y2105151D01*
X2424962Y2112462D01*
X2417651Y2118072D01*
X2409137Y2121599D01*
X2400000Y2122802D01*
D02*
G37*
%LPD*%
G36*
X1479546Y4235580D02*
X1479503Y4235237D01*
X1471163Y4228837D01*
X1464682Y4220391D01*
X1460608Y4210555D01*
X1459218Y4200000D01*
X1460608Y4189445D01*
X1464682Y4179609D01*
X1471163Y4171163D01*
X1479609Y4164682D01*
X1489445Y4160608D01*
X1500000Y4159218D01*
X1510555Y4160608D01*
X1520391Y4164682D01*
X1528837Y4171163D01*
X1535318Y4179609D01*
X1539392Y4189445D01*
X1540782Y4200000D01*
X1539392Y4210555D01*
X1535318Y4220391D01*
X1535098Y4220678D01*
X1549656Y4235237D01*
X1571726D01*
X1573333Y4230502D01*
X1571163Y4228837D01*
X1564682Y4220391D01*
X1560608Y4210555D01*
X1559218Y4200000D01*
X1560608Y4189445D01*
X1564682Y4179609D01*
X1571163Y4171163D01*
X1579609Y4164682D01*
X1589445Y4160608D01*
X1600000Y4159218D01*
X1610555Y4160608D01*
X1620391Y4164682D01*
X1628837Y4171163D01*
X1635318Y4179609D01*
X1639392Y4189445D01*
X1640782Y4200000D01*
X1639392Y4210555D01*
X1635318Y4220391D01*
X1628837Y4228837D01*
X1626667Y4230502D01*
X1628274Y4235237D01*
X1671726D01*
X1673333Y4230502D01*
X1671163Y4228837D01*
X1664682Y4220391D01*
X1660608Y4210555D01*
X1659218Y4200000D01*
X1660608Y4189445D01*
X1664682Y4179609D01*
X1671163Y4171163D01*
X1679609Y4164682D01*
X1689445Y4160608D01*
X1700000Y4159218D01*
X1710555Y4160608D01*
X1720391Y4164682D01*
X1728837Y4171163D01*
X1735318Y4179609D01*
X1739392Y4189445D01*
X1740782Y4200000D01*
X1739392Y4210555D01*
X1735318Y4220391D01*
X1728837Y4228837D01*
X1726667Y4230502D01*
X1728274Y4235237D01*
X1771726D01*
X1773333Y4230502D01*
X1771163Y4228837D01*
X1764682Y4220391D01*
X1760608Y4210555D01*
X1759218Y4200000D01*
X1760608Y4189445D01*
X1764682Y4179609D01*
X1764902Y4179322D01*
X1747357Y4161776D01*
X1745147Y4158469D01*
X1744371Y4154567D01*
Y4111045D01*
X1739392Y4110555D01*
X1735318Y4120391D01*
X1728837Y4128837D01*
X1720391Y4135318D01*
X1710555Y4139392D01*
X1700000Y4140782D01*
X1689445Y4139392D01*
X1679609Y4135318D01*
X1671163Y4128837D01*
X1664682Y4120391D01*
X1660608Y4110555D01*
X1659218Y4100000D01*
X1660608Y4089445D01*
X1664682Y4079609D01*
X1671163Y4071163D01*
X1679609Y4064682D01*
X1689445Y4060608D01*
X1689804Y4060560D01*
Y3935155D01*
X545012Y2790362D01*
X539732Y2792154D01*
X538971Y2797942D01*
X534940Y2807673D01*
X534789Y2807870D01*
X707210Y2980290D01*
X709420Y2983598D01*
X710196Y2987500D01*
Y3960000D01*
X740000D01*
Y3989804D01*
X760000D01*
Y3960000D01*
X795000D01*
Y4000000D01*
X800000D01*
Y4005000D01*
X840000D01*
Y4034804D01*
X1151169D01*
X1153616Y4032357D01*
X1156924Y4030147D01*
X1160826Y4029371D01*
X1439567D01*
X1443469Y4030147D01*
X1446776Y4032357D01*
X1479322Y4064902D01*
X1479609Y4064682D01*
X1489445Y4060608D01*
X1500000Y4059218D01*
X1510555Y4060608D01*
X1520391Y4064682D01*
X1528837Y4071163D01*
X1535318Y4079609D01*
X1539392Y4089445D01*
X1540782Y4100000D01*
X1539392Y4110555D01*
X1535318Y4120391D01*
X1528837Y4128837D01*
X1520391Y4135318D01*
X1510555Y4139392D01*
X1500000Y4140782D01*
X1489445Y4139392D01*
X1479609Y4135318D01*
X1471163Y4128837D01*
X1464682Y4120391D01*
X1460608Y4110555D01*
X1459218Y4100000D01*
X1460608Y4089445D01*
X1464682Y4079609D01*
X1464902Y4079322D01*
X1435344Y4049763D01*
X1404793D01*
X1404465Y4054763D01*
X1411860Y4055736D01*
X1422912Y4060314D01*
X1432403Y4067597D01*
X1439686Y4077088D01*
X1444264Y4088140D01*
X1445167Y4095000D01*
X1400000D01*
Y4100000D01*
D01*
Y4095000D01*
X1354833D01*
X1355736Y4088140D01*
X1360314Y4077088D01*
X1367597Y4067597D01*
X1377088Y4060314D01*
X1388140Y4055736D01*
X1395535Y4054763D01*
X1395207Y4049763D01*
X1270715D01*
X1268801Y4054382D01*
X1279322Y4064902D01*
X1279609Y4064682D01*
X1289445Y4060608D01*
X1300000Y4059218D01*
X1310555Y4060608D01*
X1320391Y4064682D01*
X1328837Y4071163D01*
X1335318Y4079609D01*
X1339392Y4089445D01*
X1340782Y4100000D01*
X1339392Y4110555D01*
X1335318Y4120391D01*
X1328837Y4128837D01*
X1320391Y4135318D01*
X1310555Y4139392D01*
X1310196Y4139440D01*
Y4160560D01*
X1310555Y4160608D01*
X1320391Y4164682D01*
X1328837Y4171163D01*
X1335318Y4179609D01*
X1339392Y4189445D01*
X1340782Y4200000D01*
X1339392Y4210555D01*
X1335318Y4220391D01*
X1328837Y4228837D01*
X1320497Y4235237D01*
X1320454Y4235580D01*
X1321581Y4240237D01*
X1369593D01*
X1371290Y4235237D01*
X1367597Y4232403D01*
X1360314Y4222913D01*
X1355736Y4211860D01*
X1354833Y4205000D01*
X1400000D01*
X1445167D01*
X1444264Y4211860D01*
X1439686Y4222913D01*
X1432403Y4232403D01*
X1428710Y4235237D01*
X1430407Y4240237D01*
X1478419D01*
X1479546Y4235580D01*
D02*
G37*
G36*
X1279546D02*
X1279503Y4235237D01*
X1271163Y4228837D01*
X1264682Y4220391D01*
X1260608Y4210555D01*
X1259218Y4200000D01*
X1260608Y4189445D01*
X1264682Y4179609D01*
X1271163Y4171163D01*
X1279609Y4164682D01*
X1289445Y4160608D01*
X1289804Y4160560D01*
Y4139440D01*
X1289445Y4139392D01*
X1279609Y4135318D01*
X1271163Y4128837D01*
X1264682Y4120391D01*
X1260608Y4110555D01*
X1259218Y4100000D01*
X1260608Y4089445D01*
X1264682Y4079609D01*
X1264902Y4079322D01*
X1250344Y4064763D01*
X1236531D01*
X1234065Y4069763D01*
X1239686Y4077088D01*
X1244264Y4088140D01*
X1245167Y4095000D01*
X1200000D01*
X1154833D01*
X1155736Y4088140D01*
X1159027Y4080196D01*
X1155686Y4075196D01*
X587189D01*
X585118Y4080196D01*
X745159Y4240237D01*
X1169593D01*
X1171290Y4235237D01*
X1167597Y4232403D01*
X1160314Y4222913D01*
X1155736Y4211860D01*
X1154833Y4205000D01*
X1200000D01*
X1245167D01*
X1244264Y4211860D01*
X1239686Y4222913D01*
X1232403Y4232403D01*
X1228710Y4235237D01*
X1230407Y4240237D01*
X1278419D01*
X1279546Y4235580D01*
D02*
G37*
%LPC*%
G36*
X1395000Y4195000D02*
X1354833D01*
X1355736Y4188140D01*
X1360314Y4177087D01*
X1367597Y4167597D01*
X1377088Y4160314D01*
X1388140Y4155736D01*
X1395000Y4154833D01*
Y4195000D01*
D02*
G37*
G36*
X1445167D02*
X1405000D01*
Y4154833D01*
X1411860Y4155736D01*
X1422912Y4160314D01*
X1432403Y4167597D01*
X1439686Y4177087D01*
X1444264Y4188140D01*
X1445167Y4195000D01*
D02*
G37*
G36*
X1600000Y4140782D02*
X1589445Y4139392D01*
X1579609Y4135318D01*
X1571163Y4128837D01*
X1564682Y4120391D01*
X1560608Y4110555D01*
X1559218Y4100000D01*
X1560608Y4089445D01*
X1564682Y4079609D01*
X1571163Y4071163D01*
X1579609Y4064682D01*
X1589445Y4060608D01*
X1600000Y4059218D01*
X1610555Y4060608D01*
X1620391Y4064682D01*
X1628837Y4071163D01*
X1635318Y4079609D01*
X1639392Y4089445D01*
X1640782Y4100000D01*
X1639392Y4110555D01*
X1635318Y4120391D01*
X1628837Y4128837D01*
X1620391Y4135318D01*
X1610555Y4139392D01*
X1600000Y4140782D01*
D02*
G37*
G36*
X840000Y3995000D02*
X805000D01*
Y3960000D01*
X840000D01*
Y3995000D01*
D02*
G37*
G36*
X1405000Y4145167D02*
Y4105000D01*
X1445167D01*
X1444264Y4111860D01*
X1439686Y4122913D01*
X1432403Y4132403D01*
X1422912Y4139686D01*
X1411860Y4144264D01*
X1405000Y4145167D01*
D02*
G37*
G36*
X1395000D02*
X1388140Y4144264D01*
X1377088Y4139686D01*
X1367597Y4132403D01*
X1360314Y4122913D01*
X1355736Y4111860D01*
X1354833Y4105000D01*
X1395000D01*
Y4145167D01*
D02*
G37*
G36*
X1195000Y4195000D02*
X1154833D01*
X1155736Y4188140D01*
X1160314Y4177087D01*
X1167597Y4167597D01*
X1177088Y4160314D01*
X1188140Y4155736D01*
X1195000Y4154833D01*
Y4195000D01*
D02*
G37*
G36*
X1245167D02*
X1205000D01*
Y4154833D01*
X1211860Y4155736D01*
X1222912Y4160314D01*
X1232403Y4167597D01*
X1239686Y4177087D01*
X1244264Y4188140D01*
X1245167Y4195000D01*
D02*
G37*
G36*
X1195000Y4145167D02*
X1188140Y4144264D01*
X1177088Y4139686D01*
X1167597Y4132403D01*
X1160314Y4122913D01*
X1155736Y4111860D01*
X1154833Y4105000D01*
X1195000D01*
Y4145167D01*
D02*
G37*
G36*
X1205000D02*
Y4105000D01*
X1245167D01*
X1244264Y4111860D01*
X1239686Y4122913D01*
X1232403Y4132403D01*
X1222912Y4139686D01*
X1211860Y4144264D01*
X1205000Y4145167D01*
D02*
G37*
%LPD*%
D10*
X700000Y4000000D02*
X800000D01*
X700000Y2987500D02*
Y4000000D01*
X500000Y2787500D02*
X700000Y2987500D01*
X1500000Y4200000D02*
X1545433Y4245433D01*
X2318819D01*
X2345433Y4218819D01*
Y4074110D02*
Y4218819D01*
X2256260Y3984937D02*
X2345433Y4074110D01*
X2256260Y2948672D02*
Y3984937D01*
X1500000Y4200000D02*
Y4250433D01*
X600000Y4000000D02*
X655000D01*
Y4036213D01*
X663787Y4045000D01*
X500000Y4000000D02*
X535000D01*
Y4044497D01*
X663787Y4045000D02*
X1155393D01*
X1160826Y4039567D02*
X1439567D01*
X1500000Y4100000D01*
X1155393Y4045000D02*
X1160826Y4039567D01*
X535000Y4044497D02*
X740936Y4250433D01*
X1500000D01*
X400000Y4000000D02*
X455000D01*
Y3963787D02*
Y4000000D01*
Y3963787D02*
X463787Y3955000D01*
X536213D01*
X555000Y3973787D01*
Y4036213D01*
X583787Y4065000D01*
X1163677D01*
X1174110Y4054567D01*
X1254567D01*
X1300000Y4100000D01*
X1900000Y2187500D02*
Y4100000D01*
Y2187500D02*
X2300000Y1787500D01*
X1800000Y2400000D02*
Y4100000D01*
X587500Y1187500D02*
X1800000Y2400000D01*
X500000Y1187500D02*
X587500D01*
X1754567Y4154567D02*
X1800000Y4200000D01*
X516568Y1347500D02*
X1754567Y2585498D01*
X460000Y1347500D02*
X516568D01*
X400000Y1287500D02*
X460000Y1347500D01*
X2000000Y2240000D02*
Y4100000D01*
X1300000D02*
Y4200000D01*
X1700000Y3930932D02*
Y4100000D01*
X1754567Y2585498D02*
Y4154567D01*
X2300000Y2587500D02*
X2400000D01*
X400000Y2687500D02*
X447500Y2735000D01*
X504068D01*
X1700000Y3930932D01*
X2300000Y2587500D02*
X2350000Y2637500D01*
Y2854931D01*
X2256260Y2948672D02*
X2350000Y2854931D01*
D11*
X1200000Y4200000D02*
D03*
Y4100000D02*
D03*
X2300000Y4200000D02*
D03*
X2200000D02*
D03*
X2100000D02*
D03*
X2000000D02*
D03*
X1900000D02*
D03*
X1800000D02*
D03*
X1700000D02*
D03*
X1600000D02*
D03*
X1500000D02*
D03*
X1400000D02*
D03*
X2300000Y4100000D02*
D03*
X2200000D02*
D03*
X2100000D02*
D03*
X2000000D02*
D03*
X1900000D02*
D03*
X1800000D02*
D03*
X1700000D02*
D03*
X1600000D02*
D03*
X1500000D02*
D03*
X1400000D02*
D03*
X1300000D02*
D03*
Y4200000D02*
D03*
D12*
X700000Y4000000D02*
D03*
X600000D02*
D03*
X500000D02*
D03*
X400000D02*
D03*
X800000D02*
D03*
D13*
X450000Y2987500D02*
D03*
X2350000D02*
D03*
X2225000Y412500D02*
D03*
X575000D02*
D03*
D14*
X500000Y2787500D02*
D03*
Y2687500D02*
D03*
Y2587500D02*
D03*
Y2487500D02*
D03*
Y2387500D02*
D03*
Y2287500D02*
D03*
Y2187500D02*
D03*
Y2087500D02*
D03*
Y1987500D02*
D03*
Y1887500D02*
D03*
Y1787500D02*
D03*
Y1687500D02*
D03*
Y1587500D02*
D03*
Y1487500D02*
D03*
Y1387500D02*
D03*
Y1287500D02*
D03*
Y1187500D02*
D03*
Y1087500D02*
D03*
Y987500D02*
D03*
Y887500D02*
D03*
Y787500D02*
D03*
Y687500D02*
D03*
Y587500D02*
D03*
X400000Y2687500D02*
D03*
Y2587500D02*
D03*
Y2487500D02*
D03*
Y2387500D02*
D03*
Y2287500D02*
D03*
Y2187500D02*
D03*
Y2087500D02*
D03*
Y1987500D02*
D03*
Y1887500D02*
D03*
Y1787500D02*
D03*
Y1687500D02*
D03*
Y1587500D02*
D03*
Y1487500D02*
D03*
Y1387500D02*
D03*
Y1287500D02*
D03*
Y1187500D02*
D03*
Y1087500D02*
D03*
Y987500D02*
D03*
Y887500D02*
D03*
Y787500D02*
D03*
Y687500D02*
D03*
Y587500D02*
D03*
X2300000Y2787500D02*
D03*
X2400000D02*
D03*
Y2687500D02*
D03*
Y2587500D02*
D03*
Y2487500D02*
D03*
Y2387500D02*
D03*
Y2287500D02*
D03*
Y2187500D02*
D03*
Y2087500D02*
D03*
Y1987500D02*
D03*
Y1887500D02*
D03*
Y1787500D02*
D03*
Y1687500D02*
D03*
Y1587500D02*
D03*
Y1487500D02*
D03*
Y1387500D02*
D03*
Y1287500D02*
D03*
Y1187500D02*
D03*
Y1087500D02*
D03*
Y987500D02*
D03*
Y887500D02*
D03*
Y787500D02*
D03*
Y687500D02*
D03*
Y587500D02*
D03*
X2300000Y2687500D02*
D03*
Y2587500D02*
D03*
Y2487500D02*
D03*
Y2387500D02*
D03*
Y2287500D02*
D03*
Y2187500D02*
D03*
Y2087500D02*
D03*
Y1987500D02*
D03*
Y1887500D02*
D03*
Y1787500D02*
D03*
Y1687500D02*
D03*
Y1587500D02*
D03*
Y1487500D02*
D03*
Y1387500D02*
D03*
Y1287500D02*
D03*
Y1187500D02*
D03*
Y1087500D02*
D03*
Y987500D02*
D03*
Y887500D02*
D03*
Y787500D02*
D03*
Y687500D02*
D03*
Y587500D02*
D03*
X400000Y2787500D02*
D03*
D15*
X2000000Y2240000D02*
D03*
%TF.MD5,342187d396d73590eb09fc7b054e0124*%
M02*
