G04 Layer_Physical_Order=4*
G04 Layer_Color=16711680*
%FSLAX26Y26*%
%MOIN*%
%TF.FileFunction,Copper,L4,Bot,Signal*%
%TF.Part,Single*%
G01*
G75*
%TA.AperFunction,SMDPad,CuDef*%
%ADD10R,0.057087X0.045276*%
%ADD13R,0.051181X0.033465*%
%ADD21R,0.033465X0.051181*%
%ADD22R,0.053150X0.037402*%
%TA.AperFunction,Conductor*%
%ADD23C,0.015000*%
%ADD24C,0.010000*%
%TA.AperFunction,ComponentPad*%
%ADD25C,0.060000*%
%ADD26C,0.059055*%
%ADD27C,0.062992*%
%ADD28C,0.040000*%
%ADD29R,0.059055X0.059055*%
%TA.AperFunction,ViaPad*%
%ADD30C,0.196850*%
%TA.AperFunction,ComponentPad*%
%ADD31C,0.042000*%
%TA.AperFunction,ViaPad*%
%ADD32C,0.050000*%
%ADD33C,0.039370*%
%ADD34C,0.040000*%
%TA.AperFunction,SMDPad,CuDef*%
%ADD47O,0.017716X0.055118*%
G36*
X2637795Y3852110D02*
X2637795Y110D01*
X110D01*
Y3852110D01*
X2637795Y3852110D01*
D02*
G37*
%LPC*%
G36*
X2449882Y1194955D02*
Y1170354D01*
X2474483D01*
X2474110Y1173186D01*
X2471087Y1180484D01*
X2466278Y1186751D01*
X2460011Y1191559D01*
X2452714Y1194582D01*
X2449882Y1194955D01*
D02*
G37*
G36*
X623591Y1231220D02*
X558630D01*
Y1215765D01*
X539606D01*
Y1227284D01*
X476614D01*
Y1182008D01*
X498172D01*
Y1153595D01*
X497199Y1152832D01*
X493178Y1151382D01*
X493162Y1151387D01*
X489462Y1153860D01*
X483701Y1155006D01*
X477940Y1153860D01*
X473487Y1150884D01*
X471706Y1153549D01*
X465469Y1157717D01*
X463110Y1158186D01*
Y1121252D01*
Y1084318D01*
X465469Y1084787D01*
X471706Y1088955D01*
X473487Y1091620D01*
X477940Y1088644D01*
X483701Y1087498D01*
X489462Y1088644D01*
X494345Y1091907D01*
X498648D01*
X503531Y1088644D01*
X509291Y1087498D01*
X515052Y1088644D01*
X518753Y1091117D01*
X522087Y1091597D01*
X525421Y1091117D01*
X529122Y1088644D01*
X531437Y1088184D01*
X532299Y1087321D01*
X532846Y1086502D01*
X597481Y1021868D01*
X597481Y1021867D01*
X601089Y1019457D01*
X605344Y1018611D01*
X609922Y1017945D01*
X609990Y1017430D01*
X612568Y1011205D01*
X616670Y1005859D01*
X622016Y1001757D01*
X623798Y1001019D01*
Y808370D01*
X616806Y805474D01*
X609305Y799718D01*
X603550Y792218D01*
X599932Y783483D01*
X598698Y774110D01*
X599932Y764737D01*
X603550Y756003D01*
X609305Y748502D01*
X616806Y742747D01*
X625540Y739129D01*
X634913Y737895D01*
X644287Y739129D01*
X653021Y742747D01*
X660521Y748502D01*
X666277Y756003D01*
X669895Y764737D01*
X671129Y774110D01*
X669895Y783483D01*
X666277Y792218D01*
X660521Y799718D01*
X653021Y805474D01*
X646037Y808367D01*
Y1001015D01*
X647827Y1001757D01*
X653173Y1005859D01*
X657275Y1011205D01*
X659853Y1017430D01*
X660733Y1024110D01*
X659853Y1030791D01*
X657275Y1037016D01*
X653173Y1042361D01*
X647827Y1046463D01*
X641602Y1049042D01*
X634922Y1049921D01*
X628241Y1049042D01*
X622016Y1046463D01*
X616670Y1042361D01*
X615510Y1040849D01*
X609949D01*
X570242Y1080557D01*
X570979Y1086891D01*
X574069Y1088955D01*
X578237Y1095193D01*
X579700Y1102551D01*
Y1116252D01*
X560473D01*
Y1121252D01*
X555473D01*
Y1158186D01*
X553115Y1157717D01*
X546877Y1153549D01*
X545096Y1150884D01*
X540643Y1153860D01*
X534882Y1155006D01*
X529122Y1153860D01*
X525421Y1151387D01*
X525405Y1151382D01*
X521385Y1152832D01*
X520411Y1153595D01*
Y1182008D01*
X539606D01*
Y1193526D01*
X558630D01*
Y1182008D01*
X623591D01*
Y1231220D01*
D02*
G37*
G36*
X2056181Y1194955D02*
Y1170354D01*
X2080782D01*
X2080409Y1173186D01*
X2077386Y1180484D01*
X2072577Y1186751D01*
X2066311Y1191559D01*
X2059013Y1194582D01*
X2056181Y1194955D01*
D02*
G37*
G36*
X2439882D02*
X2437050Y1194582D01*
X2429753Y1191559D01*
X2423486Y1186751D01*
X2418677Y1180484D01*
X2415654Y1173186D01*
X2415281Y1170354D01*
X2439882D01*
Y1194955D01*
D02*
G37*
G36*
X586110Y1264606D02*
X554535D01*
Y1240905D01*
X586110D01*
Y1264606D01*
D02*
G37*
G36*
X627685Y1298307D02*
X596110D01*
Y1274606D01*
X627685D01*
Y1298307D01*
D02*
G37*
G36*
X505110Y1369921D02*
X498430Y1369042D01*
X492205Y1366463D01*
X486859Y1362361D01*
X482757Y1357016D01*
X480178Y1350791D01*
X479299Y1344110D01*
X480178Y1337430D01*
X482757Y1331205D01*
X486859Y1325859D01*
X492205Y1321757D01*
X493991Y1321017D01*
Y1294213D01*
X476614D01*
Y1280229D01*
X456213D01*
Y1300606D01*
X410937D01*
Y1237614D01*
X421401D01*
Y1153595D01*
X420427Y1152832D01*
X416406Y1151382D01*
X416390Y1151387D01*
X412690Y1153860D01*
X407768Y1154839D01*
X389497Y1173110D01*
Y1257377D01*
X389497Y1257378D01*
X389284Y1258453D01*
Y1300606D01*
X344008D01*
Y1237614D01*
X367259D01*
Y1168505D01*
X367259Y1168504D01*
X368105Y1164249D01*
X370515Y1160641D01*
X391876Y1139281D01*
Y1102551D01*
X393022Y1096791D01*
X396285Y1091907D01*
X399375Y1089843D01*
X400642Y1084039D01*
X333581Y1016977D01*
X292017D01*
X289122Y1023966D01*
X283367Y1031466D01*
X275866Y1037221D01*
X268878Y1040116D01*
Y1061008D01*
X292591D01*
Y1110220D01*
X227630D01*
Y1061008D01*
X246639D01*
Y1040116D01*
X239651Y1037221D01*
X232151Y1031466D01*
X226395Y1023966D01*
X222777Y1015231D01*
X221543Y1005858D01*
X222777Y996485D01*
X226395Y987750D01*
X232151Y980250D01*
X239651Y974495D01*
X248386Y970877D01*
X257759Y969643D01*
X267132Y970877D01*
X275866Y974495D01*
X283367Y980250D01*
X289122Y987750D01*
X292017Y994739D01*
X338186D01*
X338186Y994739D01*
X342442Y995585D01*
X346049Y997995D01*
X436304Y1088251D01*
X438280Y1088644D01*
X442734Y1091620D01*
X444514Y1088955D01*
X450752Y1084787D01*
X453110Y1084318D01*
Y1121252D01*
Y1158186D01*
X450752Y1157717D01*
X448639Y1156305D01*
X443639Y1158977D01*
Y1237614D01*
X456213D01*
Y1257991D01*
X476614D01*
Y1248937D01*
X539606D01*
Y1294213D01*
X516229D01*
Y1321017D01*
X518016Y1321757D01*
X523361Y1325859D01*
X527463Y1331205D01*
X530042Y1337430D01*
X530922Y1344110D01*
X530042Y1350791D01*
X527463Y1357016D01*
X523361Y1362361D01*
X518016Y1366463D01*
X511791Y1369042D01*
X505110Y1369921D01*
D02*
G37*
G36*
X627685Y1264606D02*
X596110D01*
Y1240905D01*
X627685D01*
Y1264606D01*
D02*
G37*
G36*
X586110Y1298307D02*
X554535D01*
Y1274606D01*
X586110D01*
Y1298307D01*
D02*
G37*
G36*
X2046181Y1194955D02*
X2043350Y1194582D01*
X2036052Y1191559D01*
X2029785Y1186751D01*
X2024976Y1180484D01*
X2021953Y1173186D01*
X2021581Y1170354D01*
X2046181D01*
Y1194955D01*
D02*
G37*
G36*
X2474483Y1160354D02*
X2449882D01*
Y1135754D01*
X2452714Y1136127D01*
X2460011Y1139149D01*
X2466278Y1143958D01*
X2471087Y1150225D01*
X2474110Y1157523D01*
X2474483Y1160354D01*
D02*
G37*
G36*
X255110Y1177307D02*
X223535D01*
Y1153606D01*
X255110D01*
Y1177307D01*
D02*
G37*
G36*
X2080782Y1160354D02*
X2056181D01*
Y1135754D01*
X2059013Y1136127D01*
X2066311Y1139149D01*
X2072577Y1143958D01*
X2077386Y1150225D01*
X2080409Y1157523D01*
X2080782Y1160354D01*
D02*
G37*
G36*
X2439882D02*
X2415281D01*
X2415654Y1157523D01*
X2418677Y1150225D01*
X2423486Y1143958D01*
X2429753Y1139149D01*
X2437050Y1136127D01*
X2439882Y1135754D01*
Y1160354D01*
D02*
G37*
G36*
X296685Y1177307D02*
X265110D01*
Y1153606D01*
X296685D01*
Y1177307D01*
D02*
G37*
G36*
X1849331Y1194955D02*
X1846499Y1194582D01*
X1839201Y1191559D01*
X1832935Y1186751D01*
X1828126Y1180484D01*
X1825103Y1173186D01*
X1824730Y1170354D01*
X1849331D01*
Y1194955D01*
D02*
G37*
G36*
X1859331D02*
Y1170354D01*
X1883931D01*
X1883559Y1173186D01*
X1880536Y1180484D01*
X1875727Y1186751D01*
X1869460Y1191559D01*
X1862162Y1194582D01*
X1859331Y1194955D01*
D02*
G37*
G36*
X1652480D02*
X1649649Y1194582D01*
X1642351Y1191559D01*
X1636084Y1186751D01*
X1631275Y1180484D01*
X1628253Y1173186D01*
X1627880Y1170354D01*
X1652480D01*
Y1194955D01*
D02*
G37*
G36*
X1662480D02*
Y1170354D01*
X1687081D01*
X1686708Y1173186D01*
X1683685Y1180484D01*
X1678877Y1186751D01*
X1672610Y1191559D01*
X1665312Y1194582D01*
X1662480Y1194955D01*
D02*
G37*
G36*
X1220000Y1405811D02*
X1213320Y1404932D01*
X1207094Y1402353D01*
X1201749Y1398251D01*
X1197647Y1392906D01*
X1195068Y1386680D01*
X1194189Y1380000D01*
X1195068Y1373320D01*
X1197647Y1367094D01*
X1201749Y1361749D01*
X1207094Y1357647D01*
X1213320Y1355068D01*
X1220000Y1354189D01*
X1226680Y1355068D01*
X1232906Y1357647D01*
X1238251Y1361749D01*
X1242353Y1367094D01*
X1244932Y1373320D01*
X1245811Y1380000D01*
X1244932Y1386680D01*
X1242353Y1392906D01*
X1238251Y1398251D01*
X1232906Y1402353D01*
X1226680Y1404932D01*
X1220000Y1405811D01*
D02*
G37*
G36*
X186102Y1391805D02*
Y1367205D01*
X210703D01*
X210330Y1370036D01*
X207307Y1377334D01*
X202499Y1383601D01*
X196232Y1388410D01*
X188934Y1391433D01*
X186102Y1391805D01*
D02*
G37*
G36*
X2376057Y1357205D02*
X2351457D01*
Y1332604D01*
X2354288Y1332977D01*
X2361586Y1336000D01*
X2367853Y1340809D01*
X2372662Y1347075D01*
X2375685Y1354373D01*
X2376057Y1357205D01*
D02*
G37*
G36*
X1750906D02*
X1726305D01*
X1726678Y1354373D01*
X1727421Y1352579D01*
X1723594Y1348752D01*
X1720480Y1350042D01*
X1713800Y1350921D01*
X1707120Y1350042D01*
X1700894Y1347463D01*
X1695549Y1343361D01*
X1691447Y1338016D01*
X1688868Y1331791D01*
X1687989Y1325110D01*
X1688868Y1318429D01*
X1691447Y1312204D01*
X1695549Y1306859D01*
X1700894Y1302757D01*
X1707120Y1300178D01*
X1713800Y1299299D01*
X1720480Y1300178D01*
X1726706Y1302757D01*
X1732051Y1306859D01*
X1736153Y1312204D01*
X1738732Y1318429D01*
X1739611Y1325110D01*
X1738774Y1331469D01*
X1739570Y1332501D01*
X1742737Y1335188D01*
X1748074Y1332977D01*
X1750906Y1332604D01*
Y1357205D01*
D02*
G37*
G36*
X372953Y1391805D02*
X370121Y1391433D01*
X362823Y1388410D01*
X356557Y1383601D01*
X351748Y1377334D01*
X348725Y1370036D01*
X348352Y1367205D01*
X372953D01*
Y1391805D01*
D02*
G37*
G36*
X1564055D02*
Y1367205D01*
X1588656D01*
X1588283Y1370036D01*
X1585260Y1377334D01*
X1580451Y1383601D01*
X1574185Y1388410D01*
X1566887Y1391433D01*
X1564055Y1391805D01*
D02*
G37*
G36*
X1750906D02*
X1748074Y1391433D01*
X1740776Y1388410D01*
X1734509Y1383601D01*
X1729701Y1377334D01*
X1726678Y1370036D01*
X1726305Y1367205D01*
X1750906D01*
Y1391805D01*
D02*
G37*
G36*
X382953D02*
Y1367205D01*
X407553D01*
X407181Y1370036D01*
X404158Y1377334D01*
X399349Y1383601D01*
X393082Y1388410D01*
X385784Y1391433D01*
X382953Y1391805D01*
D02*
G37*
G36*
X1554055D02*
X1551224Y1391433D01*
X1543926Y1388410D01*
X1537659Y1383601D01*
X1532850Y1377334D01*
X1529827Y1370036D01*
X1529455Y1367205D01*
X1554055D01*
Y1391805D01*
D02*
G37*
G36*
X2341457Y1357205D02*
X2316856D01*
X2317229Y1354373D01*
X2320252Y1347075D01*
X2325061Y1340809D01*
X2331327Y1336000D01*
X2338625Y1332977D01*
X2341457Y1332604D01*
Y1357205D01*
D02*
G37*
G36*
X372953D02*
X348352D01*
X348725Y1354373D01*
X351748Y1347075D01*
X356557Y1340809D01*
X362823Y1336000D01*
X370121Y1332977D01*
X372953Y1332604D01*
Y1357205D01*
D02*
G37*
G36*
X407553D02*
X382953D01*
Y1332604D01*
X385784Y1332977D01*
X393082Y1336000D01*
X399349Y1340809D01*
X404158Y1347075D01*
X407181Y1354373D01*
X407553Y1357205D01*
D02*
G37*
G36*
X1903009Y1363285D02*
X1896328Y1362405D01*
X1890103Y1359827D01*
X1884757Y1355725D01*
X1880656Y1350379D01*
X1878077Y1344154D01*
X1877197Y1337474D01*
X1878077Y1330793D01*
X1880656Y1324568D01*
X1884757Y1319222D01*
X1890103Y1315120D01*
X1896328Y1312542D01*
X1903009Y1311662D01*
X1909689Y1312542D01*
X1915914Y1315120D01*
X1921260Y1319222D01*
X1925362Y1324568D01*
X1927941Y1330793D01*
X1928820Y1337474D01*
X1927941Y1344154D01*
X1925362Y1350379D01*
X1921260Y1355725D01*
X1915914Y1359827D01*
X1909689Y1362405D01*
X1903009Y1363285D01*
D02*
G37*
G36*
X210703Y1357205D02*
X186102D01*
Y1332604D01*
X188934Y1332977D01*
X196232Y1336000D01*
X202499Y1340809D01*
X207307Y1347075D01*
X210330Y1354373D01*
X210703Y1357205D01*
D02*
G37*
G36*
X1554055D02*
X1529455D01*
X1529827Y1354373D01*
X1532850Y1347075D01*
X1537659Y1340809D01*
X1543926Y1336000D01*
X1551224Y1332977D01*
X1554055Y1332604D01*
Y1357205D01*
D02*
G37*
G36*
X2144606D02*
X2120006D01*
X2120378Y1354373D01*
X2123401Y1347075D01*
X2128210Y1340809D01*
X2134477Y1336000D01*
X2141775Y1332977D01*
X2144606Y1332604D01*
Y1357205D01*
D02*
G37*
G36*
X2179207D02*
X2154606D01*
Y1332604D01*
X2157438Y1332977D01*
X2164736Y1336000D01*
X2171003Y1340809D01*
X2175811Y1347075D01*
X2178834Y1354373D01*
X2179207Y1357205D01*
D02*
G37*
G36*
X1588656D02*
X1564055D01*
Y1332604D01*
X1566887Y1332977D01*
X1574185Y1336000D01*
X1580451Y1340809D01*
X1585260Y1347075D01*
X1588283Y1354373D01*
X1588656Y1357205D01*
D02*
G37*
G36*
X1785506D02*
X1760906D01*
Y1332604D01*
X1763737Y1332977D01*
X1771035Y1336000D01*
X1777302Y1340809D01*
X1782111Y1347075D01*
X1785133Y1354373D01*
X1785506Y1357205D01*
D02*
G37*
G36*
X2046181Y1160354D02*
X2021581D01*
X2021953Y1157523D01*
X2024976Y1150225D01*
X2029785Y1143958D01*
X2036052Y1139149D01*
X2043350Y1136127D01*
X2046181Y1135754D01*
Y1160354D01*
D02*
G37*
G36*
X998105Y963504D02*
X973504D01*
Y938903D01*
X976336Y939276D01*
X983633Y942299D01*
X989900Y947108D01*
X994709Y953375D01*
X997732Y960672D01*
X998105Y963504D01*
D02*
G37*
G36*
X1554055D02*
X1529455D01*
X1529827Y960672D01*
X1532850Y953375D01*
X1537659Y947108D01*
X1543926Y942299D01*
X1551224Y939276D01*
X1554055Y938903D01*
Y963504D01*
D02*
G37*
G36*
X604404D02*
X579803D01*
Y938903D01*
X582635Y939276D01*
X589933Y942299D01*
X596199Y947108D01*
X601008Y953375D01*
X604031Y960672D01*
X604404Y963504D01*
D02*
G37*
G36*
X963504D02*
X938903D01*
X939276Y960672D01*
X942299Y953375D01*
X947108Y947108D01*
X953375Y942299D01*
X960672Y939276D01*
X963504Y938903D01*
Y963504D01*
D02*
G37*
G36*
X1588656D02*
X1564055D01*
Y938903D01*
X1566887Y939276D01*
X1574185Y942299D01*
X1580451Y947108D01*
X1585260Y953375D01*
X1588283Y960672D01*
X1588656Y963504D01*
D02*
G37*
G36*
X382953Y998105D02*
Y973504D01*
X407553D01*
X407181Y976336D01*
X404158Y983633D01*
X399349Y989900D01*
X393082Y994709D01*
X385784Y997732D01*
X382953Y998105D01*
D02*
G37*
G36*
X569803D02*
X566972Y997732D01*
X559674Y994709D01*
X553407Y989900D01*
X548598Y983633D01*
X545575Y976336D01*
X545202Y973504D01*
X569803D01*
Y998105D01*
D02*
G37*
G36*
X186102D02*
Y973504D01*
X210703D01*
X210330Y976336D01*
X207307Y983633D01*
X202499Y989900D01*
X196232Y994709D01*
X188934Y997732D01*
X186102Y998105D01*
D02*
G37*
G36*
X372953D02*
X370121Y997732D01*
X362823Y994709D01*
X356557Y989900D01*
X351748Y983633D01*
X348725Y976336D01*
X348352Y973504D01*
X372953D01*
Y998105D01*
D02*
G37*
G36*
X569803Y963504D02*
X545202D01*
X545575Y960672D01*
X548598Y953375D01*
X553407Y947108D01*
X559674Y942299D01*
X566972Y939276D01*
X569803Y938903D01*
Y963504D01*
D02*
G37*
G36*
X2445110Y889320D02*
X2439791Y888620D01*
X2430176Y884637D01*
X2421919Y878301D01*
X2415583Y870044D01*
X2411600Y860429D01*
X2410900Y855110D01*
X2445110D01*
Y889320D01*
D02*
G37*
G36*
X2455110D02*
Y855110D01*
X2489320D01*
X2488620Y860429D01*
X2484637Y870044D01*
X2478301Y878301D01*
X2470044Y884637D01*
X2460429Y888620D01*
X2455110Y889320D01*
D02*
G37*
G36*
X437520Y925902D02*
Y888968D01*
Y852034D01*
X439878Y852504D01*
X446116Y856672D01*
X447896Y859336D01*
X452350Y856361D01*
X458110Y855215D01*
X463871Y856361D01*
X468325Y859336D01*
X470105Y856672D01*
X476343Y852504D01*
X478701Y852034D01*
Y888968D01*
Y925902D01*
X476343Y925433D01*
X470105Y921265D01*
X468325Y918601D01*
X463871Y921576D01*
X458110Y922722D01*
X452350Y921576D01*
X447896Y918601D01*
X446116Y921265D01*
X439878Y925433D01*
X437520Y925902D01*
D02*
G37*
G36*
X488701D02*
Y888968D01*
Y852034D01*
X491059Y852504D01*
X497297Y856672D01*
X499077Y859336D01*
X503531Y856361D01*
X509291Y855215D01*
X515052Y856361D01*
X519506Y859336D01*
X521286Y856672D01*
X527524Y852504D01*
X529882Y852034D01*
Y888968D01*
Y925902D01*
X527524Y925433D01*
X521286Y921265D01*
X519506Y918601D01*
X515052Y921576D01*
X509291Y922722D01*
X503531Y921576D01*
X499077Y918601D01*
X497297Y921265D01*
X491059Y925433D01*
X488701Y925902D01*
D02*
G37*
G36*
X539882D02*
Y888968D01*
Y852034D01*
X542240Y852504D01*
X548478Y856672D01*
X550259Y859336D01*
X554712Y856361D01*
X560473Y855215D01*
X566233Y856361D01*
X571117Y859624D01*
X574380Y864507D01*
X575525Y870268D01*
Y907669D01*
X574380Y913430D01*
X571117Y918313D01*
X566233Y921576D01*
X560473Y922722D01*
X554712Y921576D01*
X550259Y918601D01*
X548478Y921265D01*
X542240Y925433D01*
X539882Y925902D01*
D02*
G37*
G36*
X372953Y963504D02*
X348352D01*
X348725Y960672D01*
X351748Y953375D01*
X356557Y947108D01*
X362823Y942299D01*
X370121Y939276D01*
X372953Y938903D01*
Y963504D01*
D02*
G37*
G36*
X407553D02*
X382953D01*
Y938903D01*
X385784Y939276D01*
X393082Y942299D01*
X399349Y947108D01*
X404158Y953375D01*
X407181Y960672D01*
X407553Y963504D01*
D02*
G37*
G36*
X2005362Y915921D02*
X1998681Y915042D01*
X1992456Y912463D01*
X1987111Y908361D01*
X1983009Y903016D01*
X1980430Y896790D01*
X1979551Y890110D01*
X1980430Y883429D01*
X1983009Y877204D01*
X1987111Y871859D01*
X1992456Y867757D01*
X1998681Y865178D01*
X2005362Y864299D01*
X2012043Y865178D01*
X2018268Y867757D01*
X2023613Y871859D01*
X2027715Y877204D01*
X2030294Y883429D01*
X2031173Y890110D01*
X2030294Y896790D01*
X2027715Y903016D01*
X2023613Y908361D01*
X2018268Y912463D01*
X2012043Y915042D01*
X2005362Y915921D01*
D02*
G37*
G36*
X1856559Y1006221D02*
X1787661D01*
Y949134D01*
X1793007D01*
X1794659Y945179D01*
X1794826Y944134D01*
X1790899Y939016D01*
X1788320Y932791D01*
X1787441Y926110D01*
X1788320Y919430D01*
X1790899Y913205D01*
X1795001Y907859D01*
X1800347Y903757D01*
X1806572Y901178D01*
X1813252Y900299D01*
X1819933Y901178D01*
X1826158Y903757D01*
X1831504Y907859D01*
X1835605Y913205D01*
X1838184Y919430D01*
X1839063Y926110D01*
X1838184Y932791D01*
X1835605Y939016D01*
X1831678Y944134D01*
X1831845Y945179D01*
X1833497Y949134D01*
X1856559D01*
Y1006221D01*
D02*
G37*
G36*
X255110Y1143606D02*
X223535D01*
Y1119905D01*
X255110D01*
Y1143606D01*
D02*
G37*
G36*
X296685D02*
X265110D01*
Y1119905D01*
X296685D01*
Y1143606D01*
D02*
G37*
G36*
X1860654Y1081181D02*
X1827110D01*
Y1053543D01*
X1860654D01*
Y1081181D01*
D02*
G37*
G36*
X2511110Y1143325D02*
X2501737Y1142091D01*
X2493003Y1138474D01*
X2485502Y1132718D01*
X2479747Y1125218D01*
X2476129Y1116483D01*
X2474895Y1107110D01*
X2476129Y1097737D01*
X2479747Y1089003D01*
X2485502Y1081502D01*
X2493003Y1075747D01*
X2501737Y1072129D01*
X2511110Y1070895D01*
X2520483Y1072129D01*
X2529218Y1075747D01*
X2536718Y1081502D01*
X2542474Y1089003D01*
X2546091Y1097737D01*
X2547325Y1107110D01*
X2546091Y1116483D01*
X2542474Y1125218D01*
X2536718Y1132718D01*
X2529218Y1138474D01*
X2520483Y1142091D01*
X2511110Y1143325D01*
D02*
G37*
G36*
X565473Y1158186D02*
Y1126252D01*
X579700D01*
Y1139953D01*
X578237Y1147311D01*
X574069Y1153549D01*
X567831Y1157717D01*
X565473Y1158186D01*
D02*
G37*
G36*
X1849331Y1160354D02*
X1824730D01*
X1825103Y1157523D01*
X1828126Y1150225D01*
X1832935Y1143958D01*
X1839201Y1139149D01*
X1846499Y1136127D01*
X1849331Y1135754D01*
Y1160354D01*
D02*
G37*
G36*
X1883931D02*
X1859331D01*
Y1135754D01*
X1862162Y1136127D01*
X1869460Y1139149D01*
X1875727Y1143958D01*
X1880536Y1150225D01*
X1883559Y1157523D01*
X1883931Y1160354D01*
D02*
G37*
G36*
X1652480D02*
X1627880D01*
X1628253Y1157523D01*
X1631275Y1150225D01*
X1636084Y1143958D01*
X1642351Y1139149D01*
X1649649Y1136127D01*
X1652480Y1135754D01*
Y1160354D01*
D02*
G37*
G36*
X1687081D02*
X1662480D01*
Y1135754D01*
X1665312Y1136127D01*
X1672610Y1139149D01*
X1678877Y1143958D01*
X1683685Y1150225D01*
X1686708Y1157523D01*
X1687081Y1160354D01*
D02*
G37*
G36*
X1817110Y1081181D02*
X1783567D01*
Y1053543D01*
X1817110D01*
Y1081181D01*
D02*
G37*
G36*
X973504Y998105D02*
Y973504D01*
X998105D01*
X997732Y976336D01*
X994709Y983633D01*
X989900Y989900D01*
X983633Y994709D01*
X976336Y997732D01*
X973504Y998105D01*
D02*
G37*
G36*
X1554055D02*
X1551224Y997732D01*
X1543926Y994709D01*
X1537659Y989900D01*
X1532850Y983633D01*
X1529827Y976336D01*
X1529455Y973504D01*
X1554055D01*
Y998105D01*
D02*
G37*
G36*
X579803D02*
Y973504D01*
X604404D01*
X604031Y976336D01*
X601008Y983633D01*
X596199Y989900D01*
X589933Y994709D01*
X582635Y997732D01*
X579803Y998105D01*
D02*
G37*
G36*
X963504D02*
X960672Y997732D01*
X953375Y994709D01*
X947108Y989900D01*
X942299Y983633D01*
X939276Y976336D01*
X938903Y973504D01*
X963504D01*
Y998105D01*
D02*
G37*
G36*
X1564055D02*
Y973504D01*
X1588656D01*
X1588283Y976336D01*
X1585260Y983633D01*
X1580451Y989900D01*
X1574185Y994709D01*
X1566887Y997732D01*
X1564055Y998105D01*
D02*
G37*
G36*
X1860654Y1043543D02*
X1827110D01*
Y1015905D01*
X1860654D01*
Y1043543D01*
D02*
G37*
G36*
X1099110Y1078921D02*
X1092430Y1078042D01*
X1086205Y1075463D01*
X1080859Y1071361D01*
X1076757Y1066016D01*
X1074178Y1059791D01*
X1073299Y1053110D01*
X1074178Y1046430D01*
X1076757Y1040205D01*
X1080859Y1034859D01*
X1086205Y1030757D01*
X1092430Y1028178D01*
X1099110Y1027299D01*
X1105791Y1028178D01*
X1112016Y1030757D01*
X1117361Y1034859D01*
X1121463Y1040205D01*
X1124042Y1046430D01*
X1124921Y1053110D01*
X1124042Y1059791D01*
X1121463Y1066016D01*
X1117361Y1071361D01*
X1112016Y1075463D01*
X1105791Y1078042D01*
X1099110Y1078921D01*
D02*
G37*
G36*
X2015488Y1064591D02*
X2008807Y1063712D01*
X2002582Y1061133D01*
X1997237Y1057031D01*
X1993135Y1051686D01*
X1990556Y1045460D01*
X1989677Y1038780D01*
X1990556Y1032100D01*
X1993135Y1025874D01*
X1997237Y1020529D01*
X2002582Y1016427D01*
X2008807Y1013848D01*
X2015488Y1012969D01*
X2022168Y1013848D01*
X2028394Y1016427D01*
X2033739Y1020529D01*
X2037841Y1025874D01*
X2040420Y1032100D01*
X2041299Y1038780D01*
X2040420Y1045460D01*
X2037841Y1051686D01*
X2033739Y1057031D01*
X2028394Y1061133D01*
X2022168Y1063712D01*
X2015488Y1064591D01*
D02*
G37*
G36*
X1817110Y1043543D02*
X1783567D01*
Y1015905D01*
X1817110D01*
Y1043543D01*
D02*
G37*
G36*
X1160354Y1785506D02*
X1157523Y1785133D01*
X1150225Y1782111D01*
X1143958Y1777302D01*
X1139149Y1771035D01*
X1136127Y1763737D01*
X1135754Y1760906D01*
X1160354D01*
Y1785506D01*
D02*
G37*
G36*
X1170354D02*
Y1760906D01*
X1194955D01*
X1194582Y1763737D01*
X1191559Y1771035D01*
X1186751Y1777302D01*
X1180484Y1782111D01*
X1173186Y1785133D01*
X1170354Y1785506D01*
D02*
G37*
G36*
X963504D02*
X960672Y1785133D01*
X953375Y1782111D01*
X947108Y1777302D01*
X942299Y1771035D01*
X939276Y1763737D01*
X938903Y1760906D01*
X963504D01*
Y1785506D01*
D02*
G37*
G36*
X973504D02*
Y1760906D01*
X998105D01*
X997732Y1763737D01*
X994709Y1771035D01*
X989900Y1777302D01*
X983633Y1782111D01*
X976336Y1785133D01*
X973504Y1785506D01*
D02*
G37*
G36*
X1357205D02*
X1354373Y1785133D01*
X1347075Y1782111D01*
X1340809Y1777302D01*
X1336000Y1771035D01*
X1332977Y1763737D01*
X1332604Y1760906D01*
X1357205D01*
Y1785506D01*
D02*
G37*
G36*
X1564055D02*
Y1760906D01*
X1588656D01*
X1588283Y1763737D01*
X1585260Y1771035D01*
X1580451Y1777302D01*
X1574185Y1782111D01*
X1566887Y1785133D01*
X1564055Y1785506D01*
D02*
G37*
G36*
X1947756D02*
X1944924Y1785133D01*
X1937627Y1782111D01*
X1931360Y1777302D01*
X1926551Y1771035D01*
X1923528Y1763737D01*
X1923155Y1760906D01*
X1947756D01*
Y1785506D01*
D02*
G37*
G36*
X1367205D02*
Y1760906D01*
X1391805D01*
X1391433Y1763737D01*
X1388410Y1771035D01*
X1383601Y1777302D01*
X1377334Y1782111D01*
X1370036Y1785133D01*
X1367205Y1785506D01*
D02*
G37*
G36*
X1554055D02*
X1551224Y1785133D01*
X1543926Y1782111D01*
X1537659Y1777302D01*
X1532850Y1771035D01*
X1529827Y1763737D01*
X1529455Y1760906D01*
X1554055D01*
Y1785506D01*
D02*
G37*
G36*
X776654D02*
Y1760906D01*
X801254D01*
X800881Y1763737D01*
X797859Y1771035D01*
X793050Y1777302D01*
X786783Y1782111D01*
X779485Y1785133D01*
X776654Y1785506D01*
D02*
G37*
G36*
X1982357Y1750906D02*
X1957756D01*
Y1726305D01*
X1960588Y1726678D01*
X1967885Y1729701D01*
X1974152Y1734509D01*
X1978961Y1740776D01*
X1981984Y1748074D01*
X1982357Y1750906D01*
D02*
G37*
G36*
X2376057D02*
X2351457D01*
Y1726305D01*
X2354288Y1726678D01*
X2361586Y1729701D01*
X2367853Y1734509D01*
X2372662Y1740776D01*
X2375685Y1748074D01*
X2376057Y1750906D01*
D02*
G37*
G36*
X1588656D02*
X1564055D01*
Y1726305D01*
X1566887Y1726678D01*
X1574185Y1729701D01*
X1580451Y1734509D01*
X1585260Y1740776D01*
X1588283Y1748074D01*
X1588656Y1750906D01*
D02*
G37*
G36*
X1947756D02*
X1923155D01*
X1923528Y1748074D01*
X1926551Y1740776D01*
X1931360Y1734509D01*
X1937627Y1729701D01*
X1944924Y1726678D01*
X1947756Y1726305D01*
Y1750906D01*
D02*
G37*
G36*
X372953Y1785506D02*
X370121Y1785133D01*
X362823Y1782111D01*
X356557Y1777302D01*
X351748Y1771035D01*
X348725Y1763737D01*
X348352Y1760906D01*
X372953D01*
Y1785506D01*
D02*
G37*
G36*
X579803D02*
Y1760906D01*
X604404D01*
X604031Y1763737D01*
X601008Y1771035D01*
X596199Y1777302D01*
X589933Y1782111D01*
X582635Y1785133D01*
X579803Y1785506D01*
D02*
G37*
G36*
X766654D02*
X763822Y1785133D01*
X756524Y1782111D01*
X750257Y1777302D01*
X745449Y1771035D01*
X742426Y1763737D01*
X742053Y1760906D01*
X766654D01*
Y1785506D01*
D02*
G37*
G36*
X382953D02*
Y1760906D01*
X407553D01*
X407181Y1763737D01*
X404158Y1771035D01*
X399349Y1777302D01*
X393082Y1782111D01*
X385784Y1785133D01*
X382953Y1785506D01*
D02*
G37*
G36*
X569803D02*
X566972Y1785133D01*
X559674Y1782111D01*
X553407Y1777302D01*
X548598Y1771035D01*
X545575Y1763737D01*
X545202Y1760906D01*
X569803D01*
Y1785506D01*
D02*
G37*
G36*
X1814134Y1945307D02*
X1804884Y1944089D01*
X1796265Y1940519D01*
X1788863Y1934839D01*
X1783183Y1927437D01*
X1779613Y1918818D01*
X1778395Y1909568D01*
X1779613Y1900318D01*
X1783183Y1891699D01*
X1788863Y1884297D01*
X1796265Y1878617D01*
X1804884Y1875047D01*
X1814134Y1873829D01*
X1823384Y1875047D01*
X1832003Y1878617D01*
X1839405Y1884297D01*
X1845085Y1891699D01*
X1847881Y1898449D01*
X1865551D01*
Y1881889D01*
X1934449D01*
Y1938976D01*
X1896039D01*
X1893933Y1940383D01*
X1889678Y1941229D01*
X1885423Y1940383D01*
X1883317Y1938976D01*
X1865551D01*
Y1920687D01*
X1847881D01*
X1845085Y1927437D01*
X1839405Y1934839D01*
X1832003Y1940519D01*
X1823384Y1944089D01*
X1814134Y1945307D01*
D02*
G37*
G36*
X1258780Y1947756D02*
X1234179D01*
X1234552Y1944924D01*
X1237575Y1937627D01*
X1242383Y1931360D01*
X1248650Y1926551D01*
X1255948Y1923528D01*
X1258780Y1923155D01*
Y1947756D01*
D02*
G37*
G36*
X2020000Y1872205D02*
X1986457D01*
Y1844567D01*
X2020000D01*
Y1872205D01*
D02*
G37*
G36*
X2063543D02*
X2030000D01*
Y1844567D01*
X2063543D01*
Y1872205D01*
D02*
G37*
G36*
X1293380Y1947756D02*
X1268780D01*
Y1923155D01*
X1271611Y1923528D01*
X1278909Y1926551D01*
X1285176Y1931360D01*
X1289985Y1937627D01*
X1293007Y1944924D01*
X1293380Y1947756D01*
D02*
G37*
G36*
X2439882D02*
X2415281D01*
X2415654Y1944924D01*
X2418677Y1937627D01*
X2423486Y1931360D01*
X2429753Y1926551D01*
X2437050Y1923528D01*
X2439882Y1923155D01*
Y1947756D01*
D02*
G37*
G36*
X2474483D02*
X2449882D01*
Y1923155D01*
X2452714Y1923528D01*
X2460011Y1926551D01*
X2466278Y1931360D01*
X2471087Y1937627D01*
X2474110Y1944924D01*
X2474483Y1947756D01*
D02*
G37*
G36*
X1652480D02*
X1627880D01*
X1628253Y1944924D01*
X1631275Y1937627D01*
X1636084Y1931360D01*
X1642351Y1926551D01*
X1649649Y1923528D01*
X1652480Y1923155D01*
Y1947756D01*
D02*
G37*
G36*
X1687081D02*
X1662480D01*
Y1923155D01*
X1665312Y1923528D01*
X1672610Y1926551D01*
X1678877Y1931360D01*
X1683685Y1937627D01*
X1686708Y1944924D01*
X1687081Y1947756D01*
D02*
G37*
G36*
X1938543Y1872204D02*
X1905000D01*
Y1844566D01*
X1938543D01*
Y1872204D01*
D02*
G37*
G36*
X2351457Y1785506D02*
Y1760906D01*
X2376057D01*
X2375685Y1763737D01*
X2372662Y1771035D01*
X2367853Y1777302D01*
X2361586Y1782111D01*
X2354288Y1785133D01*
X2351457Y1785506D01*
D02*
G37*
G36*
X1895000Y1834566D02*
X1861457D01*
Y1806928D01*
X1895000D01*
Y1834566D01*
D02*
G37*
G36*
X1957756Y1785506D02*
Y1760906D01*
X1982357D01*
X1981984Y1763737D01*
X1978961Y1771035D01*
X1974152Y1777302D01*
X1967885Y1782111D01*
X1960588Y1785133D01*
X1957756Y1785506D01*
D02*
G37*
G36*
X2341457D02*
X2338625Y1785133D01*
X2331327Y1782111D01*
X2325061Y1777302D01*
X2320252Y1771035D01*
X2317229Y1763737D01*
X2316856Y1760906D01*
X2341457D01*
Y1785506D01*
D02*
G37*
G36*
X1938543Y1834566D02*
X1905000D01*
Y1806928D01*
X1938543D01*
Y1834566D01*
D02*
G37*
G36*
X250110Y1885849D02*
X240860Y1884631D01*
X232241Y1881061D01*
X224839Y1875381D01*
X219159Y1867979D01*
X215589Y1859360D01*
X214371Y1850110D01*
X215589Y1840860D01*
X219159Y1832241D01*
X224839Y1824839D01*
X232241Y1819159D01*
X240860Y1815589D01*
X250110Y1814371D01*
X259360Y1815589D01*
X267979Y1819159D01*
X275381Y1824839D01*
X281061Y1832241D01*
X284631Y1840860D01*
X285849Y1850110D01*
X284631Y1859360D01*
X281061Y1867979D01*
X275381Y1875381D01*
X267979Y1881061D01*
X259360Y1884631D01*
X250110Y1885849D01*
D02*
G37*
G36*
X1895000Y1872204D02*
X1861457D01*
Y1844566D01*
X1895000D01*
Y1872204D01*
D02*
G37*
G36*
X2020000Y1834567D02*
X1986457D01*
Y1806929D01*
X2020000D01*
Y1834567D01*
D02*
G37*
G36*
X2063543D02*
X2030000D01*
Y1806929D01*
X2063543D01*
Y1834567D01*
D02*
G37*
G36*
X1554055Y1750906D02*
X1529455D01*
X1529827Y1748074D01*
X1532850Y1740776D01*
X1537659Y1734509D01*
X1543926Y1729701D01*
X1551224Y1726678D01*
X1554055Y1726305D01*
Y1750906D01*
D02*
G37*
G36*
X2046181Y1554055D02*
X2021581D01*
X2021953Y1551224D01*
X2024976Y1543926D01*
X2029785Y1537659D01*
X2036052Y1532850D01*
X2043350Y1529827D01*
X2046181Y1529455D01*
Y1554055D01*
D02*
G37*
G36*
X2080782D02*
X2056181D01*
Y1529455D01*
X2059013Y1529827D01*
X2066311Y1532850D01*
X2072577Y1537659D01*
X2077386Y1543926D01*
X2080409Y1551224D01*
X2080782Y1554055D01*
D02*
G37*
G36*
X1652480D02*
X1627880D01*
X1628253Y1551224D01*
X1631275Y1543926D01*
X1636084Y1537659D01*
X1642351Y1532850D01*
X1649649Y1529827D01*
X1652480Y1529455D01*
Y1554055D01*
D02*
G37*
G36*
X1687081D02*
X1662480D01*
Y1529455D01*
X1665312Y1529827D01*
X1672610Y1532850D01*
X1678877Y1537659D01*
X1683685Y1543926D01*
X1686708Y1551224D01*
X1687081Y1554055D01*
D02*
G37*
G36*
X274528Y1588656D02*
X271696Y1588283D01*
X264398Y1585260D01*
X258131Y1580451D01*
X253323Y1574185D01*
X250300Y1566887D01*
X249927Y1564055D01*
X274528D01*
Y1588656D01*
D02*
G37*
G36*
X1652480D02*
X1649649Y1588283D01*
X1642351Y1585260D01*
X1636084Y1580451D01*
X1631275Y1574185D01*
X1628253Y1566887D01*
X1627880Y1564055D01*
X1652480D01*
Y1588656D01*
D02*
G37*
G36*
X1662480D02*
Y1564055D01*
X1687081D01*
X1686708Y1566887D01*
X1683685Y1574185D01*
X1678877Y1580451D01*
X1672610Y1585260D01*
X1665312Y1588283D01*
X1662480Y1588656D01*
D02*
G37*
G36*
X1455630D02*
X1452798Y1588283D01*
X1445501Y1585260D01*
X1439234Y1580451D01*
X1434425Y1574185D01*
X1431402Y1566887D01*
X1431029Y1564055D01*
X1455630D01*
Y1588656D01*
D02*
G37*
G36*
X1465630D02*
Y1564055D01*
X1490231D01*
X1489858Y1566887D01*
X1486835Y1574185D01*
X1482026Y1580451D01*
X1475759Y1585260D01*
X1468462Y1588283D01*
X1465630Y1588656D01*
D02*
G37*
G36*
X1490231Y1554055D02*
X1465630D01*
Y1529455D01*
X1468462Y1529827D01*
X1475759Y1532850D01*
X1482026Y1537659D01*
X1486835Y1543926D01*
X1489858Y1551224D01*
X1490231Y1554055D01*
D02*
G37*
G36*
X2154606Y1391805D02*
Y1367205D01*
X2179207D01*
X2178834Y1370036D01*
X2175811Y1377334D01*
X2171003Y1383601D01*
X2164736Y1388410D01*
X2157438Y1391433D01*
X2154606Y1391805D01*
D02*
G37*
G36*
X2341457D02*
X2338625Y1391433D01*
X2331327Y1388410D01*
X2325061Y1383601D01*
X2320252Y1377334D01*
X2317229Y1370036D01*
X2316856Y1367205D01*
X2341457D01*
Y1391805D01*
D02*
G37*
G36*
X1760906D02*
Y1367205D01*
X1785506D01*
X1785133Y1370036D01*
X1782111Y1377334D01*
X1777302Y1383601D01*
X1771035Y1388410D01*
X1763737Y1391433D01*
X1760906Y1391805D01*
D02*
G37*
G36*
X2144606D02*
X2141775Y1391433D01*
X2134477Y1388410D01*
X2128210Y1383601D01*
X2123401Y1377334D01*
X2120378Y1370036D01*
X2120006Y1367205D01*
X2144606D01*
Y1391805D01*
D02*
G37*
G36*
X2351457D02*
Y1367205D01*
X2376057D01*
X2375685Y1370036D01*
X2372662Y1377334D01*
X2367853Y1383601D01*
X2361586Y1388410D01*
X2354288Y1391433D01*
X2351457Y1391805D01*
D02*
G37*
G36*
X309128Y1554055D02*
X284528D01*
Y1529455D01*
X287359Y1529827D01*
X294657Y1532850D01*
X300924Y1537659D01*
X305733Y1543926D01*
X308755Y1551224D01*
X309128Y1554055D01*
D02*
G37*
G36*
X1455630D02*
X1431029D01*
X1431402Y1551224D01*
X1434425Y1543926D01*
X1439234Y1537659D01*
X1445501Y1532850D01*
X1452798Y1529827D01*
X1455630Y1529455D01*
Y1554055D01*
D02*
G37*
G36*
X1132110Y1499325D02*
X1122737Y1498091D01*
X1114003Y1494474D01*
X1106502Y1488718D01*
X1100747Y1481218D01*
X1097129Y1472483D01*
X1095895Y1463110D01*
X1097129Y1453737D01*
X1100747Y1445003D01*
X1106502Y1437502D01*
X1114003Y1431747D01*
X1122737Y1428129D01*
X1132110Y1426895D01*
X1141483Y1428129D01*
X1150218Y1431747D01*
X1157718Y1437502D01*
X1163474Y1445003D01*
X1167091Y1453737D01*
X1168325Y1463110D01*
X1167091Y1472483D01*
X1163474Y1481218D01*
X1157718Y1488718D01*
X1150218Y1494474D01*
X1141483Y1498091D01*
X1132110Y1499325D01*
D02*
G37*
G36*
X274528Y1554055D02*
X249927D01*
X250300Y1551224D01*
X253323Y1543926D01*
X258131Y1537659D01*
X264398Y1532850D01*
X271696Y1529827D01*
X274528Y1529455D01*
Y1554055D01*
D02*
G37*
G36*
X801254Y1750906D02*
X776654D01*
Y1726305D01*
X779485Y1726678D01*
X786783Y1729701D01*
X793050Y1734509D01*
X797859Y1740776D01*
X800881Y1748074D01*
X801254Y1750906D01*
D02*
G37*
G36*
X963504D02*
X938903D01*
X939276Y1748074D01*
X942299Y1740776D01*
X947108Y1734509D01*
X953375Y1729701D01*
X960672Y1726678D01*
X963504Y1726305D01*
Y1750906D01*
D02*
G37*
G36*
X604404D02*
X579803D01*
Y1726305D01*
X582635Y1726678D01*
X589933Y1729701D01*
X596199Y1734509D01*
X601008Y1740776D01*
X604031Y1748074D01*
X604404Y1750906D01*
D02*
G37*
G36*
X766654D02*
X742053D01*
X742426Y1748074D01*
X745449Y1740776D01*
X750257Y1734509D01*
X756524Y1729701D01*
X763822Y1726678D01*
X766654Y1726305D01*
Y1750906D01*
D02*
G37*
G36*
X998105D02*
X973504D01*
Y1726305D01*
X976336Y1726678D01*
X983633Y1729701D01*
X989900Y1734509D01*
X994709Y1740776D01*
X997732Y1748074D01*
X998105Y1750906D01*
D02*
G37*
G36*
X1357205D02*
X1332604D01*
X1332977Y1748074D01*
X1336000Y1740776D01*
X1340809Y1734509D01*
X1347075Y1729701D01*
X1354373Y1726678D01*
X1357205Y1726305D01*
Y1750906D01*
D02*
G37*
G36*
X1391805D02*
X1367205D01*
Y1726305D01*
X1370036Y1726678D01*
X1377334Y1729701D01*
X1383601Y1734509D01*
X1388410Y1740776D01*
X1391433Y1748074D01*
X1391805Y1750906D01*
D02*
G37*
G36*
X1160354D02*
X1135754D01*
X1136127Y1748074D01*
X1139149Y1740776D01*
X1143958Y1734509D01*
X1150225Y1729701D01*
X1157523Y1726678D01*
X1160354Y1726305D01*
Y1750906D01*
D02*
G37*
G36*
X1194955D02*
X1170354D01*
Y1726305D01*
X1173186Y1726678D01*
X1180484Y1729701D01*
X1186751Y1734509D01*
X1191559Y1740776D01*
X1194582Y1748074D01*
X1194955Y1750906D01*
D02*
G37*
G36*
X569803D02*
X545202D01*
X545575Y1748074D01*
X548598Y1740776D01*
X553407Y1734509D01*
X559674Y1729701D01*
X566972Y1726678D01*
X569803Y1726305D01*
Y1750906D01*
D02*
G37*
G36*
X145110Y1645110D02*
X110900D01*
X111600Y1639791D01*
X115583Y1630176D01*
X121919Y1621919D01*
X130176Y1615583D01*
X139791Y1611600D01*
X145110Y1610900D01*
Y1645110D01*
D02*
G37*
G36*
X189320D02*
X155110D01*
Y1610900D01*
X160429Y1611600D01*
X170044Y1615583D01*
X178301Y1621919D01*
X184637Y1630176D01*
X188620Y1639791D01*
X189320Y1645110D01*
D02*
G37*
G36*
X2046181Y1588656D02*
X2043350Y1588283D01*
X2036052Y1585260D01*
X2029785Y1580451D01*
X2024976Y1574185D01*
X2021953Y1566887D01*
X2021581Y1564055D01*
X2046181D01*
Y1588656D01*
D02*
G37*
G36*
X2056181D02*
Y1564055D01*
X2080782D01*
X2080409Y1566887D01*
X2077386Y1574185D01*
X2072577Y1580451D01*
X2066311Y1585260D01*
X2059013Y1588283D01*
X2056181Y1588656D01*
D02*
G37*
G36*
X145110Y1689320D02*
X139791Y1688620D01*
X130176Y1684637D01*
X121919Y1678301D01*
X115583Y1670044D01*
X111600Y1660429D01*
X110900Y1655110D01*
X145110D01*
Y1689320D01*
D02*
G37*
G36*
X372953Y1750906D02*
X348352D01*
X348725Y1748074D01*
X351748Y1740776D01*
X356557Y1734509D01*
X362823Y1729701D01*
X370121Y1726678D01*
X372953Y1726305D01*
Y1750906D01*
D02*
G37*
G36*
X407553D02*
X382953D01*
Y1726305D01*
X385784Y1726678D01*
X393082Y1729701D01*
X399349Y1734509D01*
X404158Y1740776D01*
X407181Y1748074D01*
X407553Y1750906D01*
D02*
G37*
G36*
X155110Y1689320D02*
Y1655110D01*
X189320D01*
X188620Y1660429D01*
X184637Y1670044D01*
X178301Y1678301D01*
X170044Y1684637D01*
X160429Y1688620D01*
X155110Y1689320D01*
D02*
G37*
G36*
X250110Y1785849D02*
X240860Y1784631D01*
X232241Y1781061D01*
X224839Y1775381D01*
X219159Y1767979D01*
X215589Y1759360D01*
X214371Y1750110D01*
X215589Y1740860D01*
X219159Y1732241D01*
X224839Y1724839D01*
X232241Y1719159D01*
X240860Y1715589D01*
X250110Y1714371D01*
X259360Y1715589D01*
X267979Y1719159D01*
X275381Y1724839D01*
X281061Y1732241D01*
X284631Y1740860D01*
X285849Y1750110D01*
X284631Y1759360D01*
X281061Y1767979D01*
X275381Y1775381D01*
X267979Y1781061D01*
X259360Y1784631D01*
X250110Y1785849D01*
D02*
G37*
G36*
X1096530Y372953D02*
X1071929D01*
Y348352D01*
X1074761Y348725D01*
X1082059Y351748D01*
X1088325Y356557D01*
X1093134Y362823D01*
X1096157Y370121D01*
X1096530Y372953D01*
D02*
G37*
G36*
X1258780D02*
X1234179D01*
X1234552Y370121D01*
X1237575Y362823D01*
X1242383Y356557D01*
X1248650Y351748D01*
X1255948Y348725D01*
X1258780Y348352D01*
Y372953D01*
D02*
G37*
G36*
X899679D02*
X875079D01*
Y348352D01*
X877910Y348725D01*
X885208Y351748D01*
X891475Y356557D01*
X896284Y362823D01*
X899307Y370121D01*
X899679Y372953D01*
D02*
G37*
G36*
X1061929D02*
X1037329D01*
X1037701Y370121D01*
X1040724Y362823D01*
X1045533Y356557D01*
X1051800Y351748D01*
X1059098Y348725D01*
X1061929Y348352D01*
Y372953D01*
D02*
G37*
G36*
X1293380D02*
X1268780D01*
Y348352D01*
X1271611Y348725D01*
X1278909Y351748D01*
X1285176Y356557D01*
X1289985Y362823D01*
X1293007Y370121D01*
X1293380Y372953D01*
D02*
G37*
G36*
X1652480D02*
X1627880D01*
X1628253Y370121D01*
X1631275Y362823D01*
X1636084Y356557D01*
X1642351Y351748D01*
X1649649Y348725D01*
X1652480Y348352D01*
Y372953D01*
D02*
G37*
G36*
X1687081D02*
X1662480D01*
Y348352D01*
X1665312Y348725D01*
X1672610Y351748D01*
X1678877Y356557D01*
X1683685Y362823D01*
X1686708Y370121D01*
X1687081Y372953D01*
D02*
G37*
G36*
X1455630D02*
X1431029D01*
X1431402Y370121D01*
X1434425Y362823D01*
X1439234Y356557D01*
X1445501Y351748D01*
X1452798Y348725D01*
X1455630Y348352D01*
Y372953D01*
D02*
G37*
G36*
X1490231D02*
X1465630D01*
Y348352D01*
X1468462Y348725D01*
X1475759Y351748D01*
X1482026Y356557D01*
X1486835Y362823D01*
X1489858Y370121D01*
X1490231Y372953D01*
D02*
G37*
G36*
X865079D02*
X840478D01*
X840851Y370121D01*
X843874Y362823D01*
X848683Y356557D01*
X854949Y351748D01*
X862247Y348725D01*
X865079Y348352D01*
Y372953D01*
D02*
G37*
G36*
X2351457Y210703D02*
Y186102D01*
X2376057D01*
X2375685Y188934D01*
X2372662Y196232D01*
X2367853Y202499D01*
X2361586Y207307D01*
X2354288Y210330D01*
X2351457Y210703D01*
D02*
G37*
G36*
X274528Y372953D02*
X249927D01*
X250300Y370121D01*
X253323Y362823D01*
X258131Y356557D01*
X264398Y351748D01*
X271696Y348725D01*
X274528Y348352D01*
Y372953D01*
D02*
G37*
G36*
X2154606Y210703D02*
Y186102D01*
X2179207D01*
X2178834Y188934D01*
X2175811Y196232D01*
X2171003Y202499D01*
X2164736Y207307D01*
X2157438Y210330D01*
X2154606Y210703D01*
D02*
G37*
G36*
X2341457D02*
X2338625Y210330D01*
X2331327Y207307D01*
X2325061Y202499D01*
X2320252Y196232D01*
X2317229Y188934D01*
X2316856Y186102D01*
X2341457D01*
Y210703D01*
D02*
G37*
G36*
X309128Y372953D02*
X284528D01*
Y348352D01*
X287359Y348725D01*
X294657Y351748D01*
X300924Y356557D01*
X305733Y362823D01*
X308755Y370121D01*
X309128Y372953D01*
D02*
G37*
G36*
X668228D02*
X643628D01*
X644000Y370121D01*
X647023Y362823D01*
X651832Y356557D01*
X658099Y351748D01*
X665397Y348725D01*
X668228Y348352D01*
Y372953D01*
D02*
G37*
G36*
X702829D02*
X678228D01*
Y348352D01*
X681060Y348725D01*
X688358Y351748D01*
X694625Y356557D01*
X699433Y362823D01*
X702456Y370121D01*
X702829Y372953D01*
D02*
G37*
G36*
X471378D02*
X446777D01*
X447150Y370121D01*
X450173Y362823D01*
X454982Y356557D01*
X461249Y351748D01*
X468546Y348725D01*
X471378Y348352D01*
Y372953D01*
D02*
G37*
G36*
X505979D02*
X481378D01*
Y348352D01*
X484210Y348725D01*
X491507Y351748D01*
X497774Y356557D01*
X502583Y362823D01*
X505606Y370121D01*
X505979Y372953D01*
D02*
G37*
G36*
X1061929Y407553D02*
X1059098Y407181D01*
X1051800Y404158D01*
X1045533Y399349D01*
X1040724Y393082D01*
X1037701Y385784D01*
X1037329Y382953D01*
X1061929D01*
Y407553D01*
D02*
G37*
G36*
X1071929D02*
Y382953D01*
X1096530D01*
X1096157Y385784D01*
X1093134Y393082D01*
X1088325Y399349D01*
X1082059Y404158D01*
X1074761Y407181D01*
X1071929Y407553D01*
D02*
G37*
G36*
X865079D02*
X862247Y407181D01*
X854949Y404158D01*
X848683Y399349D01*
X843874Y393082D01*
X840851Y385784D01*
X840478Y382953D01*
X865079D01*
Y407553D01*
D02*
G37*
G36*
X875079D02*
Y382953D01*
X899679D01*
X899307Y385784D01*
X896284Y393082D01*
X891475Y399349D01*
X885208Y404158D01*
X877910Y407181D01*
X875079Y407553D01*
D02*
G37*
G36*
X1258780D02*
X1255948Y407181D01*
X1248650Y404158D01*
X1242383Y399349D01*
X1237575Y393082D01*
X1234552Y385784D01*
X1234179Y382953D01*
X1258780D01*
Y407553D01*
D02*
G37*
G36*
X1465630D02*
Y382953D01*
X1490231D01*
X1489858Y385784D01*
X1486835Y393082D01*
X1482026Y399349D01*
X1475759Y404158D01*
X1468462Y407181D01*
X1465630Y407553D01*
D02*
G37*
G36*
X1652480D02*
X1649649Y407181D01*
X1642351Y404158D01*
X1636084Y399349D01*
X1631275Y393082D01*
X1628253Y385784D01*
X1627880Y382953D01*
X1652480D01*
Y407553D01*
D02*
G37*
G36*
X1268780D02*
Y382953D01*
X1293380D01*
X1293007Y385784D01*
X1289985Y393082D01*
X1285176Y399349D01*
X1278909Y404158D01*
X1271611Y407181D01*
X1268780Y407553D01*
D02*
G37*
G36*
X1455630D02*
X1452798Y407181D01*
X1445501Y404158D01*
X1439234Y399349D01*
X1434425Y393082D01*
X1431402Y385784D01*
X1431029Y382953D01*
X1455630D01*
Y407553D01*
D02*
G37*
G36*
X678228D02*
Y382953D01*
X702829D01*
X702456Y385784D01*
X699433Y393082D01*
X694625Y399349D01*
X688358Y404158D01*
X681060Y407181D01*
X678228Y407553D01*
D02*
G37*
G36*
X2046181Y372953D02*
X2021581D01*
X2021953Y370121D01*
X2024976Y362823D01*
X2029785Y356557D01*
X2036052Y351748D01*
X2043350Y348725D01*
X2046181Y348352D01*
Y372953D01*
D02*
G37*
G36*
X2080782D02*
X2056181D01*
Y348352D01*
X2059013Y348725D01*
X2066311Y351748D01*
X2072577Y356557D01*
X2077386Y362823D01*
X2080409Y370121D01*
X2080782Y372953D01*
D02*
G37*
G36*
X1849331D02*
X1824730D01*
X1825103Y370121D01*
X1828126Y362823D01*
X1832935Y356557D01*
X1839201Y351748D01*
X1846499Y348725D01*
X1849331Y348352D01*
Y372953D01*
D02*
G37*
G36*
X1883931D02*
X1859331D01*
Y348352D01*
X1862162Y348725D01*
X1869460Y351748D01*
X1875727Y356557D01*
X1880536Y362823D01*
X1883559Y370121D01*
X1883931Y372953D01*
D02*
G37*
G36*
X274528Y407553D02*
X271696Y407181D01*
X264398Y404158D01*
X258131Y399349D01*
X253323Y393082D01*
X250300Y385784D01*
X249927Y382953D01*
X274528D01*
Y407553D01*
D02*
G37*
G36*
X481378D02*
Y382953D01*
X505979D01*
X505606Y385784D01*
X502583Y393082D01*
X497774Y399349D01*
X491507Y404158D01*
X484210Y407181D01*
X481378Y407553D01*
D02*
G37*
G36*
X668228D02*
X665397Y407181D01*
X658099Y404158D01*
X651832Y399349D01*
X647023Y393082D01*
X644000Y385784D01*
X643628Y382953D01*
X668228D01*
Y407553D01*
D02*
G37*
G36*
X284528D02*
Y382953D01*
X309128D01*
X308755Y385784D01*
X305733Y393082D01*
X300924Y399349D01*
X294657Y404158D01*
X287359Y407181D01*
X284528Y407553D01*
D02*
G37*
G36*
X471378D02*
X468546Y407181D01*
X461249Y404158D01*
X454982Y399349D01*
X450173Y393082D01*
X447150Y385784D01*
X446777Y382953D01*
X471378D01*
Y407553D01*
D02*
G37*
G36*
X2144606Y210703D02*
X2141775Y210330D01*
X2134477Y207307D01*
X2128210Y202499D01*
X2123401Y196232D01*
X2120378Y188934D01*
X2120006Y186102D01*
X2144606D01*
Y210703D01*
D02*
G37*
G36*
X1554055Y176102D02*
X1529455D01*
X1529827Y173271D01*
X1532850Y165973D01*
X1537659Y159706D01*
X1543926Y154897D01*
X1551224Y151875D01*
X1554055Y151502D01*
Y176102D01*
D02*
G37*
G36*
X1588656D02*
X1564055D01*
Y151502D01*
X1566887Y151875D01*
X1574185Y154897D01*
X1580451Y159706D01*
X1585260Y165973D01*
X1588283Y173271D01*
X1588656Y176102D01*
D02*
G37*
G36*
X1357205D02*
X1332604D01*
X1332977Y173271D01*
X1336000Y165973D01*
X1340809Y159706D01*
X1347075Y154897D01*
X1354373Y151875D01*
X1357205Y151502D01*
Y176102D01*
D02*
G37*
G36*
X1391805D02*
X1367205D01*
Y151502D01*
X1370036Y151875D01*
X1377334Y154897D01*
X1383601Y159706D01*
X1388410Y165973D01*
X1391433Y173271D01*
X1391805Y176102D01*
D02*
G37*
G36*
X1750906D02*
X1726305D01*
X1726678Y173271D01*
X1729701Y165973D01*
X1734509Y159706D01*
X1740776Y154897D01*
X1748074Y151875D01*
X1750906Y151502D01*
Y176102D01*
D02*
G37*
G36*
X1982357D02*
X1957756D01*
Y151502D01*
X1960588Y151875D01*
X1967885Y154897D01*
X1974152Y159706D01*
X1978961Y165973D01*
X1981984Y173271D01*
X1982357Y176102D01*
D02*
G37*
G36*
X2144606D02*
X2120006D01*
X2120378Y173271D01*
X2123401Y165973D01*
X2128210Y159706D01*
X2134477Y154897D01*
X2141775Y151875D01*
X2144606Y151502D01*
Y176102D01*
D02*
G37*
G36*
X1785506D02*
X1760906D01*
Y151502D01*
X1763737Y151875D01*
X1771035Y154897D01*
X1777302Y159706D01*
X1782111Y165973D01*
X1785133Y173271D01*
X1785506Y176102D01*
D02*
G37*
G36*
X1947756D02*
X1923155D01*
X1923528Y173271D01*
X1926551Y165973D01*
X1931360Y159706D01*
X1937627Y154897D01*
X1944924Y151875D01*
X1947756Y151502D01*
Y176102D01*
D02*
G37*
G36*
X1194955D02*
X1170354D01*
Y151502D01*
X1173186Y151875D01*
X1180484Y154897D01*
X1186751Y159706D01*
X1191559Y165973D01*
X1194582Y173271D01*
X1194955Y176102D01*
D02*
G37*
G36*
X569803D02*
X545202D01*
X545575Y173271D01*
X548598Y165973D01*
X553407Y159706D01*
X559674Y154897D01*
X566972Y151875D01*
X569803Y151502D01*
Y176102D01*
D02*
G37*
G36*
X604404D02*
X579803D01*
Y151502D01*
X582635Y151875D01*
X589933Y154897D01*
X596199Y159706D01*
X601008Y165973D01*
X604031Y173271D01*
X604404Y176102D01*
D02*
G37*
G36*
X150110Y254763D02*
X133739Y253475D01*
X117770Y249641D01*
X102598Y243357D01*
X88596Y234776D01*
X76109Y224111D01*
X65444Y211624D01*
X56863Y197622D01*
X50579Y182450D01*
X46745Y166481D01*
X45457Y150110D01*
X46745Y133739D01*
X50579Y117770D01*
X56863Y102598D01*
X65444Y88596D01*
X76109Y76109D01*
X88596Y65444D01*
X102598Y56863D01*
X117770Y50579D01*
X133739Y46745D01*
X150110Y45457D01*
X166481Y46745D01*
X182450Y50579D01*
X197622Y56863D01*
X211624Y65444D01*
X224111Y76109D01*
X234776Y88596D01*
X243357Y102598D01*
X249641Y117770D01*
X253475Y133739D01*
X254763Y150110D01*
X253475Y166481D01*
X249641Y182450D01*
X243357Y197622D01*
X234776Y211624D01*
X224111Y224111D01*
X211624Y234776D01*
X197622Y243357D01*
X182450Y249641D01*
X166481Y253475D01*
X150110Y254763D01*
D02*
G37*
G36*
X2500110D02*
X2483739Y253475D01*
X2467770Y249641D01*
X2452598Y243357D01*
X2438596Y234776D01*
X2426109Y224111D01*
X2415444Y211624D01*
X2406863Y197622D01*
X2400579Y182450D01*
X2396745Y166481D01*
X2395457Y150110D01*
X2396745Y133739D01*
X2400579Y117770D01*
X2406863Y102598D01*
X2415444Y88596D01*
X2426109Y76109D01*
X2438596Y65444D01*
X2452598Y56863D01*
X2467770Y50579D01*
X2483739Y46745D01*
X2500110Y45457D01*
X2516481Y46745D01*
X2532450Y50579D01*
X2547622Y56863D01*
X2561624Y65444D01*
X2574111Y76109D01*
X2584776Y88596D01*
X2593357Y102598D01*
X2599641Y117770D01*
X2603475Y133739D01*
X2604763Y150110D01*
X2603475Y166481D01*
X2599641Y182450D01*
X2593357Y197622D01*
X2584776Y211624D01*
X2574111Y224111D01*
X2561624Y234776D01*
X2547622Y243357D01*
X2532450Y249641D01*
X2516481Y253475D01*
X2500110Y254763D01*
D02*
G37*
G36*
X766654Y176102D02*
X742053D01*
X742426Y173271D01*
X745449Y165973D01*
X750257Y159706D01*
X756524Y154897D01*
X763822Y151875D01*
X766654Y151502D01*
Y176102D01*
D02*
G37*
G36*
X998105D02*
X973504D01*
Y151502D01*
X976336Y151875D01*
X983633Y154897D01*
X989900Y159706D01*
X994709Y165973D01*
X997732Y173271D01*
X998105Y176102D01*
D02*
G37*
G36*
X1160354D02*
X1135754D01*
X1136127Y173271D01*
X1139149Y165973D01*
X1143958Y159706D01*
X1150225Y154897D01*
X1157523Y151875D01*
X1160354Y151502D01*
Y176102D01*
D02*
G37*
G36*
X801254D02*
X776654D01*
Y151502D01*
X779485Y151875D01*
X786783Y154897D01*
X793050Y159706D01*
X797859Y165973D01*
X800881Y173271D01*
X801254Y176102D01*
D02*
G37*
G36*
X963504D02*
X938903D01*
X939276Y173271D01*
X942299Y165973D01*
X947108Y159706D01*
X953375Y154897D01*
X960672Y151875D01*
X963504Y151502D01*
Y176102D01*
D02*
G37*
G36*
X1367205Y210703D02*
Y186102D01*
X1391805D01*
X1391433Y188934D01*
X1388410Y196232D01*
X1383601Y202499D01*
X1377334Y207307D01*
X1370036Y210330D01*
X1367205Y210703D01*
D02*
G37*
G36*
X1554055D02*
X1551224Y210330D01*
X1543926Y207307D01*
X1537659Y202499D01*
X1532850Y196232D01*
X1529827Y188934D01*
X1529455Y186102D01*
X1554055D01*
Y210703D01*
D02*
G37*
G36*
X1170354D02*
Y186102D01*
X1194955D01*
X1194582Y188934D01*
X1191559Y196232D01*
X1186751Y202499D01*
X1180484Y207307D01*
X1173186Y210330D01*
X1170354Y210703D01*
D02*
G37*
G36*
X1357205D02*
X1354373Y210330D01*
X1347075Y207307D01*
X1340809Y202499D01*
X1336000Y196232D01*
X1332977Y188934D01*
X1332604Y186102D01*
X1357205D01*
Y210703D01*
D02*
G37*
G36*
X1564055D02*
Y186102D01*
X1588656D01*
X1588283Y188934D01*
X1585260Y196232D01*
X1580451Y202499D01*
X1574185Y207307D01*
X1566887Y210330D01*
X1564055Y210703D01*
D02*
G37*
G36*
X1947756D02*
X1944924Y210330D01*
X1937627Y207307D01*
X1931360Y202499D01*
X1926551Y196232D01*
X1923528Y188934D01*
X1923155Y186102D01*
X1947756D01*
Y210703D01*
D02*
G37*
G36*
X1957756D02*
Y186102D01*
X1982357D01*
X1981984Y188934D01*
X1978961Y196232D01*
X1974152Y202499D01*
X1967885Y207307D01*
X1960588Y210330D01*
X1957756Y210703D01*
D02*
G37*
G36*
X1750906D02*
X1748074Y210330D01*
X1740776Y207307D01*
X1734509Y202499D01*
X1729701Y196232D01*
X1726678Y188934D01*
X1726305Y186102D01*
X1750906D01*
Y210703D01*
D02*
G37*
G36*
X1760906D02*
Y186102D01*
X1785506D01*
X1785133Y188934D01*
X1782111Y196232D01*
X1777302Y202499D01*
X1771035Y207307D01*
X1763737Y210330D01*
X1760906Y210703D01*
D02*
G37*
G36*
X1160354D02*
X1157523Y210330D01*
X1150225Y207307D01*
X1143958Y202499D01*
X1139149Y196232D01*
X1136127Y188934D01*
X1135754Y186102D01*
X1160354D01*
Y210703D01*
D02*
G37*
G36*
X2376057Y176102D02*
X2351457D01*
Y151502D01*
X2354288Y151875D01*
X2361586Y154897D01*
X2367853Y159706D01*
X2372662Y165973D01*
X2375685Y173271D01*
X2376057Y176102D01*
D02*
G37*
G36*
X569803Y210703D02*
X566972Y210330D01*
X559674Y207307D01*
X553407Y202499D01*
X548598Y196232D01*
X545575Y188934D01*
X545202Y186102D01*
X569803D01*
Y210703D01*
D02*
G37*
G36*
X2179207Y176102D02*
X2154606D01*
Y151502D01*
X2157438Y151875D01*
X2164736Y154897D01*
X2171003Y159706D01*
X2175811Y165973D01*
X2178834Y173271D01*
X2179207Y176102D01*
D02*
G37*
G36*
X2341457D02*
X2316856D01*
X2317229Y173271D01*
X2320252Y165973D01*
X2325061Y159706D01*
X2331327Y154897D01*
X2338625Y151875D01*
X2341457Y151502D01*
Y176102D01*
D02*
G37*
G36*
X579803Y210703D02*
Y186102D01*
X604404D01*
X604031Y188934D01*
X601008Y196232D01*
X596199Y202499D01*
X589933Y207307D01*
X582635Y210330D01*
X579803Y210703D01*
D02*
G37*
G36*
X963504D02*
X960672Y210330D01*
X953375Y207307D01*
X947108Y202499D01*
X942299Y196232D01*
X939276Y188934D01*
X938903Y186102D01*
X963504D01*
Y210703D01*
D02*
G37*
G36*
X973504D02*
Y186102D01*
X998105D01*
X997732Y188934D01*
X994709Y196232D01*
X989900Y202499D01*
X983633Y207307D01*
X976336Y210330D01*
X973504Y210703D01*
D02*
G37*
G36*
X766654D02*
X763822Y210330D01*
X756524Y207307D01*
X750257Y202499D01*
X745449Y196232D01*
X742426Y188934D01*
X742053Y186102D01*
X766654D01*
Y210703D01*
D02*
G37*
G36*
X776654D02*
Y186102D01*
X801254D01*
X800881Y188934D01*
X797859Y196232D01*
X793050Y202499D01*
X786783Y207307D01*
X779485Y210330D01*
X776654Y210703D01*
D02*
G37*
G36*
X1293380Y766654D02*
X1268780D01*
Y742053D01*
X1271611Y742426D01*
X1278909Y745449D01*
X1285176Y750257D01*
X1289985Y756524D01*
X1293007Y763822D01*
X1293380Y766654D01*
D02*
G37*
G36*
X1455630D02*
X1431029D01*
X1431402Y763822D01*
X1434425Y756524D01*
X1439234Y750257D01*
X1445501Y745449D01*
X1452798Y742426D01*
X1455630Y742053D01*
Y766654D01*
D02*
G37*
G36*
X1096530D02*
X1071929D01*
Y742053D01*
X1074761Y742426D01*
X1082059Y745449D01*
X1088325Y750257D01*
X1093134Y756524D01*
X1096157Y763822D01*
X1096530Y766654D01*
D02*
G37*
G36*
X1258780D02*
X1234179D01*
X1234552Y763822D01*
X1237575Y756524D01*
X1242383Y750257D01*
X1248650Y745449D01*
X1255948Y742426D01*
X1258780Y742053D01*
Y766654D01*
D02*
G37*
G36*
X1490231D02*
X1465630D01*
Y742053D01*
X1468462Y742426D01*
X1475759Y745449D01*
X1482026Y750257D01*
X1486835Y756524D01*
X1489858Y763822D01*
X1490231Y766654D01*
D02*
G37*
G36*
X2243032D02*
X2218431D01*
X2218804Y763822D01*
X2221827Y756524D01*
X2226635Y750257D01*
X2232902Y745449D01*
X2240200Y742426D01*
X2243032Y742053D01*
Y766654D01*
D02*
G37*
G36*
X2277632D02*
X2253032D01*
Y742053D01*
X2255863Y742426D01*
X2263161Y745449D01*
X2269428Y750257D01*
X2274237Y756524D01*
X2277260Y763822D01*
X2277632Y766654D01*
D02*
G37*
G36*
X1652480D02*
X1627880D01*
X1628253Y763822D01*
X1631275Y756524D01*
X1636084Y750257D01*
X1642351Y745449D01*
X1649649Y742426D01*
X1652480Y742053D01*
Y766654D01*
D02*
G37*
G36*
X1687081D02*
X1662480D01*
Y742053D01*
X1665312Y742426D01*
X1672610Y745449D01*
X1678877Y750257D01*
X1683685Y756524D01*
X1686708Y763822D01*
X1687081Y766654D01*
D02*
G37*
G36*
X1061929D02*
X1037329D01*
X1037701Y763822D01*
X1040724Y756524D01*
X1045533Y750257D01*
X1051800Y745449D01*
X1059098Y742426D01*
X1061929Y742053D01*
Y766654D01*
D02*
G37*
G36*
X760110Y810326D02*
X750737Y809091D01*
X742003Y805474D01*
X734502Y799718D01*
X728747Y792218D01*
X725129Y783483D01*
X723895Y774110D01*
X725129Y764737D01*
X728747Y756003D01*
X734502Y748502D01*
X742003Y742747D01*
X750737Y739129D01*
X760110Y737895D01*
X769483Y739129D01*
X778218Y742747D01*
X785718Y748502D01*
X791474Y756003D01*
X795091Y764737D01*
X796326Y774110D01*
X795091Y783483D01*
X791474Y792218D01*
X785718Y799718D01*
X778218Y805474D01*
X769483Y809091D01*
X760110Y810326D01*
D02*
G37*
G36*
X274528Y766654D02*
X249927D01*
X250300Y763822D01*
X253323Y756524D01*
X258131Y750257D01*
X264398Y745449D01*
X271696Y742426D01*
X274528Y742053D01*
Y766654D01*
D02*
G37*
G36*
X2550110Y785849D02*
X2540860Y784631D01*
X2532241Y781061D01*
X2524839Y775381D01*
X2519159Y767979D01*
X2515589Y759360D01*
X2514371Y750110D01*
X2515589Y740860D01*
X2519159Y732241D01*
X2524839Y724839D01*
X2532241Y719159D01*
X2540860Y715589D01*
X2550110Y714371D01*
X2559360Y715589D01*
X2567979Y719159D01*
X2575381Y724839D01*
X2581061Y732241D01*
X2584631Y740860D01*
X2585849Y750110D01*
X2584631Y759360D01*
X2581061Y767979D01*
X2575381Y775381D01*
X2567979Y781061D01*
X2559360Y784631D01*
X2550110Y785849D01*
D02*
G37*
G36*
X2170000Y796215D02*
X2160627Y794981D01*
X2151892Y791363D01*
X2144392Y785608D01*
X2138637Y778108D01*
X2135019Y769373D01*
X2133785Y760000D01*
X2135019Y750627D01*
X2138637Y741892D01*
X2144392Y734392D01*
X2151892Y728637D01*
X2160627Y725019D01*
X2170000Y723785D01*
X2179373Y725019D01*
X2188108Y728637D01*
X2195608Y734392D01*
X2201363Y741892D01*
X2204981Y750627D01*
X2206215Y760000D01*
X2204981Y769373D01*
X2201363Y778108D01*
X2195608Y785608D01*
X2188108Y791363D01*
X2179373Y794981D01*
X2170000Y796215D01*
D02*
G37*
G36*
X309128Y766654D02*
X284528D01*
Y742053D01*
X287359Y742426D01*
X294657Y745449D01*
X300924Y750257D01*
X305733Y756524D01*
X308755Y763822D01*
X309128Y766654D01*
D02*
G37*
G36*
X865079D02*
X840478D01*
X840851Y763822D01*
X843874Y756524D01*
X848683Y750257D01*
X854949Y745449D01*
X862247Y742426D01*
X865079Y742053D01*
Y766654D01*
D02*
G37*
G36*
X899679D02*
X875079D01*
Y742053D01*
X877910Y742426D01*
X885208Y745449D01*
X891475Y750257D01*
X896284Y756524D01*
X899307Y763822D01*
X899679Y766654D01*
D02*
G37*
G36*
X471378D02*
X446777D01*
X447150Y763822D01*
X450173Y756524D01*
X454982Y750257D01*
X461249Y745449D01*
X468546Y742426D01*
X471378Y742053D01*
Y766654D01*
D02*
G37*
G36*
X505979D02*
X481378D01*
Y742053D01*
X484210Y742426D01*
X491507Y745449D01*
X497774Y750257D01*
X502583Y756524D01*
X505606Y763822D01*
X505979Y766654D01*
D02*
G37*
G36*
X1652480Y801254D02*
X1649649Y800881D01*
X1642351Y797859D01*
X1636084Y793050D01*
X1631275Y786783D01*
X1628253Y779485D01*
X1627880Y776654D01*
X1652480D01*
Y801254D01*
D02*
G37*
G36*
X1662480D02*
Y776654D01*
X1687081D01*
X1686708Y779485D01*
X1683685Y786783D01*
X1678877Y793050D01*
X1672610Y797859D01*
X1665312Y800881D01*
X1662480Y801254D01*
D02*
G37*
G36*
X1455630D02*
X1452798Y800881D01*
X1445501Y797859D01*
X1439234Y793050D01*
X1434425Y786783D01*
X1431402Y779485D01*
X1431029Y776654D01*
X1455630D01*
Y801254D01*
D02*
G37*
G36*
X1465630D02*
Y776654D01*
X1490231D01*
X1489858Y779485D01*
X1486835Y786783D01*
X1482026Y793050D01*
X1475759Y797859D01*
X1468462Y800881D01*
X1465630Y801254D01*
D02*
G37*
G36*
X2243032D02*
X2240200Y800881D01*
X2232902Y797859D01*
X2226635Y793050D01*
X2221827Y786783D01*
X2218804Y779485D01*
X2218431Y776654D01*
X2243032D01*
Y801254D01*
D02*
G37*
G36*
X2489320Y845110D02*
X2455110D01*
Y810900D01*
X2460429Y811600D01*
X2470044Y815583D01*
X2478301Y821919D01*
X2484637Y830176D01*
X2488620Y839791D01*
X2489320Y845110D01*
D02*
G37*
G36*
X1275110Y904326D02*
X1265737Y903091D01*
X1257003Y899474D01*
X1249502Y893718D01*
X1243747Y886218D01*
X1240129Y877483D01*
X1238895Y868110D01*
X1240129Y858737D01*
X1243747Y850003D01*
X1249502Y842502D01*
X1257003Y836747D01*
X1265737Y833129D01*
X1275110Y831895D01*
X1284483Y833129D01*
X1293218Y836747D01*
X1300718Y842502D01*
X1306474Y850003D01*
X1310091Y858737D01*
X1311325Y868110D01*
X1310091Y877483D01*
X1306474Y886218D01*
X1300718Y893718D01*
X1293218Y899474D01*
X1284483Y903091D01*
X1275110Y904326D01*
D02*
G37*
G36*
X2253032Y801254D02*
Y776654D01*
X2277632D01*
X2277260Y779485D01*
X2274237Y786783D01*
X2269428Y793050D01*
X2263161Y797859D01*
X2255863Y800881D01*
X2253032Y801254D01*
D02*
G37*
G36*
X2445110Y845110D02*
X2410900D01*
X2411600Y839791D01*
X2415583Y830176D01*
X2421919Y821919D01*
X2430176Y815583D01*
X2439791Y811600D01*
X2445110Y810900D01*
Y845110D01*
D02*
G37*
G36*
X1268780Y801254D02*
Y776654D01*
X1293380D01*
X1293007Y779485D01*
X1289985Y786783D01*
X1285176Y793050D01*
X1278909Y797859D01*
X1271611Y800881D01*
X1268780Y801254D01*
D02*
G37*
G36*
X471378D02*
X468546Y800881D01*
X461249Y797859D01*
X454982Y793050D01*
X450173Y786783D01*
X447150Y779485D01*
X446777Y776654D01*
X471378D01*
Y801254D01*
D02*
G37*
G36*
X481378D02*
Y776654D01*
X505979D01*
X505606Y779485D01*
X502583Y786783D01*
X497774Y793050D01*
X491507Y797859D01*
X484210Y800881D01*
X481378Y801254D01*
D02*
G37*
G36*
X274528D02*
X271696Y800881D01*
X264398Y797859D01*
X258131Y793050D01*
X253323Y786783D01*
X250300Y779485D01*
X249927Y776654D01*
X274528D01*
Y801254D01*
D02*
G37*
G36*
X284528D02*
Y776654D01*
X309128D01*
X308755Y779485D01*
X305733Y786783D01*
X300924Y793050D01*
X294657Y797859D01*
X287359Y800881D01*
X284528Y801254D01*
D02*
G37*
G36*
X865079D02*
X862247Y800881D01*
X854949Y797859D01*
X848683Y793050D01*
X843874Y786783D01*
X840851Y779485D01*
X840478Y776654D01*
X865079D01*
Y801254D01*
D02*
G37*
G36*
X1071929D02*
Y776654D01*
X1096530D01*
X1096157Y779485D01*
X1093134Y786783D01*
X1088325Y793050D01*
X1082059Y797859D01*
X1074761Y800881D01*
X1071929Y801254D01*
D02*
G37*
G36*
X1258780D02*
X1255948Y800881D01*
X1248650Y797859D01*
X1242383Y793050D01*
X1237575Y786783D01*
X1234552Y779485D01*
X1234179Y776654D01*
X1258780D01*
Y801254D01*
D02*
G37*
G36*
X875079D02*
Y776654D01*
X899679D01*
X899307Y779485D01*
X896284Y786783D01*
X891475Y793050D01*
X885208Y797859D01*
X877910Y800881D01*
X875079Y801254D01*
D02*
G37*
G36*
X1061929D02*
X1059098Y800881D01*
X1051800Y797859D01*
X1045533Y793050D01*
X1040724Y786783D01*
X1037701Y779485D01*
X1037329Y776654D01*
X1061929D01*
Y801254D01*
D02*
G37*
G36*
X2450110Y785849D02*
X2440860Y784631D01*
X2432241Y781061D01*
X2424839Y775381D01*
X2419159Y767979D01*
X2415589Y759360D01*
X2414371Y750110D01*
X2415589Y740860D01*
X2419159Y732241D01*
X2424839Y724839D01*
X2432241Y719159D01*
X2440860Y715589D01*
X2450110Y714371D01*
X2459360Y715589D01*
X2467979Y719159D01*
X2475381Y724839D01*
X2481061Y732241D01*
X2484631Y740860D01*
X2485849Y750110D01*
X2484631Y759360D01*
X2481061Y767979D01*
X2475381Y775381D01*
X2467979Y781061D01*
X2459360Y784631D01*
X2450110Y785849D01*
D02*
G37*
G36*
X963504Y569803D02*
X938903D01*
X939276Y566972D01*
X942299Y559674D01*
X947108Y553407D01*
X953375Y548598D01*
X960672Y545575D01*
X963504Y545202D01*
Y569803D01*
D02*
G37*
G36*
X998105D02*
X973504D01*
Y545202D01*
X976336Y545575D01*
X983633Y548598D01*
X989900Y553407D01*
X994709Y559674D01*
X997732Y566972D01*
X998105Y569803D01*
D02*
G37*
G36*
X569803D02*
X545202D01*
X545575Y566972D01*
X548598Y559674D01*
X553407Y553407D01*
X559674Y548598D01*
X566972Y545575D01*
X569803Y545202D01*
Y569803D01*
D02*
G37*
G36*
X604404D02*
X579803D01*
Y545202D01*
X582635Y545575D01*
X589933Y548598D01*
X596199Y553407D01*
X601008Y559674D01*
X604031Y566972D01*
X604404Y569803D01*
D02*
G37*
G36*
X1160354D02*
X1135754D01*
X1136127Y566972D01*
X1139149Y559674D01*
X1143958Y553407D01*
X1150225Y548598D01*
X1157523Y545575D01*
X1160354Y545202D01*
Y569803D01*
D02*
G37*
G36*
X1391805D02*
X1367205D01*
Y545202D01*
X1370036Y545575D01*
X1377334Y548598D01*
X1383601Y553407D01*
X1388410Y559674D01*
X1391433Y566972D01*
X1391805Y569803D01*
D02*
G37*
G36*
X1554055D02*
X1529455D01*
X1529827Y566972D01*
X1532850Y559674D01*
X1537659Y553407D01*
X1543926Y548598D01*
X1551224Y545575D01*
X1554055Y545202D01*
Y569803D01*
D02*
G37*
G36*
X1194955D02*
X1170354D01*
Y545202D01*
X1173186Y545575D01*
X1180484Y548598D01*
X1186751Y553407D01*
X1191559Y559674D01*
X1194582Y566972D01*
X1194955Y569803D01*
D02*
G37*
G36*
X1357205D02*
X1332604D01*
X1332977Y566972D01*
X1336000Y559674D01*
X1340809Y553407D01*
X1347075Y548598D01*
X1354373Y545575D01*
X1357205Y545202D01*
Y569803D01*
D02*
G37*
G36*
X210703D02*
X186102D01*
Y545202D01*
X188934Y545575D01*
X196232Y548598D01*
X202499Y553407D01*
X207307Y559674D01*
X210330Y566972D01*
X210703Y569803D01*
D02*
G37*
G36*
X1859331Y407553D02*
Y382953D01*
X1883931D01*
X1883559Y385784D01*
X1880536Y393082D01*
X1875727Y399349D01*
X1869460Y404158D01*
X1862162Y407181D01*
X1859331Y407553D01*
D02*
G37*
G36*
X2046181D02*
X2043350Y407181D01*
X2036052Y404158D01*
X2029785Y399349D01*
X2024976Y393082D01*
X2021953Y385784D01*
X2021581Y382953D01*
X2046181D01*
Y407553D01*
D02*
G37*
G36*
X1662480D02*
Y382953D01*
X1687081D01*
X1686708Y385784D01*
X1683685Y393082D01*
X1678877Y399349D01*
X1672610Y404158D01*
X1665312Y407181D01*
X1662480Y407553D01*
D02*
G37*
G36*
X1849331D02*
X1846499Y407181D01*
X1839201Y404158D01*
X1832935Y399349D01*
X1828126Y393082D01*
X1825103Y385784D01*
X1824730Y382953D01*
X1849331D01*
Y407553D01*
D02*
G37*
G36*
X2056181D02*
Y382953D01*
X2080782D01*
X2080409Y385784D01*
X2077386Y393082D01*
X2072577Y399349D01*
X2066311Y404158D01*
X2059013Y407181D01*
X2056181Y407553D01*
D02*
G37*
G36*
X2450110Y585849D02*
X2440860Y584631D01*
X2432241Y581061D01*
X2424839Y575381D01*
X2419159Y567979D01*
X2415589Y559360D01*
X2414371Y550110D01*
X2415589Y540860D01*
X2419159Y532241D01*
X2424839Y524839D01*
X2432241Y519159D01*
X2440860Y515589D01*
X2450110Y514371D01*
X2459360Y515589D01*
X2467979Y519159D01*
X2475381Y524839D01*
X2481061Y532241D01*
X2484631Y540860D01*
X2485849Y550110D01*
X2484631Y559360D01*
X2481061Y567979D01*
X2475381Y575381D01*
X2467979Y581061D01*
X2459360Y584631D01*
X2450110Y585849D01*
D02*
G37*
G36*
X176102Y569803D02*
X151502D01*
X151875Y566972D01*
X154897Y559674D01*
X159706Y553407D01*
X165973Y548598D01*
X173271Y545575D01*
X176102Y545202D01*
Y569803D01*
D02*
G37*
G36*
X2450110Y485849D02*
X2440860Y484631D01*
X2432241Y481061D01*
X2424839Y475381D01*
X2419159Y467979D01*
X2415589Y459360D01*
X2414371Y450110D01*
X2415589Y440860D01*
X2419159Y432241D01*
X2424839Y424839D01*
X2432241Y419159D01*
X2440860Y415589D01*
X2450110Y414371D01*
X2459360Y415589D01*
X2467979Y419159D01*
X2475381Y424839D01*
X2481061Y432241D01*
X2484631Y440860D01*
X2485849Y450110D01*
X2484631Y459360D01*
X2481061Y467979D01*
X2475381Y475381D01*
X2467979Y481061D01*
X2459360Y484631D01*
X2450110Y485849D01*
D02*
G37*
G36*
X2550110D02*
X2540860Y484631D01*
X2532241Y481061D01*
X2524839Y475381D01*
X2519159Y467979D01*
X2515589Y459360D01*
X2514371Y450110D01*
X2515589Y440860D01*
X2519159Y432241D01*
X2524839Y424839D01*
X2532241Y419159D01*
X2540860Y415589D01*
X2550110Y414371D01*
X2559360Y415589D01*
X2567979Y419159D01*
X2575381Y424839D01*
X2581061Y432241D01*
X2584631Y440860D01*
X2585849Y450110D01*
X2584631Y459360D01*
X2581061Y467979D01*
X2575381Y475381D01*
X2567979Y481061D01*
X2559360Y484631D01*
X2550110Y485849D01*
D02*
G37*
G36*
X1367205Y604404D02*
Y579803D01*
X1391805D01*
X1391433Y582635D01*
X1388410Y589933D01*
X1383601Y596199D01*
X1377334Y601008D01*
X1370036Y604031D01*
X1367205Y604404D01*
D02*
G37*
G36*
X1554055D02*
X1551224Y604031D01*
X1543926Y601008D01*
X1537659Y596199D01*
X1532850Y589933D01*
X1529827Y582635D01*
X1529455Y579803D01*
X1554055D01*
Y604404D01*
D02*
G37*
G36*
X1170354D02*
Y579803D01*
X1194955D01*
X1194582Y582635D01*
X1191559Y589933D01*
X1186751Y596199D01*
X1180484Y601008D01*
X1173186Y604031D01*
X1170354Y604404D01*
D02*
G37*
G36*
X1357205D02*
X1354373Y604031D01*
X1347075Y601008D01*
X1340809Y596199D01*
X1336000Y589933D01*
X1332977Y582635D01*
X1332604Y579803D01*
X1357205D01*
Y604404D01*
D02*
G37*
G36*
X1564055D02*
Y579803D01*
X1588656D01*
X1588283Y582635D01*
X1585260Y589933D01*
X1580451Y596199D01*
X1574185Y601008D01*
X1566887Y604031D01*
X1564055Y604404D01*
D02*
G37*
G36*
X2450110Y685849D02*
X2440860Y684631D01*
X2432241Y681061D01*
X2424839Y675381D01*
X2419159Y667979D01*
X2415589Y659360D01*
X2414371Y650110D01*
X2415589Y640860D01*
X2419159Y632241D01*
X2424839Y624839D01*
X2432241Y619159D01*
X2440860Y615589D01*
X2450110Y614371D01*
X2459360Y615589D01*
X2467979Y619159D01*
X2475381Y624839D01*
X2481061Y632241D01*
X2484631Y640860D01*
X2485849Y650110D01*
X2484631Y659360D01*
X2481061Y667979D01*
X2475381Y675381D01*
X2467979Y681061D01*
X2459360Y684631D01*
X2450110Y685849D01*
D02*
G37*
G36*
X2550110D02*
X2540860Y684631D01*
X2532241Y681061D01*
X2524839Y675381D01*
X2519159Y667979D01*
X2515589Y659360D01*
X2514371Y650110D01*
X2515589Y640860D01*
X2519159Y632241D01*
X2524839Y624839D01*
X2532241Y619159D01*
X2540860Y615589D01*
X2550110Y614371D01*
X2559360Y615589D01*
X2567979Y619159D01*
X2575381Y624839D01*
X2581061Y632241D01*
X2584631Y640860D01*
X2585849Y650110D01*
X2584631Y659360D01*
X2581061Y667979D01*
X2575381Y675381D01*
X2567979Y681061D01*
X2559360Y684631D01*
X2550110Y685849D01*
D02*
G37*
G36*
X1750906Y604404D02*
X1748074Y604031D01*
X1740776Y601008D01*
X1734509Y596199D01*
X1729701Y589933D01*
X1726678Y582635D01*
X1726305Y579803D01*
X1750906D01*
Y604404D01*
D02*
G37*
G36*
X1760906D02*
Y579803D01*
X1785506D01*
X1785133Y582635D01*
X1782111Y589933D01*
X1777302Y596199D01*
X1771035Y601008D01*
X1763737Y604031D01*
X1760906Y604404D01*
D02*
G37*
G36*
X1160354D02*
X1157523Y604031D01*
X1150225Y601008D01*
X1143958Y596199D01*
X1139149Y589933D01*
X1136127Y582635D01*
X1135754Y579803D01*
X1160354D01*
Y604404D01*
D02*
G37*
G36*
X1785506Y569803D02*
X1760906D01*
Y545202D01*
X1763737Y545575D01*
X1771035Y548598D01*
X1777302Y553407D01*
X1782111Y559674D01*
X1785133Y566972D01*
X1785506Y569803D01*
D02*
G37*
G36*
X176102Y604404D02*
X173271Y604031D01*
X165973Y601008D01*
X159706Y596199D01*
X154897Y589933D01*
X151875Y582635D01*
X151502Y579803D01*
X176102D01*
Y604404D01*
D02*
G37*
G36*
X1588656Y569803D02*
X1564055D01*
Y545202D01*
X1566887Y545575D01*
X1574185Y548598D01*
X1580451Y553407D01*
X1585260Y559674D01*
X1588283Y566972D01*
X1588656Y569803D01*
D02*
G37*
G36*
X1750906D02*
X1726305D01*
X1726678Y566972D01*
X1729701Y559674D01*
X1734509Y553407D01*
X1740776Y548598D01*
X1748074Y545575D01*
X1750906Y545202D01*
Y569803D01*
D02*
G37*
G36*
X186102Y604404D02*
Y579803D01*
X210703D01*
X210330Y582635D01*
X207307Y589933D01*
X202499Y596199D01*
X196232Y601008D01*
X188934Y604031D01*
X186102Y604404D01*
D02*
G37*
G36*
X963504D02*
X960672Y604031D01*
X953375Y601008D01*
X947108Y596199D01*
X942299Y589933D01*
X939276Y582635D01*
X938903Y579803D01*
X963504D01*
Y604404D01*
D02*
G37*
G36*
X973504D02*
Y579803D01*
X998105D01*
X997732Y582635D01*
X994709Y589933D01*
X989900Y596199D01*
X983633Y601008D01*
X976336Y604031D01*
X973504Y604404D01*
D02*
G37*
G36*
X569803D02*
X566972Y604031D01*
X559674Y601008D01*
X553407Y596199D01*
X548598Y589933D01*
X545575Y582635D01*
X545202Y579803D01*
X569803D01*
Y604404D01*
D02*
G37*
G36*
X579803D02*
Y579803D01*
X604404D01*
X604031Y582635D01*
X601008Y589933D01*
X596199Y596199D01*
X589933Y601008D01*
X582635Y604031D01*
X579803Y604404D01*
D02*
G37*
G36*
X471378Y1982357D02*
X468546Y1981984D01*
X461249Y1978961D01*
X454982Y1974152D01*
X450173Y1967885D01*
X447150Y1960588D01*
X446777Y1957756D01*
X471378D01*
Y1982357D01*
D02*
G37*
G36*
X1160354Y3360309D02*
X1157523Y3359937D01*
X1150225Y3356914D01*
X1143958Y3352105D01*
X1139149Y3345838D01*
X1136127Y3338540D01*
X1135754Y3335709D01*
X1160354D01*
Y3360309D01*
D02*
G37*
G36*
X1170354D02*
Y3335709D01*
X1194955D01*
X1194582Y3338540D01*
X1191559Y3345838D01*
X1186751Y3352105D01*
X1180484Y3356914D01*
X1173186Y3359937D01*
X1170354Y3360309D01*
D02*
G37*
G36*
X963504D02*
X960672Y3359937D01*
X953375Y3356914D01*
X947108Y3352105D01*
X942299Y3345838D01*
X939276Y3338540D01*
X938903Y3335709D01*
X963504D01*
Y3360309D01*
D02*
G37*
G36*
X973504D02*
Y3335709D01*
X998105D01*
X997732Y3338540D01*
X994709Y3345838D01*
X989900Y3352105D01*
X983633Y3356914D01*
X976336Y3359937D01*
X973504Y3360309D01*
D02*
G37*
G36*
X1357205D02*
X1354373Y3359937D01*
X1347075Y3356914D01*
X1340809Y3352105D01*
X1336000Y3345838D01*
X1332977Y3338540D01*
X1332604Y3335709D01*
X1357205D01*
Y3360309D01*
D02*
G37*
G36*
X1564055D02*
Y3335709D01*
X1588656D01*
X1588283Y3338540D01*
X1585260Y3345838D01*
X1580451Y3352105D01*
X1574185Y3356914D01*
X1566887Y3359937D01*
X1564055Y3360309D01*
D02*
G37*
G36*
X1750906D02*
X1748074Y3359937D01*
X1740776Y3356914D01*
X1734509Y3352105D01*
X1729701Y3345838D01*
X1726678Y3338540D01*
X1726305Y3335709D01*
X1750906D01*
Y3360309D01*
D02*
G37*
G36*
X1367205D02*
Y3335709D01*
X1391805D01*
X1391433Y3338540D01*
X1388410Y3345838D01*
X1383601Y3352105D01*
X1377334Y3356914D01*
X1370036Y3359937D01*
X1367205Y3360309D01*
D02*
G37*
G36*
X1554055D02*
X1551224Y3359937D01*
X1543926Y3356914D01*
X1537659Y3352105D01*
X1532850Y3345838D01*
X1529827Y3338540D01*
X1529455Y3335709D01*
X1554055D01*
Y3360309D01*
D02*
G37*
G36*
X579803D02*
Y3335709D01*
X604404D01*
X604031Y3338540D01*
X601008Y3345838D01*
X596199Y3352105D01*
X589933Y3356914D01*
X582635Y3359937D01*
X579803Y3360309D01*
D02*
G37*
G36*
X2144606Y3325709D02*
X2120006D01*
X2120378Y3322877D01*
X2123401Y3315579D01*
X2128210Y3309312D01*
X2134477Y3304504D01*
X2141775Y3301481D01*
X2144606Y3301108D01*
Y3325709D01*
D02*
G37*
G36*
X2179207D02*
X2154606D01*
Y3301108D01*
X2157438Y3301481D01*
X2164736Y3304504D01*
X2171003Y3309312D01*
X2175811Y3315579D01*
X2178834Y3322877D01*
X2179207Y3325709D01*
D02*
G37*
G36*
X1750906D02*
X1726305D01*
X1726678Y3322877D01*
X1729701Y3315579D01*
X1734509Y3309312D01*
X1740776Y3304504D01*
X1748074Y3301481D01*
X1750906Y3301108D01*
Y3325709D01*
D02*
G37*
G36*
X1785506D02*
X1760906D01*
Y3301108D01*
X1763737Y3301481D01*
X1771035Y3304504D01*
X1777302Y3309312D01*
X1782111Y3315579D01*
X1785133Y3322877D01*
X1785506Y3325709D01*
D02*
G37*
G36*
X176102Y3360309D02*
X173271Y3359937D01*
X165973Y3356914D01*
X159706Y3352105D01*
X154897Y3345838D01*
X151875Y3338540D01*
X151502Y3335709D01*
X176102D01*
Y3360309D01*
D02*
G37*
G36*
X382953D02*
Y3335709D01*
X407553D01*
X407181Y3338540D01*
X404158Y3345838D01*
X399349Y3352105D01*
X393082Y3356914D01*
X385784Y3359937D01*
X382953Y3360309D01*
D02*
G37*
G36*
X569803D02*
X566972Y3359937D01*
X559674Y3356914D01*
X553407Y3352105D01*
X548598Y3345838D01*
X545575Y3338540D01*
X545202Y3335709D01*
X569803D01*
Y3360309D01*
D02*
G37*
G36*
X186102D02*
Y3335709D01*
X210703D01*
X210330Y3338540D01*
X207307Y3345838D01*
X202499Y3352105D01*
X196232Y3356914D01*
X188934Y3359937D01*
X186102Y3360309D01*
D02*
G37*
G36*
X372953D02*
X370121Y3359937D01*
X362823Y3356914D01*
X356557Y3352105D01*
X351748Y3345838D01*
X348725Y3338540D01*
X348352Y3335709D01*
X372953D01*
Y3360309D01*
D02*
G37*
G36*
X1061929Y3522559D02*
X1037329D01*
X1037701Y3519728D01*
X1040724Y3512430D01*
X1045533Y3506163D01*
X1051800Y3501354D01*
X1059098Y3498331D01*
X1061929Y3497959D01*
Y3522559D01*
D02*
G37*
G36*
X1096530D02*
X1071929D01*
Y3497959D01*
X1074761Y3498331D01*
X1082059Y3501354D01*
X1088325Y3506163D01*
X1093134Y3512430D01*
X1096157Y3519728D01*
X1096530Y3522559D01*
D02*
G37*
G36*
X471378D02*
X446777D01*
X447150Y3519728D01*
X450173Y3512430D01*
X454982Y3506163D01*
X461249Y3501354D01*
X468546Y3498331D01*
X471378Y3497959D01*
Y3522559D01*
D02*
G37*
G36*
X505979D02*
X481378D01*
Y3497959D01*
X484210Y3498331D01*
X491507Y3501354D01*
X497774Y3506163D01*
X502583Y3512430D01*
X505606Y3519728D01*
X505979Y3522559D01*
D02*
G37*
G36*
X1258780D02*
X1234179D01*
X1234552Y3519728D01*
X1237575Y3512430D01*
X1242383Y3506163D01*
X1248650Y3501354D01*
X1255948Y3498331D01*
X1258780Y3497959D01*
Y3522559D01*
D02*
G37*
G36*
X1490231D02*
X1465630D01*
Y3497959D01*
X1468462Y3498331D01*
X1475759Y3501354D01*
X1482026Y3506163D01*
X1486835Y3512430D01*
X1489858Y3519728D01*
X1490231Y3522559D01*
D02*
G37*
G36*
X1652480D02*
X1627880D01*
X1628253Y3519728D01*
X1631275Y3512430D01*
X1636084Y3506163D01*
X1642351Y3501354D01*
X1649649Y3498331D01*
X1652480Y3497959D01*
Y3522559D01*
D02*
G37*
G36*
X1293380D02*
X1268780D01*
Y3497959D01*
X1271611Y3498331D01*
X1278909Y3501354D01*
X1285176Y3506163D01*
X1289985Y3512430D01*
X1293007Y3519728D01*
X1293380Y3522559D01*
D02*
G37*
G36*
X1455630D02*
X1431029D01*
X1431402Y3519728D01*
X1434425Y3512430D01*
X1439234Y3506163D01*
X1445501Y3501354D01*
X1452798Y3498331D01*
X1455630Y3497959D01*
Y3522559D01*
D02*
G37*
G36*
X309128D02*
X284528D01*
Y3497959D01*
X287359Y3498331D01*
X294657Y3501354D01*
X300924Y3506163D01*
X305733Y3512430D01*
X308755Y3519728D01*
X309128Y3522559D01*
D02*
G37*
G36*
X2154606Y3360309D02*
Y3335709D01*
X2179207D01*
X2178834Y3338540D01*
X2175811Y3345838D01*
X2171003Y3352105D01*
X2164736Y3356914D01*
X2157438Y3359937D01*
X2154606Y3360309D01*
D02*
G37*
G36*
X1947110Y3385110D02*
X1910914D01*
X1911682Y3379277D01*
X1915863Y3369183D01*
X1922515Y3360515D01*
X1931183Y3353863D01*
X1941277Y3349682D01*
X1947110Y3348914D01*
Y3385110D01*
D02*
G37*
G36*
X1760906Y3360309D02*
Y3335709D01*
X1785506D01*
X1785133Y3338540D01*
X1782111Y3345838D01*
X1777302Y3352105D01*
X1771035Y3356914D01*
X1763737Y3359937D01*
X1760906Y3360309D01*
D02*
G37*
G36*
X2144606D02*
X2141775Y3359937D01*
X2134477Y3356914D01*
X2128210Y3352105D01*
X2123401Y3345838D01*
X2120378Y3338540D01*
X2120006Y3335709D01*
X2144606D01*
Y3360309D01*
D02*
G37*
G36*
X1993306Y3385110D02*
X1957110D01*
Y3348914D01*
X1962943Y3349682D01*
X1973037Y3353863D01*
X1981705Y3360515D01*
X1988357Y3369183D01*
X1992538Y3379277D01*
X1993306Y3385110D01*
D02*
G37*
G36*
X1957110Y3431306D02*
Y3395110D01*
X1993306D01*
X1992538Y3400943D01*
X1988357Y3411037D01*
X1981705Y3419705D01*
X1973037Y3426357D01*
X1962943Y3430538D01*
X1957110Y3431306D01*
D02*
G37*
G36*
X274528Y3522559D02*
X249927D01*
X250300Y3519728D01*
X253323Y3512430D01*
X258131Y3506163D01*
X264398Y3501354D01*
X271696Y3498331D01*
X274528Y3497959D01*
Y3522559D01*
D02*
G37*
G36*
X1852110Y3427834D02*
X1842346Y3426549D01*
X1833248Y3422780D01*
X1825435Y3416785D01*
X1819440Y3408972D01*
X1815671Y3399874D01*
X1814386Y3390110D01*
X1815671Y3380346D01*
X1819440Y3371248D01*
X1825435Y3363435D01*
X1833248Y3357440D01*
X1842346Y3353671D01*
X1852110Y3352386D01*
X1861874Y3353671D01*
X1870972Y3357440D01*
X1878785Y3363435D01*
X1884780Y3371248D01*
X1888549Y3380346D01*
X1889834Y3390110D01*
X1888549Y3399874D01*
X1884780Y3408972D01*
X1878785Y3416785D01*
X1870972Y3422780D01*
X1861874Y3426549D01*
X1852110Y3427834D01*
D02*
G37*
G36*
X1947110Y3431306D02*
X1941277Y3430538D01*
X1931183Y3426357D01*
X1922515Y3419705D01*
X1915863Y3411037D01*
X1911682Y3400943D01*
X1910914Y3395110D01*
X1947110D01*
Y3431306D01*
D02*
G37*
G36*
X1588656Y3325709D02*
X1564055D01*
Y3301108D01*
X1566887Y3301481D01*
X1574185Y3304504D01*
X1580451Y3309312D01*
X1585260Y3315579D01*
X1588283Y3322877D01*
X1588656Y3325709D01*
D02*
G37*
G36*
X2046181Y3128858D02*
X2021581D01*
X2021953Y3126027D01*
X2024976Y3118729D01*
X2029785Y3112462D01*
X2036052Y3107653D01*
X2043350Y3104631D01*
X2046181Y3104258D01*
Y3128858D01*
D02*
G37*
G36*
X2080782D02*
X2056181D01*
Y3104258D01*
X2059013Y3104631D01*
X2066311Y3107653D01*
X2072577Y3112462D01*
X2077386Y3118729D01*
X2080409Y3126027D01*
X2080782Y3128858D01*
D02*
G37*
G36*
X1652480D02*
X1627880D01*
X1628253Y3126027D01*
X1631275Y3118729D01*
X1636084Y3112462D01*
X1642351Y3107653D01*
X1649649Y3104631D01*
X1652480Y3104258D01*
Y3128858D01*
D02*
G37*
G36*
X1687081D02*
X1662480D01*
Y3104258D01*
X1665312Y3104631D01*
X1672610Y3107653D01*
X1678877Y3112462D01*
X1683685Y3118729D01*
X1686708Y3126027D01*
X1687081Y3128858D01*
D02*
G37*
G36*
X2350110Y3140110D02*
X2315423D01*
X2316140Y3134668D01*
X2320170Y3124938D01*
X2326582Y3116582D01*
X2334938Y3110170D01*
X2344668Y3106140D01*
X2350110Y3105423D01*
Y3140110D01*
D02*
G37*
G36*
X1662480Y3163459D02*
Y3138858D01*
X1687081D01*
X1686708Y3141690D01*
X1683685Y3148988D01*
X1678877Y3155255D01*
X1672610Y3160063D01*
X1665312Y3163086D01*
X1662480Y3163459D01*
D02*
G37*
G36*
X2046181D02*
X2043350Y3163086D01*
X2036052Y3160063D01*
X2029785Y3155255D01*
X2024976Y3148988D01*
X2021953Y3141690D01*
X2021581Y3138858D01*
X2046181D01*
Y3163459D01*
D02*
G37*
G36*
X2394797Y3140110D02*
X2360110D01*
Y3105423D01*
X2365552Y3106140D01*
X2375283Y3110170D01*
X2383639Y3116582D01*
X2390050Y3124938D01*
X2394081Y3134668D01*
X2394797Y3140110D01*
D02*
G37*
G36*
X1652480Y3163459D02*
X1649649Y3163086D01*
X1642351Y3160063D01*
X1636084Y3155255D01*
X1631275Y3148988D01*
X1628253Y3141690D01*
X1627880Y3138858D01*
X1652480D01*
Y3163459D01*
D02*
G37*
G36*
X550000Y3061172D02*
X541932Y3060110D01*
X534414Y3056996D01*
X527958Y3052042D01*
X523004Y3045586D01*
X521154Y3041119D01*
X215330D01*
X211225Y3045224D01*
X207617Y3047635D01*
X203362Y3048481D01*
X199107Y3047635D01*
X195500Y3045224D01*
X195499Y3045224D01*
X61535Y2911260D01*
X57068Y2913110D01*
X49000Y2914172D01*
X40932Y2913110D01*
X33414Y2909996D01*
X26958Y2905042D01*
X22004Y2898586D01*
X18890Y2891068D01*
X17828Y2883000D01*
X18890Y2874932D01*
X22004Y2867414D01*
X26958Y2860958D01*
X33414Y2856004D01*
X40932Y2852890D01*
X49000Y2851828D01*
X57068Y2852890D01*
X64586Y2856004D01*
X71042Y2860958D01*
X75996Y2867414D01*
X79110Y2874932D01*
X80172Y2883000D01*
X79110Y2891068D01*
X77260Y2895535D01*
X203462Y3021737D01*
X206469Y3019727D01*
X210724Y3018881D01*
X519959D01*
X522471Y3014426D01*
X520799Y3010086D01*
X510661D01*
Y2953000D01*
X579559D01*
Y3010086D01*
X579201D01*
X577274Y3015086D01*
X580110Y3021932D01*
X581172Y3030000D01*
X580110Y3038068D01*
X576996Y3045586D01*
X572042Y3052042D01*
X565586Y3056996D01*
X558068Y3060110D01*
X550000Y3061172D01*
D02*
G37*
G36*
X2154606Y2966609D02*
Y2942008D01*
X2179207D01*
X2178834Y2944840D01*
X2175811Y2952137D01*
X2171003Y2958404D01*
X2164736Y2963213D01*
X2157438Y2966236D01*
X2154606Y2966609D01*
D02*
G37*
G36*
X2341457D02*
X2338625Y2966236D01*
X2331327Y2963213D01*
X2325061Y2958404D01*
X2320252Y2952137D01*
X2317229Y2944840D01*
X2316856Y2942008D01*
X2341457D01*
Y2966609D01*
D02*
G37*
G36*
X1957756D02*
Y2942008D01*
X1982357D01*
X1981984Y2944840D01*
X1978961Y2952137D01*
X1974152Y2958404D01*
X1967885Y2963213D01*
X1960588Y2966236D01*
X1957756Y2966609D01*
D02*
G37*
G36*
X2144606D02*
X2141775Y2966236D01*
X2134477Y2963213D01*
X2128210Y2958404D01*
X2123401Y2952137D01*
X2120378Y2944840D01*
X2120006Y2942008D01*
X2144606D01*
Y2966609D01*
D02*
G37*
G36*
X2351457D02*
Y2942008D01*
X2376057D01*
X2375685Y2944840D01*
X2372662Y2952137D01*
X2367853Y2958404D01*
X2361586Y2963213D01*
X2354288Y2966236D01*
X2351457Y2966609D01*
D02*
G37*
G36*
X1380110Y3025721D02*
X1377017Y3025314D01*
X1369476Y3022190D01*
X1363001Y3017222D01*
X1358032Y3010746D01*
X1354908Y3003205D01*
X1354501Y3000112D01*
X1380110D01*
Y3025721D01*
D02*
G37*
G36*
X792110Y3057754D02*
X787973Y3057209D01*
X779459Y3053683D01*
X772148Y3048073D01*
X766538Y3040761D01*
X763011Y3032247D01*
X762466Y3028110D01*
X792110D01*
Y3057754D01*
D02*
G37*
G36*
X1694110Y3033325D02*
X1684737Y3032091D01*
X1676003Y3028474D01*
X1668502Y3022718D01*
X1662747Y3015218D01*
X1659129Y3006483D01*
X1657895Y2997110D01*
X1659129Y2987737D01*
X1662747Y2979003D01*
X1668502Y2971502D01*
X1676003Y2965747D01*
X1684737Y2962129D01*
X1694110Y2960895D01*
X1703483Y2962129D01*
X1712218Y2965747D01*
X1719718Y2971502D01*
X1725474Y2979003D01*
X1729091Y2987737D01*
X1730325Y2997110D01*
X1729091Y3006483D01*
X1725474Y3015218D01*
X1719718Y3022718D01*
X1712218Y3028474D01*
X1703483Y3032091D01*
X1694110Y3033325D01*
D02*
G37*
G36*
X792110Y3018110D02*
X762466D01*
X763011Y3013973D01*
X766538Y3005459D01*
X772148Y2998148D01*
X779459Y2992538D01*
X787973Y2989011D01*
X792110Y2988466D01*
Y3018110D01*
D02*
G37*
G36*
X963504Y3325709D02*
X938903D01*
X939276Y3322877D01*
X942299Y3315579D01*
X947108Y3309312D01*
X953375Y3304504D01*
X960672Y3301481D01*
X963504Y3301108D01*
Y3325709D01*
D02*
G37*
G36*
X998105D02*
X973504D01*
Y3301108D01*
X976336Y3301481D01*
X983633Y3304504D01*
X989900Y3309312D01*
X994709Y3315579D01*
X997732Y3322877D01*
X998105Y3325709D01*
D02*
G37*
G36*
X569803D02*
X545202D01*
X545575Y3322877D01*
X548598Y3315579D01*
X553407Y3309312D01*
X559674Y3304504D01*
X566972Y3301481D01*
X569803Y3301108D01*
Y3325709D01*
D02*
G37*
G36*
X604404D02*
X579803D01*
Y3301108D01*
X582635Y3301481D01*
X589933Y3304504D01*
X596199Y3309312D01*
X601008Y3315579D01*
X604031Y3322877D01*
X604404Y3325709D01*
D02*
G37*
G36*
X1160354D02*
X1135754D01*
X1136127Y3322877D01*
X1139149Y3315579D01*
X1143958Y3309312D01*
X1150225Y3304504D01*
X1157523Y3301481D01*
X1160354Y3301108D01*
Y3325709D01*
D02*
G37*
G36*
X1391805D02*
X1367205D01*
Y3301108D01*
X1370036Y3301481D01*
X1377334Y3304504D01*
X1383601Y3309312D01*
X1388410Y3315579D01*
X1391433Y3322877D01*
X1391805Y3325709D01*
D02*
G37*
G36*
X1554055D02*
X1529455D01*
X1529827Y3322877D01*
X1532850Y3315579D01*
X1537659Y3309312D01*
X1543926Y3304504D01*
X1551224Y3301481D01*
X1554055Y3301108D01*
Y3325709D01*
D02*
G37*
G36*
X1194955D02*
X1170354D01*
Y3301108D01*
X1173186Y3301481D01*
X1180484Y3304504D01*
X1186751Y3309312D01*
X1191559Y3315579D01*
X1194582Y3322877D01*
X1194955Y3325709D01*
D02*
G37*
G36*
X1357205D02*
X1332604D01*
X1332977Y3322877D01*
X1336000Y3315579D01*
X1340809Y3309312D01*
X1347075Y3304504D01*
X1354373Y3301481D01*
X1357205Y3301108D01*
Y3325709D01*
D02*
G37*
G36*
X407553D02*
X382953D01*
Y3301108D01*
X385784Y3301481D01*
X393082Y3304504D01*
X399349Y3309312D01*
X404158Y3315579D01*
X407181Y3322877D01*
X407553Y3325709D01*
D02*
G37*
G36*
X2360110Y3184797D02*
Y3150110D01*
X2394797D01*
X2394081Y3155552D01*
X2390050Y3165283D01*
X2383639Y3173639D01*
X2375283Y3180050D01*
X2365552Y3184081D01*
X2360110Y3184797D01*
D02*
G37*
G36*
X844110Y3695239D02*
X837347Y3694349D01*
X831045Y3691738D01*
X825634Y3687586D01*
X821482Y3682175D01*
X818871Y3675873D01*
X817981Y3669110D01*
X818871Y3662347D01*
X821482Y3656046D01*
X825634Y3650634D01*
X831045Y3646482D01*
X832991Y3645676D01*
Y3041012D01*
X827991Y3040017D01*
X827683Y3040761D01*
X822072Y3048073D01*
X814761Y3053683D01*
X806247Y3057209D01*
X802110Y3057754D01*
Y3023110D01*
Y2988466D01*
X806247Y2989011D01*
X814761Y2992538D01*
X822072Y2998148D01*
X827683Y3005459D01*
X827991Y3006203D01*
X832991Y3005209D01*
Y2898716D01*
X690577Y2756302D01*
X688791Y2757042D01*
X682110Y2757921D01*
X675430Y2757042D01*
X669205Y2754463D01*
X663859Y2750361D01*
X659757Y2745016D01*
X657178Y2738791D01*
X656299Y2732110D01*
X657178Y2725430D01*
X659757Y2719205D01*
X660958Y2717639D01*
X658493Y2712639D01*
X498009D01*
X496312Y2717639D01*
X497774Y2718761D01*
X502583Y2725028D01*
X505606Y2732326D01*
X505979Y2735158D01*
X446777D01*
X447150Y2732326D01*
X450173Y2725028D01*
X454982Y2718761D01*
X456445Y2717639D01*
X454747Y2712639D01*
X363306D01*
X294302Y2781643D01*
X295042Y2783430D01*
X295921Y2790110D01*
X295042Y2796791D01*
X292463Y2803016D01*
X288361Y2808361D01*
X283016Y2812463D01*
X276791Y2815042D01*
X270110Y2815921D01*
X263430Y2815042D01*
X257204Y2812463D01*
X251859Y2808361D01*
X247757Y2803016D01*
X245178Y2796791D01*
X244299Y2790110D01*
X245178Y2783430D01*
X247757Y2777204D01*
X251859Y2771859D01*
X257204Y2767757D01*
X258991Y2767017D01*
Y2510122D01*
X253991Y2509925D01*
X253475Y2516481D01*
X249641Y2532450D01*
X243357Y2547622D01*
X234776Y2561624D01*
X224111Y2574111D01*
X211624Y2584776D01*
X197622Y2593357D01*
X182450Y2599641D01*
X166481Y2603475D01*
X150110Y2604763D01*
X133739Y2603475D01*
X117770Y2599641D01*
X102598Y2593357D01*
X88596Y2584776D01*
X76109Y2574111D01*
X65444Y2561624D01*
X56863Y2547622D01*
X50579Y2532450D01*
X46745Y2516481D01*
X45457Y2500110D01*
X46745Y2483739D01*
X50579Y2467770D01*
X56863Y2452598D01*
X65444Y2438596D01*
X76109Y2426109D01*
X88596Y2415444D01*
X102598Y2406863D01*
X117770Y2400579D01*
X133739Y2396745D01*
X150110Y2395457D01*
X166481Y2396745D01*
X182450Y2400579D01*
X197622Y2406863D01*
X211624Y2415444D01*
X224111Y2426109D01*
X234776Y2438596D01*
X243357Y2452598D01*
X249641Y2467770D01*
X253475Y2483739D01*
X253991Y2490295D01*
X258991Y2490098D01*
Y2377812D01*
X101814Y2220636D01*
X99404Y2217029D01*
X98558Y2212773D01*
X98558Y2212773D01*
Y1790544D01*
X98558Y1790543D01*
X99404Y1786288D01*
X101814Y1782681D01*
X118385Y1766110D01*
X115589Y1759360D01*
X114371Y1750110D01*
X115589Y1740860D01*
X119159Y1732241D01*
X124839Y1724839D01*
X132241Y1719159D01*
X140860Y1715589D01*
X150110Y1714371D01*
X159360Y1715589D01*
X166110Y1718385D01*
X195357Y1689138D01*
X195357Y1689138D01*
X198965Y1686727D01*
X203220Y1685881D01*
X230128D01*
X232045Y1681391D01*
X232006Y1680881D01*
X224839Y1675381D01*
X219159Y1667979D01*
X215589Y1659360D01*
X214371Y1650110D01*
X215589Y1640860D01*
X218385Y1634110D01*
X142334Y1558059D01*
X139924Y1554452D01*
X139078Y1550197D01*
X139078Y1550196D01*
Y955703D01*
X139078Y955703D01*
X139924Y951447D01*
X142334Y947840D01*
X195368Y894807D01*
X195368Y894807D01*
X198975Y892396D01*
X203230Y891550D01*
X203231Y891550D01*
X391876D01*
Y870268D01*
X393022Y864507D01*
X396285Y859624D01*
X401169Y856361D01*
X406929Y855215D01*
X412690Y856361D01*
X417143Y859336D01*
X418924Y856672D01*
X425162Y852504D01*
X427520Y852034D01*
Y888968D01*
Y925902D01*
X425162Y925433D01*
X418924Y921265D01*
X417143Y918601D01*
X412690Y921576D01*
X406929Y922722D01*
X401169Y921576D01*
X396285Y918313D01*
X393262Y913788D01*
X207836D01*
X187111Y934513D01*
X188719Y939248D01*
X188934Y939276D01*
X196232Y942299D01*
X202499Y947108D01*
X207307Y953375D01*
X210330Y960672D01*
X210703Y963504D01*
X181102D01*
Y968504D01*
X176102D01*
Y998105D01*
X173271Y997732D01*
X165973Y994709D01*
X165800Y994577D01*
X161316Y996788D01*
Y1333921D01*
X165800Y1336132D01*
X165973Y1336000D01*
X173271Y1332977D01*
X176102Y1332604D01*
Y1362205D01*
Y1391805D01*
X173271Y1391433D01*
X165973Y1388410D01*
X165800Y1388277D01*
X161316Y1390489D01*
Y1545591D01*
X234110Y1618385D01*
X240860Y1615589D01*
X250110Y1614371D01*
X259360Y1615589D01*
X266110Y1618385D01*
X293233Y1591262D01*
X290401Y1587023D01*
X287359Y1588283D01*
X284528Y1588656D01*
Y1564055D01*
X309128D01*
X308755Y1566887D01*
X305733Y1574185D01*
X304206Y1576174D01*
X307027Y1580711D01*
X308728Y1580373D01*
X308728Y1580373D01*
X871154D01*
X873004Y1575906D01*
X877958Y1569450D01*
X884414Y1564496D01*
X891932Y1561382D01*
X900000Y1560320D01*
X908068Y1561382D01*
X915586Y1564496D01*
X922042Y1569450D01*
X926996Y1575906D01*
X930110Y1583424D01*
X931172Y1591492D01*
X930110Y1599560D01*
X926996Y1607078D01*
X922042Y1613534D01*
X915586Y1618488D01*
X908068Y1621602D01*
X900000Y1622664D01*
X891932Y1621602D01*
X884414Y1618488D01*
X877958Y1613534D01*
X873004Y1607078D01*
X871154Y1602611D01*
X313334D01*
X281835Y1634110D01*
X284631Y1640860D01*
X285849Y1650110D01*
X284631Y1659360D01*
X281061Y1667979D01*
X275381Y1675381D01*
X268214Y1680881D01*
X268175Y1681391D01*
X270092Y1685881D01*
X632394D01*
X643740Y1674535D01*
X641890Y1670068D01*
X640828Y1662000D01*
X641890Y1653932D01*
X645004Y1646414D01*
X649958Y1639958D01*
X656414Y1635004D01*
X663932Y1631890D01*
X672000Y1630828D01*
X680068Y1631890D01*
X687586Y1635004D01*
X694042Y1639958D01*
X698996Y1646414D01*
X700846Y1650881D01*
X1163614D01*
X1456850Y1357645D01*
X1455000Y1353178D01*
X1453938Y1345110D01*
X1455000Y1337042D01*
X1458114Y1329524D01*
X1463068Y1323068D01*
X1469524Y1318114D01*
X1477042Y1315000D01*
X1485110Y1313938D01*
X1493178Y1315000D01*
X1500696Y1318114D01*
X1507152Y1323068D01*
X1512106Y1329524D01*
X1515220Y1337042D01*
X1516282Y1345110D01*
X1515220Y1353178D01*
X1512106Y1360696D01*
X1507152Y1367152D01*
X1500696Y1372106D01*
X1493178Y1375220D01*
X1485110Y1376282D01*
X1477042Y1375220D01*
X1472575Y1373370D01*
X1176082Y1669862D01*
X1172475Y1672273D01*
X1168220Y1673119D01*
X1168219Y1673119D01*
X700846D01*
X698996Y1677586D01*
X694042Y1684042D01*
X687586Y1688996D01*
X680068Y1692110D01*
X672000Y1693172D01*
X663932Y1692110D01*
X659465Y1690260D01*
X644862Y1704862D01*
X641255Y1707273D01*
X637000Y1708119D01*
X637000Y1708119D01*
X207826D01*
X181835Y1734110D01*
X184631Y1740860D01*
X185849Y1750110D01*
X184631Y1759360D01*
X181061Y1767979D01*
X175381Y1775381D01*
X167979Y1781061D01*
X159360Y1784631D01*
X150110Y1785849D01*
X140860Y1784631D01*
X134110Y1781835D01*
X120796Y1795149D01*
Y1822602D01*
X125796Y1824104D01*
X132241Y1819159D01*
X140860Y1815589D01*
X150110Y1814371D01*
X159360Y1815589D01*
X167979Y1819159D01*
X175381Y1824839D01*
X181061Y1832241D01*
X184631Y1840860D01*
X185849Y1850110D01*
X184631Y1859360D01*
X181835Y1866110D01*
X214283Y1898558D01*
X805857D01*
X805858Y1898558D01*
X810113Y1899404D01*
X813720Y1901814D01*
X914405Y2002500D01*
X914406Y2002500D01*
X916816Y2006107D01*
X917663Y2010362D01*
X917663Y2010363D01*
Y2286677D01*
X916816Y2290932D01*
X914406Y2294540D01*
X914405Y2294540D01*
X897835Y2311110D01*
X900631Y2317860D01*
X901849Y2327110D01*
X900631Y2336360D01*
X897061Y2344980D01*
X891381Y2352381D01*
X883980Y2358061D01*
X875360Y2361631D01*
X866110Y2362849D01*
X856860Y2361631D01*
X848241Y2358061D01*
X840839Y2352381D01*
X835160Y2344980D01*
X831589Y2336360D01*
X830371Y2327110D01*
X831589Y2317860D01*
X835160Y2309241D01*
X840839Y2301839D01*
X848241Y2296160D01*
X856860Y2292589D01*
X866110Y2291372D01*
X875360Y2292589D01*
X882110Y2295385D01*
X895424Y2282071D01*
Y2254618D01*
X890424Y2253116D01*
X883980Y2258061D01*
X875360Y2261631D01*
X866110Y2262849D01*
X856860Y2261631D01*
X848241Y2258061D01*
X840839Y2252381D01*
X835160Y2244980D01*
X831589Y2236360D01*
X830371Y2227110D01*
X831589Y2217860D01*
X835160Y2209241D01*
X840839Y2201839D01*
X848241Y2196160D01*
X856860Y2192589D01*
X866110Y2191372D01*
X875360Y2192589D01*
X883980Y2196160D01*
X890424Y2201105D01*
X895424Y2199603D01*
Y2154618D01*
X890424Y2153116D01*
X883980Y2158061D01*
X875360Y2161631D01*
X866110Y2162849D01*
X856860Y2161631D01*
X848241Y2158061D01*
X840839Y2152381D01*
X835160Y2144980D01*
X831589Y2136360D01*
X830371Y2127110D01*
X831589Y2117860D01*
X835160Y2109241D01*
X840839Y2101839D01*
X848241Y2096160D01*
X856860Y2092589D01*
X866110Y2091372D01*
X875360Y2092589D01*
X883980Y2096160D01*
X890424Y2101105D01*
X895424Y2099603D01*
Y2054618D01*
X890424Y2053116D01*
X883980Y2058061D01*
X875360Y2061631D01*
X866110Y2062849D01*
X856860Y2061631D01*
X848241Y2058061D01*
X840839Y2052381D01*
X835160Y2044980D01*
X831589Y2036360D01*
X830371Y2027110D01*
X831589Y2017860D01*
X835160Y2009241D01*
X840839Y2001839D01*
X848241Y1996160D01*
X856860Y1992589D01*
X864914Y1991529D01*
X867387Y1986931D01*
X801252Y1920796D01*
X687530D01*
X686535Y1925796D01*
X688358Y1926551D01*
X694625Y1931360D01*
X699433Y1937627D01*
X702456Y1944924D01*
X702829Y1947756D01*
X643628D01*
X644000Y1944924D01*
X647023Y1937627D01*
X651832Y1931360D01*
X658099Y1926551D01*
X659921Y1925796D01*
X658927Y1920796D01*
X490680D01*
X489685Y1925796D01*
X491507Y1926551D01*
X497774Y1931360D01*
X502583Y1937627D01*
X505606Y1944924D01*
X505979Y1947756D01*
X446777D01*
X447150Y1944924D01*
X450173Y1937627D01*
X454982Y1931360D01*
X461249Y1926551D01*
X463071Y1925796D01*
X462076Y1920796D01*
X277618D01*
X276116Y1925796D01*
X281061Y1932241D01*
X284631Y1940860D01*
X285849Y1950110D01*
X284631Y1959360D01*
X281061Y1967979D01*
X275381Y1975381D01*
X267979Y1981061D01*
X259360Y1984631D01*
X250110Y1985849D01*
X240860Y1984631D01*
X232241Y1981061D01*
X224839Y1975381D01*
X219159Y1967979D01*
X215589Y1959360D01*
X214371Y1950110D01*
X215589Y1940860D01*
X219159Y1932241D01*
X224104Y1925796D01*
X222602Y1920796D01*
X209677D01*
X205422Y1919950D01*
X201814Y1917539D01*
X201814Y1917539D01*
X166110Y1881835D01*
X159360Y1884631D01*
X150110Y1885849D01*
X140860Y1884631D01*
X132241Y1881061D01*
X125796Y1876116D01*
X120796Y1877618D01*
Y1922602D01*
X125796Y1924104D01*
X132241Y1919159D01*
X140860Y1915589D01*
X150110Y1914371D01*
X159360Y1915589D01*
X167979Y1919159D01*
X175381Y1924839D01*
X181061Y1932241D01*
X184631Y1940860D01*
X185849Y1950110D01*
X184631Y1959360D01*
X181061Y1967979D01*
X175381Y1975381D01*
X167979Y1981061D01*
X159360Y1984631D01*
X150110Y1985849D01*
X140860Y1984631D01*
X132241Y1981061D01*
X125796Y1976116D01*
X120796Y1977618D01*
Y2022602D01*
X125796Y2024104D01*
X132241Y2019159D01*
X140860Y2015589D01*
X150110Y2014371D01*
X159360Y2015589D01*
X167979Y2019159D01*
X175381Y2024839D01*
X181061Y2032241D01*
X184631Y2040860D01*
X185849Y2050110D01*
X184631Y2059360D01*
X181061Y2067979D01*
X175381Y2075381D01*
X167979Y2081061D01*
X159360Y2084631D01*
X150110Y2085849D01*
X140860Y2084631D01*
X132241Y2081061D01*
X125796Y2076116D01*
X120796Y2077618D01*
Y2208168D01*
X277972Y2365344D01*
X277973Y2365344D01*
X280383Y2368951D01*
X281229Y2373206D01*
X281229Y2373207D01*
Y2756733D01*
X285849Y2758646D01*
X350838Y2693657D01*
X350838Y2693657D01*
X354445Y2691247D01*
X358700Y2690400D01*
X851519D01*
X851520Y2690400D01*
X855775Y2691247D01*
X859382Y2693657D01*
X1339716Y3173991D01*
X1424523D01*
X1425263Y3172205D01*
X1429364Y3166859D01*
X1434710Y3162757D01*
X1440935Y3160178D01*
X1447616Y3159299D01*
X1454296Y3160178D01*
X1460521Y3162757D01*
X1465867Y3166859D01*
X1469969Y3172205D01*
X1472548Y3178430D01*
X1473427Y3185110D01*
X1472548Y3191791D01*
X1469969Y3198016D01*
X1465867Y3203361D01*
X1460521Y3207463D01*
X1454296Y3210042D01*
X1447616Y3210921D01*
X1440935Y3210042D01*
X1434710Y3207463D01*
X1429364Y3203361D01*
X1425263Y3198016D01*
X1424523Y3196229D01*
X1336847D01*
X1335150Y3201229D01*
X1340718Y3205502D01*
X1346474Y3213003D01*
X1350091Y3221737D01*
X1351325Y3231110D01*
X1350091Y3240483D01*
X1346474Y3249218D01*
X1340718Y3256718D01*
X1333218Y3262474D01*
X1324483Y3266091D01*
X1315110Y3267325D01*
X1305737Y3266091D01*
X1297003Y3262474D01*
X1289502Y3256718D01*
X1283747Y3249218D01*
X1280129Y3240483D01*
X1278895Y3231110D01*
X1280129Y3221737D01*
X1283747Y3213003D01*
X1289502Y3205502D01*
X1297003Y3199747D01*
X1305737Y3196129D01*
X1315110Y3194895D01*
X1323158Y3195954D01*
X1325668Y3191921D01*
X1325784Y3191510D01*
X846914Y2712639D01*
X705728D01*
X703262Y2717639D01*
X704463Y2719205D01*
X707042Y2725430D01*
X707922Y2732110D01*
X707042Y2738791D01*
X706302Y2740577D01*
X851972Y2886247D01*
X854383Y2889855D01*
X855229Y2894110D01*
Y3645676D01*
X857174Y3646482D01*
X862586Y3650634D01*
X866738Y3656046D01*
X869349Y3662347D01*
X870239Y3669110D01*
X869349Y3675873D01*
X866738Y3682175D01*
X862586Y3687586D01*
X857174Y3691738D01*
X850873Y3694349D01*
X844110Y3695239D01*
D02*
G37*
G36*
X2056181Y3163459D02*
Y3138858D01*
X2080782D01*
X2080409Y3141690D01*
X2077386Y3148988D01*
X2072577Y3155255D01*
X2066311Y3160063D01*
X2059013Y3163086D01*
X2056181Y3163459D01*
D02*
G37*
G36*
X2350110Y3184797D02*
X2344668Y3184081D01*
X2334938Y3180050D01*
X2326582Y3173639D01*
X2320170Y3165283D01*
X2316140Y3155552D01*
X2315423Y3150110D01*
X2350110D01*
Y3184797D01*
D02*
G37*
G36*
X2386220Y3236119D02*
X2386220Y3236119D01*
X1613001D01*
X1613000Y3236119D01*
X1608745Y3235273D01*
X1605138Y3232863D01*
X1605137Y3232862D01*
X1427247Y3054972D01*
X1424837Y3051365D01*
X1423991Y3047110D01*
X1423991Y3047110D01*
Y3019629D01*
X1421541Y3018614D01*
X1415921Y3014301D01*
X1415842Y3014198D01*
X1409539Y3014198D01*
X1407219Y3017222D01*
X1400744Y3022190D01*
X1393203Y3025314D01*
X1390110Y3025721D01*
Y2995112D01*
X1385110D01*
Y2990112D01*
X1354501D01*
X1354908Y2987019D01*
X1358032Y2979478D01*
X1363001Y2973003D01*
X1366024Y2970683D01*
X1366024Y2964380D01*
X1365921Y2964301D01*
X1361608Y2958681D01*
X1358897Y2952136D01*
X1357972Y2945112D01*
X1358897Y2938088D01*
X1361608Y2931543D01*
X1365921Y2925923D01*
X1371541Y2921610D01*
X1373991Y2920595D01*
Y2018372D01*
X1373991Y2018372D01*
X1374837Y2014116D01*
X1377247Y2010509D01*
X2347178Y1040579D01*
X2345386Y1035299D01*
X2343430Y1035042D01*
X2337204Y1032463D01*
X2331859Y1028361D01*
X2327757Y1023016D01*
X2325178Y1016790D01*
X2324299Y1010110D01*
X2325178Y1003429D01*
X2327757Y997204D01*
X2331859Y991859D01*
X2337204Y987757D01*
X2343430Y985178D01*
X2350110Y984299D01*
X2356791Y985178D01*
X2363016Y987757D01*
X2368361Y991859D01*
X2372463Y997204D01*
X2375042Y1003429D01*
X2375299Y1005386D01*
X2380579Y1007178D01*
X2519428Y868329D01*
X2519159Y867979D01*
X2515589Y859360D01*
X2514371Y850110D01*
X2515589Y840860D01*
X2519159Y832241D01*
X2524839Y824839D01*
X2532241Y819159D01*
X2540860Y815589D01*
X2550110Y814371D01*
X2559360Y815589D01*
X2567979Y819159D01*
X2575381Y824839D01*
X2581061Y832241D01*
X2584631Y840860D01*
X2585849Y850110D01*
X2584631Y859360D01*
X2581061Y867979D01*
X2575381Y875381D01*
X2567979Y881061D01*
X2559360Y884631D01*
X2550110Y885849D01*
X2540860Y884631D01*
X2536416Y882790D01*
X1396229Y2022977D01*
Y2920595D01*
X1398679Y2921610D01*
X1404299Y2925923D01*
X1407076Y2929542D01*
X1407701Y2929818D01*
X1412519D01*
X1413144Y2929542D01*
X1415921Y2925923D01*
X1421541Y2921610D01*
X1423991Y2920595D01*
Y2902111D01*
X1423991Y2902110D01*
X1424837Y2897855D01*
X1427247Y2894248D01*
X1524248Y2797248D01*
X1524248Y2797247D01*
X1527855Y2794837D01*
X1532110Y2793991D01*
X1532111Y2793991D01*
X2238991D01*
Y2348690D01*
X2197247Y2306946D01*
X2194837Y2303339D01*
X2193991Y2299084D01*
X2193991Y2299083D01*
Y1853203D01*
X2192204Y1852463D01*
X2189239Y1850188D01*
X2149567Y1889860D01*
Y1945001D01*
X2078701D01*
Y1921937D01*
X2059449D01*
Y1938976D01*
X1990551D01*
Y1881890D01*
X2059449D01*
Y1899699D01*
X2078701D01*
Y1874135D01*
X2133842D01*
X2179516Y1828461D01*
X2180178Y1823429D01*
X2182757Y1817204D01*
X2186859Y1811859D01*
X2192204Y1807757D01*
X2198430Y1805178D01*
X2205110Y1804299D01*
X2211791Y1805178D01*
X2215698Y1806797D01*
X2590881Y1431615D01*
Y606606D01*
X2566110Y581835D01*
X2559360Y584631D01*
X2550110Y585849D01*
X2540860Y584631D01*
X2532241Y581061D01*
X2524839Y575381D01*
X2519159Y567979D01*
X2515589Y559360D01*
X2514371Y550110D01*
X2515589Y540860D01*
X2519159Y532241D01*
X2524839Y524839D01*
X2532241Y519159D01*
X2540860Y515589D01*
X2550110Y514371D01*
X2559360Y515589D01*
X2567979Y519159D01*
X2575381Y524839D01*
X2581061Y532241D01*
X2584631Y540860D01*
X2585849Y550110D01*
X2584631Y559360D01*
X2581835Y566110D01*
X2609862Y594137D01*
X2609863Y594138D01*
X2612273Y597745D01*
X2613119Y602000D01*
Y1436220D01*
X2612273Y1440476D01*
X2609863Y1444083D01*
X2609862Y1444083D01*
X2327974Y1725971D01*
X2331278Y1729739D01*
X2331327Y1729701D01*
X2338625Y1726678D01*
X2341457Y1726305D01*
Y1750906D01*
X2316856D01*
X2317229Y1748074D01*
X2320252Y1740776D01*
X2320290Y1740727D01*
X2316523Y1737423D01*
X2230097Y1823848D01*
X2230921Y1830110D01*
X2230042Y1836791D01*
X2227463Y1843016D01*
X2223361Y1848361D01*
X2218016Y1852463D01*
X2216229Y1853203D01*
Y2294478D01*
X2257973Y2336221D01*
X2260383Y2339829D01*
X2261229Y2344084D01*
X2261229Y2344084D01*
Y2805110D01*
Y3109552D01*
X2268218Y3112447D01*
X2275718Y3118202D01*
X2281474Y3125703D01*
X2285091Y3134437D01*
X2286325Y3143810D01*
X2285091Y3153183D01*
X2281474Y3161918D01*
X2275718Y3169418D01*
X2268218Y3175174D01*
X2259483Y3178791D01*
X2250110Y3180026D01*
X2240737Y3178791D01*
X2232003Y3175174D01*
X2224502Y3169418D01*
X2218747Y3161918D01*
X2215129Y3153183D01*
X2213895Y3143810D01*
X2215129Y3134437D01*
X2218747Y3125703D01*
X2224502Y3118202D01*
X2232003Y3112447D01*
X2238991Y3109552D01*
Y2816229D01*
X1536716D01*
X1446229Y2906716D01*
Y2920595D01*
X1448679Y2921610D01*
X1454299Y2925923D01*
X1457076Y2929542D01*
X1457701Y2929818D01*
X1462519D01*
X1463144Y2929542D01*
X1465921Y2925923D01*
X1471541Y2921610D01*
X1478086Y2918899D01*
X1485110Y2917974D01*
X1492134Y2918899D01*
X1498679Y2921610D01*
X1504299Y2925923D01*
X1507076Y2929542D01*
X1507701Y2929818D01*
X1512519D01*
X1513144Y2929542D01*
X1515921Y2925923D01*
X1521541Y2921610D01*
X1528086Y2918899D01*
X1535110Y2917974D01*
X1542134Y2918899D01*
X1548679Y2921610D01*
X1554299Y2925923D01*
X1554378Y2926026D01*
X1560681Y2926026D01*
X1563001Y2923003D01*
X1569476Y2918034D01*
X1577017Y2914910D01*
X1580110Y2914503D01*
Y2945112D01*
X1585110D01*
Y2950112D01*
X1615719D01*
X1615312Y2953205D01*
X1612188Y2960746D01*
X1607219Y2967222D01*
X1604196Y2969541D01*
X1604196Y2975844D01*
X1604299Y2975923D01*
X1608612Y2981543D01*
X1611323Y2988088D01*
X1612248Y2995112D01*
X1611323Y3002136D01*
X1608612Y3008681D01*
X1604299Y3014301D01*
X1598679Y3018614D01*
X1592134Y3021325D01*
X1585110Y3022250D01*
X1578086Y3021325D01*
X1571541Y3018614D01*
X1565921Y3014301D01*
X1563144Y3010682D01*
X1562519Y3010406D01*
X1557701D01*
X1557076Y3010682D01*
X1554299Y3014301D01*
X1548679Y3018614D01*
X1542134Y3021325D01*
X1535110Y3022250D01*
X1528086Y3021325D01*
X1521541Y3018614D01*
X1515921Y3014301D01*
X1513144Y3010682D01*
X1512519Y3010406D01*
X1507701D01*
X1507076Y3010682D01*
X1504299Y3014301D01*
X1498679Y3018614D01*
X1492134Y3021325D01*
X1485110Y3022250D01*
X1478086Y3021325D01*
X1471541Y3018614D01*
X1465921Y3014301D01*
X1463144Y3010682D01*
X1462519Y3010406D01*
X1457701D01*
X1457076Y3010682D01*
X1454299Y3014301D01*
X1448679Y3018614D01*
X1446229Y3019629D01*
Y3042504D01*
X1617606Y3213881D01*
X2381615D01*
X2434024Y3161472D01*
X2431129Y3154483D01*
X2429895Y3145110D01*
X2431129Y3135737D01*
X2434747Y3127003D01*
X2440502Y3119502D01*
X2448003Y3113747D01*
X2456737Y3110129D01*
X2466110Y3108895D01*
X2475483Y3110129D01*
X2484218Y3113747D01*
X2491718Y3119502D01*
X2497474Y3127003D01*
X2501091Y3135737D01*
X2502325Y3145110D01*
X2501091Y3154483D01*
X2497474Y3163218D01*
X2491718Y3170718D01*
X2484218Y3176474D01*
X2475483Y3180091D01*
X2466110Y3181325D01*
X2456737Y3180091D01*
X2449749Y3177197D01*
X2394083Y3232863D01*
X2390476Y3235273D01*
X2386220Y3236119D01*
D02*
G37*
G36*
X210703Y3325709D02*
X186102D01*
Y3301108D01*
X188934Y3301481D01*
X196232Y3304504D01*
X202499Y3309312D01*
X207307Y3315579D01*
X210330Y3322877D01*
X210703Y3325709D01*
D02*
G37*
G36*
X372953D02*
X348352D01*
X348725Y3322877D01*
X351748Y3315579D01*
X356557Y3309312D01*
X362823Y3304504D01*
X370121Y3301481D01*
X372953Y3301108D01*
Y3325709D01*
D02*
G37*
G36*
X644110Y3695239D02*
X637347Y3694349D01*
X631045Y3691738D01*
X625634Y3687586D01*
X621482Y3682175D01*
X618871Y3675873D01*
X617981Y3669110D01*
X618871Y3662347D01*
X621482Y3656046D01*
X625634Y3650634D01*
X631045Y3646482D01*
X633491Y3645469D01*
Y3327996D01*
X632205Y3327463D01*
X626859Y3323361D01*
X622757Y3318016D01*
X620178Y3311791D01*
X619299Y3305110D01*
X620178Y3298430D01*
X622757Y3292205D01*
X626859Y3286859D01*
X632205Y3282757D01*
X638430Y3280178D01*
X645110Y3279299D01*
X651791Y3280178D01*
X658016Y3282757D01*
X663361Y3286859D01*
X667463Y3292205D01*
X670042Y3298430D01*
X670922Y3305110D01*
X670042Y3311791D01*
X667463Y3318016D01*
X663361Y3323361D01*
X658016Y3327463D01*
X655729Y3328410D01*
Y3645883D01*
X657174Y3646482D01*
X662586Y3650634D01*
X666738Y3656046D01*
X669349Y3662347D01*
X670239Y3669110D01*
X669349Y3675873D01*
X666738Y3682175D01*
X662586Y3687586D01*
X657174Y3691738D01*
X650873Y3694349D01*
X644110Y3695239D01*
D02*
G37*
G36*
X176102Y3325709D02*
X151502D01*
X151875Y3322877D01*
X154897Y3315579D01*
X159706Y3309312D01*
X165973Y3304504D01*
X173271Y3301481D01*
X176102Y3301108D01*
Y3325709D01*
D02*
G37*
G36*
Y3754010D02*
X173271Y3753637D01*
X165973Y3750615D01*
X159706Y3745806D01*
X154897Y3739539D01*
X151875Y3732241D01*
X151502Y3729410D01*
X176102D01*
Y3754010D01*
D02*
G37*
G36*
X186102D02*
Y3729410D01*
X210703D01*
X210330Y3732241D01*
X207307Y3739539D01*
X202499Y3745806D01*
X196232Y3750615D01*
X188934Y3753637D01*
X186102Y3754010D01*
D02*
G37*
G36*
X2341457Y3719410D02*
X2316856D01*
X2317229Y3716578D01*
X2320252Y3709280D01*
X2325061Y3703013D01*
X2331327Y3698205D01*
X2338625Y3695182D01*
X2341457Y3694809D01*
Y3719410D01*
D02*
G37*
G36*
X2376057D02*
X2351457D01*
Y3694809D01*
X2354288Y3695182D01*
X2361586Y3698205D01*
X2367853Y3703013D01*
X2372662Y3709280D01*
X2375685Y3716578D01*
X2376057Y3719410D01*
D02*
G37*
G36*
X372953Y3754010D02*
X370121Y3753637D01*
X362823Y3750615D01*
X356557Y3745806D01*
X351748Y3739539D01*
X348725Y3732241D01*
X348352Y3729410D01*
X372953D01*
Y3754010D01*
D02*
G37*
G36*
X579803D02*
Y3729410D01*
X604404D01*
X604031Y3732241D01*
X601008Y3739539D01*
X596199Y3745806D01*
X589933Y3750615D01*
X582635Y3753637D01*
X579803Y3754010D01*
D02*
G37*
G36*
X963504D02*
X960672Y3753637D01*
X953375Y3750615D01*
X947108Y3745806D01*
X942299Y3739539D01*
X939276Y3732241D01*
X938903Y3729410D01*
X963504D01*
Y3754010D01*
D02*
G37*
G36*
X382953D02*
Y3729410D01*
X407553D01*
X407181Y3732241D01*
X404158Y3739539D01*
X399349Y3745806D01*
X393082Y3750615D01*
X385784Y3753637D01*
X382953Y3754010D01*
D02*
G37*
G36*
X569803D02*
X566972Y3753637D01*
X559674Y3750615D01*
X553407Y3745806D01*
X548598Y3739539D01*
X545575Y3732241D01*
X545202Y3729410D01*
X569803D01*
Y3754010D01*
D02*
G37*
G36*
X2179207Y3719410D02*
X2154606D01*
Y3694809D01*
X2157438Y3695182D01*
X2164736Y3698205D01*
X2171003Y3703013D01*
X2175811Y3709280D01*
X2178834Y3716578D01*
X2179207Y3719410D01*
D02*
G37*
G36*
X1554055D02*
X1529455D01*
X1529827Y3716578D01*
X1532850Y3709280D01*
X1537659Y3703013D01*
X1543926Y3698205D01*
X1551224Y3695182D01*
X1554055Y3694809D01*
Y3719410D01*
D02*
G37*
G36*
X1588656D02*
X1564055D01*
Y3694809D01*
X1566887Y3695182D01*
X1574185Y3698205D01*
X1580451Y3703013D01*
X1585260Y3709280D01*
X1588283Y3716578D01*
X1588656Y3719410D01*
D02*
G37*
G36*
X1357205D02*
X1332604D01*
X1332977Y3716578D01*
X1336000Y3709280D01*
X1340809Y3703013D01*
X1347075Y3698205D01*
X1354373Y3695182D01*
X1357205Y3694809D01*
Y3719410D01*
D02*
G37*
G36*
X1391805D02*
X1367205D01*
Y3694809D01*
X1370036Y3695182D01*
X1377334Y3698205D01*
X1383601Y3703013D01*
X1388410Y3709280D01*
X1391433Y3716578D01*
X1391805Y3719410D01*
D02*
G37*
G36*
X1750906D02*
X1726305D01*
X1726678Y3716578D01*
X1729701Y3709280D01*
X1734509Y3703013D01*
X1740776Y3698205D01*
X1748074Y3695182D01*
X1750906Y3694809D01*
Y3719410D01*
D02*
G37*
G36*
X1982357D02*
X1957756D01*
Y3694809D01*
X1960588Y3695182D01*
X1967885Y3698205D01*
X1974152Y3703013D01*
X1978961Y3709280D01*
X1981984Y3716578D01*
X1982357Y3719410D01*
D02*
G37*
G36*
X2144606D02*
X2120006D01*
X2120378Y3716578D01*
X2123401Y3709280D01*
X2128210Y3703013D01*
X2134477Y3698205D01*
X2141775Y3695182D01*
X2144606Y3694809D01*
Y3719410D01*
D02*
G37*
G36*
X1785506D02*
X1760906D01*
Y3694809D01*
X1763737Y3695182D01*
X1771035Y3698205D01*
X1777302Y3703013D01*
X1782111Y3709280D01*
X1785133Y3716578D01*
X1785506Y3719410D01*
D02*
G37*
G36*
X1947756D02*
X1923155D01*
X1923528Y3716578D01*
X1926551Y3709280D01*
X1931360Y3703013D01*
X1937627Y3698205D01*
X1944924Y3695182D01*
X1947756Y3694809D01*
Y3719410D01*
D02*
G37*
G36*
X2154606Y3754010D02*
Y3729410D01*
X2179207D01*
X2178834Y3732241D01*
X2175811Y3739539D01*
X2171003Y3745806D01*
X2164736Y3750615D01*
X2157438Y3753637D01*
X2154606Y3754010D01*
D02*
G37*
G36*
X2341457D02*
X2338625Y3753637D01*
X2331327Y3750615D01*
X2325061Y3745806D01*
X2320252Y3739539D01*
X2317229Y3732241D01*
X2316856Y3729410D01*
X2341457D01*
Y3754010D01*
D02*
G37*
G36*
X1957756D02*
Y3729410D01*
X1982357D01*
X1981984Y3732241D01*
X1978961Y3739539D01*
X1974152Y3745806D01*
X1967885Y3750615D01*
X1960588Y3753637D01*
X1957756Y3754010D01*
D02*
G37*
G36*
X2144606D02*
X2141775Y3753637D01*
X2134477Y3750615D01*
X2128210Y3745806D01*
X2123401Y3739539D01*
X2120378Y3732241D01*
X2120006Y3729410D01*
X2144606D01*
Y3754010D01*
D02*
G37*
G36*
X2351457D02*
Y3729410D01*
X2376057D01*
X2375685Y3732241D01*
X2372662Y3739539D01*
X2367853Y3745806D01*
X2361586Y3750615D01*
X2354288Y3753637D01*
X2351457Y3754010D01*
D02*
G37*
G36*
X739110Y3798711D02*
X736278Y3798338D01*
X728981Y3795315D01*
X722714Y3790506D01*
X717905Y3784239D01*
X714882Y3776942D01*
X714509Y3774110D01*
X739110D01*
Y3798711D01*
D02*
G37*
G36*
X749110D02*
Y3774110D01*
X773711D01*
X773338Y3776942D01*
X770315Y3784239D01*
X765506Y3790506D01*
X759239Y3795315D01*
X751942Y3798338D01*
X749110Y3798711D01*
D02*
G37*
G36*
X739110Y3764110D02*
X714509D01*
X714882Y3761278D01*
X717905Y3753981D01*
X722714Y3747714D01*
X728981Y3742905D01*
X736278Y3739882D01*
X739110Y3739509D01*
Y3764110D01*
D02*
G37*
G36*
X773711D02*
X749110D01*
Y3739509D01*
X751942Y3739882D01*
X759239Y3742905D01*
X765506Y3747714D01*
X770315Y3753981D01*
X773338Y3761278D01*
X773711Y3764110D01*
D02*
G37*
G36*
X1947756Y3754010D02*
X1944924Y3753637D01*
X1937627Y3750615D01*
X1931360Y3745806D01*
X1926551Y3739539D01*
X1923528Y3732241D01*
X1923155Y3729410D01*
X1947756D01*
Y3754010D01*
D02*
G37*
G36*
X1170354D02*
Y3729410D01*
X1194955D01*
X1194582Y3732241D01*
X1191559Y3739539D01*
X1186751Y3745806D01*
X1180484Y3750615D01*
X1173186Y3753637D01*
X1170354Y3754010D01*
D02*
G37*
G36*
X1357205D02*
X1354373Y3753637D01*
X1347075Y3750615D01*
X1340809Y3745806D01*
X1336000Y3739539D01*
X1332977Y3732241D01*
X1332604Y3729410D01*
X1357205D01*
Y3754010D01*
D02*
G37*
G36*
X973504D02*
Y3729410D01*
X998105D01*
X997732Y3732241D01*
X994709Y3739539D01*
X989900Y3745806D01*
X983633Y3750615D01*
X976336Y3753637D01*
X973504Y3754010D01*
D02*
G37*
G36*
X1160354D02*
X1157523Y3753637D01*
X1150225Y3750615D01*
X1143958Y3745806D01*
X1139149Y3739539D01*
X1136127Y3732241D01*
X1135754Y3729410D01*
X1160354D01*
Y3754010D01*
D02*
G37*
G36*
X1367205D02*
Y3729410D01*
X1391805D01*
X1391433Y3732241D01*
X1388410Y3739539D01*
X1383601Y3745806D01*
X1377334Y3750615D01*
X1370036Y3753637D01*
X1367205Y3754010D01*
D02*
G37*
G36*
X1750906D02*
X1748074Y3753637D01*
X1740776Y3750615D01*
X1734509Y3745806D01*
X1729701Y3739539D01*
X1726678Y3732241D01*
X1726305Y3729410D01*
X1750906D01*
Y3754010D01*
D02*
G37*
G36*
X1760906D02*
Y3729410D01*
X1785506D01*
X1785133Y3732241D01*
X1782111Y3739539D01*
X1777302Y3745806D01*
X1771035Y3750615D01*
X1763737Y3753637D01*
X1760906Y3754010D01*
D02*
G37*
G36*
X1554055D02*
X1551224Y3753637D01*
X1543926Y3750615D01*
X1537659Y3745806D01*
X1532850Y3739539D01*
X1529827Y3732241D01*
X1529455Y3729410D01*
X1554055D01*
Y3754010D01*
D02*
G37*
G36*
X1564055D02*
Y3729410D01*
X1588656D01*
X1588283Y3732241D01*
X1585260Y3739539D01*
X1580451Y3745806D01*
X1574185Y3750615D01*
X1566887Y3753637D01*
X1564055Y3754010D01*
D02*
G37*
G36*
X1194955Y3719410D02*
X1170354D01*
Y3694809D01*
X1173186Y3695182D01*
X1180484Y3698205D01*
X1186751Y3703013D01*
X1191559Y3709280D01*
X1194582Y3716578D01*
X1194955Y3719410D01*
D02*
G37*
G36*
X481378Y3557160D02*
Y3532559D01*
X505979D01*
X505606Y3535391D01*
X502583Y3542689D01*
X497774Y3548956D01*
X491507Y3553764D01*
X484210Y3556787D01*
X481378Y3557160D01*
D02*
G37*
G36*
X1061929D02*
X1059098Y3556787D01*
X1051800Y3553764D01*
X1045533Y3548956D01*
X1040724Y3542689D01*
X1037701Y3535391D01*
X1037329Y3532559D01*
X1061929D01*
Y3557160D01*
D02*
G37*
G36*
X284528D02*
Y3532559D01*
X309128D01*
X308755Y3535391D01*
X305733Y3542689D01*
X300924Y3548956D01*
X294657Y3553764D01*
X287359Y3556787D01*
X284528Y3557160D01*
D02*
G37*
G36*
X471378D02*
X468546Y3556787D01*
X461249Y3553764D01*
X454982Y3548956D01*
X450173Y3542689D01*
X447150Y3535391D01*
X446777Y3532559D01*
X471378D01*
Y3557160D01*
D02*
G37*
G36*
X1071929D02*
Y3532559D01*
X1096530D01*
X1096157Y3535391D01*
X1093134Y3542689D01*
X1088325Y3548956D01*
X1082059Y3553764D01*
X1074761Y3556787D01*
X1071929Y3557160D01*
D02*
G37*
G36*
X1455630D02*
X1452798Y3556787D01*
X1445501Y3553764D01*
X1439234Y3548956D01*
X1434425Y3542689D01*
X1431402Y3535391D01*
X1431029Y3532559D01*
X1455630D01*
Y3557160D01*
D02*
G37*
G36*
X1465630D02*
Y3532559D01*
X1490231D01*
X1489858Y3535391D01*
X1486835Y3542689D01*
X1482026Y3548956D01*
X1475759Y3553764D01*
X1468462Y3556787D01*
X1465630Y3557160D01*
D02*
G37*
G36*
X1258780D02*
X1255948Y3556787D01*
X1248650Y3553764D01*
X1242383Y3548956D01*
X1237575Y3542689D01*
X1234552Y3535391D01*
X1234179Y3532559D01*
X1258780D01*
Y3557160D01*
D02*
G37*
G36*
X1268780D02*
Y3532559D01*
X1293380D01*
X1293007Y3535391D01*
X1289985Y3542689D01*
X1285176Y3548956D01*
X1278909Y3553764D01*
X1271611Y3556787D01*
X1268780Y3557160D01*
D02*
G37*
G36*
X274528D02*
X271696Y3556787D01*
X264398Y3553764D01*
X258131Y3548956D01*
X253323Y3542689D01*
X250300Y3535391D01*
X249927Y3532559D01*
X274528D01*
Y3557160D01*
D02*
G37*
G36*
X1883931Y3522559D02*
X1859331D01*
Y3497959D01*
X1862162Y3498331D01*
X1869460Y3501354D01*
X1875727Y3506163D01*
X1880536Y3512430D01*
X1883559Y3519728D01*
X1883931Y3522559D01*
D02*
G37*
G36*
X2046181D02*
X2021581D01*
X2021953Y3519728D01*
X2024976Y3512430D01*
X2029785Y3506163D01*
X2036052Y3501354D01*
X2043350Y3498331D01*
X2046181Y3497959D01*
Y3522559D01*
D02*
G37*
G36*
X1687081D02*
X1662480D01*
Y3497959D01*
X1665312Y3498331D01*
X1672610Y3501354D01*
X1678877Y3506163D01*
X1683685Y3512430D01*
X1686708Y3519728D01*
X1687081Y3522559D01*
D02*
G37*
G36*
X1849331D02*
X1824730D01*
X1825103Y3519728D01*
X1828126Y3512430D01*
X1832935Y3506163D01*
X1839201Y3501354D01*
X1846499Y3498331D01*
X1849331Y3497959D01*
Y3522559D01*
D02*
G37*
G36*
X2080782D02*
X2056181D01*
Y3497959D01*
X2059013Y3498331D01*
X2066311Y3501354D01*
X2072577Y3506163D01*
X2077386Y3512430D01*
X2080409Y3519728D01*
X2080782Y3522559D01*
D02*
G37*
G36*
X2439882D02*
X2415281D01*
X2415654Y3519728D01*
X2418677Y3512430D01*
X2423486Y3506163D01*
X2429753Y3501354D01*
X2437050Y3498331D01*
X2439882Y3497959D01*
Y3522559D01*
D02*
G37*
G36*
X2474483D02*
X2449882D01*
Y3497959D01*
X2452714Y3498331D01*
X2460011Y3501354D01*
X2466278Y3506163D01*
X2471087Y3512430D01*
X2474110Y3519728D01*
X2474483Y3522559D01*
D02*
G37*
G36*
X2243032D02*
X2218431D01*
X2218804Y3519728D01*
X2221827Y3512430D01*
X2226635Y3506163D01*
X2232902Y3501354D01*
X2240200Y3498331D01*
X2243032Y3497959D01*
Y3522559D01*
D02*
G37*
G36*
X2277632D02*
X2253032D01*
Y3497959D01*
X2255863Y3498331D01*
X2263161Y3501354D01*
X2269428Y3506163D01*
X2274237Y3512430D01*
X2277260Y3519728D01*
X2277632Y3522559D01*
D02*
G37*
G36*
X372953Y3719410D02*
X348352D01*
X348725Y3716578D01*
X351748Y3709280D01*
X356557Y3703013D01*
X362823Y3698205D01*
X370121Y3695182D01*
X372953Y3694809D01*
Y3719410D01*
D02*
G37*
G36*
X407553D02*
X382953D01*
Y3694809D01*
X385784Y3695182D01*
X393082Y3698205D01*
X399349Y3703013D01*
X404158Y3709280D01*
X407181Y3716578D01*
X407553Y3719410D01*
D02*
G37*
G36*
X176102D02*
X151502D01*
X151875Y3716578D01*
X154897Y3709280D01*
X159706Y3703013D01*
X165973Y3698205D01*
X173271Y3695182D01*
X176102Y3694809D01*
Y3719410D01*
D02*
G37*
G36*
X210703D02*
X186102D01*
Y3694809D01*
X188934Y3695182D01*
X196232Y3698205D01*
X202499Y3703013D01*
X207307Y3709280D01*
X210330Y3716578D01*
X210703Y3719410D01*
D02*
G37*
G36*
X569803D02*
X545202D01*
X545575Y3716578D01*
X548598Y3709280D01*
X553407Y3703013D01*
X559674Y3698205D01*
X566972Y3695182D01*
X569803Y3694809D01*
Y3719410D01*
D02*
G37*
G36*
X998105D02*
X973504D01*
Y3694809D01*
X976336Y3695182D01*
X983633Y3698205D01*
X989900Y3703013D01*
X994709Y3709280D01*
X997732Y3716578D01*
X998105Y3719410D01*
D02*
G37*
G36*
X1160354D02*
X1135754D01*
X1136127Y3716578D01*
X1139149Y3709280D01*
X1143958Y3703013D01*
X1150225Y3698205D01*
X1157523Y3695182D01*
X1160354Y3694809D01*
Y3719410D01*
D02*
G37*
G36*
X604404D02*
X579803D01*
Y3694809D01*
X582635Y3695182D01*
X589933Y3698205D01*
X596199Y3703013D01*
X601008Y3709280D01*
X604031Y3716578D01*
X604404Y3719410D01*
D02*
G37*
G36*
X963504D02*
X938903D01*
X939276Y3716578D01*
X942299Y3709280D01*
X947108Y3703013D01*
X953375Y3698205D01*
X960672Y3695182D01*
X963504Y3694809D01*
Y3719410D01*
D02*
G37*
G36*
X2449882Y3557160D02*
Y3532559D01*
X2474483D01*
X2474110Y3535391D01*
X2471087Y3542689D01*
X2466278Y3548956D01*
X2460011Y3553764D01*
X2452714Y3556787D01*
X2449882Y3557160D01*
D02*
G37*
G36*
X1849331D02*
X1846499Y3556787D01*
X1839201Y3553764D01*
X1832935Y3548956D01*
X1828126Y3542689D01*
X1825103Y3535391D01*
X1824730Y3532559D01*
X1849331D01*
Y3557160D01*
D02*
G37*
G36*
X1859331D02*
Y3532559D01*
X1883931D01*
X1883559Y3535391D01*
X1880536Y3542689D01*
X1875727Y3548956D01*
X1869460Y3553764D01*
X1862162Y3556787D01*
X1859331Y3557160D01*
D02*
G37*
G36*
X1652480D02*
X1649649Y3556787D01*
X1642351Y3553764D01*
X1636084Y3548956D01*
X1631275Y3542689D01*
X1628253Y3535391D01*
X1627880Y3532559D01*
X1652480D01*
Y3557160D01*
D02*
G37*
G36*
X1662480D02*
Y3532559D01*
X1687081D01*
X1686708Y3535391D01*
X1683685Y3542689D01*
X1678877Y3548956D01*
X1672610Y3553764D01*
X1665312Y3556787D01*
X1662480Y3557160D01*
D02*
G37*
G36*
X2046181D02*
X2043350Y3556787D01*
X2036052Y3553764D01*
X2029785Y3548956D01*
X2024976Y3542689D01*
X2021953Y3535391D01*
X2021581Y3532559D01*
X2046181D01*
Y3557160D01*
D02*
G37*
G36*
X2253032D02*
Y3532559D01*
X2277632D01*
X2277260Y3535391D01*
X2274237Y3542689D01*
X2269428Y3548956D01*
X2263161Y3553764D01*
X2255863Y3556787D01*
X2253032Y3557160D01*
D02*
G37*
G36*
X2439882D02*
X2437050Y3556787D01*
X2429753Y3553764D01*
X2423486Y3548956D01*
X2418677Y3542689D01*
X2415654Y3535391D01*
X2415281Y3532559D01*
X2439882D01*
Y3557160D01*
D02*
G37*
G36*
X2056181D02*
Y3532559D01*
X2080782D01*
X2080409Y3535391D01*
X2077386Y3542689D01*
X2072577Y3548956D01*
X2066311Y3553764D01*
X2059013Y3556787D01*
X2056181Y3557160D01*
D02*
G37*
G36*
X2243032D02*
X2240200Y3556787D01*
X2232902Y3553764D01*
X2226635Y3548956D01*
X2221827Y3542689D01*
X2218804Y3535391D01*
X2218431Y3532559D01*
X2243032D01*
Y3557160D01*
D02*
G37*
G36*
X1947756Y2966609D02*
X1944924Y2966236D01*
X1937627Y2963213D01*
X1931360Y2958404D01*
X1926551Y2952137D01*
X1923528Y2944840D01*
X1923155Y2942008D01*
X1947756D01*
Y2966609D01*
D02*
G37*
G36*
X2109134Y2248778D02*
X2103815Y2248078D01*
X2094200Y2244095D01*
X2085943Y2237759D01*
X2079607Y2229502D01*
X2075624Y2219887D01*
X2074924Y2214568D01*
X2109134D01*
Y2248778D01*
D02*
G37*
G36*
X2119134D02*
Y2214568D01*
X2153344D01*
X2152644Y2219887D01*
X2148661Y2229502D01*
X2142325Y2237759D01*
X2134068Y2244095D01*
X2124453Y2248078D01*
X2119134Y2248778D01*
D02*
G37*
G36*
X1814134Y2245307D02*
X1804884Y2244089D01*
X1796265Y2240519D01*
X1788863Y2234839D01*
X1783183Y2227437D01*
X1779613Y2218818D01*
X1778395Y2209568D01*
X1779613Y2200318D01*
X1783183Y2191699D01*
X1788863Y2184297D01*
X1796265Y2178617D01*
X1804884Y2175047D01*
X1814134Y2173829D01*
X1823384Y2175047D01*
X1832003Y2178617D01*
X1839405Y2184297D01*
X1845085Y2191699D01*
X1848655Y2200318D01*
X1849873Y2209568D01*
X1848655Y2218818D01*
X1845085Y2227437D01*
X1839405Y2234839D01*
X1832003Y2240519D01*
X1823384Y2244089D01*
X1814134Y2245307D01*
D02*
G37*
G36*
X566110Y2262849D02*
X556860Y2261631D01*
X548241Y2258061D01*
X540839Y2252381D01*
X535160Y2244980D01*
X531589Y2236360D01*
X530371Y2227110D01*
X531589Y2217860D01*
X535160Y2209241D01*
X540839Y2201839D01*
X548241Y2196160D01*
X556860Y2192589D01*
X566110Y2191372D01*
X575360Y2192589D01*
X583980Y2196160D01*
X591381Y2201839D01*
X597061Y2209241D01*
X600631Y2217860D01*
X601849Y2227110D01*
X600631Y2236360D01*
X597061Y2244980D01*
X591381Y2252381D01*
X583980Y2258061D01*
X575360Y2261631D01*
X566110Y2262849D01*
D02*
G37*
G36*
X601543Y2362543D02*
X530677D01*
Y2291677D01*
X601543D01*
Y2362543D01*
D02*
G37*
G36*
X668228Y2341457D02*
X643628D01*
X644000Y2338625D01*
X647023Y2331327D01*
X651832Y2325061D01*
X658099Y2320252D01*
X665397Y2317229D01*
X668228Y2316856D01*
Y2341457D01*
D02*
G37*
G36*
X702829D02*
X678228D01*
Y2316856D01*
X681060Y2317229D01*
X688358Y2320252D01*
X694625Y2325061D01*
X699433Y2331327D01*
X702456Y2338625D01*
X702829Y2341457D01*
D02*
G37*
G36*
X471378D02*
X446777D01*
X447150Y2338625D01*
X450173Y2331327D01*
X454982Y2325061D01*
X461249Y2320252D01*
X468546Y2317229D01*
X471378Y2316856D01*
Y2341457D01*
D02*
G37*
G36*
X505979D02*
X481378D01*
Y2316856D01*
X484210Y2317229D01*
X491507Y2320252D01*
X497774Y2325061D01*
X502583Y2331327D01*
X505606Y2338625D01*
X505979Y2341457D01*
D02*
G37*
G36*
X2153344Y2204568D02*
X2119134D01*
Y2170358D01*
X2124453Y2171058D01*
X2134068Y2175041D01*
X2142325Y2181377D01*
X2148661Y2189634D01*
X2152644Y2199249D01*
X2153344Y2204568D01*
D02*
G37*
G36*
X1750906Y2179207D02*
X1748074Y2178834D01*
X1740776Y2175811D01*
X1734509Y2171003D01*
X1729701Y2164736D01*
X1726678Y2157438D01*
X1726305Y2154606D01*
X1750906D01*
Y2179207D01*
D02*
G37*
G36*
X1760906D02*
Y2154606D01*
X1785506D01*
X1785133Y2157438D01*
X1782111Y2164736D01*
X1777302Y2171003D01*
X1771035Y2175811D01*
X1763737Y2178834D01*
X1760906Y2179207D01*
D02*
G37*
G36*
X1554055D02*
X1551224Y2178834D01*
X1543926Y2175811D01*
X1537659Y2171003D01*
X1532850Y2164736D01*
X1529827Y2157438D01*
X1529455Y2154606D01*
X1554055D01*
Y2179207D01*
D02*
G37*
G36*
X1564055D02*
Y2154606D01*
X1588656D01*
X1588283Y2157438D01*
X1585260Y2164736D01*
X1580451Y2171003D01*
X1574185Y2175811D01*
X1566887Y2178834D01*
X1564055Y2179207D01*
D02*
G37*
G36*
X1947756D02*
X1944924Y2178834D01*
X1937627Y2175811D01*
X1931360Y2171003D01*
X1926551Y2164736D01*
X1923528Y2157438D01*
X1923155Y2154606D01*
X1947756D01*
Y2179207D01*
D02*
G37*
G36*
X2351457D02*
Y2154606D01*
X2376057D01*
X2375685Y2157438D01*
X2372662Y2164736D01*
X2367853Y2171003D01*
X2361586Y2175811D01*
X2354288Y2178834D01*
X2351457Y2179207D01*
D02*
G37*
G36*
X2109134Y2204568D02*
X2074924D01*
X2075624Y2199249D01*
X2079607Y2189634D01*
X2085943Y2181377D01*
X2094200Y2175041D01*
X2103815Y2171058D01*
X2109134Y2170358D01*
Y2204568D01*
D02*
G37*
G36*
X1957756Y2179207D02*
Y2154606D01*
X1982357D01*
X1981984Y2157438D01*
X1978961Y2164736D01*
X1974152Y2171003D01*
X1967885Y2175811D01*
X1960588Y2178834D01*
X1957756Y2179207D01*
D02*
G37*
G36*
X2341457D02*
X2338625Y2178834D01*
X2331327Y2175811D01*
X2325061Y2171003D01*
X2320252Y2164736D01*
X2317229Y2157438D01*
X2316856Y2154606D01*
X2341457D01*
Y2179207D01*
D02*
G37*
G36*
X1849331Y2376057D02*
X1846499Y2375685D01*
X1839201Y2372662D01*
X1832935Y2367853D01*
X1828126Y2361586D01*
X1825103Y2354288D01*
X1824730Y2351457D01*
X1849331D01*
Y2376057D01*
D02*
G37*
G36*
X1859331D02*
Y2351457D01*
X1883931D01*
X1883559Y2354288D01*
X1880536Y2361586D01*
X1875727Y2367853D01*
X1869460Y2372662D01*
X1862162Y2375685D01*
X1859331Y2376057D01*
D02*
G37*
G36*
X1652480D02*
X1649649Y2375685D01*
X1642351Y2372662D01*
X1636084Y2367853D01*
X1631275Y2361586D01*
X1628253Y2354288D01*
X1627880Y2351457D01*
X1652480D01*
Y2376057D01*
D02*
G37*
G36*
X1662480D02*
Y2351457D01*
X1687081D01*
X1686708Y2354288D01*
X1683685Y2361586D01*
X1678877Y2367853D01*
X1672610Y2372662D01*
X1665312Y2375685D01*
X1662480Y2376057D01*
D02*
G37*
G36*
X2439882D02*
X2437050Y2375685D01*
X2429753Y2372662D01*
X2423486Y2367853D01*
X2418677Y2361586D01*
X2415654Y2354288D01*
X2415281Y2351457D01*
X2439882D01*
Y2376057D01*
D02*
G37*
G36*
X1948419Y2418260D02*
X1913732D01*
Y2383573D01*
X1919174Y2384289D01*
X1928905Y2388320D01*
X1937260Y2394732D01*
X1943672Y2403087D01*
X1947703Y2412818D01*
X1948419Y2418260D01*
D02*
G37*
G36*
X2058338Y2459475D02*
X2048965Y2458241D01*
X2040230Y2454623D01*
X2032730Y2448868D01*
X2026975Y2441368D01*
X2023357Y2432633D01*
X2022123Y2423260D01*
X2023357Y2413887D01*
X2026975Y2405152D01*
X2032730Y2397652D01*
X2040230Y2391897D01*
X2048965Y2388279D01*
X2058338Y2387045D01*
X2067711Y2388279D01*
X2076446Y2391897D01*
X2083946Y2397652D01*
X2089701Y2405152D01*
X2093319Y2413887D01*
X2094553Y2423260D01*
X2093319Y2432633D01*
X2089701Y2441368D01*
X2083946Y2448868D01*
X2076446Y2454623D01*
X2067711Y2458241D01*
X2058338Y2459475D01*
D02*
G37*
G36*
X2449882Y2376057D02*
Y2351457D01*
X2474483D01*
X2474110Y2354288D01*
X2471087Y2361586D01*
X2466278Y2367853D01*
X2460011Y2372662D01*
X2452714Y2375685D01*
X2449882Y2376057D01*
D02*
G37*
G36*
X1903732Y2418260D02*
X1869045D01*
X1869762Y2412818D01*
X1873792Y2403087D01*
X1880204Y2394732D01*
X1888559Y2388320D01*
X1898290Y2384289D01*
X1903732Y2383573D01*
Y2418260D01*
D02*
G37*
G36*
X678228Y2376057D02*
Y2351457D01*
X702829D01*
X702456Y2354288D01*
X699433Y2361586D01*
X694625Y2367853D01*
X688358Y2372662D01*
X681060Y2375685D01*
X678228Y2376057D01*
D02*
G37*
G36*
X1849331Y2341457D02*
X1824730D01*
X1825103Y2338625D01*
X1828126Y2331327D01*
X1832935Y2325061D01*
X1839201Y2320252D01*
X1846499Y2317229D01*
X1849331Y2316856D01*
Y2341457D01*
D02*
G37*
G36*
X1883931D02*
X1859331D01*
Y2316856D01*
X1862162Y2317229D01*
X1869460Y2320252D01*
X1875727Y2325061D01*
X1880536Y2331327D01*
X1883559Y2338625D01*
X1883931Y2341457D01*
D02*
G37*
G36*
X1652480D02*
X1627880D01*
X1628253Y2338625D01*
X1631275Y2331327D01*
X1636084Y2325061D01*
X1642351Y2320252D01*
X1649649Y2317229D01*
X1652480Y2316856D01*
Y2341457D01*
D02*
G37*
G36*
X1687081D02*
X1662480D01*
Y2316856D01*
X1665312Y2317229D01*
X1672610Y2320252D01*
X1678877Y2325061D01*
X1683685Y2331327D01*
X1686708Y2338625D01*
X1687081Y2341457D01*
D02*
G37*
G36*
X2439882D02*
X2415281D01*
X2415654Y2338625D01*
X2418677Y2331327D01*
X2423486Y2325061D01*
X2429753Y2320252D01*
X2437050Y2317229D01*
X2439882Y2316856D01*
Y2341457D01*
D02*
G37*
G36*
X481378Y2376057D02*
Y2351457D01*
X505979D01*
X505606Y2354288D01*
X502583Y2361586D01*
X497774Y2367853D01*
X491507Y2372662D01*
X484210Y2375685D01*
X481378Y2376057D01*
D02*
G37*
G36*
X668228D02*
X665397Y2375685D01*
X658099Y2372662D01*
X651832Y2367853D01*
X647023Y2361586D01*
X644000Y2354288D01*
X643628Y2351457D01*
X668228D01*
Y2376057D01*
D02*
G37*
G36*
X2474483Y2341457D02*
X2449882D01*
Y2316856D01*
X2452714Y2317229D01*
X2460011Y2320252D01*
X2466278Y2325061D01*
X2471087Y2331327D01*
X2474110Y2338625D01*
X2474483Y2341457D01*
D02*
G37*
G36*
X471378Y2376057D02*
X468546Y2375685D01*
X461249Y2372662D01*
X454982Y2367853D01*
X450173Y2361586D01*
X447150Y2354288D01*
X446777Y2351457D01*
X471378D01*
Y2376057D01*
D02*
G37*
G36*
X1170354Y2179207D02*
Y2154606D01*
X1194955D01*
X1194582Y2157438D01*
X1191559Y2164736D01*
X1186751Y2171003D01*
X1180484Y2175811D01*
X1173186Y2178834D01*
X1170354Y2179207D01*
D02*
G37*
G36*
X250110Y2085849D02*
X240860Y2084631D01*
X232241Y2081061D01*
X224839Y2075381D01*
X219159Y2067979D01*
X215589Y2059360D01*
X214371Y2050110D01*
X215589Y2040860D01*
X219159Y2032241D01*
X224839Y2024839D01*
X232241Y2019159D01*
X240860Y2015589D01*
X250110Y2014371D01*
X259360Y2015589D01*
X267979Y2019159D01*
X275381Y2024839D01*
X281061Y2032241D01*
X284631Y2040860D01*
X285849Y2050110D01*
X284631Y2059360D01*
X281061Y2067979D01*
X275381Y2075381D01*
X267979Y2081061D01*
X259360Y2084631D01*
X250110Y2085849D01*
D02*
G37*
G36*
X561110Y2066320D02*
X555791Y2065620D01*
X546176Y2061637D01*
X537919Y2055302D01*
X531583Y2047044D01*
X527600Y2037429D01*
X526900Y2032110D01*
X561110D01*
Y2066320D01*
D02*
G37*
G36*
Y2022110D02*
X526900D01*
X527600Y2016791D01*
X531583Y2007176D01*
X537919Y1998919D01*
X546176Y1992583D01*
X555791Y1988600D01*
X561110Y1987900D01*
Y2022110D01*
D02*
G37*
G36*
X605321D02*
X571110D01*
Y1987900D01*
X576429Y1988600D01*
X586044Y1992583D01*
X594302Y1998919D01*
X600637Y2007176D01*
X604620Y2016791D01*
X605321Y2022110D01*
D02*
G37*
G36*
X571110Y2066320D02*
Y2032110D01*
X605321D01*
X604620Y2037429D01*
X600637Y2047044D01*
X594302Y2055302D01*
X586044Y2061637D01*
X576429Y2065620D01*
X571110Y2066320D01*
D02*
G37*
G36*
X2114134Y2145307D02*
X2104884Y2144089D01*
X2096265Y2140519D01*
X2088863Y2134839D01*
X2083183Y2127437D01*
X2079613Y2118818D01*
X2078395Y2109568D01*
X2079613Y2100318D01*
X2083183Y2091699D01*
X2088863Y2084297D01*
X2096265Y2078617D01*
X2104884Y2075047D01*
X2114134Y2073829D01*
X2123384Y2075047D01*
X2132003Y2078617D01*
X2139405Y2084297D01*
X2145085Y2091699D01*
X2148655Y2100318D01*
X2149873Y2109568D01*
X2148655Y2118818D01*
X2145085Y2127437D01*
X2139405Y2134839D01*
X2132003Y2140519D01*
X2123384Y2144089D01*
X2114134Y2145307D01*
D02*
G37*
G36*
X566110Y2162849D02*
X556860Y2161631D01*
X548241Y2158061D01*
X540839Y2152381D01*
X535160Y2144980D01*
X531589Y2136360D01*
X530371Y2127110D01*
X531589Y2117860D01*
X535160Y2109241D01*
X540839Y2101839D01*
X548241Y2096160D01*
X556860Y2092589D01*
X566110Y2091372D01*
X575360Y2092589D01*
X583980Y2096160D01*
X591381Y2101839D01*
X597061Y2109241D01*
X600631Y2117860D01*
X601849Y2127110D01*
X600631Y2136360D01*
X597061Y2144980D01*
X591381Y2152381D01*
X583980Y2158061D01*
X575360Y2161631D01*
X566110Y2162849D01*
D02*
G37*
G36*
X1869134Y2058939D02*
X1864879Y2058093D01*
X1862760Y2056677D01*
X1834685D01*
Y2044370D01*
X1829685Y2041479D01*
X1823384Y2044089D01*
X1814134Y2045307D01*
X1804884Y2044089D01*
X1796265Y2040519D01*
X1788863Y2034839D01*
X1783183Y2027437D01*
X1779613Y2018818D01*
X1778395Y2009568D01*
X1779613Y2000318D01*
X1783183Y1991699D01*
X1788863Y1984297D01*
X1796265Y1978617D01*
X1804884Y1975047D01*
X1814134Y1973829D01*
X1823384Y1975047D01*
X1832003Y1978617D01*
X1839405Y1984297D01*
X1845085Y1991699D01*
X1848354Y1999591D01*
X1903583D01*
Y2056677D01*
X1875508D01*
X1873389Y2058093D01*
X1869134Y2058939D01*
D02*
G37*
G36*
X1814134Y2145307D02*
X1804884Y2144089D01*
X1796265Y2140519D01*
X1788863Y2134839D01*
X1783183Y2127437D01*
X1779613Y2118818D01*
X1778395Y2109568D01*
X1779613Y2100318D01*
X1783183Y2091699D01*
X1788863Y2084297D01*
X1796265Y2078617D01*
X1804884Y2075047D01*
X1814134Y2073829D01*
X1823384Y2075047D01*
X1829685Y2077657D01*
X1834685Y2074766D01*
Y2070457D01*
X1862763D01*
X1864879Y2069043D01*
X1869134Y2068197D01*
X1873389Y2069043D01*
X1875505Y2070457D01*
X1903583D01*
Y2127543D01*
X1845003D01*
X1839405Y2134839D01*
X1832003Y2140519D01*
X1823384Y2144089D01*
X1814134Y2145307D01*
D02*
G37*
G36*
X2114134Y2045307D02*
X2104884Y2044089D01*
X2096265Y2040519D01*
X2088863Y2034839D01*
X2083183Y2027437D01*
X2079613Y2018818D01*
X2078395Y2009568D01*
X2079613Y2000318D01*
X2083183Y1991699D01*
X2088863Y1984297D01*
X2096265Y1978617D01*
X2104884Y1975047D01*
X2114134Y1973829D01*
X2123384Y1975047D01*
X2132003Y1978617D01*
X2139405Y1984297D01*
X2145085Y1991699D01*
X2148655Y2000318D01*
X2149873Y2009568D01*
X2148655Y2018818D01*
X2145085Y2027437D01*
X2139405Y2034839D01*
X2132003Y2040519D01*
X2123384Y2044089D01*
X2114134Y2045307D01*
D02*
G37*
G36*
X678228Y1982357D02*
Y1957756D01*
X702829D01*
X702456Y1960588D01*
X699433Y1967885D01*
X694625Y1974152D01*
X688358Y1978961D01*
X681060Y1981984D01*
X678228Y1982357D01*
D02*
G37*
G36*
X1258780D02*
X1255948Y1981984D01*
X1248650Y1978961D01*
X1242383Y1974152D01*
X1237575Y1967885D01*
X1234552Y1960588D01*
X1234179Y1957756D01*
X1258780D01*
Y1982357D01*
D02*
G37*
G36*
X481378D02*
Y1957756D01*
X505979D01*
X505606Y1960588D01*
X502583Y1967885D01*
X497774Y1974152D01*
X491507Y1978961D01*
X484210Y1981984D01*
X481378Y1982357D01*
D02*
G37*
G36*
X668228D02*
X665397Y1981984D01*
X658099Y1978961D01*
X651832Y1974152D01*
X647023Y1967885D01*
X644000Y1960588D01*
X643628Y1957756D01*
X668228D01*
Y1982357D01*
D02*
G37*
G36*
X1268780D02*
Y1957756D01*
X1293380D01*
X1293007Y1960588D01*
X1289985Y1967885D01*
X1285176Y1974152D01*
X1278909Y1978961D01*
X1271611Y1981984D01*
X1268780Y1982357D01*
D02*
G37*
G36*
X2439882D02*
X2437050Y1981984D01*
X2429753Y1978961D01*
X2423486Y1974152D01*
X2418677Y1967885D01*
X2415654Y1960588D01*
X2415281Y1957756D01*
X2439882D01*
Y1982357D01*
D02*
G37*
G36*
X2449882D02*
Y1957756D01*
X2474483D01*
X2474110Y1960588D01*
X2471087Y1967885D01*
X2466278Y1974152D01*
X2460011Y1978961D01*
X2452714Y1981984D01*
X2449882Y1982357D01*
D02*
G37*
G36*
X1652480D02*
X1649649Y1981984D01*
X1642351Y1978961D01*
X1636084Y1974152D01*
X1631275Y1967885D01*
X1628253Y1960588D01*
X1627880Y1957756D01*
X1652480D01*
Y1982357D01*
D02*
G37*
G36*
X1662480D02*
Y1957756D01*
X1687081D01*
X1686708Y1960588D01*
X1683685Y1967885D01*
X1678877Y1974152D01*
X1672610Y1978961D01*
X1665312Y1981984D01*
X1662480Y1982357D01*
D02*
G37*
G36*
X2341457Y2144606D02*
X2316856D01*
X2317229Y2141775D01*
X2320252Y2134477D01*
X2325061Y2128210D01*
X2331327Y2123401D01*
X2338625Y2120378D01*
X2341457Y2120006D01*
Y2144606D01*
D02*
G37*
G36*
X2376057D02*
X2351457D01*
Y2120006D01*
X2354288Y2120378D01*
X2361586Y2123401D01*
X2367853Y2128210D01*
X2372662Y2134477D01*
X2375685Y2141775D01*
X2376057Y2144606D01*
D02*
G37*
G36*
X1947756D02*
X1923155D01*
X1923528Y2141775D01*
X1926551Y2134477D01*
X1931360Y2128210D01*
X1937627Y2123401D01*
X1944924Y2120378D01*
X1947756Y2120006D01*
Y2144606D01*
D02*
G37*
G36*
X1982357D02*
X1957756D01*
Y2120006D01*
X1960588Y2120378D01*
X1967885Y2123401D01*
X1974152Y2128210D01*
X1978961Y2134477D01*
X1981984Y2141775D01*
X1982357Y2144606D01*
D02*
G37*
G36*
X372953Y2179207D02*
X370121Y2178834D01*
X362823Y2175811D01*
X356557Y2171003D01*
X351748Y2164736D01*
X348725Y2157438D01*
X348352Y2154606D01*
X372953D01*
Y2179207D01*
D02*
G37*
G36*
X776654D02*
Y2154606D01*
X801254D01*
X800881Y2157438D01*
X797859Y2164736D01*
X793050Y2171003D01*
X786783Y2175811D01*
X779485Y2178834D01*
X776654Y2179207D01*
D02*
G37*
G36*
X1160354D02*
X1157523Y2178834D01*
X1150225Y2175811D01*
X1143958Y2171003D01*
X1139149Y2164736D01*
X1136127Y2157438D01*
X1135754Y2154606D01*
X1160354D01*
Y2179207D01*
D02*
G37*
G36*
X382953D02*
Y2154606D01*
X407553D01*
X407181Y2157438D01*
X404158Y2164736D01*
X399349Y2171003D01*
X393082Y2175811D01*
X385784Y2178834D01*
X382953Y2179207D01*
D02*
G37*
G36*
X766654D02*
X763822Y2178834D01*
X756524Y2175811D01*
X750257Y2171003D01*
X745449Y2164736D01*
X742426Y2157438D01*
X742053Y2154606D01*
X766654D01*
Y2179207D01*
D02*
G37*
G36*
X1785506Y2144606D02*
X1760906D01*
Y2120006D01*
X1763737Y2120378D01*
X1771035Y2123401D01*
X1777302Y2128210D01*
X1782111Y2134477D01*
X1785133Y2141775D01*
X1785506Y2144606D01*
D02*
G37*
G36*
X766654D02*
X742053D01*
X742426Y2141775D01*
X745449Y2134477D01*
X750257Y2128210D01*
X756524Y2123401D01*
X763822Y2120378D01*
X766654Y2120006D01*
Y2144606D01*
D02*
G37*
G36*
X801254D02*
X776654D01*
Y2120006D01*
X779485Y2120378D01*
X786783Y2123401D01*
X793050Y2128210D01*
X797859Y2134477D01*
X800881Y2141775D01*
X801254Y2144606D01*
D02*
G37*
G36*
X372953D02*
X348352D01*
X348725Y2141775D01*
X351748Y2134477D01*
X356557Y2128210D01*
X362823Y2123401D01*
X370121Y2120378D01*
X372953Y2120006D01*
Y2144606D01*
D02*
G37*
G36*
X407553D02*
X382953D01*
Y2120006D01*
X385784Y2120378D01*
X393082Y2123401D01*
X399349Y2128210D01*
X404158Y2134477D01*
X407181Y2141775D01*
X407553Y2144606D01*
D02*
G37*
G36*
X1160354D02*
X1135754D01*
X1136127Y2141775D01*
X1139149Y2134477D01*
X1143958Y2128210D01*
X1150225Y2123401D01*
X1157523Y2120378D01*
X1160354Y2120006D01*
Y2144606D01*
D02*
G37*
G36*
X1588656D02*
X1564055D01*
Y2120006D01*
X1566887Y2120378D01*
X1574185Y2123401D01*
X1580451Y2128210D01*
X1585260Y2134477D01*
X1588283Y2141775D01*
X1588656Y2144606D01*
D02*
G37*
G36*
X1750906D02*
X1726305D01*
X1726678Y2141775D01*
X1729701Y2134477D01*
X1734509Y2128210D01*
X1740776Y2123401D01*
X1748074Y2120378D01*
X1750906Y2120006D01*
Y2144606D01*
D02*
G37*
G36*
X1194955D02*
X1170354D01*
Y2120006D01*
X1173186Y2120378D01*
X1180484Y2123401D01*
X1186751Y2128210D01*
X1191559Y2134477D01*
X1194582Y2141775D01*
X1194955Y2144606D01*
D02*
G37*
G36*
X1554055D02*
X1529455D01*
X1529827Y2141775D01*
X1532850Y2134477D01*
X1537659Y2128210D01*
X1543926Y2123401D01*
X1551224Y2120378D01*
X1554055Y2120006D01*
Y2144606D01*
D02*
G37*
G36*
X2046181Y2769758D02*
X2043350Y2769385D01*
X2036052Y2766363D01*
X2029785Y2761554D01*
X2024976Y2755287D01*
X2021953Y2747989D01*
X2021581Y2745158D01*
X2046181D01*
Y2769758D01*
D02*
G37*
G36*
X2056181D02*
Y2745158D01*
X2080782D01*
X2080409Y2747989D01*
X2077386Y2755287D01*
X2072577Y2761554D01*
X2066311Y2766363D01*
X2059013Y2769385D01*
X2056181Y2769758D01*
D02*
G37*
G36*
X1652480D02*
X1649649Y2769385D01*
X1642351Y2766363D01*
X1636084Y2761554D01*
X1631275Y2755287D01*
X1628253Y2747989D01*
X1627880Y2745158D01*
X1652480D01*
Y2769758D01*
D02*
G37*
G36*
X1662480D02*
Y2745158D01*
X1687081D01*
X1686708Y2747989D01*
X1683685Y2755287D01*
X1678877Y2761554D01*
X1672610Y2766363D01*
X1665312Y2769385D01*
X1662480Y2769758D01*
D02*
G37*
G36*
X2439882D02*
X2437050Y2769385D01*
X2429753Y2766363D01*
X2423486Y2761554D01*
X2418677Y2755287D01*
X2415654Y2747989D01*
X2415281Y2745158D01*
X2439882D01*
Y2769758D01*
D02*
G37*
G36*
X583653Y2905677D02*
X550110D01*
Y2878039D01*
X583653D01*
Y2905677D01*
D02*
G37*
G36*
X921110Y3080921D02*
X914430Y3080042D01*
X908205Y3077463D01*
X902859Y3073361D01*
X898757Y3068016D01*
X896178Y3061791D01*
X895299Y3055110D01*
X896178Y3048430D01*
X898757Y3042205D01*
X902859Y3036859D01*
X908205Y3032757D01*
X914430Y3030178D01*
X914442Y3030177D01*
Y2911890D01*
X915482Y2906659D01*
X918445Y2902225D01*
X935860Y2884811D01*
X935068Y2882901D01*
X934189Y2876220D01*
X935068Y2869539D01*
X937647Y2863314D01*
X941749Y2857969D01*
X947094Y2853867D01*
X953319Y2851288D01*
X960000Y2850409D01*
X966681Y2851288D01*
X972906Y2853867D01*
X978251Y2857969D01*
X982353Y2863314D01*
X984932Y2869539D01*
X985811Y2876220D01*
X984932Y2882901D01*
X982353Y2889126D01*
X978251Y2894471D01*
X972906Y2898573D01*
X966681Y2901152D01*
X960000Y2902031D01*
X957784Y2901740D01*
X954520Y2905266D01*
X957170Y2909231D01*
X960672Y2907780D01*
X963504Y2907407D01*
Y2937008D01*
Y2966609D01*
X960672Y2966236D01*
X953375Y2963213D01*
X947108Y2958404D01*
X946778Y2957975D01*
X941778Y2959672D01*
Y3040008D01*
X943463Y3042205D01*
X946042Y3048430D01*
X946922Y3055110D01*
X946042Y3061791D01*
X943463Y3068016D01*
X939361Y3073361D01*
X934016Y3077463D01*
X927791Y3080042D01*
X921110Y3080921D01*
D02*
G37*
G36*
X2449882Y2769758D02*
Y2745158D01*
X2474483D01*
X2474110Y2747989D01*
X2471087Y2755287D01*
X2466278Y2761554D01*
X2460011Y2766363D01*
X2452714Y2769385D01*
X2449882Y2769758D01*
D02*
G37*
G36*
X540110Y2905677D02*
X506567D01*
Y2878039D01*
X540110D01*
Y2905677D01*
D02*
G37*
G36*
X1465630Y2769758D02*
Y2745158D01*
X1490231D01*
X1489858Y2747989D01*
X1486835Y2755287D01*
X1482026Y2761554D01*
X1475759Y2766363D01*
X1468462Y2769385D01*
X1465630Y2769758D01*
D02*
G37*
G36*
X2439882Y2735158D02*
X2415281D01*
X2415654Y2732326D01*
X2418677Y2725028D01*
X2423486Y2718761D01*
X2429753Y2713953D01*
X2437050Y2710930D01*
X2439882Y2710557D01*
Y2735158D01*
D02*
G37*
G36*
X2474483D02*
X2449882D01*
Y2710557D01*
X2452714Y2710930D01*
X2460011Y2713953D01*
X2466278Y2718761D01*
X2471087Y2725028D01*
X2474110Y2732326D01*
X2474483Y2735158D01*
D02*
G37*
G36*
X2046181D02*
X2021581D01*
X2021953Y2732326D01*
X2024976Y2725028D01*
X2029785Y2718761D01*
X2036052Y2713953D01*
X2043350Y2710930D01*
X2046181Y2710557D01*
Y2735158D01*
D02*
G37*
G36*
X2080782D02*
X2056181D01*
Y2710557D01*
X2059013Y2710930D01*
X2066311Y2713953D01*
X2072577Y2718761D01*
X2077386Y2725028D01*
X2080409Y2732326D01*
X2080782Y2735158D01*
D02*
G37*
G36*
X471378Y2769758D02*
X468546Y2769385D01*
X461249Y2766363D01*
X454982Y2761554D01*
X450173Y2755287D01*
X447150Y2747989D01*
X446777Y2745158D01*
X471378D01*
Y2769758D01*
D02*
G37*
G36*
X1071929D02*
Y2745158D01*
X1096530D01*
X1096157Y2747989D01*
X1093134Y2755287D01*
X1088325Y2761554D01*
X1082059Y2766363D01*
X1074761Y2769385D01*
X1071929Y2769758D01*
D02*
G37*
G36*
X1455630D02*
X1452798Y2769385D01*
X1445501Y2766363D01*
X1439234Y2761554D01*
X1434425Y2755287D01*
X1431402Y2747989D01*
X1431029Y2745158D01*
X1455630D01*
Y2769758D01*
D02*
G37*
G36*
X481378D02*
Y2745158D01*
X505979D01*
X505606Y2747989D01*
X502583Y2755287D01*
X497774Y2761554D01*
X491507Y2766363D01*
X484210Y2769385D01*
X481378Y2769758D01*
D02*
G37*
G36*
X1061929D02*
X1059098Y2769385D01*
X1051800Y2766363D01*
X1045533Y2761554D01*
X1040724Y2755287D01*
X1037701Y2747989D01*
X1037329Y2745158D01*
X1061929D01*
Y2769758D01*
D02*
G37*
G36*
X540110Y2943315D02*
X506567D01*
Y2915677D01*
X540110D01*
Y2943315D01*
D02*
G37*
G36*
X583653D02*
X550110D01*
Y2915677D01*
X583653D01*
Y2943315D01*
D02*
G37*
G36*
X2376057Y2932008D02*
X2351457D01*
Y2907407D01*
X2354288Y2907780D01*
X2361586Y2910803D01*
X2367853Y2915612D01*
X2372662Y2921879D01*
X2375685Y2929176D01*
X2376057Y2932008D01*
D02*
G37*
G36*
X1615719Y2940112D02*
X1590110D01*
Y2914503D01*
X1593203Y2914910D01*
X1600744Y2918034D01*
X1607219Y2923003D01*
X1612188Y2929478D01*
X1615312Y2937019D01*
X1615719Y2940112D01*
D02*
G37*
G36*
X973504Y2966609D02*
Y2942008D01*
X998105D01*
X997732Y2944840D01*
X994709Y2952137D01*
X989900Y2958404D01*
X983633Y2963213D01*
X976336Y2966236D01*
X973504Y2966609D01*
D02*
G37*
G36*
X1750906D02*
X1748074Y2966236D01*
X1740776Y2963213D01*
X1734509Y2958404D01*
X1729701Y2952137D01*
X1726678Y2944840D01*
X1726305Y2942008D01*
X1750906D01*
Y2966609D01*
D02*
G37*
G36*
X1760906D02*
Y2942008D01*
X1785506D01*
X1785133Y2944840D01*
X1782111Y2952137D01*
X1777302Y2958404D01*
X1771035Y2963213D01*
X1763737Y2966236D01*
X1760906Y2966609D01*
D02*
G37*
G36*
X1160354D02*
X1157523Y2966236D01*
X1150225Y2963213D01*
X1143958Y2958404D01*
X1139149Y2952137D01*
X1136127Y2944840D01*
X1135754Y2942008D01*
X1160354D01*
Y2966609D01*
D02*
G37*
G36*
X1170354D02*
Y2942008D01*
X1194955D01*
X1194582Y2944840D01*
X1191559Y2952137D01*
X1186751Y2958404D01*
X1180484Y2963213D01*
X1173186Y2966236D01*
X1170354Y2966609D01*
D02*
G37*
G36*
X2341457Y2932008D02*
X2316856D01*
X2317229Y2929176D01*
X2320252Y2921879D01*
X2325061Y2915612D01*
X2331327Y2910803D01*
X2338625Y2907780D01*
X2341457Y2907407D01*
Y2932008D01*
D02*
G37*
G36*
X1194955D02*
X1170354D01*
Y2907407D01*
X1173186Y2907780D01*
X1180484Y2910803D01*
X1186751Y2915612D01*
X1191559Y2921879D01*
X1194582Y2929176D01*
X1194955Y2932008D01*
D02*
G37*
G36*
X1750906D02*
X1726305D01*
X1726678Y2929176D01*
X1729701Y2921879D01*
X1734509Y2915612D01*
X1740776Y2910803D01*
X1748074Y2907780D01*
X1750906Y2907407D01*
Y2932008D01*
D02*
G37*
G36*
X998105D02*
X973504D01*
Y2907407D01*
X976336Y2907780D01*
X983633Y2910803D01*
X989900Y2915612D01*
X994709Y2921879D01*
X997732Y2929176D01*
X998105Y2932008D01*
D02*
G37*
G36*
X1160354D02*
X1135754D01*
X1136127Y2929176D01*
X1139149Y2921879D01*
X1143958Y2915612D01*
X1150225Y2910803D01*
X1157523Y2907780D01*
X1160354Y2907407D01*
Y2932008D01*
D02*
G37*
G36*
X1785506D02*
X1760906D01*
Y2907407D01*
X1763737Y2907780D01*
X1771035Y2910803D01*
X1777302Y2915612D01*
X1782111Y2921879D01*
X1785133Y2929176D01*
X1785506Y2932008D01*
D02*
G37*
G36*
X2144606D02*
X2120006D01*
X2120378Y2929176D01*
X2123401Y2921879D01*
X2128210Y2915612D01*
X2134477Y2910803D01*
X2141775Y2907780D01*
X2144606Y2907407D01*
Y2932008D01*
D02*
G37*
G36*
X2179207D02*
X2154606D01*
Y2907407D01*
X2157438Y2907780D01*
X2164736Y2910803D01*
X2171003Y2915612D01*
X2175811Y2921879D01*
X2178834Y2929176D01*
X2179207Y2932008D01*
D02*
G37*
G36*
X1947756D02*
X1923155D01*
X1923528Y2929176D01*
X1926551Y2921879D01*
X1931360Y2915612D01*
X1937627Y2910803D01*
X1944924Y2907780D01*
X1947756Y2907407D01*
Y2932008D01*
D02*
G37*
G36*
X1982357D02*
X1957756D01*
Y2907407D01*
X1960588Y2907780D01*
X1967885Y2910803D01*
X1974152Y2915612D01*
X1978961Y2921879D01*
X1981984Y2929176D01*
X1982357Y2932008D01*
D02*
G37*
G36*
X1687081Y2735158D02*
X1662480D01*
Y2710557D01*
X1665312Y2710930D01*
X1672610Y2713953D01*
X1678877Y2718761D01*
X1683685Y2725028D01*
X1686708Y2732326D01*
X1687081Y2735158D01*
D02*
G37*
G36*
X1750906Y2538307D02*
X1726305D01*
X1726678Y2535476D01*
X1729701Y2528178D01*
X1734509Y2521911D01*
X1740776Y2517102D01*
X1748074Y2514079D01*
X1750906Y2513706D01*
Y2538307D01*
D02*
G37*
G36*
X1785506D02*
X1760906D01*
Y2513706D01*
X1763737Y2514079D01*
X1771035Y2517102D01*
X1777302Y2521911D01*
X1782111Y2528178D01*
X1785133Y2535476D01*
X1785506Y2538307D01*
D02*
G37*
G36*
X1554055D02*
X1529455D01*
X1529827Y2535476D01*
X1532850Y2528178D01*
X1537659Y2521911D01*
X1543926Y2517102D01*
X1551224Y2514079D01*
X1554055Y2513706D01*
Y2538307D01*
D02*
G37*
G36*
X1588656D02*
X1564055D01*
Y2513706D01*
X1566887Y2514079D01*
X1574185Y2517102D01*
X1580451Y2521911D01*
X1585260Y2528178D01*
X1588283Y2535476D01*
X1588656Y2538307D01*
D02*
G37*
G36*
X2144606D02*
X2120006D01*
X2120378Y2535476D01*
X2123401Y2528178D01*
X2128210Y2521911D01*
X2134477Y2517102D01*
X2141775Y2514079D01*
X2144606Y2513706D01*
Y2538307D01*
D02*
G37*
G36*
X2376057D02*
X2351457D01*
Y2513706D01*
X2354288Y2514079D01*
X2361586Y2517102D01*
X2367853Y2521911D01*
X2372662Y2528178D01*
X2375685Y2535476D01*
X2376057Y2538307D01*
D02*
G37*
G36*
X372953Y2572908D02*
X370121Y2572535D01*
X362823Y2569512D01*
X356557Y2564704D01*
X351748Y2558437D01*
X348725Y2551139D01*
X348352Y2548307D01*
X372953D01*
Y2572908D01*
D02*
G37*
G36*
X2179207Y2538307D02*
X2154606D01*
Y2513706D01*
X2157438Y2514079D01*
X2164736Y2517102D01*
X2171003Y2521911D01*
X2175811Y2528178D01*
X2178834Y2535476D01*
X2179207Y2538307D01*
D02*
G37*
G36*
X2341457D02*
X2316856D01*
X2317229Y2535476D01*
X2320252Y2528178D01*
X2325061Y2521911D01*
X2331327Y2517102D01*
X2338625Y2514079D01*
X2341457Y2513706D01*
Y2538307D01*
D02*
G37*
G36*
X1194955D02*
X1170354D01*
Y2513706D01*
X1173186Y2514079D01*
X1180484Y2517102D01*
X1186751Y2521911D01*
X1191559Y2528178D01*
X1194582Y2535476D01*
X1194955Y2538307D01*
D02*
G37*
G36*
X1913732Y2462947D02*
Y2428260D01*
X1948419D01*
X1947703Y2433702D01*
X1943672Y2443433D01*
X1937260Y2451788D01*
X1928905Y2458200D01*
X1919174Y2462231D01*
X1913732Y2462947D01*
D02*
G37*
G36*
X762110Y2488921D02*
X755430Y2488042D01*
X749205Y2485463D01*
X743859Y2481361D01*
X739757Y2476016D01*
X737178Y2469791D01*
X736299Y2463110D01*
X737178Y2456430D01*
X739757Y2450205D01*
X743859Y2444859D01*
X749205Y2440757D01*
X755430Y2438178D01*
X762110Y2437299D01*
X768791Y2438178D01*
X775016Y2440757D01*
X780361Y2444859D01*
X784463Y2450205D01*
X787042Y2456430D01*
X787922Y2463110D01*
X787042Y2469791D01*
X784463Y2476016D01*
X780361Y2481361D01*
X775016Y2485463D01*
X768791Y2488042D01*
X762110Y2488921D01*
D02*
G37*
G36*
X2500110Y2604763D02*
X2483739Y2603475D01*
X2467770Y2599641D01*
X2452598Y2593357D01*
X2438596Y2584776D01*
X2426109Y2574111D01*
X2415444Y2561624D01*
X2406863Y2547622D01*
X2400579Y2532450D01*
X2396745Y2516481D01*
X2395457Y2500110D01*
X2396745Y2483739D01*
X2400579Y2467770D01*
X2406863Y2452598D01*
X2415444Y2438596D01*
X2426109Y2426109D01*
X2438596Y2415444D01*
X2452598Y2406863D01*
X2467770Y2400579D01*
X2483739Y2396745D01*
X2500110Y2395457D01*
X2516481Y2396745D01*
X2532450Y2400579D01*
X2547622Y2406863D01*
X2561624Y2415444D01*
X2574111Y2426109D01*
X2584776Y2438596D01*
X2593357Y2452598D01*
X2599641Y2467770D01*
X2603475Y2483739D01*
X2604763Y2500110D01*
X2603475Y2516481D01*
X2599641Y2532450D01*
X2593357Y2547622D01*
X2584776Y2561624D01*
X2574111Y2574111D01*
X2561624Y2584776D01*
X2547622Y2593357D01*
X2532450Y2599641D01*
X2516481Y2603475D01*
X2500110Y2604763D01*
D02*
G37*
G36*
X1903732Y2462947D02*
X1898290Y2462231D01*
X1888559Y2458200D01*
X1880204Y2451788D01*
X1873792Y2443433D01*
X1869762Y2433702D01*
X1869045Y2428260D01*
X1903732D01*
Y2462947D01*
D02*
G37*
G36*
X372953Y2538307D02*
X348352D01*
X348725Y2535476D01*
X351748Y2528178D01*
X356557Y2521911D01*
X362823Y2517102D01*
X370121Y2514079D01*
X372953Y2513706D01*
Y2538307D01*
D02*
G37*
G36*
X998105D02*
X973504D01*
Y2513706D01*
X976336Y2514079D01*
X983633Y2517102D01*
X989900Y2521911D01*
X994709Y2528178D01*
X997732Y2535476D01*
X998105Y2538307D01*
D02*
G37*
G36*
X1160354D02*
X1135754D01*
X1136127Y2535476D01*
X1139149Y2528178D01*
X1143958Y2521911D01*
X1150225Y2517102D01*
X1157523Y2514079D01*
X1160354Y2513706D01*
Y2538307D01*
D02*
G37*
G36*
X407553D02*
X382953D01*
Y2513706D01*
X385784Y2514079D01*
X393082Y2517102D01*
X399349Y2521911D01*
X404158Y2528178D01*
X407181Y2535476D01*
X407553Y2538307D01*
D02*
G37*
G36*
X963504D02*
X938903D01*
X939276Y2535476D01*
X942299Y2528178D01*
X947108Y2521911D01*
X953375Y2517102D01*
X960672Y2514079D01*
X963504Y2513706D01*
Y2538307D01*
D02*
G37*
G36*
X2351457Y2572908D02*
Y2548307D01*
X2376057D01*
X2375685Y2551139D01*
X2372662Y2558437D01*
X2367853Y2564704D01*
X2361586Y2569512D01*
X2354288Y2572535D01*
X2351457Y2572908D01*
D02*
G37*
G36*
X1323110Y2771325D02*
X1313737Y2770091D01*
X1305003Y2766474D01*
X1297502Y2760718D01*
X1291747Y2753218D01*
X1288129Y2744483D01*
X1286895Y2735110D01*
X1288129Y2725737D01*
X1291747Y2717003D01*
X1297502Y2709502D01*
X1305003Y2703747D01*
X1313737Y2700129D01*
X1323110Y2698895D01*
X1332483Y2700129D01*
X1341218Y2703747D01*
X1348718Y2709502D01*
X1354474Y2717003D01*
X1358091Y2725737D01*
X1359325Y2735110D01*
X1358091Y2744483D01*
X1354474Y2753218D01*
X1348718Y2760718D01*
X1341218Y2766474D01*
X1332483Y2770091D01*
X1323110Y2771325D01*
D02*
G37*
G36*
X2154606Y2572908D02*
Y2548307D01*
X2179207D01*
X2178834Y2551139D01*
X2175811Y2558437D01*
X2171003Y2564704D01*
X2164736Y2569512D01*
X2157438Y2572535D01*
X2154606Y2572908D01*
D02*
G37*
G36*
X2341457D02*
X2338625Y2572535D01*
X2331327Y2569512D01*
X2325061Y2564704D01*
X2320252Y2558437D01*
X2317229Y2551139D01*
X2316856Y2548307D01*
X2341457D01*
Y2572908D01*
D02*
G37*
G36*
X1061929Y2735158D02*
X1037329D01*
X1037701Y2732326D01*
X1040724Y2725028D01*
X1045533Y2718761D01*
X1051800Y2713953D01*
X1059098Y2710930D01*
X1061929Y2710557D01*
Y2735158D01*
D02*
G37*
G36*
X1490231D02*
X1465630D01*
Y2710557D01*
X1468462Y2710930D01*
X1475759Y2713953D01*
X1482026Y2718761D01*
X1486835Y2725028D01*
X1489858Y2732326D01*
X1490231Y2735158D01*
D02*
G37*
G36*
X1652480D02*
X1627880D01*
X1628253Y2732326D01*
X1631275Y2725028D01*
X1636084Y2718761D01*
X1642351Y2713953D01*
X1649649Y2710930D01*
X1652480Y2710557D01*
Y2735158D01*
D02*
G37*
G36*
X1096530D02*
X1071929D01*
Y2710557D01*
X1074761Y2710930D01*
X1082059Y2713953D01*
X1088325Y2718761D01*
X1093134Y2725028D01*
X1096157Y2732326D01*
X1096530Y2735158D01*
D02*
G37*
G36*
X1455630D02*
X1431029D01*
X1431402Y2732326D01*
X1434425Y2725028D01*
X1439234Y2718761D01*
X1445501Y2713953D01*
X1452798Y2710930D01*
X1455630Y2710557D01*
Y2735158D01*
D02*
G37*
G36*
X2144606Y2572908D02*
X2141775Y2572535D01*
X2134477Y2569512D01*
X2128210Y2564704D01*
X2123401Y2558437D01*
X2120378Y2551139D01*
X2120006Y2548307D01*
X2144606D01*
Y2572908D01*
D02*
G37*
G36*
X973504D02*
Y2548307D01*
X998105D01*
X997732Y2551139D01*
X994709Y2558437D01*
X989900Y2564704D01*
X983633Y2569512D01*
X976336Y2572535D01*
X973504Y2572908D01*
D02*
G37*
G36*
X1160354D02*
X1157523Y2572535D01*
X1150225Y2569512D01*
X1143958Y2564704D01*
X1139149Y2558437D01*
X1136127Y2551139D01*
X1135754Y2548307D01*
X1160354D01*
Y2572908D01*
D02*
G37*
G36*
X382953D02*
Y2548307D01*
X407553D01*
X407181Y2551139D01*
X404158Y2558437D01*
X399349Y2564704D01*
X393082Y2569512D01*
X385784Y2572535D01*
X382953Y2572908D01*
D02*
G37*
G36*
X963504D02*
X960672Y2572535D01*
X953375Y2569512D01*
X947108Y2564704D01*
X942299Y2558437D01*
X939276Y2551139D01*
X938903Y2548307D01*
X963504D01*
Y2572908D01*
D02*
G37*
G36*
X1170354D02*
Y2548307D01*
X1194955D01*
X1194582Y2551139D01*
X1191559Y2558437D01*
X1186751Y2564704D01*
X1180484Y2569512D01*
X1173186Y2572535D01*
X1170354Y2572908D01*
D02*
G37*
G36*
X1750906D02*
X1748074Y2572535D01*
X1740776Y2569512D01*
X1734509Y2564704D01*
X1729701Y2558437D01*
X1726678Y2551139D01*
X1726305Y2548307D01*
X1750906D01*
Y2572908D01*
D02*
G37*
G36*
X1760906D02*
Y2548307D01*
X1785506D01*
X1785133Y2551139D01*
X1782111Y2558437D01*
X1777302Y2564704D01*
X1771035Y2569512D01*
X1763737Y2572535D01*
X1760906Y2572908D01*
D02*
G37*
G36*
X1554055D02*
X1551224Y2572535D01*
X1543926Y2569512D01*
X1537659Y2564704D01*
X1532850Y2558437D01*
X1529827Y2551139D01*
X1529455Y2548307D01*
X1554055D01*
Y2572908D01*
D02*
G37*
G36*
X1564055D02*
Y2548307D01*
X1588656D01*
X1588283Y2551139D01*
X1585260Y2558437D01*
X1580451Y2564704D01*
X1574185Y2569512D01*
X1566887Y2572535D01*
X1564055Y2572908D01*
D02*
G37*
%LPD*%
D10*
X1822110Y977677D02*
D03*
Y1048543D02*
D03*
X545110Y2981543D02*
D03*
Y2910677D02*
D03*
X2025000Y1910433D02*
D03*
Y1839567D02*
D03*
X1869134Y2028134D02*
D03*
Y2099000D02*
D03*
X1900000Y1839566D02*
D03*
Y1910432D02*
D03*
D13*
X508110Y1271575D02*
D03*
Y1204646D02*
D03*
D21*
X433575Y1269110D02*
D03*
X366646D02*
D03*
D22*
X260110Y1085614D02*
D03*
Y1148606D02*
D03*
X591110Y1206614D02*
D03*
Y1269606D02*
D03*
D23*
X928110Y2911890D02*
Y3055110D01*
Y2911890D02*
X961890Y2878110D01*
D24*
X210724Y3030000D02*
X550000D01*
X203362Y3037362D02*
X210724Y3030000D01*
X550000Y2984496D02*
Y3030000D01*
X544110Y2978606D02*
X550000Y2984496D01*
X960000Y2876220D02*
X961890Y2878110D01*
X1335110Y3185110D02*
X1447616D01*
X851520Y2701520D02*
X1335110Y3185110D01*
X358700Y2701520D02*
X851520D01*
X366646Y1269110D02*
X378378Y1257378D01*
X150197Y1550197D02*
X250110Y1650110D01*
X150197Y955703D02*
Y1550197D01*
X203230Y902669D02*
X403365D01*
X406929Y888968D02*
Y899105D01*
X150197Y955703D02*
X203230Y902669D01*
X403365D02*
X406929Y899105D01*
X2386220Y3225000D02*
X2456410Y3154810D01*
X1613000Y3225000D02*
X2386220D01*
X1435110Y3047110D02*
X1613000Y3225000D01*
X2205110Y1833110D02*
Y2299084D01*
Y1830110D02*
Y1833110D01*
X2602000Y1436220D01*
X2202491Y1835730D02*
X2205110Y1833110D01*
X2114134Y1909568D02*
X2187972Y1835730D01*
X2112884Y1910818D02*
X2114134Y1909568D01*
X2602000Y602000D02*
Y1436220D01*
X2550110Y550110D02*
X2602000Y602000D01*
X540709Y1094365D02*
Y1094636D01*
X605344Y1029730D02*
X629302D01*
X540709Y1094365D02*
X605344Y1029730D01*
X150110Y1850110D02*
X209677Y1909677D01*
X805858D02*
X906543Y2010362D01*
X209677Y1909677D02*
X805858D01*
X109677Y2212773D02*
X270110Y2373206D01*
X109677Y1790543D02*
Y2212773D01*
Y1790543D02*
X203220Y1697000D01*
X637000D02*
X672000Y1662000D01*
X203220Y1697000D02*
X637000D01*
X1813252Y967252D02*
X1825362Y979362D01*
X1532110Y2805110D02*
X2250110D01*
X1435110Y2902110D02*
X1532110Y2805110D01*
X1435110Y2902110D02*
Y2945112D01*
Y2995112D02*
Y3047110D01*
X1813252Y926110D02*
Y967252D01*
X2187972Y1835730D02*
X2202491D01*
X1863898Y2034709D02*
Y2042584D01*
X1847559Y2018370D02*
X1863898Y2034709D01*
Y2084552D02*
Y2092425D01*
X378378Y1168504D02*
Y1257378D01*
X644610Y3305610D02*
X645110Y3305110D01*
X644610Y3305610D02*
Y3669610D01*
X431043Y1119775D02*
X432520Y1121252D01*
X634917Y1024106D02*
X634922Y1024110D01*
X629302Y1029730D02*
X634922Y1024110D01*
X2250110Y2344084D02*
Y2805110D01*
Y3143810D01*
X1168220Y1662000D02*
X1485110Y1345110D01*
X672000Y1662000D02*
X1168220D01*
X1385110Y2018372D02*
Y2945112D01*
X544110Y2978606D02*
X545110Y2977606D01*
X257759Y1005858D02*
Y1083263D01*
X260110Y1085614D01*
X634913Y774110D02*
X634917Y774114D01*
Y1024106D01*
X1385110Y2018372D02*
X2550110Y853372D01*
X308728Y1591492D02*
X900000D01*
X250110Y1650110D02*
X308728Y1591492D01*
X270110Y2373206D02*
Y2790110D01*
X2456410Y3150110D02*
Y3154810D01*
X2048134Y1910818D02*
X2112884D01*
X1872040Y1909568D02*
X1889678Y1927206D01*
X1814134Y1909568D02*
X1872040D01*
X1863898Y2084552D02*
X1869134Y2079316D01*
X1814134Y2109568D02*
X1814938Y2108764D01*
X1863898Y2042584D02*
X1869134Y2047820D01*
X1847559Y2108764D02*
X1863898Y2092425D01*
X1814938Y2108764D02*
X1847559D01*
X921110Y3055110D02*
X928110D01*
X1822936Y2018370D02*
X1847559D01*
X1814134Y2009568D02*
X1822936Y2018370D01*
X1889678Y1927206D02*
Y1930110D01*
X644610Y3669610D02*
X645110Y3670110D01*
X844110Y3665110D02*
X846110Y3667110D01*
X270110Y2790110D02*
X358700Y2701520D01*
X682110Y2732110D02*
X844110Y2894110D01*
Y3665110D01*
X866110Y2327110D02*
X906543Y2286677D01*
Y2010362D02*
Y2286677D01*
X49000Y2883000D02*
X203362Y3037362D01*
X2550110Y850110D02*
Y853372D01*
X2205110Y2299084D02*
X2250110Y2344084D01*
X433575Y1269110D02*
X505646D01*
X508110Y1271575D01*
Y1204646D02*
X589142D01*
X591110Y1206614D01*
X432520Y1121252D02*
Y1268055D01*
X433575Y1269110D01*
X406929Y1121252D02*
Y1139953D01*
X378378Y1168504D02*
X406929Y1139953D01*
X509291Y1121252D02*
Y1203464D01*
X508110Y1204646D02*
X509291Y1203464D01*
X431043Y1098715D02*
Y1119775D01*
X338186Y1005858D02*
X431043Y1098715D01*
X257759Y1005858D02*
X338186D01*
X505110Y1274575D02*
X508110Y1271575D01*
X505110Y1274575D02*
Y1344110D01*
X534882Y1100463D02*
Y1121252D01*
Y1100463D02*
X540709Y1094636D01*
D25*
X2170000Y760000D02*
D03*
X634913Y774110D02*
D03*
X2058338Y2423260D02*
D03*
X1908732D02*
D03*
X1315110Y3231110D02*
D03*
X1323110Y2735110D02*
D03*
X2466110Y3145110D02*
D03*
X2355110Y3145110D02*
D03*
X2250110Y3143810D02*
D03*
X1694110Y2997110D02*
D03*
X1132110Y1463110D02*
D03*
X760110Y774110D02*
D03*
X257759Y1005858D02*
D03*
X1275110Y868110D02*
D03*
X2511110Y1107110D02*
D03*
D26*
X150110Y2050110D02*
D03*
Y1950110D02*
D03*
Y1850110D02*
D03*
Y1750110D02*
D03*
Y1650110D02*
D03*
X250110Y2050110D02*
D03*
Y1950110D02*
D03*
Y1850110D02*
D03*
Y1750110D02*
D03*
Y1650110D02*
D03*
X1814134Y2209568D02*
D03*
Y2109568D02*
D03*
Y2009568D02*
D03*
Y1909568D02*
D03*
X2114134Y2209568D02*
D03*
Y2109568D02*
D03*
Y2009568D02*
D03*
X2450110Y850110D02*
D03*
Y750110D02*
D03*
Y650110D02*
D03*
Y550110D02*
D03*
Y450110D02*
D03*
X2550110Y850110D02*
D03*
Y750110D02*
D03*
Y650110D02*
D03*
Y550110D02*
D03*
Y450110D02*
D03*
X866110Y2027110D02*
D03*
Y2127110D02*
D03*
Y2227110D02*
D03*
Y2327110D02*
D03*
X566110Y2027110D02*
D03*
Y2127110D02*
D03*
Y2227110D02*
D03*
D27*
X1952110Y3390110D02*
D03*
X1852110D02*
D03*
D28*
X644110Y3669110D02*
D03*
X844110D02*
D03*
X744110Y3769110D02*
D03*
D29*
X2114134Y1909568D02*
D03*
X566110Y2327110D02*
D03*
D30*
X150110Y150110D02*
D03*
X2500110D02*
D03*
X150110Y2500110D02*
D03*
X2500110D02*
D03*
D31*
X1585110Y2995112D02*
D03*
Y2945112D02*
D03*
X1535110Y2995112D02*
D03*
Y2945112D02*
D03*
X1485110Y2995112D02*
D03*
Y2945112D02*
D03*
X1435110Y2995112D02*
D03*
Y2945112D02*
D03*
X1385110Y2995112D02*
D03*
Y2945112D02*
D03*
D32*
X550000Y3030000D02*
D03*
X1485110Y1345110D02*
D03*
X900000Y1591492D02*
D03*
X672000Y1662000D02*
D03*
X49000Y2883000D02*
D03*
X797110Y3023110D02*
D03*
D33*
X2005362Y890110D02*
D03*
X960000Y2876220D02*
D03*
X1220000Y1380000D02*
D03*
X1903009Y1337474D02*
D03*
X1813252Y926110D02*
D03*
X2350110Y1010110D02*
D03*
X270110Y2790110D02*
D03*
X2205110Y1830110D02*
D03*
X2015488Y1038780D02*
D03*
X1713800Y1325110D02*
D03*
X645110Y3305110D02*
D03*
X921110Y3055110D02*
D03*
X682110Y2732110D02*
D03*
X1447616Y3185110D02*
D03*
X762110Y2463110D02*
D03*
X1099110Y1053110D02*
D03*
X505110Y1344110D02*
D03*
X634922Y1024110D02*
D03*
D34*
X279528Y377953D02*
D03*
X181102Y574803D02*
D03*
X279528Y771654D02*
D03*
X181102Y968504D02*
D03*
Y1362205D02*
D03*
X279528Y1559055D02*
D03*
X181102Y3330709D02*
D03*
X279528Y3527559D02*
D03*
X181102Y3724410D02*
D03*
X476378Y377953D02*
D03*
Y771654D02*
D03*
X377953Y968504D02*
D03*
Y1362205D02*
D03*
Y1755906D02*
D03*
X476378Y1952756D02*
D03*
X377953Y2149606D02*
D03*
X476378Y2346457D02*
D03*
X377953Y2543307D02*
D03*
X476378Y2740158D02*
D03*
X377953Y3330709D02*
D03*
X476378Y3527559D02*
D03*
X377953Y3724410D02*
D03*
X574803Y181102D02*
D03*
X673228Y377953D02*
D03*
X574803Y574803D02*
D03*
Y968504D02*
D03*
Y1755906D02*
D03*
X673228Y1952756D02*
D03*
Y2346457D02*
D03*
X574803Y3330709D02*
D03*
Y3724410D02*
D03*
X771654Y181102D02*
D03*
X870079Y377953D02*
D03*
Y771654D02*
D03*
X771654Y1755906D02*
D03*
Y2149606D02*
D03*
X968504Y181102D02*
D03*
X1066929Y377953D02*
D03*
X968504Y574803D02*
D03*
X1066929Y771654D02*
D03*
X968504Y968504D02*
D03*
Y1755906D02*
D03*
Y2543307D02*
D03*
X1066929Y2740158D02*
D03*
X968504Y2937008D02*
D03*
Y3330709D02*
D03*
X1066929Y3527559D02*
D03*
X968504Y3724410D02*
D03*
X1165354Y181102D02*
D03*
X1263780Y377953D02*
D03*
X1165354Y574803D02*
D03*
X1263780Y771654D02*
D03*
X1165354Y1755906D02*
D03*
X1263780Y1952756D02*
D03*
X1165354Y2149606D02*
D03*
Y2543307D02*
D03*
Y2937008D02*
D03*
Y3330709D02*
D03*
X1263780Y3527559D02*
D03*
X1165354Y3724410D02*
D03*
X1362205Y181102D02*
D03*
X1460630Y377953D02*
D03*
X1362205Y574803D02*
D03*
X1460630Y771654D02*
D03*
Y1559055D02*
D03*
X1362205Y1755906D02*
D03*
X1460630Y2740158D02*
D03*
X1362205Y3330709D02*
D03*
X1460630Y3527559D02*
D03*
X1362205Y3724410D02*
D03*
X1559055Y181102D02*
D03*
X1657480Y377953D02*
D03*
X1559055Y574803D02*
D03*
X1657480Y771654D02*
D03*
X1559055Y968504D02*
D03*
X1657480Y1165354D02*
D03*
X1559055Y1362205D02*
D03*
X1657480Y1559055D02*
D03*
X1559055Y1755906D02*
D03*
X1657480Y1952756D02*
D03*
X1559055Y2149606D02*
D03*
X1657480Y2346457D02*
D03*
X1559055Y2543307D02*
D03*
X1657480Y2740158D02*
D03*
Y3133858D02*
D03*
X1559055Y3330709D02*
D03*
X1657480Y3527559D02*
D03*
X1559055Y3724410D02*
D03*
X1755906Y181102D02*
D03*
X1854331Y377953D02*
D03*
X1755906Y574803D02*
D03*
X1854331Y1165354D02*
D03*
X1755906Y1362205D02*
D03*
Y2149606D02*
D03*
X1854331Y2346457D02*
D03*
X1755906Y2543307D02*
D03*
Y2937008D02*
D03*
Y3330709D02*
D03*
X1854331Y3527559D02*
D03*
X1755906Y3724410D02*
D03*
X1952756Y181102D02*
D03*
X2051181Y377953D02*
D03*
Y1165354D02*
D03*
Y1559055D02*
D03*
X1952756Y1755906D02*
D03*
Y2149606D02*
D03*
X2051181Y2740158D02*
D03*
X1952756Y2937008D02*
D03*
X2051181Y3133858D02*
D03*
Y3527559D02*
D03*
X1952756Y3724410D02*
D03*
X2149606Y181102D02*
D03*
X2248032Y771654D02*
D03*
X2149606Y1362205D02*
D03*
Y2543307D02*
D03*
Y2937008D02*
D03*
Y3330709D02*
D03*
X2248032Y3527559D02*
D03*
X2149606Y3724410D02*
D03*
X2346457Y181102D02*
D03*
X2444882Y1165354D02*
D03*
X2346457Y1362205D02*
D03*
Y1755906D02*
D03*
X2444882Y1952756D02*
D03*
X2346457Y2149606D02*
D03*
X2444882Y2346457D02*
D03*
X2346457Y2543307D02*
D03*
X2444882Y2740158D02*
D03*
X2346457Y2937008D02*
D03*
X2444882Y3527559D02*
D03*
X2346457Y3724410D02*
D03*
D47*
X406929Y1121252D02*
D03*
X432520D02*
D03*
X458110D02*
D03*
X483701D02*
D03*
X509291D02*
D03*
X534882D02*
D03*
X560473D02*
D03*
X406929Y888968D02*
D03*
X432520D02*
D03*
X458110D02*
D03*
X483701D02*
D03*
X509291D02*
D03*
X534882D02*
D03*
X560473D02*
D03*
%TF.MD5,c8482290be1ce283f4b104044ead67cc*%
M02*
