G04 Layer_Color=8388736*
%FSLAX26Y26*%
%MOIN*%
%TF.FileFunction,Soldermask,Top*%
%TF.Part,Single*%
G01*
G75*
%TA.AperFunction,SMDPad,CuDef*%
%ADD52O,0.080835X0.021779*%
%ADD53R,0.041465X0.059181*%
%ADD54R,0.059181X0.041465*%
%ADD55R,0.061150X0.045402*%
%ADD56R,0.047370X0.031622*%
%ADD57R,0.028472X0.028472*%
%ADD58O,0.065087X0.017843*%
%ADD59R,0.049339X0.063118*%
%ADD60R,0.063118X0.049339*%
%TA.AperFunction,ComponentPad*%
%ADD61C,0.078866*%
%ADD62C,0.067055*%
%ADD63R,0.068000X0.068000*%
%ADD64R,0.055244X0.106425*%
%ADD65O,0.055244X0.106425*%
%ADD66C,0.048000*%
%ADD67C,0.047370*%
%TA.AperFunction,ViaPad*%
%ADD68C,0.058000*%
%ADD69C,0.037528*%
D52*
X1325175Y5396912D02*
D03*
Y5422502D02*
D03*
Y5448093D02*
D03*
Y5473683D02*
D03*
Y5499274D02*
D03*
Y5524864D02*
D03*
Y5550455D02*
D03*
Y5576046D02*
D03*
Y5601636D02*
D03*
Y5627227D02*
D03*
Y5652817D02*
D03*
Y5678408D02*
D03*
Y5703998D02*
D03*
Y5729589D02*
D03*
X1094860Y5396912D02*
D03*
Y5422502D02*
D03*
Y5448093D02*
D03*
Y5473683D02*
D03*
Y5499274D02*
D03*
Y5524864D02*
D03*
Y5550455D02*
D03*
Y5576046D02*
D03*
Y5601636D02*
D03*
Y5627227D02*
D03*
Y5652817D02*
D03*
Y5678408D02*
D03*
Y5703998D02*
D03*
Y5729589D02*
D03*
D53*
X1571038Y4111402D02*
D03*
X1637968D02*
D03*
X1571040Y3711404D02*
D03*
X1637970D02*
D03*
D54*
X2169230Y4068278D02*
D03*
Y4135208D02*
D03*
X1724350Y4643080D02*
D03*
Y4576150D02*
D03*
Y5056466D02*
D03*
Y4989536D02*
D03*
X1724348Y5446232D02*
D03*
Y5379302D02*
D03*
X2169230Y3694264D02*
D03*
Y3761192D02*
D03*
X2169229Y5702137D02*
D03*
Y5769067D02*
D03*
X2169230Y5308434D02*
D03*
Y5375364D02*
D03*
X2177102Y4497412D02*
D03*
Y4564340D02*
D03*
X2169230Y4895048D02*
D03*
Y4961976D02*
D03*
X1724348Y5839932D02*
D03*
Y5773002D02*
D03*
D55*
X2170001Y5838503D02*
D03*
Y5901495D02*
D03*
Y4188504D02*
D03*
Y4251496D02*
D03*
X2169230Y3814342D02*
D03*
Y3877334D02*
D03*
X2170001Y5428504D02*
D03*
Y5491496D02*
D03*
X2180001Y4628503D02*
D03*
Y4691495D02*
D03*
X2170001Y5008503D02*
D03*
Y5071495D02*
D03*
D56*
X1133600Y4983710D02*
D03*
Y4946308D02*
D03*
Y4908908D02*
D03*
X1241868D02*
D03*
Y4946308D02*
D03*
Y4983710D02*
D03*
D57*
X1304190Y4912530D02*
D03*
Y4944026D02*
D03*
X1077498Y4977804D02*
D03*
Y4946308D02*
D03*
X1243168Y4855444D02*
D03*
Y4823948D02*
D03*
X1184782Y4823002D02*
D03*
Y4854498D02*
D03*
D58*
X1235964Y5068356D02*
D03*
Y5088042D02*
D03*
Y5107726D02*
D03*
Y5127412D02*
D03*
Y5147096D02*
D03*
X1076514Y5068356D02*
D03*
Y5088042D02*
D03*
Y5107726D02*
D03*
Y5127412D02*
D03*
Y5147096D02*
D03*
D59*
X429071Y6237568D02*
D03*
X503875D02*
D03*
Y5843867D02*
D03*
X429071D02*
D03*
X503876Y5450168D02*
D03*
X429072D02*
D03*
X503876Y5046626D02*
D03*
X429072D02*
D03*
X517401Y4640001D02*
D03*
X442597D02*
D03*
X527401Y3659999D02*
D03*
X452597D02*
D03*
X517401Y4050001D02*
D03*
X442597D02*
D03*
D60*
X430001Y4352597D02*
D03*
Y4427401D02*
D03*
D61*
X1914504Y6701402D02*
D03*
Y6801402D02*
D03*
X814504Y6701402D02*
D03*
X914504D02*
D03*
X1014504D02*
D03*
X1114504D02*
D03*
X1214504D02*
D03*
X1314504D02*
D03*
X1414504D02*
D03*
X1514504D02*
D03*
X1614504D02*
D03*
X1714504D02*
D03*
X814504Y6801402D02*
D03*
X914504D02*
D03*
X1014504D02*
D03*
X1114504D02*
D03*
X1214504D02*
D03*
X1314504D02*
D03*
X1414504D02*
D03*
X1514504D02*
D03*
X1614504D02*
D03*
X1714504D02*
D03*
X1814504D02*
D03*
Y6701402D02*
D03*
X2370018Y3740444D02*
D03*
Y3840444D02*
D03*
X259782Y4337568D02*
D03*
Y4437568D02*
D03*
Y4537568D02*
D03*
Y4637568D02*
D03*
X2375924Y4543868D02*
D03*
Y4643868D02*
D03*
Y4957254D02*
D03*
Y5057254D02*
D03*
X2370018Y4138358D02*
D03*
Y4238358D02*
D03*
Y5743250D02*
D03*
Y5843250D02*
D03*
X259782Y3551742D02*
D03*
Y3651742D02*
D03*
X2370018Y5345706D02*
D03*
Y5445706D02*
D03*
X259782Y3941506D02*
D03*
Y4041506D02*
D03*
Y5740062D02*
D03*
Y5840062D02*
D03*
Y5345706D02*
D03*
Y5445706D02*
D03*
Y4951348D02*
D03*
Y5051348D02*
D03*
Y6134418D02*
D03*
Y6234418D02*
D03*
D62*
X1664504Y2426402D02*
D03*
X1064504Y1726402D02*
D03*
X954504Y2091402D02*
D03*
Y2301402D02*
D03*
X914504Y426402D02*
D03*
X911504Y688402D02*
D03*
X909504Y917402D02*
D03*
X1597504Y929402D02*
D03*
D63*
X220412Y6700168D02*
D03*
X320412D02*
D03*
X420412D02*
D03*
Y6800168D02*
D03*
X320412D02*
D03*
X220412D02*
D03*
D64*
X543246Y1613554D02*
D03*
X538324Y260208D02*
D03*
D65*
X643246Y1613554D02*
D03*
X743246D02*
D03*
X843246D02*
D03*
X943246D02*
D03*
X1043246D02*
D03*
X1143246D02*
D03*
X1243246D02*
D03*
X1343246D02*
D03*
X1443246D02*
D03*
X1543246D02*
D03*
X1643246D02*
D03*
X1743246D02*
D03*
X1843246D02*
D03*
X543246Y2613554D02*
D03*
X643246D02*
D03*
X743246D02*
D03*
X843246D02*
D03*
X943246D02*
D03*
X1043246D02*
D03*
X1143246D02*
D03*
X1243246D02*
D03*
X1343246D02*
D03*
X1443246D02*
D03*
X1543246D02*
D03*
X1643246D02*
D03*
X1743246D02*
D03*
X1843246D02*
D03*
X638324Y260208D02*
D03*
X738324D02*
D03*
X838324D02*
D03*
X938324D02*
D03*
X1038324D02*
D03*
X1138324D02*
D03*
X1238324D02*
D03*
X1338324D02*
D03*
X1438324D02*
D03*
X1538324D02*
D03*
X1638324D02*
D03*
X1738324D02*
D03*
X1838324D02*
D03*
X538324Y1260208D02*
D03*
X638324D02*
D03*
X738324D02*
D03*
X838324D02*
D03*
X938324D02*
D03*
X1038324D02*
D03*
X1138324D02*
D03*
X1238324D02*
D03*
X1338324D02*
D03*
X1438324D02*
D03*
X1538324D02*
D03*
X1638324D02*
D03*
X1738324D02*
D03*
X1838324D02*
D03*
D66*
X2221505Y2743401D02*
D03*
Y2543401D02*
D03*
X2321505Y2643401D02*
D03*
X2248505Y1321250D02*
D03*
Y1121250D02*
D03*
X2348505Y1221250D02*
D03*
X2240504Y2267401D02*
D03*
Y2067401D02*
D03*
X2340504Y2167401D02*
D03*
X2267504Y823390D02*
D03*
Y623390D02*
D03*
X2367504Y723390D02*
D03*
X2240504Y1757402D02*
D03*
Y1557402D02*
D03*
X2340504Y1657402D02*
D03*
X2267504Y307402D02*
D03*
Y107402D02*
D03*
X2367504Y207402D02*
D03*
D67*
X209504Y359402D02*
D03*
Y259402D02*
D03*
X225504Y1724402D02*
D03*
Y1624402D02*
D03*
D68*
X570000Y6240000D02*
D03*
X510000Y4350000D02*
D03*
X1724348Y4105680D02*
D03*
Y4511190D02*
D03*
Y4924576D02*
D03*
Y5314340D02*
D03*
Y5715916D02*
D03*
X1884504Y5871402D02*
D03*
Y5801402D02*
D03*
Y5731402D02*
D03*
X1964504D02*
D03*
X2044504D02*
D03*
Y5801402D02*
D03*
Y5871402D02*
D03*
X1964504Y5801402D02*
D03*
Y5871402D02*
D03*
Y5477042D02*
D03*
Y5407042D02*
D03*
X2044504Y5477042D02*
D03*
Y5407042D02*
D03*
Y5337042D02*
D03*
X1964504D02*
D03*
X1884504D02*
D03*
Y5407042D02*
D03*
Y5477042D02*
D03*
X1964504Y5082686D02*
D03*
Y5012686D02*
D03*
X2044504Y5082686D02*
D03*
Y5012686D02*
D03*
Y4942686D02*
D03*
X1964504D02*
D03*
X1884504D02*
D03*
Y5012686D02*
D03*
Y5082686D02*
D03*
X1964504Y4668908D02*
D03*
Y4598908D02*
D03*
X2044504Y4668908D02*
D03*
Y4598908D02*
D03*
Y4528908D02*
D03*
X1964504D02*
D03*
X1884504D02*
D03*
Y4598908D02*
D03*
Y4668908D02*
D03*
X1964504Y4281402D02*
D03*
Y4211402D02*
D03*
X2044504Y4281402D02*
D03*
Y4211402D02*
D03*
Y4141402D02*
D03*
X1964504D02*
D03*
X1884504D02*
D03*
Y4211402D02*
D03*
Y4281402D02*
D03*
X1964504Y3881402D02*
D03*
Y3811402D02*
D03*
X2044504Y3881402D02*
D03*
Y3811402D02*
D03*
Y3741402D02*
D03*
X1964504D02*
D03*
X1884504D02*
D03*
Y3811402D02*
D03*
Y3881402D02*
D03*
X1724504Y3711402D02*
D03*
X1484504D02*
D03*
X1514504Y4111402D02*
D03*
X1065504Y1936402D02*
D03*
X1085504Y597402D02*
D03*
X1147504Y918402D02*
D03*
X1123504Y2262402D02*
D03*
X600000Y3660000D02*
D03*
X590000Y4050000D02*
D03*
X563504Y5043402D02*
D03*
X576504Y5449402D02*
D03*
X566504Y5844402D02*
D03*
X1321238Y5310668D02*
D03*
X580000Y4640000D02*
D03*
D69*
X1141120Y5107726D02*
D03*
X1080018Y5223250D02*
D03*
X1188050Y4908908D02*
D03*
X1294504Y5177402D02*
D03*
X1239504Y5196402D02*
D03*
X1163504Y5678402D02*
D03*
X1026504Y5707402D02*
D03*
X1100504Y5774402D02*
D03*
X1300504Y5089402D02*
D03*
X957504Y5681402D02*
D03*
%TF.MD5,a0d46a5faa175da030a341e887535c14*%
M02*
