G04 Layer_Color=16711935*
%FSLAX26Y26*%
%MOIN*%
%TF.FileFunction,Soldermask,Bot*%
%TF.Part,Single*%
G01*
G75*
%TA.AperFunction,SMDPad,CuDef*%
%ADD53R,0.041465X0.059181*%
%ADD54R,0.059181X0.041465*%
%ADD57R,0.028472X0.028472*%
%TA.AperFunction,ComponentPad*%
%ADD61C,0.078866*%
%ADD62C,0.067055*%
%ADD63R,0.068000X0.068000*%
%ADD64R,0.055244X0.106425*%
%ADD65O,0.055244X0.106425*%
%ADD66C,0.048000*%
%ADD67C,0.047370*%
%TA.AperFunction,ViaPad*%
%ADD68C,0.058000*%
%ADD69C,0.037528*%
%TA.AperFunction,SMDPad,CuDef*%
%ADD75R,0.053276X0.065087*%
%ADD76R,0.126110X0.070992*%
%ADD77R,0.252095X0.236346*%
%ADD78R,0.028472X0.028472*%
G04:AMPARAMS|DCode=79|XSize=33.591mil|YSize=72.961mil|CornerRadius=5.919mil|HoleSize=0mil|Usage=FLASHONLY|Rotation=180.000|XOffset=0mil|YOffset=0mil|HoleType=Round|Shape=RoundedRectangle|*
%AMROUNDEDRECTD79*
21,1,0.033591,0.061122,0,0,180.0*
21,1,0.021752,0.072961,0,0,180.0*
1,1,0.011839,-0.010876,0.030561*
1,1,0.011839,0.010876,0.030561*
1,1,0.011839,0.010876,-0.030561*
1,1,0.011839,-0.010876,-0.030561*
%
%ADD79ROUNDEDRECTD79*%
D53*
X613465Y1730000D02*
D03*
X546535D02*
D03*
X1013465Y1500000D02*
D03*
X946535D02*
D03*
X733465Y399999D02*
D03*
X666535D02*
D03*
X546535D02*
D03*
X613463D02*
D03*
X1003465Y140000D02*
D03*
X936535D02*
D03*
X743465Y1730000D02*
D03*
X676535D02*
D03*
X1246968Y483402D02*
D03*
X1180040D02*
D03*
X1228968Y1820402D02*
D03*
X1162040D02*
D03*
D54*
X1900000Y766535D02*
D03*
Y833465D02*
D03*
X1900001Y626535D02*
D03*
Y693465D02*
D03*
X1910000Y2263465D02*
D03*
Y2196535D02*
D03*
Y2143465D02*
D03*
Y2076535D02*
D03*
X1369504Y1886936D02*
D03*
Y1953866D02*
D03*
Y2072866D02*
D03*
Y2005936D02*
D03*
X1389504Y736716D02*
D03*
Y669786D02*
D03*
Y539936D02*
D03*
Y606866D02*
D03*
X1438504Y1123866D02*
D03*
Y1056936D02*
D03*
X1442504Y2479868D02*
D03*
Y2412938D02*
D03*
X2040001Y223464D02*
D03*
Y156536D02*
D03*
X2019999Y1603465D02*
D03*
Y1536535D02*
D03*
D57*
X1139820Y5070994D02*
D03*
Y5039498D02*
D03*
X1029504Y626150D02*
D03*
Y594654D02*
D03*
X1008504Y1969150D02*
D03*
Y1937654D02*
D03*
D61*
X1914504Y6701402D02*
D03*
Y6801402D02*
D03*
X814504Y6701402D02*
D03*
X914504D02*
D03*
X1014504D02*
D03*
X1114504D02*
D03*
X1214504D02*
D03*
X1314504D02*
D03*
X1414504D02*
D03*
X1514504D02*
D03*
X1614504D02*
D03*
X1714504D02*
D03*
X814504Y6801402D02*
D03*
X914504D02*
D03*
X1014504D02*
D03*
X1114504D02*
D03*
X1214504D02*
D03*
X1314504D02*
D03*
X1414504D02*
D03*
X1514504D02*
D03*
X1614504D02*
D03*
X1714504D02*
D03*
X1814504D02*
D03*
Y6701402D02*
D03*
X2370018Y3740444D02*
D03*
Y3840444D02*
D03*
X259782Y4337568D02*
D03*
Y4437568D02*
D03*
Y4537568D02*
D03*
Y4637568D02*
D03*
X2375924Y4543868D02*
D03*
Y4643868D02*
D03*
Y4957254D02*
D03*
Y5057254D02*
D03*
X2370018Y4138358D02*
D03*
Y4238358D02*
D03*
Y5743250D02*
D03*
Y5843250D02*
D03*
X259782Y3551742D02*
D03*
Y3651742D02*
D03*
X2370018Y5345706D02*
D03*
Y5445706D02*
D03*
X259782Y3941506D02*
D03*
Y4041506D02*
D03*
Y5740062D02*
D03*
Y5840062D02*
D03*
Y5345706D02*
D03*
Y5445706D02*
D03*
Y4951348D02*
D03*
Y5051348D02*
D03*
Y6134418D02*
D03*
Y6234418D02*
D03*
D62*
X1664504Y2426402D02*
D03*
X1064504Y1726402D02*
D03*
X954504Y2091402D02*
D03*
Y2301402D02*
D03*
X914504Y426402D02*
D03*
X911504Y688402D02*
D03*
X909504Y917402D02*
D03*
X1597504Y929402D02*
D03*
D63*
X220412Y6700168D02*
D03*
X320412D02*
D03*
X420412D02*
D03*
Y6800168D02*
D03*
X320412D02*
D03*
X220412D02*
D03*
D64*
X543246Y1613554D02*
D03*
X538324Y260208D02*
D03*
D65*
X643246Y1613554D02*
D03*
X743246D02*
D03*
X843246D02*
D03*
X943246D02*
D03*
X1043246D02*
D03*
X1143246D02*
D03*
X1243246D02*
D03*
X1343246D02*
D03*
X1443246D02*
D03*
X1543246D02*
D03*
X1643246D02*
D03*
X1743246D02*
D03*
X1843246D02*
D03*
X543246Y2613554D02*
D03*
X643246D02*
D03*
X743246D02*
D03*
X843246D02*
D03*
X943246D02*
D03*
X1043246D02*
D03*
X1143246D02*
D03*
X1243246D02*
D03*
X1343246D02*
D03*
X1443246D02*
D03*
X1543246D02*
D03*
X1643246D02*
D03*
X1743246D02*
D03*
X1843246D02*
D03*
X638324Y260208D02*
D03*
X738324D02*
D03*
X838324D02*
D03*
X938324D02*
D03*
X1038324D02*
D03*
X1138324D02*
D03*
X1238324D02*
D03*
X1338324D02*
D03*
X1438324D02*
D03*
X1538324D02*
D03*
X1638324D02*
D03*
X1738324D02*
D03*
X1838324D02*
D03*
X538324Y1260208D02*
D03*
X638324D02*
D03*
X738324D02*
D03*
X838324D02*
D03*
X938324D02*
D03*
X1038324D02*
D03*
X1138324D02*
D03*
X1238324D02*
D03*
X1338324D02*
D03*
X1438324D02*
D03*
X1538324D02*
D03*
X1638324D02*
D03*
X1738324D02*
D03*
X1838324D02*
D03*
D66*
X2221505Y2743401D02*
D03*
Y2543401D02*
D03*
X2321505Y2643401D02*
D03*
X2248505Y1321250D02*
D03*
Y1121250D02*
D03*
X2348505Y1221250D02*
D03*
X2240504Y2267401D02*
D03*
Y2067401D02*
D03*
X2340504Y2167401D02*
D03*
X2267504Y823390D02*
D03*
Y623390D02*
D03*
X2367504Y723390D02*
D03*
X2240504Y1757402D02*
D03*
Y1557402D02*
D03*
X2340504Y1657402D02*
D03*
X2267504Y307402D02*
D03*
Y107402D02*
D03*
X2367504Y207402D02*
D03*
D67*
X209504Y359402D02*
D03*
Y259402D02*
D03*
X225504Y1724402D02*
D03*
Y1624402D02*
D03*
D68*
X570000Y6240000D02*
D03*
X510000Y4350000D02*
D03*
X1724348Y4105680D02*
D03*
Y4511190D02*
D03*
Y4924576D02*
D03*
Y5314340D02*
D03*
Y5715916D02*
D03*
X1884504Y5871402D02*
D03*
Y5801402D02*
D03*
Y5731402D02*
D03*
X1964504D02*
D03*
X2044504D02*
D03*
Y5801402D02*
D03*
Y5871402D02*
D03*
X1964504Y5801402D02*
D03*
Y5871402D02*
D03*
Y5477042D02*
D03*
Y5407042D02*
D03*
X2044504Y5477042D02*
D03*
Y5407042D02*
D03*
Y5337042D02*
D03*
X1964504D02*
D03*
X1884504D02*
D03*
Y5407042D02*
D03*
Y5477042D02*
D03*
X1964504Y5082686D02*
D03*
Y5012686D02*
D03*
X2044504Y5082686D02*
D03*
Y5012686D02*
D03*
Y4942686D02*
D03*
X1964504D02*
D03*
X1884504D02*
D03*
Y5012686D02*
D03*
Y5082686D02*
D03*
X1964504Y4668908D02*
D03*
Y4598908D02*
D03*
X2044504Y4668908D02*
D03*
Y4598908D02*
D03*
Y4528908D02*
D03*
X1964504D02*
D03*
X1884504D02*
D03*
Y4598908D02*
D03*
Y4668908D02*
D03*
X1964504Y4281402D02*
D03*
Y4211402D02*
D03*
X2044504Y4281402D02*
D03*
Y4211402D02*
D03*
Y4141402D02*
D03*
X1964504D02*
D03*
X1884504D02*
D03*
Y4211402D02*
D03*
Y4281402D02*
D03*
X1964504Y3881402D02*
D03*
Y3811402D02*
D03*
X2044504Y3881402D02*
D03*
Y3811402D02*
D03*
Y3741402D02*
D03*
X1964504D02*
D03*
X1884504D02*
D03*
Y3811402D02*
D03*
Y3881402D02*
D03*
X1724504Y3711402D02*
D03*
X1484504D02*
D03*
X1514504Y4111402D02*
D03*
X1065504Y1936402D02*
D03*
X1085504Y597402D02*
D03*
X1147504Y918402D02*
D03*
X1123504Y2262402D02*
D03*
X600000Y3660000D02*
D03*
X590000Y4050000D02*
D03*
X563504Y5043402D02*
D03*
X576504Y5449402D02*
D03*
X566504Y5844402D02*
D03*
X1321238Y5310668D02*
D03*
X580000Y4640000D02*
D03*
D69*
X1141120Y5107726D02*
D03*
X1080018Y5223250D02*
D03*
X1188050Y4908908D02*
D03*
X1294504Y5177402D02*
D03*
X1239504Y5196402D02*
D03*
X1163504Y5678402D02*
D03*
X1026504Y5707402D02*
D03*
X1100504Y5774402D02*
D03*
X1300504Y5089402D02*
D03*
X957504Y5681402D02*
D03*
D75*
X1334937Y1728402D02*
D03*
X1264071D02*
D03*
X554584Y2503250D02*
D03*
X625450D02*
D03*
X554567Y1130000D02*
D03*
X625433D02*
D03*
X1310433Y375000D02*
D03*
X1239567D02*
D03*
D76*
X1681042Y4106350D02*
D03*
Y4286664D02*
D03*
Y3708436D02*
D03*
Y3888752D02*
D03*
X1681040Y5711244D02*
D03*
Y5891558D02*
D03*
Y5316884D02*
D03*
Y5497200D02*
D03*
Y4508750D02*
D03*
Y4689066D02*
D03*
Y4922528D02*
D03*
Y5102844D02*
D03*
D77*
X1964506Y4196508D02*
D03*
Y3798594D02*
D03*
X1964504Y5801402D02*
D03*
Y5407042D02*
D03*
Y4598908D02*
D03*
Y5012686D02*
D03*
D78*
X1275528Y1141112D02*
D03*
X1307024D02*
D03*
X1284270Y2493250D02*
D03*
X1315766D02*
D03*
D79*
X1122504Y2159624D02*
D03*
X1172504D02*
D03*
X1222504D02*
D03*
X1272504D02*
D03*
X1122504Y1937182D02*
D03*
X1172504D02*
D03*
X1222504D02*
D03*
X1272504D02*
D03*
X1145018Y814472D02*
D03*
X1195018D02*
D03*
X1245018D02*
D03*
X1295018D02*
D03*
X1145018Y592030D02*
D03*
X1195018D02*
D03*
X1245018D02*
D03*
X1295018D02*
D03*
%TF.MD5,2885b0847119004766d1986f34ea4d74*%
M02*
