G04 Layer_Color=32896*
%FSLAX26Y26*%
%MOIN*%
%TF.FileFunction,Legend,Bot*%
%TF.Part,Single*%
G01*
G75*
%TA.AperFunction,NonConductor*%
%ADD44C,0.009842*%
%ADD45C,0.023622*%
%ADD46C,0.010000*%
%ADD47C,0.007874*%
D44*
X1671488Y-2253102D02*
G03*
X1671488Y-2253102I-4921J0D01*
G01*
X1732401Y-676947D02*
G03*
X1732401Y-676947I-4921J0D01*
G01*
X412677Y-2135701D02*
G03*
X412677Y-2135701I-4921J0D01*
G01*
X293465Y-2381787D02*
G03*
X293465Y-2381787I-4921J0D01*
G01*
D45*
X344843Y-2471354D02*
G03*
X344843Y-2471354I-11811J0D01*
G01*
D46*
X2052850Y-1722063D02*
Y-922063D01*
Y-1722063D02*
X2252850D01*
Y-922063D01*
X2052850D02*
X2252850D01*
X-197150Y-2572063D02*
Y-1772063D01*
Y-2572063D02*
X2850D01*
Y-1772063D01*
X-197150D02*
X2850D01*
X385961Y-333953D02*
X325980D01*
Y-363943D01*
X335977Y-373940D01*
X355970D01*
X365967Y-363943D01*
Y-333953D01*
Y-353947D02*
X385961Y-373940D01*
X325980Y-433921D02*
Y-393934D01*
X355970D01*
X345974Y-413927D01*
Y-423924D01*
X355970Y-433921D01*
X375964D01*
X385961Y-423924D01*
Y-403931D01*
X375964Y-393934D01*
X485961Y-333953D02*
X425980D01*
Y-363943D01*
X435977Y-373940D01*
X455970D01*
X465967Y-363943D01*
Y-333953D01*
Y-353947D02*
X485961Y-373940D01*
X425980Y-433921D02*
X435977Y-413927D01*
X455970Y-393934D01*
X475964D01*
X485961Y-403931D01*
Y-423924D01*
X475964Y-433921D01*
X465967D01*
X455970Y-423924D01*
Y-393934D01*
D47*
X1697456Y-2164031D02*
Y-2160095D01*
X1648242Y-2164031D02*
Y-2160095D01*
X1804512Y-2392597D02*
Y-2388661D01*
X1755298Y-2392597D02*
Y-2388661D01*
X1390252Y-2494385D02*
X1433560D01*
X1390252Y-2588873D02*
X1433560D01*
X1601606Y-2461961D02*
Y-2265109D01*
X1538614Y-2461961D02*
Y-2265109D01*
X1601606D01*
X1538614Y-2461961D02*
X1601606D01*
X1481378Y-682773D02*
Y-639467D01*
X1422322Y-682773D02*
Y-639467D01*
X1391062Y-682773D02*
Y-639465D01*
X1292636Y-682773D02*
Y-639465D01*
X1256000Y-682497D02*
Y-639189D01*
X1193008Y-682497D02*
Y-639189D01*
X2036456Y-643087D02*
Y-639151D01*
X1987244Y-643087D02*
Y-639151D01*
X1948426Y-643087D02*
Y-639151D01*
X1895276Y-643087D02*
Y-639151D01*
X1647008Y-426080D02*
Y-422142D01*
X1696220Y-426080D02*
Y-422142D01*
X1696890Y-2779465D02*
Y-2704663D01*
X1826812Y-2779465D02*
Y-2704663D01*
X2062944Y-2266031D02*
Y-2191227D01*
X2192866Y-2266031D02*
Y-2191227D01*
X1224450Y-2897023D02*
X1299252D01*
X1224450Y-2767103D02*
X1299252D01*
X650960Y-2890645D02*
X725764D01*
X650960Y-2760723D02*
X725764D01*
X1759937Y-638205D02*
Y-606709D01*
X1854425Y-638205D02*
Y-606709D01*
X1516260Y-653087D02*
Y-649149D01*
X1567440Y-653087D02*
Y-649149D01*
X1399882Y-785529D02*
X1403818D01*
X1399882Y-836711D02*
X1403818D01*
X1600512Y-623797D02*
X1714684D01*
X1600512Y-635607D02*
X1714684D01*
X1600512D02*
Y-623797D01*
X1714684Y-635607D02*
Y-623797D01*
X531354Y-2653717D02*
Y-2610409D01*
X594346Y-2653717D02*
Y-2610409D01*
X274882Y-2057945D02*
X396928D01*
X274882Y-2097315D02*
X396928D01*
X274882D02*
Y-2057945D01*
X396928Y-2097315D02*
Y-2057945D01*
X500882Y-1957457D02*
X504819D01*
X500882Y-2006670D02*
X504819D01*
X256196Y-2278559D02*
X299504D01*
X256196Y-2215567D02*
X299504D01*
X490512Y-2557968D02*
Y-2431984D01*
X293662Y-2557968D02*
Y-2431984D01*
Y-2557968D02*
X490512D01*
X293662Y-2431984D02*
X490512D01*
X384583Y-535922D02*
Y-531985D01*
X337339Y-535922D02*
Y-531985D01*
X484583Y-535922D02*
Y-531985D01*
X437339Y-535922D02*
Y-531985D01*
X547339Y-2092942D02*
Y-2125740D01*
X540779Y-2132300D01*
X527660D01*
X521100Y-2125740D01*
Y-2092942D01*
X481743D02*
X507981D01*
Y-2112621D01*
X494862Y-2106061D01*
X488303D01*
X481743Y-2112621D01*
Y-2125740D01*
X488303Y-2132300D01*
X501422D01*
X507981Y-2125740D01*
X341630Y-1891158D02*
X380987D01*
Y-1871479D01*
X374428Y-1864920D01*
X361309D01*
X354749Y-1871479D01*
Y-1891158D01*
Y-1878039D02*
X341630Y-1864920D01*
Y-1832122D02*
X380987D01*
X361309Y-1851801D01*
Y-1825562D01*
X590000Y-2430643D02*
Y-2463440D01*
X583440Y-2470000D01*
X570321D01*
X563762Y-2463440D01*
Y-2430643D01*
X524404Y-2470000D02*
X550643D01*
X524404Y-2443762D01*
Y-2437202D01*
X530964Y-2430643D01*
X544083D01*
X550643Y-2437202D01*
X1707772Y-735659D02*
Y-768457D01*
X1701212Y-775016D01*
X1688093D01*
X1681534Y-768457D01*
Y-735659D01*
X1668414Y-775016D02*
X1655295D01*
X1661855D01*
Y-735659D01*
X1668414Y-742218D01*
X248047Y-1032890D02*
X287405D01*
Y-1013212D01*
X280845Y-1006652D01*
X267726D01*
X261166Y-1013212D01*
Y-1032890D01*
Y-1019771D02*
X248047Y-1006652D01*
X287405Y-993533D02*
Y-967295D01*
X280845D01*
X254607Y-993533D01*
X248047D01*
X1451866Y-903953D02*
Y-864596D01*
X1432187D01*
X1425628Y-871155D01*
Y-884274D01*
X1432187Y-890834D01*
X1451866D01*
X1438747D02*
X1425628Y-903953D01*
X1412509Y-871155D02*
X1405949Y-864596D01*
X1392830D01*
X1386271Y-871155D01*
Y-877715D01*
X1392830Y-884274D01*
X1399390D01*
X1392830D01*
X1386271Y-890834D01*
Y-897394D01*
X1392830Y-903953D01*
X1405949D01*
X1412509Y-897394D01*
X1523150Y-553678D02*
X1562507D01*
Y-534000D01*
X1555947Y-527440D01*
X1542828D01*
X1536269Y-534000D01*
Y-553678D01*
Y-540559D02*
X1523150Y-527440D01*
Y-488083D02*
Y-514321D01*
X1549388Y-488083D01*
X1555947D01*
X1562507Y-494642D01*
Y-507761D01*
X1555947Y-514321D01*
X1830386Y-724201D02*
Y-763559D01*
X1804148D01*
X1791028D02*
X1777909D01*
X1784469D01*
Y-724201D01*
X1791028Y-730761D01*
X514211Y-2865250D02*
X520770Y-2858690D01*
X533889D01*
X540449Y-2865250D01*
Y-2891488D01*
X533889Y-2898048D01*
X520770D01*
X514211Y-2891488D01*
X501091Y-2898048D02*
X487972D01*
X494532D01*
Y-2858690D01*
X501091Y-2865250D01*
X442055Y-2858690D02*
X455175Y-2865250D01*
X468294Y-2878369D01*
Y-2891488D01*
X461734Y-2898048D01*
X448615D01*
X442055Y-2891488D01*
Y-2884929D01*
X448615Y-2878369D01*
X468294D01*
X1271100Y-2704817D02*
X1277660Y-2698257D01*
X1290779D01*
X1297339Y-2704817D01*
Y-2731055D01*
X1290779Y-2737615D01*
X1277660D01*
X1271100Y-2731055D01*
X1257981Y-2737615D02*
X1244862D01*
X1251422D01*
Y-2698257D01*
X1257981Y-2704817D01*
X1225183Y-2737615D02*
X1212064D01*
X1218624D01*
Y-2698257D01*
X1225183Y-2704817D01*
X2182872Y-2030738D02*
X2189432Y-2024178D01*
X2202551D01*
X2209110Y-2030738D01*
Y-2056976D01*
X2202551Y-2063535D01*
X2189432D01*
X2182872Y-2056976D01*
X2169753D02*
X2163193Y-2063535D01*
X2150074D01*
X2143515Y-2056976D01*
Y-2030738D01*
X2150074Y-2024178D01*
X2163193D01*
X2169753Y-2030738D01*
Y-2037297D01*
X2163193Y-2043857D01*
X2143515D01*
X1925612Y-2709266D02*
X1932172Y-2702706D01*
X1945291D01*
X1951850Y-2709266D01*
Y-2735504D01*
X1945291Y-2742063D01*
X1932172D01*
X1925612Y-2735504D01*
X1912493Y-2742063D02*
X1899374D01*
X1905933D01*
Y-2702706D01*
X1912493Y-2709266D01*
X1879695D02*
X1873136Y-2702706D01*
X1860016D01*
X1853457Y-2709266D01*
Y-2735504D01*
X1860016Y-2742063D01*
X1873136D01*
X1879695Y-2735504D01*
Y-2709266D01*
X1530313Y-392868D02*
X1523753Y-386309D01*
Y-373190D01*
X1530313Y-366630D01*
X1556551D01*
X1563110Y-373190D01*
Y-386309D01*
X1556551Y-392868D01*
X1523753Y-432226D02*
X1530313Y-419106D01*
X1543432Y-405987D01*
X1556551D01*
X1563110Y-412547D01*
Y-425666D01*
X1556551Y-432226D01*
X1549991D01*
X1543432Y-425666D01*
Y-405987D01*
X1936436Y-808817D02*
X1942995Y-815377D01*
Y-828496D01*
X1936436Y-835056D01*
X1910197D01*
X1903638Y-828496D01*
Y-815377D01*
X1910197Y-808817D01*
X1942995Y-769460D02*
Y-795698D01*
X1923316D01*
X1929876Y-782579D01*
Y-776019D01*
X1923316Y-769460D01*
X1910197D01*
X1903638Y-776019D01*
Y-789139D01*
X1910197Y-795698D01*
X2021081Y-811770D02*
X2027641Y-818330D01*
Y-831449D01*
X2021081Y-838008D01*
X1994843D01*
X1988284Y-831449D01*
Y-818330D01*
X1994843Y-811770D01*
X1988284Y-778972D02*
X2027641D01*
X2007962Y-798651D01*
Y-772413D01*
X659861Y-2585392D02*
X666420Y-2591952D01*
Y-2605071D01*
X659861Y-2611630D01*
X633623D01*
X627063Y-2605071D01*
Y-2591952D01*
X633623Y-2585392D01*
X659861Y-2572273D02*
X666420Y-2565713D01*
Y-2552594D01*
X659861Y-2546035D01*
X653301D01*
X646742Y-2552594D01*
X640182Y-2546035D01*
X633623D01*
X627063Y-2552594D01*
Y-2565713D01*
X633623Y-2572273D01*
X640182D01*
X646742Y-2565713D01*
X653301Y-2572273D01*
X659861D01*
X646742Y-2565713D02*
Y-2552594D01*
X1227774Y-853109D02*
X1234334Y-859668D01*
Y-872787D01*
X1227774Y-879347D01*
X1201536D01*
X1194976Y-872787D01*
Y-859668D01*
X1201536Y-853109D01*
X1227774Y-839990D02*
X1234334Y-833430D01*
Y-820311D01*
X1227774Y-813751D01*
X1221215D01*
X1214655Y-820311D01*
Y-826870D01*
Y-820311D01*
X1208095Y-813751D01*
X1201536D01*
X1194976Y-820311D01*
Y-833430D01*
X1201536Y-839990D01*
X1356932Y-517834D02*
X1363491Y-524393D01*
Y-537513D01*
X1356932Y-544072D01*
X1330694D01*
X1324134Y-537513D01*
Y-524393D01*
X1330694Y-517834D01*
X1324134Y-478476D02*
Y-504715D01*
X1350372Y-478476D01*
X1356932D01*
X1363491Y-485036D01*
Y-498155D01*
X1356932Y-504715D01*
X139872Y-2210832D02*
X146432Y-2204273D01*
X159551D01*
X166110Y-2210832D01*
Y-2237070D01*
X159551Y-2243630D01*
X146432D01*
X139872Y-2237070D01*
X126753Y-2204273D02*
X100515D01*
Y-2210832D01*
X126753Y-2237070D01*
Y-2243630D01*
X1466648Y-538881D02*
X1473208Y-545441D01*
Y-558560D01*
X1466648Y-565119D01*
X1440410D01*
X1433850Y-558560D01*
Y-545441D01*
X1440410Y-538881D01*
X1433850Y-525762D02*
Y-512643D01*
Y-519202D01*
X1473208D01*
X1466648Y-525762D01*
X-226890Y-1754630D02*
Y-1715273D01*
X-246568D01*
X-253128Y-1721832D01*
Y-1734951D01*
X-246568Y-1741511D01*
X-226890D01*
X-266247Y-1754630D02*
X-279366D01*
X-272807D01*
Y-1715273D01*
X-266247Y-1721832D01*
X1519110Y-2176178D02*
Y-2208976D01*
X1512551Y-2215535D01*
X1499432D01*
X1492872Y-2208976D01*
Y-2176178D01*
X1460074Y-2215535D02*
Y-2176178D01*
X1479753Y-2195857D01*
X1453515D01*
X1413817Y-2622140D02*
X1420376Y-2615580D01*
X1433495D01*
X1440055Y-2622140D01*
Y-2648378D01*
X1433495Y-2654937D01*
X1420376D01*
X1413817Y-2648378D01*
X1400698Y-2654937D02*
X1387579D01*
X1394138D01*
Y-2615580D01*
X1400698Y-2622140D01*
X1341662Y-2654937D02*
X1367900D01*
X1341662Y-2628699D01*
Y-2622140D01*
X1348221Y-2615580D01*
X1361340D01*
X1367900Y-2622140D01*
X1898668Y-2291832D02*
X1905227Y-2285273D01*
X1918346D01*
X1924906Y-2291832D01*
Y-2318070D01*
X1918346Y-2324630D01*
X1905227D01*
X1898668Y-2318070D01*
X1885548Y-2324630D02*
X1872429D01*
X1878989D01*
Y-2285273D01*
X1885548Y-2291832D01*
X1826512Y-2285273D02*
X1852751D01*
Y-2304951D01*
X1839631Y-2298392D01*
X1833072D01*
X1826512Y-2304951D01*
Y-2318070D01*
X1833072Y-2324630D01*
X1846191D01*
X1852751Y-2318070D01*
X1657202Y-1996238D02*
X1650643Y-1989679D01*
Y-1976560D01*
X1657202Y-1970000D01*
X1683440D01*
X1690000Y-1976560D01*
Y-1989679D01*
X1683440Y-1996238D01*
X1690000Y-2009357D02*
Y-2022476D01*
Y-2015917D01*
X1650643D01*
X1657202Y-2009357D01*
Y-2042155D02*
X1650643Y-2048715D01*
Y-2061834D01*
X1657202Y-2068393D01*
X1663762D01*
X1670321Y-2061834D01*
Y-2055274D01*
Y-2061834D01*
X1676881Y-2068393D01*
X1683440D01*
X1690000Y-2061834D01*
Y-2048715D01*
X1683440Y-2042155D01*
X2250110Y-889535D02*
Y-850178D01*
X2230432D01*
X2223872Y-856738D01*
Y-869857D01*
X2230432Y-876416D01*
X2250110D01*
X2184515Y-889535D02*
X2210753D01*
X2184515Y-863297D01*
Y-856738D01*
X2191074Y-850178D01*
X2204193D01*
X2210753Y-856738D01*
X538872Y-1880738D02*
X545432Y-1874178D01*
X558551D01*
X565110Y-1880738D01*
Y-1906976D01*
X558551Y-1913535D01*
X545432D01*
X538872Y-1906976D01*
X525753Y-1913535D02*
X512634D01*
X519193D01*
Y-1874178D01*
X525753Y-1880738D01*
X473276Y-1913535D02*
Y-1874178D01*
X492955Y-1893857D01*
X466717D01*
X1809110Y-1279535D02*
Y-1240178D01*
X1789432D01*
X1782872Y-1246738D01*
Y-1259857D01*
X1789432Y-1266416D01*
X1809110D01*
X1795991D02*
X1782872Y-1279535D01*
X1769753D02*
X1756634D01*
X1763193D01*
Y-1240178D01*
X1769753Y-1246738D01*
X1809110Y-1429535D02*
Y-1390178D01*
X1789432D01*
X1782872Y-1396738D01*
Y-1409857D01*
X1789432Y-1416416D01*
X1809110D01*
X1795991D02*
X1782872Y-1429535D01*
X1769753Y-1422976D02*
X1763193Y-1429535D01*
X1750074D01*
X1743515Y-1422976D01*
Y-1396738D01*
X1750074Y-1390178D01*
X1763193D01*
X1769753Y-1396738D01*
Y-1403297D01*
X1763193Y-1409857D01*
X1743515D01*
%TF.MD5,3103487f387b5ed236b3dc252666bd58*%
M02*
