G04 Layer_Color=65535*
%FSLAX26Y26*%
%MOIN*%
%TF.FileFunction,Legend,Top*%
%TF.Part,Single*%
G01*
G75*
%TA.AperFunction,NonConductor*%
%ADD45C,0.010000*%
%ADD46C,0.007874*%
%ADD60C,0.003937*%
D45*
X154953Y1664882D02*
G03*
X154953Y1664882I-14142J0D01*
G01*
X809000D02*
G03*
X809000Y1664882I-30000J0D01*
G01*
X564000Y1282063D02*
G03*
X564000Y1282063I-196850J0D01*
G01*
X140811Y1614882D02*
Y2064882D01*
X740811D01*
Y1614882D02*
Y2064882D01*
X140811Y1614882D02*
X740811D01*
X779000D02*
Y2064882D01*
X1279000D01*
Y1614882D02*
Y2064882D01*
X779000Y1614882D02*
X1279000D01*
X1175000Y-411496D02*
Y588504D01*
X175000Y-136496D02*
Y413504D01*
Y588504D01*
X325000D02*
X825000D01*
X175000Y-411496D02*
Y-136496D01*
Y-411496D02*
X1175000D01*
X175000Y588504D02*
X325000D01*
X825000D02*
X1175000D01*
X1200000Y1382008D02*
X2140000D01*
Y652008D02*
Y1382008D01*
X1200000Y652008D02*
X2140000D01*
X1200000D02*
Y1382008D01*
X1215040Y-409921D02*
X2215039D01*
Y590079D01*
X1215040Y590061D02*
X2215043Y590079D01*
X1215040Y-409921D02*
Y590079D01*
X287150Y1380063D02*
X327150D01*
X462150Y1205063D02*
Y1245063D01*
X307150Y1225063D02*
Y1375063D01*
Y1225063D02*
X457150D01*
X358639Y1199297D02*
X327150Y1152063D01*
Y1199297D02*
X358639D01*
X327150Y1152063D02*
X358639D01*
X369210Y1199297D02*
Y1152063D01*
X396201D01*
X432864Y1192550D02*
X428365Y1197048D01*
X421618Y1199297D01*
X412621D01*
X405873Y1197048D01*
X401374Y1192550D01*
Y1188051D01*
X403624Y1183553D01*
X405873Y1181303D01*
X410371Y1179054D01*
X423867Y1174556D01*
X428365Y1172306D01*
X430615Y1170057D01*
X432864Y1165559D01*
Y1158811D01*
X428365Y1154313D01*
X421618Y1152063D01*
X412621D01*
X405873Y1154313D01*
X401374Y1158811D01*
D46*
X52756Y825394D02*
Y1028150D01*
X1166929D01*
Y825394D02*
Y1028150D01*
X52756Y825394D02*
X1166929D01*
X1365748Y1412402D02*
X1409056D01*
X1365748Y1506890D02*
X1409056D01*
X2067031Y1454607D02*
X2070969D01*
X2067031Y1405395D02*
X2070969D01*
X1015158Y1305394D02*
X1034842D01*
X1015158Y1104606D02*
X1034842D01*
X1775024Y2173057D02*
Y2212414D01*
X1794702D01*
X1801262Y2205854D01*
Y2192735D01*
X1794702Y2186176D01*
X1775024D01*
X1820941Y2173057D02*
X1834060D01*
X1840619Y2179616D01*
Y2192735D01*
X1834060Y2199295D01*
X1820941D01*
X1814381Y2192735D01*
Y2179616D01*
X1820941Y2173057D01*
X1853738Y2199295D02*
Y2179616D01*
X1860298Y2173057D01*
X1866858Y2179616D01*
X1873417Y2173057D01*
X1879977Y2179616D01*
Y2199295D01*
X1912774Y2173057D02*
X1899655D01*
X1893096Y2179616D01*
Y2192735D01*
X1899655Y2199295D01*
X1912774D01*
X1919334Y2192735D01*
Y2186176D01*
X1893096D01*
X1932453Y2199295D02*
Y2173057D01*
Y2186176D01*
X1939013Y2192735D01*
X1945572Y2199295D01*
X1952132D01*
X2011168Y2212414D02*
X2024287D01*
X2017728D01*
Y2173057D01*
X2011168D01*
X2024287D01*
X2043966D02*
Y2199295D01*
X2063644D01*
X2070204Y2192735D01*
Y2173057D01*
X2083323Y2159937D02*
Y2199295D01*
X2103002D01*
X2109561Y2192735D01*
Y2179616D01*
X2103002Y2173057D01*
X2083323D01*
X2122681Y2199295D02*
Y2179616D01*
X2129240Y2173057D01*
X2148919D01*
Y2199295D01*
X2168598Y2205854D02*
Y2199295D01*
X2162038D01*
X2175157D01*
X2168598D01*
Y2179616D01*
X2175157Y2173057D01*
X2234193D02*
Y2212414D01*
X2247312Y2199295D01*
X2260431Y2212414D01*
Y2173057D01*
X2280110D02*
X2293229D01*
X2299789Y2179616D01*
Y2192735D01*
X2293229Y2199295D01*
X2280110D01*
X2273551Y2192735D01*
Y2179616D01*
X2280110Y2173057D01*
X2339146Y2212414D02*
Y2173057D01*
X2319468D01*
X2312908Y2179616D01*
Y2192735D01*
X2319468Y2199295D01*
X2339146D01*
X2352265D02*
Y2179616D01*
X2358825Y2173057D01*
X2378504D01*
Y2199295D01*
X2391623Y2173057D02*
X2404742D01*
X2398182D01*
Y2212414D01*
X2391623D01*
X2444099Y2173057D02*
X2430980D01*
X2424421Y2179616D01*
Y2192735D01*
X2430980Y2199295D01*
X2444099D01*
X2450659Y2192735D01*
Y2186176D01*
X2424421D01*
X903388Y1391421D02*
X877150D01*
Y1371742D01*
X890269D01*
X877150D01*
Y1352063D01*
X916507D02*
X929626D01*
X923067D01*
Y1391421D01*
X916507Y1384861D01*
X2048679Y1504598D02*
X2043759Y1509518D01*
X2033920D01*
X2029000Y1504598D01*
Y1484920D01*
X2033920Y1480000D01*
X2043759D01*
X2048679Y1484920D01*
X2058518Y1480000D02*
X2068358D01*
X2063438D01*
Y1509518D01*
X2058518Y1504598D01*
X2083117D02*
X2088036Y1509518D01*
X2097876D01*
X2102795Y1504598D01*
Y1499679D01*
X2097876Y1494759D01*
X2102795Y1489839D01*
Y1484920D01*
X2097876Y1480000D01*
X2088036D01*
X2083117Y1484920D01*
Y1489839D01*
X2088036Y1494759D01*
X2083117Y1499679D01*
Y1504598D01*
X2088036Y1494759D02*
X2097876D01*
X-72850Y1072063D02*
Y1111421D01*
X-53172D01*
X-46612Y1104861D01*
Y1091742D01*
X-53172Y1085182D01*
X-72850D01*
X-59731D02*
X-46612Y1072063D01*
X-33493Y1111421D02*
Y1072063D01*
X-7255D01*
X5864Y1111421D02*
Y1104861D01*
X18983Y1091742D01*
X32103Y1104861D01*
Y1111421D01*
X18983Y1091742D02*
Y1072063D01*
X45222D02*
X58341D01*
X51781D01*
Y1111421D01*
X45222Y1104861D01*
X273740Y655499D02*
Y622701D01*
X280300Y616142D01*
X293419D01*
X299978Y622701D01*
Y655499D01*
X339336D02*
X326216Y648939D01*
X313097Y635820D01*
Y622701D01*
X319657Y616142D01*
X332776D01*
X339336Y622701D01*
Y629261D01*
X332776Y635820D01*
X313097D01*
X2255512Y60027D02*
Y27229D01*
X2262071Y20669D01*
X2275191D01*
X2281750Y27229D01*
Y60027D01*
X2294869Y53467D02*
X2301429Y60027D01*
X2314548D01*
X2321107Y53467D01*
Y46907D01*
X2314548Y40348D01*
X2307988D01*
X2314548D01*
X2321107Y33788D01*
Y27229D01*
X2314548Y20669D01*
X2301429D01*
X2294869Y27229D01*
X1310260Y1653434D02*
Y1692791D01*
X1329939D01*
X1336498Y1686231D01*
Y1673112D01*
X1329939Y1666553D01*
X1310260D01*
X1369296Y1653434D02*
Y1692791D01*
X1349617Y1673112D01*
X1375856D01*
X27150Y1632063D02*
Y1671421D01*
X46828D01*
X53388Y1664861D01*
Y1651742D01*
X46828Y1645182D01*
X27150D01*
X66507Y1664861D02*
X73067Y1671421D01*
X86186D01*
X92745Y1664861D01*
Y1658302D01*
X86186Y1651742D01*
X79626D01*
X86186D01*
X92745Y1645182D01*
Y1638623D01*
X86186Y1632063D01*
X73067D01*
X66507Y1638623D01*
X1363640Y1572444D02*
X1357080Y1579003D01*
X1343961D01*
X1337402Y1572444D01*
Y1546205D01*
X1343961Y1539646D01*
X1357080D01*
X1363640Y1546205D01*
X1376759Y1539646D02*
X1389878D01*
X1383319D01*
Y1579003D01*
X1376759Y1572444D01*
X1409557Y1579003D02*
X1435795D01*
Y1572444D01*
X1409557Y1546205D01*
Y1539646D01*
X1651378Y1446838D02*
Y1414040D01*
X1657938Y1407480D01*
X1671057D01*
X1677616Y1414040D01*
Y1446838D01*
X1690735D02*
X1716974D01*
Y1440278D01*
X1690735Y1414040D01*
Y1407480D01*
X843260Y1745434D02*
Y1771672D01*
X856379Y1784791D01*
X869498Y1771672D01*
Y1745434D01*
Y1765112D01*
X843260D01*
X882617Y1771672D02*
Y1751993D01*
X889177Y1745434D01*
X908856D01*
Y1771672D01*
X921975D02*
X948213Y1745434D01*
X935094Y1758553D01*
X948213Y1771672D01*
X921975Y1745434D01*
X961332D02*
X987570Y1771672D01*
X1040047Y1745434D02*
X1053166D01*
X1046607D01*
Y1784791D01*
X1040047D01*
X1072845Y1745434D02*
X1085964D01*
X1079404D01*
Y1771672D01*
X1072845D01*
X1131881Y1784791D02*
Y1745434D01*
X1112202D01*
X1105643Y1751993D01*
Y1765112D01*
X1112202Y1771672D01*
X1131881D01*
X280260Y1773791D02*
Y1734434D01*
X299939D01*
X306498Y1740993D01*
Y1747553D01*
X299939Y1754112D01*
X280260D01*
X299939D01*
X306498Y1760672D01*
Y1767231D01*
X299939Y1773791D01*
X280260D01*
X326177Y1760672D02*
X339296D01*
X345856Y1754112D01*
Y1734434D01*
X326177D01*
X319617Y1740993D01*
X326177Y1747553D01*
X345856D01*
X365534Y1767231D02*
Y1760672D01*
X358975D01*
X372094D01*
X365534D01*
Y1740993D01*
X372094Y1734434D01*
X398332Y1767231D02*
Y1760672D01*
X391773D01*
X404892D01*
X398332D01*
Y1740993D01*
X404892Y1734434D01*
X444249D02*
X431130D01*
X424570Y1740993D01*
Y1754112D01*
X431130Y1760672D01*
X444249D01*
X450809Y1754112D01*
Y1747553D01*
X424570D01*
X463928Y1760672D02*
Y1734434D01*
Y1747553D01*
X470487Y1754112D01*
X477047Y1760672D01*
X483606D01*
X503285D02*
Y1740993D01*
X509845Y1734434D01*
X529523D01*
Y1727874D01*
X522964Y1721314D01*
X516404D01*
X529523Y1734434D02*
Y1760672D01*
X1777150Y1991421D02*
X1803388D01*
Y1984861D01*
X1777150Y1958623D01*
Y1952063D01*
X1803388D01*
X1816507Y1991421D02*
Y1952063D01*
X1842745D01*
X1882103Y1984861D02*
X1875543Y1991421D01*
X1862424D01*
X1855864Y1984861D01*
Y1978302D01*
X1862424Y1971742D01*
X1875543D01*
X1882103Y1965182D01*
Y1958623D01*
X1875543Y1952063D01*
X1862424D01*
X1855864Y1958623D01*
X1960817Y1984861D02*
X1954258Y1991421D01*
X1941139D01*
X1934579Y1984861D01*
Y1958623D01*
X1941139Y1952063D01*
X1954258D01*
X1960817Y1958623D01*
X1980496Y1952063D02*
X1993615D01*
X2000175Y1958623D01*
Y1971742D01*
X1993615Y1978302D01*
X1980496D01*
X1973937Y1971742D01*
Y1958623D01*
X1980496Y1952063D01*
X2013294Y1978302D02*
Y1952063D01*
Y1965182D01*
X2019854Y1971742D01*
X2026413Y1978302D01*
X2032973D01*
X2052651Y1938944D02*
Y1978302D01*
X2072330D01*
X2078890Y1971742D01*
Y1958623D01*
X2072330Y1952063D01*
X2052651D01*
X1777150Y2022063D02*
Y2061421D01*
X1796828D01*
X1803388Y2054861D01*
Y2041742D01*
X1796828Y2035182D01*
X1777150D01*
X1790269D02*
X1803388Y2022063D01*
X1842745Y2061421D02*
X1816507D01*
Y2022063D01*
X1842745D01*
X1816507Y2041742D02*
X1829626D01*
X1855864Y2061421D02*
Y2035182D01*
X1868984Y2022063D01*
X1882103Y2035182D01*
Y2061421D01*
X1934579Y2022063D02*
Y2048302D01*
X1947698Y2061421D01*
X1960817Y2048302D01*
Y2022063D01*
Y2041742D01*
X1934579D01*
X1777150Y2141421D02*
Y2102063D01*
X1803388D01*
X1816507D02*
Y2141421D01*
X1829626Y2128302D01*
X1842745Y2141421D01*
Y2102063D01*
X1855864Y2121742D02*
X1882103D01*
X1895222Y2134861D02*
X1901781Y2141421D01*
X1914900D01*
X1921460Y2134861D01*
Y2108623D01*
X1914900Y2102063D01*
X1901781D01*
X1895222Y2108623D01*
Y2134861D01*
X1934579D02*
X1941139Y2141421D01*
X1954258D01*
X1960817Y2134861D01*
Y2108623D01*
X1954258Y2102063D01*
X1941139D01*
X1934579Y2108623D01*
Y2134861D01*
X1973937D02*
X1980496Y2141421D01*
X1993615D01*
X2000175Y2134861D01*
Y2128302D01*
X1993615Y2121742D01*
X2000175Y2115182D01*
Y2108623D01*
X1993615Y2102063D01*
X1980496D01*
X1973937Y2108623D01*
Y2115182D01*
X1980496Y2121742D01*
X1973937Y2128302D01*
Y2134861D01*
X1980496Y2121742D02*
X1993615D01*
D60*
X550725Y1282063D02*
G03*
X550725Y1282063I-183576J0D01*
G01*
X387150Y1255063D02*
X427150Y1305063D01*
X367150Y1275063D02*
X427150Y1305063D01*
X367150Y1275063D02*
X407150Y1325063D01*
X307150Y1375063D02*
X337150Y1345063D01*
X427150Y1255063D02*
X447150Y1285063D01*
X387150Y1255063D02*
X447150Y1285063D01*
X427150Y1255063D02*
X457150Y1225063D01*
X337150Y1345063D02*
X367150Y1365063D01*
X327150Y1315063D02*
X367150Y1365063D01*
X347150Y1295063D02*
X387150Y1345063D01*
X347150Y1295063D02*
X407150Y1325063D01*
X327150Y1315063D02*
X387150Y1345063D01*
%TF.MD5,0d7108cdc1bff9336bbbf4cfc41ef502*%
M02*
