G04 Layer_Color=16711935*
%FSLAX26Y26*%
%MOIN*%
%TF.FileFunction,Other,Mechanical_1*%
%TF.Part,Single*%
G01*
G75*
%TA.AperFunction,NonConductor*%
%ADD45C,0.010000*%
%ADD81C,0.006000*%
D45*
X2443528Y900000D02*
X2660000D01*
X2462425Y-350000D02*
X2660000D01*
X2650000Y434948D02*
Y900000D01*
Y-350000D02*
Y83052D01*
X2630000Y840000D02*
X2650000Y900000D01*
X2670000Y840000D01*
X2650000Y-350000D02*
X2670000Y-290000D01*
X2630000D02*
X2650000Y-350000D01*
X-290000Y0D02*
X-43528D01*
X-290000Y-350000D02*
X-112425D01*
X-280000Y-175000D02*
Y0D01*
Y-350000D02*
Y-175000D01*
X-300000Y-60000D02*
X-280000Y0D01*
X-260000Y-60000D01*
X-280000Y-350000D02*
X-260000Y-290000D01*
X-300000D02*
X-280000Y-350000D01*
X2462425Y2000000D02*
X2866166D01*
X2462425Y-350000D02*
X2866166D01*
X2856166Y1019937D02*
Y2000000D01*
Y-350000D02*
Y598063D01*
X2836166Y1940000D02*
X2856166Y2000000D01*
X2876166Y1940000D01*
X2856166Y-350000D02*
X2876166Y-290000D01*
X2836166D02*
X2856166Y-350000D01*
X2350000Y-910000D02*
Y-462425D01*
X0Y-910000D02*
Y-462425D01*
X1369937Y-900000D02*
X2350000D01*
X0D02*
X948063D01*
X2290000Y-880000D02*
X2350000Y-900000D01*
X2290000Y-920000D02*
X2350000Y-900000D01*
X0D02*
X60000Y-920000D01*
X0Y-900000D02*
X60000Y-880000D01*
X-150000Y-628582D02*
Y-500000D01*
X0Y-628582D02*
Y-462425D01*
Y-618582D02*
X100000D01*
X-250000D02*
X-150000D01*
X0D02*
X60000Y-638582D01*
X0Y-618582D02*
X60000Y-598582D01*
X-210000D02*
X-150000Y-618582D01*
X-210000Y-638582D02*
X-150000Y-618582D01*
X-598110Y2255905D02*
X-150000D01*
X-598110Y-500000D02*
X-150000D01*
X-588110Y982919D02*
Y2255905D01*
Y-500000D02*
Y740987D01*
X-608110Y2195905D02*
X-588110Y2255905D01*
X-568110Y2195905D01*
X-588110Y-500000D02*
X-568110Y-440000D01*
X-608110D02*
X-588110Y-500000D01*
X2488055Y-1140000D02*
Y-539842D01*
X-150000Y-1140000D02*
Y-500000D01*
X1273994Y-1130000D02*
X2488055D01*
X-150000D02*
X1032062D01*
X2428055Y-1110000D02*
X2488055Y-1130000D01*
X2428055Y-1150000D02*
X2488055Y-1130000D01*
X-150000D02*
X-90000Y-1150000D01*
X-150000Y-1130000D02*
X-90000Y-1110000D01*
D81*
X2685990Y99052D02*
Y119045D01*
Y109049D01*
X2626010D01*
X2636006Y99052D01*
X2685990Y189023D02*
Y149036D01*
X2646003Y189023D01*
X2636006D01*
X2626010Y179026D01*
Y159032D01*
X2636006Y149036D01*
X2626010Y249003D02*
Y209016D01*
X2656000D01*
X2646003Y229010D01*
Y239006D01*
X2656000Y249003D01*
X2675994D01*
X2685990Y239006D01*
Y219013D01*
X2675994Y209016D01*
X2636006Y268997D02*
X2626010Y278993D01*
Y298987D01*
X2636006Y308984D01*
X2675994D01*
X2685990Y298987D01*
Y278993D01*
X2675994Y268997D01*
X2636006D01*
X2685990Y328977D02*
X2675994D01*
Y338974D01*
X2685990D01*
Y328977D01*
X2636006Y378961D02*
X2626010Y388958D01*
Y408951D01*
X2636006Y418948D01*
X2675994D01*
X2685990Y408951D01*
Y388958D01*
X2675994Y378961D01*
X2636006D01*
X-414984Y-305000D02*
X-424981Y-295003D01*
Y-275010D01*
X-414984Y-265013D01*
X-404987D01*
X-394990Y-275010D01*
Y-285007D01*
Y-275010D01*
X-384993Y-265013D01*
X-374997D01*
X-365000Y-275010D01*
Y-295003D01*
X-374997Y-305000D01*
X-424981Y-205032D02*
Y-245019D01*
X-394990D01*
X-404987Y-225026D01*
Y-215029D01*
X-394990Y-205032D01*
X-374997D01*
X-365000Y-215029D01*
Y-235023D01*
X-374997Y-245019D01*
X-414984Y-185039D02*
X-424981Y-175042D01*
Y-155048D01*
X-414984Y-145052D01*
X-374997D01*
X-365000Y-155048D01*
Y-175042D01*
X-374997Y-185039D01*
X-414984D01*
X-365000Y-125058D02*
X-374997D01*
Y-115061D01*
X-365000D01*
Y-125058D01*
X-414984Y-75074D02*
X-424981Y-65078D01*
Y-45084D01*
X-414984Y-35087D01*
X-374997D01*
X-365000Y-45084D01*
Y-65078D01*
X-374997Y-75074D01*
X-414984D01*
X2892156Y654050D02*
Y614063D01*
X2852169Y654050D01*
X2842172D01*
X2832175Y644053D01*
Y624060D01*
X2842172Y614063D01*
Y674044D02*
X2832175Y684040D01*
Y704034D01*
X2842172Y714031D01*
X2852169D01*
X2862166Y704034D01*
Y694037D01*
Y704034D01*
X2872162Y714031D01*
X2882159D01*
X2892156Y704034D01*
Y684040D01*
X2882159Y674044D01*
X2832175Y774011D02*
Y734024D01*
X2862166D01*
X2852169Y754018D01*
Y764014D01*
X2862166Y774011D01*
X2882159D01*
X2892156Y764014D01*
Y744021D01*
X2882159Y734024D01*
X2842172Y794005D02*
X2832175Y804002D01*
Y823995D01*
X2842172Y833992D01*
X2882159D01*
X2892156Y823995D01*
Y804002D01*
X2882159Y794005D01*
X2842172D01*
X2892156Y853985D02*
X2882159D01*
Y863982D01*
X2892156D01*
Y853985D01*
X2842172Y903969D02*
X2832175Y913966D01*
Y933960D01*
X2842172Y943956D01*
X2882159D01*
X2892156Y933960D01*
Y913966D01*
X2882159Y903969D01*
X2842172D01*
Y963950D02*
X2832175Y973947D01*
Y993940D01*
X2842172Y1003937D01*
X2882159D01*
X2892156Y993940D01*
Y973947D01*
X2882159Y963950D01*
X2842172D01*
X1004050Y-935990D02*
X964063D01*
X1004050Y-896003D01*
Y-886006D01*
X994053Y-876010D01*
X974060D01*
X964063Y-886006D01*
X1024044D02*
X1034040Y-876010D01*
X1054034D01*
X1064031Y-886006D01*
Y-896003D01*
X1054034Y-906000D01*
X1044037D01*
X1054034D01*
X1064031Y-915997D01*
Y-925994D01*
X1054034Y-935990D01*
X1034040D01*
X1024044Y-925994D01*
X1124011Y-876010D02*
X1084024D01*
Y-906000D01*
X1104018Y-896003D01*
X1114014D01*
X1124011Y-906000D01*
Y-925994D01*
X1114014Y-935990D01*
X1094021D01*
X1084024Y-925994D01*
X1144005Y-886006D02*
X1154002Y-876010D01*
X1173995D01*
X1183992Y-886006D01*
Y-925994D01*
X1173995Y-935990D01*
X1154002D01*
X1144005Y-925994D01*
Y-886006D01*
X1203985Y-935990D02*
Y-925994D01*
X1213982D01*
Y-935990D01*
X1203985D01*
X1253969Y-886006D02*
X1263966Y-876010D01*
X1283959D01*
X1293956Y-886006D01*
Y-925994D01*
X1283959Y-935990D01*
X1263966D01*
X1253969Y-925994D01*
Y-886006D01*
X1313950D02*
X1323947Y-876010D01*
X1343940D01*
X1353937Y-886006D01*
Y-925994D01*
X1343940Y-935990D01*
X1323947D01*
X1313950Y-925994D01*
Y-886006D01*
X142665Y-644433D02*
X162659D01*
X152662D01*
Y-584453D01*
X142665Y-594449D01*
X232636Y-584453D02*
X192649D01*
Y-614443D01*
X212643Y-604446D01*
X222639D01*
X232636Y-614443D01*
Y-634436D01*
X222639Y-644433D01*
X202646D01*
X192649Y-634436D01*
X252630Y-594449D02*
X262627Y-584453D01*
X282620D01*
X292617Y-594449D01*
Y-634436D01*
X282620Y-644433D01*
X262627D01*
X252630Y-634436D01*
Y-594449D01*
X312610Y-644433D02*
Y-634436D01*
X322607D01*
Y-644433D01*
X312610D01*
X362594Y-594449D02*
X372591Y-584453D01*
X392584D01*
X402581Y-594449D01*
Y-634436D01*
X392584Y-644433D01*
X372591D01*
X362594Y-634436D01*
Y-594449D01*
X422575D02*
X432572Y-584453D01*
X452565D01*
X462562Y-594449D01*
Y-634436D01*
X452565Y-644433D01*
X432572D01*
X422575Y-634436D01*
Y-594449D01*
X-552120Y796974D02*
Y756987D01*
X-592107Y796974D01*
X-602104D01*
X-612100Y786977D01*
Y766984D01*
X-602104Y756987D01*
X-552120Y816967D02*
X-562117D01*
Y826964D01*
X-552120D01*
Y816967D01*
X-612100Y866951D02*
Y906938D01*
X-602104D01*
X-562117Y866951D01*
X-552120D01*
X-612100Y966919D02*
X-602104Y946925D01*
X-582110Y926932D01*
X-562117D01*
X-552120Y936928D01*
Y956922D01*
X-562117Y966919D01*
X-572113D01*
X-582110Y956922D01*
Y926932D01*
X1088049Y-1165990D02*
X1048062D01*
X1088049Y-1126003D01*
Y-1116006D01*
X1078052Y-1106010D01*
X1058058D01*
X1048062Y-1116006D01*
X1108042Y-1165990D02*
Y-1155994D01*
X1118039D01*
Y-1165990D01*
X1108042D01*
X1198013Y-1106010D02*
X1178020Y-1116006D01*
X1158026Y-1136000D01*
Y-1155994D01*
X1168023Y-1165990D01*
X1188016D01*
X1198013Y-1155994D01*
Y-1145997D01*
X1188016Y-1136000D01*
X1158026D01*
X1247997Y-1165990D02*
Y-1106010D01*
X1218007Y-1136000D01*
X1257994D01*
%TF.MD5,db52ab22f8c9926c494b42904789b9df*%
M02*
