G04 Layer_Color=0*
%FSLAX26Y26*%
%MOIN*%
%TF.FileFunction,Plated,1,2,PTH,Drill*%
%TF.Part,Single*%
G01*
G75*
%TA.AperFunction,ComponentDrill*%
%ADD84C,0.035827*%
%TA.AperFunction,OtherDrill,Pad Free-3 (4791.394mil,-7871.203mil)*%
%ADD85C,0.118110*%
%TA.AperFunction,OtherDrill,Free Pad (-147.15mil,-2872.063mil)*%
%ADD86C,0.118110*%
%TA.AperFunction,OtherDrill,Free Pad (2202.85mil,-2872.063mil)*%
%ADD87C,0.118110*%
%TA.AperFunction,OtherDrill,Free Pad (-147.15mil,-522.063mil)*%
%ADD88C,0.118110*%
%TA.AperFunction,OtherDrill,Free Pad (2202.85mil,-522.063mil)*%
%ADD89C,0.118110*%
%TA.AperFunction,ComponentDrill*%
%ADD90C,0.035433*%
%ADD91C,0.037402*%
%ADD92C,0.059055*%
%ADD93C,0.055118*%
%ADD94C,0.043307*%
%ADD95C,0.059055*%
%TA.AperFunction,ViaDrill,NotFilled*%
%ADD96C,0.028000*%
D84*
X2202850Y-972063D02*
D03*
Y-1072063D02*
D03*
Y-1172063D02*
D03*
Y-1272063D02*
D03*
Y-1372063D02*
D03*
X2102850Y-972063D02*
D03*
Y-1072063D02*
D03*
Y-1172063D02*
D03*
Y-1272063D02*
D03*
Y-1372063D02*
D03*
X2202850Y-1472063D02*
D03*
Y-1572063D02*
D03*
Y-1672063D02*
D03*
X2102850Y-1472063D02*
D03*
Y-1572063D02*
D03*
Y-1672063D02*
D03*
X-47150Y-1822063D02*
D03*
Y-1922063D02*
D03*
Y-2022063D02*
D03*
Y-2122063D02*
D03*
Y-2222063D02*
D03*
X-147150Y-1822063D02*
D03*
Y-1922063D02*
D03*
Y-2022063D02*
D03*
Y-2122063D02*
D03*
Y-2222063D02*
D03*
X-47150Y-2322063D02*
D03*
Y-2422063D02*
D03*
Y-2522063D02*
D03*
X-147150Y-2322063D02*
D03*
Y-2422063D02*
D03*
Y-2522063D02*
D03*
D85*
X4791394Y-7871203D02*
D03*
D86*
X-147150Y-2872063D02*
D03*
D87*
X2202850D02*
D03*
D88*
X-147150Y-522063D02*
D03*
D89*
X2202850D02*
D03*
D90*
X393662Y-857181D02*
D03*
X293662D02*
D03*
X193662D02*
D03*
X93662D02*
D03*
X493662D02*
D03*
D91*
X1031850D02*
D03*
X931850D02*
D03*
X831850D02*
D03*
X731850D02*
D03*
D92*
X927850Y-2033559D02*
D03*
Y-2433559D02*
D03*
Y-2833559D02*
D03*
X127850Y-2033559D02*
D03*
Y-2533559D02*
D03*
Y-2333559D02*
D03*
X1967890Y-2831984D02*
D03*
Y-2031984D02*
D03*
X1167890Y-2531984D02*
D03*
Y-2331984D02*
D03*
Y-2031984D02*
D03*
D93*
X548126Y-1547063D02*
D03*
X944976D02*
D03*
X746551D02*
D03*
D94*
X-47150D02*
D03*
X101669D02*
D03*
D95*
X1967890Y-2431984D02*
D03*
D96*
X506110Y-968313D02*
D03*
X612110Y-1033630D02*
D03*
X1520350Y-969563D02*
D03*
X1277850Y-1312063D02*
D03*
X1425961Y-1033953D02*
D03*
X461850Y-672063D02*
D03*
X361850D02*
D03*
X1800000Y-1410000D02*
D03*
X1750000Y-1320000D02*
D03*
%TF.MD5,c33ac51bc158dfc32d68b0a35ab48629*%
M02*
