G04 Layer_Color=32768*
%FSLAX26Y26*%
%MOIN*%
%TF.FileFunction,Other,Mechanical_15*%
%TF.Part,Single*%
G01*
G75*
%TA.AperFunction,NonConductor*%
%ADD63C,0.003937*%
%ADD81C,0.001968*%
D63*
X1653164Y-2162063D02*
X1692534D01*
X1672848Y-2181749D02*
Y-2142379D01*
X1760220Y-2390629D02*
X1799590D01*
X1779904Y-2410315D02*
Y-2370945D01*
X1411906Y-2561315D02*
Y-2521945D01*
X1392222Y-2541629D02*
X1431592D01*
X1550426Y-2363535D02*
X1589796D01*
X1570110Y-2383219D02*
Y-2343849D01*
X1451850Y-680805D02*
Y-641435D01*
X1432164Y-661121D02*
X1471536D01*
X1341850Y-680803D02*
Y-641433D01*
X1322164Y-661119D02*
X1361534D01*
X1224504Y-680527D02*
Y-641157D01*
X1204818Y-660843D02*
X1244188D01*
X2011850Y-660805D02*
Y-621435D01*
X1992166Y-641119D02*
X2031536D01*
X1921850Y-660805D02*
Y-621435D01*
X1902166Y-641119D02*
X1941536D01*
X1671614Y-443796D02*
Y-404426D01*
X1651928Y-424112D02*
X1691298D01*
X1742166Y-2742063D02*
X1781536D01*
X1761850Y-2761749D02*
Y-2722379D01*
X2127906Y-2248315D02*
Y-2208945D01*
X2108220Y-2228629D02*
X2147590D01*
X1242166Y-2832063D02*
X1281536D01*
X1261850Y-2851747D02*
Y-2812377D01*
X668678Y-2825685D02*
X708048D01*
X688362Y-2845369D02*
Y-2805999D01*
X1752063Y-543717D02*
X1862299D01*
X1752063Y-701197D02*
X1862299D01*
X1752063D02*
Y-543717D01*
X1862299Y-701197D02*
Y-543717D01*
X1807181Y-642143D02*
Y-602773D01*
X1787495Y-622457D02*
X1826865D01*
X1541850Y-670803D02*
Y-631433D01*
X1522164Y-651119D02*
X1561534D01*
X1382164Y-811121D02*
X1421536D01*
X1401850Y-830805D02*
Y-791435D01*
X1637912Y-629703D02*
X1677282D01*
X1657598Y-649387D02*
Y-610017D01*
X1301850Y-341749D02*
Y-302379D01*
X1282166Y-322063D02*
X1321536D01*
X1220566Y-1062418D02*
X1259937D01*
X1240253Y-1082103D02*
Y-1042734D01*
X1902166Y-1092063D02*
X1941536D01*
X1921850Y-1111749D02*
Y-1072379D01*
X1313165Y-492064D02*
X1352537D01*
X1332851Y-511750D02*
Y-472378D01*
X562850Y-2651747D02*
Y-2612377D01*
X543164Y-2632063D02*
X582534D01*
X316220Y-2077629D02*
X355590D01*
X335906Y-2097315D02*
Y-2057945D01*
X502851Y-2001748D02*
Y-1962379D01*
X483165Y-1982063D02*
X522535D01*
X258164Y-2247063D02*
X297534D01*
X277850Y-2266749D02*
Y-2227379D01*
X372402Y-2494976D02*
X411772D01*
X392087Y-2514661D02*
Y-2475291D01*
X360961Y-553638D02*
Y-514268D01*
X341276Y-533953D02*
X380646D01*
X460961Y-553638D02*
Y-514268D01*
X441276Y-533953D02*
X480646D01*
X858165Y-1317063D02*
X897535D01*
X877850Y-1336748D02*
Y-1297378D01*
D81*
X1712218Y-2230961D02*
Y-2093165D01*
X1633478Y-2230961D02*
Y-2093165D01*
Y-2230961D02*
X1712218D01*
X1633478Y-2093165D02*
X1712218D01*
X1819274Y-2459527D02*
Y-2321731D01*
X1740534Y-2459527D02*
Y-2321731D01*
Y-2459527D02*
X1819274D01*
X1740534Y-2321731D02*
X1819274D01*
X1333166Y-2486511D02*
X1490646D01*
X1333166Y-2596747D02*
X1490646D01*
Y-2486511D01*
X1333166Y-2596747D02*
Y-2486511D01*
X1735464Y-2483613D02*
Y-2243457D01*
X1404756Y-2483613D02*
Y-2243457D01*
X1735464D01*
X1404756Y-2483613D02*
X1735464D01*
X1414448Y-739861D02*
X1489252D01*
X1414448Y-582379D02*
X1489252D01*
Y-739861D02*
Y-582379D01*
X1414448Y-739861D02*
Y-582379D01*
X1278858Y-753639D02*
X1404842D01*
X1278858Y-568599D02*
X1404842D01*
Y-753639D02*
Y-568599D01*
X1278858Y-753639D02*
Y-568599D01*
X1179228Y-753363D02*
X1269780D01*
X1179228Y-568323D02*
X1269780D01*
Y-753363D02*
Y-568323D01*
X1179228Y-753363D02*
Y-568323D01*
X1972480Y-710017D02*
X2051220D01*
X1972480Y-572221D02*
X2051220D01*
Y-710017D02*
Y-572221D01*
X1972480Y-710017D02*
Y-572221D01*
X1870670Y-727733D02*
X1973032D01*
X1870670Y-554505D02*
X1973032D01*
Y-727733D02*
Y-554505D01*
X1870670Y-727733D02*
Y-554505D01*
X1632244Y-355214D02*
X1710984D01*
X1632244Y-493008D02*
X1710984D01*
X1632244D02*
Y-355214D01*
X1710984Y-493008D02*
Y-355214D01*
X1673268Y-2877891D02*
Y-2606237D01*
X1850434Y-2877891D02*
Y-2606237D01*
X1673268D02*
X1850434D01*
X1673268Y-2877891D02*
X1850434D01*
X2039322Y-2092803D02*
X2216488D01*
X2039322Y-2364457D02*
X2216488D01*
X2039322D02*
Y-2092803D01*
X2216488Y-2364457D02*
Y-2092803D01*
X1126024Y-2920645D02*
Y-2743481D01*
X1397678Y-2920645D02*
Y-2743481D01*
X1126024Y-2920645D02*
X1397678D01*
X1126024Y-2743481D02*
X1397678D01*
X552536Y-2914267D02*
Y-2737101D01*
X824188Y-2914267D02*
Y-2737101D01*
X552536Y-2914267D02*
X824188D01*
X552536Y-2737101D02*
X824188D01*
X1492638Y-564503D02*
X1591062D01*
X1492638Y-737733D02*
X1591062D01*
X1492638D02*
Y-564503D01*
X1591062Y-737733D02*
Y-564503D01*
X1488464Y-860333D02*
Y-761907D01*
X1315236Y-860333D02*
Y-761907D01*
X1488464D01*
X1315236Y-860333D02*
X1488464D01*
X1590668Y-712379D02*
Y-547025D01*
X1724528Y-712379D02*
Y-547025D01*
X1590668D02*
X1724528D01*
X1590668Y-712379D02*
X1724528D01*
X327410Y-1974377D02*
Y-1942881D01*
X390402Y-1974377D02*
Y-1942881D01*
X327410Y-1974377D02*
X390402D01*
X327410Y-1942881D02*
X390402D01*
X348078Y-1958629D02*
X369732D01*
X358906Y-1969457D02*
Y-1947803D01*
X1028638Y-1705528D02*
Y-1485055D01*
X-103252D02*
X1028638D01*
X-103252Y-1705528D02*
X1028638D01*
X-103252D02*
Y-1485055D01*
X1246732Y-353559D02*
X1356968D01*
X1246732Y-290567D02*
X1356968D01*
Y-353559D02*
Y-290567D01*
X1246732Y-353559D02*
Y-290567D01*
X1318993Y-1117535D02*
Y-1007299D01*
X1161513Y-1117535D02*
Y-1007299D01*
Y-1117535D02*
X1318993D01*
X1161513Y-1007299D02*
X1318993D01*
X1852954Y-1131433D02*
Y-1052693D01*
X1990748Y-1131433D02*
Y-1052693D01*
X1852954D02*
X1990748D01*
X1852954Y-1131433D02*
X1990748D01*
X1382063Y-578678D02*
Y-405450D01*
X1283639Y-578678D02*
Y-405450D01*
X1382063D01*
X1283639Y-578678D02*
X1382063D01*
X517574Y-2539543D02*
X608126D01*
X517574Y-2724583D02*
X608126D01*
X517574D02*
Y-2539543D01*
X608126Y-2724583D02*
Y-2539543D01*
X255196Y-2178023D02*
Y-1977235D01*
X416614Y-2178023D02*
Y-1977235D01*
X255196D02*
X416614D01*
X255196Y-2178023D02*
X416614D01*
X433953Y-1942693D02*
X571748D01*
X433953Y-2021434D02*
X571748D01*
Y-1942693D01*
X433953Y-2021434D02*
Y-1942693D01*
X185330Y-2292339D02*
Y-2201787D01*
X370370Y-2292339D02*
Y-2201787D01*
X185330Y-2292339D02*
X370370D01*
X185330Y-2201787D02*
X370370D01*
X500354Y-2640646D02*
Y-2349307D01*
X283819Y-2640646D02*
Y-2349307D01*
Y-2640646D02*
X500354D01*
X283819Y-2349307D02*
X500354D01*
X323559Y-602851D02*
X398362D01*
X323559Y-465055D02*
X398362D01*
Y-602851D02*
Y-465055D01*
X323559Y-602851D02*
Y-465055D01*
X423559Y-602851D02*
X498362D01*
X423559Y-465055D02*
X498362D01*
Y-602851D02*
Y-465055D01*
X423559Y-602851D02*
Y-465055D01*
X252024Y-772063D02*
X273676D01*
X262850Y-782889D02*
Y-761237D01*
X247102Y-803559D02*
Y-740567D01*
X278598Y-803559D02*
Y-740567D01*
X247102D02*
X278598D01*
X247102Y-803559D02*
X278598D01*
X696748Y-1435174D02*
Y-1198953D01*
X1058953Y-1435174D02*
Y-1198953D01*
X696748D02*
X1058953D01*
X696748Y-1435174D02*
X1058953D01*
X1789173Y-1340000D02*
X1810827D01*
X1800000Y-1350827D02*
Y-1329173D01*
X1784252Y-1371496D02*
Y-1308504D01*
X1815748Y-1371496D02*
Y-1308504D01*
X1784252D02*
X1815748D01*
X1784252Y-1371496D02*
X1815748D01*
X1789173Y-1490000D02*
X1810827D01*
X1800000Y-1500827D02*
Y-1479173D01*
X1784252Y-1521496D02*
Y-1458504D01*
X1815748Y-1521496D02*
Y-1458504D01*
X1784252D02*
X1815748D01*
X1784252Y-1521496D02*
X1815748D01*
%TF.MD5,f2151dfdde362f1a7254dc7f2f7f3317*%
M02*
