G04 Layer_Color=2752767*
%FSLAX26Y26*%
%MOIN*%
%TF.FileFunction,Drawing*%
%TF.Part,Single*%
G01*
G75*
%TA.AperFunction,NonConductor*%
%ADD98C,0.005000*%
%ADD99C,0.006667*%
D98*
X2182850Y-992063D02*
Y-952063D01*
X2222850D01*
Y-992063D01*
X2182850D01*
Y-1092063D02*
Y-1052063D01*
X2222850D01*
Y-1092063D01*
X2182850D01*
Y-1192063D02*
Y-1152063D01*
X2222850D01*
Y-1192063D01*
X2182850D01*
Y-1292063D02*
Y-1252063D01*
X2222850D01*
Y-1292063D01*
X2182850D01*
Y-1392063D02*
Y-1352063D01*
X2222850D01*
Y-1392063D01*
X2182850D01*
X2082850Y-992063D02*
Y-952063D01*
X2122850D01*
Y-992063D01*
X2082850D01*
Y-1092063D02*
Y-1052063D01*
X2122850D01*
Y-1092063D01*
X2082850D01*
Y-1192063D02*
Y-1152063D01*
X2122850D01*
Y-1192063D01*
X2082850D01*
Y-1292063D02*
Y-1252063D01*
X2122850D01*
Y-1292063D01*
X2082850D01*
Y-1392063D02*
Y-1352063D01*
X2122850D01*
Y-1392063D01*
X2082850D01*
X2182850Y-1492063D02*
Y-1452063D01*
X2222850D01*
Y-1492063D01*
X2182850D01*
Y-1592063D02*
Y-1552063D01*
X2222850D01*
Y-1592063D01*
X2182850D01*
Y-1692063D02*
Y-1652063D01*
X2222850D01*
Y-1692063D01*
X2182850D01*
X2082850Y-1492063D02*
Y-1452063D01*
X2122850D01*
Y-1492063D01*
X2082850D01*
Y-1592063D02*
Y-1552063D01*
X2122850D01*
Y-1592063D01*
X2082850D01*
Y-1692063D02*
Y-1652063D01*
X2122850D01*
Y-1692063D01*
X2082850D01*
X-67150Y-1842063D02*
Y-1802063D01*
X-27150D01*
Y-1842063D01*
X-67150D01*
Y-1942063D02*
Y-1902063D01*
X-27150D01*
Y-1942063D01*
X-67150D01*
Y-2042063D02*
Y-2002063D01*
X-27150D01*
Y-2042063D01*
X-67150D01*
Y-2142063D02*
Y-2102063D01*
X-27150D01*
Y-2142063D01*
X-67150D01*
Y-2242063D02*
Y-2202063D01*
X-27150D01*
Y-2242063D01*
X-67150D01*
X-167150Y-1842063D02*
Y-1802063D01*
X-127150D01*
Y-1842063D01*
X-167150D01*
Y-1942063D02*
Y-1902063D01*
X-127150D01*
Y-1942063D01*
X-167150D01*
Y-2042063D02*
Y-2002063D01*
X-127150D01*
Y-2042063D01*
X-167150D01*
Y-2142063D02*
Y-2102063D01*
X-127150D01*
Y-2142063D01*
X-167150D01*
Y-2242063D02*
Y-2202063D01*
X-127150D01*
Y-2242063D01*
X-167150D01*
X-67150Y-2342063D02*
Y-2302063D01*
X-27150D01*
Y-2342063D01*
X-67150D01*
Y-2442063D02*
Y-2402063D01*
X-27150D01*
Y-2442063D01*
X-67150D01*
Y-2542063D02*
Y-2502063D01*
X-27150D01*
Y-2542063D01*
X-67150D01*
X-167150Y-2342063D02*
Y-2302063D01*
X-127150D01*
Y-2342063D01*
X-167150D01*
Y-2442063D02*
Y-2402063D01*
X-127150D01*
Y-2442063D01*
X-167150D01*
Y-2542063D02*
Y-2502063D01*
X-127150D01*
Y-2542063D01*
X-167150D01*
X393662Y-877181D02*
X373662Y-837181D01*
X413662D01*
X393662Y-877181D01*
X293662D02*
X273662Y-837181D01*
X313662D01*
X293662Y-877181D01*
X193662D02*
X173662Y-837181D01*
X213662D01*
X193662Y-877181D01*
X93662D02*
X73662Y-837181D01*
X113662D01*
X93662Y-877181D01*
X493662D02*
X473662Y-837181D01*
X513662D01*
X493662Y-877181D01*
X1031850D02*
X1041850Y-867181D01*
X1051850D01*
X1041850Y-857181D01*
X1051850Y-847181D01*
X1041850D01*
X1031850Y-837181D01*
X1021850Y-847181D01*
X1011850D01*
X1021850Y-857181D01*
X1011850Y-867181D01*
X1021850D01*
X1031850Y-877181D01*
X931850D02*
X941850Y-867181D01*
X951850D01*
X941850Y-857181D01*
X951850Y-847181D01*
X941850D01*
X931850Y-837181D01*
X921850Y-847181D01*
X911850D01*
X921850Y-857181D01*
X911850Y-867181D01*
X921850D01*
X931850Y-877181D01*
X831850D02*
X841850Y-867181D01*
X851850D01*
X841850Y-857181D01*
X851850Y-847181D01*
X841850D01*
X831850Y-837181D01*
X821850Y-847181D01*
X811850D01*
X821850Y-857181D01*
X811850Y-867181D01*
X821850D01*
X831850Y-877181D01*
X731850D02*
X741850Y-867181D01*
X751850D01*
X741850Y-857181D01*
X751850Y-847181D01*
X741850D01*
X731850Y-837181D01*
X721850Y-847181D01*
X711850D01*
X721850Y-857181D01*
X711850Y-867181D01*
X721850D01*
X731850Y-877181D01*
X907850Y-2053559D02*
X917850Y-2033559D01*
X907850Y-2013559D01*
X927850Y-2023559D01*
X947850Y-2013559D01*
X937850Y-2033559D01*
X947850Y-2053559D01*
X927850Y-2043559D01*
X907850Y-2053559D01*
Y-2453559D02*
X917850Y-2433559D01*
X907850Y-2413559D01*
X927850Y-2423559D01*
X947850Y-2413559D01*
X937850Y-2433559D01*
X947850Y-2453559D01*
X927850Y-2443559D01*
X907850Y-2453559D01*
Y-2853559D02*
X917850Y-2833559D01*
X907850Y-2813559D01*
X927850Y-2823559D01*
X947850Y-2813559D01*
X937850Y-2833559D01*
X947850Y-2853559D01*
X927850Y-2843559D01*
X907850Y-2853559D01*
X107850Y-2053559D02*
X117850Y-2033559D01*
X107850Y-2013559D01*
X127850Y-2023559D01*
X147850Y-2013559D01*
X137850Y-2033559D01*
X147850Y-2053559D01*
X127850Y-2043559D01*
X107850Y-2053559D01*
Y-2553559D02*
X117850Y-2533559D01*
X107850Y-2513559D01*
X127850Y-2523559D01*
X147850Y-2513559D01*
X137850Y-2533559D01*
X147850Y-2553559D01*
X127850Y-2543559D01*
X107850Y-2553559D01*
Y-2353559D02*
X117850Y-2333559D01*
X107850Y-2313559D01*
X127850Y-2323559D01*
X147850Y-2313559D01*
X137850Y-2333559D01*
X147850Y-2353559D01*
X127850Y-2343559D01*
X107850Y-2353559D01*
X538126Y-1557063D02*
Y-1567063D01*
X558126D01*
Y-1557063D01*
X568126D01*
Y-1537063D01*
X558126D01*
Y-1527063D01*
X538126D01*
Y-1537063D01*
X528126D01*
Y-1557063D01*
X538126D01*
X-67150Y-1567063D02*
X-57150D01*
X-47150Y-1557063D01*
X-37150Y-1567063D01*
X-27150D01*
Y-1557063D01*
X-37150Y-1547063D01*
X-27150Y-1537063D01*
Y-1527063D01*
X-37150D01*
X-47150Y-1537063D01*
X-57150Y-1527063D01*
X-67150D01*
Y-1537063D01*
X-57150Y-1547063D01*
X-67150Y-1557063D01*
Y-1567063D01*
X81669D02*
X91669D01*
X101669Y-1557063D01*
X111669Y-1567063D01*
X121669D01*
Y-1557063D01*
X111669Y-1547063D01*
X121669Y-1537063D01*
Y-1527063D01*
X111669D01*
X101669Y-1537063D01*
X91669Y-1527063D01*
X81669D01*
Y-1537063D01*
X91669Y-1547063D01*
X81669Y-1557063D01*
Y-1567063D01*
X934976Y-1557063D02*
Y-1567063D01*
X954976D01*
Y-1557063D01*
X964976D01*
Y-1537063D01*
X954976D01*
Y-1527063D01*
X934976D01*
Y-1537063D01*
X924976D01*
Y-1557063D01*
X934976D01*
X736551D02*
Y-1567063D01*
X756551D01*
Y-1557063D01*
X766551D01*
Y-1537063D01*
X756551D01*
Y-1527063D01*
X736551D01*
Y-1537063D01*
X726551D01*
Y-1557063D01*
X736551D01*
X1947890Y-2851984D02*
X1957890Y-2831984D01*
X1947890Y-2811984D01*
X1967890Y-2821984D01*
X1987890Y-2811984D01*
X1977890Y-2831984D01*
X1987890Y-2851984D01*
X1967890Y-2841984D01*
X1947890Y-2851984D01*
Y-2051984D02*
X1957890Y-2031984D01*
X1947890Y-2011984D01*
X1967890Y-2021984D01*
X1987890Y-2011984D01*
X1977890Y-2031984D01*
X1987890Y-2051984D01*
X1967890Y-2041984D01*
X1947890Y-2051984D01*
X1147890Y-2551984D02*
X1157890Y-2531984D01*
X1147890Y-2511984D01*
X1167890Y-2521984D01*
X1187890Y-2511984D01*
X1177890Y-2531984D01*
X1187890Y-2551984D01*
X1167890Y-2541984D01*
X1147890Y-2551984D01*
Y-2351984D02*
X1157890Y-2331984D01*
X1147890Y-2311984D01*
X1167890Y-2321984D01*
X1187890Y-2311984D01*
X1177890Y-2331984D01*
X1187890Y-2351984D01*
X1167890Y-2341984D01*
X1147890Y-2351984D01*
Y-2051984D02*
X1157890Y-2031984D01*
X1147890Y-2011984D01*
X1167890Y-2021984D01*
X1187890Y-2011984D01*
X1177890Y-2031984D01*
X1187890Y-2051984D01*
X1167890Y-2041984D01*
X1147890Y-2051984D01*
X1947890Y-2451984D02*
X1957890Y-2431984D01*
X1947890Y-2411984D01*
X1967890Y-2421984D01*
X1987890Y-2411984D01*
X1977890Y-2431984D01*
X1987890Y-2451984D01*
X1967890Y-2441984D01*
X1947890Y-2451984D01*
X486110Y-968313D02*
X506110Y-948313D01*
X526110Y-968313D01*
X506110Y-988313D01*
X486110Y-968313D01*
X592110Y-1033630D02*
X612110Y-1013630D01*
X632110Y-1033630D01*
X612110Y-1053630D01*
X592110Y-1033630D01*
X1500350Y-969563D02*
X1520350Y-949563D01*
X1540350Y-969563D01*
X1520350Y-989563D01*
X1500350Y-969563D01*
X1257850Y-1312063D02*
X1277850Y-1292063D01*
X1297850Y-1312063D01*
X1277850Y-1332063D01*
X1257850Y-1312063D01*
X1405961Y-1033953D02*
X1425961Y-1013953D01*
X1445961Y-1033953D01*
X1425961Y-1053953D01*
X1405961Y-1033953D01*
X441850Y-672063D02*
X461850Y-652063D01*
X481850Y-672063D01*
X461850Y-692063D01*
X441850Y-672063D01*
X341850D02*
X361850Y-652063D01*
X381850Y-672063D01*
X361850Y-692063D01*
X341850Y-672063D01*
X1780000Y-1410000D02*
X1800000Y-1390000D01*
X1820000Y-1410000D01*
X1800000Y-1430000D01*
X1780000Y-1410000D01*
X1730000Y-1320000D02*
X1750000Y-1300000D01*
X1770000Y-1320000D01*
X1750000Y-1340000D01*
X1730000Y-1320000D01*
D99*
X4811394Y-7871203D02*
G03*
X4811394Y-7871203I-20000J0D01*
G01*
X-127150Y-2872063D02*
G03*
X-127150Y-2872063I-20000J0D01*
G01*
X2222850D02*
G03*
X2222850Y-2872063I-20000J0D01*
G01*
X-127150Y-522063D02*
G03*
X-127150Y-522063I-20000J0D01*
G01*
X2222850D02*
G03*
X2222850Y-522063I-20000J0D01*
G01*
%TF.MD5,c15d34483fd6b22cad1ed328fd8b0155*%
M02*
