G04 Layer_Color=16711935*
%FSLAX26Y26*%
%MOIN*%
%TF.FileFunction,Other,Mechanical_1*%
%TF.Part,Single*%
G01*
G75*
%TA.AperFunction,NonConductor*%
%ADD46C,0.010000*%
%ADD82C,0.006000*%
D46*
X2246378Y-1672063D02*
X2512850D01*
X2315276Y-2872063D02*
X2512850D01*
X2502850Y-2112115D02*
Y-1672063D01*
Y-2872063D02*
Y-2464012D01*
X2482850Y-1732063D02*
X2502850Y-1672063D01*
X2522850Y-1732063D01*
X2502850Y-2872063D02*
X2522850Y-2812063D01*
X2482850D02*
X2502850Y-2872063D01*
X-437150Y-2522063D02*
X-190677D01*
X-437150Y-2872063D02*
X-259575D01*
X-427150Y-2697063D02*
Y-2522063D01*
Y-2872063D02*
Y-2697063D01*
X-447150Y-2582063D02*
X-427150Y-2522063D01*
X-407150Y-2582063D01*
X-427150Y-2872063D02*
X-407150Y-2812063D01*
X-447150D02*
X-427150Y-2872063D01*
X2315276Y-522063D02*
X2719016D01*
X2315276Y-2872063D02*
X2719016D01*
X2709016Y-1502127D02*
Y-522063D01*
Y-2872063D02*
Y-1924000D01*
X2689016Y-582063D02*
X2709016Y-522063D01*
X2729016Y-582063D01*
X2709016Y-2872063D02*
X2729016Y-2812063D01*
X2689016D02*
X2709016Y-2872063D01*
X2202850Y-3432063D02*
Y-2984489D01*
X-147150Y-3432063D02*
Y-2984489D01*
X1222787Y-3422063D02*
X2202850D01*
X-147150D02*
X800913D01*
X2142850Y-3402063D02*
X2202850Y-3422063D01*
X2142850Y-3442063D02*
X2202850Y-3422063D01*
X-147150D02*
X-87150Y-3442063D01*
X-147150Y-3422063D02*
X-87150Y-3402063D01*
X-297150Y-3150646D02*
Y-3022063D01*
X-147150Y-3150646D02*
Y-2984489D01*
Y-3140646D02*
X-47150D01*
X-397150D02*
X-297150D01*
X-147150D02*
X-87150Y-3160646D01*
X-147150Y-3140646D02*
X-87150Y-3120646D01*
X-357150D02*
X-297150Y-3140646D01*
X-357150Y-3160646D02*
X-297150Y-3140646D01*
X-745260Y-266158D02*
X-297150D01*
X-745260Y-3022063D02*
X-297150D01*
X-735260Y-1509154D02*
Y-266158D01*
Y-3022063D02*
Y-1811067D01*
X-755260Y-326158D02*
X-735260Y-266158D01*
X-715260Y-326158D01*
X-735260Y-3022063D02*
X-715260Y-2962063D01*
X-755260D02*
X-735260Y-3022063D01*
X2340906Y-3662063D02*
Y-3061905D01*
X-297150Y-3662063D02*
Y-3022063D01*
X1216815Y-3652063D02*
X2340906D01*
X-297150D02*
X794941D01*
X2280906Y-3632063D02*
X2340906Y-3652063D01*
X2280906Y-3672063D02*
X2340906Y-3652063D01*
X-297150D02*
X-237150Y-3672063D01*
X-297150Y-3652063D02*
X-237150Y-3632063D01*
D82*
X2538841Y-2448012D02*
Y-2428018D01*
Y-2438015D01*
X2478860D01*
X2488857Y-2448012D01*
X2538841Y-2358041D02*
Y-2398028D01*
X2498854Y-2358041D01*
X2488857D01*
X2478860Y-2368038D01*
Y-2388031D01*
X2488857Y-2398028D01*
Y-2338047D02*
X2478860Y-2328050D01*
Y-2308057D01*
X2488857Y-2298060D01*
X2528844D01*
X2538841Y-2308057D01*
Y-2328050D01*
X2528844Y-2338047D01*
X2488857D01*
Y-2278067D02*
X2478860Y-2268070D01*
Y-2248076D01*
X2488857Y-2238080D01*
X2528844D01*
X2538841Y-2248076D01*
Y-2268070D01*
X2528844Y-2278067D01*
X2488857D01*
X2538841Y-2218086D02*
X2528844D01*
Y-2208089D01*
X2538841D01*
Y-2218086D01*
X2488857Y-2168102D02*
X2478860Y-2158106D01*
Y-2138112D01*
X2488857Y-2128115D01*
X2528844D01*
X2538841Y-2138112D01*
Y-2158106D01*
X2528844Y-2168102D01*
X2488857D01*
X-562133Y-2827063D02*
X-572130Y-2817067D01*
Y-2797073D01*
X-562133Y-2787076D01*
X-552137D01*
X-542140Y-2797073D01*
Y-2807070D01*
Y-2797073D01*
X-532143Y-2787076D01*
X-522146D01*
X-512150Y-2797073D01*
Y-2817067D01*
X-522146Y-2827063D01*
X-572130Y-2727096D02*
Y-2767083D01*
X-542140D01*
X-552137Y-2747089D01*
Y-2737093D01*
X-542140Y-2727096D01*
X-522146D01*
X-512150Y-2737093D01*
Y-2757086D01*
X-522146Y-2767083D01*
X-562133Y-2707102D02*
X-572130Y-2697105D01*
Y-2677112D01*
X-562133Y-2667115D01*
X-522146D01*
X-512150Y-2677112D01*
Y-2697105D01*
X-522146Y-2707102D01*
X-562133D01*
X-512150Y-2647122D02*
X-522146D01*
Y-2637125D01*
X-512150D01*
Y-2647122D01*
X-562133Y-2597138D02*
X-572130Y-2587141D01*
Y-2567148D01*
X-562133Y-2557151D01*
X-522146D01*
X-512150Y-2567148D01*
Y-2587141D01*
X-522146Y-2597138D01*
X-562133D01*
X2745006Y-1868013D02*
Y-1908000D01*
X2705019Y-1868013D01*
X2695022D01*
X2685026Y-1878010D01*
Y-1898004D01*
X2695022Y-1908000D01*
Y-1848020D02*
X2685026Y-1838023D01*
Y-1818030D01*
X2695022Y-1808033D01*
X2705019D01*
X2715016Y-1818030D01*
Y-1828026D01*
Y-1818030D01*
X2725013Y-1808033D01*
X2735009D01*
X2745006Y-1818030D01*
Y-1838023D01*
X2735009Y-1848020D01*
X2685026Y-1748052D02*
Y-1788039D01*
X2715016D01*
X2705019Y-1768046D01*
Y-1758049D01*
X2715016Y-1748052D01*
X2735009D01*
X2745006Y-1758049D01*
Y-1778042D01*
X2735009Y-1788039D01*
X2695022Y-1728059D02*
X2685026Y-1718062D01*
Y-1698068D01*
X2695022Y-1688072D01*
X2735009D01*
X2745006Y-1698068D01*
Y-1718062D01*
X2735009Y-1728059D01*
X2695022D01*
X2745006Y-1668078D02*
X2735009D01*
Y-1658081D01*
X2745006D01*
Y-1668078D01*
X2695022Y-1618094D02*
X2685026Y-1608097D01*
Y-1588104D01*
X2695022Y-1578107D01*
X2735009D01*
X2745006Y-1588104D01*
Y-1608097D01*
X2735009Y-1618094D01*
X2695022D01*
Y-1558114D02*
X2685026Y-1548117D01*
Y-1528123D01*
X2695022Y-1518127D01*
X2735009D01*
X2745006Y-1528123D01*
Y-1548117D01*
X2735009Y-1558114D01*
X2695022D01*
X856900Y-3458054D02*
X816913D01*
X856900Y-3418067D01*
Y-3408070D01*
X846904Y-3398073D01*
X826910D01*
X816913Y-3408070D01*
X876894D02*
X886891Y-3398073D01*
X906884D01*
X916881Y-3408070D01*
Y-3418067D01*
X906884Y-3428063D01*
X896888D01*
X906884D01*
X916881Y-3438060D01*
Y-3448057D01*
X906884Y-3458054D01*
X886891D01*
X876894Y-3448057D01*
X976862Y-3398073D02*
X936875D01*
Y-3428063D01*
X956868Y-3418067D01*
X966865D01*
X976862Y-3428063D01*
Y-3448057D01*
X966865Y-3458054D01*
X946871D01*
X936875Y-3448057D01*
X996855Y-3408070D02*
X1006852Y-3398073D01*
X1026845D01*
X1036842Y-3408070D01*
Y-3448057D01*
X1026845Y-3458054D01*
X1006852D01*
X996855Y-3448057D01*
Y-3408070D01*
X1056836Y-3458054D02*
Y-3448057D01*
X1066833D01*
Y-3458054D01*
X1056836D01*
X1106820Y-3408070D02*
X1116816Y-3398073D01*
X1136810D01*
X1146807Y-3408070D01*
Y-3448057D01*
X1136810Y-3458054D01*
X1116816D01*
X1106820Y-3448057D01*
Y-3408070D01*
X1166800D02*
X1176797Y-3398073D01*
X1196791D01*
X1206787Y-3408070D01*
Y-3448057D01*
X1196791Y-3458054D01*
X1176797D01*
X1166800Y-3448057D01*
Y-3408070D01*
X-4484Y-3166497D02*
X15509D01*
X5513D01*
Y-3106516D01*
X-4484Y-3116513D01*
X85487Y-3106516D02*
X45499D01*
Y-3136506D01*
X65493Y-3126510D01*
X75490D01*
X85487Y-3136506D01*
Y-3156500D01*
X75490Y-3166497D01*
X55496D01*
X45499Y-3156500D01*
X105480Y-3116513D02*
X115477Y-3106516D01*
X135470D01*
X145467Y-3116513D01*
Y-3156500D01*
X135470Y-3166497D01*
X115477D01*
X105480Y-3156500D01*
Y-3116513D01*
X165461Y-3166497D02*
Y-3156500D01*
X175458D01*
Y-3166497D01*
X165461D01*
X215445Y-3116513D02*
X225441Y-3106516D01*
X245435D01*
X255432Y-3116513D01*
Y-3156500D01*
X245435Y-3166497D01*
X225441D01*
X215445Y-3156500D01*
Y-3116513D01*
X275425D02*
X285422Y-3106516D01*
X305415D01*
X315412Y-3116513D01*
Y-3156500D01*
X305415Y-3166497D01*
X285422D01*
X275425Y-3156500D01*
Y-3116513D01*
X-759250Y-1795067D02*
Y-1755080D01*
X-749253D01*
X-709266Y-1795067D01*
X-699269D01*
X-749253Y-1735086D02*
X-759250Y-1725090D01*
Y-1705096D01*
X-749253Y-1695099D01*
X-709266D01*
X-699269Y-1705096D01*
Y-1725090D01*
X-709266Y-1735086D01*
X-749253D01*
X-699269Y-1675106D02*
X-709266D01*
Y-1665109D01*
X-699269D01*
Y-1675106D01*
X-749253Y-1625122D02*
X-759250Y-1615125D01*
Y-1595132D01*
X-749253Y-1585135D01*
X-709266D01*
X-699269Y-1595132D01*
Y-1615125D01*
X-709266Y-1625122D01*
X-749253D01*
Y-1565141D02*
X-759250Y-1555145D01*
Y-1535151D01*
X-749253Y-1525154D01*
X-709266D01*
X-699269Y-1535151D01*
Y-1555145D01*
X-709266Y-1565141D01*
X-749253D01*
X850928Y-3688054D02*
X810941D01*
X850928Y-3648067D01*
Y-3638070D01*
X840931Y-3628073D01*
X820938D01*
X810941Y-3638070D01*
X910909Y-3628073D02*
X890915Y-3638070D01*
X870922Y-3658063D01*
Y-3678057D01*
X880918Y-3688054D01*
X900912D01*
X910909Y-3678057D01*
Y-3668060D01*
X900912Y-3658063D01*
X870922D01*
X930902Y-3638070D02*
X940899Y-3628073D01*
X960893D01*
X970889Y-3638070D01*
Y-3648067D01*
X960893Y-3658063D01*
X950896D01*
X960893D01*
X970889Y-3668060D01*
Y-3678057D01*
X960893Y-3688054D01*
X940899D01*
X930902Y-3678057D01*
X990883Y-3638070D02*
X1000880Y-3628073D01*
X1020873D01*
X1030870Y-3638070D01*
Y-3648067D01*
X1020873Y-3658063D01*
X1030870Y-3668060D01*
Y-3678057D01*
X1020873Y-3688054D01*
X1000880D01*
X990883Y-3678057D01*
Y-3668060D01*
X1000880Y-3658063D01*
X990883Y-3648067D01*
Y-3638070D01*
X1000880Y-3658063D02*
X1020873D01*
X1050863Y-3688054D02*
Y-3678057D01*
X1060860D01*
Y-3688054D01*
X1050863D01*
X1100847Y-3638070D02*
X1110844Y-3628073D01*
X1130838D01*
X1140834Y-3638070D01*
Y-3678057D01*
X1130838Y-3688054D01*
X1110844D01*
X1100847Y-3678057D01*
Y-3638070D01*
X1200815Y-3628073D02*
X1160828D01*
Y-3658063D01*
X1180821Y-3648067D01*
X1190818D01*
X1200815Y-3658063D01*
Y-3678057D01*
X1190818Y-3688054D01*
X1170825D01*
X1160828Y-3678057D01*
%TF.MD5,cb9babb118c8421404e869ca85a36a83*%
M02*
