G04 Layer_Physical_Order=4*
G04 Layer_Color=16711680*
%FSLAX26Y26*%
%MOIN*%
%TF.FileFunction,Copper,L4,Bot,Signal*%
%TF.Part,Single*%
G01*
G75*
%TA.AperFunction,SMDPad,CuDef*%
%ADD11R,0.033465X0.051181*%
%ADD12R,0.051181X0.033465*%
%ADD15R,0.020472X0.020472*%
%TA.AperFunction,Conductor*%
%ADD19C,0.010000*%
%ADD20C,0.019685*%
%TA.AperFunction,ComponentPad*%
%ADD22C,0.070866*%
%ADD23C,0.059055*%
%ADD24R,0.060000X0.060000*%
%ADD25R,0.047244X0.098425*%
%ADD26O,0.047244X0.098425*%
%ADD27C,0.040000*%
%ADD28C,0.039370*%
%TA.AperFunction,ViaPad*%
%ADD29C,0.050000*%
%ADD30C,0.029528*%
%TA.AperFunction,SMDPad,CuDef*%
%ADD44R,0.045276X0.057087*%
%ADD45R,0.118110X0.062992*%
%ADD46R,0.244095X0.228346*%
%ADD47R,0.020472X0.020472*%
G04:AMPARAMS|DCode=48|XSize=25.591mil|YSize=64.961mil|CornerRadius=1.919mil|HoleSize=0mil|Usage=FLASHONLY|Rotation=180.000|XOffset=0mil|YOffset=0mil|HoleType=Round|Shape=RoundedRectangle|*
%AMROUNDEDRECTD48*
21,1,0.025591,0.061122,0,0,180.0*
21,1,0.021752,0.064961,0,0,180.0*
1,1,0.003839,-0.010876,0.030561*
1,1,0.003839,0.010876,0.030561*
1,1,0.003839,0.010876,-0.030561*
1,1,0.003839,-0.010876,-0.030561*
%
%ADD48ROUNDEDRECTD48*%
G36*
X2681040Y-620D02*
X-374Y-620D01*
X-380Y7034812D01*
X2681038Y7034814D01*
X2681040Y-620D01*
D02*
G37*
%LPC*%
G36*
X254782Y3596908D02*
X247922Y3596005D01*
X236869Y3591427D01*
X227379Y3584145D01*
X220096Y3574654D01*
X215518Y3563602D01*
X214615Y3556742D01*
X254782D01*
Y3596908D01*
D02*
G37*
G36*
X264782D02*
Y3556742D01*
X304949D01*
X304046Y3563602D01*
X299467Y3574654D01*
X292185Y3584145D01*
X282694Y3591427D01*
X271642Y3596005D01*
X264782Y3596908D01*
D02*
G37*
G36*
X259782Y3693437D02*
X248990Y3692016D01*
X238934Y3687851D01*
X230299Y3681225D01*
X223673Y3672589D01*
X219507Y3662533D01*
X218087Y3651742D01*
X219507Y3640950D01*
X223673Y3630894D01*
X230299Y3622259D01*
X238934Y3615633D01*
X248990Y3611467D01*
X259782Y3610046D01*
X270573Y3611467D01*
X280630Y3615633D01*
X289265Y3622259D01*
X295891Y3630894D01*
X300056Y3640950D01*
X301477Y3651742D01*
X300056Y3662533D01*
X295891Y3672589D01*
X289265Y3681225D01*
X280630Y3687851D01*
X270573Y3692016D01*
X259782Y3693437D01*
D02*
G37*
G36*
X2221505Y2769530D02*
X2214742Y2768640D01*
X2208440Y2766029D01*
X2203029Y2761877D01*
X2198876Y2756465D01*
X2198070Y2754520D01*
X1647503D01*
X1647503Y2754520D01*
X1643248Y2753674D01*
X1639640Y2751264D01*
X1639640Y2751263D01*
X1554726Y2666349D01*
X1550954Y2667912D01*
X1543246Y2668927D01*
X1535538Y2667912D01*
X1528355Y2664936D01*
X1522187Y2660204D01*
X1517454Y2654035D01*
X1514478Y2646852D01*
X1513464Y2639144D01*
Y2587963D01*
X1514478Y2580255D01*
X1517454Y2573072D01*
X1522187Y2566904D01*
X1528355Y2562171D01*
X1535538Y2559195D01*
X1543246Y2558181D01*
X1550954Y2559195D01*
X1558137Y2562171D01*
X1564305Y2566904D01*
X1569038Y2573072D01*
X1572013Y2580255D01*
X1573028Y2587963D01*
Y2639144D01*
X1572013Y2646852D01*
X1570451Y2650624D01*
X1652108Y2732282D01*
X2198070D01*
X2198876Y2730336D01*
X2203029Y2724925D01*
X2208440Y2720773D01*
X2214742Y2718162D01*
X2221505Y2717272D01*
X2228267Y2718162D01*
X2234569Y2720773D01*
X2239981Y2724925D01*
X2244133Y2730336D01*
X2246743Y2736638D01*
X2247634Y2743401D01*
X2246743Y2750164D01*
X2244133Y2756465D01*
X2239981Y2761877D01*
X2234569Y2766029D01*
X2228267Y2768640D01*
X2221505Y2769530D01*
D02*
G37*
G36*
X254782Y3546742D02*
X214615D01*
X215518Y3539881D01*
X220096Y3528829D01*
X227379Y3519338D01*
X236869Y3512056D01*
X247922Y3507478D01*
X254782Y3506575D01*
Y3546742D01*
D02*
G37*
G36*
X304949D02*
X264782D01*
Y3506575D01*
X271642Y3507478D01*
X282694Y3512056D01*
X292185Y3519338D01*
X299467Y3528829D01*
X304046Y3539881D01*
X304949Y3546742D01*
D02*
G37*
G36*
X2092459Y3918672D02*
X1836553D01*
Y3678515D01*
X2092459D01*
Y3724387D01*
X2331924D01*
X2333909Y3719596D01*
X2340535Y3710961D01*
X2349170Y3704334D01*
X2359226Y3700169D01*
X2370018Y3698748D01*
X2380809Y3700169D01*
X2390865Y3704334D01*
X2399501Y3710961D01*
X2406127Y3719596D01*
X2410292Y3729652D01*
X2411713Y3740444D01*
X2410292Y3751235D01*
X2406127Y3761291D01*
X2399501Y3769927D01*
X2390865Y3776553D01*
X2380809Y3780718D01*
X2370018Y3782139D01*
X2359226Y3780718D01*
X2349170Y3776553D01*
X2340535Y3769927D01*
X2333909Y3761291D01*
X2331924Y3756500D01*
X2092459D01*
Y3918672D01*
D02*
G37*
G36*
X2370018Y3882139D02*
X2359226Y3880718D01*
X2349170Y3876553D01*
X2340535Y3869927D01*
X2333909Y3861291D01*
X2329743Y3851235D01*
X2328323Y3840444D01*
X2329743Y3829652D01*
X2333909Y3819596D01*
X2340535Y3810961D01*
X2349170Y3804334D01*
X2359226Y3800169D01*
X2370018Y3798748D01*
X2380809Y3800169D01*
X2390865Y3804334D01*
X2399501Y3810961D01*
X2406127Y3819596D01*
X2410292Y3829652D01*
X2411713Y3840444D01*
X2410292Y3851235D01*
X2406127Y3861291D01*
X2399501Y3869927D01*
X2390865Y3876553D01*
X2380809Y3880718D01*
X2370018Y3882139D01*
D02*
G37*
G36*
X1676042Y3883752D02*
X1611987D01*
Y3847256D01*
X1676042D01*
Y3883752D01*
D02*
G37*
G36*
X600000Y3691172D02*
X591932Y3690110D01*
X584414Y3686996D01*
X577958Y3682042D01*
X573004Y3675586D01*
X569890Y3668068D01*
X568828Y3660000D01*
X569890Y3651932D01*
X573004Y3644414D01*
X577958Y3637958D01*
X584414Y3633004D01*
X591932Y3629890D01*
X600000Y3628828D01*
X608068Y3629890D01*
X615586Y3633004D01*
X622042Y3637958D01*
X626996Y3644414D01*
X630110Y3651932D01*
X631172Y3660000D01*
X630110Y3668068D01*
X626996Y3675586D01*
X622042Y3682042D01*
X615586Y3686996D01*
X608068Y3690110D01*
X600000Y3691172D01*
D02*
G37*
G36*
X1746003Y3745837D02*
X1616081D01*
Y3671034D01*
X1746003D01*
Y3688943D01*
X1746546Y3689360D01*
X1751500Y3695816D01*
X1754614Y3703334D01*
X1755676Y3711402D01*
X1754614Y3719470D01*
X1751500Y3726988D01*
X1746546Y3733444D01*
X1746003Y3733861D01*
Y3745837D01*
D02*
G37*
G36*
X1484504Y3742574D02*
X1476436Y3741512D01*
X1468918Y3738398D01*
X1462462Y3733444D01*
X1457508Y3726988D01*
X1454394Y3719470D01*
X1453332Y3711402D01*
X1454394Y3703334D01*
X1457508Y3695816D01*
X1462462Y3689360D01*
X1468918Y3684406D01*
X1476436Y3681292D01*
X1484504Y3680229D01*
X1492572Y3681292D01*
X1500090Y3684406D01*
X1506546Y3689360D01*
X1511500Y3695816D01*
X1514614Y3703334D01*
X1515676Y3711402D01*
X1514614Y3719470D01*
X1511500Y3726988D01*
X1506546Y3733444D01*
X1500090Y3738398D01*
X1492572Y3741512D01*
X1484504Y3742574D01*
D02*
G37*
G36*
X1148246Y2672398D02*
Y2618554D01*
X1177158D01*
Y2639144D01*
X1176003Y2647921D01*
X1172615Y2656100D01*
X1167225Y2663124D01*
X1160202Y2668513D01*
X1152023Y2671901D01*
X1148246Y2672398D01*
D02*
G37*
G36*
X1343246Y2668927D02*
X1335538Y2667912D01*
X1328355Y2664936D01*
X1322187Y2660204D01*
X1317454Y2654035D01*
X1314478Y2646852D01*
X1313464Y2639144D01*
Y2587963D01*
X1314478Y2580255D01*
X1316041Y2576483D01*
X1307903Y2568345D01*
X1305493Y2564738D01*
X1304647Y2560483D01*
X1304647Y2560483D01*
Y2509391D01*
X1283853D01*
X1254365Y2538879D01*
Y2560608D01*
X1258137Y2562171D01*
X1264305Y2566904D01*
X1269038Y2573072D01*
X1272013Y2580255D01*
X1273028Y2587963D01*
Y2639144D01*
X1272013Y2646852D01*
X1269038Y2654035D01*
X1264305Y2660204D01*
X1258137Y2664936D01*
X1250954Y2667912D01*
X1243246Y2668927D01*
X1235538Y2667912D01*
X1228355Y2664936D01*
X1222187Y2660204D01*
X1217454Y2654035D01*
X1214478Y2646852D01*
X1213464Y2639144D01*
Y2587963D01*
X1214478Y2580255D01*
X1217454Y2573072D01*
X1222187Y2566904D01*
X1228355Y2562171D01*
X1232127Y2560608D01*
Y2534274D01*
X1232127Y2534274D01*
X1232973Y2530018D01*
X1235383Y2526411D01*
X1268128Y2493666D01*
Y2477108D01*
X1331908D01*
Y2509391D01*
X1326885D01*
Y2555877D01*
X1331766Y2560758D01*
X1335538Y2559195D01*
X1343246Y2558181D01*
X1350954Y2559195D01*
X1358137Y2562171D01*
X1364305Y2566904D01*
X1369038Y2573072D01*
X1372013Y2580255D01*
X1373028Y2587963D01*
Y2639144D01*
X1372013Y2646852D01*
X1369038Y2654035D01*
X1364305Y2660204D01*
X1358137Y2664936D01*
X1350954Y2667912D01*
X1343246Y2668927D01*
D02*
G37*
G36*
X1138246Y2608554D02*
X1109334D01*
Y2587963D01*
X1110489Y2579186D01*
X1113877Y2571007D01*
X1119266Y2563983D01*
X1126290Y2558594D01*
X1134469Y2555206D01*
X1138246Y2554709D01*
Y2608554D01*
D02*
G37*
G36*
X1177158D02*
X1148246D01*
Y2554709D01*
X1152023Y2555206D01*
X1160202Y2558594D01*
X1167225Y2563983D01*
X1172615Y2571007D01*
X1176003Y2579186D01*
X1177158Y2587963D01*
Y2608554D01*
D02*
G37*
G36*
X954504Y2337140D02*
X945254Y2335923D01*
X936635Y2332352D01*
X929233Y2326673D01*
X923553Y2319271D01*
X919983Y2310651D01*
X918765Y2301402D01*
X919983Y2292152D01*
X923553Y2283532D01*
X929233Y2276131D01*
X936635Y2270451D01*
X945254Y2266881D01*
X954504Y2265663D01*
X963754Y2266881D01*
X972373Y2270451D01*
X979775Y2276131D01*
X985455Y2283532D01*
X989025Y2292152D01*
X990243Y2301402D01*
X989025Y2310651D01*
X985455Y2319271D01*
X979775Y2326673D01*
X972373Y2332352D01*
X963754Y2335923D01*
X954504Y2337140D01*
D02*
G37*
G36*
X1443246Y2668927D02*
X1435538Y2667912D01*
X1428355Y2664936D01*
X1422187Y2660204D01*
X1417454Y2654035D01*
X1414478Y2646852D01*
X1413464Y2639144D01*
Y2587963D01*
X1414478Y2580255D01*
X1417454Y2573072D01*
X1422187Y2566904D01*
X1428355Y2562171D01*
X1432127Y2560608D01*
Y2502505D01*
X1411008D01*
Y2457230D01*
X1474000D01*
Y2468748D01*
X1606432D01*
X1632779Y2442402D01*
X1629983Y2435651D01*
X1628765Y2426402D01*
X1629983Y2417152D01*
X1633553Y2408532D01*
X1639233Y2401131D01*
X1646634Y2395451D01*
X1655254Y2391881D01*
X1664504Y2390663D01*
X1673754Y2391881D01*
X1682373Y2395451D01*
X1689775Y2401131D01*
X1695455Y2408532D01*
X1699025Y2417152D01*
X1700243Y2426402D01*
X1699025Y2435651D01*
X1695455Y2444271D01*
X1689775Y2451673D01*
X1682373Y2457352D01*
X1673754Y2460923D01*
X1664504Y2462140D01*
X1655254Y2460923D01*
X1648504Y2458126D01*
X1618900Y2487730D01*
X1615293Y2490140D01*
X1611038Y2490987D01*
X1611037Y2490987D01*
X1474000D01*
Y2502505D01*
X1454365D01*
Y2560608D01*
X1458137Y2562171D01*
X1464305Y2566904D01*
X1469038Y2573072D01*
X1472013Y2580255D01*
X1473028Y2587963D01*
Y2639144D01*
X1472013Y2646852D01*
X1469038Y2654035D01*
X1464305Y2660204D01*
X1458137Y2664936D01*
X1450954Y2667912D01*
X1443246Y2668927D01*
D02*
G37*
G36*
X543246D02*
X535538Y2667912D01*
X528355Y2664936D01*
X522187Y2660204D01*
X517454Y2654035D01*
X514478Y2646852D01*
X513464Y2639144D01*
Y2587963D01*
X514478Y2580255D01*
X517454Y2573072D01*
X522187Y2566904D01*
X528355Y2562171D01*
X532127Y2560608D01*
Y2537699D01*
X526041D01*
Y2468801D01*
X583127D01*
Y2537699D01*
X554365D01*
Y2560608D01*
X558137Y2562171D01*
X564305Y2566904D01*
X569038Y2573072D01*
X572013Y2580255D01*
X573028Y2587963D01*
Y2639144D01*
X572013Y2646852D01*
X569038Y2654035D01*
X564305Y2660204D01*
X558137Y2664936D01*
X550954Y2667912D01*
X543246Y2668927D01*
D02*
G37*
G36*
X1043246D02*
X1035538Y2667912D01*
X1028355Y2664936D01*
X1022187Y2660204D01*
X1017454Y2654035D01*
X1014478Y2646852D01*
X1013464Y2639144D01*
Y2587963D01*
X1014478Y2580255D01*
X1017454Y2573072D01*
X1022187Y2566904D01*
X1028355Y2562171D01*
X1035538Y2559195D01*
X1043246Y2558181D01*
X1050954Y2559195D01*
X1058137Y2562171D01*
X1064305Y2566904D01*
X1069038Y2573072D01*
X1072013Y2580255D01*
X1073028Y2587963D01*
Y2639144D01*
X1072013Y2646852D01*
X1069038Y2654035D01*
X1064305Y2660204D01*
X1058137Y2664936D01*
X1050954Y2667912D01*
X1043246Y2668927D01*
D02*
G37*
G36*
X2321505Y2669530D02*
X2314742Y2668640D01*
X2308440Y2666029D01*
X2303029Y2661877D01*
X2298876Y2656465D01*
X2296266Y2650164D01*
X2295376Y2643401D01*
X2296266Y2636638D01*
X2297072Y2634693D01*
X2230213Y2567834D01*
X2228267Y2568640D01*
X2221505Y2569530D01*
X2214742Y2568640D01*
X2208440Y2566029D01*
X2203029Y2561877D01*
X2198876Y2556465D01*
X2198070Y2554520D01*
X1852095D01*
X1850954Y2559195D01*
X1858137Y2562171D01*
X1864305Y2566904D01*
X1869038Y2573072D01*
X1872013Y2580255D01*
X1873028Y2587963D01*
Y2639144D01*
X1872013Y2646852D01*
X1869038Y2654035D01*
X1864305Y2660204D01*
X1858137Y2664936D01*
X1850954Y2667912D01*
X1843246Y2668927D01*
X1835538Y2667912D01*
X1828355Y2664936D01*
X1822187Y2660204D01*
X1817454Y2654035D01*
X1814478Y2646852D01*
X1813464Y2639144D01*
Y2587963D01*
X1814478Y2580255D01*
X1817454Y2573072D01*
X1822187Y2566904D01*
X1828355Y2562171D01*
X1835538Y2559195D01*
X1834397Y2554520D01*
X1752095D01*
X1750954Y2559195D01*
X1758137Y2562171D01*
X1764305Y2566904D01*
X1769038Y2573072D01*
X1772013Y2580255D01*
X1773028Y2587963D01*
Y2639144D01*
X1772013Y2646852D01*
X1769038Y2654035D01*
X1764305Y2660204D01*
X1758137Y2664936D01*
X1750954Y2667912D01*
X1743246Y2668927D01*
X1735538Y2667912D01*
X1728355Y2664936D01*
X1722187Y2660204D01*
X1717454Y2654035D01*
X1714478Y2646852D01*
X1713464Y2639144D01*
Y2587963D01*
X1714478Y2580255D01*
X1717454Y2573072D01*
X1722187Y2566904D01*
X1728355Y2562171D01*
X1735538Y2559195D01*
X1734397Y2554520D01*
X1692414D01*
X1670451Y2576483D01*
X1672013Y2580255D01*
X1673028Y2587963D01*
Y2639144D01*
X1672013Y2646852D01*
X1669038Y2654035D01*
X1664305Y2660204D01*
X1658137Y2664936D01*
X1650954Y2667912D01*
X1643246Y2668927D01*
X1635538Y2667912D01*
X1628355Y2664936D01*
X1622187Y2660204D01*
X1617454Y2654035D01*
X1614478Y2646852D01*
X1613464Y2639144D01*
Y2587963D01*
X1614478Y2580255D01*
X1617454Y2573072D01*
X1622187Y2566904D01*
X1628355Y2562171D01*
X1635538Y2559195D01*
X1643246Y2558181D01*
X1650954Y2559195D01*
X1654726Y2560758D01*
X1679945Y2535539D01*
X1683553Y2533128D01*
X1687808Y2532282D01*
X1687808Y2532282D01*
X2198070D01*
X2198876Y2530336D01*
X2203029Y2524925D01*
X2208440Y2520773D01*
X2214742Y2518162D01*
X2221505Y2517272D01*
X2228267Y2518162D01*
X2234569Y2520773D01*
X2239981Y2524925D01*
X2244133Y2530336D01*
X2246743Y2536638D01*
X2247634Y2543401D01*
X2246743Y2550164D01*
X2245938Y2552109D01*
X2312797Y2618968D01*
X2314742Y2618162D01*
X2321505Y2617272D01*
X2328267Y2618162D01*
X2334569Y2620773D01*
X2339981Y2624925D01*
X2344133Y2630336D01*
X2346743Y2636638D01*
X2347634Y2643401D01*
X2346743Y2650164D01*
X2344133Y2656465D01*
X2339981Y2661877D01*
X2334569Y2666029D01*
X2328267Y2668640D01*
X2321505Y2669530D01*
D02*
G37*
G36*
X1138246Y2672398D02*
X1134469Y2671901D01*
X1126290Y2668513D01*
X1119266Y2663124D01*
X1113877Y2656100D01*
X1110489Y2647921D01*
X1109334Y2639144D01*
Y2618554D01*
X1138246D01*
Y2672398D01*
D02*
G37*
G36*
X643246Y2668927D02*
X635538Y2667912D01*
X628355Y2664936D01*
X622187Y2660204D01*
X617454Y2654035D01*
X614478Y2646852D01*
X613464Y2639144D01*
Y2587963D01*
X614478Y2580255D01*
X616041Y2576483D01*
X597903Y2558345D01*
X595493Y2554738D01*
X594647Y2550483D01*
X594647Y2550483D01*
Y2503250D01*
X595493Y2498994D01*
X596907Y2496878D01*
Y2468801D01*
X653994D01*
Y2537699D01*
X616885D01*
Y2545877D01*
X631766Y2560758D01*
X635538Y2559195D01*
X643246Y2558181D01*
X650954Y2559195D01*
X658137Y2562171D01*
X664305Y2566904D01*
X669038Y2573072D01*
X672013Y2580255D01*
X673028Y2587963D01*
Y2639144D01*
X672013Y2646852D01*
X669038Y2654035D01*
X664305Y2660204D01*
X658137Y2664936D01*
X650954Y2667912D01*
X643246Y2668927D01*
D02*
G37*
G36*
X743246D02*
X735538Y2667912D01*
X728355Y2664936D01*
X722187Y2660204D01*
X717454Y2654035D01*
X714478Y2646852D01*
X713464Y2639144D01*
Y2587963D01*
X714478Y2580255D01*
X717454Y2573072D01*
X722187Y2566904D01*
X728355Y2562171D01*
X735538Y2559195D01*
X743246Y2558181D01*
X750954Y2559195D01*
X758137Y2562171D01*
X764305Y2566904D01*
X769038Y2573072D01*
X772013Y2580255D01*
X773028Y2587963D01*
Y2639144D01*
X772013Y2646852D01*
X769038Y2654035D01*
X764305Y2660204D01*
X758137Y2664936D01*
X750954Y2667912D01*
X743246Y2668927D01*
D02*
G37*
G36*
X943246D02*
X935538Y2667912D01*
X928355Y2664936D01*
X922187Y2660204D01*
X917454Y2654035D01*
X914478Y2646852D01*
X913464Y2639144D01*
Y2587963D01*
X914478Y2580255D01*
X917454Y2573072D01*
X922187Y2566904D01*
X928355Y2562171D01*
X935538Y2559195D01*
X943246Y2558181D01*
X950954Y2559195D01*
X958137Y2562171D01*
X964305Y2566904D01*
X969038Y2573072D01*
X972013Y2580255D01*
X973028Y2587963D01*
Y2639144D01*
X972013Y2646852D01*
X969038Y2654035D01*
X964305Y2660204D01*
X958137Y2664936D01*
X950954Y2667912D01*
X943246Y2668927D01*
D02*
G37*
G36*
X1750097Y3883752D02*
X1686042D01*
Y3847256D01*
X1750097D01*
Y3883752D01*
D02*
G37*
G36*
X254782Y4332568D02*
X214615D01*
X215518Y4325707D01*
X220096Y4314655D01*
X227379Y4305164D01*
X236869Y4297882D01*
X247922Y4293304D01*
X254782Y4292401D01*
Y4332568D01*
D02*
G37*
G36*
X304949D02*
X264782D01*
Y4292401D01*
X271642Y4293304D01*
X282694Y4297882D01*
X292185Y4305164D01*
X299467Y4314655D01*
X304046Y4325707D01*
X304949Y4332568D01*
D02*
G37*
G36*
X510000Y4381172D02*
X501932Y4380110D01*
X494414Y4376996D01*
X487958Y4372042D01*
X483004Y4365586D01*
X479890Y4358068D01*
X478828Y4350000D01*
X479890Y4341932D01*
X483004Y4334414D01*
X487958Y4327958D01*
X494414Y4323004D01*
X501932Y4319890D01*
X510000Y4318828D01*
X518068Y4319890D01*
X525586Y4323004D01*
X532042Y4327958D01*
X536996Y4334414D01*
X540110Y4341932D01*
X541172Y4350000D01*
X540110Y4358068D01*
X536996Y4365586D01*
X532042Y4372042D01*
X525586Y4376996D01*
X518068Y4380110D01*
X510000Y4381172D01*
D02*
G37*
G36*
X1750097Y4281664D02*
X1686042D01*
Y4245168D01*
X1750097D01*
Y4281664D01*
D02*
G37*
G36*
X1676042Y4328160D02*
X1611987D01*
Y4291664D01*
X1676042D01*
Y4328160D01*
D02*
G37*
G36*
X1750097D02*
X1686042D01*
Y4291664D01*
X1750097D01*
Y4328160D01*
D02*
G37*
G36*
X1746001Y4546151D02*
X1616079D01*
Y4471348D01*
X1746001D01*
Y4488849D01*
X1746390Y4489148D01*
X1751344Y4495604D01*
X1754458Y4503122D01*
X1755520Y4511190D01*
X1754458Y4519258D01*
X1751344Y4526776D01*
X1746390Y4533232D01*
X1746001Y4533531D01*
Y4546151D01*
D02*
G37*
G36*
X254782Y4532568D02*
X214615D01*
X215518Y4525707D01*
X220096Y4514655D01*
X227379Y4505164D01*
X236869Y4497882D01*
X247922Y4493304D01*
X254782Y4492401D01*
Y4532568D01*
D02*
G37*
G36*
X304949D02*
X264782D01*
Y4492401D01*
X271642Y4493304D01*
X282694Y4497882D01*
X292185Y4505164D01*
X299467Y4514655D01*
X304046Y4525707D01*
X304949Y4532568D01*
D02*
G37*
G36*
X254782Y4382734D02*
X247922Y4381831D01*
X236869Y4377253D01*
X227379Y4369971D01*
X220096Y4360480D01*
X215518Y4349428D01*
X214615Y4342568D01*
X254782D01*
Y4382734D01*
D02*
G37*
G36*
X264782D02*
Y4342568D01*
X304949D01*
X304046Y4349428D01*
X299467Y4360480D01*
X292185Y4369971D01*
X282694Y4377253D01*
X271642Y4381831D01*
X264782Y4382734D01*
D02*
G37*
G36*
X259782Y4479263D02*
X248990Y4477842D01*
X238934Y4473677D01*
X230299Y4467051D01*
X223673Y4458415D01*
X219507Y4448359D01*
X218087Y4437568D01*
X219507Y4426776D01*
X223673Y4416720D01*
X230299Y4408085D01*
X238934Y4401458D01*
X248990Y4397293D01*
X259782Y4395872D01*
X270573Y4397293D01*
X280630Y4401458D01*
X289265Y4408085D01*
X295891Y4416720D01*
X300056Y4426776D01*
X301477Y4437568D01*
X300056Y4448359D01*
X295891Y4458415D01*
X289265Y4467051D01*
X280630Y4473677D01*
X270573Y4477842D01*
X259782Y4479263D01*
D02*
G37*
G36*
X1676042Y4281664D02*
X1611987D01*
Y4245168D01*
X1676042D01*
Y4281664D01*
D02*
G37*
G36*
X304949Y3936506D02*
X264782D01*
Y3896339D01*
X271642Y3897242D01*
X282694Y3901820D01*
X292185Y3909102D01*
X299467Y3918593D01*
X304046Y3929645D01*
X304949Y3936506D01*
D02*
G37*
G36*
X254782Y3986672D02*
X247922Y3985769D01*
X236869Y3981191D01*
X227379Y3973909D01*
X220096Y3964418D01*
X215518Y3953366D01*
X214615Y3946506D01*
X254782D01*
Y3986672D01*
D02*
G37*
G36*
X264782D02*
Y3946506D01*
X304949D01*
X304046Y3953366D01*
X299467Y3964418D01*
X292185Y3973909D01*
X282694Y3981191D01*
X271642Y3985769D01*
X264782Y3986672D01*
D02*
G37*
G36*
X1676042Y3930248D02*
X1611987D01*
Y3893752D01*
X1676042D01*
Y3930248D01*
D02*
G37*
G36*
X1750097D02*
X1686042D01*
Y3893752D01*
X1750097D01*
Y3930248D01*
D02*
G37*
G36*
X254782Y3936506D02*
X214615D01*
X215518Y3929645D01*
X220096Y3918593D01*
X227379Y3909102D01*
X236869Y3901820D01*
X247922Y3897242D01*
X254782Y3896339D01*
Y3936506D01*
D02*
G37*
G36*
X1514504Y4142574D02*
X1506436Y4141512D01*
X1498918Y4138398D01*
X1492462Y4133444D01*
X1487508Y4126988D01*
X1484394Y4119470D01*
X1483332Y4111402D01*
X1484394Y4103334D01*
X1487508Y4095816D01*
X1492462Y4089360D01*
X1498918Y4084406D01*
X1506436Y4081292D01*
X1514504Y4080229D01*
X1522572Y4081292D01*
X1530090Y4084406D01*
X1536546Y4089360D01*
X1541500Y4095816D01*
X1544614Y4103334D01*
X1545676Y4111402D01*
X1544614Y4119470D01*
X1541500Y4126988D01*
X1536546Y4133444D01*
X1530090Y4138398D01*
X1522572Y4141512D01*
X1514504Y4142574D01*
D02*
G37*
G36*
X2092459Y4316586D02*
X1836553D01*
Y4076429D01*
X2092459D01*
Y4122301D01*
X2331924D01*
X2333909Y4117510D01*
X2340535Y4108875D01*
X2349170Y4102248D01*
X2359226Y4098083D01*
X2370018Y4096662D01*
X2380809Y4098083D01*
X2390865Y4102248D01*
X2399501Y4108875D01*
X2406127Y4117510D01*
X2410292Y4127566D01*
X2411713Y4138358D01*
X2410292Y4149149D01*
X2406127Y4159205D01*
X2399501Y4167841D01*
X2390865Y4174467D01*
X2380809Y4178632D01*
X2370018Y4180053D01*
X2359226Y4178632D01*
X2349170Y4174467D01*
X2340535Y4167841D01*
X2333909Y4159205D01*
X2331924Y4154414D01*
X2092459D01*
Y4316586D01*
D02*
G37*
G36*
X2370018Y4280053D02*
X2359226Y4278632D01*
X2349170Y4274467D01*
X2340535Y4267841D01*
X2333909Y4259205D01*
X2329743Y4249149D01*
X2328323Y4238358D01*
X2329743Y4227566D01*
X2333909Y4217510D01*
X2340535Y4208875D01*
X2349170Y4202248D01*
X2359226Y4198083D01*
X2370018Y4196662D01*
X2380809Y4198083D01*
X2390865Y4202248D01*
X2399501Y4208875D01*
X2406127Y4217510D01*
X2410292Y4227566D01*
X2411713Y4238358D01*
X2410292Y4249149D01*
X2406127Y4259205D01*
X2399501Y4267841D01*
X2390865Y4274467D01*
X2380809Y4278632D01*
X2370018Y4280053D01*
D02*
G37*
G36*
X259782Y4083201D02*
X248990Y4081780D01*
X238934Y4077615D01*
X230299Y4070989D01*
X223673Y4062353D01*
X219507Y4052297D01*
X218087Y4041506D01*
X219507Y4030714D01*
X223673Y4020658D01*
X230299Y4012023D01*
X238934Y4005396D01*
X248990Y4001231D01*
X259782Y3999810D01*
X270573Y4001231D01*
X280630Y4005396D01*
X289265Y4012023D01*
X295891Y4020658D01*
X300056Y4030714D01*
X301477Y4041506D01*
X300056Y4052297D01*
X295891Y4062353D01*
X289265Y4070989D01*
X280630Y4077615D01*
X270573Y4081780D01*
X259782Y4083201D01*
D02*
G37*
G36*
X590000Y4081172D02*
X581932Y4080110D01*
X574414Y4076996D01*
X567958Y4072042D01*
X563004Y4065586D01*
X559890Y4058068D01*
X558828Y4050000D01*
X559890Y4041932D01*
X563004Y4034414D01*
X567958Y4027958D01*
X574414Y4023004D01*
X581932Y4019890D01*
X590000Y4018828D01*
X598068Y4019890D01*
X605586Y4023004D01*
X612042Y4027958D01*
X616996Y4034414D01*
X620110Y4041932D01*
X621172Y4050000D01*
X620110Y4058068D01*
X616996Y4065586D01*
X612042Y4072042D01*
X605586Y4076996D01*
X598068Y4080110D01*
X590000Y4081172D01*
D02*
G37*
G36*
X1746003Y4143751D02*
X1616081D01*
Y4068948D01*
X1746003D01*
Y4083340D01*
X1746390Y4083637D01*
X1751344Y4090093D01*
X1754458Y4097612D01*
X1755520Y4105680D01*
X1754458Y4113748D01*
X1751344Y4121266D01*
X1746390Y4127722D01*
X1746003Y4128019D01*
Y4143751D01*
D02*
G37*
G36*
X2267504Y649519D02*
X2260741Y648628D01*
X2254439Y646018D01*
X2249028Y641866D01*
X2244876Y636454D01*
X2244070Y634509D01*
X1931497D01*
Y649173D01*
X1868505D01*
Y619622D01*
X1630461Y381578D01*
X1628051Y377971D01*
X1627205Y373716D01*
X1627205Y373715D01*
Y313153D01*
X1623433Y311590D01*
X1617265Y306858D01*
X1612532Y300689D01*
X1609556Y293506D01*
X1608542Y285798D01*
Y234617D01*
X1609556Y226909D01*
X1612532Y219726D01*
X1617265Y213558D01*
X1623433Y208825D01*
X1630616Y205850D01*
X1638324Y204835D01*
X1646032Y205850D01*
X1653215Y208825D01*
X1659383Y213558D01*
X1664116Y219726D01*
X1667091Y226909D01*
X1668106Y234617D01*
Y285798D01*
X1667091Y293506D01*
X1664116Y300689D01*
X1659383Y306858D01*
X1653215Y311590D01*
X1649443Y313153D01*
Y369110D01*
X1884230Y603897D01*
X1931497D01*
Y612270D01*
X2244070D01*
X2244876Y610325D01*
X2249028Y604914D01*
X2254439Y600761D01*
X2260741Y598151D01*
X2267504Y597261D01*
X2274267Y598151D01*
X2280568Y600761D01*
X2285980Y604914D01*
X2290132Y610325D01*
X2292743Y616627D01*
X2293633Y623390D01*
X2292743Y630152D01*
X2290132Y636454D01*
X2285980Y641866D01*
X2280568Y646018D01*
X2274267Y648628D01*
X2267504Y649519D01*
D02*
G37*
G36*
X1384504Y731716D02*
X1353913D01*
Y709983D01*
X1384504D01*
Y731716D01*
D02*
G37*
G36*
X1425094D02*
X1394504D01*
Y709983D01*
X1425094D01*
Y731716D01*
D02*
G37*
G36*
X1155894Y630569D02*
X1134142D01*
X1131089Y629961D01*
X1128501Y628232D01*
X1126771Y625644D01*
X1126164Y622591D01*
Y608521D01*
X1114350D01*
X1112500Y612988D01*
X1107546Y619444D01*
X1101090Y624398D01*
X1093572Y627512D01*
X1085504Y628574D01*
X1077436Y627512D01*
X1069918Y624398D01*
X1063462Y619444D01*
X1058508Y612988D01*
X1056089Y607147D01*
X1049740D01*
Y621150D01*
X1009268D01*
Y605913D01*
X1013362D01*
Y578512D01*
X1045646D01*
Y584908D01*
X1057227D01*
X1058508Y581816D01*
X1063462Y575360D01*
X1069918Y570406D01*
X1077436Y567292D01*
X1085504Y566229D01*
X1093572Y567292D01*
X1101090Y570406D01*
X1107546Y575360D01*
X1112500Y581816D01*
X1114350Y586282D01*
X1126164D01*
Y561469D01*
X1126771Y558415D01*
X1128501Y555827D01*
X1131089Y554098D01*
X1134142Y553490D01*
X1155894D01*
X1158947Y554098D01*
X1161535Y555827D01*
X1163265Y558415D01*
X1163872Y561469D01*
Y622591D01*
X1163265Y625644D01*
X1161535Y628232D01*
X1158947Y629961D01*
X1155894Y630569D01*
D02*
G37*
G36*
X1024504Y646386D02*
X1009268D01*
Y631150D01*
X1024504D01*
Y646386D01*
D02*
G37*
G36*
X1049740D02*
X1034504D01*
Y631150D01*
X1049740D01*
Y646386D01*
D02*
G37*
G36*
X1931496Y856102D02*
X1868504D01*
Y826552D01*
X1430461Y388509D01*
X1428051Y384902D01*
X1427205Y380647D01*
X1427205Y380646D01*
Y313153D01*
X1423433Y311590D01*
X1417265Y306858D01*
X1412532Y300689D01*
X1409556Y293506D01*
X1408542Y285798D01*
Y234617D01*
X1409556Y226909D01*
X1412532Y219726D01*
X1417265Y213558D01*
X1423433Y208825D01*
X1430616Y205850D01*
X1438324Y204835D01*
X1446032Y205850D01*
X1453215Y208825D01*
X1459383Y213558D01*
X1464116Y219726D01*
X1467091Y226909D01*
X1468106Y234617D01*
Y285798D01*
X1467091Y293506D01*
X1464116Y300689D01*
X1459383Y306858D01*
X1453215Y311590D01*
X1449443Y313153D01*
Y376041D01*
X1864160Y790758D01*
X1868504Y788031D01*
X1868504Y784647D01*
Y743898D01*
X1888881D01*
Y734509D01*
X1872180D01*
X1867925Y733662D01*
X1864318Y731252D01*
X1864318Y731252D01*
X1530461Y397396D01*
X1528051Y393788D01*
X1527205Y389533D01*
X1527205Y389533D01*
Y313153D01*
X1523433Y311590D01*
X1517265Y306858D01*
X1512532Y300689D01*
X1509556Y293506D01*
X1508542Y285798D01*
Y234617D01*
X1509556Y226909D01*
X1512532Y219726D01*
X1517265Y213558D01*
X1523433Y208825D01*
X1530616Y205850D01*
X1538324Y204835D01*
X1546032Y205850D01*
X1553215Y208825D01*
X1559383Y213558D01*
X1564116Y219726D01*
X1567091Y226909D01*
X1568106Y234617D01*
Y285798D01*
X1567091Y293506D01*
X1564116Y300689D01*
X1559383Y306858D01*
X1553215Y311590D01*
X1549443Y313153D01*
Y384927D01*
X1863886Y699370D01*
X1868505Y697457D01*
Y670827D01*
X1931497D01*
Y712270D01*
X2344070D01*
X2344876Y710325D01*
X2349028Y704914D01*
X2354439Y700761D01*
X2360741Y698151D01*
X2367504Y697261D01*
X2374267Y698151D01*
X2380568Y700761D01*
X2385980Y704914D01*
X2390132Y710325D01*
X2392743Y716627D01*
X2393633Y723390D01*
X2392743Y730152D01*
X2390132Y736454D01*
X2385980Y741866D01*
X2380568Y746018D01*
X2374267Y748628D01*
X2367504Y749519D01*
X2360741Y748628D01*
X2354439Y746018D01*
X2349028Y741866D01*
X2344876Y736454D01*
X2344070Y734509D01*
X1911119D01*
Y743898D01*
X1931496D01*
Y789173D01*
X1873358D01*
X1869647Y789173D01*
X1866919Y793517D01*
X1884229Y810827D01*
X1931496D01*
Y812270D01*
X2244070D01*
X2244876Y810325D01*
X2249028Y804914D01*
X2254439Y800761D01*
X2260741Y798151D01*
X2267504Y797261D01*
X2274267Y798151D01*
X2280568Y800761D01*
X2285980Y804914D01*
X2290132Y810325D01*
X2292743Y816627D01*
X2293633Y823390D01*
X2292743Y830152D01*
X2290132Y836454D01*
X2285980Y841866D01*
X2280568Y846018D01*
X2274267Y848628D01*
X2267504Y849519D01*
X2260741Y848628D01*
X2254439Y846018D01*
X2249028Y841866D01*
X2244876Y836454D01*
X2244070Y834509D01*
X1931496D01*
Y856102D01*
D02*
G37*
G36*
X909504Y953140D02*
X900254Y951923D01*
X891635Y948352D01*
X884233Y942673D01*
X878553Y935271D01*
X874983Y926652D01*
X873765Y917402D01*
X874983Y908152D01*
X878553Y899532D01*
X884233Y892130D01*
X891635Y886451D01*
X900254Y882881D01*
X909504Y881663D01*
X918754Y882881D01*
X927373Y886451D01*
X934775Y892130D01*
X940455Y899532D01*
X944025Y908152D01*
X945243Y917402D01*
X944025Y926652D01*
X940455Y935271D01*
X934775Y942673D01*
X927373Y948352D01*
X918754Y951923D01*
X909504Y953140D01*
D02*
G37*
G36*
X1438324Y1315581D02*
X1430616Y1314566D01*
X1423433Y1311590D01*
X1417265Y1306858D01*
X1412532Y1300689D01*
X1409556Y1293506D01*
X1408542Y1285798D01*
Y1234617D01*
X1409556Y1226909D01*
X1412532Y1219726D01*
X1417265Y1213558D01*
X1423433Y1208825D01*
X1427205Y1207262D01*
Y1146503D01*
X1407008D01*
Y1101228D01*
X1434355D01*
X1438324Y1100438D01*
X1442292Y1101228D01*
X1470000D01*
Y1112746D01*
X1528434D01*
X1586385Y1054796D01*
Y963148D01*
X1579634Y960352D01*
X1572233Y954673D01*
X1566553Y947271D01*
X1562983Y938652D01*
X1561765Y929402D01*
X1562983Y920152D01*
X1566553Y911532D01*
X1572233Y904130D01*
X1579634Y898451D01*
X1588254Y894881D01*
X1597504Y893663D01*
X1606754Y894881D01*
X1615373Y898451D01*
X1622775Y904130D01*
X1628455Y911532D01*
X1632025Y920152D01*
X1633243Y929402D01*
X1632025Y938652D01*
X1628455Y947271D01*
X1622775Y954673D01*
X1615373Y960352D01*
X1608623Y963148D01*
Y1059401D01*
X1608623Y1059402D01*
X1607777Y1063657D01*
X1605366Y1067264D01*
X1605366Y1067264D01*
X1540902Y1131728D01*
X1537295Y1134138D01*
X1533040Y1134985D01*
X1533039Y1134985D01*
X1470000D01*
Y1146503D01*
X1449443D01*
Y1207262D01*
X1453215Y1208825D01*
X1459383Y1213558D01*
X1464116Y1219726D01*
X1467091Y1226909D01*
X1468106Y1234617D01*
Y1285798D01*
X1467091Y1293506D01*
X1464116Y1300689D01*
X1459383Y1306858D01*
X1453215Y1311590D01*
X1446032Y1314566D01*
X1438324Y1315581D01*
D02*
G37*
G36*
X1147504Y949574D02*
X1139436Y948512D01*
X1131918Y945398D01*
X1125462Y940444D01*
X1120508Y933988D01*
X1117394Y926470D01*
X1116332Y918402D01*
X1117394Y910334D01*
X1120508Y902816D01*
X1125462Y896360D01*
X1131918Y891406D01*
X1135142Y890070D01*
Y853011D01*
X1134142D01*
X1131089Y852403D01*
X1128501Y850674D01*
X1126771Y848086D01*
X1126164Y845033D01*
Y783911D01*
X1126771Y780857D01*
X1128501Y778269D01*
X1131089Y776540D01*
X1134142Y775933D01*
X1155894D01*
X1158947Y776540D01*
X1161535Y778269D01*
X1163265Y780857D01*
X1163872Y783911D01*
Y803352D01*
X1176164D01*
Y783911D01*
X1176771Y780857D01*
X1178501Y778269D01*
X1181089Y776540D01*
X1184142Y775933D01*
X1203368D01*
X1205439Y770933D01*
X1187155Y752649D01*
X1184745Y749042D01*
X1183899Y744787D01*
X1183899Y744786D01*
Y737521D01*
X964504D01*
X960249Y736674D01*
X956641Y734264D01*
X936365Y713987D01*
X929373Y719352D01*
X920754Y722923D01*
X911504Y724140D01*
X902254Y722923D01*
X893635Y719352D01*
X886233Y713673D01*
X880553Y706271D01*
X876983Y697652D01*
X875765Y688402D01*
X876983Y679152D01*
X880553Y670532D01*
X886233Y663130D01*
X893635Y657451D01*
X902254Y653881D01*
X911504Y652663D01*
X920754Y653881D01*
X929373Y657451D01*
X936775Y663130D01*
X942455Y670532D01*
X946025Y679152D01*
X947243Y688402D01*
X946659Y692832D01*
X969110Y715282D01*
X1183899D01*
Y630520D01*
X1181089Y629961D01*
X1178501Y628232D01*
X1176771Y625644D01*
X1176164Y622591D01*
Y561469D01*
X1176771Y558415D01*
X1178501Y555827D01*
X1180653Y554389D01*
Y514898D01*
X1157402D01*
Y451906D01*
X1202678D01*
Y494059D01*
X1202891Y495134D01*
X1202891Y495134D01*
Y553490D01*
X1205894D01*
X1208947Y554098D01*
X1211535Y555827D01*
X1213265Y558415D01*
X1213872Y561469D01*
Y622591D01*
X1213265Y625644D01*
X1211535Y628232D01*
X1208947Y629961D01*
X1206137Y630520D01*
Y726402D01*
Y740181D01*
X1241889Y775933D01*
X1255894D01*
X1258947Y776540D01*
X1261535Y778269D01*
X1263265Y780857D01*
X1263872Y783911D01*
Y845033D01*
X1263265Y848086D01*
X1261535Y850674D01*
X1258947Y852403D01*
X1255894Y853011D01*
X1234142D01*
X1231089Y852403D01*
X1228501Y850674D01*
X1226771Y848086D01*
X1226164Y845033D01*
Y791657D01*
X1218872Y784366D01*
X1213872Y786437D01*
Y845033D01*
X1213265Y848086D01*
X1211535Y850674D01*
X1208947Y852403D01*
X1205894Y853011D01*
X1184142D01*
X1181089Y852403D01*
X1178501Y850674D01*
X1176771Y848086D01*
X1176164Y845033D01*
Y825591D01*
X1163872D01*
Y845033D01*
X1163265Y848086D01*
X1161535Y850674D01*
X1158947Y852403D01*
X1157380Y852715D01*
Y889041D01*
X1163090Y891406D01*
X1169546Y896360D01*
X1174500Y902816D01*
X1177614Y910334D01*
X1178676Y918402D01*
X1177614Y926470D01*
X1174500Y933988D01*
X1169546Y940444D01*
X1163090Y945398D01*
X1155572Y948512D01*
X1147504Y949574D01*
D02*
G37*
G36*
X1384504Y763448D02*
X1353913D01*
Y741716D01*
X1384504D01*
Y763448D01*
D02*
G37*
G36*
X1425094D02*
X1394504D01*
Y741716D01*
X1425094D01*
Y763448D01*
D02*
G37*
G36*
X1389504Y697055D02*
X1385249Y696208D01*
X1381641Y693798D01*
X1380723Y692423D01*
X1358008D01*
Y647148D01*
X1378385D01*
Y629503D01*
X1358008D01*
Y606253D01*
X1313872D01*
Y622591D01*
X1313265Y625644D01*
X1311535Y628232D01*
X1308947Y629961D01*
X1305894Y630569D01*
X1284142D01*
X1281089Y629961D01*
X1278501Y628232D01*
X1276771Y625644D01*
X1276164Y622591D01*
Y561469D01*
X1276771Y558415D01*
X1278501Y555827D01*
X1281089Y554098D01*
X1284142Y553490D01*
X1305894D01*
X1308947Y554098D01*
X1311535Y555827D01*
X1313265Y558415D01*
X1313872Y561469D01*
Y584014D01*
X1377771D01*
X1377772Y584014D01*
X1378846Y584228D01*
X1421000D01*
Y629503D01*
X1400623D01*
Y647148D01*
X1421000D01*
Y692423D01*
X1398285D01*
X1397366Y693798D01*
X1393759Y696208D01*
X1389504Y697055D01*
D02*
G37*
G36*
X838324Y315580D02*
X830616Y314566D01*
X823433Y311590D01*
X817265Y306858D01*
X812532Y300689D01*
X809556Y293506D01*
X808542Y285798D01*
Y234617D01*
X809556Y226909D01*
X812532Y219726D01*
X817265Y213558D01*
X823433Y208825D01*
X830616Y205850D01*
X838324Y204835D01*
X846032Y205850D01*
X853215Y208825D01*
X859383Y213558D01*
X864116Y219726D01*
X867091Y226909D01*
X868106Y234617D01*
Y285798D01*
X867091Y293506D01*
X864116Y300689D01*
X859383Y306858D01*
X853215Y311590D01*
X846032Y314566D01*
X838324Y315580D01*
D02*
G37*
G36*
X1138324D02*
X1130616Y314566D01*
X1123433Y311590D01*
X1117265Y306858D01*
X1112532Y300689D01*
X1109556Y293506D01*
X1108542Y285798D01*
Y234617D01*
X1109556Y226909D01*
X1112532Y219726D01*
X1117265Y213558D01*
X1123433Y208825D01*
X1130616Y205850D01*
X1138324Y204835D01*
X1146032Y205850D01*
X1153215Y208825D01*
X1159383Y213558D01*
X1164116Y219726D01*
X1167091Y226909D01*
X1168106Y234617D01*
Y285798D01*
X1167091Y293506D01*
X1164116Y300689D01*
X1159383Y306858D01*
X1153215Y311590D01*
X1146032Y314566D01*
X1138324Y315580D01*
D02*
G37*
G36*
X1238324D02*
X1230616Y314566D01*
X1223433Y311590D01*
X1217265Y306858D01*
X1212532Y300689D01*
X1209556Y293506D01*
X1208542Y285798D01*
Y234617D01*
X1209556Y226909D01*
X1212532Y219726D01*
X1217265Y213558D01*
X1223433Y208825D01*
X1230616Y205850D01*
X1238324Y204835D01*
X1246032Y205850D01*
X1253215Y208825D01*
X1259383Y213558D01*
X1264116Y219726D01*
X1267091Y226909D01*
X1268106Y234617D01*
Y285798D01*
X1267091Y293506D01*
X1264116Y300689D01*
X1259383Y306858D01*
X1253215Y311590D01*
X1246032Y314566D01*
X1238324Y315580D01*
D02*
G37*
G36*
X938324D02*
X930616Y314566D01*
X923433Y311590D01*
X917265Y306858D01*
X912532Y300689D01*
X909556Y293506D01*
X908542Y285798D01*
Y234617D01*
X909556Y226909D01*
X912532Y219726D01*
X917265Y213558D01*
X923433Y208825D01*
X927205Y207262D01*
Y171496D01*
X913898D01*
Y108504D01*
X959173D01*
Y171496D01*
X949443D01*
Y207262D01*
X953215Y208825D01*
X959383Y213558D01*
X964116Y219726D01*
X967091Y226909D01*
X968106Y234617D01*
Y285798D01*
X967091Y293506D01*
X964116Y300689D01*
X959383Y306858D01*
X953215Y311590D01*
X946032Y314566D01*
X938324Y315580D01*
D02*
G37*
G36*
X2267504Y333531D02*
X2260741Y332640D01*
X2254439Y330030D01*
X2249028Y325878D01*
X2244876Y320466D01*
X2244070Y318521D01*
X2132797D01*
X2128541Y317674D01*
X2124934Y315264D01*
X2124934Y315264D01*
X2055772Y246102D01*
X2008505D01*
Y216551D01*
X1974474Y182521D01*
X1078110D01*
X1055875Y204755D01*
X1056419Y211283D01*
X1059383Y213558D01*
X1064116Y219726D01*
X1067091Y226909D01*
X1068106Y234617D01*
Y285798D01*
X1067091Y293506D01*
X1064116Y300689D01*
X1059383Y306858D01*
X1053215Y311590D01*
X1046032Y314566D01*
X1038324Y315580D01*
X1030616Y314566D01*
X1023433Y311590D01*
X1017265Y306858D01*
X1012532Y300689D01*
X1009556Y293506D01*
X1008542Y285798D01*
Y234617D01*
X1009556Y226909D01*
X1012532Y219726D01*
X1017265Y213558D01*
X1023433Y208825D01*
X1027205Y207262D01*
Y206582D01*
X1027205Y206582D01*
X1028051Y202326D01*
X1030461Y198719D01*
X1065641Y163539D01*
X1065641Y163539D01*
X1069249Y161129D01*
X1073504Y160282D01*
X1979080D01*
X1979080Y160282D01*
X1983335Y161129D01*
X1986943Y163539D01*
X2004160Y180757D01*
X2008505Y178030D01*
X2008505Y174648D01*
Y149623D01*
X1962402Y103521D01*
X1053110D01*
X1026102Y130528D01*
Y171496D01*
X980827D01*
Y108504D01*
X1016677D01*
X1040641Y84539D01*
X1040641Y84539D01*
X1044249Y82129D01*
X1048504Y81282D01*
X1967008D01*
X1967008Y81282D01*
X1971263Y82129D01*
X1974871Y84539D01*
X2024016Y133685D01*
X2225496D01*
X2243071Y116110D01*
X2242265Y114164D01*
X2241375Y107402D01*
X2242265Y100639D01*
X2244876Y94337D01*
X2249028Y88926D01*
X2254439Y84773D01*
X2260741Y82163D01*
X2267504Y81273D01*
X2274267Y82163D01*
X2280568Y84773D01*
X2285980Y88926D01*
X2290132Y94337D01*
X2292743Y100639D01*
X2293633Y107402D01*
X2292743Y114164D01*
X2290132Y120466D01*
X2285980Y125878D01*
X2280568Y130030D01*
X2274267Y132640D01*
X2267504Y133531D01*
X2260741Y132640D01*
X2258796Y131834D01*
X2237964Y152666D01*
X2234357Y155077D01*
X2230102Y155923D01*
X2230101Y155923D01*
X2071497D01*
Y179174D01*
X2013359D01*
X2009649Y179174D01*
X2006922Y183518D01*
X2024230Y200826D01*
X2071497D01*
Y230377D01*
X2137402Y296282D01*
X2244070D01*
X2244876Y294337D01*
X2249028Y288926D01*
X2254439Y284773D01*
X2260741Y282163D01*
X2267504Y281273D01*
X2274267Y282163D01*
X2276212Y282969D01*
X2343071Y216110D01*
X2342265Y214164D01*
X2341375Y207402D01*
X2342265Y200639D01*
X2344876Y194337D01*
X2349028Y188926D01*
X2354439Y184773D01*
X2360741Y182163D01*
X2367504Y181273D01*
X2374267Y182163D01*
X2380568Y184773D01*
X2385980Y188926D01*
X2390132Y194337D01*
X2392743Y200639D01*
X2393633Y207402D01*
X2392743Y214164D01*
X2390132Y220466D01*
X2385980Y225878D01*
X2380568Y230030D01*
X2374267Y232640D01*
X2367504Y233531D01*
X2360741Y232640D01*
X2358796Y231834D01*
X2291937Y298694D01*
X2292743Y300639D01*
X2293633Y307402D01*
X2292743Y314164D01*
X2290132Y320466D01*
X2285980Y325878D01*
X2280568Y330030D01*
X2274267Y332640D01*
X2267504Y333531D01*
D02*
G37*
G36*
X756103Y431495D02*
X710827D01*
Y368503D01*
X727205D01*
Y313153D01*
X723433Y311590D01*
X717265Y306858D01*
X712532Y300689D01*
X709556Y293506D01*
X708542Y285798D01*
Y234617D01*
X709556Y226909D01*
X712532Y219726D01*
X717265Y213558D01*
X723433Y208825D01*
X730616Y205850D01*
X738324Y204835D01*
X746032Y205850D01*
X753215Y208825D01*
X759383Y213558D01*
X764116Y219726D01*
X767091Y226909D01*
X768106Y234617D01*
Y285798D01*
X767091Y293506D01*
X764116Y300689D01*
X759383Y306858D01*
X753215Y311590D01*
X749443Y313153D01*
Y368503D01*
X756103D01*
Y431495D01*
D02*
G37*
G36*
X1272205Y370000D02*
X1244567D01*
Y336457D01*
X1272205D01*
Y370000D01*
D02*
G37*
G36*
X689173Y431495D02*
X643897D01*
Y404201D01*
X636101D01*
Y431495D01*
X590826D01*
Y368503D01*
X630551D01*
Y314539D01*
X623433Y311590D01*
X617265Y306858D01*
X612532Y300689D01*
X609556Y293506D01*
X608542Y285798D01*
Y234617D01*
X609556Y226909D01*
X611119Y223137D01*
X589101Y201119D01*
X570337D01*
X567851Y205089D01*
X567851Y206119D01*
Y315326D01*
X557655D01*
Y368503D01*
X569173D01*
Y431495D01*
X523898D01*
Y411017D01*
X250000D01*
X245745Y410171D01*
X242137Y407760D01*
X242137Y407760D01*
X217971Y383593D01*
X216184Y384333D01*
X209504Y385213D01*
X202823Y384333D01*
X196598Y381755D01*
X191253Y377653D01*
X187151Y372307D01*
X184572Y366082D01*
X183693Y359402D01*
X184572Y352721D01*
X187151Y346496D01*
X191253Y341150D01*
X196598Y337048D01*
X202823Y334470D01*
X209504Y333590D01*
X216184Y334470D01*
X222410Y337048D01*
X227755Y341150D01*
X231857Y346496D01*
X234436Y352721D01*
X235315Y359402D01*
X234436Y366082D01*
X233696Y367868D01*
X254606Y388779D01*
X523898D01*
Y368503D01*
X535416D01*
Y315326D01*
X508796D01*
Y206119D01*
X508796Y205089D01*
X506310Y201119D01*
X283511D01*
X233696Y250935D01*
X234436Y252721D01*
X235315Y259402D01*
X234436Y266082D01*
X231857Y272307D01*
X227755Y277653D01*
X222410Y281755D01*
X216184Y284333D01*
X209504Y285213D01*
X202823Y284333D01*
X196598Y281755D01*
X191253Y277653D01*
X187151Y272307D01*
X184572Y266082D01*
X183693Y259402D01*
X184572Y252721D01*
X187151Y246496D01*
X191253Y241150D01*
X196598Y237048D01*
X202823Y234470D01*
X209504Y233590D01*
X216184Y234470D01*
X217971Y235210D01*
X271043Y182137D01*
X274650Y179727D01*
X278906Y178881D01*
X278906Y178881D01*
X593706D01*
X593707Y178881D01*
X597962Y179727D01*
X601569Y182137D01*
X626844Y207412D01*
X630616Y205850D01*
X638324Y204835D01*
X646032Y205850D01*
X653215Y208825D01*
X659383Y213558D01*
X664116Y219726D01*
X667091Y226909D01*
X668106Y234617D01*
Y285798D01*
X667091Y293506D01*
X664116Y300689D01*
X659383Y306858D01*
X653215Y311590D01*
X652789Y311767D01*
Y368503D01*
X689173D01*
Y431495D01*
D02*
G37*
G36*
X1389504Y572055D02*
X1385249Y571208D01*
X1381641Y568798D01*
X1379231Y565191D01*
X1378710Y562573D01*
X1358008D01*
Y533023D01*
X1330461Y505476D01*
X1328051Y501869D01*
X1327205Y497614D01*
X1327205Y497613D01*
Y437521D01*
X948250D01*
X945455Y444271D01*
X939775Y451673D01*
X932373Y457352D01*
X923754Y460923D01*
X914504Y462140D01*
X905254Y460923D01*
X896635Y457352D01*
X889233Y451673D01*
X883553Y444271D01*
X879983Y435651D01*
X878765Y426402D01*
X879983Y417152D01*
X883553Y408532D01*
X889233Y401130D01*
X896635Y395451D01*
X905254Y391881D01*
X914504Y390663D01*
X923754Y391881D01*
X932373Y395451D01*
X939775Y401130D01*
X945455Y408532D01*
X948250Y415282D01*
X1202649D01*
X1206929Y413543D01*
X1206929Y410282D01*
Y380000D01*
X1239567D01*
X1272205D01*
Y410282D01*
X1272205Y413543D01*
X1276484Y415282D01*
X1327205D01*
Y409449D01*
X1281890D01*
Y340551D01*
X1327205D01*
Y313153D01*
X1323433Y311590D01*
X1317265Y306858D01*
X1312532Y300689D01*
X1309556Y293506D01*
X1308542Y285798D01*
Y234617D01*
X1309556Y226909D01*
X1312532Y219726D01*
X1317265Y213558D01*
X1323433Y208825D01*
X1330616Y205850D01*
X1338324Y204835D01*
X1346032Y205850D01*
X1353215Y208825D01*
X1359383Y213558D01*
X1364116Y219726D01*
X1367091Y226909D01*
X1368106Y234617D01*
Y285798D01*
X1367091Y293506D01*
X1364116Y300689D01*
X1359383Y306858D01*
X1353215Y311590D01*
X1349443Y313153D01*
Y397401D01*
X1349443Y397402D01*
X1349443Y397402D01*
Y426402D01*
Y493008D01*
X1373733Y517298D01*
X1421000D01*
Y562573D01*
X1400297D01*
X1399777Y565191D01*
X1397366Y568798D01*
X1393759Y571208D01*
X1389504Y572055D01*
D02*
G37*
G36*
X1738324Y315580D02*
X1730616Y314566D01*
X1723433Y311590D01*
X1717265Y306858D01*
X1712532Y300689D01*
X1709556Y293506D01*
X1708542Y285798D01*
Y234617D01*
X1709556Y226909D01*
X1712532Y219726D01*
X1717265Y213558D01*
X1723433Y208825D01*
X1730616Y205850D01*
X1738324Y204835D01*
X1746032Y205850D01*
X1753215Y208825D01*
X1759383Y213558D01*
X1764116Y219726D01*
X1767091Y226909D01*
X1768106Y234617D01*
Y285798D01*
X1767091Y293506D01*
X1764116Y300689D01*
X1759383Y306858D01*
X1753215Y311590D01*
X1746032Y314566D01*
X1738324Y315580D01*
D02*
G37*
G36*
X1838324D02*
X1830616Y314566D01*
X1823433Y311590D01*
X1817265Y306858D01*
X1812532Y300689D01*
X1809556Y293506D01*
X1808542Y285798D01*
Y234617D01*
X1809556Y226909D01*
X1812532Y219726D01*
X1817265Y213558D01*
X1823433Y208825D01*
X1830616Y205850D01*
X1838324Y204835D01*
X1846032Y205850D01*
X1853215Y208825D01*
X1859383Y213558D01*
X1864116Y219726D01*
X1867091Y226909D01*
X1868106Y234617D01*
Y285798D01*
X1867091Y293506D01*
X1864116Y300689D01*
X1859383Y306858D01*
X1853215Y311590D01*
X1846032Y314566D01*
X1838324Y315580D01*
D02*
G37*
G36*
X1234567Y370000D02*
X1206929D01*
Y336457D01*
X1234567D01*
Y370000D01*
D02*
G37*
G36*
X538324Y1315581D02*
X530616Y1314566D01*
X523433Y1311590D01*
X517265Y1306858D01*
X512532Y1300689D01*
X509556Y1293506D01*
X508542Y1285798D01*
Y1234617D01*
X509556Y1226909D01*
X512532Y1219726D01*
X517265Y1213558D01*
X523433Y1208825D01*
X527205Y1207262D01*
Y1164449D01*
X526024D01*
Y1095551D01*
X583110D01*
Y1164449D01*
X549443D01*
Y1207262D01*
X553215Y1208825D01*
X559383Y1213558D01*
X564116Y1219726D01*
X567091Y1226909D01*
X568106Y1234617D01*
Y1285798D01*
X567091Y1293506D01*
X564116Y1300689D01*
X559383Y1306858D01*
X553215Y1311590D01*
X546032Y1314566D01*
X538324Y1315581D01*
D02*
G37*
G36*
X1296709Y1723402D02*
X1269071D01*
Y1689858D01*
X1296709D01*
Y1723402D01*
D02*
G37*
G36*
X1133380Y1975721D02*
X1111628D01*
X1108575Y1975113D01*
X1105986Y1973384D01*
X1104257Y1970796D01*
X1103650Y1967743D01*
Y1947521D01*
X1094350D01*
X1092500Y1951988D01*
X1087546Y1958444D01*
X1081090Y1963398D01*
X1073572Y1966512D01*
X1065504Y1967574D01*
X1057436Y1966512D01*
X1049918Y1963398D01*
X1043462Y1958444D01*
X1038508Y1951988D01*
X1036917Y1948147D01*
X1033423D01*
X1028740Y1948914D01*
Y1964150D01*
X988268D01*
Y1948913D01*
X992362D01*
Y1921512D01*
X1024646D01*
Y1925908D01*
X1036399D01*
X1038508Y1920815D01*
X1043462Y1914360D01*
X1049918Y1909406D01*
X1057436Y1906292D01*
X1065504Y1905229D01*
X1073572Y1906292D01*
X1081090Y1909406D01*
X1087546Y1914360D01*
X1092500Y1920815D01*
X1094350Y1925282D01*
X1103650D01*
Y1906621D01*
X1104257Y1903568D01*
X1105986Y1900979D01*
X1108575Y1899250D01*
X1111628Y1898642D01*
X1133380D01*
X1136433Y1899250D01*
X1139021Y1900979D01*
X1140751Y1903568D01*
X1141358Y1906621D01*
Y1967743D01*
X1140751Y1970796D01*
X1139021Y1973384D01*
X1136433Y1975113D01*
X1133380Y1975721D01*
D02*
G37*
G36*
X1401000Y2028573D02*
X1338008D01*
Y1983298D01*
X1358385D01*
Y1976503D01*
X1338008D01*
Y1953253D01*
X1291358D01*
Y1967743D01*
X1290751Y1970796D01*
X1289021Y1973384D01*
X1286433Y1975113D01*
X1283380Y1975721D01*
X1261628D01*
X1258575Y1975113D01*
X1255986Y1973384D01*
X1254257Y1970796D01*
X1253650Y1967743D01*
Y1906621D01*
X1254257Y1903568D01*
X1255986Y1900979D01*
X1258575Y1899250D01*
X1261628Y1898642D01*
X1283380D01*
X1286433Y1899250D01*
X1289021Y1900979D01*
X1290751Y1903568D01*
X1291358Y1906621D01*
Y1931014D01*
X1357771D01*
X1357772Y1931014D01*
X1358846Y1931228D01*
X1401000D01*
Y1976503D01*
X1380623D01*
Y1983298D01*
X1401000D01*
Y2028573D01*
D02*
G37*
G36*
X766103Y1761496D02*
X720827D01*
Y1698504D01*
X732127D01*
Y1666499D01*
X728355Y1664936D01*
X722187Y1660204D01*
X717454Y1654035D01*
X714478Y1646852D01*
X713464Y1639144D01*
Y1587963D01*
X714478Y1580255D01*
X717454Y1573072D01*
X722187Y1566904D01*
X728355Y1562171D01*
X735538Y1559196D01*
X743246Y1558181D01*
X750954Y1559196D01*
X758137Y1562171D01*
X764305Y1566904D01*
X769038Y1573072D01*
X772013Y1580255D01*
X773028Y1587963D01*
Y1639144D01*
X772013Y1646852D01*
X769038Y1654035D01*
X764305Y1660204D01*
X758137Y1664936D01*
X754365Y1666499D01*
Y1698504D01*
X766103D01*
Y1761496D01*
D02*
G37*
G36*
X636102Y1761496D02*
X590827D01*
Y1698504D01*
X632127D01*
Y1666499D01*
X628355Y1664936D01*
X622187Y1660204D01*
X617454Y1654035D01*
X614478Y1646852D01*
X613464Y1639144D01*
Y1587963D01*
X614478Y1580255D01*
X616041Y1576483D01*
X604113Y1564555D01*
X572773D01*
Y1668672D01*
X554365D01*
Y1698504D01*
X569173D01*
Y1761496D01*
X523898D01*
Y1735521D01*
X248597D01*
X247857Y1737307D01*
X243755Y1742653D01*
X238410Y1746755D01*
X232184Y1749333D01*
X225504Y1750213D01*
X218823Y1749333D01*
X212598Y1746755D01*
X207253Y1742653D01*
X203151Y1737307D01*
X200572Y1731082D01*
X199693Y1724402D01*
X200572Y1717721D01*
X203151Y1711496D01*
X207253Y1706150D01*
X212598Y1702048D01*
X218823Y1699470D01*
X225504Y1698590D01*
X232184Y1699470D01*
X238410Y1702048D01*
X243755Y1706150D01*
X247857Y1711496D01*
X248597Y1713282D01*
X523898D01*
Y1698504D01*
X532127D01*
Y1668672D01*
X513718D01*
Y1564555D01*
X301076D01*
X249696Y1615935D01*
X250436Y1617721D01*
X251315Y1624402D01*
X250436Y1631082D01*
X247857Y1637307D01*
X243755Y1642653D01*
X238410Y1646755D01*
X232184Y1649333D01*
X225504Y1650213D01*
X218823Y1649333D01*
X212598Y1646755D01*
X207253Y1642653D01*
X203151Y1637307D01*
X200572Y1631082D01*
X199693Y1624402D01*
X200572Y1617721D01*
X203151Y1611496D01*
X207253Y1606150D01*
X212598Y1602048D01*
X218823Y1599470D01*
X225504Y1598590D01*
X232184Y1599470D01*
X233971Y1600210D01*
X288607Y1545573D01*
X288608Y1545573D01*
X292215Y1543163D01*
X296470Y1542316D01*
X608718D01*
X608718Y1542316D01*
X612974Y1543163D01*
X616581Y1545573D01*
X631766Y1560758D01*
X635538Y1559196D01*
X643246Y1558181D01*
X650954Y1559196D01*
X658137Y1562171D01*
X664305Y1566904D01*
X669038Y1573072D01*
X672013Y1580255D01*
X673028Y1587963D01*
Y1639144D01*
X672013Y1646852D01*
X669038Y1654035D01*
X664305Y1660204D01*
X658137Y1664936D01*
X654365Y1666499D01*
Y1698504D01*
X699173D01*
Y1761496D01*
X653897D01*
Y1741119D01*
X645000D01*
X645000Y1741119D01*
X644999Y1741119D01*
X636102D01*
Y1761496D01*
D02*
G37*
G36*
X1259071Y1723402D02*
X1231433D01*
Y1689858D01*
X1259071D01*
Y1723402D01*
D02*
G37*
G36*
X1405094Y2067866D02*
X1374504D01*
Y2046133D01*
X1405094D01*
Y2067866D01*
D02*
G37*
G36*
X1364504Y2099598D02*
X1333913D01*
Y2077866D01*
X1364504D01*
Y2099598D01*
D02*
G37*
G36*
X1405094D02*
X1374504D01*
Y2077866D01*
X1405094D01*
Y2099598D01*
D02*
G37*
G36*
X1003504Y1989386D02*
X988268D01*
Y1974150D01*
X1003504D01*
Y1989386D01*
D02*
G37*
G36*
X1028740D02*
X1013504D01*
Y1974150D01*
X1028740D01*
Y1989386D01*
D02*
G37*
G36*
X1364504Y2067866D02*
X1333913D01*
Y2046133D01*
X1364504D01*
Y2067866D01*
D02*
G37*
G36*
X2240504Y1583531D02*
X2233741Y1582640D01*
X2227439Y1580030D01*
X2222028Y1575878D01*
X2217876Y1570466D01*
X2215265Y1564164D01*
X2214375Y1557402D01*
X2215265Y1550639D01*
X2216071Y1548694D01*
X2208497Y1541119D01*
X2051495D01*
Y1559173D01*
X1988503D01*
Y1520764D01*
X1978858Y1511119D01*
X1036102D01*
Y1531496D01*
X990827D01*
Y1468504D01*
X1036102D01*
Y1488881D01*
X1983464D01*
X1983464Y1488881D01*
X1987719Y1489727D01*
X1991327Y1492138D01*
X2013086Y1513897D01*
X2051495D01*
Y1518881D01*
X2213102D01*
X2213102Y1518881D01*
X2217358Y1519727D01*
X2220965Y1522138D01*
X2231796Y1532969D01*
X2233741Y1532163D01*
X2240504Y1531273D01*
X2247267Y1532163D01*
X2253568Y1534773D01*
X2258980Y1538926D01*
X2263132Y1544337D01*
X2265743Y1550639D01*
X2266633Y1557402D01*
X2265743Y1564164D01*
X2263132Y1570466D01*
X2258980Y1575878D01*
X2253568Y1580030D01*
X2247267Y1582640D01*
X2240504Y1583531D01*
D02*
G37*
G36*
X1172236Y1255208D02*
X1143324D01*
Y1201363D01*
X1147101Y1201860D01*
X1155280Y1205248D01*
X1162303Y1210638D01*
X1167693Y1217661D01*
X1171081Y1225840D01*
X1172236Y1234617D01*
Y1255208D01*
D02*
G37*
G36*
X738324Y1315581D02*
X730616Y1314566D01*
X723433Y1311590D01*
X717265Y1306858D01*
X712532Y1300689D01*
X709556Y1293506D01*
X708542Y1285798D01*
Y1234617D01*
X709556Y1226909D01*
X712532Y1219726D01*
X717265Y1213558D01*
X723433Y1208825D01*
X730616Y1205850D01*
X738324Y1204835D01*
X746032Y1205850D01*
X753215Y1208825D01*
X759383Y1213558D01*
X764116Y1219726D01*
X767091Y1226909D01*
X768106Y1234617D01*
Y1285798D01*
X767091Y1293506D01*
X764116Y1300689D01*
X759383Y1306858D01*
X753215Y1311590D01*
X746032Y1314566D01*
X738324Y1315581D01*
D02*
G37*
G36*
X838324D02*
X830616Y1314566D01*
X823433Y1311590D01*
X817265Y1306858D01*
X812532Y1300689D01*
X809556Y1293506D01*
X808542Y1285798D01*
Y1234617D01*
X809556Y1226909D01*
X812532Y1219726D01*
X817265Y1213558D01*
X823433Y1208825D01*
X830616Y1205850D01*
X838324Y1204835D01*
X846032Y1205850D01*
X853215Y1208825D01*
X859383Y1213558D01*
X864116Y1219726D01*
X867091Y1226909D01*
X868106Y1234617D01*
Y1285798D01*
X867091Y1293506D01*
X864116Y1300689D01*
X859383Y1306858D01*
X853215Y1311590D01*
X846032Y1314566D01*
X838324Y1315581D01*
D02*
G37*
G36*
X638324D02*
X630616Y1314566D01*
X623433Y1311590D01*
X617265Y1306858D01*
X612532Y1300689D01*
X609556Y1293506D01*
X608542Y1285798D01*
Y1234617D01*
X609556Y1226909D01*
X612532Y1219726D01*
X617265Y1213558D01*
X618881Y1212318D01*
Y1164449D01*
X596890D01*
Y1095551D01*
X653976D01*
Y1164449D01*
X641119D01*
Y1205203D01*
X646032Y1205850D01*
X653215Y1208825D01*
X659383Y1213558D01*
X664116Y1219726D01*
X667091Y1226909D01*
X668106Y1234617D01*
Y1285798D01*
X667091Y1293506D01*
X664116Y1300689D01*
X659383Y1306858D01*
X653215Y1311590D01*
X646032Y1314566D01*
X638324Y1315581D01*
D02*
G37*
G36*
X1338324D02*
X1330616Y1314566D01*
X1323433Y1311590D01*
X1317265Y1306858D01*
X1312532Y1300689D01*
X1309556Y1293506D01*
X1308542Y1285798D01*
Y1234617D01*
X1309556Y1226909D01*
X1311119Y1223137D01*
X1299161Y1211179D01*
X1296751Y1207572D01*
X1295905Y1203317D01*
X1295905Y1203316D01*
Y1157253D01*
X1286647D01*
Y1197412D01*
X1286647Y1197413D01*
X1285801Y1201668D01*
X1283390Y1205275D01*
X1265529Y1223137D01*
X1267091Y1226909D01*
X1268106Y1234617D01*
Y1285798D01*
X1267091Y1293506D01*
X1264116Y1300689D01*
X1259383Y1306858D01*
X1253215Y1311590D01*
X1246032Y1314566D01*
X1238324Y1315581D01*
X1230616Y1314566D01*
X1223433Y1311590D01*
X1217265Y1306858D01*
X1212532Y1300689D01*
X1209556Y1293506D01*
X1208542Y1285798D01*
Y1234617D01*
X1209556Y1226909D01*
X1212532Y1219726D01*
X1217265Y1213558D01*
X1223433Y1208825D01*
X1230616Y1205850D01*
X1238324Y1204835D01*
X1246032Y1205850D01*
X1249804Y1207412D01*
X1264409Y1192807D01*
Y1157253D01*
X1259386D01*
Y1124970D01*
X1323166D01*
Y1157253D01*
X1318143D01*
Y1198711D01*
X1326844Y1207412D01*
X1330616Y1205850D01*
X1338324Y1204835D01*
X1346032Y1205850D01*
X1353215Y1208825D01*
X1359383Y1213558D01*
X1364116Y1219726D01*
X1367091Y1226909D01*
X1368106Y1234617D01*
Y1285798D01*
X1367091Y1293506D01*
X1364116Y1300689D01*
X1359383Y1306858D01*
X1353215Y1311590D01*
X1346032Y1314566D01*
X1338324Y1315581D01*
D02*
G37*
G36*
X1133324Y1255208D02*
X1104412D01*
Y1234617D01*
X1105567Y1225840D01*
X1108955Y1217661D01*
X1114344Y1210638D01*
X1121368Y1205248D01*
X1129547Y1201860D01*
X1133324Y1201363D01*
Y1255208D01*
D02*
G37*
G36*
X1143324Y1319052D02*
Y1265208D01*
X1172236D01*
Y1285798D01*
X1171081Y1294575D01*
X1167693Y1302754D01*
X1162303Y1309778D01*
X1155280Y1315167D01*
X1147101Y1318555D01*
X1143324Y1319052D01*
D02*
G37*
G36*
X2248505Y1347379D02*
X2241742Y1346488D01*
X2235440Y1343878D01*
X2230029Y1339726D01*
X2225876Y1334314D01*
X2225070Y1332369D01*
X1573776D01*
X1573775Y1332369D01*
X1569520Y1331522D01*
X1565913Y1329112D01*
X1565913Y1329112D01*
X1549804Y1313003D01*
X1546032Y1314566D01*
X1538324Y1315581D01*
X1530616Y1314566D01*
X1523433Y1311590D01*
X1517265Y1306858D01*
X1512532Y1300689D01*
X1509556Y1293506D01*
X1508542Y1285798D01*
Y1234617D01*
X1509556Y1226909D01*
X1512532Y1219726D01*
X1517265Y1213558D01*
X1523433Y1208825D01*
X1530616Y1205850D01*
X1538324Y1204835D01*
X1546032Y1205850D01*
X1553215Y1208825D01*
X1559383Y1213558D01*
X1564116Y1219726D01*
X1567091Y1226909D01*
X1568106Y1234617D01*
Y1285798D01*
X1567091Y1293506D01*
X1565529Y1297278D01*
X1578381Y1310130D01*
X1613695D01*
X1615939Y1305130D01*
X1612532Y1300689D01*
X1609556Y1293506D01*
X1608542Y1285798D01*
Y1234617D01*
X1609556Y1226909D01*
X1612532Y1219726D01*
X1617265Y1213558D01*
X1623433Y1208825D01*
X1630616Y1205850D01*
X1638324Y1204835D01*
X1646032Y1205850D01*
X1649804Y1207412D01*
X1743829Y1113387D01*
X1747436Y1110977D01*
X1751691Y1110130D01*
X2225070D01*
X2225876Y1108185D01*
X2230029Y1102774D01*
X2235440Y1098621D01*
X2241742Y1096011D01*
X2248505Y1095121D01*
X2255267Y1096011D01*
X2261569Y1098621D01*
X2266981Y1102774D01*
X2271133Y1108185D01*
X2273743Y1114487D01*
X2274634Y1121250D01*
X2273743Y1128012D01*
X2272938Y1129958D01*
X2339797Y1196817D01*
X2341742Y1196011D01*
X2348505Y1195121D01*
X2355267Y1196011D01*
X2361569Y1198621D01*
X2366981Y1202774D01*
X2371133Y1208185D01*
X2373743Y1214487D01*
X2374634Y1221250D01*
X2373743Y1228012D01*
X2371133Y1234314D01*
X2366981Y1239726D01*
X2361569Y1243878D01*
X2355267Y1246488D01*
X2348505Y1247379D01*
X2341742Y1246488D01*
X2335440Y1243878D01*
X2330029Y1239726D01*
X2325876Y1234314D01*
X2323266Y1228012D01*
X2322376Y1221250D01*
X2323266Y1214487D01*
X2324072Y1212542D01*
X2257213Y1145682D01*
X2255267Y1146488D01*
X2248505Y1147379D01*
X2241742Y1146488D01*
X2235440Y1143878D01*
X2230029Y1139726D01*
X2225876Y1134314D01*
X2225070Y1132369D01*
X1756297D01*
X1665529Y1223137D01*
X1667091Y1226909D01*
X1668106Y1234617D01*
Y1285798D01*
X1667091Y1293506D01*
X1664116Y1300689D01*
X1660708Y1305130D01*
X1662953Y1310130D01*
X1713695D01*
X1715939Y1305130D01*
X1712532Y1300689D01*
X1709556Y1293506D01*
X1708542Y1285798D01*
Y1234617D01*
X1709556Y1226909D01*
X1712532Y1219726D01*
X1717265Y1213558D01*
X1723433Y1208825D01*
X1730616Y1205850D01*
X1738324Y1204835D01*
X1746032Y1205850D01*
X1753215Y1208825D01*
X1759383Y1213558D01*
X1764116Y1219726D01*
X1767091Y1226909D01*
X1768106Y1234617D01*
Y1285798D01*
X1767091Y1293506D01*
X1764116Y1300689D01*
X1760708Y1305130D01*
X1762953Y1310130D01*
X1813695D01*
X1815939Y1305130D01*
X1812532Y1300689D01*
X1809556Y1293506D01*
X1808542Y1285798D01*
Y1234617D01*
X1809556Y1226909D01*
X1812532Y1219726D01*
X1817265Y1213558D01*
X1823433Y1208825D01*
X1830616Y1205850D01*
X1838324Y1204835D01*
X1846032Y1205850D01*
X1853215Y1208825D01*
X1859383Y1213558D01*
X1864116Y1219726D01*
X1867091Y1226909D01*
X1868106Y1234617D01*
Y1285798D01*
X1867091Y1293506D01*
X1864116Y1300689D01*
X1860708Y1305130D01*
X1862953Y1310130D01*
X2225070D01*
X2225876Y1308185D01*
X2230029Y1302774D01*
X2235440Y1298621D01*
X2241742Y1296011D01*
X2248505Y1295121D01*
X2255267Y1296011D01*
X2261569Y1298621D01*
X2266981Y1302774D01*
X2271133Y1308185D01*
X2273743Y1314487D01*
X2274634Y1321250D01*
X2273743Y1328012D01*
X2271133Y1334314D01*
X2266981Y1339726D01*
X2261569Y1343878D01*
X2255267Y1346488D01*
X2248505Y1347379D01*
D02*
G37*
G36*
X943246Y1668927D02*
X935538Y1667912D01*
X928355Y1664936D01*
X922187Y1660204D01*
X917454Y1654035D01*
X914478Y1646852D01*
X913464Y1639144D01*
Y1587963D01*
X914478Y1580255D01*
X917454Y1573072D01*
X922187Y1566904D01*
X928355Y1562171D01*
X932127Y1560608D01*
Y1531496D01*
X923898D01*
Y1468504D01*
X969173D01*
Y1531496D01*
X954365D01*
Y1560608D01*
X958137Y1562171D01*
X964305Y1566904D01*
X969038Y1573072D01*
X972013Y1580255D01*
X973028Y1587963D01*
Y1639144D01*
X972013Y1646852D01*
X969038Y1654035D01*
X964305Y1660204D01*
X958137Y1664936D01*
X950954Y1667912D01*
X943246Y1668927D01*
D02*
G37*
G36*
X938324Y1315581D02*
X930616Y1314566D01*
X923433Y1311590D01*
X917265Y1306858D01*
X912532Y1300689D01*
X909556Y1293506D01*
X908542Y1285798D01*
Y1234617D01*
X909556Y1226909D01*
X912532Y1219726D01*
X917265Y1213558D01*
X923433Y1208825D01*
X930616Y1205850D01*
X938324Y1204835D01*
X946032Y1205850D01*
X953215Y1208825D01*
X959383Y1213558D01*
X964116Y1219726D01*
X967091Y1226909D01*
X968106Y1234617D01*
Y1285798D01*
X967091Y1293506D01*
X964116Y1300689D01*
X959383Y1306858D01*
X953215Y1311590D01*
X946032Y1314566D01*
X938324Y1315581D01*
D02*
G37*
G36*
X1038324D02*
X1030616Y1314566D01*
X1023433Y1311590D01*
X1017265Y1306858D01*
X1012532Y1300689D01*
X1009556Y1293506D01*
X1008542Y1285798D01*
Y1234617D01*
X1009556Y1226909D01*
X1012532Y1219726D01*
X1017265Y1213558D01*
X1023433Y1208825D01*
X1030616Y1205850D01*
X1038324Y1204835D01*
X1046032Y1205850D01*
X1053215Y1208825D01*
X1059383Y1213558D01*
X1064116Y1219726D01*
X1067091Y1226909D01*
X1068106Y1234617D01*
Y1285798D01*
X1067091Y1293506D01*
X1064116Y1300689D01*
X1059383Y1306858D01*
X1053215Y1311590D01*
X1046032Y1314566D01*
X1038324Y1315581D01*
D02*
G37*
G36*
X1133324Y1319052D02*
X1129547Y1318555D01*
X1121368Y1315167D01*
X1114344Y1309778D01*
X1108955Y1302754D01*
X1105567Y1294575D01*
X1104412Y1285798D01*
Y1265208D01*
X1133324D01*
Y1319052D01*
D02*
G37*
G36*
X2092457Y4718986D02*
X1836551D01*
Y4478829D01*
X2092457D01*
Y4527811D01*
X2337830D01*
X2339815Y4523020D01*
X2346441Y4514385D01*
X2355076Y4507758D01*
X2365132Y4503593D01*
X2375924Y4502172D01*
X2386715Y4503593D01*
X2396771Y4507758D01*
X2405407Y4514385D01*
X2412033Y4523020D01*
X2416198Y4533076D01*
X2417619Y4543868D01*
X2416198Y4554659D01*
X2412033Y4564715D01*
X2405407Y4573351D01*
X2396771Y4579977D01*
X2386715Y4584142D01*
X2375924Y4585563D01*
X2365132Y4584142D01*
X2355076Y4579977D01*
X2346441Y4573351D01*
X2339815Y4564715D01*
X2337830Y4559924D01*
X2092457D01*
Y4718986D01*
D02*
G37*
G36*
X1014504Y6743097D02*
X1003712Y6741676D01*
X993656Y6737511D01*
X985021Y6730885D01*
X978395Y6722249D01*
X974229Y6712193D01*
X972809Y6701402D01*
X974229Y6690610D01*
X978395Y6680554D01*
X985021Y6671919D01*
X993656Y6665292D01*
X1003712Y6661127D01*
X1014504Y6659706D01*
X1025295Y6661127D01*
X1035351Y6665292D01*
X1043987Y6671919D01*
X1050613Y6680554D01*
X1054778Y6690610D01*
X1056199Y6701402D01*
X1054778Y6712193D01*
X1050613Y6722249D01*
X1043987Y6730885D01*
X1035351Y6737511D01*
X1025295Y6741676D01*
X1014504Y6743097D01*
D02*
G37*
G36*
X1114504D02*
X1103712Y6741676D01*
X1093656Y6737511D01*
X1085021Y6730885D01*
X1078395Y6722249D01*
X1074229Y6712193D01*
X1072809Y6701402D01*
X1074229Y6690610D01*
X1078395Y6680554D01*
X1085021Y6671919D01*
X1093656Y6665292D01*
X1103712Y6661127D01*
X1114504Y6659706D01*
X1125295Y6661127D01*
X1135351Y6665292D01*
X1143987Y6671919D01*
X1150613Y6680554D01*
X1154778Y6690610D01*
X1156199Y6701402D01*
X1154778Y6712193D01*
X1150613Y6722249D01*
X1143987Y6730885D01*
X1135351Y6737511D01*
X1125295Y6741676D01*
X1114504Y6743097D01*
D02*
G37*
G36*
X1214504D02*
X1203712Y6741676D01*
X1193656Y6737511D01*
X1185021Y6730885D01*
X1178395Y6722249D01*
X1174229Y6712193D01*
X1172809Y6701402D01*
X1174229Y6690610D01*
X1178395Y6680554D01*
X1185021Y6671919D01*
X1193656Y6665292D01*
X1203712Y6661127D01*
X1214504Y6659706D01*
X1225295Y6661127D01*
X1235351Y6665292D01*
X1243987Y6671919D01*
X1250613Y6680554D01*
X1254778Y6690610D01*
X1256199Y6701402D01*
X1254778Y6712193D01*
X1250613Y6722249D01*
X1243987Y6730885D01*
X1235351Y6737511D01*
X1225295Y6741676D01*
X1214504Y6743097D01*
D02*
G37*
G36*
X859671Y6696402D02*
X819504D01*
Y6656235D01*
X826364Y6657138D01*
X837416Y6661716D01*
X846907Y6668998D01*
X854189Y6678489D01*
X858768Y6689541D01*
X859671Y6696402D01*
D02*
G37*
G36*
X1959671D02*
X1919504D01*
Y6656235D01*
X1926364Y6657138D01*
X1937416Y6661716D01*
X1946907Y6668998D01*
X1954189Y6678489D01*
X1958767Y6689541D01*
X1959671Y6696402D01*
D02*
G37*
G36*
X914504Y6743097D02*
X903712Y6741676D01*
X893656Y6737511D01*
X885021Y6730885D01*
X878395Y6722249D01*
X874229Y6712193D01*
X872809Y6701402D01*
X874229Y6690610D01*
X878395Y6680554D01*
X878901Y6679894D01*
X877641Y6678634D01*
X875231Y6675027D01*
X874385Y6670772D01*
X874385Y6670771D01*
Y2654193D01*
X869385Y2653199D01*
X869038Y2654035D01*
X864305Y2660204D01*
X858137Y2664936D01*
X850954Y2667912D01*
X843246Y2668927D01*
X835538Y2667912D01*
X828355Y2664936D01*
X822187Y2660204D01*
X817454Y2654035D01*
X814478Y2646852D01*
X813464Y2639144D01*
Y2587963D01*
X814478Y2580255D01*
X817454Y2573072D01*
X822187Y2566904D01*
X828355Y2562171D01*
X835538Y2559195D01*
X843246Y2558181D01*
X850954Y2559195D01*
X858137Y2562171D01*
X864305Y2566904D01*
X869038Y2573072D01*
X869385Y2573909D01*
X874385Y2572914D01*
Y1654193D01*
X869385Y1653199D01*
X869038Y1654035D01*
X864305Y1660204D01*
X858137Y1664936D01*
X850954Y1667912D01*
X843246Y1668927D01*
X835538Y1667912D01*
X828355Y1664936D01*
X822187Y1660204D01*
X817454Y1654035D01*
X814478Y1646852D01*
X813464Y1639144D01*
Y1587963D01*
X814478Y1580255D01*
X817454Y1573072D01*
X822187Y1566904D01*
X828355Y1562171D01*
X835538Y1559196D01*
X843246Y1558181D01*
X850954Y1559196D01*
X858137Y1562171D01*
X864305Y1566904D01*
X869038Y1573072D01*
X869385Y1573909D01*
X874385Y1572914D01*
Y1175402D01*
X874385Y1175402D01*
X875231Y1171146D01*
X877641Y1167539D01*
X1021909Y1023271D01*
X1021909Y1023271D01*
X1025517Y1020861D01*
X1029772Y1020014D01*
X1029772Y1020014D01*
X1185166D01*
X1283899Y921282D01*
Y852962D01*
X1281089Y852403D01*
X1278501Y850674D01*
X1276771Y848086D01*
X1276164Y845033D01*
Y783911D01*
X1276771Y780857D01*
X1278501Y778269D01*
X1281089Y776540D01*
X1284142Y775933D01*
X1293795D01*
X1295708Y771313D01*
X1237155Y712760D01*
X1234745Y709153D01*
X1233899Y704898D01*
X1233899Y704897D01*
Y630520D01*
X1231089Y629961D01*
X1228501Y628232D01*
X1226771Y625644D01*
X1226164Y622591D01*
Y561469D01*
X1226771Y558415D01*
X1228501Y555827D01*
X1231089Y554098D01*
X1233899Y553539D01*
Y514898D01*
X1224330D01*
Y451906D01*
X1269606D01*
Y514898D01*
X1256137D01*
Y553539D01*
X1258947Y554098D01*
X1261535Y555827D01*
X1263265Y558415D01*
X1263872Y561469D01*
Y622591D01*
X1263265Y625644D01*
X1261535Y628232D01*
X1258947Y629961D01*
X1256137Y630520D01*
Y700292D01*
X1425776Y869930D01*
X1425776Y869931D01*
X1428186Y873538D01*
X1429033Y877793D01*
X1429033Y877794D01*
Y1034298D01*
X1470000D01*
Y1079573D01*
X1407008D01*
Y1046278D01*
X1406794Y1045203D01*
X1406794Y1045203D01*
Y882399D01*
X1318491Y794096D01*
X1313872Y796010D01*
Y845033D01*
X1313265Y848086D01*
X1311535Y850674D01*
X1308947Y852403D01*
X1306137Y852962D01*
Y925888D01*
X1305291Y930143D01*
X1302880Y933750D01*
X1302880Y933750D01*
X1197634Y1038996D01*
X1194027Y1041406D01*
X1189772Y1042253D01*
X1189771Y1042253D01*
X1034378D01*
X896623Y1180007D01*
Y2499966D01*
X954309D01*
X1256207Y2198068D01*
X1255986Y2195826D01*
X1254257Y2193238D01*
X1253650Y2190185D01*
Y2129063D01*
X1254257Y2126010D01*
X1255986Y2123421D01*
X1258575Y2121692D01*
X1261628Y2121084D01*
X1271281D01*
X1273194Y2116465D01*
X1214641Y2057912D01*
X1212231Y2054305D01*
X1211385Y2050050D01*
X1211385Y2050049D01*
Y1975672D01*
X1208575Y1975113D01*
X1205986Y1973384D01*
X1204257Y1970796D01*
X1203650Y1967743D01*
Y1906621D01*
X1204257Y1903568D01*
X1205986Y1900979D01*
X1208575Y1899250D01*
X1211385Y1898691D01*
Y1851898D01*
X1206330D01*
X1206330Y1788906D01*
X1201904Y1787521D01*
X1189104D01*
X1184678Y1788906D01*
X1184678Y1792521D01*
Y1851898D01*
X1183623D01*
Y1898691D01*
X1186433Y1899250D01*
X1189021Y1900979D01*
X1190751Y1903568D01*
X1191358Y1906621D01*
Y1967743D01*
X1190751Y1970796D01*
X1189021Y1973384D01*
X1186433Y1975113D01*
X1183623Y1975672D01*
Y2085333D01*
X1219375Y2121084D01*
X1233380D01*
X1236433Y2121692D01*
X1239021Y2123421D01*
X1240751Y2126010D01*
X1241358Y2129063D01*
Y2190185D01*
X1240751Y2193238D01*
X1239021Y2195826D01*
X1236433Y2197555D01*
X1233380Y2198163D01*
X1211628D01*
X1208575Y2197555D01*
X1205986Y2195826D01*
X1204257Y2193238D01*
X1203650Y2190185D01*
Y2136809D01*
X1196358Y2129518D01*
X1191358Y2131589D01*
Y2190185D01*
X1190751Y2193238D01*
X1189021Y2195826D01*
X1186433Y2197555D01*
X1183380Y2198163D01*
X1161628D01*
X1158575Y2197555D01*
X1155986Y2195826D01*
X1154257Y2193238D01*
X1153650Y2190185D01*
Y2170743D01*
X1141358D01*
Y2190185D01*
X1140751Y2193238D01*
X1139021Y2195826D01*
X1136433Y2197555D01*
X1134123Y2198015D01*
Y2233348D01*
X1139090Y2235406D01*
X1145546Y2240360D01*
X1150500Y2246816D01*
X1153614Y2254334D01*
X1154676Y2262402D01*
X1153614Y2270470D01*
X1150500Y2277988D01*
X1145546Y2284444D01*
X1139090Y2289398D01*
X1131572Y2292512D01*
X1123504Y2293574D01*
X1115436Y2292512D01*
X1107918Y2289398D01*
X1101462Y2284444D01*
X1096508Y2277988D01*
X1093394Y2270470D01*
X1092332Y2262402D01*
X1093394Y2254334D01*
X1096508Y2246816D01*
X1101462Y2240360D01*
X1107918Y2235406D01*
X1111885Y2233763D01*
Y2198163D01*
X1111628D01*
X1108575Y2197555D01*
X1105986Y2195826D01*
X1104257Y2193238D01*
X1103650Y2190185D01*
Y2129063D01*
X1104257Y2126010D01*
X1105986Y2123421D01*
X1108575Y2121692D01*
X1111628Y2121084D01*
X1133380D01*
X1136433Y2121692D01*
X1139021Y2123421D01*
X1140751Y2126010D01*
X1141358Y2129063D01*
Y2148504D01*
X1153650D01*
Y2129063D01*
X1154257Y2126010D01*
X1155986Y2123421D01*
X1158575Y2121692D01*
X1161628Y2121084D01*
X1180854D01*
X1182925Y2116084D01*
X1169361Y2102521D01*
X988250D01*
X985455Y2109271D01*
X979775Y2116673D01*
X972373Y2122352D01*
X963754Y2125923D01*
X954504Y2127140D01*
X945254Y2125923D01*
X936635Y2122352D01*
X929233Y2116673D01*
X923553Y2109271D01*
X919983Y2100651D01*
X918765Y2091402D01*
X919983Y2082152D01*
X923553Y2073532D01*
X929233Y2066131D01*
X936635Y2060451D01*
X945254Y2056881D01*
X954504Y2055663D01*
X963754Y2056881D01*
X972373Y2060451D01*
X979775Y2066131D01*
X985455Y2073532D01*
X988250Y2080282D01*
X1161385D01*
Y1975672D01*
X1158575Y1975113D01*
X1155986Y1973384D01*
X1154257Y1970796D01*
X1153650Y1967743D01*
Y1906621D01*
X1154257Y1903568D01*
X1155986Y1900979D01*
X1158575Y1899250D01*
X1161385Y1898691D01*
Y1851898D01*
X1139402D01*
Y1792478D01*
X1139402Y1788906D01*
X1135320Y1786689D01*
X1135249Y1786674D01*
X1131641Y1784264D01*
X1131641Y1784264D01*
X1096483Y1749106D01*
X1091494Y1749433D01*
X1089775Y1751673D01*
X1082373Y1757352D01*
X1073754Y1760922D01*
X1064504Y1762140D01*
X1055254Y1760922D01*
X1046634Y1757352D01*
X1039233Y1751673D01*
X1033553Y1744271D01*
X1029983Y1735651D01*
X1028765Y1726402D01*
X1029983Y1717152D01*
X1033553Y1708532D01*
X1039233Y1701130D01*
X1046634Y1695451D01*
X1055254Y1691881D01*
X1064504Y1690663D01*
X1073754Y1691881D01*
X1082373Y1695451D01*
X1089775Y1701130D01*
X1095455Y1708532D01*
X1099025Y1717152D01*
X1099487Y1720659D01*
X1144110Y1765282D01*
X1231433D01*
Y1733402D01*
X1264071D01*
X1296709D01*
Y1765282D01*
X1302401D01*
X1306394Y1762850D01*
Y1734774D01*
X1304978Y1732656D01*
X1304132Y1728401D01*
X1304978Y1724146D01*
X1306394Y1722028D01*
Y1693953D01*
X1337794D01*
Y1668209D01*
X1335538Y1667912D01*
X1328355Y1664936D01*
X1322187Y1660204D01*
X1317454Y1654035D01*
X1314478Y1646852D01*
X1313464Y1639144D01*
Y1587963D01*
X1314478Y1580255D01*
X1317454Y1573072D01*
X1320152Y1569555D01*
X1317687Y1564555D01*
X1268805D01*
X1266339Y1569555D01*
X1269038Y1573072D01*
X1272013Y1580255D01*
X1273028Y1587963D01*
Y1639144D01*
X1272013Y1646852D01*
X1269038Y1654035D01*
X1264305Y1660204D01*
X1258137Y1664936D01*
X1250954Y1667912D01*
X1243246Y1668927D01*
X1235538Y1667912D01*
X1228355Y1664936D01*
X1222187Y1660204D01*
X1217454Y1654035D01*
X1214478Y1646852D01*
X1213464Y1639144D01*
Y1587963D01*
X1214478Y1580255D01*
X1217454Y1573072D01*
X1220152Y1569555D01*
X1217687Y1564555D01*
X1168805D01*
X1166339Y1569555D01*
X1169038Y1573072D01*
X1172013Y1580255D01*
X1173028Y1587963D01*
Y1639144D01*
X1172013Y1646852D01*
X1169038Y1654035D01*
X1164305Y1660204D01*
X1158137Y1664936D01*
X1150954Y1667912D01*
X1143246Y1668927D01*
X1135538Y1667912D01*
X1128355Y1664936D01*
X1122187Y1660204D01*
X1117454Y1654035D01*
X1114478Y1646852D01*
X1113464Y1639144D01*
Y1587963D01*
X1114478Y1580255D01*
X1117454Y1573072D01*
X1120152Y1569555D01*
X1117687Y1564555D01*
X1082379D01*
X1070451Y1576483D01*
X1072013Y1580255D01*
X1073028Y1587963D01*
Y1639144D01*
X1072013Y1646852D01*
X1069038Y1654035D01*
X1064305Y1660204D01*
X1058137Y1664936D01*
X1050954Y1667912D01*
X1043246Y1668927D01*
X1035538Y1667912D01*
X1028355Y1664936D01*
X1022187Y1660204D01*
X1017454Y1654035D01*
X1014478Y1646852D01*
X1013464Y1639144D01*
Y1587963D01*
X1014478Y1580255D01*
X1017454Y1573072D01*
X1022187Y1566904D01*
X1028355Y1562171D01*
X1035538Y1559196D01*
X1043246Y1558181D01*
X1050954Y1559196D01*
X1054726Y1560758D01*
X1069911Y1545573D01*
X1073518Y1543163D01*
X1077774Y1542316D01*
X1077774Y1542316D01*
X1951111D01*
X1951111Y1542316D01*
X1955367Y1543163D01*
X1958974Y1545573D01*
X1994228Y1580827D01*
X2051495D01*
Y1620378D01*
X2177400Y1746282D01*
X2217070D01*
X2217876Y1744337D01*
X2222028Y1738926D01*
X2227439Y1734773D01*
X2233741Y1732163D01*
X2240504Y1731273D01*
X2247267Y1732163D01*
X2249212Y1732969D01*
X2316071Y1666110D01*
X2315265Y1664164D01*
X2314375Y1657402D01*
X2315265Y1650639D01*
X2317876Y1644337D01*
X2322028Y1638926D01*
X2327439Y1634773D01*
X2333741Y1632163D01*
X2340504Y1631273D01*
X2347267Y1632163D01*
X2353568Y1634773D01*
X2358980Y1638926D01*
X2363132Y1644337D01*
X2365743Y1650639D01*
X2366633Y1657402D01*
X2365743Y1664164D01*
X2363132Y1670466D01*
X2358980Y1675878D01*
X2353568Y1680030D01*
X2347267Y1682640D01*
X2340504Y1683531D01*
X2333741Y1682640D01*
X2331796Y1681834D01*
X2264937Y1748694D01*
X2265743Y1750639D01*
X2266633Y1757402D01*
X2265743Y1764164D01*
X2263132Y1770466D01*
X2258980Y1775878D01*
X2253568Y1780030D01*
X2247267Y1782640D01*
X2240504Y1783531D01*
X2233741Y1782640D01*
X2227439Y1780030D01*
X2222028Y1775878D01*
X2217876Y1770466D01*
X2217070Y1768521D01*
X2172794D01*
X2168539Y1767674D01*
X2164932Y1765264D01*
X2164931Y1765264D01*
X2025770Y1626103D01*
X1988503D01*
Y1606552D01*
X1946506Y1564555D01*
X1868805D01*
X1866339Y1569555D01*
X1869038Y1573072D01*
X1872013Y1580255D01*
X1873028Y1587963D01*
Y1639144D01*
X1872013Y1646852D01*
X1869038Y1654035D01*
X1864305Y1660204D01*
X1858137Y1664936D01*
X1850954Y1667912D01*
X1843246Y1668927D01*
X1835538Y1667912D01*
X1828355Y1664936D01*
X1822187Y1660204D01*
X1817454Y1654035D01*
X1814478Y1646852D01*
X1813464Y1639144D01*
Y1587963D01*
X1814478Y1580255D01*
X1817454Y1573072D01*
X1820152Y1569555D01*
X1817687Y1564555D01*
X1768805D01*
X1766339Y1569555D01*
X1769038Y1573072D01*
X1772013Y1580255D01*
X1773028Y1587963D01*
Y1639144D01*
X1772013Y1646852D01*
X1769038Y1654035D01*
X1764305Y1660204D01*
X1758137Y1664936D01*
X1750954Y1667912D01*
X1743246Y1668927D01*
X1735538Y1667912D01*
X1728355Y1664936D01*
X1722187Y1660204D01*
X1717454Y1654035D01*
X1714478Y1646852D01*
X1713464Y1639144D01*
Y1587963D01*
X1714478Y1580255D01*
X1717454Y1573072D01*
X1720152Y1569555D01*
X1717687Y1564555D01*
X1668805D01*
X1666339Y1569555D01*
X1669038Y1573072D01*
X1672013Y1580255D01*
X1673028Y1587963D01*
Y1639144D01*
X1672013Y1646852D01*
X1669038Y1654035D01*
X1664305Y1660204D01*
X1658137Y1664936D01*
X1654365Y1666499D01*
Y1814034D01*
X1894229Y2053898D01*
X1941496D01*
Y2056282D01*
X2217070D01*
X2217876Y2054336D01*
X2222028Y2048925D01*
X2227439Y2044773D01*
X2233741Y2042162D01*
X2240504Y2041272D01*
X2247267Y2042162D01*
X2253568Y2044773D01*
X2258980Y2048925D01*
X2263132Y2054336D01*
X2265743Y2060638D01*
X2266633Y2067401D01*
X2265743Y2074164D01*
X2263132Y2080465D01*
X2258980Y2085877D01*
X2253568Y2090029D01*
X2247267Y2092640D01*
X2240504Y2093530D01*
X2233741Y2092640D01*
X2227439Y2090029D01*
X2222028Y2085877D01*
X2217876Y2080465D01*
X2217070Y2078520D01*
X1941496D01*
Y2099173D01*
X1878504D01*
Y2069623D01*
X1635383Y1826502D01*
X1632973Y1822895D01*
X1632127Y1818639D01*
X1632127Y1818639D01*
Y1666499D01*
X1628355Y1664936D01*
X1622187Y1660204D01*
X1617454Y1654035D01*
X1614478Y1646852D01*
X1613464Y1639144D01*
Y1587963D01*
X1614478Y1580255D01*
X1617454Y1573072D01*
X1620152Y1569555D01*
X1617687Y1564555D01*
X1568805D01*
X1566339Y1569555D01*
X1569038Y1573072D01*
X1572013Y1580255D01*
X1573028Y1587963D01*
Y1639144D01*
X1572013Y1646852D01*
X1569038Y1654035D01*
X1564305Y1660204D01*
X1558137Y1664936D01*
X1554365Y1666499D01*
Y1829850D01*
X1873885Y2149370D01*
X1878504Y2147456D01*
Y2120827D01*
X1941496D01*
Y2161282D01*
X2315180D01*
X2315265Y2160638D01*
X2317876Y2154336D01*
X2322028Y2148925D01*
X2327439Y2144773D01*
X2333741Y2142162D01*
X2340504Y2141272D01*
X2347267Y2142162D01*
X2353568Y2144773D01*
X2358980Y2148925D01*
X2363132Y2154336D01*
X2365743Y2160638D01*
X2366633Y2167401D01*
X2365743Y2174164D01*
X2363132Y2180465D01*
X2358980Y2185877D01*
X2353568Y2190029D01*
X2347267Y2192640D01*
X2340504Y2193530D01*
X2333741Y2192640D01*
X2327439Y2190029D01*
X2322028Y2185877D01*
X2320220Y2183521D01*
X1941496D01*
Y2219173D01*
X1878504D01*
Y2182986D01*
X1876936Y2182674D01*
X1873329Y2180264D01*
X1535383Y1842318D01*
X1532973Y1838711D01*
X1532127Y1834456D01*
X1532127Y1834455D01*
Y1666499D01*
X1528355Y1664936D01*
X1522187Y1660204D01*
X1517454Y1654035D01*
X1514478Y1646852D01*
X1513464Y1639144D01*
Y1587963D01*
X1514478Y1580255D01*
X1517454Y1573072D01*
X1520152Y1569555D01*
X1517687Y1564555D01*
X1468805D01*
X1466339Y1569555D01*
X1469038Y1573072D01*
X1472013Y1580255D01*
X1473028Y1587963D01*
Y1639144D01*
X1472013Y1646852D01*
X1469038Y1654035D01*
X1464305Y1660204D01*
X1458137Y1664936D01*
X1454365Y1666499D01*
Y1941747D01*
X1753231Y2240613D01*
X1894331D01*
X1894331Y2240613D01*
X1895406Y2240827D01*
X1941496D01*
Y2256282D01*
X2217070D01*
X2217876Y2254336D01*
X2222028Y2248925D01*
X2227439Y2244773D01*
X2233741Y2242162D01*
X2240504Y2241272D01*
X2247267Y2242162D01*
X2253568Y2244773D01*
X2258980Y2248925D01*
X2263132Y2254336D01*
X2265743Y2260638D01*
X2266633Y2267401D01*
X2265743Y2274164D01*
X2263132Y2280465D01*
X2258980Y2285877D01*
X2253568Y2290029D01*
X2247267Y2292640D01*
X2240504Y2293530D01*
X2233741Y2292640D01*
X2227439Y2290029D01*
X2222028Y2285877D01*
X2217876Y2280465D01*
X2217070Y2278520D01*
X1941496D01*
Y2286102D01*
X1878504D01*
Y2262852D01*
X1748625D01*
X1744370Y2262005D01*
X1740763Y2259595D01*
X1435383Y1954216D01*
X1432973Y1950608D01*
X1432127Y1946353D01*
X1432127Y1946353D01*
Y1666499D01*
X1428355Y1664936D01*
X1422187Y1660204D01*
X1417454Y1654035D01*
X1414478Y1646852D01*
X1413464Y1639144D01*
Y1587963D01*
X1414478Y1580255D01*
X1417454Y1573072D01*
X1420152Y1569555D01*
X1417687Y1564555D01*
X1368805D01*
X1366339Y1569555D01*
X1369038Y1573072D01*
X1372013Y1580255D01*
X1373028Y1587963D01*
Y1639144D01*
X1372013Y1646852D01*
X1369038Y1654035D01*
X1364305Y1660204D01*
X1360033Y1663482D01*
Y1693953D01*
X1363480D01*
Y1762851D01*
X1360033D01*
Y1776402D01*
Y1864298D01*
X1401000D01*
Y1909573D01*
X1338008D01*
Y1876278D01*
X1337794Y1875203D01*
X1337794Y1875203D01*
Y1787521D01*
X1256032D01*
X1251606Y1788906D01*
X1251606Y1792521D01*
Y1851898D01*
X1233623D01*
Y1898691D01*
X1236433Y1899250D01*
X1239021Y1900979D01*
X1240751Y1903568D01*
X1241358Y1906621D01*
Y1967743D01*
X1240751Y1970796D01*
X1239021Y1973384D01*
X1236433Y1975113D01*
X1233623Y1975672D01*
Y2045444D01*
X1429776Y2241596D01*
X1429776Y2241597D01*
X1432186Y2245204D01*
X1433033Y2249459D01*
Y2390300D01*
X1474000D01*
Y2435575D01*
X1411008D01*
Y2402280D01*
X1410794Y2401205D01*
X1410794Y2401205D01*
Y2254065D01*
X1295977Y2139248D01*
X1291358Y2141162D01*
Y2190185D01*
X1290751Y2193238D01*
X1289021Y2195826D01*
X1286433Y2197555D01*
X1283495Y2198140D01*
X1282777Y2201751D01*
X1280366Y2205359D01*
X1280366Y2205359D01*
X966777Y2518948D01*
X963170Y2521358D01*
X958915Y2522204D01*
X958914Y2522204D01*
X896623D01*
Y6659564D01*
X900780Y6662342D01*
X903712Y6661127D01*
X914504Y6659706D01*
X925295Y6661127D01*
X935351Y6665292D01*
X943987Y6671919D01*
X950613Y6680554D01*
X954778Y6690610D01*
X956199Y6701402D01*
X954778Y6712193D01*
X950613Y6722249D01*
X943987Y6730885D01*
X935351Y6737511D01*
X925295Y6741676D01*
X914504Y6743097D01*
D02*
G37*
G36*
X1814504D02*
X1803712Y6741676D01*
X1793656Y6737511D01*
X1785021Y6730885D01*
X1778395Y6722249D01*
X1774229Y6712193D01*
X1772809Y6701402D01*
X1774229Y6690610D01*
X1778395Y6680554D01*
X1785021Y6671919D01*
X1793656Y6665292D01*
X1803712Y6661127D01*
X1814504Y6659706D01*
X1825295Y6661127D01*
X1835351Y6665292D01*
X1843987Y6671919D01*
X1850613Y6680554D01*
X1854778Y6690610D01*
X1856199Y6701402D01*
X1854778Y6712193D01*
X1850613Y6722249D01*
X1843987Y6730885D01*
X1835351Y6737511D01*
X1825295Y6741676D01*
X1814504Y6743097D01*
D02*
G37*
G36*
X256317Y6736073D02*
X184506D01*
Y6664262D01*
X256317D01*
Y6736073D01*
D02*
G37*
G36*
X356317D02*
X284506D01*
Y6664262D01*
X356317D01*
Y6736073D01*
D02*
G37*
G36*
X1314504Y6743097D02*
X1303712Y6741676D01*
X1293656Y6737511D01*
X1285021Y6730885D01*
X1278395Y6722249D01*
X1274229Y6712193D01*
X1272809Y6701402D01*
X1274229Y6690610D01*
X1278395Y6680554D01*
X1285021Y6671919D01*
X1293656Y6665292D01*
X1303712Y6661127D01*
X1314504Y6659706D01*
X1325295Y6661127D01*
X1335351Y6665292D01*
X1343987Y6671919D01*
X1350613Y6680554D01*
X1354778Y6690610D01*
X1356199Y6701402D01*
X1354778Y6712193D01*
X1350613Y6722249D01*
X1343987Y6730885D01*
X1335351Y6737511D01*
X1325295Y6741676D01*
X1314504Y6743097D01*
D02*
G37*
G36*
X1414504D02*
X1403712Y6741676D01*
X1393656Y6737511D01*
X1385021Y6730885D01*
X1378395Y6722249D01*
X1374229Y6712193D01*
X1372809Y6701402D01*
X1374229Y6690610D01*
X1378395Y6680554D01*
X1385021Y6671919D01*
X1393656Y6665292D01*
X1403712Y6661127D01*
X1414504Y6659706D01*
X1425295Y6661127D01*
X1435351Y6665292D01*
X1443987Y6671919D01*
X1450613Y6680554D01*
X1454778Y6690610D01*
X1456199Y6701402D01*
X1454778Y6712193D01*
X1450613Y6722249D01*
X1443987Y6730885D01*
X1435351Y6737511D01*
X1425295Y6741676D01*
X1414504Y6743097D01*
D02*
G37*
G36*
X1514504D02*
X1503712Y6741676D01*
X1493656Y6737511D01*
X1485021Y6730885D01*
X1478395Y6722249D01*
X1474229Y6712193D01*
X1472809Y6701402D01*
X1474229Y6690610D01*
X1478395Y6680554D01*
X1485021Y6671919D01*
X1493656Y6665292D01*
X1503712Y6661127D01*
X1514504Y6659706D01*
X1525295Y6661127D01*
X1535351Y6665292D01*
X1543987Y6671919D01*
X1550613Y6680554D01*
X1554778Y6690610D01*
X1556199Y6701402D01*
X1554778Y6712193D01*
X1550613Y6722249D01*
X1543987Y6730885D01*
X1535351Y6737511D01*
X1525295Y6741676D01*
X1514504Y6743097D01*
D02*
G37*
G36*
X1909504Y6696402D02*
X1869337D01*
X1870240Y6689541D01*
X1874818Y6678489D01*
X1882101Y6668998D01*
X1891591Y6661716D01*
X1902643Y6657138D01*
X1909504Y6656235D01*
Y6696402D01*
D02*
G37*
G36*
X1750095Y5886558D02*
X1686040D01*
Y5850062D01*
X1750095D01*
Y5886558D01*
D02*
G37*
G36*
Y5933054D02*
X1686040D01*
Y5896558D01*
X1750095D01*
Y5933054D01*
D02*
G37*
G36*
X254782Y6129418D02*
X214615D01*
X215518Y6122557D01*
X220096Y6111505D01*
X227379Y6102014D01*
X236869Y6094732D01*
X247922Y6090154D01*
X254782Y6089251D01*
Y6129418D01*
D02*
G37*
G36*
X2370018Y5884945D02*
X2359226Y5883524D01*
X2349170Y5879359D01*
X2340535Y5872733D01*
X2333909Y5864097D01*
X2329743Y5854041D01*
X2328323Y5843250D01*
X2329743Y5832458D01*
X2333909Y5822402D01*
X2340535Y5813767D01*
X2349170Y5807141D01*
X2359226Y5802975D01*
X2370018Y5801554D01*
X2380809Y5802975D01*
X2390865Y5807141D01*
X2399501Y5813767D01*
X2406127Y5822402D01*
X2410292Y5832458D01*
X2411713Y5843250D01*
X2410292Y5854041D01*
X2406127Y5864097D01*
X2399501Y5872733D01*
X2390865Y5879359D01*
X2380809Y5883524D01*
X2370018Y5884945D01*
D02*
G37*
G36*
X566504Y5875574D02*
X558436Y5874512D01*
X550918Y5871398D01*
X544462Y5866444D01*
X539508Y5859988D01*
X536394Y5852470D01*
X535332Y5844402D01*
X536394Y5836334D01*
X539508Y5828815D01*
X544462Y5822359D01*
X550918Y5817406D01*
X558436Y5814292D01*
X566504Y5813229D01*
X574572Y5814292D01*
X582090Y5817406D01*
X588546Y5822359D01*
X593500Y5828815D01*
X596614Y5836334D01*
X597676Y5844402D01*
X596614Y5852470D01*
X593500Y5859988D01*
X588546Y5866444D01*
X582090Y5871398D01*
X574572Y5874512D01*
X566504Y5875574D01*
D02*
G37*
G36*
X1676040Y5886558D02*
X1611985D01*
Y5850062D01*
X1676040D01*
Y5886558D01*
D02*
G37*
G36*
X259782Y6276113D02*
X248990Y6274692D01*
X238934Y6270527D01*
X230299Y6263901D01*
X223673Y6255265D01*
X219507Y6245209D01*
X218087Y6234418D01*
X219507Y6223626D01*
X223673Y6213570D01*
X230299Y6204935D01*
X238934Y6198309D01*
X248990Y6194143D01*
X259782Y6192722D01*
X270573Y6194143D01*
X280630Y6198309D01*
X289265Y6204935D01*
X295891Y6213570D01*
X300056Y6223626D01*
X301477Y6234418D01*
X300056Y6245209D01*
X295891Y6255265D01*
X289265Y6263901D01*
X280630Y6270527D01*
X270573Y6274692D01*
X259782Y6276113D01*
D02*
G37*
G36*
X570000Y6271172D02*
X561932Y6270110D01*
X554414Y6266996D01*
X547958Y6262042D01*
X543004Y6255586D01*
X539890Y6248068D01*
X538828Y6240000D01*
X539890Y6231932D01*
X543004Y6224414D01*
X547958Y6217958D01*
X554414Y6213004D01*
X561932Y6209890D01*
X570000Y6208828D01*
X578068Y6209890D01*
X585586Y6213004D01*
X592042Y6217958D01*
X596996Y6224414D01*
X600110Y6231932D01*
X601172Y6240000D01*
X600110Y6248068D01*
X596996Y6255586D01*
X592042Y6262042D01*
X585586Y6266996D01*
X578068Y6270110D01*
X570000Y6271172D01*
D02*
G37*
G36*
X809504Y6696402D02*
X769337D01*
X770240Y6689541D01*
X774818Y6678489D01*
X782101Y6668998D01*
X791591Y6661716D01*
X802644Y6657138D01*
X809504Y6656235D01*
Y6696402D01*
D02*
G37*
G36*
X304949Y6129418D02*
X264782D01*
Y6089251D01*
X271642Y6090154D01*
X282694Y6094732D01*
X292185Y6102014D01*
X299467Y6111505D01*
X304046Y6122557D01*
X304949Y6129418D01*
D02*
G37*
G36*
X254782Y6179584D02*
X247922Y6178681D01*
X236869Y6174103D01*
X227379Y6166821D01*
X220096Y6157330D01*
X215518Y6146278D01*
X214615Y6139418D01*
X254782D01*
Y6179584D01*
D02*
G37*
G36*
X264782D02*
Y6139418D01*
X304949D01*
X304046Y6146278D01*
X299467Y6157330D01*
X292185Y6166821D01*
X282694Y6174103D01*
X271642Y6178681D01*
X264782Y6179584D01*
D02*
G37*
G36*
X456317Y6736073D02*
X384506D01*
Y6664262D01*
X456317D01*
Y6736073D01*
D02*
G37*
G36*
X1714504Y6843097D02*
X1703712Y6841676D01*
X1693656Y6837511D01*
X1685021Y6830885D01*
X1678395Y6822249D01*
X1674229Y6812193D01*
X1672809Y6801402D01*
X1674229Y6790610D01*
X1678259Y6780882D01*
X1656641Y6759264D01*
X1654231Y6755657D01*
X1653385Y6751402D01*
X1653385Y6751401D01*
Y6726850D01*
X1648385Y6725153D01*
X1643987Y6730885D01*
X1635351Y6737511D01*
X1625295Y6741676D01*
X1614504Y6743097D01*
X1603712Y6741676D01*
X1593656Y6737511D01*
X1585021Y6730885D01*
X1578395Y6722249D01*
X1574229Y6712193D01*
X1572809Y6701402D01*
X1574229Y6690610D01*
X1578395Y6680554D01*
X1585021Y6671919D01*
X1593656Y6665292D01*
X1603712Y6661127D01*
X1614504Y6659706D01*
X1625295Y6661127D01*
X1635351Y6665292D01*
X1643987Y6671919D01*
X1648385Y6677650D01*
X1653385Y6675953D01*
Y5985601D01*
X1511621Y5843838D01*
X1509211Y5840231D01*
X1508365Y5835975D01*
X1508365Y5835975D01*
Y5462741D01*
X1357318Y5311695D01*
X1352039Y5313487D01*
X1351348Y5318736D01*
X1348234Y5326254D01*
X1343280Y5332710D01*
X1336824Y5337663D01*
X1329306Y5340778D01*
X1321238Y5341840D01*
X1313170Y5340778D01*
X1305652Y5337663D01*
X1299196Y5332710D01*
X1294242Y5326254D01*
X1291128Y5318736D01*
X1290066Y5310668D01*
X1291128Y5302600D01*
X1294242Y5295082D01*
X1297465Y5290881D01*
X1294999Y5285881D01*
X1281563D01*
X1277307Y5285035D01*
X1273700Y5282625D01*
X1136427Y5145352D01*
X1134017Y5141745D01*
X1133171Y5137489D01*
X1133171Y5137489D01*
Y5127219D01*
X1133055Y5127196D01*
X1126218Y5122627D01*
X1121650Y5115790D01*
X1120046Y5107726D01*
X1121650Y5099661D01*
X1126218Y5092824D01*
X1127249Y5092135D01*
X1125732Y5087135D01*
X1123678D01*
Y5059734D01*
X1119584D01*
Y5044498D01*
X1139820D01*
Y5039498D01*
D01*
Y5044498D01*
X1160056D01*
Y5059734D01*
X1155962D01*
Y5087135D01*
X1155962D01*
X1154991Y5092135D01*
X1156022Y5092824D01*
X1160590Y5099661D01*
X1162194Y5107726D01*
X1160590Y5115790D01*
X1156022Y5122627D01*
X1155409Y5123037D01*
Y5132884D01*
X1214762Y5192237D01*
X1219547Y5190785D01*
X1220034Y5188337D01*
X1224602Y5181500D01*
X1231439Y5176932D01*
X1239504Y5175327D01*
X1247569Y5176932D01*
X1254406Y5181500D01*
X1258974Y5188337D01*
X1260578Y5196402D01*
X1258974Y5204466D01*
X1254406Y5211303D01*
X1247569Y5215872D01*
X1245120Y5216359D01*
X1243669Y5221143D01*
X1286168Y5263643D01*
X1336110D01*
X1336110Y5263643D01*
X1340366Y5264489D01*
X1343973Y5266900D01*
X1527346Y5450273D01*
X1527347Y5450273D01*
X1529757Y5453881D01*
X1530603Y5458136D01*
Y5831370D01*
X1607365Y5908132D01*
X1611985Y5906218D01*
Y5896558D01*
X1676040D01*
Y5933054D01*
X1638820D01*
X1636907Y5937673D01*
X1672366Y5973133D01*
X1674777Y5976740D01*
X1675623Y5980995D01*
Y6675953D01*
X1680623Y6677650D01*
X1685021Y6671919D01*
X1693656Y6665292D01*
X1703712Y6661127D01*
X1714504Y6659706D01*
X1725295Y6661127D01*
X1735351Y6665292D01*
X1743987Y6671919D01*
X1750613Y6680554D01*
X1754778Y6690610D01*
X1756199Y6701402D01*
X1754778Y6712193D01*
X1750613Y6722249D01*
X1743987Y6730885D01*
X1735351Y6737511D01*
X1725295Y6741676D01*
X1714504Y6743097D01*
X1703712Y6741676D01*
X1693656Y6737511D01*
X1685021Y6730885D01*
X1680623Y6725153D01*
X1675623Y6726850D01*
Y6746796D01*
X1693984Y6765157D01*
X1703712Y6761127D01*
X1714504Y6759706D01*
X1725295Y6761127D01*
X1735351Y6765292D01*
X1743987Y6771919D01*
X1750613Y6780554D01*
X1754778Y6790610D01*
X1756199Y6801402D01*
X1754778Y6812193D01*
X1750613Y6822249D01*
X1743987Y6830885D01*
X1735351Y6837511D01*
X1725295Y6841676D01*
X1714504Y6843097D01*
D02*
G37*
G36*
X1814504D02*
X1803712Y6841676D01*
X1793656Y6837511D01*
X1785021Y6830885D01*
X1778395Y6822249D01*
X1774229Y6812193D01*
X1772809Y6801402D01*
X1774229Y6790610D01*
X1778395Y6780554D01*
X1785021Y6771919D01*
X1793656Y6765292D01*
X1803712Y6761127D01*
X1814504Y6759706D01*
X1825295Y6761127D01*
X1835351Y6765292D01*
X1843987Y6771919D01*
X1850613Y6780554D01*
X1854778Y6790610D01*
X1856199Y6801402D01*
X1854778Y6812193D01*
X1850613Y6822249D01*
X1843987Y6830885D01*
X1835351Y6837511D01*
X1825295Y6841676D01*
X1814504Y6843097D01*
D02*
G37*
G36*
X256317Y6836073D02*
X184506D01*
Y6764262D01*
X256317D01*
Y6836073D01*
D02*
G37*
G36*
X1414504Y6843097D02*
X1403712Y6841676D01*
X1393656Y6837511D01*
X1385021Y6830885D01*
X1378395Y6822249D01*
X1374229Y6812193D01*
X1372809Y6801402D01*
X1374229Y6790610D01*
X1378395Y6780554D01*
X1385021Y6771919D01*
X1393656Y6765292D01*
X1403712Y6761127D01*
X1414504Y6759706D01*
X1425295Y6761127D01*
X1435351Y6765292D01*
X1443987Y6771919D01*
X1450613Y6780554D01*
X1454778Y6790610D01*
X1456199Y6801402D01*
X1454778Y6812193D01*
X1450613Y6822249D01*
X1443987Y6830885D01*
X1435351Y6837511D01*
X1425295Y6841676D01*
X1414504Y6843097D01*
D02*
G37*
G36*
X1514504D02*
X1503712Y6841676D01*
X1493656Y6837511D01*
X1485021Y6830885D01*
X1478395Y6822249D01*
X1474229Y6812193D01*
X1472809Y6801402D01*
X1474229Y6790610D01*
X1478395Y6780554D01*
X1485021Y6771919D01*
X1493656Y6765292D01*
X1503712Y6761127D01*
X1514504Y6759706D01*
X1525295Y6761127D01*
X1535351Y6765292D01*
X1543987Y6771919D01*
X1550613Y6780554D01*
X1554778Y6790610D01*
X1556199Y6801402D01*
X1554778Y6812193D01*
X1550613Y6822249D01*
X1543987Y6830885D01*
X1535351Y6837511D01*
X1525295Y6841676D01*
X1514504Y6843097D01*
D02*
G37*
G36*
X1614504D02*
X1603712Y6841676D01*
X1593656Y6837511D01*
X1585021Y6830885D01*
X1578395Y6822249D01*
X1574229Y6812193D01*
X1572809Y6801402D01*
X1574229Y6790610D01*
X1578395Y6780554D01*
X1585021Y6771919D01*
X1593656Y6765292D01*
X1603712Y6761127D01*
X1614504Y6759706D01*
X1625295Y6761127D01*
X1635351Y6765292D01*
X1643987Y6771919D01*
X1650613Y6780554D01*
X1654778Y6790610D01*
X1656199Y6801402D01*
X1654778Y6812193D01*
X1650613Y6822249D01*
X1643987Y6830885D01*
X1635351Y6837511D01*
X1625295Y6841676D01*
X1614504Y6843097D01*
D02*
G37*
G36*
X1909504Y6846568D02*
X1902643Y6845665D01*
X1891591Y6841087D01*
X1882101Y6833805D01*
X1874818Y6824314D01*
X1870240Y6813262D01*
X1869337Y6806402D01*
X1909504D01*
Y6846568D01*
D02*
G37*
G36*
X819504Y6846568D02*
Y6806402D01*
X859671D01*
X858768Y6813262D01*
X854189Y6824314D01*
X846907Y6833805D01*
X837416Y6841087D01*
X826364Y6845665D01*
X819504Y6846568D01*
D02*
G37*
G36*
X1919504D02*
Y6806402D01*
X1959671D01*
X1958767Y6813262D01*
X1954189Y6824314D01*
X1946907Y6833805D01*
X1937416Y6841087D01*
X1926364Y6845665D01*
X1919504Y6846568D01*
D02*
G37*
G36*
X356317Y6836073D02*
X284506D01*
Y6764262D01*
X356317D01*
Y6836073D01*
D02*
G37*
G36*
X456317D02*
X384506D01*
Y6764262D01*
X456317D01*
Y6836073D01*
D02*
G37*
G36*
X809504Y6846568D02*
X802644Y6845665D01*
X791591Y6841087D01*
X782101Y6833805D01*
X774818Y6824314D01*
X770240Y6813262D01*
X769337Y6806402D01*
X809504D01*
Y6846568D01*
D02*
G37*
G36*
X1314504Y6843097D02*
X1303712Y6841676D01*
X1293656Y6837511D01*
X1285021Y6830885D01*
X1278395Y6822249D01*
X1274229Y6812193D01*
X1272809Y6801402D01*
X1274229Y6790610D01*
X1278395Y6780554D01*
X1285021Y6771919D01*
X1293656Y6765292D01*
X1303712Y6761127D01*
X1314504Y6759706D01*
X1325295Y6761127D01*
X1335351Y6765292D01*
X1343987Y6771919D01*
X1350613Y6780554D01*
X1354778Y6790610D01*
X1356199Y6801402D01*
X1354778Y6812193D01*
X1350613Y6822249D01*
X1343987Y6830885D01*
X1335351Y6837511D01*
X1325295Y6841676D01*
X1314504Y6843097D01*
D02*
G37*
G36*
X1919504Y6746568D02*
Y6706402D01*
X1959671D01*
X1958767Y6713262D01*
X1954189Y6724314D01*
X1946907Y6733805D01*
X1937416Y6741087D01*
X1926364Y6745665D01*
X1919504Y6746568D01*
D02*
G37*
G36*
X809504Y6796402D02*
X769337D01*
X770240Y6789541D01*
X774818Y6778489D01*
X782101Y6768998D01*
X791591Y6761716D01*
X802644Y6757138D01*
X809504Y6756235D01*
Y6796402D01*
D02*
G37*
G36*
X1909504D02*
X1869337D01*
X1870240Y6789541D01*
X1874818Y6778489D01*
X1882101Y6768998D01*
X1891591Y6761716D01*
X1902643Y6757138D01*
X1909504Y6756235D01*
Y6796402D01*
D02*
G37*
G36*
X809504Y6746568D02*
X802644Y6745665D01*
X791591Y6741087D01*
X782101Y6733805D01*
X774818Y6724314D01*
X770240Y6713262D01*
X769337Y6706402D01*
X809504D01*
Y6746568D01*
D02*
G37*
G36*
X1909504D02*
X1902643Y6745665D01*
X1891591Y6741087D01*
X1882101Y6733805D01*
X1874818Y6724314D01*
X1870240Y6713262D01*
X1869337Y6706402D01*
X1909504D01*
Y6746568D01*
D02*
G37*
G36*
X819504Y6746568D02*
Y6706402D01*
X859671D01*
X858768Y6713262D01*
X854189Y6724314D01*
X846907Y6733805D01*
X837416Y6741087D01*
X826364Y6745665D01*
X819504Y6746568D01*
D02*
G37*
G36*
X1014504Y6843097D02*
X1003712Y6841676D01*
X993656Y6837511D01*
X985021Y6830885D01*
X978395Y6822249D01*
X974229Y6812193D01*
X972809Y6801402D01*
X974229Y6790610D01*
X978395Y6780554D01*
X985021Y6771919D01*
X993656Y6765292D01*
X1003712Y6761127D01*
X1014504Y6759706D01*
X1025295Y6761127D01*
X1035351Y6765292D01*
X1043987Y6771919D01*
X1050613Y6780554D01*
X1054778Y6790610D01*
X1056199Y6801402D01*
X1054778Y6812193D01*
X1050613Y6822249D01*
X1043987Y6830885D01*
X1035351Y6837511D01*
X1025295Y6841676D01*
X1014504Y6843097D01*
D02*
G37*
G36*
X1114504D02*
X1103712Y6841676D01*
X1093656Y6837511D01*
X1085021Y6830885D01*
X1078395Y6822249D01*
X1074229Y6812193D01*
X1072809Y6801402D01*
X1074229Y6790610D01*
X1078395Y6780554D01*
X1085021Y6771919D01*
X1093656Y6765292D01*
X1103712Y6761127D01*
X1114504Y6759706D01*
X1125295Y6761127D01*
X1135351Y6765292D01*
X1143987Y6771919D01*
X1150613Y6780554D01*
X1154778Y6790610D01*
X1156199Y6801402D01*
X1154778Y6812193D01*
X1150613Y6822249D01*
X1143987Y6830885D01*
X1135351Y6837511D01*
X1125295Y6841676D01*
X1114504Y6843097D01*
D02*
G37*
G36*
X1214504D02*
X1203712Y6841676D01*
X1193656Y6837511D01*
X1185021Y6830885D01*
X1178395Y6822249D01*
X1174229Y6812193D01*
X1172809Y6801402D01*
X1174229Y6790610D01*
X1178395Y6780554D01*
X1185021Y6771919D01*
X1193656Y6765292D01*
X1203712Y6761127D01*
X1214504Y6759706D01*
X1225295Y6761127D01*
X1235351Y6765292D01*
X1243987Y6771919D01*
X1250613Y6780554D01*
X1254778Y6790610D01*
X1256199Y6801402D01*
X1254778Y6812193D01*
X1250613Y6822249D01*
X1243987Y6830885D01*
X1235351Y6837511D01*
X1225295Y6841676D01*
X1214504Y6843097D01*
D02*
G37*
G36*
X859671Y6796402D02*
X819504D01*
Y6756235D01*
X826364Y6757138D01*
X837416Y6761716D01*
X846907Y6768998D01*
X854189Y6778489D01*
X858768Y6789541D01*
X859671Y6796402D01*
D02*
G37*
G36*
X1959671D02*
X1919504D01*
Y6756235D01*
X1926364Y6757138D01*
X1937416Y6761716D01*
X1946907Y6768998D01*
X1954189Y6778489D01*
X1958767Y6789541D01*
X1959671Y6796402D01*
D02*
G37*
G36*
X914504Y6843097D02*
X903712Y6841676D01*
X893656Y6837511D01*
X885021Y6830885D01*
X878395Y6822249D01*
X874229Y6812193D01*
X872809Y6801402D01*
X874229Y6790610D01*
X878395Y6780554D01*
X885021Y6771919D01*
X893656Y6765292D01*
X903712Y6761127D01*
X914504Y6759706D01*
X925295Y6761127D01*
X935351Y6765292D01*
X943987Y6771919D01*
X950613Y6780554D01*
X954778Y6790610D01*
X956199Y6801402D01*
X954778Y6812193D01*
X950613Y6822249D01*
X943987Y6830885D01*
X935351Y6837511D01*
X925295Y6841676D01*
X914504Y6843097D01*
D02*
G37*
G36*
X259782Y5881757D02*
X248990Y5880336D01*
X238934Y5876171D01*
X230299Y5869545D01*
X223673Y5860909D01*
X219507Y5850853D01*
X218087Y5840062D01*
X219507Y5829270D01*
X223673Y5819214D01*
X230299Y5810579D01*
X238934Y5803953D01*
X248990Y5799787D01*
X259782Y5798366D01*
X270573Y5799787D01*
X280630Y5803953D01*
X289265Y5810579D01*
X295891Y5819214D01*
X300056Y5829270D01*
X301477Y5840062D01*
X300056Y5850853D01*
X295891Y5860909D01*
X289265Y5869545D01*
X280630Y5876171D01*
X270573Y5880336D01*
X259782Y5881757D01*
D02*
G37*
G36*
Y5093043D02*
X248990Y5091622D01*
X238934Y5087457D01*
X230299Y5080831D01*
X223673Y5072195D01*
X219507Y5062139D01*
X218087Y5051348D01*
X219507Y5040556D01*
X223673Y5030500D01*
X230299Y5021865D01*
X238934Y5015239D01*
X248990Y5011073D01*
X259782Y5009652D01*
X270573Y5011073D01*
X280630Y5015239D01*
X289265Y5021865D01*
X295891Y5030500D01*
X300056Y5040556D01*
X301477Y5051348D01*
X300056Y5062139D01*
X295891Y5072195D01*
X289265Y5080831D01*
X280630Y5087457D01*
X270573Y5091622D01*
X259782Y5093043D01*
D02*
G37*
G36*
X563504Y5074574D02*
X555436Y5073512D01*
X547918Y5070398D01*
X541462Y5065444D01*
X536508Y5058988D01*
X533394Y5051470D01*
X532332Y5043402D01*
X533394Y5035334D01*
X536508Y5027815D01*
X541462Y5021359D01*
X547918Y5016406D01*
X555436Y5013292D01*
X563504Y5012229D01*
X571572Y5013292D01*
X579090Y5016406D01*
X585546Y5021359D01*
X590500Y5027815D01*
X593614Y5035334D01*
X594676Y5043402D01*
X593614Y5051470D01*
X590500Y5058988D01*
X585546Y5065444D01*
X579090Y5070398D01*
X571572Y5073512D01*
X563504Y5074574D01*
D02*
G37*
G36*
X2375924Y5098949D02*
X2365132Y5097528D01*
X2355076Y5093363D01*
X2346441Y5086737D01*
X2339815Y5078101D01*
X2335649Y5068045D01*
X2334229Y5057254D01*
X2335649Y5046462D01*
X2339815Y5036406D01*
X2346441Y5027771D01*
X2355076Y5021145D01*
X2365132Y5016979D01*
X2375924Y5015558D01*
X2386715Y5016979D01*
X2396771Y5021145D01*
X2405407Y5027771D01*
X2412033Y5036406D01*
X2416198Y5046462D01*
X2417619Y5057254D01*
X2416198Y5068045D01*
X2412033Y5078101D01*
X2405407Y5086737D01*
X2396771Y5093363D01*
X2386715Y5097528D01*
X2375924Y5098949D01*
D02*
G37*
G36*
X2092457Y5132764D02*
X1836551D01*
Y4892607D01*
X2092457D01*
Y4941197D01*
X2337830D01*
X2339815Y4936406D01*
X2346441Y4927771D01*
X2355076Y4921145D01*
X2365132Y4916979D01*
X2375924Y4915558D01*
X2386715Y4916979D01*
X2396771Y4921145D01*
X2405407Y4927771D01*
X2412033Y4936406D01*
X2416198Y4946462D01*
X2417619Y4957254D01*
X2416198Y4968045D01*
X2412033Y4978101D01*
X2405407Y4986737D01*
X2396771Y4993363D01*
X2386715Y4997528D01*
X2375924Y4998949D01*
X2365132Y4997528D01*
X2355076Y4993363D01*
X2346441Y4986737D01*
X2339815Y4978101D01*
X2337830Y4973310D01*
X2092457D01*
Y5132764D01*
D02*
G37*
G36*
X254782Y4996514D02*
X247922Y4995611D01*
X236869Y4991033D01*
X227379Y4983751D01*
X220096Y4974260D01*
X215518Y4963208D01*
X214615Y4956348D01*
X254782D01*
Y4996514D01*
D02*
G37*
G36*
X264782D02*
Y4956348D01*
X304949D01*
X304046Y4963208D01*
X299467Y4974260D01*
X292185Y4983751D01*
X282694Y4991033D01*
X271642Y4995611D01*
X264782Y4996514D01*
D02*
G37*
G36*
X1750095Y5097844D02*
X1686040D01*
Y5061348D01*
X1750095D01*
Y5097844D01*
D02*
G37*
G36*
X1300504Y5110476D02*
X1292439Y5108872D01*
X1285602Y5104303D01*
X1281034Y5097466D01*
X1279430Y5089402D01*
X1281034Y5081337D01*
X1285602Y5074500D01*
X1292439Y5069932D01*
X1300504Y5068327D01*
X1308569Y5069932D01*
X1315406Y5074500D01*
X1319974Y5081337D01*
X1321578Y5089402D01*
X1319974Y5097466D01*
X1315406Y5104303D01*
X1308569Y5108872D01*
X1300504Y5110476D01*
D02*
G37*
G36*
X1676040Y5144340D02*
X1611985D01*
Y5107844D01*
X1676040D01*
Y5144340D01*
D02*
G37*
G36*
X1134820Y5034498D02*
X1119584D01*
Y5019261D01*
X1134820D01*
Y5034498D01*
D02*
G37*
G36*
X1160056D02*
X1144820D01*
Y5019261D01*
X1160056D01*
Y5034498D01*
D02*
G37*
G36*
X1676040Y5097844D02*
X1611985D01*
Y5061348D01*
X1676040D01*
Y5097844D01*
D02*
G37*
G36*
X304949Y4946348D02*
X264782D01*
Y4906181D01*
X271642Y4907084D01*
X282694Y4911662D01*
X292185Y4918944D01*
X299467Y4928435D01*
X304046Y4939487D01*
X304949Y4946348D01*
D02*
G37*
G36*
X2375924Y4685563D02*
X2365132Y4684142D01*
X2355076Y4679977D01*
X2346441Y4673351D01*
X2339815Y4664715D01*
X2335649Y4654659D01*
X2334229Y4643868D01*
X2335649Y4633076D01*
X2339815Y4623020D01*
X2346441Y4614385D01*
X2355076Y4607758D01*
X2365132Y4603593D01*
X2375924Y4602172D01*
X2386715Y4603593D01*
X2396771Y4607758D01*
X2405407Y4614385D01*
X2412033Y4623020D01*
X2416198Y4633076D01*
X2417619Y4643868D01*
X2416198Y4654659D01*
X2412033Y4664715D01*
X2405407Y4673351D01*
X2396771Y4679977D01*
X2386715Y4684142D01*
X2375924Y4685563D01*
D02*
G37*
G36*
X580000Y4671172D02*
X571932Y4670110D01*
X564414Y4666996D01*
X557958Y4662042D01*
X553004Y4655586D01*
X549890Y4648068D01*
X548828Y4640000D01*
X549890Y4631932D01*
X553004Y4624414D01*
X557958Y4617958D01*
X564414Y4613004D01*
X571932Y4609890D01*
X580000Y4608828D01*
X588068Y4609890D01*
X595586Y4613004D01*
X602042Y4617958D01*
X606996Y4624414D01*
X610110Y4631932D01*
X611172Y4640000D01*
X610110Y4648068D01*
X606996Y4655586D01*
X602042Y4662042D01*
X595586Y4666996D01*
X588068Y4670110D01*
X580000Y4671172D01*
D02*
G37*
G36*
X1676040Y4684066D02*
X1611985D01*
Y4647570D01*
X1676040D01*
Y4684066D01*
D02*
G37*
G36*
X254782Y4582734D02*
X247922Y4581831D01*
X236869Y4577253D01*
X227379Y4569971D01*
X220096Y4560480D01*
X215518Y4549428D01*
X214615Y4542568D01*
X254782D01*
Y4582734D01*
D02*
G37*
G36*
X264782D02*
Y4542568D01*
X304949D01*
X304046Y4549428D01*
X299467Y4560480D01*
X292185Y4569971D01*
X282694Y4577253D01*
X271642Y4581831D01*
X264782Y4582734D01*
D02*
G37*
G36*
X259782Y4679263D02*
X248990Y4677842D01*
X238934Y4673677D01*
X230299Y4667051D01*
X223673Y4658415D01*
X219507Y4648359D01*
X218087Y4637568D01*
X219507Y4626776D01*
X223673Y4616720D01*
X230299Y4608085D01*
X238934Y4601458D01*
X248990Y4597293D01*
X259782Y4595872D01*
X270573Y4597293D01*
X280630Y4601458D01*
X289265Y4608085D01*
X295891Y4616720D01*
X300056Y4626776D01*
X301477Y4637568D01*
X300056Y4648359D01*
X295891Y4658415D01*
X289265Y4667051D01*
X280630Y4673677D01*
X270573Y4677842D01*
X259782Y4679263D01*
D02*
G37*
G36*
X1746001Y4959929D02*
X1616079D01*
Y4885126D01*
X1746001D01*
Y4902235D01*
X1746390Y4902533D01*
X1751344Y4908989D01*
X1754458Y4916508D01*
X1755520Y4924576D01*
X1754458Y4932644D01*
X1751344Y4940162D01*
X1746390Y4946618D01*
X1746001Y4946917D01*
Y4959929D01*
D02*
G37*
G36*
X1188050Y4929982D02*
X1179985Y4928378D01*
X1173148Y4923809D01*
X1168580Y4916972D01*
X1166976Y4908908D01*
X1168580Y4900843D01*
X1173148Y4894006D01*
X1179985Y4889438D01*
X1188050Y4887833D01*
X1196115Y4889438D01*
X1202952Y4894006D01*
X1207520Y4900843D01*
X1209124Y4908908D01*
X1207520Y4916972D01*
X1202952Y4923809D01*
X1196115Y4928378D01*
X1188050Y4929982D01*
D02*
G37*
G36*
X254782Y4946348D02*
X214615D01*
X215518Y4939487D01*
X220096Y4928435D01*
X227379Y4918944D01*
X236869Y4911662D01*
X247922Y4907084D01*
X254782Y4906181D01*
Y4946348D01*
D02*
G37*
G36*
X1750095Y4684066D02*
X1686040D01*
Y4647570D01*
X1750095D01*
Y4684066D01*
D02*
G37*
G36*
X1676040Y4730562D02*
X1611985D01*
Y4694066D01*
X1676040D01*
Y4730562D01*
D02*
G37*
G36*
X1750095D02*
X1686040D01*
Y4694066D01*
X1750095D01*
Y4730562D01*
D02*
G37*
G36*
Y5144340D02*
X1686040D01*
Y5107844D01*
X1750095D01*
Y5144340D01*
D02*
G37*
G36*
X957504Y5702476D02*
X949439Y5700872D01*
X942602Y5696303D01*
X938034Y5689466D01*
X936430Y5681402D01*
X938034Y5673337D01*
X942602Y5666500D01*
X949439Y5661932D01*
X957504Y5660327D01*
X965569Y5661932D01*
X972406Y5666500D01*
X976974Y5673337D01*
X978578Y5681402D01*
X976974Y5689466D01*
X972406Y5696303D01*
X965569Y5700872D01*
X957504Y5702476D01*
D02*
G37*
G36*
X1746001Y5748645D02*
X1616079D01*
Y5673842D01*
X1746001D01*
Y5693575D01*
X1746390Y5693873D01*
X1751344Y5700329D01*
X1754458Y5707848D01*
X1755520Y5715916D01*
X1754458Y5723984D01*
X1751344Y5731502D01*
X1746390Y5737958D01*
X1746001Y5738257D01*
Y5748645D01*
D02*
G37*
G36*
X1026504Y5728476D02*
X1018439Y5726872D01*
X1011602Y5722303D01*
X1007034Y5715466D01*
X1005430Y5707402D01*
X1007034Y5699337D01*
X1011602Y5692500D01*
X1018439Y5687932D01*
X1026504Y5686327D01*
X1034569Y5687932D01*
X1041406Y5692500D01*
X1045974Y5699337D01*
X1047578Y5707402D01*
X1045974Y5715466D01*
X1041406Y5722303D01*
X1034569Y5726872D01*
X1026504Y5728476D01*
D02*
G37*
G36*
X1676040Y5538696D02*
X1611985D01*
Y5502200D01*
X1676040D01*
Y5538696D01*
D02*
G37*
G36*
X1750095D02*
X1686040D01*
Y5502200D01*
X1750095D01*
Y5538696D01*
D02*
G37*
G36*
X1163504Y5699476D02*
X1155439Y5697872D01*
X1148602Y5693303D01*
X1144034Y5686466D01*
X1142430Y5678402D01*
X1144034Y5670337D01*
X1148602Y5663500D01*
X1155439Y5658932D01*
X1163504Y5657327D01*
X1171569Y5658932D01*
X1178406Y5663500D01*
X1182974Y5670337D01*
X1184578Y5678402D01*
X1182974Y5686466D01*
X1178406Y5693303D01*
X1171569Y5697872D01*
X1163504Y5699476D01*
D02*
G37*
G36*
X254782Y5785228D02*
X247922Y5784325D01*
X236869Y5779747D01*
X227379Y5772465D01*
X220096Y5762974D01*
X215518Y5751922D01*
X214615Y5745062D01*
X254782D01*
Y5785228D01*
D02*
G37*
G36*
X264782D02*
Y5745062D01*
X304949D01*
X304046Y5751922D01*
X299467Y5762974D01*
X292185Y5772465D01*
X282694Y5779747D01*
X271642Y5784325D01*
X264782Y5785228D01*
D02*
G37*
G36*
X1100504Y5795476D02*
X1092439Y5793872D01*
X1085602Y5789303D01*
X1081034Y5782466D01*
X1079430Y5774402D01*
X1081034Y5766337D01*
X1085602Y5759500D01*
X1092439Y5754932D01*
X1100504Y5753327D01*
X1108569Y5754932D01*
X1115406Y5759500D01*
X1119974Y5766337D01*
X1121578Y5774402D01*
X1119974Y5782466D01*
X1115406Y5789303D01*
X1108569Y5793872D01*
X1100504Y5795476D01*
D02*
G37*
G36*
X254782Y5735062D02*
X214615D01*
X215518Y5728201D01*
X220096Y5717149D01*
X227379Y5707658D01*
X236869Y5700376D01*
X247922Y5695798D01*
X254782Y5694895D01*
Y5735062D01*
D02*
G37*
G36*
X304949D02*
X264782D01*
Y5694895D01*
X271642Y5695798D01*
X282694Y5700376D01*
X292185Y5707658D01*
X299467Y5717149D01*
X304046Y5728201D01*
X304949Y5735062D01*
D02*
G37*
G36*
X2092457Y5921480D02*
X1836551D01*
Y5681323D01*
X2092457D01*
Y5727193D01*
X2331924D01*
X2333909Y5722402D01*
X2340535Y5713767D01*
X2349170Y5707141D01*
X2359226Y5702975D01*
X2370018Y5701554D01*
X2380809Y5702975D01*
X2390865Y5707141D01*
X2399501Y5713767D01*
X2406127Y5722402D01*
X2410292Y5732458D01*
X2411713Y5743250D01*
X2410292Y5754041D01*
X2406127Y5764097D01*
X2399501Y5772733D01*
X2390865Y5779359D01*
X2380809Y5783524D01*
X2370018Y5784945D01*
X2359226Y5783524D01*
X2349170Y5779359D01*
X2340535Y5772733D01*
X2333909Y5764097D01*
X2331924Y5759306D01*
X2092457D01*
Y5921480D01*
D02*
G37*
G36*
X1750095Y5492200D02*
X1686040D01*
Y5455704D01*
X1750095D01*
Y5492200D01*
D02*
G37*
G36*
X254782Y5340706D02*
X214615D01*
X215518Y5333845D01*
X220096Y5322793D01*
X227379Y5313302D01*
X236869Y5306020D01*
X247922Y5301442D01*
X254782Y5300539D01*
Y5340706D01*
D02*
G37*
G36*
X304949D02*
X264782D01*
Y5300539D01*
X271642Y5301442D01*
X282694Y5306020D01*
X292185Y5313302D01*
X299467Y5322793D01*
X304046Y5333845D01*
X304949Y5340706D01*
D02*
G37*
G36*
X2092457Y5527120D02*
X1836551D01*
Y5286963D01*
X2092457D01*
Y5329649D01*
X2331924D01*
X2333909Y5324858D01*
X2340535Y5316223D01*
X2349170Y5309596D01*
X2359226Y5305431D01*
X2370018Y5304010D01*
X2380809Y5305431D01*
X2390865Y5309596D01*
X2399501Y5316223D01*
X2406127Y5324858D01*
X2410292Y5334914D01*
X2411713Y5345706D01*
X2410292Y5356497D01*
X2406127Y5366553D01*
X2399501Y5375189D01*
X2390865Y5381815D01*
X2380809Y5385980D01*
X2370018Y5387401D01*
X2359226Y5385980D01*
X2349170Y5381815D01*
X2340535Y5375189D01*
X2333909Y5366553D01*
X2331924Y5361762D01*
X2092457D01*
Y5527120D01*
D02*
G37*
G36*
X1294504Y5198476D02*
X1286439Y5196872D01*
X1279602Y5192303D01*
X1275034Y5185466D01*
X1273430Y5177402D01*
X1275034Y5169337D01*
X1279602Y5162500D01*
X1286439Y5157932D01*
X1294504Y5156327D01*
X1302569Y5157932D01*
X1309406Y5162500D01*
X1313974Y5169337D01*
X1315578Y5177402D01*
X1313974Y5185466D01*
X1309406Y5192303D01*
X1302569Y5196872D01*
X1294504Y5198476D01*
D02*
G37*
G36*
X1080018Y5244324D02*
X1071953Y5242720D01*
X1065116Y5238151D01*
X1060548Y5231314D01*
X1058944Y5223250D01*
X1060548Y5215185D01*
X1065116Y5208348D01*
X1071953Y5203780D01*
X1080018Y5202175D01*
X1088083Y5203780D01*
X1094920Y5208348D01*
X1099488Y5215185D01*
X1101092Y5223250D01*
X1099488Y5231314D01*
X1094920Y5238151D01*
X1088083Y5242720D01*
X1080018Y5244324D01*
D02*
G37*
G36*
X1746001Y5354285D02*
X1616079D01*
Y5279482D01*
X1746001D01*
Y5291999D01*
X1746390Y5292297D01*
X1751344Y5298753D01*
X1754458Y5306272D01*
X1755520Y5314340D01*
X1754458Y5322408D01*
X1751344Y5329926D01*
X1746390Y5336382D01*
X1746001Y5336681D01*
Y5354285D01*
D02*
G37*
G36*
X2370018Y5487401D02*
X2359226Y5485980D01*
X2349170Y5481815D01*
X2340535Y5475189D01*
X2333909Y5466553D01*
X2329743Y5456497D01*
X2328323Y5445706D01*
X2329743Y5434914D01*
X2333909Y5424858D01*
X2340535Y5416223D01*
X2349170Y5409596D01*
X2359226Y5405431D01*
X2370018Y5404010D01*
X2380809Y5405431D01*
X2390865Y5409596D01*
X2399501Y5416223D01*
X2406127Y5424858D01*
X2410292Y5434914D01*
X2411713Y5445706D01*
X2410292Y5456497D01*
X2406127Y5466553D01*
X2399501Y5475189D01*
X2390865Y5481815D01*
X2380809Y5485980D01*
X2370018Y5487401D01*
D02*
G37*
G36*
X576504Y5480574D02*
X568436Y5479512D01*
X560918Y5476398D01*
X554462Y5471444D01*
X549508Y5464988D01*
X546394Y5457470D01*
X545332Y5449402D01*
X546394Y5441334D01*
X549508Y5433815D01*
X554462Y5427359D01*
X560918Y5422406D01*
X568436Y5419292D01*
X576504Y5418229D01*
X584572Y5419292D01*
X592090Y5422406D01*
X598546Y5427359D01*
X603500Y5433815D01*
X606614Y5441334D01*
X607676Y5449402D01*
X606614Y5457470D01*
X603500Y5464988D01*
X598546Y5471444D01*
X592090Y5476398D01*
X584572Y5479512D01*
X576504Y5480574D01*
D02*
G37*
G36*
X1676040Y5492200D02*
X1611985D01*
Y5455704D01*
X1676040D01*
Y5492200D01*
D02*
G37*
G36*
X254782Y5390872D02*
X247922Y5389969D01*
X236869Y5385391D01*
X227379Y5378109D01*
X220096Y5368618D01*
X215518Y5357566D01*
X214615Y5350706D01*
X254782D01*
Y5390872D01*
D02*
G37*
G36*
X264782D02*
Y5350706D01*
X304949D01*
X304046Y5357566D01*
X299467Y5368618D01*
X292185Y5378109D01*
X282694Y5385391D01*
X271642Y5389969D01*
X264782Y5390872D01*
D02*
G37*
G36*
X259782Y5487401D02*
X248990Y5485980D01*
X238934Y5481815D01*
X230299Y5475189D01*
X223673Y5466553D01*
X219507Y5456497D01*
X218087Y5445706D01*
X219507Y5434914D01*
X223673Y5424858D01*
X230299Y5416223D01*
X238934Y5409596D01*
X248990Y5405431D01*
X259782Y5404010D01*
X270573Y5405431D01*
X280630Y5409596D01*
X289265Y5416223D01*
X295891Y5424858D01*
X300056Y5434914D01*
X301477Y5445706D01*
X300056Y5456497D01*
X295891Y5466553D01*
X289265Y5475189D01*
X280630Y5481815D01*
X270573Y5485980D01*
X259782Y5487401D01*
D02*
G37*
%LPD*%
D11*
X613465Y1730000D02*
D03*
X546535D02*
D03*
X1013465Y1500000D02*
D03*
X946535D02*
D03*
X733465Y399999D02*
D03*
X666535D02*
D03*
X546535D02*
D03*
X613463D02*
D03*
X1003465Y140000D02*
D03*
X936535D02*
D03*
X743465Y1730000D02*
D03*
X676535D02*
D03*
X1246968Y483402D02*
D03*
X1180040D02*
D03*
X1228968Y1820402D02*
D03*
X1162040D02*
D03*
D12*
X1900000Y766535D02*
D03*
Y833465D02*
D03*
X1900001Y626535D02*
D03*
Y693465D02*
D03*
X1910000Y2263465D02*
D03*
Y2196535D02*
D03*
Y2143465D02*
D03*
Y2076535D02*
D03*
X1369504Y1886936D02*
D03*
Y1953866D02*
D03*
Y2072866D02*
D03*
Y2005936D02*
D03*
X1389504Y736716D02*
D03*
Y669786D02*
D03*
Y539936D02*
D03*
Y606866D02*
D03*
X1438504Y1123866D02*
D03*
Y1056936D02*
D03*
X1442504Y2479868D02*
D03*
Y2412938D02*
D03*
X2040001Y223464D02*
D03*
Y156536D02*
D03*
X2019999Y1603465D02*
D03*
Y1536535D02*
D03*
D15*
X1139820Y5070994D02*
D03*
Y5039498D02*
D03*
X1029504Y626150D02*
D03*
Y594654D02*
D03*
X1008504Y1969150D02*
D03*
Y1937654D02*
D03*
D19*
X540937Y1724402D02*
X543246Y1726710D01*
X225504Y1724402D02*
X540937D01*
X543246Y1613554D02*
Y1726710D01*
X645000Y1730000D02*
X676535D01*
X613465D02*
X645000D01*
X643246Y1728246D02*
X645000Y1730000D01*
X643246Y1613554D02*
Y1728246D01*
X676535Y1730000D02*
X676535Y1730000D01*
X1983464Y1500000D02*
X2019999Y1536535D01*
X1013465Y1500000D02*
X1983464D01*
X943246Y1503290D02*
X946535Y1500000D01*
X943246Y1503290D02*
Y1613554D01*
X2019999Y1536535D02*
X2026535Y1530000D01*
X2213102D01*
X2240504Y1557402D01*
X2172794Y1757402D02*
X2240504D01*
X1900000Y723390D02*
X2367504D01*
X1900000D02*
Y766535D01*
Y693467D02*
Y723390D01*
Y693467D02*
X1900001Y693465D01*
X2132797Y307402D02*
X2267504D01*
X1073504Y171402D02*
X1979080D01*
X2057698Y232303D02*
X2132797Y307402D01*
X1979080Y171402D02*
X2039982Y232303D01*
X2057698D01*
X2230102Y144804D02*
X2267504Y107402D01*
X2019410Y144804D02*
X2230102D01*
X1048504Y92402D02*
X1967008D01*
X2019410Y144804D01*
X593707Y190000D02*
X638324Y234617D01*
X278906Y190000D02*
X593707D01*
X209504Y259402D02*
X278906Y190000D01*
X209504Y359402D02*
X250000Y399898D01*
X546434D02*
X546535Y399999D01*
X250000Y399898D02*
X546434D01*
X538324Y260208D02*
X546535Y268419D01*
Y399999D01*
X936535Y140000D02*
X938324Y141788D01*
Y260208D01*
X1910000Y2267401D02*
X2237655D01*
X1910000Y2172402D02*
X2340504D01*
X1910000D02*
Y2196535D01*
Y2143465D02*
Y2172402D01*
X1443246Y1946353D02*
X1748625Y2251732D01*
X543246Y2514588D02*
X554584Y2503250D01*
X543246Y2514588D02*
Y2613554D01*
X605766Y2503250D02*
Y2550483D01*
X643246Y2587963D01*
X538324Y1146243D02*
X554567Y1130000D01*
X538324Y1146243D02*
Y1260208D01*
X630000Y1226293D02*
X638324Y1234617D01*
X630000Y1151112D02*
Y1226293D01*
X620000Y1141112D02*
X630000Y1151112D01*
X1172504Y1937182D02*
Y2089939D01*
Y1830866D02*
Y1937182D01*
X1171041Y2091402D02*
X1172504Y2089939D01*
X954504Y2091402D02*
X1171041D01*
X1611038Y2479868D02*
X1664504Y2426402D01*
X1442504Y2479868D02*
X1611038D01*
X1348913Y1776402D02*
Y1875203D01*
Y1727402D02*
Y1776402D01*
Y1626503D02*
Y1727402D01*
X1139504Y1776402D02*
X1348913D01*
X1089504Y1726402D02*
X1139504Y1776402D01*
X1064504Y1726402D02*
X1089504D01*
X1338324Y426402D02*
Y497614D01*
Y397402D02*
Y426402D01*
Y260208D02*
Y397402D01*
X914504Y426402D02*
X1338324D01*
X1195018Y726402D02*
Y744787D01*
Y592030D02*
Y726402D01*
X964504D02*
X1195018D01*
X926504Y688402D02*
X964504Y726402D01*
X911504Y688402D02*
X926504D01*
X1438324Y1111558D02*
Y1260208D01*
X1597504Y929402D02*
Y1059402D01*
X1533040Y1123866D02*
X1597504Y1059402D01*
X1438504Y1123866D02*
X1533040D01*
X1139820Y5070994D02*
X1140470Y5071644D01*
X1964506Y3798594D02*
X2022656Y3740444D01*
X259782Y6234418D02*
X262930Y6237568D01*
X259782Y4041506D02*
X260962Y4042688D01*
X1443246Y2496478D02*
Y2613554D01*
X743246Y1613554D02*
Y1722608D01*
X1643246Y1613554D02*
Y1818639D01*
X1238324Y1234617D02*
X1275528Y1197413D01*
X1238324Y1234617D02*
Y1260208D01*
X1307024Y1141112D02*
Y1203317D01*
X1338324Y1234617D01*
X643246Y2587963D02*
Y2613554D01*
X1315766Y2560483D02*
X1343246Y2587963D01*
X1315766Y2493250D02*
Y2560483D01*
X1343246Y2587963D02*
Y2613554D01*
X1243246Y2534274D02*
X1284270Y2493250D01*
X1243246Y2534274D02*
Y2613554D01*
X734190Y393082D02*
X738324Y388948D01*
Y260208D02*
Y388948D01*
X616080Y393082D02*
X641670D01*
X667262D01*
X1538324Y1285798D02*
X1573775Y1321250D01*
X1538324Y1260208D02*
Y1285798D01*
X1638324Y1234617D02*
Y1260208D01*
Y1234617D02*
X1751691Y1121250D01*
X2248505D02*
X2348505Y1221250D01*
X1643246Y2587963D02*
Y2613554D01*
X1543246D02*
Y2639144D01*
X1647503Y2743401D01*
X2223352D01*
X1887998Y623390D02*
X2267504D01*
X1638324Y260208D02*
Y373716D01*
X1887998Y623390D01*
X1881067Y823390D02*
X2267504D01*
X1438324Y260208D02*
Y380647D01*
X1881067Y823390D01*
X1538324Y260208D02*
Y389533D01*
X1337045Y258929D02*
X1338324Y260208D01*
X259782Y5840062D02*
X263588Y5843868D01*
X1245018Y485352D02*
X1246968Y483402D01*
X1191772Y495134D02*
Y588784D01*
X1180040Y483402D02*
X1191772Y495134D01*
X1295018Y592030D02*
X1298122Y595133D01*
X1338324Y497614D02*
X1380646Y539936D01*
X1348913Y1875203D02*
X1360646Y1886936D01*
X1222504Y1826866D02*
X1228968Y1820402D01*
X1162040D02*
X1172504Y1830866D01*
X1369504Y1953866D02*
Y2005936D01*
X1245018Y794787D02*
Y814472D01*
X1195018Y744787D02*
X1245018Y794787D01*
Y485352D02*
Y704898D01*
X1377772Y595133D02*
X1389504Y606866D01*
X1245018Y704898D02*
X1417913Y877793D01*
Y1045203D02*
X1429646Y1056936D01*
X1417913Y877793D02*
Y1045203D01*
X1429646Y1056936D02*
X1438504D01*
X1172504Y2089939D02*
X1222504Y2139939D01*
Y2159624D01*
X1421913Y2401205D02*
X1433646Y2412938D01*
X1222504Y2050050D02*
X1421913Y2249459D01*
X1065504Y1936402D02*
X1121724D01*
X1122504Y1937182D01*
X1008504Y1937654D02*
X1009130Y1937028D01*
X1139646Y597402D02*
X1145018Y592030D01*
X1085504Y597402D02*
X1139646D01*
X1030878Y596028D02*
X1084130D01*
X1029504Y594654D02*
X1030878Y596028D01*
X1145018Y814472D02*
X1146261Y815715D01*
Y917159D01*
X1123004Y2160124D02*
Y2261902D01*
X225504Y1624402D02*
X296470Y1553436D01*
X1748625Y2251732D02*
X1894331D01*
X1643246Y1818639D02*
X1892007Y2067401D01*
X2237655D01*
X1881192Y2172402D02*
X1910000D01*
X1145018Y814472D02*
X1195018D01*
X1122504Y2159624D02*
X1123004Y2160124D01*
X1122504Y2159624D02*
X1172504D01*
X1380646Y539936D02*
X1389504D01*
Y560936D01*
X1298122Y595133D02*
X1377772D01*
X1389504Y606866D02*
Y685936D01*
X296470Y1553436D02*
X608718D01*
X1123004Y2261902D02*
X1123504Y2262402D01*
X608718Y1553436D02*
X643246Y1587963D01*
X638324Y234618D02*
X641670Y237964D01*
X1901512Y5801402D02*
X1959664Y5743250D01*
X1956632Y4196508D02*
X2014782Y4138358D01*
X1222504Y1826866D02*
Y2050050D01*
X1421913Y2249459D02*
Y2401205D01*
X1272504Y1937182D02*
X1277456Y1942133D01*
X1357772D01*
X2221200Y2543401D02*
X2221352Y2543250D01*
X638324Y234617D02*
Y234618D01*
X641670Y237964D02*
Y393082D01*
X638324Y1234617D02*
Y1260208D01*
X1009130Y1937028D02*
X1064878D01*
X1065504Y1936402D01*
X1084130Y596028D02*
X1085504Y597402D01*
X1191772Y588784D02*
X1195018Y592030D01*
X1275528Y1141112D02*
Y1197413D01*
X1338324Y1234617D02*
Y1260208D01*
X1360646Y1886936D02*
X1369504D01*
X1357772Y1942133D02*
X1369504Y1953866D01*
X734190Y1731664D02*
X743246Y1722608D01*
X1433646Y2412938D02*
X1442504D01*
X1894331Y2251732D02*
X1910000Y2267401D01*
X1146261Y917159D02*
X1147504Y918402D01*
X885504Y1175402D02*
X1029772Y1031134D01*
X1189772D01*
X1295018Y925888D01*
Y814472D02*
Y925888D01*
X885504Y6670772D02*
X910962Y6696230D01*
X1709332Y6796230D02*
X1710962D01*
X1144290Y5110896D02*
Y5137489D01*
X1140470Y5071644D02*
Y5107076D01*
X1336110Y5274762D02*
X1519484Y5458136D01*
Y5835975D01*
X1538324Y389533D02*
X1872180Y723390D01*
X1900000D01*
X1001968Y138938D02*
Y144402D01*
Y138938D02*
X1048504Y92402D01*
X1303253Y396401D02*
X1337323D01*
X1338324Y397402D01*
X1038324Y206582D02*
Y260208D01*
Y206582D02*
X1073504Y171402D01*
X2267504Y307402D02*
X2367504Y207402D01*
X1573775Y1321250D02*
X2248505D01*
X1751691Y1121250D02*
X2248505D01*
X1687808Y2543401D02*
X2221200D01*
X2221352Y2543250D02*
X2221353D01*
X1315251Y1728401D02*
X1316251Y1727402D01*
X1348913D01*
X1341632Y1619221D02*
X1348913Y1626503D01*
X1043246Y1587963D02*
Y1613554D01*
X1077774Y1553435D02*
X1951111D01*
X1043246Y1587963D02*
X1077774Y1553435D01*
X1951111D02*
X2010542Y1612866D01*
X1543246Y1834456D02*
X1881192Y2172402D01*
X1443246Y1613554D02*
Y1946353D01*
X2010542Y1612866D02*
X2028259D01*
X2240504Y1757402D02*
X2340504Y1657402D01*
X885504Y1175402D02*
Y6670772D01*
X1543246Y1613554D02*
Y1834456D01*
X2223352Y2743401D02*
X2223504Y2743250D01*
X1643246Y2587963D02*
X1687808Y2543401D01*
X2221353Y2543250D02*
X2321504Y2643400D01*
Y2643402D01*
X2028259Y1612866D02*
X2172794Y1757402D01*
X2237655Y2267401D02*
X2240504Y2270250D01*
X2237655Y2067401D02*
X2240504Y2070250D01*
X1140470Y5107076D02*
X1144290Y5110896D01*
X1281563Y5274762D02*
X1336110D01*
X1144290Y5137489D02*
X1281563Y5274762D01*
X1519484Y5835975D02*
X1664504Y5980995D01*
Y6751402D01*
X1709332Y6796230D01*
X886820Y2511085D02*
X958915D01*
X1272504Y2197496D01*
Y2159624D02*
Y2197496D01*
D20*
X1992378Y4957254D02*
X2375924D01*
X1984112Y4543868D02*
X2375924D01*
X2022656Y3740444D02*
X2370018D01*
X2014782Y4138358D02*
X2370018D01*
X1986472Y5345706D02*
X2370018D01*
X1959664Y5743250D02*
X2370018D01*
D22*
X1914504Y6701402D02*
D03*
Y6801402D02*
D03*
X814504Y6701402D02*
D03*
X914504D02*
D03*
X1014504D02*
D03*
X1114504D02*
D03*
X1214504D02*
D03*
X1314504D02*
D03*
X1414504D02*
D03*
X1514504D02*
D03*
X1614504D02*
D03*
X1714504D02*
D03*
X814504Y6801402D02*
D03*
X914504D02*
D03*
X1014504D02*
D03*
X1114504D02*
D03*
X1214504D02*
D03*
X1314504D02*
D03*
X1414504D02*
D03*
X1514504D02*
D03*
X1614504D02*
D03*
X1714504D02*
D03*
X1814504D02*
D03*
Y6701402D02*
D03*
X2370018Y3740444D02*
D03*
Y3840444D02*
D03*
X259782Y4337568D02*
D03*
Y4437568D02*
D03*
Y4537568D02*
D03*
Y4637568D02*
D03*
X2375924Y4543868D02*
D03*
Y4643868D02*
D03*
Y4957254D02*
D03*
Y5057254D02*
D03*
X2370018Y4138358D02*
D03*
Y4238358D02*
D03*
Y5743250D02*
D03*
Y5843250D02*
D03*
X259782Y3551742D02*
D03*
Y3651742D02*
D03*
X2370018Y5345706D02*
D03*
Y5445706D02*
D03*
X259782Y3941506D02*
D03*
Y4041506D02*
D03*
Y5740062D02*
D03*
Y5840062D02*
D03*
Y5345706D02*
D03*
Y5445706D02*
D03*
Y4951348D02*
D03*
Y5051348D02*
D03*
Y6134418D02*
D03*
Y6234418D02*
D03*
D23*
X1664504Y2426402D02*
D03*
X1064504Y1726402D02*
D03*
X954504Y2091402D02*
D03*
Y2301402D02*
D03*
X914504Y426402D02*
D03*
X911504Y688402D02*
D03*
X909504Y917402D02*
D03*
X1597504Y929402D02*
D03*
D24*
X220412Y6700168D02*
D03*
X320412D02*
D03*
X420412D02*
D03*
Y6800168D02*
D03*
X320412D02*
D03*
X220412D02*
D03*
D25*
X543246Y1613554D02*
D03*
X538324Y260208D02*
D03*
D26*
X643246Y1613554D02*
D03*
X743246D02*
D03*
X843246D02*
D03*
X943246D02*
D03*
X1043246D02*
D03*
X1143246D02*
D03*
X1243246D02*
D03*
X1343246D02*
D03*
X1443246D02*
D03*
X1543246D02*
D03*
X1643246D02*
D03*
X1743246D02*
D03*
X1843246D02*
D03*
X543246Y2613554D02*
D03*
X643246D02*
D03*
X743246D02*
D03*
X843246D02*
D03*
X943246D02*
D03*
X1043246D02*
D03*
X1143246D02*
D03*
X1243246D02*
D03*
X1343246D02*
D03*
X1443246D02*
D03*
X1543246D02*
D03*
X1643246D02*
D03*
X1743246D02*
D03*
X1843246D02*
D03*
X638324Y260208D02*
D03*
X738324D02*
D03*
X838324D02*
D03*
X938324D02*
D03*
X1038324D02*
D03*
X1138324D02*
D03*
X1238324D02*
D03*
X1338324D02*
D03*
X1438324D02*
D03*
X1538324D02*
D03*
X1638324D02*
D03*
X1738324D02*
D03*
X1838324D02*
D03*
X538324Y1260208D02*
D03*
X638324D02*
D03*
X738324D02*
D03*
X838324D02*
D03*
X938324D02*
D03*
X1038324D02*
D03*
X1138324D02*
D03*
X1238324D02*
D03*
X1338324D02*
D03*
X1438324D02*
D03*
X1538324D02*
D03*
X1638324D02*
D03*
X1738324D02*
D03*
X1838324D02*
D03*
D27*
X2221505Y2743401D02*
D03*
Y2543401D02*
D03*
X2321505Y2643401D02*
D03*
X2248505Y1321250D02*
D03*
Y1121250D02*
D03*
X2348505Y1221250D02*
D03*
X2240504Y2267401D02*
D03*
Y2067401D02*
D03*
X2340504Y2167401D02*
D03*
X2267504Y823390D02*
D03*
Y623390D02*
D03*
X2367504Y723390D02*
D03*
X2240504Y1757402D02*
D03*
Y1557402D02*
D03*
X2340504Y1657402D02*
D03*
X2267504Y307402D02*
D03*
Y107402D02*
D03*
X2367504Y207402D02*
D03*
D28*
X209504Y359402D02*
D03*
Y259402D02*
D03*
X225504Y1724402D02*
D03*
Y1624402D02*
D03*
D29*
X570000Y6240000D02*
D03*
X510000Y4350000D02*
D03*
X1724348Y4105680D02*
D03*
Y4511190D02*
D03*
Y4924576D02*
D03*
Y5314340D02*
D03*
Y5715916D02*
D03*
X1884504Y5871402D02*
D03*
Y5801402D02*
D03*
Y5731402D02*
D03*
X1964504D02*
D03*
X2044504D02*
D03*
Y5801402D02*
D03*
Y5871402D02*
D03*
X1964504Y5801402D02*
D03*
Y5871402D02*
D03*
Y5477042D02*
D03*
Y5407042D02*
D03*
X2044504Y5477042D02*
D03*
Y5407042D02*
D03*
Y5337042D02*
D03*
X1964504D02*
D03*
X1884504D02*
D03*
Y5407042D02*
D03*
Y5477042D02*
D03*
X1964504Y5082686D02*
D03*
Y5012686D02*
D03*
X2044504Y5082686D02*
D03*
Y5012686D02*
D03*
Y4942686D02*
D03*
X1964504D02*
D03*
X1884504D02*
D03*
Y5012686D02*
D03*
Y5082686D02*
D03*
X1964504Y4668908D02*
D03*
Y4598908D02*
D03*
X2044504Y4668908D02*
D03*
Y4598908D02*
D03*
Y4528908D02*
D03*
X1964504D02*
D03*
X1884504D02*
D03*
Y4598908D02*
D03*
Y4668908D02*
D03*
X1964504Y4281402D02*
D03*
Y4211402D02*
D03*
X2044504Y4281402D02*
D03*
Y4211402D02*
D03*
Y4141402D02*
D03*
X1964504D02*
D03*
X1884504D02*
D03*
Y4211402D02*
D03*
Y4281402D02*
D03*
X1964504Y3881402D02*
D03*
Y3811402D02*
D03*
X2044504Y3881402D02*
D03*
Y3811402D02*
D03*
Y3741402D02*
D03*
X1964504D02*
D03*
X1884504D02*
D03*
Y3811402D02*
D03*
Y3881402D02*
D03*
X1724504Y3711402D02*
D03*
X1484504D02*
D03*
X1514504Y4111402D02*
D03*
X1065504Y1936402D02*
D03*
X1085504Y597402D02*
D03*
X1147504Y918402D02*
D03*
X1123504Y2262402D02*
D03*
X600000Y3660000D02*
D03*
X590000Y4050000D02*
D03*
X563504Y5043402D02*
D03*
X576504Y5449402D02*
D03*
X566504Y5844402D02*
D03*
X1321238Y5310668D02*
D03*
X580000Y4640000D02*
D03*
D30*
X1141120Y5107726D02*
D03*
X1080018Y5223250D02*
D03*
X1188050Y4908908D02*
D03*
X1294504Y5177402D02*
D03*
X1239504Y5196402D02*
D03*
X1163504Y5678402D02*
D03*
X1026504Y5707402D02*
D03*
X1100504Y5774402D02*
D03*
X1300504Y5089402D02*
D03*
X957504Y5681402D02*
D03*
D44*
X1334937Y1728402D02*
D03*
X1264071D02*
D03*
X554584Y2503250D02*
D03*
X625450D02*
D03*
X554567Y1130000D02*
D03*
X625433D02*
D03*
X1310433Y375000D02*
D03*
X1239567D02*
D03*
D45*
X1681042Y4106350D02*
D03*
Y4286664D02*
D03*
Y3708436D02*
D03*
Y3888752D02*
D03*
X1681040Y5711244D02*
D03*
Y5891558D02*
D03*
Y5316884D02*
D03*
Y5497200D02*
D03*
Y4508750D02*
D03*
Y4689066D02*
D03*
Y4922528D02*
D03*
Y5102844D02*
D03*
D46*
X1964506Y4196508D02*
D03*
Y3798594D02*
D03*
X1964504Y5801402D02*
D03*
Y5407042D02*
D03*
Y4598908D02*
D03*
Y5012686D02*
D03*
D47*
X1275528Y1141112D02*
D03*
X1307024D02*
D03*
X1284270Y2493250D02*
D03*
X1315766D02*
D03*
D48*
X1122504Y2159624D02*
D03*
X1172504D02*
D03*
X1222504D02*
D03*
X1272504D02*
D03*
X1122504Y1937182D02*
D03*
X1172504D02*
D03*
X1222504D02*
D03*
X1272504D02*
D03*
X1145018Y814472D02*
D03*
X1195018D02*
D03*
X1245018D02*
D03*
X1295018D02*
D03*
X1145018Y592030D02*
D03*
X1195018D02*
D03*
X1245018D02*
D03*
X1295018D02*
D03*
%TF.MD5,1d78e450ceb2e64d10d7233d63340c4d*%
M02*
