G04 Layer_Color=2752767*
%FSLAX26Y26*%
%MOIN*%
%TF.FileFunction,Drawing*%
%TF.Part,Single*%
G01*
G75*
%TA.AperFunction,NonConductor*%
%ADD180C,0.005000*%
%ADD181C,0.006667*%
%ADD182C,0.004000*%
D180*
X989748Y-2962567D02*
X989748Y-2922567D01*
X1029748Y-2922567D01*
X1029748Y-2962567D01*
X989748Y-2962567D01*
X989748Y-3062567D02*
X989748Y-3022567D01*
X1029748Y-3022567D01*
X1029748Y-3062567D01*
X989748Y-3062567D01*
X989748Y-3162567D02*
X989748Y-3122567D01*
X1029748Y-3122567D01*
X1029748Y-3162567D01*
X989748Y-3162567D01*
X989748Y-3262567D02*
X989748Y-3222567D01*
X1029748Y-3222567D01*
X1029748Y-3262567D01*
X989748Y-3262567D01*
X989748Y-3362567D02*
X989748Y-3322567D01*
X1029748Y-3322567D01*
X1029748Y-3362567D01*
X989748Y-3362567D01*
X989748Y-3462567D02*
X989748Y-3422567D01*
X1029748Y-3422567D01*
X1029748Y-3462567D01*
X989748Y-3462567D01*
X989748Y-3562567D02*
X989748Y-3522567D01*
X1029748Y-3522567D01*
X1029748Y-3562567D01*
X989748Y-3562567D01*
X989748Y-3662567D02*
X989748Y-3622567D01*
X1029748Y-3622567D01*
X1029748Y-3662567D01*
X989748Y-3662567D01*
X989748Y-3762567D02*
X989748Y-3722567D01*
X1029748Y-3722567D01*
X1029748Y-3762567D01*
X989748Y-3762567D01*
X989748Y-3862567D02*
X989748Y-3822567D01*
X1029748Y-3822567D01*
X1029748Y-3862567D01*
X989748Y-3862567D01*
X989748Y-3962567D02*
X989748Y-3922567D01*
X1029748Y-3922567D01*
X1029748Y-3962567D01*
X989748Y-3962567D01*
X989748Y-4062567D02*
X989748Y-4022567D01*
X1029748Y-4022567D01*
X1029748Y-4062567D01*
X989748Y-4062567D01*
X989748Y-4162567D02*
X989748Y-4122567D01*
X1029748Y-4122567D01*
X1029748Y-4162567D01*
X989748Y-4162567D01*
X989748Y-4262567D02*
X989748Y-4222567D01*
X1029748Y-4222567D01*
X1029748Y-4262567D01*
X989748Y-4262567D01*
X989748Y-4362567D02*
X989748Y-4322567D01*
X1029748Y-4322567D01*
X1029748Y-4362567D01*
X989748Y-4362567D01*
X989748Y-4462567D02*
X989748Y-4422567D01*
X1029748Y-4422567D01*
X1029748Y-4462567D01*
X989748Y-4462567D01*
X989748Y-4562567D02*
X989748Y-4522567D01*
X1029748Y-4522567D01*
X1029748Y-4562567D01*
X989748Y-4562567D01*
X989748Y-4662567D02*
X989748Y-4622567D01*
X1029748Y-4622567D01*
X1029748Y-4662567D01*
X989748Y-4662567D01*
X989748Y-4762567D02*
X989748Y-4722567D01*
X1029748Y-4722567D01*
X1029748Y-4762567D01*
X989748Y-4762567D01*
X989748Y-4862567D02*
X989748Y-4822567D01*
X1029748Y-4822567D01*
X1029748Y-4862567D01*
X989748Y-4862567D01*
X989748Y-4962567D02*
X989748Y-4922567D01*
X1029748Y-4922567D01*
X1029748Y-4962567D01*
X989748Y-4962567D01*
X989748Y-5062567D02*
X989748Y-5022567D01*
X1029748Y-5022567D01*
X1029748Y-5062567D01*
X989748Y-5062567D01*
X989748Y-5162567D02*
X989748Y-5122567D01*
X1029748Y-5122567D01*
X1029748Y-5162567D01*
X989748Y-5162567D01*
X889748Y-3062567D02*
X889748Y-3022567D01*
X929748Y-3022567D01*
X929748Y-3062567D01*
X889748Y-3062567D01*
X889748Y-3162567D02*
X889748Y-3122567D01*
X929748Y-3122567D01*
X929748Y-3162567D01*
X889748Y-3162567D01*
X889748Y-3262567D02*
X889748Y-3222567D01*
X929748Y-3222567D01*
X929748Y-3262567D01*
X889748Y-3262567D01*
X889748Y-3362567D02*
X889748Y-3322567D01*
X929748Y-3322567D01*
X929748Y-3362567D01*
X889748Y-3362567D01*
X889748Y-3462567D02*
X889748Y-3422567D01*
X929748Y-3422567D01*
X929748Y-3462567D01*
X889748Y-3462567D01*
X889748Y-3562567D02*
X889748Y-3522567D01*
X929748Y-3522567D01*
X929748Y-3562567D01*
X889748Y-3562567D01*
X889748Y-3662567D02*
X889748Y-3622567D01*
X929748Y-3622567D01*
X929748Y-3662567D01*
X889748Y-3662567D01*
X889748Y-3762567D02*
X889748Y-3722567D01*
X929748Y-3722567D01*
X929748Y-3762567D01*
X889748Y-3762567D01*
X889748Y-3862567D02*
X889748Y-3822567D01*
X929748Y-3822567D01*
X929748Y-3862567D01*
X889748Y-3862567D01*
X889748Y-3962567D02*
X889748Y-3922567D01*
X929748Y-3922567D01*
X929748Y-3962567D01*
X889748Y-3962567D01*
X889748Y-4062567D02*
X889748Y-4022567D01*
X929748Y-4022567D01*
X929748Y-4062567D01*
X889748Y-4062567D01*
X889748Y-4162567D02*
X889748Y-4122567D01*
X929748Y-4122567D01*
X929748Y-4162567D01*
X889748Y-4162567D01*
X889748Y-4262567D02*
X889748Y-4222567D01*
X929748Y-4222567D01*
X929748Y-4262567D01*
X889748Y-4262567D01*
X889748Y-4362567D02*
X889748Y-4322567D01*
X929748Y-4322567D01*
X929748Y-4362567D01*
X889748Y-4362567D01*
X889748Y-4462567D02*
X889748Y-4422567D01*
X929748Y-4422567D01*
X929748Y-4462567D01*
X889748Y-4462567D01*
X889748Y-4562567D02*
X889748Y-4522567D01*
X929748Y-4522567D01*
X929748Y-4562567D01*
X889748Y-4562567D01*
X889748Y-4662567D02*
X889748Y-4622567D01*
X929748Y-4622567D01*
X929748Y-4662567D01*
X889748Y-4662567D01*
X889748Y-4762567D02*
X889748Y-4722567D01*
X929748Y-4722567D01*
X929748Y-4762567D01*
X889748Y-4762567D01*
X889748Y-4862567D02*
X889748Y-4822567D01*
X929748Y-4822567D01*
X929748Y-4862567D01*
X889748Y-4862567D01*
X889748Y-4962567D02*
X889748Y-4922567D01*
X929748Y-4922567D01*
X929748Y-4962567D01*
X889748Y-4962567D01*
X889748Y-5062567D02*
X889748Y-5022567D01*
X929748Y-5022567D01*
X929748Y-5062567D01*
X889748Y-5062567D01*
X889748Y-5162567D02*
X889748Y-5122567D01*
X929748Y-5122567D01*
X929748Y-5162567D01*
X889748Y-5162567D01*
X2789748Y-2962567D02*
X2789748Y-2922567D01*
X2829748Y-2922567D01*
X2829748Y-2962567D01*
X2789748Y-2962567D01*
X2889748Y-2962567D02*
X2889748Y-2922567D01*
X2929748Y-2922567D01*
X2929748Y-2962567D01*
X2889748Y-2962567D01*
X2889748Y-3062567D02*
X2889748Y-3022567D01*
X2929748Y-3022567D01*
X2929748Y-3062567D01*
X2889748Y-3062567D01*
X2889748Y-3162567D02*
X2889748Y-3122567D01*
X2929748Y-3122567D01*
X2929748Y-3162567D01*
X2889748Y-3162567D01*
X2889748Y-3262567D02*
X2889748Y-3222567D01*
X2929748Y-3222567D01*
X2929748Y-3262567D01*
X2889748Y-3262567D01*
X2889748Y-3362567D02*
X2889748Y-3322567D01*
X2929748Y-3322567D01*
X2929748Y-3362567D01*
X2889748Y-3362567D01*
X2889748Y-3462567D02*
X2889748Y-3422567D01*
X2929748Y-3422567D01*
X2929748Y-3462567D01*
X2889748Y-3462567D01*
X2889748Y-3562567D02*
X2889748Y-3522567D01*
X2929748Y-3522567D01*
X2929748Y-3562567D01*
X2889748Y-3562567D01*
X2889748Y-3662567D02*
X2889748Y-3622567D01*
X2929748Y-3622567D01*
X2929748Y-3662567D01*
X2889748Y-3662567D01*
X2889748Y-3762567D02*
X2889748Y-3722567D01*
X2929748Y-3722567D01*
X2929748Y-3762567D01*
X2889748Y-3762567D01*
X2889748Y-3862567D02*
X2889748Y-3822567D01*
X2929748Y-3822567D01*
X2929748Y-3862567D01*
X2889748Y-3862567D01*
X2889748Y-3962567D02*
X2889748Y-3922567D01*
X2929748Y-3922567D01*
X2929748Y-3962567D01*
X2889748Y-3962567D01*
X2889748Y-4062567D02*
X2889748Y-4022567D01*
X2929748Y-4022567D01*
X2929748Y-4062567D01*
X2889748Y-4062567D01*
X2889748Y-4162567D02*
X2889748Y-4122567D01*
X2929748Y-4122567D01*
X2929748Y-4162567D01*
X2889748Y-4162567D01*
X2889748Y-4262567D02*
X2889748Y-4222567D01*
X2929748Y-4222567D01*
X2929748Y-4262567D01*
X2889748Y-4262567D01*
X2889748Y-4362567D02*
X2889748Y-4322567D01*
X2929748Y-4322567D01*
X2929748Y-4362567D01*
X2889748Y-4362567D01*
X2889748Y-4462567D02*
X2889748Y-4422567D01*
X2929748Y-4422567D01*
X2929748Y-4462567D01*
X2889748Y-4462567D01*
X2889748Y-4562567D02*
X2889748Y-4522567D01*
X2929748Y-4522567D01*
X2929748Y-4562567D01*
X2889748Y-4562567D01*
X2889748Y-4662567D02*
X2889748Y-4622567D01*
X2929748Y-4622567D01*
X2929748Y-4662567D01*
X2889748Y-4662567D01*
X2889748Y-4762567D02*
X2889748Y-4722567D01*
X2929748Y-4722567D01*
X2929748Y-4762567D01*
X2889748Y-4762567D01*
X2889748Y-4862567D02*
X2889748Y-4822567D01*
X2929748Y-4822567D01*
X2929748Y-4862567D01*
X2889748Y-4862567D01*
X2889748Y-4962567D02*
X2889748Y-4922567D01*
X2929748Y-4922567D01*
X2929748Y-4962567D01*
X2889748Y-4962567D01*
X2889748Y-5062567D02*
X2889748Y-5022567D01*
X2929748Y-5022567D01*
X2929748Y-5062567D01*
X2889748Y-5062567D01*
X2889748Y-5162567D02*
X2889748Y-5122567D01*
X2929748Y-5122567D01*
X2929748Y-5162567D01*
X2889748Y-5162567D01*
X2789748Y-3062567D02*
X2789748Y-3022567D01*
X2829748Y-3022567D01*
X2829748Y-3062567D01*
X2789748Y-3062567D01*
X2789748Y-3162567D02*
X2789748Y-3122567D01*
X2829748Y-3122567D01*
X2829748Y-3162567D01*
X2789748Y-3162567D01*
X2789748Y-3262567D02*
X2789748Y-3222567D01*
X2829748Y-3222567D01*
X2829748Y-3262567D01*
X2789748Y-3262567D01*
X2789748Y-3362567D02*
X2789748Y-3322567D01*
X2829748Y-3322567D01*
X2829748Y-3362567D01*
X2789748Y-3362567D01*
X2789748Y-3462567D02*
X2789748Y-3422567D01*
X2829748Y-3422567D01*
X2829748Y-3462567D01*
X2789748Y-3462567D01*
X2789748Y-3562567D02*
X2789748Y-3522567D01*
X2829748Y-3522567D01*
X2829748Y-3562567D01*
X2789748Y-3562567D01*
X2789748Y-3662567D02*
X2789748Y-3622567D01*
X2829748Y-3622567D01*
X2829748Y-3662567D01*
X2789748Y-3662567D01*
X2789748Y-3762567D02*
X2789748Y-3722567D01*
X2829748Y-3722567D01*
X2829748Y-3762567D01*
X2789748Y-3762567D01*
X2789748Y-3862567D02*
X2789748Y-3822567D01*
X2829748Y-3822567D01*
X2829748Y-3862567D01*
X2789748Y-3862567D01*
X2789748Y-3962567D02*
X2789748Y-3922567D01*
X2829748Y-3922567D01*
X2829748Y-3962567D01*
X2789748Y-3962567D01*
X2789748Y-4062567D02*
X2789748Y-4022567D01*
X2829748Y-4022567D01*
X2829748Y-4062567D01*
X2789748Y-4062567D01*
X2789748Y-4162567D02*
X2789748Y-4122567D01*
X2829748Y-4122567D01*
X2829748Y-4162567D01*
X2789748Y-4162567D01*
X2789748Y-4262567D02*
X2789748Y-4222567D01*
X2829748Y-4222567D01*
X2829748Y-4262567D01*
X2789748Y-4262567D01*
X2789748Y-4362567D02*
X2789748Y-4322567D01*
X2829748Y-4322567D01*
X2829748Y-4362567D01*
X2789748Y-4362567D01*
X2789748Y-4462567D02*
X2789748Y-4422567D01*
X2829748Y-4422567D01*
X2829748Y-4462567D01*
X2789748Y-4462567D01*
X2789748Y-4562567D02*
X2789748Y-4522567D01*
X2829748Y-4522567D01*
X2829748Y-4562567D01*
X2789748Y-4562567D01*
X2789748Y-4662567D02*
X2789748Y-4622567D01*
X2829748Y-4622567D01*
X2829748Y-4662567D01*
X2789748Y-4662567D01*
X2789748Y-4762567D02*
X2789748Y-4722567D01*
X2829748Y-4722567D01*
X2829748Y-4762567D01*
X2789748Y-4762567D01*
X2789748Y-4862567D02*
X2789748Y-4822567D01*
X2829748Y-4822567D01*
X2829748Y-4862567D01*
X2789748Y-4862567D01*
X2789748Y-4962567D02*
X2789748Y-4922567D01*
X2829748Y-4922567D01*
X2829748Y-4962567D01*
X2789748Y-4962567D01*
X2789748Y-5062567D02*
X2789748Y-5022567D01*
X2829748Y-5022567D01*
X2829748Y-5062567D01*
X2789748Y-5062567D01*
X2789748Y-5162567D02*
X2789748Y-5122567D01*
X2829748Y-5122567D01*
X2829748Y-5162567D01*
X2789748Y-5162567D01*
X185000Y-70000D02*
X165000Y-30000D01*
X205000Y-30000D01*
X185000Y-70000D01*
X35000Y-70000D02*
X15000Y-30000D01*
X55000Y-30000D01*
X35000Y-70000D01*
X85000Y-70000D02*
X65000Y-30000D01*
X105000Y-30000D01*
X85000Y-70000D01*
X-15000Y-70000D02*
X-5000Y-60000D01*
X5000Y-60000D01*
X-5000Y-50000D01*
X5000Y-40000D01*
X-5000Y-40000D01*
X-15000Y-30000D01*
X-25000Y-40000D01*
X-35000Y-40000D01*
X-25000Y-50000D01*
X-35000Y-60000D01*
X-25000Y-60000D01*
X-15000Y-70000D01*
X135000Y-70000D02*
X115000Y-30000D01*
X155000Y-30000D01*
X135000Y-70000D01*
X235000Y-70000D02*
X215000Y-30000D01*
X255000Y-30000D01*
X235000Y-70000D01*
X-15000Y-20000D02*
X-35000Y20000D01*
X5000Y20000D01*
X-15000Y-20000D01*
X35000Y-20000D02*
X15000Y20000D01*
X55000Y20000D01*
X35000Y-20000D01*
X85000Y-20000D02*
X65000Y20000D01*
X105000Y20000D01*
X85000Y-20000D01*
X135000Y-20000D02*
X115000Y20000D01*
X155000Y20000D01*
X135000Y-20000D01*
X185000Y-20000D02*
X165000Y20000D01*
X205000Y20000D01*
X185000Y-20000D01*
X235000Y-20000D02*
X215000Y20000D01*
X255000Y20000D01*
X235000Y-20000D01*
X708346Y-390846D02*
X718346Y-370846D01*
X708346Y-350846D01*
X728346Y-360846D01*
X748346Y-350846D01*
X738346Y-370846D01*
X748346Y-390846D01*
X728346Y-380846D01*
X708346Y-390846D01*
X708346Y681554D02*
X718346Y701554D01*
X708346Y721554D01*
X728346Y711554D01*
X748346Y721554D01*
X738346Y701554D01*
X748346Y681554D01*
X728346Y691554D01*
X708346Y681554D01*
X718346Y529654D02*
X718346Y519654D01*
X738346Y519654D01*
X738346Y529654D01*
X748346Y529654D01*
X748346Y549654D01*
X738346Y549654D01*
X738346Y559654D01*
X718346Y559654D01*
X718346Y549654D01*
X708346Y549654D01*
X708346Y529654D01*
X718346Y529654D01*
X716746Y-218946D02*
X716746Y-228946D01*
X736746Y-228946D01*
X736746Y-218946D01*
X746746Y-218946D01*
X746746Y-198946D01*
X736746Y-198946D01*
X736746Y-188946D01*
X716746Y-188946D01*
X716746Y-198946D01*
X706746Y-198946D01*
X706746Y-218946D01*
X716746Y-218946D01*
X380197Y-4274134D02*
X390197Y-4274134D01*
X400197Y-4264134D01*
X410197Y-4274134D01*
X420197Y-4274134D01*
X420197Y-4264134D01*
X410197Y-4254134D01*
X420197Y-4244134D01*
X420197Y-4234134D01*
X410197Y-4234134D01*
X400197Y-4244134D01*
X390197Y-4234134D01*
X380197Y-4234134D01*
X380197Y-4244134D01*
X390197Y-4254134D01*
X380197Y-4264134D01*
X380197Y-4274134D01*
X280197Y-4274134D02*
X290197Y-4274134D01*
X300197Y-4264134D01*
X310197Y-4274134D01*
X320197Y-4274134D01*
X320197Y-4264134D01*
X310197Y-4254134D01*
X320197Y-4244134D01*
X320197Y-4234134D01*
X310197Y-4234134D01*
X300197Y-4244134D01*
X290197Y-4234134D01*
X280197Y-4234134D01*
X280197Y-4244134D01*
X290197Y-4254134D01*
X280197Y-4264134D01*
X280197Y-4274134D01*
X180197Y-4274134D02*
X190197Y-4274134D01*
X200197Y-4264134D01*
X210197Y-4274134D01*
X220197Y-4274134D01*
X220197Y-4264134D01*
X210197Y-4254134D01*
X220197Y-4244134D01*
X220197Y-4234134D01*
X210197Y-4234134D01*
X200197Y-4244134D01*
X190197Y-4234134D01*
X180197Y-4234134D01*
X180197Y-4244134D01*
X190197Y-4254134D01*
X180197Y-4264134D01*
X180197Y-4274134D01*
X80197Y-4274134D02*
X90197Y-4274134D01*
X100197Y-4264134D01*
X110197Y-4274134D01*
X120197Y-4274134D01*
X120197Y-4264134D01*
X110197Y-4254134D01*
X120197Y-4244134D01*
X120197Y-4234134D01*
X110197Y-4234134D01*
X100197Y-4244134D01*
X90197Y-4234134D01*
X80197Y-4234134D01*
X80197Y-4244134D01*
X90197Y-4254134D01*
X80197Y-4264134D01*
X80197Y-4274134D01*
X80197Y-4174134D02*
X90197Y-4174134D01*
X100197Y-4164134D01*
X110197Y-4174134D01*
X120197Y-4174134D01*
X120197Y-4164134D01*
X110197Y-4154134D01*
X120197Y-4144134D01*
X120197Y-4134134D01*
X110197Y-4134134D01*
X100197Y-4144134D01*
X90197Y-4134134D01*
X80197Y-4134134D01*
X80197Y-4144134D01*
X90197Y-4154134D01*
X80197Y-4164134D01*
X80197Y-4174134D01*
X180197Y-4174134D02*
X190197Y-4174134D01*
X200197Y-4164134D01*
X210197Y-4174134D01*
X220197Y-4174134D01*
X220197Y-4164134D01*
X210197Y-4154134D01*
X220197Y-4144134D01*
X220197Y-4134134D01*
X210197Y-4134134D01*
X200197Y-4144134D01*
X190197Y-4134134D01*
X180197Y-4134134D01*
X180197Y-4144134D01*
X190197Y-4154134D01*
X180197Y-4164134D01*
X180197Y-4174134D01*
X280197Y-4174134D02*
X290197Y-4174134D01*
X300197Y-4164134D01*
X310197Y-4174134D01*
X320197Y-4174134D01*
X320197Y-4164134D01*
X310197Y-4154134D01*
X320197Y-4144134D01*
X320197Y-4134134D01*
X310197Y-4134134D01*
X300197Y-4144134D01*
X290197Y-4134134D01*
X280197Y-4134134D01*
X280197Y-4144134D01*
X290197Y-4154134D01*
X280197Y-4164134D01*
X280197Y-4174134D01*
X380197Y-4174134D02*
X390197Y-4174134D01*
X400197Y-4164134D01*
X410197Y-4174134D01*
X420197Y-4174134D01*
X420197Y-4164134D01*
X410197Y-4154134D01*
X420197Y-4144134D01*
X420197Y-4134134D01*
X410197Y-4134134D01*
X400197Y-4144134D01*
X390197Y-4134134D01*
X380197Y-4134134D01*
X380197Y-4144134D01*
X390197Y-4154134D01*
X380197Y-4164134D01*
X380197Y-4174134D01*
X1958346Y273622D02*
X1978346Y293622D01*
X1998346Y273622D01*
X1978346Y253622D01*
X1958346Y273622D01*
X1158346Y673622D02*
X1178346Y693622D01*
X1198346Y673622D01*
X1178346Y653622D01*
X1158346Y673622D01*
X1158346Y373622D02*
X1178346Y393622D01*
X1198346Y373622D01*
X1178346Y353622D01*
X1158346Y373622D01*
X1158346Y173622D02*
X1178346Y193622D01*
X1198346Y173622D01*
X1178346Y153622D01*
X1158346Y173622D01*
X1958346Y673622D02*
X1978346Y693622D01*
X1998346Y673622D01*
X1978346Y653622D01*
X1958346Y673622D01*
X1958346Y-126378D02*
X1978346Y-106378D01*
X1998346Y-126378D01*
X1978346Y-146378D01*
X1958346Y-126378D01*
X2007559Y-523937D02*
X2017559Y-523937D01*
X2027559Y-513937D01*
X2037559Y-523937D01*
X2047559Y-523937D01*
X2047559Y-513937D01*
X2037559Y-503937D01*
X2047559Y-493937D01*
X2047559Y-483937D01*
X2037559Y-483937D01*
X2027559Y-493937D01*
X2017559Y-483937D01*
X2007559Y-483937D01*
X2007559Y-493937D01*
X2017559Y-503937D01*
X2007559Y-513937D01*
X2007559Y-523937D01*
X2107559Y-523937D02*
X2117559Y-523937D01*
X2127559Y-513937D01*
X2137559Y-523937D01*
X2147559Y-523937D01*
X2147559Y-513937D01*
X2137559Y-503937D01*
X2147559Y-493937D01*
X2147559Y-483937D01*
X2137559Y-483937D01*
X2127559Y-493937D01*
X2117559Y-483937D01*
X2107559Y-483937D01*
X2107559Y-493937D01*
X2117559Y-503937D01*
X2107559Y-513937D01*
X2107559Y-523937D01*
X2207559Y-523937D02*
X2217559Y-523937D01*
X2227559Y-513937D01*
X2237559Y-523937D01*
X2247559Y-523937D01*
X2247559Y-513937D01*
X2237559Y-503937D01*
X2247559Y-493937D01*
X2247559Y-483937D01*
X2237559Y-483937D01*
X2227559Y-493937D01*
X2217559Y-483937D01*
X2207559Y-483937D01*
X2207559Y-493937D01*
X2217559Y-503937D01*
X2207559Y-513937D01*
X2207559Y-523937D01*
X2207559Y-423937D02*
X2217559Y-423937D01*
X2227559Y-413937D01*
X2237559Y-423937D01*
X2247559Y-423937D01*
X2247559Y-413937D01*
X2237559Y-403937D01*
X2247559Y-393937D01*
X2247559Y-383937D01*
X2237559Y-383937D01*
X2227559Y-393937D01*
X2217559Y-383937D01*
X2207559Y-383937D01*
X2207559Y-393937D01*
X2217559Y-403937D01*
X2207559Y-413937D01*
X2207559Y-423937D01*
X2107559Y-423937D02*
X2117559Y-423937D01*
X2127559Y-413937D01*
X2137559Y-423937D01*
X2147559Y-423937D01*
X2147559Y-413937D01*
X2137559Y-403937D01*
X2147559Y-393937D01*
X2147559Y-383937D01*
X2137559Y-383937D01*
X2127559Y-393937D01*
X2117559Y-383937D01*
X2107559Y-383937D01*
X2107559Y-393937D01*
X2117559Y-403937D01*
X2107559Y-413937D01*
X2107559Y-423937D01*
X2007559Y-423937D02*
X2017559Y-423937D01*
X2027559Y-413937D01*
X2037559Y-423937D01*
X2047559Y-423937D01*
X2047559Y-413937D01*
X2037559Y-403937D01*
X2047559Y-393937D01*
X2047559Y-383937D01*
X2037559Y-383937D01*
X2027559Y-393937D01*
X2017559Y-383937D01*
X2007559Y-383937D01*
X2007559Y-393937D01*
X2017559Y-403937D01*
X2007559Y-413937D01*
X2007559Y-423937D01*
X2905378Y2639433D02*
X2905378Y2679433D01*
X2945378Y2679433D01*
X2945378Y2639433D01*
X2905378Y2639433D01*
X2913378Y2647433D02*
X2913378Y2671433D01*
X2937378Y2671433D01*
X2937378Y2647433D01*
X2913378Y2647433D01*
X3005378Y2539433D02*
X3005378Y2579433D01*
X3045378Y2579433D01*
X3045378Y2539433D01*
X3005378Y2539433D01*
X3013378Y2547433D02*
X3013378Y2571433D01*
X3037378Y2571433D01*
X3037378Y2547433D01*
X3013378Y2547433D01*
X2805378Y2539433D02*
X2805378Y2579433D01*
X2845378Y2579433D01*
X2845378Y2539433D01*
X2805378Y2539433D01*
X2813378Y2547433D02*
X2813378Y2571433D01*
X2837378Y2571433D01*
X2837378Y2547433D01*
X2813378Y2547433D01*
X1869764Y-1547559D02*
X1879764Y-1547559D01*
X1889764Y-1537559D01*
X1899764Y-1547559D01*
X1909764Y-1547559D01*
X1909764Y-1537559D01*
X1899764Y-1527559D01*
X1909764Y-1517559D01*
X1909764Y-1507559D01*
X1899764Y-1507559D01*
X1889764Y-1517559D01*
X1879764Y-1507559D01*
X1869764Y-1507559D01*
X1869764Y-1517559D01*
X1879764Y-1527559D01*
X1869764Y-1537559D01*
X1869764Y-1547559D01*
X1969764Y-1547559D02*
X1979764Y-1547559D01*
X1989764Y-1537559D01*
X1999764Y-1547559D01*
X2009764Y-1547559D01*
X2009764Y-1537559D01*
X1999764Y-1527559D01*
X2009764Y-1517559D01*
X2009764Y-1507559D01*
X1999764Y-1507559D01*
X1989764Y-1517559D01*
X1979764Y-1507559D01*
X1969764Y-1507559D01*
X1969764Y-1517559D01*
X1979764Y-1527559D01*
X1969764Y-1537559D01*
X1969764Y-1547559D01*
X2069764Y-1547559D02*
X2079764Y-1547559D01*
X2089764Y-1537559D01*
X2099764Y-1547559D01*
X2109764Y-1547559D01*
X2109764Y-1537559D01*
X2099764Y-1527559D01*
X2109764Y-1517559D01*
X2109764Y-1507559D01*
X2099764Y-1507559D01*
X2089764Y-1517559D01*
X2079764Y-1507559D01*
X2069764Y-1507559D01*
X2069764Y-1517559D01*
X2079764Y-1527559D01*
X2069764Y-1537559D01*
X2069764Y-1547559D01*
X2169764Y-1547559D02*
X2179764Y-1547559D01*
X2189764Y-1537559D01*
X2199764Y-1547559D01*
X2209764Y-1547559D01*
X2209764Y-1537559D01*
X2199764Y-1527559D01*
X2209764Y-1517559D01*
X2209764Y-1507559D01*
X2199764Y-1507559D01*
X2189764Y-1517559D01*
X2179764Y-1507559D01*
X2169764Y-1507559D01*
X2169764Y-1517559D01*
X2179764Y-1527559D01*
X2169764Y-1537559D01*
X2169764Y-1547559D01*
X1810709Y-848740D02*
X1820709Y-848740D01*
X1830709Y-838740D01*
X1840709Y-848740D01*
X1850709Y-848740D01*
X1850709Y-838740D01*
X1840709Y-828740D01*
X1850709Y-818740D01*
X1850709Y-808740D01*
X1840709Y-808740D01*
X1830709Y-818740D01*
X1820709Y-808740D01*
X1810709Y-808740D01*
X1810709Y-818740D01*
X1820709Y-828740D01*
X1810709Y-838740D01*
X1810709Y-848740D01*
X1910709Y-848740D02*
X1920709Y-848740D01*
X1930709Y-838740D01*
X1940709Y-848740D01*
X1950709Y-848740D01*
X1950709Y-838740D01*
X1940709Y-828740D01*
X1950709Y-818740D01*
X1950709Y-808740D01*
X1940709Y-808740D01*
X1930709Y-818740D01*
X1920709Y-808740D01*
X1910709Y-808740D01*
X1910709Y-818740D01*
X1920709Y-828740D01*
X1910709Y-838740D01*
X1910709Y-848740D01*
X2010709Y-848740D02*
X2020709Y-848740D01*
X2030709Y-838740D01*
X2040709Y-848740D01*
X2050709Y-848740D01*
X2050709Y-838740D01*
X2040709Y-828740D01*
X2050709Y-818740D01*
X2050709Y-808740D01*
X2040709Y-808740D01*
X2030709Y-818740D01*
X2020709Y-808740D01*
X2010709Y-808740D01*
X2010709Y-818740D01*
X2020709Y-828740D01*
X2010709Y-838740D01*
X2010709Y-848740D01*
X2110709Y-848740D02*
X2120709Y-848740D01*
X2130709Y-838740D01*
X2140709Y-848740D01*
X2150709Y-848740D01*
X2150709Y-838740D01*
X2140709Y-828740D01*
X2150709Y-818740D01*
X2150709Y-808740D01*
X2140709Y-808740D01*
X2130709Y-818740D01*
X2120709Y-808740D01*
X2110709Y-808740D01*
X2110709Y-818740D01*
X2120709Y-828740D01*
X2110709Y-838740D01*
X2110709Y-848740D01*
X2361890Y-1153858D02*
X2371890Y-1153858D01*
X2381890Y-1143858D01*
X2391890Y-1153858D01*
X2401890Y-1153858D01*
X2401890Y-1143858D01*
X2391890Y-1133858D01*
X2401890Y-1123858D01*
X2401890Y-1113858D01*
X2391890Y-1113858D01*
X2381890Y-1123858D01*
X2371890Y-1113858D01*
X2361890Y-1113858D01*
X2361890Y-1123858D01*
X2371890Y-1133858D01*
X2361890Y-1143858D01*
X2361890Y-1153858D01*
X2461890Y-1153858D02*
X2471890Y-1153858D01*
X2481890Y-1143858D01*
X2491890Y-1153858D01*
X2501890Y-1153858D01*
X2501890Y-1143858D01*
X2491890Y-1133858D01*
X2501890Y-1123858D01*
X2501890Y-1113858D01*
X2491890Y-1113858D01*
X2481890Y-1123858D01*
X2471890Y-1113858D01*
X2461890Y-1113858D01*
X2461890Y-1123858D01*
X2471890Y-1133858D01*
X2461890Y-1143858D01*
X2461890Y-1153858D01*
X2561890Y-1153858D02*
X2571890Y-1153858D01*
X2581890Y-1143858D01*
X2591890Y-1153858D01*
X2601890Y-1153858D01*
X2601890Y-1143858D01*
X2591890Y-1133858D01*
X2601890Y-1123858D01*
X2601890Y-1113858D01*
X2591890Y-1113858D01*
X2581890Y-1123858D01*
X2571890Y-1113858D01*
X2561890Y-1113858D01*
X2561890Y-1123858D01*
X2571890Y-1133858D01*
X2561890Y-1143858D01*
X2561890Y-1153858D01*
X2661890Y-1153858D02*
X2671890Y-1153858D01*
X2681890Y-1143858D01*
X2691890Y-1153858D01*
X2701890Y-1153858D01*
X2701890Y-1143858D01*
X2691890Y-1133858D01*
X2701890Y-1123858D01*
X2701890Y-1113858D01*
X2691890Y-1113858D01*
X2681890Y-1123858D01*
X2671890Y-1113858D01*
X2661890Y-1113858D01*
X2661890Y-1123858D01*
X2671890Y-1133858D01*
X2661890Y-1143858D01*
X2661890Y-1153858D01*
X235905Y1306772D02*
X245905Y1306772D01*
X255905Y1316772D01*
X265906Y1306772D01*
X275906Y1306772D01*
X275906Y1316772D01*
X265906Y1326772D01*
X275906Y1336772D01*
X275906Y1346772D01*
X265906Y1346772D01*
X255905Y1336772D01*
X245905Y1346772D01*
X235905Y1346772D01*
X235905Y1336772D01*
X245905Y1326772D01*
X235905Y1316772D01*
X235905Y1306772D01*
X135905Y1306772D02*
X145905Y1306772D01*
X155905Y1316772D01*
X165905Y1306772D01*
X175905Y1306772D01*
X175905Y1316772D01*
X165905Y1326772D01*
X175905Y1336772D01*
X175905Y1346772D01*
X165905Y1346772D01*
X155905Y1336772D01*
X145905Y1346772D01*
X135905Y1346772D01*
X135905Y1336772D01*
X145905Y1326772D01*
X135905Y1316772D01*
X135905Y1306772D01*
X35906Y1306772D02*
X45906Y1306772D01*
X55906Y1316772D01*
X65906Y1306772D01*
X75906Y1306772D01*
X75906Y1316772D01*
X65906Y1326772D01*
X75906Y1336772D01*
X75906Y1346772D01*
X65906Y1346772D01*
X55906Y1336772D01*
X45906Y1346772D01*
X35906Y1346772D01*
X35906Y1336772D01*
X45906Y1326772D01*
X35906Y1316772D01*
X35906Y1306772D01*
X-64094Y1306772D02*
X-54094Y1306772D01*
X-44094Y1316772D01*
X-34094Y1306772D01*
X-24095Y1306772D01*
X-24095Y1316772D01*
X-34094Y1326772D01*
X-24095Y1336772D01*
X-24095Y1346772D01*
X-34094Y1346772D01*
X-44094Y1336772D01*
X-54094Y1346772D01*
X-64094Y1346772D01*
X-64094Y1336772D01*
X-54094Y1326772D01*
X-64094Y1316772D01*
X-64094Y1306772D01*
X387677Y-4875315D02*
X397677Y-4875315D01*
X407677Y-4865315D01*
X417677Y-4875315D01*
X427677Y-4875315D01*
X427677Y-4865315D01*
X417677Y-4855315D01*
X427677Y-4845315D01*
X427677Y-4835315D01*
X417677Y-4835315D01*
X407677Y-4845315D01*
X397677Y-4835315D01*
X387677Y-4835315D01*
X387677Y-4845315D01*
X397677Y-4855315D01*
X387677Y-4865315D01*
X387677Y-4875315D01*
X287677Y-4875315D02*
X297677Y-4875315D01*
X307677Y-4865315D01*
X317677Y-4875315D01*
X327677Y-4875315D01*
X327677Y-4865315D01*
X317677Y-4855315D01*
X327677Y-4845315D01*
X327677Y-4835315D01*
X317677Y-4835315D01*
X307677Y-4845315D01*
X297677Y-4835315D01*
X287677Y-4835315D01*
X287677Y-4845315D01*
X297677Y-4855315D01*
X287677Y-4865315D01*
X287677Y-4875315D01*
X187677Y-4875315D02*
X197677Y-4875315D01*
X207677Y-4865315D01*
X217677Y-4875315D01*
X227677Y-4875315D01*
X227677Y-4865315D01*
X217677Y-4855315D01*
X227677Y-4845315D01*
X227677Y-4835315D01*
X217677Y-4835315D01*
X207677Y-4845315D01*
X197677Y-4835315D01*
X187677Y-4835315D01*
X187677Y-4845315D01*
X197677Y-4855315D01*
X187677Y-4865315D01*
X187677Y-4875315D01*
X87677Y-4875315D02*
X97677Y-4875315D01*
X107677Y-4865315D01*
X117677Y-4875315D01*
X127677Y-4875315D01*
X127677Y-4865315D01*
X117677Y-4855315D01*
X127677Y-4845315D01*
X127677Y-4835315D01*
X117677Y-4835315D01*
X107677Y-4845315D01*
X97677Y-4835315D01*
X87677Y-4835315D01*
X87677Y-4845315D01*
X97677Y-4855315D01*
X87677Y-4865315D01*
X87677Y-4875315D01*
X2361890Y-1842835D02*
X2371890Y-1842835D01*
X2381890Y-1832835D01*
X2391890Y-1842835D01*
X2401890Y-1842835D01*
X2401890Y-1832835D01*
X2391890Y-1822835D01*
X2401890Y-1812835D01*
X2401890Y-1802835D01*
X2391890Y-1802835D01*
X2381890Y-1812835D01*
X2371890Y-1802835D01*
X2361890Y-1802835D01*
X2361890Y-1812835D01*
X2371890Y-1822835D01*
X2361890Y-1832835D01*
X2361890Y-1842835D01*
X2461890Y-1842835D02*
X2471890Y-1842835D01*
X2481890Y-1832835D01*
X2491890Y-1842835D01*
X2501890Y-1842835D01*
X2501890Y-1832835D01*
X2491890Y-1822835D01*
X2501890Y-1812835D01*
X2501890Y-1802835D01*
X2491890Y-1802835D01*
X2481890Y-1812835D01*
X2471890Y-1802835D01*
X2461890Y-1802835D01*
X2461890Y-1812835D01*
X2471890Y-1822835D01*
X2461890Y-1832835D01*
X2461890Y-1842835D01*
X2561890Y-1842835D02*
X2571890Y-1842835D01*
X2581890Y-1832835D01*
X2591890Y-1842835D01*
X2601890Y-1842835D01*
X2601890Y-1832835D01*
X2591890Y-1822835D01*
X2601890Y-1812835D01*
X2601890Y-1802835D01*
X2591890Y-1802835D01*
X2581890Y-1812835D01*
X2571890Y-1802835D01*
X2561890Y-1802835D01*
X2561890Y-1812835D01*
X2571890Y-1822835D01*
X2561890Y-1832835D01*
X2561890Y-1842835D01*
X2661890Y-1842835D02*
X2671890Y-1842835D01*
X2681890Y-1832835D01*
X2691890Y-1842835D01*
X2701890Y-1842835D01*
X2701890Y-1832835D01*
X2691890Y-1822835D01*
X2701890Y-1812835D01*
X2701890Y-1802835D01*
X2691890Y-1802835D01*
X2681890Y-1812835D01*
X2671890Y-1802835D01*
X2661890Y-1802835D01*
X2661890Y-1812835D01*
X2671890Y-1822835D01*
X2661890Y-1832835D01*
X2661890Y-1842835D01*
X177441Y-3719410D02*
X187441Y-3719410D01*
X197441Y-3709410D01*
X207441Y-3719410D01*
X217441Y-3719410D01*
X217441Y-3709410D01*
X207441Y-3699410D01*
X217441Y-3689410D01*
X217441Y-3679410D01*
X207441Y-3679410D01*
X197441Y-3689410D01*
X187441Y-3679410D01*
X177441Y-3679410D01*
X177441Y-3689410D01*
X187441Y-3699410D01*
X177441Y-3709410D01*
X177441Y-3719410D01*
X77441Y-3719410D02*
X87441Y-3719410D01*
X97441Y-3709410D01*
X107441Y-3719410D01*
X117441Y-3719410D01*
X117441Y-3709410D01*
X107441Y-3699410D01*
X117441Y-3689410D01*
X117441Y-3679410D01*
X107441Y-3679410D01*
X97441Y-3689410D01*
X87441Y-3679410D01*
X77441Y-3679410D01*
X77441Y-3689410D01*
X87441Y-3699410D01*
X77441Y-3709410D01*
X77441Y-3719410D01*
X-72559Y930591D02*
X-62559Y930591D01*
X-52559Y940591D01*
X-42559Y930591D01*
X-32559Y930591D01*
X-32559Y940591D01*
X-42559Y950591D01*
X-32559Y960591D01*
X-32559Y970591D01*
X-42559Y970591D01*
X-52559Y960591D01*
X-62559Y970591D01*
X-72559Y970591D01*
X-72559Y960591D01*
X-62559Y950591D01*
X-72559Y940591D01*
X-72559Y930591D01*
X327441Y930591D02*
X337441Y930591D01*
X347441Y940591D01*
X357441Y930591D01*
X367441Y930591D01*
X367441Y940591D01*
X357441Y950591D01*
X367441Y960591D01*
X367441Y970591D01*
X357441Y970591D01*
X347441Y960591D01*
X337441Y970591D01*
X327441Y970591D01*
X327441Y960591D01*
X337441Y950591D01*
X327441Y940591D01*
X327441Y930591D01*
X227441Y930591D02*
X237441Y930591D01*
X247441Y940591D01*
X257441Y930591D01*
X267441Y930591D01*
X267441Y940591D01*
X257441Y950591D01*
X267441Y960591D01*
X267441Y970591D01*
X257441Y970591D01*
X247441Y960591D01*
X237441Y970591D01*
X227441Y970591D01*
X227441Y960591D01*
X237441Y950591D01*
X227441Y940591D01*
X227441Y930591D01*
X127441Y930591D02*
X137441Y930591D01*
X147441Y940591D01*
X157441Y930591D01*
X167441Y930591D01*
X167441Y940591D01*
X157441Y950591D01*
X167441Y960591D01*
X167441Y970591D01*
X157441Y970591D01*
X147441Y960591D01*
X137441Y970591D01*
X127441Y970591D01*
X127441Y960591D01*
X137441Y950591D01*
X127441Y940591D01*
X127441Y930591D01*
X27441Y930591D02*
X37441Y930591D01*
X47441Y940591D01*
X57441Y930591D01*
X67441Y930591D01*
X67441Y940591D01*
X57441Y950591D01*
X67441Y960591D01*
X67441Y970591D01*
X57441Y970591D01*
X47441Y960591D01*
X37441Y970591D01*
X27441Y970591D01*
X27441Y960591D01*
X37441Y950591D01*
X27441Y940591D01*
X27441Y930591D01*
X1710378Y1905433D02*
X1690378Y1945433D01*
X1730378Y1945433D01*
X1710378Y1905433D01*
X1710378Y1913433D02*
X1698378Y1937433D01*
X1722378Y1937433D01*
X1710378Y1913433D01*
X1410378Y1905433D02*
X1390378Y1945433D01*
X1430378Y1945433D01*
X1410378Y1905433D01*
X1410378Y1913433D02*
X1398378Y1937433D01*
X1422378Y1937433D01*
X1410378Y1913433D01*
X2263780Y357165D02*
X2273780Y367165D01*
X2283780Y367165D01*
X2273780Y377165D01*
X2283780Y387165D01*
X2273780Y387165D01*
X2263780Y397165D01*
X2253780Y387165D01*
X2243780Y387165D01*
X2253780Y377165D01*
X2243780Y367165D01*
X2253780Y367165D01*
X2263780Y357165D01*
X2263780Y365165D02*
X2269780Y371165D01*
X2275780Y371165D01*
X2269780Y377165D01*
X2275780Y383165D01*
X2269780Y383165D01*
X2263780Y389165D01*
X2257780Y383165D01*
X2251780Y383165D01*
X2257780Y377165D01*
X2251780Y371165D01*
X2257780Y371165D01*
X2263780Y365165D01*
X2263780Y57165D02*
X2273780Y67165D01*
X2283780Y67165D01*
X2273780Y77165D01*
X2283780Y87165D01*
X2273780Y87165D01*
X2263780Y97165D01*
X2253780Y87165D01*
X2243780Y87165D01*
X2253780Y77165D01*
X2243780Y67165D01*
X2253780Y67165D01*
X2263780Y57165D01*
X2263780Y65165D02*
X2269780Y71165D01*
X2275780Y71165D01*
X2269780Y77165D01*
X2275780Y83165D01*
X2269780Y83165D01*
X2263780Y89165D01*
X2257780Y83165D01*
X2251780Y83165D01*
X2257780Y77165D01*
X2251780Y71165D01*
X2257780Y71165D01*
X2263780Y65165D01*
X2263780Y657165D02*
X2273780Y667165D01*
X2283780Y667165D01*
X2273780Y677165D01*
X2283780Y687165D01*
X2273780Y687165D01*
X2263780Y697165D01*
X2253780Y687165D01*
X2243780Y687165D01*
X2253780Y677165D01*
X2243780Y667165D01*
X2253780Y667165D01*
X2263780Y657165D01*
X2263780Y665165D02*
X2269780Y671165D01*
X2275780Y671165D01*
X2269780Y677165D01*
X2275780Y683165D01*
X2269780Y683165D01*
X2263780Y689165D01*
X2257780Y683165D01*
X2251780Y683165D01*
X2257780Y677165D01*
X2251780Y671165D01*
X2257780Y671165D01*
X2263780Y665165D01*
X3063780Y-142835D02*
X3073780Y-132835D01*
X3083780Y-132835D01*
X3073780Y-122835D01*
X3083780Y-112835D01*
X3073780Y-112835D01*
X3063780Y-102835D01*
X3053780Y-112835D01*
X3043780Y-112835D01*
X3053780Y-122835D01*
X3043780Y-132835D01*
X3053780Y-132835D01*
X3063780Y-142835D01*
X3063780Y-134835D02*
X3069780Y-128835D01*
X3075780Y-128835D01*
X3069780Y-122835D01*
X3075780Y-116835D01*
X3069780Y-116835D01*
X3063780Y-110835D01*
X3057780Y-116835D01*
X3051780Y-116835D01*
X3057780Y-122835D01*
X3051780Y-128835D01*
X3057780Y-128835D01*
X3063780Y-134835D01*
X3063780Y257165D02*
X3073780Y267165D01*
X3083780Y267165D01*
X3073780Y277165D01*
X3083780Y287165D01*
X3073780Y287165D01*
X3063780Y297165D01*
X3053780Y287165D01*
X3043780Y287165D01*
X3053780Y277165D01*
X3043780Y267165D01*
X3053780Y267165D01*
X3063780Y257165D01*
X3063780Y265165D02*
X3069780Y271165D01*
X3075780Y271165D01*
X3069780Y277165D01*
X3075780Y283165D01*
X3069780Y283165D01*
X3063780Y289165D01*
X3057780Y283165D01*
X3051780Y283165D01*
X3057780Y277165D01*
X3051780Y271165D01*
X3057780Y271165D01*
X3063780Y265165D01*
X3063780Y657165D02*
X3073780Y667165D01*
X3083780Y667165D01*
X3073780Y677165D01*
X3083780Y687165D01*
X3073780Y687165D01*
X3063780Y697165D01*
X3053780Y687165D01*
X3043780Y687165D01*
X3053780Y677165D01*
X3043780Y667165D01*
X3053780Y667165D01*
X3063780Y657165D01*
X3063780Y665165D02*
X3069780Y671165D01*
X3075780Y671165D01*
X3069780Y677165D01*
X3075780Y683165D01*
X3069780Y683165D01*
X3063780Y689165D01*
X3057780Y683165D01*
X3051780Y683165D01*
X3057780Y677165D01*
X3051780Y671165D01*
X3057780Y671165D01*
X3063780Y665165D01*
X189058Y290039D02*
X199058Y290039D01*
X209058Y300039D01*
X219058Y290039D01*
X229058Y290039D01*
X229058Y300039D01*
X219058Y310039D01*
X229058Y320039D01*
X229058Y330039D01*
X219058Y330039D01*
X209058Y320039D01*
X199058Y330039D01*
X189058Y330039D01*
X189058Y320039D01*
X199058Y310039D01*
X189058Y300039D01*
X189058Y290039D01*
X189058Y390039D02*
X199058Y390039D01*
X209058Y400039D01*
X219058Y390039D01*
X229058Y390039D01*
X229058Y400039D01*
X219058Y410039D01*
X229058Y420039D01*
X229058Y430039D01*
X219058Y430039D01*
X209058Y420039D01*
X199058Y430039D01*
X189058Y430039D01*
X189058Y420039D01*
X199058Y410039D01*
X189058Y400039D01*
X189058Y390039D01*
X189058Y490039D02*
X199058Y490039D01*
X209058Y500039D01*
X219058Y490039D01*
X229058Y490039D01*
X229058Y500039D01*
X219058Y510039D01*
X229058Y520039D01*
X229058Y530039D01*
X219058Y530039D01*
X209058Y520039D01*
X199058Y530039D01*
X189058Y530039D01*
X189058Y520039D01*
X199058Y510039D01*
X189058Y500039D01*
X189058Y490039D01*
X189058Y590039D02*
X199058Y590039D01*
X209058Y600039D01*
X219058Y590039D01*
X229058Y590039D01*
X229058Y600039D01*
X219058Y610039D01*
X229058Y620039D01*
X229058Y630039D01*
X219058Y630039D01*
X209058Y620039D01*
X199058Y630039D01*
X189058Y630039D01*
X189058Y620039D01*
X199058Y610039D01*
X189058Y600039D01*
X189058Y590039D01*
X-110942Y290039D02*
X-100942Y290039D01*
X-90942Y300039D01*
X-80942Y290039D01*
X-70942Y290039D01*
X-70942Y300039D01*
X-80942Y310039D01*
X-70942Y320039D01*
X-70942Y330039D01*
X-80942Y330039D01*
X-90942Y320039D01*
X-100942Y330039D01*
X-110942Y330039D01*
X-110942Y320039D01*
X-100942Y310039D01*
X-110942Y300039D01*
X-110942Y290039D01*
X-110942Y390039D02*
X-100942Y390039D01*
X-90942Y400039D01*
X-80942Y390039D01*
X-70942Y390039D01*
X-70942Y400039D01*
X-80942Y410039D01*
X-70942Y420039D01*
X-70942Y430039D01*
X-80942Y430039D01*
X-90942Y420039D01*
X-100942Y430039D01*
X-110942Y430039D01*
X-110942Y420039D01*
X-100942Y410039D01*
X-110942Y400039D01*
X-110942Y390039D01*
X-110942Y490039D02*
X-100942Y490039D01*
X-90942Y500039D01*
X-80942Y490039D01*
X-70942Y490039D01*
X-70942Y500039D01*
X-80942Y510039D01*
X-70942Y520039D01*
X-70942Y530039D01*
X-80942Y530039D01*
X-90942Y520039D01*
X-100942Y530039D01*
X-110942Y530039D01*
X-110942Y520039D01*
X-100942Y510039D01*
X-110942Y500039D01*
X-110942Y490039D01*
X-110942Y590039D02*
X-100942Y590039D01*
X-90942Y600039D01*
X-80942Y590039D01*
X-70942Y590039D01*
X-70942Y600039D01*
X-80942Y610039D01*
X-70942Y620039D01*
X-70942Y630039D01*
X-80942Y630039D01*
X-90942Y620039D01*
X-100942Y630039D01*
X-110942Y630039D01*
X-110942Y620039D01*
X-100942Y610039D01*
X-110942Y600039D01*
X-110942Y590039D01*
X876064Y1753229D02*
X886064Y1753229D01*
X896064Y1763229D01*
X906064Y1753229D01*
X916064Y1753229D01*
X916064Y1763229D01*
X906064Y1773229D01*
X916064Y1783229D01*
X916064Y1793229D01*
X906064Y1793229D01*
X896064Y1783229D01*
X886064Y1793229D01*
X876064Y1793229D01*
X876064Y1783229D01*
X886064Y1773229D01*
X876064Y1763229D01*
X876064Y1753229D01*
X876064Y1853229D02*
X886064Y1853229D01*
X896064Y1863229D01*
X906064Y1853229D01*
X916064Y1853229D01*
X916064Y1863229D01*
X906064Y1873229D01*
X916064Y1883229D01*
X916064Y1893229D01*
X906064Y1893229D01*
X896064Y1883229D01*
X886064Y1893229D01*
X876064Y1893229D01*
X876064Y1883229D01*
X886064Y1873229D01*
X876064Y1863229D01*
X876064Y1853229D01*
X876064Y1953229D02*
X886064Y1953229D01*
X896064Y1963229D01*
X906064Y1953229D01*
X916064Y1953229D01*
X916064Y1963229D01*
X906064Y1973229D01*
X916064Y1983229D01*
X916064Y1993229D01*
X906064Y1993229D01*
X896064Y1983229D01*
X886064Y1993229D01*
X876064Y1993229D01*
X876064Y1983229D01*
X886064Y1973229D01*
X876064Y1963229D01*
X876064Y1953229D01*
X876064Y2053229D02*
X886064Y2053229D01*
X896064Y2063229D01*
X906064Y2053229D01*
X916064Y2053229D01*
X916064Y2063229D01*
X906064Y2073229D01*
X916064Y2083229D01*
X916064Y2093229D01*
X906064Y2093229D01*
X896064Y2083229D01*
X886064Y2093229D01*
X876064Y2093229D01*
X876064Y2083229D01*
X886064Y2073229D01*
X876064Y2063229D01*
X876064Y2053229D01*
X576064Y1753229D02*
X586064Y1753229D01*
X596064Y1763229D01*
X606064Y1753229D01*
X616064Y1753229D01*
X616064Y1763229D01*
X606064Y1773229D01*
X616064Y1783229D01*
X616064Y1793229D01*
X606064Y1793229D01*
X596064Y1783229D01*
X586064Y1793229D01*
X576064Y1793229D01*
X576064Y1783229D01*
X586064Y1773229D01*
X576064Y1763229D01*
X576064Y1753229D01*
X576064Y1853229D02*
X586064Y1853229D01*
X596064Y1863229D01*
X606064Y1853229D01*
X616064Y1853229D01*
X616064Y1863229D01*
X606064Y1873229D01*
X616064Y1883229D01*
X616064Y1893229D01*
X606064Y1893229D01*
X596064Y1883229D01*
X586064Y1893229D01*
X576064Y1893229D01*
X576064Y1883229D01*
X586064Y1873229D01*
X576064Y1863229D01*
X576064Y1853229D01*
X576064Y1953229D02*
X586064Y1953229D01*
X596064Y1963229D01*
X606064Y1953229D01*
X616064Y1953229D01*
X616064Y1963229D01*
X606064Y1973229D01*
X616064Y1983229D01*
X616064Y1993229D01*
X606064Y1993229D01*
X596064Y1983229D01*
X586064Y1993229D01*
X576064Y1993229D01*
X576064Y1983229D01*
X586064Y1973229D01*
X576064Y1963229D01*
X576064Y1953229D01*
X576064Y2053229D02*
X586064Y2053229D01*
X596064Y2063229D01*
X606064Y2053229D01*
X616064Y2053229D01*
X616064Y2063229D01*
X606064Y2073229D01*
X616064Y2083229D01*
X616064Y2093229D01*
X606064Y2093229D01*
X596064Y2083229D01*
X586064Y2093229D01*
X576064Y2093229D01*
X576064Y2083229D01*
X586064Y2073229D01*
X576064Y2063229D01*
X576064Y2053229D01*
X883542Y1266613D02*
X893542Y1286613D01*
X883542Y1306613D01*
X903542Y1296613D01*
X923542Y1306613D01*
X913542Y1286613D01*
X923542Y1266613D01*
X903542Y1276613D01*
X883542Y1266613D01*
X891542Y1274613D02*
X897542Y1286613D01*
X891542Y1298613D01*
X903542Y1292613D01*
X915542Y1298613D01*
X909542Y1286613D01*
X915542Y1274613D01*
X903542Y1280613D01*
X891542Y1274613D01*
X883542Y1366613D02*
X893542Y1386613D01*
X883542Y1406613D01*
X903542Y1396613D01*
X923542Y1406613D01*
X913542Y1386613D01*
X923542Y1366613D01*
X903542Y1376613D01*
X883542Y1366613D01*
X891542Y1374613D02*
X897542Y1386613D01*
X891542Y1398613D01*
X903542Y1392613D01*
X915542Y1398613D01*
X909542Y1386613D01*
X915542Y1374613D01*
X903542Y1380613D01*
X891542Y1374613D01*
X558738Y-5405827D02*
X568738Y-5405827D01*
X578738Y-5395827D01*
X588738Y-5405827D01*
X598738Y-5405827D01*
X598738Y-5395827D01*
X588738Y-5385827D01*
X598738Y-5375827D01*
X598738Y-5365827D01*
X588738Y-5365827D01*
X578738Y-5375827D01*
X568738Y-5365827D01*
X558738Y-5365827D01*
X558738Y-5375827D01*
X568738Y-5385827D01*
X558738Y-5395827D01*
X558738Y-5405827D01*
X458738Y-5405827D02*
X468738Y-5405827D01*
X478738Y-5395827D01*
X488738Y-5405827D01*
X498738Y-5405827D01*
X498738Y-5395827D01*
X488738Y-5385827D01*
X498738Y-5375827D01*
X498738Y-5365827D01*
X488738Y-5365827D01*
X478738Y-5375827D01*
X468738Y-5365827D01*
X458738Y-5365827D01*
X458738Y-5375827D01*
X468738Y-5385827D01*
X458738Y-5395827D01*
X458738Y-5405827D01*
X358738Y-5405827D02*
X368738Y-5405827D01*
X378738Y-5395827D01*
X388738Y-5405827D01*
X398738Y-5405827D01*
X398738Y-5395827D01*
X388738Y-5385827D01*
X398738Y-5375827D01*
X398738Y-5365827D01*
X388738Y-5365827D01*
X378738Y-5375827D01*
X368738Y-5365827D01*
X358738Y-5365827D01*
X358738Y-5375827D01*
X368738Y-5385827D01*
X358738Y-5395827D01*
X358738Y-5405827D01*
X258738Y-5405827D02*
X268738Y-5405827D01*
X278738Y-5395827D01*
X288738Y-5405827D01*
X298738Y-5405827D01*
X298738Y-5395827D01*
X288738Y-5385827D01*
X298738Y-5375827D01*
X298738Y-5365827D01*
X288738Y-5365827D01*
X278738Y-5375827D01*
X268738Y-5365827D01*
X258738Y-5365827D01*
X258738Y-5375827D01*
X268738Y-5385827D01*
X258738Y-5395827D01*
X258738Y-5405827D01*
X158738Y-5405827D02*
X168738Y-5405827D01*
X178738Y-5395827D01*
X188738Y-5405827D01*
X198738Y-5405827D01*
X198738Y-5395827D01*
X188738Y-5385827D01*
X198738Y-5375827D01*
X198738Y-5365827D01*
X188738Y-5365827D01*
X178738Y-5375827D01*
X168738Y-5365827D01*
X158738Y-5365827D01*
X158738Y-5375827D01*
X168738Y-5385827D01*
X158738Y-5395827D01*
X158738Y-5405827D01*
X58738Y-5405827D02*
X68738Y-5405827D01*
X78738Y-5395827D01*
X88738Y-5405827D01*
X98738Y-5405827D01*
X98738Y-5395827D01*
X88738Y-5385827D01*
X98738Y-5375827D01*
X98738Y-5365827D01*
X88738Y-5365827D01*
X78738Y-5375827D01*
X68738Y-5365827D01*
X58738Y-5365827D01*
X58738Y-5375827D01*
X68738Y-5385827D01*
X58738Y-5395827D01*
X58738Y-5405827D01*
X2298960Y-3267527D02*
X2298960Y-3277527D01*
X2318960Y-3277527D01*
X2318960Y-3267527D01*
X2328960Y-3267527D01*
X2328960Y-3247527D01*
X2318960Y-3247527D01*
X2318960Y-3237527D01*
X2298960Y-3237527D01*
X2298960Y-3247527D01*
X2288960Y-3247527D01*
X2288960Y-3267527D01*
X2298960Y-3267527D01*
X2302960Y-3263527D02*
X2302960Y-3269527D01*
X2314960Y-3269527D01*
X2314960Y-3263527D01*
X2320960Y-3263527D01*
X2320960Y-3251527D01*
X2314960Y-3251527D01*
X2314960Y-3245527D01*
X2302960Y-3245527D01*
X2302960Y-3251527D01*
X2296960Y-3251527D01*
X2296960Y-3263527D01*
X2302960Y-3263527D01*
X2338330Y-2322645D02*
X2338330Y-2332645D01*
X2358330Y-2332645D01*
X2358330Y-2322645D01*
X2368330Y-2322645D01*
X2368330Y-2302645D01*
X2358330Y-2302645D01*
X2358330Y-2292645D01*
X2338330Y-2292645D01*
X2338330Y-2302645D01*
X2328330Y-2302645D01*
X2328330Y-2322645D01*
X2338330Y-2322645D01*
X2342330Y-2318645D02*
X2342330Y-2324645D01*
X2354330Y-2324645D01*
X2354330Y-2318645D01*
X2360330Y-2318645D01*
X2360330Y-2306645D01*
X2354330Y-2306645D01*
X2354330Y-2300645D01*
X2342330Y-2300645D01*
X2342330Y-2306645D01*
X2336330Y-2306645D01*
X2336330Y-2318645D01*
X2342330Y-2318645D01*
X1354078Y-2283275D02*
X1354078Y-2293275D01*
X1374078Y-2293275D01*
X1374078Y-2283275D01*
X1384078Y-2283275D01*
X1384078Y-2263275D01*
X1374078Y-2263275D01*
X1374078Y-2253275D01*
X1354078Y-2253275D01*
X1354078Y-2263275D01*
X1344078Y-2263275D01*
X1344078Y-2283275D01*
X1354078Y-2283275D01*
X1358078Y-2279275D02*
X1358078Y-2285275D01*
X1370078Y-2285275D01*
X1370078Y-2279275D01*
X1376078Y-2279275D01*
X1376078Y-2267275D01*
X1370078Y-2267275D01*
X1370078Y-2261275D01*
X1358078Y-2261275D01*
X1358078Y-2267275D01*
X1352078Y-2267275D01*
X1352078Y-2279275D01*
X1358078Y-2279275D01*
X1354078Y-3228157D02*
X1354078Y-3238157D01*
X1374078Y-3238157D01*
X1374078Y-3228157D01*
X1384078Y-3228157D01*
X1384078Y-3208157D01*
X1374078Y-3208157D01*
X1374078Y-3198157D01*
X1354078Y-3198157D01*
X1354078Y-3208157D01*
X1344078Y-3208157D01*
X1344078Y-3228157D01*
X1354078Y-3228157D01*
X1358078Y-3224157D02*
X1358078Y-3230157D01*
X1370078Y-3230157D01*
X1370078Y-3224157D01*
X1376078Y-3224157D01*
X1376078Y-3212157D01*
X1370078Y-3212157D01*
X1370078Y-3206157D01*
X1358078Y-3206157D01*
X1358078Y-3212157D01*
X1352078Y-3212157D01*
X1352078Y-3224157D01*
X1358078Y-3224157D01*
X1189748Y-5237567D02*
X1199748Y-5237567D01*
X1209748Y-5227567D01*
X1219748Y-5237567D01*
X1229748Y-5237567D01*
X1229748Y-5227567D01*
X1219748Y-5217567D01*
X1229748Y-5207567D01*
X1229748Y-5197567D01*
X1219748Y-5197567D01*
X1209748Y-5207567D01*
X1199748Y-5197567D01*
X1189748Y-5197567D01*
X1189748Y-5207567D01*
X1199748Y-5217567D01*
X1189748Y-5227567D01*
X1189748Y-5237567D01*
X1197748Y-5229567D02*
X1203748Y-5229567D01*
X1209748Y-5223567D01*
X1215748Y-5229567D01*
X1221748Y-5229567D01*
X1221748Y-5223567D01*
X1215748Y-5217567D01*
X1221748Y-5211567D01*
X1221748Y-5205567D01*
X1215748Y-5205567D01*
X1209748Y-5211567D01*
X1203748Y-5205567D01*
X1197748Y-5205567D01*
X1197748Y-5211567D01*
X1203748Y-5217567D01*
X1197748Y-5223567D01*
X1197748Y-5229567D01*
X2686694Y-5386141D02*
X2696694Y-5386141D01*
X2706694Y-5376141D01*
X2716694Y-5386141D01*
X2726694Y-5386141D01*
X2726694Y-5376141D01*
X2716694Y-5366141D01*
X2726694Y-5356141D01*
X2726694Y-5346141D01*
X2716694Y-5346141D01*
X2706694Y-5356141D01*
X2696694Y-5346141D01*
X2686694Y-5346141D01*
X2686694Y-5356141D01*
X2696694Y-5366141D01*
X2686694Y-5376141D01*
X2686694Y-5386141D01*
X2694694Y-5378141D02*
X2700694Y-5378141D01*
X2706694Y-5372141D01*
X2712694Y-5378141D01*
X2718694Y-5378141D01*
X2718694Y-5372141D01*
X2712694Y-5366141D01*
X2718694Y-5360141D01*
X2718694Y-5354141D01*
X2712694Y-5354141D01*
X2706694Y-5360141D01*
X2700694Y-5354141D01*
X2694694Y-5354141D01*
X2694694Y-5360141D01*
X2700694Y-5366141D01*
X2694694Y-5372141D01*
X2694694Y-5378141D01*
X2814646Y-2748347D02*
X2824646Y-2748347D01*
X2834646Y-2738347D01*
X2844646Y-2748347D01*
X2854646Y-2748347D01*
X2854646Y-2738347D01*
X2844646Y-2728347D01*
X2854646Y-2718347D01*
X2854646Y-2708347D01*
X2844646Y-2708347D01*
X2834646Y-2718347D01*
X2824646Y-2708347D01*
X2814646Y-2708347D01*
X2814646Y-2718347D01*
X2824646Y-2728347D01*
X2814646Y-2738347D01*
X2814646Y-2748347D01*
X2822646Y-2740347D02*
X2828646Y-2740347D01*
X2834646Y-2734347D01*
X2840646Y-2740347D01*
X2846646Y-2740347D01*
X2846646Y-2734347D01*
X2840646Y-2728347D01*
X2846646Y-2722347D01*
X2846646Y-2716347D01*
X2840646Y-2716347D01*
X2834646Y-2722347D01*
X2828646Y-2716347D01*
X2822646Y-2716347D01*
X2822646Y-2722347D01*
X2828646Y-2728347D01*
X2822646Y-2734347D01*
X2822646Y-2740347D01*
X939748Y-2737567D02*
X949748Y-2737567D01*
X959748Y-2727567D01*
X969748Y-2737567D01*
X979748Y-2737567D01*
X979748Y-2727567D01*
X969748Y-2717567D01*
X979748Y-2707567D01*
X979748Y-2697567D01*
X969748Y-2697567D01*
X959748Y-2707567D01*
X949748Y-2697567D01*
X939748Y-2697567D01*
X939748Y-2707567D01*
X949748Y-2717567D01*
X939748Y-2727567D01*
X939748Y-2737567D01*
X947748Y-2729567D02*
X953748Y-2729567D01*
X959748Y-2723567D01*
X965748Y-2729567D01*
X971748Y-2729567D01*
X971748Y-2723567D01*
X965748Y-2717567D01*
X971748Y-2711567D01*
X971748Y-2705567D01*
X965748Y-2705567D01*
X959748Y-2711567D01*
X953748Y-2705567D01*
X947748Y-2705567D01*
X947748Y-2711567D01*
X953748Y-2717567D01*
X947748Y-2723567D01*
X947748Y-2729567D01*
X-47558Y-544409D02*
X-37558Y-544409D01*
X-27558Y-534409D01*
X-17558Y-544409D01*
X-7558Y-544409D01*
X-7558Y-534409D01*
X-17558Y-524409D01*
X-7558Y-514409D01*
X-7558Y-504409D01*
X-17558Y-504409D01*
X-27558Y-514409D01*
X-37558Y-504409D01*
X-47558Y-504409D01*
X-47558Y-514409D01*
X-37558Y-524409D01*
X-47558Y-534409D01*
X-47558Y-544409D01*
X-39558Y-536409D02*
X-33558Y-536409D01*
X-27558Y-530409D01*
X-21558Y-536409D01*
X-15558Y-536409D01*
X-15558Y-530409D01*
X-21558Y-524409D01*
X-15558Y-518409D01*
X-15558Y-512409D01*
X-21558Y-512409D01*
X-27558Y-518409D01*
X-33558Y-512409D01*
X-39558Y-512409D01*
X-39558Y-518409D01*
X-33558Y-524409D01*
X-39558Y-530409D01*
X-39558Y-536409D01*
X54804Y-2831023D02*
X64804Y-2831023D01*
X74804Y-2821023D01*
X84804Y-2831023D01*
X94804Y-2831023D01*
X94804Y-2821023D01*
X84804Y-2811023D01*
X94804Y-2801023D01*
X94804Y-2791023D01*
X84804Y-2791023D01*
X74804Y-2801023D01*
X64804Y-2791023D01*
X54804Y-2791023D01*
X54804Y-2801023D01*
X64804Y-2811023D01*
X54804Y-2821023D01*
X54804Y-2831023D01*
X62804Y-2823023D02*
X68804Y-2823023D01*
X74804Y-2817023D01*
X80804Y-2823023D01*
X86804Y-2823023D01*
X86804Y-2817023D01*
X80804Y-2811023D01*
X86804Y-2805023D01*
X86804Y-2799023D01*
X80804Y-2799023D01*
X74804Y-2805023D01*
X68804Y-2799023D01*
X62804Y-2799023D01*
X62804Y-2805023D01*
X68804Y-2811023D01*
X62804Y-2817023D01*
X62804Y-2823023D01*
X1452442Y-1791653D02*
X1462442Y-1791653D01*
X1472442Y-1781653D01*
X1482442Y-1791653D01*
X1492442Y-1791653D01*
X1492442Y-1781653D01*
X1482442Y-1771653D01*
X1492442Y-1761653D01*
X1492442Y-1751653D01*
X1482442Y-1751653D01*
X1472442Y-1761653D01*
X1462442Y-1751653D01*
X1452442Y-1751653D01*
X1452442Y-1761653D01*
X1462442Y-1771653D01*
X1452442Y-1781653D01*
X1452442Y-1791653D01*
X1460442Y-1783653D02*
X1466442Y-1783653D01*
X1472442Y-1777653D01*
X1478442Y-1783653D01*
X1484442Y-1783653D01*
X1484442Y-1777653D01*
X1478442Y-1771653D01*
X1484442Y-1765653D01*
X1484442Y-1759653D01*
X1478442Y-1759653D01*
X1472442Y-1765653D01*
X1466442Y-1759653D01*
X1460442Y-1759653D01*
X1460442Y-1765653D01*
X1466442Y-1771653D01*
X1460442Y-1777653D01*
X1460442Y-1783653D01*
X1452442Y-544409D02*
X1462442Y-544409D01*
X1472442Y-534409D01*
X1482442Y-544409D01*
X1492442Y-544409D01*
X1492442Y-534409D01*
X1482442Y-524409D01*
X1492442Y-514409D01*
X1492442Y-504409D01*
X1482442Y-504409D01*
X1472442Y-514409D01*
X1462442Y-504409D01*
X1452442Y-504409D01*
X1452442Y-514409D01*
X1462442Y-524409D01*
X1452442Y-534409D01*
X1452442Y-544409D01*
X1460442Y-536409D02*
X1466442Y-536409D01*
X1472442Y-530409D01*
X1478442Y-536409D01*
X1484442Y-536409D01*
X1484442Y-530409D01*
X1478442Y-524409D01*
X1484442Y-518409D01*
X1484442Y-512409D01*
X1478442Y-512409D01*
X1472442Y-518409D01*
X1466442Y-512409D01*
X1460442Y-512409D01*
X1460442Y-518409D01*
X1466442Y-524409D01*
X1460442Y-530409D01*
X1460442Y-536409D01*
X1003740Y925591D02*
X1003740Y958914D01*
X1020401Y975575D01*
X1037062Y958914D01*
X1037062Y925591D01*
X1037062Y950583D01*
X1003740Y950583D01*
X805314Y925591D02*
X805314Y958914D01*
X821975Y975575D01*
X838636Y958914D01*
X838636Y925591D01*
X838636Y950583D01*
X805314Y950583D01*
X1648622Y975575D02*
X1648622Y925591D01*
X1673614Y925591D01*
X1681945Y933922D01*
X1681945Y942252D01*
X1673614Y950583D01*
X1648622Y950583D01*
X1673614Y950583D01*
X1681945Y958914D01*
X1681945Y967244D01*
X1673614Y975575D01*
X1648622Y975575D01*
X1797440Y975575D02*
X1797440Y925591D01*
X1822432Y925591D01*
X1830763Y933922D01*
X1830763Y942252D01*
X1822432Y950583D01*
X1797440Y950583D01*
X1822432Y950583D01*
X1830763Y958914D01*
X1830763Y967244D01*
X1822432Y975575D01*
X1797440Y975575D01*
X1202164Y925591D02*
X1202164Y958914D01*
X1218825Y975575D01*
X1235486Y958914D01*
X1235486Y925591D01*
X1235486Y950583D01*
X1202164Y950583D01*
X63323Y-142347D02*
X54992Y-134016D01*
X38331Y-134016D01*
X30000Y-142347D01*
X30000Y-175669D01*
X38331Y-184000D01*
X54992Y-184000D01*
X63323Y-175669D01*
X569335Y735016D02*
X561004Y743347D01*
X544342Y743347D01*
X536012Y735016D01*
X536012Y701694D01*
X544342Y693363D01*
X561004Y693363D01*
X569335Y701694D01*
X638335Y740016D02*
X630004Y748347D01*
X613342Y748347D01*
X605012Y740016D01*
X605012Y706694D01*
X613342Y698363D01*
X630004Y698363D01*
X638335Y706694D01*
X976701Y172086D02*
X968370Y180417D01*
X951708Y180417D01*
X943378Y172086D01*
X943378Y138764D01*
X951708Y130433D01*
X968370Y130433D01*
X976701Y138764D01*
X2673666Y2801776D02*
X2665336Y2810107D01*
X2648675Y2810107D01*
X2640344Y2801776D01*
X2640344Y2768454D01*
X2648675Y2760123D01*
X2665336Y2760123D01*
X2673666Y2768454D01*
X391334Y-1363984D02*
X383004Y-1355653D01*
X366342Y-1355653D01*
X358012Y-1363984D01*
X358012Y-1397306D01*
X366342Y-1405637D01*
X383004Y-1405637D01*
X391334Y-1397306D01*
X1256334Y-853984D02*
X1248004Y-845653D01*
X1231342Y-845653D01*
X1223012Y-853984D01*
X1223012Y-887306D01*
X1231342Y-895637D01*
X1248004Y-895637D01*
X1256334Y-887306D01*
X816335Y21016D02*
X808004Y29347D01*
X791342Y29347D01*
X783012Y21016D01*
X783012Y-12306D01*
X791342Y-20637D01*
X808004Y-20637D01*
X816335Y-12306D01*
X2033071Y889086D02*
X2024740Y897417D01*
X2008079Y897417D01*
X1999748Y889086D01*
X1999748Y855764D01*
X2008079Y847433D01*
X2024740Y847433D01*
X2033071Y855764D01*
X2320700Y858086D02*
X2312370Y866417D01*
X2295709Y866417D01*
X2287378Y858086D01*
X2287378Y824764D01*
X2295709Y816433D01*
X2312370Y816433D01*
X2320700Y824764D01*
X392200Y-294414D02*
X383870Y-286083D01*
X367209Y-286083D01*
X358878Y-294414D01*
X358878Y-327736D01*
X367209Y-336067D01*
X383870Y-336067D01*
X392200Y-327736D01*
X297700Y-2222126D02*
X289370Y-2213795D01*
X272709Y-2213795D01*
X264378Y-2222126D01*
X264378Y-2255448D01*
X272709Y-2263779D01*
X289370Y-2263779D01*
X297700Y-2255448D01*
X283700Y-1787914D02*
X275370Y-1779583D01*
X258709Y-1779583D01*
X250378Y-1787914D01*
X250378Y-1821236D01*
X258709Y-1829567D01*
X275370Y-1829567D01*
X283700Y-1821236D01*
X2892700Y-3718914D02*
X2884370Y-3710583D01*
X2867709Y-3710583D01*
X2859378Y-3718914D01*
X2859378Y-3752236D01*
X2867709Y-3760567D01*
X2884370Y-3760567D01*
X2892700Y-3752236D01*
X-113299Y-828914D02*
X-121630Y-820583D01*
X-138292Y-820583D01*
X-146622Y-828914D01*
X-146622Y-862236D01*
X-138292Y-870567D01*
X-121630Y-870567D01*
X-113299Y-862236D01*
X1563700Y-3350914D02*
X1555370Y-3342583D01*
X1538708Y-3342583D01*
X1530378Y-3350914D01*
X1530378Y-3384236D01*
X1538708Y-3392567D01*
X1555370Y-3392567D01*
X1563700Y-3384236D01*
X-113299Y-1534914D02*
X-121630Y-1526583D01*
X-138292Y-1526583D01*
X-146622Y-1534914D01*
X-146622Y-1568236D01*
X-138292Y-1576567D01*
X-121630Y-1576567D01*
X-113299Y-1568236D01*
X867968Y-1810710D02*
X859638Y-1802379D01*
X842976Y-1802379D01*
X834646Y-1810710D01*
X834646Y-1844032D01*
X842976Y-1852363D01*
X859638Y-1852363D01*
X867968Y-1844032D01*
X908701Y-1705914D02*
X900370Y-1697583D01*
X883708Y-1697583D01*
X875378Y-1705914D01*
X875378Y-1739236D01*
X883708Y-1747567D01*
X900370Y-1747567D01*
X908701Y-1739236D01*
X810701Y-1797914D02*
X802370Y-1789583D01*
X785708Y-1789583D01*
X777378Y-1797914D01*
X777378Y-1831236D01*
X785708Y-1839567D01*
X802370Y-1839567D01*
X810701Y-1831236D01*
X-33608Y-1231970D02*
X-41938Y-1223639D01*
X-58599Y-1223639D01*
X-66930Y-1231970D01*
X-66930Y-1265292D01*
X-58599Y-1273623D01*
X-41938Y-1273623D01*
X-33608Y-1265292D01*
X2063700Y-3750914D02*
X2055370Y-3742583D01*
X2038708Y-3742583D01*
X2030378Y-3750914D01*
X2030378Y-3784236D01*
X2038708Y-3792567D01*
X2055370Y-3792567D01*
X2063700Y-3784236D01*
X2664070Y-1961914D02*
X2655740Y-1953583D01*
X2639079Y-1953583D01*
X2630748Y-1961914D01*
X2630748Y-1995236D01*
X2639079Y-2003567D01*
X2655740Y-2003567D01*
X2664070Y-1995236D01*
X529701Y-2031914D02*
X521370Y-2023583D01*
X504709Y-2023583D01*
X496378Y-2031914D01*
X496378Y-2065236D01*
X504709Y-2073567D01*
X521370Y-2073567D01*
X529701Y-2065236D01*
X1151700Y-658914D02*
X1143370Y-650583D01*
X1126708Y-650583D01*
X1118378Y-658914D01*
X1118378Y-692236D01*
X1126708Y-700567D01*
X1143370Y-700567D01*
X1151700Y-692236D01*
X3091700Y-2960914D02*
X3083370Y-2952583D01*
X3066709Y-2952583D01*
X3058378Y-2960914D01*
X3058378Y-2994236D01*
X3066709Y-3002567D01*
X3083370Y-3002567D01*
X3091700Y-2994236D01*
X2082700Y-2966914D02*
X2074370Y-2958583D01*
X2057709Y-2958583D01*
X2049378Y-2966914D01*
X2049378Y-3000236D01*
X2057709Y-3008567D01*
X2074370Y-3008567D01*
X2082700Y-3000236D01*
X2635700Y-687914D02*
X2627370Y-679583D01*
X2610709Y-679583D01*
X2602378Y-687914D01*
X2602378Y-721236D01*
X2610709Y-729567D01*
X2627370Y-729567D01*
X2635700Y-721236D01*
X-33608Y-1283150D02*
X-41938Y-1274819D01*
X-58599Y-1274819D01*
X-66930Y-1283150D01*
X-66930Y-1316472D01*
X-58599Y-1324803D01*
X-41938Y-1324803D01*
X-33608Y-1316472D01*
X882701Y-441914D02*
X874370Y-433583D01*
X857708Y-433583D01*
X849378Y-441914D01*
X849378Y-475236D01*
X857708Y-483567D01*
X874370Y-483567D01*
X882701Y-475236D01*
X1269543Y-942598D02*
X1261212Y-934267D01*
X1244551Y-934267D01*
X1236220Y-942598D01*
X1236220Y-975920D01*
X1244551Y-984251D01*
X1261212Y-984251D01*
X1269543Y-975920D01*
X1488700Y-1017914D02*
X1480370Y-1009583D01*
X1463708Y-1009583D01*
X1455378Y-1017914D01*
X1455378Y-1051236D01*
X1463708Y-1059567D01*
X1480370Y-1059567D01*
X1488700Y-1051236D01*
X2366700Y31298D02*
X2358370Y39629D01*
X2341709Y39629D01*
X2333378Y31298D01*
X2333378Y-2024D01*
X2341709Y-10355D01*
X2358370Y-10355D01*
X2366700Y-2024D01*
X1293165Y-773308D02*
X1284834Y-764977D01*
X1268172Y-764977D01*
X1259842Y-773308D01*
X1259842Y-806630D01*
X1268172Y-814961D01*
X1284834Y-814961D01*
X1293165Y-806630D01*
X2106700Y-2820914D02*
X2098370Y-2812583D01*
X2081709Y-2812583D01*
X2073378Y-2820914D01*
X2073378Y-2854236D01*
X2081709Y-2862567D01*
X2098370Y-2862567D01*
X2106700Y-2854236D01*
X1093700Y-3284914D02*
X1085370Y-3276583D01*
X1068708Y-3276583D01*
X1060378Y-3284914D01*
X1060378Y-3318236D01*
X1068708Y-3326567D01*
X1085370Y-3326567D01*
X1093700Y-3318236D01*
X886701Y1148086D02*
X878370Y1156417D01*
X861708Y1156417D01*
X853378Y1148086D01*
X853378Y1114764D01*
X861708Y1106433D01*
X878370Y1106433D01*
X886701Y1114764D01*
X497890Y-670946D02*
X489560Y-662615D01*
X472899Y-662615D01*
X464568Y-670946D01*
X464568Y-704268D01*
X472899Y-712599D01*
X489560Y-712599D01*
X497890Y-704268D01*
X2829885Y-775026D02*
X2821554Y-766695D01*
X2804892Y-766695D01*
X2796562Y-775026D01*
X2796562Y-808348D01*
X2804892Y-816679D01*
X2821554Y-816679D01*
X2829885Y-808348D01*
X2653700Y2608086D02*
X2645370Y2616417D01*
X2628709Y2616417D01*
X2620378Y2608086D01*
X2620378Y2574764D01*
X2628709Y2566433D01*
X2645370Y2566433D01*
X2653700Y2574764D01*
X553009Y581024D02*
X544678Y589355D01*
X528016Y589355D01*
X519686Y581024D01*
X519686Y547702D01*
X528016Y539371D01*
X544678Y539371D01*
X553009Y547702D01*
X978205Y423542D02*
X969874Y431873D01*
X953212Y431873D01*
X944882Y423542D01*
X944882Y390220D01*
X953212Y381889D01*
X969874Y381889D01*
X978205Y390220D01*
X2345724Y-4516890D02*
X2337394Y-4508559D01*
X2320733Y-4508559D01*
X2312402Y-4516890D01*
X2312402Y-4550212D01*
X2320733Y-4558543D01*
X2337394Y-4558543D01*
X2345724Y-4550212D01*
X2023119Y-4620914D02*
X2014788Y-4612583D01*
X1998127Y-4612583D01*
X1989796Y-4620914D01*
X1989796Y-4654236D01*
X1998127Y-4662567D01*
X2014788Y-4662567D01*
X2023119Y-4654236D01*
X899465Y-1928820D02*
X891134Y-1920489D01*
X874472Y-1920489D01*
X866142Y-1928820D01*
X866142Y-1962142D01*
X874472Y-1970473D01*
X891134Y-1970473D01*
X899465Y-1962142D01*
X1770071Y-3065914D02*
X1761740Y-3057583D01*
X1745079Y-3057583D01*
X1736748Y-3065914D01*
X1736748Y-3099236D01*
X1745079Y-3107567D01*
X1761740Y-3107567D01*
X1770071Y-3099236D01*
X1849071Y-3266914D02*
X1840740Y-3258583D01*
X1824079Y-3258583D01*
X1815748Y-3266914D01*
X1815748Y-3300236D01*
X1824079Y-3308567D01*
X1840740Y-3308567D01*
X1849071Y-3300236D01*
X1525448Y-3960316D02*
X1517118Y-3951985D01*
X1500457Y-3951985D01*
X1492126Y-3960316D01*
X1492126Y-3993638D01*
X1500457Y-4001969D01*
X1517118Y-4001969D01*
X1525448Y-3993638D01*
X580071Y-1619914D02*
X571740Y-1611583D01*
X555078Y-1611583D01*
X546748Y-1619914D01*
X546748Y-1653236D01*
X555078Y-1661567D01*
X571740Y-1661567D01*
X580071Y-1653236D01*
X969071Y-1776914D02*
X960740Y-1768583D01*
X944078Y-1768583D01*
X935748Y-1776914D01*
X935748Y-1810236D01*
X944078Y-1818567D01*
X960740Y-1818567D01*
X969071Y-1810236D01*
X276070Y-1746914D02*
X267740Y-1738583D01*
X251078Y-1738583D01*
X242748Y-1746914D01*
X242748Y-1780236D01*
X251078Y-1788567D01*
X267740Y-1788567D01*
X276070Y-1780236D01*
X329070Y-1207914D02*
X320740Y-1199583D01*
X304079Y-1199583D01*
X295748Y-1207914D01*
X295748Y-1241236D01*
X304079Y-1249567D01*
X320740Y-1249567D01*
X329070Y-1241236D01*
X113070Y-2305914D02*
X104740Y-2297583D01*
X88079Y-2297583D01*
X79748Y-2305914D01*
X79748Y-2339236D01*
X88079Y-2347567D01*
X104740Y-2347567D01*
X113070Y-2339236D01*
X-36929Y-2270914D02*
X-45260Y-2262583D01*
X-61922Y-2262583D01*
X-70252Y-2270914D01*
X-70252Y-2304236D01*
X-61922Y-2312567D01*
X-45260Y-2312567D01*
X-36929Y-2304236D01*
X151071Y-83914D02*
X142740Y-75583D01*
X126079Y-75583D01*
X117748Y-83914D01*
X117748Y-117236D01*
X126079Y-125567D01*
X142740Y-125567D01*
X151071Y-117236D01*
X954582Y2752282D02*
X946252Y2760613D01*
X929591Y2760613D01*
X921260Y2752282D01*
X921260Y2718960D01*
X929591Y2710629D01*
X946252Y2710629D01*
X954582Y2718960D01*
X1601700Y-353914D02*
X1593370Y-345583D01*
X1576708Y-345583D01*
X1568378Y-353914D01*
X1568378Y-387236D01*
X1576708Y-395567D01*
X1593370Y-395567D01*
X1601700Y-387236D01*
X2281354Y-873702D02*
X2273024Y-865371D01*
X2256363Y-865371D01*
X2248032Y-873702D01*
X2248032Y-907024D01*
X2256363Y-915355D01*
X2273024Y-915355D01*
X2281354Y-907024D01*
X2745070Y931086D02*
X2736740Y939417D01*
X2720079Y939417D01*
X2711748Y931086D01*
X2711748Y897764D01*
X2720079Y889433D01*
X2736740Y889433D01*
X2745070Y897764D01*
X2659307Y1614488D02*
X2650976Y1622819D01*
X2634314Y1622819D01*
X2625984Y1614488D01*
X2625984Y1581166D01*
X2634314Y1572835D01*
X2650976Y1572835D01*
X2659307Y1581166D01*
X2929700Y645086D02*
X2921370Y653417D01*
X2904709Y653417D01*
X2896378Y645086D01*
X2896378Y611764D01*
X2904709Y603433D01*
X2921370Y603433D01*
X2929700Y611764D01*
X1907700Y-4714252D02*
X1899370Y-4705921D01*
X1882708Y-4705921D01*
X1874378Y-4714252D01*
X1874378Y-4747574D01*
X1882708Y-4755905D01*
X1899370Y-4755905D01*
X1907700Y-4747574D01*
X1905071Y-4050914D02*
X1896740Y-4042583D01*
X1880079Y-4042583D01*
X1871748Y-4050914D01*
X1871748Y-4084236D01*
X1880079Y-4092567D01*
X1896740Y-4092567D01*
X1905071Y-4084236D01*
X2139622Y-3609922D02*
X2131292Y-3601591D01*
X2114631Y-3601591D01*
X2106300Y-3609922D01*
X2106300Y-3643244D01*
X2114631Y-3651575D01*
X2131292Y-3651575D01*
X2139622Y-3643244D01*
X796119Y-1874686D02*
X787788Y-1866355D01*
X771126Y-1866355D01*
X762796Y-1874686D01*
X762796Y-1908008D01*
X771126Y-1916339D01*
X787788Y-1916339D01*
X796119Y-1908008D01*
X24070Y-1401914D02*
X15740Y-1393583D01*
X-921Y-1393583D01*
X-9252Y-1401914D01*
X-9252Y-1435236D01*
X-921Y-1443567D01*
X15740Y-1443567D01*
X24070Y-1435236D01*
X275070Y-2272914D02*
X266740Y-2264583D01*
X250078Y-2264583D01*
X241748Y-2272914D01*
X241748Y-2306236D01*
X250078Y-2314567D01*
X266740Y-2314567D01*
X275070Y-2306236D01*
X2171119Y-3810710D02*
X2162788Y-3802379D01*
X2146126Y-3802379D01*
X2137796Y-3810710D01*
X2137796Y-3844032D01*
X2146126Y-3852363D01*
X2162788Y-3852363D01*
X2171119Y-3844032D01*
X1704071Y-4045914D02*
X1695740Y-4037583D01*
X1679079Y-4037583D01*
X1670748Y-4045914D01*
X1670748Y-4079236D01*
X1679079Y-4087567D01*
X1695740Y-4087567D01*
X1704071Y-4079236D01*
X1517574Y-4027244D02*
X1509244Y-4018913D01*
X1492582Y-4018913D01*
X1484252Y-4027244D01*
X1484252Y-4060566D01*
X1492582Y-4068897D01*
X1509244Y-4068897D01*
X1517574Y-4060566D01*
X406748Y-1490510D02*
X398418Y-1482179D01*
X381757Y-1482179D01*
X373426Y-1490510D01*
X373426Y-1523832D01*
X381757Y-1532163D01*
X398418Y-1532163D01*
X406748Y-1523832D01*
X1311700Y-1546914D02*
X1303370Y-1538583D01*
X1286708Y-1538583D01*
X1278378Y-1546914D01*
X1278378Y-1580236D01*
X1286708Y-1588567D01*
X1303370Y-1588567D01*
X1311700Y-1580236D01*
X856071Y-1592914D02*
X847740Y-1584583D01*
X831078Y-1584583D01*
X822748Y-1592914D01*
X822748Y-1626236D01*
X831078Y-1634567D01*
X847740Y-1634567D01*
X856071Y-1626236D01*
X778071Y-1646914D02*
X769740Y-1638583D01*
X753078Y-1638583D01*
X744748Y-1646914D01*
X744748Y-1680236D01*
X753078Y-1688567D01*
X769740Y-1688567D01*
X778071Y-1680236D01*
X719701Y2211086D02*
X711370Y2219417D01*
X694708Y2219417D01*
X686378Y2211086D01*
X686378Y2177764D01*
X694708Y2169433D01*
X711370Y2169433D01*
X719701Y2177764D01*
X997701Y-3365914D02*
X989370Y-3357583D01*
X972708Y-3357583D01*
X964378Y-3365914D01*
X964378Y-3399236D01*
X972708Y-3407567D01*
X989370Y-3407567D01*
X997701Y-3399236D01*
X1594344Y-3491914D02*
X1586014Y-3483583D01*
X1569352Y-3483583D01*
X1561022Y-3491914D01*
X1561022Y-3525236D01*
X1569352Y-3533567D01*
X1586014Y-3533567D01*
X1594344Y-3525236D01*
X1827Y-2060710D02*
X-6504Y-2052379D01*
X-23166Y-2052379D01*
X-31496Y-2060710D01*
X-31496Y-2094032D01*
X-23166Y-2102363D01*
X-6504Y-2102363D01*
X1827Y-2094032D01*
X484070Y-1771914D02*
X475740Y-1763583D01*
X459079Y-1763583D01*
X450748Y-1771914D01*
X450748Y-1805236D01*
X459079Y-1813567D01*
X475740Y-1813567D01*
X484070Y-1805236D01*
X1974700Y-4367914D02*
X1966370Y-4359583D01*
X1949708Y-4359583D01*
X1941378Y-4367914D01*
X1941378Y-4401236D01*
X1949708Y-4409567D01*
X1966370Y-4409567D01*
X1974700Y-4401236D01*
X2153403Y-4251656D02*
X2145072Y-4243325D01*
X2128410Y-4243325D01*
X2120080Y-4251656D01*
X2120080Y-4284978D01*
X2128410Y-4293309D01*
X2145072Y-4293309D01*
X2153403Y-4284978D01*
X2092378Y2689290D02*
X2084048Y2697621D01*
X2067387Y2697621D01*
X2059056Y2689290D01*
X2059056Y2655968D01*
X2067387Y2647637D01*
X2084048Y2647637D01*
X2092378Y2655968D01*
X2783070Y-238914D02*
X2774740Y-230583D01*
X2758079Y-230583D01*
X2749748Y-238914D01*
X2749748Y-272236D01*
X2758079Y-280567D01*
X2774740Y-280567D01*
X2783070Y-272236D01*
X2249858Y2693228D02*
X2241528Y2701559D01*
X2224867Y2701559D01*
X2216536Y2693228D01*
X2216536Y2659906D01*
X2224867Y2651575D01*
X2241528Y2651575D01*
X2249858Y2659906D01*
X2174070Y-99914D02*
X2165740Y-91583D01*
X2149079Y-91583D01*
X2140748Y-99914D01*
X2140748Y-133236D01*
X2149079Y-141567D01*
X2165740Y-141567D01*
X2174070Y-133236D01*
X2412070Y2642086D02*
X2403740Y2650417D01*
X2387079Y2650417D01*
X2378748Y2642086D01*
X2378748Y2608764D01*
X2387079Y2600433D01*
X2403740Y2600433D01*
X2412070Y2608764D01*
X2412070Y-239914D02*
X2403740Y-231583D01*
X2387079Y-231583D01*
X2378748Y-239914D01*
X2378748Y-273236D01*
X2387079Y-281567D01*
X2403740Y-281567D01*
X2412070Y-273236D01*
X3094700Y-1314646D02*
X3086370Y-1306315D01*
X3069709Y-1306315D01*
X3061378Y-1314646D01*
X3061378Y-1347968D01*
X3069709Y-1356299D01*
X3086370Y-1356299D01*
X3094700Y-1347968D01*
X3168700Y2557086D02*
X3160370Y2565417D01*
X3143709Y2565417D01*
X3135378Y2557086D01*
X3135378Y2523764D01*
X3143709Y2515433D01*
X3160370Y2515433D01*
X3168700Y2523764D01*
X1241700Y1366684D02*
X1233370Y1375015D01*
X1216708Y1375015D01*
X1208378Y1366684D01*
X1208378Y1333362D01*
X1216708Y1325031D01*
X1233370Y1325031D01*
X1241700Y1333362D01*
X354700Y-2504914D02*
X346370Y-2496583D01*
X329709Y-2496583D01*
X321378Y-2504914D01*
X321378Y-2538236D01*
X329709Y-2546567D01*
X346370Y-2546567D01*
X354700Y-2538236D01*
X2712700Y-2193914D02*
X2704370Y-2185583D01*
X2687709Y-2185583D01*
X2679378Y-2193914D01*
X2679378Y-2227236D01*
X2687709Y-2235567D01*
X2704370Y-2235567D01*
X2712700Y-2227236D01*
X901157Y-2045914D02*
X892826Y-2037583D01*
X876164Y-2037583D01*
X867834Y-2045914D01*
X867834Y-2079236D01*
X876164Y-2087567D01*
X892826Y-2087567D01*
X901157Y-2079236D01*
X2732046Y-4201260D02*
X2723716Y-4192929D01*
X2707055Y-4192929D01*
X2698724Y-4201260D01*
X2698724Y-4234582D01*
X2707055Y-4242913D01*
X2723716Y-4242913D01*
X2732046Y-4234582D01*
X2733700Y-4325914D02*
X2725370Y-4317583D01*
X2708709Y-4317583D01*
X2700378Y-4325914D01*
X2700378Y-4359236D01*
X2708709Y-4367567D01*
X2725370Y-4367567D01*
X2733700Y-4359236D01*
X1786700Y1084086D02*
X1778370Y1092417D01*
X1761708Y1092417D01*
X1753378Y1084086D01*
X1753378Y1050764D01*
X1761708Y1042433D01*
X1778370Y1042433D01*
X1786700Y1050764D01*
X-58300Y-2430914D02*
X-66630Y-2422583D01*
X-83291Y-2422583D01*
X-91622Y-2430914D01*
X-91622Y-2464236D01*
X-83291Y-2472567D01*
X-66630Y-2472567D01*
X-58300Y-2464236D01*
X947071Y-669914D02*
X938740Y-661583D01*
X922078Y-661583D01*
X913748Y-669914D01*
X913748Y-703236D01*
X922078Y-711567D01*
X938740Y-711567D01*
X947071Y-703236D01*
X1006701Y-2301914D02*
X998370Y-2293583D01*
X981708Y-2293583D01*
X973378Y-2301914D01*
X973378Y-2335236D01*
X981708Y-2343567D01*
X998370Y-2343567D01*
X1006701Y-2335236D01*
X417748Y-1044583D02*
X417748Y-1094567D01*
X442740Y-1094567D01*
X451070Y-1086236D01*
X451070Y-1052914D01*
X442740Y-1044583D01*
X417748Y-1044583D01*
X809701Y619086D02*
X801370Y627417D01*
X784708Y627417D01*
X776378Y619086D01*
X776378Y585764D01*
X784708Y577433D01*
X801370Y577433D01*
X809701Y585764D01*
X254701Y-868914D02*
X246370Y-860583D01*
X229708Y-860583D01*
X221378Y-868914D01*
X221378Y-902236D01*
X229708Y-910567D01*
X246370Y-910567D01*
X254701Y-902236D01*
X2297102Y-20914D02*
X2288772Y-12583D01*
X2272110Y-12583D01*
X2263780Y-20914D01*
X2263780Y-54236D01*
X2272110Y-62567D01*
X2288772Y-62567D01*
X2297102Y-54236D01*
X2454700Y-848914D02*
X2446370Y-840583D01*
X2429709Y-840583D01*
X2421378Y-848914D01*
X2421378Y-882236D01*
X2429709Y-890567D01*
X2446370Y-890567D01*
X2454700Y-882236D01*
X805701Y2270000D02*
X797370Y2278331D01*
X780708Y2278331D01*
X772378Y2270000D01*
X772378Y2236678D01*
X780708Y2228347D01*
X797370Y2228347D01*
X805701Y2236678D01*
X56700Y-1731166D02*
X48370Y-1722835D01*
X31709Y-1722835D01*
X23378Y-1731166D01*
X23378Y-1764488D01*
X31709Y-1772819D01*
X48370Y-1772819D01*
X56700Y-1764488D01*
X290700Y-51914D02*
X282370Y-43583D01*
X265709Y-43583D01*
X257378Y-51914D01*
X257378Y-85236D01*
X265709Y-93567D01*
X282370Y-93567D01*
X290700Y-85236D01*
X2741700Y879086D02*
X2733370Y887417D01*
X2716709Y887417D01*
X2708378Y879086D01*
X2708378Y845764D01*
X2716709Y837433D01*
X2733370Y837433D01*
X2741700Y845764D01*
X2039700Y-4021592D02*
X2031370Y-4013261D01*
X2014708Y-4013261D01*
X2006378Y-4021592D01*
X2006378Y-4054914D01*
X2014708Y-4063245D01*
X2031370Y-4063245D01*
X2039700Y-4054914D01*
X1904700Y-3629914D02*
X1896370Y-3621583D01*
X1879708Y-3621583D01*
X1871378Y-3629914D01*
X1871378Y-3663236D01*
X1879708Y-3671567D01*
X1896370Y-3671567D01*
X1904700Y-3663236D01*
X2802700Y-3572914D02*
X2794370Y-3564583D01*
X2777709Y-3564583D01*
X2769378Y-3572914D01*
X2769378Y-3606236D01*
X2777709Y-3614567D01*
X2794370Y-3614567D01*
X2802700Y-3606236D01*
X2847700Y-1359914D02*
X2839370Y-1351583D01*
X2822709Y-1351583D01*
X2814378Y-1359914D01*
X2814378Y-1393236D01*
X2822709Y-1401567D01*
X2839370Y-1401567D01*
X2847700Y-1393236D01*
X553701Y-3731970D02*
X545370Y-3723639D01*
X528708Y-3723639D01*
X520378Y-3731970D01*
X520378Y-3765292D01*
X528708Y-3773623D01*
X545370Y-3773623D01*
X553701Y-3765292D01*
X14700Y-989914D02*
X6370Y-981583D01*
X-10291Y-981583D01*
X-18622Y-989914D01*
X-18622Y-1023236D01*
X-10291Y-1031567D01*
X6370Y-1031567D01*
X14700Y-1023236D01*
X-48300Y-855984D02*
X-56630Y-847653D01*
X-73291Y-847653D01*
X-81622Y-855984D01*
X-81622Y-889306D01*
X-73291Y-897637D01*
X-56630Y-897637D01*
X-48300Y-889306D01*
X385981Y-158474D02*
X377650Y-150143D01*
X360988Y-150143D01*
X352658Y-158474D01*
X352658Y-191796D01*
X360988Y-200127D01*
X377650Y-200127D01*
X385981Y-191796D01*
X820701Y-3356260D02*
X812370Y-3347929D01*
X795708Y-3347929D01*
X787378Y-3356260D01*
X787378Y-3389582D01*
X795708Y-3397913D01*
X812370Y-3397913D01*
X820701Y-3389582D01*
X367700Y-102914D02*
X359370Y-94583D01*
X342709Y-94583D01*
X334378Y-102914D01*
X334378Y-136236D01*
X342709Y-144567D01*
X359370Y-144567D01*
X367700Y-136236D01*
X2711700Y-966914D02*
X2703370Y-958583D01*
X2686709Y-958583D01*
X2678378Y-966914D01*
X2678378Y-1000236D01*
X2686709Y-1008567D01*
X2703370Y-1008567D01*
X2711700Y-1000236D01*
X976701Y-98914D02*
X968370Y-90583D01*
X951708Y-90583D01*
X943378Y-98914D01*
X943378Y-132236D01*
X951708Y-140567D01*
X968370Y-140567D01*
X976701Y-132236D01*
X834505Y580086D02*
X826174Y588417D01*
X809513Y588417D01*
X801182Y580086D01*
X801182Y546764D01*
X809513Y538433D01*
X826174Y538433D01*
X834505Y546764D01*
X351700Y-351906D02*
X343370Y-343575D01*
X326709Y-343575D01*
X318378Y-351906D01*
X318378Y-385228D01*
X326709Y-393559D01*
X343370Y-393559D01*
X351700Y-385228D01*
X2130700Y-3360914D02*
X2122370Y-3352583D01*
X2105709Y-3352583D01*
X2097378Y-3360914D01*
X2097378Y-3394236D01*
X2105709Y-3402567D01*
X2122370Y-3402567D01*
X2130700Y-3394236D01*
X2500858Y-3651756D02*
X2492528Y-3643425D01*
X2475867Y-3643425D01*
X2467536Y-3651756D01*
X2467536Y-3685078D01*
X2475867Y-3693409D01*
X2492528Y-3693409D01*
X2500858Y-3685078D01*
X1847700Y-3593914D02*
X1839370Y-3585583D01*
X1822708Y-3585583D01*
X1814378Y-3593914D01*
X1814378Y-3627236D01*
X1822708Y-3635567D01*
X1839370Y-3635567D01*
X1847700Y-3627236D01*
X881701Y-1872914D02*
X873370Y-1864583D01*
X856708Y-1864583D01*
X848378Y-1872914D01*
X848378Y-1906236D01*
X856708Y-1914567D01*
X873370Y-1914567D01*
X881701Y-1906236D01*
X16701Y-2524914D02*
X8370Y-2516583D01*
X-8291Y-2516583D01*
X-16622Y-2524914D01*
X-16622Y-2558236D01*
X-8291Y-2566567D01*
X8370Y-2566567D01*
X16701Y-2558236D01*
X1121395Y2120392D02*
X1113064Y2128723D01*
X1096402Y2128723D01*
X1088072Y2120392D01*
X1088072Y2087070D01*
X1096402Y2078739D01*
X1113064Y2078739D01*
X1121395Y2087070D01*
X2070070Y-3903914D02*
X2061740Y-3895583D01*
X2045079Y-3895583D01*
X2036748Y-3903914D01*
X2036748Y-3937236D01*
X2045079Y-3945567D01*
X2061740Y-3945567D01*
X2070070Y-3937236D01*
X-32929Y-1702914D02*
X-41260Y-1694583D01*
X-57922Y-1694583D01*
X-66252Y-1702914D01*
X-66252Y-1736236D01*
X-57922Y-1744567D01*
X-41260Y-1744567D01*
X-32929Y-1736236D01*
X1753748Y-653583D02*
X1753748Y-703567D01*
X1778740Y-703567D01*
X1787071Y-695236D01*
X1787071Y-661914D01*
X1778740Y-653583D01*
X1753748Y-653583D01*
X-67930Y-930914D02*
X-76260Y-922583D01*
X-92921Y-922583D01*
X-101252Y-930914D01*
X-101252Y-964236D01*
X-92921Y-972567D01*
X-76260Y-972567D01*
X-67930Y-964236D01*
X-49355Y-2320552D02*
X-57686Y-2312221D01*
X-74347Y-2312221D01*
X-82678Y-2320552D01*
X-82678Y-2353874D01*
X-74347Y-2362205D01*
X-57686Y-2362205D01*
X-49355Y-2353874D01*
X315070Y-821914D02*
X306740Y-813583D01*
X290079Y-813583D01*
X281748Y-821914D01*
X281748Y-855236D01*
X290079Y-863567D01*
X306740Y-863567D01*
X315070Y-855236D01*
X1058071Y-941914D02*
X1049740Y-933583D01*
X1033079Y-933583D01*
X1024748Y-941914D01*
X1024748Y-975236D01*
X1033079Y-983567D01*
X1049740Y-983567D01*
X1058071Y-975236D01*
X2205070Y-4119914D02*
X2196740Y-4111583D01*
X2180079Y-4111583D01*
X2171748Y-4119914D01*
X2171748Y-4153236D01*
X2180079Y-4161567D01*
X2196740Y-4161567D01*
X2205070Y-4153236D01*
X1788071Y-515914D02*
X1779740Y-507583D01*
X1763079Y-507583D01*
X1754748Y-515914D01*
X1754748Y-549236D01*
X1763079Y-557567D01*
X1779740Y-557567D01*
X1788071Y-549236D01*
X494070Y-825914D02*
X485740Y-817583D01*
X469079Y-817583D01*
X460748Y-825914D01*
X460748Y-859236D01*
X469079Y-867567D01*
X485740Y-867567D01*
X494070Y-859236D01*
X1487071Y-925914D02*
X1478740Y-917583D01*
X1462079Y-917583D01*
X1453748Y-925914D01*
X1453748Y-959236D01*
X1462079Y-967567D01*
X1478740Y-967567D01*
X1487071Y-959236D01*
X1465748Y-819583D02*
X1465748Y-869567D01*
X1490740Y-869567D01*
X1499071Y-861236D01*
X1499071Y-827914D01*
X1490740Y-819583D01*
X1465748Y-819583D01*
X1057071Y-1842914D02*
X1048740Y-1834583D01*
X1032079Y-1834583D01*
X1023748Y-1842914D01*
X1023748Y-1876236D01*
X1032079Y-1884567D01*
X1048740Y-1884567D01*
X1057071Y-1876236D01*
X922071Y-882914D02*
X913740Y-874583D01*
X897078Y-874583D01*
X888748Y-882914D01*
X888748Y-916236D01*
X897078Y-924567D01*
X913740Y-924567D01*
X922071Y-916236D01*
X934071Y-715914D02*
X925740Y-707583D01*
X909078Y-707583D01*
X900748Y-715914D01*
X900748Y-749236D01*
X909078Y-757567D01*
X925740Y-757567D01*
X934071Y-749236D01*
X1493700Y1495086D02*
X1485370Y1503417D01*
X1468708Y1503417D01*
X1460378Y1495086D01*
X1460378Y1461764D01*
X1468708Y1453433D01*
X1485370Y1453433D01*
X1493700Y1461764D01*
X257070Y-546914D02*
X248740Y-538583D01*
X232078Y-538583D01*
X223748Y-546914D01*
X223748Y-580236D01*
X232078Y-588567D01*
X248740Y-588567D01*
X257070Y-580236D01*
X230071Y-614914D02*
X221740Y-606583D01*
X205078Y-606583D01*
X196748Y-614914D01*
X196748Y-648236D01*
X205078Y-656567D01*
X221740Y-656567D01*
X230071Y-648236D01*
X1045071Y-736914D02*
X1036740Y-728583D01*
X1020078Y-728583D01*
X1011748Y-736914D01*
X1011748Y-770236D01*
X1020078Y-778567D01*
X1036740Y-778567D01*
X1045071Y-770236D01*
X1831748Y-79583D02*
X1831748Y-129567D01*
X1856740Y-129567D01*
X1865071Y-121236D01*
X1865071Y-87914D01*
X1856740Y-79583D01*
X1831748Y-79583D01*
X1934748Y96417D02*
X1934748Y46433D01*
X1959740Y46433D01*
X1968071Y54764D01*
X1968071Y88086D01*
X1959740Y96417D01*
X1934748Y96417D01*
X666748Y1074417D02*
X666748Y1024433D01*
X691740Y1024433D01*
X700071Y1032764D01*
X700071Y1066086D01*
X691740Y1074417D01*
X666748Y1074417D01*
X2320070Y1224086D02*
X2311740Y1232417D01*
X2295079Y1232417D01*
X2286748Y1224086D01*
X2286748Y1190764D01*
X2295079Y1182433D01*
X2311740Y1182433D01*
X2320070Y1190764D01*
X2476070Y1058086D02*
X2467740Y1066417D01*
X2451079Y1066417D01*
X2442748Y1058086D01*
X2442748Y1024764D01*
X2451079Y1016433D01*
X2467740Y1016433D01*
X2476070Y1024764D01*
X314320Y-1317914D02*
X305990Y-1309583D01*
X289329Y-1309583D01*
X280998Y-1317914D01*
X280998Y-1351236D01*
X289329Y-1359567D01*
X305990Y-1359567D01*
X314320Y-1351236D01*
X2353070Y-4043914D02*
X2344740Y-4035583D01*
X2328079Y-4035583D01*
X2319748Y-4043914D01*
X2319748Y-4077236D01*
X2328079Y-4085567D01*
X2344740Y-4085567D01*
X2353070Y-4077236D01*
X2227070Y-4044914D02*
X2218740Y-4036583D01*
X2202079Y-4036583D01*
X2193748Y-4044914D01*
X2193748Y-4078236D01*
X2202079Y-4086567D01*
X2218740Y-4086567D01*
X2227070Y-4078236D01*
X464070Y-1716914D02*
X455740Y-1708583D01*
X439079Y-1708583D01*
X430748Y-1716914D01*
X430748Y-1750236D01*
X439079Y-1758567D01*
X455740Y-1758567D01*
X464070Y-1750236D01*
X461070Y-1558914D02*
X452740Y-1550583D01*
X436079Y-1550583D01*
X427748Y-1558914D01*
X427748Y-1592236D01*
X436079Y-1600567D01*
X452740Y-1600567D01*
X461070Y-1592236D01*
X266303Y-1409914D02*
X257972Y-1401583D01*
X241310Y-1401583D01*
X232980Y-1409914D01*
X232980Y-1443236D01*
X241310Y-1451567D01*
X257972Y-1451567D01*
X266303Y-1443236D01*
X1293071Y-1050914D02*
X1284740Y-1042583D01*
X1268079Y-1042583D01*
X1259748Y-1050914D01*
X1259748Y-1084236D01*
X1268079Y-1092567D01*
X1284740Y-1092567D01*
X1293071Y-1084236D01*
X2342282Y-2074142D02*
X2333952Y-2065811D01*
X2317291Y-2065811D01*
X2308960Y-2074142D01*
X2308960Y-2107464D01*
X2317291Y-2115795D01*
X2333952Y-2115795D01*
X2342282Y-2107464D01*
X1654764Y-3824142D02*
X1646434Y-3815811D01*
X1629773Y-3815811D01*
X1621442Y-3824142D01*
X1621442Y-3857464D01*
X1629773Y-3865795D01*
X1646434Y-3865795D01*
X1654764Y-3857464D01*
X1959764Y-3784142D02*
X1951434Y-3775811D01*
X1934773Y-3775811D01*
X1926442Y-3784142D01*
X1926442Y-3817464D01*
X1934773Y-3825795D01*
X1951434Y-3825795D01*
X1959764Y-3817464D01*
X962701Y-46914D02*
X954370Y-38583D01*
X937708Y-38583D01*
X929378Y-46914D01*
X929378Y-80236D01*
X937708Y-88567D01*
X954370Y-88567D01*
X962701Y-80236D01*
D181*
X929748Y-2942567D02*
G03*
X929748Y-2942567I-20000J0D01*
G01*
X1580378Y2225433D02*
G03*
X1580378Y2225433I-20000J0D01*
G01*
X433386Y2342520D02*
G03*
X433386Y2342520I-20000J0D01*
G01*
X433386Y2192913D02*
G03*
X433386Y2192913I-20000J0D01*
G01*
X39685Y2342520D02*
G03*
X39685Y2342520I-20000J0D01*
G01*
X39685Y2192913D02*
G03*
X39685Y2192913I-20000J0D01*
G01*
X39685Y1929134D02*
G03*
X39685Y1929134I-20000J0D01*
G01*
X39685Y1779527D02*
G03*
X39685Y1779527I-20000J0D01*
G01*
X236535Y2342520D02*
G03*
X236535Y2342520I-20000J0D01*
G01*
X236535Y2192913D02*
G03*
X236535Y2192913I-20000J0D01*
G01*
X236535Y1929134D02*
G03*
X236535Y1929134I-20000J0D01*
G01*
X236535Y1779527D02*
G03*
X236535Y1779527I-20000J0D01*
G01*
X433386Y1929134D02*
G03*
X433386Y1929134I-20000J0D01*
G01*
X433386Y1779527D02*
G03*
X433386Y1779527I-20000J0D01*
G01*
X2992442Y47245D02*
G03*
X2992442Y47245I-20000J0D01*
G01*
X2874330Y47245D02*
G03*
X2874330Y47245I-20000J0D01*
G01*
X2520000Y7875D02*
G03*
X2520000Y7875I-20000J0D01*
G01*
X2283780Y-149607D02*
G03*
X2283780Y-149607I-20000J0D01*
G01*
X2520000Y288465D02*
G03*
X2520000Y288465I-20000J0D01*
G01*
X2638110Y485315D02*
G03*
X2638110Y485315I-20000J0D01*
G01*
X2874330Y485315D02*
G03*
X2874330Y485315I-20000J0D01*
G01*
X3110550Y485315D02*
G03*
X3110550Y485315I-20000J0D01*
G01*
X2874330Y721535D02*
G03*
X2874330Y721535I-20000J0D01*
G01*
X2520000Y721535D02*
G03*
X2520000Y721535I-20000J0D01*
G01*
X2008188Y406575D02*
G03*
X2008188Y406575I-20000J0D01*
G01*
X1673542Y327835D02*
G03*
X1673542Y327835I-20000J0D01*
G01*
X1299528Y327835D02*
G03*
X1299528Y327835I-20000J0D01*
G01*
X1417638Y327835D02*
G03*
X1417638Y327835I-20000J0D01*
G01*
X1471692Y42245D02*
G03*
X1471692Y42245I-20000J0D01*
G01*
X1235472Y42245D02*
G03*
X1235472Y42245I-20000J0D01*
G01*
X1235472Y-154607D02*
G03*
X1235472Y-154607I-20000J0D01*
G01*
D182*
X1572378Y2225433D02*
G03*
X1572378Y2225433I-12000J0D01*
G01*
%TF.MD5,ff55619d8d292c7e64bbefa4515dadec*%
M02*
