G04 Layer_Color=32896*
%FSLAX26Y26*%
%MOIN*%
%TF.FileFunction,Legend,Bot*%
%TF.Part,Single*%
G01*
G75*
%TA.AperFunction,NonConductor*%
%ADD74C,0.009842*%
%ADD75C,0.023622*%
%ADD76C,0.003937*%
%ADD77C,0.015748*%
%ADD78C,0.010000*%
%ADD79C,0.020000*%
%ADD80C,0.007874*%
%ADD81C,0.039370*%
D74*
X1787932Y1199063D02*
G03*
X1787932Y1199063I-4921J0D01*
G01*
X2035082Y2047094D02*
G03*
X2035082Y2047094I-4921J0D01*
G01*
X1663476Y2050244D02*
G03*
X1663476Y2050244I-4921J0D01*
G01*
X1695365Y4163433D02*
G03*
X1695365Y4163433I-4921J0D01*
G01*
X620562Y4150835D02*
G03*
X620562Y4150835I-4921J0D01*
G01*
X879420Y-847197D02*
G03*
X879420Y-847197I-4921J0D01*
G01*
X952255Y-305858D02*
G03*
X952255Y-305858I-4921J0D01*
G01*
X883357Y-1184598D02*
G03*
X883357Y-1184598I-4921J0D01*
G01*
X1337294Y-2132827D02*
G03*
X1337294Y-2132827I-4921J0D01*
G01*
D75*
X802649Y-896606D02*
G03*
X802649Y-896606I-11811J0D01*
G01*
X871547Y-356252D02*
G03*
X871547Y-356252I-11811J0D01*
G01*
X802649Y-1235189D02*
G03*
X802649Y-1235189I-11811J0D01*
G01*
D76*
X1093004Y3585834D02*
G03*
X1093004Y3585834I-1968J0D01*
G01*
X1264563Y5359354D02*
X1261284Y5362634D01*
X1261284Y5369193D01*
X1264563Y5372473D01*
X1277682Y5372473D01*
X1280962Y5369193D01*
X1280962Y5362634D01*
X1277682Y5359354D01*
X1280962Y5349515D02*
X1280962Y5342955D01*
X1277682Y5339675D01*
X1271123Y5339675D01*
X1267843Y5342955D01*
X1267843Y5349515D01*
X1271123Y5352794D01*
X1277682Y5352794D01*
X1280962Y5349515D01*
X1280962Y5333116D02*
X1267843Y5333116D01*
X1267843Y5329836D01*
X1271123Y5326556D01*
X1280962Y5326556D01*
X1271123Y5326556D01*
X1267843Y5323276D01*
X1271123Y5319997D01*
X1280962Y5319997D01*
X1287522Y5313437D02*
X1267843Y5313437D01*
X1267843Y5303598D01*
X1271123Y5300318D01*
X1277682Y5300318D01*
X1280962Y5303598D01*
X1280962Y5313437D01*
X1267843Y5293759D02*
X1277682Y5293759D01*
X1280962Y5290479D01*
X1280962Y5280640D01*
X1267843Y5280640D01*
X1264563Y5270800D02*
X1267843Y5270800D01*
X1267843Y5274080D01*
X1267843Y5267520D01*
X1267843Y5270800D01*
X1277682Y5270800D01*
X1280962Y5267520D01*
X1280962Y5247842D02*
X1280962Y5254401D01*
X1277682Y5257681D01*
X1271123Y5257681D01*
X1267843Y5254401D01*
X1267843Y5247842D01*
X1271123Y5244562D01*
X1274403Y5244562D01*
X1274403Y5257681D01*
X1267843Y5238002D02*
X1280962Y5238002D01*
X1274403Y5238002D01*
X1271123Y5234723D01*
X1267843Y5231443D01*
X1267843Y5228163D01*
X1320585Y5372473D02*
X1300906Y5372473D01*
X1300906Y5362634D01*
X1304186Y5359354D01*
X1310746Y5359354D01*
X1314025Y5362634D01*
X1314025Y5372473D01*
X1320585Y5349515D02*
X1320585Y5342955D01*
X1317305Y5339675D01*
X1310746Y5339675D01*
X1307466Y5342955D01*
X1307466Y5349515D01*
X1310746Y5352794D01*
X1317305Y5352794D01*
X1320585Y5349515D01*
X1307466Y5333116D02*
X1317305Y5333116D01*
X1320585Y5329836D01*
X1317305Y5326556D01*
X1320585Y5323276D01*
X1317305Y5319997D01*
X1307466Y5319997D01*
X1320585Y5303598D02*
X1320585Y5310157D01*
X1317305Y5313437D01*
X1310746Y5313437D01*
X1307466Y5310157D01*
X1307466Y5303598D01*
X1310746Y5300318D01*
X1314025Y5300318D01*
X1314025Y5313437D01*
X1307466Y5293759D02*
X1320585Y5293759D01*
X1314025Y5293759D01*
X1310746Y5290479D01*
X1307466Y5287199D01*
X1307466Y5283919D01*
X1333969Y5362634D02*
X1333969Y5369193D01*
X1337249Y5372473D01*
X1350368Y5372473D01*
X1353648Y5369193D01*
X1353648Y5362634D01*
X1350368Y5359354D01*
X1337249Y5359354D01*
X1333969Y5362634D01*
X1353648Y5352794D02*
X1340529Y5352794D01*
X1340529Y5342955D01*
X1343809Y5339675D01*
X1353648Y5339675D01*
X-632137Y5346944D02*
X-635416Y5350224D01*
X-635416Y5356783D01*
X-632137Y5360063D01*
X-619018Y5360063D01*
X-615738Y5356783D01*
X-615738Y5350224D01*
X-619018Y5346944D01*
X-615738Y5337105D02*
X-615738Y5330545D01*
X-619018Y5327265D01*
X-625577Y5327265D01*
X-628857Y5330545D01*
X-628857Y5337105D01*
X-625577Y5340384D01*
X-619018Y5340384D01*
X-615738Y5337105D01*
X-615738Y5320706D02*
X-628857Y5320706D01*
X-628857Y5310867D01*
X-625577Y5307587D01*
X-615738Y5307587D01*
X-615738Y5301027D02*
X-628857Y5301027D01*
X-628857Y5291188D01*
X-625577Y5287908D01*
X-615738Y5287908D01*
X-615738Y5281349D02*
X-615738Y5274789D01*
X-615738Y5278069D01*
X-628857Y5278069D01*
X-628857Y5281349D01*
X-615738Y5264950D02*
X-628857Y5264950D01*
X-628857Y5255110D01*
X-625577Y5251831D01*
X-615738Y5251831D01*
X-609178Y5238712D02*
X-609178Y5235432D01*
X-612458Y5232152D01*
X-628857Y5232152D01*
X-628857Y5241991D01*
X-625577Y5245271D01*
X-619018Y5245271D01*
X-615738Y5241991D01*
X-615738Y5232152D01*
X-595794Y5360063D02*
X-595794Y5346944D01*
X-595794Y5353503D01*
X-576115Y5353503D01*
X-576115Y5337105D02*
X-576115Y5330545D01*
X-579395Y5327265D01*
X-585954Y5327265D01*
X-589234Y5330545D01*
X-589234Y5337105D01*
X-585954Y5340384D01*
X-579395Y5340384D01*
X-576115Y5337105D01*
X-589234Y5320706D02*
X-579395Y5320706D01*
X-576115Y5317426D01*
X-579395Y5314146D01*
X-576115Y5310867D01*
X-579395Y5307587D01*
X-589234Y5307587D01*
X-576115Y5291188D02*
X-576115Y5297747D01*
X-579395Y5301027D01*
X-585954Y5301027D01*
X-589234Y5297747D01*
X-589234Y5291188D01*
X-585954Y5287908D01*
X-582675Y5287908D01*
X-582675Y5301027D01*
X-589234Y5281349D02*
X-576115Y5281349D01*
X-582675Y5281349D01*
X-585954Y5278069D01*
X-589234Y5274789D01*
X-589234Y5271509D01*
X-562731Y5360063D02*
X-543052Y5360063D01*
X-552891Y5360063D01*
X-552891Y5346944D01*
X-562731Y5346944D01*
X-543052Y5346944D01*
X-543052Y5330545D02*
X-543052Y5337105D01*
X-546332Y5340384D01*
X-552891Y5340384D01*
X-556171Y5337105D01*
X-556171Y5330545D01*
X-552891Y5327265D01*
X-549611Y5327265D01*
X-549611Y5340384D01*
X-556171Y5317426D02*
X-556171Y5310867D01*
X-552891Y5307587D01*
X-543052Y5307587D01*
X-543052Y5317426D01*
X-546332Y5320706D01*
X-549611Y5317426D01*
X-549611Y5307587D01*
X-559451Y5297747D02*
X-556171Y5297747D01*
X-556171Y5301027D01*
X-556171Y5294468D01*
X-556171Y5297747D01*
X-546332Y5297747D01*
X-543052Y5294468D01*
X-543052Y5274789D02*
X-543052Y5281349D01*
X-546332Y5284628D01*
X-552891Y5284628D01*
X-556171Y5281349D01*
X-556171Y5274789D01*
X-552891Y5271509D01*
X-549611Y5271509D01*
X-549611Y5284628D01*
X-556171Y5264950D02*
X-543052Y5264950D01*
X-549611Y5264950D01*
X-552891Y5261670D01*
X-556171Y5258390D01*
X-556171Y5255110D01*
X1348575Y2201159D02*
X1351855Y2197879D01*
X1351855Y2191319D01*
X1348575Y2188039D01*
X1335456Y2188039D01*
X1332176Y2191319D01*
X1332176Y2197879D01*
X1335456Y2201159D01*
X1342016Y2201159D01*
X1342016Y2194599D01*
X1332176Y2217557D02*
X1332176Y2210998D01*
X1335456Y2207718D01*
X1342016Y2207718D01*
X1345295Y2210998D01*
X1345295Y2217557D01*
X1342016Y2220837D01*
X1338736Y2220837D01*
X1338736Y2207718D01*
X1345295Y2230676D02*
X1345295Y2237236D01*
X1342016Y2240516D01*
X1332176Y2240516D01*
X1332176Y2230676D01*
X1335456Y2227397D01*
X1338736Y2230676D01*
X1338736Y2240516D01*
X1345295Y2247075D02*
X1332176Y2247075D01*
X1338736Y2247075D01*
X1342016Y2250355D01*
X1345295Y2253635D01*
X1345295Y2256914D01*
X1351855Y2266754D02*
X1332176Y2266754D01*
X1332176Y2276593D01*
X1335456Y2279873D01*
X1338736Y2279873D01*
X1342016Y2279873D01*
X1345295Y2276593D01*
X1345295Y2266754D01*
X1332176Y2289712D02*
X1332176Y2296272D01*
X1335456Y2299552D01*
X1342016Y2299552D01*
X1345295Y2296272D01*
X1345295Y2289712D01*
X1342016Y2286432D01*
X1335456Y2286432D01*
X1332176Y2289712D01*
X1345295Y2306111D02*
X1332176Y2319230D01*
X1338736Y2312671D01*
X1345295Y2319230D01*
X1332176Y2306111D01*
X1351855Y2345468D02*
X1332176Y2345468D01*
X1342016Y2345468D01*
X1342016Y2358587D01*
X1351855Y2358587D01*
X1332176Y2358587D01*
X1332176Y2374986D02*
X1332176Y2368427D01*
X1335456Y2365147D01*
X1342016Y2365147D01*
X1345295Y2368427D01*
X1345295Y2374986D01*
X1342016Y2378266D01*
X1338736Y2378266D01*
X1338736Y2365147D01*
X1345295Y2388105D02*
X1345295Y2394665D01*
X1342016Y2397945D01*
X1332176Y2397945D01*
X1332176Y2388105D01*
X1335456Y2384825D01*
X1338736Y2388105D01*
X1338736Y2397945D01*
X1348575Y2407784D02*
X1345295Y2407784D01*
X1345295Y2404504D01*
X1345295Y2411064D01*
X1345295Y2407784D01*
X1335456Y2407784D01*
X1332176Y2411064D01*
X1332176Y2430742D02*
X1332176Y2424183D01*
X1335456Y2420903D01*
X1342016Y2420903D01*
X1345295Y2424183D01*
X1345295Y2430742D01*
X1342016Y2434022D01*
X1338736Y2434022D01*
X1338736Y2420903D01*
X1345295Y2440581D02*
X1332176Y2440581D01*
X1338736Y2440581D01*
X1342016Y2443861D01*
X1345295Y2447141D01*
X1345295Y2450421D01*
X1729150Y2112576D02*
X1732430Y2109296D01*
X1732430Y2102736D01*
X1729150Y2099457D01*
X1716031Y2099457D01*
X1712752Y2102736D01*
X1712752Y2109296D01*
X1716031Y2112576D01*
X1712752Y2122415D02*
X1712752Y2128975D01*
X1716031Y2132254D01*
X1722591Y2132254D01*
X1725871Y2128975D01*
X1725871Y2122415D01*
X1722591Y2119135D01*
X1716031Y2119135D01*
X1712752Y2122415D01*
X1712752Y2138814D02*
X1725871Y2138814D01*
X1725871Y2148653D01*
X1722591Y2151933D01*
X1712752Y2151933D01*
X1712752Y2158492D02*
X1725871Y2158492D01*
X1725871Y2168332D01*
X1722591Y2171612D01*
X1712752Y2171612D01*
X1712752Y2178171D02*
X1712752Y2184731D01*
X1712752Y2181451D01*
X1725871Y2181451D01*
X1725871Y2178171D01*
X1712752Y2194570D02*
X1725871Y2194570D01*
X1725871Y2204409D01*
X1722591Y2207689D01*
X1712752Y2207689D01*
X1706192Y2220808D02*
X1706192Y2224088D01*
X1709472Y2227368D01*
X1725871Y2227368D01*
X1725871Y2217528D01*
X1722591Y2214249D01*
X1716031Y2214249D01*
X1712752Y2217528D01*
X1712752Y2227368D01*
X1732430Y2253606D02*
X1732430Y2266725D01*
X1732430Y2260165D01*
X1712752Y2260165D01*
X1712752Y2276564D02*
X1712752Y2283124D01*
X1716031Y2286403D01*
X1722591Y2286403D01*
X1725871Y2283124D01*
X1725871Y2276564D01*
X1722591Y2273284D01*
X1716031Y2273284D01*
X1712752Y2276564D01*
X1725871Y2292963D02*
X1716031Y2292963D01*
X1712752Y2296243D01*
X1716031Y2299523D01*
X1712752Y2302802D01*
X1716031Y2306082D01*
X1725871Y2306082D01*
X1712752Y2322481D02*
X1712752Y2315921D01*
X1716031Y2312642D01*
X1722591Y2312642D01*
X1725871Y2315921D01*
X1725871Y2322481D01*
X1722591Y2325761D01*
X1719311Y2325761D01*
X1719311Y2312642D01*
X1725871Y2332320D02*
X1712752Y2332320D01*
X1719311Y2332320D01*
X1722591Y2335600D01*
X1725871Y2338880D01*
X1725871Y2342160D01*
X1732430Y2371677D02*
X1712752Y2371677D01*
X1722591Y2371677D01*
X1722591Y2384796D01*
X1732430Y2384796D01*
X1712752Y2384796D01*
X1712752Y2401195D02*
X1712752Y2394636D01*
X1716031Y2391356D01*
X1722591Y2391356D01*
X1725871Y2394636D01*
X1725871Y2401195D01*
X1722591Y2404475D01*
X1719311Y2404475D01*
X1719311Y2391356D01*
X1725871Y2414314D02*
X1725871Y2420874D01*
X1722591Y2424154D01*
X1712752Y2424154D01*
X1712752Y2414314D01*
X1716031Y2411035D01*
X1719311Y2414314D01*
X1719311Y2424154D01*
X1729150Y2433993D02*
X1725871Y2433993D01*
X1725871Y2430713D01*
X1725871Y2437273D01*
X1725871Y2433993D01*
X1716031Y2433993D01*
X1712752Y2437273D01*
X1712752Y2456951D02*
X1712752Y2450392D01*
X1716031Y2447112D01*
X1722591Y2447112D01*
X1725871Y2450392D01*
X1725871Y2456951D01*
X1722591Y2460231D01*
X1719311Y2460231D01*
X1719311Y2447112D01*
X1725871Y2466791D02*
X1712752Y2466791D01*
X1719311Y2466791D01*
X1722591Y2470070D01*
X1725871Y2473350D01*
X1725871Y2476630D01*
X1051906Y5360354D02*
X1051906Y5373473D01*
X1061746Y5373473D01*
X1061746Y5366913D01*
X1061746Y5373473D01*
X1071585Y5373473D01*
X1058466Y5353794D02*
X1068305Y5353794D01*
X1071585Y5350515D01*
X1071585Y5340675D01*
X1058466Y5340675D01*
X1071585Y5334116D02*
X1071585Y5324276D01*
X1068305Y5320997D01*
X1065025Y5324276D01*
X1065025Y5330836D01*
X1061746Y5334116D01*
X1058466Y5330836D01*
X1058466Y5320997D01*
X1071585Y5304598D02*
X1071585Y5311157D01*
X1068305Y5314437D01*
X1061746Y5314437D01*
X1058466Y5311157D01*
X1058466Y5304598D01*
X1061746Y5301318D01*
X1065025Y5301318D01*
X1065025Y5314437D01*
X1084969Y5373473D02*
X1104648Y5373473D01*
X1104648Y5363634D01*
X1101368Y5360354D01*
X1098089Y5360354D01*
X1094809Y5363634D01*
X1094809Y5373473D01*
X1094809Y5363634D01*
X1091529Y5360354D01*
X1088249Y5360354D01*
X1084969Y5363634D01*
X1084969Y5373473D01*
X1104648Y5353794D02*
X1104648Y5347235D01*
X1104648Y5350515D01*
X1084969Y5350515D01*
X1084969Y5353794D01*
X1104648Y5334116D02*
X1104648Y5327556D01*
X1101368Y5324276D01*
X1094809Y5324276D01*
X1091529Y5327556D01*
X1091529Y5334116D01*
X1094809Y5337395D01*
X1101368Y5337395D01*
X1104648Y5334116D01*
X1091529Y5317717D02*
X1101368Y5317717D01*
X1104648Y5314437D01*
X1101368Y5311157D01*
X1104648Y5307878D01*
X1101368Y5304598D01*
X1091529Y5304598D01*
X1104648Y5298038D02*
X1091529Y5298038D01*
X1091529Y5288199D01*
X1094809Y5284919D01*
X1104648Y5284919D01*
X-347514Y5346944D02*
X-350794Y5350224D01*
X-350794Y5356783D01*
X-347514Y5360063D01*
X-334395Y5360063D01*
X-331115Y5356783D01*
X-331115Y5350224D01*
X-334395Y5346944D01*
X-340954Y5346944D01*
X-340954Y5353503D01*
X-331115Y5330545D02*
X-331115Y5337105D01*
X-334395Y5340384D01*
X-340954Y5340384D01*
X-344234Y5337105D01*
X-344234Y5330545D01*
X-340954Y5327265D01*
X-337675Y5327265D01*
X-337675Y5340384D01*
X-344234Y5317426D02*
X-344234Y5310867D01*
X-340954Y5307587D01*
X-331115Y5307587D01*
X-331115Y5317426D01*
X-334395Y5320706D01*
X-337675Y5317426D01*
X-337675Y5307587D01*
X-344234Y5301027D02*
X-331115Y5301027D01*
X-337675Y5301027D01*
X-340954Y5297747D01*
X-344234Y5294468D01*
X-344234Y5291188D01*
X-350794Y5281349D02*
X-331115Y5281349D01*
X-331115Y5271509D01*
X-334395Y5268230D01*
X-337675Y5268230D01*
X-340954Y5268230D01*
X-344234Y5271509D01*
X-344234Y5281349D01*
X-331115Y5258390D02*
X-331115Y5251831D01*
X-334395Y5248551D01*
X-340954Y5248551D01*
X-344234Y5251831D01*
X-344234Y5258390D01*
X-340954Y5261670D01*
X-334395Y5261670D01*
X-331115Y5258390D01*
X-344234Y5241991D02*
X-331115Y5228872D01*
X-337675Y5235432D01*
X-344234Y5228872D01*
X-331115Y5241991D01*
X-317731Y5360063D02*
X-298052Y5360063D01*
X-307891Y5360063D01*
X-307891Y5346944D01*
X-317731Y5346944D01*
X-298052Y5346944D01*
X-298052Y5330545D02*
X-298052Y5337105D01*
X-301332Y5340384D01*
X-307891Y5340384D01*
X-311171Y5337105D01*
X-311171Y5330545D01*
X-307891Y5327265D01*
X-304611Y5327265D01*
X-304611Y5340384D01*
X-311171Y5317426D02*
X-311171Y5310867D01*
X-307891Y5307587D01*
X-298052Y5307587D01*
X-298052Y5317426D01*
X-301332Y5320706D01*
X-304611Y5317426D01*
X-304611Y5307587D01*
X-314451Y5297747D02*
X-311171Y5297747D01*
X-311171Y5301027D01*
X-311171Y5294468D01*
X-311171Y5297747D01*
X-301332Y5297747D01*
X-298052Y5294468D01*
X-298052Y5274789D02*
X-298052Y5281349D01*
X-301332Y5284628D01*
X-307891Y5284628D01*
X-311171Y5281349D01*
X-311171Y5274789D01*
X-307891Y5271509D01*
X-304611Y5271509D01*
X-304611Y5284628D01*
X-311171Y5264950D02*
X-298052Y5264950D01*
X-304611Y5264950D01*
X-307891Y5261670D01*
X-311171Y5258390D01*
X-311171Y5255110D01*
X-130794Y5360063D02*
X-130794Y5353503D01*
X-130794Y5356783D01*
X-111115Y5356783D01*
X-111115Y5360063D01*
X-111115Y5353503D01*
X-127514Y5330545D02*
X-130794Y5333825D01*
X-130794Y5340384D01*
X-127514Y5343664D01*
X-114395Y5343664D01*
X-111115Y5340384D01*
X-111115Y5333825D01*
X-114395Y5330545D01*
X-97731Y5360063D02*
X-78052Y5360063D01*
X-87891Y5360063D01*
X-87891Y5346944D01*
X-97731Y5346944D01*
X-78052Y5346944D01*
X-78052Y5330545D02*
X-78052Y5337105D01*
X-81332Y5340384D01*
X-87891Y5340384D01*
X-91171Y5337105D01*
X-91171Y5330545D01*
X-87891Y5327265D01*
X-84612Y5327265D01*
X-84612Y5340384D01*
X-91171Y5317426D02*
X-91171Y5310867D01*
X-87891Y5307587D01*
X-78052Y5307587D01*
X-78052Y5317426D01*
X-81332Y5320706D01*
X-84612Y5317426D01*
X-84612Y5307587D01*
X-94451Y5297747D02*
X-91171Y5297747D01*
X-91171Y5301027D01*
X-91171Y5294468D01*
X-91171Y5297747D01*
X-81332Y5297747D01*
X-78052Y5294468D01*
X-78052Y5274789D02*
X-78052Y5281349D01*
X-81332Y5284628D01*
X-87891Y5284628D01*
X-91171Y5281349D01*
X-91171Y5274789D01*
X-87891Y5271509D01*
X-84612Y5271509D01*
X-84612Y5284628D01*
X-91171Y5264950D02*
X-78052Y5264950D01*
X-84612Y5264950D01*
X-87891Y5261670D01*
X-91171Y5258390D01*
X-91171Y5255110D01*
X-216115Y5360063D02*
X-229234Y5360063D01*
X-235794Y5353503D01*
X-229234Y5346944D01*
X-216115Y5346944D01*
X-225954Y5346944D01*
X-225954Y5360063D01*
X-229234Y5340384D02*
X-216115Y5340384D01*
X-222675Y5340384D01*
X-225954Y5337105D01*
X-229234Y5333825D01*
X-229234Y5330545D01*
X-229234Y5320706D02*
X-216115Y5320706D01*
X-222675Y5320706D01*
X-225954Y5317426D01*
X-229234Y5314146D01*
X-229234Y5310867D01*
X-216115Y5291188D02*
X-216115Y5297747D01*
X-219395Y5301027D01*
X-225954Y5301027D01*
X-229234Y5297747D01*
X-229234Y5291188D01*
X-225954Y5287908D01*
X-222675Y5287908D01*
X-222675Y5301027D01*
X-216115Y5281349D02*
X-216115Y5271509D01*
X-219395Y5268230D01*
X-222675Y5271509D01*
X-222675Y5278069D01*
X-225954Y5281349D01*
X-229234Y5278069D01*
X-229234Y5268230D01*
X-232514Y5258390D02*
X-229234Y5258390D01*
X-229234Y5261670D01*
X-229234Y5255110D01*
X-229234Y5258390D01*
X-219395Y5258390D01*
X-216115Y5255110D01*
X-216115Y5245271D02*
X-229234Y5245271D01*
X-229234Y5241991D01*
X-225954Y5238712D01*
X-216115Y5238712D01*
X-225954Y5238712D01*
X-229234Y5235432D01*
X-225954Y5232152D01*
X-216115Y5232152D01*
X-216115Y5215753D02*
X-216115Y5222313D01*
X-219395Y5225592D01*
X-225954Y5225592D01*
X-229234Y5222313D01*
X-229234Y5215753D01*
X-225954Y5212473D01*
X-222675Y5212473D01*
X-222675Y5225592D01*
X-216115Y5205914D02*
X-229234Y5205914D01*
X-229234Y5196075D01*
X-225954Y5192795D01*
X-216115Y5192795D01*
X-232514Y5182956D02*
X-229234Y5182956D01*
X-229234Y5186235D01*
X-229234Y5179676D01*
X-229234Y5182956D01*
X-219395Y5182956D01*
X-216115Y5179676D01*
X-202731Y5360063D02*
X-183052Y5360063D01*
X-192891Y5360063D01*
X-192891Y5346944D01*
X-202731Y5346944D01*
X-183052Y5346944D01*
X-183052Y5330545D02*
X-183052Y5337105D01*
X-186332Y5340384D01*
X-192891Y5340384D01*
X-196171Y5337105D01*
X-196171Y5330545D01*
X-192891Y5327265D01*
X-189612Y5327265D01*
X-189612Y5340384D01*
X-196171Y5317426D02*
X-196171Y5310867D01*
X-192891Y5307587D01*
X-183052Y5307587D01*
X-183052Y5317426D01*
X-186332Y5320706D01*
X-189612Y5317426D01*
X-189612Y5307587D01*
X-199451Y5297747D02*
X-196171Y5297747D01*
X-196171Y5301027D01*
X-196171Y5294468D01*
X-196171Y5297747D01*
X-186332Y5297747D01*
X-183052Y5294468D01*
X-183052Y5274789D02*
X-183052Y5281349D01*
X-186332Y5284628D01*
X-192891Y5284628D01*
X-196171Y5281349D01*
X-196171Y5274789D01*
X-192891Y5271509D01*
X-189612Y5271509D01*
X-189612Y5284628D01*
X-196171Y5264950D02*
X-183052Y5264950D01*
X-189612Y5264950D01*
X-192891Y5261670D01*
X-196171Y5258390D01*
X-196171Y5255110D01*
X-466115Y5360063D02*
X-485794Y5360063D01*
X-479234Y5353503D01*
X-485794Y5346944D01*
X-466115Y5346944D01*
X-466115Y5330545D02*
X-466115Y5337105D01*
X-469395Y5340384D01*
X-475954Y5340384D01*
X-479234Y5337105D01*
X-479234Y5330545D01*
X-475954Y5327265D01*
X-472675Y5327265D01*
X-472675Y5340384D01*
X-482514Y5317426D02*
X-479234Y5317426D01*
X-479234Y5320706D01*
X-479234Y5314146D01*
X-479234Y5317426D01*
X-469395Y5317426D01*
X-466115Y5314146D01*
X-466115Y5294468D02*
X-466115Y5301027D01*
X-469395Y5304307D01*
X-475954Y5304307D01*
X-479234Y5301027D01*
X-479234Y5294468D01*
X-475954Y5291188D01*
X-472675Y5291188D01*
X-472675Y5304307D01*
X-479234Y5284628D02*
X-466115Y5284628D01*
X-472675Y5284628D01*
X-475954Y5281349D01*
X-479234Y5278069D01*
X-479234Y5274789D01*
X-452731Y5360063D02*
X-433052Y5360063D01*
X-442891Y5360063D01*
X-442891Y5346944D01*
X-452731Y5346944D01*
X-433052Y5346944D01*
X-433052Y5330545D02*
X-433052Y5337105D01*
X-436332Y5340384D01*
X-442891Y5340384D01*
X-446171Y5337105D01*
X-446171Y5330545D01*
X-442891Y5327265D01*
X-439611Y5327265D01*
X-439611Y5340384D01*
X-446171Y5317426D02*
X-446171Y5310867D01*
X-442891Y5307587D01*
X-433052Y5307587D01*
X-433052Y5317426D01*
X-436332Y5320706D01*
X-439611Y5317426D01*
X-439611Y5307587D01*
X-449451Y5297747D02*
X-446171Y5297747D01*
X-446171Y5301027D01*
X-446171Y5294468D01*
X-446171Y5297747D01*
X-436332Y5297747D01*
X-433052Y5294468D01*
X-433052Y5274789D02*
X-433052Y5281349D01*
X-436332Y5284628D01*
X-442891Y5284628D01*
X-446171Y5281349D01*
X-446171Y5274789D01*
X-442891Y5271509D01*
X-439611Y5271509D01*
X-439611Y5284628D01*
X-446171Y5264950D02*
X-433052Y5264950D01*
X-439611Y5264950D01*
X-442891Y5261670D01*
X-446171Y5258390D01*
X-446171Y5255110D01*
X1794768Y839614D02*
X1794768Y846174D01*
X1794768Y842894D01*
X1775090Y842894D01*
X1775090Y839614D01*
X1775090Y846174D01*
X1791489Y869132D02*
X1794768Y865852D01*
X1794768Y859293D01*
X1791489Y856013D01*
X1778370Y856013D01*
X1775090Y859293D01*
X1775090Y865852D01*
X1778370Y869132D01*
X1794768Y895370D02*
X1775090Y895370D01*
X1784929Y895370D01*
X1784929Y908489D01*
X1794768Y908489D01*
X1775090Y908489D01*
X1775090Y924888D02*
X1775090Y918329D01*
X1778370Y915049D01*
X1784929Y915049D01*
X1788209Y918329D01*
X1788209Y924888D01*
X1784929Y928168D01*
X1781649Y928168D01*
X1781649Y915049D01*
X1788209Y938007D02*
X1788209Y944567D01*
X1784929Y947847D01*
X1775090Y947847D01*
X1775090Y938007D01*
X1778370Y934727D01*
X1781649Y938007D01*
X1781649Y947847D01*
X1791489Y957686D02*
X1788209Y957686D01*
X1788209Y954406D01*
X1788209Y960966D01*
X1788209Y957686D01*
X1778370Y957686D01*
X1775090Y960966D01*
X1775090Y980644D02*
X1775090Y974085D01*
X1778370Y970805D01*
X1784929Y970805D01*
X1788209Y974085D01*
X1788209Y980644D01*
X1784929Y983924D01*
X1781649Y983924D01*
X1781649Y970805D01*
X1788209Y990484D02*
X1775090Y990484D01*
X1781649Y990484D01*
X1784929Y993763D01*
X1788209Y997043D01*
X1788209Y1000323D01*
X-449115Y5413679D02*
X-449115Y5394000D01*
X-458954Y5394000D01*
X-462234Y5397280D01*
X-462234Y5410399D01*
X-458954Y5413679D01*
X-449115Y5413679D01*
X-481913Y5410399D02*
X-478633Y5413679D01*
X-472073Y5413679D01*
X-468794Y5410399D01*
X-468794Y5407119D01*
X-472073Y5403839D01*
X-478633Y5403839D01*
X-481913Y5400560D01*
X-481913Y5397280D01*
X-478633Y5394000D01*
X-472073Y5394000D01*
X-468794Y5397280D01*
X-488472Y5410399D02*
X-491752Y5413679D01*
X-498312Y5413679D01*
X-501591Y5410399D01*
X-501591Y5407119D01*
X-498312Y5403839D01*
X-495032Y5403839D01*
X-498312Y5403839D01*
X-501591Y5400560D01*
X-501591Y5397280D01*
X-498312Y5394000D01*
X-491752Y5394000D01*
X-488472Y5397280D01*
X-564115Y5418679D02*
X-564115Y5399000D01*
X-573954Y5399000D01*
X-577234Y5402280D01*
X-577234Y5415399D01*
X-573954Y5418679D01*
X-564115Y5418679D01*
X-596913Y5415399D02*
X-593633Y5418679D01*
X-587073Y5418679D01*
X-583794Y5415399D01*
X-583794Y5412119D01*
X-587073Y5408839D01*
X-593633Y5408839D01*
X-596913Y5405560D01*
X-596913Y5402280D01*
X-593633Y5399000D01*
X-587073Y5399000D01*
X-583794Y5402280D01*
X-613312Y5399000D02*
X-613312Y5418679D01*
X-603472Y5408839D01*
X-616591Y5408839D01*
X-329115Y5413679D02*
X-329115Y5394000D01*
X-338954Y5394000D01*
X-342234Y5397280D01*
X-342234Y5410399D01*
X-338954Y5413679D01*
X-329115Y5413679D01*
X-361913Y5410399D02*
X-358633Y5413679D01*
X-352073Y5413679D01*
X-348794Y5410399D01*
X-348794Y5407119D01*
X-352073Y5403839D01*
X-358633Y5403839D01*
X-361913Y5400560D01*
X-361913Y5397280D01*
X-358633Y5394000D01*
X-352073Y5394000D01*
X-348794Y5397280D01*
X-381591Y5413679D02*
X-375032Y5410399D01*
X-368472Y5403839D01*
X-368472Y5397280D01*
X-371752Y5394000D01*
X-378312Y5394000D01*
X-381591Y5397280D01*
X-381591Y5400560D01*
X-378312Y5403839D01*
X-368472Y5403839D01*
X-204115Y5413679D02*
X-204115Y5394000D01*
X-213954Y5394000D01*
X-217234Y5397280D01*
X-217234Y5410399D01*
X-213954Y5413679D01*
X-204115Y5413679D01*
X-236913Y5410399D02*
X-233633Y5413679D01*
X-227073Y5413679D01*
X-223794Y5410399D01*
X-223794Y5407119D01*
X-227073Y5403839D01*
X-233633Y5403839D01*
X-236913Y5400560D01*
X-236913Y5397280D01*
X-233633Y5394000D01*
X-227073Y5394000D01*
X-223794Y5397280D01*
X-256591Y5413679D02*
X-243472Y5413679D01*
X-243472Y5403839D01*
X-250032Y5407119D01*
X-253311Y5407119D01*
X-256591Y5403839D01*
X-256591Y5397280D01*
X-253311Y5394000D01*
X-246752Y5394000D01*
X-243472Y5397280D01*
X-49115Y5418679D02*
X-49115Y5399000D01*
X-58954Y5399000D01*
X-62234Y5402280D01*
X-62234Y5415399D01*
X-58954Y5418679D01*
X-49115Y5418679D01*
X-81913Y5415399D02*
X-78633Y5418679D01*
X-72073Y5418679D01*
X-68794Y5415399D01*
X-68794Y5412119D01*
X-72073Y5408839D01*
X-78633Y5408839D01*
X-81913Y5405560D01*
X-81913Y5402280D01*
X-78633Y5399000D01*
X-72073Y5399000D01*
X-68794Y5402280D01*
X-88472Y5418679D02*
X-101591Y5418679D01*
X-101591Y5415399D01*
X-88472Y5402280D01*
X-88472Y5399000D01*
D77*
X1298712Y-2042276D02*
G03*
X1298712Y-2042276I-7874J0D01*
G01*
D78*
X-571547Y2193944D02*
X-98747Y2193944D01*
X-571547Y2193944D02*
X-571547Y3571898D01*
X-98747Y3571898D01*
X-98747Y2193944D02*
X-98747Y3571898D01*
X1272531Y-2903300D02*
X1272531Y-2303300D01*
X472531Y-2903300D02*
X1272531Y-2903300D01*
X472531Y-2903300D02*
X472531Y-2303300D01*
X1272531Y-2303300D01*
X796885Y5143000D02*
X796885Y5493000D01*
X196885Y5493000D02*
X796885Y5493000D01*
X196885Y5143000D02*
X196885Y5493000D01*
X194381Y3853394D02*
X194381Y4227410D01*
X194381Y3853394D02*
X962097Y3853394D01*
X962097Y4207724D02*
X962097Y4227410D01*
X932571Y4227410D02*
X962097Y4227410D01*
X194381Y4227410D02*
X932571Y4227410D01*
X962097Y3853394D02*
X962097Y4207724D01*
X990807Y3561000D02*
X990807Y4554024D01*
X990807Y3561000D02*
X2109327Y3561000D01*
X2109327Y4554024D01*
X990807Y4554024D02*
X2109327Y4554024D01*
X1484585Y5482767D02*
X1484585Y5443410D01*
X1464906Y5443410D01*
X1458347Y5449970D01*
X1458347Y5476208D01*
X1464906Y5482767D01*
X1484585Y5482767D01*
X1418989Y5476208D02*
X1425549Y5482767D01*
X1438668Y5482767D01*
X1445228Y5476208D01*
X1445228Y5469648D01*
X1438668Y5463089D01*
X1425549Y5463089D01*
X1418989Y5456529D01*
X1418989Y5449970D01*
X1425549Y5443410D01*
X1438668Y5443410D01*
X1445228Y5449970D01*
X1405870Y5443410D02*
X1392751Y5443410D01*
X1399311Y5443410D01*
X1399311Y5482767D01*
X1405870Y5476208D01*
X550507Y4201924D02*
X550507Y4169127D01*
X543947Y4162567D01*
X530828Y4162567D01*
X524269Y4169127D01*
X524269Y4201924D01*
X491471Y4162567D02*
X491471Y4201924D01*
X511150Y4182246D01*
X484911Y4182246D01*
X1226861Y5201229D02*
X1226861Y5240586D01*
X1207183Y5240586D01*
X1200623Y5234026D01*
X1200623Y5220907D01*
X1207183Y5214348D01*
X1226861Y5214348D01*
X1213742Y5214348D02*
X1200623Y5201229D01*
X1161266Y5240586D02*
X1174385Y5234026D01*
X1187504Y5220907D01*
X1187504Y5207788D01*
X1180945Y5201229D01*
X1167825Y5201229D01*
X1161266Y5207788D01*
X1161266Y5214348D01*
X1167825Y5220907D01*
X1187504Y5220907D01*
X436507Y-1371016D02*
X436507Y-1331658D01*
X416828Y-1331658D01*
X410269Y-1338218D01*
X410269Y-1351337D01*
X416828Y-1357897D01*
X436507Y-1357897D01*
X423388Y-1357897D02*
X410269Y-1371016D01*
X370911Y-1331658D02*
X384031Y-1338218D01*
X397150Y-1351337D01*
X397150Y-1364456D01*
X390590Y-1371016D01*
X377471Y-1371016D01*
X370911Y-1364456D01*
X370911Y-1357897D01*
X377471Y-1351337D01*
X397150Y-1351337D01*
X357792Y-1338218D02*
X351233Y-1331658D01*
X338114Y-1331658D01*
X331554Y-1338218D01*
X331554Y-1344777D01*
X338114Y-1351337D01*
X344673Y-1351337D01*
X338114Y-1351337D01*
X331554Y-1357897D01*
X331554Y-1364456D01*
X338114Y-1371016D01*
X351233Y-1371016D01*
X357792Y-1364456D01*
X440444Y-1235189D02*
X440444Y-1195832D01*
X420765Y-1195832D01*
X414206Y-1202391D01*
X414206Y-1215510D01*
X420765Y-1222070D01*
X440444Y-1222070D01*
X427325Y-1222070D02*
X414206Y-1235189D01*
X374849Y-1195832D02*
X387968Y-1202391D01*
X401087Y-1215510D01*
X401087Y-1228629D01*
X394527Y-1235189D01*
X381408Y-1235189D01*
X374849Y-1228629D01*
X374849Y-1222070D01*
X381408Y-1215510D01*
X401087Y-1215510D01*
X335491Y-1235189D02*
X361729Y-1235189D01*
X335491Y-1208951D01*
X335491Y-1202391D01*
X342051Y-1195832D01*
X355170Y-1195832D01*
X361729Y-1202391D01*
X440444Y-1435976D02*
X440444Y-1396619D01*
X420765Y-1396619D01*
X414206Y-1403179D01*
X414206Y-1416298D01*
X420765Y-1422857D01*
X440444Y-1422857D01*
X427325Y-1422857D02*
X414206Y-1435976D01*
X374849Y-1396619D02*
X387968Y-1403179D01*
X401087Y-1416298D01*
X401087Y-1429417D01*
X394527Y-1435976D01*
X381408Y-1435976D01*
X374849Y-1429417D01*
X374849Y-1422857D01*
X381408Y-1416298D01*
X401087Y-1416298D01*
X361729Y-1435976D02*
X348610Y-1435976D01*
X355170Y-1435976D01*
X355170Y-1396619D01*
X361729Y-1403179D01*
X440444Y-1302118D02*
X440444Y-1262761D01*
X420765Y-1262761D01*
X414206Y-1269320D01*
X414206Y-1282439D01*
X420765Y-1288999D01*
X440444Y-1288999D01*
X427325Y-1288999D02*
X414206Y-1302118D01*
X374849Y-1262761D02*
X387968Y-1269320D01*
X401087Y-1282439D01*
X401087Y-1295559D01*
X394527Y-1302118D01*
X381408Y-1302118D01*
X374849Y-1295559D01*
X374849Y-1288999D01*
X381408Y-1282439D01*
X401087Y-1282439D01*
X361729Y-1269320D02*
X355170Y-1262761D01*
X342051Y-1262761D01*
X335491Y-1269320D01*
X335491Y-1295559D01*
X342051Y-1302118D01*
X355170Y-1302118D01*
X361729Y-1295559D01*
X361729Y-1269320D01*
X1200287Y-1467473D02*
X1200287Y-1428115D01*
X1180608Y-1428115D01*
X1174048Y-1434675D01*
X1174048Y-1447794D01*
X1180608Y-1454353D01*
X1200287Y-1454353D01*
X1187168Y-1454353D02*
X1174048Y-1467473D01*
X1134691Y-1428115D02*
X1160929Y-1428115D01*
X1160929Y-1447794D01*
X1147810Y-1441234D01*
X1141251Y-1441234D01*
X1134691Y-1447794D01*
X1134691Y-1460913D01*
X1141251Y-1467473D01*
X1154370Y-1467473D01*
X1160929Y-1460913D01*
X1121572Y-1460913D02*
X1115012Y-1467473D01*
X1101893Y-1467473D01*
X1095334Y-1460913D01*
X1095334Y-1434675D01*
X1101893Y-1428115D01*
X1115012Y-1428115D01*
X1121572Y-1434675D01*
X1121572Y-1441234D01*
X1115012Y-1447794D01*
X1095334Y-1447794D01*
X452255Y-1054087D02*
X452255Y-1014729D01*
X432576Y-1014729D01*
X426017Y-1021289D01*
X426017Y-1034408D01*
X432576Y-1040967D01*
X452255Y-1040967D01*
X439136Y-1040967D02*
X426017Y-1054087D01*
X386659Y-1014729D02*
X412898Y-1014729D01*
X412898Y-1034408D01*
X399779Y-1027848D01*
X393219Y-1027848D01*
X386659Y-1034408D01*
X386659Y-1047527D01*
X393219Y-1054087D01*
X406338Y-1054087D01*
X412898Y-1047527D01*
X373540Y-1021289D02*
X366981Y-1014729D01*
X353862Y-1014729D01*
X347302Y-1021289D01*
X347302Y-1027848D01*
X353862Y-1034408D01*
X347302Y-1040967D01*
X347302Y-1047527D01*
X353862Y-1054087D01*
X366981Y-1054087D01*
X373540Y-1047527D01*
X373540Y-1040967D01*
X366981Y-1034408D01*
X373540Y-1027848D01*
X373540Y-1021289D01*
X366981Y-1034408D02*
X353862Y-1034408D01*
X1200287Y-1536370D02*
X1200287Y-1497013D01*
X1180608Y-1497013D01*
X1174048Y-1503572D01*
X1174048Y-1516691D01*
X1180608Y-1523251D01*
X1200287Y-1523251D01*
X1187168Y-1523251D02*
X1174048Y-1536370D01*
X1134691Y-1497013D02*
X1160929Y-1497013D01*
X1160929Y-1516691D01*
X1147810Y-1510132D01*
X1141251Y-1510132D01*
X1134691Y-1516691D01*
X1134691Y-1529810D01*
X1141251Y-1536370D01*
X1154370Y-1536370D01*
X1160929Y-1529810D01*
X1121572Y-1497013D02*
X1095334Y-1497013D01*
X1095334Y-1503572D01*
X1121572Y-1529810D01*
X1121572Y-1536370D01*
X453255Y-986000D02*
X453255Y-946643D01*
X433576Y-946643D01*
X427017Y-953202D01*
X427017Y-966321D01*
X433576Y-972881D01*
X453255Y-972881D01*
X440136Y-972881D02*
X427017Y-986000D01*
X387659Y-946643D02*
X413898Y-946643D01*
X413898Y-966321D01*
X400779Y-959762D01*
X394219Y-959762D01*
X387659Y-966321D01*
X387659Y-979440D01*
X394219Y-986000D01*
X407338Y-986000D01*
X413898Y-979440D01*
X348302Y-946643D02*
X361421Y-953202D01*
X374540Y-966321D01*
X374540Y-979440D01*
X367981Y-986000D01*
X354862Y-986000D01*
X348302Y-979440D01*
X348302Y-972881D01*
X354862Y-966321D01*
X374540Y-966321D01*
X1200287Y-1388732D02*
X1200287Y-1349375D01*
X1180608Y-1349375D01*
X1174048Y-1355934D01*
X1174048Y-1369053D01*
X1180608Y-1375613D01*
X1200287Y-1375613D01*
X1187168Y-1375613D02*
X1174048Y-1388732D01*
X1134691Y-1349375D02*
X1160929Y-1349375D01*
X1160929Y-1369053D01*
X1147810Y-1362494D01*
X1141251Y-1362494D01*
X1134691Y-1369053D01*
X1134691Y-1382173D01*
X1141251Y-1388732D01*
X1154370Y-1388732D01*
X1160929Y-1382173D01*
X1095334Y-1349375D02*
X1121572Y-1349375D01*
X1121572Y-1369053D01*
X1108453Y-1362494D01*
X1101893Y-1362494D01*
X1095334Y-1369053D01*
X1095334Y-1382173D01*
X1101893Y-1388732D01*
X1115012Y-1388732D01*
X1121572Y-1382173D01*
X1200287Y-1319835D02*
X1200287Y-1280477D01*
X1180608Y-1280477D01*
X1174048Y-1287037D01*
X1174048Y-1300156D01*
X1180608Y-1306716D01*
X1200287Y-1306716D01*
X1187168Y-1306716D02*
X1174048Y-1319835D01*
X1134691Y-1280477D02*
X1160929Y-1280477D01*
X1160929Y-1300156D01*
X1147810Y-1293597D01*
X1141251Y-1293597D01*
X1134691Y-1300156D01*
X1134691Y-1313275D01*
X1141251Y-1319835D01*
X1154370Y-1319835D01*
X1160929Y-1313275D01*
X1101893Y-1319835D02*
X1101893Y-1280477D01*
X1121572Y-1300156D01*
X1095334Y-1300156D01*
X-382981Y1340208D02*
X-382981Y1379565D01*
X-402660Y1379565D01*
X-409219Y1373006D01*
X-409219Y1359887D01*
X-402660Y1353327D01*
X-382981Y1353327D01*
X-396100Y1353327D02*
X-409219Y1340208D01*
X-422339Y1340208D02*
X-435458Y1340208D01*
X-428898Y1340208D01*
X-428898Y1379565D01*
X-422339Y1373006D01*
X-455136Y1373006D02*
X-461696Y1379565D01*
X-474815Y1379565D01*
X-481375Y1373006D01*
X-481375Y1366446D01*
X-474815Y1359887D01*
X-468255Y1359887D01*
X-474815Y1359887D01*
X-481375Y1353327D01*
X-481375Y1346767D01*
X-474815Y1340208D01*
X-461696Y1340208D01*
X-455136Y1346767D01*
X-766052Y1418158D02*
X-766052Y1457515D01*
X-785731Y1457515D01*
X-792290Y1450955D01*
X-792290Y1437836D01*
X-785731Y1431277D01*
X-766052Y1431277D01*
X-779171Y1431277D02*
X-792290Y1418158D01*
X-805409Y1418158D02*
X-818529Y1418158D01*
X-811969Y1418158D01*
X-811969Y1457515D01*
X-805409Y1450955D01*
X-864445Y1418158D02*
X-838207Y1418158D01*
X-864445Y1444396D01*
X-864445Y1450955D01*
X-857886Y1457515D01*
X-844767Y1457515D01*
X-838207Y1450955D01*
X-402666Y1446507D02*
X-402666Y1485865D01*
X-422345Y1485865D01*
X-428904Y1479305D01*
X-428904Y1466186D01*
X-422345Y1459626D01*
X-402666Y1459626D01*
X-415785Y1459626D02*
X-428904Y1446507D01*
X-442024Y1446507D02*
X-455143Y1446507D01*
X-448583Y1446507D01*
X-448583Y1485865D01*
X-442024Y1479305D01*
X-474821Y1446507D02*
X-487940Y1446507D01*
X-481381Y1446507D01*
X-481381Y1485865D01*
X-474821Y1479305D01*
X-768217Y1536465D02*
X-768217Y1575822D01*
X-787896Y1575822D01*
X-794456Y1569262D01*
X-794456Y1556143D01*
X-787896Y1549584D01*
X-768217Y1549584D01*
X-781337Y1549584D02*
X-794456Y1536465D01*
X-807575Y1536465D02*
X-820694Y1536465D01*
X-814134Y1536465D01*
X-814134Y1575822D01*
X-807575Y1569262D01*
X-840373Y1569262D02*
X-846932Y1575822D01*
X-860051Y1575822D01*
X-866611Y1569262D01*
X-866611Y1543024D01*
X-860051Y1536465D01*
X-846932Y1536465D01*
X-840373Y1543024D01*
X-840373Y1569262D01*
X64519Y2994929D02*
X25161Y2994929D01*
X25161Y2975251D01*
X31721Y2968691D01*
X44840Y2968691D01*
X51400Y2975251D01*
X51400Y2994929D01*
X51400Y2981810D02*
X64519Y2968691D01*
X25161Y2929334D02*
X31721Y2942453D01*
X44840Y2955572D01*
X57959Y2955572D01*
X64519Y2949012D01*
X64519Y2935893D01*
X57959Y2929334D01*
X51400Y2929334D01*
X44840Y2935893D01*
X44840Y2955572D01*
X25161Y2889976D02*
X31721Y2903095D01*
X44840Y2916215D01*
X57959Y2916215D01*
X64519Y2909655D01*
X64519Y2896536D01*
X57959Y2889976D01*
X51400Y2889976D01*
X44840Y2896536D01*
X44840Y2916215D01*
X1588255Y-818000D02*
X1548898Y-818000D01*
X1548898Y-837679D01*
X1555457Y-844238D01*
X1568576Y-844238D01*
X1575136Y-837679D01*
X1575136Y-818000D01*
X1575136Y-831119D02*
X1588255Y-844238D01*
X1555457Y-857357D02*
X1548898Y-863917D01*
X1548898Y-877036D01*
X1555457Y-883596D01*
X1562017Y-883596D01*
X1568576Y-877036D01*
X1568576Y-870476D01*
X1568576Y-877036D01*
X1575136Y-883596D01*
X1581696Y-883596D01*
X1588255Y-877036D01*
X1588255Y-863917D01*
X1581696Y-857357D01*
X1548898Y-922953D02*
X1548898Y-896715D01*
X1568576Y-896715D01*
X1562017Y-909834D01*
X1562017Y-916394D01*
X1568576Y-922953D01*
X1581696Y-922953D01*
X1588255Y-916394D01*
X1588255Y-903274D01*
X1581696Y-896715D01*
X-428904Y1573793D02*
X-422345Y1580353D01*
X-409226Y1580353D01*
X-402666Y1573793D01*
X-402666Y1547555D01*
X-409226Y1540995D01*
X-422345Y1540995D01*
X-428904Y1547555D01*
X-468262Y1540995D02*
X-442024Y1540995D01*
X-468262Y1567234D01*
X-468262Y1573793D01*
X-461702Y1580353D01*
X-448583Y1580353D01*
X-442024Y1573793D01*
X-507619Y1540995D02*
X-481381Y1540995D01*
X-507619Y1567234D01*
X-507619Y1573793D01*
X-501060Y1580353D01*
X-487941Y1580353D01*
X-481381Y1573793D01*
X1134678Y-1129556D02*
X1141238Y-1122997D01*
X1154357Y-1122997D01*
X1160917Y-1129556D01*
X1160917Y-1155795D01*
X1154357Y-1162354D01*
X1141238Y-1162354D01*
X1134678Y-1155795D01*
X1101880Y-1162354D02*
X1101880Y-1122997D01*
X1121559Y-1142676D01*
X1095321Y-1142676D01*
X1055964Y-1122997D02*
X1082202Y-1122997D01*
X1082202Y-1142676D01*
X1069083Y-1136116D01*
X1062523Y-1136116D01*
X1055964Y-1142676D01*
X1055964Y-1155795D01*
X1062523Y-1162354D01*
X1075642Y-1162354D01*
X1082202Y-1155795D01*
X1039536Y-962215D02*
X1032976Y-955655D01*
X1032976Y-942536D01*
X1039536Y-935976D01*
X1065774Y-935976D01*
X1072334Y-942536D01*
X1072334Y-955655D01*
X1065774Y-962215D01*
X1072334Y-995013D02*
X1032976Y-995013D01*
X1052655Y-975334D01*
X1052655Y-1001572D01*
X1072334Y-1034370D02*
X1032976Y-1034370D01*
X1052655Y-1014691D01*
X1052655Y-1040929D01*
X-83826Y1836979D02*
X-77266Y1843539D01*
X-64147Y1843539D01*
X-57587Y1836979D01*
X-57587Y1810741D01*
X-64147Y1804181D01*
X-77266Y1804181D01*
X-83826Y1810741D01*
X-123183Y1804181D02*
X-96945Y1804181D01*
X-123183Y1830419D01*
X-123183Y1836979D01*
X-116624Y1843539D01*
X-103504Y1843539D01*
X-96945Y1836979D01*
X-136302Y1836979D02*
X-142862Y1843539D01*
X-155981Y1843539D01*
X-162541Y1836979D01*
X-162541Y1830419D01*
X-155981Y1823860D01*
X-162541Y1817300D01*
X-162541Y1810741D01*
X-155981Y1804181D01*
X-142862Y1804181D01*
X-136302Y1810741D01*
X-136302Y1817300D01*
X-142862Y1823860D01*
X-136302Y1830419D01*
X-136302Y1836979D01*
X-142862Y1823860D02*
X-155981Y1823860D01*
X-802330Y1648003D02*
X-795770Y1654562D01*
X-782651Y1654562D01*
X-776091Y1648003D01*
X-776091Y1621764D01*
X-782651Y1615205D01*
X-795770Y1615205D01*
X-802330Y1621764D01*
X-841687Y1615205D02*
X-815449Y1615205D01*
X-841687Y1641443D01*
X-841687Y1648003D01*
X-835128Y1654562D01*
X-822008Y1654562D01*
X-815449Y1648003D01*
X-854806Y1615205D02*
X-867925Y1615205D01*
X-861366Y1615205D01*
X-861366Y1654562D01*
X-854806Y1648003D01*
X-998983Y3521798D02*
X-992424Y3528357D01*
X-979304Y3528357D01*
X-972745Y3521798D01*
X-972745Y3495560D01*
X-979304Y3489000D01*
X-992424Y3489000D01*
X-998983Y3495560D01*
X-1012102Y3521798D02*
X-1018662Y3528357D01*
X-1031781Y3528357D01*
X-1038341Y3521798D01*
X-1038341Y3515238D01*
X-1031781Y3508679D01*
X-1025221Y3508679D01*
X-1031781Y3508679D01*
X-1038341Y3502119D01*
X-1038341Y3495560D01*
X-1031781Y3489000D01*
X-1018662Y3489000D01*
X-1012102Y3495560D01*
X-1071138Y3489000D02*
X-1071138Y3528357D01*
X-1051460Y3508679D01*
X-1077698Y3508679D01*
X-564795Y4943297D02*
X-571354Y4949857D01*
X-571354Y4962976D01*
X-564795Y4969535D01*
X-538557Y4969535D01*
X-531997Y4962976D01*
X-531997Y4949857D01*
X-538557Y4943297D01*
X-531997Y4903940D02*
X-531997Y4930178D01*
X-558235Y4903940D01*
X-564795Y4903940D01*
X-571354Y4910499D01*
X-571354Y4923618D01*
X-564795Y4930178D01*
X-571354Y4864583D02*
X-564795Y4877702D01*
X-551676Y4890821D01*
X-538557Y4890821D01*
X-531997Y4884261D01*
X-531997Y4871142D01*
X-538557Y4864583D01*
X-545116Y4864583D01*
X-551676Y4871142D01*
X-551676Y4890821D01*
X1028190Y-558667D02*
X1034750Y-552107D01*
X1047869Y-552107D01*
X1054428Y-558667D01*
X1054428Y-584905D01*
X1047869Y-591465D01*
X1034750Y-591465D01*
X1028190Y-584905D01*
X988833Y-591465D02*
X1015071Y-591465D01*
X988833Y-565226D01*
X988833Y-558667D01*
X995392Y-552107D01*
X1008511Y-552107D01*
X1015071Y-558667D01*
X975713Y-558667D02*
X969154Y-552107D01*
X956035Y-552107D01*
X949475Y-558667D01*
X949475Y-584905D01*
X956035Y-591465D01*
X969154Y-591465D01*
X975713Y-584905D01*
X975713Y-558667D01*
X-509415Y-1595590D02*
X-548772Y-1595590D01*
X-548772Y-1615269D01*
X-542213Y-1621828D01*
X-529094Y-1621828D01*
X-522534Y-1615269D01*
X-522534Y-1595590D01*
X-522534Y-1608709D02*
X-509415Y-1621828D01*
X-542213Y-1634947D02*
X-548772Y-1641507D01*
X-548772Y-1654626D01*
X-542213Y-1661186D01*
X-535653Y-1661186D01*
X-529094Y-1654626D01*
X-529094Y-1648066D01*
X-529094Y-1654626D01*
X-522534Y-1661186D01*
X-515975Y-1661186D01*
X-509415Y-1654626D01*
X-509415Y-1641507D01*
X-515975Y-1634947D01*
X-548772Y-1674305D02*
X-548772Y-1700543D01*
X-542213Y-1700543D01*
X-515975Y-1674305D01*
X-509415Y-1674305D01*
X-371543Y4658762D02*
X-378102Y4665321D01*
X-378102Y4678440D01*
X-371543Y4685000D01*
X-345305Y4685000D01*
X-338745Y4678440D01*
X-338745Y4665321D01*
X-345305Y4658762D01*
X-338745Y4619404D02*
X-338745Y4645643D01*
X-364983Y4619404D01*
X-371543Y4619404D01*
X-378102Y4625964D01*
X-378102Y4639083D01*
X-371543Y4645643D01*
X-378102Y4580047D02*
X-378102Y4606285D01*
X-358424Y4606285D01*
X-364983Y4593166D01*
X-364983Y4586606D01*
X-358424Y4580047D01*
X-345305Y4580047D01*
X-338745Y4586606D01*
X-338745Y4599726D01*
X-345305Y4606285D01*
X-487720Y2022727D02*
X-481160Y2029287D01*
X-468041Y2029287D01*
X-461481Y2022727D01*
X-461481Y1996489D01*
X-468041Y1989929D01*
X-481160Y1989929D01*
X-487720Y1996489D01*
X-500839Y2022727D02*
X-507398Y2029287D01*
X-520518Y2029287D01*
X-527077Y2022727D01*
X-527077Y2016168D01*
X-520518Y2009608D01*
X-513958Y2009608D01*
X-520518Y2009608D01*
X-527077Y2003048D01*
X-527077Y1996489D01*
X-520518Y1989929D01*
X-507398Y1989929D01*
X-500839Y1996489D01*
X-540196Y2022727D02*
X-546756Y2029287D01*
X-559875Y2029287D01*
X-566434Y2022727D01*
X-566434Y1996489D01*
X-559875Y1989929D01*
X-546756Y1989929D01*
X-540196Y1996489D01*
X-540196Y2022727D01*
X-810204Y1923593D02*
X-803644Y1930153D01*
X-790525Y1930153D01*
X-783966Y1923593D01*
X-783966Y1897355D01*
X-790525Y1890795D01*
X-803644Y1890795D01*
X-810204Y1897355D01*
X-823323Y1923593D02*
X-829883Y1930153D01*
X-843002Y1930153D01*
X-849561Y1923593D01*
X-849561Y1917034D01*
X-843002Y1910474D01*
X-836442Y1910474D01*
X-843002Y1910474D01*
X-849561Y1903914D01*
X-849561Y1897355D01*
X-843002Y1890795D01*
X-829883Y1890795D01*
X-823323Y1897355D01*
X-862680Y1890795D02*
X-875799Y1890795D01*
X-869240Y1890795D01*
X-869240Y1930153D01*
X-862680Y1923593D01*
X-657947Y3153238D02*
X-651388Y3146679D01*
X-651388Y3133560D01*
X-657947Y3127000D01*
X-684185Y3127000D01*
X-690745Y3133560D01*
X-690745Y3146679D01*
X-684185Y3153238D01*
X-657947Y3166357D02*
X-651388Y3172917D01*
X-651388Y3186036D01*
X-657947Y3192596D01*
X-664507Y3192596D01*
X-671066Y3186036D01*
X-671066Y3179477D01*
X-671066Y3186036D01*
X-677626Y3192596D01*
X-684185Y3192596D01*
X-690745Y3186036D01*
X-690745Y3172917D01*
X-684185Y3166357D01*
X-657947Y3205715D02*
X-651388Y3212274D01*
X-651388Y3225394D01*
X-657947Y3231953D01*
X-664507Y3231953D01*
X-671066Y3225394D01*
X-671066Y3218834D01*
X-671066Y3225394D01*
X-677626Y3231953D01*
X-684185Y3231953D01*
X-690745Y3225394D01*
X-690745Y3212274D01*
X-684185Y3205715D01*
X-1060858Y1874400D02*
X-1067417Y1880959D01*
X-1067417Y1894078D01*
X-1060858Y1900638D01*
X-1034620Y1900638D01*
X-1028060Y1894078D01*
X-1028060Y1880959D01*
X-1034620Y1874400D01*
X-1060858Y1861280D02*
X-1067417Y1854721D01*
X-1067417Y1841602D01*
X-1060858Y1835042D01*
X-1054298Y1835042D01*
X-1047739Y1841602D01*
X-1047739Y1848161D01*
X-1047739Y1841602D01*
X-1041179Y1835042D01*
X-1034620Y1835042D01*
X-1028060Y1841602D01*
X-1028060Y1854721D01*
X-1034620Y1861280D01*
X-1028060Y1795685D02*
X-1028060Y1821923D01*
X-1054298Y1795685D01*
X-1060858Y1795685D01*
X-1067417Y1802244D01*
X-1067417Y1815363D01*
X-1060858Y1821923D01*
X-660947Y3348238D02*
X-654388Y3341679D01*
X-654388Y3328560D01*
X-660947Y3322000D01*
X-687185Y3322000D01*
X-693745Y3328560D01*
X-693745Y3341679D01*
X-687185Y3348238D01*
X-660947Y3361357D02*
X-654388Y3367917D01*
X-654388Y3381036D01*
X-660947Y3387596D01*
X-667507Y3387596D01*
X-674066Y3381036D01*
X-674066Y3374477D01*
X-674066Y3381036D01*
X-680626Y3387596D01*
X-687185Y3387596D01*
X-693745Y3381036D01*
X-693745Y3367917D01*
X-687185Y3361357D01*
X-654388Y3426953D02*
X-654388Y3400715D01*
X-674066Y3400715D01*
X-667507Y3413834D01*
X-667507Y3420394D01*
X-674066Y3426953D01*
X-687185Y3426953D01*
X-693745Y3420394D01*
X-693745Y3407274D01*
X-687185Y3400715D01*
X1490280Y3950727D02*
X1496840Y3957287D01*
X1509959Y3957287D01*
X1516519Y3950727D01*
X1516519Y3924489D01*
X1509959Y3917929D01*
X1496840Y3917929D01*
X1490280Y3924489D01*
X1477161Y3917929D02*
X1464042Y3917929D01*
X1470602Y3917929D01*
X1470602Y3957287D01*
X1477161Y3950727D01*
X1000801Y-1860526D02*
X1007361Y-1867085D01*
X1007361Y-1880204D01*
X1000801Y-1886764D01*
X974563Y-1886764D01*
X968003Y-1880204D01*
X968003Y-1867085D01*
X974563Y-1860526D01*
X968003Y-1827728D02*
X1007361Y-1827728D01*
X987682Y-1847406D01*
X987682Y-1821168D01*
X1007361Y-1781811D02*
X1000801Y-1794930D01*
X987682Y-1808049D01*
X974563Y-1808049D01*
X968003Y-1801489D01*
X968003Y-1788370D01*
X974563Y-1781811D01*
X981122Y-1781811D01*
X987682Y-1788370D01*
X987682Y-1808049D01*
X1095289Y-1860526D02*
X1101849Y-1867085D01*
X1101849Y-1880204D01*
X1095289Y-1886764D01*
X1069051Y-1886764D01*
X1062491Y-1880204D01*
X1062491Y-1867085D01*
X1069051Y-1860526D01*
X1062491Y-1827728D02*
X1101849Y-1827728D01*
X1082170Y-1847406D01*
X1082170Y-1821168D01*
X1101849Y-1808049D02*
X1101849Y-1781811D01*
X1095289Y-1781811D01*
X1069051Y-1808049D01*
X1062491Y-1808049D01*
X1802017Y4296798D02*
X1808576Y4303357D01*
X1821696Y4303357D01*
X1828255Y4296798D01*
X1828255Y4270560D01*
X1821696Y4264000D01*
X1808576Y4264000D01*
X1802017Y4270560D01*
X1762659Y4303357D02*
X1775779Y4296798D01*
X1788898Y4283679D01*
X1788898Y4270560D01*
X1782338Y4264000D01*
X1769219Y4264000D01*
X1762659Y4270560D01*
X1762659Y4277119D01*
X1769219Y4283679D01*
X1788898Y4283679D01*
X1795017Y4385798D02*
X1801576Y4392357D01*
X1814696Y4392357D01*
X1821255Y4385798D01*
X1821255Y4359560D01*
X1814696Y4353000D01*
X1801576Y4353000D01*
X1795017Y4359560D01*
X1781898Y4392357D02*
X1755659Y4392357D01*
X1755659Y4385798D01*
X1781898Y4359560D01*
X1781898Y4353000D01*
X1305418Y3680113D02*
X1311978Y3686672D01*
X1325097Y3686672D01*
X1331657Y3680113D01*
X1331657Y3653874D01*
X1325097Y3647315D01*
X1311978Y3647315D01*
X1305418Y3653874D01*
X1292299Y3680113D02*
X1285740Y3686672D01*
X1272621Y3686672D01*
X1266061Y3680113D01*
X1266061Y3673553D01*
X1272621Y3666994D01*
X1266061Y3660434D01*
X1266061Y3653874D01*
X1272621Y3647315D01*
X1285740Y3647315D01*
X1292299Y3653874D01*
X1292299Y3660434D01*
X1285740Y3666994D01*
X1292299Y3673553D01*
X1292299Y3680113D01*
X1285740Y3666994D02*
X1272621Y3666994D01*
X624053Y3177238D02*
X630612Y3170679D01*
X630612Y3157560D01*
X624053Y3151000D01*
X597815Y3151000D01*
X591255Y3157560D01*
X591255Y3170679D01*
X597815Y3177238D01*
X591255Y3190357D02*
X591255Y3203477D01*
X591255Y3196917D01*
X630612Y3196917D01*
X624053Y3190357D01*
X624053Y3223155D02*
X630612Y3229715D01*
X630612Y3242834D01*
X624053Y3249393D01*
X617493Y3249393D01*
X610934Y3242834D01*
X610934Y3236274D01*
X610934Y3242834D01*
X604374Y3249393D01*
X597815Y3249393D01*
X591255Y3242834D01*
X591255Y3229715D01*
X597815Y3223155D01*
X620053Y2852238D02*
X626612Y2845679D01*
X626612Y2832560D01*
X620053Y2826000D01*
X593815Y2826000D01*
X587255Y2832560D01*
X587255Y2845679D01*
X593815Y2852238D01*
X587255Y2865357D02*
X587255Y2878477D01*
X587255Y2871917D01*
X626612Y2871917D01*
X620053Y2865357D01*
X587255Y2917834D02*
X626612Y2917834D01*
X606934Y2898155D01*
X606934Y2924393D01*
X327592Y2640129D02*
X334151Y2646688D01*
X347270Y2646688D01*
X353830Y2640129D01*
X353830Y2613890D01*
X347270Y2607331D01*
X334151Y2607331D01*
X327592Y2613890D01*
X314473Y2607331D02*
X301353Y2607331D01*
X307913Y2607331D01*
X307913Y2646688D01*
X314473Y2640129D01*
X255436Y2646688D02*
X281675Y2646688D01*
X281675Y2627010D01*
X268556Y2633569D01*
X261996Y2633569D01*
X255436Y2627010D01*
X255436Y2613890D01*
X261996Y2607331D01*
X275115Y2607331D01*
X281675Y2613890D01*
X318053Y4141238D02*
X324613Y4134679D01*
X324613Y4121560D01*
X318053Y4115000D01*
X291815Y4115000D01*
X285255Y4121560D01*
X285255Y4134679D01*
X291815Y4141238D01*
X285255Y4154357D02*
X285255Y4167476D01*
X285255Y4160917D01*
X324613Y4160917D01*
X318053Y4154357D01*
X324613Y4213393D02*
X318053Y4200274D01*
X304934Y4187155D01*
X291815Y4187155D01*
X285255Y4193715D01*
X285255Y4206834D01*
X291815Y4213393D01*
X298374Y4213393D01*
X304934Y4206834D01*
X304934Y4187155D01*
X906332Y3974774D02*
X912891Y3981334D01*
X926010Y3981334D01*
X932570Y3974774D01*
X932570Y3948536D01*
X926010Y3941976D01*
X912891Y3941976D01*
X906332Y3948536D01*
X893213Y3941976D02*
X880093Y3941976D01*
X886653Y3941976D01*
X886653Y3981334D01*
X893213Y3974774D01*
X860415Y3981334D02*
X834177Y3981334D01*
X834177Y3974774D01*
X860415Y3948536D01*
X860415Y3941976D01*
X906332Y4098790D02*
X912891Y4105350D01*
X926010Y4105350D01*
X932570Y4098790D01*
X932570Y4072552D01*
X926010Y4065992D01*
X912891Y4065992D01*
X906332Y4072552D01*
X893213Y4065992D02*
X880094Y4065992D01*
X886653Y4065992D01*
X886653Y4105350D01*
X893213Y4098790D01*
X860415Y4098790D02*
X853855Y4105350D01*
X840736Y4105350D01*
X834177Y4098790D01*
X834177Y4092230D01*
X840736Y4085671D01*
X834177Y4079111D01*
X834177Y4072552D01*
X840736Y4065992D01*
X853855Y4065992D01*
X860415Y4072552D01*
X860415Y4079111D01*
X853855Y4085671D01*
X860415Y4092230D01*
X860415Y4098790D01*
X853855Y4085671D02*
X840736Y4085671D01*
X1684017Y2758798D02*
X1690576Y2765357D01*
X1703696Y2765357D01*
X1710255Y2758798D01*
X1710255Y2732560D01*
X1703696Y2726000D01*
X1690576Y2726000D01*
X1684017Y2732560D01*
X1670898Y2726000D02*
X1657779Y2726000D01*
X1664338Y2726000D01*
X1664338Y2765357D01*
X1670898Y2758798D01*
X1638100Y2732560D02*
X1631540Y2726000D01*
X1618421Y2726000D01*
X1611862Y2732560D01*
X1611862Y2758798D01*
X1618421Y2765357D01*
X1631540Y2765357D01*
X1638100Y2758798D01*
X1638100Y2752238D01*
X1631540Y2745679D01*
X1611862Y2745679D01*
X1807255Y4236357D02*
X1807255Y4197000D01*
X1781017Y4197000D01*
X1767898Y4197000D02*
X1754779Y4197000D01*
X1761338Y4197000D01*
X1761338Y4236357D01*
X1767898Y4229798D01*
X1180585Y434410D02*
X1180585Y473767D01*
X1160906Y473767D01*
X1154347Y467208D01*
X1154347Y454089D01*
X1160906Y447529D01*
X1180585Y447529D01*
X1121549Y434410D02*
X1121549Y473767D01*
X1141228Y454089D01*
X1114989Y454089D01*
X1432493Y2549440D02*
X1432493Y2523202D01*
X1425934Y2516643D01*
X1412815Y2516643D01*
X1406255Y2523202D01*
X1406255Y2549440D01*
X1412815Y2556000D01*
X1425934Y2556000D01*
X1419374Y2542881D02*
X1432493Y2556000D01*
X1425934Y2556000D02*
X1432493Y2549440D01*
X1465291Y2556000D02*
X1465291Y2516643D01*
X1445612Y2536321D01*
X1471851Y2536321D01*
X1950080Y722394D02*
X1950080Y748633D01*
X1956639Y755192D01*
X1969758Y755192D01*
X1976318Y748633D01*
X1976318Y722394D01*
X1969758Y715835D01*
X1956639Y715835D01*
X1963199Y728954D02*
X1950080Y715835D01*
X1956639Y715835D02*
X1950080Y722394D01*
X1910723Y755192D02*
X1936961Y755192D01*
X1936961Y735513D01*
X1923842Y742073D01*
X1917282Y742073D01*
X1910723Y735513D01*
X1910723Y722394D01*
X1917282Y715835D01*
X1930401Y715835D01*
X1936961Y722394D01*
X1919263Y1838354D02*
X1879906Y1838354D01*
X1879906Y1818676D01*
X1886465Y1812116D01*
X1899584Y1812116D01*
X1906144Y1818676D01*
X1906144Y1838354D01*
X1906144Y1825235D02*
X1919263Y1812116D01*
X1919263Y1779318D02*
X1879906Y1779318D01*
X1899584Y1798997D01*
X1899584Y1772759D01*
X1919263Y1733401D02*
X1919263Y1759640D01*
X1893025Y1733401D01*
X1886465Y1733401D01*
X1879906Y1739961D01*
X1879906Y1753080D01*
X1886465Y1759640D01*
X590050Y2390795D02*
X590050Y2430153D01*
X570372Y2430153D01*
X563812Y2423593D01*
X563812Y2410474D01*
X570372Y2403914D01*
X590050Y2403914D01*
X576931Y2403914D02*
X563812Y2390795D01*
X550693Y2423593D02*
X544133Y2430153D01*
X531014Y2430153D01*
X524455Y2423593D01*
X524455Y2417034D01*
X531014Y2410474D01*
X537574Y2410474D01*
X531014Y2410474D01*
X524455Y2403914D01*
X524455Y2397355D01*
X531014Y2390795D01*
X544133Y2390795D01*
X550693Y2397355D01*
X511336Y2397355D02*
X504776Y2390795D01*
X491657Y2390795D01*
X485097Y2397355D01*
X485097Y2423593D01*
X491657Y2430153D01*
X504776Y2430153D01*
X511336Y2423593D01*
X511336Y2417034D01*
X504776Y2410474D01*
X485097Y2410474D01*
X1498255Y-818000D02*
X1458898Y-818000D01*
X1458898Y-837679D01*
X1465457Y-844238D01*
X1478576Y-844238D01*
X1485136Y-837679D01*
X1485136Y-818000D01*
X1485136Y-831119D02*
X1498255Y-844238D01*
X1465457Y-857357D02*
X1458898Y-863917D01*
X1458898Y-877036D01*
X1465457Y-883596D01*
X1472017Y-883596D01*
X1478576Y-877036D01*
X1478576Y-870476D01*
X1478576Y-877036D01*
X1485136Y-883596D01*
X1491696Y-883596D01*
X1498255Y-877036D01*
X1498255Y-863917D01*
X1491696Y-857357D01*
X1458898Y-922953D02*
X1465457Y-909834D01*
X1478576Y-896715D01*
X1491696Y-896715D01*
X1498255Y-903274D01*
X1498255Y-916394D01*
X1491696Y-922953D01*
X1485136Y-922953D01*
X1478576Y-916394D01*
X1478576Y-896715D01*
X2017216Y1839614D02*
X1977858Y1839614D01*
X1977858Y1819936D01*
X1984418Y1813376D01*
X1997537Y1813376D01*
X2004097Y1819936D01*
X2004097Y1839614D01*
X2004097Y1826495D02*
X2017216Y1813376D01*
X2017216Y1780578D02*
X1977858Y1780578D01*
X1997537Y1800257D01*
X1997537Y1774019D01*
X2017216Y1741221D02*
X1977858Y1741221D01*
X1997537Y1760899D01*
X1997537Y1734661D01*
X1534932Y1839614D02*
X1495575Y1839614D01*
X1495575Y1819936D01*
X1502134Y1813376D01*
X1515254Y1813376D01*
X1521813Y1819936D01*
X1521813Y1839614D01*
X1521813Y1826495D02*
X1534932Y1813376D01*
X1534932Y1780578D02*
X1495575Y1780578D01*
X1515254Y1800257D01*
X1515254Y1774019D01*
X1528373Y1760899D02*
X1534932Y1754340D01*
X1534932Y1741221D01*
X1528373Y1734661D01*
X1502134Y1734661D01*
X1495575Y1741221D01*
X1495575Y1754340D01*
X1502134Y1760899D01*
X1508694Y1760899D01*
X1515254Y1754340D01*
X1515254Y1734661D01*
X92255Y1963000D02*
X92255Y2002357D01*
X72576Y2002357D01*
X66017Y1995798D01*
X66017Y1982679D01*
X72576Y1976119D01*
X92255Y1976119D01*
X79136Y1976119D02*
X66017Y1963000D01*
X52898Y1963000D02*
X39779Y1963000D01*
X46338Y1963000D01*
X46338Y2002357D01*
X52898Y1995798D01*
X20100Y1995798D02*
X13540Y2002357D01*
X421Y2002357D01*
X-6138Y1995798D01*
X-6138Y1989238D01*
X421Y1982679D01*
X-6138Y1976119D01*
X-6138Y1969560D01*
X421Y1963000D01*
X13540Y1963000D01*
X20100Y1969560D01*
X20100Y1976119D01*
X13540Y1982679D01*
X20100Y1989238D01*
X20100Y1995798D01*
X13540Y1982679D02*
X421Y1982679D01*
X-953745Y1995000D02*
X-953745Y2034357D01*
X-973424Y2034357D01*
X-979983Y2027798D01*
X-979983Y2014679D01*
X-973424Y2008119D01*
X-953745Y2008119D01*
X-966864Y2008119D02*
X-979983Y1995000D01*
X-993102Y1995000D02*
X-1006221Y1995000D01*
X-999662Y1995000D01*
X-999662Y2034357D01*
X-993102Y2027798D01*
X-1025900Y2001560D02*
X-1032460Y1995000D01*
X-1045579Y1995000D01*
X-1052138Y2001560D01*
X-1052138Y2027798D01*
X-1045579Y2034357D01*
X-1032460Y2034357D01*
X-1025900Y2027798D01*
X-1025900Y2021238D01*
X-1032460Y2014679D01*
X-1052138Y2014679D01*
X590050Y2312055D02*
X590050Y2351412D01*
X570372Y2351412D01*
X563812Y2344853D01*
X563812Y2331734D01*
X570372Y2325174D01*
X590050Y2325174D01*
X576931Y2325174D02*
X563812Y2312055D01*
X531014Y2312055D02*
X531014Y2351412D01*
X550693Y2331734D01*
X524455Y2331734D01*
X511336Y2344853D02*
X504776Y2351412D01*
X491657Y2351412D01*
X485097Y2344853D01*
X485097Y2318615D01*
X491657Y2312055D01*
X504776Y2312055D01*
X511336Y2318615D01*
X511336Y2344853D01*
X235720Y1630953D02*
X235720Y1670310D01*
X216041Y1670310D01*
X209481Y1663751D01*
X209481Y1650632D01*
X216041Y1644072D01*
X235720Y1644072D01*
X222601Y1644072D02*
X209481Y1630953D01*
X170124Y1630953D02*
X196362Y1630953D01*
X170124Y1657191D01*
X170124Y1663751D01*
X176684Y1670310D01*
X189803Y1670310D01*
X196362Y1663751D01*
X130767Y1670310D02*
X157005Y1670310D01*
X157005Y1650632D01*
X143886Y1657191D01*
X137326Y1657191D01*
X130767Y1650632D01*
X130767Y1637513D01*
X137326Y1630953D01*
X150445Y1630953D01*
X157005Y1637513D01*
X-78255Y1711929D02*
X-78255Y1751287D01*
X-97934Y1751287D01*
X-104493Y1744727D01*
X-104493Y1731608D01*
X-97934Y1725048D01*
X-78255Y1725048D01*
X-91374Y1725048D02*
X-104493Y1711929D01*
X-143851Y1711929D02*
X-117612Y1711929D01*
X-143851Y1738168D01*
X-143851Y1744727D01*
X-137291Y1751287D01*
X-124172Y1751287D01*
X-117612Y1744727D01*
X-183208Y1751287D02*
X-170089Y1744727D01*
X-156970Y1731608D01*
X-156970Y1718489D01*
X-163529Y1711929D01*
X-176649Y1711929D01*
X-183208Y1718489D01*
X-183208Y1725048D01*
X-176649Y1731608D01*
X-156970Y1731608D01*
X-799713Y1780559D02*
X-799713Y1819916D01*
X-819392Y1819916D01*
X-825952Y1813357D01*
X-825952Y1800238D01*
X-819392Y1793678D01*
X-799713Y1793678D01*
X-812833Y1793678D02*
X-825952Y1780559D01*
X-865309Y1780559D02*
X-839071Y1780559D01*
X-865309Y1806797D01*
X-865309Y1813357D01*
X-858750Y1819916D01*
X-845630Y1819916D01*
X-839071Y1813357D01*
X-878428Y1787119D02*
X-884988Y1780559D01*
X-898107Y1780559D01*
X-904667Y1787119D01*
X-904667Y1813357D01*
X-898107Y1819916D01*
X-884988Y1819916D01*
X-878428Y1813357D01*
X-878428Y1806797D01*
X-884988Y1800238D01*
X-904667Y1800238D01*
X-499745Y2104000D02*
X-499745Y2143357D01*
X-519424Y2143357D01*
X-525983Y2136798D01*
X-525983Y2123679D01*
X-519424Y2117119D01*
X-499745Y2117119D01*
X-512864Y2117119D02*
X-525983Y2104000D01*
X-539102Y2136798D02*
X-545662Y2143357D01*
X-558781Y2143357D01*
X-565341Y2136798D01*
X-565341Y2130238D01*
X-558781Y2123679D01*
X-552221Y2123679D01*
X-558781Y2123679D01*
X-565341Y2117119D01*
X-565341Y2110560D01*
X-558781Y2104000D01*
X-545662Y2104000D01*
X-539102Y2110560D01*
X-578460Y2136798D02*
X-585019Y2143357D01*
X-598138Y2143357D01*
X-604698Y2136798D01*
X-604698Y2110560D01*
X-598138Y2104000D01*
X-585019Y2104000D01*
X-578460Y2110560D01*
X-578460Y2136798D01*
X1643200Y1839614D02*
X1603842Y1839614D01*
X1603842Y1819936D01*
X1610402Y1813376D01*
X1623521Y1813376D01*
X1630081Y1819936D01*
X1630081Y1839614D01*
X1630081Y1826495D02*
X1643200Y1813376D01*
X1603842Y1774019D02*
X1603842Y1800257D01*
X1623521Y1800257D01*
X1616962Y1787138D01*
X1616962Y1780578D01*
X1623521Y1774019D01*
X1636640Y1774019D01*
X1643200Y1780578D01*
X1643200Y1793697D01*
X1636640Y1800257D01*
X1610402Y1760899D02*
X1603842Y1754340D01*
X1603842Y1741221D01*
X1610402Y1734661D01*
X1636640Y1734661D01*
X1643200Y1741221D01*
X1643200Y1754340D01*
X1636640Y1760899D01*
X1610402Y1760899D01*
X1288203Y1959000D02*
X1288203Y1998357D01*
X1268525Y1998357D01*
X1261965Y1991798D01*
X1261965Y1978679D01*
X1268525Y1972119D01*
X1288203Y1972119D01*
X1275084Y1972119D02*
X1261965Y1959000D01*
X1229167Y1959000D02*
X1229167Y1998357D01*
X1248846Y1978679D01*
X1222608Y1978679D01*
X1183250Y1998357D02*
X1209489Y1998357D01*
X1209489Y1978679D01*
X1196370Y1985238D01*
X1189810Y1985238D01*
X1183250Y1978679D01*
X1183250Y1965560D01*
X1189810Y1959000D01*
X1202929Y1959000D01*
X1209489Y1965560D01*
X1554617Y1032528D02*
X1554617Y1071885D01*
X1534939Y1071885D01*
X1528379Y1065325D01*
X1528379Y1052206D01*
X1534939Y1045647D01*
X1554617Y1045647D01*
X1541498Y1045647D02*
X1528379Y1032528D01*
X1489022Y1071885D02*
X1515260Y1071885D01*
X1515260Y1052206D01*
X1502141Y1058766D01*
X1495581Y1058766D01*
X1489022Y1052206D01*
X1489022Y1039087D01*
X1495581Y1032528D01*
X1508700Y1032528D01*
X1515260Y1039087D01*
X1449664Y1032528D02*
X1475902Y1032528D01*
X1449664Y1058766D01*
X1449664Y1065325D01*
X1456224Y1071885D01*
X1469343Y1071885D01*
X1475902Y1065325D01*
X-1027745Y3072000D02*
X-988388Y3072000D01*
X-988388Y3091679D01*
X-994947Y3098238D01*
X-1008066Y3098238D01*
X-1014626Y3091679D01*
X-1014626Y3072000D01*
X-1014626Y3085119D02*
X-1027745Y3098238D01*
X-994947Y3111357D02*
X-988388Y3117917D01*
X-988388Y3131036D01*
X-994947Y3137596D01*
X-1001507Y3137596D01*
X-1008066Y3131036D01*
X-1008066Y3124477D01*
X-1008066Y3131036D01*
X-1014626Y3137596D01*
X-1021185Y3137596D01*
X-1027745Y3131036D01*
X-1027745Y3117917D01*
X-1021185Y3111357D01*
X-1027745Y3150715D02*
X-1027745Y3163834D01*
X-1027745Y3157274D01*
X-988388Y3157274D01*
X-994947Y3150715D01*
X1502452Y5201229D02*
X1502452Y5240586D01*
X1482773Y5240586D01*
X1476214Y5234026D01*
X1476214Y5220907D01*
X1482773Y5214348D01*
X1502452Y5214348D01*
X1489333Y5214348D02*
X1476214Y5201229D01*
X1463095Y5234026D02*
X1456535Y5240586D01*
X1443416Y5240586D01*
X1436856Y5234026D01*
X1436856Y5227467D01*
X1443416Y5220907D01*
X1449976Y5220907D01*
X1443416Y5220907D01*
X1436856Y5214348D01*
X1436856Y5207788D01*
X1443416Y5201229D01*
X1456535Y5201229D01*
X1463095Y5207788D01*
X1899105Y1406543D02*
X1938463Y1406543D01*
X1938463Y1426222D01*
X1931903Y1432782D01*
X1918784Y1432782D01*
X1912225Y1426222D01*
X1912225Y1406543D01*
X1912225Y1419662D02*
X1899105Y1432782D01*
X1938463Y1472139D02*
X1938463Y1445901D01*
X1918784Y1445901D01*
X1925344Y1459020D01*
X1925344Y1465580D01*
X1918784Y1472139D01*
X1905665Y1472139D01*
X1899105Y1465580D01*
X1899105Y1452460D01*
X1905665Y1445901D01*
X1899105Y1485258D02*
X1899105Y1498377D01*
X1899105Y1491818D01*
X1938463Y1491818D01*
X1931903Y1485258D01*
X1800050Y1407803D02*
X1839408Y1407803D01*
X1839408Y1427482D01*
X1832848Y1434041D01*
X1819729Y1434041D01*
X1813169Y1427482D01*
X1813169Y1407803D01*
X1813169Y1420922D02*
X1800050Y1434041D01*
X1839408Y1473399D02*
X1839408Y1447161D01*
X1819729Y1447161D01*
X1826289Y1460280D01*
X1826289Y1466839D01*
X1819729Y1473399D01*
X1806610Y1473399D01*
X1800050Y1466839D01*
X1800050Y1453720D01*
X1806610Y1447161D01*
X1832848Y1486518D02*
X1839408Y1493078D01*
X1839408Y1506197D01*
X1832848Y1512756D01*
X1826289Y1512756D01*
X1819729Y1506197D01*
X1819729Y1499637D01*
X1819729Y1506197D01*
X1813169Y1512756D01*
X1806610Y1512756D01*
X1800050Y1506197D01*
X1800050Y1493078D01*
X1806610Y1486518D01*
X-472745Y3631000D02*
X-472745Y3670357D01*
X-492424Y3670357D01*
X-498983Y3663798D01*
X-498983Y3650679D01*
X-492424Y3644119D01*
X-472745Y3644119D01*
X-485864Y3644119D02*
X-498983Y3631000D01*
X-538341Y3670357D02*
X-512102Y3670357D01*
X-512102Y3650679D01*
X-525221Y3657238D01*
X-531781Y3657238D01*
X-538341Y3650679D01*
X-538341Y3637560D01*
X-531781Y3631000D01*
X-518662Y3631000D01*
X-512102Y3637560D01*
X879255Y3668000D02*
X839898Y3668000D01*
X839898Y3648321D01*
X846457Y3641762D01*
X859576Y3641762D01*
X866136Y3648321D01*
X866136Y3668000D01*
X866136Y3654881D02*
X879255Y3641762D01*
X839898Y3628643D02*
X839898Y3602404D01*
X846457Y3602404D01*
X872696Y3628643D01*
X879255Y3628643D01*
X875483Y-247997D02*
X875483Y-280795D01*
X868924Y-287354D01*
X855805Y-287354D01*
X849245Y-280795D01*
X849245Y-247997D01*
X836126Y-247997D02*
X809888Y-247997D01*
X809888Y-254557D01*
X836126Y-280795D01*
X836126Y-287354D01*
X1409255Y-1834643D02*
X1409255Y-1867440D01*
X1402696Y-1874000D01*
X1389576Y-1874000D01*
X1383017Y-1867440D01*
X1383017Y-1834643D01*
X1369898Y-1874000D02*
X1356779Y-1874000D01*
X1363338Y-1874000D01*
X1363338Y-1834643D01*
X1369898Y-1841202D01*
X1337100Y-1867440D02*
X1330540Y-1874000D01*
X1317421Y-1874000D01*
X1310862Y-1867440D01*
X1310862Y-1841202D01*
X1317421Y-1834643D01*
X1330540Y-1834643D01*
X1337100Y-1841202D01*
X1337100Y-1847762D01*
X1330540Y-1854321D01*
X1310862Y-1854321D01*
X903885Y-767643D02*
X903885Y-800440D01*
X897325Y-807000D01*
X884206Y-807000D01*
X877647Y-800440D01*
X877647Y-767643D01*
X864528Y-807000D02*
X851409Y-807000D01*
X857968Y-807000D01*
X857968Y-767643D01*
X864528Y-774202D01*
X831730Y-774202D02*
X825170Y-767643D01*
X812051Y-767643D01*
X805492Y-774202D01*
X805492Y-780762D01*
X812051Y-787321D01*
X805492Y-793881D01*
X805492Y-800440D01*
X812051Y-807000D01*
X825170Y-807000D01*
X831730Y-800440D01*
X831730Y-793881D01*
X825170Y-787321D01*
X831730Y-780762D01*
X831730Y-774202D01*
X825170Y-787321D02*
X812051Y-787321D01*
X1534932Y4231334D02*
X1534932Y4198536D01*
X1528373Y4191976D01*
X1515254Y4191976D01*
X1508694Y4198536D01*
X1508694Y4231334D01*
X1495575Y4191976D02*
X1482456Y4191976D01*
X1489015Y4191976D01*
X1489015Y4231334D01*
X1495575Y4224774D01*
X1181255Y3718357D02*
X1181255Y3685560D01*
X1174696Y3679000D01*
X1161576Y3679000D01*
X1155017Y3685560D01*
X1155017Y3718357D01*
X1115659Y3718357D02*
X1141898Y3718357D01*
X1141898Y3698679D01*
X1128779Y3705238D01*
X1122219Y3705238D01*
X1115659Y3698679D01*
X1115659Y3685560D01*
X1122219Y3679000D01*
X1135338Y3679000D01*
X1141898Y3685560D01*
X-491306Y718869D02*
X-484747Y725428D01*
X-471627Y725428D01*
X-465068Y718869D01*
X-465068Y692630D01*
X-471627Y686071D01*
X-484747Y686071D01*
X-491306Y692630D01*
X-504425Y718869D02*
X-510985Y725428D01*
X-524104Y725428D01*
X-530663Y718869D01*
X-530663Y712309D01*
X-524104Y705750D01*
X-517544Y705750D01*
X-524104Y705750D01*
X-530663Y699190D01*
X-530663Y692630D01*
X-524104Y686071D01*
X-510985Y686071D01*
X-504425Y692630D01*
X-543783Y718869D02*
X-550342Y725428D01*
X-563461Y725428D01*
X-570021Y718869D01*
X-570021Y712309D01*
X-563461Y705750D01*
X-570021Y699190D01*
X-570021Y692630D01*
X-563461Y686071D01*
X-550342Y686071D01*
X-543783Y692630D01*
X-543783Y699190D01*
X-550342Y705750D01*
X-543783Y712309D01*
X-543783Y718869D01*
X-550342Y705750D02*
X-563461Y705750D01*
X-491306Y797609D02*
X-484747Y804168D01*
X-471627Y804168D01*
X-465068Y797609D01*
X-465068Y771371D01*
X-471627Y764811D01*
X-484747Y764811D01*
X-491306Y771371D01*
X-504425Y797609D02*
X-510985Y804168D01*
X-524104Y804168D01*
X-530663Y797609D01*
X-530663Y791049D01*
X-524104Y784490D01*
X-517544Y784490D01*
X-524104Y784490D01*
X-530663Y777930D01*
X-530663Y771371D01*
X-524104Y764811D01*
X-510985Y764811D01*
X-504425Y771371D01*
X-543783Y771371D02*
X-550342Y764811D01*
X-563461Y764811D01*
X-570021Y771371D01*
X-570021Y797609D01*
X-563461Y804168D01*
X-550342Y804168D01*
X-543783Y797609D01*
X-543783Y791049D01*
X-550342Y784490D01*
X-570021Y784490D01*
X-926543Y469762D02*
X-933102Y476321D01*
X-933102Y489440D01*
X-926543Y496000D01*
X-900304Y496000D01*
X-893745Y489440D01*
X-893745Y476321D01*
X-900304Y469762D01*
X-893745Y436964D02*
X-933102Y436964D01*
X-913424Y456643D01*
X-913424Y430404D01*
X-926543Y417285D02*
X-933102Y410726D01*
X-933102Y397606D01*
X-926543Y391047D01*
X-900304Y391047D01*
X-893745Y397606D01*
X-893745Y410726D01*
X-900304Y417285D01*
X-926543Y417285D01*
X-491306Y962963D02*
X-484747Y969523D01*
X-471627Y969523D01*
X-465068Y962963D01*
X-465068Y936725D01*
X-471627Y930165D01*
X-484747Y930165D01*
X-491306Y936725D01*
X-524104Y930165D02*
X-524104Y969523D01*
X-504425Y949844D01*
X-530663Y949844D01*
X-543783Y930165D02*
X-556902Y930165D01*
X-550342Y930165D01*
X-550342Y969523D01*
X-543783Y962963D01*
X-491306Y880286D02*
X-484747Y886846D01*
X-471627Y886846D01*
X-465068Y880286D01*
X-465068Y854048D01*
X-471627Y847488D01*
X-484747Y847488D01*
X-491306Y854048D01*
X-524104Y847488D02*
X-524104Y886846D01*
X-504425Y867167D01*
X-530663Y867167D01*
X-570021Y847488D02*
X-543783Y847488D01*
X-570021Y873726D01*
X-570021Y880286D01*
X-563461Y886846D01*
X-550342Y886846D01*
X-543783Y880286D01*
X-974244Y848809D02*
X-980803Y855369D01*
X-980803Y868488D01*
X-974244Y875047D01*
X-948005Y875047D01*
X-941446Y868488D01*
X-941446Y855369D01*
X-948005Y848809D01*
X-941446Y816011D02*
X-980803Y816011D01*
X-961124Y835690D01*
X-961124Y809452D01*
X-974244Y796332D02*
X-980803Y789773D01*
X-980803Y776654D01*
X-974244Y770094D01*
X-967684Y770094D01*
X-961124Y776654D01*
X-961124Y783213D01*
X-961124Y776654D01*
X-954565Y770094D01*
X-948005Y770094D01*
X-941446Y776654D01*
X-941446Y789773D01*
X-948005Y796332D01*
X-766052Y1318158D02*
X-766052Y1357515D01*
X-785731Y1357515D01*
X-792290Y1350955D01*
X-792290Y1337836D01*
X-785731Y1331277D01*
X-766052Y1331277D01*
X-779171Y1331277D02*
X-792290Y1318158D01*
X-805409Y1318158D02*
X-818529Y1318158D01*
X-811969Y1318158D01*
X-811969Y1357515D01*
X-805409Y1350955D01*
X-857886Y1318158D02*
X-857886Y1357515D01*
X-838207Y1337836D01*
X-864445Y1337836D01*
X-912745Y194000D02*
X-873388Y194000D01*
X-873388Y213679D01*
X-879947Y220238D01*
X-893066Y220238D01*
X-899626Y213679D01*
X-899626Y194000D01*
X-899626Y207119D02*
X-912745Y220238D01*
X-879947Y233357D02*
X-873388Y239917D01*
X-873388Y253036D01*
X-879947Y259596D01*
X-886507Y259596D01*
X-893066Y253036D01*
X-893066Y246476D01*
X-893066Y253036D01*
X-899626Y259596D01*
X-906185Y259596D01*
X-912745Y253036D01*
X-912745Y239917D01*
X-906185Y233357D01*
X-912745Y298953D02*
X-912745Y272715D01*
X-886507Y298953D01*
X-879947Y298953D01*
X-873388Y292394D01*
X-873388Y279274D01*
X-879947Y272715D01*
X-1067430Y150638D02*
X-1106787Y150638D01*
X-1106787Y130959D01*
X-1100228Y124400D01*
X-1087109Y124400D01*
X-1080549Y130959D01*
X-1080549Y150638D01*
X-1080549Y137519D02*
X-1067430Y124400D01*
X-1100228Y111280D02*
X-1106787Y104721D01*
X-1106787Y91602D01*
X-1100228Y85042D01*
X-1093668Y85042D01*
X-1087109Y91602D01*
X-1087109Y98161D01*
X-1087109Y91602D01*
X-1080549Y85042D01*
X-1073989Y85042D01*
X-1067430Y91602D01*
X-1067430Y104721D01*
X-1073989Y111280D01*
X-1067430Y52244D02*
X-1106787Y52244D01*
X-1087109Y71923D01*
X-1087109Y45685D01*
X1873092Y2523763D02*
X1873092Y2497525D01*
X1866532Y2490965D01*
X1853413Y2490965D01*
X1846853Y2497525D01*
X1846853Y2523763D01*
X1853413Y2530323D01*
X1866532Y2530323D01*
X1859973Y2517204D02*
X1873092Y2530323D01*
X1866532Y2530323D02*
X1873092Y2523763D01*
X1912449Y2530323D02*
X1886211Y2530323D01*
X1912449Y2504085D01*
X1912449Y2497525D01*
X1905889Y2490965D01*
X1892770Y2490965D01*
X1886211Y2497525D01*
X755255Y-1118643D02*
X755255Y-1151440D01*
X748696Y-1158000D01*
X735576Y-1158000D01*
X729017Y-1151440D01*
X729017Y-1118643D01*
X715898Y-1158000D02*
X702779Y-1158000D01*
X709338Y-1158000D01*
X709338Y-1118643D01*
X715898Y-1125202D01*
X683100Y-1118643D02*
X656862Y-1118643D01*
X656862Y-1125202D01*
X683100Y-1151440D01*
X683100Y-1158000D01*
X-104115Y3607000D02*
X-104115Y3646357D01*
X-123794Y3646357D01*
X-130353Y3639798D01*
X-130353Y3626679D01*
X-123794Y3620119D01*
X-104115Y3620119D01*
X-143472Y3607000D02*
X-156591Y3607000D01*
X-150032Y3607000D01*
X-150032Y3646357D01*
X-143472Y3639798D01*
X-202508Y3607000D02*
X-176270Y3607000D01*
X-202508Y3633238D01*
X-202508Y3639798D01*
X-195949Y3646357D01*
X-182830Y3646357D01*
X-176270Y3639798D01*
X-409219Y1290329D02*
X-402660Y1296888D01*
X-389541Y1296888D01*
X-382981Y1290329D01*
X-382981Y1264090D01*
X-389541Y1257531D01*
X-402660Y1257531D01*
X-409219Y1264090D01*
X-448577Y1257531D02*
X-422339Y1257531D01*
X-448577Y1283769D01*
X-448577Y1290329D01*
X-442017Y1296888D01*
X-428898Y1296888D01*
X-422339Y1290329D01*
X-481375Y1257531D02*
X-481375Y1296888D01*
X-461696Y1277209D01*
X-487934Y1277209D01*
X1267129Y-2228737D02*
X1267129Y-2268095D01*
X1247450Y-2268095D01*
X1240891Y-2261535D01*
X1240891Y-2254975D01*
X1247450Y-2248416D01*
X1267129Y-2248416D01*
X1247450Y-2248416D01*
X1240891Y-2241856D01*
X1240891Y-2235297D01*
X1247450Y-2228737D01*
X1267129Y-2228737D01*
X1227772Y-2228737D02*
X1201534Y-2228737D01*
X1214653Y-2228737D01*
X1214653Y-2268095D01*
X1188414Y-2268095D02*
X1175295Y-2268095D01*
X1181855Y-2268095D01*
X1181855Y-2228737D01*
X1188414Y-2235297D01*
X842269Y4290924D02*
X868507Y4290924D01*
X868507Y4271246D01*
X855388Y4271246D01*
X868507Y4271246D01*
X868507Y4251567D01*
X829150Y4251567D02*
X816031Y4251567D01*
X822590Y4251567D01*
X822590Y4290924D01*
X829150Y4284365D01*
X988585Y5476767D02*
X988585Y5437410D01*
X968906Y5437410D01*
X962347Y5443970D01*
X962347Y5470208D01*
X968906Y5476767D01*
X988585Y5476767D01*
X922989Y5470208D02*
X929549Y5476767D01*
X942668Y5476767D01*
X949228Y5470208D01*
X949228Y5463648D01*
X942668Y5457089D01*
X929549Y5457089D01*
X922989Y5450529D01*
X922989Y5443970D01*
X929549Y5437410D01*
X942668Y5437410D01*
X949228Y5443970D01*
X883632Y5437410D02*
X909870Y5437410D01*
X883632Y5463648D01*
X883632Y5470208D01*
X890192Y5476767D01*
X903311Y5476767D01*
X909870Y5470208D01*
X1546255Y1168000D02*
X1546255Y1207357D01*
X1526576Y1207357D01*
X1520017Y1200798D01*
X1520017Y1187679D01*
X1526576Y1181119D01*
X1546255Y1181119D01*
X1533136Y1181119D02*
X1520017Y1168000D01*
X1487219Y1168000D02*
X1487219Y1207357D01*
X1506898Y1187679D01*
X1480659Y1187679D01*
X1467540Y1200798D02*
X1460981Y1207357D01*
X1447862Y1207357D01*
X1441302Y1200798D01*
X1441302Y1194238D01*
X1447862Y1187679D01*
X1441302Y1181119D01*
X1441302Y1174560D01*
X1447862Y1168000D01*
X1460981Y1168000D01*
X1467540Y1174560D01*
X1467540Y1181119D01*
X1460981Y1187679D01*
X1467540Y1194238D01*
X1467540Y1200798D01*
X1460981Y1187679D02*
X1447862Y1187679D01*
X1237017Y4008798D02*
X1243576Y4015357D01*
X1256696Y4015357D01*
X1263255Y4008798D01*
X1263255Y3982560D01*
X1256696Y3976000D01*
X1243576Y3976000D01*
X1237017Y3982560D01*
X1223898Y4008798D02*
X1217338Y4015357D01*
X1204219Y4015357D01*
X1197659Y4008798D01*
X1197659Y4002238D01*
X1204219Y3995679D01*
X1210779Y3995679D01*
X1204219Y3995679D01*
X1197659Y3989119D01*
X1197659Y3982560D01*
X1204219Y3976000D01*
X1217338Y3976000D01*
X1223898Y3982560D01*
X1230280Y3855727D02*
X1236840Y3862287D01*
X1249959Y3862287D01*
X1256519Y3855727D01*
X1256519Y3829489D01*
X1249959Y3822929D01*
X1236840Y3822929D01*
X1230280Y3829489D01*
X1197483Y3822929D02*
X1197483Y3862287D01*
X1217161Y3842608D01*
X1190923Y3842608D01*
X1771460Y3650276D02*
X1771460Y3689633D01*
X1751781Y3689633D01*
X1745222Y3683073D01*
X1745222Y3669954D01*
X1751781Y3663395D01*
X1771460Y3663395D01*
X1758341Y3663395D02*
X1745222Y3650276D01*
X1732102Y3650276D02*
X1718983Y3650276D01*
X1725543Y3650276D01*
X1725543Y3689633D01*
X1732102Y3683073D01*
X1479578Y3752315D02*
X1479578Y3791672D01*
X1459899Y3791672D01*
X1453340Y3785113D01*
X1453340Y3771994D01*
X1459899Y3765434D01*
X1479578Y3765434D01*
X1466459Y3765434D02*
X1453340Y3752315D01*
X1413982Y3752315D02*
X1440220Y3752315D01*
X1413982Y3778553D01*
X1413982Y3785113D01*
X1420542Y3791672D01*
X1433661Y3791672D01*
X1440220Y3785113D01*
X1857255Y3932000D02*
X1857255Y3971357D01*
X1837576Y3971357D01*
X1831017Y3964798D01*
X1831017Y3951679D01*
X1837576Y3945119D01*
X1857255Y3945119D01*
X1844136Y3945119D02*
X1831017Y3932000D01*
X1798219Y3932000D02*
X1798219Y3971357D01*
X1817898Y3951679D01*
X1791659Y3951679D01*
X1200585Y149410D02*
X1260566Y149410D01*
X1260566Y179400D01*
X1250569Y189397D01*
X1230575Y189397D01*
X1220579Y179400D01*
X1220579Y149410D01*
X1200585Y209391D02*
X1200585Y229384D01*
X1200585Y219387D01*
X1260566Y219387D01*
X1250569Y209391D01*
X1200585Y289365D02*
X1260566Y289365D01*
X1230575Y259374D01*
X1230575Y299361D01*
X400585Y149410D02*
X460566Y149410D01*
X460566Y179400D01*
X450569Y189397D01*
X430575Y189397D01*
X420579Y179400D01*
X420579Y149410D01*
X400585Y209391D02*
X400585Y229384D01*
X400585Y219387D01*
X460566Y219387D01*
X450569Y209391D01*
X460566Y299361D02*
X460566Y259374D01*
X430575Y259374D01*
X440572Y279368D01*
X440572Y289365D01*
X430575Y299361D01*
X410582Y299361D01*
X400585Y289365D01*
X400585Y269371D01*
X410582Y259374D01*
X-642745Y2214000D02*
X-642745Y2253357D01*
X-662424Y2253357D01*
X-668983Y2246798D01*
X-668983Y2233679D01*
X-662424Y2227119D01*
X-642745Y2227119D01*
X-682102Y2253357D02*
X-682102Y2214000D01*
X-695221Y2227119D01*
X-708341Y2214000D01*
X-708341Y2253357D01*
X-721460Y2214000D02*
X-721460Y2253357D01*
X-734579Y2240238D01*
X-747698Y2253357D01*
X-747698Y2214000D01*
X-787055Y2214000D02*
X-760817Y2214000D01*
X-787055Y2240238D01*
X-787055Y2246798D01*
X-780496Y2253357D01*
X-767377Y2253357D01*
X-760817Y2246798D01*
X-800174Y2253357D02*
X-800174Y2214000D01*
X-819853Y2214000D01*
X-826413Y2220560D01*
X-826413Y2227119D01*
X-819853Y2233679D01*
X-800174Y2233679D01*
X-819853Y2233679D01*
X-826413Y2240238D01*
X-826413Y2246798D01*
X-819853Y2253357D01*
X-800174Y2253357D01*
X-624745Y1696000D02*
X-624745Y1735357D01*
X-644424Y1735357D01*
X-650983Y1728798D01*
X-650983Y1715679D01*
X-644424Y1709119D01*
X-624745Y1709119D01*
X-664102Y1735357D02*
X-664102Y1696000D01*
X-677221Y1709119D01*
X-690341Y1696000D01*
X-690341Y1735357D01*
X-703460Y1696000D02*
X-703460Y1735357D01*
X-716579Y1722238D01*
X-729698Y1735357D01*
X-729698Y1696000D01*
X-769055Y1696000D02*
X-742817Y1696000D01*
X-769055Y1722238D01*
X-769055Y1728798D01*
X-762496Y1735357D01*
X-749377Y1735357D01*
X-742817Y1728798D01*
X-782174Y1696000D02*
X-782174Y1722238D01*
X-795294Y1735357D01*
X-808413Y1722238D01*
X-808413Y1696000D01*
X-808413Y1715679D01*
X-782174Y1715679D01*
X1842019Y4513614D02*
X1832022Y4523610D01*
X1812029Y4523610D01*
X1802032Y4513614D01*
X1802032Y4503617D01*
X1812029Y4493620D01*
X1822025Y4493620D01*
X1812029Y4493620D01*
X1802032Y4483623D01*
X1802032Y4473627D01*
X1812029Y4463630D01*
X1832022Y4463630D01*
X1842019Y4473627D01*
X1742051Y4523610D02*
X1762045Y4513614D01*
X1782038Y4493620D01*
X1782038Y4473627D01*
X1772042Y4463630D01*
X1752048Y4463630D01*
X1742051Y4473627D01*
X1742051Y4483623D01*
X1752048Y4493620D01*
X1782038Y4493620D01*
X1722058Y4523610D02*
X1722058Y4483623D01*
X1702064Y4463630D01*
X1682071Y4483623D01*
X1682071Y4523610D01*
X1602097Y4523610D02*
X1602097Y4463630D01*
X1572106Y4463630D01*
X1562109Y4473627D01*
X1562109Y4513614D01*
X1572106Y4523610D01*
X1602097Y4523610D01*
X1502129Y4513614D02*
X1512126Y4523610D01*
X1532119Y4523610D01*
X1542116Y4513614D01*
X1542116Y4473627D01*
X1532119Y4463630D01*
X1512126Y4463630D01*
X1502129Y4473627D01*
X1482135Y4493620D02*
X1442148Y4493620D01*
X1422155Y4523610D02*
X1422155Y4463630D01*
X1392164Y4463630D01*
X1382168Y4473627D01*
X1382168Y4513614D01*
X1392164Y4523610D01*
X1422155Y4523610D01*
X1322187Y4513614D02*
X1332184Y4523610D01*
X1352177Y4523610D01*
X1362174Y4513614D01*
X1362174Y4473627D01*
X1352177Y4463630D01*
X1332184Y4463630D01*
X1322187Y4473627D01*
X1200585Y59391D02*
X1200585Y-590D01*
X1160598Y-590D01*
X1110614Y-590D02*
X1130608Y-590D01*
X1140604Y9407D01*
X1140604Y29400D01*
X1130608Y39397D01*
X1110614Y39397D01*
X1100617Y29400D01*
X1100617Y19404D01*
X1140604Y19404D01*
X1080624Y39397D02*
X1060630Y-590D01*
X1040637Y39397D01*
X990653Y-590D02*
X1010646Y-590D01*
X1020643Y9407D01*
X1020643Y29400D01*
X1010646Y39397D01*
X990653Y39397D01*
X980656Y29400D01*
X980656Y19404D01*
X1020643Y19404D01*
X960663Y-590D02*
X940669Y-590D01*
X950666Y-590D01*
X950666Y59391D01*
X960663Y59391D01*
X910679Y-590D02*
X880688Y-590D01*
X870692Y9407D01*
X880688Y19404D01*
X900682Y19404D01*
X910679Y29400D01*
X900682Y39397D01*
X870692Y39397D01*
X790718Y59391D02*
X790718Y-590D01*
X760727Y-590D01*
X750731Y9407D01*
X750731Y19404D01*
X760727Y29400D01*
X790718Y29400D01*
X760727Y29400D01*
X750731Y39397D01*
X750731Y49394D01*
X760727Y59391D01*
X790718Y59391D01*
X720740Y-590D02*
X700747Y-590D01*
X690750Y9407D01*
X690750Y29400D01*
X700747Y39397D01*
X720740Y39397D01*
X730737Y29400D01*
X730737Y9407D01*
X720740Y-590D01*
X660760Y39397D02*
X640766Y39397D01*
X630769Y29400D01*
X630769Y-590D01*
X660760Y-590D01*
X670756Y9407D01*
X660760Y19404D01*
X630769Y19404D01*
X610776Y39397D02*
X610776Y-590D01*
X610776Y19404D01*
X600779Y29400D01*
X590782Y39397D01*
X580785Y39397D01*
X510808Y59391D02*
X510808Y-590D01*
X540798Y-590D01*
X550795Y9407D01*
X550795Y29400D01*
X540798Y39397D01*
X510808Y39397D01*
X500000Y-1740019D02*
X500000Y-1800000D01*
X460013Y-1800000D01*
X440019Y-1800000D02*
X440019Y-1740019D01*
X420026Y-1760013D01*
X400032Y-1740019D01*
X400032Y-1800000D01*
X380039Y-1770010D02*
X340052Y-1770010D01*
X320058Y-1750016D02*
X310061Y-1740019D01*
X290068Y-1740019D01*
X280071Y-1750016D01*
X280071Y-1790003D01*
X290068Y-1800000D01*
X310061Y-1800000D01*
X320058Y-1790003D01*
X320058Y-1750016D01*
X260078Y-1750016D02*
X250081Y-1740019D01*
X230087Y-1740019D01*
X220090Y-1750016D01*
X220090Y-1790003D01*
X230087Y-1800000D01*
X250081Y-1800000D01*
X260078Y-1790003D01*
X260078Y-1750016D01*
X200097Y-1750016D02*
X190100Y-1740019D01*
X170107Y-1740019D01*
X160110Y-1750016D01*
X160110Y-1760013D01*
X170107Y-1770010D01*
X180103Y-1770010D01*
X170107Y-1770010D01*
X160110Y-1780006D01*
X160110Y-1790003D01*
X170107Y-1800000D01*
X190100Y-1800000D01*
X200097Y-1790003D01*
X500000Y-1900000D02*
X500000Y-1860643D01*
X480321Y-1860643D01*
X473762Y-1867202D01*
X473762Y-1880321D01*
X480321Y-1886881D01*
X500000Y-1886881D01*
X486881Y-1886881D02*
X473762Y-1900000D01*
X434404Y-1860643D02*
X460643Y-1860643D01*
X460643Y-1900000D01*
X434404Y-1900000D01*
X460643Y-1880321D02*
X447524Y-1880321D01*
X421285Y-1860643D02*
X421285Y-1886881D01*
X408166Y-1900000D01*
X395047Y-1886881D01*
X395047Y-1860643D01*
X342570Y-1900000D02*
X342570Y-1873762D01*
X329451Y-1860643D01*
X316332Y-1873762D01*
X316332Y-1900000D01*
X316332Y-1880321D01*
X342570Y-1880321D01*
X500000Y-1960643D02*
X473762Y-1960643D01*
X473762Y-1967202D01*
X500000Y-1993440D01*
X500000Y-2000000D01*
X473762Y-2000000D01*
X460643Y-1960643D02*
X460643Y-2000000D01*
X434404Y-2000000D01*
X395047Y-1967202D02*
X401606Y-1960643D01*
X414726Y-1960643D01*
X421285Y-1967202D01*
X421285Y-1973762D01*
X414726Y-1980321D01*
X401606Y-1980321D01*
X395047Y-1986881D01*
X395047Y-1993440D01*
X401606Y-2000000D01*
X414726Y-2000000D01*
X421285Y-1993440D01*
X316332Y-1967202D02*
X322892Y-1960643D01*
X336011Y-1960643D01*
X342570Y-1967202D01*
X342570Y-1993440D01*
X336011Y-2000000D01*
X322892Y-2000000D01*
X316332Y-1993440D01*
X296653Y-2000000D02*
X283534Y-2000000D01*
X276975Y-1993440D01*
X276975Y-1980321D01*
X283534Y-1973762D01*
X296653Y-1973762D01*
X303213Y-1980321D01*
X303213Y-1993440D01*
X296653Y-2000000D01*
X263856Y-1973762D02*
X263856Y-2000000D01*
X263856Y-1986881D01*
X257296Y-1980321D01*
X250737Y-1973762D01*
X244177Y-1973762D01*
X224498Y-2013119D02*
X224498Y-1973762D01*
X204820Y-1973762D01*
X198260Y-1980321D01*
X198260Y-1993440D01*
X204820Y-2000000D01*
X224498Y-2000000D01*
D79*
X896885Y4343000D02*
X896885Y5143000D01*
X96885Y4343000D02*
X896885Y4343000D01*
X96885Y4343000D02*
X96885Y5143000D01*
X896885Y5143000D01*
D80*
X-502467Y3770716D02*
X-498529Y3770716D01*
X-502467Y3719534D02*
X-498529Y3719534D01*
X-723923Y3176228D02*
X-723923Y3180164D01*
X-773135Y3176228D02*
X-773135Y3180164D01*
X-723925Y3365204D02*
X-723925Y3369140D01*
X-773139Y3365204D02*
X-773139Y3369140D01*
X-1011327Y1849458D02*
X-1011327Y1853394D01*
X-966051Y1849458D02*
X-966051Y1853394D01*
X-963099Y1610282D02*
X-959161Y1610282D01*
X-963099Y1659496D02*
X-959161Y1659496D01*
X-388295Y944930D02*
X-384357Y944930D01*
X-388295Y994142D02*
X-384357Y994142D01*
X-388295Y862252D02*
X-384357Y862252D01*
X-388295Y911464D02*
X-384357Y911464D01*
X-388295Y700836D02*
X-384359Y700836D01*
X-388295Y750048D02*
X-384359Y750048D01*
X-388295Y779578D02*
X-384357Y779578D01*
X-388295Y828790D02*
X-384357Y828790D01*
X-876485Y1985284D02*
X-872547Y1985284D01*
X-876485Y2032528D02*
X-872547Y2032528D01*
X-719003Y1780562D02*
X-715067Y1780562D01*
X-719003Y1827806D02*
X-715067Y1827806D01*
X-719005Y1883904D02*
X-715067Y1883904D01*
X-719005Y1929180D02*
X-715067Y1929180D01*
X-719007Y1986266D02*
X-715069Y1986266D01*
X-719007Y2031542D02*
X-715069Y2031542D01*
X-719003Y2087648D02*
X-715067Y2087648D01*
X-719003Y2134892D02*
X-715067Y2134892D01*
X48713Y1634890D02*
X52649Y1634890D01*
X48713Y1682134D02*
X52649Y1682134D01*
X48713Y1760876D02*
X52649Y1760876D01*
X48713Y1713632D02*
X52649Y1713632D01*
X48713Y1799260D02*
X52651Y1799260D01*
X48713Y1848474D02*
X52651Y1848474D01*
X-968021Y1468748D02*
X-964085Y1468748D01*
X-968021Y1417568D02*
X-964085Y1417568D01*
X-968023Y1317566D02*
X-964087Y1317566D01*
X-968023Y1368746D02*
X-964087Y1368746D01*
X-246563Y1886858D02*
X-242627Y1886858D01*
X-246563Y1938040D02*
X-242627Y1938040D01*
X-246563Y1985284D02*
X-242627Y1985284D01*
X-246563Y2036466D02*
X-242627Y2036466D01*
X1340601Y3950786D02*
X1383909Y3950786D01*
X1340601Y4049212D02*
X1383909Y4049212D01*
X1340051Y3861266D02*
X1383359Y3861266D01*
X1340051Y3924258D02*
X1383359Y3924258D01*
X-593611Y1240800D02*
X-589673Y1240800D01*
X-593611Y1290012D02*
X-589673Y1290012D01*
X-601487Y1383516D02*
X-597549Y1383516D01*
X-601487Y1332336D02*
X-597549Y1332336D01*
X-611327Y1540010D02*
X-607389Y1540010D01*
X-611327Y1589224D02*
X-607389Y1589224D01*
X-601485Y1491782D02*
X-597549Y1491782D01*
X-601485Y1440602D02*
X-597549Y1440602D01*
X1067413Y5434498D02*
X1071351Y5434498D01*
X1067413Y5479772D02*
X1071351Y5479772D01*
X-456385Y5436774D02*
X-452447Y5436774D01*
X-456385Y5482048D02*
X-452447Y5482048D01*
X-212507Y5437402D02*
X-208569Y5437402D01*
X-212507Y5482676D02*
X-208569Y5482676D01*
X-336383Y5436774D02*
X-332445Y5436774D01*
X-336383Y5482048D02*
X-332445Y5482048D01*
X-95755Y5437404D02*
X-91817Y5437404D01*
X-95755Y5482678D02*
X-91817Y5482678D01*
X-581083Y5436364D02*
X-577147Y5436364D01*
X-581083Y5481638D02*
X-577147Y5481638D01*
X2055057Y1043670D02*
X2055057Y1088828D01*
X1797577Y1088828D02*
X2055057Y1088828D01*
X1797577Y1043670D02*
X1797577Y1088828D01*
X1758113Y2157330D02*
X1758113Y2202488D01*
X1758113Y2157330D02*
X2015593Y2157330D01*
X2015593Y2202488D01*
X1386507Y2160480D02*
X1386507Y2205638D01*
X1386507Y2160480D02*
X1643987Y2160480D01*
X1643987Y2205638D01*
X961113Y3646702D02*
X961113Y3650638D01*
X909933Y3646702D02*
X909933Y3650638D01*
X822333Y3190008D02*
X822333Y3264810D01*
X692411Y3190008D02*
X692411Y3264810D01*
X692413Y2825834D02*
X692413Y2900638D01*
X822333Y2825834D02*
X822333Y2900638D01*
X1625483Y2682134D02*
X1700285Y2682134D01*
X1625483Y2552212D02*
X1700285Y2552212D01*
X-955225Y247096D02*
X-955225Y251032D01*
X-1006405Y247096D02*
X-1006405Y251032D01*
X-936523Y951818D02*
X-936523Y955756D01*
X-985735Y951818D02*
X-985735Y955756D01*
X-960147Y443944D02*
X-960147Y447882D01*
X-1009359Y443944D02*
X-1009359Y447882D01*
X1637297Y4036462D02*
X1637297Y4150636D01*
X1649107Y4036462D02*
X1649107Y4150636D01*
X1637297Y4036462D02*
X1649107Y4036462D01*
X1637297Y4150636D02*
X1649107Y4150636D01*
X1861705Y1325834D02*
X1861705Y1329772D01*
X1818397Y1325834D02*
X1818397Y1329772D01*
X1940443Y1325834D02*
X1940443Y1329772D01*
X1897137Y1325834D02*
X1897137Y1329772D01*
X1437491Y5346896D02*
X1437491Y5350832D01*
X1488673Y5346896D02*
X1488673Y5350832D01*
X1582175Y1916386D02*
X1582175Y1920324D01*
X1625481Y1916386D02*
X1625481Y1920324D01*
X1536901Y1916386D02*
X1536901Y1920324D01*
X1493593Y1916386D02*
X1493593Y1920324D01*
X1956193Y1916386D02*
X1956193Y1920324D01*
X1999499Y1916386D02*
X1999499Y1920324D01*
X1910915Y1916384D02*
X1910915Y1920322D01*
X1867607Y1916384D02*
X1867607Y1920322D01*
X1605951Y4211094D02*
X1605951Y4222906D01*
X1417287Y3691608D02*
X1421223Y3691608D01*
X1417287Y3642396D02*
X1421223Y3642396D01*
X1626603Y4339502D02*
X1669911Y4339502D01*
X1626603Y4402494D02*
X1669911Y4402494D01*
X1647141Y4259888D02*
X1651077Y4259888D01*
X1647141Y4309102D02*
X1651077Y4309102D01*
X1562489Y3853392D02*
X1566425Y3853392D01*
X1562489Y3884888D02*
X1566425Y3884888D01*
X1313477Y5437402D02*
X1317413Y5437402D01*
X1313477Y5482676D02*
X1317413Y5482676D01*
X330209Y3999064D02*
X330209Y4042370D01*
X235721Y3999064D02*
X235721Y4042370D01*
X753437Y3937056D02*
X757373Y3937056D01*
X753437Y3986268D02*
X757373Y3986268D01*
X753437Y4065008D02*
X757373Y4065008D01*
X753437Y4114220D02*
X757373Y4114220D01*
X550681Y3941976D02*
X550681Y4138828D01*
X487689Y3941976D02*
X487689Y4138828D01*
X550681Y4138828D01*
X487689Y3941976D02*
X550681Y3941976D01*
X473911Y2711662D02*
X548713Y2711662D01*
X473911Y2581740D02*
X548713Y2581740D01*
X-963099Y1569930D02*
X-959163Y1569930D01*
X-963099Y1518750D02*
X-959163Y1518750D01*
X-978847Y3274062D02*
X-978847Y3278000D01*
X-1030027Y3274062D02*
X-1030027Y3278000D01*
X-1026091Y3408904D02*
X-1022155Y3408904D01*
X-1026091Y3458118D02*
X-1022155Y3458118D01*
X-251487Y4632920D02*
X-251487Y4636856D01*
X-300699Y4632920D02*
X-300699Y4636856D01*
X830207Y-1054086D02*
X830207Y-857236D01*
X704223Y-1054086D02*
X704223Y-857236D01*
X830207Y-857236D01*
X704223Y-1054086D02*
X830207Y-1054086D01*
X1021151Y-1347394D02*
X1025089Y-1347394D01*
X1021151Y-1390702D02*
X1025089Y-1390702D01*
X1021153Y-1538338D02*
X1025091Y-1538338D01*
X1021153Y-1495030D02*
X1025091Y-1495030D01*
X1021151Y-1426134D02*
X1025089Y-1426134D01*
X1021151Y-1469442D02*
X1025089Y-1469442D01*
X1021153Y-1321806D02*
X1025091Y-1321806D01*
X1021153Y-1278498D02*
X1025091Y-1278498D01*
X517215Y-1394638D02*
X521153Y-1394638D01*
X517215Y-1437946D02*
X521153Y-1437946D01*
X517215Y-1371014D02*
X521153Y-1371014D01*
X517215Y-1327706D02*
X521153Y-1327706D01*
X517215Y-1260778D02*
X521153Y-1260778D01*
X517215Y-1304086D02*
X521153Y-1304086D01*
X517217Y-1237156D02*
X521155Y-1237156D01*
X517217Y-1193848D02*
X521155Y-1193848D01*
X529027Y-1056056D02*
X532965Y-1056056D01*
X529027Y-1012748D02*
X532965Y-1012748D01*
X529025Y-943850D02*
X532963Y-943850D01*
X529025Y-987158D02*
X532963Y-987158D01*
X949303Y-977314D02*
X949303Y-973376D01*
X998515Y-977314D02*
X998515Y-973376D01*
X971939Y-1167276D02*
X975877Y-1167276D01*
X971939Y-1118064D02*
X975877Y-1118064D01*
X899103Y-513732D02*
X899103Y-316882D01*
X773119Y-513732D02*
X773119Y-316882D01*
X899103Y-316882D01*
X773119Y-513732D02*
X899103Y-513732D01*
X844287Y-599608D02*
X848225Y-599608D01*
X844287Y-550394D02*
X848225Y-550394D01*
X1222925Y5346898D02*
X1222925Y5350834D01*
X1171743Y5346898D02*
X1171743Y5350834D01*
X-1108767Y247092D02*
X-1108767Y251030D01*
X-1057587Y247092D02*
X-1057587Y251030D01*
X961115Y-2000938D02*
X961115Y-1997000D01*
X1014263Y-2000938D02*
X1014263Y-1997000D01*
X1057571Y-2004872D02*
X1057571Y-2000936D01*
X1106783Y-2004872D02*
X1106783Y-2000936D01*
X686507Y2335678D02*
X690443Y2335678D01*
X686507Y2288434D02*
X690443Y2288434D01*
X686507Y2367172D02*
X690445Y2367172D01*
X686507Y2414416D02*
X690445Y2414416D01*
X1282965Y1857330D02*
X1282965Y1861266D01*
X1235721Y1857330D02*
X1235721Y1861266D01*
X1355795Y1166386D02*
X1359731Y1166386D01*
X1355795Y1213630D02*
X1359731Y1213630D01*
X1355801Y1056150D02*
X1359737Y1056150D01*
X1355801Y1008906D02*
X1359737Y1008906D01*
X-448337Y4908512D02*
X-448337Y4912450D01*
X-497551Y4908512D02*
X-497551Y4912450D01*
X1603287Y3641410D02*
X1607223Y3641410D01*
X1603287Y3692592D02*
X1607223Y3692592D01*
X1560287Y3797590D02*
X1564225Y3797590D01*
X1560287Y3746408D02*
X1564225Y3746408D01*
X1658947Y3922290D02*
X1662885Y3922290D01*
X1658947Y3973472D02*
X1662885Y3973472D01*
X-65463Y2940008D02*
X-65463Y2943944D01*
X-14281Y2940008D02*
X-14281Y2943944D01*
X704223Y-1541292D02*
X830207Y-1541292D01*
X704223Y-1196804D02*
X830207Y-1196804D01*
X704223Y-1541292D02*
X704223Y-1196804D01*
X830207Y-1541292D02*
X830207Y-1196804D01*
X1125483Y-2073770D02*
X1322333Y-2073770D01*
X1125483Y-2002904D02*
X1322333Y-2002904D01*
X1322333Y-2073770D02*
X1322333Y-2002904D01*
X1125483Y-2073770D02*
X1125483Y-2002904D01*
X1540837Y-1056054D02*
X1540837Y-1052116D01*
X1588081Y-1056054D02*
X1588081Y-1052116D01*
X1503435Y-1056054D02*
X1503435Y-1052118D01*
X1456191Y-1056054D02*
X1456191Y-1052118D01*
X48713Y1882922D02*
X52651Y1882922D01*
X48713Y1930166D02*
X52651Y1930166D01*
X1300585Y399410D02*
X1400585Y399410D01*
X1300585Y99410D02*
X1300585Y399410D01*
X1300585Y99410D02*
X1400585Y99410D01*
X1400585Y399410D01*
X250585Y399410D02*
X350585Y399410D01*
X250585Y99410D02*
X250585Y399410D01*
X250585Y99410D02*
X350585Y99410D01*
X350585Y399410D01*
X-693035Y-1652560D02*
X-693035Y-1648622D01*
X-645791Y-1652560D02*
X-645791Y-1648622D01*
X500585Y499410D02*
X500585Y599410D01*
X500585Y499410D02*
X1200585Y499410D01*
X1200585Y599410D01*
X500585Y599410D02*
X1200585Y599410D01*
X878773Y3903908D02*
X885332Y3910468D01*
X898451Y3910468D01*
X905011Y3903908D01*
X905011Y3877670D01*
X898451Y3871110D01*
X885332Y3871110D01*
X878773Y3877670D01*
X865654Y3871110D02*
X865654Y3910468D01*
X845975Y3910468D01*
X839415Y3903908D01*
X839415Y3890789D01*
X845975Y3884229D01*
X865654Y3884229D01*
X826296Y3910468D02*
X826296Y3877670D01*
X819737Y3871110D01*
X806617Y3871110D01*
X800058Y3877670D01*
X800058Y3910468D01*
X747581Y3871110D02*
X747581Y3910468D01*
X727903Y3910468D01*
X721343Y3903908D01*
X721343Y3890789D01*
X727903Y3884229D01*
X747581Y3884229D01*
X701664Y3871110D02*
X688545Y3871110D01*
X681986Y3877670D01*
X681986Y3890789D01*
X688545Y3897348D01*
X701664Y3897348D01*
X708224Y3890789D01*
X708224Y3877670D01*
X701664Y3871110D01*
X668867Y3897348D02*
X668867Y3877670D01*
X662307Y3871110D01*
X655747Y3877670D01*
X649188Y3871110D01*
X642628Y3877670D01*
X642628Y3897348D01*
X609831Y3871110D02*
X622950Y3871110D01*
X629509Y3877670D01*
X629509Y3890789D01*
X622950Y3897348D01*
X609831Y3897348D01*
X603271Y3890789D01*
X603271Y3884229D01*
X629509Y3884229D01*
X590152Y3897348D02*
X590152Y3871110D01*
X590152Y3884229D01*
X583592Y3890789D01*
X577033Y3897348D01*
X570473Y3897348D01*
X511437Y3910468D02*
X498318Y3910468D01*
X504877Y3910468D01*
X504877Y3871110D01*
X511437Y3871110D01*
X498318Y3871110D01*
X478639Y3871110D02*
X478639Y3897348D01*
X458961Y3897348D01*
X452401Y3890789D01*
X452401Y3871110D01*
X399924Y3890789D02*
X373686Y3890789D01*
X386805Y3903908D02*
X386805Y3877670D01*
X334329Y3910468D02*
X360567Y3910468D01*
X360567Y3890789D01*
X347448Y3897348D01*
X340888Y3897348D01*
X334329Y3890789D01*
X334329Y3877670D01*
X340888Y3871110D01*
X354007Y3871110D01*
X360567Y3877670D01*
X321210Y3910468D02*
X321210Y3884229D01*
X308091Y3871110D01*
X294971Y3884229D01*
X294971Y3910468D01*
X-343021Y1991189D02*
X-343021Y2030546D01*
X-362699Y2030546D01*
X-369259Y2023987D01*
X-369259Y2010868D01*
X-362699Y2004308D01*
X-343021Y2004308D01*
X-356140Y2004308D02*
X-369259Y1991189D01*
X-382378Y1991189D02*
X-395497Y1991189D01*
X-388938Y1991189D01*
X-388938Y2030546D01*
X-382378Y2023987D01*
X-415176Y2030546D02*
X-441414Y2030546D01*
X-441414Y2023987D01*
X-415176Y1997749D01*
X-415176Y1991189D01*
X-343021Y1892764D02*
X-343021Y1932121D01*
X-362699Y1932121D01*
X-369259Y1925562D01*
X-369259Y1912443D01*
X-362699Y1905883D01*
X-343021Y1905883D01*
X-356140Y1905883D02*
X-369259Y1892764D01*
X-382378Y1892764D02*
X-395497Y1892764D01*
X-388938Y1892764D01*
X-388938Y1932121D01*
X-382378Y1925562D01*
X-441414Y1932121D02*
X-428295Y1925562D01*
X-415176Y1912443D01*
X-415176Y1899323D01*
X-421735Y1892764D01*
X-434854Y1892764D01*
X-441414Y1899323D01*
X-441414Y1905883D01*
X-434854Y1912443D01*
X-415176Y1912443D01*
D81*
X200585Y649410D02*
X1450585Y649410D01*
X1450585Y-665000D02*
X1450585Y649410D01*
X200585Y-665000D02*
X200585Y649410D01*
X200585Y-665000D02*
X1450585Y-665000D01*
%TF.MD5,820bd2559b02ccc097e0f654becd2304*%
M02*
