G04 Layer_Color=0*
%FSLAX26Y26*%
%MOIN*%
%TF.FileFunction,Plated,1,6,PTH,Drill*%
%TF.Part,Single*%
G01*
G75*
%TA.AperFunction,ComponentDrill*%
%ADD142C,0.031496*%
%ADD143C,0.030000*%
%ADD144C,0.022268*%
%ADD145C,0.022268*%
%ADD146C,0.100000*%
%ADD147C,0.047000*%
%ADD148C,0.035433*%
%ADD149C,0.047244*%
%ADD150C,0.047244*%
%ADD151C,0.020000*%
%ADD152C,0.082000*%
%ADD153C,0.050000*%
%ADD154C,0.059055*%
%ADD155C,0.027559*%
%TA.AperFunction,OtherDrill,Free Pad (2972.442mil,47.245mil)*%
%ADD156C,0.030000*%
%TA.AperFunction,OtherDrill,Free Pad (2854.33mil,47.245mil)*%
%ADD157C,0.030000*%
%TA.AperFunction,OtherDrill,Free Pad (2500mil,7.875mil)*%
%ADD158C,0.030000*%
%TA.AperFunction,OtherDrill,Free Pad (2263.78mil,-149.607mil)*%
%ADD159C,0.030000*%
%TA.AperFunction,OtherDrill,Free Pad (2500mil,288.465mil)*%
%ADD160C,0.030000*%
%TA.AperFunction,OtherDrill,Free Pad (2618.11mil,485.315mil)*%
%ADD161C,0.030000*%
%TA.AperFunction,OtherDrill,Free Pad (2854.33mil,485.315mil)*%
%ADD162C,0.030000*%
%TA.AperFunction,OtherDrill,Free Pad (3090.55mil,485.315mil)*%
%ADD163C,0.030000*%
%TA.AperFunction,OtherDrill,Free Pad (2854.33mil,721.535mil)*%
%ADD164C,0.030000*%
%TA.AperFunction,OtherDrill,Free Pad (2500mil,721.535mil)*%
%ADD165C,0.030000*%
%TA.AperFunction,OtherDrill,Free Pad (1988.188mil,406.575mil)*%
%ADD166C,0.030000*%
%TA.AperFunction,OtherDrill,Free Pad (1653.542mil,327.835mil)*%
%ADD167C,0.030000*%
%TA.AperFunction,OtherDrill,Free Pad (1279.528mil,327.835mil)*%
%ADD168C,0.030000*%
%TA.AperFunction,OtherDrill,Free Pad (1397.638mil,327.835mil)*%
%ADD169C,0.030000*%
%TA.AperFunction,OtherDrill,Free Pad (1451.692mil,42.245mil)*%
%ADD170C,0.030000*%
%TA.AperFunction,OtherDrill,Free Pad (1215.472mil,42.245mil)*%
%ADD171C,0.030000*%
%TA.AperFunction,OtherDrill,Free Pad (1215.472mil,-154.607mil)*%
%ADD172C,0.030000*%
%TA.AperFunction,ComponentDrill*%
%ADD173C,0.147000*%
%ADD174C,0.166000*%
%ADD175C,0.055118*%
%ADD176C,0.043307*%
%TA.AperFunction,ViaDrill,NotFilled*%
%ADD177C,0.011811*%
%ADD178C,0.028000*%
D142*
X1009748Y-2942567D02*
D03*
X1009748Y-3042567D02*
D03*
X1009748Y-3142567D02*
D03*
X1009748Y-3242567D02*
D03*
X1009748Y-3342567D02*
D03*
X1009748Y-3442567D02*
D03*
X1009748Y-3542567D02*
D03*
X1009748Y-3642567D02*
D03*
X1009748Y-3742567D02*
D03*
X1009748Y-3842567D02*
D03*
X1009748Y-3942567D02*
D03*
X1009748Y-4042567D02*
D03*
X1009748Y-4142567D02*
D03*
X1009748Y-4242567D02*
D03*
X1009748Y-4342567D02*
D03*
X1009748Y-4442567D02*
D03*
X1009748Y-4542567D02*
D03*
X1009748Y-4642567D02*
D03*
X1009748Y-4742567D02*
D03*
X1009748Y-4842567D02*
D03*
X1009748Y-4942567D02*
D03*
X1009748Y-5042567D02*
D03*
X1009748Y-5142567D02*
D03*
X909748Y-3042567D02*
D03*
X909748Y-3142567D02*
D03*
X909748Y-3242567D02*
D03*
X909748Y-3342567D02*
D03*
X909748Y-3442567D02*
D03*
X909748Y-3542567D02*
D03*
X909748Y-3642567D02*
D03*
X909748Y-3742567D02*
D03*
X909748Y-3842567D02*
D03*
X909748Y-3942567D02*
D03*
X909748Y-4042567D02*
D03*
X909748Y-4142567D02*
D03*
X909748Y-4242567D02*
D03*
X909748Y-4342567D02*
D03*
X909748Y-4442567D02*
D03*
X909748Y-4542567D02*
D03*
X909748Y-4642567D02*
D03*
X909748Y-4742567D02*
D03*
X909748Y-4842567D02*
D03*
X909748Y-4942567D02*
D03*
X909748Y-5042567D02*
D03*
X909748Y-5142567D02*
D03*
X2809748Y-2942567D02*
D03*
X2909748Y-2942567D02*
D03*
X2909748Y-3042567D02*
D03*
X2909748Y-3142567D02*
D03*
X2909748Y-3242567D02*
D03*
X2909748Y-3342567D02*
D03*
X2909748Y-3442567D02*
D03*
X2909748Y-3542567D02*
D03*
X2909748Y-3642567D02*
D03*
X2909748Y-3742567D02*
D03*
X2909748Y-3842567D02*
D03*
X2909748Y-3942567D02*
D03*
X2909748Y-4042567D02*
D03*
X2909748Y-4142567D02*
D03*
X2909748Y-4242567D02*
D03*
X2909748Y-4342567D02*
D03*
X2909748Y-4442567D02*
D03*
X2909748Y-4542567D02*
D03*
X2909748Y-4642567D02*
D03*
X2909748Y-4742567D02*
D03*
X2909748Y-4842567D02*
D03*
X2909748Y-4942567D02*
D03*
X2909748Y-5042567D02*
D03*
X2909748Y-5142567D02*
D03*
X2809748Y-3042567D02*
D03*
X2809748Y-3142567D02*
D03*
X2809748Y-3242567D02*
D03*
X2809748Y-3342567D02*
D03*
X2809748Y-3442567D02*
D03*
X2809748Y-3542567D02*
D03*
X2809748Y-3642567D02*
D03*
X2809748Y-3742567D02*
D03*
X2809748Y-3842567D02*
D03*
X2809748Y-3942567D02*
D03*
X2809748Y-4042567D02*
D03*
X2809748Y-4142567D02*
D03*
X2809748Y-4242567D02*
D03*
X2809748Y-4342567D02*
D03*
X2809748Y-4442567D02*
D03*
X2809748Y-4542567D02*
D03*
X2809748Y-4642567D02*
D03*
X2809748Y-4742567D02*
D03*
X2809748Y-4842567D02*
D03*
X2809748Y-4942567D02*
D03*
X2809748Y-5042567D02*
D03*
X2809748Y-5142567D02*
D03*
D143*
X909748Y-2942567D02*
D03*
X413386Y2342520D02*
D03*
X413386Y2192913D02*
D03*
X19685Y2342520D02*
D03*
X19685Y2192913D02*
D03*
X19685Y1929134D02*
D03*
X19685Y1779527D02*
D03*
X216535Y2342520D02*
D03*
X216535Y2192913D02*
D03*
X216535Y1929134D02*
D03*
X216535Y1779527D02*
D03*
X413386Y1929134D02*
D03*
X413386Y1779527D02*
D03*
D144*
X185000Y-50000D02*
D03*
X35000Y-50000D02*
D03*
X85000Y-50000D02*
D03*
X135000Y-50000D02*
D03*
X235000Y-50000D02*
D03*
X-15000Y0D02*
D03*
X35000Y0D02*
D03*
X85000Y0D02*
D03*
X135000Y0D02*
D03*
X185000Y0D02*
D03*
X235000Y0D02*
D03*
D145*
X-15000Y-50000D02*
D03*
D146*
X728346Y-370846D02*
D03*
X728346Y701554D02*
D03*
D147*
X728346Y539654D02*
D03*
X726746Y-208946D02*
D03*
D148*
X400197Y-4254134D02*
D03*
X300197Y-4254134D02*
D03*
X200197Y-4254134D02*
D03*
X100197Y-4254134D02*
D03*
X100197Y-4154134D02*
D03*
X200197Y-4154134D02*
D03*
X300197Y-4154134D02*
D03*
X400197Y-4154134D02*
D03*
X2027559Y-503937D02*
D03*
X2127559Y-503937D02*
D03*
X2227559Y-503937D02*
D03*
X2227559Y-403937D02*
D03*
X2127559Y-403937D02*
D03*
X2027559Y-403937D02*
D03*
X1889764Y-1527559D02*
D03*
X1989764Y-1527559D02*
D03*
X2089764Y-1527559D02*
D03*
X2189764Y-1527559D02*
D03*
X1830709Y-828740D02*
D03*
X1930709Y-828740D02*
D03*
X2030709Y-828740D02*
D03*
X2130709Y-828740D02*
D03*
X2381890Y-1133858D02*
D03*
X2481890Y-1133858D02*
D03*
X2581890Y-1133858D02*
D03*
X2681890Y-1133858D02*
D03*
X255905Y1326772D02*
D03*
X155905Y1326772D02*
D03*
X55906Y1326772D02*
D03*
X-44094Y1326772D02*
D03*
X407677Y-4855315D02*
D03*
X307677Y-4855315D02*
D03*
X207677Y-4855315D02*
D03*
X107677Y-4855315D02*
D03*
X2381890Y-1822835D02*
D03*
X2481890Y-1822835D02*
D03*
X2581890Y-1822835D02*
D03*
X2681890Y-1822835D02*
D03*
X197441Y-3699410D02*
D03*
X97441Y-3699410D02*
D03*
X-52559Y950591D02*
D03*
X347441Y950591D02*
D03*
X247441Y950591D02*
D03*
X147441Y950591D02*
D03*
X47441Y950591D02*
D03*
X209058Y310039D02*
D03*
X209058Y410039D02*
D03*
X209058Y510039D02*
D03*
X209058Y610039D02*
D03*
X-90942Y310039D02*
D03*
X-90942Y410039D02*
D03*
X-90942Y510039D02*
D03*
X-90942Y610039D02*
D03*
X896064Y1773229D02*
D03*
X896064Y1873229D02*
D03*
X896064Y1973229D02*
D03*
X896064Y2073229D02*
D03*
X596064Y1773229D02*
D03*
X596064Y1873229D02*
D03*
X596064Y1973229D02*
D03*
X596064Y2073229D02*
D03*
X578738Y-5385827D02*
D03*
X478738Y-5385827D02*
D03*
X378738Y-5385827D02*
D03*
X278738Y-5385827D02*
D03*
X178738Y-5385827D02*
D03*
X78738Y-5385827D02*
D03*
D149*
X1978346Y273622D02*
D03*
D150*
X1178346Y673622D02*
D03*
X1178346Y373622D02*
D03*
X1178346Y173622D02*
D03*
X1978346Y673622D02*
D03*
X1978346Y-126378D02*
D03*
D151*
X2925378Y2659433D02*
D03*
X3025378Y2559433D02*
D03*
X2825378Y2559433D02*
D03*
D152*
X1560378Y2225433D02*
D03*
D153*
X1710378Y1925433D02*
D03*
X1410378Y1925433D02*
D03*
D154*
X2263780Y377165D02*
D03*
X2263780Y77165D02*
D03*
X2263780Y677165D02*
D03*
X3063780Y-122835D02*
D03*
X3063780Y277165D02*
D03*
X3063780Y677165D02*
D03*
D155*
X903542Y1286613D02*
D03*
X903542Y1386613D02*
D03*
D156*
X2972442Y47245D02*
D03*
D157*
X2854330Y47245D02*
D03*
D158*
X2500000Y7875D02*
D03*
D159*
X2263780Y-149607D02*
D03*
D160*
X2500000Y288465D02*
D03*
D161*
X2618110Y485315D02*
D03*
D162*
X2854330Y485315D02*
D03*
D163*
X3090550Y485315D02*
D03*
D164*
X2854330Y721535D02*
D03*
D165*
X2500000Y721535D02*
D03*
D166*
X1988188Y406575D02*
D03*
D167*
X1653542Y327835D02*
D03*
D168*
X1279528Y327835D02*
D03*
D169*
X1397638Y327835D02*
D03*
D170*
X1451692Y42245D02*
D03*
D171*
X1215472Y42245D02*
D03*
D172*
X1215472Y-154607D02*
D03*
D173*
X2308960Y-3257527D02*
D03*
X2348330Y-2312645D02*
D03*
X1364078Y-2273275D02*
D03*
X1364078Y-3218157D02*
D03*
D174*
X1209748Y-5217567D02*
D03*
X2706694Y-5366141D02*
D03*
X2834646Y-2728347D02*
D03*
X959748Y-2717567D02*
D03*
X-27558Y-524409D02*
D03*
X74804Y-2811023D02*
D03*
X1472442Y-1771653D02*
D03*
X1472442Y-524409D02*
D03*
D175*
X1003740Y925591D02*
D03*
X805314Y925591D02*
D03*
X1202164Y925591D02*
D03*
D176*
X1648622Y925591D02*
D03*
X1797440Y925591D02*
D03*
D177*
X30000Y-184000D02*
D03*
X536012Y693363D02*
D03*
X605012Y698363D02*
D03*
X943378Y130433D02*
D03*
X2640344Y2760123D02*
D03*
X358012Y-1405637D02*
D03*
X1223012Y-895637D02*
D03*
X783012Y-20637D02*
D03*
X1999748Y847433D02*
D03*
X2287378Y816433D02*
D03*
X358878Y-336067D02*
D03*
X264378Y-2263779D02*
D03*
X250378Y-1829567D02*
D03*
X2859378Y-3760567D02*
D03*
X-146622Y-870567D02*
D03*
X1530378Y-3392567D02*
D03*
X-146622Y-1576567D02*
D03*
X834646Y-1852363D02*
D03*
X875378Y-1747567D02*
D03*
X777378Y-1839567D02*
D03*
X-66930Y-1273623D02*
D03*
X2030378Y-3792567D02*
D03*
X2630748Y-2003567D02*
D03*
X496378Y-2073567D02*
D03*
X1118378Y-700567D02*
D03*
X3058378Y-3002567D02*
D03*
X2049378Y-3008567D02*
D03*
X2602378Y-729567D02*
D03*
X-66930Y-1324803D02*
D03*
X849378Y-483567D02*
D03*
X1236220Y-984251D02*
D03*
X1455378Y-1059567D02*
D03*
X2333378Y-10355D02*
D03*
X1259842Y-814961D02*
D03*
X2073378Y-2862567D02*
D03*
X1060378Y-3326567D02*
D03*
X853378Y1106433D02*
D03*
X464568Y-712599D02*
D03*
X2796562Y-816679D02*
D03*
X2620378Y2566433D02*
D03*
X519686Y539371D02*
D03*
X944882Y381889D02*
D03*
X2312402Y-4558543D02*
D03*
X1989796Y-4662567D02*
D03*
X866142Y-1970473D02*
D03*
X1736748Y-3107567D02*
D03*
X1815748Y-3308567D02*
D03*
X1492126Y-4001969D02*
D03*
X546748Y-1661567D02*
D03*
X935748Y-1818567D02*
D03*
X242748Y-1788567D02*
D03*
X295748Y-1249567D02*
D03*
X79748Y-2347567D02*
D03*
X-70252Y-2312567D02*
D03*
X117748Y-125567D02*
D03*
X921260Y2710629D02*
D03*
X1568378Y-395567D02*
D03*
X2248032Y-915355D02*
D03*
X2711748Y889433D02*
D03*
X2625984Y1572835D02*
D03*
X2896378Y603433D02*
D03*
X1874378Y-4755905D02*
D03*
X1871748Y-4092567D02*
D03*
X2106300Y-3651575D02*
D03*
X762796Y-1916339D02*
D03*
X-9252Y-1443567D02*
D03*
X241748Y-2314567D02*
D03*
X2137796Y-3852363D02*
D03*
X1670748Y-4087567D02*
D03*
X1484252Y-4068897D02*
D03*
X373426Y-1532163D02*
D03*
X1278378Y-1588567D02*
D03*
X822748Y-1634567D02*
D03*
X744748Y-1688567D02*
D03*
X686378Y2169433D02*
D03*
X964378Y-3407567D02*
D03*
X1561022Y-3533567D02*
D03*
X-31496Y-2102363D02*
D03*
X450748Y-1813567D02*
D03*
X1941378Y-4409567D02*
D03*
X2120080Y-4293309D02*
D03*
X2059056Y2647637D02*
D03*
X2749748Y-280567D02*
D03*
X2216536Y2651575D02*
D03*
X2140748Y-141567D02*
D03*
X2378748Y2600433D02*
D03*
X2378748Y-281567D02*
D03*
X3061378Y-1356299D02*
D03*
X3135378Y2515433D02*
D03*
X1208378Y1325031D02*
D03*
X321378Y-2546567D02*
D03*
X2679378Y-2235567D02*
D03*
X867834Y-2087567D02*
D03*
X2698724Y-4242913D02*
D03*
X2700378Y-4367567D02*
D03*
X1753378Y1042433D02*
D03*
X-91622Y-2472567D02*
D03*
X913748Y-711567D02*
D03*
X973378Y-2343567D02*
D03*
X776378Y577433D02*
D03*
X221378Y-910567D02*
D03*
X2263780Y-62567D02*
D03*
X2421378Y-890567D02*
D03*
X772378Y2228347D02*
D03*
X23378Y-1772819D02*
D03*
X257378Y-93567D02*
D03*
X2708378Y837433D02*
D03*
X2006378Y-4063245D02*
D03*
X1871378Y-3671567D02*
D03*
X2769378Y-3614567D02*
D03*
X2814378Y-1401567D02*
D03*
X520378Y-3773623D02*
D03*
X-18622Y-1031567D02*
D03*
X-81622Y-897637D02*
D03*
X352658Y-200127D02*
D03*
X787378Y-3397913D02*
D03*
X334378Y-144567D02*
D03*
X2678378Y-1008567D02*
D03*
X943378Y-140567D02*
D03*
X801182Y538433D02*
D03*
X318378Y-393559D02*
D03*
X2097378Y-3402567D02*
D03*
X2467536Y-3693409D02*
D03*
X1814378Y-3635567D02*
D03*
X848378Y-1914567D02*
D03*
X-16622Y-2566567D02*
D03*
X1088072Y2078739D02*
D03*
X2036748Y-3945567D02*
D03*
X-66252Y-1744567D02*
D03*
X-101252Y-972567D02*
D03*
X-82678Y-2362205D02*
D03*
X281748Y-863567D02*
D03*
X1024748Y-983567D02*
D03*
X2171748Y-4161567D02*
D03*
X1754748Y-557567D02*
D03*
X460748Y-867567D02*
D03*
X1453748Y-967567D02*
D03*
X1023748Y-1884567D02*
D03*
X888748Y-924567D02*
D03*
X900748Y-757567D02*
D03*
X1460378Y1453433D02*
D03*
X223748Y-588567D02*
D03*
X196748Y-656567D02*
D03*
X1011748Y-778567D02*
D03*
X2286748Y1182433D02*
D03*
X2442748Y1016433D02*
D03*
X280998Y-1359567D02*
D03*
X2319748Y-4085567D02*
D03*
X2193748Y-4086567D02*
D03*
X430748Y-1758567D02*
D03*
X427748Y-1600567D02*
D03*
X232980Y-1451567D02*
D03*
X1259748Y-1092567D02*
D03*
X2308960Y-2115795D02*
D03*
X1621442Y-3865795D02*
D03*
X1926442Y-3825795D02*
D03*
X929378Y-88567D02*
D03*
D178*
X417748Y-1094567D02*
D03*
X1753748Y-703567D02*
D03*
X1465748Y-869567D02*
D03*
X1831748Y-129567D02*
D03*
X1934748Y46433D02*
D03*
X666748Y1024433D02*
D03*
%TF.MD5,65093c20e11368296705080db9db17d7*%
M02*
