G04 Layer_Color=0*
%FSLAX26Y26*%
%MOIN*%
%TF.FileFunction,Plated,1,6,PTH,Drill*%
%TF.Part,Single*%
G01*
G75*
%TA.AperFunction,ComponentDrill*%
%ADD146C,0.035433*%
%ADD147C,0.035433*%
%TA.AperFunction,OtherDrill,Pad Free-7 (1560mil,870mil)*%
%ADD148C,0.085000*%
%TA.AperFunction,OtherDrill,Pad Free-6 (2610mil,-180mil)*%
%ADD149C,0.085000*%
%TA.AperFunction,OtherDrill,Pad Free-5 (2610mil,870mil)*%
%ADD150C,0.085000*%
%TA.AperFunction,OtherDrill,Pad Free-4 (1560mil,-180mil)*%
%ADD151C,0.085000*%
%TA.AperFunction,OtherDrill,Pad Free-3 (260mil,2520mil)*%
%ADD152C,0.090000*%
%TA.AperFunction,OtherDrill,Pad Free-3 (1560mil,2520mil)*%
%ADD153C,0.090000*%
%TA.AperFunction,OtherDrill,Pad Free-3 (260mil,270mil)*%
%ADD154C,0.090000*%
%TA.AperFunction,OtherDrill,Pad Free-3 (1560mil,1280mil)*%
%ADD155C,0.090000*%
%TA.AperFunction,OtherDrill,Pad Free-3 (2902.616mil,-2327.984mil)*%
%ADD156C,0.118110*%
%TA.AperFunction,OtherDrill,Pad Free-3 (1405.67mil,-2179.41mil)*%
%ADD157C,0.118110*%
%TA.AperFunction,OtherDrill,Pad Free-3 (1155.67mil,320.59mil)*%
%ADD158C,0.118110*%
%TA.AperFunction,OtherDrill,Pad Free-3 (3030.568mil,309.81mil)*%
%ADD159C,0.118110*%
%TA.AperFunction,ComponentDrill*%
%ADD160C,0.055118*%
%ADD161C,0.043307*%
%TA.AperFunction,OtherDrill,Free Pad (1411.394mil,2883.55mil)*%
%ADD162C,0.030000*%
%TA.AperFunction,OtherDrill,Free Pad (1411.394mil,3080.402mil)*%
%ADD163C,0.030000*%
%TA.AperFunction,OtherDrill,Free Pad (1647.614mil,3080.402mil)*%
%ADD164C,0.030000*%
%TA.AperFunction,OtherDrill,Free Pad (1593.56mil,3365.992mil)*%
%ADD165C,0.030000*%
%TA.AperFunction,OtherDrill,Free Pad (1475.45mil,3365.992mil)*%
%ADD166C,0.030000*%
%TA.AperFunction,OtherDrill,Free Pad (1849.464mil,3365.992mil)*%
%ADD167C,0.030000*%
%TA.AperFunction,OtherDrill,Free Pad (2184.11mil,3444.732mil)*%
%ADD168C,0.030000*%
%TA.AperFunction,OtherDrill,Free Pad (2695.922mil,3759.692mil)*%
%ADD169C,0.030000*%
%TA.AperFunction,OtherDrill,Free Pad (3050.252mil,3759.692mil)*%
%ADD170C,0.030000*%
%TA.AperFunction,OtherDrill,Free Pad (3286.472mil,3523.472mil)*%
%ADD171C,0.030000*%
%TA.AperFunction,OtherDrill,Free Pad (3050.252mil,3523.472mil)*%
%ADD172C,0.030000*%
%TA.AperFunction,OtherDrill,Free Pad (2814.032mil,3523.472mil)*%
%ADD173C,0.030000*%
%TA.AperFunction,OtherDrill,Free Pad (2695.922mil,3326.622mil)*%
%ADD174C,0.030000*%
%TA.AperFunction,OtherDrill,Free Pad (2459.702mil,2888.55mil)*%
%ADD175C,0.030000*%
%TA.AperFunction,OtherDrill,Free Pad (2695.922mil,3046.032mil)*%
%ADD176C,0.030000*%
%TA.AperFunction,OtherDrill,Free Pad (3050.252mil,3085.402mil)*%
%ADD177C,0.030000*%
%TA.AperFunction,OtherDrill,Free Pad (3168.364mil,3085.402mil)*%
%ADD178C,0.030000*%
%TA.AperFunction,ComponentDrill*%
%ADD179C,0.027559*%
%ADD180C,0.059055*%
%ADD181C,0.030000*%
%ADD182C,0.050000*%
%ADD183C,0.082000*%
%ADD184C,0.020000*%
%ADD185C,0.047244*%
%ADD186C,0.047244*%
%ADD187C,0.047000*%
%ADD188C,0.100000*%
%ADD189C,0.022268*%
%ADD190C,0.022268*%
%ADD191C,0.031496*%
%TA.AperFunction,ViaDrill,NotFilled*%
%ADD192C,0.011811*%
%ADD193C,0.028000*%
D146*
X1810000Y870000D02*
D03*
X1910000Y870000D02*
D03*
X2010000Y870000D02*
D03*
X2110000Y870000D02*
D03*
X2310000Y870000D02*
D03*
X2410000Y870000D02*
D03*
X2210000Y870000D02*
D03*
X290002Y-1340000D02*
D03*
X390002Y-1340000D02*
D03*
X274660Y-2347670D02*
D03*
X374660Y-2347670D02*
D03*
X474660Y-2347670D02*
D03*
X574660Y-2347670D02*
D03*
X674660Y-2347670D02*
D03*
X774660Y-2347670D02*
D03*
X791986Y5111386D02*
D03*
X791986Y5011386D02*
D03*
X791986Y4911386D02*
D03*
X791986Y4811386D02*
D03*
X1091986Y5111386D02*
D03*
X1091986Y5011386D02*
D03*
X1091986Y4911386D02*
D03*
X1091986Y4811386D02*
D03*
X104980Y3648196D02*
D03*
X104980Y3548196D02*
D03*
X104980Y3448196D02*
D03*
X104980Y3348196D02*
D03*
X404980Y3648196D02*
D03*
X404980Y3548196D02*
D03*
X404980Y3448196D02*
D03*
X404980Y3348196D02*
D03*
X243364Y3988748D02*
D03*
X343364Y3988748D02*
D03*
X443364Y3988748D02*
D03*
X543364Y3988748D02*
D03*
X143364Y3988748D02*
D03*
X2877812Y1215322D02*
D03*
X2777812Y1215322D02*
D03*
X2677812Y1215322D02*
D03*
X2577812Y1215322D02*
D03*
X303600Y-1817158D02*
D03*
X403600Y-1817158D02*
D03*
X503600Y-1817158D02*
D03*
X603600Y-1817158D02*
D03*
X151828Y4364928D02*
D03*
X251828Y4364928D02*
D03*
X351828Y4364928D02*
D03*
X451828Y4364928D02*
D03*
X2877812Y1904298D02*
D03*
X2777812Y1904298D02*
D03*
X2677812Y1904298D02*
D03*
X2577812Y1904298D02*
D03*
X2326630Y2209416D02*
D03*
X2226630Y2209416D02*
D03*
X2126630Y2209416D02*
D03*
X2026630Y2209416D02*
D03*
X2385686Y1510598D02*
D03*
X2285686Y1510598D02*
D03*
X2185686Y1510598D02*
D03*
X2085686Y1510598D02*
D03*
X2223482Y2634220D02*
D03*
X2323482Y2634220D02*
D03*
X2423482Y2634220D02*
D03*
X2423482Y2534220D02*
D03*
X2323482Y2534220D02*
D03*
X2223482Y2534220D02*
D03*
D147*
X725000Y-450000D02*
D03*
X725000Y-550000D02*
D03*
X725000Y-650000D02*
D03*
X725000Y-50000D02*
D03*
X725000Y-150000D02*
D03*
X725000Y-250000D02*
D03*
X1560000Y670000D02*
D03*
X1560000Y570000D02*
D03*
X1560000Y470000D02*
D03*
X2610000Y670000D02*
D03*
X2610000Y570000D02*
D03*
X2610000Y470000D02*
D03*
D148*
X1560000Y870000D02*
D03*
D149*
X2610000Y-180000D02*
D03*
D150*
X2610000Y870000D02*
D03*
D151*
X1560000Y-180000D02*
D03*
D152*
X260000Y2520000D02*
D03*
D153*
X1560000Y2520000D02*
D03*
D154*
X260000Y270000D02*
D03*
D155*
X1560000Y1280000D02*
D03*
D156*
X2902616Y-2327984D02*
D03*
D157*
X1405670Y-2179410D02*
D03*
D158*
X1155670Y320590D02*
D03*
D159*
X3030568Y309810D02*
D03*
D160*
X1398086Y3963748D02*
D03*
X1001236Y3963748D02*
D03*
X1199662Y3963748D02*
D03*
D161*
X1993362Y3963748D02*
D03*
X1844544Y3963748D02*
D03*
D162*
X1411394Y2883550D02*
D03*
D163*
X1411394Y3080402D02*
D03*
D164*
X1647614Y3080402D02*
D03*
D165*
X1593560Y3365992D02*
D03*
D166*
X1475450Y3365992D02*
D03*
D167*
X1849464Y3365992D02*
D03*
D168*
X2184110Y3444732D02*
D03*
D169*
X2695922Y3759692D02*
D03*
D170*
X3050252Y3759692D02*
D03*
D171*
X3286472Y3523472D02*
D03*
D172*
X3050252Y3523472D02*
D03*
D173*
X2814032Y3523472D02*
D03*
D174*
X2695922Y3326622D02*
D03*
D175*
X2459702Y2888550D02*
D03*
D176*
X2695922Y3046032D02*
D03*
D177*
X3050252Y3085402D02*
D03*
D178*
X3168364Y3085402D02*
D03*
D179*
X1099464Y4424770D02*
D03*
X1099464Y4324770D02*
D03*
D180*
X3259702Y3715322D02*
D03*
X3259702Y3315322D02*
D03*
X3259702Y2915322D02*
D03*
X2459702Y3715322D02*
D03*
X2459702Y3115322D02*
D03*
X2459702Y3415322D02*
D03*
D181*
X609308Y4817684D02*
D03*
X609308Y4967290D02*
D03*
X412458Y4817684D02*
D03*
X412458Y4967290D02*
D03*
X412458Y5231070D02*
D03*
X412458Y5380676D02*
D03*
X215608Y4817684D02*
D03*
X215608Y4967290D02*
D03*
X215608Y5231070D02*
D03*
X215608Y5380676D02*
D03*
X609308Y5231070D02*
D03*
X609308Y5380676D02*
D03*
X1105670Y95590D02*
D03*
D182*
X1606300Y4963590D02*
D03*
X1906300Y4963590D02*
D03*
D183*
X1756300Y5263590D02*
D03*
D184*
X3021300Y5597590D02*
D03*
X3221300Y5597590D02*
D03*
X3121300Y5697590D02*
D03*
D185*
X2174268Y2911780D02*
D03*
X2174268Y3711780D02*
D03*
X1374268Y3211780D02*
D03*
X1374268Y3411780D02*
D03*
X1374268Y3711780D02*
D03*
D186*
X2174268Y3311780D02*
D03*
D187*
X922668Y2829212D02*
D03*
X924268Y3577812D02*
D03*
D188*
X924268Y3739712D02*
D03*
X924268Y2667312D02*
D03*
D189*
X430922Y3038158D02*
D03*
X380922Y3038158D02*
D03*
X330922Y3038158D02*
D03*
X280922Y3038158D02*
D03*
X230922Y3038158D02*
D03*
X180922Y3038158D02*
D03*
X430922Y2988158D02*
D03*
X330922Y2988158D02*
D03*
X280922Y2988158D02*
D03*
X230922Y2988158D02*
D03*
X380922Y2988158D02*
D03*
D190*
X180922Y2988158D02*
D03*
D191*
X3005670Y-2104410D02*
D03*
X3005670Y-2004410D02*
D03*
X3005670Y-1904410D02*
D03*
X3005670Y-1804410D02*
D03*
X3005670Y-1704410D02*
D03*
X3005670Y-1604410D02*
D03*
X3005670Y-1504410D02*
D03*
X3005670Y-1404410D02*
D03*
X3005670Y-1304410D02*
D03*
X3005670Y-1204410D02*
D03*
X3005670Y-1104410D02*
D03*
X3005670Y-1004410D02*
D03*
X3005670Y-904410D02*
D03*
X3005670Y-804410D02*
D03*
X3005670Y-704410D02*
D03*
X3005670Y-604410D02*
D03*
X3005670Y-504410D02*
D03*
X3005670Y-404410D02*
D03*
X3005670Y-304410D02*
D03*
X3005670Y-204410D02*
D03*
X3005670Y-104410D02*
D03*
X3005670Y-4410D02*
D03*
X3105670Y-2104410D02*
D03*
X3105670Y-2004410D02*
D03*
X3105670Y-1904410D02*
D03*
X3105670Y-1804410D02*
D03*
X3105670Y-1704410D02*
D03*
X3105670Y-1604410D02*
D03*
X3105670Y-1504410D02*
D03*
X3105670Y-1404410D02*
D03*
X3105670Y-1304410D02*
D03*
X3105670Y-1204410D02*
D03*
X3105670Y-1104410D02*
D03*
X3105670Y-1004410D02*
D03*
X3105670Y-904410D02*
D03*
X3105670Y-804410D02*
D03*
X3105670Y-704410D02*
D03*
X3105670Y-604410D02*
D03*
X3105670Y-504410D02*
D03*
X3105670Y-404410D02*
D03*
X3105670Y-304410D02*
D03*
X3105670Y-204410D02*
D03*
X3105670Y-104410D02*
D03*
X3105670Y-4410D02*
D03*
X3105670Y95590D02*
D03*
X3005670Y95590D02*
D03*
X1105670Y-2104410D02*
D03*
X1105670Y-2004410D02*
D03*
X1105670Y-1904410D02*
D03*
X1105670Y-1804410D02*
D03*
X1105670Y-1704410D02*
D03*
X1105670Y-1604410D02*
D03*
X1105670Y-1504410D02*
D03*
X1105670Y-1404410D02*
D03*
X1105670Y-1304410D02*
D03*
X1105670Y-1204410D02*
D03*
X1105670Y-1104410D02*
D03*
X1105670Y-1004410D02*
D03*
X1105670Y-904410D02*
D03*
X1105670Y-804410D02*
D03*
X1105670Y-704410D02*
D03*
X1105670Y-604410D02*
D03*
X1105670Y-504410D02*
D03*
X1105670Y-404410D02*
D03*
X1105670Y-304410D02*
D03*
X1105670Y-204410D02*
D03*
X1105670Y-104410D02*
D03*
X1105670Y-4410D02*
D03*
X1205670Y-2104410D02*
D03*
X1205670Y-2004410D02*
D03*
X1205670Y-1904410D02*
D03*
X1205670Y-1804410D02*
D03*
X1205670Y-1704410D02*
D03*
X1205670Y-1604410D02*
D03*
X1205670Y-1504410D02*
D03*
X1205670Y-1404410D02*
D03*
X1205670Y-1304410D02*
D03*
X1205670Y-1204410D02*
D03*
X1205670Y-1104410D02*
D03*
X1205670Y-1004410D02*
D03*
X1205670Y-904410D02*
D03*
X1205670Y-804410D02*
D03*
X1205670Y-704410D02*
D03*
X1205670Y-604410D02*
D03*
X1205670Y-504410D02*
D03*
X1205670Y-404410D02*
D03*
X1205670Y-304410D02*
D03*
X1205670Y-204410D02*
D03*
X1205670Y-104410D02*
D03*
X1205670Y-4410D02*
D03*
X1205670Y95590D02*
D03*
D192*
X709300Y397590D02*
D03*
X1175300Y55590D02*
D03*
X980300Y-144410D02*
D03*
X2326300Y-691410D02*
D03*
X1981300Y-925410D02*
D03*
X650000Y-1370000D02*
D03*
X2005670Y-234410D02*
D03*
X1125300Y2949590D02*
D03*
X2122364Y-787638D02*
D03*
X1817364Y-827638D02*
D03*
X2504882Y922362D02*
D03*
X1455670Y1945590D02*
D03*
X428902Y1586590D02*
D03*
X623670Y1437590D02*
D03*
X626670Y1279590D02*
D03*
X2389670Y-1048410D02*
D03*
X2515670Y-1047410D02*
D03*
X476920Y1678590D02*
D03*
X2638670Y4054590D02*
D03*
X2482670Y4220590D02*
D03*
X1207670Y2259590D02*
D03*
X392670Y2381590D02*
D03*
X419670Y2449590D02*
D03*
X1656300Y4491590D02*
D03*
X1096670Y2280590D02*
D03*
X1084670Y2113590D02*
D03*
X1219670Y1153590D02*
D03*
X1649670Y2070590D02*
D03*
X656670Y2170590D02*
D03*
X1950670Y2480590D02*
D03*
X2367670Y-1123410D02*
D03*
X1220670Y2054590D02*
D03*
X477670Y2174590D02*
D03*
X113244Y675952D02*
D03*
X94670Y2065590D02*
D03*
X129670Y1293590D02*
D03*
X2232670Y-907410D02*
D03*
X1283994Y5116896D02*
D03*
X179300Y471590D02*
D03*
X1044300Y1123590D02*
D03*
X2010300Y-597410D02*
D03*
X2663458Y-655252D02*
D03*
X2293300Y-364410D02*
D03*
X514300Y2644598D02*
D03*
X997104Y3576590D02*
D03*
X1139300Y2897590D02*
D03*
X2874300Y2029590D02*
D03*
X530300Y2893590D02*
D03*
X983300Y-359756D02*
D03*
X548580Y2838030D02*
D03*
X114300Y2140520D02*
D03*
X177300Y2006590D02*
D03*
X3010300Y1636590D02*
D03*
X2965300Y-576410D02*
D03*
X2067300Y-633410D02*
D03*
X2202300Y-1025088D02*
D03*
X2904300Y3875590D02*
D03*
X453300Y2944590D02*
D03*
X219300Y1265338D02*
D03*
X968300Y5266504D02*
D03*
X2617300Y2147590D02*
D03*
X2459702Y2975590D02*
D03*
X417300Y2127590D02*
D03*
X972300Y3615590D02*
D03*
X1169300Y694590D02*
D03*
X1109670Y2326590D02*
D03*
X104300Y565590D02*
D03*
X1949300Y4080590D02*
D03*
X2896300Y-1329410D02*
D03*
X2894646Y-1204756D02*
D03*
X1063756Y950590D02*
D03*
X2875300Y802590D02*
D03*
X517300Y491590D02*
D03*
X1404300Y4363188D02*
D03*
X3331300Y5553590D02*
D03*
X3257300Y1681858D02*
D03*
X2574670Y2756590D02*
D03*
X2574670Y5638590D02*
D03*
X2336670Y2896590D02*
D03*
X2412458Y5689732D02*
D03*
X2945670Y2757590D02*
D03*
X2254978Y5685794D02*
D03*
X2316002Y-1255152D02*
D03*
X2137300Y-1371410D02*
D03*
X646670Y1224590D02*
D03*
X164426Y935794D02*
D03*
X1756944Y-495410D02*
D03*
X1160300Y-369410D02*
D03*
X882300Y5207590D02*
D03*
X940670Y1349590D02*
D03*
X1018670Y1403590D02*
D03*
X1474300Y1449590D02*
D03*
X569348Y1505994D02*
D03*
X1680174Y-1030740D02*
D03*
X1866670Y-1049410D02*
D03*
X2333718Y-814206D02*
D03*
X437670Y723590D02*
D03*
X186670Y1594590D02*
D03*
X958718Y1121818D02*
D03*
X2302222Y-613418D02*
D03*
X2067670Y-1054410D02*
D03*
X2070300Y-1717748D02*
D03*
X3092300Y3641590D02*
D03*
X2821906Y4610992D02*
D03*
X2907670Y3927590D02*
D03*
X2443954Y2122802D02*
D03*
X1764300Y2642590D02*
D03*
X1117182Y5748786D02*
D03*
X313670Y2912590D02*
D03*
X125670Y725590D02*
D03*
X275670Y690590D02*
D03*
X491670Y1788590D02*
D03*
X438670Y1249590D02*
D03*
X1131670Y1219590D02*
D03*
X742670Y1376590D02*
D03*
X1688048Y-963812D02*
D03*
X1932670Y-69410D02*
D03*
X1062064Y1067684D02*
D03*
X2185718Y-1624410D02*
D03*
X2508324Y-1520386D02*
D03*
X1140804Y3420046D02*
D03*
X715608Y3577528D02*
D03*
X2816300Y5604590D02*
D03*
X2992484Y2221478D02*
D03*
X660490Y2325558D02*
D03*
X1049300Y4144590D02*
D03*
X1256300Y-288410D02*
D03*
X2269300Y175590D02*
D03*
X1455764Y2223196D02*
D03*
X2529300Y3027802D02*
D03*
X1651300Y1978590D02*
D03*
X1432142Y2053906D02*
D03*
X1045300Y2554590D02*
D03*
X128992Y1713354D02*
D03*
X2798300Y2308590D02*
D03*
X2245300Y29590D02*
D03*
X3254300Y35590D02*
D03*
X1314300Y2337590D02*
D03*
X692300Y964590D02*
D03*
X2826670Y1034590D02*
D03*
X2226300Y-754410D02*
D03*
X128992Y1764534D02*
D03*
X973300Y1198590D02*
D03*
X1071300Y1290590D02*
D03*
X1030568Y1185794D02*
D03*
X49300Y1461590D02*
D03*
X1726300Y-354410D02*
D03*
X49300Y2167590D02*
D03*
X3055300Y-722410D02*
D03*
X446300Y1208590D02*
D03*
X460300Y774378D02*
D03*
X554800Y2702090D02*
D03*
X2483300Y3854590D02*
D03*
X2195670Y3885590D02*
D03*
X978934Y3017520D02*
D03*
X1418934Y2142520D02*
D03*
X553934Y1632520D02*
D03*
X2836266Y5798280D02*
D03*
X1139300Y3168590D02*
D03*
X800934Y3736520D02*
D03*
X731934Y3731520D02*
D03*
X225922Y2854158D02*
D03*
D193*
X2400000Y450000D02*
D03*
X2120000Y1700000D02*
D03*
X2440000Y1725290D02*
D03*
X862670Y4062590D02*
D03*
X2130670Y3084590D02*
D03*
X2027670Y2908590D02*
D03*
X1661670Y2168590D02*
D03*
X1949670Y2334590D02*
D03*
X613670Y1943590D02*
D03*
%TF.MD5,184c6d24fe3b50bbd17dbff5f0edf66f*%
M02*
