M48
;Layer_Color=9474304
;FILE_FORMAT=2:5
INCH,LZ
;TYPE=PLATED
T1F00S00C0.01181
T2F00S00C0.01693
T3F00S00C0.02000
T4F00S00C0.02756
T5F00S00C0.02800
T6F00S00C0.03000
T7F00S00C0.03150
T8F00S00C0.03543
T9F00S00C0.04331
T10F00S00C0.04700
T11F00S00C0.04724
T12F00S00C0.05000
T13F00S00C0.05512
T14F00S00C0.05906
T15F00S00C0.08200
T16F00S00C0.10000
T17F00S00C0.14700
T18F00S00C0.16600
%
T01
X0207137Y0095973
X0218678Y0105307
X0213837Y0130607
X0231707Y0142233
X0236874Y0155407
X0239074Y0162907
X0251674Y0163007
X0220337Y0165239
X0206874Y0162307
X0186774Y0162807
X0168124Y0164674
X0250939Y0115709
X0289737Y0134807
X0289571Y0147273
X0305637Y0195507
X0296637Y0210107
X0325537Y0271307
X0224637Y0270707
X0227037Y0285307
X0229437Y0231307
X0230329Y0206406
X0222737Y0192307
X0212343Y0188984
X0206837Y0204407
X0201137Y0208007
X0201274Y0240707
X0193374Y0260807
X0172737Y0232307
X0175801Y0218207
X0181843Y0184984
X0168911Y0171367
X0223374Y0177007
X0233478Y0186328
X0266452Y0202223
X0125737Y0238907
X0116137Y0230807
X0098437Y0231772
X0071737Y0194202
X0051837Y0316907
X0018037Y0314907
X0010537Y0324307
X0011431Y0335343
X0012674Y0340307
X0027674Y0336807
X0043874Y0340107
X0046137Y0345186
X0069337Y0364207
X0064774Y0390207
X0062774Y0395707
X0062474Y0411507
X0057041Y0418348
X00555Y0431
X0047799Y0435607
X0049274Y0446607
X0042997Y0426407
X0018774Y0427207
X0013006Y0439083
Y0444202
X0017837Y0468407
X0009574Y0474307
X0041837Y0480507
X0108574Y0479107
X0101974Y0408107
X0094174Y0402707
X0097437Y0387607
X0103163Y0386328
X0104537Y0380107
X0106313Y0374517
X0106482Y0362807
X0095978Y037993
X0107237Y0396807
X0074374Y0405407
X0043974Y0392707
X0044737Y0388607
X0022037Y0394282
X0013074Y0397107
X0005037Y0413907
X0016549Y0361328
X0117037Y0337207
X0122074Y0383107
X0113274Y0389707
X0147537Y0412707
X0145674Y0462307
X0143321Y0473139
X0122174Y0473207
X0165074Y0474807
X0165237Y0465607
X0244502Y0480028
X0250595Y0359984
X0282774Y0371207
X0287637Y0348007
X0301137Y0431407
X0325837Y0435934
X0287537Y0470707
X0299355Y0489896
X0279937Y0498607
X0294674Y0543507
X0309337Y0631907
X0253037Y0570528
X0246077Y0565307
X0233774Y0557407
X0257574Y0543407
X0261837Y0482507
X0195174Y0515807
X0176537Y0532007
X0145683Y0490068
X0142Y0482
X0131537Y0501507
X0120874Y0493707
X0114037Y0557507
X0112637Y0562707
X0114037Y0584607
X0114187Y0609753
X0099817Y0625407
X0097337Y0629307
X0071667Y0625501
X0098Y05695
X0104637Y0523207
X0111074Y0500407
X0109774Y0495807
X0066156Y0500304
X0065774Y0484807
X0047874Y0485207
X0039374Y0505907
X0042074Y0512707
X0051537Y0532208
X0055587Y0537957
X0054965Y0551551
X0053137Y0557107
X0045437Y0562207
X0031474Y0559007
X0002074Y0556907
X0005037Y0484507
X0011537Y04818
X00733Y06409
X00802Y06414
X0105037Y0682207
X0088337Y0788507
X0128506Y0779438
X0140537Y0704067
X0165737Y0716907
X0195037Y0675807
X0219674Y0656307
X0248437Y0653207
X0263974Y0673207
X0248374Y0689807
X0290874Y0660507
X0290537Y0655307
X0282297Y0728847
X0281737Y0828207
X0283733Y0847576
X0333237Y0823107
X0257574Y0831607
X0241352Y0836721
X0225604Y0836327
X0111825Y0842627
X0096937Y0794398
T02
X0019699Y0566839
X0022849
X0025999
X0029149
X0032297
X0035449
X0035449Y0571564
X0032299
X0029149
X0025999
X0022849
X0019699
T03
X0302237Y0827507
X0312237Y0837507
X0322237Y0827507
T04
X0110053Y0700225
Y0710225
T05
X0061474Y0462107
X0166274Y0484607
X0195074Y0501207
X0202874Y0558607
X0213174Y0576207
X0086374Y0674007
T06
X0110674Y0277307
X0269699Y0572351
Y060041
X028151Y0620095
X0305132
X0328754
X0316943Y0576288
X0305132
X0246077Y0556603
X0218518Y0612221
X0185053Y0604347
X0159463
X0147652
X0141246Y0575788
Y0556103
X0164868Y0575788
X0061037Y0749516
Y0764477
X0041352
Y0749516
X0021667
Y0764477
Y0790855
X0041352
X0061037
X0269699Y0643717
X0305132
X0061037Y0805816
X0041352
X0021667
T07
X0110674Y0057307
Y0067307
Y0077307
Y0087307
Y0097307
Y0107307
Y0117307
Y0127307
Y0137307
Y0147307
Y0157307
Y0167307
X0120674
Y0157307
Y0147307
Y0137307
Y0127307
Y0117307
Y0107307
Y0097307
Y0087307
Y0077307
Y0067307
Y0057307
X0300674
X0310674
Y0067307
Y0077307
Y0087307
Y0097307
Y0107307
Y0117307
Y0127307
Y0137307
Y0147307
Y0157307
Y0167307
X0300674
Y0157307
Y0147307
Y0137307
Y0127307
Y0117307
Y0107307
Y0097307
Y0087307
Y0077307
Y0067307
Y0177307
X0310674
Y0187307
Y0197307
Y0207307
Y0217307
Y0227307
Y0237307
Y0247307
Y0257307
Y0267307
Y0277307
X0300674
Y0267307
Y0257307
Y0247307
Y0237307
Y0227307
Y0217307
Y0207307
Y0197307
Y0187307
X0120674
Y0197307
Y0207307
Y0217307
Y0227307
Y0237307
Y0247307
Y0257307
Y0267307
Y0277307
Y0177307
X0110674
Y0187307
Y0197307
Y0207307
Y0217307
Y0227307
Y0237307
Y0247307
Y0257307
Y0267307
T08
X0027573Y0032981
X0037573
X0047573
X0057573
X0067573
X0077573
X0060466Y0086032
X0050466
X0040466
X0030466
X0029719Y014615
Y015615
X0039719
X0049719
X0059719
Y014615
X0049719
X0039719
X0039443Y0201623
X0029443
X0208675Y0418808
X0218675
X0228675
X0238675
X0257888Y038928
X0267888
Y0458178
X0257888
X0277888
X0287888
Y038928
X0277888
X023277Y048869
X022277
X021277
X020277
X0222455Y052117
Y053117
X0232455
X0242455
Y052117
X0232455
X0040605Y0602568
Y0612568
Y0622568
Y0632568
X0010605
Y0622568
Y0612568
Y0602568
X0014443Y0666623
X0024443
X0034443
X0044443
X0054443
X0045289Y0704241
X0035289
X0025289
X0015289
X0079305Y0748887
Y0758887
Y0768887
Y0778887
X0109305
Y0768887
Y0758887
Y0748887
T09
X0184561Y0664123
X0199443
T10
X0092373Y0550669
X0092533Y0625529
T11
X0137533Y0588926
Y0608926
X0217533Y0598926
Y0558926
Y0638926
X0137533
T12
X0160737Y0764107
X0190737
T13
X010023Y0664123
X0120073
X0139915
T14
X0326077Y055928
Y059928
X0246077Y060928
Y057928
Y063928
X0326077
T15
X0175737Y0794107
T16
X0092533Y0534479
Y0641719
T17
X0156107Y0249748
X0250595Y0245811
X0254532Y0340299
X0156107Y0344236
T18
X0140674Y0049807
X0290368Y003495
X0303163Y0298729
X0115674Y0299807
X0027179Y0290461
X0166943Y0394398
Y0519123
X0016943
M30
