G04 Layer_Color=2752767*
%FSLAX26Y26*%
%MOIN*%
%TF.FileFunction,Drawing*%
%TF.Part,Single*%
G01*
G75*
%TA.AperFunction,NonConductor*%
%ADD148C,0.005000*%
%ADD208C,0.006667*%
%ADD209C,0.004000*%
D148*
X599116Y6857000D02*
X599116Y6897000D01*
X639116Y6897000D01*
X639116Y6857000D01*
X599116Y6857000D01*
X699700Y2606410D02*
X679700Y2646410D01*
X719700Y2646410D01*
X699700Y2606410D01*
X699700Y2506410D02*
X679700Y2546410D01*
X719700Y2546410D01*
X699700Y2506410D01*
X699700Y2406410D02*
X679700Y2446410D01*
X719700Y2446410D01*
X699700Y2406410D01*
X699700Y2006410D02*
X679700Y2046410D01*
X719700Y2046410D01*
X699700Y2006410D01*
X699700Y2106410D02*
X679700Y2146410D01*
X719700Y2146410D01*
X699700Y2106410D01*
X699700Y2206410D02*
X679700Y2246410D01*
X719700Y2246410D01*
X699700Y2206410D01*
X1559700Y3526410D02*
X1569700Y3536410D01*
X1579700Y3536410D01*
X1569700Y3546410D01*
X1579700Y3556410D01*
X1569700Y3556410D01*
X1559700Y3566410D01*
X1549700Y3556410D01*
X1539700Y3556410D01*
X1549700Y3546410D01*
X1539700Y3536410D01*
X1549700Y3536410D01*
X1559700Y3526410D01*
X2609700Y2476410D02*
X2619700Y2486410D01*
X2629700Y2486410D01*
X2619700Y2496410D01*
X2629700Y2506410D01*
X2619700Y2506410D01*
X2609700Y2516410D01*
X2599700Y2506410D01*
X2589700Y2506410D01*
X2599700Y2496410D01*
X2589700Y2486410D01*
X2599700Y2486410D01*
X2609700Y2476410D01*
X2609700Y3526410D02*
X2619700Y3536410D01*
X2629700Y3536410D01*
X2619700Y3546410D01*
X2629700Y3556410D01*
X2619700Y3556410D01*
X2609700Y3566410D01*
X2599700Y3556410D01*
X2589700Y3556410D01*
X2599700Y3546410D01*
X2589700Y3536410D01*
X2599700Y3536410D01*
X2609700Y3526410D01*
X1559700Y2476410D02*
X1569700Y2486410D01*
X1579700Y2486410D01*
X1569700Y2496410D01*
X1579700Y2506410D01*
X1569700Y2506410D01*
X1559700Y2516410D01*
X1549700Y2506410D01*
X1539700Y2506410D01*
X1549700Y2496410D01*
X1539700Y2486410D01*
X1549700Y2486410D01*
X1559700Y2476410D01*
X239700Y5176410D02*
X249700Y5196410D01*
X239700Y5216410D01*
X259700Y5206410D01*
X279700Y5216410D01*
X269700Y5196410D01*
X279700Y5176410D01*
X259700Y5186410D01*
X239700Y5176410D01*
X1539700Y5176410D02*
X1549700Y5196410D01*
X1539700Y5216410D01*
X1559700Y5206410D01*
X1579700Y5216410D01*
X1569700Y5196410D01*
X1579700Y5176410D01*
X1559700Y5186410D01*
X1539700Y5176410D01*
X239700Y2926410D02*
X249700Y2946410D01*
X239700Y2966410D01*
X259700Y2956410D01*
X279700Y2966410D01*
X269700Y2946410D01*
X279700Y2926410D01*
X259700Y2936410D01*
X239700Y2926410D01*
X1539700Y3936410D02*
X1549700Y3956410D01*
X1539700Y3976410D01*
X1559700Y3966410D01*
X1579700Y3976410D01*
X1569700Y3956410D01*
X1579700Y3936410D01*
X1559700Y3946410D01*
X1539700Y3936410D01*
X2892316Y338426D02*
X2892316Y328426D01*
X2912316Y328426D01*
X2912316Y338426D01*
X2922316Y338426D01*
X2922316Y358426D01*
X2912316Y358426D01*
X2912316Y368426D01*
X2892316Y368426D01*
X2892316Y358426D01*
X2882316Y358426D01*
X2882316Y338426D01*
X2892316Y338426D01*
X1298424Y338426D02*
X1298424Y328426D01*
X1318424Y328426D01*
X1318424Y338426D01*
X1328424Y338426D01*
X1328424Y358426D01*
X1318424Y358426D01*
X1318424Y368426D01*
X1298424Y368426D01*
X1298424Y358426D01*
X1288424Y358426D01*
X1288424Y338426D01*
X1298424Y338426D01*
X1145370Y2987000D02*
X1145370Y2977000D01*
X1165370Y2977000D01*
X1165370Y2987000D01*
X1175370Y2987000D01*
X1175370Y3007000D01*
X1165370Y3007000D01*
X1165370Y3017000D01*
X1145370Y3017000D01*
X1145370Y3007000D01*
X1135370Y3007000D01*
X1135370Y2987000D01*
X1145370Y2987000D01*
X3020268Y2976220D02*
X3020268Y2966220D01*
X3040268Y2966220D01*
X3040268Y2976220D01*
X3050268Y2976220D01*
X3050268Y2996220D01*
X3040268Y2996220D01*
X3040268Y3006220D01*
X3020268Y3006220D01*
X3020268Y2996220D01*
X3010268Y2996220D01*
X3010268Y2976220D01*
X3020268Y2976220D01*
X1377786Y6620158D02*
X1387786Y6620158D01*
X1397786Y6630158D01*
X1407786Y6620158D01*
X1417786Y6620158D01*
X1417786Y6630158D01*
X1407786Y6640158D01*
X1417786Y6650158D01*
X1417786Y6660158D01*
X1407786Y6660158D01*
X1397786Y6650158D01*
X1387786Y6660158D01*
X1377786Y6660158D01*
X1377786Y6650158D01*
X1387786Y6640158D01*
X1377786Y6630158D01*
X1377786Y6620158D01*
X1973062Y6640158D02*
X1993062Y6660158D01*
X2013062Y6640158D01*
X1993062Y6620158D01*
X1973062Y6640158D01*
X1824244Y6640158D02*
X1844244Y6660158D01*
X1864244Y6640158D01*
X1844244Y6620158D01*
X1824244Y6640158D01*
X980936Y6620158D02*
X990936Y6620158D01*
X1000936Y6630158D01*
X1010936Y6620158D01*
X1020936Y6620158D01*
X1020936Y6630158D01*
X1010936Y6640158D01*
X1020936Y6650158D01*
X1020936Y6660158D01*
X1010936Y6660158D01*
X1000936Y6650158D01*
X990936Y6660158D01*
X980936Y6660158D01*
X980936Y6650158D01*
X990936Y6640158D01*
X980936Y6630158D01*
X980936Y6620158D01*
X1179362Y6620158D02*
X1189362Y6620158D01*
X1199362Y6630158D01*
X1209362Y6620158D01*
X1219362Y6620158D01*
X1219362Y6630158D01*
X1209362Y6640158D01*
X1219362Y6650158D01*
X1219362Y6660158D01*
X1209362Y6660158D01*
X1199362Y6650158D01*
X1189362Y6660158D01*
X1179362Y6660158D01*
X1179362Y6650158D01*
X1189362Y6640158D01*
X1179362Y6630158D01*
X1179362Y6620158D01*
X1391094Y5539960D02*
X1391094Y5579960D01*
X1431094Y5579960D01*
X1431094Y5539960D01*
X1391094Y5539960D01*
X1399094Y5547960D02*
X1399094Y5571960D01*
X1423094Y5571960D01*
X1423094Y5547960D01*
X1399094Y5547960D01*
X1391094Y5736812D02*
X1391094Y5776812D01*
X1431094Y5776812D01*
X1431094Y5736812D01*
X1391094Y5736812D01*
X1399094Y5744812D02*
X1399094Y5768812D01*
X1423094Y5768812D01*
X1423094Y5744812D01*
X1399094Y5744812D01*
X1627314Y5736812D02*
X1627314Y5776812D01*
X1667314Y5776812D01*
X1667314Y5736812D01*
X1627314Y5736812D01*
X1635314Y5744812D02*
X1635314Y5768812D01*
X1659314Y5768812D01*
X1659314Y5744812D01*
X1635314Y5744812D01*
X1573260Y6022402D02*
X1573260Y6062402D01*
X1613260Y6062402D01*
X1613260Y6022402D01*
X1573260Y6022402D01*
X1581260Y6030402D02*
X1581260Y6054402D01*
X1605260Y6054402D01*
X1605260Y6030402D01*
X1581260Y6030402D01*
X1455150Y6022402D02*
X1455150Y6062402D01*
X1495150Y6062402D01*
X1495150Y6022402D01*
X1455150Y6022402D01*
X1463150Y6030402D02*
X1463150Y6054402D01*
X1487150Y6054402D01*
X1487150Y6030402D01*
X1463150Y6030402D01*
X1829164Y6022402D02*
X1829164Y6062402D01*
X1869164Y6062402D01*
X1869164Y6022402D01*
X1829164Y6022402D01*
X1837164Y6030402D02*
X1837164Y6054402D01*
X1861164Y6054402D01*
X1861164Y6030402D01*
X1837164Y6030402D01*
X2163810Y6101142D02*
X2163810Y6141142D01*
X2203810Y6141142D01*
X2203810Y6101142D01*
X2163810Y6101142D01*
X2171810Y6109142D02*
X2171810Y6133142D01*
X2195810Y6133142D01*
X2195810Y6109142D01*
X2171810Y6109142D01*
X2675622Y6416102D02*
X2675622Y6456102D01*
X2715622Y6456102D01*
X2715622Y6416102D01*
X2675622Y6416102D01*
X2683622Y6424102D02*
X2683622Y6448102D01*
X2707622Y6448102D01*
X2707622Y6424102D01*
X2683622Y6424102D01*
X3029952Y6416102D02*
X3029952Y6456102D01*
X3069952Y6456102D01*
X3069952Y6416102D01*
X3029952Y6416102D01*
X3037952Y6424102D02*
X3037952Y6448102D01*
X3061952Y6448102D01*
X3061952Y6424102D01*
X3037952Y6424102D01*
X3266172Y6179882D02*
X3266172Y6219882D01*
X3306172Y6219882D01*
X3306172Y6179882D01*
X3266172Y6179882D01*
X3274172Y6187882D02*
X3274172Y6211882D01*
X3298172Y6211882D01*
X3298172Y6187882D01*
X3274172Y6187882D01*
X3029952Y6179882D02*
X3029952Y6219882D01*
X3069952Y6219882D01*
X3069952Y6179882D01*
X3029952Y6179882D01*
X3037952Y6187882D02*
X3037952Y6211882D01*
X3061952Y6211882D01*
X3061952Y6187882D01*
X3037952Y6187882D01*
X2793732Y6179882D02*
X2793732Y6219882D01*
X2833732Y6219882D01*
X2833732Y6179882D01*
X2793732Y6179882D01*
X2801732Y6187882D02*
X2801732Y6211882D01*
X2825732Y6211882D01*
X2825732Y6187882D01*
X2801732Y6187882D01*
X2675622Y5983032D02*
X2675622Y6023032D01*
X2715622Y6023032D01*
X2715622Y5983032D01*
X2675622Y5983032D01*
X2683622Y5991032D02*
X2683622Y6015032D01*
X2707622Y6015032D01*
X2707622Y5991032D01*
X2683622Y5991032D01*
X2439402Y5544960D02*
X2439402Y5584960D01*
X2479402Y5584960D01*
X2479402Y5544960D01*
X2439402Y5544960D01*
X2447402Y5552960D02*
X2447402Y5576960D01*
X2471402Y5576960D01*
X2471402Y5552960D01*
X2447402Y5552960D01*
X2675622Y5702442D02*
X2675622Y5742442D01*
X2715622Y5742442D01*
X2715622Y5702442D01*
X2675622Y5702442D01*
X2683622Y5710442D02*
X2683622Y5734442D01*
X2707622Y5734442D01*
X2707622Y5710442D01*
X2683622Y5710442D01*
X3029952Y5741812D02*
X3029952Y5781812D01*
X3069952Y5781812D01*
X3069952Y5741812D01*
X3029952Y5741812D01*
X3037952Y5749812D02*
X3037952Y5773812D01*
X3061952Y5773812D01*
X3061952Y5749812D01*
X3037952Y5749812D01*
X3148064Y5741812D02*
X3148064Y5781812D01*
X3188064Y5781812D01*
X3188064Y5741812D01*
X3148064Y5741812D01*
X3156064Y5749812D02*
X3156064Y5773812D01*
X3180064Y5773812D01*
X3180064Y5749812D01*
X3156064Y5749812D01*
X3259402Y6371732D02*
X3239402Y6411732D01*
X3279402Y6411732D01*
X3259402Y6371732D01*
X3259402Y6379732D02*
X3247402Y6403732D01*
X3271402Y6403732D01*
X3259402Y6379732D01*
X3259402Y5971732D02*
X3239402Y6011732D01*
X3279402Y6011732D01*
X3259402Y5971732D01*
X3259402Y5979732D02*
X3247402Y6003732D01*
X3271402Y6003732D01*
X3259402Y5979732D01*
X3259402Y5571732D02*
X3239402Y5611732D01*
X3279402Y5611732D01*
X3259402Y5571732D01*
X3259402Y5579732D02*
X3247402Y5603732D01*
X3271402Y5603732D01*
X3259402Y5579732D01*
X2459402Y6371732D02*
X2439402Y6411732D01*
X2479402Y6411732D01*
X2459402Y6371732D01*
X2459402Y6379732D02*
X2447402Y6403732D01*
X2471402Y6403732D01*
X2459402Y6379732D01*
X2459402Y5771732D02*
X2439402Y5811732D01*
X2479402Y5811732D01*
X2459402Y5771732D01*
X2459402Y5779732D02*
X2447402Y5803732D01*
X2471402Y5803732D01*
X2459402Y5779732D01*
X2459402Y6071732D02*
X2439402Y6111732D01*
X2479402Y6111732D01*
X2459402Y6071732D01*
X2459402Y6079732D02*
X2447402Y6103732D01*
X2471402Y6103732D01*
X2459402Y6079732D01*
X589008Y7474094D02*
X589008Y7514094D01*
X629008Y7514094D01*
X629008Y7474094D01*
X589008Y7474094D01*
X597008Y7482094D02*
X597008Y7506094D01*
X621008Y7506094D01*
X621008Y7482094D01*
X597008Y7482094D01*
X589008Y7623700D02*
X589008Y7663700D01*
X629008Y7663700D01*
X629008Y7623700D01*
X589008Y7623700D01*
X597008Y7631700D02*
X597008Y7655700D01*
X621008Y7655700D01*
X621008Y7631700D01*
X597008Y7631700D01*
X1606000Y7620000D02*
X1616000Y7630000D01*
X1626000Y7630000D01*
X1616000Y7640000D01*
X1626000Y7650000D01*
X1616000Y7650000D01*
X1606000Y7660000D01*
X1596000Y7650000D01*
X1586000Y7650000D01*
X1596000Y7640000D01*
X1586000Y7630000D01*
X1596000Y7630000D01*
X1606000Y7620000D01*
X1606000Y7628000D02*
X1612000Y7634000D01*
X1618000Y7634000D01*
X1612000Y7640000D01*
X1618000Y7646000D01*
X1612000Y7646000D01*
X1606000Y7652000D01*
X1600000Y7646000D01*
X1594000Y7646000D01*
X1600000Y7640000D01*
X1594000Y7634000D01*
X1600000Y7634000D01*
X1606000Y7628000D01*
X1906000Y7620000D02*
X1916000Y7630000D01*
X1926000Y7630000D01*
X1916000Y7640000D01*
X1926000Y7650000D01*
X1916000Y7650000D01*
X1906000Y7660000D01*
X1896000Y7650000D01*
X1886000Y7650000D01*
X1896000Y7640000D01*
X1886000Y7630000D01*
X1896000Y7630000D01*
X1906000Y7620000D01*
X1906000Y7628000D02*
X1912000Y7634000D01*
X1918000Y7634000D01*
X1912000Y7640000D01*
X1918000Y7646000D01*
X1912000Y7646000D01*
X1906000Y7652000D01*
X1900000Y7646000D01*
X1894000Y7646000D01*
X1900000Y7640000D01*
X1894000Y7634000D01*
X1900000Y7634000D01*
X1906000Y7628000D01*
X1736000Y7920000D02*
X1746000Y7940000D01*
X1736000Y7960000D01*
X1756000Y7950000D01*
X1776000Y7960000D01*
X1766000Y7940000D01*
X1776000Y7920000D01*
X1756000Y7930000D01*
X1736000Y7920000D01*
X1744000Y7928000D02*
X1750000Y7940000D01*
X1744000Y7952000D01*
X1756000Y7946000D01*
X1768000Y7952000D01*
X1762000Y7940000D01*
X1768000Y7928000D01*
X1756000Y7934000D01*
X1744000Y7928000D01*
X2964700Y8266410D02*
X2964700Y8256410D01*
X2984700Y8256410D01*
X2984700Y8266410D01*
X2994700Y8266410D01*
X2994700Y8286410D01*
X2984700Y8286410D01*
X2984700Y8296410D01*
X2964700Y8296410D01*
X2964700Y8286410D01*
X2954700Y8286410D01*
X2954700Y8266410D01*
X2964700Y8266410D01*
X2968700Y8270410D02*
X2968700Y8264410D01*
X2980700Y8264410D01*
X2980700Y8270410D01*
X2986700Y8270410D01*
X2986700Y8282410D01*
X2980700Y8282410D01*
X2980700Y8288410D01*
X2968700Y8288410D01*
X2968700Y8282410D01*
X2962700Y8282410D01*
X2962700Y8270410D01*
X2968700Y8270410D01*
X3164700Y8266410D02*
X3164700Y8256410D01*
X3184700Y8256410D01*
X3184700Y8266410D01*
X3194700Y8266410D01*
X3194700Y8286410D01*
X3184700Y8286410D01*
X3184700Y8296410D01*
X3164700Y8296410D01*
X3164700Y8286410D01*
X3154700Y8286410D01*
X3154700Y8266410D01*
X3164700Y8266410D01*
X3168700Y8270410D02*
X3168700Y8264410D01*
X3180700Y8264410D01*
X3180700Y8270410D01*
X3186700Y8270410D01*
X3186700Y8282410D01*
X3180700Y8282410D01*
X3180700Y8288410D01*
X3168700Y8288410D01*
X3168700Y8282410D01*
X3162700Y8282410D01*
X3162700Y8270410D01*
X3168700Y8270410D01*
X3064700Y8366410D02*
X3064700Y8356410D01*
X3084700Y8356410D01*
X3084700Y8366410D01*
X3094700Y8366410D01*
X3094700Y8386410D01*
X3084700Y8386410D01*
X3084700Y8396410D01*
X3064700Y8396410D01*
X3064700Y8386410D01*
X3054700Y8386410D01*
X3054700Y8366410D01*
X3064700Y8366410D01*
X3068700Y8370410D02*
X3068700Y8364410D01*
X3080700Y8364410D01*
X3080700Y8370410D01*
X3086700Y8370410D01*
X3086700Y8382410D01*
X3080700Y8382410D01*
X3080700Y8388410D01*
X3068700Y8388410D01*
X3068700Y8382410D01*
X3062700Y8382410D01*
X3062700Y8370410D01*
X3068700Y8370410D01*
X2153968Y5568190D02*
X2163968Y5568190D01*
X2173968Y5578190D01*
X2183968Y5568190D01*
X2193968Y5568190D01*
X2193968Y5578190D01*
X2183968Y5588190D01*
X2193968Y5598190D01*
X2193968Y5608190D01*
X2183968Y5608190D01*
X2173968Y5598190D01*
X2163968Y5608190D01*
X2153968Y5608190D01*
X2153968Y5598190D01*
X2163968Y5588190D01*
X2153968Y5578190D01*
X2153968Y5568190D01*
X2161968Y5576190D02*
X2167968Y5576190D01*
X2173968Y5582190D01*
X2179968Y5576190D01*
X2185968Y5576190D01*
X2185968Y5582190D01*
X2179968Y5588190D01*
X2185968Y5594190D01*
X2185968Y5600190D01*
X2179968Y5600190D01*
X2173968Y5594190D01*
X2167968Y5600190D01*
X2161968Y5600190D01*
X2161968Y5594190D01*
X2167968Y5588190D01*
X2161968Y5582190D01*
X2161968Y5576190D01*
X2153968Y6368190D02*
X2163968Y6368190D01*
X2173968Y6378190D01*
X2183968Y6368190D01*
X2193968Y6368190D01*
X2193968Y6378190D01*
X2183968Y6388190D01*
X2193968Y6398190D01*
X2193968Y6408190D01*
X2183968Y6408190D01*
X2173968Y6398190D01*
X2163968Y6408190D01*
X2153968Y6408190D01*
X2153968Y6398190D01*
X2163968Y6388190D01*
X2153968Y6378190D01*
X2153968Y6368190D01*
X2161968Y6376190D02*
X2167968Y6376190D01*
X2173968Y6382190D01*
X2179968Y6376190D01*
X2185968Y6376190D01*
X2185968Y6382190D01*
X2179968Y6388190D01*
X2185968Y6394190D01*
X2185968Y6400190D01*
X2179968Y6400190D01*
X2173968Y6394190D01*
X2167968Y6400190D01*
X2161968Y6400190D01*
X2161968Y6394190D01*
X2167968Y6388190D01*
X2161968Y6382190D01*
X2161968Y6376190D01*
X1353968Y5868190D02*
X1363968Y5868190D01*
X1373968Y5878190D01*
X1383968Y5868190D01*
X1393968Y5868190D01*
X1393968Y5878190D01*
X1383968Y5888190D01*
X1393968Y5898190D01*
X1393968Y5908190D01*
X1383968Y5908190D01*
X1373968Y5898190D01*
X1363968Y5908190D01*
X1353968Y5908190D01*
X1353968Y5898190D01*
X1363968Y5888190D01*
X1353968Y5878190D01*
X1353968Y5868190D01*
X1361968Y5876190D02*
X1367968Y5876190D01*
X1373968Y5882190D01*
X1379968Y5876190D01*
X1385968Y5876190D01*
X1385968Y5882190D01*
X1379968Y5888190D01*
X1385968Y5894190D01*
X1385968Y5900190D01*
X1379968Y5900190D01*
X1373968Y5894190D01*
X1367968Y5900190D01*
X1361968Y5900190D01*
X1361968Y5894190D01*
X1367968Y5888190D01*
X1361968Y5882190D01*
X1361968Y5876190D01*
X1353968Y6068190D02*
X1363968Y6068190D01*
X1373968Y6078190D01*
X1383968Y6068190D01*
X1393968Y6068190D01*
X1393968Y6078190D01*
X1383968Y6088190D01*
X1393968Y6098190D01*
X1393968Y6108190D01*
X1383968Y6108190D01*
X1373968Y6098190D01*
X1363968Y6108190D01*
X1353968Y6108190D01*
X1353968Y6098190D01*
X1363968Y6088190D01*
X1353968Y6078190D01*
X1353968Y6068190D01*
X1361968Y6076190D02*
X1367968Y6076190D01*
X1373968Y6082190D01*
X1379968Y6076190D01*
X1385968Y6076190D01*
X1385968Y6082190D01*
X1379968Y6088190D01*
X1385968Y6094190D01*
X1385968Y6100190D01*
X1379968Y6100190D01*
X1373968Y6094190D01*
X1367968Y6100190D01*
X1361968Y6100190D01*
X1361968Y6094190D01*
X1367968Y6088190D01*
X1361968Y6082190D01*
X1361968Y6076190D01*
X1353968Y6368190D02*
X1363968Y6368190D01*
X1373968Y6378190D01*
X1383968Y6368190D01*
X1393968Y6368190D01*
X1393968Y6378190D01*
X1383968Y6388190D01*
X1393968Y6398190D01*
X1393968Y6408190D01*
X1383968Y6408190D01*
X1373968Y6398190D01*
X1363968Y6408190D01*
X1353968Y6408190D01*
X1353968Y6398190D01*
X1363968Y6388190D01*
X1353968Y6378190D01*
X1353968Y6368190D01*
X1361968Y6376190D02*
X1367968Y6376190D01*
X1373968Y6382190D01*
X1379968Y6376190D01*
X1385968Y6376190D01*
X1385968Y6382190D01*
X1379968Y6388190D01*
X1385968Y6394190D01*
X1385968Y6400190D01*
X1379968Y6400190D01*
X1373968Y6394190D01*
X1367968Y6400190D01*
X1361968Y6400190D01*
X1361968Y6394190D01*
X1367968Y6388190D01*
X1361968Y6382190D01*
X1361968Y6376190D01*
X2153968Y5968190D02*
X2163968Y5968190D01*
X2173968Y5978190D01*
X2183968Y5968190D01*
X2193968Y5968190D01*
X2193968Y5978190D01*
X2183968Y5988190D01*
X2193968Y5998190D01*
X2193968Y6008190D01*
X2183968Y6008190D01*
X2173968Y5998190D01*
X2163968Y6008190D01*
X2153968Y6008190D01*
X2153968Y5998190D01*
X2163968Y5988190D01*
X2153968Y5978190D01*
X2153968Y5968190D01*
X2161968Y5976190D02*
X2167968Y5976190D01*
X2173968Y5982190D01*
X2179968Y5976190D01*
X2185968Y5976190D01*
X2185968Y5982190D01*
X2179968Y5988190D01*
X2185968Y5994190D01*
X2185968Y6000190D01*
X2179968Y6000190D01*
X2173968Y5994190D01*
X2167968Y6000190D01*
X2161968Y6000190D01*
X2161968Y5994190D01*
X2167968Y5988190D01*
X2161968Y5982190D01*
X2161968Y5976190D01*
X922368Y5505622D02*
X922368Y5538945D01*
X939029Y5555606D01*
X955691Y5538945D01*
X955691Y5505622D01*
X955691Y5530614D01*
X922368Y5530614D01*
X923968Y6254222D02*
X923968Y6287545D01*
X940629Y6304206D01*
X957291Y6287545D01*
X957291Y6254222D01*
X957291Y6279214D01*
X923968Y6279214D01*
X923968Y6466106D02*
X923968Y6416122D01*
X948960Y6416122D01*
X957291Y6424453D01*
X957291Y6432783D01*
X948960Y6441114D01*
X923968Y6441114D01*
X948960Y6441114D01*
X957291Y6449445D01*
X957291Y6457775D01*
X948960Y6466106D01*
X923968Y6466106D01*
X923968Y5393706D02*
X923968Y5343722D01*
X948960Y5343722D01*
X957291Y5352053D01*
X957291Y5360383D01*
X948960Y5368714D01*
X923968Y5368714D01*
X948960Y5368714D01*
X957291Y5377045D01*
X957291Y5385375D01*
X948960Y5393706D01*
X923968Y5393706D01*
X1085370Y2752000D02*
X1085370Y2792000D01*
X1125370Y2792000D01*
X1125370Y2752000D01*
X1085370Y2752000D01*
X1093370Y2760000D02*
X1093370Y2784000D01*
X1117370Y2784000D01*
X1117370Y2760000D01*
X1093370Y2760000D01*
X3038693Y613653D02*
X3030362Y621984D01*
X3013701Y621984D01*
X3005370Y613653D01*
X3005370Y580331D01*
X3013701Y572000D01*
X3030362Y572000D01*
X3038693Y580331D01*
X3038693Y713653D02*
X3030362Y721984D01*
X3013701Y721984D01*
X3005370Y713653D01*
X3005370Y680331D01*
X3013701Y672000D01*
X3030362Y672000D01*
X3038693Y680331D01*
X3038693Y813653D02*
X3030362Y821984D01*
X3013701Y821984D01*
X3005370Y813653D01*
X3005370Y780331D01*
X3013701Y772000D01*
X3030362Y772000D01*
X3038693Y780331D01*
X3038693Y913653D02*
X3030362Y921984D01*
X3013701Y921984D01*
X3005370Y913653D01*
X3005370Y880331D01*
X3013701Y872000D01*
X3030362Y872000D01*
X3038693Y880331D01*
X3038693Y1013653D02*
X3030362Y1021984D01*
X3013701Y1021984D01*
X3005370Y1013653D01*
X3005370Y980331D01*
X3013701Y972000D01*
X3030362Y972000D01*
X3038693Y980331D01*
X3038693Y1113653D02*
X3030362Y1121984D01*
X3013701Y1121984D01*
X3005370Y1113653D01*
X3005370Y1080331D01*
X3013701Y1072000D01*
X3030362Y1072000D01*
X3038693Y1080331D01*
X3038693Y1213653D02*
X3030362Y1221984D01*
X3013701Y1221984D01*
X3005370Y1213653D01*
X3005370Y1180331D01*
X3013701Y1172000D01*
X3030362Y1172000D01*
X3038693Y1180331D01*
X3038693Y1313653D02*
X3030362Y1321984D01*
X3013701Y1321984D01*
X3005370Y1313653D01*
X3005370Y1280331D01*
X3013701Y1272000D01*
X3030362Y1272000D01*
X3038693Y1280331D01*
X3038693Y1413653D02*
X3030362Y1421984D01*
X3013701Y1421984D01*
X3005370Y1413653D01*
X3005370Y1380331D01*
X3013701Y1372000D01*
X3030362Y1372000D01*
X3038693Y1380331D01*
X3038693Y1513653D02*
X3030362Y1521984D01*
X3013701Y1521984D01*
X3005370Y1513653D01*
X3005370Y1480331D01*
X3013701Y1472000D01*
X3030362Y1472000D01*
X3038693Y1480331D01*
X3038693Y1613653D02*
X3030362Y1621984D01*
X3013701Y1621984D01*
X3005370Y1613653D01*
X3005370Y1580331D01*
X3013701Y1572000D01*
X3030362Y1572000D01*
X3038693Y1580331D01*
X3038693Y1713653D02*
X3030362Y1721984D01*
X3013701Y1721984D01*
X3005370Y1713653D01*
X3005370Y1680331D01*
X3013701Y1672000D01*
X3030362Y1672000D01*
X3038693Y1680331D01*
X3038693Y1813653D02*
X3030362Y1821984D01*
X3013701Y1821984D01*
X3005370Y1813653D01*
X3005370Y1780331D01*
X3013701Y1772000D01*
X3030362Y1772000D01*
X3038693Y1780331D01*
X3038693Y1913653D02*
X3030362Y1921984D01*
X3013701Y1921984D01*
X3005370Y1913653D01*
X3005370Y1880331D01*
X3013701Y1872000D01*
X3030362Y1872000D01*
X3038693Y1880331D01*
X3038693Y2013653D02*
X3030362Y2021984D01*
X3013701Y2021984D01*
X3005370Y2013653D01*
X3005370Y1980331D01*
X3013701Y1972000D01*
X3030362Y1972000D01*
X3038693Y1980331D01*
X3038693Y2113653D02*
X3030362Y2121984D01*
X3013701Y2121984D01*
X3005370Y2113653D01*
X3005370Y2080331D01*
X3013701Y2072000D01*
X3030362Y2072000D01*
X3038693Y2080331D01*
X3038693Y2213653D02*
X3030362Y2221984D01*
X3013701Y2221984D01*
X3005370Y2213653D01*
X3005370Y2180331D01*
X3013701Y2172000D01*
X3030362Y2172000D01*
X3038693Y2180331D01*
X3038693Y2313653D02*
X3030362Y2321984D01*
X3013701Y2321984D01*
X3005370Y2313653D01*
X3005370Y2280331D01*
X3013701Y2272000D01*
X3030362Y2272000D01*
X3038693Y2280331D01*
X3038693Y2413653D02*
X3030362Y2421984D01*
X3013701Y2421984D01*
X3005370Y2413653D01*
X3005370Y2380331D01*
X3013701Y2372000D01*
X3030362Y2372000D01*
X3038693Y2380331D01*
X3038693Y2513653D02*
X3030362Y2521984D01*
X3013701Y2521984D01*
X3005370Y2513653D01*
X3005370Y2480331D01*
X3013701Y2472000D01*
X3030362Y2472000D01*
X3038693Y2480331D01*
X3038693Y2613653D02*
X3030362Y2621984D01*
X3013701Y2621984D01*
X3005370Y2613653D01*
X3005370Y2580331D01*
X3013701Y2572000D01*
X3030362Y2572000D01*
X3038693Y2580331D01*
X3038693Y2713653D02*
X3030362Y2721984D01*
X3013701Y2721984D01*
X3005370Y2713653D01*
X3005370Y2680331D01*
X3013701Y2672000D01*
X3030362Y2672000D01*
X3038693Y2680331D01*
X3138693Y613653D02*
X3130362Y621984D01*
X3113701Y621984D01*
X3105370Y613653D01*
X3105370Y580331D01*
X3113701Y572000D01*
X3130362Y572000D01*
X3138693Y580331D01*
X3138693Y713653D02*
X3130362Y721984D01*
X3113701Y721984D01*
X3105370Y713653D01*
X3105370Y680331D01*
X3113701Y672000D01*
X3130362Y672000D01*
X3138693Y680331D01*
X3138693Y813653D02*
X3130362Y821984D01*
X3113701Y821984D01*
X3105370Y813653D01*
X3105370Y780331D01*
X3113701Y772000D01*
X3130362Y772000D01*
X3138693Y780331D01*
X3138693Y913653D02*
X3130362Y921984D01*
X3113701Y921984D01*
X3105370Y913653D01*
X3105370Y880331D01*
X3113701Y872000D01*
X3130362Y872000D01*
X3138693Y880331D01*
X3138693Y1013653D02*
X3130362Y1021984D01*
X3113701Y1021984D01*
X3105370Y1013653D01*
X3105370Y980331D01*
X3113701Y972000D01*
X3130362Y972000D01*
X3138693Y980331D01*
X3138693Y1113653D02*
X3130362Y1121984D01*
X3113701Y1121984D01*
X3105370Y1113653D01*
X3105370Y1080331D01*
X3113701Y1072000D01*
X3130362Y1072000D01*
X3138693Y1080331D01*
X3138693Y1213653D02*
X3130362Y1221984D01*
X3113701Y1221984D01*
X3105370Y1213653D01*
X3105370Y1180331D01*
X3113701Y1172000D01*
X3130362Y1172000D01*
X3138693Y1180331D01*
X3138693Y1313653D02*
X3130362Y1321984D01*
X3113701Y1321984D01*
X3105370Y1313653D01*
X3105370Y1280331D01*
X3113701Y1272000D01*
X3130362Y1272000D01*
X3138693Y1280331D01*
X3138693Y1413653D02*
X3130362Y1421984D01*
X3113701Y1421984D01*
X3105370Y1413653D01*
X3105370Y1380331D01*
X3113701Y1372000D01*
X3130362Y1372000D01*
X3138693Y1380331D01*
X3138693Y1513653D02*
X3130362Y1521984D01*
X3113701Y1521984D01*
X3105370Y1513653D01*
X3105370Y1480331D01*
X3113701Y1472000D01*
X3130362Y1472000D01*
X3138693Y1480331D01*
X3138693Y1613653D02*
X3130362Y1621984D01*
X3113701Y1621984D01*
X3105370Y1613653D01*
X3105370Y1580331D01*
X3113701Y1572000D01*
X3130362Y1572000D01*
X3138693Y1580331D01*
X3138693Y1713653D02*
X3130362Y1721984D01*
X3113701Y1721984D01*
X3105370Y1713653D01*
X3105370Y1680331D01*
X3113701Y1672000D01*
X3130362Y1672000D01*
X3138693Y1680331D01*
X3138693Y1813653D02*
X3130362Y1821984D01*
X3113701Y1821984D01*
X3105370Y1813653D01*
X3105370Y1780331D01*
X3113701Y1772000D01*
X3130362Y1772000D01*
X3138693Y1780331D01*
X3138693Y1913653D02*
X3130362Y1921984D01*
X3113701Y1921984D01*
X3105370Y1913653D01*
X3105370Y1880331D01*
X3113701Y1872000D01*
X3130362Y1872000D01*
X3138693Y1880331D01*
X3138693Y2013653D02*
X3130362Y2021984D01*
X3113701Y2021984D01*
X3105370Y2013653D01*
X3105370Y1980331D01*
X3113701Y1972000D01*
X3130362Y1972000D01*
X3138693Y1980331D01*
X3138693Y2113653D02*
X3130362Y2121984D01*
X3113701Y2121984D01*
X3105370Y2113653D01*
X3105370Y2080331D01*
X3113701Y2072000D01*
X3130362Y2072000D01*
X3138693Y2080331D01*
X3138693Y2213653D02*
X3130362Y2221984D01*
X3113701Y2221984D01*
X3105370Y2213653D01*
X3105370Y2180331D01*
X3113701Y2172000D01*
X3130362Y2172000D01*
X3138693Y2180331D01*
X3138693Y2313653D02*
X3130362Y2321984D01*
X3113701Y2321984D01*
X3105370Y2313653D01*
X3105370Y2280331D01*
X3113701Y2272000D01*
X3130362Y2272000D01*
X3138693Y2280331D01*
X3138693Y2413653D02*
X3130362Y2421984D01*
X3113701Y2421984D01*
X3105370Y2413653D01*
X3105370Y2380331D01*
X3113701Y2372000D01*
X3130362Y2372000D01*
X3138693Y2380331D01*
X3138693Y2513653D02*
X3130362Y2521984D01*
X3113701Y2521984D01*
X3105370Y2513653D01*
X3105370Y2480331D01*
X3113701Y2472000D01*
X3130362Y2472000D01*
X3138693Y2480331D01*
X3138693Y2613653D02*
X3130362Y2621984D01*
X3113701Y2621984D01*
X3105370Y2613653D01*
X3105370Y2580331D01*
X3113701Y2572000D01*
X3130362Y2572000D01*
X3138693Y2580331D01*
X3138693Y2713653D02*
X3130362Y2721984D01*
X3113701Y2721984D01*
X3105370Y2713653D01*
X3105370Y2680331D01*
X3113701Y2672000D01*
X3130362Y2672000D01*
X3138693Y2680331D01*
X3138693Y2813653D02*
X3130362Y2821984D01*
X3113701Y2821984D01*
X3105370Y2813653D01*
X3105370Y2780331D01*
X3113701Y2772000D01*
X3130362Y2772000D01*
X3138693Y2780331D01*
X3038693Y2813653D02*
X3030362Y2821984D01*
X3013701Y2821984D01*
X3005370Y2813653D01*
X3005370Y2780331D01*
X3013701Y2772000D01*
X3030362Y2772000D01*
X3038693Y2780331D01*
X1138693Y613653D02*
X1130362Y621984D01*
X1113701Y621984D01*
X1105370Y613653D01*
X1105370Y580331D01*
X1113701Y572000D01*
X1130362Y572000D01*
X1138693Y580331D01*
X1138693Y713653D02*
X1130362Y721984D01*
X1113701Y721984D01*
X1105370Y713653D01*
X1105370Y680331D01*
X1113701Y672000D01*
X1130362Y672000D01*
X1138693Y680331D01*
X1138693Y813653D02*
X1130362Y821984D01*
X1113701Y821984D01*
X1105370Y813653D01*
X1105370Y780331D01*
X1113701Y772000D01*
X1130362Y772000D01*
X1138693Y780331D01*
X1138693Y913653D02*
X1130362Y921984D01*
X1113701Y921984D01*
X1105370Y913653D01*
X1105370Y880331D01*
X1113701Y872000D01*
X1130362Y872000D01*
X1138693Y880331D01*
X1138693Y1013653D02*
X1130362Y1021984D01*
X1113701Y1021984D01*
X1105370Y1013653D01*
X1105370Y980331D01*
X1113701Y972000D01*
X1130362Y972000D01*
X1138693Y980331D01*
X1138693Y1113653D02*
X1130362Y1121984D01*
X1113701Y1121984D01*
X1105370Y1113653D01*
X1105370Y1080331D01*
X1113701Y1072000D01*
X1130362Y1072000D01*
X1138693Y1080331D01*
X1138693Y1213653D02*
X1130362Y1221984D01*
X1113701Y1221984D01*
X1105370Y1213653D01*
X1105370Y1180331D01*
X1113701Y1172000D01*
X1130362Y1172000D01*
X1138693Y1180331D01*
X1138693Y1313653D02*
X1130362Y1321984D01*
X1113701Y1321984D01*
X1105370Y1313653D01*
X1105370Y1280331D01*
X1113701Y1272000D01*
X1130362Y1272000D01*
X1138693Y1280331D01*
X1138693Y1413653D02*
X1130362Y1421984D01*
X1113701Y1421984D01*
X1105370Y1413653D01*
X1105370Y1380331D01*
X1113701Y1372000D01*
X1130362Y1372000D01*
X1138693Y1380331D01*
X1138693Y1513653D02*
X1130362Y1521984D01*
X1113701Y1521984D01*
X1105370Y1513653D01*
X1105370Y1480331D01*
X1113701Y1472000D01*
X1130362Y1472000D01*
X1138693Y1480331D01*
X1138693Y1613653D02*
X1130362Y1621984D01*
X1113701Y1621984D01*
X1105370Y1613653D01*
X1105370Y1580331D01*
X1113701Y1572000D01*
X1130362Y1572000D01*
X1138693Y1580331D01*
X1138693Y1713653D02*
X1130362Y1721984D01*
X1113701Y1721984D01*
X1105370Y1713653D01*
X1105370Y1680331D01*
X1113701Y1672000D01*
X1130362Y1672000D01*
X1138693Y1680331D01*
X1138693Y1813653D02*
X1130362Y1821984D01*
X1113701Y1821984D01*
X1105370Y1813653D01*
X1105370Y1780331D01*
X1113701Y1772000D01*
X1130362Y1772000D01*
X1138693Y1780331D01*
X1138693Y1913653D02*
X1130362Y1921984D01*
X1113701Y1921984D01*
X1105370Y1913653D01*
X1105370Y1880331D01*
X1113701Y1872000D01*
X1130362Y1872000D01*
X1138693Y1880331D01*
X1138693Y2013653D02*
X1130362Y2021984D01*
X1113701Y2021984D01*
X1105370Y2013653D01*
X1105370Y1980331D01*
X1113701Y1972000D01*
X1130362Y1972000D01*
X1138693Y1980331D01*
X1138693Y2113653D02*
X1130362Y2121984D01*
X1113701Y2121984D01*
X1105370Y2113653D01*
X1105370Y2080331D01*
X1113701Y2072000D01*
X1130362Y2072000D01*
X1138693Y2080331D01*
X1138693Y2213653D02*
X1130362Y2221984D01*
X1113701Y2221984D01*
X1105370Y2213653D01*
X1105370Y2180331D01*
X1113701Y2172000D01*
X1130362Y2172000D01*
X1138693Y2180331D01*
X1138693Y2313653D02*
X1130362Y2321984D01*
X1113701Y2321984D01*
X1105370Y2313653D01*
X1105370Y2280331D01*
X1113701Y2272000D01*
X1130362Y2272000D01*
X1138693Y2280331D01*
X1138693Y2413653D02*
X1130362Y2421984D01*
X1113701Y2421984D01*
X1105370Y2413653D01*
X1105370Y2380331D01*
X1113701Y2372000D01*
X1130362Y2372000D01*
X1138693Y2380331D01*
X1138693Y2513653D02*
X1130362Y2521984D01*
X1113701Y2521984D01*
X1105370Y2513653D01*
X1105370Y2480331D01*
X1113701Y2472000D01*
X1130362Y2472000D01*
X1138693Y2480331D01*
X1138693Y2613653D02*
X1130362Y2621984D01*
X1113701Y2621984D01*
X1105370Y2613653D01*
X1105370Y2580331D01*
X1113701Y2572000D01*
X1130362Y2572000D01*
X1138693Y2580331D01*
X1138693Y2713653D02*
X1130362Y2721984D01*
X1113701Y2721984D01*
X1105370Y2713653D01*
X1105370Y2680331D01*
X1113701Y2672000D01*
X1130362Y2672000D01*
X1138693Y2680331D01*
X1238693Y613653D02*
X1230362Y621984D01*
X1213701Y621984D01*
X1205370Y613653D01*
X1205370Y580331D01*
X1213701Y572000D01*
X1230362Y572000D01*
X1238693Y580331D01*
X1238693Y713653D02*
X1230362Y721984D01*
X1213701Y721984D01*
X1205370Y713653D01*
X1205370Y680331D01*
X1213701Y672000D01*
X1230362Y672000D01*
X1238693Y680331D01*
X1238693Y813653D02*
X1230362Y821984D01*
X1213701Y821984D01*
X1205370Y813653D01*
X1205370Y780331D01*
X1213701Y772000D01*
X1230362Y772000D01*
X1238693Y780331D01*
X1238693Y913653D02*
X1230362Y921984D01*
X1213701Y921984D01*
X1205370Y913653D01*
X1205370Y880331D01*
X1213701Y872000D01*
X1230362Y872000D01*
X1238693Y880331D01*
X1238693Y1013653D02*
X1230362Y1021984D01*
X1213701Y1021984D01*
X1205370Y1013653D01*
X1205370Y980331D01*
X1213701Y972000D01*
X1230362Y972000D01*
X1238693Y980331D01*
X1238693Y1113653D02*
X1230362Y1121984D01*
X1213701Y1121984D01*
X1205370Y1113653D01*
X1205370Y1080331D01*
X1213701Y1072000D01*
X1230362Y1072000D01*
X1238693Y1080331D01*
X1238693Y1213653D02*
X1230362Y1221984D01*
X1213701Y1221984D01*
X1205370Y1213653D01*
X1205370Y1180331D01*
X1213701Y1172000D01*
X1230362Y1172000D01*
X1238693Y1180331D01*
X1238693Y1313653D02*
X1230362Y1321984D01*
X1213701Y1321984D01*
X1205370Y1313653D01*
X1205370Y1280331D01*
X1213701Y1272000D01*
X1230362Y1272000D01*
X1238693Y1280331D01*
X1238693Y1413653D02*
X1230362Y1421984D01*
X1213701Y1421984D01*
X1205370Y1413653D01*
X1205370Y1380331D01*
X1213701Y1372000D01*
X1230362Y1372000D01*
X1238693Y1380331D01*
X1238693Y1513653D02*
X1230362Y1521984D01*
X1213701Y1521984D01*
X1205370Y1513653D01*
X1205370Y1480331D01*
X1213701Y1472000D01*
X1230362Y1472000D01*
X1238693Y1480331D01*
X1238693Y1613653D02*
X1230362Y1621984D01*
X1213701Y1621984D01*
X1205370Y1613653D01*
X1205370Y1580331D01*
X1213701Y1572000D01*
X1230362Y1572000D01*
X1238693Y1580331D01*
X1238693Y1713653D02*
X1230362Y1721984D01*
X1213701Y1721984D01*
X1205370Y1713653D01*
X1205370Y1680331D01*
X1213701Y1672000D01*
X1230362Y1672000D01*
X1238693Y1680331D01*
X1238693Y1813653D02*
X1230362Y1821984D01*
X1213701Y1821984D01*
X1205370Y1813653D01*
X1205370Y1780331D01*
X1213701Y1772000D01*
X1230362Y1772000D01*
X1238693Y1780331D01*
X1238693Y1913653D02*
X1230362Y1921984D01*
X1213701Y1921984D01*
X1205370Y1913653D01*
X1205370Y1880331D01*
X1213701Y1872000D01*
X1230362Y1872000D01*
X1238693Y1880331D01*
X1238693Y2013653D02*
X1230362Y2021984D01*
X1213701Y2021984D01*
X1205370Y2013653D01*
X1205370Y1980331D01*
X1213701Y1972000D01*
X1230362Y1972000D01*
X1238693Y1980331D01*
X1238693Y2113653D02*
X1230362Y2121984D01*
X1213701Y2121984D01*
X1205370Y2113653D01*
X1205370Y2080331D01*
X1213701Y2072000D01*
X1230362Y2072000D01*
X1238693Y2080331D01*
X1238693Y2213653D02*
X1230362Y2221984D01*
X1213701Y2221984D01*
X1205370Y2213653D01*
X1205370Y2180331D01*
X1213701Y2172000D01*
X1230362Y2172000D01*
X1238693Y2180331D01*
X1238693Y2313653D02*
X1230362Y2321984D01*
X1213701Y2321984D01*
X1205370Y2313653D01*
X1205370Y2280331D01*
X1213701Y2272000D01*
X1230362Y2272000D01*
X1238693Y2280331D01*
X1238693Y2413653D02*
X1230362Y2421984D01*
X1213701Y2421984D01*
X1205370Y2413653D01*
X1205370Y2380331D01*
X1213701Y2372000D01*
X1230362Y2372000D01*
X1238693Y2380331D01*
X1238693Y2513653D02*
X1230362Y2521984D01*
X1213701Y2521984D01*
X1205370Y2513653D01*
X1205370Y2480331D01*
X1213701Y2472000D01*
X1230362Y2472000D01*
X1238693Y2480331D01*
X1238693Y2613653D02*
X1230362Y2621984D01*
X1213701Y2621984D01*
X1205370Y2613653D01*
X1205370Y2580331D01*
X1213701Y2572000D01*
X1230362Y2572000D01*
X1238693Y2580331D01*
X1238693Y2713653D02*
X1230362Y2721984D01*
X1213701Y2721984D01*
X1205370Y2713653D01*
X1205370Y2680331D01*
X1213701Y2672000D01*
X1230362Y2672000D01*
X1238693Y2680331D01*
X1238693Y2813653D02*
X1230362Y2821984D01*
X1213701Y2821984D01*
X1205370Y2813653D01*
X1205370Y2780331D01*
X1213701Y2772000D01*
X1230362Y2772000D01*
X1238693Y2780331D01*
X1225000Y7621000D02*
X1225000Y7661000D01*
X1265000Y7661000D01*
X1265000Y7621000D01*
X1225000Y7621000D01*
X356700Y7624094D02*
X336700Y7664094D01*
X376700Y7664094D01*
X356700Y7624094D01*
X356700Y7524094D02*
X336700Y7564094D01*
X376700Y7564094D01*
X356700Y7524094D01*
X592000Y7817000D02*
X592000Y7857000D01*
X632000Y7857000D01*
X632000Y7817000D01*
X592000Y7817000D01*
X335000Y7816000D02*
X335000Y7856000D01*
X375000Y7856000D01*
X375000Y7816000D01*
X335000Y7816000D01*
X380622Y5714552D02*
X380622Y5664568D01*
X405614Y5664568D01*
X413945Y5672899D01*
X413945Y5706221D01*
X405614Y5714552D01*
X380622Y5714552D01*
X230622Y5714552D02*
X230622Y5664568D01*
X255614Y5664568D01*
X263945Y5672899D01*
X263945Y5706221D01*
X255614Y5714552D01*
X230622Y5714552D01*
X280622Y5714552D02*
X280622Y5664568D01*
X305614Y5664568D01*
X313945Y5672899D01*
X313945Y5706221D01*
X305614Y5714552D01*
X280622Y5714552D01*
X213945Y5714552D02*
X180622Y5714552D01*
X180622Y5664568D01*
X213945Y5664568D01*
X180622Y5689560D02*
X197283Y5689560D01*
X330622Y5714552D02*
X330622Y5664568D01*
X355614Y5664568D01*
X363945Y5672899D01*
X363945Y5706221D01*
X355614Y5714552D01*
X330622Y5714552D01*
X430622Y5714552D02*
X430622Y5664568D01*
X455614Y5664568D01*
X463945Y5672899D01*
X463945Y5706221D01*
X455614Y5714552D01*
X430622Y5714552D01*
X180622Y5764552D02*
X180622Y5714568D01*
X205614Y5714568D01*
X213945Y5722899D01*
X213945Y5756221D01*
X205614Y5764552D01*
X180622Y5764552D01*
X230622Y5764552D02*
X230622Y5714568D01*
X255614Y5714568D01*
X263945Y5722899D01*
X263945Y5756221D01*
X255614Y5764552D01*
X230622Y5764552D01*
X280622Y5764552D02*
X280622Y5714568D01*
X305614Y5714568D01*
X313945Y5722899D01*
X313945Y5756221D01*
X305614Y5764552D01*
X280622Y5764552D01*
X330622Y5764552D02*
X330622Y5714568D01*
X355614Y5714568D01*
X363945Y5722899D01*
X363945Y5756221D01*
X355614Y5764552D01*
X330622Y5764552D01*
X380622Y5764552D02*
X380622Y5714568D01*
X405614Y5714568D01*
X413945Y5722899D01*
X413945Y5756221D01*
X405614Y5764552D01*
X380622Y5764552D01*
X430622Y5764552D02*
X430622Y5714568D01*
X455614Y5714568D01*
X463945Y5722899D01*
X463945Y5756221D01*
X455614Y5764552D01*
X430622Y5764552D01*
X2942439Y1074220D02*
X2909116Y1074220D01*
X2909116Y1049228D01*
X2925777Y1049228D01*
X2909116Y1049228D01*
X2909116Y1024236D01*
X2775323Y3886653D02*
X2766992Y3894984D01*
X2750331Y3894984D01*
X2742000Y3886653D01*
X2742000Y3853331D01*
X2750331Y3845000D01*
X2766992Y3845000D01*
X2775323Y3853331D01*
X2775323Y3869992D01*
X2758661Y3869992D01*
X3245323Y1073653D02*
X3236992Y1081984D01*
X3220331Y1081984D01*
X3212000Y1073653D01*
X3212000Y1040331D01*
X3220331Y1032000D01*
X3236992Y1032000D01*
X3245323Y1040331D01*
X3245323Y1056992D01*
X3228661Y1056992D01*
X2892439Y1186984D02*
X2859116Y1186984D01*
X2859116Y1161992D01*
X2875777Y1161992D01*
X2859116Y1161992D01*
X2859116Y1137000D01*
X2692439Y1116984D02*
X2659116Y1116984D01*
X2659116Y1091992D01*
X2675777Y1091992D01*
X2659116Y1091992D01*
X2659116Y1067000D01*
X3092439Y2063653D02*
X3084108Y2071984D01*
X3067447Y2071984D01*
X3059116Y2063653D01*
X3059116Y2030331D01*
X3067447Y2022000D01*
X3084108Y2022000D01*
X3092439Y2030331D01*
X3092439Y2046992D01*
X3075777Y2046992D01*
X2979281Y2142181D02*
X2970950Y2150512D01*
X2954289Y2150512D01*
X2945958Y2142181D01*
X2945958Y2108859D01*
X2954289Y2100528D01*
X2970950Y2100528D01*
X2979281Y2108859D01*
X2979281Y2125520D01*
X2962619Y2125520D01*
X1308471Y2429653D02*
X1300140Y2437984D01*
X1283479Y2437984D01*
X1275148Y2429653D01*
X1275148Y2396331D01*
X1283479Y2388000D01*
X1300140Y2388000D01*
X1308471Y2396331D01*
X1308471Y2412992D01*
X1291809Y2412992D01*
X1207439Y2763653D02*
X1199108Y2771984D01*
X1182447Y2771984D01*
X1174116Y2763653D01*
X1174116Y2730331D01*
X1182447Y2722000D01*
X1199108Y2722000D01*
X1207439Y2730331D01*
X1207439Y2746992D01*
X1190777Y2746992D01*
X2559323Y8174653D02*
X2550992Y8182984D01*
X2534331Y8182984D01*
X2526000Y8174653D01*
X2526000Y8141331D01*
X2534331Y8133000D01*
X2550992Y8133000D01*
X2559323Y8141331D01*
X2559323Y8157992D01*
X2542661Y8157992D01*
X988023Y8132353D02*
X979692Y8140684D01*
X963031Y8140684D01*
X954700Y8132353D01*
X954700Y8099031D01*
X963031Y8090700D01*
X979692Y8090700D01*
X988023Y8099031D01*
X988023Y8115692D01*
X971361Y8115692D01*
X868023Y8082353D02*
X859692Y8090684D01*
X843031Y8090684D01*
X834700Y8082353D01*
X834700Y8049031D01*
X843031Y8040700D01*
X859692Y8040700D01*
X868023Y8049031D01*
X868023Y8065692D01*
X851361Y8065692D01*
X743323Y8452653D02*
X734992Y8460984D01*
X718331Y8460984D01*
X710000Y8452653D01*
X710000Y8419331D01*
X718331Y8411000D01*
X734992Y8411000D01*
X743323Y8419331D01*
X743323Y8435992D01*
X726661Y8435992D01*
X1233323Y8277653D02*
X1224992Y8285984D01*
X1208331Y8285984D01*
X1200000Y8277653D01*
X1200000Y8244331D01*
X1208331Y8236000D01*
X1224992Y8236000D01*
X1233323Y8244331D01*
X1233323Y8260992D01*
X1216661Y8260992D01*
X1115351Y8450373D02*
X1107020Y8458704D01*
X1090359Y8458704D01*
X1082028Y8450373D01*
X1082028Y8417051D01*
X1090359Y8408720D01*
X1107020Y8408720D01*
X1115351Y8417051D01*
X1115351Y8433712D01*
X1098689Y8433712D01*
X1317017Y7834959D02*
X1308686Y7843290D01*
X1292025Y7843290D01*
X1283694Y7834959D01*
X1283694Y7801637D01*
X1292025Y7793306D01*
X1308686Y7793306D01*
X1317017Y7801637D01*
X1317017Y7818298D01*
X1300355Y7818298D01*
X868023Y8448063D02*
X859692Y8456394D01*
X843031Y8456394D01*
X834700Y8448063D01*
X834700Y8414741D01*
X843031Y8406410D01*
X859692Y8406410D01*
X868023Y8414741D01*
X868023Y8431402D01*
X851361Y8431402D01*
X988023Y8458063D02*
X979692Y8466394D01*
X963031Y8466394D01*
X954700Y8458063D01*
X954700Y8424741D01*
X963031Y8416410D01*
X979692Y8416410D01*
X988023Y8424741D01*
X988023Y8441402D01*
X971361Y8441402D01*
X742323Y3115653D02*
X733992Y3123984D01*
X717331Y3123984D01*
X709000Y3115653D01*
X709000Y3082331D01*
X717331Y3074000D01*
X733992Y3074000D01*
X742323Y3082331D01*
X742323Y3098992D01*
X725661Y3098992D01*
X1013323Y2573653D02*
X1004992Y2581984D01*
X988331Y2581984D01*
X980000Y2573653D01*
X980000Y2540331D01*
X988331Y2532000D01*
X1004992Y2532000D01*
X1013323Y2540331D01*
X1013323Y2556992D01*
X996661Y2556992D01*
X2359323Y2026653D02*
X2350992Y2034984D01*
X2334331Y2034984D01*
X2326000Y2026653D01*
X2326000Y1993331D01*
X2334331Y1985000D01*
X2350992Y1985000D01*
X2359323Y1993331D01*
X2359323Y2009992D01*
X2342661Y2009992D01*
X2433023Y3176394D02*
X2399700Y3176394D01*
X2399700Y3151402D01*
X2416361Y3151402D01*
X2399700Y3151402D01*
X2399700Y3126410D01*
X2014323Y1792653D02*
X2005992Y1800984D01*
X1989331Y1800984D01*
X1981000Y1792653D01*
X1981000Y1759331D01*
X1989331Y1751000D01*
X2005992Y1751000D01*
X2014323Y1759331D01*
X2014323Y1775992D01*
X1997661Y1775992D01*
X683023Y1348063D02*
X674692Y1356394D01*
X658031Y1356394D01*
X649700Y1348063D01*
X649700Y1314741D01*
X658031Y1306410D01*
X674692Y1306410D01*
X683023Y1314741D01*
X683023Y1331402D01*
X666361Y1331402D01*
X2153023Y4426394D02*
X2119700Y4426394D01*
X2119700Y4401402D01*
X2136361Y4401402D01*
X2119700Y4401402D01*
X2119700Y4376410D01*
X2473023Y4451684D02*
X2439700Y4451684D01*
X2439700Y4426692D01*
X2456361Y4426692D01*
X2439700Y4426692D01*
X2439700Y4401700D01*
X2038693Y2483653D02*
X2030362Y2491984D01*
X2013701Y2491984D01*
X2005370Y2483653D01*
X2005370Y2450331D01*
X2013701Y2442000D01*
X2030362Y2442000D01*
X2038693Y2450331D01*
X2038693Y2466992D01*
X2022031Y2466992D01*
X1158323Y5667653D02*
X1149992Y5675984D01*
X1133331Y5675984D01*
X1125000Y5667653D01*
X1125000Y5634331D01*
X1133331Y5626000D01*
X1149992Y5626000D01*
X1158323Y5634331D01*
X1158323Y5650992D01*
X1141661Y5650992D01*
X2155387Y1930425D02*
X2147056Y1938756D01*
X2130395Y1938756D01*
X2122064Y1930425D01*
X2122064Y1897103D01*
X2130395Y1888772D01*
X2147056Y1888772D01*
X2155387Y1897103D01*
X2155387Y1913764D01*
X2138725Y1913764D01*
X1850387Y1890425D02*
X1842056Y1898756D01*
X1825395Y1898756D01*
X1817064Y1890425D01*
X1817064Y1857103D01*
X1825395Y1848772D01*
X1842056Y1848772D01*
X1850387Y1857103D01*
X1850387Y1873764D01*
X1833725Y1873764D01*
X2537905Y3640425D02*
X2529574Y3648756D01*
X2512913Y3648756D01*
X2504582Y3640425D01*
X2504582Y3607103D01*
X2512913Y3598772D01*
X2529574Y3598772D01*
X2537905Y3607103D01*
X2537905Y3623764D01*
X2521243Y3623764D01*
X1488693Y4663653D02*
X1480362Y4671984D01*
X1463701Y4671984D01*
X1455370Y4663653D01*
X1455370Y4630331D01*
X1463701Y4622000D01*
X1480362Y4622000D01*
X1488693Y4630331D01*
X1488693Y4646992D01*
X1472031Y4646992D01*
X461925Y4304653D02*
X453594Y4312984D01*
X436933Y4312984D01*
X428602Y4304653D01*
X428602Y4271331D01*
X436933Y4263000D01*
X453594Y4263000D01*
X461925Y4271331D01*
X461925Y4287992D01*
X445263Y4287992D01*
X656693Y4155653D02*
X648362Y4163984D01*
X631701Y4163984D01*
X623370Y4155653D01*
X623370Y4122331D01*
X631701Y4114000D01*
X648362Y4114000D01*
X656693Y4122331D01*
X656693Y4138992D01*
X640031Y4138992D01*
X659693Y3997653D02*
X651362Y4005984D01*
X634701Y4005984D01*
X626370Y3997653D01*
X626370Y3964331D01*
X634701Y3956000D01*
X651362Y3956000D01*
X659693Y3964331D01*
X659693Y3980992D01*
X643031Y3980992D01*
X2422693Y1669653D02*
X2414362Y1677984D01*
X2397701Y1677984D01*
X2389370Y1669653D01*
X2389370Y1636331D01*
X2397701Y1628000D01*
X2414362Y1628000D01*
X2422693Y1636331D01*
X2422693Y1652992D01*
X2406031Y1652992D01*
X2548693Y1670653D02*
X2540362Y1678984D01*
X2523701Y1678984D01*
X2515370Y1670653D01*
X2515370Y1637331D01*
X2523701Y1629000D01*
X2540362Y1629000D01*
X2548693Y1637331D01*
X2548693Y1653992D01*
X2532031Y1653992D01*
X509943Y4396653D02*
X501612Y4404984D01*
X484951Y4404984D01*
X476620Y4396653D01*
X476620Y4363331D01*
X484951Y4355000D01*
X501612Y4355000D01*
X509943Y4363331D01*
X509943Y4379992D01*
X493281Y4379992D01*
X2671693Y6772653D02*
X2663362Y6780984D01*
X2646701Y6780984D01*
X2638370Y6772653D01*
X2638370Y6739331D01*
X2646701Y6731000D01*
X2663362Y6731000D01*
X2671693Y6739331D01*
X2671693Y6755992D01*
X2655031Y6755992D01*
X2515693Y6938653D02*
X2507362Y6946984D01*
X2490701Y6946984D01*
X2482370Y6938653D01*
X2482370Y6905331D01*
X2490701Y6897000D01*
X2507362Y6897000D01*
X2515693Y6905331D01*
X2515693Y6921992D01*
X2499031Y6921992D01*
X895693Y6788984D02*
X862370Y6788984D01*
X862370Y6763992D01*
X879031Y6763992D01*
X862370Y6763992D01*
X862370Y6739000D01*
X2163693Y5810984D02*
X2130370Y5810984D01*
X2130370Y5785992D01*
X2147031Y5785992D01*
X2130370Y5785992D01*
X2130370Y5761000D01*
X2060693Y5634984D02*
X2027370Y5634984D01*
X2027370Y5609992D01*
X2044031Y5609992D01*
X2027370Y5609992D01*
X2027370Y5585000D01*
X1240693Y4977653D02*
X1232362Y4985984D01*
X1215701Y4985984D01*
X1207370Y4977653D01*
X1207370Y4944331D01*
X1215701Y4936000D01*
X1232362Y4936000D01*
X1240693Y4944331D01*
X1240693Y4960992D01*
X1224031Y4960992D01*
X425693Y5099653D02*
X417362Y5107984D01*
X400701Y5107984D01*
X392370Y5099653D01*
X392370Y5066331D01*
X400701Y5058000D01*
X417362Y5058000D01*
X425693Y5066331D01*
X425693Y5082992D01*
X409031Y5082992D01*
X452693Y5167653D02*
X444362Y5175984D01*
X427701Y5175984D01*
X419370Y5167653D01*
X419370Y5134331D01*
X427701Y5126000D01*
X444362Y5126000D01*
X452693Y5134331D01*
X452693Y5150992D01*
X436031Y5150992D01*
X1689323Y7209653D02*
X1680992Y7217984D01*
X1664331Y7217984D01*
X1656000Y7209653D01*
X1656000Y7176331D01*
X1664331Y7168000D01*
X1680992Y7168000D01*
X1689323Y7176331D01*
X1689323Y7192992D01*
X1672661Y7192992D01*
X1129693Y4998653D02*
X1121362Y5006984D01*
X1104701Y5006984D01*
X1096370Y4998653D01*
X1096370Y4965331D01*
X1104701Y4957000D01*
X1121362Y4957000D01*
X1129693Y4965331D01*
X1129693Y4981992D01*
X1113031Y4981992D01*
X1117693Y4831653D02*
X1109362Y4839984D01*
X1092701Y4839984D01*
X1084370Y4831653D01*
X1084370Y4798331D01*
X1092701Y4790000D01*
X1109362Y4790000D01*
X1117693Y4798331D01*
X1117693Y4814992D01*
X1101031Y4814992D01*
X1252693Y3871653D02*
X1244362Y3879984D01*
X1227701Y3879984D01*
X1219370Y3871653D01*
X1219370Y3838331D01*
X1227701Y3830000D01*
X1244362Y3830000D01*
X1252693Y3838331D01*
X1252693Y3854992D01*
X1236031Y3854992D01*
X1694693Y4894984D02*
X1661370Y4894984D01*
X1661370Y4869992D01*
X1678031Y4869992D01*
X1661370Y4869992D01*
X1661370Y4845000D01*
X1682693Y4788653D02*
X1674362Y4796984D01*
X1657701Y4796984D01*
X1649370Y4788653D01*
X1649370Y4755331D01*
X1657701Y4747000D01*
X1674362Y4747000D01*
X1682693Y4755331D01*
X1682693Y4771992D01*
X1666031Y4771992D01*
X689693Y4888653D02*
X681362Y4896984D01*
X664701Y4896984D01*
X656370Y4888653D01*
X656370Y4855331D01*
X664701Y4847000D01*
X681362Y4847000D01*
X689693Y4855331D01*
X689693Y4871992D01*
X673031Y4871992D01*
X1983693Y5198653D02*
X1975362Y5206984D01*
X1958701Y5206984D01*
X1950370Y5198653D01*
X1950370Y5165331D01*
X1958701Y5157000D01*
X1975362Y5157000D01*
X1983693Y5165331D01*
X1983693Y5181992D01*
X1967031Y5181992D01*
X2400693Y1594653D02*
X2392362Y1602984D01*
X2375701Y1602984D01*
X2367370Y1594653D01*
X2367370Y1561331D01*
X2375701Y1553000D01*
X2392362Y1553000D01*
X2400693Y1561331D01*
X2400693Y1577992D01*
X2384031Y1577992D01*
X1253693Y4772653D02*
X1245362Y4780984D01*
X1228701Y4780984D01*
X1220370Y4772653D01*
X1220370Y4739331D01*
X1228701Y4731000D01*
X1245362Y4731000D01*
X1253693Y4739331D01*
X1253693Y4755992D01*
X1237031Y4755992D01*
X510693Y4892653D02*
X502362Y4900984D01*
X485701Y4900984D01*
X477370Y4892653D01*
X477370Y4859331D01*
X485701Y4851000D01*
X502362Y4851000D01*
X510693Y4859331D01*
X510693Y4875992D01*
X494031Y4875992D01*
X146267Y3394015D02*
X137936Y3402346D01*
X121275Y3402346D01*
X112944Y3394015D01*
X112944Y3360693D01*
X121275Y3352362D01*
X137936Y3352362D01*
X146267Y3360693D01*
X146267Y3377354D01*
X129605Y3377354D01*
X127693Y4783653D02*
X119362Y4791984D01*
X102701Y4791984D01*
X94370Y4783653D01*
X94370Y4750331D01*
X102701Y4742000D01*
X119362Y4742000D01*
X127693Y4750331D01*
X127693Y4766992D01*
X111031Y4766992D01*
X1982693Y5060984D02*
X1949370Y5060984D01*
X1949370Y5035992D01*
X1966031Y5035992D01*
X1949370Y5035992D01*
X1949370Y5011000D01*
X162693Y4011653D02*
X154362Y4019984D01*
X137701Y4019984D01*
X129370Y4011653D01*
X129370Y3978331D01*
X137701Y3970000D01*
X154362Y3970000D01*
X162693Y3978331D01*
X162693Y3994992D01*
X146031Y3994992D01*
X2265693Y1810653D02*
X2257362Y1818984D01*
X2240701Y1818984D01*
X2232370Y1810653D01*
X2232370Y1777331D01*
X2240701Y1769000D01*
X2257362Y1769000D01*
X2265693Y1777331D01*
X2265693Y1793992D01*
X2249031Y1793992D01*
X212323Y3189653D02*
X203992Y3197984D01*
X187331Y3197984D01*
X179000Y3189653D01*
X179000Y3156331D01*
X187331Y3148000D01*
X203992Y3148000D01*
X212323Y3156331D01*
X212323Y3172992D01*
X195661Y3172992D01*
X1077323Y3841653D02*
X1068992Y3849984D01*
X1052331Y3849984D01*
X1044000Y3841653D01*
X1044000Y3808331D01*
X1052331Y3800000D01*
X1068992Y3800000D01*
X1077323Y3808331D01*
X1077323Y3824992D01*
X1060661Y3824992D01*
X2043323Y2120653D02*
X2034992Y2128984D01*
X2018331Y2128984D01*
X2010000Y2120653D01*
X2010000Y2087331D01*
X2018331Y2079000D01*
X2034992Y2079000D01*
X2043323Y2087331D01*
X2043323Y2103992D01*
X2026661Y2103992D01*
X2696481Y2062811D02*
X2688150Y2071142D01*
X2671489Y2071142D01*
X2663158Y2062811D01*
X2663158Y2029489D01*
X2671489Y2021158D01*
X2688150Y2021158D01*
X2696481Y2029489D01*
X2696481Y2046150D01*
X2679819Y2046150D01*
X2326323Y2353653D02*
X2317992Y2361984D01*
X2301331Y2361984D01*
X2293000Y2353653D01*
X2293000Y2320331D01*
X2301331Y2312000D01*
X2317992Y2312000D01*
X2326323Y2320331D01*
X2326323Y2336992D01*
X2309661Y2336992D01*
X547323Y5362661D02*
X538992Y5370992D01*
X522331Y5370992D01*
X514000Y5362661D01*
X514000Y5329339D01*
X522331Y5321008D01*
X538992Y5321008D01*
X547323Y5329339D01*
X547323Y5346000D01*
X530661Y5346000D01*
X1030127Y6294653D02*
X1021796Y6302984D01*
X1005135Y6302984D01*
X996804Y6294653D01*
X996804Y6261331D01*
X1005135Y6253000D01*
X1021796Y6253000D01*
X1030127Y6261331D01*
X1030127Y6277992D01*
X1013465Y6277992D01*
X1172323Y5615653D02*
X1163992Y5623984D01*
X1147331Y5623984D01*
X1139000Y5615653D01*
X1139000Y5582331D01*
X1147331Y5574000D01*
X1163992Y5574000D01*
X1172323Y5582331D01*
X1172323Y5598992D01*
X1155661Y5598992D01*
X2907323Y4747653D02*
X2898992Y4755984D01*
X2882331Y4755984D01*
X2874000Y4747653D01*
X2874000Y4714331D01*
X2882331Y4706000D01*
X2898992Y4706000D01*
X2907323Y4714331D01*
X2907323Y4730992D01*
X2890661Y4730992D01*
X563323Y5611653D02*
X554992Y5619984D01*
X538331Y5619984D01*
X530000Y5611653D01*
X530000Y5578331D01*
X538331Y5570000D01*
X554992Y5570000D01*
X563323Y5578331D01*
X563323Y5594992D01*
X546661Y5594992D01*
X1016323Y2358307D02*
X1007992Y2366638D01*
X991331Y2366638D01*
X983000Y2358307D01*
X983000Y2324985D01*
X991331Y2316654D01*
X1007992Y2316654D01*
X1016323Y2324985D01*
X1016323Y2341646D01*
X999661Y2341646D01*
X581603Y5556093D02*
X573272Y5564424D01*
X556611Y5564424D01*
X548280Y5556093D01*
X548280Y5522771D01*
X556611Y5514440D01*
X573272Y5514440D01*
X581603Y5522771D01*
X581603Y5539432D01*
X564941Y5539432D01*
X147323Y4858583D02*
X138992Y4866914D01*
X122331Y4866914D01*
X114000Y4858583D01*
X114000Y4825261D01*
X122331Y4816930D01*
X138992Y4816930D01*
X147323Y4825261D01*
X147323Y4841922D01*
X130661Y4841922D01*
X210323Y4724653D02*
X201992Y4732984D01*
X185331Y4732984D01*
X177000Y4724653D01*
X177000Y4691331D01*
X185331Y4683000D01*
X201992Y4683000D01*
X210323Y4691331D01*
X210323Y4707992D01*
X193661Y4707992D01*
X3043323Y4354653D02*
X3034992Y4362984D01*
X3018331Y4362984D01*
X3010000Y4354653D01*
X3010000Y4321331D01*
X3018331Y4313000D01*
X3034992Y4313000D01*
X3043323Y4321331D01*
X3043323Y4337992D01*
X3026661Y4337992D01*
X2100323Y2084653D02*
X2091992Y2092984D01*
X2075331Y2092984D01*
X2067000Y2084653D01*
X2067000Y2051331D01*
X2075331Y2043000D01*
X2091992Y2043000D01*
X2100323Y2051331D01*
X2100323Y2067992D01*
X2083661Y2067992D01*
X2235323Y1692975D02*
X2226992Y1701306D01*
X2210331Y1701306D01*
X2202000Y1692975D01*
X2202000Y1659653D01*
X2210331Y1651322D01*
X2226992Y1651322D01*
X2235323Y1659653D01*
X2235323Y1676314D01*
X2218661Y1676314D01*
X2937323Y6593653D02*
X2928992Y6601984D01*
X2912331Y6601984D01*
X2904000Y6593653D01*
X2904000Y6560331D01*
X2912331Y6552000D01*
X2928992Y6552000D01*
X2937323Y6560331D01*
X2937323Y6576992D01*
X2920661Y6576992D01*
X486323Y5662653D02*
X477992Y5670984D01*
X461331Y5670984D01*
X453000Y5662653D01*
X453000Y5629331D01*
X461331Y5621000D01*
X477992Y5621000D01*
X486323Y5629331D01*
X486323Y5645992D01*
X469661Y5645992D01*
X252323Y3983401D02*
X243992Y3991732D01*
X227331Y3991732D01*
X219000Y3983401D01*
X219000Y3950079D01*
X227331Y3941748D01*
X243992Y3941748D01*
X252323Y3950079D01*
X252323Y3966740D01*
X235661Y3966740D01*
X1001323Y7984567D02*
X992992Y7992898D01*
X976331Y7992898D01*
X968000Y7984567D01*
X968000Y7951245D01*
X976331Y7942914D01*
X992992Y7942914D01*
X1001323Y7951245D01*
X1001323Y7967906D01*
X984661Y7967906D01*
X2650323Y4865653D02*
X2641992Y4873984D01*
X2625331Y4873984D01*
X2617000Y4865653D01*
X2617000Y4832331D01*
X2625331Y4824000D01*
X2641992Y4824000D01*
X2650323Y4832331D01*
X2650323Y4848992D01*
X2633661Y4848992D01*
X2492725Y5693653D02*
X2484394Y5701984D01*
X2467733Y5701984D01*
X2459402Y5693653D01*
X2459402Y5660331D01*
X2467733Y5652000D01*
X2484394Y5652000D01*
X2492725Y5660331D01*
X2492725Y5676992D01*
X2476063Y5676992D01*
X450323Y4845653D02*
X441992Y4853984D01*
X425331Y4853984D01*
X417000Y4845653D01*
X417000Y4812331D01*
X425331Y4804000D01*
X441992Y4804000D01*
X450323Y4812331D01*
X450323Y4828992D01*
X433661Y4828992D01*
X1005323Y6333653D02*
X996992Y6341984D01*
X980331Y6341984D01*
X972000Y6333653D01*
X972000Y6300331D01*
X980331Y6292000D01*
X996992Y6292000D01*
X1005323Y6300331D01*
X1005323Y6316992D01*
X988661Y6316992D01*
X646693Y4669984D02*
X613370Y4669984D01*
X613370Y4644992D01*
X630031Y4644992D01*
X613370Y4644992D01*
X613370Y4620000D01*
X1202323Y3412653D02*
X1193992Y3420984D01*
X1177331Y3420984D01*
X1169000Y3412653D01*
X1169000Y3379331D01*
X1177331Y3371000D01*
X1193992Y3371000D01*
X1202323Y3379331D01*
X1202323Y3395992D01*
X1185661Y3395992D01*
X1142693Y5044653D02*
X1134362Y5052984D01*
X1117701Y5052984D01*
X1109370Y5044653D01*
X1109370Y5011331D01*
X1117701Y5003000D01*
X1134362Y5003000D01*
X1142693Y5011331D01*
X1142693Y5027992D01*
X1126031Y5027992D01*
X137323Y3283653D02*
X128992Y3291984D01*
X112331Y3291984D01*
X104000Y3283653D01*
X104000Y3250331D01*
X112331Y3242000D01*
X128992Y3242000D01*
X137323Y3250331D01*
X137323Y3266992D01*
X120661Y3266992D01*
X1982323Y6798653D02*
X1973992Y6806984D01*
X1957331Y6806984D01*
X1949000Y6798653D01*
X1949000Y6765331D01*
X1957331Y6757000D01*
X1973992Y6757000D01*
X1982323Y6765331D01*
X1982323Y6781992D01*
X1965661Y6781992D01*
X2929323Y1388653D02*
X2920992Y1396984D01*
X2904331Y1396984D01*
X2896000Y1388653D01*
X2896000Y1355331D01*
X2904331Y1347000D01*
X2920992Y1347000D01*
X2929323Y1355331D01*
X2929323Y1371992D01*
X2912661Y1371992D01*
X2927669Y1513307D02*
X2919338Y1521638D01*
X2902677Y1521638D01*
X2894346Y1513307D01*
X2894346Y1479985D01*
X2902677Y1471654D01*
X2919338Y1471654D01*
X2927669Y1479985D01*
X2927669Y1496646D01*
X2911007Y1496646D01*
X1096779Y3668653D02*
X1088448Y3676984D01*
X1071787Y3676984D01*
X1063456Y3668653D01*
X1063456Y3635331D01*
X1071787Y3627000D01*
X1088448Y3627000D01*
X1096779Y3635331D01*
X1096779Y3651992D01*
X1080117Y3651992D01*
X2908323Y3520653D02*
X2899992Y3528984D01*
X2883331Y3528984D01*
X2875000Y3520653D01*
X2875000Y3487331D01*
X2883331Y3479000D01*
X2899992Y3479000D01*
X2908323Y3487331D01*
X2908323Y3503992D01*
X2891661Y3503992D01*
X550323Y3209653D02*
X541992Y3217984D01*
X525331Y3217984D01*
X517000Y3209653D01*
X517000Y3176331D01*
X525331Y3168000D01*
X541992Y3168000D01*
X550323Y3176331D01*
X550323Y3192992D01*
X533661Y3192992D01*
X1437323Y7081251D02*
X1428992Y7089582D01*
X1412331Y7089582D01*
X1404000Y7081251D01*
X1404000Y7047929D01*
X1412331Y7039598D01*
X1428992Y7039598D01*
X1437323Y7047929D01*
X1437323Y7064590D01*
X1420661Y7064590D01*
X3358323Y8277653D02*
X3349992Y8285984D01*
X3333331Y8285984D01*
X3325000Y8277653D01*
X3325000Y8244331D01*
X3333331Y8236000D01*
X3349992Y8236000D01*
X3358323Y8244331D01*
X3358323Y8260992D01*
X3341661Y8260992D01*
X3290323Y4399921D02*
X3281992Y4408252D01*
X3265331Y4408252D01*
X3257000Y4399921D01*
X3257000Y4366599D01*
X3265331Y4358268D01*
X3281992Y4358268D01*
X3290323Y4366599D01*
X3290323Y4383260D01*
X3273661Y4383260D01*
X2607693Y5474653D02*
X2599362Y5482984D01*
X2582701Y5482984D01*
X2574370Y5474653D01*
X2574370Y5441331D01*
X2582701Y5433000D01*
X2599362Y5433000D01*
X2607693Y5441331D01*
X2607693Y5457992D01*
X2591031Y5457992D01*
X2369693Y5614653D02*
X2361362Y5622984D01*
X2344701Y5622984D01*
X2336370Y5614653D01*
X2336370Y5581331D01*
X2344701Y5573000D01*
X2361362Y5573000D01*
X2369693Y5581331D01*
X2369693Y5597992D01*
X2353031Y5597992D01*
X2978693Y5475653D02*
X2970362Y5483984D01*
X2953701Y5483984D01*
X2945370Y5475653D01*
X2945370Y5442331D01*
X2953701Y5434000D01*
X2970362Y5434000D01*
X2978693Y5442331D01*
X2978693Y5458992D01*
X2962031Y5458992D01*
X2349025Y1462911D02*
X2340694Y1471242D01*
X2324033Y1471242D01*
X2315702Y1462911D01*
X2315702Y1429589D01*
X2324033Y1421258D01*
X2340694Y1421258D01*
X2349025Y1429589D01*
X2349025Y1446250D01*
X2332363Y1446250D01*
X2170323Y1346653D02*
X2161992Y1354984D01*
X2145331Y1354984D01*
X2137000Y1346653D01*
X2137000Y1313331D01*
X2145331Y1305000D01*
X2161992Y1305000D01*
X2170323Y1313331D01*
X2170323Y1329992D01*
X2153661Y1329992D01*
X679693Y3942653D02*
X671362Y3950984D01*
X654701Y3950984D01*
X646370Y3942653D01*
X646370Y3909331D01*
X654701Y3901000D01*
X671362Y3901000D01*
X679693Y3909331D01*
X679693Y3925992D01*
X663031Y3925992D01*
X197449Y3653857D02*
X189118Y3662188D01*
X172457Y3662188D01*
X164126Y3653857D01*
X164126Y3620535D01*
X172457Y3612204D01*
X189118Y3612204D01*
X197449Y3620535D01*
X197449Y3637196D01*
X180787Y3637196D01*
X1789967Y2222653D02*
X1781636Y2230984D01*
X1764975Y2230984D01*
X1756644Y2222653D01*
X1756644Y2189331D01*
X1764975Y2181000D01*
X1781636Y2181000D01*
X1789967Y2189331D01*
X1789967Y2205992D01*
X1773305Y2205992D01*
X1193323Y2348653D02*
X1184992Y2356984D01*
X1168331Y2356984D01*
X1160000Y2348653D01*
X1160000Y2315331D01*
X1168331Y2307000D01*
X1184992Y2307000D01*
X1193323Y2315331D01*
X1193323Y2331992D01*
X1176661Y2331992D01*
X915323Y7925653D02*
X906992Y7933984D01*
X890331Y7933984D01*
X882000Y7925653D01*
X882000Y7892331D01*
X890331Y7884000D01*
X906992Y7884000D01*
X915323Y7892331D01*
X915323Y7908992D01*
X898661Y7908992D01*
X973693Y4067653D02*
X965362Y4075984D01*
X948701Y4075984D01*
X940370Y4067653D01*
X940370Y4034331D01*
X948701Y4026000D01*
X965362Y4026000D01*
X973693Y4034331D01*
X973693Y4050992D01*
X957031Y4050992D01*
X1051693Y4121653D02*
X1043362Y4129984D01*
X1026701Y4129984D01*
X1018370Y4121653D01*
X1018370Y4088331D01*
X1026701Y4080000D01*
X1043362Y4080000D01*
X1051693Y4088331D01*
X1051693Y4104992D01*
X1035031Y4104992D01*
X1507323Y4167653D02*
X1498992Y4175984D01*
X1482331Y4175984D01*
X1474000Y4167653D01*
X1474000Y4134331D01*
X1482331Y4126000D01*
X1498992Y4126000D01*
X1507323Y4134331D01*
X1507323Y4150992D01*
X1490661Y4150992D01*
X602371Y4224057D02*
X594040Y4232388D01*
X577379Y4232388D01*
X569048Y4224057D01*
X569048Y4190735D01*
X577379Y4182404D01*
X594040Y4182404D01*
X602371Y4190735D01*
X602371Y4207396D01*
X585709Y4207396D01*
X1713197Y1687323D02*
X1704866Y1695654D01*
X1688205Y1695654D01*
X1679874Y1687323D01*
X1679874Y1654001D01*
X1688205Y1645670D01*
X1704866Y1645670D01*
X1713197Y1654001D01*
X1713197Y1670662D01*
X1696535Y1670662D01*
X1899693Y1668653D02*
X1891362Y1676984D01*
X1874701Y1676984D01*
X1866370Y1668653D01*
X1866370Y1635331D01*
X1874701Y1627000D01*
X1891362Y1627000D01*
X1899693Y1635331D01*
X1899693Y1651992D01*
X1883031Y1651992D01*
X2366741Y1903857D02*
X2358410Y1912188D01*
X2341749Y1912188D01*
X2333418Y1903857D01*
X2333418Y1870535D01*
X2341749Y1862204D01*
X2358410Y1862204D01*
X2366741Y1870535D01*
X2366741Y1887196D01*
X2350079Y1887196D01*
X470693Y3441653D02*
X462362Y3449984D01*
X445701Y3449984D01*
X437370Y3441653D01*
X437370Y3408331D01*
X445701Y3400000D01*
X462362Y3400000D01*
X470693Y3408331D01*
X470693Y3424992D01*
X454031Y3424992D01*
X219693Y4312653D02*
X211362Y4320984D01*
X194701Y4320984D01*
X186370Y4312653D01*
X186370Y4279331D01*
X194701Y4271000D01*
X211362Y4271000D01*
X219693Y4279331D01*
X219693Y4295992D01*
X203031Y4295992D01*
X991741Y3839881D02*
X983410Y3848212D01*
X966749Y3848212D01*
X958418Y3839881D01*
X958418Y3806559D01*
X966749Y3798228D01*
X983410Y3798228D01*
X991741Y3806559D01*
X991741Y3823220D01*
X975079Y3823220D01*
X2335245Y2104645D02*
X2326914Y2112976D01*
X2310253Y2112976D01*
X2301922Y2104645D01*
X2301922Y2071323D01*
X2310253Y2062992D01*
X2326914Y2062992D01*
X2335245Y2071323D01*
X2335245Y2087984D01*
X2318583Y2087984D01*
X2100693Y1663653D02*
X2092362Y1671984D01*
X2075701Y1671984D01*
X2067370Y1663653D01*
X2067370Y1630331D01*
X2075701Y1622000D01*
X2092362Y1622000D01*
X2100693Y1630331D01*
X2100693Y1646992D01*
X2084031Y1646992D01*
X2103323Y1000315D02*
X2094992Y1008646D01*
X2078331Y1008646D01*
X2070000Y1000315D01*
X2070000Y966993D01*
X2078331Y958662D01*
X2094992Y958662D01*
X2103323Y966993D01*
X2103323Y983654D01*
X2086661Y983654D01*
X3125323Y6359653D02*
X3116992Y6367984D01*
X3100331Y6367984D01*
X3092000Y6359653D01*
X3092000Y6326331D01*
X3100331Y6318000D01*
X3116992Y6318000D01*
X3125323Y6326331D01*
X3125323Y6342992D01*
X3108661Y6342992D01*
X2854929Y7329055D02*
X2846598Y7337386D01*
X2829937Y7337386D01*
X2821606Y7329055D01*
X2821606Y7295733D01*
X2829937Y7287402D01*
X2846598Y7287402D01*
X2854929Y7295733D01*
X2854929Y7312394D01*
X2838267Y7312394D01*
X2940693Y6645653D02*
X2932362Y6653984D01*
X2915701Y6653984D01*
X2907370Y6645653D01*
X2907370Y6612331D01*
X2915701Y6604000D01*
X2932362Y6604000D01*
X2940693Y6612331D01*
X2940693Y6628992D01*
X2924031Y6628992D01*
X2476977Y4840865D02*
X2468646Y4849196D01*
X2451985Y4849196D01*
X2443654Y4840865D01*
X2443654Y4807543D01*
X2451985Y4799212D01*
X2468646Y4799212D01*
X2476977Y4807543D01*
X2476977Y4824204D01*
X2460315Y4824204D01*
X1797323Y5360653D02*
X1788992Y5368984D01*
X1772331Y5368984D01*
X1764000Y5360653D01*
X1764000Y5327331D01*
X1772331Y5319000D01*
X1788992Y5319000D01*
X1797323Y5327331D01*
X1797323Y5343992D01*
X1780661Y5343992D01*
X2525205Y8491849D02*
X2516874Y8500180D01*
X2500213Y8500180D01*
X2491882Y8491849D01*
X2491882Y8458527D01*
X2500213Y8450196D01*
X2516874Y8450196D01*
X2525205Y8458527D01*
X2525205Y8475188D01*
X2508543Y8475188D01*
X346693Y5630653D02*
X338362Y5638984D01*
X321701Y5638984D01*
X313370Y5630653D01*
X313370Y5597331D01*
X321701Y5589000D01*
X338362Y5589000D01*
X346693Y5597331D01*
X346693Y5613992D01*
X330031Y5613992D01*
X158693Y3443653D02*
X150362Y3451984D01*
X133701Y3451984D01*
X125370Y3443653D01*
X125370Y3410331D01*
X133701Y3402000D01*
X150362Y3402000D01*
X158693Y3410331D01*
X158693Y3426992D01*
X142031Y3426992D01*
X308693Y3408653D02*
X300362Y3416984D01*
X283701Y3416984D01*
X275370Y3408653D01*
X275370Y3375331D01*
X283701Y3367000D01*
X300362Y3367000D01*
X308693Y3375331D01*
X308693Y3391992D01*
X292031Y3391992D01*
X524693Y4506653D02*
X516362Y4514984D01*
X499701Y4514984D01*
X491370Y4506653D01*
X491370Y4473331D01*
X499701Y4465000D01*
X516362Y4465000D01*
X524693Y4473331D01*
X524693Y4489992D01*
X508031Y4489992D01*
X471693Y3967653D02*
X463362Y3975984D01*
X446701Y3975984D01*
X438370Y3967653D01*
X438370Y3934331D01*
X446701Y3926000D01*
X463362Y3926000D01*
X471693Y3934331D01*
X471693Y3950992D01*
X455031Y3950992D01*
X1164693Y3937653D02*
X1156362Y3945984D01*
X1139701Y3945984D01*
X1131370Y3937653D01*
X1131370Y3904331D01*
X1139701Y3896000D01*
X1156362Y3896000D01*
X1164693Y3904331D01*
X1164693Y3920992D01*
X1148031Y3920992D01*
X775693Y4094653D02*
X767362Y4102984D01*
X750701Y4102984D01*
X742370Y4094653D01*
X742370Y4061331D01*
X750701Y4053000D01*
X767362Y4053000D01*
X775693Y4061331D01*
X775693Y4077992D01*
X759031Y4077992D01*
X1721071Y1754251D02*
X1712740Y1762582D01*
X1696079Y1762582D01*
X1687748Y1754251D01*
X1687748Y1720929D01*
X1696079Y1712598D01*
X1712740Y1712598D01*
X1721071Y1720929D01*
X1721071Y1737590D01*
X1704409Y1737590D01*
X1965693Y2648653D02*
X1957362Y2656984D01*
X1940701Y2656984D01*
X1932370Y2648653D01*
X1932370Y2615331D01*
X1940701Y2607000D01*
X1957362Y2607000D01*
X1965693Y2615331D01*
X1965693Y2631992D01*
X1949031Y2631992D01*
X1095087Y3785747D02*
X1086756Y3794078D01*
X1070095Y3794078D01*
X1061764Y3785747D01*
X1061764Y3752425D01*
X1070095Y3744094D01*
X1086756Y3744094D01*
X1095087Y3752425D01*
X1095087Y3769086D01*
X1078425Y3769086D01*
X2218741Y1093653D02*
X2210410Y1101984D01*
X2193749Y1101984D01*
X2185418Y1093653D01*
X2185418Y1060331D01*
X2193749Y1052000D01*
X2210410Y1052000D01*
X2218741Y1060331D01*
X2218741Y1076992D01*
X2202079Y1076992D01*
X2541347Y1197677D02*
X2533016Y1206008D01*
X2516355Y1206008D01*
X2508024Y1197677D01*
X2508024Y1164355D01*
X2516355Y1156024D01*
X2533016Y1156024D01*
X2541347Y1164355D01*
X2541347Y1181016D01*
X2524685Y1181016D01*
X1173827Y6138109D02*
X1165496Y6146440D01*
X1148835Y6146440D01*
X1140504Y6138109D01*
X1140504Y6104787D01*
X1148835Y6096456D01*
X1165496Y6096456D01*
X1173827Y6104787D01*
X1173827Y6121448D01*
X1157165Y6121448D01*
X748631Y6295591D02*
X740300Y6303922D01*
X723639Y6303922D01*
X715308Y6295591D01*
X715308Y6262269D01*
X723639Y6253938D01*
X740300Y6253938D01*
X748631Y6262269D01*
X748631Y6278930D01*
X731969Y6278930D01*
X3025507Y4939541D02*
X3017176Y4947872D01*
X3000515Y4947872D01*
X2992184Y4939541D01*
X2992184Y4906219D01*
X3000515Y4897888D01*
X3017176Y4897888D01*
X3025507Y4906219D01*
X3025507Y4922880D01*
X3008845Y4922880D01*
X693513Y5043621D02*
X685182Y5051952D01*
X668521Y5051952D01*
X660190Y5043621D01*
X660190Y5010299D01*
X668521Y5001968D01*
X685182Y5001968D01*
X693513Y5010299D01*
X693513Y5026960D01*
X676851Y5026960D01*
X2302323Y2893653D02*
X2293992Y2901984D01*
X2277331Y2901984D01*
X2269000Y2893653D01*
X2269000Y2860331D01*
X2277331Y2852000D01*
X2293992Y2852000D01*
X2302323Y2860331D01*
X2302323Y2876992D01*
X2285661Y2876992D01*
X1488787Y4941259D02*
X1480456Y4949590D01*
X1463795Y4949590D01*
X1455464Y4941259D01*
X1455464Y4907937D01*
X1463795Y4899606D01*
X1480456Y4899606D01*
X1488787Y4907937D01*
X1488787Y4924598D01*
X1472125Y4924598D01*
X2562323Y5745865D02*
X2553992Y5754196D01*
X2537331Y5754196D01*
X2529000Y5745865D01*
X2529000Y5712543D01*
X2537331Y5704212D01*
X2553992Y5704212D01*
X2562323Y5712543D01*
X2562323Y5729204D01*
X2545661Y5729204D01*
X1684323Y4696653D02*
X1675992Y4704984D01*
X1659331Y4704984D01*
X1651000Y4696653D01*
X1651000Y4663331D01*
X1659331Y4655000D01*
X1675992Y4655000D01*
X1684323Y4663331D01*
X1684323Y4679992D01*
X1667661Y4679992D01*
X1465165Y4771969D02*
X1456834Y4780300D01*
X1440173Y4780300D01*
X1431842Y4771969D01*
X1431842Y4738647D01*
X1440173Y4730316D01*
X1456834Y4730316D01*
X1465165Y4738647D01*
X1465165Y4755308D01*
X1448503Y4755308D01*
X1078323Y5272653D02*
X1069992Y5280984D01*
X1053331Y5280984D01*
X1045000Y5272653D01*
X1045000Y5239331D01*
X1053331Y5231000D01*
X1069992Y5231000D01*
X1078323Y5239331D01*
X1078323Y5255992D01*
X1061661Y5255992D01*
X162015Y4431417D02*
X153684Y4439748D01*
X137023Y4439748D01*
X128692Y4431417D01*
X128692Y4398095D01*
X137023Y4389764D01*
X153684Y4389764D01*
X162015Y4398095D01*
X162015Y4414756D01*
X145353Y4414756D01*
X2831323Y5026653D02*
X2822992Y5034984D01*
X2806331Y5034984D01*
X2798000Y5026653D01*
X2798000Y4993331D01*
X2806331Y4985000D01*
X2822992Y4985000D01*
X2831323Y4993331D01*
X2831323Y5009992D01*
X2814661Y5009992D01*
X2278323Y2747653D02*
X2269992Y2755984D01*
X2253331Y2755984D01*
X2245000Y2747653D01*
X2245000Y2714331D01*
X2253331Y2706000D01*
X2269992Y2706000D01*
X2278323Y2714331D01*
X2278323Y2730992D01*
X2261661Y2730992D01*
X3287323Y2753653D02*
X3278992Y2761984D01*
X3262331Y2761984D01*
X3254000Y2753653D01*
X3254000Y2720331D01*
X3262331Y2712000D01*
X3278992Y2712000D01*
X3287323Y2720331D01*
X3287323Y2736992D01*
X3270661Y2736992D01*
X1347323Y5055653D02*
X1338992Y5063984D01*
X1322331Y5063984D01*
X1314000Y5055653D01*
X1314000Y5022331D01*
X1322331Y5014000D01*
X1338992Y5014000D01*
X1347323Y5022331D01*
X1347323Y5038992D01*
X1330661Y5038992D01*
X725323Y3682653D02*
X716992Y3690984D01*
X700331Y3690984D01*
X692000Y3682653D01*
X692000Y3649331D01*
X700331Y3641000D01*
X716992Y3641000D01*
X725323Y3649331D01*
X725323Y3665992D01*
X708661Y3665992D01*
X2859693Y3752653D02*
X2851362Y3760984D01*
X2834701Y3760984D01*
X2826370Y3752653D01*
X2826370Y3719331D01*
X2834701Y3711000D01*
X2851362Y3711000D01*
X2859693Y3719331D01*
X2859693Y3735992D01*
X2843031Y3735992D01*
X2259323Y1963653D02*
X2250992Y1971984D01*
X2234331Y1971984D01*
X2226000Y1963653D01*
X2226000Y1930331D01*
X2234331Y1922000D01*
X2250992Y1922000D01*
X2259323Y1930331D01*
X2259323Y1946992D01*
X2242661Y1946992D01*
X162015Y4482597D02*
X153684Y4490928D01*
X137023Y4490928D01*
X128692Y4482597D01*
X128692Y4449275D01*
X137023Y4440944D01*
X153684Y4440944D01*
X162015Y4449275D01*
X162015Y4465936D01*
X145353Y4465936D01*
X1006323Y3916653D02*
X997992Y3924984D01*
X981331Y3924984D01*
X973000Y3916653D01*
X973000Y3883331D01*
X981331Y3875000D01*
X997992Y3875000D01*
X1006323Y3883331D01*
X1006323Y3899992D01*
X989661Y3899992D01*
X1104323Y4008653D02*
X1095992Y4016984D01*
X1079331Y4016984D01*
X1071000Y4008653D01*
X1071000Y3975331D01*
X1079331Y3967000D01*
X1095992Y3967000D01*
X1104323Y3975331D01*
X1104323Y3991992D01*
X1087661Y3991992D01*
X1063591Y3903857D02*
X1055260Y3912188D01*
X1038599Y3912188D01*
X1030268Y3903857D01*
X1030268Y3870535D01*
X1038599Y3862204D01*
X1055260Y3862204D01*
X1063591Y3870535D01*
X1063591Y3887196D01*
X1046929Y3887196D01*
X82323Y4179653D02*
X73992Y4187984D01*
X57331Y4187984D01*
X49000Y4179653D01*
X49000Y4146331D01*
X57331Y4138000D01*
X73992Y4138000D01*
X82323Y4146331D01*
X82323Y4162992D01*
X65661Y4162992D01*
X1759323Y2363653D02*
X1750992Y2371984D01*
X1734331Y2371984D01*
X1726000Y2363653D01*
X1726000Y2330331D01*
X1734331Y2322000D01*
X1750992Y2322000D01*
X1759323Y2330331D01*
X1759323Y2346992D01*
X1742661Y2346992D01*
X82323Y4885653D02*
X73992Y4893984D01*
X57331Y4893984D01*
X49000Y4885653D01*
X49000Y4852331D01*
X57331Y4844000D01*
X73992Y4844000D01*
X82323Y4852331D01*
X82323Y4868992D01*
X65661Y4868992D01*
X479323Y3926653D02*
X470992Y3934984D01*
X454331Y3934984D01*
X446000Y3926653D01*
X446000Y3893331D01*
X454331Y3885000D01*
X470992Y3885000D01*
X479323Y3893331D01*
X479323Y3909992D01*
X462661Y3909992D01*
X493323Y3492441D02*
X484992Y3500772D01*
X468331Y3500772D01*
X460000Y3492441D01*
X460000Y3459119D01*
X468331Y3450788D01*
X484992Y3450788D01*
X493323Y3459119D01*
X493323Y3475780D01*
X476661Y3475780D01*
X587823Y5420153D02*
X579492Y5428484D01*
X562831Y5428484D01*
X554500Y5420153D01*
X554500Y5386831D01*
X562831Y5378500D01*
X579492Y5378500D01*
X587823Y5386831D01*
X587823Y5403492D01*
X571161Y5403492D01*
X2516323Y6572653D02*
X2507992Y6580984D01*
X2491331Y6580984D01*
X2483000Y6572653D01*
X2483000Y6539331D01*
X2491331Y6531000D01*
X2507992Y6531000D01*
X2516323Y6539331D01*
X2516323Y6555992D01*
X2499661Y6555992D01*
X2228693Y6603653D02*
X2220362Y6611984D01*
X2203701Y6611984D01*
X2195370Y6603653D01*
X2195370Y6570331D01*
X2203701Y6562000D01*
X2220362Y6562000D01*
X2228693Y6570331D01*
X2228693Y6586992D01*
X2212031Y6586992D01*
X1011957Y5735583D02*
X1003626Y5743914D01*
X986965Y5743914D01*
X978634Y5735583D01*
X978634Y5702261D01*
X986965Y5693930D01*
X1003626Y5693930D01*
X1011957Y5702261D01*
X1011957Y5718922D01*
X995295Y5718922D01*
X1451957Y4860583D02*
X1443626Y4868914D01*
X1426965Y4868914D01*
X1418634Y4860583D01*
X1418634Y4827261D01*
X1426965Y4818930D01*
X1443626Y4818930D01*
X1451957Y4827261D01*
X1451957Y4843922D01*
X1435295Y4843922D01*
X586957Y4350583D02*
X578626Y4358914D01*
X561965Y4358914D01*
X553634Y4350583D01*
X553634Y4317261D01*
X561965Y4308930D01*
X578626Y4308930D01*
X586957Y4317261D01*
X586957Y4333922D01*
X570295Y4333922D01*
X1169023Y8453063D02*
X1160692Y8461394D01*
X1144031Y8461394D01*
X1135700Y8453063D01*
X1135700Y8419741D01*
X1144031Y8411410D01*
X1160692Y8411410D01*
X1169023Y8419741D01*
X1169023Y8436402D01*
X1152361Y8436402D01*
X1172323Y5886653D02*
X1163992Y5894984D01*
X1147331Y5894984D01*
X1139000Y5886653D01*
X1139000Y5853331D01*
X1147331Y5845000D01*
X1163992Y5845000D01*
X1172323Y5853331D01*
X1172323Y5869992D01*
X1155661Y5869992D01*
X833957Y6454583D02*
X825626Y6462914D01*
X808965Y6462914D01*
X800634Y6454583D01*
X800634Y6421261D01*
X808965Y6412930D01*
X825626Y6412930D01*
X833957Y6421261D01*
X833957Y6437922D01*
X817295Y6437922D01*
X764957Y6449583D02*
X756626Y6457914D01*
X739965Y6457914D01*
X731634Y6449583D01*
X731634Y6416261D01*
X739965Y6407930D01*
X756626Y6407930D01*
X764957Y6416261D01*
X764957Y6432922D01*
X748295Y6432922D01*
X258945Y5572221D02*
X250614Y5580552D01*
X233953Y5580552D01*
X225622Y5572221D01*
X225622Y5538899D01*
X233953Y5530568D01*
X250614Y5530568D01*
X258945Y5538899D01*
X258945Y5555560D01*
X242283Y5555560D01*
D208*
X323300Y859252D02*
G03*
X323300Y859252I-20000J0D01*
G01*
X423300Y859252D02*
G03*
X423300Y859252I-20000J0D01*
G01*
X523300Y859252D02*
G03*
X523300Y859252I-20000J0D01*
G01*
X623300Y859252D02*
G03*
X623300Y859252I-20000J0D01*
G01*
X1829700Y3546410D02*
G03*
X1829700Y3546410I-20000J0D01*
G01*
X1929700Y3546410D02*
G03*
X1929700Y3546410I-20000J0D01*
G01*
X2029700Y3546410D02*
G03*
X2029700Y3546410I-20000J0D01*
G01*
X2129700Y3546410D02*
G03*
X2129700Y3546410I-20000J0D01*
G01*
X2329700Y3546410D02*
G03*
X2329700Y3546410I-20000J0D01*
G01*
X2429700Y3546410D02*
G03*
X2429700Y3546410I-20000J0D01*
G01*
X2229700Y3546410D02*
G03*
X2229700Y3546410I-20000J0D01*
G01*
X309702Y1336410D02*
G03*
X309702Y1336410I-20000J0D01*
G01*
X409702Y1336410D02*
G03*
X409702Y1336410I-20000J0D01*
G01*
X1579700Y3346410D02*
G03*
X1579700Y3346410I-20000J0D01*
G01*
X1579700Y3246410D02*
G03*
X1579700Y3246410I-20000J0D01*
G01*
X1579700Y3146410D02*
G03*
X1579700Y3146410I-20000J0D01*
G01*
X2629700Y3346410D02*
G03*
X2629700Y3346410I-20000J0D01*
G01*
X2629700Y3246410D02*
G03*
X2629700Y3246410I-20000J0D01*
G01*
X2629700Y3146410D02*
G03*
X2629700Y3146410I-20000J0D01*
G01*
X294360Y328740D02*
G03*
X294360Y328740I-20000J0D01*
G01*
X394360Y328740D02*
G03*
X394360Y328740I-20000J0D01*
G01*
X494360Y328740D02*
G03*
X494360Y328740I-20000J0D01*
G01*
X594360Y328740D02*
G03*
X594360Y328740I-20000J0D01*
G01*
X694360Y328740D02*
G03*
X694360Y328740I-20000J0D01*
G01*
X794360Y328740D02*
G03*
X794360Y328740I-20000J0D01*
G01*
X1119164Y7101180D02*
G03*
X1119164Y7101180I-20000J0D01*
G01*
X1119164Y7001180D02*
G03*
X1119164Y7001180I-20000J0D01*
G01*
X811686Y7787796D02*
G03*
X811686Y7787796I-20000J0D01*
G01*
X811686Y7687796D02*
G03*
X811686Y7687796I-20000J0D01*
G01*
X811686Y7587796D02*
G03*
X811686Y7587796I-20000J0D01*
G01*
X811686Y7487796D02*
G03*
X811686Y7487796I-20000J0D01*
G01*
X1111686Y7787796D02*
G03*
X1111686Y7787796I-20000J0D01*
G01*
X1111686Y7687796D02*
G03*
X1111686Y7687796I-20000J0D01*
G01*
X1111686Y7587796D02*
G03*
X1111686Y7587796I-20000J0D01*
G01*
X1111686Y7487796D02*
G03*
X1111686Y7487796I-20000J0D01*
G01*
X124680Y6324606D02*
G03*
X124680Y6324606I-20000J0D01*
G01*
X124680Y6224606D02*
G03*
X124680Y6224606I-20000J0D01*
G01*
X124680Y6124606D02*
G03*
X124680Y6124606I-20000J0D01*
G01*
X124680Y6024606D02*
G03*
X124680Y6024606I-20000J0D01*
G01*
X424680Y6324606D02*
G03*
X424680Y6324606I-20000J0D01*
G01*
X424680Y6224606D02*
G03*
X424680Y6224606I-20000J0D01*
G01*
X424680Y6124606D02*
G03*
X424680Y6124606I-20000J0D01*
G01*
X424680Y6024606D02*
G03*
X424680Y6024606I-20000J0D01*
G01*
X263064Y6665158D02*
G03*
X263064Y6665158I-20000J0D01*
G01*
X363064Y6665158D02*
G03*
X363064Y6665158I-20000J0D01*
G01*
X463064Y6665158D02*
G03*
X463064Y6665158I-20000J0D01*
G01*
X563064Y6665158D02*
G03*
X563064Y6665158I-20000J0D01*
G01*
X163064Y6665158D02*
G03*
X163064Y6665158I-20000J0D01*
G01*
X2897512Y3891732D02*
G03*
X2897512Y3891732I-20000J0D01*
G01*
X2797512Y3891732D02*
G03*
X2797512Y3891732I-20000J0D01*
G01*
X2697512Y3891732D02*
G03*
X2697512Y3891732I-20000J0D01*
G01*
X2597512Y3891732D02*
G03*
X2597512Y3891732I-20000J0D01*
G01*
X171528Y7041338D02*
G03*
X171528Y7041338I-20000J0D01*
G01*
X271528Y7041338D02*
G03*
X271528Y7041338I-20000J0D01*
G01*
X371528Y7041338D02*
G03*
X371528Y7041338I-20000J0D01*
G01*
X471528Y7041338D02*
G03*
X471528Y7041338I-20000J0D01*
G01*
X2897512Y4580708D02*
G03*
X2897512Y4580708I-20000J0D01*
G01*
X2797512Y4580708D02*
G03*
X2797512Y4580708I-20000J0D01*
G01*
X2697512Y4580708D02*
G03*
X2697512Y4580708I-20000J0D01*
G01*
X2597512Y4580708D02*
G03*
X2597512Y4580708I-20000J0D01*
G01*
X2346330Y4885826D02*
G03*
X2346330Y4885826I-20000J0D01*
G01*
X2246330Y4885826D02*
G03*
X2246330Y4885826I-20000J0D01*
G01*
X2146330Y4885826D02*
G03*
X2146330Y4885826I-20000J0D01*
G01*
X2046330Y4885826D02*
G03*
X2046330Y4885826I-20000J0D01*
G01*
X2405386Y4187008D02*
G03*
X2405386Y4187008I-20000J0D01*
G01*
X2305386Y4187008D02*
G03*
X2305386Y4187008I-20000J0D01*
G01*
X2205386Y4187008D02*
G03*
X2205386Y4187008I-20000J0D01*
G01*
X2105386Y4187008D02*
G03*
X2105386Y4187008I-20000J0D01*
G01*
X2243182Y5310630D02*
G03*
X2243182Y5310630I-20000J0D01*
G01*
X2343182Y5310630D02*
G03*
X2343182Y5310630I-20000J0D01*
G01*
X2443182Y5310630D02*
G03*
X2443182Y5310630I-20000J0D01*
G01*
X2443182Y5210630D02*
G03*
X2443182Y5210630I-20000J0D01*
G01*
X2343182Y5210630D02*
G03*
X2343182Y5210630I-20000J0D01*
G01*
X2243182Y5210630D02*
G03*
X2243182Y5210630I-20000J0D01*
G01*
D209*
X1111164Y7101180D02*
G03*
X1111164Y7101180I-12000J0D01*
G01*
X1111164Y7001180D02*
G03*
X1111164Y7001180I-12000J0D01*
G01*
%TF.MD5,81407c7cf92984250f235c9c22b4f56c*%
M02*
