G04 Layer_Color=2752767*
%FSLAX26Y26*%
%MOIN*%
%TF.FileFunction,Drawing*%
%TF.Part,Single*%
G01*
G75*
%TA.AperFunction,NonConductor*%
%ADD142C,0.005000*%
%ADD201C,0.006667*%
%ADD202C,0.004000*%
D142*
X-848493Y2697567D02*
X-848493Y2737567D01*
X-808493Y2737567D01*
X-808493Y2697567D01*
X-848493Y2697567D01*
X-898493Y2697567D02*
X-898493Y2737567D01*
X-858493Y2737567D01*
X-858493Y2697567D01*
X-898493Y2697567D01*
X-948493Y2697567D02*
X-948493Y2737567D01*
X-908493Y2737567D01*
X-908493Y2697567D01*
X-948493Y2697567D01*
X-998493Y2697567D02*
X-998493Y2737567D01*
X-958493Y2737567D01*
X-958493Y2697567D01*
X-998493Y2697567D01*
X-1048493Y2697567D02*
X-1048493Y2737567D01*
X-1008493Y2737567D01*
X-1008493Y2697567D01*
X-1048493Y2697567D01*
X-1098493Y2697567D02*
X-1098493Y2737567D01*
X-1058493Y2737567D01*
X-1058493Y2697567D01*
X-1098493Y2697567D01*
X-848493Y2647567D02*
X-848493Y2687567D01*
X-808493Y2687567D01*
X-808493Y2647567D01*
X-848493Y2647567D01*
X-948493Y2647567D02*
X-948493Y2687567D01*
X-908493Y2687567D01*
X-908493Y2647567D01*
X-948493Y2647567D01*
X-998493Y2647567D02*
X-998493Y2687567D01*
X-958493Y2687567D01*
X-958493Y2647567D01*
X-998493Y2647567D01*
X-1048493Y2647567D02*
X-1048493Y2687567D01*
X-1008493Y2687567D01*
X-1008493Y2647567D01*
X-1048493Y2647567D01*
X-898493Y2647567D02*
X-898493Y2687567D01*
X-858493Y2687567D01*
X-858493Y2647567D01*
X-898493Y2647567D01*
X-904115Y4819000D02*
X-924115Y4859000D01*
X-884115Y4859000D01*
X-904115Y4819000D01*
X-647115Y4820000D02*
X-667115Y4860000D01*
X-627115Y4860000D01*
X-647115Y4820000D01*
X-902415Y4527094D02*
X-892415Y4537094D01*
X-882415Y4537094D01*
X-892415Y4547094D01*
X-882415Y4557094D01*
X-892415Y4557094D01*
X-902415Y4567094D01*
X-912415Y4557094D01*
X-922415Y4557094D01*
X-912415Y4547094D01*
X-922415Y4537094D01*
X-912415Y4537094D01*
X-902415Y4527094D01*
X-902415Y4627094D02*
X-892415Y4637094D01*
X-882415Y4637094D01*
X-892415Y4647094D01*
X-882415Y4657094D01*
X-892415Y4657094D01*
X-902415Y4667094D01*
X-912415Y4657094D01*
X-922415Y4657094D01*
X-912415Y4647094D01*
X-922415Y4637094D01*
X-912415Y4637094D01*
X-902415Y4627094D01*
X-14115Y4624000D02*
X-34115Y4664000D01*
X5885Y4664000D01*
X-14115Y4624000D01*
X-73745Y-245000D02*
X-63745Y-225000D01*
X-73745Y-205000D01*
X-53745Y-215000D01*
X-33745Y-205000D01*
X-43745Y-225000D01*
X-33745Y-245000D01*
X-53745Y-235000D01*
X-73745Y-245000D01*
X-73745Y-345000D02*
X-63745Y-325000D01*
X-73745Y-305000D01*
X-53745Y-315000D01*
X-33745Y-305000D01*
X-43745Y-325000D01*
X-33745Y-345000D01*
X-53745Y-335000D01*
X-73745Y-345000D01*
X-73745Y-445000D02*
X-63745Y-425000D01*
X-73745Y-405000D01*
X-53745Y-415000D01*
X-33745Y-405000D01*
X-43745Y-425000D01*
X-33745Y-445000D01*
X-53745Y-435000D01*
X-73745Y-445000D01*
X-73745Y-545000D02*
X-63745Y-525000D01*
X-73745Y-505000D01*
X-53745Y-515000D01*
X-33745Y-505000D01*
X-43745Y-525000D01*
X-33745Y-545000D01*
X-53745Y-535000D01*
X-73745Y-545000D01*
X-73745Y-645000D02*
X-63745Y-625000D01*
X-73745Y-605000D01*
X-53745Y-615000D01*
X-33745Y-605000D01*
X-43745Y-625000D01*
X-33745Y-645000D01*
X-53745Y-635000D01*
X-73745Y-645000D01*
X-73745Y-745000D02*
X-63745Y-725000D01*
X-73745Y-705000D01*
X-53745Y-715000D01*
X-33745Y-705000D01*
X-43745Y-725000D01*
X-33745Y-745000D01*
X-53745Y-735000D01*
X-73745Y-745000D01*
X-73745Y-845000D02*
X-63745Y-825000D01*
X-73745Y-805000D01*
X-53745Y-815000D01*
X-33745Y-805000D01*
X-43745Y-825000D01*
X-33745Y-845000D01*
X-53745Y-835000D01*
X-73745Y-845000D01*
X-73745Y-945000D02*
X-63745Y-925000D01*
X-73745Y-905000D01*
X-53745Y-915000D01*
X-33745Y-905000D01*
X-43745Y-925000D01*
X-33745Y-945000D01*
X-53745Y-935000D01*
X-73745Y-945000D01*
X-73745Y-1045000D02*
X-63745Y-1025000D01*
X-73745Y-1005000D01*
X-53745Y-1015000D01*
X-33745Y-1005000D01*
X-43745Y-1025000D01*
X-33745Y-1045000D01*
X-53745Y-1035000D01*
X-73745Y-1045000D01*
X-73745Y-1145000D02*
X-63745Y-1125000D01*
X-73745Y-1105000D01*
X-53745Y-1115000D01*
X-33745Y-1105000D01*
X-43745Y-1125000D01*
X-33745Y-1145000D01*
X-53745Y-1135000D01*
X-73745Y-1145000D01*
X-73745Y-1245000D02*
X-63745Y-1225000D01*
X-73745Y-1205000D01*
X-53745Y-1215000D01*
X-33745Y-1205000D01*
X-43745Y-1225000D01*
X-33745Y-1245000D01*
X-53745Y-1235000D01*
X-73745Y-1245000D01*
X-73745Y-1345000D02*
X-63745Y-1325000D01*
X-73745Y-1305000D01*
X-53745Y-1315000D01*
X-33745Y-1305000D01*
X-43745Y-1325000D01*
X-33745Y-1345000D01*
X-53745Y-1335000D01*
X-73745Y-1345000D01*
X-73745Y-1445000D02*
X-63745Y-1425000D01*
X-73745Y-1405000D01*
X-53745Y-1415000D01*
X-33745Y-1405000D01*
X-43745Y-1425000D01*
X-33745Y-1445000D01*
X-53745Y-1435000D01*
X-73745Y-1445000D01*
X-73745Y-1545000D02*
X-63745Y-1525000D01*
X-73745Y-1505000D01*
X-53745Y-1515000D01*
X-33745Y-1505000D01*
X-43745Y-1525000D01*
X-33745Y-1545000D01*
X-53745Y-1535000D01*
X-73745Y-1545000D01*
X-73745Y-1645000D02*
X-63745Y-1625000D01*
X-73745Y-1605000D01*
X-53745Y-1615000D01*
X-33745Y-1605000D01*
X-43745Y-1625000D01*
X-33745Y-1645000D01*
X-53745Y-1635000D01*
X-73745Y-1645000D01*
X-73745Y-1745000D02*
X-63745Y-1725000D01*
X-73745Y-1705000D01*
X-53745Y-1715000D01*
X-33745Y-1705000D01*
X-43745Y-1725000D01*
X-33745Y-1745000D01*
X-53745Y-1735000D01*
X-73745Y-1745000D01*
X-73745Y-1845000D02*
X-63745Y-1825000D01*
X-73745Y-1805000D01*
X-53745Y-1815000D01*
X-33745Y-1805000D01*
X-43745Y-1825000D01*
X-33745Y-1845000D01*
X-53745Y-1835000D01*
X-73745Y-1845000D01*
X-73745Y-1945000D02*
X-63745Y-1925000D01*
X-73745Y-1905000D01*
X-53745Y-1915000D01*
X-33745Y-1905000D01*
X-43745Y-1925000D01*
X-33745Y-1945000D01*
X-53745Y-1935000D01*
X-73745Y-1945000D01*
X-73745Y-2045000D02*
X-63745Y-2025000D01*
X-73745Y-2005000D01*
X-53745Y-2015000D01*
X-33745Y-2005000D01*
X-43745Y-2025000D01*
X-33745Y-2045000D01*
X-53745Y-2035000D01*
X-73745Y-2045000D01*
X-73745Y-2145000D02*
X-63745Y-2125000D01*
X-73745Y-2105000D01*
X-53745Y-2115000D01*
X-33745Y-2105000D01*
X-43745Y-2125000D01*
X-33745Y-2145000D01*
X-53745Y-2135000D01*
X-73745Y-2145000D01*
X-73745Y-2245000D02*
X-63745Y-2225000D01*
X-73745Y-2205000D01*
X-53745Y-2215000D01*
X-33745Y-2205000D01*
X-43745Y-2225000D01*
X-33745Y-2245000D01*
X-53745Y-2235000D01*
X-73745Y-2245000D01*
X-73745Y-2345000D02*
X-63745Y-2325000D01*
X-73745Y-2305000D01*
X-53745Y-2315000D01*
X-33745Y-2305000D01*
X-43745Y-2325000D01*
X-33745Y-2345000D01*
X-53745Y-2335000D01*
X-73745Y-2345000D01*
X-73745Y-2445000D02*
X-63745Y-2425000D01*
X-73745Y-2405000D01*
X-53745Y-2415000D01*
X-33745Y-2405000D01*
X-43745Y-2425000D01*
X-33745Y-2445000D01*
X-53745Y-2435000D01*
X-73745Y-2445000D01*
X-173745Y-345000D02*
X-163745Y-325000D01*
X-173745Y-305000D01*
X-153745Y-315000D01*
X-133745Y-305000D01*
X-143745Y-325000D01*
X-133745Y-345000D01*
X-153745Y-335000D01*
X-173745Y-345000D01*
X-173745Y-445000D02*
X-163745Y-425000D01*
X-173745Y-405000D01*
X-153745Y-415000D01*
X-133745Y-405000D01*
X-143745Y-425000D01*
X-133745Y-445000D01*
X-153745Y-435000D01*
X-173745Y-445000D01*
X-173745Y-545000D02*
X-163745Y-525000D01*
X-173745Y-505000D01*
X-153745Y-515000D01*
X-133745Y-505000D01*
X-143745Y-525000D01*
X-133745Y-545000D01*
X-153745Y-535000D01*
X-173745Y-545000D01*
X-173745Y-645000D02*
X-163745Y-625000D01*
X-173745Y-605000D01*
X-153745Y-615000D01*
X-133745Y-605000D01*
X-143745Y-625000D01*
X-133745Y-645000D01*
X-153745Y-635000D01*
X-173745Y-645000D01*
X-173745Y-745000D02*
X-163745Y-725000D01*
X-173745Y-705000D01*
X-153745Y-715000D01*
X-133745Y-705000D01*
X-143745Y-725000D01*
X-133745Y-745000D01*
X-153745Y-735000D01*
X-173745Y-745000D01*
X-173745Y-845000D02*
X-163745Y-825000D01*
X-173745Y-805000D01*
X-153745Y-815000D01*
X-133745Y-805000D01*
X-143745Y-825000D01*
X-133745Y-845000D01*
X-153745Y-835000D01*
X-173745Y-845000D01*
X-173745Y-945000D02*
X-163745Y-925000D01*
X-173745Y-905000D01*
X-153745Y-915000D01*
X-133745Y-905000D01*
X-143745Y-925000D01*
X-133745Y-945000D01*
X-153745Y-935000D01*
X-173745Y-945000D01*
X-173745Y-1045000D02*
X-163745Y-1025000D01*
X-173745Y-1005000D01*
X-153745Y-1015000D01*
X-133745Y-1005000D01*
X-143745Y-1025000D01*
X-133745Y-1045000D01*
X-153745Y-1035000D01*
X-173745Y-1045000D01*
X-173745Y-1145000D02*
X-163745Y-1125000D01*
X-173745Y-1105000D01*
X-153745Y-1115000D01*
X-133745Y-1105000D01*
X-143745Y-1125000D01*
X-133745Y-1145000D01*
X-153745Y-1135000D01*
X-173745Y-1145000D01*
X-173745Y-1245000D02*
X-163745Y-1225000D01*
X-173745Y-1205000D01*
X-153745Y-1215000D01*
X-133745Y-1205000D01*
X-143745Y-1225000D01*
X-133745Y-1245000D01*
X-153745Y-1235000D01*
X-173745Y-1245000D01*
X-173745Y-1345000D02*
X-163745Y-1325000D01*
X-173745Y-1305000D01*
X-153745Y-1315000D01*
X-133745Y-1305000D01*
X-143745Y-1325000D01*
X-133745Y-1345000D01*
X-153745Y-1335000D01*
X-173745Y-1345000D01*
X-173745Y-1445000D02*
X-163745Y-1425000D01*
X-173745Y-1405000D01*
X-153745Y-1415000D01*
X-133745Y-1405000D01*
X-143745Y-1425000D01*
X-133745Y-1445000D01*
X-153745Y-1435000D01*
X-173745Y-1445000D01*
X-173745Y-1545000D02*
X-163745Y-1525000D01*
X-173745Y-1505000D01*
X-153745Y-1515000D01*
X-133745Y-1505000D01*
X-143745Y-1525000D01*
X-133745Y-1545000D01*
X-153745Y-1535000D01*
X-173745Y-1545000D01*
X-173745Y-1645000D02*
X-163745Y-1625000D01*
X-173745Y-1605000D01*
X-153745Y-1615000D01*
X-133745Y-1605000D01*
X-143745Y-1625000D01*
X-133745Y-1645000D01*
X-153745Y-1635000D01*
X-173745Y-1645000D01*
X-173745Y-1745000D02*
X-163745Y-1725000D01*
X-173745Y-1705000D01*
X-153745Y-1715000D01*
X-133745Y-1705000D01*
X-143745Y-1725000D01*
X-133745Y-1745000D01*
X-153745Y-1735000D01*
X-173745Y-1745000D01*
X-173745Y-1845000D02*
X-163745Y-1825000D01*
X-173745Y-1805000D01*
X-153745Y-1815000D01*
X-133745Y-1805000D01*
X-143745Y-1825000D01*
X-133745Y-1845000D01*
X-153745Y-1835000D01*
X-173745Y-1845000D01*
X-173745Y-1945000D02*
X-163745Y-1925000D01*
X-173745Y-1905000D01*
X-153745Y-1915000D01*
X-133745Y-1905000D01*
X-143745Y-1925000D01*
X-133745Y-1945000D01*
X-153745Y-1935000D01*
X-173745Y-1945000D01*
X-173745Y-2045000D02*
X-163745Y-2025000D01*
X-173745Y-2005000D01*
X-153745Y-2015000D01*
X-133745Y-2005000D01*
X-143745Y-2025000D01*
X-133745Y-2045000D01*
X-153745Y-2035000D01*
X-173745Y-2045000D01*
X-173745Y-2145000D02*
X-163745Y-2125000D01*
X-173745Y-2105000D01*
X-153745Y-2115000D01*
X-133745Y-2105000D01*
X-143745Y-2125000D01*
X-133745Y-2145000D01*
X-153745Y-2135000D01*
X-173745Y-2145000D01*
X-173745Y-2245000D02*
X-163745Y-2225000D01*
X-173745Y-2205000D01*
X-153745Y-2215000D01*
X-133745Y-2205000D01*
X-143745Y-2225000D01*
X-133745Y-2245000D01*
X-153745Y-2235000D01*
X-173745Y-2245000D01*
X-173745Y-2345000D02*
X-163745Y-2325000D01*
X-173745Y-2305000D01*
X-153745Y-2315000D01*
X-133745Y-2305000D01*
X-143745Y-2325000D01*
X-133745Y-2345000D01*
X-153745Y-2335000D01*
X-173745Y-2345000D01*
X-173745Y-2445000D02*
X-163745Y-2425000D01*
X-173745Y-2405000D01*
X-153745Y-2415000D01*
X-133745Y-2405000D01*
X-143745Y-2425000D01*
X-133745Y-2445000D01*
X-153745Y-2435000D01*
X-173745Y-2445000D01*
X1726255Y-245000D02*
X1736255Y-225000D01*
X1726255Y-205000D01*
X1746255Y-215000D01*
X1766255Y-205000D01*
X1756255Y-225000D01*
X1766255Y-245000D01*
X1746255Y-235000D01*
X1726255Y-245000D01*
X1826255Y-245000D02*
X1836255Y-225000D01*
X1826255Y-205000D01*
X1846255Y-215000D01*
X1866255Y-205000D01*
X1856255Y-225000D01*
X1866255Y-245000D01*
X1846255Y-235000D01*
X1826255Y-245000D01*
X1826255Y-345000D02*
X1836255Y-325000D01*
X1826255Y-305000D01*
X1846255Y-315000D01*
X1866255Y-305000D01*
X1856255Y-325000D01*
X1866255Y-345000D01*
X1846255Y-335000D01*
X1826255Y-345000D01*
X1826255Y-445000D02*
X1836255Y-425000D01*
X1826255Y-405000D01*
X1846255Y-415000D01*
X1866255Y-405000D01*
X1856255Y-425000D01*
X1866255Y-445000D01*
X1846255Y-435000D01*
X1826255Y-445000D01*
X1826255Y-545000D02*
X1836255Y-525000D01*
X1826255Y-505000D01*
X1846255Y-515000D01*
X1866255Y-505000D01*
X1856255Y-525000D01*
X1866255Y-545000D01*
X1846255Y-535000D01*
X1826255Y-545000D01*
X1826255Y-645000D02*
X1836255Y-625000D01*
X1826255Y-605000D01*
X1846255Y-615000D01*
X1866255Y-605000D01*
X1856255Y-625000D01*
X1866255Y-645000D01*
X1846255Y-635000D01*
X1826255Y-645000D01*
X1826255Y-745000D02*
X1836255Y-725000D01*
X1826255Y-705000D01*
X1846255Y-715000D01*
X1866255Y-705000D01*
X1856255Y-725000D01*
X1866255Y-745000D01*
X1846255Y-735000D01*
X1826255Y-745000D01*
X1826255Y-845000D02*
X1836255Y-825000D01*
X1826255Y-805000D01*
X1846255Y-815000D01*
X1866255Y-805000D01*
X1856255Y-825000D01*
X1866255Y-845000D01*
X1846255Y-835000D01*
X1826255Y-845000D01*
X1826255Y-945000D02*
X1836255Y-925000D01*
X1826255Y-905000D01*
X1846255Y-915000D01*
X1866255Y-905000D01*
X1856255Y-925000D01*
X1866255Y-945000D01*
X1846255Y-935000D01*
X1826255Y-945000D01*
X1826255Y-1045000D02*
X1836255Y-1025000D01*
X1826255Y-1005000D01*
X1846255Y-1015000D01*
X1866255Y-1005000D01*
X1856255Y-1025000D01*
X1866255Y-1045000D01*
X1846255Y-1035000D01*
X1826255Y-1045000D01*
X1826255Y-1145000D02*
X1836255Y-1125000D01*
X1826255Y-1105000D01*
X1846255Y-1115000D01*
X1866255Y-1105000D01*
X1856255Y-1125000D01*
X1866255Y-1145000D01*
X1846255Y-1135000D01*
X1826255Y-1145000D01*
X1826255Y-1245000D02*
X1836255Y-1225000D01*
X1826255Y-1205000D01*
X1846255Y-1215000D01*
X1866255Y-1205000D01*
X1856255Y-1225000D01*
X1866255Y-1245000D01*
X1846255Y-1235000D01*
X1826255Y-1245000D01*
X1826255Y-1345000D02*
X1836255Y-1325000D01*
X1826255Y-1305000D01*
X1846255Y-1315000D01*
X1866255Y-1305000D01*
X1856255Y-1325000D01*
X1866255Y-1345000D01*
X1846255Y-1335000D01*
X1826255Y-1345000D01*
X1826255Y-1445000D02*
X1836255Y-1425000D01*
X1826255Y-1405000D01*
X1846255Y-1415000D01*
X1866255Y-1405000D01*
X1856255Y-1425000D01*
X1866255Y-1445000D01*
X1846255Y-1435000D01*
X1826255Y-1445000D01*
X1826255Y-1545000D02*
X1836255Y-1525000D01*
X1826255Y-1505000D01*
X1846255Y-1515000D01*
X1866255Y-1505000D01*
X1856255Y-1525000D01*
X1866255Y-1545000D01*
X1846255Y-1535000D01*
X1826255Y-1545000D01*
X1826255Y-1645000D02*
X1836255Y-1625000D01*
X1826255Y-1605000D01*
X1846255Y-1615000D01*
X1866255Y-1605000D01*
X1856255Y-1625000D01*
X1866255Y-1645000D01*
X1846255Y-1635000D01*
X1826255Y-1645000D01*
X1826255Y-1745000D02*
X1836255Y-1725000D01*
X1826255Y-1705000D01*
X1846255Y-1715000D01*
X1866255Y-1705000D01*
X1856255Y-1725000D01*
X1866255Y-1745000D01*
X1846255Y-1735000D01*
X1826255Y-1745000D01*
X1826255Y-1845000D02*
X1836255Y-1825000D01*
X1826255Y-1805000D01*
X1846255Y-1815000D01*
X1866255Y-1805000D01*
X1856255Y-1825000D01*
X1866255Y-1845000D01*
X1846255Y-1835000D01*
X1826255Y-1845000D01*
X1826255Y-1945000D02*
X1836255Y-1925000D01*
X1826255Y-1905000D01*
X1846255Y-1915000D01*
X1866255Y-1905000D01*
X1856255Y-1925000D01*
X1866255Y-1945000D01*
X1846255Y-1935000D01*
X1826255Y-1945000D01*
X1826255Y-2045000D02*
X1836255Y-2025000D01*
X1826255Y-2005000D01*
X1846255Y-2015000D01*
X1866255Y-2005000D01*
X1856255Y-2025000D01*
X1866255Y-2045000D01*
X1846255Y-2035000D01*
X1826255Y-2045000D01*
X1826255Y-2145000D02*
X1836255Y-2125000D01*
X1826255Y-2105000D01*
X1846255Y-2115000D01*
X1866255Y-2105000D01*
X1856255Y-2125000D01*
X1866255Y-2145000D01*
X1846255Y-2135000D01*
X1826255Y-2145000D01*
X1826255Y-2245000D02*
X1836255Y-2225000D01*
X1826255Y-2205000D01*
X1846255Y-2215000D01*
X1866255Y-2205000D01*
X1856255Y-2225000D01*
X1866255Y-2245000D01*
X1846255Y-2235000D01*
X1826255Y-2245000D01*
X1826255Y-2345000D02*
X1836255Y-2325000D01*
X1826255Y-2305000D01*
X1846255Y-2315000D01*
X1866255Y-2305000D01*
X1856255Y-2325000D01*
X1866255Y-2345000D01*
X1846255Y-2335000D01*
X1826255Y-2345000D01*
X1826255Y-2445000D02*
X1836255Y-2425000D01*
X1826255Y-2405000D01*
X1846255Y-2415000D01*
X1866255Y-2405000D01*
X1856255Y-2425000D01*
X1866255Y-2445000D01*
X1846255Y-2435000D01*
X1826255Y-2445000D01*
X1726255Y-345000D02*
X1736255Y-325000D01*
X1726255Y-305000D01*
X1746255Y-315000D01*
X1766255Y-305000D01*
X1756255Y-325000D01*
X1766255Y-345000D01*
X1746255Y-335000D01*
X1726255Y-345000D01*
X1726255Y-445000D02*
X1736255Y-425000D01*
X1726255Y-405000D01*
X1746255Y-415000D01*
X1766255Y-405000D01*
X1756255Y-425000D01*
X1766255Y-445000D01*
X1746255Y-435000D01*
X1726255Y-445000D01*
X1726255Y-545000D02*
X1736255Y-525000D01*
X1726255Y-505000D01*
X1746255Y-515000D01*
X1766255Y-505000D01*
X1756255Y-525000D01*
X1766255Y-545000D01*
X1746255Y-535000D01*
X1726255Y-545000D01*
X1726255Y-645000D02*
X1736255Y-625000D01*
X1726255Y-605000D01*
X1746255Y-615000D01*
X1766255Y-605000D01*
X1756255Y-625000D01*
X1766255Y-645000D01*
X1746255Y-635000D01*
X1726255Y-645000D01*
X1726255Y-745000D02*
X1736255Y-725000D01*
X1726255Y-705000D01*
X1746255Y-715000D01*
X1766255Y-705000D01*
X1756255Y-725000D01*
X1766255Y-745000D01*
X1746255Y-735000D01*
X1726255Y-745000D01*
X1726255Y-845000D02*
X1736255Y-825000D01*
X1726255Y-805000D01*
X1746255Y-815000D01*
X1766255Y-805000D01*
X1756255Y-825000D01*
X1766255Y-845000D01*
X1746255Y-835000D01*
X1726255Y-845000D01*
X1726255Y-945000D02*
X1736255Y-925000D01*
X1726255Y-905000D01*
X1746255Y-915000D01*
X1766255Y-905000D01*
X1756255Y-925000D01*
X1766255Y-945000D01*
X1746255Y-935000D01*
X1726255Y-945000D01*
X1726255Y-1045000D02*
X1736255Y-1025000D01*
X1726255Y-1005000D01*
X1746255Y-1015000D01*
X1766255Y-1005000D01*
X1756255Y-1025000D01*
X1766255Y-1045000D01*
X1746255Y-1035000D01*
X1726255Y-1045000D01*
X1726255Y-1145000D02*
X1736255Y-1125000D01*
X1726255Y-1105000D01*
X1746255Y-1115000D01*
X1766255Y-1105000D01*
X1756255Y-1125000D01*
X1766255Y-1145000D01*
X1746255Y-1135000D01*
X1726255Y-1145000D01*
X1726255Y-1245000D02*
X1736255Y-1225000D01*
X1726255Y-1205000D01*
X1746255Y-1215000D01*
X1766255Y-1205000D01*
X1756255Y-1225000D01*
X1766255Y-1245000D01*
X1746255Y-1235000D01*
X1726255Y-1245000D01*
X1726255Y-1345000D02*
X1736255Y-1325000D01*
X1726255Y-1305000D01*
X1746255Y-1315000D01*
X1766255Y-1305000D01*
X1756255Y-1325000D01*
X1766255Y-1345000D01*
X1746255Y-1335000D01*
X1726255Y-1345000D01*
X1726255Y-1445000D02*
X1736255Y-1425000D01*
X1726255Y-1405000D01*
X1746255Y-1415000D01*
X1766255Y-1405000D01*
X1756255Y-1425000D01*
X1766255Y-1445000D01*
X1746255Y-1435000D01*
X1726255Y-1445000D01*
X1726255Y-1545000D02*
X1736255Y-1525000D01*
X1726255Y-1505000D01*
X1746255Y-1515000D01*
X1766255Y-1505000D01*
X1756255Y-1525000D01*
X1766255Y-1545000D01*
X1746255Y-1535000D01*
X1726255Y-1545000D01*
X1726255Y-1645000D02*
X1736255Y-1625000D01*
X1726255Y-1605000D01*
X1746255Y-1615000D01*
X1766255Y-1605000D01*
X1756255Y-1625000D01*
X1766255Y-1645000D01*
X1746255Y-1635000D01*
X1726255Y-1645000D01*
X1726255Y-1745000D02*
X1736255Y-1725000D01*
X1726255Y-1705000D01*
X1746255Y-1715000D01*
X1766255Y-1705000D01*
X1756255Y-1725000D01*
X1766255Y-1745000D01*
X1746255Y-1735000D01*
X1726255Y-1745000D01*
X1726255Y-1845000D02*
X1736255Y-1825000D01*
X1726255Y-1805000D01*
X1746255Y-1815000D01*
X1766255Y-1805000D01*
X1756255Y-1825000D01*
X1766255Y-1845000D01*
X1746255Y-1835000D01*
X1726255Y-1845000D01*
X1726255Y-1945000D02*
X1736255Y-1925000D01*
X1726255Y-1905000D01*
X1746255Y-1915000D01*
X1766255Y-1905000D01*
X1756255Y-1925000D01*
X1766255Y-1945000D01*
X1746255Y-1935000D01*
X1726255Y-1945000D01*
X1726255Y-2045000D02*
X1736255Y-2025000D01*
X1726255Y-2005000D01*
X1746255Y-2015000D01*
X1766255Y-2005000D01*
X1756255Y-2025000D01*
X1766255Y-2045000D01*
X1746255Y-2035000D01*
X1726255Y-2045000D01*
X1726255Y-2145000D02*
X1736255Y-2125000D01*
X1726255Y-2105000D01*
X1746255Y-2115000D01*
X1766255Y-2105000D01*
X1756255Y-2125000D01*
X1766255Y-2145000D01*
X1746255Y-2135000D01*
X1726255Y-2145000D01*
X1726255Y-2245000D02*
X1736255Y-2225000D01*
X1726255Y-2205000D01*
X1746255Y-2215000D01*
X1766255Y-2205000D01*
X1756255Y-2225000D01*
X1766255Y-2245000D01*
X1746255Y-2235000D01*
X1726255Y-2245000D01*
X1726255Y-2345000D02*
X1736255Y-2325000D01*
X1726255Y-2305000D01*
X1746255Y-2315000D01*
X1766255Y-2305000D01*
X1756255Y-2325000D01*
X1766255Y-2345000D01*
X1746255Y-2335000D01*
X1726255Y-2345000D01*
X1726255Y-2445000D02*
X1736255Y-2425000D01*
X1726255Y-2405000D01*
X1746255Y-2415000D01*
X1766255Y-2405000D01*
X1756255Y-2425000D01*
X1766255Y-2445000D01*
X1746255Y-2435000D01*
X1726255Y-2445000D01*
X-163745Y-235000D02*
X-163745Y-245000D01*
X-143745Y-245000D01*
X-143745Y-235000D01*
X-133745Y-235000D01*
X-133745Y-215000D01*
X-143745Y-215000D01*
X-143745Y-205000D01*
X-163745Y-205000D01*
X-163745Y-215000D01*
X-173745Y-215000D01*
X-173745Y-235000D01*
X-163745Y-235000D01*
X-355147Y2326722D02*
X-345147Y2326722D01*
X-335147Y2336722D01*
X-325147Y2326722D01*
X-315147Y2326722D01*
X-315147Y2336722D01*
X-325147Y2346722D01*
X-315147Y2356722D01*
X-315147Y2366722D01*
X-325147Y2366722D01*
X-335147Y2356722D01*
X-345147Y2366722D01*
X-355147Y2366722D01*
X-355147Y2356722D01*
X-345147Y2346722D01*
X-355147Y2336722D01*
X-355147Y2326722D01*
X-355147Y3399122D02*
X-345147Y3399122D01*
X-335147Y3409122D01*
X-325147Y3399122D01*
X-315147Y3399122D01*
X-315147Y3409122D01*
X-325147Y3419122D01*
X-315147Y3429122D01*
X-315147Y3439122D01*
X-325147Y3439122D01*
X-335147Y3429122D01*
X-345147Y3439122D01*
X-355147Y3439122D01*
X-355147Y3429122D01*
X-345147Y3419122D01*
X-355147Y3409122D01*
X-355147Y3399122D01*
X-355147Y3257222D02*
X-335147Y3277222D01*
X-315147Y3257222D01*
X-335147Y3237222D01*
X-355147Y3257222D01*
X-356747Y2508622D02*
X-336747Y2528622D01*
X-316747Y2508622D01*
X-336747Y2488622D01*
X-356747Y2508622D01*
X894853Y2971190D02*
X894853Y3011190D01*
X934853Y3011190D01*
X934853Y2971190D01*
X894853Y2971190D01*
X902853Y2979190D02*
X902853Y3003190D01*
X926853Y3003190D01*
X926853Y2979190D01*
X902853Y2979190D01*
X94853Y3371190D02*
X94853Y3411190D01*
X134853Y3411190D01*
X134853Y3371190D01*
X94853Y3371190D01*
X102853Y3379190D02*
X102853Y3403190D01*
X126853Y3403190D01*
X126853Y3379190D01*
X102853Y3379190D01*
X94853Y3071190D02*
X94853Y3111190D01*
X134853Y3111190D01*
X134853Y3071190D01*
X94853Y3071190D01*
X102853Y3079190D02*
X102853Y3103190D01*
X126853Y3103190D01*
X126853Y3079190D01*
X102853Y3079190D01*
X94853Y2871190D02*
X94853Y2911190D01*
X134853Y2911190D01*
X134853Y2871190D01*
X94853Y2871190D01*
X102853Y2879190D02*
X102853Y2903190D01*
X126853Y2903190D01*
X126853Y2879190D01*
X102853Y2879190D01*
X894853Y3371190D02*
X894853Y3411190D01*
X934853Y3411190D01*
X934853Y3371190D01*
X894853Y3371190D01*
X902853Y3379190D02*
X902853Y3403190D01*
X926853Y3403190D01*
X926853Y3379190D01*
X902853Y3379190D01*
X894853Y2571190D02*
X894853Y2611190D01*
X934853Y2611190D01*
X934853Y2571190D01*
X894853Y2571190D01*
X902853Y2579190D02*
X902853Y2603190D01*
X926853Y2603190D01*
X926853Y2579190D01*
X902853Y2579190D01*
X1815585Y5359410D02*
X1795585Y5399410D01*
X1835585Y5399410D01*
X1815585Y5359410D01*
X1815585Y5367410D02*
X1803585Y5391410D01*
X1827585Y5391410D01*
X1815585Y5367410D01*
X1915585Y5259410D02*
X1895585Y5299410D01*
X1935585Y5299410D01*
X1915585Y5259410D01*
X1915585Y5267410D02*
X1903585Y5291410D01*
X1927585Y5291410D01*
X1915585Y5267410D01*
X1715585Y5259410D02*
X1695585Y5299410D01*
X1735585Y5299410D01*
X1715585Y5259410D01*
X1715585Y5267410D02*
X1703585Y5291410D01*
X1727585Y5291410D01*
X1715585Y5267410D01*
X496885Y4923000D02*
X506885Y4933000D01*
X516885Y4933000D01*
X506885Y4943000D01*
X516885Y4953000D01*
X506885Y4953000D01*
X496885Y4963000D01*
X486885Y4953000D01*
X476885Y4953000D01*
X486885Y4943000D01*
X476885Y4933000D01*
X486885Y4933000D01*
X496885Y4923000D01*
X496885Y4931000D02*
X502885Y4937000D01*
X508885Y4937000D01*
X502885Y4943000D01*
X508885Y4949000D01*
X502885Y4949000D01*
X496885Y4955000D01*
X490885Y4949000D01*
X484885Y4949000D01*
X490885Y4943000D01*
X484885Y4937000D01*
X490885Y4937000D01*
X496885Y4931000D01*
X626885Y4623000D02*
X636885Y4643000D01*
X626885Y4663000D01*
X646885Y4653000D01*
X666885Y4663000D01*
X656885Y4643000D01*
X666885Y4623000D01*
X646885Y4633000D01*
X626885Y4623000D01*
X634885Y4631000D02*
X640885Y4643000D01*
X634885Y4655000D01*
X646885Y4649000D01*
X658885Y4655000D01*
X652885Y4643000D01*
X658885Y4631000D01*
X646885Y4637000D01*
X634885Y4631000D01*
X326885Y4623000D02*
X336885Y4643000D01*
X326885Y4663000D01*
X346885Y4653000D01*
X366885Y4663000D01*
X356885Y4643000D01*
X366885Y4623000D01*
X346885Y4633000D01*
X326885Y4623000D01*
X334885Y4631000D02*
X340885Y4643000D01*
X334885Y4655000D01*
X346885Y4649000D01*
X358885Y4655000D01*
X352885Y4643000D01*
X358885Y4631000D01*
X346885Y4637000D01*
X334885Y4631000D01*
X-660107Y4636700D02*
X-660107Y4626700D01*
X-640107Y4626700D01*
X-640107Y4636700D01*
X-630107Y4636700D01*
X-630107Y4656700D01*
X-640107Y4656700D01*
X-640107Y4666700D01*
X-660107Y4666700D01*
X-660107Y4656700D01*
X-670107Y4656700D01*
X-670107Y4636700D01*
X-660107Y4636700D01*
X-660107Y4487094D02*
X-660107Y4477094D01*
X-640107Y4477094D01*
X-640107Y4487094D01*
X-630107Y4487094D01*
X-630107Y4507094D01*
X-640107Y4507094D01*
X-640107Y4517094D01*
X-660107Y4517094D01*
X-660107Y4507094D01*
X-670107Y4507094D01*
X-670107Y4487094D01*
X-660107Y4487094D01*
X1190287Y3084732D02*
X1190287Y3074732D01*
X1210287Y3074732D01*
X1210287Y3084732D01*
X1220287Y3084732D01*
X1220287Y3104732D01*
X1210287Y3104732D01*
X1210287Y3114732D01*
X1190287Y3114732D01*
X1190287Y3104732D01*
X1180287Y3104732D01*
X1180287Y3084732D01*
X1190287Y3084732D01*
X1194287Y3088732D02*
X1194287Y3082732D01*
X1206287Y3082732D01*
X1206287Y3088732D01*
X1212287Y3088732D01*
X1212287Y3100732D01*
X1206287Y3100732D01*
X1206287Y3106732D01*
X1194287Y3106732D01*
X1194287Y3100732D01*
X1188287Y3100732D01*
X1188287Y3088732D01*
X1194287Y3088732D01*
X1190287Y2784732D02*
X1190287Y2774732D01*
X1210287Y2774732D01*
X1210287Y2784732D01*
X1220287Y2784732D01*
X1220287Y2804732D01*
X1210287Y2804732D01*
X1210287Y2814732D01*
X1190287Y2814732D01*
X1190287Y2804732D01*
X1180287Y2804732D01*
X1180287Y2784732D01*
X1190287Y2784732D01*
X1194287Y2788732D02*
X1194287Y2782732D01*
X1206287Y2782732D01*
X1206287Y2788732D01*
X1212287Y2788732D01*
X1212287Y2800732D01*
X1206287Y2800732D01*
X1206287Y2806732D01*
X1194287Y2806732D01*
X1194287Y2800732D01*
X1188287Y2800732D01*
X1188287Y2788732D01*
X1194287Y2788732D01*
X1190287Y3384732D02*
X1190287Y3374732D01*
X1210287Y3374732D01*
X1210287Y3384732D01*
X1220287Y3384732D01*
X1220287Y3404732D01*
X1210287Y3404732D01*
X1210287Y3414732D01*
X1190287Y3414732D01*
X1190287Y3404732D01*
X1180287Y3404732D01*
X1180287Y3384732D01*
X1190287Y3384732D01*
X1194287Y3388732D02*
X1194287Y3382732D01*
X1206287Y3382732D01*
X1206287Y3388732D01*
X1212287Y3388732D01*
X1212287Y3400732D01*
X1206287Y3400732D01*
X1206287Y3406732D01*
X1194287Y3406732D01*
X1194287Y3400732D01*
X1188287Y3400732D01*
X1188287Y3388732D01*
X1194287Y3388732D01*
X1990287Y2584732D02*
X1990287Y2574732D01*
X2010287Y2574732D01*
X2010287Y2584732D01*
X2020287Y2584732D01*
X2020287Y2604732D01*
X2010287Y2604732D01*
X2010287Y2614732D01*
X1990287Y2614732D01*
X1990287Y2604732D01*
X1980287Y2604732D01*
X1980287Y2584732D01*
X1990287Y2584732D01*
X1994287Y2588732D02*
X1994287Y2582732D01*
X2006287Y2582732D01*
X2006287Y2588732D01*
X2012287Y2588732D01*
X2012287Y2600732D01*
X2006287Y2600732D01*
X2006287Y2606732D01*
X1994287Y2606732D01*
X1994287Y2600732D01*
X1988287Y2600732D01*
X1988287Y2588732D01*
X1994287Y2588732D01*
X1990287Y2984732D02*
X1990287Y2974732D01*
X2010287Y2974732D01*
X2010287Y2984732D01*
X2020287Y2984732D01*
X2020287Y3004732D01*
X2010287Y3004732D01*
X2010287Y3014732D01*
X1990287Y3014732D01*
X1990287Y3004732D01*
X1980287Y3004732D01*
X1980287Y2984732D01*
X1990287Y2984732D01*
X1994287Y2988732D02*
X1994287Y2982732D01*
X2006287Y2982732D01*
X2006287Y2988732D01*
X2012287Y2988732D01*
X2012287Y3000732D01*
X2006287Y3000732D01*
X2006287Y3006732D01*
X1994287Y3006732D01*
X1994287Y3000732D01*
X1988287Y3000732D01*
X1988287Y2988732D01*
X1994287Y2988732D01*
X1990287Y3384732D02*
X1990287Y3374732D01*
X2010287Y3374732D01*
X2010287Y3384732D01*
X2020287Y3384732D01*
X2020287Y3404732D01*
X2010287Y3404732D01*
X2010287Y3414732D01*
X1990287Y3414732D01*
X1990287Y3404732D01*
X1980287Y3404732D01*
X1980287Y3384732D01*
X1990287Y3384732D01*
X1994287Y3388732D02*
X1994287Y3382732D01*
X2006287Y3382732D01*
X2006287Y3388732D01*
X2012287Y3388732D01*
X2012287Y3400732D01*
X2006287Y3400732D01*
X2006287Y3406732D01*
X1994287Y3406732D01*
X1994287Y3400732D01*
X1988287Y3400732D01*
X1988287Y3388732D01*
X1994287Y3388732D01*
X-179951Y3984180D02*
X-169951Y3984180D01*
X-159951Y3994180D01*
X-149951Y3984180D01*
X-139951Y3984180D01*
X-139951Y3994180D01*
X-149951Y4004180D01*
X-139951Y4014180D01*
X-139951Y4024180D01*
X-149951Y4024180D01*
X-159951Y4014180D01*
X-169951Y4024180D01*
X-179951Y4024180D01*
X-179951Y4014180D01*
X-169951Y4004180D01*
X-179951Y3994180D01*
X-179951Y3984180D01*
X-171951Y3992180D02*
X-165951Y3992180D01*
X-159951Y3998180D01*
X-153951Y3992180D01*
X-147951Y3992180D01*
X-147951Y3998180D01*
X-153951Y4004180D01*
X-147951Y4010180D01*
X-147951Y4016180D01*
X-153951Y4016180D01*
X-159951Y4010180D01*
X-165951Y4016180D01*
X-171951Y4016180D01*
X-171951Y4010180D01*
X-165951Y4004180D01*
X-171951Y3998180D01*
X-171951Y3992180D01*
X-179951Y4084180D02*
X-169951Y4084180D01*
X-159951Y4094180D01*
X-149951Y4084180D01*
X-139951Y4084180D01*
X-139951Y4094180D01*
X-149951Y4104180D01*
X-139951Y4114180D01*
X-139951Y4124180D01*
X-149951Y4124180D01*
X-159951Y4114180D01*
X-169951Y4124180D01*
X-179951Y4124180D01*
X-179951Y4114180D01*
X-169951Y4104180D01*
X-179951Y4094180D01*
X-179951Y4084180D01*
X-171951Y4092180D02*
X-165951Y4092180D01*
X-159951Y4098180D01*
X-153951Y4092180D01*
X-147951Y4092180D01*
X-147951Y4098180D01*
X-153951Y4104180D01*
X-147951Y4110180D01*
X-147951Y4116180D01*
X-153951Y4116180D01*
X-159951Y4110180D01*
X-165951Y4116180D01*
X-171951Y4116180D01*
X-171951Y4110180D01*
X-165951Y4104180D01*
X-171951Y4098180D01*
X-171951Y4092180D01*
X1898949Y2754812D02*
X1898949Y2744812D01*
X1918949Y2744812D01*
X1918949Y2754812D01*
X1928949Y2754812D01*
X1928949Y2774812D01*
X1918949Y2774812D01*
X1918949Y2784812D01*
X1898949Y2784812D01*
X1898949Y2774812D01*
X1888949Y2774812D01*
X1888949Y2754812D01*
X1898949Y2754812D01*
X1780837Y2754812D02*
X1780837Y2744812D01*
X1800837Y2744812D01*
X1800837Y2754812D01*
X1810837Y2754812D01*
X1810837Y2774812D01*
X1800837Y2774812D01*
X1800837Y2784812D01*
X1780837Y2784812D01*
X1780837Y2774812D01*
X1770837Y2774812D01*
X1770837Y2754812D01*
X1780837Y2754812D01*
X1426507Y2715442D02*
X1426507Y2705442D01*
X1446507Y2705442D01*
X1446507Y2715442D01*
X1456507Y2715442D01*
X1456507Y2735442D01*
X1446507Y2735442D01*
X1446507Y2745442D01*
X1426507Y2745442D01*
X1426507Y2735442D01*
X1416507Y2735442D01*
X1416507Y2715442D01*
X1426507Y2715442D01*
X1190287Y2557960D02*
X1190287Y2547960D01*
X1210287Y2547960D01*
X1210287Y2557960D01*
X1220287Y2557960D01*
X1220287Y2577960D01*
X1210287Y2577960D01*
X1210287Y2587960D01*
X1190287Y2587960D01*
X1190287Y2577960D01*
X1180287Y2577960D01*
X1180287Y2557960D01*
X1190287Y2557960D01*
X1426507Y2996032D02*
X1426507Y2986032D01*
X1446507Y2986032D01*
X1446507Y2996032D01*
X1456507Y2996032D01*
X1456507Y3016032D01*
X1446507Y3016032D01*
X1446507Y3026032D01*
X1426507Y3026032D01*
X1426507Y3016032D01*
X1416507Y3016032D01*
X1416507Y2996032D01*
X1426507Y2996032D01*
X1544617Y3192882D02*
X1544617Y3182882D01*
X1564617Y3182882D01*
X1564617Y3192882D01*
X1574617Y3192882D01*
X1574617Y3212882D01*
X1564617Y3212882D01*
X1564617Y3222882D01*
X1544617Y3222882D01*
X1544617Y3212882D01*
X1534617Y3212882D01*
X1534617Y3192882D01*
X1544617Y3192882D01*
X1780837Y3192882D02*
X1780837Y3182882D01*
X1800837Y3182882D01*
X1800837Y3192882D01*
X1810837Y3192882D01*
X1810837Y3212882D01*
X1800837Y3212882D01*
X1800837Y3222882D01*
X1780837Y3222882D01*
X1780837Y3212882D01*
X1770837Y3212882D01*
X1770837Y3192882D01*
X1780837Y3192882D01*
X2017057Y3192882D02*
X2017057Y3182882D01*
X2037057Y3182882D01*
X2037057Y3192882D01*
X2047057Y3192882D01*
X2047057Y3212882D01*
X2037057Y3212882D01*
X2037057Y3222882D01*
X2017057Y3222882D01*
X2017057Y3212882D01*
X2007057Y3212882D01*
X2007057Y3192882D01*
X2017057Y3192882D01*
X1780837Y3429102D02*
X1780837Y3419102D01*
X1800837Y3419102D01*
X1800837Y3429102D01*
X1810837Y3429102D01*
X1810837Y3449102D01*
X1800837Y3449102D01*
X1800837Y3459102D01*
X1780837Y3459102D01*
X1780837Y3449102D01*
X1770837Y3449102D01*
X1770837Y3429102D01*
X1780837Y3429102D01*
X1426507Y3429102D02*
X1426507Y3419102D01*
X1446507Y3419102D01*
X1446507Y3429102D01*
X1456507Y3429102D01*
X1456507Y3449102D01*
X1446507Y3449102D01*
X1446507Y3459102D01*
X1426507Y3459102D01*
X1426507Y3449102D01*
X1416507Y3449102D01*
X1416507Y3429102D01*
X1426507Y3429102D01*
X914695Y3114142D02*
X914695Y3104142D01*
X934695Y3104142D01*
X934695Y3114142D01*
X944695Y3114142D01*
X944695Y3134142D01*
X934695Y3134142D01*
X934695Y3144142D01*
X914695Y3144142D01*
X914695Y3134142D01*
X904695Y3134142D01*
X904695Y3114142D01*
X914695Y3114142D01*
X580049Y3035402D02*
X580049Y3025402D01*
X600049Y3025402D01*
X600049Y3035402D01*
X610049Y3035402D01*
X610049Y3055402D01*
X600049Y3055402D01*
X600049Y3065402D01*
X580049Y3065402D01*
X580049Y3055402D01*
X570049Y3055402D01*
X570049Y3035402D01*
X580049Y3035402D01*
X206035Y3035402D02*
X206035Y3025402D01*
X226035Y3025402D01*
X226035Y3035402D01*
X236035Y3035402D01*
X236035Y3055402D01*
X226035Y3055402D01*
X226035Y3065402D01*
X206035Y3065402D01*
X206035Y3055402D01*
X196035Y3055402D01*
X196035Y3035402D01*
X206035Y3035402D01*
X324145Y3035402D02*
X324145Y3025402D01*
X344145Y3025402D01*
X344145Y3035402D01*
X354145Y3035402D01*
X354145Y3055402D01*
X344145Y3055402D01*
X344145Y3065402D01*
X324145Y3065402D01*
X324145Y3055402D01*
X314145Y3055402D01*
X314145Y3035402D01*
X324145Y3035402D01*
X378199Y2749812D02*
X378199Y2739812D01*
X398199Y2739812D01*
X398199Y2749812D01*
X408199Y2749812D01*
X408199Y2769812D01*
X398199Y2769812D01*
X398199Y2779812D01*
X378199Y2779812D01*
X378199Y2769812D01*
X368199Y2769812D01*
X368199Y2749812D01*
X378199Y2749812D01*
X141979Y2749812D02*
X141979Y2739812D01*
X161979Y2739812D01*
X161979Y2749812D01*
X171979Y2749812D01*
X171979Y2769812D01*
X161979Y2769812D01*
X161979Y2779812D01*
X141979Y2779812D01*
X141979Y2769812D01*
X131979Y2769812D01*
X131979Y2749812D01*
X141979Y2749812D01*
X141979Y2552960D02*
X141979Y2542960D01*
X161979Y2542960D01*
X161979Y2552960D01*
X171979Y2552960D01*
X171979Y2572960D01*
X161979Y2572960D01*
X161979Y2582960D01*
X141979Y2582960D01*
X141979Y2572960D01*
X131979Y2572960D01*
X131979Y2552960D01*
X141979Y2552960D01*
X-59753Y3643158D02*
X-59753Y3676481D01*
X-43092Y3693142D01*
X-26430Y3676481D01*
X-26430Y3643158D01*
X-26430Y3668150D01*
X-59753Y3668150D01*
X-258179Y3643158D02*
X-258179Y3676481D01*
X-241518Y3693142D01*
X-224856Y3676481D01*
X-224856Y3643158D01*
X-224856Y3668150D01*
X-258179Y3668150D01*
X585129Y3693142D02*
X585129Y3643158D01*
X610121Y3643158D01*
X618452Y3651489D01*
X618452Y3659819D01*
X610121Y3668150D01*
X585129Y3668150D01*
X610121Y3668150D01*
X618452Y3676481D01*
X618452Y3684811D01*
X610121Y3693142D01*
X585129Y3693142D01*
X733947Y3693142D02*
X733947Y3643158D01*
X758939Y3643158D01*
X767270Y3651489D01*
X767270Y3659819D01*
X758939Y3668150D01*
X733947Y3668150D01*
X758939Y3668150D01*
X767270Y3676481D01*
X767270Y3684811D01*
X758939Y3693142D01*
X733947Y3693142D01*
X138671Y3643158D02*
X138671Y3676481D01*
X155332Y3693142D01*
X171994Y3676481D01*
X171994Y3643158D01*
X171994Y3668150D01*
X138671Y3668150D01*
X1804476Y30873D02*
X1796145Y39204D01*
X1779484Y39204D01*
X1771153Y30873D01*
X1771153Y-2449D01*
X1779484Y-10780D01*
X1796145Y-10780D01*
X1804476Y-2449D01*
X-70422Y41653D02*
X-78753Y49984D01*
X-95414Y49984D01*
X-103745Y41653D01*
X-103745Y8331D01*
X-95414Y0D01*
X-78753Y0D01*
X-70422Y8331D01*
X82632Y-2606921D02*
X74301Y-2598590D01*
X57640Y-2598590D01*
X49309Y-2606921D01*
X49309Y-2640243D01*
X57640Y-2648574D01*
X74301Y-2648574D01*
X82632Y-2640243D01*
X1676524Y-2606921D02*
X1668193Y-2598590D01*
X1651532Y-2598590D01*
X1643201Y-2606921D01*
X1643201Y-2640243D01*
X1651532Y-2648574D01*
X1668193Y-2648574D01*
X1676524Y-2640243D01*
X300585Y1009394D02*
X300585Y959410D01*
X325577Y959410D01*
X333908Y967741D01*
X333908Y1001063D01*
X325577Y1009394D01*
X300585Y1009394D01*
X-999415Y-606D02*
X-999415Y-50590D01*
X-974423Y-50590D01*
X-966092Y-42259D01*
X-966092Y-8937D01*
X-974423Y-606D01*
X-999415Y-606D01*
X300585Y2249394D02*
X300585Y2199410D01*
X325577Y2199410D01*
X333908Y2207741D01*
X333908Y2241063D01*
X325577Y2249394D01*
X300585Y2249394D01*
X-999415Y2249394D02*
X-999415Y2199410D01*
X-974423Y2199410D01*
X-966092Y2207741D01*
X-966092Y2241063D01*
X-974423Y2249394D01*
X-999415Y2249394D01*
X333908Y-450606D02*
X300585Y-450606D01*
X300585Y-500590D01*
X333908Y-500590D01*
X300585Y-475598D02*
X317246Y-475598D01*
X1383908Y599394D02*
X1350585Y599394D01*
X1350585Y549410D01*
X1383908Y549410D01*
X1350585Y574402D02*
X1367246Y574402D01*
X1383908Y-450606D02*
X1350585Y-450606D01*
X1350585Y-500590D01*
X1383908Y-500590D01*
X1350585Y-475598D02*
X1367246Y-475598D01*
X333908Y599394D02*
X300585Y599394D01*
X300585Y549410D01*
X333908Y549410D01*
X300585Y574402D02*
X317246Y574402D01*
X-559415Y-790590D02*
X-549415Y-780590D01*
X-539415Y-780590D01*
X-549415Y-770590D01*
X-539415Y-760590D01*
X-549415Y-760590D01*
X-559415Y-750590D01*
X-569415Y-760590D01*
X-579415Y-760590D01*
X-569415Y-770590D01*
X-579415Y-780590D01*
X-569415Y-780590D01*
X-559415Y-790590D01*
X-559415Y-890590D02*
X-549415Y-880590D01*
X-539415Y-880590D01*
X-549415Y-870590D01*
X-539415Y-860590D01*
X-549415Y-860590D01*
X-559415Y-850590D01*
X-569415Y-860590D01*
X-579415Y-860590D01*
X-569415Y-870590D01*
X-579415Y-880590D01*
X-569415Y-880590D01*
X-559415Y-890590D01*
X-559415Y-990590D02*
X-549415Y-980590D01*
X-539415Y-980590D01*
X-549415Y-970590D01*
X-539415Y-960590D01*
X-549415Y-960590D01*
X-559415Y-950590D01*
X-569415Y-960590D01*
X-579415Y-960590D01*
X-569415Y-970590D01*
X-579415Y-980590D01*
X-569415Y-980590D01*
X-559415Y-990590D01*
X-559415Y-590590D02*
X-549415Y-580590D01*
X-539415Y-580590D01*
X-549415Y-570590D01*
X-539415Y-560590D01*
X-549415Y-560590D01*
X-559415Y-550590D01*
X-569415Y-560590D01*
X-579415Y-560590D01*
X-569415Y-570590D01*
X-579415Y-580590D01*
X-569415Y-580590D01*
X-559415Y-590590D01*
X-559415Y-490590D02*
X-549415Y-480590D01*
X-539415Y-480590D01*
X-549415Y-470590D01*
X-539415Y-460590D01*
X-549415Y-460590D01*
X-559415Y-450590D01*
X-569415Y-460590D01*
X-579415Y-460590D01*
X-569415Y-470590D01*
X-579415Y-480590D01*
X-569415Y-480590D01*
X-559415Y-490590D01*
X-559415Y-390590D02*
X-549415Y-380590D01*
X-539415Y-380590D01*
X-549415Y-370590D01*
X-539415Y-360590D01*
X-549415Y-360590D01*
X-559415Y-350590D01*
X-569415Y-360590D01*
X-579415Y-360590D01*
X-569415Y-370590D01*
X-579415Y-380590D01*
X-569415Y-380590D01*
X-559415Y-390590D01*
X-1000170Y2583552D02*
X-1033493Y2583552D01*
X-1033493Y2558560D01*
X-1016832Y2558560D01*
X-1033493Y2558560D01*
X-1033493Y2533568D01*
X-494158Y3460914D02*
X-527481Y3460914D01*
X-527481Y3435922D01*
X-510820Y3435922D01*
X-527481Y3435922D01*
X-527481Y3410930D01*
X-425158Y3465914D02*
X-458481Y3465914D01*
X-458481Y3440922D01*
X-441820Y3440922D01*
X-458481Y3440922D01*
X-458481Y3415930D01*
X-86792Y2897984D02*
X-120115Y2897984D01*
X-120115Y2872992D01*
X-103454Y2872992D01*
X-120115Y2872992D01*
X-120115Y2848000D01*
X-90092Y5464394D02*
X-123415Y5464394D01*
X-123415Y5439402D01*
X-106754Y5439402D01*
X-123415Y5439402D01*
X-123415Y5414410D01*
X-672158Y1361914D02*
X-705481Y1361914D01*
X-705481Y1336922D01*
X-688820Y1336922D01*
X-705481Y1336922D01*
X-705481Y1311930D01*
X192842Y1871914D02*
X159519Y1871914D01*
X159519Y1846922D01*
X176180Y1846922D01*
X159519Y1846922D01*
X159519Y1821930D01*
X-247158Y2746914D02*
X-280481Y2746914D01*
X-280481Y2721922D01*
X-263820Y2721922D01*
X-280481Y2721922D01*
X-280481Y2696930D01*
X969578Y3614984D02*
X936255Y3614984D01*
X936255Y3589992D01*
X952916Y3589992D01*
X936255Y3589992D01*
X936255Y3565000D01*
X1257208Y3583984D02*
X1223885Y3583984D01*
X1223885Y3558992D01*
X1240546Y3558992D01*
X1223885Y3558992D01*
X1223885Y3534000D01*
X-671292Y2431484D02*
X-704615Y2431484D01*
X-704615Y2406492D01*
X-687954Y2406492D01*
X-704615Y2406492D01*
X-704615Y2381500D01*
X-765792Y503772D02*
X-799115Y503772D01*
X-799115Y478780D01*
X-782454Y478780D01*
X-799115Y478780D01*
X-799115Y453788D01*
X-779792Y937984D02*
X-813115Y937984D01*
X-813115Y912992D01*
X-796454Y912992D01*
X-813115Y912992D01*
X-813115Y888000D01*
X-1176792Y1896984D02*
X-1210115Y1896984D01*
X-1210115Y1871992D01*
X-1193454Y1871992D01*
X-1210115Y1871992D01*
X-1210115Y1847000D01*
X500208Y-625016D02*
X466885Y-625016D01*
X466885Y-650008D01*
X483546Y-650008D01*
X466885Y-650008D01*
X466885Y-675000D01*
X-1176792Y1190984D02*
X-1210115Y1190984D01*
X-1210115Y1165992D01*
X-1193454Y1165992D01*
X-1210115Y1165992D01*
X-1210115Y1141000D01*
X-195524Y915188D02*
X-228847Y915188D01*
X-228847Y890196D01*
X-212186Y890196D01*
X-228847Y890196D01*
X-228847Y865204D01*
X-154792Y1019984D02*
X-188115Y1019984D01*
X-188115Y994992D01*
X-171454Y994992D01*
X-188115Y994992D01*
X-188115Y970000D01*
X-252792Y927984D02*
X-286115Y927984D01*
X-286115Y902992D01*
X-269454Y902992D01*
X-286115Y902992D01*
X-286115Y878000D01*
X-1097100Y1493928D02*
X-1130423Y1493928D01*
X-1130423Y1468936D01*
X-1113762Y1468936D01*
X-1130423Y1468936D01*
X-1130423Y1443944D01*
X1000208Y-1025016D02*
X966885Y-1025016D01*
X966885Y-1050008D01*
X983546Y-1050008D01*
X966885Y-1050008D01*
X966885Y-1075000D01*
X1600578Y763984D02*
X1567255Y763984D01*
X1567255Y738992D01*
X1583916Y738992D01*
X1567255Y738992D01*
X1567255Y714000D01*
X-533792Y693984D02*
X-567115Y693984D01*
X-567115Y668992D01*
X-550454Y668992D01*
X-567115Y668992D01*
X-567115Y644000D01*
X88208Y2066984D02*
X54885Y2066984D01*
X54885Y2041992D01*
X71546Y2041992D01*
X54885Y2041992D01*
X54885Y2017000D01*
X2028208Y-235016D02*
X1994885Y-235016D01*
X1994885Y-260008D01*
X2011546Y-260008D01*
X1994885Y-260008D01*
X1994885Y-285000D01*
X1019208Y-241016D02*
X985885Y-241016D01*
X985885Y-266008D01*
X1002546Y-266008D01*
X985885Y-266008D01*
X985885Y-291000D01*
X1572208Y2037984D02*
X1538885Y2037984D01*
X1538885Y2012992D01*
X1555546Y2012992D01*
X1538885Y2012992D01*
X1538885Y1988000D01*
X-1097100Y1442748D02*
X-1130423Y1442748D01*
X-1130423Y1417756D01*
X-1113762Y1417756D01*
X-1130423Y1417756D01*
X-1130423Y1392764D01*
X-180792Y2283984D02*
X-214115Y2283984D01*
X-214115Y2258992D01*
X-197454Y2258992D01*
X-214115Y2258992D01*
X-214115Y2234000D01*
X206050Y1783300D02*
X172727Y1783300D01*
X172727Y1758308D01*
X189388Y1758308D01*
X172727Y1758308D01*
X172727Y1733316D01*
X425208Y1707984D02*
X391885Y1707984D01*
X391885Y1682992D01*
X408546Y1682992D01*
X391885Y1682992D01*
X391885Y1658000D01*
X1303208Y2757196D02*
X1269885Y2757196D01*
X1269885Y2732204D01*
X1286546Y2732204D01*
X1269885Y2732204D01*
X1269885Y2707212D01*
X229672Y1952590D02*
X196349Y1952590D01*
X196349Y1927598D01*
X213010Y1927598D01*
X196349Y1927598D01*
X196349Y1902606D01*
X1043208Y-95016D02*
X1009885Y-95016D01*
X1009885Y-120008D01*
X1026546Y-120008D01*
X1009885Y-120008D01*
X1009885Y-145000D01*
X-176792Y3873984D02*
X-210115Y3873984D01*
X-210115Y3848992D01*
X-193454Y3848992D01*
X-210115Y3848992D01*
X-210115Y3824000D01*
X-565602Y2054952D02*
X-598925Y2054952D01*
X-598925Y2029960D01*
X-582264Y2029960D01*
X-598925Y2029960D01*
X-598925Y2004968D01*
X1766392Y1950872D02*
X1733069Y1950872D01*
X1733069Y1925880D01*
X1749730Y1925880D01*
X1733069Y1925880D01*
X1733069Y1900888D01*
X-510484Y3306922D02*
X-543807Y3306922D01*
X-543807Y3281930D01*
X-527146Y3281930D01*
X-543807Y3281930D01*
X-543807Y3256938D01*
X-85288Y3149440D02*
X-118611Y3149440D01*
X-118611Y3124448D01*
X-101950Y3124448D01*
X-118611Y3124448D01*
X-118611Y3099456D01*
X1282232Y-1790992D02*
X1248909Y-1790992D01*
X1248909Y-1815984D01*
X1265570Y-1815984D01*
X1248909Y-1815984D01*
X1248909Y-1840976D01*
X959626Y-1895016D02*
X926303Y-1895016D01*
X926303Y-1920008D01*
X942964Y-1920008D01*
X926303Y-1920008D01*
X926303Y-1945000D01*
X-164028Y797078D02*
X-197351Y797078D01*
X-197351Y772086D01*
X-180690Y772086D01*
X-197351Y772086D01*
X-197351Y747094D01*
X706578Y-340016D02*
X673255Y-340016D01*
X673255Y-365008D01*
X689916Y-365008D01*
X673255Y-365008D01*
X673255Y-390000D01*
X461956Y-1234418D02*
X428633Y-1234418D01*
X428633Y-1259410D01*
X445294Y-1259410D01*
X428633Y-1259410D01*
X428633Y-1284402D01*
X-483422Y1105984D02*
X-516745Y1105984D01*
X-516745Y1080992D01*
X-500084Y1080992D01*
X-516745Y1080992D01*
X-516745Y1056000D01*
X-94422Y948984D02*
X-127745Y948984D01*
X-127745Y923992D01*
X-111084Y923992D01*
X-127745Y923992D01*
X-127745Y899000D01*
X-787422Y978984D02*
X-820745Y978984D01*
X-820745Y953992D01*
X-804084Y953992D01*
X-820745Y953992D01*
X-820745Y929000D01*
X-734422Y1517984D02*
X-767745Y1517984D01*
X-767745Y1492992D01*
X-751084Y1492992D01*
X-767745Y1492992D01*
X-767745Y1468000D01*
X-950422Y419984D02*
X-983745Y419984D01*
X-983745Y394992D01*
X-967084Y394992D01*
X-983745Y394992D01*
X-983745Y370000D01*
X-1100422Y454984D02*
X-1133745Y454984D01*
X-1133745Y429992D01*
X-1117084Y429992D01*
X-1133745Y429992D01*
X-1133745Y405000D01*
X-912422Y2641984D02*
X-945745Y2641984D01*
X-945745Y2616992D01*
X-929084Y2616992D01*
X-945745Y2616992D01*
X-945745Y2592000D01*
X1266090Y5503180D02*
X1232767Y5503180D01*
X1232767Y5478188D01*
X1249428Y5478188D01*
X1232767Y5478188D01*
X1232767Y5453196D01*
X538208Y2371984D02*
X504885Y2371984D01*
X504885Y2346992D01*
X521546Y2346992D01*
X504885Y2346992D01*
X504885Y2322000D01*
X1217862Y1852196D02*
X1184539Y1852196D01*
X1184539Y1827204D01*
X1201200Y1827204D01*
X1184539Y1827204D01*
X1184539Y1802212D01*
X1681578Y3656984D02*
X1648255Y3656984D01*
X1648255Y3631992D01*
X1664916Y3631992D01*
X1648255Y3631992D01*
X1648255Y3607000D01*
X1595814Y4340386D02*
X1562491Y4340386D01*
X1562491Y4315394D01*
X1579152Y4315394D01*
X1562491Y4315394D01*
X1562491Y4290402D01*
X1866208Y3370984D02*
X1832885Y3370984D01*
X1832885Y3345992D01*
X1849546Y3345992D01*
X1832885Y3345992D01*
X1832885Y3321000D01*
X844208Y-1988354D02*
X810885Y-1988354D01*
X810885Y-2013346D01*
X827546Y-2013346D01*
X810885Y-2013346D01*
X810885Y-2038338D01*
X841578Y-1325016D02*
X808255Y-1325016D01*
X808255Y-1350008D01*
X824916Y-1350008D01*
X808255Y-1350008D01*
X808255Y-1375000D01*
X1076130Y-884024D02*
X1042807Y-884024D01*
X1042807Y-909016D01*
X1059468Y-909016D01*
X1042807Y-909016D01*
X1042807Y-934008D01*
X-267374Y851212D02*
X-300697Y851212D01*
X-300697Y826220D01*
X-284036Y826220D01*
X-300697Y826220D01*
X-300697Y801228D01*
X-1039422Y1323984D02*
X-1072745Y1323984D01*
X-1072745Y1298992D01*
X-1056084Y1298992D01*
X-1072745Y1298992D01*
X-1072745Y1274000D01*
X-788422Y452984D02*
X-821745Y452984D01*
X-821745Y427992D01*
X-805084Y427992D01*
X-821745Y427992D01*
X-821745Y403000D01*
X1107626Y-1084812D02*
X1074303Y-1084812D01*
X1074303Y-1109804D01*
X1090964Y-1109804D01*
X1074303Y-1109804D01*
X1074303Y-1134796D01*
X640578Y-1320016D02*
X607255Y-1320016D01*
X607255Y-1345008D01*
X623916Y-1345008D01*
X607255Y-1345008D01*
X607255Y-1370000D01*
X454082Y-1301346D02*
X420759Y-1301346D01*
X420759Y-1326338D01*
X437420Y-1326338D01*
X420759Y-1326338D01*
X420759Y-1351330D01*
X-656744Y1235388D02*
X-690067Y1235388D01*
X-690067Y1210396D01*
X-673406Y1210396D01*
X-690067Y1210396D01*
X-690067Y1185404D01*
X248208Y1178984D02*
X214885Y1178984D01*
X214885Y1153992D01*
X231546Y1153992D01*
X214885Y1153992D01*
X214885Y1129000D01*
X-207422Y1132984D02*
X-240745Y1132984D01*
X-240745Y1107992D01*
X-224084Y1107992D01*
X-240745Y1107992D01*
X-240745Y1083000D01*
X-285422Y1078984D02*
X-318745Y1078984D01*
X-318745Y1053992D01*
X-302084Y1053992D01*
X-318745Y1053992D01*
X-318745Y1029000D01*
X-343792Y4936984D02*
X-377115Y4936984D01*
X-377115Y4911992D01*
X-360454Y4911992D01*
X-377115Y4911992D01*
X-377115Y4887000D01*
X-65792Y-640016D02*
X-99115Y-640016D01*
X-99115Y-665008D01*
X-82454Y-665008D01*
X-99115Y-665008D01*
X-99115Y-690000D01*
X530852Y-766016D02*
X497529Y-766016D01*
X497529Y-791008D01*
X514190Y-791008D01*
X497529Y-791008D01*
X497529Y-816000D01*
X-1061666Y665188D02*
X-1094989Y665188D01*
X-1094989Y640196D01*
X-1078328Y640196D01*
X-1094989Y640196D01*
X-1094989Y615204D01*
X-579422Y953984D02*
X-612745Y953984D01*
X-612745Y928992D01*
X-596084Y928992D01*
X-612745Y928992D01*
X-612745Y904000D01*
X911208Y-1642016D02*
X877885Y-1642016D01*
X877885Y-1667008D01*
X894546Y-1667008D01*
X877885Y-1667008D01*
X877885Y-1692000D01*
X1089910Y-1525758D02*
X1056587Y-1525758D01*
X1056587Y-1550750D01*
X1073248Y-1550750D01*
X1056587Y-1550750D01*
X1056587Y-1575742D01*
X1719578Y2486984D02*
X1686255Y2486984D01*
X1686255Y2461992D01*
X1702916Y2461992D01*
X1686255Y2461992D01*
X1686255Y2437000D01*
X1110578Y2625984D02*
X1077255Y2625984D01*
X1077255Y2600992D01*
X1093916Y2600992D01*
X1077255Y2600992D01*
X1077255Y2576000D01*
X1348578Y2485984D02*
X1315255Y2485984D01*
X1315255Y2460992D01*
X1331916Y2460992D01*
X1315255Y2460992D01*
X1315255Y2436000D01*
X2031208Y1411252D02*
X1997885Y1411252D01*
X1997885Y1386260D01*
X2014546Y1386260D01*
X1997885Y1386260D01*
X1997885Y1361268D01*
X2099208Y5288984D02*
X2065885Y5288984D01*
X2065885Y5263992D01*
X2082546Y5263992D01*
X2065885Y5263992D01*
X2065885Y5239000D01*
X178208Y4092582D02*
X144885Y4092582D01*
X144885Y4067590D01*
X161546Y4067590D01*
X144885Y4067590D01*
X144885Y4042598D01*
X-708792Y220984D02*
X-742115Y220984D01*
X-742115Y195992D01*
X-725454Y195992D01*
X-742115Y195992D01*
X-742115Y171000D01*
X1649208Y531984D02*
X1615885Y531984D01*
X1615885Y506992D01*
X1632546Y506992D01*
X1615885Y506992D01*
X1615885Y482000D01*
X-162336Y679984D02*
X-195659Y679984D01*
X-195659Y654992D01*
X-178998Y654992D01*
X-195659Y654992D01*
X-195659Y630000D01*
X1668554Y-1475362D02*
X1635231Y-1475362D01*
X1635231Y-1500354D01*
X1651892Y-1500354D01*
X1635231Y-1500354D01*
X1635231Y-1525346D01*
X1670208Y-1600016D02*
X1636885Y-1600016D01*
X1636885Y-1625008D01*
X1653546Y-1625008D01*
X1636885Y-1625008D01*
X1636885Y-1650000D01*
X723208Y3809984D02*
X689885Y3809984D01*
X689885Y3784992D01*
X706546Y3784992D01*
X689885Y3784992D01*
X689885Y3760000D01*
X-1121792Y294984D02*
X-1155115Y294984D01*
X-1155115Y269992D01*
X-1138454Y269992D01*
X-1155115Y269992D01*
X-1155115Y245000D01*
X-116422Y2055984D02*
X-149745Y2055984D01*
X-149745Y2030992D01*
X-133084Y2030992D01*
X-149745Y2030992D01*
X-149745Y2006000D01*
X-56792Y423984D02*
X-90115Y423984D01*
X-90115Y398992D01*
X-73454Y398992D01*
X-90115Y398992D01*
X-90115Y374000D01*
X-612422Y1664653D02*
X-620753Y1672984D01*
X-637414Y1672984D01*
X-645745Y1664653D01*
X-645745Y1631331D01*
X-637414Y1623000D01*
X-620753Y1623000D01*
X-612422Y1631331D01*
X-612422Y1647992D01*
X-629084Y1647992D01*
X-253792Y3344984D02*
X-287115Y3344984D01*
X-287115Y3319992D01*
X-270454Y3319992D01*
X-287115Y3319992D01*
X-287115Y3295000D01*
X-808792Y1856984D02*
X-842115Y1856984D01*
X-842115Y1831992D01*
X-825454Y1831992D01*
X-842115Y1831992D01*
X-842115Y1807000D01*
X1233610Y2704984D02*
X1200287Y2704984D01*
X1200287Y2679992D01*
X1216948Y2679992D01*
X1200287Y2679992D01*
X1200287Y2655000D01*
X1391208Y1876984D02*
X1357885Y1876984D01*
X1357885Y1851992D01*
X1374546Y1851992D01*
X1357885Y1851992D01*
X1357885Y1827000D01*
X-257792Y4995898D02*
X-291115Y4995898D01*
X-291115Y4970906D01*
X-274454Y4970906D01*
X-291115Y4970906D01*
X-291115Y4945914D01*
X-1006792Y994732D02*
X-1040115Y994732D01*
X-1040115Y969740D01*
X-1023454Y969740D01*
X-1040115Y969740D01*
X-1040115Y944748D01*
X-772792Y2673984D02*
X-806115Y2673984D01*
X-806115Y2648992D01*
X-789454Y2648992D01*
X-806115Y2648992D01*
X-806115Y2624000D01*
X1678208Y3604984D02*
X1644885Y3604984D01*
X1644885Y3579992D01*
X1661546Y3579992D01*
X1644885Y3579992D01*
X1644885Y3555000D01*
X976208Y-1295694D02*
X942885Y-1295694D01*
X942885Y-1320686D01*
X959546Y-1320686D01*
X942885Y-1320686D01*
X942885Y-1345678D01*
X841208Y-904016D02*
X807885Y-904016D01*
X807885Y-929008D01*
X824546Y-929008D01*
X807885Y-929008D01*
X807885Y-954000D01*
X1784208Y1365984D02*
X1750885Y1365984D01*
X1750885Y1340992D01*
X1767546Y1340992D01*
X1750885Y1340992D01*
X1750885Y1316000D01*
X-1048792Y1735984D02*
X-1082115Y1735984D01*
X-1082115Y1710992D01*
X-1065454Y1710992D01*
X-1082115Y1710992D01*
X-1082115Y1686000D01*
X-1111792Y1869914D02*
X-1145115Y1869914D01*
X-1145115Y1844922D01*
X-1128454Y1844922D01*
X-1145115Y1844922D01*
X-1145115Y1819930D01*
X-677512Y2567424D02*
X-710835Y2567424D01*
X-710835Y2542432D01*
X-694174Y2542432D01*
X-710835Y2542432D01*
X-710835Y2517440D01*
X-242792Y-630362D02*
X-276115Y-630362D01*
X-276115Y-655354D01*
X-259454Y-655354D01*
X-276115Y-655354D01*
X-276115Y-680346D01*
X-695792Y2622984D02*
X-729115Y2622984D01*
X-729115Y2597992D01*
X-712454Y2597992D01*
X-729115Y2597992D01*
X-729115Y2573000D01*
X1648208Y1758984D02*
X1614885Y1758984D01*
X1614885Y1733992D01*
X1631546Y1733992D01*
X1614885Y1733992D01*
X1614885Y1709000D01*
X-86792Y2626984D02*
X-120115Y2626984D01*
X-120115Y2601992D01*
X-103454Y2601992D01*
X-120115Y2601992D01*
X-120115Y2577000D01*
X-228988Y3305984D02*
X-262311Y3305984D01*
X-262311Y3280992D01*
X-245650Y3280992D01*
X-262311Y3280992D01*
X-262311Y3256000D01*
X-711792Y2373992D02*
X-745115Y2373992D01*
X-745115Y2349000D01*
X-728454Y2349000D01*
X-745115Y2349000D01*
X-745115Y2324008D01*
X1067208Y-635016D02*
X1033885Y-635016D01*
X1033885Y-660008D01*
X1050546Y-660008D01*
X1033885Y-660008D01*
X1033885Y-685000D01*
X1437366Y-925858D02*
X1404043Y-925858D01*
X1404043Y-950850D01*
X1420704Y-950850D01*
X1404043Y-950850D01*
X1404043Y-975842D01*
X784208Y-868016D02*
X750885Y-868016D01*
X750885Y-893008D01*
X767546Y-893008D01*
X750885Y-893008D01*
X750885Y-918000D01*
X-181792Y852984D02*
X-215115Y852984D01*
X-215115Y827992D01*
X-198454Y827992D01*
X-215115Y827992D01*
X-215115Y803000D01*
X-1046792Y200984D02*
X-1080115Y200984D01*
X-1080115Y175992D01*
X-1063454Y175992D01*
X-1080115Y175992D01*
X-1080115Y151000D01*
X1006578Y-1178016D02*
X973255Y-1178016D01*
X973255Y-1203008D01*
X989916Y-1203008D01*
X973255Y-1203008D01*
X973255Y-1228000D01*
X-1096422Y1022984D02*
X-1129745Y1022984D01*
X-1129745Y997992D01*
X-1113084Y997992D01*
X-1129745Y997992D01*
X-1129745Y973000D01*
X723578Y2055653D02*
X715247Y2063984D01*
X698586Y2063984D01*
X690255Y2055653D01*
X690255Y2022331D01*
X698586Y2014000D01*
X715247Y2014000D01*
X723578Y2022331D01*
X723578Y2038992D01*
X706916Y2038992D01*
X-1131422Y1794984D02*
X-1164745Y1794984D01*
X-1164745Y1769992D01*
X-1148084Y1769992D01*
X-1164745Y1769992D01*
X-1164745Y1745000D01*
X-1112848Y405346D02*
X-1146171Y405346D01*
X-1146171Y380354D01*
X-1129510Y380354D01*
X-1146171Y380354D01*
X-1146171Y355362D01*
X-748422Y1903984D02*
X-781745Y1903984D01*
X-781745Y1878992D01*
X-765084Y1878992D01*
X-781745Y1878992D01*
X-781745Y1854000D01*
X-5422Y1783984D02*
X-38745Y1783984D01*
X-38745Y1758992D01*
X-22084Y1758992D01*
X-38745Y1758992D01*
X-38745Y1734000D01*
X1141578Y-1394016D02*
X1108255Y-1394016D01*
X1108255Y-1419008D01*
X1124916Y-1419008D01*
X1108255Y-1419008D01*
X1108255Y-1444000D01*
X724578Y2209984D02*
X691255Y2209984D01*
X691255Y2184992D01*
X707916Y2184992D01*
X691255Y2184992D01*
X691255Y2160000D01*
X-569422Y1899984D02*
X-602745Y1899984D01*
X-602745Y1874992D01*
X-586084Y1874992D01*
X-602745Y1874992D01*
X-602745Y1850000D01*
X423578Y1799984D02*
X390255Y1799984D01*
X390255Y1774992D01*
X406916Y1774992D01*
X390255Y1774992D01*
X390255Y1750000D01*
X435578Y1889653D02*
X427247Y1897984D01*
X410586Y1897984D01*
X402255Y1889653D01*
X402255Y1856331D01*
X410586Y1848000D01*
X427247Y1848000D01*
X435578Y1856331D01*
X435578Y1872992D01*
X418916Y1872992D01*
X-6422Y882984D02*
X-39745Y882984D01*
X-39745Y857992D01*
X-23084Y857992D01*
X-39745Y857992D01*
X-39745Y833000D01*
X-141422Y1842984D02*
X-174745Y1842984D01*
X-174745Y1817992D01*
X-158084Y1817992D01*
X-174745Y1817992D01*
X-174745Y1793000D01*
X-129422Y2009984D02*
X-162745Y2009984D01*
X-162745Y1984992D01*
X-146084Y1984992D01*
X-162745Y1984992D01*
X-162745Y1960000D01*
X430208Y4220984D02*
X396885Y4220984D01*
X396885Y4195992D01*
X413546Y4195992D01*
X396885Y4195992D01*
X396885Y4171000D01*
X-806422Y2178984D02*
X-839745Y2178984D01*
X-839745Y2153992D01*
X-823084Y2153992D01*
X-839745Y2153992D01*
X-839745Y2129000D01*
X-833422Y2110984D02*
X-866745Y2110984D01*
X-866745Y2085992D01*
X-850084Y2085992D01*
X-866745Y2085992D01*
X-866745Y2061000D01*
X-18422Y1988984D02*
X-51745Y1988984D01*
X-51745Y1963992D01*
X-35084Y1963992D01*
X-51745Y1963992D01*
X-51745Y1939000D01*
X801578Y2629653D02*
X793247Y2637984D01*
X776586Y2637984D01*
X768255Y2629653D01*
X768255Y2596331D01*
X776586Y2588000D01*
X793247Y2588000D01*
X801578Y2596331D01*
X801578Y2612992D01*
X784916Y2612992D01*
X904578Y2805653D02*
X896247Y2813984D01*
X879586Y2813984D01*
X871255Y2805653D01*
X871255Y2772331D01*
X879586Y2764000D01*
X896247Y2764000D01*
X904578Y2772331D01*
X904578Y2788992D01*
X887916Y2788992D01*
X-363422Y3783653D02*
X-371753Y3791984D01*
X-388414Y3791984D01*
X-396745Y3783653D01*
X-396745Y3750331D01*
X-388414Y3742000D01*
X-371753Y3742000D01*
X-363422Y3750331D01*
X-363422Y3766992D01*
X-380084Y3766992D01*
X1256578Y3949984D02*
X1223255Y3949984D01*
X1223255Y3924992D01*
X1239916Y3924992D01*
X1223255Y3924992D01*
X1223255Y3900000D01*
X1412578Y3783984D02*
X1379255Y3783984D01*
X1379255Y3758992D01*
X1395916Y3758992D01*
X1379255Y3758992D01*
X1379255Y3734000D01*
X-749172Y1407984D02*
X-782495Y1407984D01*
X-782495Y1382992D01*
X-765834Y1382992D01*
X-782495Y1382992D01*
X-782495Y1358000D01*
X1289578Y-1318016D02*
X1256255Y-1318016D01*
X1256255Y-1343008D01*
X1272916Y-1343008D01*
X1256255Y-1343008D01*
X1256255Y-1368000D01*
X1163578Y-1319016D02*
X1130255Y-1319016D01*
X1130255Y-1344008D01*
X1146916Y-1344008D01*
X1130255Y-1344008D01*
X1130255Y-1369000D01*
X-599422Y1008984D02*
X-632745Y1008984D01*
X-632745Y983992D01*
X-616084Y983992D01*
X-632745Y983992D01*
X-632745Y959000D01*
X-602422Y1166984D02*
X-635745Y1166984D01*
X-635745Y1141992D01*
X-619084Y1141992D01*
X-635745Y1141992D01*
X-635745Y1117000D01*
X-797190Y1315984D02*
X-830513Y1315984D01*
X-830513Y1290992D01*
X-813852Y1290992D01*
X-830513Y1290992D01*
X-830513Y1266000D01*
X229578Y1674984D02*
X196255Y1674984D01*
X196255Y1649992D01*
X212916Y1649992D01*
X196255Y1649992D01*
X196255Y1625000D01*
X1278790Y651756D02*
X1245467Y651756D01*
X1245467Y626764D01*
X1262128Y626764D01*
X1245467Y626764D01*
X1245467Y601772D01*
X591272Y-1098244D02*
X557949Y-1098244D01*
X557949Y-1123236D01*
X574610Y-1123236D01*
X557949Y-1123236D01*
X557949Y-1148228D01*
X896272Y-1058244D02*
X862949Y-1058244D01*
X862949Y-1083236D01*
X879610Y-1083236D01*
X862949Y-1083236D01*
X862949Y-1108228D01*
X-100792Y2678984D02*
X-134115Y2678984D01*
X-134115Y2653992D01*
X-117454Y2653992D01*
X-134115Y2653992D01*
X-134115Y2629000D01*
X779578Y-505016D02*
X746255Y-505016D01*
X746255Y-530008D01*
X762916Y-530008D01*
X746255Y-530008D01*
X746255Y-555000D01*
X1213908Y1446353D02*
X1205577Y1454684D01*
X1188916Y1454684D01*
X1180585Y1446353D01*
X1180585Y1413031D01*
X1188916Y1404700D01*
X1205577Y1404700D01*
X1213908Y1413031D01*
X1213908Y1429692D01*
X1197246Y1429692D01*
X893908Y1421063D02*
X885577Y1429394D01*
X868916Y1429394D01*
X860585Y1421063D01*
X860585Y1387741D01*
X868916Y1379410D01*
X885577Y1379410D01*
X893908Y1387741D01*
X893908Y1404402D01*
X877246Y1404402D01*
X-576092Y-1640606D02*
X-609415Y-1640606D01*
X-609415Y-1665598D01*
X-592754Y-1665598D01*
X-609415Y-1665598D01*
X-609415Y-1690590D01*
X755208Y-1196016D02*
X721885Y-1196016D01*
X721885Y-1221008D01*
X738546Y-1221008D01*
X721885Y-1221008D01*
X721885Y-1246000D01*
X1173908Y171063D02*
X1165577Y179394D01*
X1148916Y179394D01*
X1140585Y171063D01*
X1140585Y137741D01*
X1148916Y129410D01*
X1165577Y129410D01*
X1173908Y137741D01*
X1173908Y154402D01*
X1157246Y154402D01*
X1100208Y-962016D02*
X1066885Y-962016D01*
X1066885Y-987008D01*
X1083546Y-987008D01*
X1066885Y-987008D01*
X1066885Y-1012000D01*
X-245792Y-415016D02*
X-279115Y-415016D01*
X-279115Y-440008D01*
X-262454Y-440008D01*
X-279115Y-440008D01*
X-279115Y-465000D01*
X-516792Y126984D02*
X-550115Y126984D01*
X-550115Y101992D01*
X-533454Y101992D01*
X-550115Y101992D01*
X-550115Y77000D01*
X-271092Y5469394D02*
X-304415Y5469394D01*
X-304415Y5444402D01*
X-287754Y5444402D01*
X-304415Y5444402D01*
X-304415Y5419410D01*
X-391092Y5459394D02*
X-424415Y5459394D01*
X-424415Y5434402D01*
X-407754Y5434402D01*
X-424415Y5434402D01*
X-424415Y5409410D01*
X57902Y4846290D02*
X24579Y4846290D01*
X24579Y4821298D01*
X41240Y4821298D01*
X24579Y4821298D01*
X24579Y4796306D01*
X-143764Y5461704D02*
X-177087Y5461704D01*
X-177087Y5436712D01*
X-160426Y5436712D01*
X-177087Y5436712D01*
X-177087Y5411720D01*
X-25792Y5288984D02*
X-59115Y5288984D01*
X-59115Y5263992D01*
X-42454Y5263992D01*
X-59115Y5263992D01*
X-59115Y5239000D01*
X-515792Y5463984D02*
X-549115Y5463984D01*
X-549115Y5438992D01*
X-532454Y5438992D01*
X-549115Y5438992D01*
X-549115Y5414000D01*
X-391092Y5093684D02*
X-424415Y5093684D01*
X-424415Y5068692D01*
X-407754Y5068692D01*
X-424415Y5068692D01*
X-424415Y5043700D01*
X-271092Y5143684D02*
X-304415Y5143684D01*
X-304415Y5118692D01*
X-287754Y5118692D01*
X-304415Y5118692D01*
X-304415Y5093700D01*
X1300208Y5185984D02*
X1266885Y5185984D01*
X1266885Y5160992D01*
X1283546Y5160992D01*
X1266885Y5160992D01*
X1266885Y5136000D01*
X-51677Y-225016D02*
X-85000Y-225016D01*
X-85000Y-250008D01*
X-68339Y-250008D01*
X-85000Y-250008D01*
X-85000Y-275000D01*
X49355Y-559016D02*
X16032Y-559016D01*
X16032Y-584008D01*
X32694Y-584008D01*
X16032Y-584008D01*
X16032Y-609000D01*
X1720165Y-846488D02*
X1686843Y-846488D01*
X1686843Y-871480D01*
X1703504Y-871480D01*
X1686843Y-871480D01*
X1686843Y-896472D01*
X1833323Y-925016D02*
X1800000Y-925016D01*
X1800000Y-950008D01*
X1816661Y-950008D01*
X1800000Y-950008D01*
X1800000Y-975000D01*
D201*
X-1058493Y2667567D02*
G03*
X-1058493Y2667567I-20000J0D01*
G01*
X984067Y2213630D02*
G03*
X984067Y2213630I-20000J0D01*
G01*
X1084067Y2213630D02*
G03*
X1084067Y2213630I-20000J0D01*
G01*
X1184067Y2213630D02*
G03*
X1184067Y2213630I-20000J0D01*
G01*
X1184067Y2313630D02*
G03*
X1184067Y2313630I-20000J0D01*
G01*
X1084067Y2313630D02*
G03*
X1084067Y2313630I-20000J0D01*
G01*
X984067Y2313630D02*
G03*
X984067Y2313630I-20000J0D01*
G01*
X846271Y1190008D02*
G03*
X846271Y1190008I-20000J0D01*
G01*
X946271Y1190008D02*
G03*
X946271Y1190008I-20000J0D01*
G01*
X1046271Y1190008D02*
G03*
X1046271Y1190008I-20000J0D01*
G01*
X1146271Y1190008D02*
G03*
X1146271Y1190008I-20000J0D01*
G01*
X787215Y1888826D02*
G03*
X787215Y1888826I-20000J0D01*
G01*
X887215Y1888826D02*
G03*
X887215Y1888826I-20000J0D01*
G01*
X987215Y1888826D02*
G03*
X987215Y1888826I-20000J0D01*
G01*
X1087215Y1888826D02*
G03*
X1087215Y1888826I-20000J0D01*
G01*
X1338397Y1583708D02*
G03*
X1338397Y1583708I-20000J0D01*
G01*
X1438397Y1583708D02*
G03*
X1438397Y1583708I-20000J0D01*
G01*
X1538397Y1583708D02*
G03*
X1538397Y1583708I-20000J0D01*
G01*
X1638397Y1583708D02*
G03*
X1638397Y1583708I-20000J0D01*
G01*
X-787587Y4044338D02*
G03*
X-787587Y4044338I-20000J0D01*
G01*
X-887587Y4044338D02*
G03*
X-887587Y4044338I-20000J0D01*
G01*
X-987587Y4044338D02*
G03*
X-987587Y4044338I-20000J0D01*
G01*
X-1087587Y4044338D02*
G03*
X-1087587Y4044338I-20000J0D01*
G01*
X1338397Y894732D02*
G03*
X1338397Y894732I-20000J0D01*
G01*
X1438397Y894732D02*
G03*
X1438397Y894732I-20000J0D01*
G01*
X1538397Y894732D02*
G03*
X1538397Y894732I-20000J0D01*
G01*
X1638397Y894732D02*
G03*
X1638397Y894732I-20000J0D01*
G01*
X-1096051Y3668158D02*
G03*
X-1096051Y3668158I-20000J0D01*
G01*
X-696051Y3668158D02*
G03*
X-696051Y3668158I-20000J0D01*
G01*
X-796051Y3668158D02*
G03*
X-796051Y3668158I-20000J0D01*
G01*
X-896051Y3668158D02*
G03*
X-896051Y3668158I-20000J0D01*
G01*
X-996051Y3668158D02*
G03*
X-996051Y3668158I-20000J0D01*
G01*
X-834435Y3027606D02*
G03*
X-834435Y3027606I-20000J0D01*
G01*
X-834435Y3127606D02*
G03*
X-834435Y3127606I-20000J0D01*
G01*
X-834435Y3227606D02*
G03*
X-834435Y3227606I-20000J0D01*
G01*
X-834435Y3327606D02*
G03*
X-834435Y3327606I-20000J0D01*
G01*
X-1134435Y3027606D02*
G03*
X-1134435Y3027606I-20000J0D01*
G01*
X-1134435Y3127606D02*
G03*
X-1134435Y3127606I-20000J0D01*
G01*
X-1134435Y3227606D02*
G03*
X-1134435Y3227606I-20000J0D01*
G01*
X-1134435Y3327606D02*
G03*
X-1134435Y3327606I-20000J0D01*
G01*
X-147429Y4490796D02*
G03*
X-147429Y4490796I-20000J0D01*
G01*
X-147429Y4590796D02*
G03*
X-147429Y4590796I-20000J0D01*
G01*
X-147429Y4690796D02*
G03*
X-147429Y4690796I-20000J0D01*
G01*
X-147429Y4790796D02*
G03*
X-147429Y4790796I-20000J0D01*
G01*
X-447429Y4490796D02*
G03*
X-447429Y4490796I-20000J0D01*
G01*
X-447429Y4590796D02*
G03*
X-447429Y4590796I-20000J0D01*
G01*
X-447429Y4690796D02*
G03*
X-447429Y4690796I-20000J0D01*
G01*
X-447429Y4790796D02*
G03*
X-447429Y4790796I-20000J0D01*
G01*
X-464755Y-2668260D02*
G03*
X-464755Y-2668260I-20000J0D01*
G01*
X-564755Y-2668260D02*
G03*
X-564755Y-2668260I-20000J0D01*
G01*
X-664755Y-2668260D02*
G03*
X-664755Y-2668260I-20000J0D01*
G01*
X-764755Y-2668260D02*
G03*
X-764755Y-2668260I-20000J0D01*
G01*
X-864755Y-2668260D02*
G03*
X-864755Y-2668260I-20000J0D01*
G01*
X-964755Y-2668260D02*
G03*
X-964755Y-2668260I-20000J0D01*
G01*
X1370585Y149410D02*
G03*
X1370585Y149410I-20000J0D01*
G01*
X1370585Y249410D02*
G03*
X1370585Y249410I-20000J0D01*
G01*
X1370585Y349410D02*
G03*
X1370585Y349410I-20000J0D01*
G01*
X320585Y149410D02*
G03*
X320585Y149410I-20000J0D01*
G01*
X320585Y249410D02*
G03*
X320585Y249410I-20000J0D01*
G01*
X320585Y349410D02*
G03*
X320585Y349410I-20000J0D01*
G01*
X-849413Y-1660590D02*
G03*
X-849413Y-1660590I-20000J0D01*
G01*
X-949413Y-1660590D02*
G03*
X-949413Y-1660590I-20000J0D01*
G01*
X970585Y549410D02*
G03*
X970585Y549410I-20000J0D01*
G01*
X1170585Y549410D02*
G03*
X1170585Y549410I-20000J0D01*
G01*
X1070585Y549410D02*
G03*
X1070585Y549410I-20000J0D01*
G01*
X870585Y549410D02*
G03*
X870585Y549410I-20000J0D01*
G01*
X770585Y549410D02*
G03*
X770585Y549410I-20000J0D01*
G01*
X670585Y549410D02*
G03*
X670585Y549410I-20000J0D01*
G01*
X570585Y549410D02*
G03*
X570585Y549410I-20000J0D01*
G01*
X-635815Y-2137748D02*
G03*
X-635815Y-2137748I-20000J0D01*
G01*
X-735815Y-2137748D02*
G03*
X-735815Y-2137748I-20000J0D01*
G01*
X-835815Y-2137748D02*
G03*
X-835815Y-2137748I-20000J0D01*
G01*
X-935815Y-2137748D02*
G03*
X-935815Y-2137748I-20000J0D01*
G01*
D202*
X976067Y2213630D02*
G03*
X976067Y2213630I-12000J0D01*
G01*
X1076067Y2213630D02*
G03*
X1076067Y2213630I-12000J0D01*
G01*
X1176067Y2213630D02*
G03*
X1176067Y2213630I-12000J0D01*
G01*
X1176067Y2313630D02*
G03*
X1176067Y2313630I-12000J0D01*
G01*
X1076067Y2313630D02*
G03*
X1076067Y2313630I-12000J0D01*
G01*
X976067Y2313630D02*
G03*
X976067Y2313630I-12000J0D01*
G01*
X838271Y1190008D02*
G03*
X838271Y1190008I-12000J0D01*
G01*
X938271Y1190008D02*
G03*
X938271Y1190008I-12000J0D01*
G01*
X1038271Y1190008D02*
G03*
X1038271Y1190008I-12000J0D01*
G01*
X1138271Y1190008D02*
G03*
X1138271Y1190008I-12000J0D01*
G01*
X779215Y1888826D02*
G03*
X779215Y1888826I-12000J0D01*
G01*
X879215Y1888826D02*
G03*
X879215Y1888826I-12000J0D01*
G01*
X979215Y1888826D02*
G03*
X979215Y1888826I-12000J0D01*
G01*
X1079215Y1888826D02*
G03*
X1079215Y1888826I-12000J0D01*
G01*
X1330397Y1583708D02*
G03*
X1330397Y1583708I-12000J0D01*
G01*
X1430397Y1583708D02*
G03*
X1430397Y1583708I-12000J0D01*
G01*
X1530397Y1583708D02*
G03*
X1530397Y1583708I-12000J0D01*
G01*
X1630397Y1583708D02*
G03*
X1630397Y1583708I-12000J0D01*
G01*
X-795587Y4044338D02*
G03*
X-795587Y4044338I-12000J0D01*
G01*
X-895587Y4044338D02*
G03*
X-895587Y4044338I-12000J0D01*
G01*
X-995587Y4044338D02*
G03*
X-995587Y4044338I-12000J0D01*
G01*
X-1095587Y4044338D02*
G03*
X-1095587Y4044338I-12000J0D01*
G01*
X1330397Y894732D02*
G03*
X1330397Y894732I-12000J0D01*
G01*
X1430397Y894732D02*
G03*
X1430397Y894732I-12000J0D01*
G01*
X1530397Y894732D02*
G03*
X1530397Y894732I-12000J0D01*
G01*
X1630397Y894732D02*
G03*
X1630397Y894732I-12000J0D01*
G01*
X-1104051Y3668158D02*
G03*
X-1104051Y3668158I-12000J0D01*
G01*
X-704051Y3668158D02*
G03*
X-704051Y3668158I-12000J0D01*
G01*
X-804051Y3668158D02*
G03*
X-804051Y3668158I-12000J0D01*
G01*
X-904051Y3668158D02*
G03*
X-904051Y3668158I-12000J0D01*
G01*
X-1004051Y3668158D02*
G03*
X-1004051Y3668158I-12000J0D01*
G01*
X-842435Y3027606D02*
G03*
X-842435Y3027606I-12000J0D01*
G01*
X-842435Y3127606D02*
G03*
X-842435Y3127606I-12000J0D01*
G01*
X-842435Y3227606D02*
G03*
X-842435Y3227606I-12000J0D01*
G01*
X-842435Y3327606D02*
G03*
X-842435Y3327606I-12000J0D01*
G01*
X-1142435Y3027606D02*
G03*
X-1142435Y3027606I-12000J0D01*
G01*
X-1142435Y3127606D02*
G03*
X-1142435Y3127606I-12000J0D01*
G01*
X-1142435Y3227606D02*
G03*
X-1142435Y3227606I-12000J0D01*
G01*
X-1142435Y3327606D02*
G03*
X-1142435Y3327606I-12000J0D01*
G01*
X-155429Y4490796D02*
G03*
X-155429Y4490796I-12000J0D01*
G01*
X-155429Y4590796D02*
G03*
X-155429Y4590796I-12000J0D01*
G01*
X-155429Y4690796D02*
G03*
X-155429Y4690796I-12000J0D01*
G01*
X-155429Y4790796D02*
G03*
X-155429Y4790796I-12000J0D01*
G01*
X-455429Y4490796D02*
G03*
X-455429Y4490796I-12000J0D01*
G01*
X-455429Y4590796D02*
G03*
X-455429Y4590796I-12000J0D01*
G01*
X-455429Y4690796D02*
G03*
X-455429Y4690796I-12000J0D01*
G01*
X-455429Y4790796D02*
G03*
X-455429Y4790796I-12000J0D01*
G01*
X-472755Y-2668260D02*
G03*
X-472755Y-2668260I-12000J0D01*
G01*
X-572755Y-2668260D02*
G03*
X-572755Y-2668260I-12000J0D01*
G01*
X-672755Y-2668260D02*
G03*
X-672755Y-2668260I-12000J0D01*
G01*
X-772755Y-2668260D02*
G03*
X-772755Y-2668260I-12000J0D01*
G01*
X-872755Y-2668260D02*
G03*
X-872755Y-2668260I-12000J0D01*
G01*
X-972755Y-2668260D02*
G03*
X-972755Y-2668260I-12000J0D01*
G01*
X1362585Y149410D02*
G03*
X1362585Y149410I-12000J0D01*
G01*
X1362585Y249410D02*
G03*
X1362585Y249410I-12000J0D01*
G01*
X1362585Y349410D02*
G03*
X1362585Y349410I-12000J0D01*
G01*
X312585Y149410D02*
G03*
X312585Y149410I-12000J0D01*
G01*
X312585Y249410D02*
G03*
X312585Y249410I-12000J0D01*
G01*
X312585Y349410D02*
G03*
X312585Y349410I-12000J0D01*
G01*
X-857413Y-1660590D02*
G03*
X-857413Y-1660590I-12000J0D01*
G01*
X-957413Y-1660590D02*
G03*
X-957413Y-1660590I-12000J0D01*
G01*
X962585Y549410D02*
G03*
X962585Y549410I-12000J0D01*
G01*
X1162585Y549410D02*
G03*
X1162585Y549410I-12000J0D01*
G01*
X1062585Y549410D02*
G03*
X1062585Y549410I-12000J0D01*
G01*
X862585Y549410D02*
G03*
X862585Y549410I-12000J0D01*
G01*
X762585Y549410D02*
G03*
X762585Y549410I-12000J0D01*
G01*
X662585Y549410D02*
G03*
X662585Y549410I-12000J0D01*
G01*
X562585Y549410D02*
G03*
X562585Y549410I-12000J0D01*
G01*
X-643815Y-2137748D02*
G03*
X-643815Y-2137748I-12000J0D01*
G01*
X-743815Y-2137748D02*
G03*
X-743815Y-2137748I-12000J0D01*
G01*
X-843815Y-2137748D02*
G03*
X-843815Y-2137748I-12000J0D01*
G01*
X-943815Y-2137748D02*
G03*
X-943815Y-2137748I-12000J0D01*
G01*
%TF.MD5,48dfa9a7adb10853dd116289a6f099d9*%
M02*
