G04 Layer_Color=32768*
%FSLAX26Y26*%
%MOIN*%
%TF.FileFunction,Other,Mechanical_15*%
%TF.Part,Single*%
G01*
G75*
%TA.AperFunction,NonConductor*%
%ADD72C,0.003937*%
%ADD139C,0.001968*%
D72*
X2804378Y2065748D02*
X2804378Y2105118D01*
X2784693Y2085433D02*
X2824063Y2085433D01*
X578740Y-1877953D02*
X618110Y-1877953D01*
X598425Y-1897638D02*
X598425Y-1858268D01*
X1038386Y-898425D02*
X1077756Y-898425D01*
X1058071Y-918110D02*
X1058071Y-878740D01*
X726378Y1352362D02*
X765748Y1352362D01*
X746063Y1332677D02*
X746063Y1372047D01*
X562996Y1007873D02*
X562996Y1047243D01*
X543310Y1027559D02*
X582680Y1027559D01*
X295278Y460629D02*
X334648Y460629D01*
X314964Y440945D02*
X314964Y480315D01*
X314960Y629919D02*
X314960Y669289D01*
X295276Y649605D02*
X334646Y649605D01*
X59058Y440353D02*
X59058Y479723D01*
X39372Y460039D02*
X78742Y460039D01*
X55118Y-866141D02*
X94488Y-866141D01*
X74804Y-885825D02*
X74804Y-846455D01*
X59056Y-2313779D02*
X98426Y-2313779D01*
X78740Y-2333465D02*
X78740Y-2294095D01*
X82678Y-1082677D02*
X122048Y-1082677D01*
X102362Y-1102363D02*
X102362Y-1062993D01*
X799212Y-1740157D02*
X838582Y-1740157D01*
X818896Y-1759843D02*
X818896Y-1720473D01*
X677166Y-1767715D02*
X677166Y-1728345D01*
X657482Y-1748031D02*
X696852Y-1748031D01*
X677166Y-1850393D02*
X677166Y-1811023D01*
X657482Y-1830709D02*
X696852Y-1830709D01*
X677166Y-2011811D02*
X677166Y-1972441D01*
X657480Y-1992125D02*
X696850Y-1992125D01*
X677166Y-1933069D02*
X677166Y-1893699D01*
X657482Y-1913383D02*
X696852Y-1913383D01*
X169292Y-708661D02*
X208662Y-708661D01*
X188976Y-728347D02*
X188976Y-688977D01*
X326774Y-913383D02*
X366144Y-913383D01*
X346458Y-933069D02*
X346458Y-893699D01*
X346456Y-830709D02*
X346456Y-791339D01*
X326772Y-811025D02*
X366142Y-811025D01*
X346456Y-728347D02*
X346456Y-688977D01*
X326770Y-708663D02*
X366140Y-708663D01*
X326774Y-606297D02*
X366144Y-606297D01*
X346458Y-625981D02*
X346458Y-586611D01*
X1094490Y-1059055D02*
X1133860Y-1059055D01*
X1114174Y-1078741D02*
X1114174Y-1039371D01*
X1094490Y-980313D02*
X1133860Y-980313D01*
X1114174Y-999997D02*
X1114174Y-960627D01*
X1094490Y-893699D02*
X1133860Y-893699D01*
X1114174Y-913385D02*
X1114174Y-874015D01*
X66930Y-846457D02*
X66930Y-807087D01*
X47244Y-826771D02*
X86614Y-826771D01*
X77756Y-1274409D02*
X117126Y-1274409D01*
X97440Y-1294095D02*
X97440Y-1254725D01*
X97438Y-1394097D02*
X97438Y-1354725D01*
X77754Y-1374411D02*
X117124Y-1374411D01*
X799214Y-805117D02*
X838584Y-805117D01*
X818898Y-824803D02*
X818898Y-785433D01*
X799214Y-706693D02*
X838584Y-706693D01*
X818898Y-726377D02*
X818898Y-687007D01*
X2406062Y1282433D02*
X2445432Y1282433D01*
X2425748Y1262747D02*
X2425748Y1302117D01*
X2405512Y1175195D02*
X2444882Y1175195D01*
X2425198Y1155511D02*
X2425198Y1194881D01*
X471852Y-1471845D02*
X471852Y-1432475D01*
X452166Y-1452161D02*
X491536Y-1452161D01*
X444290Y-1359641D02*
X483660Y-1359641D01*
X463976Y-1379327D02*
X463976Y-1339957D01*
X434450Y-1152949D02*
X473820Y-1152949D01*
X454134Y-1172635D02*
X454134Y-1133265D01*
X444292Y-1251375D02*
X483662Y-1251375D01*
X463976Y-1271061D02*
X463976Y-1231691D01*
X736220Y366141D02*
X775590Y366141D01*
X755904Y346455D02*
X755904Y385825D01*
X723746Y4749D02*
X723746Y44119D01*
X704062Y24433D02*
X743432Y24433D01*
X606300Y3935D02*
X606300Y43305D01*
X586616Y23621D02*
X625986Y23621D01*
X326772Y-811023D02*
X366142Y-811023D01*
X346456Y-830709D02*
X346456Y-791339D01*
X326772Y-913385D02*
X366142Y-913385D01*
X346456Y-933071D02*
X346456Y-893701D01*
X326772Y-708661D02*
X366142Y-708661D01*
X346456Y-728347D02*
X346456Y-688977D01*
X326772Y-606299D02*
X366142Y-606299D01*
X346456Y-625985D02*
X346456Y-586615D01*
X2549212Y-503937D02*
X2588582Y-503937D01*
X2568896Y-523621D02*
X2568896Y-484251D01*
X2935086Y-505119D02*
X2974458Y-505119D01*
X2954772Y-524803D02*
X2954772Y-485433D01*
X2844488Y-809055D02*
X2883858Y-809055D01*
X2864174Y-828739D02*
X2864174Y-789369D01*
X2933070Y-809055D02*
X2972440Y-809055D01*
X2952756Y-828741D02*
X2952756Y-789371D01*
X2461064Y-799567D02*
X2500434Y-799567D01*
X2480748Y-819251D02*
X2480748Y-779881D01*
X2559056Y-799213D02*
X2598426Y-799213D01*
X2578740Y-818899D02*
X2578740Y-779529D01*
X746064Y1903543D02*
X746064Y1942913D01*
X726380Y1923229D02*
X765750Y1923229D01*
X2568898Y2094487D02*
X2608268Y2094487D01*
X2588582Y2074803D02*
X2588582Y2114173D01*
X3021654Y2074803D02*
X3021654Y2114173D01*
X3001970Y2094487D02*
X3041340Y2094487D01*
X1257876Y1332679D02*
X1297246Y1332679D01*
X1277560Y1312993D02*
X1277560Y1352363D01*
X1139762Y1312993D02*
X1139762Y1352363D01*
X1120078Y1332677D02*
X1159448Y1332677D01*
X1001970Y1348423D02*
X1041340Y1348423D01*
X1021656Y1328739D02*
X1021656Y1368109D01*
X67128Y-1798819D02*
X106498Y-1798819D01*
X86812Y-1818505D02*
X86812Y-1779135D01*
X77756Y-1299411D02*
X117126Y-1299411D01*
X97442Y-1319095D02*
X97442Y-1279725D01*
X846326Y608362D02*
X885696Y608362D01*
X866012Y588678D02*
X866012Y628048D01*
X738190Y2714567D02*
X777560Y2714567D01*
X757874Y2694883D02*
X757874Y2734253D01*
X2006858Y2700785D02*
X2046228Y2700785D01*
X2026544Y2681101D02*
X2026544Y2720471D01*
X2326772Y2700787D02*
X2366142Y2700787D01*
X2346458Y2681101D02*
X2346458Y2720471D01*
X2163386Y2700785D02*
X2202756Y2700785D01*
X2183070Y2681101D02*
X2183070Y2720471D01*
X2480314Y2700785D02*
X2519684Y2700785D01*
X2500000Y2681101D02*
X2500000Y2720471D01*
X2635826Y2700785D02*
X2675196Y2700785D01*
X2655512Y2681101D02*
X2655512Y2720471D01*
X2970126Y-1691731D02*
X3009496Y-1691731D01*
X2989810Y-1711417D02*
X2989810Y-1672047D01*
X2930660Y-497245D02*
X2970030Y-497245D01*
X2950346Y-516929D02*
X2950346Y-477559D01*
X2559056Y-494095D02*
X2598426Y-494095D01*
X2578740Y-513779D02*
X2578740Y-474409D01*
X1979332Y931103D02*
X2018702Y931103D01*
X1999016Y911417D02*
X1999016Y950789D01*
X1801180Y509841D02*
X1840550Y509841D01*
X1820866Y490157D02*
X1820866Y529527D01*
X1801182Y145669D02*
X1840552Y145669D01*
X1820866Y125983D02*
X1820866Y165353D01*
X2726378Y-120079D02*
X2726378Y-80709D01*
X2706692Y-100395D02*
X2746062Y-100395D01*
X62992Y-2468503D02*
X102362Y-2468503D01*
X82678Y-2488189D02*
X82678Y-2448819D01*
X82678Y-1763781D02*
X122048Y-1763781D01*
X102364Y-1783465D02*
X102364Y-1744095D01*
X59056Y-2271655D02*
X98426Y-2271655D01*
X78740Y-2291339D02*
X78740Y-2251969D01*
X2706696Y1356297D02*
X2706696Y1395667D01*
X2687010Y1375983D02*
X2726380Y1375983D01*
X2883858Y-1389763D02*
X2923228Y-1389763D01*
X2903544Y-1409449D02*
X2903544Y-1370079D01*
X2962598Y-1389763D02*
X3001968Y-1389763D01*
X2982282Y-1409449D02*
X2982282Y-1370079D01*
X1131890Y2606297D02*
X1171260Y2606297D01*
X1151576Y2586611D02*
X1151576Y2625981D01*
X2647636Y-799213D02*
X2687006Y-799213D01*
X2667322Y-818897D02*
X2667322Y-779527D01*
X2559054Y-799211D02*
X2598424Y-799211D01*
X2578740Y-818897D02*
X2578740Y-779527D01*
X3021654Y-799213D02*
X3061024Y-799213D01*
X3041340Y-818897D02*
X3041340Y-779527D01*
X2933068Y-799213D02*
X2972438Y-799213D01*
X2952754Y-818899D02*
X2952754Y-779529D01*
X2677318Y1485653D02*
X2677318Y1513213D01*
X2748184Y1485653D02*
X2748184Y1513213D01*
X2677318Y1485653D02*
X2748184Y1485653D01*
X2677318Y1513213D02*
X2748184Y1513213D01*
X2700940Y1499433D02*
X2724562Y1499433D01*
X2712750Y1487623D02*
X2712750Y1511245D01*
X2482748Y929751D02*
X2482748Y969121D01*
X2463062Y949435D02*
X2502432Y949435D01*
X2711750Y1633747D02*
X2711750Y1673117D01*
X2692064Y1653431D02*
X2731436Y1653431D01*
X2712602Y1547243D02*
X2712602Y1586613D01*
X2692916Y1566927D02*
X2732288Y1566927D01*
X984254Y2714567D02*
X1023624Y2714567D01*
X1003938Y2694881D02*
X1003938Y2734251D01*
X1326774Y1303151D02*
X1366144Y1303151D01*
X1346458Y1283465D02*
X1346458Y1322835D01*
X1818898Y1224409D02*
X1818898Y1263779D01*
X1799212Y1244095D02*
X1838582Y1244095D01*
X1818898Y1352361D02*
X1818898Y1391731D01*
X1799214Y1372047D02*
X1838584Y1372047D01*
X1562992Y1322835D02*
X1602362Y1322835D01*
X1582678Y1303149D02*
X1582678Y1342519D01*
X1574804Y-90551D02*
X1574804Y-51181D01*
X1555120Y-70867D02*
X1594490Y-70867D01*
X819746Y-963251D02*
X819746Y-923881D01*
X800062Y-943567D02*
X839432Y-943567D01*
X82678Y-1173227D02*
X122048Y-1173227D01*
X102362Y-1192913D02*
X102362Y-1153543D01*
X78740Y-1452753D02*
X118110Y-1452753D01*
X98424Y-1472439D02*
X98424Y-1433069D01*
X1368704Y-990945D02*
X1368704Y-951575D01*
X1349018Y-971259D02*
X1388388Y-971259D01*
X1368700Y-890945D02*
X1368700Y-851575D01*
X1349016Y-871261D02*
X1388386Y-871261D01*
X39370Y558465D02*
X78740Y558465D01*
X59056Y538779D02*
X59056Y578149D01*
X19684Y715945D02*
X59054Y715945D01*
X39370Y696259D02*
X39370Y735629D01*
X767714Y1917321D02*
X807084Y1917321D01*
X787400Y1897635D02*
X787400Y1937005D01*
X1023624Y2094487D02*
X1023624Y2133857D01*
X1003938Y2114173D02*
X1043308Y2114173D01*
X307088Y-2480315D02*
X307088Y-2440945D01*
X287402Y-2460629D02*
X326772Y-2460629D01*
X1811024Y-3673229D02*
X1850394Y-3673229D01*
X1830708Y-3692913D02*
X1830708Y-3653543D01*
X2066928Y-4086615D02*
X2106298Y-4086615D01*
X2086614Y-4106301D02*
X2086614Y-4066931D01*
X2066930Y-4234251D02*
X2106300Y-4234251D01*
X2086614Y-4253935D02*
X2086614Y-4214565D01*
X2066928Y-4165355D02*
X2106298Y-4165355D01*
X2086614Y-4185039D02*
X2086614Y-4145669D01*
X2066930Y-4017719D02*
X2106300Y-4017719D01*
X2086614Y-4037403D02*
X2086614Y-3998033D01*
X1562992Y-4133859D02*
X1602362Y-4133859D01*
X1582678Y-4153545D02*
X1582678Y-4114175D01*
X1562992Y-4066927D02*
X1602362Y-4066927D01*
X1582676Y-4086613D02*
X1582676Y-4047243D01*
X1562992Y-3999999D02*
X1602362Y-3999999D01*
X1582678Y-4019685D02*
X1582678Y-3980315D01*
X1562994Y-3933069D02*
X1602364Y-3933069D01*
X1582678Y-3952753D02*
X1582678Y-3913383D01*
X1574804Y-3751969D02*
X1614174Y-3751969D01*
X1594488Y-3771653D02*
X1594488Y-3732283D01*
X1574802Y-3683071D02*
X1614172Y-3683071D01*
X1594488Y-3702755D02*
X1594488Y-3663385D01*
X2037402Y-3712597D02*
X2037402Y-3673227D01*
X2017718Y-3692911D02*
X2057088Y-3692911D01*
X2017716Y-3860237D02*
X2057086Y-3860237D01*
X2037400Y-3879921D02*
X2037400Y-3840551D01*
X1879920Y-3132873D02*
X1919290Y-3132873D01*
X1899604Y-3152559D02*
X1899604Y-3113189D01*
X1881890Y-3306103D02*
X1921260Y-3306103D01*
X1901574Y-3325789D02*
X1901574Y-3286419D01*
X1496064Y-1557085D02*
X1535434Y-1557085D01*
X1515750Y-1576771D02*
X1515750Y-1537401D01*
X620062Y-2612565D02*
X659432Y-2612565D01*
X639746Y-2632251D02*
X639746Y-2592881D01*
X885828Y2586613D02*
X885828Y2625985D01*
X866142Y2606299D02*
X905512Y2606299D01*
X-39368Y-2468505D02*
X2Y-2468505D01*
X-19684Y-2488191D02*
X-19684Y-2448821D01*
X2031496Y-4716535D02*
X2070866Y-4716535D01*
X2051182Y-4736221D02*
X2051182Y-4696851D01*
X2125986Y-4720471D02*
X2165356Y-4720471D01*
X2145670Y-4740157D02*
X2145670Y-4700787D01*
X1732284Y-405511D02*
X1771654Y-405511D01*
X1751968Y-425195D02*
X1751968Y-385825D01*
X1732284Y-326773D02*
X1771654Y-326773D01*
X1751970Y-346459D02*
X1751970Y-307089D01*
X2322836Y-877953D02*
X2322836Y-838583D01*
X2303150Y-858269D02*
X2342520Y-858269D01*
X2401572Y-1527559D02*
X2440942Y-1527559D01*
X2421256Y-1547243D02*
X2421256Y-1507873D01*
X2401576Y-1685039D02*
X2440946Y-1685039D01*
X2421262Y-1704723D02*
X2421262Y-1665353D01*
X2866140Y-1133859D02*
X2905510Y-1133859D01*
X2885824Y-1153543D02*
X2885824Y-1114173D01*
X590548Y2173229D02*
X590548Y2212599D01*
X570864Y2192913D02*
X610234Y2192913D01*
X2093504Y894843D02*
X2132874Y894843D01*
X2113190Y875157D02*
X2113190Y914527D01*
X464568Y-1625985D02*
X503938Y-1625985D01*
X484252Y-1645671D02*
X484252Y-1606301D01*
X401576Y-3755907D02*
X401576Y-3716537D01*
X381892Y-3736223D02*
X421262Y-3736223D01*
X2668748Y929749D02*
X2668748Y969119D01*
X2649064Y949433D02*
X2688434Y949433D01*
X2625750Y1034747D02*
X2625750Y1074117D01*
X2606064Y1054431D02*
X2645434Y1054431D01*
X2724408Y1210629D02*
X2724408Y1249999D01*
X2704724Y1230315D02*
X2744094Y1230315D01*
X744094Y472441D02*
X783464Y472441D01*
X763780Y452757D02*
X763780Y492127D01*
X1023622Y204723D02*
X1023622Y244093D01*
X1003936Y224409D02*
X1043306Y224409D01*
X1830708Y-4106299D02*
X1830708Y-4066929D01*
X1811024Y-4086615D02*
X1850394Y-4086615D01*
X2287402Y-4775589D02*
X2287402Y-4736219D01*
X2267716Y-4755905D02*
X2307086Y-4755905D01*
X2608266Y-3771651D02*
X2647636Y-3771651D01*
X2627952Y-3791337D02*
X2627952Y-3751967D01*
X2543306Y-3791337D02*
X2543306Y-3751967D01*
X2523622Y-3771653D02*
X2562992Y-3771653D01*
X1094490Y-811023D02*
X1133860Y-811023D01*
X1114176Y-830709D02*
X1114176Y-791339D01*
D139*
X2658709Y1977165D02*
X2950047Y1977165D01*
X2658709Y2193701D02*
X2950047Y2193701D01*
X2950047Y1977165D02*
X2950047Y2193701D01*
X2658709Y1977165D02*
X2658709Y2193701D01*
X444882Y-2043307D02*
X444882Y-1712599D01*
X751968Y-2043307D02*
X751968Y-1712599D01*
X444882Y-1712599D02*
X751968Y-1712599D01*
X444882Y-2043307D02*
X751968Y-2043307D01*
X904528Y-1038189D02*
X904528Y-758661D01*
X1211614Y-1038189D02*
X1211614Y-758661D01*
X904528Y-758661D02*
X1211614Y-758661D01*
X904528Y-1038189D02*
X1211614Y-1038189D01*
X701220Y1166339D02*
X701220Y1538386D01*
X790905Y1166339D02*
X790905Y1538386D01*
X701220Y1166339D02*
X790905Y1166339D01*
X701220Y1538386D02*
X790905Y1538386D01*
X476382Y1076771D02*
X649610Y1076771D01*
X476382Y978345D02*
X649610Y978345D01*
X649610Y1076771D01*
X476382Y978345D02*
X476382Y1076771D01*
X354334Y391731D02*
X354334Y529527D01*
X275594Y391731D02*
X275594Y529527D01*
X275594Y391731D02*
X354334Y391731D01*
X275594Y529527D02*
X354334Y529527D01*
X275590Y580707D02*
X354330Y580707D01*
X275590Y718503D02*
X354330Y718503D01*
X354330Y580707D02*
X354330Y718503D01*
X275590Y580707D02*
X275590Y718503D01*
X-131888Y249409D02*
X250002Y249409D01*
X-131888Y670669D02*
X250002Y670669D01*
X250002Y249409D02*
X250002Y670669D01*
X-131888Y249409D02*
X-131888Y670669D01*
X43308Y-921259D02*
X43308Y-811023D01*
X106300Y-921259D02*
X106300Y-811023D01*
X43308Y-811023D02*
X106300Y-811023D01*
X43308Y-921259D02*
X106300Y-921259D01*
X-53150Y-2489961D02*
X-53150Y-2137599D01*
X210630Y-2489961D02*
X210630Y-2137599D01*
X-53150Y-2137599D02*
X210630Y-2137599D01*
X-53150Y-2489961D02*
X210630Y-2489961D01*
X33464Y-1122049D02*
X33464Y-1043307D01*
X171260Y-1122049D02*
X171260Y-1043307D01*
X33464Y-1122049D02*
X171260Y-1122049D01*
X33464Y-1043307D02*
X171260Y-1043307D01*
X858266Y-1809055D02*
X858266Y-1671261D01*
X779526Y-1809055D02*
X779526Y-1671261D01*
X858266Y-1671261D01*
X779526Y-1809055D02*
X858266Y-1809055D01*
X608270Y-1787401D02*
X746064Y-1787401D01*
X608270Y-1708661D02*
X746064Y-1708661D01*
X608270Y-1787401D02*
X608270Y-1708661D01*
X746064Y-1787401D02*
X746064Y-1708661D01*
X608270Y-1870079D02*
X746064Y-1870079D01*
X608270Y-1791339D02*
X746064Y-1791339D01*
X608270Y-1870079D02*
X608270Y-1791339D01*
X746064Y-1870079D02*
X746064Y-1791339D01*
X608268Y-2031495D02*
X746064Y-2031495D01*
X608268Y-1952755D02*
X746064Y-1952755D01*
X608268Y-2031495D02*
X608268Y-1952755D01*
X746064Y-2031495D02*
X746064Y-1952755D01*
X608270Y-1952753D02*
X746064Y-1952753D01*
X608270Y-1874013D02*
X746064Y-1874013D01*
X608270Y-1952753D02*
X608270Y-1874013D01*
X746064Y-1952753D02*
X746064Y-1874013D01*
X120080Y-746063D02*
X120080Y-671259D01*
X257874Y-746063D02*
X257874Y-671259D01*
X120080Y-746063D02*
X257874Y-746063D01*
X120080Y-671259D02*
X257874Y-671259D01*
X277560Y-950785D02*
X277560Y-875981D01*
X415356Y-950785D02*
X415356Y-875981D01*
X277560Y-950785D02*
X415356Y-950785D01*
X277560Y-875981D02*
X415356Y-875981D01*
X291338Y-842521D02*
X401574Y-842521D01*
X291338Y-779529D02*
X401574Y-779529D01*
X291338Y-842521D02*
X291338Y-779529D01*
X401574Y-842521D02*
X401574Y-779529D01*
X291338Y-740159D02*
X401574Y-740159D01*
X291338Y-677167D02*
X401574Y-677167D01*
X291338Y-740159D02*
X291338Y-677167D01*
X401574Y-740159D02*
X401574Y-677167D01*
X277560Y-643699D02*
X277560Y-568895D01*
X415356Y-643699D02*
X415356Y-568895D01*
X277560Y-643699D02*
X415356Y-643699D01*
X277560Y-568895D02*
X415356Y-568895D01*
X1045276Y-1096457D02*
X1045276Y-1021653D01*
X1183072Y-1096457D02*
X1183072Y-1021653D01*
X1045276Y-1096457D02*
X1183072Y-1096457D01*
X1045276Y-1021653D02*
X1183072Y-1021653D01*
X1183072Y-1017715D02*
X1183072Y-942911D01*
X1045276Y-1017715D02*
X1045276Y-942911D01*
X1183072Y-942911D01*
X1045276Y-1017715D02*
X1183072Y-1017715D01*
X1045276Y-933071D02*
X1045276Y-854329D01*
X1183072Y-933071D02*
X1183072Y-854329D01*
X1045276Y-933071D02*
X1183072Y-933071D01*
X1045276Y-854329D02*
X1183072Y-854329D01*
X-64960Y-724409D02*
X198820Y-724409D01*
X-64960Y-929133D02*
X198820Y-929133D01*
X-64960Y-929133D02*
X-64960Y-724409D01*
X198820Y-929133D02*
X198820Y-724409D01*
X184054Y-1323621D02*
X184054Y-1225197D01*
X10826Y-1323621D02*
X10826Y-1225197D01*
X184054Y-1225197D01*
X10826Y-1323621D02*
X184054Y-1323621D01*
X10824Y-1423623D02*
X184052Y-1423623D01*
X10824Y-1325199D02*
X184052Y-1325199D01*
X10824Y-1423623D02*
X10824Y-1325199D01*
X184052Y-1423623D02*
X184052Y-1325199D01*
X732284Y-854331D02*
X732284Y-755905D01*
X905512Y-854331D02*
X905512Y-755905D01*
X732284Y-854331D02*
X905512Y-854331D01*
X732284Y-755905D02*
X905512Y-755905D01*
X732284Y-755905D02*
X732284Y-657479D01*
X905512Y-755905D02*
X905512Y-657479D01*
X732284Y-755905D02*
X905512Y-755905D01*
X732284Y-657479D02*
X905512Y-657479D01*
X2333228Y1219441D02*
X2333228Y1345425D01*
X2518268Y1219441D02*
X2518268Y1345425D01*
X2333228Y1219441D02*
X2518268Y1219441D01*
X2333228Y1345425D02*
X2518268Y1345425D01*
X2332678Y1129921D02*
X2332678Y1220471D01*
X2517718Y1129921D02*
X2517718Y1220471D01*
X2332678Y1129921D02*
X2517718Y1129921D01*
X2332678Y1220471D02*
X2517718Y1220471D01*
X402954Y-1491531D02*
X540748Y-1491531D01*
X402954Y-1412791D02*
X540748Y-1412791D01*
X402954Y-1491531D02*
X402954Y-1412791D01*
X540748Y-1491531D02*
X540748Y-1412791D01*
X550590Y-1408853D02*
X550590Y-1310429D01*
X377362Y-1408853D02*
X377362Y-1310429D01*
X550590Y-1310429D01*
X377362Y-1408853D02*
X550590Y-1408853D01*
X385236Y-1192321D02*
X385236Y-1113579D01*
X523032Y-1192321D02*
X523032Y-1113579D01*
X385236Y-1192321D02*
X523032Y-1192321D01*
X385236Y-1113579D02*
X523032Y-1113579D01*
X550590Y-1300587D02*
X550590Y-1202163D01*
X377362Y-1300587D02*
X377362Y-1202163D01*
X550590Y-1202163D01*
X377362Y-1300587D02*
X550590Y-1300587D01*
X842518Y316927D02*
X842518Y415353D01*
X669290Y316927D02*
X669290Y415353D01*
X669290Y316927D02*
X842518Y316927D01*
X669290Y415353D02*
X842518Y415353D01*
X674534Y111047D02*
X772960Y111047D01*
X674534Y-62181D02*
X772960Y-62181D01*
X772960Y111047D01*
X674534Y-62181D02*
X674534Y111047D01*
X557088Y110235D02*
X655514Y110235D01*
X557088Y-62993D02*
X655514Y-62993D01*
X655514Y110235D01*
X557088Y-62993D02*
X557088Y110235D01*
X259842Y-860235D02*
X259842Y-761811D01*
X433070Y-860235D02*
X433070Y-761811D01*
X259842Y-761811D02*
X433070Y-761811D01*
X259842Y-860235D02*
X433070Y-860235D01*
X259842Y-962599D02*
X259842Y-864173D01*
X433070Y-962599D02*
X433070Y-864173D01*
X259842Y-864173D02*
X433070Y-864173D01*
X259842Y-962599D02*
X433070Y-962599D01*
X259842Y-757873D02*
X259842Y-659449D01*
X433070Y-757873D02*
X433070Y-659449D01*
X259842Y-659449D02*
X433070Y-659449D01*
X259842Y-757873D02*
X433070Y-757873D01*
X259842Y-655513D02*
X259842Y-557087D01*
X433070Y-655513D02*
X433070Y-557087D01*
X259842Y-557087D02*
X433070Y-557087D01*
X259842Y-655513D02*
X433070Y-655513D01*
X2701574Y-740157D02*
X2701574Y-268111D01*
X2436220Y-740157D02*
X2436220Y-268111D01*
X2436220Y-267717D02*
X2701574Y-267717D01*
X2436220Y-740157D02*
X2701574Y-740157D01*
X3087450Y-741339D02*
X3087450Y-269291D01*
X2822094Y-741339D02*
X2822094Y-269291D01*
X2822094Y-268897D02*
X3087450Y-268897D01*
X2822094Y-741339D02*
X3087450Y-741339D01*
X2893702Y-864173D02*
X2893702Y-753937D01*
X2834646Y-864173D02*
X2834646Y-753937D01*
X2893702Y-753937D01*
X2834646Y-864173D02*
X2893702Y-864173D01*
X2982282Y-864173D02*
X2982282Y-753937D01*
X2923228Y-864173D02*
X2923228Y-753937D01*
X2982282Y-753937D01*
X2923228Y-864173D02*
X2982282Y-864173D01*
X2510276Y-854685D02*
X2510276Y-744449D01*
X2451222Y-854685D02*
X2451222Y-744449D01*
X2510276Y-744449D01*
X2451222Y-854685D02*
X2510276Y-854685D01*
X2608268Y-854331D02*
X2608268Y-744095D01*
X2549212Y-854331D02*
X2549212Y-744095D01*
X2608268Y-744095D01*
X2549212Y-854331D02*
X2608268Y-854331D01*
X555120Y1712599D02*
X937010Y1712599D01*
X555120Y2133859D02*
X937010Y2133859D01*
X937010Y1712599D02*
X937010Y2133859D01*
X555120Y1712599D02*
X555120Y2133859D01*
X2633858Y2001969D02*
X2633858Y2187007D01*
X2543306Y2001969D02*
X2543306Y2187007D01*
X2633858Y2187007D01*
X2543306Y2001969D02*
X2633858Y2001969D01*
X2976380Y2001967D02*
X3066930Y2001967D01*
X2976380Y2187007D02*
X3066930Y2187007D01*
X2976380Y2001967D02*
X2976380Y2187007D01*
X3066930Y2001967D02*
X3066930Y2187007D01*
X1332678Y1253939D02*
X1332678Y1411419D01*
X1222442Y1253939D02*
X1222442Y1411419D01*
X1332678Y1411419D01*
X1222442Y1253939D02*
X1332678Y1253939D01*
X1084644Y1253937D02*
X1194880Y1253937D01*
X1084644Y1411417D02*
X1194880Y1411417D01*
X1084644Y1253937D02*
X1084644Y1411417D01*
X1194880Y1253937D02*
X1194880Y1411417D01*
X1061026Y1279525D02*
X1061026Y1417321D01*
X982286Y1279525D02*
X982286Y1417321D01*
X1061026Y1417321D01*
X982286Y1279525D02*
X1061026Y1279525D01*
X218702Y-1975001D02*
X218702Y-1622639D01*
X-45078Y-1975001D02*
X-45078Y-1622639D01*
X-45078Y-1975001D02*
X218702Y-1975001D01*
X-45078Y-1622639D02*
X218702Y-1622639D01*
X-65944Y-1417521D02*
X-65944Y-1181299D01*
X260828Y-1417521D02*
X260828Y-1181299D01*
X-65944Y-1181299D02*
X260828Y-1181299D01*
X-65944Y-1417521D02*
X260828Y-1417521D01*
X921130Y578834D02*
X921130Y637890D01*
X810894Y578834D02*
X810894Y637890D01*
X810894Y578834D02*
X921130Y578834D01*
X810894Y637890D02*
X921130Y637890D01*
X702756Y2683071D02*
X702756Y2746065D01*
X812994Y2683071D02*
X812994Y2746065D01*
X702756Y2683071D02*
X812994Y2683071D01*
X702756Y2746065D02*
X812994Y2746065D01*
X1971424Y2669289D02*
X1971424Y2732283D01*
X2081662Y2669289D02*
X2081662Y2732283D01*
X1971424Y2669289D02*
X2081662Y2669289D01*
X1971424Y2732283D02*
X2081662Y2732283D01*
X2291340Y2669289D02*
X2291340Y2732283D01*
X2401576Y2669289D02*
X2401576Y2732283D01*
X2291340Y2669289D02*
X2401576Y2669289D01*
X2291340Y2732283D02*
X2401576Y2732283D01*
X2127952Y2669289D02*
X2127952Y2732283D01*
X2238188Y2669289D02*
X2238188Y2732283D01*
X2127952Y2669289D02*
X2238188Y2669289D01*
X2127952Y2732283D02*
X2238188Y2732283D01*
X2444882Y2669289D02*
X2444882Y2732283D01*
X2555118Y2669289D02*
X2555118Y2732283D01*
X2444882Y2669289D02*
X2555118Y2669289D01*
X2444882Y2732283D02*
X2555118Y2732283D01*
X2600394Y2669289D02*
X2600394Y2732283D01*
X2710630Y2669289D02*
X2710630Y2732283D01*
X2600394Y2669289D02*
X2710630Y2669289D01*
X2600394Y2732283D02*
X2710630Y2732283D01*
X3122488Y-1927557D02*
X3122488Y-1455511D01*
X2857134Y-1927557D02*
X2857134Y-1455511D01*
X2857134Y-1927951D02*
X3122488Y-1927951D01*
X2857134Y-1455511D02*
X3122488Y-1455511D01*
X2817668Y-733465D02*
X2817668Y-261419D01*
X3083022Y-733465D02*
X3083022Y-261419D01*
X2817668Y-261025D02*
X3083022Y-261025D01*
X2817668Y-733465D02*
X3083022Y-733465D01*
X2446064Y-730315D02*
X2446064Y-258267D01*
X2711418Y-730315D02*
X2711418Y-258267D01*
X2446064Y-257873D02*
X2711418Y-257873D01*
X2446064Y-730315D02*
X2711418Y-730315D01*
X2048228Y844489D02*
X2048228Y1017717D01*
X1949804Y844489D02*
X1949804Y1017717D01*
X1949804Y844489D02*
X2048228Y844489D01*
X1949804Y1017717D02*
X2048228Y1017717D01*
X1909448Y374015D02*
X1909448Y645669D01*
X1732282Y374015D02*
X1732282Y645669D01*
X1732282Y374015D02*
X1909448Y374015D01*
X1732282Y645669D02*
X1909448Y645669D01*
X1732284Y9841D02*
X1732284Y281495D01*
X1909448Y9841D02*
X1909448Y281495D01*
X1732284Y281495D02*
X1909448Y281495D01*
X1732284Y9841D02*
X1909448Y9841D01*
X2590550Y-11811D02*
X2862204Y-11811D01*
X2590550Y-188977D02*
X2862204Y-188977D01*
X2862204Y-11811D01*
X2590550Y-188977D02*
X2590550Y-11811D01*
X131890Y-2555117D02*
X131890Y-2381889D01*
X33466Y-2555117D02*
X33466Y-2381889D01*
X33466Y-2555117D02*
X131890Y-2555117D01*
X33466Y-2381889D02*
X131890Y-2381889D01*
X141734Y-1832677D02*
X141734Y-1694883D01*
X62994Y-1832677D02*
X62994Y-1694883D01*
X62994Y-1832677D02*
X141734Y-1832677D01*
X62994Y-1694883D02*
X141734Y-1694883D01*
X118110Y-2340551D02*
X118110Y-2202757D01*
X39370Y-2340551D02*
X39370Y-2202757D01*
X39370Y-2340551D02*
X118110Y-2340551D01*
X39370Y-2202757D02*
X118110Y-2202757D01*
X2624018Y1309053D02*
X2789372Y1309053D01*
X2624018Y1442911D02*
X2789372Y1442911D01*
X2624018Y1309053D02*
X2624018Y1442911D01*
X2789372Y1309053D02*
X2789372Y1442911D01*
X2933072Y-1444881D02*
X2933072Y-1334645D01*
X2874016Y-1444881D02*
X2874016Y-1334645D01*
X2874016Y-1444881D02*
X2933072Y-1444881D01*
X2874016Y-1334645D02*
X2933072Y-1334645D01*
X3011810Y-1444881D02*
X3011810Y-1334645D01*
X2952756Y-1444881D02*
X2952756Y-1334645D01*
X2952756Y-1444881D02*
X3011810Y-1444881D01*
X2952756Y-1334645D02*
X3011810Y-1334645D01*
X1102362Y2519683D02*
X1102362Y2692911D01*
X1200788Y2519683D02*
X1200788Y2692911D01*
X1102362Y2692911D02*
X1200788Y2692911D01*
X1102362Y2519683D02*
X1200788Y2519683D01*
X2637794Y-854331D02*
X2637794Y-744095D01*
X2696848Y-854331D02*
X2696848Y-744095D01*
X2637794Y-744095D02*
X2696848Y-744095D01*
X2637794Y-854331D02*
X2696848Y-854331D01*
X2608268Y-854329D02*
X2608268Y-744093D01*
X2549212Y-854329D02*
X2549212Y-744093D01*
X2549212Y-854329D02*
X2608268Y-854329D01*
X2549212Y-744093D02*
X2608268Y-744093D01*
X3011812Y-854331D02*
X3011812Y-744095D01*
X3070866Y-854331D02*
X3070866Y-744095D01*
X3011812Y-744095D02*
X3070866Y-744095D01*
X3011812Y-854331D02*
X3070866Y-854331D01*
X2982282Y-854331D02*
X2982282Y-744095D01*
X2923226Y-854331D02*
X2923226Y-744095D01*
X2923226Y-854331D02*
X2982282Y-854331D01*
X2923226Y-744095D02*
X2982282Y-744095D01*
X2413850Y988805D02*
X2551646Y988805D01*
X2413850Y910065D02*
X2551646Y910065D01*
X2551646Y988805D01*
X2413850Y910065D02*
X2413850Y988805D01*
X2619230Y1608157D02*
X2804270Y1608157D01*
X2619230Y1698707D02*
X2804270Y1698707D01*
X2619230Y1608157D02*
X2619230Y1698707D01*
X2804270Y1608157D02*
X2804270Y1698707D01*
X2643704Y1527557D02*
X2781500Y1527557D01*
X2643704Y1606299D02*
X2781500Y1606299D01*
X2643704Y1527557D02*
X2643704Y1606299D01*
X2781500Y1527557D02*
X2781500Y1606299D01*
X2627950Y1132873D02*
X2627950Y1170275D01*
X2609248Y1151573D02*
X2646650Y1151573D01*
X2568894Y1122045D02*
X2687004Y1122045D01*
X2568894Y1181101D02*
X2687004Y1181101D01*
X2568894Y1122045D02*
X2568894Y1181101D01*
X2687004Y1122045D02*
X2687004Y1181101D01*
X948820Y2683069D02*
X948820Y2746063D01*
X1059056Y2683069D02*
X1059056Y2746063D01*
X948820Y2683069D02*
X1059056Y2683069D01*
X948820Y2746063D02*
X1059056Y2746063D01*
X1401576Y1224409D02*
X1401576Y1381891D01*
X1291340Y1224409D02*
X1291340Y1381891D01*
X1291340Y1224409D02*
X1401576Y1224409D01*
X1291340Y1381891D02*
X1401576Y1381891D01*
X1750000Y1204725D02*
X1887796Y1204725D01*
X1750000Y1283465D02*
X1887796Y1283465D01*
X1750000Y1204725D02*
X1750000Y1283465D01*
X1887796Y1204725D02*
X1887796Y1283465D01*
X1750000Y1332677D02*
X1887796Y1332677D01*
X1750000Y1411417D02*
X1887796Y1411417D01*
X1750000Y1332677D02*
X1750000Y1411417D01*
X1887796Y1332677D02*
X1887796Y1411417D01*
X1748032Y1202757D02*
X1748032Y1442913D01*
X1417324Y1202757D02*
X1417324Y1442913D01*
X1748032Y1442913D01*
X1417324Y1202757D02*
X1748032Y1202757D01*
X1438978Y17717D02*
X1710632Y17717D01*
X1438978Y-159449D02*
X1710632Y-159449D01*
X1710632Y17717D01*
X1438978Y-159449D02*
X1438978Y17717D01*
X780376Y-874669D02*
X859116Y-874669D01*
X780376Y-1012463D02*
X859116Y-1012463D01*
X859116Y-874669D01*
X780376Y-1012463D02*
X780376Y-874669D01*
X188976Y-1222439D02*
X188976Y-1124015D01*
X15748Y-1222439D02*
X15748Y-1124015D01*
X188976Y-1124015D01*
X15748Y-1222439D02*
X188976Y-1222439D01*
X167322Y-1492125D02*
X167322Y-1413383D01*
X29526Y-1492125D02*
X29526Y-1413383D01*
X29526Y-1492125D02*
X167322Y-1492125D01*
X29526Y-1413383D02*
X167322Y-1413383D01*
X1282088Y-1020473D02*
X1455318Y-1020473D01*
X1282088Y-922047D02*
X1455318Y-922047D01*
X1455318Y-1020473D02*
X1455318Y-922047D01*
X1282088Y-1020473D02*
X1282088Y-922047D01*
X1282086Y-920473D02*
X1455314Y-920473D01*
X1282086Y-822047D02*
X1455314Y-822047D01*
X1455314Y-920473D02*
X1455314Y-822047D01*
X1282086Y-920473D02*
X1282086Y-822047D01*
X108268Y471849D02*
X108268Y645079D01*
X9844Y471849D02*
X9844Y645079D01*
X9844Y471849D02*
X108268Y471849D01*
X9844Y645079D02*
X108268Y645079D01*
X-29528Y676573D02*
X-29528Y755315D01*
X108268Y676573D02*
X108268Y755315D01*
X-29528Y676573D02*
X108268Y676573D01*
X-29528Y755315D02*
X108268Y755315D01*
X826770Y1848423D02*
X826770Y1986219D01*
X748030Y1848423D02*
X748030Y1986219D01*
X748030Y1848423D02*
X826770Y1848423D01*
X748030Y1986219D02*
X826770Y1986219D01*
X984254Y2045275D02*
X1062994Y2045275D01*
X984254Y2183071D02*
X1062994Y2183071D01*
X984254Y2045275D02*
X984254Y2183071D01*
X1062994Y2045275D02*
X1062994Y2183071D01*
X220474Y-2411417D02*
X393702Y-2411417D01*
X220474Y-2509841D02*
X393702Y-2509841D01*
X220474Y-2509841D02*
X220474Y-2411417D01*
X393702Y-2509841D02*
X393702Y-2411417D01*
X1976378Y-3781495D02*
X1976378Y-3564961D01*
X1685040Y-3781495D02*
X1685040Y-3564961D01*
X1976378Y-3564961D01*
X1685040Y-3781495D02*
X1976378Y-3781495D01*
X2141732Y-4116143D02*
X2141732Y-4057087D01*
X2031496Y-4116143D02*
X2031496Y-4057087D01*
X2141732Y-4057087D01*
X2031496Y-4116143D02*
X2141732Y-4116143D01*
X2031496Y-4263779D02*
X2031496Y-4204723D01*
X2141732Y-4263779D02*
X2141732Y-4204723D01*
X2031496Y-4263779D02*
X2141732Y-4263779D01*
X2031496Y-4204723D02*
X2141732Y-4204723D01*
X2141732Y-4194883D02*
X2141732Y-4135827D01*
X2031496Y-4194883D02*
X2031496Y-4135827D01*
X2141732Y-4135827D01*
X2031496Y-4194883D02*
X2141732Y-4194883D01*
X2031496Y-4047247D02*
X2031496Y-3988191D01*
X2141732Y-4047247D02*
X2141732Y-3988191D01*
X2031496Y-4047247D02*
X2141732Y-4047247D01*
X2031496Y-3988191D02*
X2141732Y-3988191D01*
X1637796Y-4163387D02*
X1637796Y-4104331D01*
X1527560Y-4163387D02*
X1527560Y-4104331D01*
X1637796Y-4104331D01*
X1527560Y-4163387D02*
X1637796Y-4163387D01*
X1527558Y-4096455D02*
X1527558Y-4037399D01*
X1637794Y-4096455D02*
X1637794Y-4037399D01*
X1527558Y-4096455D02*
X1637794Y-4096455D01*
X1527558Y-4037399D02*
X1637794Y-4037399D01*
X1637796Y-4029527D02*
X1637796Y-3970471D01*
X1527560Y-4029527D02*
X1527560Y-3970471D01*
X1637796Y-3970471D01*
X1527560Y-4029527D02*
X1637796Y-4029527D01*
X1527560Y-3962597D02*
X1527560Y-3903541D01*
X1637796Y-3962597D02*
X1637796Y-3903541D01*
X1527560Y-3962597D02*
X1637796Y-3962597D01*
X1527560Y-3903541D02*
X1637796Y-3903541D01*
X1539370Y-3781497D02*
X1539370Y-3722441D01*
X1649606Y-3781497D02*
X1649606Y-3722441D01*
X1539370Y-3781497D02*
X1649606Y-3781497D01*
X1539370Y-3722441D02*
X1649606Y-3722441D01*
X1649606Y-3712599D02*
X1649606Y-3653543D01*
X1539370Y-3712599D02*
X1539370Y-3653543D01*
X1649606Y-3653543D01*
X1539370Y-3712599D02*
X1649606Y-3712599D01*
X1998032Y-3624013D02*
X2076772Y-3624013D01*
X1998032Y-3761809D02*
X2076772Y-3761809D01*
X1998032Y-3761809D02*
X1998032Y-3624013D01*
X2076772Y-3761809D02*
X2076772Y-3624013D01*
X1968502Y-3899607D02*
X1968502Y-3820867D01*
X2106298Y-3899607D02*
X2106298Y-3820867D01*
X1968502Y-3899607D02*
X2106298Y-3899607D01*
X1968502Y-3820867D02*
X2106298Y-3820867D01*
X2062990Y-3250983D02*
X2062990Y-3014763D01*
X1736218Y-3250983D02*
X1736218Y-3014763D01*
X2062990Y-3014763D01*
X1736218Y-3250983D02*
X2062990Y-3250983D01*
X1832676Y-3345475D02*
X1832676Y-3266733D01*
X1970472Y-3345475D02*
X1970472Y-3266733D01*
X1832676Y-3345475D02*
X1970472Y-3345475D01*
X1832676Y-3266733D02*
X1970472Y-3266733D01*
X1466538Y-1643701D02*
X1466538Y-1470471D01*
X1564962Y-1643701D02*
X1564962Y-1470471D01*
X1466538Y-1643701D02*
X1564962Y-1643701D01*
X1466538Y-1470471D02*
X1564962Y-1470471D01*
X688958Y-2699179D02*
X688958Y-2525951D01*
X590534Y-2699179D02*
X590534Y-2525951D01*
X688958Y-2525951D01*
X590534Y-2699179D02*
X688958Y-2699179D01*
X836614Y2519685D02*
X935040Y2519685D01*
X836614Y2692913D02*
X935040Y2692913D01*
X935040Y2519685D02*
X935040Y2692913D01*
X836614Y2519685D02*
X836614Y2692913D01*
X-68896Y-2555119D02*
X-68896Y-2381891D01*
X29528Y-2555119D02*
X29528Y-2381891D01*
X-68896Y-2381891D02*
X29528Y-2381891D01*
X-68896Y-2555119D02*
X29528Y-2555119D01*
X2000000Y-4803151D02*
X2000000Y-4629921D01*
X2102364Y-4803151D02*
X2102364Y-4629921D01*
X2000000Y-4629921D02*
X2102364Y-4629921D01*
X2000000Y-4803151D02*
X2102364Y-4803151D01*
X2106300Y-4789369D02*
X2106300Y-4651573D01*
X2185040Y-4789369D02*
X2185040Y-4651573D01*
X2106300Y-4651573D02*
X2185040Y-4651573D01*
X2106300Y-4789369D02*
X2185040Y-4789369D01*
X1820866Y-442913D02*
X1820866Y-368109D01*
X1683070Y-442913D02*
X1683070Y-368109D01*
X1820866Y-368109D01*
X1683070Y-442913D02*
X1820866Y-442913D01*
X1683072Y-364175D02*
X1683072Y-289371D01*
X1820866Y-364175D02*
X1820866Y-289371D01*
X1683072Y-364175D02*
X1820866Y-364175D01*
X1683072Y-289371D02*
X1820866Y-289371D01*
X2285434Y-927167D02*
X2360238Y-927167D01*
X2285434Y-789371D02*
X2360238Y-789371D01*
X2360238Y-927167D02*
X2360238Y-789371D01*
X2285434Y-927167D02*
X2285434Y-789371D01*
X2352358Y-1564961D02*
X2352358Y-1490157D01*
X2490154Y-1564961D02*
X2490154Y-1490157D01*
X2352358Y-1564961D02*
X2490154Y-1564961D01*
X2352358Y-1490157D02*
X2490154Y-1490157D01*
X2490160Y-1722441D02*
X2490160Y-1647637D01*
X2352364Y-1722441D02*
X2352364Y-1647637D01*
X2490160Y-1647637D01*
X2352364Y-1722441D02*
X2490160Y-1722441D01*
X2816926Y-1171261D02*
X2816926Y-1096457D01*
X2954722Y-1171261D02*
X2954722Y-1096457D01*
X2816926Y-1096457D02*
X2954722Y-1096457D01*
X2816926Y-1171261D02*
X2954722Y-1171261D01*
X551178Y2124015D02*
X629920Y2124015D01*
X551178Y2261811D02*
X629920Y2261811D01*
X629920Y2124015D02*
X629920Y2261811D01*
X551178Y2124015D02*
X551178Y2261811D01*
X2076772Y855473D02*
X2076772Y934213D01*
X2149606Y855473D02*
X2149606Y934213D01*
X2076772Y934213D02*
X2149606Y934213D01*
X2076772Y855473D02*
X2149606Y855473D01*
X523622Y-1694883D02*
X523622Y-1557089D01*
X444882Y-1694883D02*
X444882Y-1557089D01*
X523622Y-1557089D01*
X444882Y-1694883D02*
X523622Y-1694883D01*
X364174Y-3667325D02*
X438978Y-3667325D01*
X364174Y-3805119D02*
X438978Y-3805119D01*
X364174Y-3805119D02*
X364174Y-3667325D01*
X438978Y-3805119D02*
X438978Y-3667325D01*
X2582134Y900221D02*
X2755362Y900221D01*
X2582134Y998647D02*
X2755362Y998647D01*
X2582134Y900221D02*
X2582134Y998647D01*
X2755362Y900221D02*
X2755362Y998647D01*
X2539136Y1103645D02*
X2712364Y1103645D01*
X2539136Y1005219D02*
X2712364Y1005219D01*
X2712364Y1103645D01*
X2539136Y1005219D02*
X2539136Y1103645D01*
X2637794Y1181101D02*
X2811022Y1181101D01*
X2637794Y1279527D02*
X2811022Y1279527D01*
X2637794Y1181101D02*
X2637794Y1279527D01*
X2811022Y1181101D02*
X2811022Y1279527D01*
X694882Y435039D02*
X694882Y509843D01*
X832678Y435039D02*
X832678Y509843D01*
X694882Y509843D02*
X832678Y509843D01*
X694882Y435039D02*
X832678Y435039D01*
X974408Y311023D02*
X1072834Y311023D01*
X974408Y137795D02*
X1072834Y137795D01*
X974408Y137795D02*
X974408Y311023D01*
X1072834Y137795D02*
X1072834Y311023D01*
X1667322Y-4278543D02*
X1994094Y-4278543D01*
X1667322Y-3894685D02*
X1994094Y-3894685D01*
X1667322Y-4278543D02*
X1667322Y-3894685D01*
X1994094Y-4278543D02*
X1994094Y-3894685D01*
X2179134Y-4903543D02*
X2395670Y-4903543D01*
X2179134Y-4608267D02*
X2395670Y-4608267D01*
X2395670Y-4903543D02*
X2395670Y-4608267D01*
X2179134Y-4903543D02*
X2179134Y-4608267D01*
X2590550Y-3840549D02*
X2590550Y-3702755D01*
X2665354Y-3840549D02*
X2665354Y-3702755D01*
X2590550Y-3702755D02*
X2665354Y-3702755D01*
X2590550Y-3840549D02*
X2665354Y-3840549D01*
X2505906Y-3840551D02*
X2580708Y-3840551D01*
X2505906Y-3702755D02*
X2580708Y-3702755D01*
X2580708Y-3840551D02*
X2580708Y-3702755D01*
X2505906Y-3840551D02*
X2505906Y-3702755D01*
X1045278Y-848425D02*
X1045278Y-773621D01*
X1183072Y-848425D02*
X1183072Y-773621D01*
X1045278Y-848425D02*
X1183072Y-848425D01*
X1045278Y-773621D02*
X1183072Y-773621D01*
X1853542Y863583D02*
X1853542Y1084055D01*
X721652Y1084055D02*
X1853542Y1084055D01*
X721652Y863583D02*
X1853542Y863583D01*
X721652Y863583D02*
X721652Y1084055D01*
%TF.MD5,c0bfb2ee468a24e564a0fe405daec6a0*%
M02*
