G04 Layer_Color=32896*
%FSLAX26Y26*%
%MOIN*%
%TF.FileFunction,Legend,Bot*%
%TF.Part,Single*%
G01*
G75*
%TA.AperFunction,NonConductor*%
%ADD76C,0.009842*%
%ADD77C,0.015748*%
%ADD78C,0.023622*%
%ADD79C,0.003937*%
%ADD80C,0.007874*%
%ADD81C,0.039370*%
%ADD82C,0.010000*%
%ADD83C,0.020000*%
D76*
X2842107Y1098850D02*
G03*
X2842107Y1098850I-4921J0D01*
G01*
X2596410Y864173D02*
G03*
X2596410Y864173I-4921J0D01*
G01*
X2142472Y1812402D02*
G03*
X2142472Y1812402I-4921J0D01*
G01*
X2211370Y2691142D02*
G03*
X2211370Y2691142I-4921J0D01*
G01*
X2138535Y2149803D02*
G03*
X2138535Y2149803I-4921J0D01*
G01*
X1879677Y7147835D02*
G03*
X1879677Y7147835I-4921J0D01*
G01*
X2954480Y7160433D02*
G03*
X2954480Y7160433I-4921J0D01*
G01*
X2922591Y5047244D02*
G03*
X2922591Y5047244I-4921J0D01*
G01*
X3294197Y5044095D02*
G03*
X3294197Y5044095I-4921J0D01*
G01*
X3045729Y4195228D02*
G03*
X3045729Y4195228I-4921J0D01*
G01*
D77*
X2557827Y954724D02*
G03*
X2557827Y954724I-7874J0D01*
G01*
D78*
X2061764Y1761811D02*
G03*
X2061764Y1761811I-11811J0D01*
G01*
X2130662Y2640748D02*
G03*
X2130662Y2640748I-11811J0D01*
G01*
X2061764Y2100394D02*
G03*
X2061764Y2100394I-11811J0D01*
G01*
D79*
X2352119Y6582834D02*
G03*
X2352119Y6582834I-1968J0D01*
G01*
X3053883Y3836614D02*
X3053883Y3843174D01*
X3053883Y3839894D01*
X3034205Y3839894D01*
X3034205Y3836614D01*
X3034205Y3843174D01*
X3050604Y3866132D02*
X3053883Y3862852D01*
X3053883Y3856293D01*
X3050604Y3853013D01*
X3037485Y3853013D01*
X3034205Y3856293D01*
X3034205Y3862852D01*
X3037485Y3866132D01*
X3053883Y3892370D02*
X3034205Y3892370D01*
X3044044Y3892370D01*
X3044044Y3905489D01*
X3053883Y3905489D01*
X3034205Y3905489D01*
X3034205Y3921888D02*
X3034205Y3915329D01*
X3037485Y3912049D01*
X3044044Y3912049D01*
X3047324Y3915329D01*
X3047324Y3921888D01*
X3044044Y3925168D01*
X3040764Y3925168D01*
X3040764Y3912049D01*
X3047324Y3935007D02*
X3047324Y3941567D01*
X3044044Y3944847D01*
X3034205Y3944847D01*
X3034205Y3935007D01*
X3037485Y3931727D01*
X3040764Y3935007D01*
X3040764Y3944847D01*
X3050604Y3954686D02*
X3047324Y3954686D01*
X3047324Y3951406D01*
X3047324Y3957966D01*
X3047324Y3954686D01*
X3037485Y3954686D01*
X3034205Y3957966D01*
X3034205Y3977644D02*
X3034205Y3971085D01*
X3037485Y3967805D01*
X3044044Y3967805D01*
X3047324Y3971085D01*
X3047324Y3977644D01*
X3044044Y3980924D01*
X3040764Y3980924D01*
X3040764Y3967805D01*
X3047324Y3987484D02*
X3034205Y3987484D01*
X3040764Y3987484D01*
X3044044Y3990763D01*
X3047324Y3994043D01*
X3047324Y3997323D01*
X2523678Y8356354D02*
X2520399Y8359634D01*
X2520399Y8366193D01*
X2523678Y8369473D01*
X2536798Y8369473D01*
X2540077Y8366193D01*
X2540077Y8359634D01*
X2536798Y8356354D01*
X2540077Y8346515D02*
X2540077Y8339955D01*
X2536798Y8336675D01*
X2530238Y8336675D01*
X2526958Y8339955D01*
X2526958Y8346515D01*
X2530238Y8349794D01*
X2536798Y8349794D01*
X2540077Y8346515D01*
X2540077Y8330116D02*
X2526958Y8330116D01*
X2526958Y8326836D01*
X2530238Y8323556D01*
X2540077Y8323556D01*
X2530238Y8323556D01*
X2526958Y8320276D01*
X2530238Y8316997D01*
X2540077Y8316997D01*
X2546637Y8310437D02*
X2526958Y8310437D01*
X2526958Y8300598D01*
X2530238Y8297318D01*
X2536798Y8297318D01*
X2540077Y8300598D01*
X2540077Y8310437D01*
X2526958Y8290759D02*
X2536798Y8290759D01*
X2540077Y8287479D01*
X2540077Y8277639D01*
X2526958Y8277639D01*
X2523678Y8267800D02*
X2526958Y8267800D01*
X2526958Y8271080D01*
X2526958Y8264521D01*
X2526958Y8267800D01*
X2536798Y8267800D01*
X2540077Y8264521D01*
X2540077Y8244842D02*
X2540077Y8251401D01*
X2536798Y8254681D01*
X2530238Y8254681D01*
X2526958Y8251401D01*
X2526958Y8244842D01*
X2530238Y8241562D01*
X2533518Y8241562D01*
X2533518Y8254681D01*
X2526958Y8235003D02*
X2540077Y8235003D01*
X2533518Y8235003D01*
X2530238Y8231723D01*
X2526958Y8228443D01*
X2526958Y8225163D01*
X2579700Y8369473D02*
X2560021Y8369473D01*
X2560021Y8359634D01*
X2563301Y8356354D01*
X2569861Y8356354D01*
X2573140Y8359634D01*
X2573140Y8369473D01*
X2579700Y8346515D02*
X2579700Y8339955D01*
X2576420Y8336675D01*
X2569861Y8336675D01*
X2566581Y8339955D01*
X2566581Y8346515D01*
X2569861Y8349794D01*
X2576420Y8349794D01*
X2579700Y8346515D01*
X2566581Y8330116D02*
X2576420Y8330116D01*
X2579700Y8326836D01*
X2576420Y8323556D01*
X2579700Y8320276D01*
X2576420Y8316997D01*
X2566581Y8316997D01*
X2579700Y8300598D02*
X2579700Y8307157D01*
X2576420Y8310437D01*
X2569861Y8310437D01*
X2566581Y8307157D01*
X2566581Y8300598D01*
X2569861Y8297318D01*
X2573140Y8297318D01*
X2573140Y8310437D01*
X2566581Y8290759D02*
X2579700Y8290759D01*
X2573140Y8290759D01*
X2569861Y8287479D01*
X2566581Y8284199D01*
X2566581Y8280919D01*
X2593084Y8359634D02*
X2593084Y8366193D01*
X2596364Y8369473D01*
X2609483Y8369473D01*
X2612763Y8366193D01*
X2612763Y8359634D01*
X2609483Y8356354D01*
X2596364Y8356354D01*
X2593084Y8359634D01*
X2612763Y8349794D02*
X2599644Y8349794D01*
X2599644Y8339955D01*
X2602924Y8336675D01*
X2612763Y8336675D01*
X1043000Y8357063D02*
X1029881Y8357063D01*
X1023321Y8350504D01*
X1029881Y8343944D01*
X1043000Y8343944D01*
X1033161Y8343944D01*
X1033161Y8357063D01*
X1029881Y8337384D02*
X1043000Y8337384D01*
X1036440Y8337384D01*
X1033161Y8334105D01*
X1029881Y8330825D01*
X1029881Y8327545D01*
X1029881Y8317706D02*
X1043000Y8317706D01*
X1036440Y8317706D01*
X1033161Y8314426D01*
X1029881Y8311146D01*
X1029881Y8307867D01*
X1043000Y8288188D02*
X1043000Y8294747D01*
X1039720Y8298027D01*
X1033161Y8298027D01*
X1029881Y8294747D01*
X1029881Y8288188D01*
X1033161Y8284908D01*
X1036440Y8284908D01*
X1036440Y8298027D01*
X1043000Y8278349D02*
X1043000Y8268509D01*
X1039720Y8265229D01*
X1036440Y8268509D01*
X1036440Y8275069D01*
X1033161Y8278349D01*
X1029881Y8275069D01*
X1029881Y8265229D01*
X1026601Y8255390D02*
X1029881Y8255390D01*
X1029881Y8258670D01*
X1029881Y8252111D01*
X1029881Y8255390D01*
X1039720Y8255390D01*
X1043000Y8252111D01*
X1043000Y8242271D02*
X1029881Y8242271D01*
X1029881Y8238991D01*
X1033161Y8235712D01*
X1043000Y8235712D01*
X1033161Y8235712D01*
X1029881Y8232432D01*
X1033161Y8229152D01*
X1043000Y8229152D01*
X1043000Y8212753D02*
X1043000Y8219313D01*
X1039720Y8222593D01*
X1033161Y8222593D01*
X1029881Y8219313D01*
X1029881Y8212753D01*
X1033161Y8209473D01*
X1036440Y8209473D01*
X1036440Y8222593D01*
X1043000Y8202914D02*
X1029881Y8202914D01*
X1029881Y8193075D01*
X1033161Y8189795D01*
X1043000Y8189795D01*
X1026601Y8179956D02*
X1029881Y8179956D01*
X1029881Y8183235D01*
X1029881Y8176676D01*
X1029881Y8179956D01*
X1039720Y8179956D01*
X1043000Y8176676D01*
X1056384Y8357063D02*
X1076063Y8357063D01*
X1066224Y8357063D01*
X1066224Y8343944D01*
X1056384Y8343944D01*
X1076063Y8343944D01*
X1076063Y8327545D02*
X1076063Y8334105D01*
X1072783Y8337384D01*
X1066224Y8337384D01*
X1062944Y8334105D01*
X1062944Y8327545D01*
X1066224Y8324265D01*
X1069504Y8324265D01*
X1069504Y8337384D01*
X1062944Y8314426D02*
X1062944Y8307867D01*
X1066224Y8304587D01*
X1076063Y8304587D01*
X1076063Y8314426D01*
X1072783Y8317706D01*
X1069504Y8314426D01*
X1069504Y8304587D01*
X1059664Y8294747D02*
X1062944Y8294747D01*
X1062944Y8298027D01*
X1062944Y8291468D01*
X1062944Y8294747D01*
X1072783Y8294747D01*
X1076063Y8291468D01*
X1076063Y8271789D02*
X1076063Y8278349D01*
X1072783Y8281628D01*
X1066224Y8281628D01*
X1062944Y8278349D01*
X1062944Y8271789D01*
X1066224Y8268509D01*
X1069504Y8268509D01*
X1069504Y8281628D01*
X1062944Y8261950D02*
X1076063Y8261950D01*
X1069504Y8261950D01*
X1066224Y8258670D01*
X1062944Y8255390D01*
X1062944Y8252110D01*
X911601Y8343944D02*
X908321Y8347224D01*
X908321Y8353783D01*
X911601Y8357063D01*
X924720Y8357063D01*
X928000Y8353783D01*
X928000Y8347224D01*
X924720Y8343944D01*
X918161Y8343944D01*
X918161Y8350504D01*
X928000Y8327545D02*
X928000Y8334105D01*
X924720Y8337384D01*
X918161Y8337384D01*
X914881Y8334105D01*
X914881Y8327545D01*
X918161Y8324265D01*
X921440Y8324265D01*
X921440Y8337384D01*
X914881Y8314426D02*
X914881Y8307867D01*
X918161Y8304587D01*
X928000Y8304587D01*
X928000Y8314426D01*
X924720Y8317706D01*
X921440Y8314426D01*
X921440Y8304587D01*
X914881Y8298027D02*
X928000Y8298027D01*
X921440Y8298027D01*
X918161Y8294747D01*
X914881Y8291468D01*
X914881Y8288188D01*
X908321Y8278349D02*
X928000Y8278349D01*
X928000Y8268509D01*
X924720Y8265229D01*
X921440Y8265229D01*
X918161Y8265229D01*
X914881Y8268509D01*
X914881Y8278349D01*
X928000Y8255390D02*
X928000Y8248831D01*
X924720Y8245551D01*
X918161Y8245551D01*
X914881Y8248831D01*
X914881Y8255390D01*
X918161Y8258670D01*
X924720Y8258670D01*
X928000Y8255390D01*
X914881Y8238991D02*
X928000Y8225872D01*
X921440Y8232432D01*
X914881Y8225872D01*
X928000Y8238991D01*
X941384Y8357063D02*
X961063Y8357063D01*
X951224Y8357063D01*
X951224Y8343944D01*
X941384Y8343944D01*
X961063Y8343944D01*
X961063Y8327545D02*
X961063Y8334105D01*
X957783Y8337384D01*
X951224Y8337384D01*
X947944Y8334105D01*
X947944Y8327545D01*
X951224Y8324265D01*
X954504Y8324265D01*
X954504Y8337384D01*
X947944Y8314426D02*
X947944Y8307867D01*
X951224Y8304587D01*
X961063Y8304587D01*
X961063Y8314426D01*
X957783Y8317706D01*
X954504Y8314426D01*
X954504Y8304587D01*
X944664Y8294747D02*
X947944Y8294747D01*
X947944Y8298027D01*
X947944Y8291468D01*
X947944Y8294747D01*
X957783Y8294747D01*
X961063Y8291468D01*
X961063Y8271789D02*
X961063Y8278349D01*
X957783Y8281628D01*
X951224Y8281628D01*
X947944Y8278349D01*
X947944Y8271789D01*
X951224Y8268509D01*
X954504Y8268509D01*
X954504Y8281628D01*
X947944Y8261950D02*
X961063Y8261950D01*
X954504Y8261950D01*
X951224Y8258670D01*
X947944Y8255390D01*
X947944Y8252110D01*
X2607690Y5198158D02*
X2610970Y5194879D01*
X2610970Y5188319D01*
X2607690Y5185039D01*
X2594571Y5185039D01*
X2591291Y5188319D01*
X2591291Y5194879D01*
X2594571Y5198158D01*
X2601131Y5198158D01*
X2601131Y5191599D01*
X2591291Y5214557D02*
X2591291Y5207998D01*
X2594571Y5204718D01*
X2601131Y5204718D01*
X2604410Y5207998D01*
X2604410Y5214557D01*
X2601131Y5217837D01*
X2597851Y5217837D01*
X2597851Y5204718D01*
X2604410Y5227676D02*
X2604410Y5234236D01*
X2601131Y5237516D01*
X2591291Y5237516D01*
X2591291Y5227676D01*
X2594571Y5224397D01*
X2597851Y5227676D01*
X2597851Y5237516D01*
X2604410Y5244075D02*
X2591291Y5244075D01*
X2597851Y5244075D01*
X2601131Y5247355D01*
X2604410Y5250635D01*
X2604410Y5253914D01*
X2610970Y5263754D02*
X2591291Y5263754D01*
X2591291Y5273593D01*
X2594571Y5276873D01*
X2597851Y5276873D01*
X2601131Y5276873D01*
X2604410Y5273593D01*
X2604410Y5263754D01*
X2591291Y5286712D02*
X2591291Y5293272D01*
X2594571Y5296551D01*
X2601131Y5296551D01*
X2604410Y5293272D01*
X2604410Y5286712D01*
X2601131Y5283432D01*
X2594571Y5283432D01*
X2591291Y5286712D01*
X2604410Y5303111D02*
X2591291Y5316230D01*
X2597851Y5309671D01*
X2604410Y5316230D01*
X2591291Y5303111D01*
X2610970Y5342468D02*
X2591291Y5342468D01*
X2601131Y5342468D01*
X2601131Y5355587D01*
X2610970Y5355587D01*
X2591291Y5355587D01*
X2591291Y5371986D02*
X2591291Y5365427D01*
X2594571Y5362147D01*
X2601131Y5362147D01*
X2604410Y5365427D01*
X2604410Y5371986D01*
X2601131Y5375266D01*
X2597851Y5375266D01*
X2597851Y5362147D01*
X2604410Y5385105D02*
X2604410Y5391665D01*
X2601131Y5394944D01*
X2591291Y5394944D01*
X2591291Y5385105D01*
X2594571Y5381825D01*
X2597851Y5385105D01*
X2597851Y5394944D01*
X2607690Y5404784D02*
X2604410Y5404784D01*
X2604410Y5401504D01*
X2604410Y5408064D01*
X2604410Y5404784D01*
X2594571Y5404784D01*
X2591291Y5408064D01*
X2591291Y5427742D02*
X2591291Y5421183D01*
X2594571Y5417903D01*
X2601131Y5417903D01*
X2604410Y5421183D01*
X2604410Y5427742D01*
X2601131Y5431022D01*
X2597851Y5431022D01*
X2597851Y5417903D01*
X2604410Y5437582D02*
X2591291Y5437582D01*
X2597851Y5437582D01*
X2601131Y5440861D01*
X2604410Y5444141D01*
X2604410Y5447421D01*
X2988265Y5109576D02*
X2991545Y5106296D01*
X2991545Y5099736D01*
X2988265Y5096457D01*
X2975146Y5096457D01*
X2971867Y5099736D01*
X2971867Y5106296D01*
X2975146Y5109576D01*
X2971867Y5119415D02*
X2971867Y5125975D01*
X2975146Y5129254D01*
X2981706Y5129254D01*
X2984986Y5125975D01*
X2984986Y5119415D01*
X2981706Y5116135D01*
X2975146Y5116135D01*
X2971867Y5119415D01*
X2971867Y5135814D02*
X2984986Y5135814D01*
X2984986Y5145653D01*
X2981706Y5148933D01*
X2971867Y5148933D01*
X2971867Y5155493D02*
X2984986Y5155493D01*
X2984986Y5165332D01*
X2981706Y5168612D01*
X2971867Y5168612D01*
X2971867Y5175171D02*
X2971867Y5181731D01*
X2971867Y5178451D01*
X2984986Y5178451D01*
X2984986Y5175171D01*
X2971867Y5191570D02*
X2984986Y5191570D01*
X2984986Y5201409D01*
X2981706Y5204689D01*
X2971867Y5204689D01*
X2965307Y5217808D02*
X2965307Y5221088D01*
X2968587Y5224368D01*
X2984986Y5224368D01*
X2984986Y5214528D01*
X2981706Y5211249D01*
X2975146Y5211249D01*
X2971867Y5214528D01*
X2971867Y5224368D01*
X2991545Y5250606D02*
X2991545Y5263725D01*
X2991545Y5257165D01*
X2971867Y5257165D01*
X2971867Y5273564D02*
X2971867Y5280124D01*
X2975146Y5283404D01*
X2981706Y5283404D01*
X2984986Y5280124D01*
X2984986Y5273564D01*
X2981706Y5270284D01*
X2975146Y5270284D01*
X2971867Y5273564D01*
X2984986Y5289963D02*
X2975146Y5289963D01*
X2971867Y5293243D01*
X2975146Y5296523D01*
X2971867Y5299802D01*
X2975146Y5303082D01*
X2984986Y5303082D01*
X2971867Y5319481D02*
X2971867Y5312921D01*
X2975146Y5309642D01*
X2981706Y5309642D01*
X2984986Y5312921D01*
X2984986Y5319481D01*
X2981706Y5322761D01*
X2978426Y5322761D01*
X2978426Y5309642D01*
X2984986Y5329320D02*
X2971867Y5329320D01*
X2978426Y5329320D01*
X2981706Y5332600D01*
X2984986Y5335880D01*
X2984986Y5339159D01*
X2991545Y5368677D02*
X2971867Y5368677D01*
X2981706Y5368677D01*
X2981706Y5381797D01*
X2991545Y5381797D01*
X2971867Y5381797D01*
X2971867Y5398195D02*
X2971867Y5391636D01*
X2975146Y5388356D01*
X2981706Y5388356D01*
X2984986Y5391636D01*
X2984986Y5398195D01*
X2981706Y5401475D01*
X2978426Y5401475D01*
X2978426Y5388356D01*
X2984986Y5411314D02*
X2984986Y5417874D01*
X2981706Y5421154D01*
X2971867Y5421154D01*
X2971867Y5411314D01*
X2975146Y5408035D01*
X2978426Y5411314D01*
X2978426Y5421154D01*
X2988265Y5430993D02*
X2984986Y5430993D01*
X2984986Y5427713D01*
X2984986Y5434273D01*
X2984986Y5430993D01*
X2975146Y5430993D01*
X2971867Y5434273D01*
X2971867Y5453951D02*
X2971867Y5447392D01*
X2975146Y5444112D01*
X2981706Y5444112D01*
X2984986Y5447392D01*
X2984986Y5453951D01*
X2981706Y5457231D01*
X2978426Y5457231D01*
X2978426Y5444112D01*
X2984986Y5463791D02*
X2971867Y5463791D01*
X2978426Y5463791D01*
X2981706Y5467070D01*
X2984986Y5470350D01*
X2984986Y5473630D01*
X2311021Y8357354D02*
X2311021Y8370473D01*
X2320861Y8370473D01*
X2320861Y8363914D01*
X2320861Y8370473D01*
X2330700Y8370473D01*
X2317581Y8350794D02*
X2327420Y8350794D01*
X2330700Y8347515D01*
X2330700Y8337675D01*
X2317581Y8337675D01*
X2330700Y8331116D02*
X2330700Y8321276D01*
X2327420Y8317997D01*
X2324140Y8321276D01*
X2324140Y8327836D01*
X2320861Y8331116D01*
X2317581Y8327836D01*
X2317581Y8317997D01*
X2330700Y8301598D02*
X2330700Y8308157D01*
X2327420Y8311437D01*
X2320861Y8311437D01*
X2317581Y8308157D01*
X2317581Y8301598D01*
X2320861Y8298318D01*
X2324140Y8298318D01*
X2324140Y8311437D01*
X2344084Y8370473D02*
X2363763Y8370473D01*
X2363763Y8360634D01*
X2360483Y8357354D01*
X2357204Y8357354D01*
X2353924Y8360634D01*
X2353924Y8370473D01*
X2353924Y8360634D01*
X2350644Y8357354D01*
X2347364Y8357354D01*
X2344084Y8360634D01*
X2344084Y8370473D01*
X2363763Y8350794D02*
X2363763Y8344235D01*
X2363763Y8347515D01*
X2344084Y8347515D01*
X2344084Y8350794D01*
X2363763Y8331116D02*
X2363763Y8324556D01*
X2360483Y8321276D01*
X2353924Y8321276D01*
X2350644Y8324556D01*
X2350644Y8331116D01*
X2353924Y8334396D01*
X2360483Y8334396D01*
X2363763Y8331116D01*
X2350644Y8314717D02*
X2360483Y8314717D01*
X2363763Y8311437D01*
X2360483Y8308157D01*
X2363763Y8304878D01*
X2360483Y8301598D01*
X2350644Y8301598D01*
X2363763Y8295038D02*
X2350644Y8295038D01*
X2350644Y8285199D01*
X2353924Y8281919D01*
X2363763Y8281919D01*
X1128321Y8357063D02*
X1128321Y8350504D01*
X1128321Y8353783D01*
X1148000Y8353783D01*
X1148000Y8357063D01*
X1148000Y8350504D01*
X1131601Y8327545D02*
X1128321Y8330825D01*
X1128321Y8337384D01*
X1131601Y8340664D01*
X1144720Y8340664D01*
X1148000Y8337384D01*
X1148000Y8330825D01*
X1144720Y8327545D01*
X1161384Y8357063D02*
X1181063Y8357063D01*
X1171224Y8357063D01*
X1171224Y8343944D01*
X1161384Y8343944D01*
X1181063Y8343944D01*
X1181063Y8327545D02*
X1181063Y8334105D01*
X1177783Y8337384D01*
X1171224Y8337384D01*
X1167944Y8334105D01*
X1167944Y8327545D01*
X1171224Y8324265D01*
X1174504Y8324265D01*
X1174504Y8337384D01*
X1167944Y8314426D02*
X1167944Y8307867D01*
X1171224Y8304587D01*
X1181063Y8304587D01*
X1181063Y8314426D01*
X1177783Y8317706D01*
X1174504Y8314426D01*
X1174504Y8304587D01*
X1164664Y8294747D02*
X1167944Y8294747D01*
X1167944Y8298027D01*
X1167944Y8291468D01*
X1167944Y8294747D01*
X1177783Y8294747D01*
X1181063Y8291468D01*
X1181063Y8271789D02*
X1181063Y8278349D01*
X1177783Y8281628D01*
X1171224Y8281628D01*
X1167944Y8278349D01*
X1167944Y8271789D01*
X1171224Y8268509D01*
X1174504Y8268509D01*
X1174504Y8281628D01*
X1167944Y8261950D02*
X1181063Y8261950D01*
X1174504Y8261950D01*
X1171224Y8258670D01*
X1167944Y8255390D01*
X1167944Y8252110D01*
X626978Y8343944D02*
X623699Y8347224D01*
X623699Y8353783D01*
X626978Y8357063D01*
X640097Y8357063D01*
X643377Y8353783D01*
X643377Y8347224D01*
X640097Y8343944D01*
X643377Y8334105D02*
X643377Y8327545D01*
X640097Y8324265D01*
X633538Y8324265D01*
X630258Y8327545D01*
X630258Y8334105D01*
X633538Y8337384D01*
X640097Y8337384D01*
X643377Y8334105D01*
X643377Y8317706D02*
X630258Y8317706D01*
X630258Y8307867D01*
X633538Y8304587D01*
X643377Y8304587D01*
X643377Y8298027D02*
X630258Y8298027D01*
X630258Y8288188D01*
X633538Y8284908D01*
X643377Y8284908D01*
X643377Y8278349D02*
X643377Y8271789D01*
X643377Y8275069D01*
X630258Y8275069D01*
X630258Y8278349D01*
X643377Y8261950D02*
X630258Y8261950D01*
X630258Y8252110D01*
X633538Y8248831D01*
X643377Y8248831D01*
X649937Y8235712D02*
X649937Y8232432D01*
X646657Y8229152D01*
X630258Y8229152D01*
X630258Y8238991D01*
X633538Y8242271D01*
X640097Y8242271D01*
X643377Y8238991D01*
X643377Y8229152D01*
X663321Y8357063D02*
X663321Y8343944D01*
X663321Y8350504D01*
X683000Y8350504D01*
X683000Y8334105D02*
X683000Y8327545D01*
X679720Y8324265D01*
X673161Y8324265D01*
X669881Y8327545D01*
X669881Y8334105D01*
X673161Y8337384D01*
X679720Y8337384D01*
X683000Y8334105D01*
X669881Y8317706D02*
X679720Y8317706D01*
X683000Y8314426D01*
X679720Y8311146D01*
X683000Y8307867D01*
X679720Y8304587D01*
X669881Y8304587D01*
X683000Y8288188D02*
X683000Y8294747D01*
X679720Y8298027D01*
X673161Y8298027D01*
X669881Y8294747D01*
X669881Y8288188D01*
X673161Y8284908D01*
X676440Y8284908D01*
X676440Y8298027D01*
X669881Y8278349D02*
X683000Y8278349D01*
X676440Y8278349D01*
X673161Y8275069D01*
X669881Y8271789D01*
X669881Y8268509D01*
X696384Y8357063D02*
X716063Y8357063D01*
X706224Y8357063D01*
X706224Y8343944D01*
X696384Y8343944D01*
X716063Y8343944D01*
X716063Y8327545D02*
X716063Y8334105D01*
X712783Y8337384D01*
X706224Y8337384D01*
X702944Y8334105D01*
X702944Y8327545D01*
X706224Y8324265D01*
X709504Y8324265D01*
X709504Y8337384D01*
X702944Y8314426D02*
X702944Y8307867D01*
X706224Y8304587D01*
X716063Y8304587D01*
X716063Y8314426D01*
X712783Y8317706D01*
X709504Y8314426D01*
X709504Y8304587D01*
X699664Y8294747D02*
X702944Y8294747D01*
X702944Y8298027D01*
X702944Y8291468D01*
X702944Y8294747D01*
X712783Y8294747D01*
X716063Y8291468D01*
X716063Y8271789D02*
X716063Y8278349D01*
X712783Y8281628D01*
X706224Y8281628D01*
X702944Y8278349D01*
X702944Y8271789D01*
X706224Y8268509D01*
X709504Y8268509D01*
X709504Y8281628D01*
X702944Y8261950D02*
X716063Y8261950D01*
X709504Y8261950D01*
X706224Y8258670D01*
X702944Y8255390D01*
X702944Y8252110D01*
X793000Y8357063D02*
X773321Y8357063D01*
X779881Y8350504D01*
X773321Y8343944D01*
X793000Y8343944D01*
X793000Y8327545D02*
X793000Y8334105D01*
X789720Y8337384D01*
X783161Y8337384D01*
X779881Y8334105D01*
X779881Y8327545D01*
X783161Y8324265D01*
X786440Y8324265D01*
X786440Y8337384D01*
X776601Y8314426D02*
X779881Y8314426D01*
X779881Y8317706D01*
X779881Y8311146D01*
X779881Y8314426D01*
X789720Y8314426D01*
X793000Y8311146D01*
X793000Y8291468D02*
X793000Y8298027D01*
X789720Y8301307D01*
X783161Y8301307D01*
X779881Y8298027D01*
X779881Y8291468D01*
X783161Y8288188D01*
X786440Y8288188D01*
X786440Y8301307D01*
X779881Y8281628D02*
X793000Y8281628D01*
X786440Y8281628D01*
X783161Y8278349D01*
X779881Y8275069D01*
X779881Y8271789D01*
X806384Y8357063D02*
X826063Y8357063D01*
X816224Y8357063D01*
X816224Y8343944D01*
X806384Y8343944D01*
X826063Y8343944D01*
X826063Y8327545D02*
X826063Y8334105D01*
X822783Y8337384D01*
X816224Y8337384D01*
X812944Y8334105D01*
X812944Y8327545D01*
X816224Y8324265D01*
X819504Y8324265D01*
X819504Y8337384D01*
X812944Y8314426D02*
X812944Y8307867D01*
X816224Y8304587D01*
X826063Y8304587D01*
X826063Y8314426D01*
X822783Y8317706D01*
X819504Y8314426D01*
X819504Y8304587D01*
X809664Y8294747D02*
X812944Y8294747D01*
X812944Y8298027D01*
X812944Y8291468D01*
X812944Y8294747D01*
X822783Y8294747D01*
X826063Y8291468D01*
X826063Y8271789D02*
X826063Y8278349D01*
X822783Y8281628D01*
X816224Y8281628D01*
X812944Y8278349D01*
X812944Y8271789D01*
X816224Y8268509D01*
X819504Y8268509D01*
X819504Y8281628D01*
X812944Y8261950D02*
X826063Y8261950D01*
X819504Y8261950D01*
X816224Y8258670D01*
X812944Y8255390D01*
X812944Y8252110D01*
X1210000Y8415679D02*
X1210000Y8396000D01*
X1200161Y8396000D01*
X1196881Y8399280D01*
X1196881Y8412399D01*
X1200161Y8415679D01*
X1210000Y8415679D01*
X1177202Y8412399D02*
X1180482Y8415679D01*
X1187042Y8415679D01*
X1190321Y8412399D01*
X1190321Y8409119D01*
X1187042Y8405839D01*
X1180482Y8405839D01*
X1177202Y8402559D01*
X1177202Y8399280D01*
X1180482Y8396000D01*
X1187042Y8396000D01*
X1190321Y8399280D01*
X1170643Y8415679D02*
X1157524Y8415679D01*
X1157524Y8412399D01*
X1170643Y8399280D01*
X1170643Y8396000D01*
X1055000Y8410679D02*
X1055000Y8391000D01*
X1045161Y8391000D01*
X1041881Y8394280D01*
X1041881Y8407399D01*
X1045161Y8410679D01*
X1055000Y8410679D01*
X1022202Y8407399D02*
X1025482Y8410679D01*
X1032042Y8410679D01*
X1035321Y8407399D01*
X1035321Y8404119D01*
X1032042Y8400839D01*
X1025482Y8400839D01*
X1022202Y8397559D01*
X1022202Y8394280D01*
X1025482Y8391000D01*
X1032042Y8391000D01*
X1035321Y8394280D01*
X1002524Y8410679D02*
X1015643Y8410679D01*
X1015643Y8400839D01*
X1009083Y8404119D01*
X1005803Y8404119D01*
X1002524Y8400839D01*
X1002524Y8394280D01*
X1005803Y8391000D01*
X1012363Y8391000D01*
X1015643Y8394280D01*
X930000Y8410679D02*
X930000Y8391000D01*
X920161Y8391000D01*
X916881Y8394280D01*
X916881Y8407399D01*
X920161Y8410679D01*
X930000Y8410679D01*
X897202Y8407399D02*
X900482Y8410679D01*
X907042Y8410679D01*
X910321Y8407399D01*
X910321Y8404119D01*
X907042Y8400839D01*
X900482Y8400839D01*
X897202Y8397559D01*
X897202Y8394280D01*
X900482Y8391000D01*
X907042Y8391000D01*
X910321Y8394280D01*
X877524Y8410679D02*
X884083Y8407399D01*
X890643Y8400839D01*
X890643Y8394280D01*
X887363Y8391000D01*
X880803Y8391000D01*
X877524Y8394280D01*
X877524Y8397559D01*
X880803Y8400839D01*
X890643Y8400839D01*
X695000Y8415679D02*
X695000Y8396000D01*
X685161Y8396000D01*
X681881Y8399280D01*
X681881Y8412399D01*
X685161Y8415679D01*
X695000Y8415679D01*
X662202Y8412399D02*
X665482Y8415679D01*
X672042Y8415679D01*
X675321Y8412399D01*
X675321Y8409119D01*
X672042Y8405839D01*
X665482Y8405839D01*
X662202Y8402559D01*
X662202Y8399280D01*
X665482Y8396000D01*
X672042Y8396000D01*
X675321Y8399280D01*
X645803Y8396000D02*
X645803Y8415679D01*
X655643Y8405839D01*
X642524Y8405839D01*
X810000Y8410679D02*
X810000Y8391000D01*
X800161Y8391000D01*
X796881Y8394280D01*
X796881Y8407399D01*
X800161Y8410679D01*
X810000Y8410679D01*
X777202Y8407399D02*
X780482Y8410679D01*
X787042Y8410679D01*
X790321Y8407399D01*
X790321Y8404119D01*
X787042Y8400839D01*
X780482Y8400839D01*
X777202Y8397559D01*
X777202Y8394280D01*
X780482Y8391000D01*
X787042Y8391000D01*
X790321Y8394280D01*
X770643Y8407399D02*
X767363Y8410679D01*
X760803Y8410679D01*
X757524Y8407399D01*
X757524Y8404119D01*
X760803Y8400839D01*
X764083Y8400839D01*
X760803Y8400839D01*
X757524Y8397559D01*
X757524Y8394280D01*
X760803Y8391000D01*
X767363Y8391000D01*
X770643Y8394280D01*
D80*
X2757146Y1161606D02*
X2761084Y1161606D01*
X2757146Y1112394D02*
X2761084Y1112394D01*
X2759430Y965976D02*
X2759430Y1088024D01*
X2798800Y965976D02*
X2798800Y1088024D01*
X2759430Y965976D02*
X2798800Y965976D01*
X2759430Y1088024D02*
X2798800Y1088024D01*
X1759700Y3596410D02*
X2459700Y3596410D01*
X2459700Y3496410D02*
X2459700Y3596410D01*
X1759700Y3496410D02*
X2459700Y3496410D01*
X1759700Y3496410D02*
X1759700Y3596410D01*
X613324Y1344440D02*
X613324Y1348378D01*
X566080Y1344440D02*
X566080Y1348378D01*
X1609700Y3096410D02*
X1609700Y3396410D01*
X1509700Y3096410D02*
X1609700Y3096410D01*
X1509700Y3096410D02*
X1509700Y3396410D01*
X1609700Y3396410D01*
X2659700Y3096410D02*
X2659700Y3396410D01*
X2559700Y3096410D02*
X2659700Y3096410D01*
X2559700Y3096410D02*
X2559700Y3396410D01*
X2659700Y3396410D01*
X1307828Y4927166D02*
X1311766Y4927166D01*
X1307828Y4879922D02*
X1311766Y4879922D01*
X2715306Y1940946D02*
X2715306Y1944882D01*
X2762550Y1940946D02*
X2762550Y1944882D01*
X2847196Y1940946D02*
X2847196Y1944884D01*
X2799952Y1940946D02*
X2799952Y1944884D01*
X2384598Y923230D02*
X2384598Y994096D01*
X2581448Y923230D02*
X2581448Y994096D01*
X2384598Y994096D02*
X2581448Y994096D01*
X2384598Y923230D02*
X2581448Y923230D01*
X2089322Y1455708D02*
X2089322Y1800196D01*
X1963338Y1455708D02*
X1963338Y1800196D01*
X2089322Y1800196D01*
X1963338Y1455708D02*
X2089322Y1455708D01*
X1244834Y5937008D02*
X1244834Y5940944D01*
X1193652Y5937008D02*
X1193652Y5940944D01*
X2918062Y6970472D02*
X2922000Y6970472D01*
X2918062Y6919290D02*
X2922000Y6919290D01*
X2819402Y6743408D02*
X2823340Y6743408D01*
X2819402Y6794590D02*
X2823340Y6794590D01*
X2862402Y6689592D02*
X2866338Y6689592D01*
X2862402Y6638410D02*
X2866338Y6638410D01*
X761564Y7905512D02*
X761564Y7909450D01*
X810778Y7905512D02*
X810778Y7909450D01*
X2614916Y4005906D02*
X2618852Y4005906D01*
X2614916Y4053150D02*
X2618852Y4053150D01*
X2614910Y4210630D02*
X2618846Y4210630D01*
X2614910Y4163386D02*
X2618846Y4163386D01*
X2494836Y4854330D02*
X2494836Y4858266D01*
X2542080Y4854330D02*
X2542080Y4858266D01*
X1945622Y5411416D02*
X1949560Y5411416D01*
X1945622Y5364172D02*
X1949560Y5364172D01*
X1945622Y5285434D02*
X1949558Y5285434D01*
X1945622Y5332678D02*
X1949558Y5332678D01*
X2365898Y992128D02*
X2365898Y996064D01*
X2316686Y992128D02*
X2316686Y996064D01*
X2273378Y996062D02*
X2273378Y1000000D01*
X2220230Y996062D02*
X2220230Y1000000D01*
X201528Y3244092D02*
X201528Y3248030D01*
X150348Y3244092D02*
X150348Y3248030D01*
X2430858Y8343898D02*
X2430858Y8347834D01*
X2482040Y8343898D02*
X2482040Y8347834D01*
X2103402Y2446606D02*
X2107340Y2446606D01*
X2103402Y2397392D02*
X2107340Y2397392D01*
X2032234Y2483268D02*
X2158218Y2483268D01*
X2032234Y2680118D02*
X2158218Y2680118D01*
X2032234Y2483268D02*
X2032234Y2680118D01*
X2158218Y2483268D02*
X2158218Y2680118D01*
X2231054Y1878936D02*
X2234992Y1878936D01*
X2231054Y1829724D02*
X2234992Y1829724D01*
X2257630Y2019686D02*
X2257630Y2023624D01*
X2208418Y2019686D02*
X2208418Y2023624D01*
X1788140Y2009842D02*
X1792078Y2009842D01*
X1788140Y2053150D02*
X1792078Y2053150D01*
X1788142Y1984252D02*
X1792080Y1984252D01*
X1788142Y1940944D02*
X1792080Y1940944D01*
X1776332Y1803152D02*
X1780270Y1803152D01*
X1776332Y1759844D02*
X1780270Y1759844D01*
X1776330Y1692914D02*
X1780268Y1692914D01*
X1776330Y1736222D02*
X1780268Y1736222D01*
X1776330Y1669294D02*
X1780268Y1669294D01*
X1776330Y1625986D02*
X1780268Y1625986D01*
X1776330Y1559054D02*
X1780268Y1559054D01*
X1776330Y1602362D02*
X1780268Y1602362D01*
X2280268Y1718502D02*
X2284206Y1718502D01*
X2280268Y1675194D02*
X2284206Y1675194D01*
X2280266Y1527558D02*
X2284204Y1527558D01*
X2280266Y1570866D02*
X2284204Y1570866D01*
X2280268Y1501970D02*
X2284206Y1501970D01*
X2280268Y1458662D02*
X2284206Y1458662D01*
X2280266Y1606298D02*
X2284204Y1606298D01*
X2280266Y1649606D02*
X2284204Y1649606D01*
X1963338Y1942914D02*
X2089322Y1942914D01*
X1963338Y2139764D02*
X2089322Y2139764D01*
X1963338Y1942914D02*
X1963338Y2139764D01*
X2089322Y1942914D02*
X2089322Y2139764D01*
X958416Y7629920D02*
X958416Y7633856D01*
X1007628Y7629920D02*
X1007628Y7633856D01*
X233024Y6455118D02*
X236960Y6455118D01*
X233024Y6405904D02*
X236960Y6405904D01*
X229088Y6271062D02*
X229088Y6275000D01*
X280268Y6271062D02*
X280268Y6275000D01*
X296016Y4515750D02*
X299952Y4515750D01*
X296016Y4566930D02*
X299952Y4566930D01*
X1733026Y5578740D02*
X1807828Y5578740D01*
X1733026Y5708662D02*
X1807828Y5708662D01*
X1746804Y6938976D02*
X1809796Y6938976D01*
X1746804Y7135828D02*
X1809796Y7135828D01*
X1746804Y6938976D02*
X1746804Y7135828D01*
X1809796Y6938976D02*
X1809796Y7135828D01*
X2012552Y7111220D02*
X2016488Y7111220D01*
X2012552Y7062008D02*
X2016488Y7062008D01*
X2012552Y6983268D02*
X2016488Y6983268D01*
X2012552Y6934056D02*
X2016488Y6934056D01*
X1494836Y6996064D02*
X1494836Y7039370D01*
X1589324Y6996064D02*
X1589324Y7039370D01*
X2572592Y8479676D02*
X2576528Y8479676D01*
X2572592Y8434402D02*
X2576528Y8434402D01*
X2821604Y6881888D02*
X2825540Y6881888D01*
X2821604Y6850392D02*
X2825540Y6850392D01*
X2906256Y7306102D02*
X2910192Y7306102D01*
X2906256Y7256888D02*
X2910192Y7256888D01*
X2885718Y7399494D02*
X2929026Y7399494D01*
X2885718Y7336502D02*
X2929026Y7336502D01*
X2676402Y6639396D02*
X2680338Y6639396D01*
X2676402Y6688608D02*
X2680338Y6688608D01*
X2865066Y7208094D02*
X2865066Y7219906D01*
X3126722Y4913384D02*
X3126722Y4917322D01*
X3170030Y4913384D02*
X3170030Y4917322D01*
X3258614Y4913386D02*
X3258614Y4917324D01*
X3215308Y4913386D02*
X3215308Y4917324D01*
X2752708Y4913386D02*
X2752708Y4917324D01*
X2796016Y4913386D02*
X2796016Y4917324D01*
X2884596Y4913386D02*
X2884596Y4917324D01*
X2841290Y4913386D02*
X2841290Y4917324D01*
X2747788Y8343896D02*
X2747788Y8347832D01*
X2696606Y8343896D02*
X2696606Y8347832D01*
X3156252Y4322834D02*
X3156252Y4326772D01*
X3199558Y4322834D02*
X3199558Y4326772D01*
X3077512Y4322834D02*
X3077512Y4326772D01*
X3120820Y4322834D02*
X3120820Y4326772D01*
X2896412Y7147636D02*
X2908222Y7147636D01*
X2896412Y7033462D02*
X2908222Y7033462D01*
X2908222Y7147636D01*
X2896412Y7033462D02*
X2896412Y7147636D01*
X249756Y3440944D02*
X249756Y3444882D01*
X298968Y3440944D02*
X298968Y3444882D01*
X273380Y3948818D02*
X273380Y3952756D01*
X322592Y3948818D02*
X322592Y3952756D01*
X252710Y3244096D02*
X252710Y3248032D01*
X303890Y3244096D02*
X303890Y3248032D01*
X2884598Y5549212D02*
X2959400Y5549212D01*
X2884598Y5679134D02*
X2959400Y5679134D01*
X2081448Y5822834D02*
X2081448Y5897638D01*
X1951528Y5822834D02*
X1951528Y5897638D01*
X1951526Y6187008D02*
X1951526Y6261810D01*
X2081448Y6187008D02*
X2081448Y6261810D01*
X2169048Y6643702D02*
X2169048Y6647638D01*
X2220228Y6643702D02*
X2220228Y6647638D01*
X2903102Y5157480D02*
X2903102Y5202638D01*
X2645622Y5157480D02*
X2903102Y5157480D01*
X2645622Y5157480D02*
X2645622Y5202638D01*
X3274708Y5154330D02*
X3274708Y5199488D01*
X3017228Y5154330D02*
X3274708Y5154330D01*
X3017228Y5154330D02*
X3017228Y5199488D01*
X3055374Y4039835D02*
X3055374Y4084993D01*
X3312854Y4084993D01*
X3312854Y4039835D02*
X3312854Y4084993D01*
X678032Y8478638D02*
X681968Y8478638D01*
X678032Y8433364D02*
X681968Y8433364D01*
X1163360Y8479678D02*
X1167298Y8479678D01*
X1163360Y8434404D02*
X1167298Y8434404D01*
X922732Y8479048D02*
X926670Y8479048D01*
X922732Y8433774D02*
X926670Y8433774D01*
X1046608Y8479676D02*
X1050546Y8479676D01*
X1046608Y8434402D02*
X1050546Y8434402D01*
X802730Y8479048D02*
X806668Y8479048D01*
X802730Y8433774D02*
X806668Y8433774D01*
X2326528Y8476772D02*
X2330466Y8476772D01*
X2326528Y8431498D02*
X2330466Y8431498D01*
X657630Y4437602D02*
X661566Y4437602D01*
X657630Y4488782D02*
X661566Y4488782D01*
X647788Y4586224D02*
X651726Y4586224D01*
X647788Y4537010D02*
X651726Y4537010D01*
X657628Y4329336D02*
X661566Y4329336D01*
X657628Y4380516D02*
X661566Y4380516D01*
X665504Y4287012D02*
X669442Y4287012D01*
X665504Y4237800D02*
X669442Y4237800D01*
X2599166Y6921258D02*
X2642474Y6921258D01*
X2599166Y6858266D02*
X2642474Y6858266D01*
X2599716Y7046212D02*
X2643024Y7046212D01*
X2599716Y6947786D02*
X2643024Y6947786D01*
X1012552Y5033466D02*
X1016488Y5033466D01*
X1012552Y4982284D02*
X1016488Y4982284D01*
X1012552Y4935040D02*
X1016488Y4935040D01*
X1012552Y4883858D02*
X1016488Y4883858D01*
X291092Y4365746D02*
X295028Y4365746D01*
X291092Y4314566D02*
X295028Y4314566D01*
X291094Y4414568D02*
X295030Y4414568D01*
X291094Y4465748D02*
X295030Y4465748D01*
X1307828Y4845474D02*
X1311766Y4845474D01*
X1307828Y4796260D02*
X1311766Y4796260D01*
X1307828Y4710632D02*
X1311764Y4710632D01*
X1307828Y4757876D02*
X1311764Y4757876D01*
X1307828Y4679134D02*
X1311764Y4679134D01*
X1307828Y4631890D02*
X1311764Y4631890D01*
X540112Y5131892D02*
X544048Y5131892D01*
X540112Y5084648D02*
X544048Y5084648D01*
X540108Y5028542D02*
X544046Y5028542D01*
X540108Y4983266D02*
X544046Y4983266D01*
X540110Y4926180D02*
X544048Y4926180D01*
X540110Y4880904D02*
X544048Y4880904D01*
X540112Y4824806D02*
X544048Y4824806D01*
X540112Y4777562D02*
X544048Y4777562D01*
X382630Y5029528D02*
X386568Y5029528D01*
X382630Y4982284D02*
X386568Y4982284D01*
X870820Y3825790D02*
X874758Y3825790D01*
X870820Y3776578D02*
X874758Y3776578D01*
X870820Y3747048D02*
X874756Y3747048D01*
X870820Y3697836D02*
X874756Y3697836D01*
X870820Y3908464D02*
X874758Y3908464D01*
X870820Y3859252D02*
X874758Y3859252D01*
X870820Y3991142D02*
X874758Y3991142D01*
X870820Y3941930D02*
X874758Y3941930D01*
X296016Y4656496D02*
X299954Y4656496D01*
X296016Y4607282D02*
X299954Y4607282D01*
X293064Y4846458D02*
X293064Y4850394D01*
X247788Y4846458D02*
X247788Y4850394D01*
X485976Y6362204D02*
X485976Y6366140D01*
X535190Y6362204D02*
X535190Y6366140D01*
X485980Y6173228D02*
X485980Y6177164D01*
X535192Y6173228D02*
X535192Y6177164D01*
X756648Y6716534D02*
X760586Y6716534D01*
X756648Y6767716D02*
X760586Y6767716D01*
X2137888Y6900908D02*
X2144447Y6907468D01*
X2157566Y6907468D01*
X2164126Y6900908D01*
X2164126Y6874670D01*
X2157566Y6868110D01*
X2144447Y6868110D01*
X2137888Y6874670D01*
X2124769Y6868110D02*
X2124769Y6907468D01*
X2105090Y6907468D01*
X2098530Y6900908D01*
X2098530Y6887789D01*
X2105090Y6881229D01*
X2124769Y6881229D01*
X2085411Y6907468D02*
X2085411Y6874670D01*
X2078852Y6868110D01*
X2065733Y6868110D01*
X2059173Y6874670D01*
X2059173Y6907468D01*
X2006696Y6868110D02*
X2006696Y6907468D01*
X1987018Y6907468D01*
X1980458Y6900908D01*
X1980458Y6887789D01*
X1987018Y6881229D01*
X2006696Y6881229D01*
X1960779Y6868110D02*
X1947660Y6868110D01*
X1941101Y6874670D01*
X1941101Y6887789D01*
X1947660Y6894348D01*
X1960779Y6894348D01*
X1967339Y6887789D01*
X1967339Y6874670D01*
X1960779Y6868110D01*
X1927982Y6894348D02*
X1927982Y6874670D01*
X1921422Y6868110D01*
X1914862Y6874670D01*
X1908303Y6868110D01*
X1901743Y6874670D01*
X1901743Y6894348D01*
X1868946Y6868110D02*
X1882065Y6868110D01*
X1888624Y6874670D01*
X1888624Y6887789D01*
X1882065Y6894348D01*
X1868946Y6894348D01*
X1862386Y6887789D01*
X1862386Y6881229D01*
X1888624Y6881229D01*
X1849267Y6894348D02*
X1849267Y6868110D01*
X1849267Y6881229D01*
X1842707Y6887789D01*
X1836148Y6894348D01*
X1829588Y6894348D01*
X1770552Y6907468D02*
X1757433Y6907468D01*
X1763992Y6907468D01*
X1763992Y6868110D01*
X1770552Y6868110D01*
X1757433Y6868110D01*
X1737754Y6868110D02*
X1737754Y6894348D01*
X1718075Y6894348D01*
X1711516Y6887789D01*
X1711516Y6868110D01*
X1659039Y6887789D02*
X1632801Y6887789D01*
X1645920Y6900908D02*
X1645920Y6874670D01*
X1593444Y6907468D02*
X1619682Y6907468D01*
X1619682Y6887789D01*
X1606563Y6894348D01*
X1600003Y6894348D01*
X1593444Y6887789D01*
X1593444Y6874670D01*
X1600003Y6868110D01*
X1613122Y6868110D01*
X1619682Y6874670D01*
X1580325Y6907468D02*
X1580325Y6881229D01*
X1567206Y6868110D01*
X1554086Y6881229D01*
X1554086Y6907468D01*
X2829115Y936357D02*
X2829115Y903560D01*
X2822555Y897000D01*
X2809436Y897000D01*
X2802877Y903560D01*
X2802877Y936357D01*
X2763519Y897000D02*
X2789758Y897000D01*
X2763519Y923238D01*
X2763519Y929798D01*
X2770079Y936357D01*
X2783198Y936357D01*
X2789758Y929798D01*
X2750400Y929798D02*
X2743841Y936357D01*
X2730722Y936357D01*
X2724162Y929798D01*
X2724162Y903560D01*
X2730722Y897000D01*
X2743841Y897000D01*
X2750400Y903560D01*
X2750400Y929798D01*
X2792877Y1219798D02*
X2799436Y1226357D01*
X2812555Y1226357D01*
X2819115Y1219798D01*
X2819115Y1193560D01*
X2812555Y1187000D01*
X2799436Y1187000D01*
X2792877Y1193560D01*
X2760079Y1187000D02*
X2760079Y1226357D01*
X2779758Y1206679D01*
X2753519Y1206679D01*
X2740400Y1219798D02*
X2733841Y1226357D01*
X2720722Y1226357D01*
X2714162Y1219798D01*
X2714162Y1213238D01*
X2720722Y1206679D01*
X2714162Y1200119D01*
X2714162Y1193560D01*
X2720722Y1187000D01*
X2733841Y1187000D01*
X2740400Y1193560D01*
X2740400Y1200119D01*
X2733841Y1206679D01*
X2740400Y1213238D01*
X2740400Y1219798D01*
X2733841Y1206679D02*
X2720722Y1206679D01*
X916095Y4889764D02*
X916095Y4929121D01*
X896416Y4929121D01*
X889856Y4922562D01*
X889856Y4909443D01*
X896416Y4902883D01*
X916095Y4902883D01*
X902975Y4902883D02*
X889856Y4889764D01*
X876737Y4889764D02*
X863618Y4889764D01*
X870178Y4889764D01*
X870178Y4929121D01*
X876737Y4922562D01*
X817701Y4929121D02*
X830820Y4922562D01*
X843939Y4909443D01*
X843939Y4896323D01*
X837380Y4889764D01*
X824261Y4889764D01*
X817701Y4896323D01*
X817701Y4902883D01*
X824261Y4909443D01*
X843939Y4909443D01*
X916095Y4988189D02*
X916095Y5027546D01*
X896416Y5027546D01*
X889856Y5020987D01*
X889856Y5007868D01*
X896416Y5001308D01*
X916095Y5001308D01*
X902975Y5001308D02*
X889856Y4988189D01*
X876737Y4988189D02*
X863618Y4988189D01*
X870178Y4988189D01*
X870178Y5027546D01*
X876737Y5020987D01*
X843939Y5027546D02*
X817701Y5027546D01*
X817701Y5020987D01*
X843939Y4994749D01*
X843939Y4988189D01*
D81*
X1459700Y2332000D02*
X2709700Y2332000D01*
X1459700Y2332000D02*
X1459700Y3646410D01*
X2709700Y2332000D02*
X2709700Y3646410D01*
X1459700Y3646410D02*
X2709700Y3646410D01*
D82*
X2249922Y7551024D02*
X3368442Y7551024D01*
X3368442Y6558000D02*
X3368442Y7551024D01*
X2249922Y6558000D02*
X3368442Y6558000D01*
X2249922Y6558000D02*
X2249922Y7551024D01*
X2221212Y6850394D02*
X2221212Y7204724D01*
X1453496Y7224410D02*
X2191686Y7224410D01*
X2221212Y7224410D01*
X2221212Y7204724D02*
X2221212Y7224410D01*
X1453496Y6850394D02*
X2221212Y6850394D01*
X1453496Y6850394D02*
X1453496Y7224410D01*
X1456000Y8140000D02*
X1456000Y8490000D01*
X2056000Y8490000D01*
X2056000Y8140000D02*
X2056000Y8490000D01*
X1731646Y693700D02*
X2531646Y693700D01*
X1731646Y93700D02*
X1731646Y693700D01*
X1731646Y93700D02*
X2531646Y93700D01*
X2531646Y693700D01*
X1160368Y5190944D02*
X1160368Y6568898D01*
X687568Y6568898D02*
X1160368Y6568898D01*
X687568Y5190944D02*
X687568Y6568898D01*
X687568Y5190944D02*
X1160368Y5190944D01*
X1659700Y3146410D02*
X1719681Y3146410D01*
X1719681Y3176400D01*
X1709684Y3186397D01*
X1689690Y3186397D01*
X1679694Y3176400D01*
X1679694Y3146410D01*
X1659700Y3206391D02*
X1659700Y3226384D01*
X1659700Y3216387D01*
X1719681Y3216387D01*
X1709684Y3206391D01*
X1719681Y3296361D02*
X1719681Y3256374D01*
X1689690Y3256374D01*
X1699687Y3276368D01*
X1699687Y3286365D01*
X1689690Y3296361D01*
X1669697Y3296361D01*
X1659700Y3286365D01*
X1659700Y3266371D01*
X1669697Y3256374D01*
X2459700Y3146410D02*
X2519681Y3146410D01*
X2519681Y3176400D01*
X2509684Y3186397D01*
X2489690Y3186397D01*
X2479693Y3176400D01*
X2479693Y3146410D01*
X2459700Y3206391D02*
X2459700Y3226384D01*
X2459700Y3216387D01*
X2519681Y3216387D01*
X2509684Y3206391D01*
X2459700Y3286365D02*
X2519681Y3286365D01*
X2489690Y3256374D01*
X2489690Y3296361D01*
X3116370Y6929000D02*
X3116370Y6968357D01*
X3096691Y6968357D01*
X3090132Y6961798D01*
X3090132Y6948679D01*
X3096691Y6942119D01*
X3116370Y6942119D01*
X3103251Y6942119D02*
X3090132Y6929000D01*
X3057334Y6929000D02*
X3057334Y6968357D01*
X3077013Y6948679D01*
X3050774Y6948679D01*
X2738693Y6749315D02*
X2738693Y6788672D01*
X2719014Y6788672D01*
X2712455Y6782113D01*
X2712455Y6768994D01*
X2719014Y6762434D01*
X2738693Y6762434D01*
X2725574Y6762434D02*
X2712455Y6749315D01*
X2673097Y6749315D02*
X2699336Y6749315D01*
X2673097Y6775553D01*
X2673097Y6782113D01*
X2679657Y6788672D01*
X2692776Y6788672D01*
X2699336Y6782113D01*
X3030575Y6647276D02*
X3030575Y6686633D01*
X3010896Y6686633D01*
X3004337Y6680073D01*
X3004337Y6666954D01*
X3010896Y6660395D01*
X3030575Y6660395D01*
X3017456Y6660395D02*
X3004337Y6647276D01*
X2991217Y6647276D02*
X2978098Y6647276D01*
X2984658Y6647276D01*
X2984658Y6686633D01*
X2991217Y6680073D01*
X2489395Y6852727D02*
X2495955Y6859287D01*
X2509074Y6859287D01*
X2515634Y6852727D01*
X2515634Y6826489D01*
X2509074Y6819929D01*
X2495955Y6819929D01*
X2489395Y6826489D01*
X2456597Y6819929D02*
X2456597Y6859287D01*
X2476276Y6839608D01*
X2450038Y6839608D01*
X2496132Y7005798D02*
X2502691Y7012357D01*
X2515811Y7012357D01*
X2522370Y7005798D01*
X2522370Y6979560D01*
X2515811Y6973000D01*
X2502691Y6973000D01*
X2496132Y6979560D01*
X2483013Y7005798D02*
X2476453Y7012357D01*
X2463334Y7012357D01*
X2456774Y7005798D01*
X2456774Y6999238D01*
X2463334Y6992679D01*
X2469894Y6992679D01*
X2463334Y6992679D01*
X2456774Y6986119D01*
X2456774Y6979560D01*
X2463334Y6973000D01*
X2476453Y6973000D01*
X2483013Y6979560D01*
X2805370Y4165000D02*
X2805370Y4204357D01*
X2785691Y4204357D01*
X2779132Y4197798D01*
X2779132Y4184679D01*
X2785691Y4178119D01*
X2805370Y4178119D01*
X2792251Y4178119D02*
X2779132Y4165000D01*
X2746334Y4165000D02*
X2746334Y4204357D01*
X2766013Y4184679D01*
X2739774Y4184679D01*
X2726655Y4197798D02*
X2720096Y4204357D01*
X2706977Y4204357D01*
X2700417Y4197798D01*
X2700417Y4191238D01*
X2706977Y4184679D01*
X2700417Y4178119D01*
X2700417Y4171560D01*
X2706977Y4165000D01*
X2720096Y4165000D01*
X2726655Y4171560D01*
X2726655Y4178119D01*
X2720096Y4184679D01*
X2726655Y4191238D01*
X2726655Y4197798D01*
X2720096Y4184679D02*
X2706977Y4184679D01*
X2247700Y8473767D02*
X2247700Y8434410D01*
X2228021Y8434410D01*
X2221462Y8440970D01*
X2221462Y8467208D01*
X2228021Y8473767D01*
X2247700Y8473767D01*
X2182104Y8467208D02*
X2188664Y8473767D01*
X2201783Y8473767D01*
X2208343Y8467208D01*
X2208343Y8460648D01*
X2201783Y8454089D01*
X2188664Y8454089D01*
X2182104Y8447529D01*
X2182104Y8440970D01*
X2188664Y8434410D01*
X2201783Y8434410D01*
X2208343Y8440970D01*
X2142747Y8434410D02*
X2168985Y8434410D01*
X2142747Y8460648D01*
X2142747Y8467208D01*
X2149307Y8473767D01*
X2162426Y8473767D01*
X2168985Y8467208D01*
X2101384Y7287924D02*
X2127622Y7287924D01*
X2127622Y7268246D01*
X2114503Y7268246D01*
X2127622Y7268246D01*
X2127622Y7248567D01*
X2088265Y7248567D02*
X2075146Y7248567D01*
X2081705Y7248567D01*
X2081705Y7287924D01*
X2088265Y7281365D01*
X2526244Y768263D02*
X2526244Y728905D01*
X2506565Y728905D01*
X2500006Y735465D01*
X2500006Y742025D01*
X2506565Y748584D01*
X2526244Y748584D01*
X2506565Y748584D01*
X2500006Y755144D01*
X2500006Y761703D01*
X2506565Y768263D01*
X2526244Y768263D01*
X2486887Y768263D02*
X2460648Y768263D01*
X2473768Y768263D01*
X2473768Y728905D01*
X2447529Y728905D02*
X2434410Y728905D01*
X2440970Y728905D01*
X2440970Y768263D01*
X2447529Y761703D01*
X849896Y4287329D02*
X856455Y4293888D01*
X869574Y4293888D01*
X876134Y4287329D01*
X876134Y4261090D01*
X869574Y4254531D01*
X856455Y4254531D01*
X849896Y4261090D01*
X810538Y4254531D02*
X836777Y4254531D01*
X810538Y4280769D01*
X810538Y4287329D01*
X817098Y4293888D01*
X830217Y4293888D01*
X836777Y4287329D01*
X777740Y4254531D02*
X777740Y4293888D01*
X797419Y4274209D01*
X771181Y4274209D01*
X1155000Y6604000D02*
X1155000Y6643357D01*
X1135321Y6643357D01*
X1128762Y6636798D01*
X1128762Y6623679D01*
X1135321Y6617119D01*
X1155000Y6617119D01*
X1115643Y6604000D02*
X1102524Y6604000D01*
X1109083Y6604000D01*
X1109083Y6643357D01*
X1115643Y6636798D01*
X1056607Y6604000D02*
X1082845Y6604000D01*
X1056607Y6630238D01*
X1056607Y6636798D01*
X1063166Y6643357D01*
X1076285Y6643357D01*
X1082845Y6636798D01*
X2014370Y1878357D02*
X2014370Y1845560D01*
X2007811Y1839000D01*
X1994691Y1839000D01*
X1988132Y1845560D01*
X1988132Y1878357D01*
X1975013Y1839000D02*
X1961894Y1839000D01*
X1968453Y1839000D01*
X1968453Y1878357D01*
X1975013Y1871798D01*
X1942215Y1878357D02*
X1915977Y1878357D01*
X1915977Y1871798D01*
X1942215Y1845560D01*
X1942215Y1839000D01*
X3132207Y5520763D02*
X3132207Y5494525D01*
X3125647Y5487966D01*
X3112528Y5487966D01*
X3105968Y5494525D01*
X3105968Y5520763D01*
X3112528Y5527323D01*
X3125647Y5527323D01*
X3119088Y5514204D02*
X3132207Y5527323D01*
X3125647Y5527323D02*
X3132207Y5520763D01*
X3171564Y5527323D02*
X3145326Y5527323D01*
X3171564Y5501085D01*
X3171564Y5494525D01*
X3165005Y5487966D01*
X3151885Y5487966D01*
X3145326Y5494525D01*
X191685Y3147638D02*
X152328Y3147638D01*
X152328Y3127959D01*
X158887Y3121400D01*
X172006Y3121400D01*
X178566Y3127959D01*
X178566Y3147638D01*
X178566Y3134519D02*
X191685Y3121400D01*
X158887Y3108280D02*
X152328Y3101721D01*
X152328Y3088602D01*
X158887Y3082042D01*
X165447Y3082042D01*
X172006Y3088602D01*
X172006Y3095161D01*
X172006Y3088602D01*
X178566Y3082042D01*
X185125Y3082042D01*
X191685Y3088602D01*
X191685Y3101721D01*
X185125Y3108280D01*
X191685Y3049244D02*
X152328Y3049244D01*
X172006Y3068923D01*
X172006Y3042685D01*
X346370Y3191000D02*
X385728Y3191000D01*
X385728Y3210679D01*
X379168Y3217238D01*
X366049Y3217238D01*
X359489Y3210679D01*
X359489Y3191000D01*
X359489Y3204119D02*
X346370Y3217238D01*
X379168Y3230357D02*
X385728Y3236917D01*
X385728Y3250036D01*
X379168Y3256596D01*
X372608Y3256596D01*
X366049Y3250036D01*
X366049Y3243477D01*
X366049Y3250036D01*
X359489Y3256596D01*
X352930Y3256596D01*
X346370Y3250036D01*
X346370Y3236917D01*
X352930Y3230357D01*
X346370Y3295953D02*
X346370Y3269715D01*
X372608Y3295953D01*
X379168Y3295953D01*
X385728Y3289394D01*
X385728Y3276274D01*
X379168Y3269715D01*
X493063Y4315158D02*
X493063Y4354515D01*
X473384Y4354515D01*
X466825Y4347955D01*
X466825Y4334836D01*
X473384Y4328277D01*
X493063Y4328277D01*
X479944Y4328277D02*
X466825Y4315158D01*
X453706Y4315158D02*
X440587Y4315158D01*
X447146Y4315158D01*
X447146Y4354515D01*
X453706Y4347955D01*
X401229Y4315158D02*
X401229Y4354515D01*
X420908Y4334836D01*
X394670Y4334836D01*
X284872Y3845809D02*
X278312Y3852369D01*
X278312Y3865488D01*
X284872Y3872047D01*
X311110Y3872047D01*
X317669Y3865488D01*
X317669Y3852369D01*
X311110Y3845809D01*
X317669Y3813011D02*
X278312Y3813011D01*
X297991Y3832690D01*
X297991Y3806452D01*
X284872Y3793332D02*
X278312Y3786773D01*
X278312Y3773654D01*
X284872Y3767094D01*
X291431Y3767094D01*
X297991Y3773654D01*
X297991Y3780213D01*
X297991Y3773654D01*
X304550Y3767094D01*
X311110Y3767094D01*
X317669Y3773654D01*
X317669Y3786773D01*
X311110Y3793332D01*
X767809Y3877286D02*
X774369Y3883846D01*
X787488Y3883846D01*
X794047Y3877286D01*
X794047Y3851048D01*
X787488Y3844488D01*
X774369Y3844488D01*
X767809Y3851048D01*
X735011Y3844488D02*
X735011Y3883846D01*
X754690Y3864167D01*
X728452Y3864167D01*
X689094Y3844488D02*
X715332Y3844488D01*
X689094Y3870726D01*
X689094Y3877286D01*
X695654Y3883846D01*
X708773Y3883846D01*
X715332Y3877286D01*
X767809Y3959963D02*
X774369Y3966523D01*
X787488Y3966523D01*
X794047Y3959963D01*
X794047Y3933725D01*
X787488Y3927165D01*
X774369Y3927165D01*
X767809Y3933725D01*
X735011Y3927165D02*
X735011Y3966523D01*
X754690Y3946844D01*
X728452Y3946844D01*
X715332Y3927165D02*
X702213Y3927165D01*
X708773Y3927165D01*
X708773Y3966523D01*
X715332Y3959963D01*
X332572Y3466762D02*
X326013Y3473321D01*
X326013Y3486440D01*
X332572Y3493000D01*
X358810Y3493000D01*
X365370Y3486440D01*
X365370Y3473321D01*
X358810Y3466762D01*
X365370Y3433964D02*
X326013Y3433964D01*
X345691Y3453643D01*
X345691Y3427404D01*
X332572Y3414285D02*
X326013Y3407726D01*
X326013Y3394606D01*
X332572Y3388047D01*
X358810Y3388047D01*
X365370Y3394606D01*
X365370Y3407726D01*
X358810Y3414285D01*
X332572Y3414285D01*
X767809Y3794609D02*
X774369Y3801168D01*
X787488Y3801168D01*
X794047Y3794609D01*
X794047Y3768371D01*
X787488Y3761811D01*
X774369Y3761811D01*
X767809Y3768371D01*
X754690Y3794609D02*
X748130Y3801168D01*
X735011Y3801168D01*
X728452Y3794609D01*
X728452Y3788049D01*
X735011Y3781490D01*
X741571Y3781490D01*
X735011Y3781490D01*
X728452Y3774930D01*
X728452Y3768371D01*
X735011Y3761811D01*
X748130Y3761811D01*
X754690Y3768371D01*
X715332Y3768371D02*
X708773Y3761811D01*
X695654Y3761811D01*
X689094Y3768371D01*
X689094Y3794609D01*
X695654Y3801168D01*
X708773Y3801168D01*
X715332Y3794609D01*
X715332Y3788049D01*
X708773Y3781490D01*
X689094Y3781490D01*
X767809Y3715869D02*
X774369Y3722428D01*
X787488Y3722428D01*
X794047Y3715869D01*
X794047Y3689631D01*
X787488Y3683071D01*
X774369Y3683071D01*
X767809Y3689631D01*
X754690Y3715869D02*
X748130Y3722428D01*
X735011Y3722428D01*
X728452Y3715869D01*
X728452Y3709309D01*
X735011Y3702750D01*
X741571Y3702750D01*
X735011Y3702750D01*
X728452Y3696190D01*
X728452Y3689631D01*
X735011Y3683071D01*
X748130Y3683071D01*
X754690Y3689631D01*
X715332Y3715869D02*
X708773Y3722428D01*
X695654Y3722428D01*
X689094Y3715869D01*
X689094Y3709309D01*
X695654Y3702750D01*
X689094Y3696190D01*
X689094Y3689631D01*
X695654Y3683071D01*
X708773Y3683071D01*
X715332Y3689631D01*
X715332Y3696190D01*
X708773Y3702750D01*
X715332Y3709309D01*
X715332Y3715869D01*
X708773Y3702750D02*
X695654Y3702750D01*
X2440370Y6715357D02*
X2440370Y6682560D01*
X2433811Y6676000D01*
X2420691Y6676000D01*
X2414132Y6682560D01*
X2414132Y6715357D01*
X2374774Y6715357D02*
X2401013Y6715357D01*
X2401013Y6695679D01*
X2387894Y6702238D01*
X2381334Y6702238D01*
X2374774Y6695679D01*
X2374774Y6682560D01*
X2381334Y6676000D01*
X2394453Y6676000D01*
X2401013Y6682560D01*
X2794047Y7228334D02*
X2794047Y7195536D01*
X2787488Y7188976D01*
X2774369Y7188976D01*
X2767809Y7195536D01*
X2767809Y7228334D01*
X2754690Y7188976D02*
X2741571Y7188976D01*
X2748130Y7188976D01*
X2748130Y7228334D01*
X2754690Y7221774D01*
X2163000Y2229357D02*
X2163000Y2196560D01*
X2156440Y2190000D01*
X2143321Y2190000D01*
X2136762Y2196560D01*
X2136762Y2229357D01*
X2123643Y2190000D02*
X2110523Y2190000D01*
X2117083Y2190000D01*
X2117083Y2229357D01*
X2123643Y2222798D01*
X2090845Y2222798D02*
X2084285Y2229357D01*
X2071166Y2229357D01*
X2064607Y2222798D01*
X2064607Y2216238D01*
X2071166Y2209679D01*
X2064607Y2203119D01*
X2064607Y2196560D01*
X2071166Y2190000D01*
X2084285Y2190000D01*
X2090845Y2196560D01*
X2090845Y2203119D01*
X2084285Y2209679D01*
X2090845Y2216238D01*
X2090845Y2222798D01*
X2084285Y2209679D02*
X2071166Y2209679D01*
X2668370Y1162357D02*
X2668370Y1129560D01*
X2661811Y1123000D01*
X2648691Y1123000D01*
X2642132Y1129560D01*
X2642132Y1162357D01*
X2629013Y1123000D02*
X2615894Y1123000D01*
X2622453Y1123000D01*
X2622453Y1162357D01*
X2629013Y1155798D01*
X2596215Y1129560D02*
X2589655Y1123000D01*
X2576536Y1123000D01*
X2569977Y1129560D01*
X2569977Y1155798D01*
X2576536Y1162357D01*
X2589655Y1162357D01*
X2596215Y1155798D01*
X2596215Y1149238D01*
X2589655Y1142679D01*
X2569977Y1142679D01*
X2134598Y2749003D02*
X2134598Y2716205D01*
X2128039Y2709646D01*
X2114920Y2709646D01*
X2108360Y2716205D01*
X2108360Y2749003D01*
X2095241Y2749003D02*
X2069003Y2749003D01*
X2069003Y2742443D01*
X2095241Y2716205D01*
X2095241Y2709646D01*
X2138370Y6665000D02*
X2099013Y6665000D01*
X2099013Y6645321D01*
X2105572Y6638762D01*
X2118691Y6638762D01*
X2125251Y6645321D01*
X2125251Y6665000D01*
X2125251Y6651881D02*
X2138370Y6638762D01*
X2099013Y6625643D02*
X2099013Y6599404D01*
X2105572Y6599404D01*
X2131811Y6625643D01*
X2138370Y6625643D01*
X786370Y6628000D02*
X786370Y6667357D01*
X766691Y6667357D01*
X760132Y6660798D01*
X760132Y6647679D01*
X766691Y6641119D01*
X786370Y6641119D01*
X773251Y6641119D02*
X760132Y6628000D01*
X720774Y6667357D02*
X747013Y6667357D01*
X747013Y6647679D01*
X733894Y6654238D01*
X727334Y6654238D01*
X720774Y6647679D01*
X720774Y6634560D01*
X727334Y6628000D01*
X740453Y6628000D01*
X747013Y6634560D01*
X3059165Y4404803D02*
X3098523Y4404803D01*
X3098523Y4424482D01*
X3091963Y4431041D01*
X3078844Y4431041D01*
X3072285Y4424482D01*
X3072285Y4404803D01*
X3072285Y4417922D02*
X3059165Y4431041D01*
X3098523Y4470399D02*
X3098523Y4444161D01*
X3078844Y4444161D01*
X3085404Y4457280D01*
X3085404Y4463839D01*
X3078844Y4470399D01*
X3065725Y4470399D01*
X3059165Y4463839D01*
X3059165Y4450720D01*
X3065725Y4444161D01*
X3091963Y4483518D02*
X3098523Y4490078D01*
X3098523Y4503197D01*
X3091963Y4509756D01*
X3085404Y4509756D01*
X3078844Y4503197D01*
X3078844Y4496637D01*
X3078844Y4503197D01*
X3072285Y4509756D01*
X3065725Y4509756D01*
X3059165Y4503197D01*
X3059165Y4490078D01*
X3065725Y4483518D01*
X3158220Y4403543D02*
X3197578Y4403543D01*
X3197578Y4423222D01*
X3191018Y4429782D01*
X3177899Y4429782D01*
X3171340Y4423222D01*
X3171340Y4403543D01*
X3171340Y4416663D02*
X3158220Y4429782D01*
X3197578Y4469139D02*
X3197578Y4442901D01*
X3177899Y4442901D01*
X3184459Y4456020D01*
X3184459Y4462579D01*
X3177899Y4469139D01*
X3164780Y4469139D01*
X3158220Y4462579D01*
X3158220Y4449460D01*
X3164780Y4442901D01*
X3158220Y4482258D02*
X3158220Y4495377D01*
X3158220Y4488818D01*
X3197578Y4488818D01*
X3191018Y4482258D01*
X2761567Y8198228D02*
X2761567Y8237586D01*
X2741888Y8237586D01*
X2735329Y8231026D01*
X2735329Y8217907D01*
X2741888Y8211348D01*
X2761567Y8211348D01*
X2748448Y8211348D02*
X2735329Y8198228D01*
X2722210Y8231026D02*
X2715650Y8237586D01*
X2702531Y8237586D01*
X2695971Y8231026D01*
X2695971Y8224467D01*
X2702531Y8217907D01*
X2709090Y8217907D01*
X2702531Y8217907D01*
X2695971Y8211348D01*
X2695971Y8204788D01*
X2702531Y8198228D01*
X2715650Y8198228D01*
X2722210Y8204788D01*
X231370Y6069000D02*
X270728Y6069000D01*
X270728Y6088679D01*
X264168Y6095238D01*
X251049Y6095238D01*
X244489Y6088679D01*
X244489Y6069000D01*
X244489Y6082119D02*
X231370Y6095238D01*
X264168Y6108357D02*
X270728Y6114917D01*
X270728Y6128036D01*
X264168Y6134596D01*
X257608Y6134596D01*
X251049Y6128036D01*
X251049Y6121476D01*
X251049Y6128036D01*
X244489Y6134596D01*
X237930Y6134596D01*
X231370Y6128036D01*
X231370Y6114917D01*
X237930Y6108357D01*
X231370Y6147715D02*
X231370Y6160834D01*
X231370Y6154274D01*
X270728Y6154274D01*
X264168Y6147715D01*
X2813732Y4029528D02*
X2813732Y4068885D01*
X2794054Y4068885D01*
X2787494Y4062325D01*
X2787494Y4049206D01*
X2794054Y4042647D01*
X2813732Y4042647D01*
X2800613Y4042647D02*
X2787494Y4029528D01*
X2748137Y4068885D02*
X2774375Y4068885D01*
X2774375Y4049206D01*
X2761256Y4055766D01*
X2754696Y4055766D01*
X2748137Y4049206D01*
X2748137Y4036087D01*
X2754696Y4029528D01*
X2767815Y4029528D01*
X2774375Y4036087D01*
X2708779Y4029528D02*
X2735017Y4029528D01*
X2708779Y4055766D01*
X2708779Y4062325D01*
X2715339Y4068885D01*
X2728458Y4068885D01*
X2735017Y4062325D01*
X2547318Y4956000D02*
X2547318Y4995357D01*
X2527640Y4995357D01*
X2521080Y4988798D01*
X2521080Y4975679D01*
X2527640Y4969119D01*
X2547318Y4969119D01*
X2534199Y4969119D02*
X2521080Y4956000D01*
X2488282Y4956000D02*
X2488282Y4995357D01*
X2507961Y4975679D01*
X2481723Y4975679D01*
X2442365Y4995357D02*
X2468604Y4995357D01*
X2468604Y4975679D01*
X2455485Y4982238D01*
X2448925Y4982238D01*
X2442365Y4975679D01*
X2442365Y4962560D01*
X2448925Y4956000D01*
X2462044Y4956000D01*
X2468604Y4962560D01*
X2902315Y4836614D02*
X2862957Y4836614D01*
X2862957Y4816935D01*
X2869517Y4810376D01*
X2882636Y4810376D01*
X2889196Y4816935D01*
X2889196Y4836614D01*
X2889196Y4823495D02*
X2902315Y4810376D01*
X2862957Y4771019D02*
X2862957Y4797257D01*
X2882636Y4797257D01*
X2876077Y4784138D01*
X2876077Y4777578D01*
X2882636Y4771019D01*
X2895755Y4771019D01*
X2902315Y4777578D01*
X2902315Y4790697D01*
X2895755Y4797257D01*
X2869517Y4757899D02*
X2862957Y4751340D01*
X2862957Y4738221D01*
X2869517Y4731661D01*
X2895755Y4731661D01*
X2902315Y4738221D01*
X2902315Y4751340D01*
X2895755Y4757899D01*
X2869517Y4757899D01*
X759370Y5101000D02*
X759370Y5140357D01*
X739691Y5140357D01*
X733132Y5133798D01*
X733132Y5120679D01*
X739691Y5114119D01*
X759370Y5114119D01*
X746251Y5114119D02*
X733132Y5101000D01*
X720013Y5133798D02*
X713453Y5140357D01*
X700334Y5140357D01*
X693774Y5133798D01*
X693774Y5127238D01*
X700334Y5120679D01*
X706894Y5120679D01*
X700334Y5120679D01*
X693774Y5114119D01*
X693774Y5107560D01*
X700334Y5101000D01*
X713453Y5101000D01*
X720013Y5107560D01*
X680655Y5133798D02*
X674096Y5140357D01*
X660977Y5140357D01*
X654417Y5133798D01*
X654417Y5107560D01*
X660977Y5101000D01*
X674096Y5101000D01*
X680655Y5107560D01*
X680655Y5133798D01*
X459401Y4777559D02*
X459401Y4816916D01*
X439723Y4816916D01*
X433163Y4810357D01*
X433163Y4797238D01*
X439723Y4790678D01*
X459401Y4790678D01*
X446282Y4790678D02*
X433163Y4777559D01*
X393806Y4777559D02*
X420044Y4777559D01*
X393806Y4803797D01*
X393806Y4810357D01*
X400365Y4816916D01*
X413485Y4816916D01*
X420044Y4810357D01*
X380687Y4784119D02*
X374127Y4777559D01*
X361008Y4777559D01*
X354449Y4784119D01*
X354449Y4810357D01*
X361008Y4816916D01*
X374127Y4816916D01*
X380687Y4810357D01*
X380687Y4803797D01*
X374127Y4797238D01*
X354449Y4797238D01*
X1180860Y4708929D02*
X1180860Y4748287D01*
X1161181Y4748287D01*
X1154622Y4741727D01*
X1154622Y4728608D01*
X1161181Y4722048D01*
X1180860Y4722048D01*
X1167741Y4722048D02*
X1154622Y4708929D01*
X1115264Y4708929D02*
X1141503Y4708929D01*
X1115264Y4735167D01*
X1115264Y4741727D01*
X1121824Y4748287D01*
X1134943Y4748287D01*
X1141503Y4741727D01*
X1075907Y4748287D02*
X1089026Y4741727D01*
X1102145Y4728608D01*
X1102145Y4715489D01*
X1095586Y4708929D01*
X1082466Y4708929D01*
X1075907Y4715489D01*
X1075907Y4722048D01*
X1082466Y4728608D01*
X1102145Y4728608D01*
X1494835Y4627953D02*
X1494835Y4667310D01*
X1475156Y4667310D01*
X1468596Y4660751D01*
X1468596Y4647632D01*
X1475156Y4641072D01*
X1494835Y4641072D01*
X1481716Y4641072D02*
X1468596Y4627953D01*
X1429239Y4627953D02*
X1455477Y4627953D01*
X1429239Y4654191D01*
X1429239Y4660751D01*
X1435799Y4667310D01*
X1448918Y4667310D01*
X1455477Y4660751D01*
X1389882Y4667310D02*
X1416120Y4667310D01*
X1416120Y4647632D01*
X1403001Y4654191D01*
X1396441Y4654191D01*
X1389882Y4647632D01*
X1389882Y4634512D01*
X1396441Y4627953D01*
X1409560Y4627953D01*
X1416120Y4634512D01*
X1849165Y5309055D02*
X1849165Y5348413D01*
X1829487Y5348413D01*
X1822927Y5341853D01*
X1822927Y5328734D01*
X1829487Y5322174D01*
X1849165Y5322174D01*
X1836046Y5322174D02*
X1822927Y5309055D01*
X1790129Y5309055D02*
X1790129Y5348413D01*
X1809808Y5328734D01*
X1783570Y5328734D01*
X1770451Y5341853D02*
X1763891Y5348413D01*
X1750772Y5348413D01*
X1744212Y5341853D01*
X1744212Y5315615D01*
X1750772Y5309055D01*
X1763891Y5309055D01*
X1770451Y5315615D01*
X1770451Y5341853D01*
X305370Y4992000D02*
X305370Y5031357D01*
X285691Y5031357D01*
X279132Y5024798D01*
X279132Y5011679D01*
X285691Y5005119D01*
X305370Y5005119D01*
X292251Y5005119D02*
X279132Y4992000D01*
X266013Y4992000D02*
X252894Y4992000D01*
X259453Y4992000D01*
X259453Y5031357D01*
X266013Y5024798D01*
X233215Y4998560D02*
X226655Y4992000D01*
X213536Y4992000D01*
X206977Y4998560D01*
X206977Y5024798D01*
X213536Y5031357D01*
X226655Y5031357D01*
X233215Y5024798D01*
X233215Y5018238D01*
X226655Y5011679D01*
X206977Y5011679D01*
X1351370Y4960000D02*
X1351370Y4999357D01*
X1331691Y4999357D01*
X1325132Y4992798D01*
X1325132Y4979679D01*
X1331691Y4973119D01*
X1351370Y4973119D01*
X1338251Y4973119D02*
X1325132Y4960000D01*
X1312013Y4960000D02*
X1298894Y4960000D01*
X1305453Y4960000D01*
X1305453Y4999357D01*
X1312013Y4992798D01*
X1279215Y4992798D02*
X1272655Y4999357D01*
X1259536Y4999357D01*
X1252977Y4992798D01*
X1252977Y4986238D01*
X1259536Y4979679D01*
X1252977Y4973119D01*
X1252977Y4966560D01*
X1259536Y4960000D01*
X1272655Y4960000D01*
X1279215Y4966560D01*
X1279215Y4973119D01*
X1272655Y4979679D01*
X1279215Y4986238D01*
X1279215Y4992798D01*
X1272655Y4979679D02*
X1259536Y4979679D01*
X2794047Y4836614D02*
X2754690Y4836614D01*
X2754690Y4816935D01*
X2761249Y4810376D01*
X2774369Y4810376D01*
X2780928Y4816935D01*
X2780928Y4836614D01*
X2780928Y4823495D02*
X2794047Y4810376D01*
X2794047Y4777578D02*
X2754690Y4777578D01*
X2774369Y4797257D01*
X2774369Y4771019D01*
X2787488Y4757899D02*
X2794047Y4751340D01*
X2794047Y4738221D01*
X2787488Y4731661D01*
X2761249Y4731661D01*
X2754690Y4738221D01*
X2754690Y4751340D01*
X2761249Y4757899D01*
X2767809Y4757899D01*
X2774369Y4751340D01*
X2774369Y4731661D01*
X3276331Y4836614D02*
X3236973Y4836614D01*
X3236973Y4816935D01*
X3243533Y4810376D01*
X3256652Y4810376D01*
X3263212Y4816935D01*
X3263212Y4836614D01*
X3263212Y4823495D02*
X3276331Y4810376D01*
X3276331Y4777578D02*
X3236973Y4777578D01*
X3256652Y4797257D01*
X3256652Y4771019D01*
X3276331Y4738221D02*
X3236973Y4738221D01*
X3256652Y4757899D01*
X3256652Y4731661D01*
X2757370Y2179000D02*
X2718013Y2179000D01*
X2718013Y2159321D01*
X2724572Y2152762D01*
X2737691Y2152762D01*
X2744251Y2159321D01*
X2744251Y2179000D01*
X2744251Y2165881D02*
X2757370Y2152762D01*
X2724572Y2139643D02*
X2718013Y2133083D01*
X2718013Y2119964D01*
X2724572Y2113404D01*
X2731132Y2113404D01*
X2737691Y2119964D01*
X2737691Y2126523D01*
X2737691Y2119964D01*
X2744251Y2113404D01*
X2750811Y2113404D01*
X2757370Y2119964D01*
X2757370Y2133083D01*
X2750811Y2139643D01*
X2718013Y2074047D02*
X2724572Y2087166D01*
X2737691Y2100285D01*
X2750811Y2100285D01*
X2757370Y2093726D01*
X2757370Y2080606D01*
X2750811Y2074047D01*
X2744251Y2074047D01*
X2737691Y2080606D01*
X2737691Y2100285D01*
X1849165Y5387795D02*
X1849165Y5427153D01*
X1829487Y5427153D01*
X1822927Y5420593D01*
X1822927Y5407474D01*
X1829487Y5400914D01*
X1849165Y5400914D01*
X1836046Y5400914D02*
X1822927Y5387795D01*
X1809808Y5420593D02*
X1803248Y5427153D01*
X1790129Y5427153D01*
X1783570Y5420593D01*
X1783570Y5414033D01*
X1790129Y5407474D01*
X1796689Y5407474D01*
X1790129Y5407474D01*
X1783570Y5400914D01*
X1783570Y5394355D01*
X1790129Y5387795D01*
X1803248Y5387795D01*
X1809808Y5394355D01*
X1770451Y5394355D02*
X1763891Y5387795D01*
X1750772Y5387795D01*
X1744212Y5394355D01*
X1744212Y5420593D01*
X1750772Y5427153D01*
X1763891Y5427153D01*
X1770451Y5420593D01*
X1770451Y5414033D01*
X1763891Y5407474D01*
X1744212Y5407474D01*
X3178378Y4835354D02*
X3139021Y4835354D01*
X3139021Y4815676D01*
X3145580Y4809116D01*
X3158699Y4809116D01*
X3165259Y4815676D01*
X3165259Y4835354D01*
X3165259Y4822235D02*
X3178378Y4809116D01*
X3178378Y4776318D02*
X3139021Y4776318D01*
X3158699Y4795997D01*
X3158699Y4769759D01*
X3178378Y4730401D02*
X3178378Y4756640D01*
X3152140Y4730401D01*
X3145580Y4730401D01*
X3139021Y4736961D01*
X3139021Y4750080D01*
X3145580Y4756640D01*
X3207877Y3718560D02*
X3207877Y3744798D01*
X3214436Y3751357D01*
X3227555Y3751357D01*
X3234115Y3744798D01*
X3234115Y3718560D01*
X3227555Y3712000D01*
X3214436Y3712000D01*
X3220996Y3725119D02*
X3207877Y3712000D01*
X3214436Y3712000D02*
X3207877Y3718560D01*
X3168519Y3751357D02*
X3194758Y3751357D01*
X3194758Y3731679D01*
X3181639Y3738238D01*
X3175079Y3738238D01*
X3168519Y3731679D01*
X3168519Y3718560D01*
X3175079Y3712000D01*
X3188198Y3712000D01*
X3194758Y3718560D01*
X2691608Y5546440D02*
X2691608Y5520202D01*
X2685049Y5513643D01*
X2671930Y5513643D01*
X2665370Y5520202D01*
X2665370Y5546440D01*
X2671930Y5553000D01*
X2685049Y5553000D01*
X2678489Y5539881D02*
X2691608Y5553000D01*
X2685049Y5553000D02*
X2691608Y5546440D01*
X2724406Y5553000D02*
X2724406Y5513643D01*
X2704727Y5533321D01*
X2730966Y5533321D01*
X2439700Y3431410D02*
X2439700Y3470767D01*
X2420021Y3470767D01*
X2413462Y3464208D01*
X2413462Y3451089D01*
X2420021Y3444529D01*
X2439700Y3444529D01*
X2380664Y3431410D02*
X2380664Y3470767D01*
X2400343Y3451089D01*
X2374104Y3451089D01*
X3066370Y7233357D02*
X3066370Y7194000D01*
X3040132Y7194000D01*
X3027013Y7194000D02*
X3013894Y7194000D01*
X3020453Y7194000D01*
X3020453Y7233357D01*
X3027013Y7226798D01*
X2943132Y5755798D02*
X2949691Y5762357D01*
X2962811Y5762357D01*
X2969370Y5755798D01*
X2969370Y5729560D01*
X2962811Y5723000D01*
X2949691Y5723000D01*
X2943132Y5729560D01*
X2930013Y5723000D02*
X2916894Y5723000D01*
X2923453Y5723000D01*
X2923453Y5762357D01*
X2930013Y5755798D01*
X2897215Y5729560D02*
X2890655Y5723000D01*
X2877536Y5723000D01*
X2870977Y5729560D01*
X2870977Y5755798D01*
X2877536Y5762357D01*
X2890655Y5762357D01*
X2897215Y5755798D01*
X2897215Y5749238D01*
X2890655Y5742679D01*
X2870977Y5742679D01*
X2165447Y7095790D02*
X2172006Y7102350D01*
X2185126Y7102350D01*
X2191685Y7095790D01*
X2191685Y7069552D01*
X2185126Y7062992D01*
X2172006Y7062992D01*
X2165447Y7069552D01*
X2152328Y7062992D02*
X2139209Y7062992D01*
X2145768Y7062992D01*
X2145768Y7102350D01*
X2152328Y7095790D01*
X2119530Y7095790D02*
X2112970Y7102350D01*
X2099851Y7102350D01*
X2093292Y7095790D01*
X2093292Y7089230D01*
X2099851Y7082671D01*
X2093292Y7076111D01*
X2093292Y7069552D01*
X2099851Y7062992D01*
X2112970Y7062992D01*
X2119530Y7069552D01*
X2119530Y7076111D01*
X2112970Y7082671D01*
X2119530Y7089230D01*
X2119530Y7095790D01*
X2112970Y7082671D02*
X2099851Y7082671D01*
X2165447Y6971774D02*
X2172006Y6978334D01*
X2185125Y6978334D01*
X2191685Y6971774D01*
X2191685Y6945536D01*
X2185125Y6938976D01*
X2172006Y6938976D01*
X2165447Y6945536D01*
X2152328Y6938976D02*
X2139209Y6938976D01*
X2145768Y6938976D01*
X2145768Y6978334D01*
X2152328Y6971774D01*
X2119530Y6978334D02*
X2093292Y6978334D01*
X2093292Y6971774D01*
X2119530Y6945536D01*
X2119530Y6938976D01*
X1577168Y7138238D02*
X1583727Y7131679D01*
X1583727Y7118560D01*
X1577168Y7112000D01*
X1550930Y7112000D01*
X1544370Y7118560D01*
X1544370Y7131679D01*
X1550930Y7138238D01*
X1544370Y7151357D02*
X1544370Y7164476D01*
X1544370Y7157917D01*
X1583727Y7157917D01*
X1577168Y7151357D01*
X1583727Y7210393D02*
X1577168Y7197274D01*
X1564049Y7184155D01*
X1550930Y7184155D01*
X1544370Y7190715D01*
X1544370Y7203834D01*
X1550930Y7210393D01*
X1557489Y7210393D01*
X1564049Y7203834D01*
X1564049Y7184155D01*
X1586707Y5637129D02*
X1593266Y5643688D01*
X1606385Y5643688D01*
X1612945Y5637129D01*
X1612945Y5610890D01*
X1606385Y5604331D01*
X1593266Y5604331D01*
X1586707Y5610890D01*
X1573588Y5604331D02*
X1560468Y5604331D01*
X1567028Y5604331D01*
X1567028Y5643688D01*
X1573588Y5637129D01*
X1514552Y5643688D02*
X1540790Y5643688D01*
X1540790Y5624010D01*
X1527671Y5630569D01*
X1521111Y5630569D01*
X1514552Y5624010D01*
X1514552Y5610890D01*
X1521111Y5604331D01*
X1534230Y5604331D01*
X1540790Y5610890D01*
X1879168Y5849238D02*
X1885727Y5842679D01*
X1885727Y5829560D01*
X1879168Y5823000D01*
X1852930Y5823000D01*
X1846370Y5829560D01*
X1846370Y5842679D01*
X1852930Y5849238D01*
X1846370Y5862357D02*
X1846370Y5875476D01*
X1846370Y5868917D01*
X1885727Y5868917D01*
X1879168Y5862357D01*
X1846370Y5914834D02*
X1885727Y5914834D01*
X1866049Y5895155D01*
X1866049Y5921393D01*
X1883168Y6174238D02*
X1889727Y6167679D01*
X1889727Y6154560D01*
X1883168Y6148000D01*
X1856930Y6148000D01*
X1850370Y6154560D01*
X1850370Y6167679D01*
X1856930Y6174238D01*
X1850370Y6187357D02*
X1850370Y6200476D01*
X1850370Y6193917D01*
X1889727Y6193917D01*
X1883168Y6187357D01*
X1883168Y6220155D02*
X1889727Y6226715D01*
X1889727Y6239834D01*
X1883168Y6246393D01*
X1876608Y6246393D01*
X1870049Y6239834D01*
X1870049Y6233274D01*
X1870049Y6239834D01*
X1863489Y6246393D01*
X1856930Y6246393D01*
X1850370Y6239834D01*
X1850370Y6226715D01*
X1856930Y6220155D01*
X2564534Y6677113D02*
X2571093Y6683672D01*
X2584212Y6683672D01*
X2590772Y6677113D01*
X2590772Y6650874D01*
X2584212Y6644315D01*
X2571093Y6644315D01*
X2564534Y6650874D01*
X2551414Y6677113D02*
X2544855Y6683672D01*
X2531736Y6683672D01*
X2525176Y6677113D01*
X2525176Y6670553D01*
X2531736Y6663994D01*
X2525176Y6657434D01*
X2525176Y6650874D01*
X2531736Y6644315D01*
X2544855Y6644315D01*
X2551414Y6650874D01*
X2551414Y6657434D01*
X2544855Y6663994D01*
X2551414Y6670553D01*
X2551414Y6677113D01*
X2544855Y6663994D02*
X2531736Y6663994D01*
X3054132Y7382798D02*
X3060691Y7389357D01*
X3073811Y7389357D01*
X3080370Y7382798D01*
X3080370Y7356560D01*
X3073811Y7350000D01*
X3060691Y7350000D01*
X3054132Y7356560D01*
X3041013Y7389357D02*
X3014774Y7389357D01*
X3014774Y7382798D01*
X3041013Y7356560D01*
X3041013Y7350000D01*
X3061132Y7293798D02*
X3067691Y7300357D01*
X3080811Y7300357D01*
X3087370Y7293798D01*
X3087370Y7267560D01*
X3080811Y7261000D01*
X3067691Y7261000D01*
X3061132Y7267560D01*
X3021774Y7300357D02*
X3034894Y7293798D01*
X3048013Y7280679D01*
X3048013Y7267560D01*
X3041453Y7261000D01*
X3028334Y7261000D01*
X3021774Y7267560D01*
X3021774Y7274119D01*
X3028334Y7280679D01*
X3048013Y7280679D01*
X2354404Y1136474D02*
X2360964Y1129915D01*
X2360964Y1116796D01*
X2354404Y1110236D01*
X2328166Y1110236D01*
X2321606Y1116796D01*
X2321606Y1129915D01*
X2328166Y1136474D01*
X2321606Y1169272D02*
X2360964Y1169272D01*
X2341285Y1149594D01*
X2341285Y1175832D01*
X2360964Y1188951D02*
X2360964Y1215189D01*
X2354404Y1215189D01*
X2328166Y1188951D01*
X2321606Y1188951D01*
X2259916Y1136474D02*
X2266476Y1129915D01*
X2266476Y1116796D01*
X2259916Y1110236D01*
X2233678Y1110236D01*
X2227118Y1116796D01*
X2227118Y1129915D01*
X2233678Y1136474D01*
X2227118Y1169272D02*
X2266476Y1169272D01*
X2246797Y1149594D01*
X2246797Y1175832D01*
X2266476Y1215189D02*
X2259916Y1202070D01*
X2246797Y1188951D01*
X2233678Y1188951D01*
X2227118Y1195511D01*
X2227118Y1208630D01*
X2233678Y1215189D01*
X2240237Y1215189D01*
X2246797Y1208630D01*
X2246797Y1188951D01*
X2749395Y6947727D02*
X2755955Y6954287D01*
X2769074Y6954287D01*
X2775634Y6947727D01*
X2775634Y6921489D01*
X2769074Y6914929D01*
X2755955Y6914929D01*
X2749395Y6921489D01*
X2736276Y6914929D02*
X2723157Y6914929D01*
X2729717Y6914929D01*
X2729717Y6954287D01*
X2736276Y6947727D01*
X598168Y6345238D02*
X604727Y6338679D01*
X604727Y6325560D01*
X598168Y6319000D01*
X571930Y6319000D01*
X565370Y6325560D01*
X565370Y6338679D01*
X571930Y6345238D01*
X598168Y6358357D02*
X604727Y6364917D01*
X604727Y6378036D01*
X598168Y6384596D01*
X591608Y6384596D01*
X585049Y6378036D01*
X585049Y6371476D01*
X585049Y6378036D01*
X578489Y6384596D01*
X571930Y6384596D01*
X565370Y6378036D01*
X565370Y6364917D01*
X571930Y6358357D01*
X604727Y6423953D02*
X604727Y6397715D01*
X585049Y6397715D01*
X591608Y6410834D01*
X591608Y6417394D01*
X585049Y6423953D01*
X571930Y6423953D01*
X565370Y6417394D01*
X565370Y6404274D01*
X571930Y6397715D01*
X198257Y4871400D02*
X191698Y4877959D01*
X191698Y4891078D01*
X198257Y4897638D01*
X224495Y4897638D01*
X231055Y4891078D01*
X231055Y4877959D01*
X224495Y4871400D01*
X198257Y4858280D02*
X191698Y4851721D01*
X191698Y4838602D01*
X198257Y4832042D01*
X204817Y4832042D01*
X211376Y4838602D01*
X211376Y4845161D01*
X211376Y4838602D01*
X217936Y4832042D01*
X224495Y4832042D01*
X231055Y4838602D01*
X231055Y4851721D01*
X224495Y4858280D01*
X231055Y4792685D02*
X231055Y4818923D01*
X204817Y4792685D01*
X198257Y4792685D01*
X191698Y4799244D01*
X191698Y4812363D01*
X198257Y4818923D01*
X601168Y6150238D02*
X607727Y6143679D01*
X607727Y6130560D01*
X601168Y6124000D01*
X574930Y6124000D01*
X568370Y6130560D01*
X568370Y6143679D01*
X574930Y6150238D01*
X601168Y6163357D02*
X607727Y6169917D01*
X607727Y6183036D01*
X601168Y6189596D01*
X594608Y6189596D01*
X588049Y6183036D01*
X588049Y6176476D01*
X588049Y6183036D01*
X581489Y6189596D01*
X574930Y6189596D01*
X568370Y6183036D01*
X568370Y6169917D01*
X574930Y6163357D01*
X601168Y6202715D02*
X607727Y6209274D01*
X607727Y6222394D01*
X601168Y6228953D01*
X594608Y6228953D01*
X588049Y6222394D01*
X588049Y6215834D01*
X588049Y6222394D01*
X581489Y6228953D01*
X574930Y6228953D01*
X568370Y6222394D01*
X568370Y6209274D01*
X574930Y6202715D01*
X448911Y4920593D02*
X455471Y4927153D01*
X468590Y4927153D01*
X475149Y4920593D01*
X475149Y4894355D01*
X468590Y4887795D01*
X455471Y4887795D01*
X448911Y4894355D01*
X435792Y4920593D02*
X429233Y4927153D01*
X416113Y4927153D01*
X409554Y4920593D01*
X409554Y4914033D01*
X416113Y4907474D01*
X422673Y4907474D01*
X416113Y4907474D01*
X409554Y4900914D01*
X409554Y4894355D01*
X416113Y4887795D01*
X429233Y4887795D01*
X435792Y4894355D01*
X396435Y4887795D02*
X383316Y4887795D01*
X389875Y4887795D01*
X389875Y4927153D01*
X396435Y4920593D01*
X771395Y5019727D02*
X777955Y5026287D01*
X791074Y5026287D01*
X797634Y5019727D01*
X797634Y4993489D01*
X791074Y4986929D01*
X777955Y4986929D01*
X771395Y4993489D01*
X758276Y5019727D02*
X751717Y5026287D01*
X738597Y5026287D01*
X732038Y5019727D01*
X732038Y5013167D01*
X738597Y5006608D01*
X745157Y5006608D01*
X738597Y5006608D01*
X732038Y5000048D01*
X732038Y4993489D01*
X738597Y4986929D01*
X751717Y4986929D01*
X758276Y4993489D01*
X718919Y5019727D02*
X712359Y5026287D01*
X699240Y5026287D01*
X692681Y5019727D01*
X692681Y4993489D01*
X699240Y4986929D01*
X712359Y4986929D01*
X718919Y4993489D01*
X718919Y5019727D01*
X887572Y7655762D02*
X881013Y7662321D01*
X881013Y7675440D01*
X887572Y7682000D01*
X913811Y7682000D01*
X920370Y7675440D01*
X920370Y7662321D01*
X913811Y7655762D01*
X920370Y7616404D02*
X920370Y7642643D01*
X894132Y7616404D01*
X887572Y7616404D01*
X881013Y7622964D01*
X881013Y7636083D01*
X887572Y7642643D01*
X881013Y7577047D02*
X881013Y7603285D01*
X900691Y7603285D01*
X894132Y7590166D01*
X894132Y7583606D01*
X900691Y7577047D01*
X913811Y7577047D01*
X920370Y7583606D01*
X920370Y7596726D01*
X913811Y7603285D01*
X709115Y1412000D02*
X669758Y1412000D01*
X669758Y1392321D01*
X676317Y1385762D01*
X689436Y1385762D01*
X695996Y1392321D01*
X695996Y1412000D01*
X695996Y1398881D02*
X709115Y1385762D01*
X676317Y1372643D02*
X669758Y1366083D01*
X669758Y1352964D01*
X676317Y1346404D01*
X682877Y1346404D01*
X689436Y1352964D01*
X689436Y1359524D01*
X689436Y1352964D01*
X695996Y1346404D01*
X702555Y1346404D01*
X709115Y1352964D01*
X709115Y1366083D01*
X702555Y1372643D01*
X669758Y1333285D02*
X669758Y1307047D01*
X676317Y1307047D01*
X702555Y1333285D01*
X709115Y1333285D01*
X2287305Y2438333D02*
X2293865Y2444893D01*
X2306984Y2444893D01*
X2313543Y2438333D01*
X2313543Y2412095D01*
X2306984Y2405535D01*
X2293865Y2405535D01*
X2287305Y2412095D01*
X2247948Y2405535D02*
X2274186Y2405535D01*
X2247948Y2431774D01*
X2247948Y2438333D01*
X2254507Y2444893D01*
X2267626Y2444893D01*
X2274186Y2438333D01*
X2234829Y2438333D02*
X2228269Y2444893D01*
X2215150Y2444893D01*
X2208590Y2438333D01*
X2208590Y2412095D01*
X2215150Y2405535D01*
X2228269Y2405535D01*
X2234829Y2412095D01*
X2234829Y2438333D01*
X694320Y7940297D02*
X687761Y7946857D01*
X687761Y7959976D01*
X694320Y7966535D01*
X720558Y7966535D01*
X727118Y7959976D01*
X727118Y7946857D01*
X720558Y7940297D01*
X727118Y7900940D02*
X727118Y7927178D01*
X700880Y7900940D01*
X694320Y7900940D01*
X687761Y7907499D01*
X687761Y7920618D01*
X694320Y7927178D01*
X687761Y7861583D02*
X694320Y7874702D01*
X707439Y7887821D01*
X720558Y7887821D01*
X727118Y7881261D01*
X727118Y7868142D01*
X720558Y7861583D01*
X713999Y7861583D01*
X707439Y7868142D01*
X707439Y7887821D01*
X260132Y6518798D02*
X266691Y6525357D01*
X279810Y6525357D01*
X286370Y6518798D01*
X286370Y6492560D01*
X279810Y6486000D01*
X266691Y6486000D01*
X260132Y6492560D01*
X247013Y6518798D02*
X240453Y6525357D01*
X227334Y6525357D01*
X220774Y6518798D01*
X220774Y6512238D01*
X227334Y6505679D01*
X233894Y6505679D01*
X227334Y6505679D01*
X220774Y6499119D01*
X220774Y6492560D01*
X227334Y6486000D01*
X240453Y6486000D01*
X247013Y6492560D01*
X187977Y6486000D02*
X187977Y6525357D01*
X207655Y6505679D01*
X181417Y6505679D01*
X456785Y4645002D02*
X463345Y4651562D01*
X476464Y4651562D01*
X483024Y4645002D01*
X483024Y4618764D01*
X476464Y4612205D01*
X463345Y4612205D01*
X456785Y4618764D01*
X417428Y4612205D02*
X443666Y4612205D01*
X417428Y4638443D01*
X417428Y4645002D01*
X423988Y4651562D01*
X437107Y4651562D01*
X443666Y4645002D01*
X404309Y4612205D02*
X391190Y4612205D01*
X397749Y4612205D01*
X397749Y4651562D01*
X404309Y4645002D01*
X1175289Y4833979D02*
X1181849Y4840539D01*
X1194968Y4840539D01*
X1201527Y4833979D01*
X1201527Y4807741D01*
X1194968Y4801181D01*
X1181849Y4801181D01*
X1175289Y4807741D01*
X1135932Y4801181D02*
X1162170Y4801181D01*
X1135932Y4827419D01*
X1135932Y4833979D01*
X1142491Y4840539D01*
X1155611Y4840539D01*
X1162170Y4833979D01*
X1122813Y4833979D02*
X1116253Y4840539D01*
X1103134Y4840539D01*
X1096574Y4833979D01*
X1096574Y4827419D01*
X1103134Y4820860D01*
X1096574Y4814300D01*
X1096574Y4807741D01*
X1103134Y4801181D01*
X1116253Y4801181D01*
X1122813Y4807741D01*
X1122813Y4814300D01*
X1116253Y4820860D01*
X1122813Y4827419D01*
X1122813Y4833979D01*
X1116253Y4820860D02*
X1103134Y4820860D01*
X2298651Y2034785D02*
X2292091Y2041345D01*
X2292091Y2054464D01*
X2298651Y2061024D01*
X2324889Y2061024D01*
X2331449Y2054464D01*
X2331449Y2041345D01*
X2324889Y2034785D01*
X2331449Y2001987D02*
X2292091Y2001987D01*
X2311770Y2021666D01*
X2311770Y1995428D01*
X2331449Y1962630D02*
X2292091Y1962630D01*
X2311770Y1982309D01*
X2311770Y1956071D01*
X2393793Y1867444D02*
X2400353Y1874003D01*
X2413472Y1874003D01*
X2420032Y1867444D01*
X2420032Y1841205D01*
X2413472Y1834646D01*
X2400353Y1834646D01*
X2393793Y1841205D01*
X2360995Y1834646D02*
X2360995Y1874003D01*
X2380674Y1854324D01*
X2354436Y1854324D01*
X2315079Y1874003D02*
X2341317Y1874003D01*
X2341317Y1854324D01*
X2328198Y1860884D01*
X2321638Y1860884D01*
X2315079Y1854324D01*
X2315079Y1841205D01*
X2321638Y1834646D01*
X2334757Y1834646D01*
X2341317Y1841205D01*
X830211Y4570793D02*
X836770Y4577353D01*
X849889Y4577353D01*
X856449Y4570793D01*
X856449Y4544555D01*
X849889Y4537995D01*
X836770Y4537995D01*
X830211Y4544555D01*
X790853Y4537995D02*
X817091Y4537995D01*
X790853Y4564234D01*
X790853Y4570793D01*
X797413Y4577353D01*
X810532Y4577353D01*
X817091Y4570793D01*
X751496Y4537995D02*
X777734Y4537995D01*
X751496Y4564234D01*
X751496Y4570793D01*
X758055Y4577353D01*
X771174Y4577353D01*
X777734Y4570793D01*
X2847370Y2179000D02*
X2808013Y2179000D01*
X2808013Y2159321D01*
X2814572Y2152762D01*
X2827691Y2152762D01*
X2834251Y2159321D01*
X2834251Y2179000D01*
X2834251Y2165881D02*
X2847370Y2152762D01*
X2814572Y2139643D02*
X2808013Y2133083D01*
X2808013Y2119964D01*
X2814572Y2113404D01*
X2821132Y2113404D01*
X2827691Y2119964D01*
X2827691Y2126523D01*
X2827691Y2119964D01*
X2834251Y2113404D01*
X2840811Y2113404D01*
X2847370Y2119964D01*
X2847370Y2133083D01*
X2840811Y2139643D01*
X2808013Y2074047D02*
X2808013Y2100285D01*
X2827691Y2100285D01*
X2821132Y2087166D01*
X2821132Y2080606D01*
X2827691Y2074047D01*
X2840811Y2074047D01*
X2847370Y2080606D01*
X2847370Y2093726D01*
X2840811Y2100285D01*
X1323634Y5991929D02*
X1284276Y5991929D01*
X1284276Y5972251D01*
X1290836Y5965691D01*
X1303955Y5965691D01*
X1310514Y5972251D01*
X1310514Y5991929D01*
X1310514Y5978810D02*
X1323634Y5965691D01*
X1284276Y5926334D02*
X1290836Y5939453D01*
X1303955Y5952572D01*
X1317074Y5952572D01*
X1323634Y5946012D01*
X1323634Y5932893D01*
X1317074Y5926334D01*
X1310514Y5926334D01*
X1303955Y5932893D01*
X1303955Y5952572D01*
X1284276Y5886976D02*
X1290836Y5900095D01*
X1303955Y5913215D01*
X1317074Y5913215D01*
X1323634Y5906655D01*
X1323634Y5893536D01*
X1317074Y5886976D01*
X1310514Y5886976D01*
X1303955Y5893536D01*
X1303955Y5913215D01*
X490898Y4533465D02*
X490898Y4572822D01*
X471219Y4572822D01*
X464659Y4566262D01*
X464659Y4553143D01*
X471219Y4546584D01*
X490898Y4546584D01*
X477779Y4546584D02*
X464659Y4533465D01*
X451540Y4533465D02*
X438421Y4533465D01*
X444981Y4533465D01*
X444981Y4572822D01*
X451540Y4566262D01*
X418742Y4566262D02*
X412183Y4572822D01*
X399064Y4572822D01*
X392504Y4566262D01*
X392504Y4540024D01*
X399064Y4533465D01*
X412183Y4533465D01*
X418742Y4540024D01*
X418742Y4566262D01*
X856449Y4443507D02*
X856449Y4482865D01*
X836770Y4482865D01*
X830211Y4476305D01*
X830211Y4463186D01*
X836770Y4456626D01*
X856449Y4456626D01*
X843330Y4456626D02*
X830211Y4443507D01*
X817091Y4443507D02*
X803972Y4443507D01*
X810532Y4443507D01*
X810532Y4482865D01*
X817091Y4476305D01*
X784294Y4443507D02*
X771174Y4443507D01*
X777734Y4443507D01*
X777734Y4482865D01*
X784294Y4476305D01*
X493063Y4415158D02*
X493063Y4454515D01*
X473384Y4454515D01*
X466825Y4447955D01*
X466825Y4434836D01*
X473384Y4428277D01*
X493063Y4428277D01*
X479944Y4428277D02*
X466825Y4415158D01*
X453706Y4415158D02*
X440587Y4415158D01*
X447146Y4415158D01*
X447146Y4454515D01*
X453706Y4447955D01*
X394670Y4415158D02*
X420908Y4415158D01*
X394670Y4441396D01*
X394670Y4447955D01*
X401229Y4454515D01*
X414348Y4454515D01*
X420908Y4447955D01*
X876134Y4337208D02*
X876134Y4376565D01*
X856455Y4376565D01*
X849896Y4370006D01*
X849896Y4356887D01*
X856455Y4350327D01*
X876134Y4350327D01*
X863015Y4350327D02*
X849896Y4337208D01*
X836777Y4337208D02*
X823657Y4337208D01*
X830217Y4337208D01*
X830217Y4376565D01*
X836777Y4370006D01*
X803979Y4370006D02*
X797419Y4376565D01*
X784300Y4376565D01*
X777740Y4370006D01*
X777740Y4363446D01*
X784300Y4356887D01*
X790860Y4356887D01*
X784300Y4356887D01*
X777740Y4350327D01*
X777740Y4343767D01*
X784300Y4337208D01*
X797419Y4337208D01*
X803979Y4343767D01*
X2459402Y1677165D02*
X2459402Y1716523D01*
X2439723Y1716523D01*
X2433163Y1709963D01*
X2433163Y1696844D01*
X2439723Y1690284D01*
X2459402Y1690284D01*
X2446282Y1690284D02*
X2433163Y1677165D01*
X2393806Y1716523D02*
X2420044Y1716523D01*
X2420044Y1696844D01*
X2406925Y1703403D01*
X2400365Y1703403D01*
X2393806Y1696844D01*
X2393806Y1683725D01*
X2400365Y1677165D01*
X2413485Y1677165D01*
X2420044Y1683725D01*
X2361008Y1677165D02*
X2361008Y1716523D01*
X2380687Y1696844D01*
X2354449Y1696844D01*
X2459402Y1608268D02*
X2459402Y1647625D01*
X2439723Y1647625D01*
X2433163Y1641066D01*
X2433163Y1627947D01*
X2439723Y1621387D01*
X2459402Y1621387D01*
X2446282Y1621387D02*
X2433163Y1608268D01*
X2393806Y1647625D02*
X2420044Y1647625D01*
X2420044Y1627947D01*
X2406925Y1634506D01*
X2400365Y1634506D01*
X2393806Y1627947D01*
X2393806Y1614827D01*
X2400365Y1608268D01*
X2413485Y1608268D01*
X2420044Y1614827D01*
X2354449Y1647625D02*
X2380687Y1647625D01*
X2380687Y1627947D01*
X2367568Y1634506D01*
X2361008Y1634506D01*
X2354449Y1627947D01*
X2354449Y1614827D01*
X2361008Y1608268D01*
X2374127Y1608268D01*
X2380687Y1614827D01*
X1712370Y2011000D02*
X1712370Y2050357D01*
X1692691Y2050357D01*
X1686132Y2043798D01*
X1686132Y2030679D01*
X1692691Y2024119D01*
X1712370Y2024119D01*
X1699251Y2024119D02*
X1686132Y2011000D01*
X1646774Y2050357D02*
X1673013Y2050357D01*
X1673013Y2030679D01*
X1659894Y2037238D01*
X1653334Y2037238D01*
X1646774Y2030679D01*
X1646774Y2017560D01*
X1653334Y2011000D01*
X1666453Y2011000D01*
X1673013Y2017560D01*
X1607417Y2050357D02*
X1620536Y2043798D01*
X1633655Y2030679D01*
X1633655Y2017560D01*
X1627096Y2011000D01*
X1613977Y2011000D01*
X1607417Y2017560D01*
X1607417Y2024119D01*
X1613977Y2030679D01*
X1633655Y2030679D01*
X2459402Y1460630D02*
X2459402Y1499987D01*
X2439723Y1499987D01*
X2433163Y1493428D01*
X2433163Y1480309D01*
X2439723Y1473749D01*
X2459402Y1473749D01*
X2446282Y1473749D02*
X2433163Y1460630D01*
X2393806Y1499987D02*
X2420044Y1499987D01*
X2420044Y1480309D01*
X2406925Y1486868D01*
X2400365Y1486868D01*
X2393806Y1480309D01*
X2393806Y1467190D01*
X2400365Y1460630D01*
X2413485Y1460630D01*
X2420044Y1467190D01*
X2380687Y1499987D02*
X2354449Y1499987D01*
X2354449Y1493428D01*
X2380687Y1467190D01*
X2380687Y1460630D01*
X1711370Y1942913D02*
X1711370Y1982271D01*
X1691691Y1982271D01*
X1685132Y1975711D01*
X1685132Y1962592D01*
X1691691Y1956033D01*
X1711370Y1956033D01*
X1698251Y1956033D02*
X1685132Y1942913D01*
X1645774Y1982271D02*
X1672013Y1982271D01*
X1672013Y1962592D01*
X1658894Y1969152D01*
X1652334Y1969152D01*
X1645774Y1962592D01*
X1645774Y1949473D01*
X1652334Y1942913D01*
X1665453Y1942913D01*
X1672013Y1949473D01*
X1632655Y1975711D02*
X1626096Y1982271D01*
X1612977Y1982271D01*
X1606417Y1975711D01*
X1606417Y1969152D01*
X1612977Y1962592D01*
X1606417Y1956033D01*
X1606417Y1949473D01*
X1612977Y1942913D01*
X1626096Y1942913D01*
X1632655Y1949473D01*
X1632655Y1956033D01*
X1626096Y1962592D01*
X1632655Y1969152D01*
X1632655Y1975711D01*
X1626096Y1962592D02*
X1612977Y1962592D01*
X2459402Y1529527D02*
X2459402Y1568885D01*
X2439723Y1568885D01*
X2433163Y1562325D01*
X2433163Y1549206D01*
X2439723Y1542647D01*
X2459402Y1542647D01*
X2446282Y1542647D02*
X2433163Y1529527D01*
X2393806Y1568885D02*
X2420044Y1568885D01*
X2420044Y1549206D01*
X2406925Y1555766D01*
X2400365Y1555766D01*
X2393806Y1549206D01*
X2393806Y1536087D01*
X2400365Y1529527D01*
X2413485Y1529527D01*
X2420044Y1536087D01*
X2380687Y1536087D02*
X2374127Y1529527D01*
X2361008Y1529527D01*
X2354449Y1536087D01*
X2354449Y1562325D01*
X2361008Y1568885D01*
X2374127Y1568885D01*
X2380687Y1562325D01*
X2380687Y1555766D01*
X2374127Y1549206D01*
X2354449Y1549206D01*
X1699559Y1694882D02*
X1699559Y1734239D01*
X1679880Y1734239D01*
X1673321Y1727680D01*
X1673321Y1714561D01*
X1679880Y1708001D01*
X1699559Y1708001D01*
X1686440Y1708001D02*
X1673321Y1694882D01*
X1633964Y1734239D02*
X1647083Y1727680D01*
X1660202Y1714561D01*
X1660202Y1701441D01*
X1653642Y1694882D01*
X1640523Y1694882D01*
X1633964Y1701441D01*
X1633964Y1708001D01*
X1640523Y1714561D01*
X1660202Y1714561D01*
X1620844Y1727680D02*
X1614285Y1734239D01*
X1601166Y1734239D01*
X1594606Y1727680D01*
X1594606Y1701441D01*
X1601166Y1694882D01*
X1614285Y1694882D01*
X1620844Y1701441D01*
X1620844Y1727680D01*
X1699559Y1561024D02*
X1699559Y1600381D01*
X1679880Y1600381D01*
X1673321Y1593821D01*
X1673321Y1580702D01*
X1679880Y1574143D01*
X1699559Y1574143D01*
X1686440Y1574143D02*
X1673321Y1561024D01*
X1633964Y1600381D02*
X1647083Y1593821D01*
X1660202Y1580702D01*
X1660202Y1567583D01*
X1653642Y1561024D01*
X1640523Y1561024D01*
X1633964Y1567583D01*
X1633964Y1574143D01*
X1640523Y1580702D01*
X1660202Y1580702D01*
X1620844Y1561024D02*
X1607725Y1561024D01*
X1614285Y1561024D01*
X1614285Y1600381D01*
X1620844Y1593821D01*
X1699559Y1761811D02*
X1699559Y1801168D01*
X1679880Y1801168D01*
X1673321Y1794609D01*
X1673321Y1781490D01*
X1679880Y1774930D01*
X1699559Y1774930D01*
X1686440Y1774930D02*
X1673321Y1761811D01*
X1633964Y1801168D02*
X1647083Y1794609D01*
X1660202Y1781490D01*
X1660202Y1768371D01*
X1653642Y1761811D01*
X1640523Y1761811D01*
X1633964Y1768371D01*
X1633964Y1774930D01*
X1640523Y1781490D01*
X1660202Y1781490D01*
X1594606Y1761811D02*
X1620844Y1761811D01*
X1594606Y1788049D01*
X1594606Y1794609D01*
X1601166Y1801168D01*
X1614285Y1801168D01*
X1620844Y1794609D01*
X1695622Y1625984D02*
X1695622Y1665342D01*
X1675943Y1665342D01*
X1669384Y1658782D01*
X1669384Y1645663D01*
X1675943Y1639103D01*
X1695622Y1639103D01*
X1682503Y1639103D02*
X1669384Y1625984D01*
X1630026Y1665342D02*
X1643146Y1658782D01*
X1656265Y1645663D01*
X1656265Y1632544D01*
X1649705Y1625984D01*
X1636586Y1625984D01*
X1630026Y1632544D01*
X1630026Y1639103D01*
X1636586Y1645663D01*
X1656265Y1645663D01*
X1616907Y1658782D02*
X1610348Y1665342D01*
X1597229Y1665342D01*
X1590669Y1658782D01*
X1590669Y1652223D01*
X1597229Y1645663D01*
X1603788Y1645663D01*
X1597229Y1645663D01*
X1590669Y1639103D01*
X1590669Y1632544D01*
X1597229Y1625984D01*
X1610348Y1625984D01*
X1616907Y1632544D01*
X2485977Y8198228D02*
X2485977Y8237586D01*
X2466298Y8237586D01*
X2459738Y8231026D01*
X2459738Y8217907D01*
X2466298Y8211348D01*
X2485977Y8211348D01*
X2472857Y8211348D02*
X2459738Y8198228D01*
X2420381Y8237586D02*
X2433500Y8231026D01*
X2446619Y8217907D01*
X2446619Y8204788D01*
X2440059Y8198228D01*
X2426940Y8198228D01*
X2420381Y8204788D01*
X2420381Y8211348D01*
X2426940Y8217907D01*
X2446619Y8217907D01*
X1809622Y7198924D02*
X1809622Y7166127D01*
X1803062Y7159567D01*
X1789943Y7159567D01*
X1783384Y7166127D01*
X1783384Y7198924D01*
X1750586Y7159567D02*
X1750586Y7198924D01*
X1770265Y7179246D01*
X1744026Y7179246D01*
X2743700Y8479767D02*
X2743700Y8440410D01*
X2724021Y8440410D01*
X2717462Y8446970D01*
X2717462Y8473208D01*
X2724021Y8479767D01*
X2743700Y8479767D01*
X2678104Y8473208D02*
X2684664Y8479767D01*
X2697783Y8479767D01*
X2704343Y8473208D01*
X2704343Y8466648D01*
X2697783Y8460089D01*
X2684664Y8460089D01*
X2678104Y8453529D01*
X2678104Y8446970D01*
X2684664Y8440410D01*
X2697783Y8440410D01*
X2704343Y8446970D01*
X2664985Y8440410D02*
X2651866Y8440410D01*
X2658426Y8440410D01*
X2658426Y8479767D01*
X2664985Y8473208D01*
X1759115Y1036357D02*
X1732877Y1036357D01*
X1732877Y1029798D01*
X1759115Y1003560D01*
X1759115Y997000D01*
X1732877Y997000D01*
X1719758Y1036357D02*
X1719758Y997000D01*
X1693519Y997000D01*
X1654162Y1029798D02*
X1660722Y1036357D01*
X1673841Y1036357D01*
X1680400Y1029798D01*
X1680400Y1023238D01*
X1673841Y1016679D01*
X1660722Y1016679D01*
X1654162Y1010119D01*
X1654162Y1003560D01*
X1660722Y997000D01*
X1673841Y997000D01*
X1680400Y1003560D01*
X1575447Y1029798D02*
X1582007Y1036357D01*
X1595126Y1036357D01*
X1601685Y1029798D01*
X1601685Y1003560D01*
X1595126Y997000D01*
X1582007Y997000D01*
X1575447Y1003560D01*
X1555768Y997000D02*
X1542649Y997000D01*
X1536090Y1003560D01*
X1536090Y1016679D01*
X1542649Y1023238D01*
X1555768Y1023238D01*
X1562328Y1016679D01*
X1562328Y1003560D01*
X1555768Y997000D01*
X1522971Y1023238D02*
X1522971Y997000D01*
X1522971Y1010119D01*
X1516411Y1016679D01*
X1509851Y1023238D01*
X1503292Y1023238D01*
X1483613Y983881D02*
X1483613Y1023238D01*
X1463935Y1023238D01*
X1457375Y1016679D01*
X1457375Y1003560D01*
X1463935Y997000D01*
X1483613Y997000D01*
X1759115Y1097000D02*
X1759115Y1136357D01*
X1739436Y1136357D01*
X1732877Y1129798D01*
X1732877Y1116679D01*
X1739436Y1110119D01*
X1759115Y1110119D01*
X1745996Y1110119D02*
X1732877Y1097000D01*
X1693519Y1136357D02*
X1719758Y1136357D01*
X1719758Y1097000D01*
X1693519Y1097000D01*
X1719758Y1116679D02*
X1706639Y1116679D01*
X1680400Y1136357D02*
X1680400Y1110119D01*
X1667281Y1097000D01*
X1654162Y1110119D01*
X1654162Y1136357D01*
X1601685Y1097000D02*
X1601685Y1123238D01*
X1588566Y1136357D01*
X1575447Y1123238D01*
X1575447Y1097000D01*
X1575447Y1116679D01*
X1601685Y1116679D01*
X1759115Y1256981D02*
X1759115Y1197000D01*
X1719128Y1197000D01*
X1699134Y1197000D02*
X1699134Y1256981D01*
X1679141Y1236987D01*
X1659147Y1256981D01*
X1659147Y1197000D01*
X1639154Y1226990D02*
X1599167Y1226990D01*
X1579173Y1246984D02*
X1569176Y1256981D01*
X1549183Y1256981D01*
X1539186Y1246984D01*
X1539186Y1206997D01*
X1549183Y1197000D01*
X1569176Y1197000D01*
X1579173Y1206997D01*
X1579173Y1246984D01*
X1519193Y1246984D02*
X1509196Y1256981D01*
X1489202Y1256981D01*
X1479206Y1246984D01*
X1479206Y1206997D01*
X1489202Y1197000D01*
X1509196Y1197000D01*
X1519193Y1206997D01*
X1519193Y1246984D01*
X1459212Y1246984D02*
X1449215Y1256981D01*
X1429222Y1256981D01*
X1419225Y1246984D01*
X1419225Y1236987D01*
X1429222Y1226990D01*
X1439218Y1226990D01*
X1429222Y1226990D01*
X1419225Y1216994D01*
X1419225Y1206997D01*
X1429222Y1197000D01*
X1449215Y1197000D01*
X1459212Y1206997D01*
X2459700Y3056391D02*
X2459700Y2996410D01*
X2419713Y2996410D01*
X2369729Y2996410D02*
X2389723Y2996410D01*
X2399719Y3006407D01*
X2399719Y3026400D01*
X2389723Y3036397D01*
X2369729Y3036397D01*
X2359732Y3026400D01*
X2359732Y3016403D01*
X2399719Y3016403D01*
X2339739Y3036397D02*
X2319745Y2996410D01*
X2299752Y3036397D01*
X2249768Y2996410D02*
X2269761Y2996410D01*
X2279758Y3006407D01*
X2279758Y3026400D01*
X2269761Y3036397D01*
X2249768Y3036397D01*
X2239771Y3026400D01*
X2239771Y3016403D01*
X2279758Y3016403D01*
X2219778Y2996410D02*
X2199784Y2996410D01*
X2209781Y2996410D01*
X2209781Y3056391D01*
X2219778Y3056391D01*
X2169794Y2996410D02*
X2139803Y2996410D01*
X2129807Y3006407D01*
X2139803Y3016403D01*
X2159797Y3016403D01*
X2169794Y3026400D01*
X2159797Y3036397D01*
X2129807Y3036397D01*
X2049833Y3056391D02*
X2049833Y2996410D01*
X2019842Y2996410D01*
X2009845Y3006407D01*
X2009845Y3016403D01*
X2019842Y3026400D01*
X2049833Y3026400D01*
X2019842Y3026400D01*
X2009845Y3036397D01*
X2009845Y3046394D01*
X2019842Y3056391D01*
X2049833Y3056391D01*
X1979855Y2996410D02*
X1959862Y2996410D01*
X1949865Y3006407D01*
X1949865Y3026400D01*
X1959862Y3036397D01*
X1979855Y3036397D01*
X1989852Y3026400D01*
X1989852Y3006407D01*
X1979855Y2996410D01*
X1919875Y3036397D02*
X1899881Y3036397D01*
X1889884Y3026400D01*
X1889884Y2996410D01*
X1919875Y2996410D01*
X1929871Y3006407D01*
X1919875Y3016403D01*
X1889884Y3016403D01*
X1869891Y3036397D02*
X1869891Y2996410D01*
X1869891Y3016403D01*
X1859894Y3026400D01*
X1849897Y3036397D01*
X1839900Y3036397D01*
X1769923Y3056391D02*
X1769923Y2996410D01*
X1799913Y2996410D01*
X1809910Y3006407D01*
X1809910Y3026400D01*
X1799913Y3036397D01*
X1769923Y3036397D01*
X3101134Y7510614D02*
X3091137Y7520610D01*
X3071144Y7520610D01*
X3061147Y7510614D01*
X3061147Y7500617D01*
X3071144Y7490620D01*
X3081140Y7490620D01*
X3071144Y7490620D01*
X3061147Y7480623D01*
X3061147Y7470627D01*
X3071144Y7460630D01*
X3091137Y7460630D01*
X3101134Y7470627D01*
X3001166Y7520610D02*
X3021160Y7510614D01*
X3041153Y7490620D01*
X3041153Y7470627D01*
X3031157Y7460630D01*
X3011163Y7460630D01*
X3001166Y7470627D01*
X3001166Y7480623D01*
X3011163Y7490620D01*
X3041153Y7490620D01*
X2981173Y7520610D02*
X2981173Y7480623D01*
X2961179Y7460630D01*
X2941186Y7480623D01*
X2941186Y7520610D01*
X2861211Y7520610D02*
X2861211Y7460630D01*
X2831221Y7460630D01*
X2821224Y7470627D01*
X2821224Y7510614D01*
X2831221Y7520610D01*
X2861211Y7520610D01*
X2761244Y7510614D02*
X2771241Y7520610D01*
X2791234Y7520610D01*
X2801231Y7510614D01*
X2801231Y7470627D01*
X2791234Y7460630D01*
X2771241Y7460630D01*
X2761244Y7470627D01*
X2741250Y7490620D02*
X2701263Y7490620D01*
X2681270Y7520610D02*
X2681270Y7460630D01*
X2651279Y7460630D01*
X2641283Y7470627D01*
X2641283Y7510614D01*
X2651279Y7520610D01*
X2681270Y7520610D01*
X2581302Y7510614D02*
X2591299Y7520610D01*
X2611292Y7520610D01*
X2621289Y7510614D01*
X2621289Y7470627D01*
X2611292Y7460630D01*
X2591299Y7460630D01*
X2581302Y7470627D01*
X634370Y4693000D02*
X634370Y4732357D01*
X614691Y4732357D01*
X608132Y4725798D01*
X608132Y4712679D01*
X614691Y4706119D01*
X634370Y4706119D01*
X595013Y4732357D02*
X595013Y4693000D01*
X581894Y4706119D01*
X568774Y4693000D01*
X568774Y4732357D01*
X555655Y4693000D02*
X555655Y4732357D01*
X542536Y4719238D01*
X529417Y4732357D01*
X529417Y4693000D01*
X490060Y4693000D02*
X516298Y4693000D01*
X490060Y4719238D01*
X490060Y4725798D01*
X496619Y4732357D01*
X509738Y4732357D01*
X516298Y4725798D01*
X476940Y4693000D02*
X476940Y4719238D01*
X463821Y4732357D01*
X450702Y4719238D01*
X450702Y4693000D01*
X450702Y4712679D01*
X476940Y4712679D01*
X616370Y5211000D02*
X616370Y5250357D01*
X596691Y5250357D01*
X590132Y5243798D01*
X590132Y5230679D01*
X596691Y5224119D01*
X616370Y5224119D01*
X577013Y5250357D02*
X577013Y5211000D01*
X563894Y5224119D01*
X550774Y5211000D01*
X550774Y5250357D01*
X537655Y5211000D02*
X537655Y5250357D01*
X524536Y5237238D01*
X511417Y5250357D01*
X511417Y5211000D01*
X472060Y5211000D02*
X498298Y5211000D01*
X472060Y5237238D01*
X472060Y5243798D01*
X478619Y5250357D01*
X491738Y5250357D01*
X498298Y5243798D01*
X458940Y5250357D02*
X458940Y5211000D01*
X439262Y5211000D01*
X432702Y5217560D01*
X432702Y5224119D01*
X439262Y5230679D01*
X458940Y5230679D01*
X439262Y5230679D01*
X432702Y5237238D01*
X432702Y5243798D01*
X439262Y5250357D01*
X458940Y5250357D01*
D83*
X1356000Y8140000D02*
X2156000Y8140000D01*
X1356000Y7340000D02*
X1356000Y8140000D01*
X1356000Y7340000D02*
X2156000Y7340000D01*
X2156000Y8140000D01*
%TF.MD5,b4cf5f54a8c791eb55a8860930ec6f37*%
M02*
