G04 Layer_Physical_Order=5*
G04 Layer_Color=16440176*
%FSLAX26Y26*%
%MOIN*%
%TF.FileFunction,Copper,L5,Inr,Signal*%
%TF.Part,Single*%
G01*
G75*
%TA.AperFunction,Conductor*%
%ADD27C,0.010000*%
%ADD28C,0.008000*%
%ADD29C,0.019685*%
%TA.AperFunction,ComponentPad*%
%ADD30C,0.082677*%
%ADD31R,0.060000X0.060000*%
%ADD32C,0.078740*%
%ADD33C,0.059055*%
%ADD34R,0.059055X0.059055*%
%ADD35R,0.059055X0.059055*%
%TA.AperFunction,ViaPad*%
%ADD36C,0.105000*%
%ADD37C,0.120000*%
%ADD38C,0.196850*%
%TA.AperFunction,ComponentPad*%
%ADD39C,0.074803*%
%ADD40R,0.062992X0.062992*%
%ADD41C,0.062992*%
%TA.AperFunction,ViaPad*%
%ADD42C,0.060000*%
%TA.AperFunction,ComponentPad*%
%ADD43C,0.047244*%
%ADD44C,0.118110*%
%ADD45C,0.060000*%
%ADD46C,0.120000*%
%ADD47C,0.102000*%
%ADD48C,0.040000*%
%ADD49C,0.078740*%
%ADD50C,0.067000*%
%ADD51C,0.117000*%
%ADD52C,0.037000*%
%ADD53R,0.037000X0.037000*%
%TA.AperFunction,ViaPad*%
%ADD54C,0.050000*%
%ADD55C,0.027559*%
G36*
X1939824Y5266801D02*
X1869533Y5196510D01*
X1864913Y5198423D01*
X1864913Y5423894D01*
X1939824Y5423894D01*
X1939824Y5266801D01*
X1939824Y5266801D02*
G37*
G36*
X2245502Y6545276D02*
X2212457Y6545276D01*
X2210122Y6550276D01*
X2213060Y6554673D01*
X2214517Y6562000D01*
X2213060Y6569327D01*
X2208909Y6575539D01*
X2202697Y6579690D01*
X2195370Y6581147D01*
X2188043Y6579690D01*
X2181831Y6575539D01*
X2177680Y6569327D01*
X2176223Y6562000D01*
X2177680Y6554673D01*
X2180618Y6550276D01*
X2178283Y6545276D01*
X2077512Y6545276D01*
X2077512Y8030504D01*
X2245502Y8030504D01*
X2245502Y6545276D01*
X2245502Y6545276D02*
G37*
G36*
X3372787Y3667323D02*
X3080540Y3667323D01*
X3053291Y3694571D01*
X3053291Y4103317D01*
X3052593Y4106829D01*
X3050604Y4109806D01*
X2935176Y4225233D01*
X2935176Y4741199D01*
X3098489Y4904511D01*
X3100478Y4907488D01*
X3101176Y4911000D01*
X3101176Y5505688D01*
X3101176Y5860019D01*
X3101176Y6301546D01*
X3105539Y6304461D01*
X3109690Y6310673D01*
X3111147Y6318000D01*
X3109690Y6325327D01*
X3105539Y6331539D01*
X3099327Y6335690D01*
X3092000Y6337147D01*
X3084673Y6335690D01*
X3078461Y6331539D01*
X3074310Y6325327D01*
X3072853Y6318000D01*
X3074310Y6310673D01*
X3078461Y6304461D01*
X3082824Y6301546D01*
X3082824Y6230126D01*
X3077824Y6228914D01*
X3070125Y6234822D01*
X3060394Y6238852D01*
X3049952Y6240227D01*
X3039510Y6238852D01*
X3029779Y6234822D01*
X3021424Y6228410D01*
X3015012Y6220055D01*
X3010981Y6210324D01*
X3009607Y6199882D01*
X3010981Y6189440D01*
X3015012Y6179709D01*
X3021424Y6171354D01*
X3029779Y6164942D01*
X3039510Y6160912D01*
X3049952Y6159537D01*
X3060394Y6160912D01*
X3070125Y6164942D01*
X3077824Y6170850D01*
X3082824Y6169638D01*
X3082824Y5792056D01*
X3077824Y5790844D01*
X3077824Y5790844D01*
X3077824Y5790844D01*
X3070125Y5796752D01*
X3060394Y5800783D01*
X3049952Y5802157D01*
X3039510Y5800783D01*
X3029779Y5796752D01*
X3021424Y5790340D01*
X3015012Y5781985D01*
X3010981Y5772254D01*
X3009607Y5761812D01*
X3010981Y5751370D01*
X3015012Y5741639D01*
X3021424Y5733284D01*
X3029779Y5726872D01*
X3039510Y5722842D01*
X3049952Y5721467D01*
X3060394Y5722842D01*
X3070125Y5726872D01*
X3077824Y5732780D01*
X3082824Y5731568D01*
X3082824Y4914801D01*
X2919511Y4751489D01*
X2917522Y4748512D01*
X2916824Y4745000D01*
X2916824Y4620708D01*
X2837512Y4620708D01*
X2837512Y4540708D01*
X2916824Y4540708D01*
X2916824Y4221432D01*
X2917522Y4217920D01*
X2919511Y4214943D01*
X3034939Y4099516D01*
X3034939Y3690771D01*
X3035637Y3687259D01*
X3037626Y3684282D01*
X3049966Y3671942D01*
X3048052Y3667323D01*
X2884468Y3667323D01*
X2844733Y3707057D01*
X2845517Y3711000D01*
X2844060Y3718327D01*
X2839909Y3724539D01*
X2833697Y3728690D01*
X2826370Y3730147D01*
X2819043Y3728690D01*
X2812831Y3724539D01*
X2808680Y3718327D01*
X2807223Y3711000D01*
X2808680Y3703673D01*
X2812831Y3697461D01*
X2819043Y3693310D01*
X2826370Y3691853D01*
X2830314Y3692637D01*
X2851010Y3671942D01*
X2849096Y3667323D01*
X2514778Y3667323D01*
X2514778Y4376359D01*
X2668223Y4529804D01*
X2818000Y4529804D01*
X2821902Y4530580D01*
X2825210Y4532790D01*
X2827420Y4536098D01*
X2828196Y4540000D01*
X2828196Y4621000D01*
X2827420Y4624902D01*
X2825210Y4628210D01*
X2808196Y4645223D01*
X2808196Y4969227D01*
X2811539Y4971461D01*
X2815690Y4977673D01*
X2817147Y4985000D01*
X2815690Y4992327D01*
X2811539Y4998539D01*
X2805327Y5002690D01*
X2798000Y5004147D01*
X2790673Y5002690D01*
X2784461Y4998539D01*
X2780310Y4992327D01*
X2778853Y4985000D01*
X2780310Y4977673D01*
X2784461Y4971461D01*
X2787804Y4969227D01*
X2787804Y4641000D01*
X2788580Y4637098D01*
X2790790Y4633790D01*
X2799253Y4625327D01*
X2797340Y4620708D01*
X2737512Y4620708D01*
X2737512Y4550196D01*
X2717512Y4550196D01*
X2717512Y4575708D01*
X2637512Y4575708D01*
X2637512Y4540708D01*
X2643756Y4540708D01*
X2645669Y4536089D01*
X2497372Y4387792D01*
X2495162Y4384484D01*
X2494386Y4380582D01*
X2494386Y3667323D01*
X1864913Y3667323D01*
X1864913Y5165936D01*
X1955489Y5256511D01*
X1957478Y5259488D01*
X1958176Y5263000D01*
X1958176Y5433070D01*
X1958176Y5474409D01*
X2309795Y5474409D01*
X2309795Y5506312D01*
X2314795Y5507901D01*
X2316858Y5506522D01*
X2320370Y5505824D01*
X2911569Y5505824D01*
X2936194Y5481199D01*
X2936194Y5450454D01*
X2931831Y5447539D01*
X2927680Y5441327D01*
X2926223Y5434000D01*
X2927680Y5426673D01*
X2931831Y5420461D01*
X2938043Y5416310D01*
X2945370Y5414853D01*
X2952697Y5416310D01*
X2958909Y5420461D01*
X2963060Y5426673D01*
X2964517Y5434000D01*
X2963060Y5441327D01*
X2958909Y5447539D01*
X2954546Y5450454D01*
X2954546Y5485000D01*
X2953848Y5488512D01*
X2951859Y5491489D01*
X2921859Y5521489D01*
X2918882Y5523478D01*
X2915370Y5524176D01*
X2478532Y5524176D01*
X2477538Y5529176D01*
X2479575Y5530020D01*
X2487930Y5536432D01*
X2494342Y5544787D01*
X2498372Y5554518D01*
X2499747Y5564960D01*
X2498372Y5575402D01*
X2494342Y5585133D01*
X2487930Y5593488D01*
X2479575Y5599900D01*
X2469844Y5603931D01*
X2459402Y5605305D01*
X2448960Y5603931D01*
X2439229Y5599900D01*
X2430874Y5593488D01*
X2424462Y5585133D01*
X2420432Y5575402D01*
X2419057Y5564960D01*
X2420432Y5554518D01*
X2424462Y5544787D01*
X2430874Y5536432D01*
X2439229Y5530020D01*
X2441266Y5529176D01*
X2440272Y5524176D01*
X2324171Y5524176D01*
X2309795Y5538552D01*
X2309795Y6529528D01*
X2309795Y6545276D01*
X2263854Y6545276D01*
X2263854Y8031734D01*
X2264098Y8032098D01*
X2264874Y8036000D01*
X2264098Y8039902D01*
X2261888Y8043210D01*
X2257188Y8047910D01*
X2253880Y8050120D01*
X2249978Y8050896D01*
X2077512Y8050896D01*
X2077512Y8080504D01*
X2327194Y8080504D01*
X2327194Y5589454D01*
X2322831Y5586539D01*
X2318680Y5580327D01*
X2317223Y5573000D01*
X2318680Y5565673D01*
X2322831Y5559461D01*
X2329043Y5555310D01*
X2336370Y5553853D01*
X2343697Y5555310D01*
X2349909Y5559461D01*
X2354060Y5565673D01*
X2355517Y5573000D01*
X2354060Y5580327D01*
X2349909Y5586539D01*
X2345546Y5589454D01*
X2345546Y8081734D01*
X2345790Y8082098D01*
X2346566Y8086000D01*
X2345790Y8089902D01*
X2343580Y8093210D01*
X2338880Y8097910D01*
X2335572Y8100120D01*
X2331670Y8100896D01*
X2077512Y8100896D01*
X2077512Y8175804D01*
X2759824Y8175804D01*
X2759824Y5875000D01*
X2760522Y5871488D01*
X2762511Y5868511D01*
X2983008Y5648015D01*
X2983008Y4914342D01*
X2978645Y4911427D01*
X2974494Y4905215D01*
X2973037Y4897888D01*
X2974494Y4890561D01*
X2978645Y4884349D01*
X2984857Y4880198D01*
X2992184Y4878741D01*
X2999511Y4880198D01*
X3005723Y4884349D01*
X3009874Y4890561D01*
X3011331Y4897888D01*
X3009874Y4905215D01*
X3005723Y4911427D01*
X3001360Y4914342D01*
X3001360Y5505688D01*
X3001360Y5651816D01*
X3000662Y5655328D01*
X2998673Y5658305D01*
X2778176Y5878801D01*
X2778176Y6172298D01*
X2783176Y6173996D01*
X2785204Y6171354D01*
X2793559Y6164942D01*
X2803290Y6160912D01*
X2813732Y6159537D01*
X2824174Y6160912D01*
X2833905Y6164942D01*
X2842260Y6171354D01*
X2848672Y6179709D01*
X2852702Y6189440D01*
X2854077Y6199882D01*
X2852702Y6210324D01*
X2848672Y6220055D01*
X2842260Y6228410D01*
X2833905Y6234822D01*
X2824174Y6238852D01*
X2813732Y6240227D01*
X2803290Y6238852D01*
X2793559Y6234822D01*
X2785204Y6228410D01*
X2783176Y6225768D01*
X2778176Y6227466D01*
X2778176Y8181734D01*
X2778420Y8182098D01*
X2779196Y8186000D01*
X2778420Y8189902D01*
X2776210Y8193210D01*
X2772902Y8195420D01*
X2769000Y8196196D01*
X2077512Y8196196D01*
X2077512Y8226824D01*
X3308546Y8226824D01*
X3311461Y8222461D01*
X3315850Y8219528D01*
X3318663Y6436257D01*
X3313665Y6434464D01*
X3308468Y6440798D01*
X3297953Y6449427D01*
X3285956Y6455839D01*
X3272939Y6459788D01*
X3259402Y6461121D01*
X3245865Y6459788D01*
X3232848Y6455839D01*
X3220851Y6449427D01*
X3210336Y6440798D01*
X3201707Y6430283D01*
X3195295Y6418286D01*
X3191346Y6405269D01*
X3190013Y6391732D01*
X3191346Y6378195D01*
X3195295Y6365178D01*
X3201707Y6353181D01*
X3210336Y6342666D01*
X3220851Y6334037D01*
X3232848Y6327625D01*
X3245865Y6323676D01*
X3259402Y6322343D01*
X3272939Y6323676D01*
X3285956Y6327625D01*
X3297953Y6334037D01*
X3308468Y6342666D01*
X3313800Y6349164D01*
X3318803Y6347378D01*
X3318988Y6230224D01*
X3313990Y6228956D01*
X3306345Y6234822D01*
X3296614Y6238852D01*
X3286172Y6240227D01*
X3275730Y6238852D01*
X3265999Y6234822D01*
X3257644Y6228410D01*
X3251232Y6220055D01*
X3247202Y6210324D01*
X3245827Y6199882D01*
X3247202Y6189440D01*
X3251232Y6179709D01*
X3257644Y6171354D01*
X3265999Y6164942D01*
X3275730Y6160912D01*
X3286172Y6159537D01*
X3296614Y6160912D01*
X3306345Y6164942D01*
X3314081Y6170878D01*
X3319083Y6169706D01*
X3319295Y6035486D01*
X3314298Y6033694D01*
X3308468Y6040798D01*
X3297953Y6049427D01*
X3285956Y6055839D01*
X3272939Y6059788D01*
X3259402Y6061121D01*
X3245865Y6059788D01*
X3232848Y6055839D01*
X3220851Y6049427D01*
X3210336Y6040798D01*
X3201707Y6030283D01*
X3195295Y6018286D01*
X3191346Y6005269D01*
X3190013Y5991732D01*
X3191346Y5978195D01*
X3195295Y5965178D01*
X3201707Y5953181D01*
X3210336Y5942666D01*
X3220851Y5934037D01*
X3232848Y5927625D01*
X3245865Y5923676D01*
X3259402Y5922343D01*
X3272939Y5923676D01*
X3285956Y5927625D01*
X3297953Y5934037D01*
X3308468Y5942666D01*
X3314430Y5949931D01*
X3319432Y5948146D01*
X3319572Y5860019D01*
X3319927Y5634716D01*
X3319927Y5634716D01*
X3319927Y5634716D01*
X3314930Y5632923D01*
X3314930Y5632923D01*
X3308468Y5640798D01*
X3297953Y5649427D01*
X3285956Y5655839D01*
X3272939Y5659788D01*
X3264402Y5660629D01*
X3264402Y5591732D01*
X3264402Y5522835D01*
X3272939Y5523676D01*
X3285956Y5527625D01*
X3297953Y5534037D01*
X3308468Y5542666D01*
X3315059Y5550699D01*
X3320062Y5548913D01*
X3320096Y5527625D01*
X3321818Y4436063D01*
X3262146Y4376392D01*
X3257000Y4377415D01*
X3249673Y4375958D01*
X3243461Y4371807D01*
X3239310Y4365595D01*
X3237853Y4358268D01*
X3239310Y4350941D01*
X3243461Y4344729D01*
X3249673Y4340578D01*
X3257000Y4339121D01*
X3264327Y4340578D01*
X3270539Y4344729D01*
X3274690Y4350941D01*
X3276147Y4358268D01*
X3275124Y4363414D01*
X3337489Y4425779D01*
X3337493Y4425786D01*
X3337499Y4425790D01*
X3338471Y4427250D01*
X3339478Y4428756D01*
X3339479Y4428764D01*
X3339483Y4428770D01*
X3339827Y4430511D01*
X3340176Y4432268D01*
X3340175Y4432275D01*
X3340176Y4432283D01*
X3338483Y5505688D01*
X3337930Y5856481D01*
X3334202Y8219563D01*
X3338539Y8222461D01*
X3342690Y8228673D01*
X3344147Y8236000D01*
X3342690Y8243327D01*
X3338539Y8249539D01*
X3332327Y8253690D01*
X3325000Y8255147D01*
X3317673Y8253690D01*
X3311461Y8249539D01*
X3308546Y8245176D01*
X3190755Y8245176D01*
X3189760Y8250176D01*
X3189829Y8250205D01*
X3196096Y8255014D01*
X3200905Y8261281D01*
X3203928Y8268578D01*
X3204959Y8276410D01*
X3203928Y8284242D01*
X3200905Y8291539D01*
X3196096Y8297806D01*
X3189829Y8302615D01*
X3182532Y8305638D01*
X3174700Y8306669D01*
X3166868Y8305638D01*
X3159571Y8302615D01*
X3153304Y8297806D01*
X3148495Y8291539D01*
X3145472Y8284242D01*
X3144441Y8276410D01*
X3145472Y8268578D01*
X3148495Y8261281D01*
X3153304Y8255014D01*
X3159571Y8250205D01*
X3159640Y8250176D01*
X3158645Y8245176D01*
X2990755Y8245176D01*
X2989760Y8250176D01*
X2989829Y8250205D01*
X2996096Y8255014D01*
X3000905Y8261281D01*
X3003928Y8268578D01*
X3004959Y8276410D01*
X3003928Y8284242D01*
X3000905Y8291539D01*
X2996096Y8297806D01*
X2989829Y8302615D01*
X2982532Y8305638D01*
X2974700Y8306669D01*
X2966868Y8305638D01*
X2959571Y8302615D01*
X2953304Y8297806D01*
X2948495Y8291539D01*
X2945472Y8284242D01*
X2944441Y8276410D01*
X2945472Y8268578D01*
X2948495Y8261281D01*
X2953304Y8255014D01*
X2959571Y8250205D01*
X2959640Y8250176D01*
X2958645Y8245176D01*
X2077512Y8245176D01*
X2077512Y8499999D01*
X3372788Y8500000D01*
X3372787Y3667323D01*
X3372787Y3667323D02*
G37*
%LPC*%
G36*
X2717512Y4620708D02*
X2682512Y4620708D01*
X2682512Y4585708D01*
X2717512Y4585708D01*
X2717512Y4620708D01*
X2717512Y4620708D02*
G37*
G36*
X2166330Y4925826D02*
X2131330Y4925826D01*
X2131330Y4890826D01*
X2166330Y4890826D01*
X2166330Y4925826D01*
X2166330Y4925826D02*
G37*
G36*
X2874000Y4725147D02*
X2866673Y4723690D01*
X2860461Y4719539D01*
X2856310Y4713327D01*
X2854853Y4706000D01*
X2856310Y4698673D01*
X2860461Y4692461D01*
X2866673Y4688310D01*
X2874000Y4686853D01*
X2881327Y4688310D01*
X2887539Y4692461D01*
X2891690Y4698673D01*
X2893147Y4706000D01*
X2891690Y4713327D01*
X2887539Y4719539D01*
X2881327Y4723690D01*
X2874000Y4725147D01*
X2874000Y4725147D02*
G37*
G36*
X2439700Y4431959D02*
X2431868Y4430928D01*
X2424571Y4427905D01*
X2418304Y4423096D01*
X2413495Y4416829D01*
X2410472Y4409532D01*
X2409441Y4401700D01*
X2410472Y4393868D01*
X2413495Y4386571D01*
X2418304Y4380304D01*
X2424571Y4375495D01*
X2431868Y4372472D01*
X2439700Y4371441D01*
X2447532Y4372472D01*
X2454829Y4375495D01*
X2461096Y4380304D01*
X2465905Y4386571D01*
X2468928Y4393868D01*
X2469959Y4401700D01*
X2468928Y4409532D01*
X2465905Y4416829D01*
X2461096Y4423096D01*
X2454829Y4427905D01*
X2447532Y4430928D01*
X2439700Y4431959D01*
X2439700Y4431959D02*
G37*
G36*
X2617512Y4620708D02*
X2537512Y4620708D01*
X2537512Y4540708D01*
X2617512Y4540708D01*
X2617512Y4620708D01*
X2617512Y4620708D02*
G37*
G36*
X2672512Y4620708D02*
X2637512Y4620708D01*
X2637512Y4585708D01*
X2672512Y4585708D01*
X2672512Y4620708D01*
X2672512Y4620708D02*
G37*
G36*
X2443654Y4818359D02*
X2436327Y4816902D01*
X2430115Y4812751D01*
X2425964Y4806539D01*
X2424507Y4799212D01*
X2425964Y4791885D01*
X2430115Y4785673D01*
X2436327Y4781522D01*
X2443654Y4780065D01*
X2450981Y4781522D01*
X2457193Y4785673D01*
X2461344Y4791885D01*
X2462801Y4799212D01*
X2461344Y4806539D01*
X2457193Y4812751D01*
X2450981Y4816902D01*
X2443654Y4818359D01*
X2443654Y4818359D02*
G37*
G36*
X2166330Y4880826D02*
X2131330Y4880826D01*
X2131330Y4845826D01*
X2166330Y4845826D01*
X2166330Y4880826D01*
X2166330Y4880826D02*
G37*
G36*
X2066330Y4925826D02*
X1986330Y4925826D01*
X1986330Y4845826D01*
X2066330Y4845826D01*
X2066330Y4925826D01*
X2066330Y4925826D02*
G37*
G36*
X2121330Y4880826D02*
X2086330Y4880826D01*
X2086330Y4845826D01*
X2121330Y4845826D01*
X2121330Y4880826D01*
X2121330Y4880826D02*
G37*
G36*
X2574370Y5452147D02*
X2567043Y5450690D01*
X2560831Y5446539D01*
X2556680Y5440327D01*
X2555223Y5433000D01*
X2556680Y5425673D01*
X2560831Y5419461D01*
X2564174Y5417227D01*
X2564174Y4866630D01*
X2564950Y4862728D01*
X2567160Y4859420D01*
X2598637Y4827944D01*
X2597853Y4824000D01*
X2599310Y4816673D01*
X2603461Y4810461D01*
X2609673Y4806310D01*
X2617000Y4804853D01*
X2624327Y4806310D01*
X2630539Y4810461D01*
X2634690Y4816673D01*
X2636147Y4824000D01*
X2634690Y4831327D01*
X2630539Y4837539D01*
X2624327Y4841690D01*
X2617000Y4843147D01*
X2613056Y4842363D01*
X2584566Y4870853D01*
X2584566Y5417227D01*
X2587909Y5419461D01*
X2592060Y5425673D01*
X2593517Y5433000D01*
X2592060Y5440327D01*
X2587909Y5446539D01*
X2581697Y5450690D01*
X2574370Y5452147D01*
X2574370Y5452147D02*
G37*
G36*
X2121330Y4925826D02*
X2086330Y4925826D01*
X2086330Y4890826D01*
X2121330Y4890826D01*
X2121330Y4925826D01*
X2121330Y4925826D02*
G37*
G36*
X2366330Y4925826D02*
X2286330Y4925826D01*
X2286330Y4850826D01*
X2286330Y4845874D01*
X2282760Y4842373D01*
X2266330Y4858803D01*
X2266330Y4925826D01*
X2186330Y4925826D01*
X2186330Y4845826D01*
X2253353Y4845826D01*
X2276210Y4822969D01*
X2276210Y4227008D01*
X2245386Y4227008D01*
X2245386Y4147008D01*
X2325386Y4147008D01*
X2325386Y4227008D01*
X2294562Y4227008D01*
X2294562Y4826770D01*
X2293864Y4830282D01*
X2291875Y4833259D01*
X2282877Y4842256D01*
X2286378Y4845826D01*
X2291310Y4845826D01*
X2366330Y4845826D01*
X2366330Y4925826D01*
X2366330Y4925826D02*
G37*
G36*
X2119700Y4406669D02*
X2111868Y4405638D01*
X2104571Y4402615D01*
X2098304Y4397806D01*
X2093495Y4391539D01*
X2090472Y4384242D01*
X2089441Y4376410D01*
X2090472Y4368578D01*
X2093495Y4361281D01*
X2098304Y4355014D01*
X2104571Y4350205D01*
X2111868Y4347182D01*
X2119700Y4346151D01*
X2127532Y4347182D01*
X2134829Y4350205D01*
X2141096Y4355014D01*
X2145905Y4361281D01*
X2148928Y4368578D01*
X2149959Y4376410D01*
X2148928Y4384242D01*
X2145905Y4391539D01*
X2141096Y4397806D01*
X2134829Y4402615D01*
X2127532Y4405638D01*
X2119700Y4406669D01*
X2119700Y4406669D02*
G37*
G36*
X2917512Y3931732D02*
X2837512Y3931732D01*
X2837512Y3851732D01*
X2917512Y3851732D01*
X2917512Y3931732D01*
X2917512Y3931732D02*
G37*
G36*
X2672512Y3931732D02*
X2637512Y3931732D01*
X2637512Y3896732D01*
X2672512Y3896732D01*
X2672512Y3931732D01*
X2672512Y3931732D02*
G37*
G36*
X2717512Y3931732D02*
X2682512Y3931732D01*
X2682512Y3896732D01*
X2717512Y3896732D01*
X2717512Y3931732D01*
X2717512Y3931732D02*
G37*
G36*
X2717512Y3886732D02*
X2682512Y3886732D01*
X2682512Y3851732D01*
X2717512Y3851732D01*
X2717512Y3886732D01*
X2717512Y3886732D02*
G37*
G36*
X2817512Y3931732D02*
X2737512Y3931732D01*
X2737512Y3863255D01*
X2734673Y3862690D01*
X2728461Y3858539D01*
X2724310Y3852327D01*
X2722853Y3845000D01*
X2724310Y3837673D01*
X2728461Y3831461D01*
X2734673Y3827310D01*
X2742000Y3825853D01*
X2749327Y3827310D01*
X2755539Y3831461D01*
X2759690Y3837673D01*
X2761147Y3845000D01*
X2760577Y3847867D01*
X2763749Y3851732D01*
X2817512Y3851732D01*
X2817512Y3931732D01*
X2817512Y3931732D02*
G37*
G36*
X2617512Y3931732D02*
X2537512Y3931732D01*
X2537512Y3851732D01*
X2617512Y3851732D01*
X2617512Y3931732D01*
X2617512Y3931732D02*
G37*
G36*
X2672512Y3886732D02*
X2637512Y3886732D01*
X2637512Y3851732D01*
X2672512Y3851732D01*
X2672512Y3886732D01*
X2672512Y3886732D02*
G37*
G36*
X2180386Y4227008D02*
X2145386Y4227008D01*
X2145386Y4192008D01*
X2180386Y4192008D01*
X2180386Y4227008D01*
X2180386Y4227008D02*
G37*
G36*
X2225386Y4227008D02*
X2190386Y4227008D01*
X2190386Y4192008D01*
X2225386Y4192008D01*
X2225386Y4227008D01*
X2225386Y4227008D02*
G37*
G36*
X3010000Y4332147D02*
X3002673Y4330690D01*
X2996461Y4326539D01*
X2992310Y4320327D01*
X2990853Y4313000D01*
X2992310Y4305673D01*
X2996461Y4299461D01*
X3002673Y4295310D01*
X3010000Y4293853D01*
X3017327Y4295310D01*
X3023539Y4299461D01*
X3027690Y4305673D01*
X3029147Y4313000D01*
X3027690Y4320327D01*
X3023539Y4326539D01*
X3017327Y4330690D01*
X3010000Y4332147D01*
X3010000Y4332147D02*
G37*
G36*
X2425386Y4227008D02*
X2345386Y4227008D01*
X2345386Y4147008D01*
X2425386Y4147008D01*
X2425386Y4227008D01*
X2425386Y4227008D02*
G37*
G36*
X2125386Y4227008D02*
X2045386Y4227008D01*
X2045386Y4147008D01*
X2125386Y4147008D01*
X2125386Y4227008D01*
X2125386Y4227008D02*
G37*
G36*
X2180386Y4182008D02*
X2145386Y4182008D01*
X2145386Y4147008D01*
X2180386Y4147008D01*
X2180386Y4182008D01*
X2180386Y4182008D02*
G37*
G36*
X2225386Y4182008D02*
X2190386Y4182008D01*
X2190386Y4147008D01*
X2225386Y4147008D01*
X2225386Y4182008D01*
X2225386Y4182008D02*
G37*
G36*
X1949370Y5041259D02*
X1941538Y5040228D01*
X1934241Y5037205D01*
X1927974Y5032396D01*
X1923165Y5026129D01*
X1920142Y5018832D01*
X1919111Y5011000D01*
X1920142Y5003168D01*
X1923165Y4995871D01*
X1927974Y4989604D01*
X1934241Y4984795D01*
X1941538Y4981772D01*
X1949370Y4980741D01*
X1957202Y4981772D01*
X1964499Y4984795D01*
X1970766Y4989604D01*
X1975575Y4995871D01*
X1978598Y5003168D01*
X1979629Y5011000D01*
X1978598Y5018832D01*
X1975575Y5026129D01*
X1970766Y5032396D01*
X1964499Y5037205D01*
X1957202Y5040228D01*
X1949370Y5041259D01*
X1949370Y5041259D02*
G37*
G36*
X2483000Y6550147D02*
X2475673Y6548690D01*
X2469461Y6544539D01*
X2465310Y6538327D01*
X2463853Y6531000D01*
X2465310Y6523673D01*
X2469461Y6517461D01*
X2475673Y6513310D01*
X2483000Y6511853D01*
X2490327Y6513310D01*
X2496539Y6517461D01*
X2500690Y6523673D01*
X2502147Y6531000D01*
X2500690Y6538327D01*
X2496539Y6544539D01*
X2490327Y6548690D01*
X2483000Y6550147D01*
X2483000Y6550147D02*
G37*
G36*
X2899000Y6547000D02*
X2880749Y6547000D01*
X2881600Y6542722D01*
X2886856Y6534856D01*
X2894722Y6529600D01*
X2899000Y6528749D01*
X2899000Y6547000D01*
X2899000Y6547000D02*
G37*
G36*
X2927251Y6547000D02*
X2909000Y6547000D01*
X2909000Y6528749D01*
X2913278Y6529600D01*
X2921144Y6534856D01*
X2926400Y6542722D01*
X2927251Y6547000D01*
X2927251Y6547000D02*
G37*
G36*
X2526000Y8152147D02*
X2518673Y8150690D01*
X2512461Y8146539D01*
X2508310Y8140327D01*
X2506853Y8133000D01*
X2508310Y8125673D01*
X2512461Y8119461D01*
X2518673Y8115310D01*
X2518804Y8115284D01*
X2518804Y6436084D01*
X2513804Y6434295D01*
X2508468Y6440798D01*
X2497953Y6449427D01*
X2485956Y6455839D01*
X2472939Y6459788D01*
X2459402Y6461121D01*
X2445865Y6459788D01*
X2432848Y6455839D01*
X2420851Y6449427D01*
X2410336Y6440798D01*
X2401707Y6430283D01*
X2395295Y6418286D01*
X2391346Y6405269D01*
X2390013Y6391732D01*
X2391346Y6378195D01*
X2395295Y6365178D01*
X2401707Y6353181D01*
X2410336Y6342666D01*
X2420851Y6334037D01*
X2432848Y6327625D01*
X2445865Y6323676D01*
X2459402Y6322343D01*
X2472939Y6323676D01*
X2485956Y6327625D01*
X2497953Y6334037D01*
X2508468Y6342666D01*
X2513804Y6349169D01*
X2518804Y6347380D01*
X2518804Y6136084D01*
X2513804Y6134295D01*
X2508468Y6140798D01*
X2497953Y6149427D01*
X2485956Y6155839D01*
X2472939Y6159788D01*
X2459402Y6161121D01*
X2445865Y6159788D01*
X2432848Y6155839D01*
X2420851Y6149427D01*
X2410336Y6140798D01*
X2401707Y6130283D01*
X2395295Y6118286D01*
X2391346Y6105269D01*
X2390013Y6091732D01*
X2391346Y6078195D01*
X2395295Y6065178D01*
X2401707Y6053181D01*
X2410336Y6042666D01*
X2420851Y6034037D01*
X2432848Y6027625D01*
X2445865Y6023676D01*
X2459402Y6022343D01*
X2472939Y6023676D01*
X2485956Y6027625D01*
X2497953Y6034037D01*
X2508468Y6042666D01*
X2513804Y6049169D01*
X2518804Y6047380D01*
X2518804Y5836084D01*
X2513804Y5834295D01*
X2508468Y5840798D01*
X2497953Y5849427D01*
X2485956Y5855839D01*
X2472939Y5859788D01*
X2459402Y5861121D01*
X2445865Y5859788D01*
X2432848Y5855839D01*
X2420851Y5849427D01*
X2410336Y5840798D01*
X2401707Y5830283D01*
X2395295Y5818286D01*
X2391346Y5805269D01*
X2390013Y5791732D01*
X2391346Y5778195D01*
X2395295Y5765178D01*
X2401707Y5753181D01*
X2410336Y5742666D01*
X2420851Y5734037D01*
X2432848Y5727625D01*
X2445865Y5723676D01*
X2449206Y5723347D01*
X2449206Y5667773D01*
X2445863Y5665539D01*
X2441712Y5659327D01*
X2440255Y5652000D01*
X2441712Y5644673D01*
X2445863Y5638461D01*
X2452075Y5634310D01*
X2459402Y5632853D01*
X2466729Y5634310D01*
X2472941Y5638461D01*
X2477092Y5644673D01*
X2478549Y5652000D01*
X2477092Y5659327D01*
X2472941Y5665539D01*
X2469598Y5667773D01*
X2469598Y5723347D01*
X2472939Y5723676D01*
X2485956Y5727625D01*
X2497953Y5734037D01*
X2508468Y5742666D01*
X2513804Y5749169D01*
X2518804Y5747380D01*
X2518804Y5719985D01*
X2515461Y5717751D01*
X2511310Y5711539D01*
X2509853Y5704212D01*
X2511310Y5696885D01*
X2515461Y5690673D01*
X2521673Y5686522D01*
X2529000Y5685065D01*
X2536327Y5686522D01*
X2542539Y5690673D01*
X2546690Y5696885D01*
X2548147Y5704212D01*
X2546690Y5711539D01*
X2542539Y5717751D01*
X2539196Y5719985D01*
X2539196Y8119231D01*
X2539539Y8119461D01*
X2543690Y8125673D01*
X2545147Y8133000D01*
X2543690Y8140327D01*
X2539539Y8146539D01*
X2533327Y8150690D01*
X2526000Y8152147D01*
X2526000Y8152147D02*
G37*
G36*
X2695622Y6043377D02*
X2685180Y6042002D01*
X2675449Y6037972D01*
X2667094Y6031560D01*
X2660682Y6023205D01*
X2656651Y6013474D01*
X2655277Y6003032D01*
X2656651Y5992590D01*
X2660682Y5982859D01*
X2667094Y5974504D01*
X2675449Y5968092D01*
X2685180Y5964061D01*
X2695622Y5962687D01*
X2706064Y5964061D01*
X2715795Y5968092D01*
X2724150Y5974504D01*
X2730562Y5982859D01*
X2734593Y5992590D01*
X2735967Y6003032D01*
X2734593Y6013474D01*
X2730562Y6023205D01*
X2724150Y6031560D01*
X2715795Y6037972D01*
X2706064Y6042002D01*
X2695622Y6043377D01*
X2695622Y6043377D02*
G37*
G36*
X2695622Y6476447D02*
X2685180Y6475073D01*
X2675449Y6471042D01*
X2667094Y6464630D01*
X2660682Y6456275D01*
X2656651Y6446544D01*
X2655277Y6436102D01*
X2656651Y6425660D01*
X2660682Y6415929D01*
X2667094Y6407574D01*
X2675449Y6401162D01*
X2685180Y6397132D01*
X2695622Y6395757D01*
X2706064Y6397132D01*
X2715795Y6401162D01*
X2724150Y6407574D01*
X2730562Y6415929D01*
X2734593Y6425660D01*
X2735967Y6436102D01*
X2734593Y6446544D01*
X2730562Y6456275D01*
X2724150Y6464630D01*
X2715795Y6471042D01*
X2706064Y6475073D01*
X2695622Y6476447D01*
X2695622Y6476447D02*
G37*
G36*
X3049952Y6476447D02*
X3039510Y6475073D01*
X3029779Y6471042D01*
X3021424Y6464630D01*
X3015012Y6456275D01*
X3010981Y6446544D01*
X3009607Y6436102D01*
X3010981Y6425660D01*
X3015012Y6415929D01*
X3021424Y6407574D01*
X3029779Y6401162D01*
X3039510Y6397132D01*
X3049952Y6395757D01*
X3060394Y6397132D01*
X3070125Y6401162D01*
X3078480Y6407574D01*
X3084892Y6415929D01*
X3088923Y6425660D01*
X3090297Y6436102D01*
X3088923Y6446544D01*
X3084892Y6456275D01*
X3078480Y6464630D01*
X3070125Y6471042D01*
X3060394Y6475073D01*
X3049952Y6476447D01*
X3049952Y6476447D02*
G37*
G36*
X2482370Y6916147D02*
X2475043Y6914690D01*
X2468831Y6910539D01*
X2464680Y6904327D01*
X2463223Y6897000D01*
X2464680Y6889673D01*
X2468831Y6883461D01*
X2475043Y6879310D01*
X2482370Y6877853D01*
X2489697Y6879310D01*
X2495909Y6883461D01*
X2500060Y6889673D01*
X2501517Y6897000D01*
X2500060Y6904327D01*
X2495909Y6910539D01*
X2489697Y6914690D01*
X2482370Y6916147D01*
X2482370Y6916147D02*
G37*
G36*
X3074700Y8406669D02*
X3066868Y8405638D01*
X3059571Y8402615D01*
X3053304Y8397806D01*
X3048495Y8391539D01*
X3045472Y8384242D01*
X3044441Y8376410D01*
X3045472Y8368578D01*
X3048495Y8361281D01*
X3053304Y8355014D01*
X3059571Y8350205D01*
X3066868Y8347182D01*
X3074700Y8346151D01*
X3082532Y8347182D01*
X3089829Y8350205D01*
X3096096Y8355014D01*
X3100905Y8361281D01*
X3103928Y8368578D01*
X3104959Y8376410D01*
X3103928Y8384242D01*
X3100905Y8391539D01*
X3096096Y8397806D01*
X3089829Y8402615D01*
X3082532Y8405638D01*
X3074700Y8406669D01*
X3074700Y8406669D02*
G37*
G36*
X2491882Y8469343D02*
X2484555Y8467886D01*
X2478343Y8463735D01*
X2474192Y8457523D01*
X2472735Y8450196D01*
X2474192Y8442869D01*
X2478343Y8436657D01*
X2484555Y8432506D01*
X2491882Y8431049D01*
X2499209Y8432506D01*
X2505421Y8436657D01*
X2509572Y8442869D01*
X2511029Y8450196D01*
X2509572Y8457523D01*
X2505421Y8463735D01*
X2499209Y8467886D01*
X2491882Y8469343D01*
X2491882Y8469343D02*
G37*
G36*
X2638370Y6750147D02*
X2631043Y6748690D01*
X2624831Y6744539D01*
X2620680Y6738327D01*
X2619223Y6731000D01*
X2620680Y6723673D01*
X2624831Y6717461D01*
X2631043Y6713310D01*
X2638370Y6711853D01*
X2645697Y6713310D01*
X2651909Y6717461D01*
X2656060Y6723673D01*
X2657517Y6731000D01*
X2656060Y6738327D01*
X2651909Y6744539D01*
X2645697Y6748690D01*
X2638370Y6750147D01*
X2638370Y6750147D02*
G37*
G36*
X2899000Y6575251D02*
X2894722Y6574400D01*
X2886856Y6569144D01*
X2881600Y6561278D01*
X2880749Y6557000D01*
X2899000Y6557000D01*
X2899000Y6575251D01*
X2899000Y6575251D02*
G37*
G36*
X2909000Y6575251D02*
X2909000Y6557000D01*
X2927251Y6557000D01*
X2926400Y6561278D01*
X2921144Y6569144D01*
X2913278Y6574400D01*
X2909000Y6575251D01*
X2909000Y6575251D02*
G37*
G36*
X2821606Y7306549D02*
X2814279Y7305092D01*
X2808067Y7300941D01*
X2803916Y7294729D01*
X2802459Y7287402D01*
X2803916Y7280075D01*
X2808067Y7273863D01*
X2814279Y7269712D01*
X2821606Y7268255D01*
X2825550Y7269039D01*
X2897174Y7197415D01*
X2897174Y6619773D01*
X2893831Y6617539D01*
X2889680Y6611327D01*
X2888223Y6604000D01*
X2889680Y6596673D01*
X2893831Y6590461D01*
X2900043Y6586310D01*
X2907370Y6584853D01*
X2914697Y6586310D01*
X2920909Y6590461D01*
X2925060Y6596673D01*
X2926517Y6604000D01*
X2925060Y6611327D01*
X2920909Y6617539D01*
X2917566Y6619773D01*
X2917566Y7201638D01*
X2916790Y7205540D01*
X2914580Y7208848D01*
X2839969Y7283458D01*
X2840753Y7287402D01*
X2839296Y7294729D01*
X2835145Y7300941D01*
X2828933Y7305092D01*
X2821606Y7306549D01*
X2821606Y7306549D02*
G37*
G36*
X2463182Y5205630D02*
X2428182Y5205630D01*
X2428182Y5170630D01*
X2463182Y5170630D01*
X2463182Y5205630D01*
X2463182Y5205630D02*
G37*
G36*
X2418182Y5250630D02*
X2383182Y5250630D01*
X2383182Y5215630D01*
X2418182Y5215630D01*
X2418182Y5250630D01*
X2418182Y5250630D02*
G37*
G36*
X2463182Y5250630D02*
X2428182Y5250630D01*
X2428182Y5215630D01*
X2463182Y5215630D01*
X2463182Y5250630D01*
X2463182Y5250630D02*
G37*
G36*
X2418182Y5205630D02*
X2383182Y5205630D01*
X2383182Y5170630D01*
X2418182Y5170630D01*
X2418182Y5205630D01*
X2418182Y5205630D02*
G37*
G36*
X1950370Y5176147D02*
X1943043Y5174690D01*
X1936831Y5170539D01*
X1932680Y5164327D01*
X1931223Y5157000D01*
X1932680Y5149673D01*
X1936831Y5143461D01*
X1943043Y5139310D01*
X1950370Y5137853D01*
X1957697Y5139310D01*
X1963909Y5143461D01*
X1968060Y5149673D01*
X1969517Y5157000D01*
X1968060Y5164327D01*
X1963909Y5170539D01*
X1957697Y5174690D01*
X1950370Y5176147D01*
X1950370Y5176147D02*
G37*
G36*
X2263182Y5250630D02*
X2183182Y5250630D01*
X2183182Y5170630D01*
X2263182Y5170630D01*
X2263182Y5250630D01*
X2263182Y5250630D02*
G37*
G36*
X2363182Y5250630D02*
X2283182Y5250630D01*
X2283182Y5170630D01*
X2363182Y5170630D01*
X2363182Y5250630D01*
X2363182Y5250630D02*
G37*
G36*
X3254402Y5660629D02*
X3245865Y5659788D01*
X3232848Y5655839D01*
X3220851Y5649427D01*
X3210336Y5640798D01*
X3201707Y5630283D01*
X3195295Y5618286D01*
X3191346Y5605269D01*
X3190505Y5596732D01*
X3254402Y5596732D01*
X3254402Y5660629D01*
X3254402Y5660629D02*
G37*
G36*
X2695622Y5762787D02*
X2685180Y5761413D01*
X2675449Y5757382D01*
X2667094Y5750970D01*
X2660682Y5742615D01*
X2656651Y5732884D01*
X2655277Y5722442D01*
X2656651Y5712000D01*
X2660682Y5702269D01*
X2667094Y5693914D01*
X2675449Y5687502D01*
X2685180Y5683471D01*
X2695622Y5682097D01*
X2706064Y5683471D01*
X2715795Y5687502D01*
X2724150Y5693914D01*
X2730562Y5702269D01*
X2734593Y5712000D01*
X2735967Y5722442D01*
X2734593Y5732884D01*
X2730562Y5742615D01*
X2724150Y5750970D01*
X2715795Y5757382D01*
X2706064Y5761413D01*
X2695622Y5762787D01*
X2695622Y5762787D02*
G37*
G36*
X3168064Y5802157D02*
X3157622Y5800783D01*
X3147891Y5796752D01*
X3139536Y5790340D01*
X3133124Y5781985D01*
X3129093Y5772254D01*
X3127719Y5761812D01*
X3129093Y5751370D01*
X3133124Y5741639D01*
X3139536Y5733284D01*
X3147891Y5726872D01*
X3157622Y5722842D01*
X3168064Y5721467D01*
X3178506Y5722842D01*
X3188237Y5726872D01*
X3196592Y5733284D01*
X3203004Y5741639D01*
X3207035Y5751370D01*
X3208409Y5761812D01*
X3207035Y5772254D01*
X3203004Y5781985D01*
X3196592Y5790340D01*
X3188237Y5796752D01*
X3178506Y5800783D01*
X3168064Y5802157D01*
X3168064Y5802157D02*
G37*
G36*
X3254402Y5586732D02*
X3190505Y5586732D01*
X3191346Y5578195D01*
X3195295Y5565178D01*
X3201707Y5553181D01*
X3210336Y5542666D01*
X3220851Y5534037D01*
X3232848Y5527625D01*
X3245865Y5523676D01*
X3254402Y5522835D01*
X3254402Y5586732D01*
X3254402Y5586732D02*
G37*
G36*
X2263182Y5350630D02*
X2183182Y5350630D01*
X2183182Y5270630D01*
X2263182Y5270630D01*
X2263182Y5350630D01*
X2263182Y5350630D02*
G37*
G36*
X2363182Y5350630D02*
X2283182Y5350630D01*
X2283182Y5270630D01*
X2363182Y5270630D01*
X2363182Y5350630D01*
X2363182Y5350630D02*
G37*
G36*
X2463182Y5350630D02*
X2383182Y5350630D01*
X2383182Y5270630D01*
X2463182Y5270630D01*
X2463182Y5350630D01*
X2463182Y5350630D02*
G37*
%LPD*%
D27*
X2945958Y2180958D02*
X2987000Y2222000D01*
X2945958Y2100528D02*
X2945958Y2180958D01*
X2526000Y8133000D02*
X2529000Y8136000D01*
X3074700Y8374000D02*
X3074700Y8376410D01*
X954700Y8090700D02*
X2331670Y8090700D01*
X2336370Y8086000D01*
X834700Y8040700D02*
X2249978Y8040700D01*
X2254678Y8036000D01*
X710000Y8186000D02*
X2769000Y8186000D01*
X710000Y8186000D02*
X710000Y8411000D01*
X818094Y7534094D02*
X832000Y7548000D01*
X758094Y7534094D02*
X818094Y7534094D01*
X734000Y7510000D02*
X758094Y7534094D01*
X608614Y7644094D02*
X609008Y7643700D01*
X356700Y7521402D02*
X356700Y7544094D01*
X774700Y529080D02*
X774700Y4976410D01*
X574360Y328740D02*
X774700Y529080D01*
X474700Y5440860D02*
X548280Y5514440D01*
X474700Y5276410D02*
X474700Y5440860D01*
X474700Y5276410D02*
X774700Y4976410D01*
X614700Y3779700D02*
X716000Y3881000D01*
X614700Y1341410D02*
X614700Y3779700D01*
X614700Y1341410D02*
X649700Y1306410D01*
X514000Y5321008D02*
X789700Y5045308D01*
X789700Y444080D02*
X789700Y5045308D01*
X674360Y328740D02*
X789700Y444080D01*
X2432590Y3126410D02*
X2731000Y2828000D01*
X2409700Y3126410D02*
X2432590Y3126410D01*
X2399700Y3116410D02*
X2399700Y3126410D01*
X2731000Y1635000D02*
X2894346Y1471654D01*
X2731000Y1635000D02*
X2731000Y2828000D01*
X671000Y3926000D02*
X716000Y3881000D01*
X280622Y5805568D02*
X610000Y6134944D01*
X278622Y5803568D02*
X280622Y5805568D01*
X94622Y5544622D02*
X345370Y5293874D01*
X280622Y4468622D02*
X280622Y4691122D01*
X345370Y4755870D01*
X2826370Y3711000D02*
X2883686Y3653686D01*
X2915370Y3442000D02*
X2915370Y3622000D01*
X2883686Y3653686D02*
X2915370Y3622000D01*
X2901000Y2075726D02*
X2901000Y2616370D01*
X2855370Y2662000D02*
X2901000Y2616370D01*
X2855370Y2662000D02*
X2855370Y3382000D01*
X2915370Y3442000D01*
X2795370Y3399370D02*
X2875000Y3479000D01*
X2795370Y1963356D02*
X2795370Y3399370D01*
X2795370Y1963356D02*
X2928000Y1830726D01*
X452048Y5717322D02*
X1152000Y5017370D01*
X1017634Y7117634D02*
X1042930Y7142930D01*
X1017634Y6735366D02*
X1017634Y7117634D01*
X1017634Y6735366D02*
X1112842Y6640158D01*
X1408930Y7142930D02*
X1906000Y7640000D01*
X1042930Y7142930D02*
X1408930Y7142930D01*
X1482064Y2288772D02*
X1726000Y2288772D01*
X1402220Y2368614D02*
X1482064Y2288772D01*
X1402220Y2368614D02*
X1402220Y3932780D01*
X1726000Y2288772D02*
X1726000Y2322000D01*
X1380370Y1945174D02*
X1679874Y1645670D01*
X1152000Y4183000D02*
X1402220Y3932780D01*
X2504582Y3598772D02*
X2504582Y4380582D01*
X2664000Y4540000D01*
X1314000Y4763370D02*
X1455370Y4622000D01*
X1314000Y4763370D02*
X1314000Y5014000D01*
X1330370Y1778630D02*
X1488000Y1621000D01*
X1305000Y3337000D02*
X1330370Y3311630D01*
X1330370Y1778630D02*
X1330370Y3311630D01*
X1305000Y3337000D02*
X1305000Y3848000D01*
X1330000Y3426886D02*
X1330000Y3904000D01*
X1330000Y3426886D02*
X1380370Y3376516D01*
X453000Y4378620D02*
X453000Y5621000D01*
X453000Y4378620D02*
X476620Y4355000D01*
X419370Y4806370D02*
X419370Y5126000D01*
X417000Y4804000D02*
X419370Y4806370D01*
X1219370Y3691630D02*
X1219370Y3830000D01*
X1219370Y3691630D02*
X1280000Y3631000D01*
X1112842Y6640158D02*
X1199362Y6640158D01*
X179000Y3148000D02*
X179000Y3252418D01*
X132418Y3299000D02*
X179000Y3252418D01*
X1380370Y1945174D02*
X1380370Y3376516D01*
X1154000Y4080000D02*
X1330000Y3904000D01*
X1018370Y4080000D02*
X1154000Y4080000D01*
X1044000Y3800000D02*
X1109000Y3865000D01*
X1288000Y3865000D01*
X1305000Y3848000D01*
X1488000Y1621000D02*
X1722000Y1621000D01*
X2010000Y1909000D01*
X2010000Y2079000D01*
X530000Y5570000D02*
X965000Y5135000D01*
X965000Y3961000D02*
X965000Y5135000D01*
X934000Y3930000D02*
X965000Y3961000D01*
X934000Y2365654D02*
X934000Y3930000D01*
X934000Y2365654D02*
X983000Y2316654D01*
X114000Y4816930D02*
X177000Y4753930D01*
X177000Y4683000D02*
X177000Y4753930D01*
X438370Y3926000D02*
X671000Y3926000D01*
X2907370Y6604000D02*
X2907370Y7201638D01*
X2821606Y7287402D02*
X2907370Y7201638D01*
X3005072Y2671654D02*
X3046000Y2630726D01*
X3046000Y2244000D02*
X3046000Y2630726D01*
X3024000Y2222000D02*
X3046000Y2244000D01*
X2987000Y2222000D02*
X3024000Y2222000D01*
X2202000Y1651322D02*
X2202000Y1963070D01*
X2301922Y2062992D01*
X2574370Y4866630D02*
X2617000Y4824000D01*
X2574370Y4866630D02*
X2574370Y5433000D01*
X2459402Y5652000D02*
X2459402Y5791732D01*
X86370Y3259630D02*
X104000Y3242000D01*
X702000Y6473000D02*
X702000Y7035000D01*
X734000Y7067000D02*
X734000Y7510000D01*
X791686Y7787796D02*
X832000Y7747482D01*
X366370Y3400000D02*
X437370Y3400000D01*
X186370Y4271000D02*
X289370Y4168000D01*
X2798000Y4641000D02*
X2818000Y4621000D01*
X2798000Y4641000D02*
X2798000Y4985000D01*
X1071000Y3903000D02*
X1071000Y3967000D01*
X1152000Y4183000D02*
X1152000Y5017370D01*
X915000Y1961726D02*
X915000Y5018000D01*
X86370Y3259630D02*
X86370Y4274370D01*
X610000Y6381000D02*
X702000Y6473000D01*
X702000Y7035000D02*
X734000Y7067000D01*
X832000Y7548000D02*
X832000Y7747482D01*
X2894346Y1471654D02*
X3005072Y1471654D01*
X2928000Y1830726D02*
X3046000Y1830726D01*
X289370Y3477000D02*
X366370Y3400000D01*
X289370Y3477000D02*
X289370Y4168000D01*
X998000Y2678726D02*
X998000Y3349000D01*
X1280000Y3631000D01*
X2664000Y4540000D02*
X2818000Y4540000D01*
X2818000Y4621000D01*
X973000Y3875000D02*
X1001000Y3903000D01*
X1071000Y3903000D01*
X554500Y5378500D02*
X915000Y5018000D01*
X938562Y5845000D02*
X1139000Y5845000D01*
X800634Y5982930D02*
X938562Y5845000D01*
X800634Y5982930D02*
X800634Y6412930D01*
X445622Y5717322D02*
X452048Y5717322D01*
X240118Y6160044D02*
X404680Y6324606D01*
X240118Y6002062D02*
X240118Y6160044D01*
X62622Y4868308D02*
X114000Y4816930D01*
X62622Y4868308D02*
X62622Y5824568D01*
X86370Y4274370D02*
X280622Y4468622D01*
X345370Y4755870D02*
X345370Y5293874D01*
X62622Y5824568D02*
X240118Y6002062D01*
X94622Y5544622D02*
X94622Y5805568D01*
X280622Y5714568D02*
X280622Y5805568D01*
X94622Y5805568D02*
X280622Y5805568D01*
X610000Y6134944D02*
X610000Y6381000D01*
X2399700Y3116410D02*
X2409700Y3126410D01*
X3046000Y1830726D02*
X3105072Y1771654D01*
X998000Y2678726D02*
X1105072Y2571654D01*
X2529000Y5704212D02*
X2529000Y8136000D01*
X2901000Y2075726D02*
X3005072Y1971654D01*
X915000Y1961726D02*
X1105072Y1771654D01*
D28*
X2926000Y4221432D02*
X3044115Y4103317D01*
X3044115Y3690771D02*
X3044115Y4103317D01*
X3075370Y3522000D02*
X3075370Y3659515D01*
X3044115Y3690771D02*
X3075370Y3659515D01*
X2254678Y5580692D02*
X2254678Y8036000D01*
X2336370Y5573000D02*
X2336370Y8086000D01*
X882000Y7517086D02*
X882000Y7884000D01*
X852710Y7487796D02*
X882000Y7517086D01*
X791686Y7487796D02*
X852710Y7487796D01*
X772984Y7569094D02*
X791686Y7587796D01*
X684008Y7569094D02*
X772984Y7569094D01*
X609008Y7494094D02*
X684008Y7569094D01*
X1200000Y8236000D02*
X3325000Y8236000D01*
X1729700Y5043700D02*
X1949000Y5263000D01*
X1729700Y2755178D02*
X1729700Y5043700D01*
X1814000Y1851836D02*
X1814000Y2670878D01*
X1729700Y2755178D02*
X1814000Y2670878D01*
X2885370Y3332000D02*
X3075370Y3522000D01*
X2885370Y2691356D02*
X2885370Y3332000D01*
X2926000Y4221432D02*
X2926000Y4745000D01*
X1814000Y1851836D02*
X1817064Y1848772D01*
X2098772Y1888772D02*
X2122064Y1888772D01*
X2067370Y1857370D02*
X2098772Y1888772D01*
X1169000Y3371000D02*
X1305370Y3234630D01*
X1305370Y1971952D02*
X1305370Y3234630D01*
X2515370Y1629000D02*
X2651000Y1629000D01*
X2654000Y1632000D01*
X1949000Y5433070D02*
X1949000Y6757000D01*
X3257000Y4358268D02*
X3331000Y4432268D01*
X2320370Y5515000D02*
X2915370Y5515000D01*
X2164126Y1305118D02*
X2782236Y1305118D01*
X2813732Y915354D02*
X2813732Y1273622D01*
X644370Y3899000D02*
X646370Y3901000D01*
X563126Y3899000D02*
X644370Y3899000D01*
X546016Y3374016D02*
X546016Y3881890D01*
X132418Y3299000D02*
X164126Y3330708D01*
X2285386Y4187008D02*
X2285386Y4826770D01*
X2067370Y1622000D02*
X2067370Y1857370D01*
X3092000Y4911000D02*
X3092000Y6318000D01*
X2926000Y4745000D02*
X3092000Y4911000D01*
X2769000Y5875000D02*
X2769000Y8186000D01*
X2769000Y5875000D02*
X2992184Y5651816D01*
X2965000Y1321000D02*
X3131000Y1321000D01*
X3148000Y1014582D02*
X3148000Y1304000D01*
X1949000Y5263000D02*
X1949000Y5433070D01*
X455464Y5803150D02*
X719244Y5539370D01*
X719244Y5475000D02*
X719244Y5539370D01*
X719244Y5475000D02*
X748184Y5475000D01*
X790110Y5433070D01*
X1949000Y5433070D01*
X3325000Y8236000D02*
X3331000Y4432268D01*
X2945370Y5434000D02*
X2945370Y5485000D01*
X2915370Y5515000D02*
X2945370Y5485000D01*
X2254678Y5580692D02*
X2320370Y5515000D01*
X2137000Y1305000D02*
X2571726Y1305000D01*
X2164126Y1305118D02*
X2571726Y1305000D01*
X2782236Y1305118D02*
X2813732Y1273622D01*
X2813732Y915354D02*
X2859400Y869686D01*
X546016Y3881890D02*
X563126Y3899000D01*
X502708Y3330708D02*
X546016Y3374016D01*
X164126Y3330708D02*
X502708Y3330708D01*
X2226330Y4885826D02*
X2285386Y4826770D01*
X2067370Y1622000D02*
X2070000Y1626000D01*
X2992184Y4897888D02*
X2992184Y5651816D01*
X2654000Y1632000D02*
X2965000Y1321000D01*
X3131000Y1321000D02*
X3148000Y1304000D01*
X380622Y5714566D02*
X380622Y5803150D01*
X455464Y5803150D01*
X1205072Y1871654D02*
X1305370Y1971952D01*
X2859400Y869686D02*
X3009008Y869686D01*
X3005172Y871604D02*
X3009008Y869686D01*
X3005072Y871654D02*
X3005172Y871604D01*
X2070000Y958662D02*
X2070000Y1626000D01*
X2885370Y2691356D02*
X3005072Y2571654D01*
X3105072Y971654D02*
X3148000Y1014582D01*
D29*
X356700Y7644094D02*
X608614Y7644094D01*
X559008Y7544094D02*
X609008Y7494094D01*
X379392Y7544094D02*
X559008Y7544094D01*
X356700Y7521402D02*
X379392Y7544094D01*
D30*
X619116Y6877000D02*
D03*
X1245000Y7641000D02*
D03*
X612000Y7837000D02*
D03*
X355000Y7836000D02*
D03*
D31*
X303300Y859252D02*
D03*
X403300Y859252D02*
D03*
X503300Y859252D02*
D03*
X603300Y859252D02*
D03*
X289702Y1336410D02*
D03*
X389702Y1336410D02*
D03*
X243064Y6665158D02*
D03*
X343064Y6665158D02*
D03*
X443064Y6665158D02*
D03*
X543064Y6665158D02*
D03*
X143064Y6665158D02*
D03*
X2877512Y3891732D02*
D03*
X2777512Y3891732D02*
D03*
X2677512Y3891732D02*
D03*
X2577512Y3891732D02*
D03*
X151528Y7041338D02*
D03*
X251528Y7041338D02*
D03*
X351528Y7041338D02*
D03*
X451528Y7041338D02*
D03*
X2877512Y4580708D02*
D03*
X2777512Y4580708D02*
D03*
X2677512Y4580708D02*
D03*
X2577512Y4580708D02*
D03*
X2326330Y4885826D02*
D03*
X2226330Y4885826D02*
D03*
X2126330Y4885826D02*
D03*
X2026330Y4885826D02*
D03*
X2385386Y4187008D02*
D03*
X2285386Y4187008D02*
D03*
X2185386Y4187008D02*
D03*
X2085386Y4187008D02*
D03*
X2223182Y5310630D02*
D03*
X2323182Y5310630D02*
D03*
X2423182Y5310630D02*
D03*
X2423182Y5210630D02*
D03*
X2323182Y5210630D02*
D03*
X2223182Y5210630D02*
D03*
D32*
X699700Y2626410D02*
D03*
X699700Y2526410D02*
D03*
X699700Y2426410D02*
D03*
X699700Y2026410D02*
D03*
X699700Y2126410D02*
D03*
X699700Y2226410D02*
D03*
X2173968Y5588190D02*
D03*
X2173968Y6388190D02*
D03*
X1373968Y5888190D02*
D03*
X1373968Y6088190D02*
D03*
X1373968Y6388190D02*
D03*
X356700Y7644094D02*
D03*
X356700Y7544094D02*
D03*
D33*
X1809700Y3546410D02*
D03*
X1909700Y3546410D02*
D03*
X2009700Y3546410D02*
D03*
X2109700Y3546410D02*
D03*
X2309700Y3546410D02*
D03*
X2209700Y3546410D02*
D03*
X1559700Y3246410D02*
D03*
X1559700Y3146410D02*
D03*
X2609700Y3246410D02*
D03*
X2609700Y3146410D02*
D03*
X374360Y328740D02*
D03*
X474360Y328740D02*
D03*
X574360Y328740D02*
D03*
X674360Y328740D02*
D03*
X774360Y328740D02*
D03*
X791686Y7687796D02*
D03*
X791686Y7587796D02*
D03*
X791686Y7487796D02*
D03*
X1091686Y7787796D02*
D03*
X1091686Y7687796D02*
D03*
X1091686Y7587796D02*
D03*
X1091686Y7487796D02*
D03*
X104680Y6224606D02*
D03*
X104680Y6124606D02*
D03*
X104680Y6024606D02*
D03*
X404680Y6324606D02*
D03*
X404680Y6224606D02*
D03*
X404680Y6124606D02*
D03*
X404680Y6024606D02*
D03*
D34*
X2409700Y3546410D02*
D03*
X274360Y328740D02*
D03*
X791686Y7787796D02*
D03*
X104680Y6324606D02*
D03*
D35*
X1559700Y3346410D02*
D03*
X2609700Y3346410D02*
D03*
D36*
X1559700Y3546410D02*
D03*
X2609700Y2496410D02*
D03*
X2609700Y3546410D02*
D03*
X1559700Y2496410D02*
D03*
D37*
X259700Y5196410D02*
D03*
X1559700Y5196410D02*
D03*
X259700Y2946410D02*
D03*
X1559700Y3956410D02*
D03*
D38*
X2902316Y348426D02*
D03*
X1308424Y348426D02*
D03*
X1155370Y2997000D02*
D03*
X3030268Y2986220D02*
D03*
D39*
X1397786Y6640158D02*
D03*
X1000936Y6640158D02*
D03*
X1199362Y6640158D02*
D03*
D40*
X1993062Y6640158D02*
D03*
D41*
X1844244Y6640158D02*
D03*
D42*
X1411094Y5559960D02*
D03*
X1411094Y5756812D02*
D03*
X1647314Y5756812D02*
D03*
X1593260Y6042402D02*
D03*
X1475150Y6042402D02*
D03*
X1849164Y6042402D02*
D03*
X2183810Y6121142D02*
D03*
X2695622Y6436102D02*
D03*
X3049952Y6436102D02*
D03*
X3286172Y6199882D02*
D03*
X3049952Y6199882D02*
D03*
X2813732Y6199882D02*
D03*
X2695622Y6003032D02*
D03*
X2459402Y5564960D02*
D03*
X2695622Y5722442D02*
D03*
X3049952Y5761812D02*
D03*
X3168064Y5761812D02*
D03*
D43*
X1099164Y7101180D02*
D03*
X1099164Y7001180D02*
D03*
D44*
X3259402Y6391732D02*
D03*
X3259402Y5991732D02*
D03*
X3259402Y5591732D02*
D03*
X2459402Y6391732D02*
D03*
X2459402Y5791732D02*
D03*
X2459402Y6091732D02*
D03*
D45*
X609008Y7494094D02*
D03*
X609008Y7643700D02*
D03*
X1105370Y2772000D02*
D03*
X3005370Y572000D02*
D03*
X3005370Y672000D02*
D03*
X3005370Y772000D02*
D03*
X3005370Y872000D02*
D03*
X3005370Y972000D02*
D03*
X3005370Y1072000D02*
D03*
X3005370Y1172000D02*
D03*
X3005370Y1272000D02*
D03*
X3005370Y1372000D02*
D03*
X3005370Y1472000D02*
D03*
X3005370Y1572000D02*
D03*
X3005370Y1672000D02*
D03*
X3005370Y1772000D02*
D03*
X3005370Y1872000D02*
D03*
X3005370Y1972000D02*
D03*
X3005370Y2072000D02*
D03*
X3005370Y2172000D02*
D03*
X3005370Y2272000D02*
D03*
X3005370Y2372000D02*
D03*
X3005370Y2472000D02*
D03*
X3005370Y2572000D02*
D03*
X3005370Y2672000D02*
D03*
X3105370Y572000D02*
D03*
X3105370Y672000D02*
D03*
X3105370Y772000D02*
D03*
X3105370Y872000D02*
D03*
X3105370Y972000D02*
D03*
X3105370Y1072000D02*
D03*
X3105370Y1172000D02*
D03*
X3105370Y1272000D02*
D03*
X3105370Y1372000D02*
D03*
X3105370Y1472000D02*
D03*
X3105370Y1572000D02*
D03*
X3105370Y1672000D02*
D03*
X3105370Y1772000D02*
D03*
X3105370Y1872000D02*
D03*
X3105370Y1972000D02*
D03*
X3105370Y2072000D02*
D03*
X3105370Y2172000D02*
D03*
X3105370Y2272000D02*
D03*
X3105370Y2372000D02*
D03*
X3105370Y2472000D02*
D03*
X3105370Y2572000D02*
D03*
X3105370Y2672000D02*
D03*
X3105370Y2772000D02*
D03*
X3005370Y2772000D02*
D03*
X1105370Y572000D02*
D03*
X1105370Y672000D02*
D03*
X1105370Y772000D02*
D03*
X1105370Y872000D02*
D03*
X1105370Y972000D02*
D03*
X1105370Y1072000D02*
D03*
X1105370Y1172000D02*
D03*
X1105370Y1272000D02*
D03*
X1105370Y1372000D02*
D03*
X1105370Y1472000D02*
D03*
X1105370Y1572000D02*
D03*
X1105370Y1672000D02*
D03*
X1105370Y1772000D02*
D03*
X1105370Y1872000D02*
D03*
X1105370Y1972000D02*
D03*
X1105370Y2072000D02*
D03*
X1105370Y2172000D02*
D03*
X1105370Y2272000D02*
D03*
X1105370Y2372000D02*
D03*
X1105370Y2472000D02*
D03*
X1105370Y2572000D02*
D03*
X1105370Y2672000D02*
D03*
X1205370Y572000D02*
D03*
X1205370Y672000D02*
D03*
X1205370Y772000D02*
D03*
X1205370Y872000D02*
D03*
X1205370Y972000D02*
D03*
X1205370Y1072000D02*
D03*
X1205370Y1172000D02*
D03*
X1205370Y1272000D02*
D03*
X1205370Y1372000D02*
D03*
X1205370Y1472000D02*
D03*
X1205370Y1572000D02*
D03*
X1205370Y1672000D02*
D03*
X1205370Y1772000D02*
D03*
X1205370Y1872000D02*
D03*
X1205370Y1972000D02*
D03*
X1205370Y2072000D02*
D03*
X1205370Y2172000D02*
D03*
X1205370Y2272000D02*
D03*
X1205370Y2372000D02*
D03*
X1205370Y2472000D02*
D03*
X1205370Y2572000D02*
D03*
X1205370Y2672000D02*
D03*
X1205370Y2772000D02*
D03*
D46*
X1606000Y7640000D02*
D03*
X1906000Y7640000D02*
D03*
D47*
X1756000Y7940000D02*
D03*
D48*
X2974700Y8276410D02*
D03*
X3174700Y8276410D02*
D03*
X3074700Y8376410D02*
D03*
D49*
X2173968Y5988190D02*
D03*
D50*
X922368Y5505622D02*
D03*
X923968Y6254222D02*
D03*
D51*
X923968Y6416122D02*
D03*
X923968Y5343722D02*
D03*
D52*
X380622Y5664568D02*
D03*
X230622Y5664568D02*
D03*
X280622Y5664568D02*
D03*
X330622Y5664568D02*
D03*
X430622Y5664568D02*
D03*
X180622Y5714568D02*
D03*
X230622Y5714568D02*
D03*
X280622Y5714568D02*
D03*
X330622Y5714568D02*
D03*
X380622Y5714568D02*
D03*
X430622Y5714568D02*
D03*
D53*
X180622Y5664568D02*
D03*
D54*
X2909116Y1024236D02*
D03*
X2859116Y1137000D02*
D03*
X2659116Y1067000D02*
D03*
X2399700Y3126410D02*
D03*
X2119700Y4376410D02*
D03*
X2439700Y4401700D02*
D03*
X862370Y6739000D02*
D03*
X2130370Y5761000D02*
D03*
X2027370Y5585000D02*
D03*
X1661370Y4845000D02*
D03*
X1949370Y5011000D02*
D03*
X613370Y4620000D02*
D03*
D55*
X2742000Y3845000D02*
D03*
X3212000Y1032000D02*
D03*
X3059116Y2022000D02*
D03*
X2945958Y2100528D02*
D03*
X1275148Y2388000D02*
D03*
X1174116Y2722000D02*
D03*
X2526000Y8133000D02*
D03*
X954700Y8090700D02*
D03*
X834700Y8040700D02*
D03*
X710000Y8411000D02*
D03*
X1200000Y8236000D02*
D03*
X1082028Y8408720D02*
D03*
X1283694Y7793306D02*
D03*
X834700Y8406410D02*
D03*
X954700Y8416410D02*
D03*
X709000Y3074000D02*
D03*
X980000Y2532000D02*
D03*
X2326000Y1985000D02*
D03*
X1981000Y1751000D02*
D03*
X649700Y1306410D02*
D03*
X2005370Y2442000D02*
D03*
X1125000Y5626000D02*
D03*
X2122064Y1888772D02*
D03*
X1817064Y1848772D02*
D03*
X2504582Y3598772D02*
D03*
X1455370Y4622000D02*
D03*
X428602Y4263000D02*
D03*
X623370Y4114000D02*
D03*
X626370Y3956000D02*
D03*
X2389370Y1628000D02*
D03*
X2515370Y1629000D02*
D03*
X476620Y4355000D02*
D03*
X2638370Y6731000D02*
D03*
X2482370Y6897000D02*
D03*
X1207370Y4936000D02*
D03*
X392370Y5058000D02*
D03*
X419370Y5126000D02*
D03*
X1656000Y7168000D02*
D03*
X1096370Y4957000D02*
D03*
X1084370Y4790000D02*
D03*
X1219370Y3830000D02*
D03*
X1649370Y4747000D02*
D03*
X656370Y4847000D02*
D03*
X1950370Y5157000D02*
D03*
X2367370Y1553000D02*
D03*
X1220370Y4731000D02*
D03*
X477370Y4851000D02*
D03*
X112944Y3352362D02*
D03*
X94370Y4742000D02*
D03*
X129370Y3970000D02*
D03*
X2232370Y1769000D02*
D03*
X179000Y3148000D02*
D03*
X1044000Y3800000D02*
D03*
X2010000Y2079000D02*
D03*
X2663158Y2021158D02*
D03*
X2293000Y2312000D02*
D03*
X514000Y5321008D02*
D03*
X996804Y6253000D02*
D03*
X1139000Y5574000D02*
D03*
X2874000Y4706000D02*
D03*
X530000Y5570000D02*
D03*
X983000Y2316654D02*
D03*
X548280Y5514440D02*
D03*
X114000Y4816930D02*
D03*
X177000Y4683000D02*
D03*
X3010000Y4313000D02*
D03*
X2067000Y2043000D02*
D03*
X2202000Y1651322D02*
D03*
X2904000Y6552000D02*
D03*
X453000Y5621000D02*
D03*
X219000Y3941748D02*
D03*
X968000Y7942914D02*
D03*
X2617000Y4824000D02*
D03*
X2459402Y5652000D02*
D03*
X417000Y4804000D02*
D03*
X972000Y6292000D02*
D03*
X1169000Y3371000D02*
D03*
X1109370Y5003000D02*
D03*
X104000Y3242000D02*
D03*
X1949000Y6757000D02*
D03*
X2896000Y1347000D02*
D03*
X2894346Y1471654D02*
D03*
X1063456Y3627000D02*
D03*
X2875000Y3479000D02*
D03*
X517000Y3168000D02*
D03*
X1404000Y7039598D02*
D03*
X3325000Y8236000D02*
D03*
X3257000Y4358268D02*
D03*
X2574370Y5433000D02*
D03*
X2336370Y5573000D02*
D03*
X2945370Y5434000D02*
D03*
X2315702Y1421258D02*
D03*
X2137000Y1305000D02*
D03*
X646370Y3901000D02*
D03*
X164126Y3612204D02*
D03*
X1756644Y2181000D02*
D03*
X1160000Y2307000D02*
D03*
X882000Y7884000D02*
D03*
X940370Y4026000D02*
D03*
X1018370Y4080000D02*
D03*
X1474000Y4126000D02*
D03*
X569048Y4182404D02*
D03*
X1679874Y1645670D02*
D03*
X1866370Y1627000D02*
D03*
X2333418Y1862204D02*
D03*
X437370Y3400000D02*
D03*
X186370Y4271000D02*
D03*
X958418Y3798228D02*
D03*
X2301922Y2062992D02*
D03*
X2067370Y1622000D02*
D03*
X2070000Y958662D02*
D03*
X3092000Y6318000D02*
D03*
X2821606Y7287402D02*
D03*
X2907370Y6604000D02*
D03*
X2443654Y4799212D02*
D03*
X1764000Y5319000D02*
D03*
X2491882Y8450196D02*
D03*
X313370Y5589000D02*
D03*
X125370Y3402000D02*
D03*
X275370Y3367000D02*
D03*
X491370Y4465000D02*
D03*
X438370Y3926000D02*
D03*
X1131370Y3896000D02*
D03*
X742370Y4053000D02*
D03*
X1687748Y1712598D02*
D03*
X1932370Y2607000D02*
D03*
X1061764Y3744094D02*
D03*
X2185418Y1052000D02*
D03*
X2508024Y1156024D02*
D03*
X1140504Y6096456D02*
D03*
X715308Y6253938D02*
D03*
X2992184Y4897888D02*
D03*
X660190Y5001968D02*
D03*
X2269000Y2852000D02*
D03*
X1455464Y4899606D02*
D03*
X2529000Y5704212D02*
D03*
X1651000Y4655000D02*
D03*
X1431842Y4730316D02*
D03*
X1045000Y5231000D02*
D03*
X128692Y4389764D02*
D03*
X2798000Y4985000D02*
D03*
X2245000Y2706000D02*
D03*
X3254000Y2712000D02*
D03*
X1314000Y5014000D02*
D03*
X692000Y3641000D02*
D03*
X2826370Y3711000D02*
D03*
X2226000Y1922000D02*
D03*
X128692Y4440944D02*
D03*
X973000Y3875000D02*
D03*
X1071000Y3967000D02*
D03*
X1030268Y3862204D02*
D03*
X49000Y4138000D02*
D03*
X1726000Y2322000D02*
D03*
X49000Y4844000D02*
D03*
X446000Y3885000D02*
D03*
X460000Y3450788D02*
D03*
X554500Y5378500D02*
D03*
X2483000Y6531000D02*
D03*
X2195370Y6562000D02*
D03*
X978634Y5693930D02*
D03*
X1418634Y4818930D02*
D03*
X553634Y4308930D02*
D03*
X1135700Y8411410D02*
D03*
X1139000Y5845000D02*
D03*
X800634Y6412930D02*
D03*
X731634Y6407930D02*
D03*
X225622Y5530568D02*
D03*
%TF.MD5,dde83dc75d5316d9c5e494200b99330b*%
M02*
