G04 Layer_Color=16711935*
%FSLAX26Y26*%
%MOIN*%
%TF.FileFunction,Other,Mechanical_13*%
%TF.Part,Single*%
G01*
G75*
%TA.AperFunction,NonConductor*%
%ADD76C,0.003937*%
D76*
X-841713Y4839000D02*
G03*
X-841713Y4839000I-62402J0D01*
G01*
X-584713Y4840000D02*
G03*
X-584713Y4840000I-62402J0D01*
G01*
X48287Y4644000D02*
G03*
X48287Y4644000I-62402J0D01*
G01*
X1717263Y4865992D02*
G03*
X1717263Y4865992I-19685J0D01*
G01*
X-498532Y959693D02*
G03*
X-498532Y959693I-19685J0D01*
G01*
X-38887Y1913630D02*
G03*
X-38887Y1913630I-19685J0D01*
G01*
X-1089083Y3341976D02*
G03*
X-1089083Y3341976I-19685J0D01*
G01*
X-1008375Y541583D02*
G03*
X-1008375Y541583I-19685J0D01*
G01*
X-933572Y1827803D02*
G03*
X-933572Y1827803I-19685J0D01*
G01*
X-402076Y4805165D02*
G03*
X-402076Y4805165I-19685J0D01*
G01*
X-913690Y780953D02*
G03*
X-913690Y780953I-19685J0D01*
G01*
X-989674Y1481150D02*
G03*
X-989674Y1481150I-19685J0D01*
G01*
X582176Y4103394D02*
G03*
X582176Y4103394I-19685J0D01*
G01*
X830208Y-892669D02*
G03*
X830208Y-892669I-19685J0D01*
G01*
X899106Y-352315D02*
G03*
X899106Y-352315I-19685J0D01*
G01*
X830208Y-1231252D02*
G03*
X830208Y-1231252I-19685J0D01*
G01*
X1306586Y-2081646D02*
G03*
X1306586Y-2081646I-19685J0D01*
G01*
X1662145Y4704574D02*
X1819625Y4704574D01*
X1662145Y4901426D02*
X1819625Y4901426D01*
X1819625Y4704574D02*
X1819625Y4901426D01*
X1662145Y4704574D02*
X1662145Y4901426D01*
X-553651Y684102D02*
X-553651Y995126D01*
X-376485Y684102D02*
X-376485Y995126D01*
X-553651Y995126D02*
X-376485Y995126D01*
X-553651Y684102D02*
X-376485Y684102D01*
X-94005Y1689220D02*
X-94005Y1949064D01*
X83161Y1689220D02*
X83161Y1949064D01*
X-94005Y1949064D02*
X83161Y1949064D01*
X-94005Y1689220D02*
X83161Y1689220D01*
X-381407Y3909890D02*
X-381407Y4229968D01*
X-253453Y3909890D02*
X-253453Y4229968D01*
X-381407Y3909890D02*
X-253453Y3909890D01*
X-381407Y4229968D02*
X-253453Y4229968D01*
X-543805Y3771700D02*
X-457191Y3771700D01*
X-543805Y3718550D02*
X-457191Y3718550D01*
X-457191Y3771700D01*
X-543805Y3718550D02*
X-543805Y3771700D01*
X-719987Y3134890D02*
X-719987Y3221504D01*
X-777073Y3134890D02*
X-777073Y3221504D01*
X-777073Y3134890D02*
X-719987Y3134890D01*
X-777073Y3221504D02*
X-719987Y3221504D01*
X-777075Y3323864D02*
X-719989Y3323864D01*
X-777075Y3410478D02*
X-719989Y3410478D01*
X-719989Y3323864D02*
X-719989Y3410478D01*
X-777075Y3323864D02*
X-777075Y3410478D01*
X-1144199Y2977802D02*
X-864673Y2977802D01*
X-1144199Y3377410D02*
X-864673Y3377410D01*
X-864673Y2977802D02*
X-864673Y3377410D01*
X-1144199Y2977802D02*
X-1144199Y3377410D01*
X-1017233Y1808120D02*
X-1017233Y1894734D01*
X-960145Y1808120D02*
X-960145Y1894734D01*
X-1017233Y1894734D02*
X-960145Y1894734D01*
X-1017233Y1808120D02*
X-960145Y1808120D01*
X-1063493Y231544D02*
X-1063493Y576032D01*
X-906013Y231544D02*
X-906013Y576032D01*
X-1063493Y576032D02*
X-906013Y576032D01*
X-1063493Y231544D02*
X-906013Y231544D01*
X-1004437Y1606346D02*
X-1004437Y1663432D01*
X-917823Y1606346D02*
X-917823Y1663432D01*
X-1004437Y1606346D02*
X-917823Y1606346D01*
X-1004437Y1663432D02*
X-917823Y1663432D01*
X-216053Y934102D02*
X-216053Y1020716D01*
X-273139Y934102D02*
X-273139Y1020716D01*
X-216053Y1020716D01*
X-273139Y934102D02*
X-216053Y934102D01*
X-429633Y940994D02*
X-343019Y940994D01*
X-429633Y998080D02*
X-343019Y998080D01*
X-429633Y940994D02*
X-429633Y998080D01*
X-343019Y940994D02*
X-343019Y998080D01*
X-429633Y858316D02*
X-343019Y858316D01*
X-429633Y915402D02*
X-343019Y915402D01*
X-429633Y858316D02*
X-429633Y915402D01*
X-343019Y858316D02*
X-343019Y915402D01*
X-429635Y696898D02*
X-343021Y696898D01*
X-429635Y753984D02*
X-343021Y753984D01*
X-429635Y696898D02*
X-429635Y753984D01*
X-343021Y696898D02*
X-343021Y753984D01*
X-429633Y775640D02*
X-343019Y775640D01*
X-429633Y832726D02*
X-343019Y832726D01*
X-429633Y775640D02*
X-429633Y832726D01*
X-343019Y775640D02*
X-343019Y832726D01*
X-917823Y1982330D02*
X-917823Y2035480D01*
X-831209Y1982330D02*
X-831209Y2035480D01*
X-917823Y1982330D02*
X-831209Y1982330D01*
X-917823Y2035480D02*
X-831209Y2035480D01*
X-760341Y1777608D02*
X-760341Y1830758D01*
X-673727Y1777608D02*
X-673727Y1830758D01*
X-760341Y1777608D02*
X-673727Y1777608D01*
X-760341Y1830758D02*
X-673727Y1830758D01*
X-760343Y1878000D02*
X-673729Y1878000D01*
X-760343Y1935086D02*
X-673729Y1935086D01*
X-760343Y1878000D02*
X-760343Y1935086D01*
X-673729Y1878000D02*
X-673729Y1935086D01*
X-760345Y1980362D02*
X-673731Y1980362D01*
X-760345Y2037448D02*
X-673731Y2037448D01*
X-760345Y1980362D02*
X-760345Y2037448D01*
X-673731Y1980362D02*
X-673731Y2037448D01*
X-760341Y2084696D02*
X-760341Y2137846D01*
X-673727Y2084696D02*
X-673727Y2137846D01*
X-760341Y2084696D02*
X-673727Y2084696D01*
X-760341Y2137846D02*
X-673727Y2137846D01*
X7375Y1631938D02*
X7375Y1685086D01*
X93989Y1631938D02*
X93989Y1685086D01*
X7375Y1631938D02*
X93989Y1631938D01*
X7375Y1685086D02*
X93989Y1685086D01*
X93989Y1710680D02*
X93989Y1763830D01*
X7375Y1710680D02*
X7375Y1763830D01*
X93989Y1763830D01*
X7375Y1710680D02*
X93989Y1710680D01*
X7375Y1795324D02*
X7375Y1852410D01*
X93989Y1795324D02*
X93989Y1852410D01*
X7375Y1795324D02*
X93989Y1795324D01*
X7375Y1852410D02*
X93989Y1852410D01*
X-1075303Y1989220D02*
X-917823Y1989220D01*
X-1075303Y1792370D02*
X-917823Y1792370D01*
X-1075303Y1792370D02*
X-1075303Y1989220D01*
X-917823Y1792370D02*
X-917823Y1989220D01*
X-922745Y1416584D02*
X-922745Y1469732D01*
X-1009359Y1416584D02*
X-1009359Y1469732D01*
X-922745Y1469732D01*
X-1009359Y1416584D02*
X-922745Y1416584D01*
X-1009361Y1316582D02*
X-922747Y1316582D01*
X-1009361Y1369730D02*
X-922747Y1369730D01*
X-1009361Y1316582D02*
X-1009361Y1369730D01*
X-922747Y1316582D02*
X-922747Y1369730D01*
X-287901Y1885874D02*
X-287901Y1939024D01*
X-201287Y1885874D02*
X-201287Y1939024D01*
X-287901Y1885874D02*
X-201287Y1885874D01*
X-287901Y1939024D02*
X-201287Y1939024D01*
X-287901Y1984300D02*
X-287901Y2037450D01*
X-201287Y1984300D02*
X-201287Y2037450D01*
X-287901Y1984300D02*
X-201287Y1984300D01*
X-287901Y2037450D02*
X-201287Y2037450D01*
X1295325Y3946850D02*
X1295325Y4053150D01*
X1429183Y3946850D02*
X1429183Y4053150D01*
X1295325Y3946850D02*
X1429183Y3946850D01*
X1295325Y4053150D02*
X1429183Y4053150D01*
X1294775Y3857330D02*
X1294775Y3928196D01*
X1428633Y3857330D02*
X1428633Y3928196D01*
X1294775Y3857330D02*
X1428633Y3857330D01*
X1294775Y3928196D02*
X1428633Y3928196D01*
X-634949Y1236862D02*
X-548335Y1236862D01*
X-634949Y1293950D02*
X-548335Y1293950D01*
X-634949Y1236862D02*
X-634949Y1293950D01*
X-548335Y1236862D02*
X-548335Y1293950D01*
X-556211Y1331352D02*
X-556211Y1384500D01*
X-642825Y1331352D02*
X-642825Y1384500D01*
X-556211Y1384500D01*
X-642825Y1331352D02*
X-556211Y1331352D01*
X-652665Y1536074D02*
X-652665Y1593160D01*
X-566051Y1536074D02*
X-566051Y1593160D01*
X-652665Y1536074D02*
X-566051Y1536074D01*
X-652665Y1593160D02*
X-566051Y1593160D01*
X-556209Y1439618D02*
X-556209Y1492766D01*
X-642823Y1439618D02*
X-642823Y1492766D01*
X-556209Y1492766D01*
X-642823Y1439618D02*
X-556209Y1439618D01*
X-264281Y3057132D02*
X-264281Y3110282D01*
X-350895Y3057132D02*
X-350895Y3110282D01*
X-350895Y3057132D02*
X-264281Y3057132D01*
X-350895Y3110282D02*
X-264281Y3110282D01*
X-366321Y2785308D02*
X-313171Y2785308D01*
X-366321Y2698694D02*
X-313171Y2698694D01*
X-313171Y2785308D01*
X-366321Y2698694D02*
X-366321Y2785308D01*
X-483767Y2784494D02*
X-430617Y2784494D01*
X-483767Y2697880D02*
X-430617Y2697880D01*
X-430617Y2784494D01*
X-483767Y2697880D02*
X-483767Y2784494D01*
X-760343Y1879968D02*
X-760343Y1933118D01*
X-673729Y1879968D02*
X-673729Y1933118D01*
X-760343Y1933118D02*
X-673729Y1933118D01*
X-760343Y1879968D02*
X-673729Y1879968D01*
X-760343Y1777606D02*
X-760343Y1830756D01*
X-673729Y1777606D02*
X-673729Y1830756D01*
X-760343Y1830756D02*
X-673729Y1830756D01*
X-760343Y1777606D02*
X-673729Y1777606D01*
X-760343Y1982332D02*
X-760343Y2035480D01*
X-673729Y1982332D02*
X-673729Y2035480D01*
X-760343Y2035480D02*
X-673729Y2035480D01*
X-760343Y1982332D02*
X-673729Y1982332D01*
X-760343Y2084692D02*
X-760343Y2137842D01*
X-673729Y2084692D02*
X-673729Y2137842D01*
X-760343Y2137842D02*
X-673729Y2137842D01*
X-760343Y2084692D02*
X-673729Y2084692D01*
X1634143Y2150638D02*
X1634143Y2390598D01*
X1376663Y2150638D02*
X1376663Y2390598D01*
X1634143Y2390598D01*
X1376663Y2150638D02*
X1634143Y2150638D01*
X2020019Y2149456D02*
X2020019Y2389418D01*
X1762539Y2149456D02*
X1762539Y2389418D01*
X2020019Y2389418D01*
X1762539Y2149456D02*
X2020019Y2149456D01*
X1827255Y1865206D02*
X1827255Y1951820D01*
X1774105Y1865206D02*
X1774105Y1951820D01*
X1827255Y1951820D01*
X1774105Y1865206D02*
X1827255Y1865206D01*
X1915837Y1865204D02*
X1915837Y1951818D01*
X1862687Y1865204D02*
X1862687Y1951818D01*
X1915837Y1951818D01*
X1862687Y1865204D02*
X1915837Y1865204D01*
X1443831Y1874694D02*
X1443831Y1961308D01*
X1390681Y1874694D02*
X1390681Y1961308D01*
X1443831Y1961308D01*
X1390681Y1874694D02*
X1443831Y1874694D01*
X1541821Y1875046D02*
X1541821Y1961660D01*
X1488673Y1875046D02*
X1488673Y1961660D01*
X1541821Y1961660D01*
X1488673Y1875046D02*
X1541821Y1875046D01*
X-457193Y4440992D02*
X-177665Y4440992D01*
X-457193Y4840598D02*
X-177665Y4840598D01*
X-177665Y4440992D02*
X-177665Y4840598D01*
X-457193Y4440992D02*
X-457193Y4840598D01*
X1560523Y4745126D02*
X1560523Y4878984D01*
X1489657Y4745126D02*
X1489657Y4878984D01*
X1560523Y4878984D01*
X1489657Y4745126D02*
X1560523Y4745126D01*
X1922729Y4745124D02*
X1993595Y4745124D01*
X1922729Y4878984D02*
X1993595Y4878984D01*
X1922729Y4745124D02*
X1922729Y4878984D01*
X1993595Y4745124D02*
X1993595Y4878984D01*
X267217Y3983316D02*
X267217Y4117174D01*
X160919Y3983316D02*
X160919Y4117174D01*
X267217Y4117174D01*
X160919Y3983316D02*
X267217Y3983316D01*
X23121Y3983314D02*
X129419Y3983314D01*
X23121Y4117174D02*
X129419Y4117174D01*
X23121Y3983314D02*
X23121Y4117174D01*
X129419Y3983314D02*
X129419Y4117174D01*
X-13295Y4022684D02*
X-13295Y4109298D01*
X-70381Y4022684D02*
X-70381Y4109298D01*
X-13295Y4109298D01*
X-70381Y4022684D02*
X-13295Y4022684D01*
X-897941Y746504D02*
X-897941Y1090992D01*
X-1055421Y746504D02*
X-1055421Y1090992D01*
X-1055421Y746504D02*
X-897941Y746504D01*
X-1055421Y1090992D02*
X-897941Y1090992D01*
X-1044791Y1319732D02*
X-1044791Y1516582D01*
X-887311Y1319732D02*
X-887311Y1516582D01*
X-1044791Y1516582D02*
X-887311Y1516582D01*
X-1044791Y1319732D02*
X-887311Y1319732D01*
X-154175Y3299354D02*
X-154175Y3352504D01*
X-240789Y3299354D02*
X-240789Y3352504D01*
X-240789Y3299354D02*
X-154175Y3299354D01*
X-240789Y3352504D02*
X-154175Y3352504D01*
X1026075Y5428592D02*
X1026075Y5485678D01*
X1112689Y5428592D02*
X1112689Y5485678D01*
X1026075Y5428592D02*
X1112689Y5428592D01*
X1026075Y5485678D02*
X1112689Y5485678D01*
X-497723Y5430868D02*
X-497723Y5487954D01*
X-411109Y5430868D02*
X-411109Y5487954D01*
X-497723Y5430868D02*
X-411109Y5430868D01*
X-497723Y5487954D02*
X-411109Y5487954D01*
X-253845Y5431496D02*
X-253845Y5488582D01*
X-167231Y5431496D02*
X-167231Y5488582D01*
X-253845Y5431496D02*
X-167231Y5431496D01*
X-253845Y5488582D02*
X-167231Y5488582D01*
X-377721Y5430868D02*
X-377721Y5487954D01*
X-291107Y5430868D02*
X-291107Y5487954D01*
X-377721Y5430868D02*
X-291107Y5430868D01*
X-377721Y5487954D02*
X-291107Y5487954D01*
X-137093Y5431498D02*
X-137093Y5488584D01*
X-50479Y5431498D02*
X-50479Y5488584D01*
X-137093Y5431498D02*
X-50479Y5431498D01*
X-137093Y5488584D02*
X-50479Y5488584D01*
X-622423Y5430458D02*
X-622423Y5487544D01*
X-535809Y5430458D02*
X-535809Y5487544D01*
X-622423Y5430458D02*
X-535809Y5430458D01*
X-622423Y5487544D02*
X-535809Y5487544D01*
X2055057Y848868D02*
X2055057Y1088828D01*
X1797577Y848868D02*
X1797577Y1088828D01*
X1797577Y848868D02*
X2055057Y848868D01*
X1797577Y1088828D02*
X2055057Y1088828D01*
X1758113Y2157330D02*
X1758113Y2397290D01*
X2015593Y2157330D02*
X2015593Y2397290D01*
X1758113Y2397290D02*
X2015593Y2397290D01*
X1758113Y2157330D02*
X2015593Y2157330D01*
X1386507Y2160480D02*
X1386507Y2400442D01*
X1643987Y2160480D02*
X1643987Y2400442D01*
X1386507Y2400442D02*
X1643987Y2400442D01*
X1386507Y2160480D02*
X1643987Y2160480D01*
X962099Y3605362D02*
X962099Y3691978D01*
X908949Y3605362D02*
X908949Y3691978D01*
X908949Y3605362D02*
X962099Y3605362D01*
X908949Y3691978D02*
X962099Y3691978D01*
X824301Y3132920D02*
X824301Y3321896D01*
X690443Y3132920D02*
X690443Y3321896D01*
X690443Y3132920D02*
X824301Y3132920D01*
X690443Y3321896D02*
X824301Y3321896D01*
X690443Y2768748D02*
X690443Y2957724D01*
X824303Y2768748D02*
X824303Y2957724D01*
X690443Y2957724D02*
X824303Y2957724D01*
X690443Y2768748D02*
X824303Y2768748D01*
X1568397Y2684102D02*
X1757373Y2684102D01*
X1568397Y2550244D02*
X1757373Y2550244D01*
X1757373Y2684102D01*
X1568397Y2550244D02*
X1568397Y2684102D01*
X-954241Y205756D02*
X-954241Y292370D01*
X-1007389Y205756D02*
X-1007389Y292370D01*
X-1007389Y205756D02*
X-954241Y205756D01*
X-1007389Y292370D02*
X-954241Y292370D01*
X-932587Y910480D02*
X-932587Y997094D01*
X-989673Y910480D02*
X-989673Y997094D01*
X-989673Y910480D02*
X-932587Y910480D01*
X-989673Y997094D02*
X-932587Y997094D01*
X-956209Y402606D02*
X-956209Y489220D01*
X-1013295Y402606D02*
X-1013295Y489220D01*
X-1013295Y402606D02*
X-956209Y402606D01*
X-1013295Y489220D02*
X-956209Y489220D01*
X1608753Y4036462D02*
X1677651Y4036462D01*
X1608753Y4150636D02*
X1677651Y4150636D01*
X1608753Y4036462D02*
X1608753Y4150636D01*
X1677651Y4036462D02*
X1677651Y4150636D01*
X1866625Y1284496D02*
X1866625Y1371110D01*
X1813475Y1284496D02*
X1813475Y1371110D01*
X1813475Y1284496D02*
X1866625Y1284496D01*
X1813475Y1371110D02*
X1866625Y1371110D01*
X1945365Y1284496D02*
X1945365Y1371110D01*
X1892215Y1284496D02*
X1892215Y1371110D01*
X1892215Y1284496D02*
X1945365Y1284496D01*
X1892215Y1371110D02*
X1945365Y1371110D01*
X1436507Y5305556D02*
X1436507Y5392172D01*
X1489657Y5305556D02*
X1489657Y5392172D01*
X1436507Y5392172D02*
X1489657Y5392172D01*
X1436507Y5305556D02*
X1489657Y5305556D01*
X1577253Y1875048D02*
X1577253Y1961662D01*
X1630403Y1875048D02*
X1630403Y1961662D01*
X1577253Y1961662D02*
X1630403Y1961662D01*
X1577253Y1875048D02*
X1630403Y1875048D01*
X1541821Y1875048D02*
X1541821Y1961662D01*
X1488671Y1875048D02*
X1488671Y1961662D01*
X1488671Y1875048D02*
X1541821Y1875048D01*
X1488671Y1961662D02*
X1541821Y1961662D01*
X1951271Y1875048D02*
X1951271Y1961662D01*
X2004421Y1875048D02*
X2004421Y1961662D01*
X1951271Y1961662D02*
X2004421Y1961662D01*
X1951271Y1875048D02*
X2004421Y1875048D01*
X1915835Y1875046D02*
X1915835Y1961660D01*
X1862687Y1875046D02*
X1862687Y1961660D01*
X1862687Y1875046D02*
X1915835Y1875046D01*
X1862687Y1961660D02*
X1915835Y1961660D01*
X1627603Y4205190D02*
X1627603Y4228812D01*
X1670911Y4205190D02*
X1670911Y4228812D01*
X1627603Y4205190D02*
X1670911Y4205190D01*
X1627603Y4228812D02*
X1670911Y4228812D01*
X1375947Y3695546D02*
X1462563Y3695546D01*
X1375947Y3638458D02*
X1462563Y3638458D01*
X1462563Y3695546D01*
X1375947Y3638458D02*
X1375947Y3695546D01*
X1581327Y4335566D02*
X1715187Y4335566D01*
X1581327Y4406432D02*
X1715187Y4406432D01*
X1581327Y4335566D02*
X1581327Y4406432D01*
X1715187Y4335566D02*
X1715187Y4406432D01*
X1605801Y4255952D02*
X1692417Y4255952D01*
X1605801Y4313038D02*
X1692417Y4313038D01*
X1605801Y4255952D02*
X1605801Y4313038D01*
X1692417Y4255952D02*
X1692417Y4313038D01*
X1530007Y3850440D02*
X1598905Y3850440D01*
X1530007Y3887842D02*
X1598905Y3887842D01*
X1530007Y3850440D02*
X1530007Y3887842D01*
X1598905Y3850440D02*
X1598905Y3887842D01*
X1272139Y5431496D02*
X1272139Y5488582D01*
X1358753Y5431496D02*
X1358753Y5488582D01*
X1272139Y5431496D02*
X1358753Y5431496D01*
X1272139Y5488582D02*
X1358753Y5488582D01*
X336115Y3953788D02*
X336115Y4087646D01*
X229815Y3953788D02*
X229815Y4087646D01*
X229815Y3953788D02*
X336115Y3953788D01*
X229815Y4087646D02*
X336115Y4087646D01*
X712097Y3933118D02*
X798711Y3933118D01*
X712097Y3990204D02*
X798711Y3990204D01*
X712097Y3933118D02*
X712097Y3990204D01*
X798711Y3933118D02*
X798711Y3990204D01*
X712099Y4061070D02*
X798713Y4061070D01*
X712099Y4118156D02*
X798713Y4118156D01*
X712099Y4061070D02*
X712099Y4118156D01*
X798713Y4061070D02*
X798713Y4118156D01*
X597925Y3941976D02*
X597925Y4138828D01*
X440445Y3941976D02*
X440445Y4138828D01*
X597925Y4138828D01*
X440445Y3941976D02*
X597925Y3941976D01*
X416823Y2713630D02*
X605801Y2713630D01*
X416823Y2579772D02*
X605801Y2579772D01*
X605801Y2713630D01*
X416823Y2579772D02*
X416823Y2713630D01*
X-272291Y1817308D02*
X-215203Y1817308D01*
X-272291Y1730694D02*
X-215203Y1730694D01*
X-215203Y1817308D01*
X-272291Y1730694D02*
X-272291Y1817308D01*
X-917823Y1517766D02*
X-917823Y1570914D01*
X-1004437Y1517766D02*
X-1004437Y1570914D01*
X-917823Y1570914D01*
X-1004437Y1517766D02*
X-917823Y1517766D01*
X-921761Y1236270D02*
X-921761Y1293356D01*
X-1008375Y1236270D02*
X-1008375Y1293356D01*
X-1008375Y1236270D02*
X-921761Y1236270D01*
X-1008375Y1293356D02*
X-921761Y1293356D01*
X261903Y1719732D02*
X348517Y1719732D01*
X261903Y1772882D02*
X348517Y1772882D01*
X348517Y1719732D02*
X348517Y1772882D01*
X261903Y1719732D02*
X261903Y1772882D01*
X261901Y1819732D02*
X348515Y1819732D01*
X261901Y1872882D02*
X348515Y1872882D01*
X348515Y1819732D02*
X348515Y1872882D01*
X261901Y1819732D02*
X261901Y1872882D01*
X-977863Y3232724D02*
X-977863Y3319338D01*
X-1031013Y3232724D02*
X-1031013Y3319338D01*
X-1031013Y3232724D02*
X-977863Y3232724D01*
X-1031013Y3319338D02*
X-977863Y3319338D01*
X-1067431Y3404968D02*
X-1067431Y3462054D01*
X-980817Y3404968D02*
X-980817Y3462054D01*
X-1067431Y3404968D02*
X-980817Y3404968D01*
X-1067431Y3462054D02*
X-980817Y3462054D01*
X-247551Y4591580D02*
X-247551Y4678194D01*
X-304637Y4591580D02*
X-304637Y4678194D01*
X-304637Y4591580D02*
X-247551Y4591580D01*
X-304637Y4678194D02*
X-247551Y4678194D01*
X-68413Y4788432D02*
X-11327Y4788432D01*
X-68413Y4875046D02*
X-11327Y4875046D01*
X-68413Y4788432D02*
X-68413Y4875046D01*
X-11327Y4788432D02*
X-11327Y4875046D01*
X-799713Y283512D02*
X-713099Y283512D01*
X-799713Y230364D02*
X-713099Y230364D01*
X-799713Y230364D02*
X-799713Y283512D01*
X-713099Y230364D02*
X-713099Y283512D01*
X845955Y-1054086D02*
X845955Y-857236D01*
X688475Y-1054086D02*
X688475Y-857236D01*
X845955Y-857236D01*
X688475Y-1054086D02*
X845955Y-1054086D01*
X1066427Y-1395624D02*
X1066427Y-1342474D01*
X979813Y-1395624D02*
X979813Y-1342474D01*
X1066427Y-1342474D01*
X979813Y-1395624D02*
X1066427Y-1395624D01*
X979815Y-1543258D02*
X979815Y-1490108D01*
X1066429Y-1543258D02*
X1066429Y-1490108D01*
X979815Y-1543258D02*
X1066429Y-1543258D01*
X979815Y-1490108D02*
X1066429Y-1490108D01*
X1066427Y-1474362D02*
X1066427Y-1421212D01*
X979813Y-1474362D02*
X979813Y-1421212D01*
X1066427Y-1421212D01*
X979813Y-1474362D02*
X1066427Y-1474362D01*
X979815Y-1326726D02*
X979815Y-1273576D01*
X1066429Y-1326726D02*
X1066429Y-1273576D01*
X979815Y-1326726D02*
X1066429Y-1326726D01*
X979815Y-1273576D02*
X1066429Y-1273576D01*
X562491Y-1442868D02*
X562491Y-1389718D01*
X475877Y-1442868D02*
X475877Y-1389718D01*
X562491Y-1389718D01*
X475877Y-1442868D02*
X562491Y-1442868D01*
X475877Y-1375936D02*
X475877Y-1322786D01*
X562491Y-1375936D02*
X562491Y-1322786D01*
X475877Y-1375936D02*
X562491Y-1375936D01*
X475877Y-1322786D02*
X562491Y-1322786D01*
X562491Y-1309008D02*
X562491Y-1255858D01*
X475877Y-1309008D02*
X475877Y-1255858D01*
X562491Y-1255858D01*
X475877Y-1309008D02*
X562491Y-1309008D01*
X475879Y-1242076D02*
X475879Y-1188926D01*
X562493Y-1242076D02*
X562493Y-1188926D01*
X475879Y-1242076D02*
X562493Y-1242076D01*
X475879Y-1188926D02*
X562493Y-1188926D01*
X487689Y-1060976D02*
X487689Y-1007826D01*
X574303Y-1060976D02*
X574303Y-1007826D01*
X487689Y-1060976D02*
X574303Y-1060976D01*
X487689Y-1007826D02*
X574303Y-1007826D01*
X574301Y-992078D02*
X574301Y-938928D01*
X487687Y-992078D02*
X487687Y-938928D01*
X574301Y-938928D01*
X487687Y-992078D02*
X574301Y-992078D01*
X945365Y-932038D02*
X1002453Y-932038D01*
X945365Y-1018652D02*
X1002453Y-1018652D01*
X945365Y-1018652D02*
X945365Y-932038D01*
X1002453Y-1018652D02*
X1002453Y-932038D01*
X930601Y-1171214D02*
X930601Y-1114126D01*
X1017215Y-1171214D02*
X1017215Y-1114126D01*
X930601Y-1171214D02*
X1017215Y-1171214D01*
X930601Y-1114126D02*
X1017215Y-1114126D01*
X914851Y-513732D02*
X914851Y-316882D01*
X757371Y-513732D02*
X757371Y-316882D01*
X914851Y-316882D01*
X757371Y-513732D02*
X914851Y-513732D01*
X802949Y-603544D02*
X802949Y-546458D01*
X889563Y-603544D02*
X889563Y-546458D01*
X802949Y-603544D02*
X889563Y-603544D01*
X802949Y-546458D02*
X889563Y-546458D01*
X425681Y1117174D02*
X425681Y1203788D01*
X478831Y1117174D02*
X478831Y1203788D01*
X425681Y1117174D02*
X478831Y1117174D01*
X425681Y1203788D02*
X478831Y1203788D01*
X-397171Y61694D02*
X-397171Y148308D01*
X-450321Y61694D02*
X-450321Y148308D01*
X-397171Y148308D01*
X-450321Y61694D02*
X-397171Y61694D01*
X1170759Y5305558D02*
X1223909Y5305558D01*
X1170759Y5392174D02*
X1223909Y5392174D01*
X1223909Y5305558D02*
X1223909Y5392174D01*
X1170759Y5305558D02*
X1170759Y5392174D01*
X-1109751Y205754D02*
X-1109751Y292368D01*
X-1056603Y205754D02*
X-1056603Y292368D01*
X-1109751Y292368D02*
X-1056603Y292368D01*
X-1109751Y205754D02*
X-1056603Y205754D01*
X959145Y-2042276D02*
X959145Y-1955662D01*
X1016233Y-2042276D02*
X1016233Y-1955662D01*
X959145Y-1955662D02*
X1016233Y-1955662D01*
X959145Y-2042276D02*
X1016233Y-2042276D01*
X1053633Y-2046212D02*
X1053633Y-1959598D01*
X1110721Y-2046212D02*
X1110721Y-1959598D01*
X1053633Y-1959598D02*
X1110721Y-1959598D01*
X1053633Y-2046212D02*
X1110721Y-2046212D01*
X731783Y2285482D02*
X731783Y2338632D01*
X645169Y2285482D02*
X645169Y2338632D01*
X731783Y2338632D01*
X645169Y2285482D02*
X731783Y2285482D01*
X645169Y2364218D02*
X645169Y2417368D01*
X731783Y2364218D02*
X731783Y2417368D01*
X645169Y2364218D02*
X731783Y2364218D01*
X645169Y2417368D02*
X731783Y2417368D01*
X1232767Y1815992D02*
X1285917Y1815992D01*
X1232767Y1902606D02*
X1285917Y1902606D01*
X1285917Y1815992D02*
X1285917Y1902606D01*
X1232767Y1815992D02*
X1232767Y1902606D01*
X1314457Y1163434D02*
X1314457Y1216584D01*
X1401071Y1163434D02*
X1401071Y1216584D01*
X1314457Y1163434D02*
X1401071Y1163434D01*
X1314457Y1216584D02*
X1401071Y1216584D01*
X1401075Y1005954D02*
X1401075Y1059104D01*
X1314461Y1005954D02*
X1314461Y1059104D01*
X1401075Y1059104D01*
X1314461Y1005954D02*
X1401075Y1005954D01*
X1779025Y1557134D02*
X1779025Y1610282D01*
X1865639Y1557134D02*
X1865639Y1610282D01*
X1779025Y1610282D02*
X1865639Y1610282D01*
X1779025Y1557134D02*
X1865639Y1557134D01*
X-501487Y4867174D02*
X-444401Y4867174D01*
X-501487Y4953788D02*
X-444401Y4953788D01*
X-444401Y4867174D02*
X-444401Y4953788D01*
X-501487Y4867174D02*
X-501487Y4953788D01*
X1018201Y3588788D02*
X1018201Y3636032D01*
X1081193Y3588788D02*
X1081193Y3636032D01*
X1018201Y3636032D02*
X1081193Y3636032D01*
X1018201Y3588788D02*
X1081193Y3588788D01*
X-550697Y1048274D02*
X-550697Y1134888D01*
X-607783Y1048274D02*
X-607783Y1134888D01*
X-550697Y1134888D01*
X-607783Y1048274D02*
X-550697Y1048274D01*
X1561947Y3640426D02*
X1648563Y3640426D01*
X1561947Y3693576D02*
X1648563Y3693576D01*
X1561947Y3640426D02*
X1561947Y3693576D01*
X1648563Y3640426D02*
X1648563Y3693576D01*
X1518949Y3798574D02*
X1605563Y3798574D01*
X1518949Y3745424D02*
X1605563Y3745424D01*
X1605563Y3798574D01*
X1518949Y3745424D02*
X1518949Y3798574D01*
X1617609Y3921306D02*
X1704223Y3921306D01*
X1617609Y3974456D02*
X1704223Y3974456D01*
X1617609Y3921306D02*
X1617609Y3974456D01*
X1704223Y3921306D02*
X1704223Y3974456D01*
X-343021Y3163434D02*
X-343021Y3216582D01*
X-256407Y3163434D02*
X-256407Y3216582D01*
X-343021Y3216582D02*
X-256407Y3216582D01*
X-343021Y3163434D02*
X-256407Y3163434D01*
X-66447Y2985282D02*
X-13297Y2985282D01*
X-66447Y2898668D02*
X-13297Y2898668D01*
X-66447Y2898668D02*
X-66447Y2985282D01*
X-13297Y2898668D02*
X-13297Y2985282D01*
X688475Y-1541292D02*
X845955Y-1541292D01*
X688475Y-1196804D02*
X845955Y-1196804D01*
X688475Y-1541292D02*
X688475Y-1196804D01*
X845955Y-1541292D02*
X845955Y-1196804D01*
X1125483Y-2117078D02*
X1322333Y-2117078D01*
X1125483Y-1959598D02*
X1322333Y-1959598D01*
X1322333Y-2117078D02*
X1322333Y-1959598D01*
X1125483Y-2117078D02*
X1125483Y-1959598D01*
X1537883Y-1097392D02*
X1537883Y-1010778D01*
X1591033Y-1097392D02*
X1591033Y-1010778D01*
X1537883Y-1010778D02*
X1591033Y-1010778D01*
X1537883Y-1097392D02*
X1591033Y-1097392D01*
X1453239Y-1097392D02*
X1506389Y-1097392D01*
X1453239Y-1010778D02*
X1506389Y-1010778D01*
X1506389Y-1097392D02*
X1506389Y-1010778D01*
X1453239Y-1097392D02*
X1453239Y-1010778D01*
X7375Y1879968D02*
X7375Y1933118D01*
X93989Y1879968D02*
X93989Y1933118D01*
X7375Y1879968D02*
X93989Y1879968D01*
X7375Y1933118D02*
X93989Y1933118D01*
X-332983Y3792764D02*
X769381Y3792764D01*
X769381Y3595914D02*
X769381Y3792764D01*
X-332983Y3595914D02*
X769381Y3595914D01*
X-332983Y3595914D02*
X-332983Y3792764D01*
X-695987Y-1607284D02*
X-642837Y-1607284D01*
X-695987Y-1693898D02*
X-642837Y-1693898D01*
X-695987Y-1693898D02*
X-695987Y-1607284D01*
X-642837Y-1693898D02*
X-642837Y-1607284D01*
%TF.MD5,1e63066a3115c3608e0c818bec2457b2*%
M02*
