G04 Layer_Color=65535*
%FSLAX26Y26*%
%MOIN*%
%TF.FileFunction,Legend,Top*%
%TF.Part,Single*%
G01*
G75*
%TA.AperFunction,NonConductor*%
%ADD70C,0.009842*%
%ADD71C,0.023622*%
%ADD72C,0.003937*%
%ADD74C,0.010000*%
%ADD75C,0.020000*%
%ADD76C,0.007874*%
%ADD134C,0.008000*%
%ADD135R,0.125984X0.021654*%
%ADD136R,0.023000X0.006500*%
%ADD137R,0.018000X0.067000*%
%ADD138R,0.025600X0.007300*%
D70*
X2696110Y2188976D02*
G03*
X2696110Y2188976I-4921J0D01*
G01*
X490158Y-1708661D02*
G03*
X490158Y-1708661I-4921J0D01*
G01*
X949803Y-754724D02*
G03*
X949803Y-754724I-4921J0D01*
G01*
X-86024Y661220D02*
G03*
X-86024Y661220I-4921J0D01*
G01*
X-19685Y-2131299D02*
G03*
X-19685Y-2131299I-4921J0D01*
G01*
X175197Y-934252D02*
G03*
X175197Y-934252I-4921J0D01*
G01*
X2430512Y-677165D02*
G03*
X2430512Y-677165I-4921J0D01*
G01*
X2816386Y-678347D02*
G03*
X2816386Y-678347I-4921J0D01*
G01*
X600984Y2124409D02*
G03*
X600984Y2124409I-4921J0D01*
G01*
X195079Y-1981299D02*
G03*
X195079Y-1981299I-4921J0D01*
G01*
X-8858Y-1189961D02*
G03*
X-8858Y-1189961I-4921J0D01*
G01*
D71*
X2792567Y2144488D02*
G03*
X2792567Y2144488I-11811J0D01*
G01*
X576772Y-1761811D02*
G03*
X576772Y-1761811I-11811J0D01*
G01*
X1036417Y-807874D02*
G03*
X1036417Y-807874I-11811J0D01*
G01*
X5905Y621457D02*
G03*
X5905Y621457I-11811J0D01*
G01*
X66929Y-2179921D02*
G03*
X66929Y-2179921I-11811J0D01*
G01*
X102362Y-885827D02*
G03*
X102362Y-885827I-11811J0D01*
G01*
X692913Y2084646D02*
G03*
X692913Y2084646I-11811J0D01*
G01*
X122244Y-1932677D02*
G03*
X122244Y-1932677I-11811J0D01*
G01*
X85630Y-1240354D02*
G03*
X85630Y-1240354I-11811J0D01*
G01*
D72*
X2641732Y2229658D02*
X2645012Y2226378D01*
X2651572Y2226378D01*
X2654851Y2229658D01*
X2654851Y2242777D01*
X2651572Y2246057D01*
X2645012Y2246057D01*
X2641732Y2242777D01*
X2641732Y2239497D01*
X2645012Y2236217D01*
X2654851Y2236217D01*
X2661411Y2246057D02*
X2661411Y2232937D01*
X2667970Y2226378D01*
X2674530Y2232937D01*
X2674530Y2246057D01*
X2700768Y2246057D02*
X2700768Y2226378D01*
X2710607Y2226378D01*
X2713887Y2229658D01*
X2713887Y2242777D01*
X2710607Y2246057D01*
X2700768Y2246057D01*
X2733566Y2242777D02*
X2730286Y2246057D01*
X2723726Y2246057D01*
X2720447Y2242777D01*
X2720447Y2229658D01*
X2723726Y2226378D01*
X2730286Y2226378D01*
X2733566Y2229658D01*
X2740125Y2236217D02*
X2753244Y2236217D01*
X2759804Y2246057D02*
X2759804Y2226378D01*
X2769643Y2226378D01*
X2772923Y2229658D01*
X2772923Y2242777D01*
X2769643Y2246057D01*
X2759804Y2246057D01*
X2792602Y2242777D02*
X2789322Y2246057D01*
X2782762Y2246057D01*
X2779482Y2242777D01*
X2779482Y2229658D01*
X2782762Y2226378D01*
X2789322Y2226378D01*
X2792602Y2229658D01*
X2831959Y2242777D02*
X2828679Y2246057D01*
X2822119Y2246057D01*
X2818840Y2242777D01*
X2818840Y2229658D01*
X2822119Y2226378D01*
X2828679Y2226378D01*
X2831959Y2229658D01*
X2841798Y2226378D02*
X2848358Y2226378D01*
X2851637Y2229658D01*
X2851637Y2236217D01*
X2848358Y2239497D01*
X2841798Y2239497D01*
X2838518Y2236217D01*
X2838518Y2229658D01*
X2841798Y2226378D01*
X2858197Y2226378D02*
X2858197Y2239497D01*
X2868036Y2239497D01*
X2871316Y2236217D01*
X2871316Y2226378D01*
X2877875Y2239497D02*
X2884435Y2226378D01*
X2890994Y2239497D01*
X2907393Y2226378D02*
X2900834Y2226378D01*
X2897554Y2229658D01*
X2897554Y2236217D01*
X2900834Y2239497D01*
X2907393Y2239497D01*
X2910673Y2236217D01*
X2910673Y2232937D01*
X2897554Y2232937D01*
X2917233Y2239497D02*
X2917233Y2226378D01*
X2917233Y2232937D01*
X2920512Y2236217D01*
X2923792Y2239497D01*
X2927072Y2239497D01*
X2940191Y2242777D02*
X2940191Y2239497D01*
X2936911Y2239497D01*
X2943471Y2239497D01*
X2940191Y2239497D01*
X2940191Y2229658D01*
X2943471Y2226378D01*
X2963149Y2226378D02*
X2956590Y2226378D01*
X2953310Y2229658D01*
X2953310Y2236217D01*
X2956590Y2239497D01*
X2963149Y2239497D01*
X2966429Y2236217D01*
X2966429Y2232937D01*
X2953310Y2232937D01*
X2972989Y2239497D02*
X2972989Y2226378D01*
X2972989Y2232937D01*
X2976269Y2236217D01*
X2979548Y2239497D01*
X2982828Y2239497D01*
X653543Y2461107D02*
X679782Y2461107D01*
X679782Y2454548D01*
X653543Y2428310D01*
X653543Y2421750D01*
X679782Y2421750D01*
X692901Y2461107D02*
X692901Y2421750D01*
X692901Y2441429D01*
X719139Y2441429D01*
X719139Y2461107D01*
X719139Y2421750D01*
X653543Y2404430D02*
X653543Y2378191D01*
X666662Y2365072D01*
X679782Y2378191D01*
X679782Y2404430D01*
X699460Y2365072D02*
X712579Y2365072D01*
X719139Y2371632D01*
X719139Y2384751D01*
X712579Y2391311D01*
X699460Y2391311D01*
X692901Y2384751D01*
X692901Y2371632D01*
X699460Y2365072D01*
X732258Y2365072D02*
X745377Y2365072D01*
X738818Y2365072D01*
X738818Y2404430D01*
X732258Y2404430D01*
X771615Y2397870D02*
X771615Y2391311D01*
X765056Y2391311D01*
X778175Y2391311D01*
X771615Y2391311D01*
X771615Y2371632D01*
X778175Y2365072D01*
X804413Y2391311D02*
X817532Y2391311D01*
X824092Y2384751D01*
X824092Y2365072D01*
X804413Y2365072D01*
X797854Y2371632D01*
X804413Y2378191D01*
X824092Y2378191D01*
X850330Y2351953D02*
X856890Y2351953D01*
X863449Y2358513D01*
X863449Y2391311D01*
X843771Y2391311D01*
X837211Y2384751D01*
X837211Y2371632D01*
X843771Y2365072D01*
X863449Y2365072D01*
X896247Y2365072D02*
X883128Y2365072D01*
X876568Y2371632D01*
X876568Y2384751D01*
X883128Y2391311D01*
X896247Y2391311D01*
X902807Y2384751D01*
X902807Y2378191D01*
X876568Y2378191D01*
X653543Y2295276D02*
X653543Y2334633D01*
X673222Y2334633D01*
X679782Y2328073D01*
X679782Y2314954D01*
X673222Y2308395D01*
X653543Y2308395D01*
X666662Y2308395D02*
X679782Y2295276D01*
X712579Y2295276D02*
X699460Y2295276D01*
X692901Y2301835D01*
X692901Y2314954D01*
X699460Y2321514D01*
X712579Y2321514D01*
X719139Y2314954D01*
X719139Y2308395D01*
X692901Y2308395D01*
X738818Y2295276D02*
X738818Y2328073D01*
X738818Y2314954D01*
X732258Y2314954D01*
X745377Y2314954D01*
X738818Y2314954D01*
X738818Y2328073D01*
X745377Y2334633D01*
X2789370Y-291339D02*
X2809049Y-291339D01*
X2802489Y-297898D01*
X2809049Y-304458D01*
X2789370Y-304458D01*
X2789370Y-320856D02*
X2789370Y-314297D01*
X2792650Y-311017D01*
X2799209Y-311017D01*
X2802489Y-314297D01*
X2802489Y-320856D01*
X2799209Y-324136D01*
X2795930Y-324136D01*
X2795930Y-311017D01*
X2805769Y-333976D02*
X2802489Y-333976D01*
X2802489Y-330696D01*
X2802489Y-337255D01*
X2802489Y-333976D01*
X2792650Y-333976D01*
X2789370Y-337255D01*
X2789370Y-356934D02*
X2789370Y-350375D01*
X2792650Y-347095D01*
X2799209Y-347095D01*
X2802489Y-350375D01*
X2802489Y-356934D01*
X2799209Y-360214D01*
X2795930Y-360214D01*
X2795930Y-347095D01*
X2802489Y-366773D02*
X2789370Y-366773D01*
X2795930Y-366773D01*
X2799209Y-370053D01*
X2802489Y-373333D01*
X2802489Y-376613D01*
X2809049Y-406130D02*
X2789370Y-406130D01*
X2799209Y-406130D01*
X2799209Y-419250D01*
X2809049Y-419250D01*
X2789370Y-419250D01*
X2789370Y-435648D02*
X2789370Y-429089D01*
X2792650Y-425809D01*
X2799209Y-425809D01*
X2802489Y-429089D01*
X2802489Y-435648D01*
X2799209Y-438928D01*
X2795930Y-438928D01*
X2795930Y-425809D01*
X2802489Y-448767D02*
X2802489Y-455327D01*
X2799209Y-458607D01*
X2789370Y-458607D01*
X2789370Y-448767D01*
X2792650Y-445488D01*
X2795930Y-448767D01*
X2795930Y-458607D01*
X2805769Y-468446D02*
X2802489Y-468446D01*
X2802489Y-465166D01*
X2802489Y-471726D01*
X2802489Y-468446D01*
X2792650Y-468446D01*
X2789370Y-471726D01*
X2789370Y-491404D02*
X2789370Y-484845D01*
X2792650Y-481565D01*
X2799209Y-481565D01*
X2802489Y-484845D01*
X2802489Y-491404D01*
X2799209Y-494684D01*
X2795930Y-494684D01*
X2795930Y-481565D01*
X2802489Y-501244D02*
X2789370Y-501244D01*
X2795930Y-501244D01*
X2799209Y-504524D01*
X2802489Y-507803D01*
X2802489Y-511083D01*
X2800521Y2390266D02*
X2797241Y2393545D01*
X2790681Y2393545D01*
X2787401Y2390266D01*
X2787401Y2386986D01*
X2790681Y2383706D01*
X2797241Y2383706D01*
X2800521Y2380426D01*
X2800521Y2377146D01*
X2797241Y2373867D01*
X2790681Y2373867D01*
X2787401Y2377146D01*
X2816919Y2373867D02*
X2810360Y2373867D01*
X2807080Y2377146D01*
X2807080Y2383706D01*
X2810360Y2386986D01*
X2816919Y2386986D01*
X2820199Y2383706D01*
X2820199Y2380426D01*
X2807080Y2380426D01*
X2826759Y2373867D02*
X2826759Y2386986D01*
X2836598Y2386986D01*
X2839878Y2383706D01*
X2839878Y2373867D01*
X2846437Y2373867D02*
X2856277Y2373867D01*
X2859556Y2377146D01*
X2856277Y2380426D01*
X2849717Y2380426D01*
X2846437Y2383706D01*
X2849717Y2386986D01*
X2859556Y2386986D01*
X2875955Y2373867D02*
X2869396Y2373867D01*
X2866116Y2377146D01*
X2866116Y2383706D01*
X2869396Y2386986D01*
X2875955Y2386986D01*
X2879235Y2383706D01*
X2879235Y2380426D01*
X2866116Y2380426D01*
X2797241Y2360482D02*
X2790681Y2360482D01*
X2787401Y2357202D01*
X2787401Y2344083D01*
X2790681Y2340804D01*
X2797241Y2340804D01*
X2800521Y2344083D01*
X2800521Y2357202D01*
X2797241Y2360482D01*
X2810360Y2340804D02*
X2810360Y2357202D01*
X2810360Y2350643D01*
X2807080Y2350643D01*
X2813640Y2350643D01*
X2810360Y2350643D01*
X2810360Y2357202D01*
X2813640Y2360482D01*
X2826759Y2340804D02*
X2826759Y2357202D01*
X2826759Y2350643D01*
X2823479Y2350643D01*
X2830039Y2350643D01*
X2826759Y2350643D01*
X2826759Y2357202D01*
X2830039Y2360482D01*
X2839878Y2340804D02*
X2849717Y2340804D01*
X2852997Y2344083D01*
X2849717Y2347363D01*
X2843158Y2347363D01*
X2839878Y2350643D01*
X2843158Y2353923D01*
X2852997Y2353923D01*
X2869396Y2340804D02*
X2862836Y2340804D01*
X2859557Y2344083D01*
X2859557Y2350643D01*
X2862836Y2353923D01*
X2869396Y2353923D01*
X2872676Y2350643D01*
X2872676Y2347363D01*
X2859557Y2347363D01*
X2882515Y2357202D02*
X2882515Y2353923D01*
X2879235Y2353923D01*
X2885795Y2353923D01*
X2882515Y2353923D01*
X2882515Y2344083D01*
X2885795Y2340804D01*
X2787401Y2307740D02*
X2787401Y2320860D01*
X2793961Y2327419D01*
X2800521Y2320860D01*
X2800521Y2307740D01*
X2800521Y2317580D01*
X2787401Y2317580D01*
X2820199Y2327419D02*
X2820199Y2307740D01*
X2810360Y2307740D01*
X2807080Y2311020D01*
X2807080Y2317580D01*
X2810360Y2320860D01*
X2820199Y2320860D01*
X2826759Y2301181D02*
X2830039Y2301181D01*
X2833318Y2304461D01*
X2833318Y2320860D01*
X2846437Y2320860D02*
X2846437Y2311020D01*
X2849717Y2307740D01*
X2859556Y2307740D01*
X2859556Y2320860D01*
X2866116Y2307740D02*
X2875955Y2307740D01*
X2879235Y2311020D01*
X2875955Y2314300D01*
X2869396Y2314300D01*
X2866116Y2317580D01*
X2869396Y2320860D01*
X2879235Y2320860D01*
X2889074Y2324139D02*
X2889074Y2320860D01*
X2885794Y2320860D01*
X2892354Y2320860D01*
X2889074Y2320860D01*
X2889074Y2311020D01*
X2892354Y2307740D01*
X2395669Y-281496D02*
X2408788Y-281496D01*
X2415348Y-288056D01*
X2408788Y-294615D01*
X2395669Y-294615D01*
X2405508Y-294615D01*
X2405508Y-281496D01*
X2408788Y-301175D02*
X2395669Y-301175D01*
X2402229Y-301175D01*
X2405508Y-304454D01*
X2408788Y-307734D01*
X2408788Y-311014D01*
X2408788Y-320853D02*
X2395669Y-320853D01*
X2402229Y-320853D01*
X2405508Y-324133D01*
X2408788Y-327413D01*
X2408788Y-330693D01*
X2395669Y-350371D02*
X2395669Y-343812D01*
X2398949Y-340532D01*
X2405508Y-340532D01*
X2408788Y-343812D01*
X2408788Y-350371D01*
X2405508Y-353651D01*
X2402229Y-353651D01*
X2402229Y-340532D01*
X2395669Y-360211D02*
X2395669Y-370050D01*
X2398949Y-373330D01*
X2402229Y-370050D01*
X2402229Y-363490D01*
X2405508Y-360211D01*
X2408788Y-363490D01*
X2408788Y-373330D01*
X2412068Y-383169D02*
X2408788Y-383169D01*
X2408788Y-379889D01*
X2408788Y-386449D01*
X2408788Y-383169D01*
X2398949Y-383169D01*
X2395669Y-386449D01*
X2395669Y-396288D02*
X2408788Y-396288D01*
X2408788Y-399568D01*
X2405508Y-402848D01*
X2395669Y-402848D01*
X2405508Y-402848D01*
X2408788Y-406127D01*
X2405508Y-409407D01*
X2395669Y-409407D01*
X2395669Y-425806D02*
X2395669Y-419246D01*
X2398949Y-415967D01*
X2405508Y-415967D01*
X2408788Y-419246D01*
X2408788Y-425806D01*
X2405508Y-429086D01*
X2402229Y-429086D01*
X2402229Y-415967D01*
X2395669Y-435645D02*
X2408788Y-435645D01*
X2408788Y-445485D01*
X2405508Y-448764D01*
X2395669Y-448764D01*
X2412068Y-458604D02*
X2408788Y-458604D01*
X2408788Y-455324D01*
X2408788Y-461883D01*
X2408788Y-458604D01*
X2398949Y-458604D01*
X2395669Y-461883D01*
X2415348Y-491401D02*
X2395669Y-491401D01*
X2405508Y-491401D01*
X2405508Y-504520D01*
X2415348Y-504520D01*
X2395669Y-504520D01*
X2395669Y-520919D02*
X2395669Y-514360D01*
X2398949Y-511080D01*
X2405508Y-511080D01*
X2408788Y-514360D01*
X2408788Y-520919D01*
X2405508Y-524199D01*
X2402229Y-524199D01*
X2402229Y-511080D01*
X2408788Y-534038D02*
X2408788Y-540598D01*
X2405508Y-543878D01*
X2395669Y-543878D01*
X2395669Y-534038D01*
X2398949Y-530759D01*
X2402229Y-534038D01*
X2402229Y-543878D01*
X2412068Y-553717D02*
X2408788Y-553717D01*
X2408788Y-550437D01*
X2408788Y-556997D01*
X2408788Y-553717D01*
X2398949Y-553717D01*
X2395669Y-556997D01*
X2395669Y-576675D02*
X2395669Y-570116D01*
X2398949Y-566836D01*
X2405508Y-566836D01*
X2408788Y-570116D01*
X2408788Y-576675D01*
X2405508Y-579955D01*
X2402229Y-579955D01*
X2402229Y-566836D01*
X2408788Y-586515D02*
X2395669Y-586515D01*
X2402229Y-586515D01*
X2405508Y-589794D01*
X2408788Y-593074D01*
X2408788Y-596354D01*
X-61684Y-378616D02*
X-64964Y-375337D01*
X-71523Y-375337D01*
X-74803Y-378616D01*
X-74803Y-391736D01*
X-71523Y-395015D01*
X-64964Y-395015D01*
X-61684Y-391736D01*
X-51845Y-395015D02*
X-45285Y-395015D01*
X-42005Y-391736D01*
X-42005Y-385176D01*
X-45285Y-381896D01*
X-51845Y-381896D01*
X-55125Y-385176D01*
X-55125Y-391736D01*
X-51845Y-395015D01*
X-35446Y-395015D02*
X-35446Y-381896D01*
X-25607Y-381896D01*
X-22327Y-385176D01*
X-22327Y-395015D01*
X-15767Y-395015D02*
X-15767Y-381896D01*
X-5928Y-381896D01*
X-2648Y-385176D01*
X-2648Y-395015D01*
X3911Y-395015D02*
X10471Y-395015D01*
X7191Y-395015D01*
X7191Y-381896D01*
X3911Y-381896D01*
X20310Y-395015D02*
X20310Y-381896D01*
X30149Y-381896D01*
X33429Y-385176D01*
X33429Y-395015D01*
X46548Y-401575D02*
X49828Y-401575D01*
X53108Y-398295D01*
X53108Y-381896D01*
X43269Y-381896D01*
X39989Y-385176D01*
X39989Y-391736D01*
X43269Y-395015D01*
X53108Y-395015D01*
X79346Y-375337D02*
X92465Y-375337D01*
X85905Y-375337D01*
X85905Y-395015D01*
X102304Y-395015D02*
X108864Y-395015D01*
X112144Y-391736D01*
X112144Y-385176D01*
X108864Y-381896D01*
X102304Y-381896D01*
X99025Y-385176D01*
X99025Y-391736D01*
X102304Y-395015D01*
X118703Y-381896D02*
X118703Y-391736D01*
X121983Y-395015D01*
X125263Y-391736D01*
X128542Y-395015D01*
X131822Y-391736D01*
X131822Y-381896D01*
X148221Y-395015D02*
X141661Y-395015D01*
X138382Y-391736D01*
X138382Y-385176D01*
X141661Y-381896D01*
X148221Y-381896D01*
X151501Y-385176D01*
X151501Y-388456D01*
X138382Y-388456D01*
X158060Y-381896D02*
X158060Y-395015D01*
X158060Y-388456D01*
X161340Y-385176D01*
X164620Y-381896D01*
X167900Y-381896D01*
D74*
X514339Y-4204134D02*
G03*
X514339Y-4204134I-14142J0D01*
G01*
X1803906Y-1527559D02*
G03*
X1803906Y-1527559I-14142J0D01*
G01*
X1744851Y-828740D02*
G03*
X1744851Y-828740I-14142J0D01*
G01*
X2296032Y-1133858D02*
G03*
X2296032Y-1133858I-14142J0D01*
G01*
X370048Y1326772D02*
G03*
X370048Y1326772I-14142J0D01*
G01*
X521819Y-4855315D02*
G03*
X521819Y-4855315I-14142J0D01*
G01*
X2296032Y-1822835D02*
G03*
X2296032Y-1822835I-14142J0D01*
G01*
X311583Y-3699410D02*
G03*
X311583Y-3699410I-14142J0D01*
G01*
X461583Y950591D02*
G03*
X461583Y950591I-14142J0D01*
G01*
X463386Y2372663D02*
G03*
X363386Y2372663I-50000J250D01*
G01*
X363386Y2163163D02*
G03*
X463386Y2163163I50000J-250D01*
G01*
X69685Y2372663D02*
G03*
X-30315Y2372663I-50000J250D01*
G01*
X-30315Y2163163D02*
G03*
X69685Y2163163I50000J-250D01*
G01*
X69685Y1959277D02*
G03*
X-30315Y1959277I-50000J250D01*
G01*
X-30315Y1749777D02*
G03*
X69685Y1749777I50000J-250D01*
G01*
X266535Y2372663D02*
G03*
X166535Y2372663I-50000J250D01*
G01*
X166535Y2163163D02*
G03*
X266535Y2163163I50000J-250D01*
G01*
X266535Y1959277D02*
G03*
X166535Y1959277I-50000J250D01*
G01*
X166535Y1749777D02*
G03*
X266535Y1749777I50000J-250D01*
G01*
X463386Y1959277D02*
G03*
X363386Y1959277I-50000J250D01*
G01*
X363386Y1749777D02*
G03*
X463386Y1749777I50000J-250D01*
G01*
X831008Y-3000000D02*
X831008Y-2040000D01*
X2603646Y-5637449D02*
X2979630Y-5637449D01*
X2979630Y-2074457D01*
X831008Y-5637449D02*
X831008Y-2074457D01*
X831008Y-5637449D02*
X2603646Y-5637449D01*
X831008Y-2074457D02*
X2979630Y-2074457D01*
X831008Y-2040000D02*
X1660000Y-2040000D01*
X285000Y-100000D02*
X285000Y50000D01*
X-65000Y50000D02*
X285000Y50000D01*
X-65000Y-100000D02*
X-65000Y50000D01*
X-65000Y-100000D02*
X285000Y-100000D01*
X500197Y-4354134D02*
X500197Y-4054134D01*
X197Y-4054134D02*
X500197Y-4054134D01*
X197Y-4354134D02*
X197Y-4054134D01*
X197Y-4354134D02*
X500197Y-4354134D01*
X1078346Y-226378D02*
X1078346Y773622D01*
X1078346Y773603D02*
X2078350Y773622D01*
X2078346Y-226378D02*
X2078346Y773622D01*
X1078346Y-226378D02*
X2078346Y-226378D01*
X1927559Y-603937D02*
X2001559Y-603937D01*
X1927559Y-603937D02*
X1927559Y-529937D01*
X2001559Y-603937D02*
X2342559Y-603937D01*
X1927559Y-529937D02*
X1927559Y-303937D01*
X2342559Y-303937D01*
X2342559Y-603937D02*
X2342559Y-303937D01*
X1789764Y-1427559D02*
X2289764Y-1427559D01*
X2289764Y-1627559D02*
X2289764Y-1427559D01*
X1789764Y-1627559D02*
X2289764Y-1627559D01*
X1789764Y-1627559D02*
X1789764Y-1427559D01*
X1730709Y-728740D02*
X2230709Y-728740D01*
X2230709Y-928740D02*
X2230709Y-728740D01*
X1730709Y-928740D02*
X2230709Y-928740D01*
X1730709Y-928740D02*
X1730709Y-728740D01*
X2281890Y-1033858D02*
X2781890Y-1033858D01*
X2781890Y-1233858D02*
X2781890Y-1033858D01*
X2281890Y-1233858D02*
X2781890Y-1233858D01*
X2281890Y-1233858D02*
X2281890Y-1033858D01*
X-144095Y1226772D02*
X355906Y1226772D01*
X-144095Y1226772D02*
X-144095Y1426772D01*
X355906Y1426772D01*
X355906Y1226772D02*
X355906Y1426772D01*
X7677Y-4955315D02*
X507677Y-4955315D01*
X7677Y-4955315D02*
X7677Y-4755315D01*
X507677Y-4755315D01*
X507677Y-4955315D02*
X507677Y-4755315D01*
X2281890Y-1722835D02*
X2781890Y-1722835D01*
X2781890Y-1922835D02*
X2781890Y-1722835D01*
X2281890Y-1922835D02*
X2781890Y-1922835D01*
X2281890Y-1922835D02*
X2281890Y-1722835D01*
X-2559Y-3799410D02*
X297441Y-3799410D01*
X-2559Y-3799410D02*
X-2559Y-3599410D01*
X297441Y-3599410D01*
X297441Y-3799410D02*
X297441Y-3599410D01*
X-152559Y850591D02*
X447441Y850591D01*
X-152559Y850591D02*
X-152559Y1050591D01*
X447441Y1050591D01*
X447441Y850591D02*
X447441Y1050591D01*
X463386Y2163163D02*
X463386Y2372663D01*
X363386Y2163163D02*
X363386Y2372663D01*
X69685Y2163163D02*
X69685Y2372663D01*
X-30315Y2163163D02*
X-30315Y2372663D01*
X69685Y1749777D02*
X69685Y1959277D01*
X-30315Y1749777D02*
X-30315Y1959277D01*
X266535Y2163163D02*
X266535Y2372663D01*
X166535Y2163163D02*
X166535Y2372663D01*
X266535Y1749777D02*
X266535Y1959277D01*
X166535Y1749777D02*
X166535Y1959277D01*
X463386Y1749777D02*
X463386Y1959277D01*
X363386Y1749777D02*
X363386Y1959277D01*
X2813780Y777165D02*
X3163780Y777165D01*
X2163780Y777165D02*
X2313780Y777165D01*
X2163780Y-222835D02*
X3163780Y-222835D01*
X2163780Y-222835D02*
X2163780Y52165D01*
X2313780Y777165D02*
X2813780Y777165D01*
X2163780Y602165D02*
X2163780Y777165D01*
X2163780Y52165D02*
X2163780Y602165D01*
X3163780Y-222835D02*
X3163780Y777165D01*
X555118Y106299D02*
X657480Y106299D01*
X555118Y-62993D02*
X555118Y106299D01*
X555118Y-62993D02*
X657480Y-62993D01*
X657480Y106299D01*
X255906Y-956693D02*
X255906Y-870079D01*
X255906Y-956693D02*
X433070Y-956693D01*
X433070Y-870079D01*
X255906Y-870079D02*
X433070Y-870079D01*
X255906Y-559055D02*
X433070Y-559055D01*
X433070Y-653543D02*
X433070Y-559055D01*
X255906Y-653543D02*
X433070Y-653543D01*
X255906Y-653543D02*
X255906Y-559055D01*
X354822Y-2999409D02*
X831008Y-2999409D01*
X-177166Y-2999409D02*
X-177166Y-980637D01*
X-177166Y-2999409D02*
X-156398Y-2999409D01*
X1660000Y-2040000D02*
X1660000Y-250000D01*
X1660000Y-2040000D02*
X3169292Y-2040000D01*
X3169292Y-277559D01*
X3169292Y-250000D01*
X1660000Y-250000D02*
X3169292Y-250000D01*
X413386Y-250000D02*
X1660000Y-250000D01*
X413386Y-250000D02*
X413386Y775591D01*
X-177166Y775591D02*
X413386Y775591D01*
X1065905Y-1560000D02*
X1660000Y-1560000D01*
X-177166Y-974409D02*
X-177166Y775591D01*
X720000Y-1560000D02*
X1065905Y-1560000D01*
X3169292Y1868111D02*
X3169292Y2261811D01*
X2431102Y2261811D02*
X3169292Y2261811D01*
X2431102Y1868111D02*
X2431102Y2261811D01*
X2431102Y1868111D02*
X3169292Y1868111D01*
X-177166Y-974409D02*
X700000Y-974409D01*
X700000Y-1560000D02*
X700000Y-974409D01*
X1660000Y-2040000D02*
X1660000Y-1560000D01*
X-156398Y-2999409D02*
X354822Y-2999409D01*
X-177166Y1622047D02*
X972748Y1622047D01*
X972748Y2507875D01*
X-177166Y2507875D02*
X972748Y2507875D01*
X-177166Y1622047D02*
X-177166Y2507875D01*
X700000Y-1560000D02*
X1660000Y-1560000D01*
X1660000Y-250000D01*
X529685Y-2488692D02*
X529685Y-2462454D01*
X542804Y-2449335D01*
X555923Y-2462454D01*
X555923Y-2488692D01*
X555923Y-2469013D01*
X529685Y-2469013D01*
X569042Y-2488692D02*
X569042Y-2462454D01*
X588721Y-2462454D01*
X595281Y-2469013D01*
X595281Y-2488692D01*
X614959Y-2462454D02*
X628078Y-2462454D01*
X634638Y-2469013D01*
X634638Y-2488692D01*
X614959Y-2488692D01*
X608400Y-2482132D01*
X614959Y-2475573D01*
X634638Y-2475573D01*
X647757Y-2488692D02*
X660876Y-2488692D01*
X654317Y-2488692D01*
X654317Y-2449335D01*
X647757Y-2449335D01*
X687115Y-2488692D02*
X700234Y-2488692D01*
X706793Y-2482132D01*
X706793Y-2469013D01*
X700234Y-2462454D01*
X687115Y-2462454D01*
X680555Y-2469013D01*
X680555Y-2482132D01*
X687115Y-2488692D01*
X733032Y-2501811D02*
X739591Y-2501811D01*
X746151Y-2495252D01*
X746151Y-2462454D01*
X726472Y-2462454D01*
X719912Y-2469013D01*
X719912Y-2482132D01*
X726472Y-2488692D01*
X746151Y-2488692D01*
X157441Y-3403823D02*
X157441Y-3443181D01*
X183679Y-3443181D01*
X196798Y-3443181D02*
X209917Y-3443181D01*
X203358Y-3443181D01*
X203358Y-3416942D01*
X196798Y-3416942D01*
X255834Y-3403823D02*
X255834Y-3443181D01*
X236156Y-3443181D01*
X229596Y-3436621D01*
X229596Y-3423502D01*
X236156Y-3416942D01*
X255834Y-3416942D01*
X157441Y-3475052D02*
X183679Y-3475052D01*
X170560Y-3475052D01*
X170560Y-3514410D01*
X196798Y-3475052D02*
X196798Y-3514410D01*
X196798Y-3494731D01*
X203358Y-3488171D01*
X216477Y-3488171D01*
X223036Y-3494731D01*
X223036Y-3514410D01*
X255834Y-3514410D02*
X242715Y-3514410D01*
X236156Y-3507850D01*
X236156Y-3494731D01*
X242715Y-3488171D01*
X255834Y-3488171D01*
X262394Y-3494731D01*
X262394Y-3501290D01*
X236156Y-3501290D01*
X275513Y-3488171D02*
X275513Y-3514410D01*
X275513Y-3501290D01*
X282073Y-3494731D01*
X288632Y-3488171D01*
X295192Y-3488171D01*
X314870Y-3514410D02*
X314870Y-3488171D01*
X321430Y-3488171D01*
X327990Y-3494731D01*
X327990Y-3514410D01*
X327990Y-3494731D01*
X334549Y-3488171D01*
X341109Y-3494731D01*
X341109Y-3514410D01*
X354228Y-3514410D02*
X367347Y-3514410D01*
X360788Y-3514410D01*
X360788Y-3488171D01*
X354228Y-3488171D01*
X387026Y-3514410D02*
X406704Y-3514410D01*
X413264Y-3507850D01*
X406704Y-3501290D01*
X393585Y-3501290D01*
X387026Y-3494731D01*
X393585Y-3488171D01*
X413264Y-3488171D01*
X432943Y-3481612D02*
X432943Y-3488171D01*
X426383Y-3488171D01*
X439502Y-3488171D01*
X432943Y-3488171D01*
X432943Y-3507850D01*
X439502Y-3514410D01*
X465740Y-3514410D02*
X478860Y-3514410D01*
X485419Y-3507850D01*
X485419Y-3494731D01*
X478860Y-3488171D01*
X465740Y-3488171D01*
X459181Y-3494731D01*
X459181Y-3507850D01*
X465740Y-3514410D01*
X498538Y-3488171D02*
X498538Y-3514410D01*
X498538Y-3501290D01*
X505098Y-3494731D01*
X511657Y-3488171D01*
X518217Y-3488171D01*
X2293465Y-1970328D02*
X2306584Y-1970328D01*
X2300024Y-1970328D01*
X2300024Y-2009685D01*
X2293465Y-2009685D01*
X2306584Y-2009685D01*
X2352501Y-1976887D02*
X2345941Y-1970328D01*
X2332822Y-1970328D01*
X2326262Y-1976887D01*
X2326262Y-2003126D01*
X2332822Y-2009685D01*
X2345941Y-2009685D01*
X2352501Y-2003126D01*
X2404977Y-1970328D02*
X2404977Y-2009685D01*
X2404977Y-1990006D01*
X2431215Y-1990006D01*
X2431215Y-1970328D01*
X2431215Y-2009685D01*
X2464013Y-2009685D02*
X2450894Y-2009685D01*
X2444334Y-2003126D01*
X2444334Y-1990006D01*
X2450894Y-1983447D01*
X2464013Y-1983447D01*
X2470573Y-1990006D01*
X2470573Y-1996566D01*
X2444334Y-1996566D01*
X2490251Y-1983447D02*
X2503371Y-1983447D01*
X2509930Y-1990006D01*
X2509930Y-2009685D01*
X2490251Y-2009685D01*
X2483692Y-2003126D01*
X2490251Y-1996566D01*
X2509930Y-1996566D01*
X2529609Y-1976887D02*
X2529609Y-1983447D01*
X2523049Y-1983447D01*
X2536168Y-1983447D01*
X2529609Y-1983447D01*
X2529609Y-2003126D01*
X2536168Y-2009685D01*
X2575526Y-2009685D02*
X2562407Y-2009685D01*
X2555847Y-2003126D01*
X2555847Y-1990006D01*
X2562407Y-1983447D01*
X2575526Y-1983447D01*
X2582085Y-1990006D01*
X2582085Y-1996566D01*
X2555847Y-1996566D01*
X2595204Y-1983447D02*
X2595204Y-2009685D01*
X2595204Y-1996566D01*
X2601764Y-1990006D01*
X2608324Y-1983447D01*
X2614883Y-1983447D01*
X1739250Y-1672840D02*
X1732690Y-1666280D01*
X1719571Y-1666280D01*
X1713012Y-1672840D01*
X1713012Y-1699078D01*
X1719571Y-1705638D01*
X1732690Y-1705638D01*
X1739250Y-1699078D01*
X1739250Y-1685959D01*
X1726131Y-1685959D01*
X1772048Y-1705638D02*
X1758928Y-1705638D01*
X1752369Y-1699078D01*
X1752369Y-1685959D01*
X1758928Y-1679399D01*
X1772048Y-1679399D01*
X1778607Y-1685959D01*
X1778607Y-1692519D01*
X1752369Y-1692519D01*
X1798286Y-1679399D02*
X1811405Y-1679399D01*
X1817965Y-1685959D01*
X1817965Y-1705638D01*
X1798286Y-1705638D01*
X1791726Y-1699078D01*
X1798286Y-1692519D01*
X1817965Y-1692519D01*
X1831084Y-1679399D02*
X1831084Y-1705638D01*
X1831084Y-1692519D01*
X1837643Y-1685959D01*
X1844203Y-1679399D01*
X1850762Y-1679399D01*
X1870441Y-1666280D02*
X1870441Y-1705638D01*
X1890120Y-1705638D01*
X1896679Y-1699078D01*
X1896679Y-1692519D01*
X1896679Y-1685959D01*
X1890120Y-1679399D01*
X1870441Y-1679399D01*
X1916358Y-1705638D02*
X1929477Y-1705638D01*
X1936037Y-1699078D01*
X1936037Y-1685959D01*
X1929477Y-1679399D01*
X1916358Y-1679399D01*
X1909799Y-1685959D01*
X1909799Y-1699078D01*
X1916358Y-1705638D01*
X1949156Y-1679399D02*
X1975394Y-1705638D01*
X1962275Y-1692519D01*
X1975394Y-1679399D01*
X1949156Y-1705638D01*
X2027871Y-1666280D02*
X2027871Y-1705638D01*
X2027871Y-1685959D01*
X2054109Y-1685959D01*
X2054109Y-1666280D01*
X2054109Y-1705638D01*
X2086907Y-1705638D02*
X2073788Y-1705638D01*
X2067228Y-1699078D01*
X2067228Y-1685959D01*
X2073788Y-1679399D01*
X2086907Y-1679399D01*
X2093466Y-1685959D01*
X2093466Y-1692519D01*
X2067228Y-1692519D01*
X2113145Y-1679399D02*
X2126264Y-1679399D01*
X2132824Y-1685959D01*
X2132824Y-1705638D01*
X2113145Y-1705638D01*
X2106586Y-1699078D01*
X2113145Y-1692519D01*
X2132824Y-1692519D01*
X2152503Y-1672840D02*
X2152503Y-1679399D01*
X2145943Y-1679399D01*
X2159062Y-1679399D01*
X2152503Y-1679399D01*
X2152503Y-1699078D01*
X2159062Y-1705638D01*
X2198419Y-1705638D02*
X2185300Y-1705638D01*
X2178741Y-1699078D01*
X2178741Y-1685959D01*
X2185300Y-1679399D01*
X2198419Y-1679399D01*
X2204979Y-1685959D01*
X2204979Y-1692519D01*
X2178741Y-1692519D01*
X2218098Y-1679399D02*
X2218098Y-1705638D01*
X2218098Y-1692519D01*
X2224658Y-1685959D01*
X2231217Y-1679399D01*
X2237777Y-1679399D01*
X1033679Y-475052D02*
X1007441Y-475052D01*
X1007441Y-494731D01*
X1020560Y-494731D01*
X1007441Y-494731D01*
X1007441Y-514409D01*
X1066477Y-514409D02*
X1053358Y-514409D01*
X1046798Y-507850D01*
X1046798Y-494731D01*
X1053358Y-488171D01*
X1066477Y-488171D01*
X1073036Y-494731D01*
X1073036Y-501290D01*
X1046798Y-501290D01*
X1105834Y-514409D02*
X1092715Y-514409D01*
X1086156Y-507850D01*
X1086156Y-494731D01*
X1092715Y-488171D01*
X1105834Y-488171D01*
X1112394Y-494731D01*
X1112394Y-501290D01*
X1086156Y-501290D01*
X1151751Y-475052D02*
X1151751Y-514409D01*
X1132073Y-514409D01*
X1125513Y-507850D01*
X1125513Y-494731D01*
X1132073Y-488171D01*
X1151751Y-488171D01*
X1164870Y-475052D02*
X1164870Y-514409D01*
X1184549Y-514409D01*
X1191109Y-507850D01*
X1191109Y-501290D01*
X1191109Y-494731D01*
X1184549Y-488171D01*
X1164870Y-488171D01*
X1210787Y-488171D02*
X1223907Y-488171D01*
X1230466Y-494731D01*
X1230466Y-514409D01*
X1210787Y-514409D01*
X1204228Y-507850D01*
X1210787Y-501290D01*
X1230466Y-501290D01*
X1269823Y-488171D02*
X1250145Y-488171D01*
X1243585Y-494731D01*
X1243585Y-507850D01*
X1250145Y-514409D01*
X1269823Y-514409D01*
X1282943Y-514409D02*
X1282943Y-475052D01*
X1282943Y-501290D02*
X1302621Y-488171D01*
X1282943Y-501290D02*
X1302621Y-514409D01*
X1722598Y-995906D02*
X1722598Y-969667D01*
X1735717Y-956548D01*
X1748837Y-969667D01*
X1748837Y-995906D01*
X1748837Y-976227D01*
X1722598Y-976227D01*
X1761956Y-969667D02*
X1761956Y-995906D01*
X1761956Y-982787D01*
X1768515Y-976227D01*
X1775075Y-969667D01*
X1781634Y-969667D01*
X1801313Y-969667D02*
X1801313Y-995906D01*
X1801313Y-982787D01*
X1807873Y-976227D01*
X1814432Y-969667D01*
X1820992Y-969667D01*
X1860349Y-995906D02*
X1847230Y-995906D01*
X1840671Y-989346D01*
X1840671Y-976227D01*
X1847230Y-969667D01*
X1860349Y-969667D01*
X1866909Y-976227D01*
X1866909Y-982787D01*
X1840671Y-982787D01*
X1880028Y-995906D02*
X1899707Y-995906D01*
X1906266Y-989346D01*
X1899707Y-982787D01*
X1886588Y-982787D01*
X1880028Y-976227D01*
X1886588Y-969667D01*
X1906266Y-969667D01*
X1925945Y-963108D02*
X1925945Y-969667D01*
X1919385Y-969667D01*
X1932505Y-969667D01*
X1925945Y-969667D01*
X1925945Y-989346D01*
X1932505Y-995906D01*
X1952183Y-995906D02*
X1952183Y-969667D01*
X1958743Y-969667D01*
X1965302Y-976227D01*
X1965302Y-995906D01*
X1965302Y-976227D01*
X1971862Y-969667D01*
X1978421Y-976227D01*
X1978421Y-995906D01*
X2011219Y-995906D02*
X1998100Y-995906D01*
X1991541Y-989346D01*
X1991541Y-976227D01*
X1998100Y-969667D01*
X2011219Y-969667D01*
X2017779Y-976227D01*
X2017779Y-982787D01*
X1991541Y-982787D01*
X2030898Y-995906D02*
X2030898Y-969667D01*
X2050577Y-969667D01*
X2057136Y-976227D01*
X2057136Y-995906D01*
X2076815Y-963108D02*
X2076815Y-969667D01*
X2070255Y-969667D01*
X2083374Y-969667D01*
X2076815Y-969667D01*
X2076815Y-989346D01*
X2083374Y-995906D01*
X2142411Y-956548D02*
X2142411Y-995906D01*
X2142411Y-976227D01*
X2168649Y-976227D01*
X2168649Y-956548D01*
X2168649Y-995906D01*
X2201447Y-995906D02*
X2188328Y-995906D01*
X2181768Y-989346D01*
X2181768Y-976227D01*
X2188328Y-969667D01*
X2201447Y-969667D01*
X2208006Y-976227D01*
X2208006Y-982787D01*
X2181768Y-982787D01*
X2227685Y-969667D02*
X2240804Y-969667D01*
X2247364Y-976227D01*
X2247364Y-995906D01*
X2227685Y-995906D01*
X2221125Y-989346D01*
X2227685Y-982787D01*
X2247364Y-982787D01*
X2267042Y-963108D02*
X2267042Y-969667D01*
X2260483Y-969667D01*
X2273602Y-969667D01*
X2267042Y-969667D01*
X2267042Y-989346D01*
X2273602Y-995906D01*
X2312959Y-995906D02*
X2299840Y-995906D01*
X2293281Y-989346D01*
X2293281Y-976227D01*
X2299840Y-969667D01*
X2312959Y-969667D01*
X2319519Y-976227D01*
X2319519Y-982787D01*
X2293281Y-982787D01*
X2332638Y-969667D02*
X2332638Y-995906D01*
X2332638Y-982787D01*
X2339198Y-976227D01*
X2345757Y-969667D01*
X2352317Y-969667D01*
X2319703Y-1287911D02*
X2313143Y-1281351D01*
X2300024Y-1281351D01*
X2293465Y-1287911D01*
X2293465Y-1314149D01*
X2300024Y-1320709D01*
X2313143Y-1320709D01*
X2319703Y-1314149D01*
X2332822Y-1281351D02*
X2359060Y-1281351D01*
X2345941Y-1281351D01*
X2345941Y-1320709D01*
X2411537Y-1281351D02*
X2411537Y-1320709D01*
X2411537Y-1301030D01*
X2437775Y-1301030D01*
X2437775Y-1281351D01*
X2437775Y-1320709D01*
X2470573Y-1320709D02*
X2457454Y-1320709D01*
X2450894Y-1314149D01*
X2450894Y-1301030D01*
X2457454Y-1294470D01*
X2470573Y-1294470D01*
X2477132Y-1301030D01*
X2477132Y-1307590D01*
X2450894Y-1307590D01*
X2496811Y-1294470D02*
X2509930Y-1294470D01*
X2516490Y-1301030D01*
X2516490Y-1320709D01*
X2496811Y-1320709D01*
X2490251Y-1314149D01*
X2496811Y-1307590D01*
X2516490Y-1307590D01*
X2536169Y-1287911D02*
X2536169Y-1294470D01*
X2529609Y-1294470D01*
X2542728Y-1294470D01*
X2536169Y-1294470D01*
X2536169Y-1314149D01*
X2542728Y-1320709D01*
X2582085Y-1320709D02*
X2568966Y-1320709D01*
X2562407Y-1314149D01*
X2562407Y-1301030D01*
X2568966Y-1294470D01*
X2582085Y-1294470D01*
X2588645Y-1301030D01*
X2588645Y-1307590D01*
X2562407Y-1307590D01*
X2601764Y-1294470D02*
X2601764Y-1320709D01*
X2601764Y-1307590D01*
X2608324Y-1301030D01*
X2614883Y-1294470D01*
X2621443Y-1294470D01*
X910000Y-1950019D02*
X910000Y-2000003D01*
X919997Y-2010000D01*
X939990Y-2010000D01*
X949987Y-2000003D01*
X949987Y-1950019D01*
X969981Y-2010000D02*
X989974Y-2010000D01*
X979977Y-2010000D01*
X979977Y-1950019D01*
X969981Y-1960016D01*
X1059951Y-1950019D02*
X1039958Y-1960016D01*
X1019964Y-1980010D01*
X1019964Y-2000003D01*
X1029961Y-2010000D01*
X1049955Y-2010000D01*
X1059951Y-2000003D01*
X1059951Y-1990006D01*
X1049955Y-1980010D01*
X1019964Y-1980010D01*
X2630000Y-2910000D02*
X2630000Y-2850019D01*
X2659990Y-2850019D01*
X2669987Y-2860016D01*
X2669987Y-2880010D01*
X2659990Y-2890006D01*
X2630000Y-2890006D01*
X2689981Y-2900003D02*
X2699977Y-2910000D01*
X2719971Y-2910000D01*
X2729968Y-2900003D01*
X2729968Y-2860016D01*
X2719971Y-2850019D01*
X2699977Y-2850019D01*
X2689981Y-2860016D01*
X2689981Y-2870013D01*
X2699977Y-2880010D01*
X2729968Y-2880010D01*
X1060000Y-2920000D02*
X1060000Y-2860019D01*
X1089990Y-2860019D01*
X1099987Y-2870016D01*
X1099987Y-2890010D01*
X1089990Y-2900006D01*
X1060000Y-2900006D01*
X1119981Y-2870016D02*
X1129977Y-2860019D01*
X1149971Y-2860019D01*
X1159968Y-2870016D01*
X1159968Y-2880013D01*
X1149971Y-2890010D01*
X1159968Y-2900006D01*
X1159968Y-2910003D01*
X1149971Y-2920000D01*
X1129977Y-2920000D01*
X1119981Y-2910003D01*
X1119981Y-2900006D01*
X1129977Y-2890010D01*
X1119981Y-2880013D01*
X1119981Y-2870016D01*
X1129977Y-2890010D02*
X1149971Y-2890010D01*
X-56000Y84000D02*
X-56000Y123357D01*
X-36321Y123357D01*
X-29762Y116798D01*
X-29762Y103679D01*
X-36321Y97119D01*
X-56000Y97119D01*
X-16643Y116798D02*
X-10083Y123357D01*
X3036Y123357D01*
X9596Y116798D01*
X9596Y110238D01*
X3036Y103679D01*
X-3523Y103679D01*
X3036Y103679D01*
X9596Y97119D01*
X9596Y90560D01*
X3036Y84000D01*
X-10083Y84000D01*
X-16643Y90560D01*
X525011Y851720D02*
X525011Y812362D01*
X544690Y812362D01*
X551250Y818922D01*
X551250Y845160D01*
X544690Y851720D01*
X525011Y851720D01*
X590607Y845160D02*
X584048Y851720D01*
X570928Y851720D01*
X564369Y845160D01*
X564369Y838601D01*
X570928Y832041D01*
X584048Y832041D01*
X590607Y825481D01*
X590607Y818922D01*
X584048Y812362D01*
X570928Y812362D01*
X564369Y818922D01*
X603726Y845160D02*
X610286Y851720D01*
X623405Y851720D01*
X629965Y845160D01*
X629965Y838601D01*
X623405Y832041D01*
X629965Y825481D01*
X629965Y818922D01*
X623405Y812362D01*
X610286Y812362D01*
X603726Y818922D01*
X603726Y825481D01*
X610286Y832041D01*
X603726Y838601D01*
X603726Y845160D01*
X610286Y832041D02*
X623405Y832041D01*
X-56370Y-633334D02*
X-56370Y-683318D01*
X-46373Y-693315D01*
X-26380Y-693315D01*
X-16383Y-683318D01*
X-16383Y-633334D01*
X3611Y-693315D02*
X23604Y-693315D01*
X13607Y-693315D01*
X13607Y-633334D01*
X3611Y-643331D01*
X53594Y-693315D02*
X73588Y-693315D01*
X63591Y-693315D01*
X63591Y-633334D01*
X53594Y-643331D01*
X1117000Y856981D02*
X1117000Y806997D01*
X1126997Y797000D01*
X1146990Y797000D01*
X1156987Y806997D01*
X1156987Y856981D01*
X1176981Y846984D02*
X1186977Y856981D01*
X1206971Y856981D01*
X1216968Y846984D01*
X1216968Y836987D01*
X1206971Y826990D01*
X1196974Y826990D01*
X1206971Y826990D01*
X1216968Y816994D01*
X1216968Y806997D01*
X1206971Y797000D01*
X1186977Y797000D01*
X1176981Y806997D01*
X440945Y-830709D02*
X440945Y-791351D01*
X460623Y-791351D01*
X467183Y-797911D01*
X467183Y-811030D01*
X460623Y-817590D01*
X440945Y-817590D01*
X454064Y-817590D02*
X467183Y-830709D01*
X506540Y-830709D02*
X480302Y-830709D01*
X506540Y-804471D01*
X506540Y-797911D01*
X499981Y-791351D01*
X486862Y-791351D01*
X480302Y-797911D01*
X519660Y-797911D02*
X526219Y-791351D01*
X539338Y-791351D01*
X545898Y-797911D01*
X545898Y-804471D01*
X539338Y-811030D01*
X545898Y-817590D01*
X545898Y-824149D01*
X539338Y-830709D01*
X526219Y-830709D01*
X519660Y-824149D01*
X519660Y-817590D01*
X526219Y-811030D01*
X519660Y-804471D01*
X519660Y-797911D01*
X526219Y-811030D02*
X539338Y-811030D01*
X478012Y-940638D02*
X478012Y-901280D01*
X497690Y-901280D01*
X504250Y-907840D01*
X504250Y-920959D01*
X497690Y-927519D01*
X478012Y-927519D01*
X491131Y-927519D02*
X504250Y-940638D01*
X543607Y-940638D02*
X517369Y-940638D01*
X543607Y-914399D01*
X543607Y-907840D01*
X537048Y-901280D01*
X523928Y-901280D01*
X517369Y-907840D01*
X556726Y-901280D02*
X582965Y-901280D01*
X582965Y-907840D01*
X556726Y-934078D01*
X556726Y-940638D01*
X493237Y-730289D02*
X493237Y-690932D01*
X512915Y-690932D01*
X519475Y-697491D01*
X519475Y-710610D01*
X512915Y-717170D01*
X493237Y-717170D01*
X506356Y-717170D02*
X519475Y-730289D01*
X558832Y-730289D02*
X532594Y-730289D01*
X558832Y-704051D01*
X558832Y-697491D01*
X552273Y-690932D01*
X539154Y-690932D01*
X532594Y-697491D01*
X591630Y-730289D02*
X591630Y-690932D01*
X571952Y-710610D01*
X598190Y-710610D01*
X478012Y-615638D02*
X478012Y-576280D01*
X497690Y-576280D01*
X504250Y-582840D01*
X504250Y-595959D01*
X497690Y-602519D01*
X478012Y-602519D01*
X491131Y-602519D02*
X504250Y-615638D01*
X543607Y-615638D02*
X517369Y-615638D01*
X543607Y-589399D01*
X543607Y-582840D01*
X537048Y-576280D01*
X523928Y-576280D01*
X517369Y-582840D01*
X556726Y-582840D02*
X563286Y-576280D01*
X576405Y-576280D01*
X582965Y-582840D01*
X582965Y-609078D01*
X576405Y-615638D01*
X563286Y-615638D01*
X556726Y-609078D01*
X556726Y-582840D01*
X590551Y1366129D02*
X590551Y1326772D01*
X610230Y1326772D01*
X616789Y1333331D01*
X616789Y1359569D01*
X610230Y1366129D01*
X590551Y1366129D01*
X629909Y1326772D02*
X643028Y1326772D01*
X636468Y1326772D01*
X636468Y1366129D01*
X629909Y1359569D01*
X2153012Y-1915638D02*
X2153012Y-1876280D01*
X2172690Y-1876280D01*
X2179250Y-1882840D01*
X2179250Y-1895959D01*
X2172690Y-1902519D01*
X2153012Y-1902519D01*
X2192369Y-1915638D02*
X2205488Y-1915638D01*
X2198928Y-1915638D01*
X2198928Y-1876280D01*
X2192369Y-1882840D01*
X2225167Y-1915638D02*
X2238286Y-1915638D01*
X2231726Y-1915638D01*
X2231726Y-1876280D01*
X2225167Y-1882840D01*
X12378Y-4670567D02*
X12378Y-4631210D01*
X32057Y-4631210D01*
X38616Y-4637769D01*
X38616Y-4650888D01*
X32057Y-4657448D01*
X12378Y-4657448D01*
X77974Y-4631210D02*
X51735Y-4631210D01*
X51735Y-4650888D01*
X64854Y-4644329D01*
X71414Y-4644329D01*
X77974Y-4650888D01*
X77974Y-4664007D01*
X71414Y-4670567D01*
X58295Y-4670567D01*
X51735Y-4664007D01*
X999016Y-701587D02*
X999016Y-734385D01*
X1005575Y-740945D01*
X1018694Y-740945D01*
X1025254Y-734385D01*
X1025254Y-701587D01*
X1038373Y-740945D02*
X1051492Y-740945D01*
X1044933Y-740945D01*
X1044933Y-701587D01*
X1038373Y-708147D01*
X1071171Y-708147D02*
X1077730Y-701587D01*
X1090850Y-701587D01*
X1097409Y-708147D01*
X1097409Y-734385D01*
X1090850Y-740945D01*
X1077730Y-740945D01*
X1071171Y-734385D01*
X1071171Y-708147D01*
X576772Y460630D02*
X576772Y499987D01*
X596450Y499987D01*
X603010Y493428D01*
X603010Y480308D01*
X596450Y473749D01*
X576772Y473749D01*
X589891Y473749D02*
X603010Y460630D01*
X642367Y499987D02*
X629248Y493428D01*
X616129Y480308D01*
X616129Y467189D01*
X622689Y460630D01*
X635808Y460630D01*
X642367Y467189D01*
X642367Y473749D01*
X635808Y480308D01*
X616129Y480308D01*
X655486Y467189D02*
X662046Y460630D01*
X675165Y460630D01*
X681725Y467189D01*
X681725Y493428D01*
X675165Y499987D01*
X662046Y499987D01*
X655486Y493428D01*
X655486Y486868D01*
X662046Y480308D01*
X681725Y480308D01*
X820090Y668528D02*
X820090Y707885D01*
X839769Y707885D01*
X846328Y701325D01*
X846328Y688206D01*
X839769Y681647D01*
X820090Y681647D01*
X833209Y681647D02*
X846328Y668528D01*
X885686Y707885D02*
X872567Y701325D01*
X859448Y688206D01*
X859448Y675087D01*
X866007Y668528D01*
X879126Y668528D01*
X885686Y675087D01*
X885686Y681647D01*
X879126Y688206D01*
X859448Y688206D01*
X898805Y701325D02*
X905365Y707885D01*
X918484Y707885D01*
X925043Y701325D01*
X925043Y694766D01*
X918484Y688206D01*
X925043Y681647D01*
X925043Y675087D01*
X918484Y668528D01*
X905365Y668528D01*
X898805Y675087D01*
X898805Y681647D01*
X905365Y688206D01*
X898805Y694766D01*
X898805Y701325D01*
X905365Y688206D02*
X918484Y688206D01*
X543307Y346457D02*
X543307Y385814D01*
X562986Y385814D01*
X569545Y379254D01*
X569545Y366135D01*
X562986Y359576D01*
X543307Y359576D01*
X556426Y359576D02*
X569545Y346457D01*
X608903Y385814D02*
X595784Y379254D01*
X582664Y366135D01*
X582664Y353016D01*
X589224Y346457D01*
X602343Y346457D01*
X608903Y353016D01*
X608903Y359576D01*
X602343Y366135D01*
X582664Y366135D01*
X622022Y385814D02*
X648260Y385814D01*
X648260Y379254D01*
X622022Y353016D01*
X622022Y346457D01*
X854011Y-36638D02*
X814654Y-36638D01*
X814654Y-16959D01*
X821214Y-10399D01*
X834333Y-10399D01*
X840892Y-16959D01*
X840892Y-36638D01*
X840892Y-23519D02*
X854011Y-10399D01*
X814654Y28958D02*
X821214Y15839D01*
X834333Y2720D01*
X847452Y2720D01*
X854011Y9279D01*
X854011Y22398D01*
X847452Y28958D01*
X840892Y28958D01*
X834333Y22398D01*
X834333Y2720D01*
X814654Y68315D02*
X814654Y42077D01*
X834333Y42077D01*
X827773Y55196D01*
X827773Y61756D01*
X834333Y68315D01*
X847452Y68315D01*
X854011Y61756D01*
X854011Y48637D01*
X847452Y42077D01*
X535433Y-31496D02*
X496076Y-31496D01*
X496076Y-11817D01*
X502635Y-5258D01*
X515754Y-5258D01*
X522314Y-11817D01*
X522314Y-31496D01*
X522314Y-18377D02*
X535433Y-5258D01*
X496076Y34099D02*
X502635Y20980D01*
X515754Y7861D01*
X528873Y7861D01*
X535433Y14421D01*
X535433Y27540D01*
X528873Y34099D01*
X522314Y34099D01*
X515754Y27540D01*
X515754Y7861D01*
X535433Y66897D02*
X496076Y66897D01*
X515754Y47219D01*
X515754Y73457D01*
X806202Y-835762D02*
X799643Y-842321D01*
X799643Y-855440D01*
X806202Y-862000D01*
X832440Y-862000D01*
X839000Y-855440D01*
X839000Y-842321D01*
X832440Y-835762D01*
X839000Y-796404D02*
X839000Y-822643D01*
X812762Y-796404D01*
X806202Y-796404D01*
X799643Y-802964D01*
X799643Y-816083D01*
X806202Y-822643D01*
X832440Y-783285D02*
X839000Y-776726D01*
X839000Y-763606D01*
X832440Y-757047D01*
X806202Y-757047D01*
X799643Y-763606D01*
X799643Y-776726D01*
X806202Y-783285D01*
X812762Y-783285D01*
X819321Y-776726D01*
X819321Y-757047D01*
X203404Y-1443580D02*
X196844Y-1437021D01*
X183725Y-1437021D01*
X177165Y-1443580D01*
X177165Y-1469818D01*
X183725Y-1476378D01*
X196844Y-1476378D01*
X203404Y-1469818D01*
X242761Y-1476378D02*
X216523Y-1476378D01*
X242761Y-1450140D01*
X242761Y-1443580D01*
X236201Y-1437021D01*
X223082Y-1437021D01*
X216523Y-1443580D01*
X255880Y-1443580D02*
X262440Y-1437021D01*
X275559Y-1437021D01*
X282118Y-1443580D01*
X282118Y-1450140D01*
X275559Y-1456699D01*
X268999Y-1456699D01*
X275559Y-1456699D01*
X282118Y-1463259D01*
X282118Y-1469818D01*
X275559Y-1476378D01*
X262440Y-1476378D01*
X255880Y-1469818D01*
X1126651Y1457341D02*
X1120091Y1450781D01*
X1120091Y1437662D01*
X1126651Y1431102D01*
X1152889Y1431102D01*
X1159449Y1437662D01*
X1159449Y1450781D01*
X1152889Y1457341D01*
X1159449Y1470460D02*
X1159449Y1483579D01*
X1159449Y1477019D01*
X1120091Y1477019D01*
X1126651Y1470460D01*
X1159449Y1503257D02*
X1159449Y1516377D01*
X1159449Y1509817D01*
X1120091Y1509817D01*
X1126651Y1503257D01*
X3087281Y2101041D02*
X3080721Y2094482D01*
X3080721Y2081363D01*
X3087281Y2074803D01*
X3113519Y2074803D01*
X3120079Y2081363D01*
X3120079Y2094482D01*
X3113519Y2101041D01*
X3080721Y2140399D02*
X3080721Y2114160D01*
X3100400Y2114160D01*
X3093840Y2127280D01*
X3093840Y2133839D01*
X3100400Y2140399D01*
X3113519Y2140399D01*
X3120079Y2133839D01*
X3120079Y2120720D01*
X3113519Y2114160D01*
X559055Y-1661430D02*
X559055Y-1694228D01*
X565615Y-1700787D01*
X578734Y-1700787D01*
X585293Y-1694228D01*
X585293Y-1661430D01*
X598413Y-1700787D02*
X611532Y-1700787D01*
X604972Y-1700787D01*
X604972Y-1661430D01*
X598413Y-1667990D01*
X657448Y-1661430D02*
X631210Y-1661430D01*
X631210Y-1681109D01*
X644329Y-1674549D01*
X650889Y-1674549D01*
X657448Y-1681109D01*
X657448Y-1694228D01*
X650889Y-1700787D01*
X637770Y-1700787D01*
X631210Y-1694228D01*
X2956378Y865499D02*
X2956378Y832701D01*
X2962937Y826142D01*
X2976057Y826142D01*
X2982616Y832701D01*
X2982616Y865499D01*
X3021973Y865499D02*
X3008854Y858939D01*
X2995735Y845820D01*
X2995735Y832701D01*
X3002295Y826142D01*
X3015414Y826142D01*
X3021973Y832701D01*
X3021973Y839261D01*
X3015414Y845820D01*
X2995735Y845820D01*
X2765748Y1966523D02*
X2765748Y1933725D01*
X2772308Y1927165D01*
X2785427Y1927165D01*
X2791986Y1933725D01*
X2791986Y1966523D01*
X2831344Y1927165D02*
X2805105Y1927165D01*
X2831344Y1953403D01*
X2831344Y1959963D01*
X2824784Y1966523D01*
X2811665Y1966523D01*
X2805105Y1959963D01*
X1088950Y2080671D02*
X1082391Y2074112D01*
X1082391Y2060993D01*
X1088950Y2054433D01*
X1115188Y2054433D01*
X1121748Y2060993D01*
X1121748Y2074112D01*
X1115188Y2080671D01*
X1121748Y2120029D02*
X1121748Y2093790D01*
X1095510Y2120029D01*
X1088950Y2120029D01*
X1082391Y2113469D01*
X1082391Y2100350D01*
X1088950Y2093790D01*
X1082391Y2133148D02*
X1082391Y2159386D01*
X1088950Y2159386D01*
X1115188Y2133148D01*
X1121748Y2133148D01*
X2485950Y2093671D02*
X2479391Y2087112D01*
X2479391Y2073993D01*
X2485950Y2067433D01*
X2512188Y2067433D01*
X2518748Y2073993D01*
X2518748Y2087112D01*
X2512188Y2093671D01*
X2518748Y2133029D02*
X2518748Y2106790D01*
X2492510Y2133029D01*
X2485950Y2133029D01*
X2479391Y2126469D01*
X2479391Y2113350D01*
X2485950Y2106790D01*
X890431Y1486868D02*
X883871Y1480309D01*
X883871Y1467189D01*
X890431Y1460630D01*
X916669Y1460630D01*
X923228Y1467189D01*
X923228Y1480309D01*
X916669Y1486868D01*
X916669Y1499987D02*
X923228Y1506547D01*
X923228Y1519666D01*
X916669Y1526226D01*
X890431Y1526226D01*
X883871Y1519666D01*
X883871Y1506547D01*
X890431Y1499987D01*
X896990Y1499987D01*
X903550Y1506547D01*
X903550Y1526226D01*
X1018383Y1457341D02*
X1011824Y1450781D01*
X1011824Y1437662D01*
X1018383Y1431102D01*
X1044621Y1431102D01*
X1051181Y1437662D01*
X1051181Y1450781D01*
X1044621Y1457341D01*
X1051181Y1470460D02*
X1051181Y1483579D01*
X1051181Y1477019D01*
X1011824Y1477019D01*
X1018383Y1470460D01*
X1018383Y1503257D02*
X1011824Y1509817D01*
X1011824Y1522936D01*
X1018383Y1529496D01*
X1044621Y1529496D01*
X1051181Y1522936D01*
X1051181Y1509817D01*
X1044621Y1503257D01*
X1018383Y1503257D01*
X1254604Y1457341D02*
X1248044Y1450781D01*
X1248044Y1437662D01*
X1254604Y1431102D01*
X1280842Y1431102D01*
X1287401Y1437662D01*
X1287401Y1450781D01*
X1280842Y1457341D01*
X1287401Y1470460D02*
X1287401Y1483579D01*
X1287401Y1477019D01*
X1248044Y1477019D01*
X1254604Y1470460D01*
X1287401Y1529496D02*
X1287401Y1503257D01*
X1261163Y1529496D01*
X1254604Y1529496D01*
X1248044Y1522936D01*
X1248044Y1509817D01*
X1254604Y1503257D01*
X5378Y-4003567D02*
X5378Y-3964210D01*
X25057Y-3964210D01*
X31616Y-3970769D01*
X31616Y-3983888D01*
X25057Y-3990448D01*
X5378Y-3990448D01*
X64414Y-4003567D02*
X64414Y-3964210D01*
X44735Y-3983888D01*
X70974Y-3983888D01*
X-127016Y1082874D02*
X-127016Y1122231D01*
X-107337Y1122231D01*
X-100778Y1115672D01*
X-100778Y1102553D01*
X-107337Y1095993D01*
X-127016Y1095993D01*
X-87658Y1082874D02*
X-74539Y1082874D01*
X-81099Y1082874D01*
X-81099Y1122231D01*
X-87658Y1115672D01*
X-137795Y1444882D02*
X-137795Y1484239D01*
X-118117Y1484239D01*
X-111557Y1477680D01*
X-111557Y1464561D01*
X-118117Y1458001D01*
X-137795Y1458001D01*
X-72200Y1444882D02*
X-98438Y1444882D01*
X-72200Y1471120D01*
X-72200Y1477680D01*
X-78759Y1484239D01*
X-91878Y1484239D01*
X-98438Y1477680D01*
X34843Y-5301787D02*
X34843Y-5262430D01*
X54521Y-5262430D01*
X61081Y-5268990D01*
X61081Y-5282109D01*
X54521Y-5288668D01*
X34843Y-5288668D01*
X74200Y-5301787D02*
X87319Y-5301787D01*
X80760Y-5301787D01*
X80760Y-5262430D01*
X74200Y-5268990D01*
X106998Y-5268990D02*
X113557Y-5262430D01*
X126676Y-5262430D01*
X133236Y-5268990D01*
X133236Y-5275549D01*
X126676Y-5282109D01*
X120117Y-5282109D01*
X126676Y-5282109D01*
X133236Y-5288668D01*
X133236Y-5295228D01*
X126676Y-5301787D01*
X113557Y-5301787D01*
X106998Y-5295228D01*
X2767773Y-615197D02*
X2767773Y-641436D01*
X2774333Y-647995D01*
X2787452Y-647995D01*
X2794012Y-641436D01*
X2794012Y-615197D01*
X2787452Y-608638D01*
X2774333Y-608638D01*
X2780892Y-621757D02*
X2767773Y-608638D01*
X2774333Y-608638D02*
X2767773Y-615197D01*
X2754654Y-608638D02*
X2741535Y-608638D01*
X2748095Y-608638D01*
X2748095Y-647995D01*
X2754654Y-641436D01*
X2933071Y-887795D02*
X2972428Y-887795D01*
X2972428Y-907474D01*
X2965869Y-914034D01*
X2952749Y-914034D01*
X2946190Y-907474D01*
X2946190Y-887795D01*
X2946190Y-900914D02*
X2933071Y-914034D01*
X2965869Y-927153D02*
X2972428Y-933712D01*
X2972428Y-946831D01*
X2965869Y-953391D01*
X2959309Y-953391D01*
X2952749Y-946831D01*
X2952749Y-940272D01*
X2952749Y-946831D01*
X2946190Y-953391D01*
X2939630Y-953391D01*
X2933071Y-946831D01*
X2933071Y-933712D01*
X2939630Y-927153D01*
X2965869Y-966510D02*
X2972428Y-973070D01*
X2972428Y-986189D01*
X2965869Y-992748D01*
X2959309Y-992748D01*
X2952749Y-986189D01*
X2946190Y-992748D01*
X2939630Y-992748D01*
X2933071Y-986189D01*
X2933071Y-973070D01*
X2939630Y-966510D01*
X2946190Y-966510D01*
X2952749Y-973070D01*
X2959309Y-966510D01*
X2965869Y-966510D01*
X2952749Y-973070D02*
X2952749Y-986189D01*
X2834646Y-887795D02*
X2874003Y-887795D01*
X2874003Y-907474D01*
X2867443Y-914034D01*
X2854324Y-914034D01*
X2847765Y-907474D01*
X2847765Y-887795D01*
X2847765Y-900914D02*
X2834646Y-914034D01*
X2834646Y-946831D02*
X2874003Y-946831D01*
X2854324Y-927153D01*
X2854324Y-953391D01*
X2867443Y-966510D02*
X2874003Y-973070D01*
X2874003Y-986189D01*
X2867443Y-992748D01*
X2860884Y-992748D01*
X2854324Y-986189D01*
X2854324Y-979629D01*
X2854324Y-986189D01*
X2847765Y-992748D01*
X2841205Y-992748D01*
X2834646Y-986189D01*
X2834646Y-973070D01*
X2841205Y-966510D01*
X531496Y1799213D02*
X492139Y1799213D01*
X492139Y1818891D01*
X498698Y1825451D01*
X511817Y1825451D01*
X518377Y1818891D01*
X518377Y1799213D01*
X518377Y1812332D02*
X531496Y1825451D01*
X531496Y1838570D02*
X531496Y1851689D01*
X531496Y1845130D01*
X492139Y1845130D01*
X498698Y1838570D01*
X492139Y1897606D02*
X492139Y1871368D01*
X511817Y1871368D01*
X505258Y1884487D01*
X505258Y1891046D01*
X511817Y1897606D01*
X524937Y1897606D01*
X531496Y1891046D01*
X531496Y1877927D01*
X524937Y1871368D01*
X1467126Y-1000787D02*
X1467126Y-961430D01*
X1486805Y-961430D01*
X1493364Y-967990D01*
X1493364Y-981109D01*
X1486805Y-987668D01*
X1467126Y-987668D01*
X1480245Y-987668D02*
X1493364Y-1000787D01*
X1532722Y-1000787D02*
X1506483Y-1000787D01*
X1532722Y-974549D01*
X1532722Y-967990D01*
X1526162Y-961430D01*
X1513043Y-961430D01*
X1506483Y-967990D01*
X1545841Y-1000787D02*
X1558960Y-1000787D01*
X1552400Y-1000787D01*
X1552400Y-961430D01*
X1545841Y-967990D01*
X1467126Y-900787D02*
X1467126Y-861430D01*
X1486805Y-861430D01*
X1493364Y-867990D01*
X1493364Y-881109D01*
X1486805Y-887668D01*
X1467126Y-887668D01*
X1480245Y-887668D02*
X1493364Y-900787D01*
X1532722Y-900787D02*
X1506483Y-900787D01*
X1532722Y-874549D01*
X1532722Y-867990D01*
X1526162Y-861430D01*
X1513043Y-861430D01*
X1506483Y-867990D01*
X1572079Y-900787D02*
X1545841Y-900787D01*
X1572079Y-874549D01*
X1572079Y-867990D01*
X1565519Y-861430D01*
X1552400Y-861430D01*
X1545841Y-867990D01*
X2555118Y-881890D02*
X2594475Y-881890D01*
X2594475Y-901568D01*
X2587916Y-908128D01*
X2574797Y-908128D01*
X2568237Y-901568D01*
X2568237Y-881890D01*
X2568237Y-895009D02*
X2555118Y-908128D01*
X2555118Y-940926D02*
X2594475Y-940926D01*
X2574797Y-921247D01*
X2574797Y-947485D01*
X2594475Y-986843D02*
X2587916Y-973724D01*
X2574797Y-960605D01*
X2561678Y-960605D01*
X2555118Y-967164D01*
X2555118Y-980283D01*
X2561678Y-986843D01*
X2568237Y-986843D01*
X2574797Y-980283D01*
X2574797Y-960605D01*
X2964567Y-1153543D02*
X2964567Y-1114186D01*
X2984245Y-1114186D01*
X2990805Y-1120746D01*
X2990805Y-1133865D01*
X2984245Y-1140424D01*
X2964567Y-1140424D01*
X2977686Y-1140424D02*
X2990805Y-1153543D01*
X3023603Y-1153543D02*
X3023603Y-1114186D01*
X3003924Y-1133865D01*
X3030162Y-1133865D01*
X3043282Y-1153543D02*
X3056401Y-1153543D01*
X3049841Y-1153543D01*
X3049841Y-1114186D01*
X3043282Y-1120746D01*
X2457012Y-880638D02*
X2496369Y-880638D01*
X2496369Y-900316D01*
X2489809Y-906876D01*
X2476690Y-906876D01*
X2470131Y-900316D01*
X2470131Y-880638D01*
X2470131Y-893757D02*
X2457012Y-906876D01*
X2457012Y-939674D02*
X2496369Y-939674D01*
X2476690Y-919995D01*
X2476690Y-946233D01*
X2496369Y-959352D02*
X2496369Y-985591D01*
X2489809Y-985591D01*
X2463571Y-959352D01*
X2457012Y-959352D01*
X1358268Y-1616142D02*
X1358268Y-1576784D01*
X1377946Y-1576784D01*
X1384506Y-1583344D01*
X1384506Y-1596463D01*
X1377946Y-1603023D01*
X1358268Y-1603023D01*
X1371387Y-1603023D02*
X1384506Y-1616142D01*
X1397625Y-1583344D02*
X1404185Y-1576784D01*
X1417304Y-1576784D01*
X1423863Y-1583344D01*
X1423863Y-1589904D01*
X1417304Y-1596463D01*
X1423863Y-1603023D01*
X1423863Y-1609582D01*
X1417304Y-1616142D01*
X1404185Y-1616142D01*
X1397625Y-1609582D01*
X1397625Y-1603023D01*
X1404185Y-1596463D01*
X1397625Y-1589904D01*
X1397625Y-1583344D01*
X1404185Y-1596463D02*
X1417304Y-1596463D01*
X711055Y-2564724D02*
X750413Y-2564724D01*
X750413Y-2584403D01*
X743853Y-2590963D01*
X730734Y-2590963D01*
X724174Y-2584403D01*
X724174Y-2564724D01*
X724174Y-2577844D02*
X711055Y-2590963D01*
X717615Y-2604082D02*
X711055Y-2610642D01*
X711055Y-2623761D01*
X717615Y-2630320D01*
X743853Y-2630320D01*
X750413Y-2623761D01*
X750413Y-2610642D01*
X743853Y-2604082D01*
X737293Y-2604082D01*
X730734Y-2610642D01*
X730734Y-2630320D01*
X-91535Y-1106509D02*
X-91535Y-1139307D01*
X-84976Y-1145866D01*
X-71857Y-1145866D01*
X-65297Y-1139307D01*
X-65297Y-1106509D01*
X-52178Y-1113068D02*
X-45618Y-1106509D01*
X-32499Y-1106509D01*
X-25940Y-1113068D01*
X-25940Y-1119628D01*
X-32499Y-1126188D01*
X-25940Y-1132747D01*
X-25940Y-1139307D01*
X-32499Y-1145866D01*
X-45618Y-1145866D01*
X-52178Y-1139307D01*
X-52178Y-1132747D01*
X-45618Y-1126188D01*
X-52178Y-1119628D01*
X-52178Y-1113068D01*
X-45618Y-1126188D02*
X-32499Y-1126188D01*
X826772Y2212586D02*
X826772Y2179788D01*
X833331Y2173228D01*
X846450Y2173228D01*
X853010Y2179788D01*
X853010Y2212586D01*
X866129Y2179788D02*
X872689Y2173228D01*
X885808Y2173228D01*
X892367Y2179788D01*
X892367Y2206026D01*
X885808Y2212586D01*
X872689Y2212586D01*
X866129Y2206026D01*
X866129Y2199466D01*
X872689Y2192907D01*
X892367Y2192907D01*
X159748Y735790D02*
X159748Y702993D01*
X166308Y696433D01*
X179427Y696433D01*
X185986Y702993D01*
X185986Y735790D01*
X199105Y696433D02*
X212225Y696433D01*
X205665Y696433D01*
X205665Y735790D01*
X199105Y729231D01*
X258141Y696433D02*
X231903Y696433D01*
X258141Y722671D01*
X258141Y729231D01*
X251582Y735790D01*
X238463Y735790D01*
X231903Y729231D01*
X388462Y-1652896D02*
X381902Y-1659455D01*
X381902Y-1672574D01*
X388462Y-1679134D01*
X414700Y-1679134D01*
X421260Y-1672574D01*
X421260Y-1659455D01*
X414700Y-1652896D01*
X388462Y-1639776D02*
X381902Y-1633217D01*
X381902Y-1620098D01*
X388462Y-1613538D01*
X395022Y-1613538D01*
X401581Y-1620098D01*
X401581Y-1626657D01*
X401581Y-1620098D01*
X408141Y-1613538D01*
X414700Y-1613538D01*
X421260Y-1620098D01*
X421260Y-1633217D01*
X414700Y-1639776D01*
X381902Y-1574181D02*
X388462Y-1587300D01*
X401581Y-1600419D01*
X414700Y-1600419D01*
X421260Y-1593860D01*
X421260Y-1580740D01*
X414700Y-1574181D01*
X408141Y-1574181D01*
X401581Y-1580740D01*
X401581Y-1600419D01*
X917202Y-1743762D02*
X910643Y-1750321D01*
X910643Y-1763440D01*
X917202Y-1770000D01*
X943440Y-1770000D01*
X950000Y-1763440D01*
X950000Y-1750321D01*
X943440Y-1743762D01*
X917202Y-1730643D02*
X910643Y-1724083D01*
X910643Y-1710964D01*
X917202Y-1704404D01*
X923762Y-1704404D01*
X930321Y-1710964D01*
X930321Y-1717524D01*
X930321Y-1710964D01*
X936881Y-1704404D01*
X943440Y-1704404D01*
X950000Y-1710964D01*
X950000Y-1724083D01*
X943440Y-1730643D01*
X910643Y-1691285D02*
X910643Y-1665047D01*
X917202Y-1665047D01*
X943440Y-1691285D01*
X950000Y-1691285D01*
X251969Y-2555118D02*
X251969Y-2515761D01*
X271647Y-2515761D01*
X278207Y-2522320D01*
X278207Y-2535439D01*
X271647Y-2541999D01*
X251969Y-2541999D01*
X265088Y-2541999D02*
X278207Y-2555118D01*
X291326Y-2522320D02*
X297885Y-2515761D01*
X311005Y-2515761D01*
X317564Y-2522320D01*
X317564Y-2528880D01*
X311005Y-2535439D01*
X304445Y-2535439D01*
X311005Y-2535439D01*
X317564Y-2541999D01*
X317564Y-2548559D01*
X311005Y-2555118D01*
X297885Y-2555118D01*
X291326Y-2548559D01*
X330683Y-2522320D02*
X337243Y-2515761D01*
X350362Y-2515761D01*
X356921Y-2522320D01*
X356921Y-2528880D01*
X350362Y-2535439D01*
X343802Y-2535439D01*
X350362Y-2535439D01*
X356921Y-2541999D01*
X356921Y-2548559D01*
X350362Y-2555118D01*
X337243Y-2555118D01*
X330683Y-2548559D01*
X90551Y-2082690D02*
X90551Y-2115488D01*
X97111Y-2122047D01*
X110230Y-2122047D01*
X116789Y-2115488D01*
X116789Y-2082690D01*
X129909Y-2122047D02*
X143028Y-2122047D01*
X136468Y-2122047D01*
X136468Y-2082690D01*
X129909Y-2089249D01*
X162706Y-2089249D02*
X169266Y-2082690D01*
X182385Y-2082690D01*
X188945Y-2089249D01*
X188945Y-2095809D01*
X182385Y-2102369D01*
X175825Y-2102369D01*
X182385Y-2102369D01*
X188945Y-2108928D01*
X188945Y-2115488D01*
X182385Y-2122047D01*
X169266Y-2122047D01*
X162706Y-2115488D01*
X-36181Y-1552414D02*
X-36181Y-1585212D01*
X-29622Y-1591772D01*
X-16502Y-1591772D01*
X-9943Y-1585212D01*
X-9943Y-1552414D01*
X3176Y-1591772D02*
X16295Y-1591772D01*
X9736Y-1591772D01*
X9736Y-1552414D01*
X3176Y-1558974D01*
X55653Y-1591772D02*
X55653Y-1552414D01*
X35974Y-1572093D01*
X62212Y-1572093D01*
X2375337Y-638449D02*
X2375337Y-664688D01*
X2381896Y-671247D01*
X2395015Y-671247D01*
X2401575Y-664688D01*
X2401575Y-638449D01*
X2395015Y-631890D01*
X2381896Y-631890D01*
X2388456Y-645009D02*
X2375337Y-631890D01*
X2381896Y-631890D02*
X2375337Y-638449D01*
X2362217Y-664688D02*
X2355658Y-671247D01*
X2342539Y-671247D01*
X2335979Y-664688D01*
X2335979Y-658128D01*
X2342539Y-651568D01*
X2349098Y-651568D01*
X2342539Y-651568D01*
X2335979Y-645009D01*
X2335979Y-638449D01*
X2342539Y-631890D01*
X2355658Y-631890D01*
X2362217Y-638449D01*
X2378Y-3538567D02*
X2378Y-3499210D01*
X22057Y-3499210D01*
X28616Y-3505769D01*
X28616Y-3518888D01*
X22057Y-3525448D01*
X2378Y-3525448D01*
X67974Y-3499210D02*
X54854Y-3505769D01*
X41735Y-3518888D01*
X41735Y-3532007D01*
X48295Y-3538567D01*
X61414Y-3538567D01*
X67974Y-3532007D01*
X67974Y-3525448D01*
X61414Y-3518888D01*
X41735Y-3518888D01*
X2153012Y-1215638D02*
X2153012Y-1176280D01*
X2172690Y-1176280D01*
X2179250Y-1182840D01*
X2179250Y-1195959D01*
X2172690Y-1202519D01*
X2153012Y-1202519D01*
X2192369Y-1182840D02*
X2198928Y-1176280D01*
X2212048Y-1176280D01*
X2218607Y-1182840D01*
X2218607Y-1189399D01*
X2212048Y-1195959D01*
X2218607Y-1202519D01*
X2218607Y-1209078D01*
X2212048Y-1215638D01*
X2198928Y-1215638D01*
X2192369Y-1209078D01*
X2192369Y-1202519D01*
X2198928Y-1195959D01*
X2192369Y-1189399D01*
X2192369Y-1182840D01*
X2198928Y-1195959D02*
X2212048Y-1195959D01*
X1805748Y-705567D02*
X1805748Y-666210D01*
X1825427Y-666210D01*
X1831986Y-672769D01*
X1831986Y-685888D01*
X1825427Y-692448D01*
X1805748Y-692448D01*
X1845105Y-699007D02*
X1851665Y-705567D01*
X1864784Y-705567D01*
X1871344Y-699007D01*
X1871344Y-672769D01*
X1864784Y-666210D01*
X1851665Y-666210D01*
X1845105Y-672769D01*
X1845105Y-679329D01*
X1851665Y-685888D01*
X1871344Y-685888D01*
X2333012Y-1465638D02*
X2333012Y-1426280D01*
X2352690Y-1426280D01*
X2359250Y-1432840D01*
X2359250Y-1445959D01*
X2352690Y-1452519D01*
X2333012Y-1452519D01*
X2372369Y-1465638D02*
X2385488Y-1465638D01*
X2378928Y-1465638D01*
X2378928Y-1426280D01*
X2372369Y-1432840D01*
X2405167Y-1432840D02*
X2411726Y-1426280D01*
X2424845Y-1426280D01*
X2431405Y-1432840D01*
X2431405Y-1459078D01*
X2424845Y-1465638D01*
X2411726Y-1465638D01*
X2405167Y-1459078D01*
X2405167Y-1432840D01*
X1830709Y-523622D02*
X1830709Y-484265D01*
X1850387Y-484265D01*
X1856947Y-490824D01*
X1856947Y-503943D01*
X1850387Y-510503D01*
X1830709Y-510503D01*
X1870066Y-484265D02*
X1896304Y-484265D01*
X1896304Y-490824D01*
X1870066Y-517062D01*
X1870066Y-523622D01*
X584000Y1097000D02*
X584000Y1136357D01*
X603679Y1136357D01*
X610238Y1129798D01*
X610238Y1116679D01*
X603679Y1110119D01*
X584000Y1110119D01*
X597119Y1110119D02*
X610238Y1097000D01*
X623357Y1136357D02*
X623357Y1097000D01*
X649596Y1097000D01*
X662715Y1097000D02*
X675834Y1097000D01*
X669274Y1097000D01*
X669274Y1136357D01*
X662715Y1129798D01*
X3032378Y2335433D02*
X3032378Y2374790D01*
X3052057Y2374790D01*
X3058616Y2368231D01*
X3058616Y2355112D01*
X3052057Y2348552D01*
X3032378Y2348552D01*
X3045497Y2348552D02*
X3058616Y2335433D01*
X3097974Y2335433D02*
X3071735Y2335433D01*
X3097974Y2361671D01*
X3097974Y2368231D01*
X3091414Y2374790D01*
X3078295Y2374790D01*
X3071735Y2368231D01*
X3111093Y2368231D02*
X3117652Y2374790D01*
X3130771Y2374790D01*
X3137331Y2368231D01*
X3137331Y2361671D01*
X3130771Y2355112D01*
X3124212Y2355112D01*
X3130771Y2355112D01*
X3137331Y2348552D01*
X3137331Y2341993D01*
X3130771Y2335433D01*
X3117652Y2335433D01*
X3111093Y2341993D01*
X334646Y1799213D02*
X295288Y1799213D01*
X295288Y1818891D01*
X301848Y1825451D01*
X314967Y1825451D01*
X321526Y1818891D01*
X321526Y1799213D01*
X321526Y1812332D02*
X334646Y1825451D01*
X295288Y1838570D02*
X295288Y1864808D01*
X301848Y1864808D01*
X328086Y1838570D01*
X334646Y1838570D01*
X301848Y1877927D02*
X295288Y1884487D01*
X295288Y1897606D01*
X301848Y1904166D01*
X328086Y1904166D01*
X334646Y1897606D01*
X334646Y1884487D01*
X328086Y1877927D01*
X301848Y1877927D01*
X334646Y2232283D02*
X295288Y2232283D01*
X295288Y2251962D01*
X301848Y2258522D01*
X314967Y2258522D01*
X321527Y2251962D01*
X321527Y2232283D01*
X321527Y2245403D02*
X334646Y2258522D01*
X295288Y2271641D02*
X295288Y2297879D01*
X301848Y2297879D01*
X328086Y2271641D01*
X334646Y2271641D01*
X334646Y2310998D02*
X334646Y2324117D01*
X334646Y2317558D01*
X295288Y2317558D01*
X301848Y2310998D01*
X137795Y1779527D02*
X98438Y1779527D01*
X98438Y1799206D01*
X104997Y1805766D01*
X118117Y1805766D01*
X124676Y1799206D01*
X124676Y1779527D01*
X124676Y1792647D02*
X137795Y1805766D01*
X98438Y1818885D02*
X98438Y1845123D01*
X104997Y1845123D01*
X131236Y1818885D01*
X137795Y1818885D01*
X137795Y1884480D02*
X137795Y1858242D01*
X111557Y1884480D01*
X104997Y1884480D01*
X98438Y1877921D01*
X98438Y1864802D01*
X104997Y1858242D01*
X137795Y2212598D02*
X98438Y2212598D01*
X98438Y2232277D01*
X104997Y2238837D01*
X118117Y2238837D01*
X124676Y2232277D01*
X124676Y2212598D01*
X124676Y2225718D02*
X137795Y2238837D01*
X98438Y2251956D02*
X98438Y2278194D01*
X104997Y2278194D01*
X131236Y2251956D01*
X137795Y2251956D01*
X104997Y2291313D02*
X98438Y2297873D01*
X98438Y2310992D01*
X104997Y2317551D01*
X111557Y2317551D01*
X118117Y2310992D01*
X118117Y2304432D01*
X118117Y2310992D01*
X124676Y2317551D01*
X131236Y2317551D01*
X137795Y2310992D01*
X137795Y2297873D01*
X131236Y2291313D01*
X531496Y2232283D02*
X492139Y2232283D01*
X492139Y2251962D01*
X498698Y2258522D01*
X511817Y2258522D01*
X518377Y2251962D01*
X518377Y2232283D01*
X518377Y2245403D02*
X531496Y2258522D01*
X492139Y2271641D02*
X492139Y2297879D01*
X498698Y2297879D01*
X524936Y2271641D01*
X531496Y2271641D01*
X531496Y2330677D02*
X492139Y2330677D01*
X511817Y2310998D01*
X511817Y2337236D01*
X350406Y19685D02*
X389764Y19685D01*
X389764Y39364D01*
X383204Y45923D01*
X376645Y45923D01*
X370085Y39364D01*
X370085Y19685D01*
X370085Y39364D01*
X363526Y45923D01*
X356966Y45923D01*
X350406Y39364D01*
X350406Y19685D01*
X389764Y59042D02*
X389764Y72162D01*
X389764Y65602D01*
X350406Y65602D01*
X350406Y59042D01*
X363526Y91840D02*
X383204Y91840D01*
X389764Y98400D01*
X389764Y118078D01*
X363526Y118078D01*
X389764Y150876D02*
X389764Y137757D01*
X383204Y131198D01*
X370085Y131198D01*
X363526Y137757D01*
X363526Y150876D01*
X370085Y157436D01*
X376645Y157436D01*
X376645Y131198D01*
X356966Y177115D02*
X363526Y177115D01*
X363526Y170555D01*
X363526Y183674D01*
X363526Y177115D01*
X383204Y177115D01*
X389764Y183674D01*
X389764Y209912D02*
X389764Y223031D01*
X383204Y229591D01*
X370085Y229591D01*
X363526Y223031D01*
X363526Y209912D01*
X370085Y203353D01*
X383204Y203353D01*
X389764Y209912D01*
X389764Y249270D02*
X389764Y262389D01*
X383204Y268948D01*
X370085Y268948D01*
X363526Y262389D01*
X363526Y249270D01*
X370085Y242710D01*
X383204Y242710D01*
X389764Y249270D01*
X356966Y288627D02*
X363526Y288627D01*
X363526Y282068D01*
X363526Y295187D01*
X363526Y288627D01*
X383204Y288627D01*
X389764Y295187D01*
X350406Y314865D02*
X389764Y314865D01*
X370085Y314865D01*
X363526Y321425D01*
X363526Y334544D01*
X370085Y341104D01*
X389764Y341104D01*
X328012Y1123720D02*
X328012Y1084362D01*
X347690Y1084362D01*
X354250Y1090922D01*
X354250Y1097481D01*
X347690Y1104041D01*
X328012Y1104041D01*
X347690Y1104041D01*
X354250Y1110601D01*
X354250Y1117160D01*
X347690Y1123720D01*
X328012Y1123720D01*
X373928Y1110601D02*
X387048Y1110601D01*
X393607Y1104041D01*
X393607Y1084362D01*
X373928Y1084362D01*
X367369Y1090922D01*
X373928Y1097481D01*
X393607Y1097481D01*
X413286Y1117160D02*
X413286Y1110601D01*
X406726Y1110601D01*
X419845Y1110601D01*
X413286Y1110601D01*
X413286Y1090922D01*
X419845Y1084362D01*
X446084Y1117160D02*
X446084Y1110601D01*
X439524Y1110601D01*
X452643Y1110601D01*
X446084Y1110601D01*
X446084Y1090922D01*
X452643Y1084362D01*
X273622Y1490145D02*
X273622Y1450787D01*
X299860Y1450787D01*
X312979Y1450787D02*
X326099Y1450787D01*
X319539Y1450787D01*
X319539Y1477025D01*
X312979Y1477025D01*
X372015Y1490145D02*
X372015Y1450787D01*
X352337Y1450787D01*
X345777Y1457347D01*
X345777Y1470466D01*
X352337Y1477025D01*
X372015Y1477025D01*
X247441Y-3960052D02*
X247441Y-3999410D01*
X273679Y-3999410D01*
X306477Y-3999410D02*
X293358Y-3999410D01*
X286798Y-3992850D01*
X286798Y-3979731D01*
X293358Y-3973171D01*
X306477Y-3973171D01*
X313036Y-3979731D01*
X313036Y-3986290D01*
X286798Y-3986290D01*
X326156Y-3973171D02*
X339275Y-3999410D01*
X352394Y-3973171D01*
X385192Y-3999410D02*
X372073Y-3999410D01*
X365513Y-3992850D01*
X365513Y-3979731D01*
X372073Y-3973171D01*
X385192Y-3973171D01*
X391751Y-3979731D01*
X391751Y-3986290D01*
X365513Y-3986290D01*
X404870Y-3999410D02*
X417990Y-3999410D01*
X411430Y-3999410D01*
X411430Y-3960052D01*
X404870Y-3960052D01*
X437668Y-3999410D02*
X457347Y-3999410D01*
X463906Y-3992850D01*
X457347Y-3986290D01*
X444228Y-3986290D01*
X437668Y-3979731D01*
X444228Y-3973171D01*
X463906Y-3973171D01*
X172441Y-4635052D02*
X172441Y-4674409D01*
X192120Y-4674409D01*
X198679Y-4667850D01*
X198679Y-4641612D01*
X192120Y-4635052D01*
X172441Y-4635052D01*
X211798Y-4674409D02*
X224917Y-4674409D01*
X218358Y-4674409D01*
X218358Y-4648171D01*
X211798Y-4648171D01*
X244596Y-4674409D02*
X264275Y-4674409D01*
X270834Y-4667850D01*
X264275Y-4661290D01*
X251156Y-4661290D01*
X244596Y-4654731D01*
X251156Y-4648171D01*
X270834Y-4648171D01*
X283954Y-4687529D02*
X283954Y-4648171D01*
X303632Y-4648171D01*
X310192Y-4654731D01*
X310192Y-4667850D01*
X303632Y-4674409D01*
X283954Y-4674409D01*
X323311Y-4674409D02*
X336430Y-4674409D01*
X329870Y-4674409D01*
X329870Y-4635052D01*
X323311Y-4635052D01*
X362668Y-4648171D02*
X375787Y-4648171D01*
X382347Y-4654731D01*
X382347Y-4674409D01*
X362668Y-4674409D01*
X356109Y-4667850D01*
X362668Y-4661290D01*
X382347Y-4661290D01*
X395466Y-4648171D02*
X395466Y-4667850D01*
X402026Y-4674409D01*
X421704Y-4674409D01*
X421704Y-4680969D01*
X415145Y-4687529D01*
X408585Y-4687529D01*
X421704Y-4674409D02*
X421704Y-4648171D01*
X434824Y-4674409D02*
X454502Y-4674409D01*
X461062Y-4667850D01*
X454502Y-4661290D01*
X441383Y-4661290D01*
X434824Y-4654731D01*
X441383Y-4648171D01*
X461062Y-4648171D01*
D75*
X3075378Y2434433D02*
X3075378Y2509433D01*
X2804778Y2717033D02*
X2864778Y2717033D01*
X2775378Y2717033D02*
X2789178Y2717033D01*
X3075378Y2509433D02*
X3075378Y2717033D01*
X2864778Y2717033D02*
X3075378Y2717033D01*
X2789178Y2717033D02*
X2804778Y2717033D01*
X2775378Y2434433D02*
X3075378Y2434433D01*
X2775378Y2434433D02*
X2775378Y2717033D01*
D76*
X34055Y660827D02*
G03*
X84055Y660827I25000J0D01*
G01*
X721063Y2124016D02*
G03*
X771063Y2124016I25000J0D01*
G01*
X2741386Y1987008D02*
X2867370Y1987008D01*
X2741386Y2183858D02*
X2867370Y2183858D01*
X2867370Y1987008D02*
X2867370Y2183858D01*
X2741386Y1987008D02*
X2741386Y2183858D01*
X525591Y-2033465D02*
X525591Y-1722441D01*
X671260Y-2033465D02*
X671260Y-1722441D01*
X525591Y-1722441D02*
X671260Y-1722441D01*
X525591Y-2033465D02*
X671260Y-2033465D01*
X985236Y-1028346D02*
X985236Y-768504D01*
X1130905Y-1028346D02*
X1130905Y-768504D01*
X985236Y-768504D02*
X1130905Y-768504D01*
X985236Y-1028346D02*
X1130905Y-1028346D01*
X683071Y1163386D02*
X809055Y1163386D01*
X683071Y1163386D02*
X683071Y1580709D01*
X809055Y1580709D01*
X809055Y1163386D02*
X809055Y1580709D01*
X-45274Y259251D02*
X163388Y259251D01*
X84058Y660827D02*
X163388Y660827D01*
X-45274Y660827D02*
X34058Y660827D01*
X163388Y259251D02*
X163388Y660827D01*
X-45274Y259251D02*
X-45274Y660827D01*
X15748Y-2486023D02*
X15748Y-2141535D01*
X141732Y-2486023D02*
X141732Y-2141535D01*
X15748Y-2141535D02*
X141732Y-2141535D01*
X15748Y-2486023D02*
X141732Y-2486023D01*
X843502Y-1742127D02*
X843502Y-1738189D01*
X794290Y-1742127D02*
X794290Y-1738189D01*
X3938Y-728347D02*
X129922Y-728347D01*
X3938Y-925197D02*
X129922Y-925197D01*
X3938Y-925197D02*
X3938Y-728347D01*
X129922Y-925197D02*
X129922Y-728347D01*
X753936Y340549D02*
X757874Y340549D01*
X753936Y391731D02*
X757874Y391731D01*
X749338Y22465D02*
X749338Y26403D01*
X698156Y22465D02*
X698156Y26403D01*
X631892Y21653D02*
X631892Y25589D01*
X580710Y21653D02*
X580710Y25589D01*
X344488Y-785433D02*
X348426Y-785433D01*
X344488Y-836613D02*
X348426Y-836613D01*
X344488Y-887795D02*
X348426Y-887795D01*
X344488Y-938975D02*
X348426Y-938975D01*
X344488Y-683071D02*
X348426Y-683071D01*
X344488Y-734251D02*
X348426Y-734251D01*
X344488Y-580709D02*
X348426Y-580709D01*
X344488Y-631889D02*
X348426Y-631889D01*
X2697636Y-566929D02*
X2697636Y-521771D01*
X2440156Y-566929D02*
X2697636Y-566929D01*
X2440156Y-566929D02*
X2440156Y-521771D01*
X3083512Y-568111D02*
X3083512Y-522953D01*
X2826032Y-568111D02*
X3083512Y-568111D01*
X2826032Y-568111D02*
X2826032Y-522953D01*
X2885828Y-811023D02*
X2885828Y-807085D01*
X2842520Y-811023D02*
X2842520Y-807085D01*
X2974408Y-811025D02*
X2974408Y-807087D01*
X2931102Y-811025D02*
X2931102Y-807087D01*
X2502402Y-801535D02*
X2502402Y-797597D01*
X2459096Y-801535D02*
X2459096Y-797597D01*
X2600394Y-801183D02*
X2600394Y-797245D01*
X2557086Y-801183D02*
X2557086Y-797245D01*
X641734Y1722441D02*
X850394Y1722441D01*
X771064Y2124015D02*
X850394Y2124015D01*
X641734Y2124015D02*
X721064Y2124015D01*
X850394Y1722441D02*
X850394Y2124015D01*
X641734Y1722441D02*
X641734Y2124015D01*
X2620078Y2072835D02*
X2620078Y2116141D01*
X2557086Y2072835D02*
X2557086Y2116141D01*
X2990158Y2072833D02*
X2990158Y2116141D01*
X3053150Y2072833D02*
X3053150Y2116141D01*
X1324804Y1311025D02*
X1324804Y1354333D01*
X1230316Y1311025D02*
X1230316Y1354333D01*
X1092518Y1311023D02*
X1092518Y1354331D01*
X1187006Y1311023D02*
X1187006Y1354331D01*
X853542Y1236613D02*
X953542Y1236613D01*
X853542Y1236613D02*
X853542Y1436613D01*
X953542Y1436613D01*
X953542Y1236613D02*
X953542Y1436613D01*
X1046262Y1346455D02*
X1046262Y1350393D01*
X997048Y1346455D02*
X997048Y1350393D01*
X149804Y-1971063D02*
X149804Y-1626575D01*
X23820Y-1971063D02*
X23820Y-1626575D01*
X23820Y-1971063D02*
X149804Y-1971063D01*
X23820Y-1626575D02*
X149804Y-1626575D01*
X34450Y-1397835D02*
X34450Y-1200985D01*
X160434Y-1397835D02*
X160434Y-1200985D01*
X34450Y-1200985D02*
X160434Y-1200985D01*
X34450Y-1397835D02*
X160434Y-1397835D01*
X28738Y-5435827D02*
X628738Y-5435827D01*
X28738Y-5335827D02*
X628738Y-5335827D01*
X28738Y-5435827D02*
X28738Y-5335827D01*
X628738Y-5435827D02*
X628738Y-5335827D01*
X864042Y586708D02*
X867980Y586708D01*
X864042Y630016D02*
X867980Y630016D01*
X844352Y-945535D02*
X844352Y-941597D01*
X795140Y-945535D02*
X795140Y-941597D01*
X96456Y-1477361D02*
X100392Y-1477361D01*
X96456Y-1428147D02*
X100392Y-1428147D01*
X1366734Y-996851D02*
X1370672Y-996851D01*
X1366734Y-945669D02*
X1370672Y-945669D01*
X1366732Y-896851D02*
X1370668Y-896851D01*
X1366732Y-845669D02*
X1370668Y-845669D01*
X999016Y2112205D02*
X999016Y2116141D01*
X1048230Y2112205D02*
X1048230Y2116141D01*
X305120Y-2435039D02*
X309056Y-2435039D01*
X305120Y-2486219D02*
X309056Y-2486219D01*
X1490160Y-1559055D02*
X1490160Y-1555117D01*
X1541340Y-1559055D02*
X1541340Y-1555117D01*
X665336Y-2614533D02*
X665336Y-2610597D01*
X614156Y-2614533D02*
X614156Y-2610597D01*
X2883856Y-1110237D02*
X2887792Y-1110237D01*
X2883856Y-1157481D02*
X2887792Y-1157481D01*
X508858Y-1627955D02*
X508858Y-1624017D01*
X459646Y-1627955D02*
X459646Y-1624017D01*
X761812Y496063D02*
X765748Y496063D01*
X761812Y448819D02*
X765748Y448819D01*
X730512Y1075197D02*
X1844684Y1075197D01*
X730512Y872441D02*
X730512Y1075197D01*
X730512Y872441D02*
X1844684Y872441D01*
X1844684Y1075197D01*
D134*
X634071Y778362D02*
G03*
X625571Y786862I-8500J0D01*
G01*
X625571Y727862D02*
G03*
X634071Y736362I0J8500D01*
G01*
X516453Y786862D02*
G03*
X507953Y778362I0J-8500D01*
G01*
X507953Y736362D02*
G03*
X516453Y727862I8500J0D01*
G01*
X634072Y736363D02*
X634072Y778363D01*
X507954Y736363D02*
X507954Y778363D01*
X516454Y786863D02*
X625572Y786863D01*
X516454Y727863D02*
X625572Y727863D01*
D135*
X746063Y1548228D02*
D03*
D136*
X629680Y787611D02*
D03*
D137*
X639680Y757361D02*
D03*
D138*
X628380Y727511D02*
D03*
%TF.MD5,06af0d078f81df8d2a39449c3e9d55fe*%
M02*
