G04 Layer_Color=65535*
%FSLAX26Y26*%
%MOIN*%
%TF.FileFunction,Legend,Top*%
%TF.Part,Single*%
G01*
G75*
%TA.AperFunction,NonConductor*%
%ADD73C,0.009842*%
%ADD74C,0.023622*%
%ADD75C,0.003937*%
%ADD76C,0.007874*%
%ADD78C,0.010000*%
%ADD79C,0.020000*%
%ADD138C,0.008000*%
%ADD139R,0.025600X0.007300*%
%ADD140R,0.018000X0.067000*%
%ADD141R,0.023000X0.006500*%
%ADD142R,0.125984X0.021654*%
D73*
X187064Y1848196D02*
G03*
X187064Y1848196I-4921J0D01*
G01*
X391001Y1056858D02*
G03*
X391001Y1056858I-4921J0D01*
G01*
X796906Y5162566D02*
G03*
X796906Y5162566I-4921J0D01*
G01*
X3012308Y2359810D02*
G03*
X3012308Y2359810I-4921J0D01*
G01*
X2626434Y2360992D02*
G03*
X2626434Y2360992I-4921J0D01*
G01*
X371119Y2103905D02*
G03*
X371119Y2103905I-4921J0D01*
G01*
X176237Y906858D02*
G03*
X176237Y906858I-4921J0D01*
G01*
X109898Y3699377D02*
G03*
X109898Y3699377I-4921J0D01*
G01*
X1145725Y2283433D02*
G03*
X1145725Y2283433I-4921J0D01*
G01*
X686080Y1329495D02*
G03*
X686080Y1329495I-4921J0D01*
G01*
X2892032Y5227133D02*
G03*
X2892032Y5227133I-4921J0D01*
G01*
D74*
X281552Y1797803D02*
G03*
X281552Y1797803I-11811J0D01*
G01*
X318166Y1105480D02*
G03*
X318166Y1105480I-11811J0D01*
G01*
X888836Y5122803D02*
G03*
X888836Y5122803I-11811J0D01*
G01*
X298284Y2152330D02*
G03*
X298284Y2152330I-11811J0D01*
G01*
X262851Y858236D02*
G03*
X262851Y858236I-11811J0D01*
G01*
X201828Y3659614D02*
G03*
X201828Y3659614I-11811J0D01*
G01*
X1232339Y2230283D02*
G03*
X1232339Y2230283I-11811J0D01*
G01*
X772694Y1276346D02*
G03*
X772694Y1276346I-11811J0D01*
G01*
X2988489Y5182645D02*
G03*
X2988489Y5182645I-11811J0D01*
G01*
D75*
X2996443Y5428423D02*
X2993163Y5431702D01*
X2986603Y5431702D01*
X2983324Y5428423D01*
X2983324Y5425143D01*
X2986603Y5421863D01*
X2993163Y5421863D01*
X2996443Y5418583D01*
X2996443Y5415303D01*
X2993163Y5412024D01*
X2986603Y5412024D01*
X2983324Y5415303D01*
X3012841Y5412024D02*
X3006282Y5412024D01*
X3003002Y5415303D01*
X3003002Y5421863D01*
X3006282Y5425143D01*
X3012841Y5425143D01*
X3016121Y5421863D01*
X3016121Y5418583D01*
X3003002Y5418583D01*
X3022681Y5412024D02*
X3022681Y5425143D01*
X3032520Y5425143D01*
X3035800Y5421863D01*
X3035800Y5412024D01*
X3042359Y5412024D02*
X3052199Y5412024D01*
X3055479Y5415303D01*
X3052199Y5418583D01*
X3045639Y5418583D01*
X3042359Y5421863D01*
X3045639Y5425143D01*
X3055479Y5425143D01*
X3071877Y5412024D02*
X3065318Y5412024D01*
X3062038Y5415303D01*
X3062038Y5421863D01*
X3065318Y5425143D01*
X3071877Y5425143D01*
X3075157Y5421863D01*
X3075157Y5418583D01*
X3062038Y5418583D01*
X2993163Y5398639D02*
X2986603Y5398639D01*
X2983324Y5395359D01*
X2983324Y5382240D01*
X2986603Y5378961D01*
X2993163Y5378961D01*
X2996443Y5382240D01*
X2996443Y5395359D01*
X2993163Y5398639D01*
X3006282Y5378961D02*
X3006282Y5395359D01*
X3006282Y5388800D01*
X3003002Y5388800D01*
X3009562Y5388800D01*
X3006282Y5388800D01*
X3006282Y5395359D01*
X3009562Y5398639D01*
X3022681Y5378961D02*
X3022681Y5395359D01*
X3022681Y5388800D01*
X3019401Y5388800D01*
X3025961Y5388800D01*
X3022681Y5388800D01*
X3022681Y5395359D01*
X3025961Y5398639D01*
X3035800Y5378961D02*
X3045639Y5378961D01*
X3048919Y5382240D01*
X3045639Y5385520D01*
X3039080Y5385520D01*
X3035800Y5388800D01*
X3039080Y5392080D01*
X3048919Y5392080D01*
X3065318Y5378961D02*
X3058758Y5378961D01*
X3055479Y5382240D01*
X3055479Y5388800D01*
X3058758Y5392080D01*
X3065318Y5392080D01*
X3068598Y5388800D01*
X3068598Y5385520D01*
X3055479Y5385520D01*
X3078437Y5395359D02*
X3078437Y5392080D01*
X3075157Y5392080D01*
X3081717Y5392080D01*
X3078437Y5392080D01*
X3078437Y5382240D01*
X3081717Y5378961D01*
X2983324Y5345898D02*
X2983324Y5359017D01*
X2989883Y5365576D01*
X2996443Y5359017D01*
X2996443Y5345898D01*
X2996443Y5355737D01*
X2983324Y5355737D01*
X3016121Y5365576D02*
X3016121Y5345898D01*
X3006282Y5345898D01*
X3003002Y5349177D01*
X3003002Y5355737D01*
X3006282Y5359017D01*
X3016121Y5359017D01*
X3022681Y5339338D02*
X3025961Y5339338D01*
X3029240Y5342618D01*
X3029240Y5359017D01*
X3042359Y5359017D02*
X3042359Y5349177D01*
X3045639Y5345898D01*
X3055479Y5345898D01*
X3055479Y5359017D01*
X3062038Y5345898D02*
X3071877Y5345898D01*
X3075157Y5349177D01*
X3071877Y5352457D01*
X3065318Y5352457D01*
X3062038Y5355737D01*
X3065318Y5359017D01*
X3075157Y5359017D01*
X3084996Y5362296D02*
X3084996Y5359017D01*
X3081717Y5359017D01*
X3088276Y5359017D01*
X3084996Y5359017D01*
X3084996Y5349177D01*
X3088276Y5345898D01*
X2985292Y2746818D02*
X3004971Y2746818D01*
X2998411Y2740259D01*
X3004971Y2733699D01*
X2985292Y2733699D01*
X2985292Y2717300D02*
X2985292Y2723860D01*
X2988572Y2727140D01*
X2995131Y2727140D01*
X2998411Y2723860D01*
X2998411Y2717300D01*
X2995131Y2714021D01*
X2991852Y2714021D01*
X2991852Y2727140D01*
X3001691Y2704181D02*
X2998411Y2704181D01*
X2998411Y2707461D01*
X2998411Y2700902D01*
X2998411Y2704181D01*
X2988572Y2704181D01*
X2985292Y2700902D01*
X2985292Y2681223D02*
X2985292Y2687782D01*
X2988572Y2691062D01*
X2995131Y2691062D01*
X2998411Y2687782D01*
X2998411Y2681223D01*
X2995131Y2677943D01*
X2991852Y2677943D01*
X2991852Y2691062D01*
X2998411Y2671384D02*
X2985292Y2671384D01*
X2991852Y2671384D01*
X2995131Y2668104D01*
X2998411Y2664824D01*
X2998411Y2661544D01*
X3004971Y2632026D02*
X2985292Y2632026D01*
X2995131Y2632026D01*
X2995131Y2618907D01*
X3004971Y2618907D01*
X2985292Y2618907D01*
X2985292Y2602509D02*
X2985292Y2609068D01*
X2988572Y2612348D01*
X2995131Y2612348D01*
X2998411Y2609068D01*
X2998411Y2602509D01*
X2995131Y2599229D01*
X2991852Y2599229D01*
X2991852Y2612348D01*
X2998411Y2589390D02*
X2998411Y2582830D01*
X2995131Y2579550D01*
X2985292Y2579550D01*
X2985292Y2589390D01*
X2988572Y2592669D01*
X2991852Y2589390D01*
X2991852Y2579550D01*
X3001691Y2569711D02*
X2998411Y2569711D01*
X2998411Y2572991D01*
X2998411Y2566431D01*
X2998411Y2569711D01*
X2988572Y2569711D01*
X2985292Y2566431D01*
X2985292Y2546753D02*
X2985292Y2553312D01*
X2988572Y2556592D01*
X2995131Y2556592D01*
X2998411Y2553312D01*
X2998411Y2546753D01*
X2995131Y2543473D01*
X2991852Y2543473D01*
X2991852Y2556592D01*
X2998411Y2536913D02*
X2985292Y2536913D01*
X2991852Y2536913D01*
X2995131Y2533633D01*
X2998411Y2530354D01*
X2998411Y2527074D01*
X2591591Y2756661D02*
X2604710Y2756661D01*
X2611270Y2750101D01*
X2604710Y2743542D01*
X2591591Y2743542D01*
X2601431Y2743542D01*
X2601431Y2756661D01*
X2604710Y2736982D02*
X2591591Y2736982D01*
X2598151Y2736982D01*
X2601431Y2733702D01*
X2604710Y2730423D01*
X2604710Y2727143D01*
X2604710Y2717304D02*
X2591591Y2717304D01*
X2598151Y2717304D01*
X2601431Y2714024D01*
X2604710Y2710744D01*
X2604710Y2707464D01*
X2591591Y2687786D02*
X2591591Y2694345D01*
X2594871Y2697625D01*
X2601431Y2697625D01*
X2604710Y2694345D01*
X2604710Y2687786D01*
X2601431Y2684506D01*
X2598151Y2684506D01*
X2598151Y2697625D01*
X2591591Y2677947D02*
X2591591Y2668107D01*
X2594871Y2664827D01*
X2598151Y2668107D01*
X2598151Y2674667D01*
X2601431Y2677947D01*
X2604710Y2674667D01*
X2604710Y2664827D01*
X2607990Y2654988D02*
X2604710Y2654988D01*
X2604710Y2658268D01*
X2604710Y2651708D01*
X2604710Y2654988D01*
X2594871Y2654988D01*
X2591591Y2651708D01*
X2591591Y2641869D02*
X2604710Y2641869D01*
X2604710Y2638589D01*
X2601431Y2635309D01*
X2591591Y2635309D01*
X2601431Y2635309D01*
X2604710Y2632030D01*
X2601431Y2628750D01*
X2591591Y2628750D01*
X2591591Y2612351D02*
X2591591Y2618911D01*
X2594871Y2622190D01*
X2601431Y2622190D01*
X2604710Y2618911D01*
X2604710Y2612351D01*
X2601431Y2609071D01*
X2598151Y2609071D01*
X2598151Y2622190D01*
X2591591Y2602512D02*
X2604710Y2602512D01*
X2604710Y2592673D01*
X2601431Y2589393D01*
X2591591Y2589393D01*
X2607990Y2579553D02*
X2604710Y2579553D01*
X2604710Y2582833D01*
X2604710Y2576274D01*
X2604710Y2579553D01*
X2594871Y2579553D01*
X2591591Y2576274D01*
X2611270Y2546756D02*
X2591591Y2546756D01*
X2601431Y2546756D01*
X2601431Y2533637D01*
X2611270Y2533637D01*
X2591591Y2533637D01*
X2591591Y2517238D02*
X2591591Y2523797D01*
X2594871Y2527077D01*
X2601431Y2527077D01*
X2604710Y2523797D01*
X2604710Y2517238D01*
X2601431Y2513958D01*
X2598151Y2513958D01*
X2598151Y2527077D01*
X2604710Y2504119D02*
X2604710Y2497559D01*
X2601431Y2494279D01*
X2591591Y2494279D01*
X2591591Y2504119D01*
X2594871Y2507398D01*
X2598151Y2504119D01*
X2598151Y2494279D01*
X2607990Y2484440D02*
X2604710Y2484440D01*
X2604710Y2487720D01*
X2604710Y2481160D01*
X2604710Y2484440D01*
X2594871Y2484440D01*
X2591591Y2481160D01*
X2591591Y2461482D02*
X2591591Y2468041D01*
X2594871Y2471321D01*
X2601431Y2471321D01*
X2604710Y2468041D01*
X2604710Y2461482D01*
X2601431Y2458202D01*
X2598151Y2458202D01*
X2598151Y2471321D01*
X2604710Y2451642D02*
X2591591Y2451642D01*
X2598151Y2451642D01*
X2601431Y2448363D01*
X2604710Y2445083D01*
X2604710Y2441803D01*
X2837654Y5267815D02*
X2840934Y5264535D01*
X2847494Y5264535D01*
X2850773Y5267815D01*
X2850773Y5280934D01*
X2847494Y5284213D01*
X2840934Y5284213D01*
X2837654Y5280934D01*
X2837654Y5277654D01*
X2840934Y5274374D01*
X2850773Y5274374D01*
X2857333Y5284213D02*
X2857333Y5271094D01*
X2863892Y5264535D01*
X2870452Y5271094D01*
X2870452Y5284213D01*
X2896690Y5284213D02*
X2896690Y5264535D01*
X2906529Y5264535D01*
X2909809Y5267815D01*
X2909809Y5280934D01*
X2906529Y5284213D01*
X2896690Y5284213D01*
X2929488Y5280934D02*
X2926208Y5284213D01*
X2919648Y5284213D01*
X2916369Y5280934D01*
X2916369Y5267815D01*
X2919648Y5264535D01*
X2926208Y5264535D01*
X2929488Y5267815D01*
X2936047Y5274374D02*
X2949166Y5274374D01*
X2955726Y5284213D02*
X2955726Y5264535D01*
X2965565Y5264535D01*
X2968845Y5267815D01*
X2968845Y5280934D01*
X2965565Y5284213D01*
X2955726Y5284213D01*
X2988524Y5280934D02*
X2985244Y5284213D01*
X2978684Y5284213D01*
X2975405Y5280934D01*
X2975405Y5267815D01*
X2978684Y5264535D01*
X2985244Y5264535D01*
X2988524Y5267815D01*
X3027881Y5280934D02*
X3024601Y5284213D01*
X3018041Y5284213D01*
X3014762Y5280934D01*
X3014762Y5267815D01*
X3018041Y5264535D01*
X3024601Y5264535D01*
X3027881Y5267815D01*
X3037720Y5264535D02*
X3044280Y5264535D01*
X3047559Y5267815D01*
X3047559Y5274374D01*
X3044280Y5277654D01*
X3037720Y5277654D01*
X3034440Y5274374D01*
X3034440Y5267815D01*
X3037720Y5264535D01*
X3054119Y5264535D02*
X3054119Y5277654D01*
X3063958Y5277654D01*
X3067238Y5274374D01*
X3067238Y5264535D01*
X3073798Y5277654D02*
X3080357Y5264535D01*
X3086917Y5277654D01*
X3103315Y5264535D02*
X3096756Y5264535D01*
X3093476Y5267815D01*
X3093476Y5274374D01*
X3096756Y5277654D01*
X3103315Y5277654D01*
X3106595Y5274374D01*
X3106595Y5271094D01*
X3093476Y5271094D01*
X3113155Y5277654D02*
X3113155Y5264535D01*
X3113155Y5271094D01*
X3116434Y5274374D01*
X3119714Y5277654D01*
X3122994Y5277654D01*
X3136113Y5280934D02*
X3136113Y5277654D01*
X3132833Y5277654D01*
X3139393Y5277654D01*
X3136113Y5277654D01*
X3136113Y5267815D01*
X3139393Y5264535D01*
X3159072Y5264535D02*
X3152512Y5264535D01*
X3149232Y5267815D01*
X3149232Y5274374D01*
X3152512Y5277654D01*
X3159072Y5277654D01*
X3162351Y5274374D01*
X3162351Y5271094D01*
X3149232Y5271094D01*
X3168911Y5277654D02*
X3168911Y5264535D01*
X3168911Y5271094D01*
X3172191Y5274374D01*
X3175470Y5277654D01*
X3178750Y5277654D01*
X134238Y2659541D02*
X130958Y2662820D01*
X124399Y2662820D01*
X121119Y2659541D01*
X121119Y2646421D01*
X124399Y2643142D01*
X130958Y2643142D01*
X134238Y2646421D01*
X144077Y2643142D02*
X150637Y2643142D01*
X153917Y2646421D01*
X153917Y2652981D01*
X150637Y2656261D01*
X144077Y2656261D01*
X140798Y2652981D01*
X140798Y2646421D01*
X144077Y2643142D01*
X160476Y2643142D02*
X160476Y2656261D01*
X170315Y2656261D01*
X173595Y2652981D01*
X173595Y2643142D01*
X180155Y2643142D02*
X180155Y2656261D01*
X189994Y2656261D01*
X193274Y2652981D01*
X193274Y2643142D01*
X199833Y2643142D02*
X206393Y2643142D01*
X203113Y2643142D01*
X203113Y2656261D01*
X199833Y2656261D01*
X216232Y2643142D02*
X216232Y2656261D01*
X226071Y2656261D01*
X229351Y2652981D01*
X229351Y2643142D01*
X242470Y2636582D02*
X245750Y2636582D01*
X249030Y2639862D01*
X249030Y2656261D01*
X239191Y2656261D01*
X235911Y2652981D01*
X235911Y2646421D01*
X239191Y2643142D01*
X249030Y2643142D01*
X275268Y2662820D02*
X288387Y2662820D01*
X281827Y2662820D01*
X281827Y2643142D01*
X298226Y2643142D02*
X304786Y2643142D01*
X308066Y2646421D01*
X308066Y2652981D01*
X304786Y2656261D01*
X298226Y2656261D01*
X294947Y2652981D01*
X294947Y2646421D01*
X298226Y2643142D01*
X314625Y2656261D02*
X314625Y2646421D01*
X317905Y2643142D01*
X321185Y2646421D01*
X324464Y2643142D01*
X327744Y2646421D01*
X327744Y2656261D01*
X344143Y2643142D02*
X337584Y2643142D01*
X334304Y2646421D01*
X334304Y2652981D01*
X337584Y2656261D01*
X344143Y2656261D01*
X347423Y2652981D01*
X347423Y2649701D01*
X334304Y2649701D01*
X353982Y2656261D02*
X353982Y2643142D01*
X353982Y2649701D01*
X357262Y2652981D01*
X360542Y2656261D01*
X363822Y2656261D01*
X849465Y5499264D02*
X875704Y5499264D01*
X875704Y5492705D01*
X849465Y5466467D01*
X849465Y5459907D01*
X875704Y5459907D01*
X888823Y5499264D02*
X888823Y5459907D01*
X888823Y5479586D01*
X915061Y5479586D01*
X915061Y5499264D01*
X915061Y5459907D01*
X849465Y5442587D02*
X849465Y5416348D01*
X862585Y5403229D01*
X875704Y5416348D01*
X875704Y5442587D01*
X895382Y5403229D02*
X908501Y5403229D01*
X915061Y5409789D01*
X915061Y5422908D01*
X908501Y5429467D01*
X895382Y5429467D01*
X888823Y5422908D01*
X888823Y5409789D01*
X895382Y5403229D01*
X928180Y5403229D02*
X941299Y5403229D01*
X934740Y5403229D01*
X934740Y5442587D01*
X928180Y5442587D01*
X967538Y5436027D02*
X967538Y5429467D01*
X960978Y5429467D01*
X974097Y5429467D01*
X967538Y5429467D01*
X967538Y5409789D01*
X974097Y5403229D01*
X1000335Y5429467D02*
X1013455Y5429467D01*
X1020014Y5422908D01*
X1020014Y5403229D01*
X1000335Y5403229D01*
X993776Y5409789D01*
X1000335Y5416348D01*
X1020014Y5416348D01*
X1046252Y5390110D02*
X1052812Y5390110D01*
X1059371Y5396670D01*
X1059371Y5429467D01*
X1039693Y5429467D01*
X1033133Y5422908D01*
X1033133Y5409789D01*
X1039693Y5403229D01*
X1059371Y5403229D01*
X1092169Y5403229D02*
X1079050Y5403229D01*
X1072491Y5409789D01*
X1072491Y5422908D01*
X1079050Y5429467D01*
X1092169Y5429467D01*
X1098729Y5422908D01*
X1098729Y5416348D01*
X1072491Y5416348D01*
X849465Y5333432D02*
X849465Y5372790D01*
X869144Y5372790D01*
X875704Y5366230D01*
X875704Y5353111D01*
X869144Y5346552D01*
X849465Y5346552D01*
X862585Y5346552D02*
X875704Y5333432D01*
X908501Y5333432D02*
X895382Y5333432D01*
X888823Y5339992D01*
X888823Y5353111D01*
X895382Y5359671D01*
X908501Y5359671D01*
X915061Y5353111D01*
X915061Y5346552D01*
X888823Y5346552D01*
X934740Y5333432D02*
X934740Y5366230D01*
X934740Y5353111D01*
X928180Y5353111D01*
X941299Y5353111D01*
X934740Y5353111D01*
X934740Y5366230D01*
X941299Y5372790D01*
D76*
X916985Y5162173D02*
G03*
X966985Y5162173I25000J0D01*
G01*
X229977Y3698984D02*
G03*
X279977Y3698984I25000J0D01*
G01*
X675000Y-700000D02*
X675000Y-400000D01*
X675000Y-700000D02*
X775000Y-700000D01*
X775000Y-400000D01*
X675000Y-400000D02*
X775000Y-400000D01*
X675000Y-300000D02*
X675000Y0D01*
X675000Y-300000D02*
X775000Y-300000D01*
X775000Y0D01*
X675000Y0D02*
X775000Y0D01*
X2040606Y3910598D02*
X2040606Y4113354D01*
X926434Y3910598D02*
X2040606Y3910598D01*
X926434Y3910598D02*
X926434Y4113354D01*
X2040606Y4113354D01*
X957734Y3486976D02*
X961670Y3486976D01*
X957734Y3534220D02*
X961670Y3534220D01*
X655568Y1410202D02*
X655568Y1414140D01*
X704780Y1410202D02*
X704780Y1414140D01*
X3079778Y1880676D02*
X3083714Y1880676D01*
X3079778Y1927920D02*
X3083714Y1927920D01*
X810078Y423624D02*
X810078Y427560D01*
X861258Y423624D02*
X861258Y427560D01*
X1737262Y1479102D02*
X1737262Y1483040D01*
X1686082Y1479102D02*
X1686082Y1483040D01*
X501042Y551938D02*
X504978Y551938D01*
X501042Y603118D02*
X504978Y603118D01*
X1244152Y5150362D02*
X1244152Y5154298D01*
X1194938Y5150362D02*
X1194938Y5154298D01*
X1562654Y2192488D02*
X1566590Y2192488D01*
X1562654Y2141306D02*
X1566590Y2141306D01*
X1562656Y2092488D02*
X1566594Y2092488D01*
X1562656Y2041306D02*
X1566594Y2041306D01*
X292378Y1610010D02*
X296314Y1610010D01*
X292378Y1560796D02*
X296314Y1560796D01*
X991062Y2092622D02*
X991062Y2096560D01*
X1040274Y2092622D02*
X1040274Y2096560D01*
X1059964Y3668172D02*
X1063902Y3668172D01*
X1059964Y3624864D02*
X1063902Y3624864D01*
X824660Y-2397670D02*
X824660Y-2297670D01*
X224660Y-2397670D02*
X224660Y-2297670D01*
X824660Y-2297670D01*
X224660Y-2397670D02*
X824660Y-2397670D01*
X230372Y1640322D02*
X356356Y1640322D01*
X230372Y1837172D02*
X356356Y1837172D01*
X356356Y1640322D02*
X356356Y1837172D01*
X230372Y1640322D02*
X230372Y1837172D01*
X219742Y1411582D02*
X345726Y1411582D01*
X219742Y1067094D02*
X345726Y1067094D01*
X219742Y1067094D02*
X219742Y1411582D01*
X345726Y1067094D02*
X345726Y1411582D01*
X1192970Y4384612D02*
X1192970Y4388550D01*
X1242184Y4384612D02*
X1242184Y4388550D01*
X1149464Y4274770D02*
X1149464Y4474770D01*
X1049464Y4474770D02*
X1149464Y4474770D01*
X1049464Y4274770D02*
X1049464Y4474770D01*
X1049464Y4274770D02*
X1149464Y4274770D01*
X1382928Y4349180D02*
X1382928Y4392488D01*
X1288440Y4349180D02*
X1288440Y4392488D01*
X1426238Y4349182D02*
X1426238Y4392490D01*
X1520726Y4349182D02*
X1520726Y4392490D01*
X3249072Y5110990D02*
X3249072Y5154298D01*
X3186080Y5110990D02*
X3186080Y5154298D01*
X2753008Y5110992D02*
X2753008Y5154298D01*
X2816000Y5110992D02*
X2816000Y5154298D01*
X837656Y4760598D02*
X837656Y5162172D01*
X1046316Y4760598D02*
X1046316Y5162172D01*
X837656Y5162172D02*
X916986Y5162172D01*
X966986Y5162172D02*
X1046316Y5162172D01*
X837656Y4760598D02*
X1046316Y4760598D01*
X2753008Y2236974D02*
X2753008Y2240912D01*
X2796316Y2236974D02*
X2796316Y2240912D01*
X2655018Y2236622D02*
X2655018Y2240560D01*
X2698324Y2236622D02*
X2698324Y2240560D01*
X3127024Y2227132D02*
X3127024Y2231070D01*
X3170330Y2227132D02*
X3170330Y2231070D01*
X3038442Y2227134D02*
X3038442Y2231072D01*
X3081750Y2227134D02*
X3081750Y2231072D01*
X3021954Y2470046D02*
X3021954Y2515204D01*
X3021954Y2470046D02*
X3279434Y2470046D01*
X3279434Y2515204D01*
X2636078Y2471228D02*
X2636078Y2516386D01*
X2636078Y2471228D02*
X2893558Y2471228D01*
X2893558Y2516386D01*
X540410Y2406268D02*
X544348Y2406268D01*
X540410Y2457448D02*
X544348Y2457448D01*
X540410Y2303906D02*
X544348Y2303906D01*
X540410Y2355086D02*
X544348Y2355086D01*
X540410Y2099182D02*
X544348Y2099182D01*
X540410Y2150362D02*
X544348Y2150362D01*
X540410Y2201544D02*
X544348Y2201544D01*
X540410Y2252724D02*
X544348Y2252724D01*
X776632Y3059810D02*
X776632Y3063746D01*
X827814Y3059810D02*
X827814Y3063746D01*
X894078Y3060622D02*
X894078Y3064560D01*
X945260Y3060622D02*
X945260Y3064560D01*
X949858Y3429888D02*
X953796Y3429888D01*
X949858Y3378706D02*
X953796Y3378706D01*
X325844Y2112960D02*
X325844Y2309810D01*
X199860Y2112960D02*
X199860Y2309810D01*
X199860Y2112960D02*
X325844Y2112960D01*
X199860Y2309810D02*
X325844Y2309810D01*
X990212Y1296030D02*
X990212Y1299968D01*
X1039424Y1296030D02*
X1039424Y1299968D01*
X211670Y552134D02*
X337654Y552134D01*
X211670Y896622D02*
X337654Y896622D01*
X337654Y552134D02*
X337654Y896622D01*
X211670Y552134D02*
X211670Y896622D01*
X150648Y3297408D02*
X150648Y3698984D01*
X359310Y3297408D02*
X359310Y3698984D01*
X150648Y3698984D02*
X229980Y3698984D01*
X279980Y3698984D02*
X359310Y3698984D01*
X150648Y3297408D02*
X359310Y3297408D01*
X1004978Y4201542D02*
X1004978Y4618866D01*
X878992Y4618866D02*
X1004978Y4618866D01*
X878992Y4201542D02*
X878992Y4618866D01*
X878992Y4201542D02*
X1004978Y4201542D01*
X1181158Y2009810D02*
X1326828Y2009810D01*
X1181158Y2269654D02*
X1326828Y2269654D01*
X1326828Y2009810D02*
X1326828Y2269654D01*
X1181158Y2009810D02*
X1181158Y2269654D01*
X721512Y1004692D02*
X867182Y1004692D01*
X721512Y1315716D02*
X867182Y1315716D01*
X867182Y1004692D02*
X867182Y1315716D01*
X721512Y1004692D02*
X721512Y1315716D01*
X2937308Y5025164D02*
X2937308Y5222016D01*
X3063292Y5025164D02*
X3063292Y5222016D01*
X2937308Y5222016D02*
X3063292Y5222016D01*
X2937308Y5025164D02*
X3063292Y5025164D01*
D78*
X504142Y-1340000D02*
G03*
X504142Y-1340000I-14142J0D01*
G01*
X559308Y4787935D02*
G03*
X659308Y4787935I50000J-250D01*
G01*
X659308Y4997435D02*
G03*
X559308Y4997435I-50000J250D01*
G01*
X362457Y4787935D02*
G03*
X462457Y4787935I50000J-250D01*
G01*
X462457Y4997435D02*
G03*
X362457Y4997435I-50000J250D01*
G01*
X362457Y5201320D02*
G03*
X462457Y5201320I50000J-250D01*
G01*
X462457Y5410820D02*
G03*
X362457Y5410820I-50000J250D01*
G01*
X165607Y4787935D02*
G03*
X265607Y4787935I50000J-250D01*
G01*
X265607Y4997435D02*
G03*
X165607Y4997435I-50000J250D01*
G01*
X165607Y5201320D02*
G03*
X265607Y5201320I50000J-250D01*
G01*
X265607Y5410820D02*
G03*
X165607Y5410820I-50000J250D01*
G01*
X559308Y5201320D02*
G03*
X659308Y5201320I50000J-250D01*
G01*
X659308Y5410820D02*
G03*
X559308Y5410820I-50000J250D01*
G01*
X657505Y3988747D02*
G03*
X657505Y3988747I-14142J0D01*
G01*
X2491954Y1215322D02*
G03*
X2491954Y1215322I-14142J0D01*
G01*
X717741Y-1817158D02*
G03*
X717741Y-1817158I-14142J0D01*
G01*
X565970Y4364929D02*
G03*
X565970Y4364929I-14142J0D01*
G01*
X2491954Y1904299D02*
G03*
X2491954Y1904299I-14142J0D01*
G01*
X1940773Y2209417D02*
G03*
X1940773Y2209417I-14142J0D01*
G01*
X1999828Y1510598D02*
G03*
X1999828Y1510598I-14142J0D01*
G01*
X490002Y-1440000D02*
X490002Y-1240000D01*
X190002Y-1240000D02*
X490002Y-1240000D01*
X190002Y-1440000D02*
X190002Y-1240000D01*
X190002Y-1440000D02*
X490002Y-1440000D01*
X1855922Y1478158D02*
X1855922Y2788158D01*
X895922Y1478158D02*
X1855922Y1478158D01*
X18756Y4660204D02*
X18756Y5546032D01*
X1168670Y5546032D01*
X1168670Y4660204D02*
X1168670Y5546032D01*
X18756Y4660204D02*
X1168670Y4660204D01*
X39524Y38748D02*
X550744Y38748D01*
X1855922Y998158D02*
X1855922Y1478158D01*
X895922Y1478158D02*
X895922Y2063748D01*
X18756Y2063748D02*
X895922Y2063748D01*
X2627024Y4906268D02*
X3365214Y4906268D01*
X2627024Y4906268D02*
X2627024Y5299968D01*
X3365214Y5299968D01*
X3365214Y4906268D02*
X3365214Y5299968D01*
X915922Y1478158D02*
X1261828Y1478158D01*
X18756Y2063748D02*
X18756Y3813748D01*
X1261828Y1478158D02*
X1855922Y1478158D01*
X18756Y3813748D02*
X609308Y3813748D01*
X609308Y2788158D02*
X609308Y3813748D01*
X609308Y2788158D02*
X1855922Y2788158D01*
X3365214Y2788158D01*
X3365214Y2760598D02*
X3365214Y2788158D01*
X3365214Y998158D02*
X3365214Y2760598D01*
X1855922Y998158D02*
X3365214Y998158D01*
X1855922Y998158D02*
X1855922Y2788158D01*
X18756Y38748D02*
X39524Y38748D01*
X18756Y38748D02*
X18756Y2057520D01*
X550744Y38748D02*
X1026930Y38748D01*
X451828Y2384614D02*
X451828Y2479102D01*
X451828Y2384614D02*
X628992Y2384614D01*
X628992Y2479102D01*
X451828Y2479102D02*
X628992Y2479102D01*
X451828Y2168078D02*
X628992Y2168078D01*
X628992Y2081464D02*
X628992Y2168078D01*
X451828Y2081464D02*
X628992Y2081464D01*
X451828Y2081464D02*
X451828Y2168078D01*
X853402Y2975164D02*
X853402Y3144456D01*
X751040Y2975164D02*
X853402Y2975164D01*
X751040Y2975164D02*
X751040Y3144456D01*
X853402Y3144456D01*
X3359702Y2815322D02*
X3359702Y3815322D01*
X2359702Y3090322D02*
X2359702Y3640322D01*
X2359702Y3815322D01*
X2509702Y3815322D02*
X3009702Y3815322D01*
X2359702Y2815322D02*
X2359702Y3090322D01*
X2359702Y2815322D02*
X3359702Y2815322D01*
X2359702Y3815322D02*
X2509702Y3815322D01*
X3009702Y3815322D02*
X3359702Y3815322D01*
X559308Y4787934D02*
X559308Y4997434D01*
X659308Y4787934D02*
X659308Y4997434D01*
X362458Y4787934D02*
X362458Y4997434D01*
X462458Y4787934D02*
X462458Y4997434D01*
X362458Y5201320D02*
X362458Y5410820D01*
X462458Y5201320D02*
X462458Y5410820D01*
X165608Y4787934D02*
X165608Y4997434D01*
X265608Y4787934D02*
X265608Y4997434D01*
X165608Y5201320D02*
X165608Y5410820D01*
X265608Y5201320D02*
X265608Y5410820D01*
X559308Y5201320D02*
X559308Y5410820D01*
X659308Y5201320D02*
X659308Y5410820D01*
X643364Y3888748D02*
X643364Y4088748D01*
X43364Y4088748D02*
X643364Y4088748D01*
X43364Y3888748D02*
X43364Y4088748D01*
X43364Y3888748D02*
X643364Y3888748D01*
X2477812Y1115322D02*
X2477812Y1315322D01*
X2477812Y1115322D02*
X2977812Y1115322D01*
X2977812Y1315322D01*
X2477812Y1315322D02*
X2977812Y1315322D01*
X703600Y-1917158D02*
X703600Y-1717158D01*
X203600Y-1717158D02*
X703600Y-1717158D01*
X203600Y-1917158D02*
X203600Y-1717158D01*
X203600Y-1917158D02*
X703600Y-1917158D01*
X551828Y4264928D02*
X551828Y4464928D01*
X51828Y4464928D02*
X551828Y4464928D01*
X51828Y4264928D02*
X51828Y4464928D01*
X51828Y4264928D02*
X551828Y4264928D01*
X2477812Y1804298D02*
X2477812Y2004298D01*
X2477812Y1804298D02*
X2977812Y1804298D01*
X2977812Y2004298D01*
X2477812Y2004298D02*
X2977812Y2004298D01*
X1926630Y2109416D02*
X1926630Y2309416D01*
X1926630Y2109416D02*
X2426630Y2109416D01*
X2426630Y2309416D01*
X1926630Y2309416D02*
X2426630Y2309416D01*
X1985686Y1410598D02*
X1985686Y1610598D01*
X1985686Y1410598D02*
X2485686Y1410598D01*
X2485686Y1610598D01*
X1985686Y1610598D02*
X2485686Y1610598D01*
X2538482Y2434220D02*
X2538482Y2734220D01*
X2123482Y2734220D02*
X2538482Y2734220D01*
X2123482Y2508220D02*
X2123482Y2734220D01*
X2197482Y2434220D02*
X2538482Y2434220D01*
X2123482Y2434220D02*
X2123482Y2508220D01*
X2123482Y2434220D02*
X2197482Y2434220D01*
X1274268Y2811780D02*
X2274268Y2811780D01*
X2274268Y3811780D01*
X1274268Y3811760D02*
X2274272Y3811780D01*
X1274268Y2811780D02*
X1274268Y3811780D01*
X130922Y2938158D02*
X480922Y2938158D01*
X130922Y2938158D02*
X130922Y3088158D01*
X480922Y3088158D01*
X480922Y2938158D02*
X480922Y3088158D01*
X1026930Y998158D02*
X1855922Y998158D01*
X1026930Y963700D02*
X3175552Y963700D01*
X1026930Y-2599292D02*
X2799568Y-2599292D01*
X1026930Y-2599292D02*
X1026930Y963700D01*
X3175552Y-2599292D02*
X3175552Y963700D01*
X2799568Y-2599292D02*
X3175552Y-2599292D01*
X1026930Y38158D02*
X1026930Y998158D01*
X2515625Y1750246D02*
X2509065Y1756806D01*
X2495946Y1756806D01*
X2489387Y1750246D01*
X2489387Y1724008D01*
X2495946Y1717448D01*
X2509065Y1717448D01*
X2515625Y1724008D01*
X2528744Y1756806D02*
X2554982Y1756806D01*
X2541863Y1756806D01*
X2541863Y1717448D01*
X2607459Y1756806D02*
X2607459Y1717448D01*
X2607459Y1737127D01*
X2633697Y1737127D01*
X2633697Y1756806D01*
X2633697Y1717448D01*
X2666495Y1717448D02*
X2653376Y1717448D01*
X2646816Y1724008D01*
X2646816Y1737127D01*
X2653376Y1743687D01*
X2666495Y1743687D01*
X2673054Y1737127D01*
X2673054Y1730567D01*
X2646816Y1730567D01*
X2692733Y1743687D02*
X2705852Y1743687D01*
X2712412Y1737127D01*
X2712412Y1717448D01*
X2692733Y1717448D01*
X2686174Y1724008D01*
X2692733Y1730567D01*
X2712412Y1730567D01*
X2732091Y1750246D02*
X2732091Y1743687D01*
X2725531Y1743687D01*
X2738650Y1743687D01*
X2732091Y1743687D01*
X2732091Y1724008D01*
X2738650Y1717448D01*
X2778008Y1717448D02*
X2764888Y1717448D01*
X2758329Y1724008D01*
X2758329Y1737127D01*
X2764888Y1743687D01*
X2778008Y1743687D01*
X2784567Y1737127D01*
X2784567Y1730567D01*
X2758329Y1730567D01*
X2797686Y1743687D02*
X2797686Y1717448D01*
X2797686Y1730567D01*
X2804246Y1737127D01*
X2810805Y1743687D01*
X2817365Y1743687D01*
X1229601Y2563105D02*
X1203363Y2563105D01*
X1203363Y2543426D01*
X1216482Y2543426D01*
X1203363Y2543426D01*
X1203363Y2523747D01*
X1262399Y2523747D02*
X1249280Y2523747D01*
X1242720Y2530307D01*
X1242720Y2543426D01*
X1249280Y2549986D01*
X1262399Y2549986D01*
X1268959Y2543426D01*
X1268959Y2536867D01*
X1242720Y2536867D01*
X1301756Y2523747D02*
X1288637Y2523747D01*
X1282078Y2530307D01*
X1282078Y2543426D01*
X1288637Y2549986D01*
X1301756Y2549986D01*
X1308316Y2543426D01*
X1308316Y2536867D01*
X1282078Y2536867D01*
X1347673Y2563105D02*
X1347673Y2523747D01*
X1327995Y2523747D01*
X1321435Y2530307D01*
X1321435Y2543426D01*
X1327995Y2549986D01*
X1347673Y2549986D01*
X1360793Y2563105D02*
X1360793Y2523747D01*
X1380471Y2523747D01*
X1387031Y2530307D01*
X1387031Y2536867D01*
X1387031Y2543426D01*
X1380471Y2549986D01*
X1360793Y2549986D01*
X1406710Y2549986D02*
X1419829Y2549986D01*
X1426388Y2543426D01*
X1426388Y2523747D01*
X1406710Y2523747D01*
X1400150Y2530307D01*
X1406710Y2536867D01*
X1426388Y2536867D01*
X1465746Y2549986D02*
X1446067Y2549986D01*
X1439507Y2543426D01*
X1439507Y2530307D01*
X1446067Y2523747D01*
X1465746Y2523747D01*
X1478865Y2523747D02*
X1478865Y2563105D01*
X1478865Y2536867D02*
X1498543Y2549986D01*
X1478865Y2536867D02*
X1498543Y2523747D01*
X725607Y549465D02*
X725607Y575703D01*
X738726Y588822D01*
X751845Y575703D01*
X751845Y549465D01*
X751845Y569144D01*
X725607Y569144D01*
X764965Y549465D02*
X764965Y575703D01*
X784643Y575703D01*
X791203Y569144D01*
X791203Y549465D01*
X810881Y575703D02*
X824001Y575703D01*
X830560Y569144D01*
X830560Y549465D01*
X810881Y549465D01*
X804322Y556025D01*
X810881Y562584D01*
X830560Y562584D01*
X843679Y549465D02*
X856798Y549465D01*
X850239Y549465D01*
X850239Y588822D01*
X843679Y588822D01*
X883037Y549465D02*
X896156Y549465D01*
X902715Y556025D01*
X902715Y569144D01*
X896156Y575703D01*
X883037Y575703D01*
X876477Y569144D01*
X876477Y556025D01*
X883037Y549465D01*
X928954Y536346D02*
X935513Y536346D01*
X942073Y542905D01*
X942073Y575703D01*
X922394Y575703D01*
X915835Y569144D01*
X915835Y556025D01*
X922394Y549465D01*
X942073Y549465D01*
X2489387Y1067829D02*
X2502506Y1067829D01*
X2495946Y1067829D01*
X2495946Y1028472D01*
X2489387Y1028472D01*
X2502506Y1028472D01*
X2548423Y1061270D02*
X2541863Y1067829D01*
X2528744Y1067829D01*
X2522184Y1061270D01*
X2522184Y1035032D01*
X2528744Y1028472D01*
X2541863Y1028472D01*
X2548423Y1035032D01*
X2600899Y1067829D02*
X2600899Y1028472D01*
X2600899Y1048151D01*
X2627137Y1048151D01*
X2627137Y1067829D01*
X2627137Y1028472D01*
X2659935Y1028472D02*
X2646816Y1028472D01*
X2640257Y1035032D01*
X2640257Y1048151D01*
X2646816Y1054710D01*
X2659935Y1054710D01*
X2666495Y1048151D01*
X2666495Y1041591D01*
X2640257Y1041591D01*
X2686174Y1054710D02*
X2699293Y1054710D01*
X2705852Y1048151D01*
X2705852Y1028472D01*
X2686174Y1028472D01*
X2679614Y1035032D01*
X2686174Y1041591D01*
X2705852Y1041591D01*
X2725531Y1061270D02*
X2725531Y1054710D01*
X2718971Y1054710D01*
X2732090Y1054710D01*
X2725531Y1054710D01*
X2725531Y1035032D01*
X2732090Y1028472D01*
X2771448Y1028472D02*
X2758329Y1028472D01*
X2751769Y1035032D01*
X2751769Y1048151D01*
X2758329Y1054710D01*
X2771448Y1054710D01*
X2778007Y1048151D01*
X2778007Y1041591D01*
X2751769Y1041591D01*
X2791127Y1054710D02*
X2791127Y1028472D01*
X2791127Y1041591D01*
X2797686Y1048151D01*
X2804246Y1054710D01*
X2810805Y1054710D01*
X1918521Y2042251D02*
X1918521Y2068490D01*
X1931640Y2081609D01*
X1944759Y2068490D01*
X1944759Y2042251D01*
X1944759Y2061930D01*
X1918521Y2061930D01*
X1957878Y2068490D02*
X1957878Y2042251D01*
X1957878Y2055370D01*
X1964438Y2061930D01*
X1970997Y2068490D01*
X1977557Y2068490D01*
X1997235Y2068490D02*
X1997235Y2042251D01*
X1997235Y2055370D01*
X2003795Y2061930D01*
X2010354Y2068490D01*
X2016914Y2068490D01*
X2056271Y2042251D02*
X2043152Y2042251D01*
X2036593Y2048811D01*
X2036593Y2061930D01*
X2043152Y2068490D01*
X2056271Y2068490D01*
X2062831Y2061930D01*
X2062831Y2055370D01*
X2036593Y2055370D01*
X2075950Y2042251D02*
X2095629Y2042251D01*
X2102188Y2048811D01*
X2095629Y2055370D01*
X2082510Y2055370D01*
X2075950Y2061930D01*
X2082510Y2068490D01*
X2102188Y2068490D01*
X2121867Y2075049D02*
X2121867Y2068490D01*
X2115307Y2068490D01*
X2128427Y2068490D01*
X2121867Y2068490D01*
X2121867Y2048811D01*
X2128427Y2042251D01*
X2148105Y2042251D02*
X2148105Y2068490D01*
X2154665Y2068490D01*
X2161224Y2061930D01*
X2161224Y2042251D01*
X2161224Y2061930D01*
X2167784Y2068490D01*
X2174343Y2061930D01*
X2174343Y2042251D01*
X2207141Y2042251D02*
X2194022Y2042251D01*
X2187463Y2048811D01*
X2187463Y2061930D01*
X2194022Y2068490D01*
X2207141Y2068490D01*
X2213701Y2061930D01*
X2213701Y2055370D01*
X2187463Y2055370D01*
X2226820Y2042251D02*
X2226820Y2068490D01*
X2246499Y2068490D01*
X2253058Y2061930D01*
X2253058Y2042251D01*
X2272737Y2075049D02*
X2272737Y2068490D01*
X2266177Y2068490D01*
X2279297Y2068490D01*
X2272737Y2068490D01*
X2272737Y2048811D01*
X2279297Y2042251D01*
X2338333Y2081609D02*
X2338333Y2042251D01*
X2338333Y2061930D01*
X2364571Y2061930D01*
X2364571Y2081609D01*
X2364571Y2042251D01*
X2397369Y2042251D02*
X2384250Y2042251D01*
X2377690Y2048811D01*
X2377690Y2061930D01*
X2384250Y2068490D01*
X2397369Y2068490D01*
X2403928Y2061930D01*
X2403928Y2055370D01*
X2377690Y2055370D01*
X2423607Y2068490D02*
X2436726Y2068490D01*
X2443286Y2061930D01*
X2443286Y2042251D01*
X2423607Y2042251D01*
X2417048Y2048811D01*
X2423607Y2055370D01*
X2443286Y2055370D01*
X2462965Y2075049D02*
X2462965Y2068490D01*
X2456405Y2068490D01*
X2469524Y2068490D01*
X2462965Y2068490D01*
X2462965Y2048811D01*
X2469524Y2042251D01*
X2508881Y2042251D02*
X2495762Y2042251D01*
X2489203Y2048811D01*
X2489203Y2061930D01*
X2495762Y2068490D01*
X2508881Y2068490D01*
X2515441Y2061930D01*
X2515441Y2055370D01*
X2489203Y2055370D01*
X2528560Y2068490D02*
X2528560Y2042251D01*
X2528560Y2055370D01*
X2535120Y2061930D01*
X2541679Y2068490D01*
X2548239Y2068490D01*
X200000Y-1089414D02*
X200000Y-1128771D01*
X226238Y-1128771D01*
X239357Y-1128771D02*
X252476Y-1128771D01*
X245917Y-1128771D01*
X245917Y-1102533D01*
X239357Y-1102533D01*
X298393Y-1089414D02*
X298393Y-1128771D01*
X278715Y-1128771D01*
X272155Y-1122211D01*
X272155Y-1109092D01*
X278715Y-1102533D01*
X298393Y-1102533D01*
X200000Y-1160643D02*
X226238Y-1160643D01*
X213119Y-1160643D01*
X213119Y-1200000D01*
X239357Y-1160643D02*
X239357Y-1200000D01*
X239357Y-1180321D01*
X245917Y-1173762D01*
X259036Y-1173762D01*
X265596Y-1180321D01*
X265596Y-1200000D01*
X298394Y-1200000D02*
X285274Y-1200000D01*
X278715Y-1193440D01*
X278715Y-1180321D01*
X285274Y-1173762D01*
X298394Y-1173762D01*
X304953Y-1180321D01*
X304953Y-1186881D01*
X278715Y-1186881D01*
X318072Y-1173762D02*
X318072Y-1200000D01*
X318072Y-1186881D01*
X324632Y-1180321D01*
X331191Y-1173762D01*
X337751Y-1173762D01*
X357430Y-1200000D02*
X357430Y-1173762D01*
X363989Y-1173762D01*
X370549Y-1180321D01*
X370549Y-1200000D01*
X370549Y-1180321D01*
X377108Y-1173762D01*
X383668Y-1180321D01*
X383668Y-1200000D01*
X396787Y-1200000D02*
X409906Y-1200000D01*
X403347Y-1200000D01*
X403347Y-1173762D01*
X396787Y-1173762D01*
X429585Y-1200000D02*
X449264Y-1200000D01*
X455823Y-1193440D01*
X449264Y-1186881D01*
X436144Y-1186881D01*
X429585Y-1180321D01*
X436144Y-1173762D01*
X455823Y-1173762D01*
X475502Y-1167202D02*
X475502Y-1173762D01*
X468942Y-1173762D01*
X482061Y-1173762D01*
X475502Y-1173762D01*
X475502Y-1193440D01*
X482061Y-1200000D01*
X508300Y-1200000D02*
X521419Y-1200000D01*
X527978Y-1193440D01*
X527978Y-1180321D01*
X521419Y-1173762D01*
X508300Y-1173762D01*
X501740Y-1180321D01*
X501740Y-1193440D01*
X508300Y-1200000D01*
X541097Y-1173762D02*
X541097Y-1200000D01*
X541097Y-1186881D01*
X547657Y-1180321D01*
X554216Y-1173762D01*
X560776Y-1173762D01*
X1935172Y1365317D02*
X1928612Y1371877D01*
X1915493Y1371877D01*
X1908934Y1365317D01*
X1908934Y1339079D01*
X1915493Y1332519D01*
X1928612Y1332519D01*
X1935172Y1339079D01*
X1935172Y1352198D01*
X1922053Y1352198D01*
X1967970Y1332519D02*
X1954851Y1332519D01*
X1948291Y1339079D01*
X1948291Y1352198D01*
X1954851Y1358757D01*
X1967970Y1358757D01*
X1974529Y1352198D01*
X1974529Y1345638D01*
X1948291Y1345638D01*
X1994208Y1358757D02*
X2007327Y1358757D01*
X2013887Y1352198D01*
X2013887Y1332519D01*
X1994208Y1332519D01*
X1987648Y1339079D01*
X1994208Y1345638D01*
X2013887Y1345638D01*
X2027006Y1358757D02*
X2027006Y1332519D01*
X2027006Y1345638D01*
X2033565Y1352198D01*
X2040125Y1358757D01*
X2046685Y1358757D01*
X2066363Y1371877D02*
X2066363Y1332519D01*
X2086042Y1332519D01*
X2092601Y1339079D01*
X2092601Y1345638D01*
X2092601Y1352198D01*
X2086042Y1358757D01*
X2066363Y1358757D01*
X2112280Y1332519D02*
X2125399Y1332519D01*
X2131959Y1339079D01*
X2131959Y1352198D01*
X2125399Y1358757D01*
X2112280Y1358757D01*
X2105721Y1352198D01*
X2105721Y1339079D01*
X2112280Y1332519D01*
X2145078Y1358757D02*
X2171316Y1332519D01*
X2158197Y1345638D01*
X2171316Y1358757D01*
X2145078Y1332519D01*
X2223793Y1371877D02*
X2223793Y1332519D01*
X2223793Y1352198D01*
X2250031Y1352198D01*
X2250031Y1371877D01*
X2250031Y1332519D01*
X2282829Y1332519D02*
X2269710Y1332519D01*
X2263150Y1339079D01*
X2263150Y1352198D01*
X2269710Y1358757D01*
X2282829Y1358757D01*
X2289388Y1352198D01*
X2289388Y1345638D01*
X2263150Y1345638D01*
X2309067Y1358757D02*
X2322186Y1358757D01*
X2328746Y1352198D01*
X2328746Y1332519D01*
X2309067Y1332519D01*
X2302508Y1339079D01*
X2309067Y1345638D01*
X2328746Y1345638D01*
X2348425Y1365317D02*
X2348425Y1358757D01*
X2341865Y1358757D01*
X2354984Y1358757D01*
X2348425Y1358757D01*
X2348425Y1339079D01*
X2354984Y1332519D01*
X2394341Y1332519D02*
X2381222Y1332519D01*
X2374663Y1339079D01*
X2374663Y1352198D01*
X2381222Y1358757D01*
X2394341Y1358757D01*
X2400901Y1352198D01*
X2400901Y1345638D01*
X2374663Y1345638D01*
X2414020Y1358757D02*
X2414020Y1332519D01*
X2414020Y1345638D01*
X2420580Y1352198D01*
X2427139Y1358757D01*
X2433699Y1358757D01*
X225000Y-535643D02*
X225000Y-575000D01*
X251238Y-575000D01*
X270917Y-575000D02*
X284036Y-575000D01*
X290596Y-568440D01*
X290596Y-555321D01*
X284036Y-548762D01*
X270917Y-548762D01*
X264357Y-555321D01*
X264357Y-568440D01*
X270917Y-575000D01*
X303715Y-575000D02*
X303715Y-548762D01*
X323394Y-548762D01*
X329953Y-555321D01*
X329953Y-575000D01*
X356191Y-588119D02*
X362751Y-588119D01*
X369310Y-581560D01*
X369310Y-548762D01*
X349632Y-548762D01*
X343072Y-555321D01*
X343072Y-568440D01*
X349632Y-575000D01*
X369310Y-575000D01*
X421787Y-535643D02*
X421787Y-575000D01*
X448025Y-575000D01*
X480823Y-575000D02*
X467704Y-575000D01*
X461144Y-568440D01*
X461144Y-555321D01*
X467704Y-548762D01*
X480823Y-548762D01*
X487383Y-555321D01*
X487383Y-561881D01*
X461144Y-561881D01*
X500502Y-548762D02*
X513621Y-575000D01*
X526740Y-548762D01*
X559538Y-575000D02*
X546419Y-575000D01*
X539859Y-568440D01*
X539859Y-555321D01*
X546419Y-548762D01*
X559538Y-548762D01*
X566097Y-555321D01*
X566097Y-561881D01*
X539859Y-561881D01*
X579217Y-575000D02*
X592336Y-575000D01*
X585776Y-575000D01*
X585776Y-535643D01*
X579217Y-535643D01*
X800000Y-475000D02*
X859981Y-475000D01*
X859981Y-504990D01*
X849984Y-514987D01*
X829990Y-514987D01*
X819994Y-504990D01*
X819994Y-475000D01*
X800000Y-534981D02*
X800000Y-554974D01*
X800000Y-544977D01*
X859981Y-544977D01*
X849984Y-534981D01*
X859981Y-584964D02*
X859981Y-624952D01*
X849984Y-624952D01*
X809997Y-584964D01*
X800000Y-584964D01*
X800000Y-85000D02*
X859981Y-85000D01*
X859981Y-114990D01*
X849984Y-124987D01*
X829990Y-124987D01*
X819994Y-114990D01*
X819994Y-85000D01*
X800000Y-144981D02*
X800000Y-164974D01*
X800000Y-154977D01*
X859981Y-154977D01*
X849984Y-144981D01*
X859981Y-234952D02*
X849984Y-214958D01*
X829990Y-194964D01*
X809997Y-194964D01*
X800000Y-204961D01*
X800000Y-224955D01*
X809997Y-234952D01*
X819994Y-234952D01*
X829990Y-224955D01*
X829990Y-194964D01*
X100000Y-1300000D02*
X100000Y-1260643D01*
X119679Y-1260643D01*
X126238Y-1267202D01*
X126238Y-1280321D01*
X119679Y-1286881D01*
X100000Y-1286881D01*
X165596Y-1260643D02*
X152476Y-1267202D01*
X139357Y-1280321D01*
X139357Y-1293440D01*
X145917Y-1300000D01*
X159036Y-1300000D01*
X165596Y-1293440D01*
X165596Y-1286881D01*
X159036Y-1280321D01*
X139357Y-1280321D01*
X727418Y5270440D02*
X688061Y5270440D01*
X688061Y5290119D01*
X694620Y5296679D01*
X707739Y5296679D01*
X714299Y5290119D01*
X714299Y5270440D01*
X714299Y5283560D02*
X727418Y5296679D01*
X688061Y5309798D02*
X688061Y5336036D01*
X694620Y5336036D01*
X720859Y5309798D01*
X727418Y5309798D01*
X727418Y5368834D02*
X688061Y5368834D01*
X707739Y5349155D01*
X707739Y5375393D01*
X333717Y5250755D02*
X294360Y5250755D01*
X294360Y5270434D01*
X300920Y5276994D01*
X314039Y5276994D01*
X320598Y5270434D01*
X320598Y5250755D01*
X320598Y5263874D02*
X333717Y5276994D01*
X294360Y5290113D02*
X294360Y5316351D01*
X300920Y5316351D01*
X327158Y5290113D01*
X333717Y5290113D01*
X300920Y5329470D02*
X294360Y5336030D01*
X294360Y5349149D01*
X300920Y5355708D01*
X307479Y5355708D01*
X314039Y5349149D01*
X314039Y5342589D01*
X314039Y5349149D01*
X320598Y5355708D01*
X327158Y5355708D01*
X333717Y5349149D01*
X333717Y5336030D01*
X327158Y5329470D01*
X333717Y4817685D02*
X294360Y4817685D01*
X294360Y4837363D01*
X300920Y4843923D01*
X314039Y4843923D01*
X320598Y4837363D01*
X320598Y4817685D01*
X320598Y4830804D02*
X333717Y4843923D01*
X294360Y4857042D02*
X294360Y4883280D01*
X300920Y4883280D01*
X327158Y4857042D01*
X333717Y4857042D01*
X333717Y4922637D02*
X333717Y4896399D01*
X307479Y4922637D01*
X300920Y4922637D01*
X294360Y4916078D01*
X294360Y4902959D01*
X300920Y4896399D01*
X530568Y5270440D02*
X491210Y5270440D01*
X491210Y5290119D01*
X497770Y5296679D01*
X510889Y5296679D01*
X517449Y5290119D01*
X517449Y5270440D01*
X517449Y5283560D02*
X530568Y5296679D01*
X491210Y5309798D02*
X491210Y5336036D01*
X497770Y5336036D01*
X524008Y5309798D01*
X530568Y5309798D01*
X530568Y5349155D02*
X530568Y5362274D01*
X530568Y5355715D01*
X491210Y5355715D01*
X497770Y5349155D01*
X530568Y4837369D02*
X491210Y4837369D01*
X491210Y4857048D01*
X497770Y4863608D01*
X510889Y4863608D01*
X517449Y4857048D01*
X517449Y4837369D01*
X517449Y4850489D02*
X530568Y4863608D01*
X491210Y4876727D02*
X491210Y4902965D01*
X497770Y4902965D01*
X524008Y4876727D01*
X530568Y4876727D01*
X497770Y4916084D02*
X491210Y4922644D01*
X491210Y4935763D01*
X497770Y4942323D01*
X524008Y4942323D01*
X530568Y4935763D01*
X530568Y4922644D01*
X524008Y4916084D01*
X497770Y4916084D01*
X3228300Y5373590D02*
X3228300Y5412947D01*
X3247979Y5412947D01*
X3254538Y5406388D01*
X3254538Y5393269D01*
X3247979Y5386709D01*
X3228300Y5386709D01*
X3241419Y5386709D02*
X3254538Y5373590D01*
X3293896Y5373590D02*
X3267657Y5373590D01*
X3293896Y5399828D01*
X3293896Y5406388D01*
X3287336Y5412947D01*
X3274217Y5412947D01*
X3267657Y5406388D01*
X3307015Y5406388D02*
X3313574Y5412947D01*
X3326693Y5412947D01*
X3333253Y5406388D01*
X3333253Y5399828D01*
X3326693Y5393269D01*
X3320134Y5393269D01*
X3326693Y5393269D01*
X3333253Y5386709D01*
X3333253Y5380150D01*
X3326693Y5373590D01*
X3313574Y5373590D01*
X3307015Y5380150D01*
X779922Y4135157D02*
X779922Y4174514D01*
X799601Y4174514D01*
X806160Y4167955D01*
X806160Y4154836D01*
X799601Y4148276D01*
X779922Y4148276D01*
X793041Y4148276D02*
X806160Y4135157D01*
X819279Y4174514D02*
X819279Y4135157D01*
X845518Y4135157D01*
X858637Y4135157D02*
X871756Y4135157D01*
X865197Y4135157D01*
X865197Y4174514D01*
X858637Y4167955D01*
X2026631Y2514535D02*
X2026631Y2553892D01*
X2046309Y2553892D01*
X2052869Y2547333D01*
X2052869Y2534214D01*
X2046309Y2527654D01*
X2026631Y2527654D01*
X2065988Y2553892D02*
X2092226Y2553892D01*
X2092226Y2547333D01*
X2065988Y2521095D01*
X2065988Y2514535D01*
X2528934Y1572519D02*
X2528934Y1611877D01*
X2548612Y1611877D01*
X2555172Y1605317D01*
X2555172Y1592198D01*
X2548612Y1585638D01*
X2528934Y1585638D01*
X2568291Y1572519D02*
X2581410Y1572519D01*
X2574851Y1572519D01*
X2574851Y1611877D01*
X2568291Y1605317D01*
X2601089Y1605317D02*
X2607648Y1611877D01*
X2620767Y1611877D01*
X2627327Y1605317D01*
X2627327Y1579079D01*
X2620767Y1572519D01*
X2607648Y1572519D01*
X2601089Y1579079D01*
X2601089Y1605317D01*
X2001670Y2332590D02*
X2001670Y2371947D01*
X2021349Y2371947D01*
X2027908Y2365388D01*
X2027908Y2352269D01*
X2021349Y2345709D01*
X2001670Y2345709D01*
X2041027Y2339150D02*
X2047587Y2332590D01*
X2060706Y2332590D01*
X2067266Y2339150D01*
X2067266Y2365388D01*
X2060706Y2371947D01*
X2047587Y2371947D01*
X2041027Y2365388D01*
X2041027Y2358828D01*
X2047587Y2352269D01*
X2067266Y2352269D01*
X2348934Y1822519D02*
X2348934Y1861877D01*
X2368612Y1861877D01*
X2375172Y1855317D01*
X2375172Y1842198D01*
X2368612Y1835638D01*
X2348934Y1835638D01*
X2388291Y1855317D02*
X2394851Y1861877D01*
X2407970Y1861877D01*
X2414529Y1855317D01*
X2414529Y1848757D01*
X2407970Y1842198D01*
X2414529Y1835638D01*
X2414529Y1829079D01*
X2407970Y1822519D01*
X2394851Y1822519D01*
X2388291Y1829079D01*
X2388291Y1835638D01*
X2394851Y1842198D01*
X2388291Y1848757D01*
X2388291Y1855317D01*
X2394851Y1842198D02*
X2407970Y1842198D01*
X139922Y3122157D02*
X139922Y3161514D01*
X159601Y3161514D01*
X166160Y3154955D01*
X166160Y3141836D01*
X159601Y3135276D01*
X139922Y3135276D01*
X179280Y3154955D02*
X185839Y3161514D01*
X198958Y3161514D01*
X205518Y3154955D01*
X205518Y3148395D01*
X198958Y3141836D01*
X192399Y3141836D01*
X198958Y3141836D01*
X205518Y3135276D01*
X205518Y3128717D01*
X198958Y3122157D01*
X185839Y3122157D01*
X179280Y3128717D01*
X2571259Y2399708D02*
X2571259Y2373469D01*
X2577818Y2366910D01*
X2590937Y2366910D01*
X2597497Y2373469D01*
X2597497Y2399708D01*
X2590937Y2406267D01*
X2577818Y2406267D01*
X2584378Y2393148D02*
X2571259Y2406267D01*
X2577818Y2406267D02*
X2571259Y2399708D01*
X2558140Y2373469D02*
X2551580Y2366910D01*
X2538461Y2366910D01*
X2531901Y2373469D01*
X2531901Y2380029D01*
X2538461Y2386588D01*
X2545020Y2386588D01*
X2538461Y2386588D01*
X2531901Y2393148D01*
X2531901Y2399708D01*
X2538461Y2406267D01*
X2551580Y2406267D01*
X2558140Y2399708D01*
X159741Y1485743D02*
X159741Y1452945D01*
X166301Y1446385D01*
X179420Y1446385D01*
X185979Y1452945D01*
X185979Y1485743D01*
X199098Y1446385D02*
X212218Y1446385D01*
X205658Y1446385D01*
X205658Y1485743D01*
X199098Y1479183D01*
X251575Y1446385D02*
X251575Y1485743D01*
X231896Y1466064D01*
X258134Y1466064D01*
X286473Y955467D02*
X286473Y922669D01*
X293033Y916110D01*
X306152Y916110D01*
X312711Y922669D01*
X312711Y955467D01*
X325831Y916110D02*
X338950Y916110D01*
X332390Y916110D01*
X332390Y955467D01*
X325831Y948908D01*
X358628Y948908D02*
X365188Y955467D01*
X378307Y955467D01*
X384867Y948908D01*
X384867Y942348D01*
X378307Y935788D01*
X371748Y935788D01*
X378307Y935788D01*
X384867Y929229D01*
X384867Y922669D01*
X378307Y916110D01*
X365188Y916110D01*
X358628Y922669D01*
X447891Y483039D02*
X447891Y522396D01*
X467569Y522396D01*
X474129Y515837D01*
X474129Y502717D01*
X467569Y496158D01*
X447891Y496158D01*
X461010Y496158D02*
X474129Y483039D01*
X487248Y515837D02*
X493808Y522396D01*
X506927Y522396D01*
X513486Y515837D01*
X513486Y509277D01*
X506927Y502717D01*
X500367Y502717D01*
X506927Y502717D01*
X513486Y496158D01*
X513486Y489598D01*
X506927Y483039D01*
X493808Y483039D01*
X487248Y489598D01*
X526605Y515837D02*
X533165Y522396D01*
X546284Y522396D01*
X552844Y515837D01*
X552844Y509277D01*
X546284Y502717D01*
X539725Y502717D01*
X546284Y502717D01*
X552844Y496158D01*
X552844Y489598D01*
X546284Y483039D01*
X533165Y483039D01*
X526605Y489598D01*
X1113124Y1294395D02*
X1106565Y1287836D01*
X1106565Y1274717D01*
X1113124Y1268157D01*
X1139362Y1268157D01*
X1145922Y1274717D01*
X1145922Y1287836D01*
X1139362Y1294395D01*
X1113124Y1307514D02*
X1106565Y1314074D01*
X1106565Y1327193D01*
X1113124Y1333753D01*
X1119684Y1333753D01*
X1126243Y1327193D01*
X1126243Y1320633D01*
X1126243Y1327193D01*
X1132803Y1333753D01*
X1139362Y1333753D01*
X1145922Y1327193D01*
X1145922Y1314074D01*
X1139362Y1307514D01*
X1106565Y1346872D02*
X1106565Y1373110D01*
X1113124Y1373110D01*
X1139362Y1346872D01*
X1145922Y1346872D01*
X584384Y1385261D02*
X577824Y1378702D01*
X577824Y1365583D01*
X584384Y1359023D01*
X610622Y1359023D01*
X617182Y1365583D01*
X617182Y1378702D01*
X610622Y1385261D01*
X584384Y1398380D02*
X577824Y1404940D01*
X577824Y1418059D01*
X584384Y1424619D01*
X590944Y1424619D01*
X597503Y1418059D01*
X597503Y1411500D01*
X597503Y1418059D01*
X604063Y1424619D01*
X610622Y1424619D01*
X617182Y1418059D01*
X617182Y1404940D01*
X610622Y1398380D01*
X577824Y1463976D02*
X584384Y1450857D01*
X597503Y1437738D01*
X610622Y1437738D01*
X617182Y1444297D01*
X617182Y1457417D01*
X610622Y1463976D01*
X604063Y1463976D01*
X597503Y1457417D01*
X597503Y1437738D01*
X355670Y3773947D02*
X355670Y3741150D01*
X362230Y3734590D01*
X375349Y3734590D01*
X381908Y3741150D01*
X381908Y3773947D01*
X395027Y3734590D02*
X408147Y3734590D01*
X401587Y3734590D01*
X401587Y3773947D01*
X395027Y3767388D01*
X454063Y3734590D02*
X427825Y3734590D01*
X454063Y3760828D01*
X454063Y3767388D01*
X447504Y3773947D01*
X434385Y3773947D01*
X427825Y3767388D01*
X1022694Y5250743D02*
X1022694Y5217945D01*
X1029253Y5211385D01*
X1042372Y5211385D01*
X1048932Y5217945D01*
X1048932Y5250743D01*
X1062051Y5217945D02*
X1068611Y5211385D01*
X1081730Y5211385D01*
X1088289Y5217945D01*
X1088289Y5244183D01*
X1081730Y5250743D01*
X1068611Y5250743D01*
X1062051Y5244183D01*
X1062051Y5237623D01*
X1068611Y5231064D01*
X1088289Y5231064D01*
X104387Y1931648D02*
X104387Y1898850D01*
X110946Y1892291D01*
X124065Y1892291D01*
X130625Y1898850D01*
X130625Y1931648D01*
X143744Y1925089D02*
X150304Y1931648D01*
X163423Y1931648D01*
X169982Y1925089D01*
X169982Y1918529D01*
X163423Y1911969D01*
X169982Y1905410D01*
X169982Y1898850D01*
X163423Y1892291D01*
X150304Y1892291D01*
X143744Y1898850D01*
X143744Y1905410D01*
X150304Y1911969D01*
X143744Y1918529D01*
X143744Y1925089D01*
X150304Y1911969D02*
X163423Y1911969D01*
X906977Y473433D02*
X946335Y473433D01*
X946335Y453754D01*
X939775Y447194D01*
X926656Y447194D01*
X920096Y453754D01*
X920096Y473433D01*
X920096Y460313D02*
X906977Y447194D01*
X913537Y434075D02*
X906977Y427515D01*
X906977Y414396D01*
X913537Y407837D01*
X939775Y407837D01*
X946335Y414396D01*
X946335Y427515D01*
X939775Y434075D01*
X933215Y434075D01*
X926656Y427515D01*
X926656Y407837D01*
X1554190Y1422015D02*
X1554190Y1461372D01*
X1573869Y1461372D01*
X1580428Y1454813D01*
X1580428Y1441694D01*
X1573869Y1435134D01*
X1554190Y1435134D01*
X1567309Y1435134D02*
X1580428Y1422015D01*
X1593547Y1454813D02*
X1600107Y1461372D01*
X1613226Y1461372D01*
X1619785Y1454813D01*
X1619785Y1448253D01*
X1613226Y1441694D01*
X1619785Y1435134D01*
X1619785Y1428575D01*
X1613226Y1422015D01*
X1600107Y1422015D01*
X1593547Y1428575D01*
X1593547Y1435134D01*
X1600107Y1441694D01*
X1593547Y1448253D01*
X1593547Y1454813D01*
X1600107Y1441694D02*
X1613226Y1441694D01*
X2652934Y2157519D02*
X2692291Y2157519D01*
X2692291Y2137841D01*
X2685731Y2131281D01*
X2672612Y2131281D01*
X2666053Y2137841D01*
X2666053Y2157519D01*
X2666053Y2144400D02*
X2652934Y2131281D01*
X2652934Y2098483D02*
X2692291Y2098483D01*
X2672612Y2118162D01*
X2672612Y2091924D01*
X2692291Y2078805D02*
X2692291Y2052566D01*
X2685731Y2052566D01*
X2659493Y2078805D01*
X2652934Y2078805D01*
X3160489Y1884614D02*
X3160489Y1923971D01*
X3180168Y1923971D01*
X3186727Y1917411D01*
X3186727Y1904292D01*
X3180168Y1897733D01*
X3160489Y1897733D01*
X3173608Y1897733D02*
X3186727Y1884614D01*
X3219525Y1884614D02*
X3219525Y1923971D01*
X3199846Y1904292D01*
X3226084Y1904292D01*
X3239204Y1884614D02*
X3252323Y1884614D01*
X3245763Y1884614D01*
X3245763Y1923971D01*
X3239204Y1917411D01*
X2751040Y2156267D02*
X2790398Y2156267D01*
X2790398Y2136589D01*
X2783838Y2130029D01*
X2770719Y2130029D01*
X2764159Y2136589D01*
X2764159Y2156267D01*
X2764159Y2143148D02*
X2751040Y2130029D01*
X2751040Y2097231D02*
X2790398Y2097231D01*
X2770719Y2116910D01*
X2770719Y2090672D01*
X2790398Y2051314D02*
X2783838Y2064433D01*
X2770719Y2077552D01*
X2757600Y2077552D01*
X2751040Y2070993D01*
X2751040Y2057874D01*
X2757600Y2051314D01*
X2764159Y2051314D01*
X2770719Y2057874D01*
X2770719Y2077552D01*
X1663048Y2137370D02*
X1663048Y2176727D01*
X1682727Y2176727D01*
X1689286Y2170167D01*
X1689286Y2157048D01*
X1682727Y2150489D01*
X1663048Y2150489D01*
X1676167Y2150489D02*
X1689286Y2137370D01*
X1728644Y2137370D02*
X1702405Y2137370D01*
X1728644Y2163608D01*
X1728644Y2170167D01*
X1722084Y2176727D01*
X1708965Y2176727D01*
X1702405Y2170167D01*
X1768001Y2137370D02*
X1741763Y2137370D01*
X1768001Y2163608D01*
X1768001Y2170167D01*
X1761441Y2176727D01*
X1748322Y2176727D01*
X1741763Y2170167D01*
X1663048Y2037370D02*
X1663048Y2076727D01*
X1682727Y2076727D01*
X1689286Y2070168D01*
X1689286Y2057048D01*
X1682727Y2050489D01*
X1663048Y2050489D01*
X1676167Y2050489D02*
X1689286Y2037370D01*
X1728644Y2037370D02*
X1702405Y2037370D01*
X1728644Y2063608D01*
X1728644Y2070168D01*
X1722084Y2076727D01*
X1708965Y2076727D01*
X1702405Y2070168D01*
X1741763Y2037370D02*
X1754882Y2037370D01*
X1748322Y2037370D01*
X1748322Y2076727D01*
X1741763Y2070168D01*
X727418Y4837370D02*
X688061Y4837370D01*
X688061Y4857048D01*
X694620Y4863608D01*
X707740Y4863608D01*
X714299Y4857048D01*
X714299Y4837370D01*
X714299Y4850489D02*
X727418Y4863608D01*
X727418Y4876727D02*
X727418Y4889846D01*
X727418Y4883287D01*
X688061Y4883287D01*
X694620Y4876727D01*
X688061Y4935763D02*
X688061Y4909525D01*
X707740Y4909525D01*
X701180Y4922644D01*
X701180Y4929203D01*
X707740Y4935763D01*
X720859Y4935763D01*
X727418Y4929203D01*
X727418Y4916084D01*
X720859Y4909525D01*
X3030568Y2150362D02*
X3069925Y2150362D01*
X3069925Y2130683D01*
X3063365Y2124124D01*
X3050246Y2124124D01*
X3043687Y2130683D01*
X3043687Y2150362D01*
X3043687Y2137243D02*
X3030568Y2124124D01*
X3030568Y2091326D02*
X3069925Y2091326D01*
X3050246Y2111004D01*
X3050246Y2084766D01*
X3063365Y2071647D02*
X3069925Y2065087D01*
X3069925Y2051968D01*
X3063365Y2045409D01*
X3056806Y2045409D01*
X3050246Y2051968D01*
X3050246Y2058528D01*
X3050246Y2051968D01*
X3043687Y2045409D01*
X3037127Y2045409D01*
X3030568Y2051968D01*
X3030568Y2065087D01*
X3037127Y2071647D01*
X3128993Y2150362D02*
X3168350Y2150362D01*
X3168350Y2130683D01*
X3161791Y2124124D01*
X3148672Y2124124D01*
X3142112Y2130683D01*
X3142112Y2150362D01*
X3142112Y2137243D02*
X3128993Y2124124D01*
X3161791Y2111004D02*
X3168350Y2104445D01*
X3168350Y2091326D01*
X3161791Y2084766D01*
X3155231Y2084766D01*
X3148672Y2091326D01*
X3148672Y2097885D01*
X3148672Y2091326D01*
X3142112Y2084766D01*
X3135552Y2084766D01*
X3128993Y2091326D01*
X3128993Y2104445D01*
X3135552Y2111004D01*
X3161791Y2071647D02*
X3168350Y2065087D01*
X3168350Y2051968D01*
X3161791Y2045409D01*
X3155231Y2045409D01*
X3148672Y2051968D01*
X3142112Y2045409D01*
X3135552Y2045409D01*
X3128993Y2051968D01*
X3128993Y2065087D01*
X3135552Y2071647D01*
X3142112Y2071647D01*
X3148672Y2065087D01*
X3155231Y2071647D01*
X3161791Y2071647D01*
X3148672Y2065087D02*
X3148672Y2051968D01*
X2963695Y2422960D02*
X2963695Y2396722D01*
X2970255Y2390162D01*
X2983374Y2390162D01*
X2989934Y2396722D01*
X2989934Y2422960D01*
X2983374Y2429519D01*
X2970255Y2429519D01*
X2976814Y2416400D02*
X2963695Y2429519D01*
X2970255Y2429519D02*
X2963695Y2422960D01*
X2950576Y2429519D02*
X2937457Y2429519D01*
X2944017Y2429519D01*
X2944017Y2390162D01*
X2950576Y2396722D01*
X230765Y-2263630D02*
X230765Y-2224273D01*
X250443Y-2224273D01*
X257003Y-2230833D01*
X257003Y-2243952D01*
X250443Y-2250511D01*
X230765Y-2250511D01*
X270122Y-2263630D02*
X283241Y-2263630D01*
X276682Y-2263630D01*
X276682Y-2224273D01*
X270122Y-2230833D01*
X302920Y-2230833D02*
X309479Y-2224273D01*
X322599Y-2224273D01*
X329158Y-2230833D01*
X329158Y-2237392D01*
X322599Y-2243952D01*
X316039Y-2243952D01*
X322599Y-2243952D01*
X329158Y-2250511D01*
X329158Y-2257071D01*
X322599Y-2263630D01*
X309479Y-2263630D01*
X302920Y-2257071D01*
X58127Y4483039D02*
X58127Y4522396D01*
X77805Y4522396D01*
X84365Y4515837D01*
X84365Y4502717D01*
X77805Y4496158D01*
X58127Y4496158D01*
X123722Y4483039D02*
X97484Y4483039D01*
X123722Y4509277D01*
X123722Y4515837D01*
X117163Y4522396D01*
X104044Y4522396D01*
X97484Y4515837D01*
X68906Y4121031D02*
X68906Y4160388D01*
X88585Y4160388D01*
X95144Y4153829D01*
X95144Y4140710D01*
X88585Y4134150D01*
X68906Y4134150D01*
X108264Y4121031D02*
X121383Y4121031D01*
X114823Y4121031D01*
X114823Y4160388D01*
X108264Y4153829D01*
X1450526Y4495498D02*
X1443966Y4488938D01*
X1443966Y4475819D01*
X1450526Y4469259D01*
X1476764Y4469259D01*
X1483324Y4475819D01*
X1483324Y4488938D01*
X1476764Y4495498D01*
X1483324Y4508617D02*
X1483324Y4521736D01*
X1483324Y4515176D01*
X1443966Y4515176D01*
X1450526Y4508617D01*
X1483324Y4567653D02*
X1483324Y4541414D01*
X1457085Y4567653D01*
X1450526Y4567653D01*
X1443966Y4561093D01*
X1443966Y4547974D01*
X1450526Y4541414D01*
X1214305Y4495498D02*
X1207746Y4488938D01*
X1207746Y4475819D01*
X1214305Y4469259D01*
X1240543Y4469259D01*
X1247103Y4475819D01*
X1247103Y4488938D01*
X1240543Y4495498D01*
X1247103Y4508617D02*
X1247103Y4521736D01*
X1247103Y4515176D01*
X1207746Y4515176D01*
X1214305Y4508617D01*
X1214305Y4541414D02*
X1207746Y4547974D01*
X1207746Y4561093D01*
X1214305Y4567653D01*
X1240543Y4567653D01*
X1247103Y4561093D01*
X1247103Y4547974D01*
X1240543Y4541414D01*
X1214305Y4541414D01*
X1086353Y4525025D02*
X1079793Y4518466D01*
X1079793Y4505346D01*
X1086353Y4498787D01*
X1112591Y4498787D01*
X1119150Y4505346D01*
X1119150Y4518466D01*
X1112591Y4525025D01*
X1112591Y4538144D02*
X1119150Y4544704D01*
X1119150Y4557823D01*
X1112591Y4564382D01*
X1086353Y4564382D01*
X1079793Y4557823D01*
X1079793Y4544704D01*
X1086353Y4538144D01*
X1092912Y4538144D01*
X1099472Y4544704D01*
X1099472Y4564382D01*
X2681872Y5131828D02*
X2675313Y5125269D01*
X2675313Y5112150D01*
X2681872Y5105590D01*
X2708110Y5105590D01*
X2714670Y5112150D01*
X2714670Y5125269D01*
X2708110Y5131828D01*
X2714670Y5171186D02*
X2714670Y5144947D01*
X2688432Y5171186D01*
X2681872Y5171186D01*
X2675313Y5164626D01*
X2675313Y5151507D01*
X2681872Y5144947D01*
X1284872Y5118828D02*
X1278313Y5112269D01*
X1278313Y5099150D01*
X1284872Y5092590D01*
X1311111Y5092590D01*
X1317670Y5099150D01*
X1317670Y5112269D01*
X1311111Y5118828D01*
X1317670Y5158186D02*
X1317670Y5131947D01*
X1291432Y5158186D01*
X1284872Y5158186D01*
X1278313Y5151626D01*
X1278313Y5138507D01*
X1284872Y5131947D01*
X1278313Y5171305D02*
X1278313Y5197543D01*
X1284872Y5197543D01*
X1311111Y5171305D01*
X1317670Y5171305D01*
X2961670Y5004680D02*
X2961670Y4971882D01*
X2968230Y4965322D01*
X2981349Y4965322D01*
X2987908Y4971882D01*
X2987908Y5004680D01*
X3027266Y4965322D02*
X3001028Y4965322D01*
X3027266Y4991560D01*
X3027266Y4998120D01*
X3020706Y5004680D01*
X3007587Y5004680D01*
X3001028Y4998120D01*
X3152300Y3903656D02*
X3152300Y3870858D01*
X3158860Y3864299D01*
X3171979Y3864299D01*
X3178538Y3870858D01*
X3178538Y3903656D01*
X3217896Y3903656D02*
X3204776Y3897097D01*
X3191657Y3883977D01*
X3191657Y3870858D01*
X3198217Y3864299D01*
X3211336Y3864299D01*
X3217896Y3870858D01*
X3217896Y3877418D01*
X3211336Y3883977D01*
X3191657Y3883977D01*
X754977Y1376727D02*
X754977Y1343929D01*
X761537Y1337370D01*
X774656Y1337370D01*
X781215Y1343929D01*
X781215Y1376727D01*
X794335Y1337370D02*
X807454Y1337370D01*
X800894Y1337370D01*
X800894Y1376727D01*
X794335Y1370167D01*
X853371Y1376727D02*
X827132Y1376727D01*
X827132Y1357048D01*
X840251Y1363608D01*
X846811Y1363608D01*
X853371Y1357048D01*
X853371Y1343929D01*
X846811Y1337370D01*
X833692Y1337370D01*
X827132Y1343929D01*
X3283203Y5139198D02*
X3276643Y5132639D01*
X3276643Y5119520D01*
X3283203Y5112960D01*
X3309441Y5112960D01*
X3316001Y5119520D01*
X3316001Y5132639D01*
X3309441Y5139198D01*
X3276643Y5178556D02*
X3276643Y5152318D01*
X3296322Y5152318D01*
X3289763Y5165437D01*
X3289763Y5171996D01*
X3296322Y5178556D01*
X3309441Y5178556D01*
X3316001Y5171996D01*
X3316001Y5158877D01*
X3309441Y5152318D01*
X1322573Y4495498D02*
X1316014Y4488938D01*
X1316014Y4475819D01*
X1322573Y4469259D01*
X1348811Y4469259D01*
X1355371Y4475819D01*
X1355371Y4488938D01*
X1348811Y4495498D01*
X1355371Y4508617D02*
X1355371Y4521736D01*
X1355371Y4515176D01*
X1316014Y4515176D01*
X1322573Y4508617D01*
X1355371Y4541414D02*
X1355371Y4554534D01*
X1355371Y4547974D01*
X1316014Y4547974D01*
X1322573Y4541414D01*
X399326Y1594577D02*
X392766Y1601136D01*
X379647Y1601136D01*
X373087Y1594577D01*
X373087Y1568339D01*
X379647Y1561779D01*
X392766Y1561779D01*
X399326Y1568339D01*
X438683Y1561779D02*
X412445Y1561779D01*
X438683Y1588017D01*
X438683Y1594577D01*
X432123Y1601136D01*
X419004Y1601136D01*
X412445Y1594577D01*
X451802Y1594577D02*
X458362Y1601136D01*
X471481Y1601136D01*
X478040Y1594577D01*
X478040Y1588017D01*
X471481Y1581458D01*
X464921Y1581458D01*
X471481Y1581458D01*
X478040Y1574898D01*
X478040Y1568339D01*
X471481Y1561779D01*
X458362Y1561779D01*
X451802Y1568339D01*
X1002124Y2202395D02*
X995565Y2195836D01*
X995565Y2182717D01*
X1002124Y2176157D01*
X1028362Y2176157D01*
X1034922Y2182717D01*
X1034922Y2195836D01*
X1028362Y2202395D01*
X1034922Y2241753D02*
X1034922Y2215514D01*
X1008684Y2241753D01*
X1002124Y2241753D01*
X995565Y2235193D01*
X995565Y2222074D01*
X1002124Y2215514D01*
X1028362Y2254872D02*
X1034922Y2261431D01*
X1034922Y2274550D01*
X1028362Y2281110D01*
X1002124Y2281110D01*
X995565Y2274550D01*
X995565Y2261431D01*
X1002124Y2254872D01*
X1008684Y2254872D01*
X1015243Y2261431D01*
X1015243Y2281110D01*
X731355Y3006661D02*
X691998Y3006661D01*
X691998Y3026340D01*
X698557Y3032899D01*
X711676Y3032899D01*
X718236Y3026340D01*
X718236Y3006661D01*
X718236Y3019780D02*
X731355Y3032899D01*
X691998Y3072256D02*
X698557Y3059137D01*
X711676Y3046018D01*
X724795Y3046018D01*
X731355Y3052578D01*
X731355Y3065697D01*
X724795Y3072256D01*
X718236Y3072256D01*
X711676Y3065697D01*
X711676Y3046018D01*
X731355Y3105054D02*
X691998Y3105054D01*
X711676Y3085376D01*
X711676Y3111614D01*
X1049934Y3001519D02*
X1010576Y3001519D01*
X1010576Y3021198D01*
X1017136Y3027758D01*
X1030255Y3027758D01*
X1036814Y3021198D01*
X1036814Y3001519D01*
X1036814Y3014638D02*
X1049934Y3027758D01*
X1010576Y3067115D02*
X1017136Y3053996D01*
X1030255Y3040877D01*
X1043374Y3040877D01*
X1049934Y3047436D01*
X1049934Y3060555D01*
X1043374Y3067115D01*
X1036814Y3067115D01*
X1030255Y3060555D01*
X1030255Y3040877D01*
X1010576Y3106472D02*
X1010576Y3080234D01*
X1030255Y3080234D01*
X1023695Y3093353D01*
X1023695Y3099913D01*
X1030255Y3106472D01*
X1043374Y3106472D01*
X1049934Y3099913D01*
X1049934Y3086794D01*
X1043374Y3080234D01*
X739229Y3384614D02*
X739229Y3423971D01*
X758908Y3423971D01*
X765467Y3417411D01*
X765467Y3404292D01*
X758908Y3397733D01*
X739229Y3397733D01*
X752348Y3397733D02*
X765467Y3384614D01*
X804825Y3423971D02*
X791706Y3417411D01*
X778587Y3404292D01*
X778587Y3391173D01*
X785146Y3384614D01*
X798265Y3384614D01*
X804825Y3391173D01*
X804825Y3397733D01*
X798265Y3404292D01*
X778587Y3404292D01*
X817944Y3423971D02*
X844182Y3423971D01*
X844182Y3417411D01*
X817944Y3391173D01*
X817944Y3384614D01*
X1016012Y3706685D02*
X1016012Y3746042D01*
X1035691Y3746042D01*
X1042251Y3739482D01*
X1042251Y3726363D01*
X1035691Y3719804D01*
X1016012Y3719804D01*
X1029131Y3719804D02*
X1042251Y3706685D01*
X1081608Y3746042D02*
X1068489Y3739482D01*
X1055370Y3726363D01*
X1055370Y3713244D01*
X1061929Y3706685D01*
X1075048Y3706685D01*
X1081608Y3713244D01*
X1081608Y3719804D01*
X1075048Y3726363D01*
X1055370Y3726363D01*
X1094727Y3739482D02*
X1101287Y3746042D01*
X1114406Y3746042D01*
X1120965Y3739482D01*
X1120965Y3732923D01*
X1114406Y3726363D01*
X1120965Y3719804D01*
X1120965Y3713244D01*
X1114406Y3706685D01*
X1101287Y3706685D01*
X1094727Y3713244D01*
X1094727Y3719804D01*
X1101287Y3726363D01*
X1094727Y3732923D01*
X1094727Y3739482D01*
X1101287Y3726363D02*
X1114406Y3726363D01*
X772694Y3498787D02*
X772694Y3538144D01*
X792372Y3538144D01*
X798932Y3531585D01*
X798932Y3518465D01*
X792372Y3511906D01*
X772694Y3511906D01*
X785813Y3511906D02*
X798932Y3498787D01*
X838289Y3538144D02*
X825170Y3531585D01*
X812051Y3518465D01*
X812051Y3505346D01*
X818611Y3498787D01*
X831730Y3498787D01*
X838289Y3505346D01*
X838289Y3511906D01*
X831730Y3518465D01*
X812051Y3518465D01*
X851409Y3505346D02*
X857968Y3498787D01*
X871087Y3498787D01*
X877647Y3505346D01*
X877647Y3531585D01*
X871087Y3538144D01*
X857968Y3538144D01*
X851409Y3531585D01*
X851409Y3525025D01*
X857968Y3518465D01*
X877647Y3518465D01*
X1194938Y2336570D02*
X1194938Y2303772D01*
X1201497Y2297212D01*
X1214617Y2297212D01*
X1221176Y2303772D01*
X1221176Y2336570D01*
X1234295Y2297212D02*
X1247414Y2297212D01*
X1240855Y2297212D01*
X1240855Y2336570D01*
X1234295Y2330010D01*
X1267093Y2330010D02*
X1273653Y2336570D01*
X1286772Y2336570D01*
X1293331Y2330010D01*
X1293331Y2303772D01*
X1286772Y2297212D01*
X1273653Y2297212D01*
X1267093Y2303772D01*
X1267093Y2330010D01*
X208300Y-1632410D02*
X208300Y-1593053D01*
X227979Y-1593053D01*
X234538Y-1599612D01*
X234538Y-1612731D01*
X227979Y-1619291D01*
X208300Y-1619291D01*
X273896Y-1593053D02*
X247657Y-1593053D01*
X247657Y-1612731D01*
X260776Y-1606172D01*
X267336Y-1606172D01*
X273896Y-1612731D01*
X273896Y-1625850D01*
X267336Y-1632410D01*
X254217Y-1632410D01*
X247657Y-1625850D01*
X2348934Y1122519D02*
X2348934Y1161877D01*
X2368612Y1161877D01*
X2375172Y1155317D01*
X2375172Y1142198D01*
X2368612Y1135638D01*
X2348934Y1135638D01*
X2388291Y1122519D02*
X2401410Y1122519D01*
X2394851Y1122519D01*
X2394851Y1161877D01*
X2388291Y1155317D01*
X2421089Y1122519D02*
X2434208Y1122519D01*
X2427648Y1122519D01*
X2427648Y1161877D01*
X2421089Y1155317D01*
X786473Y4404286D02*
X786473Y4364929D01*
X806152Y4364929D01*
X812711Y4371488D01*
X812711Y4397726D01*
X806152Y4404286D01*
X786473Y4404286D01*
X825831Y4364929D02*
X838950Y4364929D01*
X832390Y4364929D01*
X832390Y4404286D01*
X825831Y4397726D01*
X673934Y2422519D02*
X673934Y2461877D01*
X693612Y2461877D01*
X700172Y2455317D01*
X700172Y2442198D01*
X693612Y2435638D01*
X673934Y2435638D01*
X687053Y2435638D02*
X700172Y2422519D01*
X739529Y2422519D02*
X713291Y2422519D01*
X739529Y2448758D01*
X739529Y2455317D01*
X732970Y2461877D01*
X719851Y2461877D01*
X713291Y2455317D01*
X752648Y2455317D02*
X759208Y2461877D01*
X772327Y2461877D01*
X778887Y2455317D01*
X778887Y2429079D01*
X772327Y2422519D01*
X759208Y2422519D01*
X752648Y2429079D01*
X752648Y2455317D01*
X689159Y2307868D02*
X689159Y2347226D01*
X708838Y2347226D01*
X715397Y2340666D01*
X715397Y2327547D01*
X708838Y2320987D01*
X689159Y2320987D01*
X702278Y2320987D02*
X715397Y2307868D01*
X754755Y2307868D02*
X728516Y2307868D01*
X754755Y2334106D01*
X754755Y2340666D01*
X748195Y2347226D01*
X735076Y2347226D01*
X728516Y2340666D01*
X787552Y2307868D02*
X787552Y2347226D01*
X767874Y2327547D01*
X794112Y2327547D01*
X673934Y2097519D02*
X673934Y2136877D01*
X693612Y2136877D01*
X700172Y2130317D01*
X700172Y2117198D01*
X693612Y2110638D01*
X673934Y2110638D01*
X687053Y2110638D02*
X700172Y2097519D01*
X739529Y2097519D02*
X713291Y2097519D01*
X739529Y2123758D01*
X739529Y2130317D01*
X732970Y2136877D01*
X719851Y2136877D01*
X713291Y2130317D01*
X752648Y2136877D02*
X778887Y2136877D01*
X778887Y2130317D01*
X752648Y2104079D01*
X752648Y2097519D01*
X636867Y2207448D02*
X636867Y2246806D01*
X656546Y2246806D01*
X663105Y2240246D01*
X663105Y2227127D01*
X656546Y2220567D01*
X636867Y2220567D01*
X649986Y2220567D02*
X663105Y2207448D01*
X702462Y2207448D02*
X676224Y2207448D01*
X702462Y2233686D01*
X702462Y2240246D01*
X695903Y2246806D01*
X682784Y2246806D01*
X676224Y2240246D01*
X715582Y2240246D02*
X722141Y2246806D01*
X735260Y2246806D01*
X741820Y2240246D01*
X741820Y2233686D01*
X735260Y2227127D01*
X741820Y2220567D01*
X741820Y2214008D01*
X735260Y2207448D01*
X722141Y2207448D01*
X715582Y2214008D01*
X715582Y2220567D01*
X722141Y2227127D01*
X715582Y2233686D01*
X715582Y2240246D01*
X722141Y2227127D02*
X735260Y2227127D01*
X1312922Y3895138D02*
X1312922Y3845154D01*
X1322919Y3835157D01*
X1342912Y3835157D01*
X1352909Y3845154D01*
X1352909Y3895138D01*
X1372903Y3885141D02*
X1382899Y3895138D01*
X1402893Y3895138D01*
X1412890Y3885141D01*
X1412890Y3875144D01*
X1402893Y3865147D01*
X1392896Y3865147D01*
X1402893Y3865147D01*
X1412890Y3855151D01*
X1412890Y3845154D01*
X1402893Y3835157D01*
X1382899Y3835157D01*
X1372903Y3845154D01*
X139552Y2404823D02*
X139552Y2354839D01*
X149549Y2344842D01*
X169542Y2344842D01*
X179539Y2354839D01*
X179539Y2404823D01*
X199533Y2344842D02*
X219526Y2344842D01*
X209529Y2344842D01*
X209529Y2404823D01*
X199533Y2394826D01*
X249516Y2344842D02*
X269510Y2344842D01*
X259513Y2344842D01*
X259513Y2404823D01*
X249516Y2394826D01*
X1105922Y1088138D02*
X1105922Y1038154D01*
X1115919Y1028157D01*
X1135912Y1028157D01*
X1145909Y1038154D01*
X1145909Y1088138D01*
X1165903Y1028157D02*
X1185896Y1028157D01*
X1175899Y1028157D01*
X1175899Y1088138D01*
X1165903Y1078141D01*
X1255874Y1088138D02*
X1235880Y1078141D01*
X1215887Y1058147D01*
X1215887Y1038154D01*
X1225883Y1028157D01*
X1245877Y1028157D01*
X1255874Y1038154D01*
X1255874Y1048150D01*
X1245877Y1058147D01*
X1215887Y1058147D01*
X720934Y3889877D02*
X720934Y3850519D01*
X740612Y3850519D01*
X747172Y3857079D01*
X747172Y3883317D01*
X740612Y3889877D01*
X720934Y3889877D01*
X786529Y3883317D02*
X779970Y3889877D01*
X766851Y3889877D01*
X760291Y3883317D01*
X760291Y3876758D01*
X766851Y3870198D01*
X779970Y3870198D01*
X786529Y3863638D01*
X786529Y3857079D01*
X779970Y3850519D01*
X766851Y3850519D01*
X760291Y3857079D01*
X799648Y3883317D02*
X806208Y3889877D01*
X819327Y3889877D01*
X825887Y3883317D01*
X825887Y3876758D01*
X819327Y3870198D01*
X825887Y3863638D01*
X825887Y3857079D01*
X819327Y3850519D01*
X806208Y3850519D01*
X799648Y3857079D01*
X799648Y3863638D01*
X806208Y3870198D01*
X799648Y3876758D01*
X799648Y3883317D01*
X806208Y3870198D02*
X819327Y3870198D01*
X368363Y-1596895D02*
X368363Y-1636253D01*
X388042Y-1636253D01*
X394601Y-1629693D01*
X394601Y-1603455D01*
X388042Y-1596895D01*
X368363Y-1596895D01*
X407720Y-1636253D02*
X420839Y-1636253D01*
X414280Y-1636253D01*
X414280Y-1610014D01*
X407720Y-1610014D01*
X440518Y-1636253D02*
X460197Y-1636253D01*
X466756Y-1629693D01*
X460197Y-1623133D01*
X447078Y-1623133D01*
X440518Y-1616574D01*
X447078Y-1610014D01*
X466756Y-1610014D01*
X479876Y-1649372D02*
X479876Y-1610014D01*
X499554Y-1610014D01*
X506114Y-1616574D01*
X506114Y-1629693D01*
X499554Y-1636253D01*
X479876Y-1636253D01*
X519233Y-1636253D02*
X532352Y-1636253D01*
X525793Y-1636253D01*
X525793Y-1596895D01*
X519233Y-1596895D01*
X558590Y-1610014D02*
X571710Y-1610014D01*
X578269Y-1616574D01*
X578269Y-1636253D01*
X558590Y-1636253D01*
X552031Y-1629693D01*
X558590Y-1623133D01*
X578269Y-1623133D01*
X591388Y-1610014D02*
X591388Y-1629693D01*
X597948Y-1636253D01*
X617626Y-1636253D01*
X617626Y-1642812D01*
X611067Y-1649372D01*
X604507Y-1649372D01*
X617626Y-1636253D02*
X617626Y-1610014D01*
X630746Y-1636253D02*
X650424Y-1636253D01*
X656984Y-1629693D01*
X650424Y-1623133D01*
X637305Y-1623133D01*
X630746Y-1616574D01*
X637305Y-1610014D01*
X656984Y-1610014D01*
X226238Y-142202D02*
X219679Y-135643D01*
X206560Y-135643D01*
X200000Y-142202D01*
X200000Y-168440D01*
X206560Y-175000D01*
X219679Y-175000D01*
X226238Y-168440D01*
X239357Y-148762D02*
X239357Y-175000D01*
X239357Y-161881D01*
X245917Y-155321D01*
X252476Y-148762D01*
X259036Y-148762D01*
X285274Y-175000D02*
X298394Y-175000D01*
X304953Y-168440D01*
X304953Y-155321D01*
X298394Y-148762D01*
X285274Y-148762D01*
X278715Y-155321D01*
X278715Y-168440D01*
X285274Y-175000D01*
X318072Y-175000D02*
X337751Y-175000D01*
X344310Y-168440D01*
X337751Y-161881D01*
X324632Y-161881D01*
X318072Y-155321D01*
X324632Y-148762D01*
X344310Y-148762D01*
X357430Y-175000D02*
X377108Y-175000D01*
X383668Y-168440D01*
X377108Y-161881D01*
X363989Y-161881D01*
X357430Y-155321D01*
X363989Y-148762D01*
X383668Y-148762D01*
X436144Y-135643D02*
X436144Y-175000D01*
X462383Y-175000D01*
X495180Y-175000D02*
X482061Y-175000D01*
X475502Y-168440D01*
X475502Y-155321D01*
X482061Y-148762D01*
X495180Y-148762D01*
X501740Y-155321D01*
X501740Y-161881D01*
X475502Y-161881D01*
X514859Y-148762D02*
X527978Y-175000D01*
X541097Y-148762D01*
X573895Y-175000D02*
X560776Y-175000D01*
X554217Y-168440D01*
X554217Y-155321D01*
X560776Y-148762D01*
X573895Y-148762D01*
X580455Y-155321D01*
X580455Y-161881D01*
X554217Y-161881D01*
X593574Y-175000D02*
X606693Y-175000D01*
X600134Y-175000D01*
X600134Y-135643D01*
X593574Y-135643D01*
X469544Y4528302D02*
X469544Y4488944D01*
X495782Y4488944D01*
X508901Y4488944D02*
X522021Y4488944D01*
X515461Y4488944D01*
X515461Y4515182D01*
X508901Y4515182D01*
X567938Y4528302D02*
X567938Y4488944D01*
X548259Y4488944D01*
X541699Y4495504D01*
X541699Y4508623D01*
X548259Y4515182D01*
X567938Y4515182D01*
X523934Y4161877D02*
X523934Y4122519D01*
X543612Y4122519D01*
X550172Y4129079D01*
X550172Y4135638D01*
X543612Y4142198D01*
X523934Y4142198D01*
X543612Y4142198D01*
X550172Y4148757D01*
X550172Y4155317D01*
X543612Y4161877D01*
X523934Y4161877D01*
X569851Y4148757D02*
X582970Y4148757D01*
X589529Y4142198D01*
X589529Y4122519D01*
X569851Y4122519D01*
X563291Y4129079D01*
X569851Y4135638D01*
X589529Y4135638D01*
X609208Y4155317D02*
X609208Y4148757D01*
X602648Y4148757D01*
X615768Y4148757D01*
X609208Y4148757D01*
X609208Y4129079D01*
X615768Y4122519D01*
X642006Y4155317D02*
X642006Y4148757D01*
X635446Y4148757D01*
X648565Y4148757D01*
X642006Y4148757D01*
X642006Y4129079D01*
X648565Y4122519D01*
X546328Y3057842D02*
X585686Y3057842D01*
X585686Y3077521D01*
X579126Y3084080D01*
X572567Y3084080D01*
X566007Y3077521D01*
X566007Y3057842D01*
X566007Y3077521D01*
X559448Y3084080D01*
X552888Y3084080D01*
X546328Y3077521D01*
X546328Y3057842D01*
X585686Y3097199D02*
X585686Y3110318D01*
X585686Y3103759D01*
X546328Y3103759D01*
X546328Y3097199D01*
X559448Y3129997D02*
X579126Y3129997D01*
X585686Y3136557D01*
X585686Y3156235D01*
X559448Y3156235D01*
X585686Y3189033D02*
X585686Y3175914D01*
X579126Y3169355D01*
X566007Y3169355D01*
X559448Y3175914D01*
X559448Y3189033D01*
X566007Y3195593D01*
X572567Y3195593D01*
X572567Y3169355D01*
X552888Y3215272D02*
X559448Y3215272D01*
X559448Y3208712D01*
X559448Y3221831D01*
X559448Y3215272D01*
X579126Y3215272D01*
X585686Y3221831D01*
X585686Y3248069D02*
X585686Y3261189D01*
X579126Y3267748D01*
X566007Y3267748D01*
X559448Y3261189D01*
X559448Y3248069D01*
X566007Y3241510D01*
X579126Y3241510D01*
X585686Y3248069D01*
X585686Y3287427D02*
X585686Y3300546D01*
X579126Y3307105D01*
X566007Y3307105D01*
X559448Y3300546D01*
X559448Y3287427D01*
X566007Y3280867D01*
X579126Y3280867D01*
X585686Y3287427D01*
X552888Y3326784D02*
X559448Y3326784D01*
X559448Y3320225D01*
X559448Y3333344D01*
X559448Y3326784D01*
X579126Y3326784D01*
X585686Y3333344D01*
X546328Y3353022D02*
X585686Y3353022D01*
X566007Y3353022D01*
X559448Y3359582D01*
X559448Y3372701D01*
X566007Y3379261D01*
X585686Y3379261D01*
X1255922Y118157D02*
X1255922Y178138D01*
X1285912Y178138D01*
X1295909Y168141D01*
X1295909Y148147D01*
X1285912Y138150D01*
X1255922Y138150D01*
X1315903Y168141D02*
X1325899Y178138D01*
X1345893Y178138D01*
X1355890Y168141D01*
X1355890Y158144D01*
X1345893Y148147D01*
X1355890Y138150D01*
X1355890Y128154D01*
X1345893Y118157D01*
X1325899Y118157D01*
X1315903Y128154D01*
X1315903Y138150D01*
X1325899Y148147D01*
X1315903Y158144D01*
X1315903Y168141D01*
X1325899Y148147D02*
X1345893Y148147D01*
X2825922Y128157D02*
X2825922Y188138D01*
X2855912Y188138D01*
X2865909Y178141D01*
X2865909Y158147D01*
X2855912Y148150D01*
X2825922Y148150D01*
X2885903Y138154D02*
X2895899Y128157D01*
X2915893Y128157D01*
X2925890Y138154D01*
X2925890Y178141D01*
X2915893Y188138D01*
X2895899Y188138D01*
X2885903Y178141D01*
X2885903Y168144D01*
X2895899Y158147D01*
X2925890Y158147D01*
D79*
X2971300Y5472590D02*
X2971300Y5755190D01*
X2971300Y5472590D02*
X3271300Y5472590D01*
X2985100Y5755190D02*
X3000700Y5755190D01*
X3060700Y5755190D02*
X3271300Y5755190D01*
X3271300Y5547590D02*
X3271300Y5755190D01*
X2971300Y5755190D02*
X2985100Y5755190D01*
X3000700Y5755190D02*
X3060700Y5755190D01*
X3271300Y5472590D02*
X3271300Y5547590D01*
D138*
X703875Y3774519D02*
G03*
X712375Y3766019I8500J0D01*
G01*
X712375Y3825019D02*
G03*
X703875Y3816519I0J-8500D01*
G01*
X821493Y3766019D02*
G03*
X829993Y3774519I0J8500D01*
G01*
X829993Y3816519D02*
G03*
X821493Y3825019I-8500J0D01*
G01*
X712376Y3766020D02*
X821494Y3766020D01*
X712376Y3825020D02*
X821494Y3825020D01*
X703876Y3774520D02*
X703876Y3816520D01*
X829994Y3774520D02*
X829994Y3816520D01*
D139*
X824302Y3765668D02*
D03*
D140*
X835602Y3795518D02*
D03*
D141*
X825602Y3825768D02*
D03*
D142*
X941985Y4586384D02*
D03*
%TF.MD5,fd09e3c4f0f69f46828a0ea5a50fd4a1*%
M02*
