G04 Layer_Color=16711935*
%FSLAX26Y26*%
%MOIN*%
%TF.FileFunction,Other,Mechanical_13*%
%TF.Part,Single*%
G01*
G75*
%TA.AperFunction,NonConductor*%
%ADD79C,0.003937*%
D79*
X681517Y6877000D02*
G03*
X681517Y6877000I-62402J0D01*
G01*
X2565701Y915354D02*
G03*
X2565701Y915354I-19685J0D01*
G01*
X2089323Y1765748D02*
G03*
X2089323Y1765748I-19685J0D01*
G01*
X2158220Y2644685D02*
G03*
X2158220Y2644685I-19685J0D01*
G01*
X2089323Y2104331D02*
G03*
X2089323Y2104331I-19685J0D01*
G01*
X1841291Y7100394D02*
G03*
X1841291Y7100394I-19685J0D01*
G01*
X269441Y4478150D02*
G03*
X269441Y4478150I-19685J0D01*
G01*
X345425Y3777953D02*
G03*
X345425Y3777953I-19685J0D01*
G01*
X857039Y7802165D02*
G03*
X857039Y7802165I-19685J0D01*
G01*
X325543Y4824803D02*
G03*
X325543Y4824803I-19685J0D01*
G01*
X250740Y3538583D02*
G03*
X250740Y3538583I-19685J0D01*
G01*
X170031Y6338976D02*
G03*
X170031Y6338976I-19685J0D01*
G01*
X1220228Y4910630D02*
G03*
X1220228Y4910630I-19685J0D01*
G01*
X760583Y3956693D02*
G03*
X760583Y3956693I-19685J0D01*
G01*
X2976378Y7862992D02*
G03*
X2976378Y7862992I-19685J0D01*
G01*
X1307402Y7641000D02*
G03*
X1307402Y7641000I-62402J0D01*
G01*
X674402Y7837000D02*
G03*
X674402Y7837000I-62402J0D01*
G01*
X417402Y7836000D02*
G03*
X417402Y7836000I-62402J0D01*
G01*
X2802422Y1108456D02*
X2802422Y1165544D01*
X2715808Y1108456D02*
X2715808Y1165544D01*
X2802422Y1165544D01*
X2715808Y1108456D02*
X2802422Y1108456D01*
X2744666Y966960D02*
X2813564Y966960D01*
X2744666Y1087040D02*
X2813564Y1087040D01*
X2744666Y966960D02*
X2744666Y1087040D01*
X2813564Y966960D02*
X2813564Y1087040D01*
X616278Y1303102D02*
X616278Y1389716D01*
X563128Y1303102D02*
X563128Y1389716D01*
X563128Y1303102D02*
X616278Y1303102D01*
X563128Y1389716D02*
X616278Y1389716D01*
X926132Y6592914D02*
X926132Y6789764D01*
X926132Y6592914D02*
X2028496Y6592914D01*
X2028496Y6789764D01*
X926132Y6789764D02*
X2028496Y6789764D01*
X1266490Y4930118D02*
X1353104Y4930118D01*
X1266490Y4876968D02*
X1353104Y4876968D01*
X1353104Y4930118D01*
X1266490Y4876968D02*
X1266490Y4930118D01*
X2712354Y1899608D02*
X2712354Y1986222D01*
X2765504Y1899608D02*
X2765504Y1986222D01*
X2712354Y1986222D02*
X2765504Y1986222D01*
X2712354Y1899608D02*
X2765504Y1899608D01*
X2796998Y1899608D02*
X2850148Y1899608D01*
X2796998Y1986222D02*
X2850148Y1986222D01*
X2850148Y1899608D02*
X2850148Y1986222D01*
X2796998Y1899608D02*
X2796998Y1986222D01*
X2384598Y879922D02*
X2384598Y1037402D01*
X2581448Y879922D02*
X2581448Y1037402D01*
X2384598Y1037402D02*
X2581448Y1037402D01*
X2384598Y879922D02*
X2581448Y879922D01*
X2105070Y1455708D02*
X2105070Y1800196D01*
X1947590Y1455708D02*
X1947590Y1800196D01*
X2105070Y1800196D01*
X1947590Y1455708D02*
X2105070Y1455708D01*
X1245818Y5895668D02*
X1245818Y5982282D01*
X1192668Y5895668D02*
X1192668Y5982282D01*
X1192668Y5895668D02*
X1245818Y5895668D01*
X1192668Y5982282D02*
X1245818Y5982282D01*
X916094Y6160434D02*
X1002708Y6160434D01*
X916094Y6213582D02*
X1002708Y6213582D01*
X1002708Y6160434D02*
X1002708Y6213582D01*
X916094Y6160434D02*
X916094Y6213582D01*
X2963338Y6918306D02*
X2963338Y6971456D01*
X2876724Y6918306D02*
X2876724Y6971456D01*
X2963338Y6971456D01*
X2876724Y6918306D02*
X2963338Y6918306D01*
X2778064Y6742424D02*
X2778064Y6795574D01*
X2864678Y6742424D02*
X2864678Y6795574D01*
X2778064Y6742424D02*
X2864678Y6742424D01*
X2778064Y6795574D02*
X2864678Y6795574D01*
X2907678Y6637426D02*
X2907678Y6690576D01*
X2821062Y6637426D02*
X2821062Y6690576D01*
X2907678Y6690576D01*
X2821062Y6637426D02*
X2907678Y6637426D01*
X651332Y4045274D02*
X708418Y4045274D01*
X651332Y4131888D02*
X708418Y4131888D01*
X651332Y4045274D02*
X651332Y4131888D01*
X708418Y4045274D02*
X708418Y4131888D01*
X2277316Y6585788D02*
X2340308Y6585788D01*
X2277316Y6633032D02*
X2340308Y6633032D01*
X2340308Y6585788D02*
X2340308Y6633032D01*
X2277316Y6585788D02*
X2277316Y6633032D01*
X757628Y7864174D02*
X757628Y7950788D01*
X814714Y7864174D02*
X814714Y7950788D01*
X757628Y7950788D02*
X814714Y7950788D01*
X757628Y7864174D02*
X814714Y7864174D01*
X3038140Y4554134D02*
X3124754Y4554134D01*
X3038140Y4607282D02*
X3124754Y4607282D01*
X3124754Y4554134D02*
X3124754Y4607282D01*
X3038140Y4554134D02*
X3038140Y4607282D01*
X2573576Y4002954D02*
X2660190Y4002954D01*
X2573576Y4056104D02*
X2660190Y4056104D01*
X2573576Y4002954D02*
X2573576Y4056104D01*
X2660190Y4002954D02*
X2660190Y4056104D01*
X2573572Y4213584D02*
X2660186Y4213584D01*
X2573572Y4160434D02*
X2660186Y4160434D01*
X2660186Y4213584D01*
X2573572Y4160434D02*
X2573572Y4213584D01*
X2491882Y4812992D02*
X2491882Y4899606D01*
X2545032Y4812992D02*
X2545032Y4899606D01*
X2491882Y4899606D02*
X2545032Y4899606D01*
X2491882Y4812992D02*
X2545032Y4812992D01*
X1904284Y5414368D02*
X1990898Y5414368D01*
X1904284Y5361218D02*
X1990898Y5361218D01*
X1990898Y5414368D01*
X1904284Y5361218D02*
X1904284Y5414368D01*
X1904284Y5282482D02*
X1990898Y5282482D01*
X1904284Y5335632D02*
X1990898Y5335632D01*
X1904284Y5282482D02*
X1904284Y5335632D01*
X1990898Y5282482D02*
X1990898Y5335632D01*
X2312748Y950788D02*
X2369836Y950788D01*
X2312748Y1037402D02*
X2369836Y1037402D01*
X2369836Y950788D02*
X2369836Y1037402D01*
X2312748Y950788D02*
X2312748Y1037402D01*
X2218260Y954724D02*
X2275348Y954724D01*
X2218260Y1041338D02*
X2275348Y1041338D01*
X2275348Y954724D02*
X2275348Y1041338D01*
X2218260Y954724D02*
X2218260Y1041338D01*
X149364Y3202754D02*
X202512Y3202754D01*
X149364Y3289368D02*
X202512Y3289368D01*
X202512Y3202754D02*
X202512Y3289368D01*
X149364Y3202754D02*
X149364Y3289368D01*
X2429874Y8302558D02*
X2429874Y8389174D01*
X2483024Y8302558D02*
X2483024Y8389174D01*
X2429874Y8389174D02*
X2483024Y8389174D01*
X2429874Y8302558D02*
X2483024Y8302558D01*
X1684796Y4200788D02*
X1737946Y4200788D01*
X1684796Y4114174D02*
X1737946Y4114174D01*
X1737946Y4200788D01*
X1684796Y4114174D02*
X1684796Y4200788D01*
X2062064Y2450542D02*
X2148678Y2450542D01*
X2062064Y2393456D02*
X2148678Y2393456D01*
X2148678Y2450542D01*
X2062064Y2393456D02*
X2062064Y2450542D01*
X2016486Y2483268D02*
X2173966Y2483268D01*
X2016486Y2680118D02*
X2173966Y2680118D01*
X2016486Y2483268D02*
X2016486Y2680118D01*
X2173966Y2483268D02*
X2173966Y2680118D01*
X2189716Y1882874D02*
X2276330Y1882874D01*
X2189716Y1825786D02*
X2276330Y1825786D01*
X2276330Y1882874D01*
X2189716Y1825786D02*
X2189716Y1882874D01*
X2261568Y1978348D02*
X2261568Y2064962D01*
X2204480Y1978348D02*
X2204480Y2064962D01*
X2204480Y1978348D02*
X2261568Y1978348D01*
X2204480Y2064962D02*
X2261568Y2064962D01*
X1746802Y2004922D02*
X1833416Y2004922D01*
X1746802Y2058072D02*
X1833416Y2058072D01*
X1746802Y2004922D02*
X1746802Y2058072D01*
X1833416Y2004922D02*
X1833416Y2058072D01*
X1746804Y1989174D02*
X1833418Y1989174D01*
X1746804Y1936024D02*
X1833418Y1936024D01*
X1833418Y1989174D01*
X1746804Y1936024D02*
X1746804Y1989174D01*
X1734994Y1808074D02*
X1821608Y1808074D01*
X1734994Y1754924D02*
X1821608Y1754924D01*
X1821608Y1808074D01*
X1734994Y1754924D02*
X1734994Y1808074D01*
X1734992Y1687992D02*
X1821606Y1687992D01*
X1734992Y1741142D02*
X1821606Y1741142D01*
X1734992Y1687992D02*
X1734992Y1741142D01*
X1821606Y1687992D02*
X1821606Y1741142D01*
X1734992Y1674214D02*
X1821606Y1674214D01*
X1734992Y1621064D02*
X1821606Y1621064D01*
X1821606Y1674214D01*
X1734992Y1621064D02*
X1734992Y1674214D01*
X1734992Y1554132D02*
X1821606Y1554132D01*
X1734992Y1607282D02*
X1821606Y1607282D01*
X1734992Y1554132D02*
X1734992Y1607282D01*
X1821606Y1554132D02*
X1821606Y1607282D01*
X2238930Y1723424D02*
X2325544Y1723424D01*
X2238930Y1670274D02*
X2325544Y1670274D01*
X2325544Y1723424D01*
X2238930Y1670274D02*
X2238930Y1723424D01*
X2238928Y1522638D02*
X2325542Y1522638D01*
X2238928Y1575788D02*
X2325542Y1575788D01*
X2238928Y1522638D02*
X2238928Y1575788D01*
X2325542Y1522638D02*
X2325542Y1575788D01*
X2238930Y1506892D02*
X2325544Y1506892D01*
X2238930Y1453742D02*
X2325544Y1453742D01*
X2325544Y1506892D01*
X2238930Y1453742D02*
X2238930Y1506892D01*
X2238928Y1601376D02*
X2325542Y1601376D01*
X2238928Y1654526D02*
X2325542Y1654526D01*
X2238928Y1601376D02*
X2238928Y1654526D01*
X2325542Y1601376D02*
X2325542Y1654526D01*
X1947590Y1942914D02*
X2105070Y1942914D01*
X1947590Y2139764D02*
X2105070Y2139764D01*
X1947590Y1942914D02*
X1947590Y2139764D01*
X2105070Y1942914D02*
X2105070Y2139764D01*
X546016Y3227364D02*
X546016Y3280512D01*
X459402Y3227364D02*
X459402Y3280512D01*
X459402Y3227364D02*
X546016Y3227364D01*
X459402Y3280512D02*
X546016Y3280512D01*
X1247788Y7785432D02*
X1247788Y7872046D01*
X1190702Y7785432D02*
X1190702Y7872046D01*
X1247788Y7872046D01*
X1190702Y7785432D02*
X1247788Y7785432D01*
X954478Y7675194D02*
X1011564Y7675194D01*
X954478Y7588580D02*
X1011564Y7588580D01*
X954478Y7588580D02*
X954478Y7675194D01*
X1011564Y7588580D02*
X1011564Y7675194D01*
X191684Y6459054D02*
X278298Y6459054D01*
X191684Y6401968D02*
X278298Y6401968D01*
X278298Y6459054D01*
X191684Y6401968D02*
X191684Y6459054D01*
X228102Y6316338D02*
X281252Y6316338D01*
X228102Y6229724D02*
X281252Y6229724D01*
X228102Y6229724D02*
X228102Y6316338D01*
X281252Y6229724D02*
X281252Y6316338D01*
X1521016Y4816732D02*
X1521016Y4869882D01*
X1607630Y4816732D02*
X1607630Y4869882D01*
X1521016Y4869882D02*
X1607630Y4869882D01*
X1521016Y4816732D02*
X1607630Y4816732D01*
X1521018Y4716732D02*
X1521018Y4769882D01*
X1607632Y4716732D02*
X1607632Y4769882D01*
X1521018Y4769882D02*
X1607632Y4769882D01*
X1521018Y4716732D02*
X1607632Y4716732D01*
X250740Y4290356D02*
X337354Y4290356D01*
X250740Y4233270D02*
X337354Y4233270D01*
X250740Y4233270D02*
X250740Y4290356D01*
X337354Y4233270D02*
X337354Y4290356D01*
X254678Y4514766D02*
X341292Y4514766D01*
X254678Y4567914D02*
X341292Y4567914D01*
X254678Y4514766D02*
X254678Y4567914D01*
X341292Y4514766D02*
X341292Y4567914D01*
X986824Y4727694D02*
X986824Y4814308D01*
X1043912Y4727694D02*
X1043912Y4814308D01*
X986824Y4727694D02*
X1043912Y4727694D01*
X986824Y4814308D02*
X1043912Y4814308D01*
X1675938Y5576772D02*
X1675938Y5710630D01*
X1864916Y5576772D02*
X1864916Y5710630D01*
X1675938Y5576772D02*
X1864916Y5576772D01*
X1675938Y5710630D02*
X1864916Y5710630D01*
X1699560Y6938976D02*
X1857040Y6938976D01*
X1699560Y7135828D02*
X1857040Y7135828D01*
X1699560Y6938976D02*
X1699560Y7135828D01*
X1857040Y6938976D02*
X1857040Y7135828D01*
X2057828Y7058070D02*
X2057828Y7115156D01*
X1971214Y7058070D02*
X1971214Y7115156D01*
X2057828Y7115156D01*
X1971214Y7058070D02*
X2057828Y7058070D01*
X2057826Y6930118D02*
X2057826Y6987204D01*
X1971212Y6930118D02*
X1971212Y6987204D01*
X2057826Y6987204D01*
X1971212Y6930118D02*
X2057826Y6930118D01*
X1488930Y7084646D02*
X1595230Y7084646D01*
X1488930Y6950788D02*
X1595230Y6950788D01*
X1488930Y6950788D02*
X1488930Y7084646D01*
X1595230Y6950788D02*
X1595230Y7084646D01*
X2531254Y8485582D02*
X2617868Y8485582D01*
X2531254Y8428496D02*
X2617868Y8428496D01*
X2617868Y8485582D01*
X2531254Y8428496D02*
X2531254Y8485582D01*
X2858020Y6847440D02*
X2858020Y6884842D01*
X2789122Y6847440D02*
X2789122Y6884842D01*
X2858020Y6884842D01*
X2789122Y6847440D02*
X2858020Y6847440D01*
X2951532Y7252952D02*
X2951532Y7310038D01*
X2864916Y7252952D02*
X2864916Y7310038D01*
X2951532Y7310038D01*
X2864916Y7252952D02*
X2951532Y7252952D01*
X2974302Y7332566D02*
X2974302Y7403432D01*
X2840442Y7332566D02*
X2840442Y7403432D01*
X2974302Y7403432D01*
X2840442Y7332566D02*
X2974302Y7332566D01*
X2635062Y6635458D02*
X2635062Y6692546D01*
X2721678Y6635458D02*
X2721678Y6692546D01*
X2635062Y6635458D02*
X2721678Y6635458D01*
X2635062Y6692546D02*
X2721678Y6692546D01*
X2886718Y7225812D02*
X2930026Y7225812D01*
X2886718Y7202190D02*
X2930026Y7202190D01*
X2930026Y7225812D01*
X2886718Y7202190D02*
X2886718Y7225812D01*
X3121802Y4958660D02*
X3174950Y4958660D01*
X3121802Y4872046D02*
X3174950Y4872046D01*
X3121802Y4872046D02*
X3121802Y4958660D01*
X3174950Y4872046D02*
X3174950Y4958660D01*
X3210386Y4872048D02*
X3263536Y4872048D01*
X3210386Y4958662D02*
X3263536Y4958662D01*
X3263536Y4872048D02*
X3263536Y4958662D01*
X3210386Y4872048D02*
X3210386Y4958662D01*
X2747786Y4958662D02*
X2800936Y4958662D01*
X2747786Y4872048D02*
X2800936Y4872048D01*
X2747786Y4872048D02*
X2747786Y4958662D01*
X2800936Y4872048D02*
X2800936Y4958662D01*
X2836368Y4872048D02*
X2889518Y4872048D01*
X2836368Y4958662D02*
X2889518Y4958662D01*
X2889518Y4872048D02*
X2889518Y4958662D01*
X2836368Y4872048D02*
X2836368Y4958662D01*
X2695622Y8302556D02*
X2748772Y8302556D01*
X2695622Y8389172D02*
X2748772Y8389172D01*
X2748772Y8302556D02*
X2748772Y8389172D01*
X2695622Y8302556D02*
X2695622Y8389172D01*
X3151330Y4368110D02*
X3204480Y4368110D01*
X3151330Y4281496D02*
X3204480Y4281496D01*
X3151330Y4281496D02*
X3151330Y4368110D01*
X3204480Y4281496D02*
X3204480Y4368110D01*
X3072590Y4368110D02*
X3125740Y4368110D01*
X3072590Y4281496D02*
X3125740Y4281496D01*
X3072590Y4281496D02*
X3072590Y4368110D01*
X3125740Y4281496D02*
X3125740Y4368110D01*
X2936766Y7033462D02*
X2936766Y7147636D01*
X2867868Y7033462D02*
X2867868Y7147636D01*
X2936766Y7147636D01*
X2867868Y7033462D02*
X2936766Y7033462D01*
X245820Y3486220D02*
X302906Y3486220D01*
X245820Y3399606D02*
X302906Y3399606D01*
X245820Y3399606D02*
X245820Y3486220D01*
X302906Y3399606D02*
X302906Y3486220D01*
X269442Y3994094D02*
X326528Y3994094D01*
X269442Y3907480D02*
X326528Y3907480D01*
X269442Y3907480D02*
X269442Y3994094D01*
X326528Y3907480D02*
X326528Y3994094D01*
X251726Y3289370D02*
X304874Y3289370D01*
X251726Y3202756D02*
X304874Y3202756D01*
X251726Y3202756D02*
X251726Y3289370D01*
X304874Y3202756D02*
X304874Y3289370D01*
X2827512Y5547244D02*
X2827512Y5681102D01*
X3016488Y5547244D02*
X3016488Y5681102D01*
X2827512Y5547244D02*
X3016488Y5547244D01*
X2827512Y5681102D02*
X3016488Y5681102D01*
X1949558Y5765748D02*
X2083418Y5765748D01*
X1949558Y5954724D02*
X2083418Y5954724D01*
X2083418Y5765748D02*
X2083418Y5954724D01*
X1949558Y5765748D02*
X1949558Y5954724D01*
X1949558Y6318896D02*
X2083416Y6318896D01*
X1949558Y6129920D02*
X2083416Y6129920D01*
X1949558Y6129920D02*
X1949558Y6318896D01*
X2083416Y6129920D02*
X2083416Y6318896D01*
X2168064Y6688978D02*
X2221214Y6688978D01*
X2168064Y6602362D02*
X2221214Y6602362D01*
X2168064Y6602362D02*
X2168064Y6688978D01*
X2221214Y6602362D02*
X2221214Y6688978D01*
X2645622Y5157480D02*
X2903102Y5157480D01*
X2645622Y5397442D02*
X2903102Y5397442D01*
X2903102Y5157480D02*
X2903102Y5397442D01*
X2645622Y5157480D02*
X2645622Y5397442D01*
X3017228Y5154330D02*
X3274708Y5154330D01*
X3017228Y5394290D02*
X3274708Y5394290D01*
X3274708Y5154330D02*
X3274708Y5394290D01*
X3017228Y5154330D02*
X3017228Y5394290D01*
X3055374Y4084993D02*
X3312854Y4084993D01*
X3055374Y3845033D02*
X3312854Y3845033D01*
X3055374Y3845033D02*
X3055374Y4084993D01*
X3312854Y3845033D02*
X3312854Y4084993D01*
X636692Y8484544D02*
X723306Y8484544D01*
X636692Y8427458D02*
X723306Y8427458D01*
X723306Y8484544D01*
X636692Y8427458D02*
X636692Y8484544D01*
X1122022Y8485584D02*
X1208636Y8485584D01*
X1122022Y8428498D02*
X1208636Y8428498D01*
X1208636Y8485584D01*
X1122022Y8428498D02*
X1122022Y8485584D01*
X881394Y8484954D02*
X968008Y8484954D01*
X881394Y8427868D02*
X968008Y8427868D01*
X968008Y8484954D01*
X881394Y8427868D02*
X881394Y8484954D01*
X1005270Y8485582D02*
X1091884Y8485582D01*
X1005270Y8428496D02*
X1091884Y8428496D01*
X1091884Y8485582D01*
X1005270Y8428496D02*
X1005270Y8485582D01*
X761392Y8484954D02*
X848006Y8484954D01*
X761392Y8427868D02*
X848006Y8427868D01*
X848006Y8484954D01*
X761392Y8427868D02*
X761392Y8484954D01*
X2285190Y8482678D02*
X2371804Y8482678D01*
X2285190Y8425592D02*
X2371804Y8425592D01*
X2371804Y8482678D01*
X2285190Y8425592D02*
X2285190Y8482678D01*
X1018326Y6349504D02*
X1104940Y6349504D01*
X1018326Y6296354D02*
X1104940Y6296354D01*
X1018326Y6296354D02*
X1018326Y6349504D01*
X1104940Y6296354D02*
X1104940Y6349504D01*
X214324Y4316732D02*
X371804Y4316732D01*
X214324Y4513582D02*
X371804Y4513582D01*
X371804Y4316732D02*
X371804Y4513582D01*
X214324Y4316732D02*
X214324Y4513582D01*
X203694Y4087992D02*
X361174Y4087992D01*
X203694Y3743504D02*
X361174Y3743504D01*
X203694Y3743504D02*
X203694Y4087992D01*
X361174Y3743504D02*
X361174Y4087992D01*
X1188734Y7019684D02*
X1245820Y7019684D01*
X1188734Y7106298D02*
X1245820Y7106298D01*
X1188734Y7019684D02*
X1188734Y7106298D01*
X1245820Y7019684D02*
X1245820Y7106298D01*
X1388534Y6980314D02*
X1388534Y7114174D01*
X1282236Y6980314D02*
X1282236Y7114174D01*
X1388534Y7114174D01*
X1282236Y6980314D02*
X1388534Y6980314D01*
X1420034Y6980316D02*
X1526332Y6980316D01*
X1420034Y7114174D02*
X1526332Y7114174D01*
X1420034Y6980316D02*
X1420034Y7114174D01*
X1526332Y6980316D02*
X1526332Y7114174D01*
X3252710Y7742124D02*
X3252710Y7875984D01*
X3181844Y7742124D02*
X3181844Y7875984D01*
X3252710Y7875984D01*
X3181844Y7742124D02*
X3252710Y7742124D01*
X2748772Y7742126D02*
X2819638Y7742126D01*
X2748772Y7875984D02*
X2819638Y7875984D01*
X2748772Y7742126D02*
X2748772Y7875984D01*
X2819638Y7742126D02*
X2819638Y7875984D01*
X801922Y7437992D02*
X801922Y7837598D01*
X1081450Y7437992D02*
X1081450Y7837598D01*
X801922Y7837598D02*
X1081450Y7837598D01*
X801922Y7437992D02*
X1081450Y7437992D01*
X2747788Y4872046D02*
X2800936Y4872046D01*
X2747788Y4958660D02*
X2800936Y4958660D01*
X2747788Y4872046D02*
X2747788Y4958660D01*
X2800936Y4872046D02*
X2800936Y4958660D01*
X2649796Y4871694D02*
X2702946Y4871694D01*
X2649796Y4958308D02*
X2702946Y4958308D01*
X2649796Y4871694D02*
X2649796Y4958308D01*
X2702946Y4871694D02*
X2702946Y4958308D01*
X3121802Y4862204D02*
X3174952Y4862204D01*
X3121802Y4948818D02*
X3174952Y4948818D01*
X3121802Y4862204D02*
X3121802Y4948818D01*
X3174952Y4862204D02*
X3174952Y4948818D01*
X3033220Y4862206D02*
X3086370Y4862206D01*
X3033220Y4948820D02*
X3086370Y4948820D01*
X3033220Y4862206D02*
X3033220Y4948820D01*
X3086370Y4862206D02*
X3086370Y4948820D01*
X3021654Y5146456D02*
X3279134Y5146456D01*
X3021654Y5386418D02*
X3279134Y5386418D01*
X3021654Y5146456D02*
X3021654Y5386418D01*
X3279134Y5146456D02*
X3279134Y5386418D01*
X2635778Y5147638D02*
X2893258Y5147638D01*
X2635778Y5387598D02*
X2893258Y5387598D01*
X2635778Y5147638D02*
X2635778Y5387598D01*
X2893258Y5147638D02*
X2893258Y5387598D01*
X498772Y5081692D02*
X585386Y5081692D01*
X498772Y5134842D02*
X585386Y5134842D01*
X585386Y5081692D02*
X585386Y5134842D01*
X498772Y5081692D02*
X498772Y5134842D01*
X498772Y4979332D02*
X585386Y4979332D01*
X498772Y5032480D02*
X585386Y5032480D01*
X585386Y4979332D02*
X585386Y5032480D01*
X498772Y4979332D02*
X498772Y5032480D01*
X498772Y4774606D02*
X585386Y4774606D01*
X498772Y4827756D02*
X585386Y4827756D01*
X585386Y4774606D02*
X585386Y4827756D01*
X498772Y4774606D02*
X498772Y4827756D01*
X498772Y4876968D02*
X585386Y4876968D01*
X498772Y4930118D02*
X585386Y4930118D01*
X585386Y4876968D02*
X585386Y4930118D01*
X498772Y4876968D02*
X498772Y4930118D01*
X775348Y5694880D02*
X775348Y5781494D01*
X828498Y5694880D02*
X828498Y5781494D01*
X775348Y5694880D02*
X828498Y5694880D01*
X775348Y5781494D02*
X828498Y5781494D01*
X892794Y5695694D02*
X892794Y5782308D01*
X945944Y5695694D02*
X945944Y5782308D01*
X892794Y5695694D02*
X945944Y5695694D01*
X892794Y5782308D02*
X945944Y5782308D01*
X908220Y6107282D02*
X994834Y6107282D01*
X908220Y6054132D02*
X994834Y6054132D01*
X908220Y6054132D02*
X908220Y6107282D01*
X994834Y6054132D02*
X994834Y6107282D01*
X616292Y4436618D02*
X702906Y4436618D01*
X616292Y4489766D02*
X702906Y4489766D01*
X616292Y4436618D02*
X616292Y4489766D01*
X702906Y4436618D02*
X702906Y4489766D01*
X606450Y4590160D02*
X693064Y4590160D01*
X606450Y4533074D02*
X693064Y4533074D01*
X693064Y4590160D01*
X606450Y4533074D02*
X606450Y4590160D01*
X616290Y4328352D02*
X702904Y4328352D01*
X616290Y4381500D02*
X702904Y4381500D01*
X616290Y4328352D02*
X616290Y4381500D01*
X702904Y4328352D02*
X702904Y4381500D01*
X710780Y4233862D02*
X710780Y4290950D01*
X624166Y4233862D02*
X624166Y4290950D01*
X710780Y4290950D01*
X624166Y4233862D02*
X710780Y4233862D01*
X2553890Y6925196D02*
X2687748Y6925196D01*
X2553890Y6854330D02*
X2687748Y6854330D01*
X2687748Y6925196D01*
X2553890Y6854330D02*
X2553890Y6925196D01*
X2554440Y7050150D02*
X2688298Y7050150D01*
X2554440Y6943850D02*
X2688298Y6943850D01*
X2688298Y7050150D01*
X2554440Y6943850D02*
X2554440Y7050150D01*
X971214Y5034450D02*
X1057828Y5034450D01*
X971214Y4981300D02*
X1057828Y4981300D01*
X1057828Y5034450D01*
X971214Y4981300D02*
X971214Y5034450D01*
X971214Y4936024D02*
X1057828Y4936024D01*
X971214Y4882874D02*
X1057828Y4882874D01*
X1057828Y4936024D01*
X971214Y4882874D02*
X971214Y4936024D01*
X336368Y4313582D02*
X336368Y4366730D01*
X249754Y4313582D02*
X249754Y4366730D01*
X336368Y4366730D01*
X249754Y4313582D02*
X336368Y4313582D01*
X249756Y4413584D02*
X336370Y4413584D01*
X249756Y4466732D02*
X336370Y4466732D01*
X249756Y4413584D02*
X249756Y4466732D01*
X336370Y4413584D02*
X336370Y4466732D01*
X341292Y4789370D02*
X341292Y4986220D01*
X183812Y4789370D02*
X183812Y4986220D01*
X183812Y4789370D02*
X341292Y4789370D01*
X183812Y4986220D02*
X341292Y4986220D01*
X1266490Y4849410D02*
X1353104Y4849410D01*
X1266490Y4792324D02*
X1353104Y4792324D01*
X1353104Y4849410D01*
X1266490Y4792324D02*
X1266490Y4849410D01*
X1266490Y4707680D02*
X1353104Y4707680D01*
X1266490Y4760830D02*
X1353104Y4760830D01*
X1266490Y4707680D02*
X1266490Y4760830D01*
X1353104Y4707680D02*
X1353104Y4760830D01*
X1266490Y4682086D02*
X1353104Y4682086D01*
X1266490Y4628938D02*
X1353104Y4628938D01*
X1353104Y4682086D01*
X1266490Y4628938D02*
X1266490Y4682086D01*
X498774Y5134846D02*
X585388Y5134846D01*
X498774Y5081696D02*
X585388Y5081696D01*
X585388Y5134846D01*
X498774Y5081696D02*
X498774Y5134846D01*
X585384Y4977362D02*
X585384Y5034448D01*
X498770Y4977362D02*
X498770Y5034448D01*
X585384Y5034448D01*
X498770Y4977362D02*
X585384Y4977362D01*
X585386Y4875000D02*
X585386Y4932086D01*
X498772Y4875000D02*
X498772Y4932086D01*
X585386Y4932086D01*
X498772Y4875000D02*
X585386Y4875000D01*
X498774Y4827758D02*
X585388Y4827758D01*
X498774Y4774608D02*
X585388Y4774608D01*
X585388Y4827758D01*
X498774Y4774608D02*
X498774Y4827758D01*
X341292Y5032480D02*
X427906Y5032480D01*
X341292Y4979330D02*
X427906Y4979330D01*
X427906Y5032480D01*
X341292Y4979330D02*
X341292Y5032480D01*
X916096Y3772640D02*
X916096Y3829726D01*
X829482Y3772640D02*
X829482Y3829726D01*
X916096Y3829726D01*
X829482Y3772640D02*
X916096Y3772640D01*
X916094Y3693898D02*
X916094Y3750984D01*
X829480Y3693898D02*
X829480Y3750984D01*
X916094Y3750984D01*
X829480Y3693898D02*
X916094Y3693898D01*
X916096Y3855316D02*
X916096Y3912402D01*
X829482Y3855316D02*
X829482Y3912402D01*
X916096Y3912402D01*
X829482Y3855316D02*
X916096Y3855316D01*
X916096Y3937994D02*
X916096Y3995080D01*
X829482Y3937994D02*
X829482Y3995080D01*
X916096Y3995080D01*
X829482Y3937994D02*
X916096Y3937994D01*
X985976Y3931102D02*
X1043062Y3931102D01*
X985976Y4017716D02*
X1043062Y4017716D01*
X985976Y3931102D02*
X985976Y4017716D01*
X1043062Y3931102D02*
X1043062Y4017716D01*
X254678Y4660432D02*
X341292Y4660432D01*
X254678Y4603346D02*
X341292Y4603346D01*
X341292Y4660432D01*
X254678Y4603346D02*
X254678Y4660432D01*
X195622Y3228544D02*
X353102Y3228544D01*
X195622Y3573032D02*
X353102Y3573032D01*
X353102Y3228544D02*
X353102Y3573032D01*
X195622Y3228544D02*
X195622Y3573032D01*
X241882Y4805120D02*
X298970Y4805120D01*
X241882Y4891734D02*
X298970Y4891734D01*
X298970Y4805120D02*
X298970Y4891734D01*
X241882Y4805120D02*
X241882Y4891734D01*
X114916Y5974802D02*
X114916Y6374410D01*
X394442Y5974802D02*
X394442Y6374410D01*
X114916Y6374410D02*
X394442Y6374410D01*
X114916Y5974802D02*
X394442Y5974802D01*
X482040Y6320864D02*
X482040Y6407478D01*
X539126Y6320864D02*
X539126Y6407478D01*
X482040Y6407478D02*
X539126Y6407478D01*
X482040Y6320864D02*
X539126Y6320864D01*
X482042Y6218504D02*
X539128Y6218504D01*
X482042Y6131890D02*
X539128Y6131890D01*
X482042Y6131890D02*
X482042Y6218504D01*
X539128Y6131890D02*
X539128Y6218504D01*
X715310Y6715550D02*
X715310Y6768700D01*
X801924Y6715550D02*
X801924Y6768700D01*
X715310Y6715550D02*
X801924Y6715550D01*
X715310Y6768700D02*
X801924Y6768700D01*
X877708Y7226968D02*
X1005662Y7226968D01*
X877708Y6906890D02*
X1005662Y6906890D01*
X1005662Y7226968D01*
X877708Y6906890D02*
X877708Y7226968D01*
X1165110Y4686220D02*
X1342276Y4686220D01*
X1165110Y4946064D02*
X1342276Y4946064D01*
X1342276Y4686220D02*
X1342276Y4946064D01*
X1165110Y4686220D02*
X1165110Y4946064D01*
X705464Y3681102D02*
X882630Y3681102D01*
X705464Y3992126D02*
X882630Y3992126D01*
X882630Y3681102D02*
X882630Y3992126D01*
X705464Y3681102D02*
X705464Y3992126D01*
X2921260Y7701574D02*
X2921260Y7898426D01*
X3078740Y7701574D02*
X3078740Y7898426D01*
X2921260Y7898426D02*
X3078740Y7898426D01*
X2921260Y7701574D02*
X3078740Y7701574D01*
%TF.MD5,f5931c77ea18f604aa253d0593d0409a*%
M02*
