G04 Layer_Color=0*
%FSLAX26Y26*%
%MOIN*%
%TF.FileFunction,Plated,1,6,PTH,Drill*%
%TF.Part,Single*%
G01*
G75*
%TA.AperFunction,ComponentDrill*%
%ADD150C,0.022268*%
%ADD151C,0.022268*%
%ADD152C,0.062992*%
%ADD153C,0.039370*%
%ADD154C,0.031496*%
%ADD155C,0.030000*%
%ADD156C,0.100000*%
%ADD157C,0.047000*%
%ADD158C,0.047244*%
%ADD159C,0.047244*%
%ADD160C,0.035433*%
%ADD161C,0.020000*%
%ADD162C,0.082000*%
%ADD163C,0.050000*%
%ADD164C,0.059055*%
%ADD165C,0.027559*%
%TA.AperFunction,OtherDrill,Free Pad (1908.949mil,2764.812mil)*%
%ADD166C,0.030000*%
%TA.AperFunction,OtherDrill,Free Pad (1790.837mil,2764.812mil)*%
%ADD167C,0.030000*%
%TA.AperFunction,OtherDrill,Free Pad (1436.507mil,2725.442mil)*%
%ADD168C,0.030000*%
%TA.AperFunction,OtherDrill,Free Pad (1200.287mil,2567.96mil)*%
%ADD169C,0.030000*%
%TA.AperFunction,OtherDrill,Free Pad (1436.507mil,3006.032mil)*%
%ADD170C,0.030000*%
%TA.AperFunction,OtherDrill,Free Pad (1554.617mil,3202.882mil)*%
%ADD171C,0.030000*%
%TA.AperFunction,OtherDrill,Free Pad (1790.837mil,3202.882mil)*%
%ADD172C,0.030000*%
%TA.AperFunction,OtherDrill,Free Pad (2027.057mil,3202.882mil)*%
%ADD173C,0.030000*%
%TA.AperFunction,OtherDrill,Free Pad (1790.837mil,3439.102mil)*%
%ADD174C,0.030000*%
%TA.AperFunction,OtherDrill,Free Pad (1436.507mil,3439.102mil)*%
%ADD175C,0.030000*%
%TA.AperFunction,OtherDrill,Free Pad (924.695mil,3124.142mil)*%
%ADD176C,0.030000*%
%TA.AperFunction,OtherDrill,Free Pad (590.049mil,3045.402mil)*%
%ADD177C,0.030000*%
%TA.AperFunction,OtherDrill,Free Pad (216.035mil,3045.402mil)*%
%ADD178C,0.030000*%
%TA.AperFunction,OtherDrill,Free Pad (334.145mil,3045.402mil)*%
%ADD179C,0.030000*%
%TA.AperFunction,OtherDrill,Free Pad (388.199mil,2759.812mil)*%
%ADD180C,0.030000*%
%TA.AperFunction,OtherDrill,Free Pad (151.979mil,2759.812mil)*%
%ADD181C,0.030000*%
%TA.AperFunction,OtherDrill,Free Pad (151.979mil,2562.96mil)*%
%ADD182C,0.030000*%
%TA.AperFunction,ComponentDrill*%
%ADD183C,0.055118*%
%ADD184C,0.043307*%
%TA.AperFunction,OtherDrill,Pad Free-3 (1771.153mil,-10.78mil)*%
%ADD185C,0.118110*%
%TA.AperFunction,OtherDrill,Pad Free-3 (-103.745mil,0mil)*%
%ADD186C,0.118110*%
%TA.AperFunction,OtherDrill,Pad Free-3 (49.309mil,-2648.574mil)*%
%ADD187C,0.118110*%
%TA.AperFunction,OtherDrill,Pad Free-3 (1643.201mil,-2648.574mil)*%
%ADD188C,0.118110*%
%TA.AperFunction,OtherDrill,Pad Free-3 (300.585mil,959.41mil)*%
%ADD189C,0.090000*%
%TA.AperFunction,OtherDrill,Pad Free-3 (-999.415mil,-50.59mil)*%
%ADD190C,0.090000*%
%TA.AperFunction,OtherDrill,Pad Free-3 (300.585mil,2199.41mil)*%
%ADD191C,0.090000*%
%TA.AperFunction,OtherDrill,Pad Free-3 (-999.415mil,2199.41mil)*%
%ADD192C,0.090000*%
%TA.AperFunction,OtherDrill,Pad Free-4 (300.585mil,-500.59mil)*%
%ADD193C,0.085000*%
%TA.AperFunction,OtherDrill,Pad Free-5 (1350.585mil,549.41mil)*%
%ADD194C,0.085000*%
%TA.AperFunction,OtherDrill,Pad Free-6 (1350.585mil,-500.59mil)*%
%ADD195C,0.085000*%
%TA.AperFunction,OtherDrill,Pad Free-7 (300.585mil,549.41mil)*%
%ADD196C,0.085000*%
%TA.AperFunction,ComponentDrill*%
%ADD197C,0.035433*%
%TA.AperFunction,ViaDrill,NotFilled*%
%ADD198C,0.011811*%
%ADD199C,0.028000*%
D150*
X-828493Y2717567D02*
D03*
X-878493Y2717567D02*
D03*
X-928493Y2717567D02*
D03*
X-978493Y2717567D02*
D03*
X-1028493Y2717567D02*
D03*
X-1078493Y2717567D02*
D03*
X-828493Y2667567D02*
D03*
X-928493Y2667567D02*
D03*
X-978493Y2667567D02*
D03*
X-1028493Y2667567D02*
D03*
X-878493Y2667567D02*
D03*
D151*
X-1078493Y2667567D02*
D03*
D152*
X-904115Y4839000D02*
D03*
X-647115Y4840000D02*
D03*
X-14115Y4644000D02*
D03*
D153*
X-902415Y4547094D02*
D03*
X-902415Y4647094D02*
D03*
X-559415Y-770590D02*
D03*
X-559415Y-870590D02*
D03*
X-559415Y-970590D02*
D03*
X-559415Y-570590D02*
D03*
X-559415Y-470590D02*
D03*
X-559415Y-370590D02*
D03*
D154*
X-53745Y-225000D02*
D03*
X-53745Y-325000D02*
D03*
X-53745Y-425000D02*
D03*
X-53745Y-525000D02*
D03*
X-53745Y-625000D02*
D03*
X-53745Y-725000D02*
D03*
X-53745Y-825000D02*
D03*
X-53745Y-925000D02*
D03*
X-53745Y-1025000D02*
D03*
X-53745Y-1125000D02*
D03*
X-53745Y-1225000D02*
D03*
X-53745Y-1325000D02*
D03*
X-53745Y-1425000D02*
D03*
X-53745Y-1525000D02*
D03*
X-53745Y-1625000D02*
D03*
X-53745Y-1725000D02*
D03*
X-53745Y-1825000D02*
D03*
X-53745Y-1925000D02*
D03*
X-53745Y-2025000D02*
D03*
X-53745Y-2125000D02*
D03*
X-53745Y-2225000D02*
D03*
X-53745Y-2325000D02*
D03*
X-53745Y-2425000D02*
D03*
X-153745Y-325000D02*
D03*
X-153745Y-425000D02*
D03*
X-153745Y-525000D02*
D03*
X-153745Y-625000D02*
D03*
X-153745Y-725000D02*
D03*
X-153745Y-825000D02*
D03*
X-153745Y-925000D02*
D03*
X-153745Y-1025000D02*
D03*
X-153745Y-1125000D02*
D03*
X-153745Y-1225000D02*
D03*
X-153745Y-1325000D02*
D03*
X-153745Y-1425000D02*
D03*
X-153745Y-1525000D02*
D03*
X-153745Y-1625000D02*
D03*
X-153745Y-1725000D02*
D03*
X-153745Y-1825000D02*
D03*
X-153745Y-1925000D02*
D03*
X-153745Y-2025000D02*
D03*
X-153745Y-2125000D02*
D03*
X-153745Y-2225000D02*
D03*
X-153745Y-2325000D02*
D03*
X-153745Y-2425000D02*
D03*
X1746255Y-225000D02*
D03*
X1846255Y-225000D02*
D03*
X1846255Y-325000D02*
D03*
X1846255Y-425000D02*
D03*
X1846255Y-525000D02*
D03*
X1846255Y-625000D02*
D03*
X1846255Y-725000D02*
D03*
X1846255Y-825000D02*
D03*
X1846255Y-925000D02*
D03*
X1846255Y-1025000D02*
D03*
X1846255Y-1125000D02*
D03*
X1846255Y-1225000D02*
D03*
X1846255Y-1325000D02*
D03*
X1846255Y-1425000D02*
D03*
X1846255Y-1525000D02*
D03*
X1846255Y-1625000D02*
D03*
X1846255Y-1725000D02*
D03*
X1846255Y-1825000D02*
D03*
X1846255Y-1925000D02*
D03*
X1846255Y-2025000D02*
D03*
X1846255Y-2125000D02*
D03*
X1846255Y-2225000D02*
D03*
X1846255Y-2325000D02*
D03*
X1846255Y-2425000D02*
D03*
X1746255Y-325000D02*
D03*
X1746255Y-425000D02*
D03*
X1746255Y-525000D02*
D03*
X1746255Y-625000D02*
D03*
X1746255Y-725000D02*
D03*
X1746255Y-825000D02*
D03*
X1746255Y-925000D02*
D03*
X1746255Y-1025000D02*
D03*
X1746255Y-1125000D02*
D03*
X1746255Y-1225000D02*
D03*
X1746255Y-1325000D02*
D03*
X1746255Y-1425000D02*
D03*
X1746255Y-1525000D02*
D03*
X1746255Y-1625000D02*
D03*
X1746255Y-1725000D02*
D03*
X1746255Y-1825000D02*
D03*
X1746255Y-1925000D02*
D03*
X1746255Y-2025000D02*
D03*
X1746255Y-2125000D02*
D03*
X1746255Y-2225000D02*
D03*
X1746255Y-2325000D02*
D03*
X1746255Y-2425000D02*
D03*
D155*
X-153745Y-225000D02*
D03*
X-650107Y4646700D02*
D03*
X-650107Y4497094D02*
D03*
D156*
X-335147Y2346722D02*
D03*
X-335147Y3419122D02*
D03*
D157*
X-335147Y3257222D02*
D03*
X-336747Y2508622D02*
D03*
D158*
X914853Y2991190D02*
D03*
D159*
X114853Y3391190D02*
D03*
X114853Y3091190D02*
D03*
X114853Y2891190D02*
D03*
X914853Y3391190D02*
D03*
X914853Y2591190D02*
D03*
D160*
X964067Y2213630D02*
D03*
X1064067Y2213630D02*
D03*
X1164067Y2213630D02*
D03*
X1164067Y2313630D02*
D03*
X1064067Y2313630D02*
D03*
X964067Y2313630D02*
D03*
X826271Y1190008D02*
D03*
X926271Y1190008D02*
D03*
X1026271Y1190008D02*
D03*
X1126271Y1190008D02*
D03*
X767215Y1888826D02*
D03*
X867215Y1888826D02*
D03*
X967215Y1888826D02*
D03*
X1067215Y1888826D02*
D03*
X1318397Y1583708D02*
D03*
X1418397Y1583708D02*
D03*
X1518397Y1583708D02*
D03*
X1618397Y1583708D02*
D03*
X-807587Y4044338D02*
D03*
X-907587Y4044338D02*
D03*
X-1007587Y4044338D02*
D03*
X-1107587Y4044338D02*
D03*
X1318397Y894732D02*
D03*
X1418397Y894732D02*
D03*
X1518397Y894732D02*
D03*
X1618397Y894732D02*
D03*
X-1116051Y3668158D02*
D03*
X-716051Y3668158D02*
D03*
X-816051Y3668158D02*
D03*
X-916051Y3668158D02*
D03*
X-1016051Y3668158D02*
D03*
X-854435Y3027606D02*
D03*
X-854435Y3127606D02*
D03*
X-854435Y3227606D02*
D03*
X-854435Y3327606D02*
D03*
X-1154435Y3027606D02*
D03*
X-1154435Y3127606D02*
D03*
X-1154435Y3227606D02*
D03*
X-1154435Y3327606D02*
D03*
X-167429Y4490796D02*
D03*
X-167429Y4590796D02*
D03*
X-167429Y4690796D02*
D03*
X-167429Y4790796D02*
D03*
X-467429Y4490796D02*
D03*
X-467429Y4590796D02*
D03*
X-467429Y4690796D02*
D03*
X-467429Y4790796D02*
D03*
X-484755Y-2668260D02*
D03*
X-584755Y-2668260D02*
D03*
X-684755Y-2668260D02*
D03*
X-784755Y-2668260D02*
D03*
X-884755Y-2668260D02*
D03*
X-984755Y-2668260D02*
D03*
X-869413Y-1660590D02*
D03*
X-969413Y-1660590D02*
D03*
X950585Y549410D02*
D03*
X1150585Y549410D02*
D03*
X1050585Y549410D02*
D03*
X850585Y549410D02*
D03*
X750585Y549410D02*
D03*
X650585Y549410D02*
D03*
X550585Y549410D02*
D03*
X-655815Y-2137748D02*
D03*
X-755815Y-2137748D02*
D03*
X-855815Y-2137748D02*
D03*
X-955815Y-2137748D02*
D03*
D161*
X1815585Y5379410D02*
D03*
X1915585Y5279410D02*
D03*
X1715585Y5279410D02*
D03*
D162*
X496885Y4943000D02*
D03*
D163*
X646885Y4643000D02*
D03*
X346885Y4643000D02*
D03*
D164*
X1200287Y3094732D02*
D03*
X1200287Y2794732D02*
D03*
X1200287Y3394732D02*
D03*
X2000287Y2594732D02*
D03*
X2000287Y2994732D02*
D03*
X2000287Y3394732D02*
D03*
D165*
X-159951Y4004180D02*
D03*
X-159951Y4104180D02*
D03*
D166*
X1908949Y2764812D02*
D03*
D167*
X1790837Y2764812D02*
D03*
D168*
X1436507Y2725442D02*
D03*
D169*
X1200287Y2567960D02*
D03*
D170*
X1436507Y3006032D02*
D03*
D171*
X1554617Y3202882D02*
D03*
D172*
X1790837Y3202882D02*
D03*
D173*
X2027057Y3202882D02*
D03*
D174*
X1790837Y3439102D02*
D03*
D175*
X1436507Y3439102D02*
D03*
D176*
X924695Y3124142D02*
D03*
D177*
X590049Y3045402D02*
D03*
D178*
X216035Y3045402D02*
D03*
D179*
X334145Y3045402D02*
D03*
D180*
X388199Y2759812D02*
D03*
D181*
X151979Y2759812D02*
D03*
D182*
X151979Y2562960D02*
D03*
D183*
X-59753Y3643158D02*
D03*
X-258179Y3643158D02*
D03*
X138671Y3643158D02*
D03*
D184*
X585129Y3643158D02*
D03*
X733947Y3643158D02*
D03*
D185*
X1771153Y-10780D02*
D03*
D186*
X-103745Y0D02*
D03*
D187*
X49309Y-2648574D02*
D03*
D188*
X1643201Y-2648574D02*
D03*
D189*
X300585Y959410D02*
D03*
D190*
X-999415Y-50590D02*
D03*
D191*
X300585Y2199410D02*
D03*
D192*
X-999415Y2199410D02*
D03*
D193*
X300585Y-500590D02*
D03*
D194*
X1350585Y549410D02*
D03*
D195*
X1350585Y-500590D02*
D03*
D196*
X300585Y549410D02*
D03*
D197*
X1350585Y149410D02*
D03*
X1350585Y249410D02*
D03*
X1350585Y349410D02*
D03*
X300585Y149410D02*
D03*
X300585Y249410D02*
D03*
X300585Y349410D02*
D03*
D198*
X-1033493Y2533568D02*
D03*
X-527481Y3410930D02*
D03*
X-458481Y3415930D02*
D03*
X-120115Y2848000D02*
D03*
X-123415Y5414410D02*
D03*
X-705481Y1311930D02*
D03*
X159519Y1821930D02*
D03*
X-280481Y2696930D02*
D03*
X936255Y3565000D02*
D03*
X1223885Y3534000D02*
D03*
X-704615Y2381500D02*
D03*
X-799115Y453788D02*
D03*
X-813115Y888000D02*
D03*
X-1210115Y1847000D02*
D03*
X466885Y-675000D02*
D03*
X-1210115Y1141000D02*
D03*
X-228847Y865204D02*
D03*
X-188115Y970000D02*
D03*
X-286115Y878000D02*
D03*
X-1130423Y1443944D02*
D03*
X966885Y-1075000D02*
D03*
X1567255Y714000D02*
D03*
X-567115Y644000D02*
D03*
X54885Y2017000D02*
D03*
X1994885Y-285000D02*
D03*
X985885Y-291000D02*
D03*
X1538885Y1988000D02*
D03*
X-1130423Y1392764D02*
D03*
X-214115Y2234000D02*
D03*
X172727Y1733316D02*
D03*
X391885Y1658000D02*
D03*
X1269885Y2707212D02*
D03*
X196349Y1902606D02*
D03*
X1009885Y-145000D02*
D03*
X-210115Y3824000D02*
D03*
X-598925Y2004968D02*
D03*
X1733069Y1900888D02*
D03*
X-543807Y3256938D02*
D03*
X-118611Y3099456D02*
D03*
X1248909Y-1840976D02*
D03*
X926303Y-1945000D02*
D03*
X-197351Y747094D02*
D03*
X673255Y-390000D02*
D03*
X428633Y-1284402D02*
D03*
X-516745Y1056000D02*
D03*
X-127745Y899000D02*
D03*
X-820745Y929000D02*
D03*
X-767745Y1468000D02*
D03*
X-983745Y370000D02*
D03*
X-1133745Y405000D02*
D03*
X-945745Y2592000D02*
D03*
X1232767Y5453196D02*
D03*
X504885Y2322000D02*
D03*
X1184539Y1802212D02*
D03*
X1648255Y3607000D02*
D03*
X1562491Y4290402D02*
D03*
X1832885Y3321000D02*
D03*
X810885Y-2038338D02*
D03*
X808255Y-1375000D02*
D03*
X1042807Y-934008D02*
D03*
X-300697Y801228D02*
D03*
X-1072745Y1274000D02*
D03*
X-821745Y403000D02*
D03*
X1074303Y-1134796D02*
D03*
X607255Y-1370000D02*
D03*
X420759Y-1351330D02*
D03*
X-690067Y1185404D02*
D03*
X214885Y1129000D02*
D03*
X-240745Y1083000D02*
D03*
X-318745Y1029000D02*
D03*
X-377115Y4887000D02*
D03*
X-99115Y-690000D02*
D03*
X497529Y-816000D02*
D03*
X-1094989Y615204D02*
D03*
X-612745Y904000D02*
D03*
X877885Y-1692000D02*
D03*
X1056587Y-1575742D02*
D03*
X1686255Y2437000D02*
D03*
X1077255Y2576000D02*
D03*
X1315255Y2436000D02*
D03*
X1997885Y1361268D02*
D03*
X2065885Y5239000D02*
D03*
X144885Y4042598D02*
D03*
X-742115Y171000D02*
D03*
X1615885Y482000D02*
D03*
X-195659Y630000D02*
D03*
X1635231Y-1525346D02*
D03*
X1636885Y-1650000D02*
D03*
X689885Y3760000D02*
D03*
X-1155115Y245000D02*
D03*
X-149745Y2006000D02*
D03*
X-90115Y374000D02*
D03*
X-287115Y3295000D02*
D03*
X-842115Y1807000D02*
D03*
X1200287Y2655000D02*
D03*
X1357885Y1827000D02*
D03*
X-291115Y4945914D02*
D03*
X-1040115Y944748D02*
D03*
X-806115Y2624000D02*
D03*
X1644885Y3555000D02*
D03*
X942885Y-1345678D02*
D03*
X807885Y-954000D02*
D03*
X1750885Y1316000D02*
D03*
X-1082115Y1686000D02*
D03*
X-1145115Y1819930D02*
D03*
X-710835Y2517440D02*
D03*
X-276115Y-680346D02*
D03*
X-729115Y2573000D02*
D03*
X1614885Y1709000D02*
D03*
X-120115Y2577000D02*
D03*
X-262311Y3256000D02*
D03*
X-745115Y2324008D02*
D03*
X1033885Y-685000D02*
D03*
X1404043Y-975842D02*
D03*
X750885Y-918000D02*
D03*
X-215115Y803000D02*
D03*
X-1080115Y151000D02*
D03*
X973255Y-1228000D02*
D03*
X-1129745Y973000D02*
D03*
X-1164745Y1745000D02*
D03*
X-1146171Y355362D02*
D03*
X-781745Y1854000D02*
D03*
X-38745Y1734000D02*
D03*
X1108255Y-1444000D02*
D03*
X691255Y2160000D02*
D03*
X-602745Y1850000D02*
D03*
X390255Y1750000D02*
D03*
X-39745Y833000D02*
D03*
X-174745Y1793000D02*
D03*
X-162745Y1960000D02*
D03*
X396885Y4171000D02*
D03*
X-839745Y2129000D02*
D03*
X-866745Y2061000D02*
D03*
X-51745Y1939000D02*
D03*
X1223255Y3900000D02*
D03*
X1379255Y3734000D02*
D03*
X-782495Y1358000D02*
D03*
X1256255Y-1368000D02*
D03*
X1130255Y-1369000D02*
D03*
X-632745Y959000D02*
D03*
X-635745Y1117000D02*
D03*
X-830513Y1266000D02*
D03*
X196255Y1625000D02*
D03*
X1245467Y601772D02*
D03*
X557949Y-1148228D02*
D03*
X862949Y-1108228D02*
D03*
X-134115Y2629000D02*
D03*
X746255Y-555000D02*
D03*
X-609415Y-1690590D02*
D03*
X721885Y-1246000D02*
D03*
X1066885Y-1012000D02*
D03*
X-279115Y-465000D02*
D03*
X-550115Y77000D02*
D03*
X-304415Y5419410D02*
D03*
X-424415Y5409410D02*
D03*
X24579Y4796306D02*
D03*
X-177087Y5411720D02*
D03*
X-59115Y5239000D02*
D03*
X-549115Y5414000D02*
D03*
X-424415Y5043700D02*
D03*
X-304415Y5093700D02*
D03*
X1266885Y5136000D02*
D03*
X-85000Y-275000D02*
D03*
X16032Y-609000D02*
D03*
X1686843Y-896472D02*
D03*
X1800000Y-975000D02*
D03*
D199*
X-645745Y1623000D02*
D03*
X690255Y2014000D02*
D03*
X402255Y1848000D02*
D03*
X768255Y2588000D02*
D03*
X871255Y2764000D02*
D03*
X-396745Y3742000D02*
D03*
X1180585Y1404700D02*
D03*
X860585Y1379410D02*
D03*
X1140585Y129410D02*
D03*
%TF.MD5,8f2eea03d9d987fc4aec7d93542bc34c*%
M02*
