G04 Layer_Color=8421504*
%FSLAX26Y26*%
%MOIN*%
%TF.FileFunction,Paste,Top*%
%TF.Part,Single*%
G01*
G75*
%TA.AperFunction,SMDPad,CuDef*%
%ADD10O,0.055118X0.013780*%
%ADD11R,0.070000X0.125000*%
%ADD12R,0.039370X0.039370*%
G04:AMPARAMS|DCode=13|XSize=21.654mil|YSize=49.213mil|CornerRadius=1.949mil|HoleSize=0mil|Usage=FLASHONLY|Rotation=90.000|XOffset=0mil|YOffset=0mil|HoleType=Round|Shape=RoundedRectangle|*
%AMROUNDEDRECTD13*
21,1,0.021654,0.045315,0,0,90.0*
21,1,0.017756,0.049213,0,0,90.0*
1,1,0.003898,0.022657,0.008878*
1,1,0.003898,0.022657,-0.008878*
1,1,0.003898,-0.022657,-0.008878*
1,1,0.003898,-0.022657,0.008878*
%
%ADD13ROUNDEDRECTD13*%
%ADD14R,0.057087X0.045276*%
%ADD15R,0.049213X0.059055*%
%ADD16R,0.059055X0.049213*%
%ADD17R,0.228346X0.244095*%
%ADD18R,0.062992X0.118110*%
%ADD19R,0.051181X0.033465*%
%ADD20R,0.070866X0.045276*%
%ADD21R,0.102362X0.037402*%
G04:AMPARAMS|DCode=22|XSize=25.591mil|YSize=64.961mil|CornerRadius=1.919mil|HoleSize=0mil|Usage=FLASHONLY|Rotation=90.000|XOffset=0mil|YOffset=0mil|HoleType=Round|Shape=RoundedRectangle|*
%AMROUNDEDRECTD22*
21,1,0.025591,0.061122,0,0,90.0*
21,1,0.021752,0.064961,0,0,90.0*
1,1,0.003839,0.030561,0.010876*
1,1,0.003839,0.030561,-0.010876*
1,1,0.003839,-0.030561,-0.010876*
1,1,0.003839,-0.030561,0.010876*
%
%ADD22ROUNDEDRECTD22*%
%ADD23R,0.033465X0.051181*%
%ADD24R,0.045276X0.057087*%
%ADD25R,0.041339X0.055118*%
D10*
X2917567Y2010433D02*
D03*
X2917567Y2060433D02*
D03*
X2917567Y2110433D02*
D03*
X2917567Y2160433D02*
D03*
X2691189Y2010433D02*
D03*
X2691189Y2060433D02*
D03*
X2691189Y2110433D02*
D03*
X2691189Y2160433D02*
D03*
X485236Y-1737205D02*
D03*
X485236Y-1762795D02*
D03*
X485236Y-1788386D02*
D03*
X485236Y-1813976D02*
D03*
X485236Y-1839567D02*
D03*
X485236Y-1865158D02*
D03*
X485236Y-1890748D02*
D03*
X485236Y-1916339D02*
D03*
X485236Y-1941929D02*
D03*
X485236Y-1967520D02*
D03*
X485236Y-1993110D02*
D03*
X485236Y-2018701D02*
D03*
X711614Y-1737205D02*
D03*
X711614Y-1762795D02*
D03*
X711614Y-1788386D02*
D03*
X711614Y-1813976D02*
D03*
X711614Y-1839567D02*
D03*
X711614Y-1865158D02*
D03*
X711614Y-1890748D02*
D03*
X711614Y-1916339D02*
D03*
X711614Y-1941929D02*
D03*
X711614Y-1967520D02*
D03*
X711614Y-1993110D02*
D03*
X711614Y-2018701D02*
D03*
X944882Y-783268D02*
D03*
X944882Y-808858D02*
D03*
X944882Y-834449D02*
D03*
X944882Y-860039D02*
D03*
X944882Y-885630D02*
D03*
X944882Y-911221D02*
D03*
X944882Y-936811D02*
D03*
X944882Y-962402D02*
D03*
X944882Y-987992D02*
D03*
X944882Y-1013583D02*
D03*
X1171260Y-783268D02*
D03*
X1171260Y-808858D02*
D03*
X1171260Y-834449D02*
D03*
X1171260Y-860039D02*
D03*
X1171260Y-885630D02*
D03*
X1171260Y-911221D02*
D03*
X1171260Y-936811D02*
D03*
X1171260Y-962402D02*
D03*
X1171260Y-987992D02*
D03*
X1171260Y-1013583D02*
D03*
D11*
X746063Y1257362D02*
D03*
X746063Y1447362D02*
D03*
D12*
X537548Y757363D02*
D03*
X604478Y757363D02*
D03*
D13*
X-24606Y-2163779D02*
D03*
X-24606Y-2213779D02*
D03*
X-24606Y-2263779D02*
D03*
X-24606Y-2313779D02*
D03*
X-24606Y-2363779D02*
D03*
X-24606Y-2413779D02*
D03*
X-24606Y-2463779D02*
D03*
X182086Y-2163779D02*
D03*
X182086Y-2213779D02*
D03*
X182086Y-2263779D02*
D03*
X182086Y-2313779D02*
D03*
X182086Y-2363779D02*
D03*
X182086Y-2413779D02*
D03*
X182086Y-2463779D02*
D03*
X-36418Y-751771D02*
D03*
X-36418Y-801771D02*
D03*
X-36418Y-851771D02*
D03*
X-36418Y-901771D02*
D03*
X170276Y-751771D02*
D03*
X170276Y-801771D02*
D03*
X170276Y-851771D02*
D03*
X170276Y-901771D02*
D03*
X190158Y-1948819D02*
D03*
X190158Y-1898819D02*
D03*
X190158Y-1848819D02*
D03*
X190158Y-1798819D02*
D03*
X190158Y-1748819D02*
D03*
X190158Y-1698819D02*
D03*
X190158Y-1648819D02*
D03*
X-16534Y-1948819D02*
D03*
X-16534Y-1898819D02*
D03*
X-16534Y-1848819D02*
D03*
X-16534Y-1798819D02*
D03*
X-16534Y-1748819D02*
D03*
X-16534Y-1698819D02*
D03*
X-16534Y-1648819D02*
D03*
D14*
X818896Y-1704725D02*
D03*
X818896Y-1775591D02*
D03*
X1021656Y1383857D02*
D03*
X1021656Y1312991D02*
D03*
X819746Y-908133D02*
D03*
X819746Y-978999D02*
D03*
X1023624Y2078739D02*
D03*
X1023624Y2149605D02*
D03*
X484252Y-1590553D02*
D03*
X484252Y-1661419D02*
D03*
D15*
X797244Y366141D02*
D03*
X714566Y366141D02*
D03*
X305118Y-811023D02*
D03*
X387796Y-811023D02*
D03*
X305118Y-913385D02*
D03*
X387796Y-913385D02*
D03*
X305118Y-708661D02*
D03*
X387796Y-708661D02*
D03*
X305118Y-606299D02*
D03*
X387796Y-606299D02*
D03*
X1410042Y-971259D02*
D03*
X1327364Y-971259D02*
D03*
X1410038Y-871261D02*
D03*
X1327362Y-871261D02*
D03*
X265750Y-2460629D02*
D03*
X348426Y-2460629D02*
D03*
D16*
X723746Y65773D02*
D03*
X723746Y-16905D02*
D03*
X606300Y64959D02*
D03*
X606300Y-17717D02*
D03*
X1515750Y-1598425D02*
D03*
X1515750Y-1515747D02*
D03*
X639746Y-2571227D02*
D03*
X639746Y-2653905D02*
D03*
D17*
X2568896Y-393701D02*
D03*
X2954772Y-394883D02*
D03*
D18*
X2659054Y-677165D02*
D03*
X2478740Y-677165D02*
D03*
X3044930Y-678347D02*
D03*
X2864614Y-678347D02*
D03*
D19*
X2864174Y-775589D02*
D03*
X2864174Y-842519D02*
D03*
X2952756Y-775591D02*
D03*
X2952756Y-842521D02*
D03*
X2480748Y-766101D02*
D03*
X2480748Y-833031D02*
D03*
X2578740Y-765749D02*
D03*
X2578740Y-832679D02*
D03*
D20*
X2588582Y2153543D02*
D03*
X2588582Y2035433D02*
D03*
X3021654Y2035431D02*
D03*
X3021654Y2153543D02*
D03*
D21*
X1277560Y1387797D02*
D03*
X1277560Y1277561D02*
D03*
X1139762Y1277559D02*
D03*
X1139762Y1387795D02*
D03*
D22*
X-13778Y-1224411D02*
D03*
X-13778Y-1274411D02*
D03*
X-13778Y-1324411D02*
D03*
X-13778Y-1374411D02*
D03*
X208662Y-1224411D02*
D03*
X208662Y-1274411D02*
D03*
X208662Y-1324411D02*
D03*
X208662Y-1374411D02*
D03*
D23*
X899476Y608362D02*
D03*
X832546Y608362D02*
D03*
D24*
X133858Y-1452753D02*
D03*
X62992Y-1452753D02*
D03*
D25*
X2848422Y-1133859D02*
D03*
X2923226Y-1133859D02*
D03*
X726378Y472441D02*
D03*
X801182Y472441D02*
D03*
%TF.MD5,e22e4547058abe712ee03b713f7f07d6*%
M02*
