%TF.GenerationSoftware,Altium Limited,Altium Designer,18.0.9 (584)*%
G04 Layer_Color=255*
%FSLAX26Y26*%
%MOIN*%
%TF.FileFunction,Pads,Top*%
%TF.Part,Single*%
G01*
G75*
%TA.AperFunction,SMDPad,CuDef*%
%ADD10R,0.061024X0.053150*%
%ADD11R,0.053150X0.061024*%
%ADD12R,0.051181X0.033465*%
%ADD13O,0.055118X0.013780*%
%ADD14R,0.057087X0.045276*%
%ADD15R,0.039370X0.023622*%
%ADD16R,0.037402X0.053150*%
G04:AMPARAMS|DCode=17|XSize=25.591mil|YSize=47.244mil|CornerRadius=1.919mil|HoleSize=0mil|Usage=FLASHONLY|Rotation=180.000|XOffset=0mil|YOffset=0mil|HoleType=Round|Shape=RoundedRectangle|*
%AMROUNDEDRECTD17*
21,1,0.025591,0.043406,0,0,180.0*
21,1,0.021752,0.047244,0,0,180.0*
1,1,0.003839,-0.010876,0.021703*
1,1,0.003839,0.010876,0.021703*
1,1,0.003839,0.010876,-0.021703*
1,1,0.003839,-0.010876,-0.021703*
%
%ADD17ROUNDEDRECTD17*%
G04:AMPARAMS|DCode=18|XSize=21.654mil|YSize=49.213mil|CornerRadius=1.949mil|HoleSize=0mil|Usage=FLASHONLY|Rotation=0.000|XOffset=0mil|YOffset=0mil|HoleType=Round|Shape=RoundedRectangle|*
%AMROUNDEDRECTD18*
21,1,0.021654,0.045315,0,0,0.0*
21,1,0.017756,0.049213,0,0,0.0*
1,1,0.003898,0.008878,-0.022657*
1,1,0.003898,-0.008878,-0.022657*
1,1,0.003898,-0.008878,0.022657*
1,1,0.003898,0.008878,0.022657*
%
%ADD18ROUNDEDRECTD18*%
%ADD19O,0.049213X0.013780*%
%ADD20O,0.057087X0.009842*%
G04:AMPARAMS|DCode=21|XSize=25.591mil|YSize=47.244mil|CornerRadius=1.919mil|HoleSize=0mil|Usage=FLASHONLY|Rotation=90.000|XOffset=0mil|YOffset=0mil|HoleType=Round|Shape=RoundedRectangle|*
%AMROUNDEDRECTD21*
21,1,0.025591,0.043406,0,0,90.0*
21,1,0.021752,0.047244,0,0,90.0*
1,1,0.003839,0.021703,0.010876*
1,1,0.003839,0.021703,-0.010876*
1,1,0.003839,-0.021703,-0.010876*
1,1,0.003839,-0.021703,0.010876*
%
%ADD21ROUNDEDRECTD21*%
%ADD22R,0.033465X0.051181*%
%ADD23R,0.053150X0.037402*%
%ADD24R,0.045276X0.057087*%
%TA.AperFunction,ComponentPad*%
%ADD27C,0.060000*%
%ADD28C,0.059055*%
%ADD29C,0.062992*%
%ADD30C,0.040000*%
%ADD31R,0.059055X0.059055*%
%TA.AperFunction,ViaPad*%
%ADD32C,0.196850*%
%TA.AperFunction,ComponentPad*%
%ADD33C,0.042000*%
D10*
X1647386Y1209197D02*
D03*
Y1287937D02*
D03*
X1687110Y1032480D02*
D03*
Y953740D02*
D03*
X1355110Y922480D02*
D03*
Y843740D02*
D03*
X473110Y2167740D02*
D03*
Y2246480D02*
D03*
X963110Y2214480D02*
D03*
Y2135740D02*
D03*
X147110Y3105276D02*
D03*
Y3026535D02*
D03*
D11*
X2104480Y833110D02*
D03*
X2025740D02*
D03*
X2019733Y1340110D02*
D03*
X1940992D02*
D03*
X634740Y2606110D02*
D03*
X713480D02*
D03*
D12*
X1571110Y1216575D02*
D03*
Y1149646D02*
D03*
X1783110Y1519646D02*
D03*
Y1586575D02*
D03*
X2208110Y1531646D02*
D03*
Y1598575D02*
D03*
X2205110Y1653646D02*
D03*
Y1720575D02*
D03*
X1783110Y1653646D02*
D03*
Y1720575D02*
D03*
X1570362Y1089109D02*
D03*
Y1022180D02*
D03*
X648110Y3182646D02*
D03*
Y3249575D02*
D03*
X651110Y2798646D02*
D03*
Y2865575D02*
D03*
X764110Y2877575D02*
D03*
Y2810646D02*
D03*
X766110Y3174646D02*
D03*
Y3241575D02*
D03*
X1168110Y1302575D02*
D03*
Y1235646D02*
D03*
X1155110Y1054575D02*
D03*
Y987646D02*
D03*
X1237110Y1054575D02*
D03*
Y987646D02*
D03*
X1425110Y1128575D02*
D03*
Y1061646D02*
D03*
D13*
X716922Y1475268D02*
D03*
Y1449678D02*
D03*
Y1424086D02*
D03*
Y1398496D02*
D03*
Y1372906D02*
D03*
Y1347314D02*
D03*
Y1321724D02*
D03*
Y1296134D02*
D03*
Y1270544D02*
D03*
Y1244952D02*
D03*
X943300Y1475268D02*
D03*
Y1449678D02*
D03*
Y1424086D02*
D03*
Y1398496D02*
D03*
Y1372906D02*
D03*
Y1347314D02*
D03*
Y1321724D02*
D03*
Y1296134D02*
D03*
Y1270544D02*
D03*
Y1244952D02*
D03*
X255944Y3139724D02*
D03*
Y3114134D02*
D03*
Y3088544D02*
D03*
Y3062952D02*
D03*
Y3037362D02*
D03*
Y3011772D02*
D03*
Y2986182D02*
D03*
Y2960590D02*
D03*
Y2935000D02*
D03*
Y2909410D02*
D03*
X482322Y3139724D02*
D03*
Y3114134D02*
D03*
Y3088544D02*
D03*
Y3062952D02*
D03*
Y3037362D02*
D03*
Y3011772D02*
D03*
Y2986182D02*
D03*
Y2960590D02*
D03*
Y2935000D02*
D03*
Y2909410D02*
D03*
D14*
X610110Y1379678D02*
D03*
Y1450544D02*
D03*
D15*
X1447574Y912796D02*
D03*
Y875394D02*
D03*
Y837992D02*
D03*
X1555842D02*
D03*
Y875394D02*
D03*
Y912796D02*
D03*
D16*
X703614Y3110111D02*
D03*
X766606D02*
D03*
X704614Y2941111D02*
D03*
X767606D02*
D03*
X965614Y1585110D02*
D03*
X1028606D02*
D03*
D17*
X1317984Y1212496D02*
D03*
X1355386D02*
D03*
X1392788D02*
D03*
Y1328638D02*
D03*
X1317984D02*
D03*
X1924386Y1149932D02*
D03*
X1961788D02*
D03*
X1999188D02*
D03*
Y1266074D02*
D03*
X1924386D02*
D03*
X1714216Y1151496D02*
D03*
X1751618D02*
D03*
X1789018D02*
D03*
Y1267638D02*
D03*
X1714216D02*
D03*
D18*
X1179134Y3082914D02*
D03*
X1129134D02*
D03*
X1079134D02*
D03*
X1029134D02*
D03*
X1179134Y2876220D02*
D03*
X1129134D02*
D03*
X1079134D02*
D03*
X1029134D02*
D03*
D19*
X2069622Y1063386D02*
D03*
Y1037796D02*
D03*
Y1012204D02*
D03*
Y986614D02*
D03*
Y961024D02*
D03*
Y935434D02*
D03*
Y909842D02*
D03*
X2292062Y1063386D02*
D03*
Y1037796D02*
D03*
Y1012204D02*
D03*
Y986614D02*
D03*
Y961024D02*
D03*
Y935434D02*
D03*
Y909842D02*
D03*
D20*
X1910292Y846772D02*
D03*
Y866456D02*
D03*
Y886142D02*
D03*
Y905826D02*
D03*
Y925512D02*
D03*
X1750842Y846772D02*
D03*
Y866456D02*
D03*
Y886142D02*
D03*
Y905826D02*
D03*
Y925512D02*
D03*
D21*
X574040Y2539512D02*
D03*
Y2502110D02*
D03*
Y2464708D02*
D03*
X690182D02*
D03*
Y2539512D02*
D03*
D22*
X835646Y3110110D02*
D03*
X902575D02*
D03*
X834646Y3181110D02*
D03*
X901575D02*
D03*
X832646Y2871110D02*
D03*
X899575D02*
D03*
X647575Y2941095D02*
D03*
X580646D02*
D03*
X832646D02*
D03*
X899575D02*
D03*
X581646Y3110110D02*
D03*
X648575D02*
D03*
X1038646Y1301110D02*
D03*
X1105575D02*
D03*
X826575Y1148110D02*
D03*
X759646D02*
D03*
X833575Y917110D02*
D03*
X766646D02*
D03*
X833575Y1024110D02*
D03*
X766646D02*
D03*
D23*
X1238110Y1237614D02*
D03*
Y1300606D02*
D03*
X1356110Y1063614D02*
D03*
Y1126606D02*
D03*
X1156110Y927606D02*
D03*
Y864614D02*
D03*
D24*
X1026543Y2331110D02*
D03*
X955677D02*
D03*
D27*
X634913Y774110D02*
D03*
X2058338Y2423260D02*
D03*
X1908732D02*
D03*
X1315110Y3231110D02*
D03*
X1323110Y2735110D02*
D03*
X2466110Y3145110D02*
D03*
X2355110Y3145110D02*
D03*
X2250110Y3143810D02*
D03*
X1694110Y2997110D02*
D03*
X1132110Y1463110D02*
D03*
X760110Y774110D02*
D03*
X257759Y1005858D02*
D03*
X1275110Y868110D02*
D03*
X2511110Y1107110D02*
D03*
D28*
X150110Y2050110D02*
D03*
Y1950110D02*
D03*
Y1850110D02*
D03*
Y1750110D02*
D03*
Y1650110D02*
D03*
X250110Y2050110D02*
D03*
Y1950110D02*
D03*
Y1850110D02*
D03*
Y1750110D02*
D03*
Y1650110D02*
D03*
X1814134Y2209568D02*
D03*
Y2109568D02*
D03*
Y2009568D02*
D03*
Y1909568D02*
D03*
X2114134Y2209568D02*
D03*
Y2109568D02*
D03*
Y2009568D02*
D03*
X2450110Y850110D02*
D03*
Y750110D02*
D03*
Y650110D02*
D03*
Y550110D02*
D03*
Y450110D02*
D03*
X2550110Y850110D02*
D03*
Y750110D02*
D03*
Y650110D02*
D03*
Y550110D02*
D03*
Y450110D02*
D03*
X866110Y2027110D02*
D03*
Y2127110D02*
D03*
Y2227110D02*
D03*
Y2327110D02*
D03*
X566110Y2027110D02*
D03*
Y2127110D02*
D03*
Y2227110D02*
D03*
D29*
X1952110Y3390110D02*
D03*
X1852110D02*
D03*
D30*
X644110Y3669110D02*
D03*
X844110D02*
D03*
X744110Y3769110D02*
D03*
D31*
X2114134Y1909568D02*
D03*
X566110Y2327110D02*
D03*
D32*
X150110Y150110D02*
D03*
X2500110D02*
D03*
X150110Y2500110D02*
D03*
X2500110D02*
D03*
D33*
X1585110Y2995112D02*
D03*
Y2945112D02*
D03*
X1535110Y2995112D02*
D03*
Y2945112D02*
D03*
X1485110Y2995112D02*
D03*
Y2945112D02*
D03*
X1435110Y2995112D02*
D03*
Y2945112D02*
D03*
X1385110Y2995112D02*
D03*
Y2945112D02*
D03*
%TF.MD5,d5b28750b936171350cc87be6830ce68*%
M02*
