G04 Layer_Color=2752767*
%FSLAX26Y26*%
%MOIN*%
%TF.FileFunction,Drawing*%
%TF.Part,Single*%
G01*
G75*
%TA.AperFunction,NonConductor*%
%ADD70C,0.005000*%
%ADD88C,0.006667*%
D70*
X198000Y2371000D02*
Y2411000D01*
X238000D01*
Y2371000D01*
X198000D01*
X195000Y2076000D02*
Y2116000D01*
X235000D01*
Y2076000D01*
X195000D01*
X1320000Y60000D02*
Y100000D01*
X1360000D01*
Y60000D01*
X1320000D01*
X1425000Y2855000D02*
Y2895000D01*
X1465000D01*
Y2855000D01*
X1425000D01*
X1270000Y1410000D02*
Y1450000D01*
X1310000D01*
Y1410000D01*
X1270000D01*
X210000Y725000D02*
Y765000D01*
X250000D01*
Y725000D01*
X210000D01*
X205000Y1025000D02*
Y1065000D01*
X245000D01*
Y1025000D01*
X205000D01*
X1475000Y1410000D02*
Y1450000D01*
X1515000D01*
Y1410000D01*
X1475000D01*
X220412Y6680168D02*
X200412Y6720168D01*
X240412D01*
X220412Y6680168D01*
X320412D02*
X300412Y6720168D01*
X340412D01*
X320412Y6680168D01*
X420412D02*
X400412Y6720168D01*
X440412D01*
X420412Y6680168D01*
Y6780168D02*
X400412Y6820168D01*
X440412D01*
X420412Y6780168D01*
X320412D02*
X300412Y6820168D01*
X340412D01*
X320412Y6780168D01*
X220412D02*
X200412Y6820168D01*
X240412D01*
X220412Y6780168D01*
X2221504Y2723402D02*
X2231504Y2733402D01*
X2241504D01*
X2231504Y2743402D01*
X2241504Y2753402D01*
X2231504D01*
X2221504Y2763402D01*
X2211504Y2753402D01*
X2201504D01*
X2211504Y2743402D01*
X2201504Y2733402D01*
X2211504D01*
X2221504Y2723402D01*
Y2523402D02*
X2231504Y2533402D01*
X2241504D01*
X2231504Y2543402D01*
X2241504Y2553402D01*
X2231504D01*
X2221504Y2563402D01*
X2211504Y2553402D01*
X2201504D01*
X2211504Y2543402D01*
X2201504Y2533402D01*
X2211504D01*
X2221504Y2523402D01*
X2321504Y2623402D02*
X2331504Y2633402D01*
X2341504D01*
X2331504Y2643402D01*
X2341504Y2653402D01*
X2331504D01*
X2321504Y2663402D01*
X2311504Y2653402D01*
X2301504D01*
X2311504Y2643402D01*
X2301504Y2633402D01*
X2311504D01*
X2321504Y2623402D01*
X2248504Y1301250D02*
X2258504Y1311250D01*
X2268504D01*
X2258504Y1321250D01*
X2268504Y1331250D01*
X2258504D01*
X2248504Y1341250D01*
X2238504Y1331250D01*
X2228504D01*
X2238504Y1321250D01*
X2228504Y1311250D01*
X2238504D01*
X2248504Y1301250D01*
Y1101250D02*
X2258504Y1111250D01*
X2268504D01*
X2258504Y1121250D01*
X2268504Y1131250D01*
X2258504D01*
X2248504Y1141250D01*
X2238504Y1131250D01*
X2228504D01*
X2238504Y1121250D01*
X2228504Y1111250D01*
X2238504D01*
X2248504Y1101250D01*
X2348504Y1201250D02*
X2358504Y1211250D01*
X2368504D01*
X2358504Y1221250D01*
X2368504Y1231250D01*
X2358504D01*
X2348504Y1241250D01*
X2338504Y1231250D01*
X2328504D01*
X2338504Y1221250D01*
X2328504Y1211250D01*
X2338504D01*
X2348504Y1201250D01*
X2240504Y2247402D02*
X2250504Y2257402D01*
X2260504D01*
X2250504Y2267402D01*
X2260504Y2277402D01*
X2250504D01*
X2240504Y2287402D01*
X2230504Y2277402D01*
X2220504D01*
X2230504Y2267402D01*
X2220504Y2257402D01*
X2230504D01*
X2240504Y2247402D01*
Y2047402D02*
X2250504Y2057402D01*
X2260504D01*
X2250504Y2067402D01*
X2260504Y2077402D01*
X2250504D01*
X2240504Y2087402D01*
X2230504Y2077402D01*
X2220504D01*
X2230504Y2067402D01*
X2220504Y2057402D01*
X2230504D01*
X2240504Y2047402D01*
X2340504Y2147402D02*
X2350504Y2157402D01*
X2360504D01*
X2350504Y2167402D01*
X2360504Y2177402D01*
X2350504D01*
X2340504Y2187402D01*
X2330504Y2177402D01*
X2320504D01*
X2330504Y2167402D01*
X2320504Y2157402D01*
X2330504D01*
X2340504Y2147402D01*
X2267504Y803390D02*
X2277504Y813390D01*
X2287504D01*
X2277504Y823390D01*
X2287504Y833390D01*
X2277504D01*
X2267504Y843390D01*
X2257504Y833390D01*
X2247504D01*
X2257504Y823390D01*
X2247504Y813390D01*
X2257504D01*
X2267504Y803390D01*
Y603390D02*
X2277504Y613390D01*
X2287504D01*
X2277504Y623390D01*
X2287504Y633390D01*
X2277504D01*
X2267504Y643390D01*
X2257504Y633390D01*
X2247504D01*
X2257504Y623390D01*
X2247504Y613390D01*
X2257504D01*
X2267504Y603390D01*
X2367504Y703390D02*
X2377504Y713390D01*
X2387504D01*
X2377504Y723390D01*
X2387504Y733390D01*
X2377504D01*
X2367504Y743390D01*
X2357504Y733390D01*
X2347504D01*
X2357504Y723390D01*
X2347504Y713390D01*
X2357504D01*
X2367504Y703390D01*
X189504Y339402D02*
X199504Y359402D01*
X189504Y379402D01*
X209504Y369402D01*
X229504Y379402D01*
X219504Y359402D01*
X229504Y339402D01*
X209504Y349402D01*
X189504Y339402D01*
Y239402D02*
X199504Y259402D01*
X189504Y279402D01*
X209504Y269402D01*
X229504Y279402D01*
X219504Y259402D01*
X229504Y239402D01*
X209504Y249402D01*
X189504Y239402D01*
X205504Y1704402D02*
X215504Y1724402D01*
X205504Y1744402D01*
X225504Y1734402D01*
X245504Y1744402D01*
X235504Y1724402D01*
X245504Y1704402D01*
X225504Y1714402D01*
X205504Y1704402D01*
Y1604402D02*
X215504Y1624402D01*
X205504Y1644402D01*
X225504Y1634402D01*
X245504Y1644402D01*
X235504Y1624402D01*
X245504Y1604402D01*
X225504Y1614402D01*
X205504Y1604402D01*
X2240504Y1737402D02*
X2250504Y1747402D01*
X2260504D01*
X2250504Y1757402D01*
X2260504Y1767402D01*
X2250504D01*
X2240504Y1777402D01*
X2230504Y1767402D01*
X2220504D01*
X2230504Y1757402D01*
X2220504Y1747402D01*
X2230504D01*
X2240504Y1737402D01*
Y1537402D02*
X2250504Y1547402D01*
X2260504D01*
X2250504Y1557402D01*
X2260504Y1567402D01*
X2250504D01*
X2240504Y1577402D01*
X2230504Y1567402D01*
X2220504D01*
X2230504Y1557402D01*
X2220504Y1547402D01*
X2230504D01*
X2240504Y1537402D01*
X2340504Y1637402D02*
X2350504Y1647402D01*
X2360504D01*
X2350504Y1657402D01*
X2360504Y1667402D01*
X2350504D01*
X2340504Y1677402D01*
X2330504Y1667402D01*
X2320504D01*
X2330504Y1657402D01*
X2320504Y1647402D01*
X2330504D01*
X2340504Y1637402D01*
X2267504Y287402D02*
X2277504Y297402D01*
X2287504D01*
X2277504Y307402D01*
X2287504Y317402D01*
X2277504D01*
X2267504Y327402D01*
X2257504Y317402D01*
X2247504D01*
X2257504Y307402D01*
X2247504Y297402D01*
X2257504D01*
X2267504Y287402D01*
Y87402D02*
X2277504Y97402D01*
X2287504D01*
X2277504Y107402D01*
X2287504Y117402D01*
X2277504D01*
X2267504Y127402D01*
X2257504Y117402D01*
X2247504D01*
X2257504Y107402D01*
X2247504Y97402D01*
X2257504D01*
X2267504Y87402D01*
X2367504Y187402D02*
X2377504Y197402D01*
X2387504D01*
X2377504Y207402D01*
X2387504Y217402D01*
X2377504D01*
X2367504Y227402D01*
X2357504Y217402D01*
X2347504D01*
X2357504Y207402D01*
X2347504Y197402D01*
X2357504D01*
X2367504Y187402D01*
X1828324Y1250208D02*
Y1240208D01*
X1848324D01*
Y1250208D01*
X1858324D01*
Y1270208D01*
X1848324D01*
Y1280208D01*
X1828324D01*
Y1270208D01*
X1818324D01*
Y1250208D01*
X1828324D01*
X1728324D02*
Y1240208D01*
X1748324D01*
Y1250208D01*
X1758324D01*
Y1270208D01*
X1748324D01*
Y1280208D01*
X1728324D01*
Y1270208D01*
X1718324D01*
Y1250208D01*
X1728324D01*
X1628324D02*
Y1240208D01*
X1648324D01*
Y1250208D01*
X1658324D01*
Y1270208D01*
X1648324D01*
Y1280208D01*
X1628324D01*
Y1270208D01*
X1618324D01*
Y1250208D01*
X1628324D01*
X1528324D02*
Y1240208D01*
X1548324D01*
Y1250208D01*
X1558324D01*
Y1270208D01*
X1548324D01*
Y1280208D01*
X1528324D01*
Y1270208D01*
X1518324D01*
Y1250208D01*
X1528324D01*
X1428324D02*
Y1240208D01*
X1448324D01*
Y1250208D01*
X1458324D01*
Y1270208D01*
X1448324D01*
Y1280208D01*
X1428324D01*
Y1270208D01*
X1418324D01*
Y1250208D01*
X1428324D01*
X1328324D02*
Y1240208D01*
X1348324D01*
Y1250208D01*
X1358324D01*
Y1270208D01*
X1348324D01*
Y1280208D01*
X1328324D01*
Y1270208D01*
X1318324D01*
Y1250208D01*
X1328324D01*
X1228324D02*
Y1240208D01*
X1248324D01*
Y1250208D01*
X1258324D01*
Y1270208D01*
X1248324D01*
Y1280208D01*
X1228324D01*
Y1270208D01*
X1218324D01*
Y1250208D01*
X1228324D01*
X1128324D02*
Y1240208D01*
X1148324D01*
Y1250208D01*
X1158324D01*
Y1270208D01*
X1148324D01*
Y1280208D01*
X1128324D01*
Y1270208D01*
X1118324D01*
Y1250208D01*
X1128324D01*
X1028324D02*
Y1240208D01*
X1048324D01*
Y1250208D01*
X1058324D01*
Y1270208D01*
X1048324D01*
Y1280208D01*
X1028324D01*
Y1270208D01*
X1018324D01*
Y1250208D01*
X1028324D01*
X928324D02*
Y1240208D01*
X948324D01*
Y1250208D01*
X958324D01*
Y1270208D01*
X948324D01*
Y1280208D01*
X928324D01*
Y1270208D01*
X918324D01*
Y1250208D01*
X928324D01*
X828324D02*
Y1240208D01*
X848324D01*
Y1250208D01*
X858324D01*
Y1270208D01*
X848324D01*
Y1280208D01*
X828324D01*
Y1270208D01*
X818324D01*
Y1250208D01*
X828324D01*
X728324D02*
Y1240208D01*
X748324D01*
Y1250208D01*
X758324D01*
Y1270208D01*
X748324D01*
Y1280208D01*
X728324D01*
Y1270208D01*
X718324D01*
Y1250208D01*
X728324D01*
X628324D02*
Y1240208D01*
X648324D01*
Y1250208D01*
X658324D01*
Y1270208D01*
X648324D01*
Y1280208D01*
X628324D01*
Y1270208D01*
X618324D01*
Y1250208D01*
X628324D01*
X528324D02*
Y1240208D01*
X548324D01*
Y1250208D01*
X558324D01*
Y1270208D01*
X548324D01*
Y1280208D01*
X528324D01*
Y1270208D01*
X518324D01*
Y1250208D01*
X528324D01*
X1828324Y250208D02*
Y240208D01*
X1848324D01*
Y250208D01*
X1858324D01*
Y270208D01*
X1848324D01*
Y280208D01*
X1828324D01*
Y270208D01*
X1818324D01*
Y250208D01*
X1828324D01*
X1728324D02*
Y240208D01*
X1748324D01*
Y250208D01*
X1758324D01*
Y270208D01*
X1748324D01*
Y280208D01*
X1728324D01*
Y270208D01*
X1718324D01*
Y250208D01*
X1728324D01*
X1628324D02*
Y240208D01*
X1648324D01*
Y250208D01*
X1658324D01*
Y270208D01*
X1648324D01*
Y280208D01*
X1628324D01*
Y270208D01*
X1618324D01*
Y250208D01*
X1628324D01*
X1528324D02*
Y240208D01*
X1548324D01*
Y250208D01*
X1558324D01*
Y270208D01*
X1548324D01*
Y280208D01*
X1528324D01*
Y270208D01*
X1518324D01*
Y250208D01*
X1528324D01*
X1428324D02*
Y240208D01*
X1448324D01*
Y250208D01*
X1458324D01*
Y270208D01*
X1448324D01*
Y280208D01*
X1428324D01*
Y270208D01*
X1418324D01*
Y250208D01*
X1428324D01*
X1328324D02*
Y240208D01*
X1348324D01*
Y250208D01*
X1358324D01*
Y270208D01*
X1348324D01*
Y280208D01*
X1328324D01*
Y270208D01*
X1318324D01*
Y250208D01*
X1328324D01*
X1228324D02*
Y240208D01*
X1248324D01*
Y250208D01*
X1258324D01*
Y270208D01*
X1248324D01*
Y280208D01*
X1228324D01*
Y270208D01*
X1218324D01*
Y250208D01*
X1228324D01*
X1128324D02*
Y240208D01*
X1148324D01*
Y250208D01*
X1158324D01*
Y270208D01*
X1148324D01*
Y280208D01*
X1128324D01*
Y270208D01*
X1118324D01*
Y250208D01*
X1128324D01*
X1028324D02*
Y240208D01*
X1048324D01*
Y250208D01*
X1058324D01*
Y270208D01*
X1048324D01*
Y280208D01*
X1028324D01*
Y270208D01*
X1018324D01*
Y250208D01*
X1028324D01*
X928324D02*
Y240208D01*
X948324D01*
Y250208D01*
X958324D01*
Y270208D01*
X948324D01*
Y280208D01*
X928324D01*
Y270208D01*
X918324D01*
Y250208D01*
X928324D01*
X828324D02*
Y240208D01*
X848324D01*
Y250208D01*
X858324D01*
Y270208D01*
X848324D01*
Y280208D01*
X828324D01*
Y270208D01*
X818324D01*
Y250208D01*
X828324D01*
X728324D02*
Y240208D01*
X748324D01*
Y250208D01*
X758324D01*
Y270208D01*
X748324D01*
Y280208D01*
X728324D01*
Y270208D01*
X718324D01*
Y250208D01*
X728324D01*
X628324D02*
Y240208D01*
X648324D01*
Y250208D01*
X658324D01*
Y270208D01*
X648324D01*
Y280208D01*
X628324D01*
Y270208D01*
X618324D01*
Y250208D01*
X628324D01*
X528324D02*
Y240208D01*
X548324D01*
Y250208D01*
X558324D01*
Y270208D01*
X548324D01*
Y280208D01*
X528324D01*
Y270208D01*
X518324D01*
Y250208D01*
X528324D01*
X533246Y1603554D02*
Y1593554D01*
X553246D01*
Y1603554D01*
X563246D01*
Y1623554D01*
X553246D01*
Y1633554D01*
X533246D01*
Y1623554D01*
X523246D01*
Y1603554D01*
X533246D01*
X633246D02*
Y1593554D01*
X653246D01*
Y1603554D01*
X663246D01*
Y1623554D01*
X653246D01*
Y1633554D01*
X633246D01*
Y1623554D01*
X623246D01*
Y1603554D01*
X633246D01*
X733246D02*
Y1593554D01*
X753246D01*
Y1603554D01*
X763246D01*
Y1623554D01*
X753246D01*
Y1633554D01*
X733246D01*
Y1623554D01*
X723246D01*
Y1603554D01*
X733246D01*
X833246D02*
Y1593554D01*
X853246D01*
Y1603554D01*
X863246D01*
Y1623554D01*
X853246D01*
Y1633554D01*
X833246D01*
Y1623554D01*
X823246D01*
Y1603554D01*
X833246D01*
X933246D02*
Y1593554D01*
X953246D01*
Y1603554D01*
X963246D01*
Y1623554D01*
X953246D01*
Y1633554D01*
X933246D01*
Y1623554D01*
X923246D01*
Y1603554D01*
X933246D01*
X1033246D02*
Y1593554D01*
X1053246D01*
Y1603554D01*
X1063246D01*
Y1623554D01*
X1053246D01*
Y1633554D01*
X1033246D01*
Y1623554D01*
X1023246D01*
Y1603554D01*
X1033246D01*
X1133246D02*
Y1593554D01*
X1153246D01*
Y1603554D01*
X1163246D01*
Y1623554D01*
X1153246D01*
Y1633554D01*
X1133246D01*
Y1623554D01*
X1123246D01*
Y1603554D01*
X1133246D01*
X1233246D02*
Y1593554D01*
X1253246D01*
Y1603554D01*
X1263246D01*
Y1623554D01*
X1253246D01*
Y1633554D01*
X1233246D01*
Y1623554D01*
X1223246D01*
Y1603554D01*
X1233246D01*
X1333246D02*
Y1593554D01*
X1353246D01*
Y1603554D01*
X1363246D01*
Y1623554D01*
X1353246D01*
Y1633554D01*
X1333246D01*
Y1623554D01*
X1323246D01*
Y1603554D01*
X1333246D01*
X1433246D02*
Y1593554D01*
X1453246D01*
Y1603554D01*
X1463246D01*
Y1623554D01*
X1453246D01*
Y1633554D01*
X1433246D01*
Y1623554D01*
X1423246D01*
Y1603554D01*
X1433246D01*
X1533246D02*
Y1593554D01*
X1553246D01*
Y1603554D01*
X1563246D01*
Y1623554D01*
X1553246D01*
Y1633554D01*
X1533246D01*
Y1623554D01*
X1523246D01*
Y1603554D01*
X1533246D01*
X1633246D02*
Y1593554D01*
X1653246D01*
Y1603554D01*
X1663246D01*
Y1623554D01*
X1653246D01*
Y1633554D01*
X1633246D01*
Y1623554D01*
X1623246D01*
Y1603554D01*
X1633246D01*
X1733246D02*
Y1593554D01*
X1753246D01*
Y1603554D01*
X1763246D01*
Y1623554D01*
X1753246D01*
Y1633554D01*
X1733246D01*
Y1623554D01*
X1723246D01*
Y1603554D01*
X1733246D01*
X1833246D02*
Y1593554D01*
X1853246D01*
Y1603554D01*
X1863246D01*
Y1623554D01*
X1853246D01*
Y1633554D01*
X1833246D01*
Y1623554D01*
X1823246D01*
Y1603554D01*
X1833246D01*
X533246Y2603554D02*
Y2593554D01*
X553246D01*
Y2603554D01*
X563246D01*
Y2623554D01*
X553246D01*
Y2633554D01*
X533246D01*
Y2623554D01*
X523246D01*
Y2603554D01*
X533246D01*
X633246D02*
Y2593554D01*
X653246D01*
Y2603554D01*
X663246D01*
Y2623554D01*
X653246D01*
Y2633554D01*
X633246D01*
Y2623554D01*
X623246D01*
Y2603554D01*
X633246D01*
X733246D02*
Y2593554D01*
X753246D01*
Y2603554D01*
X763246D01*
Y2623554D01*
X753246D01*
Y2633554D01*
X733246D01*
Y2623554D01*
X723246D01*
Y2603554D01*
X733246D01*
X833246D02*
Y2593554D01*
X853246D01*
Y2603554D01*
X863246D01*
Y2623554D01*
X853246D01*
Y2633554D01*
X833246D01*
Y2623554D01*
X823246D01*
Y2603554D01*
X833246D01*
X933246D02*
Y2593554D01*
X953246D01*
Y2603554D01*
X963246D01*
Y2623554D01*
X953246D01*
Y2633554D01*
X933246D01*
Y2623554D01*
X923246D01*
Y2603554D01*
X933246D01*
X1033246D02*
Y2593554D01*
X1053246D01*
Y2603554D01*
X1063246D01*
Y2623554D01*
X1053246D01*
Y2633554D01*
X1033246D01*
Y2623554D01*
X1023246D01*
Y2603554D01*
X1033246D01*
X1133246D02*
Y2593554D01*
X1153246D01*
Y2603554D01*
X1163246D01*
Y2623554D01*
X1153246D01*
Y2633554D01*
X1133246D01*
Y2623554D01*
X1123246D01*
Y2603554D01*
X1133246D01*
X1233246D02*
Y2593554D01*
X1253246D01*
Y2603554D01*
X1263246D01*
Y2623554D01*
X1253246D01*
Y2633554D01*
X1233246D01*
Y2623554D01*
X1223246D01*
Y2603554D01*
X1233246D01*
X1333246D02*
Y2593554D01*
X1353246D01*
Y2603554D01*
X1363246D01*
Y2623554D01*
X1353246D01*
Y2633554D01*
X1333246D01*
Y2623554D01*
X1323246D01*
Y2603554D01*
X1333246D01*
X1433246D02*
Y2593554D01*
X1453246D01*
Y2603554D01*
X1463246D01*
Y2623554D01*
X1453246D01*
Y2633554D01*
X1433246D01*
Y2623554D01*
X1423246D01*
Y2603554D01*
X1433246D01*
X1533246D02*
Y2593554D01*
X1553246D01*
Y2603554D01*
X1563246D01*
Y2623554D01*
X1553246D01*
Y2633554D01*
X1533246D01*
Y2623554D01*
X1523246D01*
Y2603554D01*
X1533246D01*
X1633246D02*
Y2593554D01*
X1653246D01*
Y2603554D01*
X1663246D01*
Y2623554D01*
X1653246D01*
Y2633554D01*
X1633246D01*
Y2623554D01*
X1623246D01*
Y2603554D01*
X1633246D01*
X1733246D02*
Y2593554D01*
X1753246D01*
Y2603554D01*
X1763246D01*
Y2623554D01*
X1753246D01*
Y2633554D01*
X1733246D01*
Y2623554D01*
X1723246D01*
Y2603554D01*
X1733246D01*
X1833246D02*
Y2593554D01*
X1853246D01*
Y2603554D01*
X1863246D01*
Y2623554D01*
X1853246D01*
Y2633554D01*
X1833246D01*
Y2623554D01*
X1823246D01*
Y2603554D01*
X1833246D01*
X1350000Y1810000D02*
X1360000D01*
X1370000Y1820000D01*
X1380000Y1810000D01*
X1390000D01*
Y1820000D01*
X1380000Y1830000D01*
X1390000Y1840000D01*
Y1850000D01*
X1380000D01*
X1370000Y1840000D01*
X1360000Y1850000D01*
X1350000D01*
Y1840000D01*
X1360000Y1830000D01*
X1350000Y1820000D01*
Y1810000D01*
X30000Y4410000D02*
X40000D01*
X50000Y4420000D01*
X60000Y4410000D01*
X70000D01*
Y4420000D01*
X60000Y4430000D01*
X70000Y4440000D01*
Y4450000D01*
X60000D01*
X50000Y4440000D01*
X40000Y4450000D01*
X30000D01*
Y4440000D01*
X40000Y4430000D01*
X30000Y4420000D01*
Y4410000D01*
X1121120Y5107726D02*
X1141120Y5127726D01*
X1161120Y5107726D01*
X1141120Y5087726D01*
X1121120Y5107726D01*
X1704348Y4085680D02*
X1714348D01*
X1724348Y4095680D01*
X1734348Y4085680D01*
X1744348D01*
Y4095680D01*
X1734348Y4105680D01*
X1744348Y4115680D01*
Y4125680D01*
X1734348D01*
X1724348Y4115680D01*
X1714348Y4125680D01*
X1704348D01*
Y4115680D01*
X1714348Y4105680D01*
X1704348Y4095680D01*
Y4085680D01*
Y4491190D02*
X1714348D01*
X1724348Y4501190D01*
X1734348Y4491190D01*
X1744348D01*
Y4501190D01*
X1734348Y4511190D01*
X1744348Y4521190D01*
Y4531190D01*
X1734348D01*
X1724348Y4521190D01*
X1714348Y4531190D01*
X1704348D01*
Y4521190D01*
X1714348Y4511190D01*
X1704348Y4501190D01*
Y4491190D01*
Y4904576D02*
X1714348D01*
X1724348Y4914576D01*
X1734348Y4904576D01*
X1744348D01*
Y4914576D01*
X1734348Y4924576D01*
X1744348Y4934576D01*
Y4944576D01*
X1734348D01*
X1724348Y4934576D01*
X1714348Y4944576D01*
X1704348D01*
Y4934576D01*
X1714348Y4924576D01*
X1704348Y4914576D01*
Y4904576D01*
X1060018Y5223250D02*
X1080018Y5243250D01*
X1100018Y5223250D01*
X1080018Y5203250D01*
X1060018Y5223250D01*
X1704504Y3691402D02*
X1714504D01*
X1724504Y3701402D01*
X1734504Y3691402D01*
X1744504D01*
Y3701402D01*
X1734504Y3711402D01*
X1744504Y3721402D01*
Y3731402D01*
X1734504D01*
X1724504Y3721402D01*
X1714504Y3731402D01*
X1704504D01*
Y3721402D01*
X1714504Y3711402D01*
X1704504Y3701402D01*
Y3691402D01*
X1464504D02*
X1474504D01*
X1484504Y3701402D01*
X1494504Y3691402D01*
X1504504D01*
Y3701402D01*
X1494504Y3711402D01*
X1504504Y3721402D01*
Y3731402D01*
X1494504D01*
X1484504Y3721402D01*
X1474504Y3731402D01*
X1464504D01*
Y3721402D01*
X1474504Y3711402D01*
X1464504Y3701402D01*
Y3691402D01*
X1494504Y4091402D02*
X1504504D01*
X1514504Y4101402D01*
X1524504Y4091402D01*
X1534504D01*
Y4101402D01*
X1524504Y4111402D01*
X1534504Y4121402D01*
Y4131402D01*
X1524504D01*
X1514504Y4121402D01*
X1504504Y4131402D01*
X1494504D01*
Y4121402D01*
X1504504Y4111402D01*
X1494504Y4101402D01*
Y4091402D01*
X1045504Y1916402D02*
X1055504D01*
X1065504Y1926402D01*
X1075504Y1916402D01*
X1085504D01*
Y1926402D01*
X1075504Y1936402D01*
X1085504Y1946402D01*
Y1956402D01*
X1075504D01*
X1065504Y1946402D01*
X1055504Y1956402D01*
X1045504D01*
Y1946402D01*
X1055504Y1936402D01*
X1045504Y1926402D01*
Y1916402D01*
X1065504Y577402D02*
X1075504D01*
X1085504Y587402D01*
X1095504Y577402D01*
X1105504D01*
Y587402D01*
X1095504Y597402D01*
X1105504Y607402D01*
Y617402D01*
X1095504D01*
X1085504Y607402D01*
X1075504Y617402D01*
X1065504D01*
Y607402D01*
X1075504Y597402D01*
X1065504Y587402D01*
Y577402D01*
X1274504Y5177402D02*
X1294504Y5197402D01*
X1314504Y5177402D01*
X1294504Y5157402D01*
X1274504Y5177402D01*
X1219504Y5196402D02*
X1239504Y5216402D01*
X1259504Y5196402D01*
X1239504Y5176402D01*
X1219504Y5196402D01*
X1143504Y5678402D02*
X1163504Y5698402D01*
X1183504Y5678402D01*
X1163504Y5658402D01*
X1143504Y5678402D01*
X1006504Y5707402D02*
X1026504Y5727402D01*
X1046504Y5707402D01*
X1026504Y5687402D01*
X1006504Y5707402D01*
X1080504Y5774402D02*
X1100504Y5794402D01*
X1120504Y5774402D01*
X1100504Y5754402D01*
X1080504Y5774402D01*
X30000Y4020000D02*
X40000D01*
X50000Y4030000D01*
X60000Y4020000D01*
X70000D01*
Y4030000D01*
X60000Y4040000D01*
X70000Y4050000D01*
Y4060000D01*
X60000D01*
X50000Y4050000D01*
X40000Y4060000D01*
X30000D01*
Y4050000D01*
X40000Y4040000D01*
X30000Y4030000D01*
Y4020000D01*
Y5820000D02*
X40000D01*
X50000Y5830000D01*
X60000Y5820000D01*
X70000D01*
Y5830000D01*
X60000Y5840000D01*
X70000Y5850000D01*
Y5860000D01*
X60000D01*
X50000Y5850000D01*
X40000Y5860000D01*
X30000D01*
Y5850000D01*
X40000Y5840000D01*
X30000Y5830000D01*
Y5820000D01*
X1301238Y5290668D02*
X1311238D01*
X1321238Y5300668D01*
X1331238Y5290668D01*
X1341238D01*
Y5300668D01*
X1331238Y5310668D01*
X1341238Y5320668D01*
Y5330668D01*
X1331238D01*
X1321238Y5320668D01*
X1311238Y5330668D01*
X1301238D01*
Y5320668D01*
X1311238Y5310668D01*
X1301238Y5300668D01*
Y5290668D01*
X30000Y4620000D02*
X40000D01*
X50000Y4630000D01*
X60000Y4620000D01*
X70000D01*
Y4630000D01*
X60000Y4640000D01*
X70000Y4650000D01*
Y4660000D01*
X60000D01*
X50000Y4650000D01*
X40000Y4660000D01*
X30000D01*
Y4650000D01*
X40000Y4640000D01*
X30000Y4630000D01*
Y4620000D01*
X670000Y5880002D02*
X680000D01*
X690000Y5890002D01*
X700000Y5880002D01*
X710000D01*
Y5890002D01*
X700000Y5900002D01*
X710000Y5910002D01*
Y5920002D01*
X700000D01*
X690000Y5910002D01*
X680000Y5920002D01*
X670000D01*
Y5910002D01*
X680000Y5900002D01*
X670000Y5890002D01*
Y5880002D01*
X480000Y6140000D02*
X490000D01*
X500000Y6150000D01*
X510000Y6140000D01*
X520000D01*
Y6150000D01*
X510000Y6160000D01*
X520000Y6170000D01*
Y6180000D01*
X510000D01*
X500000Y6170000D01*
X490000Y6180000D01*
X480000D01*
Y6170000D01*
X490000Y6160000D01*
X480000Y6150000D01*
Y6140000D01*
X30000Y5420000D02*
X40000D01*
X50000Y5430000D01*
X60000Y5420000D01*
X70000D01*
Y5430000D01*
X60000Y5440000D01*
X70000Y5450000D01*
Y5460000D01*
X60000D01*
X50000Y5450000D01*
X40000Y5460000D01*
X30000D01*
Y5450000D01*
X40000Y5440000D01*
X30000Y5430000D01*
Y5420000D01*
X460000Y5360000D02*
X470000D01*
X480000Y5370000D01*
X490000Y5360000D01*
X500000D01*
Y5370000D01*
X490000Y5380000D01*
X500000Y5390000D01*
Y5400000D01*
X490000D01*
X480000Y5390000D01*
X470000Y5400000D01*
X460000D01*
Y5390000D01*
X470000Y5380000D01*
X460000Y5370000D01*
Y5360000D01*
X490000Y5750000D02*
X500000D01*
X510000Y5760000D01*
X520000Y5750000D01*
X530000D01*
Y5760000D01*
X520000Y5770000D01*
X530000Y5780000D01*
Y5790000D01*
X520000D01*
X510000Y5780000D01*
X500000Y5790000D01*
X490000D01*
Y5780000D01*
X500000Y5770000D01*
X490000Y5760000D01*
Y5750000D01*
X30000Y5030000D02*
X40000D01*
X50000Y5040000D01*
X60000Y5030000D01*
X70000D01*
Y5040000D01*
X60000Y5050000D01*
X70000Y5060000D01*
Y5070000D01*
X60000D01*
X50000Y5060000D01*
X40000Y5070000D01*
X30000D01*
Y5060000D01*
X40000Y5050000D01*
X30000Y5040000D01*
Y5030000D01*
X470000Y4960000D02*
X480000D01*
X490000Y4970000D01*
X500000Y4960000D01*
X510000D01*
Y4970000D01*
X500000Y4980000D01*
X510000Y4990000D01*
Y5000000D01*
X500000D01*
X490000Y4990000D01*
X480000Y5000000D01*
X470000D01*
Y4990000D01*
X480000Y4980000D01*
X470000Y4970000D01*
Y4960000D01*
X460000Y4340000D02*
X470000D01*
X480000Y4350000D01*
X490000Y4340000D01*
X500000D01*
Y4350000D01*
X490000Y4360000D01*
X500000Y4370000D01*
Y4380000D01*
X490000D01*
X480000Y4370000D01*
X470000Y4380000D01*
X460000D01*
Y4370000D01*
X470000Y4360000D01*
X460000Y4350000D01*
Y4340000D01*
Y4550000D02*
X470000D01*
X480000Y4560000D01*
X490000Y4550000D01*
X500000D01*
Y4560000D01*
X490000Y4570000D01*
X500000Y4580000D01*
Y4590000D01*
X490000D01*
X480000Y4580000D01*
X470000Y4590000D01*
X460000D01*
Y4580000D01*
X470000Y4570000D01*
X460000Y4560000D01*
Y4550000D01*
Y3950000D02*
X470000D01*
X480000Y3960000D01*
X490000Y3950000D01*
X500000D01*
Y3960000D01*
X490000Y3970000D01*
X500000Y3980000D01*
Y3990000D01*
X490000D01*
X480000Y3980000D01*
X470000Y3990000D01*
X460000D01*
Y3980000D01*
X470000Y3970000D01*
X460000Y3960000D01*
Y3950000D01*
Y3550000D02*
X470000D01*
X480000Y3560000D01*
X490000Y3550000D01*
X500000D01*
Y3560000D01*
X490000Y3570000D01*
X500000Y3580000D01*
Y3590000D01*
X490000D01*
X480000Y3580000D01*
X470000Y3590000D01*
X460000D01*
Y3580000D01*
X470000Y3570000D01*
X460000Y3560000D01*
Y3550000D01*
X1100000Y2220000D02*
X1110000D01*
X1120000Y2230000D01*
X1130000Y2220000D01*
X1140000D01*
Y2230000D01*
X1130000Y2240000D01*
X1140000Y2250000D01*
Y2260000D01*
X1130000D01*
X1120000Y2250000D01*
X1110000Y2260000D01*
X1100000D01*
Y2250000D01*
X1110000Y2240000D01*
X1100000Y2230000D01*
Y2220000D01*
X937504Y5661402D02*
X947504D01*
X957504Y5671402D01*
X967504Y5661402D01*
X977504D01*
Y5671402D01*
X967504Y5681402D01*
X977504Y5691402D01*
Y5701402D01*
X967504D01*
X957504Y5691402D01*
X947504Y5701402D01*
X937504D01*
Y5691402D01*
X947504Y5681402D01*
X937504Y5671402D01*
Y5661402D01*
X1280504Y5069402D02*
X1290504D01*
X1300504Y5079402D01*
X1310504Y5069402D01*
X1320504D01*
Y5079402D01*
X1310504Y5089402D01*
X1320504Y5099402D01*
Y5109402D01*
X1310504D01*
X1300504Y5099402D01*
X1290504Y5109402D01*
X1280504D01*
Y5099402D01*
X1290504Y5089402D01*
X1280504Y5079402D01*
Y5069402D01*
X30000Y3630000D02*
X40000D01*
X50000Y3640000D01*
X60000Y3630000D01*
X70000D01*
Y3640000D01*
X60000Y3650000D01*
X70000Y3660000D01*
Y3670000D01*
X60000D01*
X50000Y3660000D01*
X40000Y3670000D01*
X30000D01*
Y3660000D01*
X40000Y3650000D01*
X30000Y3640000D01*
Y3630000D01*
Y6210000D02*
X40000D01*
X50000Y6220000D01*
X60000Y6210000D01*
X70000D01*
Y6220000D01*
X60000Y6230000D01*
X70000Y6240000D01*
Y6250000D01*
X60000D01*
X50000Y6240000D01*
X40000Y6250000D01*
X30000D01*
Y6240000D01*
X40000Y6230000D01*
X30000Y6220000D01*
Y6210000D01*
X1704348Y5294340D02*
X1714348D01*
X1724348Y5304340D01*
X1734348Y5294340D01*
X1744348D01*
Y5304340D01*
X1734348Y5314340D01*
X1744348Y5324340D01*
Y5334340D01*
X1734348D01*
X1724348Y5324340D01*
X1714348Y5334340D01*
X1704348D01*
Y5324340D01*
X1714348Y5314340D01*
X1704348Y5304340D01*
Y5294340D01*
Y5695916D02*
X1714348D01*
X1724348Y5705916D01*
X1734348Y5695916D01*
X1744348D01*
Y5705916D01*
X1734348Y5715916D01*
X1744348Y5725916D01*
Y5735916D01*
X1734348D01*
X1724348Y5725916D01*
X1714348Y5735916D01*
X1704348D01*
Y5725916D01*
X1714348Y5715916D01*
X1704348Y5705916D01*
Y5695916D01*
X946000Y2071000D02*
X956000D01*
X966000Y2081000D01*
X976000Y2071000D01*
X986000D01*
Y2081000D01*
X976000Y2091000D01*
X986000Y2101000D01*
Y2111000D01*
X976000D01*
X966000Y2101000D01*
X956000Y2111000D01*
X946000D01*
Y2101000D01*
X956000Y2091000D01*
X946000Y2081000D01*
Y2071000D01*
X1130000Y885000D02*
X1140000D01*
X1150000Y895000D01*
X1160000Y885000D01*
X1170000D01*
Y895000D01*
X1160000Y905000D01*
X1170000Y915000D01*
Y925000D01*
X1160000D01*
X1150000Y915000D01*
X1140000Y925000D01*
X1130000D01*
Y915000D01*
X1140000Y905000D01*
X1130000Y895000D01*
Y885000D01*
X1185000Y4695000D02*
X1195000D01*
X1205000Y4705000D01*
X1215000Y4695000D01*
X1225000D01*
Y4705000D01*
X1215000Y4715000D01*
X1225000Y4725000D01*
Y4735000D01*
X1215000D01*
X1205000Y4725000D01*
X1195000Y4735000D01*
X1185000D01*
Y4725000D01*
X1195000Y4715000D01*
X1185000Y4705000D01*
Y4695000D01*
D88*
X1934504Y6701402D02*
G03*
X1934504Y6701402I-20000J0D01*
G01*
Y6801402D02*
G03*
X1934504Y6801402I-20000J0D01*
G01*
X834504Y6701402D02*
G03*
X834504Y6701402I-20000J0D01*
G01*
X934504D02*
G03*
X934504Y6701402I-20000J0D01*
G01*
X1034504D02*
G03*
X1034504Y6701402I-20000J0D01*
G01*
X1134504D02*
G03*
X1134504Y6701402I-20000J0D01*
G01*
X1234504D02*
G03*
X1234504Y6701402I-20000J0D01*
G01*
X1334504D02*
G03*
X1334504Y6701402I-20000J0D01*
G01*
X1434504D02*
G03*
X1434504Y6701402I-20000J0D01*
G01*
X1534504D02*
G03*
X1534504Y6701402I-20000J0D01*
G01*
X1634504D02*
G03*
X1634504Y6701402I-20000J0D01*
G01*
X1734504D02*
G03*
X1734504Y6701402I-20000J0D01*
G01*
X834504Y6801402D02*
G03*
X834504Y6801402I-20000J0D01*
G01*
X934504D02*
G03*
X934504Y6801402I-20000J0D01*
G01*
X1034504D02*
G03*
X1034504Y6801402I-20000J0D01*
G01*
X1134504D02*
G03*
X1134504Y6801402I-20000J0D01*
G01*
X1234504D02*
G03*
X1234504Y6801402I-20000J0D01*
G01*
X1334504D02*
G03*
X1334504Y6801402I-20000J0D01*
G01*
X1434504D02*
G03*
X1434504Y6801402I-20000J0D01*
G01*
X1534504D02*
G03*
X1534504Y6801402I-20000J0D01*
G01*
X1634504D02*
G03*
X1634504Y6801402I-20000J0D01*
G01*
X1734504D02*
G03*
X1734504Y6801402I-20000J0D01*
G01*
X1834504D02*
G03*
X1834504Y6801402I-20000J0D01*
G01*
Y6701402D02*
G03*
X1834504Y6701402I-20000J0D01*
G01*
X2390018Y3740444D02*
G03*
X2390018Y3740444I-20000J0D01*
G01*
Y3840444D02*
G03*
X2390018Y3840444I-20000J0D01*
G01*
X279782Y4337568D02*
G03*
X279782Y4337568I-20000J0D01*
G01*
Y4437568D02*
G03*
X279782Y4437568I-20000J0D01*
G01*
Y4537568D02*
G03*
X279782Y4537568I-20000J0D01*
G01*
Y4637568D02*
G03*
X279782Y4637568I-20000J0D01*
G01*
X2395924Y4543868D02*
G03*
X2395924Y4543868I-20000J0D01*
G01*
Y4643868D02*
G03*
X2395924Y4643868I-20000J0D01*
G01*
Y4957254D02*
G03*
X2395924Y4957254I-20000J0D01*
G01*
Y5057254D02*
G03*
X2395924Y5057254I-20000J0D01*
G01*
X2390018Y4138358D02*
G03*
X2390018Y4138358I-20000J0D01*
G01*
Y4238358D02*
G03*
X2390018Y4238358I-20000J0D01*
G01*
Y5743250D02*
G03*
X2390018Y5743250I-20000J0D01*
G01*
Y5843250D02*
G03*
X2390018Y5843250I-20000J0D01*
G01*
X279782Y3551742D02*
G03*
X279782Y3551742I-20000J0D01*
G01*
Y3651742D02*
G03*
X279782Y3651742I-20000J0D01*
G01*
X2390018Y5345706D02*
G03*
X2390018Y5345706I-20000J0D01*
G01*
Y5445706D02*
G03*
X2390018Y5445706I-20000J0D01*
G01*
X279782Y3941506D02*
G03*
X279782Y3941506I-20000J0D01*
G01*
Y4041506D02*
G03*
X279782Y4041506I-20000J0D01*
G01*
Y5740062D02*
G03*
X279782Y5740062I-20000J0D01*
G01*
Y5840062D02*
G03*
X279782Y5840062I-20000J0D01*
G01*
Y5345706D02*
G03*
X279782Y5345706I-20000J0D01*
G01*
Y5445706D02*
G03*
X279782Y5445706I-20000J0D01*
G01*
Y4951348D02*
G03*
X279782Y4951348I-20000J0D01*
G01*
Y5051348D02*
G03*
X279782Y5051348I-20000J0D01*
G01*
Y6134418D02*
G03*
X279782Y6134418I-20000J0D01*
G01*
Y6234418D02*
G03*
X279782Y6234418I-20000J0D01*
G01*
%TF.MD5,f25e258c77b49655c0a5ccd1b1ff8041*%
M02*
