G04 Layer_Color=65535*
%FSLAX26Y26*%
%MOIN*%
%TF.FileFunction,Legend,Top*%
%TF.Part,Single*%
G01*
G75*
%TA.AperFunction,NonConductor*%
%ADD46C,0.007874*%
%ADD47C,0.009842*%
%ADD48C,0.023622*%
%ADD67C,0.003937*%
%ADD68C,0.010000*%
%ADD69C,0.015748*%
%ADD70C,0.005000*%
%ADD71C,0.020000*%
D46*
X1168048Y5005364D02*
X1207418D01*
X1168048Y4887254D02*
X1207418D01*
X1168048D02*
Y5005364D01*
X1207418Y4887254D02*
Y5005364D01*
X1273010Y5370338D02*
Y5756164D01*
X1147026Y5370338D02*
Y5756164D01*
Y5370338D02*
X1273010D01*
X1147026Y5756164D02*
X1273010D01*
X1602534Y4133056D02*
X1606472D01*
X1602534Y4089748D02*
X1606472D01*
X2147578Y4099774D02*
Y4103712D01*
X2190884Y4099774D02*
Y4103712D01*
X2147362Y5868032D02*
Y5871970D01*
X2192636Y5868032D02*
Y5871970D01*
X1602536Y3733056D02*
X1606474D01*
X1602536Y3689750D02*
X1606474D01*
X1746002Y4607646D02*
Y4611584D01*
X1702696Y4607646D02*
Y4611584D01*
X1746004Y5021032D02*
Y5024970D01*
X1702696Y5021032D02*
Y5024970D01*
X1746002Y5410798D02*
Y5414736D01*
X1702694Y5410798D02*
Y5414736D01*
X2147576Y3725760D02*
Y3729696D01*
X2190884Y3725760D02*
Y3729696D01*
X2147362Y4218032D02*
Y4221968D01*
X2192638Y4218032D02*
Y4221968D01*
X1120806Y5047686D02*
X1191672D01*
X1120806Y5167766D02*
X1191672D01*
Y5047686D02*
Y5167766D01*
X1120806Y5047686D02*
Y5167766D01*
X2147576Y5733634D02*
Y5737572D01*
X2190882Y5733634D02*
Y5737572D01*
X2147576Y5339930D02*
Y5343868D01*
X2190884Y5339930D02*
Y5343868D01*
X2155448Y4528908D02*
Y4532844D01*
X2198756Y4528908D02*
Y4532844D01*
X2147576Y4926544D02*
Y4930480D01*
X2190884Y4926544D02*
Y4930480D01*
X2146592Y3843870D02*
Y3847808D01*
X2191868Y3843870D02*
Y3847808D01*
X2147362Y5458032D02*
Y5461968D01*
X2192638Y5458032D02*
Y5461968D01*
X2157362Y4658032D02*
Y4661970D01*
X2202636Y4658032D02*
Y4661970D01*
X2147362Y5038032D02*
Y5041968D01*
X2192638Y5038032D02*
Y5041968D01*
X1746002Y5804498D02*
Y5808436D01*
X1702694Y5804498D02*
Y5808436D01*
X438324Y160208D02*
X1938324D01*
Y1360208D01*
X438324D02*
X1938324D01*
X438324Y835208D02*
Y1360208D01*
Y160208D02*
Y685208D01*
Y760208D01*
Y835208D01*
X443246Y2113554D02*
Y2188554D01*
Y2038554D02*
Y2113554D01*
Y1513554D02*
Y2038554D01*
Y2188554D02*
Y2713554D01*
X1943246D01*
Y1513554D02*
Y2713554D01*
X443246Y1513554D02*
X1943246D01*
X1064606Y4938032D02*
Y4941970D01*
X1015394Y4938032D02*
Y4941970D01*
X1295394Y4898032D02*
Y4901968D01*
X1344606Y4898032D02*
Y4901968D01*
X1168032Y4854606D02*
X1171968D01*
X1168032Y4805394D02*
X1171968D01*
X966394Y2357032D02*
Y2360968D01*
X1015606Y2357032D02*
Y2360968D01*
X1113622Y2358032D02*
Y2361968D01*
X1066378Y2358032D02*
Y2361968D01*
X1173622Y1008030D02*
Y1011968D01*
X1126378Y1008030D02*
Y1011968D01*
X1030394Y1008032D02*
Y1011968D01*
X1079606Y1008032D02*
Y1011968D01*
X417874Y6153358D02*
Y6114001D01*
X444112D01*
X457231D02*
X470351D01*
X463791D01*
Y6140239D01*
X457231D01*
X516267Y6153358D02*
Y6114001D01*
X496589D01*
X490029Y6120560D01*
Y6133679D01*
X496589Y6140239D01*
X516267D01*
X417874Y6087231D02*
X444112D01*
X430993D01*
Y6047874D01*
X457231Y6087231D02*
Y6047874D01*
Y6067553D01*
X463791Y6074112D01*
X476910D01*
X483470Y6067553D01*
Y6047874D01*
X516268D02*
X503148D01*
X496589Y6054434D01*
Y6067553D01*
X503148Y6074112D01*
X516268D01*
X522827Y6067553D01*
Y6060993D01*
X496589D01*
X535946Y6074112D02*
Y6047874D01*
Y6060993D01*
X542506Y6067553D01*
X549065Y6074112D01*
X555625D01*
X575304Y6047874D02*
Y6074112D01*
X581863D01*
X588423Y6067553D01*
Y6047874D01*
Y6067553D01*
X594982Y6074112D01*
X601542Y6067553D01*
Y6047874D01*
X614661D02*
X627780D01*
X621221D01*
Y6074112D01*
X614661D01*
X647459Y6047874D02*
X667138D01*
X673697Y6054434D01*
X667138Y6060993D01*
X654018D01*
X647459Y6067553D01*
X654018Y6074112D01*
X673697D01*
X693376Y6080672D02*
Y6074112D01*
X686816D01*
X699935D01*
X693376D01*
Y6054434D01*
X699935Y6047874D01*
X726174D02*
X739293D01*
X745852Y6054434D01*
Y6067553D01*
X739293Y6074112D01*
X726174D01*
X719614Y6067553D01*
Y6054434D01*
X726174Y6047874D01*
X758971Y6074112D02*
Y6047874D01*
Y6060993D01*
X765531Y6067553D01*
X772091Y6074112D01*
X778650D01*
X1974001Y4692126D02*
X2013358D01*
X2000239Y4679007D01*
X2013358Y4665888D01*
X1974001D01*
Y4633090D02*
Y4646209D01*
X1980560Y4652769D01*
X1993679D01*
X2000239Y4646209D01*
Y4633090D01*
X1993679Y4626530D01*
X1987120D01*
Y4652769D01*
X2006798Y4606852D02*
X2000239D01*
Y4613411D01*
Y4600292D01*
Y4606852D01*
X1980560D01*
X1974001Y4600292D01*
Y4560935D02*
Y4574054D01*
X1980560Y4580613D01*
X1993679D01*
X2000239Y4574054D01*
Y4560935D01*
X1993679Y4554375D01*
X1987120D01*
Y4580613D01*
X2000239Y4541256D02*
X1974001D01*
X1987120D01*
X1993679Y4534696D01*
X2000239Y4528137D01*
Y4521577D01*
X1947231Y4692126D02*
X1907874D01*
X1927553D01*
Y4665888D01*
X1947231D01*
X1907874D01*
Y4633090D02*
Y4646209D01*
X1914434Y4652769D01*
X1927553D01*
X1934112Y4646209D01*
Y4633090D01*
X1927553Y4626530D01*
X1920993D01*
Y4652769D01*
X1934112Y4606852D02*
Y4593733D01*
X1927553Y4587173D01*
X1907874D01*
Y4606852D01*
X1914434Y4613411D01*
X1920993Y4606852D01*
Y4587173D01*
X1940672Y4567494D02*
X1934112D01*
Y4574054D01*
Y4560935D01*
Y4567494D01*
X1914434D01*
X1907874Y4560935D01*
Y4521577D02*
Y4534696D01*
X1914434Y4541256D01*
X1927553D01*
X1934112Y4534696D01*
Y4521577D01*
X1927553Y4515018D01*
X1920993D01*
Y4541256D01*
X1934112Y4501899D02*
X1907874D01*
X1920993D01*
X1927553Y4495339D01*
X1934112Y4488779D01*
Y4482220D01*
X2008358Y3897126D02*
X1969001D01*
Y3877447D01*
X1975560Y3870888D01*
X1982120D01*
X1988679Y3877447D01*
Y3897126D01*
Y3877447D01*
X1995239Y3870888D01*
X2001798D01*
X2008358Y3877447D01*
Y3897126D01*
X1969001Y3851209D02*
Y3838090D01*
X1975560Y3831530D01*
X1988679D01*
X1995239Y3838090D01*
Y3851209D01*
X1988679Y3857769D01*
X1975560D01*
X1969001Y3851209D01*
X1995239Y3811852D02*
Y3798733D01*
X1988679Y3792173D01*
X1969001D01*
Y3811852D01*
X1975560Y3818411D01*
X1982120Y3811852D01*
Y3792173D01*
X1995239Y3779054D02*
X1969001D01*
X1982120D01*
X1988679Y3772494D01*
X1995239Y3765935D01*
Y3759375D01*
X2008358Y3713458D02*
X1969001D01*
Y3733137D01*
X1975560Y3739696D01*
X1988679D01*
X1995239Y3733137D01*
Y3713458D01*
X1969001Y3674101D02*
Y3700339D01*
X1995239Y3674101D01*
X2001798D01*
X2008358Y3680660D01*
Y3693779D01*
X2001798Y3700339D01*
X1942231Y3897126D02*
X1902874D01*
X1922553D01*
Y3870888D01*
X1942231D01*
X1902874D01*
Y3838090D02*
Y3851209D01*
X1909434Y3857769D01*
X1922553D01*
X1929112Y3851209D01*
Y3838090D01*
X1922553Y3831530D01*
X1915993D01*
Y3857769D01*
X1929112Y3811852D02*
Y3798733D01*
X1922553Y3792173D01*
X1902874D01*
Y3811852D01*
X1909434Y3818411D01*
X1915993Y3811852D01*
Y3792173D01*
X1935672Y3772494D02*
X1929112D01*
Y3779054D01*
Y3765935D01*
Y3772494D01*
X1909434D01*
X1902874Y3765935D01*
Y3726577D02*
Y3739696D01*
X1909434Y3746256D01*
X1922553D01*
X1929112Y3739696D01*
Y3726577D01*
X1922553Y3720018D01*
X1915993D01*
Y3746256D01*
X1929112Y3706899D02*
X1902874D01*
X1915993D01*
X1922553Y3700339D01*
X1929112Y3693780D01*
Y3687220D01*
X2019917Y5165888D02*
X2026477Y5172447D01*
Y5185566D01*
X2019917Y5192126D01*
X1993679D01*
X1987120Y5185566D01*
Y5172447D01*
X1993679Y5165888D01*
X1987120Y5146209D02*
Y5133090D01*
X1993679Y5126530D01*
X2006798D01*
X2013358Y5133090D01*
Y5146209D01*
X2006798Y5152769D01*
X1993679D01*
X1987120Y5146209D01*
Y5113411D02*
X2013358D01*
Y5093733D01*
X2006798Y5087173D01*
X1987120D01*
Y5074054D02*
X2013358D01*
Y5054375D01*
X2006798Y5047816D01*
X1987120D01*
Y5034696D02*
Y5021577D01*
Y5028137D01*
X2013358D01*
Y5034696D01*
X1987120Y5001899D02*
X2013358D01*
Y4982220D01*
X2006798Y4975660D01*
X1987120D01*
X1974001Y4949422D02*
Y4942863D01*
X1980560Y4936303D01*
X2013358D01*
Y4955982D01*
X2006798Y4962541D01*
X1993679D01*
X1987120Y4955982D01*
Y4936303D01*
X1947231Y5192126D02*
Y5165888D01*
Y5179007D01*
X1907874D01*
Y5146209D02*
Y5133090D01*
X1914434Y5126530D01*
X1927553D01*
X1934112Y5133090D01*
Y5146209D01*
X1927553Y5152769D01*
X1914434D01*
X1907874Y5146209D01*
X1934112Y5113411D02*
X1914434D01*
X1907874Y5106852D01*
X1914434Y5100292D01*
X1907874Y5093733D01*
X1914434Y5087173D01*
X1934112D01*
X1907874Y5054375D02*
Y5067494D01*
X1914434Y5074054D01*
X1927553D01*
X1934112Y5067494D01*
Y5054375D01*
X1927553Y5047816D01*
X1920993D01*
Y5074054D01*
X1934112Y5034696D02*
X1907874D01*
X1920993D01*
X1927553Y5028137D01*
X1934112Y5021577D01*
Y5015018D01*
X1947231Y4955982D02*
X1907874D01*
X1927553D01*
Y4929743D01*
X1947231D01*
X1907874D01*
X1940672Y4910065D02*
X1934112D01*
Y4916624D01*
Y4903505D01*
Y4910065D01*
X1914434D01*
X1907874Y4903505D01*
X1934112Y4883826D02*
X1907874D01*
X1920993D01*
X1927553Y4877267D01*
X1934112Y4870707D01*
Y4864148D01*
X407874Y3943358D02*
Y3904001D01*
X427553D01*
X434112Y3910560D01*
Y3917120D01*
X427553Y3923679D01*
X407874D01*
X427553D01*
X434112Y3930239D01*
Y3936798D01*
X427553Y3943358D01*
X407874D01*
X453791Y3904001D02*
X466910D01*
X473470Y3910560D01*
Y3923679D01*
X466910Y3930239D01*
X453791D01*
X447231Y3923679D01*
Y3910560D01*
X453791Y3904001D01*
X493148Y3930239D02*
X506267D01*
X512827Y3923679D01*
Y3904001D01*
X493148D01*
X486589Y3910560D01*
X493148Y3917120D01*
X512827D01*
X525946Y3930239D02*
Y3904001D01*
Y3917120D01*
X532506Y3923679D01*
X539065Y3930239D01*
X545625D01*
X591542Y3943358D02*
Y3904001D01*
X571863D01*
X565304Y3910560D01*
Y3923679D01*
X571863Y3930239D01*
X591542D01*
X604661Y3904001D02*
X617780D01*
X611221D01*
Y3943358D01*
X604661Y3936798D01*
X407874Y3877231D02*
X434112D01*
X420993D01*
Y3837874D01*
X447231Y3877231D02*
Y3837874D01*
Y3857553D01*
X453791Y3864112D01*
X466910D01*
X473470Y3857553D01*
Y3837874D01*
X506267D02*
X493148D01*
X486589Y3844434D01*
Y3857553D01*
X493148Y3864112D01*
X506267D01*
X512827Y3857553D01*
Y3850993D01*
X486589D01*
X525946Y3864112D02*
Y3837874D01*
Y3850993D01*
X532506Y3857553D01*
X539065Y3864112D01*
X545625D01*
X565304Y3837874D02*
Y3864112D01*
X571863D01*
X578423Y3857553D01*
Y3837874D01*
Y3857553D01*
X584982Y3864112D01*
X591542Y3857553D01*
Y3837874D01*
X604661D02*
X617780D01*
X611221D01*
Y3864112D01*
X604661D01*
X637459Y3837874D02*
X657138D01*
X663697Y3844434D01*
X657138Y3850993D01*
X644018D01*
X637459Y3857553D01*
X644018Y3864112D01*
X663697D01*
X683376Y3870672D02*
Y3864112D01*
X676816D01*
X689935D01*
X683376D01*
Y3844434D01*
X689935Y3837874D01*
X716174D02*
X729293D01*
X735852Y3844434D01*
Y3857553D01*
X729293Y3864112D01*
X716174D01*
X709614Y3857553D01*
Y3844434D01*
X716174Y3837874D01*
X748971Y3864112D02*
Y3837874D01*
Y3850993D01*
X755531Y3857553D01*
X762091Y3864112D01*
X768650D01*
X2438908Y1072276D02*
X2478265D01*
Y1098514D01*
Y1118193D02*
Y1131312D01*
X2471706Y1137871D01*
X2458586D01*
X2452027Y1131312D01*
Y1118193D01*
X2458586Y1111633D01*
X2471706D01*
X2478265Y1118193D01*
Y1150990D02*
X2452027D01*
Y1170669D01*
X2458586Y1177229D01*
X2478265D01*
X2491384Y1203467D02*
Y1210026D01*
X2484825Y1216586D01*
X2452027D01*
Y1196907D01*
X2458586Y1190348D01*
X2471706D01*
X2478265Y1196907D01*
Y1216586D01*
X2524713Y1098514D02*
X2518153Y1091954D01*
Y1078835D01*
X2524713Y1072276D01*
X2531273D01*
X2537832Y1078835D01*
Y1091954D01*
X2544392Y1098514D01*
X2550951D01*
X2557511Y1091954D01*
Y1078835D01*
X2550951Y1072276D01*
X2531273Y1111633D02*
X2550951D01*
X2557511Y1118193D01*
Y1137871D01*
X2564070D01*
X2570630Y1131312D01*
Y1124752D01*
X2557511Y1137871D02*
X2531273D01*
X2557511Y1150990D02*
X2531273D01*
Y1157550D01*
X2537832Y1164110D01*
X2557511D01*
X2537832D01*
X2531273Y1170669D01*
X2537832Y1177229D01*
X2557511D01*
Y1210026D02*
Y1196907D01*
X2550951Y1190348D01*
X2537832D01*
X2531273Y1196907D01*
Y1210026D01*
X2537832Y1216586D01*
X2544392D01*
Y1190348D01*
X2524713Y1236265D02*
X2531273D01*
Y1229705D01*
Y1242824D01*
Y1236265D01*
X2550951D01*
X2557511Y1242824D01*
X2531273Y1262503D02*
X2557511D01*
X2544392D01*
X2537832Y1269063D01*
X2531273Y1275622D01*
Y1282182D01*
Y1301860D02*
X2550951D01*
X2557511Y1308420D01*
Y1328099D01*
X2564070D01*
X2570630Y1321539D01*
Y1314979D01*
X2557511Y1328099D02*
X2531273D01*
X204724Y7015735D02*
Y6976378D01*
X230963D01*
X263760D02*
X250641D01*
X244082Y6982938D01*
Y6996057D01*
X250641Y7002616D01*
X263760D01*
X270320Y6996057D01*
Y6989497D01*
X244082D01*
X283439Y7002616D02*
X296558Y6976378D01*
X309677Y7002616D01*
X342475Y6976378D02*
X329356D01*
X322797Y6982938D01*
Y6996057D01*
X329356Y7002616D01*
X342475D01*
X349035Y6996057D01*
Y6989497D01*
X322797D01*
X362154Y6976378D02*
X375273D01*
X368714D01*
Y7015735D01*
X362154D01*
X394952Y6976378D02*
X414630D01*
X421190Y6982938D01*
X414630Y6989497D01*
X401511D01*
X394952Y6996057D01*
X401511Y7002616D01*
X421190D01*
X407874Y5714001D02*
Y5740239D01*
X420993Y5753358D01*
X434112Y5740239D01*
Y5714001D01*
Y5733679D01*
X407874D01*
X447231Y5740239D02*
Y5714001D01*
Y5727120D01*
X453791Y5733679D01*
X460351Y5740239D01*
X466910D01*
X486589D02*
Y5714001D01*
Y5727120D01*
X493148Y5733679D01*
X499708Y5740239D01*
X506267D01*
X545625Y5714001D02*
X532506D01*
X525946Y5720560D01*
Y5733679D01*
X532506Y5740239D01*
X545625D01*
X552184Y5733679D01*
Y5727120D01*
X525946D01*
X565304Y5714001D02*
X584982D01*
X591542Y5720560D01*
X584982Y5727120D01*
X571863D01*
X565304Y5733679D01*
X571863Y5740239D01*
X591542D01*
X611221Y5746798D02*
Y5740239D01*
X604661D01*
X617780D01*
X611221D01*
Y5720560D01*
X617780Y5714001D01*
X637459D02*
Y5740239D01*
X644018D01*
X650578Y5733679D01*
Y5714001D01*
Y5733679D01*
X657138Y5740239D01*
X663697Y5733679D01*
Y5714001D01*
X696495D02*
X683376D01*
X676816Y5720560D01*
Y5733679D01*
X683376Y5740239D01*
X696495D01*
X703054Y5733679D01*
Y5727120D01*
X676816D01*
X716174Y5714001D02*
Y5740239D01*
X735852D01*
X742412Y5733679D01*
Y5714001D01*
X762091Y5746798D02*
Y5740239D01*
X755531D01*
X768650D01*
X762091D01*
Y5720560D01*
X768650Y5714001D01*
X407874Y5687231D02*
X434112D01*
X420993D01*
Y5647874D01*
X447231Y5687231D02*
Y5647874D01*
Y5667553D01*
X453791Y5674112D01*
X466910D01*
X473470Y5667553D01*
Y5647874D01*
X506267D02*
X493148D01*
X486589Y5654434D01*
Y5667553D01*
X493148Y5674112D01*
X506267D01*
X512827Y5667553D01*
Y5660993D01*
X486589D01*
X525946Y5674112D02*
Y5647874D01*
Y5660993D01*
X532506Y5667553D01*
X539065Y5674112D01*
X545625D01*
X565304Y5647874D02*
Y5674112D01*
X571863D01*
X578423Y5667553D01*
Y5647874D01*
Y5667553D01*
X584982Y5674112D01*
X591542Y5667553D01*
Y5647874D01*
X604661D02*
X617780D01*
X611221D01*
Y5674112D01*
X604661D01*
X637459Y5647874D02*
X657138D01*
X663697Y5654434D01*
X657138Y5660993D01*
X644018D01*
X637459Y5667553D01*
X644018Y5674112D01*
X663697D01*
X683376Y5680672D02*
Y5674112D01*
X676816D01*
X689935D01*
X683376D01*
Y5654434D01*
X689935Y5647874D01*
X716174D02*
X729293D01*
X735852Y5654434D01*
Y5667553D01*
X729293Y5674112D01*
X716174D01*
X709614Y5667553D01*
Y5654434D01*
X716174Y5647874D01*
X748971Y5674112D02*
Y5647874D01*
Y5660993D01*
X755531Y5667553D01*
X762091Y5674112D01*
X768650D01*
X2464027Y64276D02*
X2503384D01*
Y90514D01*
Y110193D02*
Y123312D01*
X2496825Y129871D01*
X2483706D01*
X2477146Y123312D01*
Y110193D01*
X2483706Y103633D01*
X2496825D01*
X2503384Y110193D01*
Y142990D02*
X2477146D01*
Y162669D01*
X2483706Y169229D01*
X2503384D01*
X2516503Y195467D02*
Y202026D01*
X2509944Y208586D01*
X2477146D01*
Y188907D01*
X2483706Y182348D01*
X2496825D01*
X2503384Y188907D01*
Y208586D01*
X2549832Y90514D02*
X2543273Y83954D01*
Y70835D01*
X2549832Y64276D01*
X2576070D01*
X2582630Y70835D01*
Y83954D01*
X2576070Y90514D01*
X2562951D01*
Y77395D01*
X2556392Y110193D02*
Y123312D01*
X2562951Y129871D01*
X2582630D01*
Y110193D01*
X2576070Y103633D01*
X2569511Y110193D01*
Y129871D01*
X2582630Y142990D02*
Y156109D01*
Y149550D01*
X2556392D01*
Y142990D01*
X2582630Y175788D02*
X2556392D01*
Y195467D01*
X2562951Y202026D01*
X2582630D01*
X407874Y4304001D02*
Y4343358D01*
X420993Y4330239D01*
X434112Y4343358D01*
Y4304001D01*
X466910D02*
X453791D01*
X447231Y4310560D01*
Y4323679D01*
X453791Y4330239D01*
X466910D01*
X473470Y4323679D01*
Y4317120D01*
X447231D01*
X493148Y4336798D02*
Y4330239D01*
X486589D01*
X499708D01*
X493148D01*
Y4310560D01*
X499708Y4304001D01*
X539065D02*
X525946D01*
X519387Y4310560D01*
Y4323679D01*
X525946Y4330239D01*
X539065D01*
X545625Y4323679D01*
Y4317120D01*
X519387D01*
X558744Y4330239D02*
Y4304001D01*
Y4317120D01*
X565304Y4323679D01*
X571863Y4330239D01*
X578423D01*
X407874Y4277231D02*
X434112D01*
X420993D01*
Y4237874D01*
X447231Y4277231D02*
Y4237874D01*
Y4257553D01*
X453791Y4264112D01*
X466910D01*
X473470Y4257553D01*
Y4237874D01*
X506267D02*
X493148D01*
X486589Y4244434D01*
Y4257553D01*
X493148Y4264112D01*
X506267D01*
X512827Y4257553D01*
Y4250993D01*
X486589D01*
X525946Y4264112D02*
Y4237874D01*
Y4250993D01*
X532506Y4257553D01*
X539065Y4264112D01*
X545625D01*
X565304Y4237874D02*
Y4264112D01*
X571863D01*
X578423Y4257553D01*
Y4237874D01*
Y4257553D01*
X584982Y4264112D01*
X591542Y4257553D01*
Y4237874D01*
X604661D02*
X617780D01*
X611221D01*
Y4264112D01*
X604661D01*
X637459Y4237874D02*
X657138D01*
X663697Y4244434D01*
X657138Y4250993D01*
X644018D01*
X637459Y4257553D01*
X644018Y4264112D01*
X663697D01*
X683376Y4270672D02*
Y4264112D01*
X676816D01*
X689935D01*
X683376D01*
Y4244434D01*
X689935Y4237874D01*
X716174D02*
X729293D01*
X735852Y4244434D01*
Y4257553D01*
X729293Y4264112D01*
X716174D01*
X709614Y4257553D01*
Y4244434D01*
X716174Y4237874D01*
X748971Y4264112D02*
Y4237874D01*
Y4250993D01*
X755531Y4257553D01*
X762091Y4264112D01*
X768650D01*
X581616Y6806073D02*
X575057Y6812633D01*
X561938D01*
X555378Y6806073D01*
Y6779835D01*
X561938Y6773276D01*
X575057D01*
X581616Y6779835D01*
X2462027Y594276D02*
X2501384D01*
Y620514D01*
Y640193D02*
Y653312D01*
X2494825Y659871D01*
X2481706D01*
X2475146Y653312D01*
Y640193D01*
X2481706Y633633D01*
X2494825D01*
X2501384Y640193D01*
Y672990D02*
X2475146D01*
Y692669D01*
X2481706Y699229D01*
X2501384D01*
X2514503Y725467D02*
Y732027D01*
X2507944Y738586D01*
X2475146D01*
Y718907D01*
X2481706Y712348D01*
X2494825D01*
X2501384Y718907D01*
Y738586D01*
X2541273Y613954D02*
Y600835D01*
X2547832Y594276D01*
X2574070D01*
X2580630Y600835D01*
Y613954D01*
X2574070Y620514D01*
X2547832D01*
X2541273Y613954D01*
X2580630Y640193D02*
X2547832D01*
X2560951D01*
Y633633D01*
Y646752D01*
Y640193D01*
X2547832D01*
X2541273Y646752D01*
X2580630Y672990D02*
X2547832D01*
X2560951D01*
Y666431D01*
Y679550D01*
Y672990D01*
X2547832D01*
X2541273Y679550D01*
X2580630Y699229D02*
Y718907D01*
X2574070Y725467D01*
X2567511Y718907D01*
Y705788D01*
X2560951Y699229D01*
X2554392Y705788D01*
Y725467D01*
X2580630Y758265D02*
Y745146D01*
X2574070Y738586D01*
X2560951D01*
X2554392Y745146D01*
Y758265D01*
X2560951Y764824D01*
X2567511D01*
Y738586D01*
X2547832Y784503D02*
X2554392D01*
Y777943D01*
Y791062D01*
Y784503D01*
X2574070D01*
X2580630Y791062D01*
X1127874Y7027231D02*
X1154112D01*
X1140993D01*
Y6987874D01*
X1173791D02*
X1186910D01*
X1193470Y6994434D01*
Y7007553D01*
X1186910Y7014112D01*
X1173791D01*
X1167231Y7007553D01*
Y6994434D01*
X1173791Y6987874D01*
X1245946D02*
Y7027231D01*
X1259065Y7014112D01*
X1272184Y7027231D01*
Y6987874D01*
X1291863Y7014112D02*
X1304982D01*
X1311542Y7007553D01*
Y6987874D01*
X1291863D01*
X1285304Y6994434D01*
X1291863Y7000993D01*
X1311542D01*
X1324661Y6987874D02*
X1337780D01*
X1331221D01*
Y7014112D01*
X1324661D01*
X1357459Y6987874D02*
Y7014112D01*
X1377138D01*
X1383697Y7007553D01*
Y6987874D01*
X1436174Y7027231D02*
Y6987874D01*
X1455852D01*
X1462412Y6994434D01*
Y7000993D01*
X1455852Y7007553D01*
X1436174D01*
X1455852D01*
X1462412Y7014112D01*
Y7020672D01*
X1455852Y7027231D01*
X1436174D01*
X1482091Y6987874D02*
X1495210D01*
X1501769Y6994434D01*
Y7007553D01*
X1495210Y7014112D01*
X1482091D01*
X1475531Y7007553D01*
Y6994434D01*
X1482091Y6987874D01*
X1521448Y7014112D02*
X1534567D01*
X1541127Y7007553D01*
Y6987874D01*
X1521448D01*
X1514888Y6994434D01*
X1521448Y7000993D01*
X1541127D01*
X1554246Y7014112D02*
Y6987874D01*
Y7000993D01*
X1560805Y7007553D01*
X1567365Y7014112D01*
X1573925D01*
X1619841Y7027231D02*
Y6987874D01*
X1600163D01*
X1593603Y6994434D01*
Y7007553D01*
X1600163Y7014112D01*
X1619841D01*
X2016798Y5500888D02*
X2023358Y5507447D01*
Y5520566D01*
X2016798Y5527126D01*
X1990560D01*
X1984001Y5520566D01*
Y5507447D01*
X1990560Y5500888D01*
X2003679D01*
Y5514007D01*
X1984001Y5468090D02*
Y5481209D01*
X1990560Y5487769D01*
X2003679D01*
X2010239Y5481209D01*
Y5468090D01*
X2003679Y5461530D01*
X1997120D01*
Y5487769D01*
X2010239Y5441852D02*
Y5428733D01*
X2003679Y5422173D01*
X1984001D01*
Y5441852D01*
X1990560Y5448411D01*
X1997120Y5441852D01*
Y5422173D01*
X2010239Y5409054D02*
X1984001D01*
X1997120D01*
X2003679Y5402494D01*
X2010239Y5395935D01*
Y5389375D01*
X2023358Y5369696D02*
X1984001D01*
Y5350018D01*
X1990560Y5343458D01*
X1997120D01*
X2003679D01*
X2010239Y5350018D01*
Y5369696D01*
X1984001Y5323779D02*
Y5310660D01*
X1990560Y5304101D01*
X2003679D01*
X2010239Y5310660D01*
Y5323779D01*
X2003679Y5330339D01*
X1990560D01*
X1984001Y5323779D01*
X2010239Y5290982D02*
X1984001Y5264743D01*
X1997120Y5277863D01*
X2010239Y5264743D01*
X1984001Y5290982D01*
X1957231Y5527126D02*
X1917874D01*
X1937553D01*
Y5500888D01*
X1957231D01*
X1917874D01*
Y5468090D02*
Y5481209D01*
X1924434Y5487769D01*
X1937553D01*
X1944112Y5481209D01*
Y5468090D01*
X1937553Y5461530D01*
X1930993D01*
Y5487769D01*
X1944112Y5441852D02*
Y5428733D01*
X1937553Y5422173D01*
X1917874D01*
Y5441852D01*
X1924434Y5448411D01*
X1930993Y5441852D01*
Y5422173D01*
X1950672Y5402494D02*
X1944112D01*
Y5409054D01*
Y5395935D01*
Y5402494D01*
X1924434D01*
X1917874Y5395935D01*
Y5356577D02*
Y5369696D01*
X1924434Y5376256D01*
X1937553D01*
X1944112Y5369696D01*
Y5356577D01*
X1937553Y5350018D01*
X1930993D01*
Y5376256D01*
X1944112Y5336899D02*
X1917874D01*
X1930993D01*
X1937553Y5330339D01*
X1944112Y5323779D01*
Y5317220D01*
X407874Y3543358D02*
Y3504001D01*
X427553D01*
X434112Y3510560D01*
Y3517120D01*
X427553Y3523679D01*
X407874D01*
X427553D01*
X434112Y3530239D01*
Y3536798D01*
X427553Y3543358D01*
X407874D01*
X453791Y3504001D02*
X466910D01*
X473470Y3510560D01*
Y3523679D01*
X466910Y3530239D01*
X453791D01*
X447231Y3523679D01*
Y3510560D01*
X453791Y3504001D01*
X493148Y3530239D02*
X506267D01*
X512827Y3523679D01*
Y3504001D01*
X493148D01*
X486589Y3510560D01*
X493148Y3517120D01*
X512827D01*
X525946Y3530239D02*
Y3504001D01*
Y3517120D01*
X532506Y3523679D01*
X539065Y3530239D01*
X545625D01*
X591542Y3543358D02*
Y3504001D01*
X571863D01*
X565304Y3510560D01*
Y3523679D01*
X571863Y3530239D01*
X591542D01*
X630899Y3504001D02*
X604661D01*
X630899Y3530239D01*
Y3536798D01*
X624340Y3543358D01*
X611221D01*
X604661Y3536798D01*
X407874Y3477231D02*
X434112D01*
X420993D01*
Y3437874D01*
X447231Y3477231D02*
Y3437874D01*
Y3457553D01*
X453791Y3464112D01*
X466910D01*
X473470Y3457553D01*
Y3437874D01*
X506267D02*
X493148D01*
X486589Y3444434D01*
Y3457553D01*
X493148Y3464112D01*
X506267D01*
X512827Y3457553D01*
Y3450993D01*
X486589D01*
X525946Y3464112D02*
Y3437874D01*
Y3450993D01*
X532506Y3457553D01*
X539065Y3464112D01*
X545625D01*
X565304Y3437874D02*
Y3464112D01*
X571863D01*
X578423Y3457553D01*
Y3437874D01*
Y3457553D01*
X584982Y3464112D01*
X591542Y3457553D01*
Y3437874D01*
X604661D02*
X617780D01*
X611221D01*
Y3464112D01*
X604661D01*
X637459Y3437874D02*
X657138D01*
X663697Y3444434D01*
X657138Y3450993D01*
X644018D01*
X637459Y3457553D01*
X644018Y3464112D01*
X663697D01*
X683376Y3470672D02*
Y3464112D01*
X676816D01*
X689935D01*
X683376D01*
Y3444434D01*
X689935Y3437874D01*
X716174D02*
X729293D01*
X735852Y3444434D01*
Y3457553D01*
X729293Y3464112D01*
X716174D01*
X709614Y3457553D01*
Y3444434D01*
X716174Y3437874D01*
X748971Y3464112D02*
Y3437874D01*
Y3450993D01*
X755531Y3457553D01*
X762091Y3464112D01*
X768650D01*
X2453706Y2049514D02*
X2447146Y2042954D01*
Y2029835D01*
X2453706Y2023276D01*
X2479944D01*
X2486503Y2029835D01*
Y2042954D01*
X2479944Y2049514D01*
X2460265Y2062633D02*
X2486503D01*
X2473384D01*
X2466825Y2069193D01*
X2460265Y2075752D01*
Y2082312D01*
X2486503Y2108550D02*
Y2121669D01*
X2479944Y2128229D01*
X2466825D01*
X2460265Y2121669D01*
Y2108550D01*
X2466825Y2101990D01*
X2479944D01*
X2486503Y2108550D01*
Y2141348D02*
Y2161026D01*
X2479944Y2167586D01*
X2473384Y2161026D01*
Y2147907D01*
X2466825Y2141348D01*
X2460265Y2147907D01*
Y2167586D01*
X2486503Y2180705D02*
Y2200384D01*
X2479944Y2206943D01*
X2473384Y2200384D01*
Y2187265D01*
X2466825Y2180705D01*
X2460265Y2187265D01*
Y2206943D01*
X2513273Y2042954D02*
Y2029835D01*
X2519832Y2023276D01*
X2546070D01*
X2552630Y2029835D01*
Y2042954D01*
X2546070Y2049514D01*
X2519832D01*
X2513273Y2042954D01*
X2552630Y2069193D02*
X2519832D01*
X2532951D01*
Y2062633D01*
Y2075752D01*
Y2069193D01*
X2519832D01*
X2513273Y2075752D01*
X2552630Y2101990D02*
X2519832D01*
X2532951D01*
Y2095431D01*
Y2108550D01*
Y2101990D01*
X2519832D01*
X2513273Y2108550D01*
X2552630Y2128229D02*
Y2147907D01*
X2546070Y2154467D01*
X2539511Y2147907D01*
Y2134788D01*
X2532951Y2128229D01*
X2526392Y2134788D01*
Y2154467D01*
X2552630Y2187265D02*
Y2174146D01*
X2546070Y2167586D01*
X2532951D01*
X2526392Y2174146D01*
Y2187265D01*
X2532951Y2193824D01*
X2539511D01*
Y2167586D01*
X2519832Y2213503D02*
X2526392D01*
Y2206943D01*
Y2220062D01*
Y2213503D01*
X2546070D01*
X2552630Y2220062D01*
X2437706Y1534514D02*
X2431146Y1527954D01*
Y1514835D01*
X2437706Y1508276D01*
X2463944D01*
X2470503Y1514835D01*
Y1527954D01*
X2463944Y1534514D01*
X2444265Y1547633D02*
X2470503D01*
X2457384D01*
X2450825Y1554193D01*
X2444265Y1560752D01*
Y1567312D01*
X2470503Y1593550D02*
Y1606669D01*
X2463944Y1613229D01*
X2450825D01*
X2444265Y1606669D01*
Y1593550D01*
X2450825Y1586990D01*
X2463944D01*
X2470503Y1593550D01*
Y1626348D02*
Y1646026D01*
X2463944Y1652586D01*
X2457384Y1646026D01*
Y1632907D01*
X2450825Y1626348D01*
X2444265Y1632907D01*
Y1652586D01*
X2470503Y1665705D02*
Y1685384D01*
X2463944Y1691943D01*
X2457384Y1685384D01*
Y1672265D01*
X2450825Y1665705D01*
X2444265Y1672265D01*
Y1691943D01*
X2503832Y1534514D02*
X2497273Y1527954D01*
Y1514835D01*
X2503832Y1508276D01*
X2530070D01*
X2536630Y1514835D01*
Y1527954D01*
X2530070Y1534514D01*
X2516951D01*
Y1521395D01*
X2510392Y1554193D02*
Y1567312D01*
X2516951Y1573871D01*
X2536630D01*
Y1554193D01*
X2530070Y1547633D01*
X2523511Y1554193D01*
Y1573871D01*
X2536630Y1586990D02*
Y1600110D01*
Y1593550D01*
X2510392D01*
Y1586990D01*
X2536630Y1619788D02*
X2510392D01*
Y1639467D01*
X2516951Y1646026D01*
X2536630D01*
X1964001Y5952126D02*
X1990239D01*
X2003358Y5939007D01*
X1990239Y5925888D01*
X1964001D01*
X1983679D01*
Y5952126D01*
X1990239Y5912769D02*
X1964001D01*
X1977120D01*
X1983679Y5906209D01*
X1990239Y5899650D01*
Y5893090D01*
Y5873411D02*
X1964001D01*
X1977120D01*
X1983679Y5866852D01*
X1990239Y5860292D01*
Y5853733D01*
X1964001Y5814375D02*
Y5827494D01*
X1970560Y5834054D01*
X1983679D01*
X1990239Y5827494D01*
Y5814375D01*
X1983679Y5807816D01*
X1977120D01*
Y5834054D01*
X1964001Y5794696D02*
Y5775018D01*
X1970560Y5768458D01*
X1977120Y5775018D01*
Y5788137D01*
X1983679Y5794696D01*
X1990239Y5788137D01*
Y5768458D01*
X1996798Y5748779D02*
X1990239D01*
Y5755339D01*
Y5742220D01*
Y5748779D01*
X1970560D01*
X1964001Y5742220D01*
Y5722541D02*
X1990239D01*
Y5715982D01*
X1983679Y5709422D01*
X1964001D01*
X1983679D01*
X1990239Y5702863D01*
X1983679Y5696303D01*
X1964001D01*
Y5663505D02*
Y5676624D01*
X1970560Y5683184D01*
X1983679D01*
X1990239Y5676624D01*
Y5663505D01*
X1983679Y5656946D01*
X1977120D01*
Y5683184D01*
X1964001Y5643826D02*
X1990239D01*
Y5624148D01*
X1983679Y5617588D01*
X1964001D01*
X1996798Y5597909D02*
X1990239D01*
Y5604469D01*
Y5591350D01*
Y5597909D01*
X1970560D01*
X1964001Y5591350D01*
X1937231Y5952126D02*
X1897874D01*
X1917553D01*
Y5925888D01*
X1937231D01*
X1897874D01*
Y5893090D02*
Y5906209D01*
X1904434Y5912769D01*
X1917553D01*
X1924112Y5906209D01*
Y5893090D01*
X1917553Y5886530D01*
X1910993D01*
Y5912769D01*
X1924112Y5866852D02*
Y5853733D01*
X1917553Y5847173D01*
X1897874D01*
Y5866852D01*
X1904434Y5873411D01*
X1910993Y5866852D01*
Y5847173D01*
X1930672Y5827494D02*
X1924112D01*
Y5834054D01*
Y5820935D01*
Y5827494D01*
X1904434D01*
X1897874Y5820935D01*
Y5781577D02*
Y5794696D01*
X1904434Y5801256D01*
X1917553D01*
X1924112Y5794696D01*
Y5781577D01*
X1917553Y5775018D01*
X1910993D01*
Y5801256D01*
X1924112Y5761899D02*
X1897874D01*
X1910993D01*
X1917553Y5755339D01*
X1924112Y5748779D01*
Y5742220D01*
X2442586Y2524514D02*
X2436027Y2517954D01*
Y2504835D01*
X2442586Y2498276D01*
X2468825D01*
X2475384Y2504835D01*
Y2517954D01*
X2468825Y2524514D01*
X2449146Y2537633D02*
X2475384D01*
X2462265D01*
X2455706Y2544193D01*
X2449146Y2550752D01*
Y2557312D01*
X2475384Y2583550D02*
Y2596669D01*
X2468825Y2603229D01*
X2455706D01*
X2449146Y2596669D01*
Y2583550D01*
X2455706Y2576990D01*
X2468825D01*
X2475384Y2583550D01*
Y2616348D02*
Y2636026D01*
X2468825Y2642586D01*
X2462265Y2636026D01*
Y2622907D01*
X2455706Y2616348D01*
X2449146Y2622907D01*
Y2642586D01*
X2475384Y2655705D02*
Y2675384D01*
X2468825Y2681943D01*
X2462265Y2675384D01*
Y2662265D01*
X2455706Y2655705D01*
X2449146Y2662265D01*
Y2681943D01*
X2508713Y2524514D02*
X2502153Y2517954D01*
Y2504835D01*
X2508713Y2498276D01*
X2515273D01*
X2521832Y2504835D01*
Y2517954D01*
X2528392Y2524514D01*
X2534951D01*
X2541511Y2517954D01*
Y2504835D01*
X2534951Y2498276D01*
X2515273Y2537633D02*
X2534951D01*
X2541511Y2544193D01*
Y2563871D01*
X2548070D01*
X2554630Y2557312D01*
Y2550752D01*
X2541511Y2563871D02*
X2515273D01*
X2541511Y2576990D02*
X2515273D01*
Y2583550D01*
X2521832Y2590110D01*
X2541511D01*
X2521832D01*
X2515273Y2596669D01*
X2521832Y2603229D01*
X2541511D01*
Y2636026D02*
Y2622907D01*
X2534951Y2616348D01*
X2521832D01*
X2515273Y2622907D01*
Y2636026D01*
X2521832Y2642586D01*
X2528392D01*
Y2616348D01*
X2508713Y2662265D02*
X2515273D01*
Y2655705D01*
Y2668824D01*
Y2662265D01*
X2534951D01*
X2541511Y2668824D01*
X2515273Y2688503D02*
X2541511D01*
X2528392D01*
X2521832Y2695063D01*
X2515273Y2701622D01*
Y2708182D01*
Y2727860D02*
X2534951D01*
X2541511Y2734420D01*
Y2754099D01*
X2548070D01*
X2554630Y2747539D01*
Y2740979D01*
X2541511Y2754099D02*
X2515273D01*
X2013358Y4292126D02*
X1974001D01*
Y4272447D01*
X1980560Y4265888D01*
X1987120D01*
X1993679Y4272447D01*
Y4292126D01*
Y4272447D01*
X2000239Y4265888D01*
X2006798D01*
X2013358Y4272447D01*
Y4292126D01*
X1974001Y4246209D02*
Y4233090D01*
X1980560Y4226530D01*
X1993679D01*
X2000239Y4233090D01*
Y4246209D01*
X1993679Y4252769D01*
X1980560D01*
X1974001Y4246209D01*
X2000239Y4206852D02*
Y4193733D01*
X1993679Y4187173D01*
X1974001D01*
Y4206852D01*
X1980560Y4213411D01*
X1987120Y4206852D01*
Y4187173D01*
X2000239Y4174054D02*
X1974001D01*
X1987120D01*
X1993679Y4167494D01*
X2000239Y4160935D01*
Y4154375D01*
X2013358Y4108458D02*
X1974001D01*
Y4128137D01*
X1980560Y4134696D01*
X1993679D01*
X2000239Y4128137D01*
Y4108458D01*
X1974001Y4055982D02*
Y4042863D01*
Y4049422D01*
X2013358D01*
X2006798Y4055982D01*
X1947231Y4292126D02*
X1907874D01*
X1927553D01*
Y4265888D01*
X1947231D01*
X1907874D01*
Y4233090D02*
Y4246209D01*
X1914434Y4252769D01*
X1927553D01*
X1934112Y4246209D01*
Y4233090D01*
X1927553Y4226530D01*
X1920993D01*
Y4252769D01*
X1934112Y4206852D02*
Y4193733D01*
X1927553Y4187173D01*
X1907874D01*
Y4206852D01*
X1914434Y4213411D01*
X1920993Y4206852D01*
Y4187173D01*
X1940672Y4167494D02*
X1934112D01*
Y4174054D01*
Y4160935D01*
Y4167494D01*
X1914434D01*
X1907874Y4160935D01*
Y4121577D02*
Y4134696D01*
X1914434Y4141256D01*
X1927553D01*
X1934112Y4134696D01*
Y4121577D01*
X1927553Y4115018D01*
X1920993D01*
Y4141256D01*
X1934112Y4101899D02*
X1907874D01*
X1920993D01*
X1927553Y4095339D01*
X1934112Y4088780D01*
Y4082220D01*
X2185724Y7021735D02*
X2211963D01*
X2198843D01*
Y6982378D01*
X2244760Y7021735D02*
X2231641D01*
X2225082Y7015176D01*
Y6988938D01*
X2231641Y6982378D01*
X2244760D01*
X2251320Y6988938D01*
Y7015176D01*
X2244760Y7021735D01*
X2264439Y6982378D02*
Y7021735D01*
X2284118D01*
X2290677Y7015176D01*
Y7002057D01*
X2284118Y6995497D01*
X2264439D01*
X434112Y4939917D02*
X427553Y4946477D01*
X414434D01*
X407874Y4939917D01*
Y4913679D01*
X414434Y4907120D01*
X427553D01*
X434112Y4913679D01*
X453791Y4907120D02*
X466910D01*
X473470Y4913679D01*
Y4926798D01*
X466910Y4933358D01*
X453791D01*
X447231Y4926798D01*
Y4913679D01*
X453791Y4907120D01*
X486589D02*
Y4933358D01*
X506267D01*
X512827Y4926798D01*
Y4907120D01*
X525946D02*
Y4933358D01*
X545625D01*
X552184Y4926798D01*
Y4907120D01*
X565304D02*
X578423D01*
X571863D01*
Y4933358D01*
X565304D01*
X598101Y4907120D02*
Y4933358D01*
X617780D01*
X624340Y4926798D01*
Y4907120D01*
X650578Y4894001D02*
X657138D01*
X663697Y4900560D01*
Y4933358D01*
X644018D01*
X637459Y4926798D01*
Y4913679D01*
X644018Y4907120D01*
X663697D01*
X716174Y4946477D02*
X742412D01*
X729293D01*
Y4907120D01*
X762091D02*
X775210D01*
X781769Y4913679D01*
Y4926798D01*
X775210Y4933358D01*
X762091D01*
X755531Y4926798D01*
Y4913679D01*
X762091Y4907120D01*
X794888Y4933358D02*
Y4913679D01*
X801448Y4907120D01*
X808008Y4913679D01*
X814567Y4907120D01*
X821127Y4913679D01*
Y4933358D01*
X853924Y4907120D02*
X840805D01*
X834246Y4913679D01*
Y4926798D01*
X840805Y4933358D01*
X853924D01*
X860484Y4926798D01*
Y4920239D01*
X834246D01*
X873603Y4933358D02*
Y4907120D01*
Y4920239D01*
X880163Y4926798D01*
X886722Y4933358D01*
X893282D01*
X407874Y4867231D02*
X434112D01*
X420993D01*
Y4827874D01*
X447231Y4867231D02*
Y4827874D01*
Y4847553D01*
X453791Y4854112D01*
X466910D01*
X473470Y4847553D01*
Y4827874D01*
X506267D02*
X493148D01*
X486589Y4834434D01*
Y4847553D01*
X493148Y4854112D01*
X506267D01*
X512827Y4847553D01*
Y4840993D01*
X486589D01*
X525946Y4854112D02*
Y4827874D01*
Y4840993D01*
X532506Y4847553D01*
X539065Y4854112D01*
X545625D01*
X565304Y4827874D02*
Y4854112D01*
X571863D01*
X578423Y4847553D01*
Y4827874D01*
Y4847553D01*
X584982Y4854112D01*
X591542Y4847553D01*
Y4827874D01*
X604661D02*
X617780D01*
X611221D01*
Y4854112D01*
X604661D01*
X637459Y4827874D02*
X657138D01*
X663697Y4834434D01*
X657138Y4840993D01*
X644018D01*
X637459Y4847553D01*
X644018Y4854112D01*
X663697D01*
X683376Y4860672D02*
Y4854112D01*
X676816D01*
X689935D01*
X683376D01*
Y4834434D01*
X689935Y4827874D01*
X716174D02*
X729293D01*
X735852Y4834434D01*
Y4847553D01*
X729293Y4854112D01*
X716174D01*
X709614Y4847553D01*
Y4834434D01*
X716174Y4827874D01*
X748971Y4854112D02*
Y4827874D01*
Y4840993D01*
X755531Y4847553D01*
X762091Y4854112D01*
X768650D01*
X434112Y5346798D02*
X427553Y5353358D01*
X414434D01*
X407874Y5346798D01*
Y5320560D01*
X414434Y5314001D01*
X427553D01*
X434112Y5320560D01*
Y5333679D01*
X420993D01*
X466910Y5314001D02*
X453791D01*
X447231Y5320560D01*
Y5333679D01*
X453791Y5340239D01*
X466910D01*
X473470Y5333679D01*
Y5327120D01*
X447231D01*
X493148Y5340239D02*
X506267D01*
X512827Y5333679D01*
Y5314001D01*
X493148D01*
X486589Y5320560D01*
X493148Y5327120D01*
X512827D01*
X525946Y5340239D02*
Y5314001D01*
Y5327120D01*
X532506Y5333679D01*
X539065Y5340239D01*
X545625D01*
X565304Y5353358D02*
Y5314001D01*
X584982D01*
X591542Y5320560D01*
Y5327120D01*
Y5333679D01*
X584982Y5340239D01*
X565304D01*
X611221Y5314001D02*
X624340D01*
X630899Y5320560D01*
Y5333679D01*
X624340Y5340239D01*
X611221D01*
X604661Y5333679D01*
Y5320560D01*
X611221Y5314001D01*
X644018Y5340239D02*
X670257Y5314001D01*
X657138Y5327120D01*
X670257Y5340239D01*
X644018Y5314001D01*
X407874Y5287231D02*
X434112D01*
X420993D01*
Y5247874D01*
X447231Y5287231D02*
Y5247874D01*
Y5267553D01*
X453791Y5274112D01*
X466910D01*
X473470Y5267553D01*
Y5247874D01*
X506267D02*
X493148D01*
X486589Y5254434D01*
Y5267553D01*
X493148Y5274112D01*
X506267D01*
X512827Y5267553D01*
Y5260993D01*
X486589D01*
X525946Y5274112D02*
Y5247874D01*
Y5260993D01*
X532506Y5267553D01*
X539065Y5274112D01*
X545625D01*
X565304Y5247874D02*
Y5274112D01*
X571863D01*
X578423Y5267553D01*
Y5247874D01*
Y5267553D01*
X584982Y5274112D01*
X591542Y5267553D01*
Y5247874D01*
X604661D02*
X617780D01*
X611221D01*
Y5274112D01*
X604661D01*
X637459Y5247874D02*
X657138D01*
X663697Y5254434D01*
X657138Y5260993D01*
X644018D01*
X637459Y5267553D01*
X644018Y5274112D01*
X663697D01*
X683376Y5280672D02*
Y5274112D01*
X676816D01*
X689935D01*
X683376D01*
Y5254434D01*
X689935Y5247874D01*
X716174D02*
X729293D01*
X735852Y5254434D01*
Y5267553D01*
X729293Y5274112D01*
X716174D01*
X709614Y5267553D01*
Y5254434D01*
X716174Y5247874D01*
X748971Y5274112D02*
Y5247874D01*
Y5260993D01*
X755531Y5267553D01*
X762091Y5274112D01*
X768650D01*
X561378Y6712633D02*
Y6673276D01*
X587616D01*
X1155000Y89357D02*
X1181238D01*
X1168119D01*
Y50000D01*
X1194357D02*
Y89357D01*
X1214036D01*
X1220596Y82798D01*
Y69679D01*
X1214036Y63119D01*
X1194357D01*
X1253393Y50000D02*
Y89357D01*
X1233715Y69679D01*
X1259953D01*
X1100000Y1454357D02*
X1126238D01*
X1113119D01*
Y1415000D01*
X1139357D02*
Y1454357D01*
X1159036D01*
X1165596Y1447798D01*
Y1434679D01*
X1159036Y1428119D01*
X1139357D01*
X1178715Y1447798D02*
X1185274Y1454357D01*
X1198393D01*
X1204953Y1447798D01*
Y1441238D01*
X1198393Y1434679D01*
X1204953Y1428119D01*
Y1421560D01*
X1198393Y1415000D01*
X1185274D01*
X1178715Y1421560D01*
Y1428119D01*
X1185274Y1434679D01*
X1178715Y1441238D01*
Y1447798D01*
X1185274Y1434679D02*
X1198393D01*
X180000Y879357D02*
X206238D01*
X193119D01*
Y840000D01*
X219357D02*
Y879357D01*
X239036D01*
X245596Y872798D01*
Y859679D01*
X239036Y853119D01*
X219357D01*
X258715Y872798D02*
X265274Y879357D01*
X278394D01*
X284953Y872798D01*
Y866238D01*
X278394Y859679D01*
X271834D01*
X278394D01*
X284953Y853119D01*
Y846560D01*
X278394Y840000D01*
X265274D01*
X258715Y846560D01*
X170000Y1189357D02*
X196238D01*
X183119D01*
Y1150000D01*
X209357D02*
Y1189357D01*
X229036D01*
X235596Y1182798D01*
Y1169679D01*
X229036Y1163119D01*
X209357D01*
X274953Y1150000D02*
X248715D01*
X274953Y1176238D01*
Y1182798D01*
X268394Y1189357D01*
X255274D01*
X248715Y1182798D01*
X160000Y2519357D02*
X186238D01*
X173119D01*
Y2480000D01*
X199357D02*
Y2519357D01*
X219036D01*
X225596Y2512798D01*
Y2499679D01*
X219036Y2493119D01*
X199357D01*
X264953Y2519357D02*
X251834Y2512798D01*
X238715Y2499679D01*
Y2486560D01*
X245274Y2480000D01*
X258394D01*
X264953Y2486560D01*
Y2493119D01*
X258394Y2499679D01*
X238715D01*
X170000Y2239357D02*
X196238D01*
X183119D01*
Y2200000D01*
X209357D02*
Y2239357D01*
X229036D01*
X235596Y2232798D01*
Y2219679D01*
X229036Y2213119D01*
X209357D01*
X248715Y2239357D02*
X274953D01*
Y2232798D01*
X248715Y2206560D01*
Y2200000D01*
X1590000Y1449357D02*
X1616238D01*
X1603119D01*
Y1410000D01*
X1629357D02*
Y1449357D01*
X1649036D01*
X1655596Y1442798D01*
Y1429679D01*
X1649036Y1423119D01*
X1629357D01*
X1668715Y1410000D02*
X1681834D01*
X1675274D01*
Y1449357D01*
X1668715Y1442798D01*
X1540000Y2889357D02*
X1566238D01*
X1553119D01*
Y2850000D01*
X1579357D02*
Y2889357D01*
X1599036D01*
X1605596Y2882798D01*
Y2869679D01*
X1599036Y2863119D01*
X1579357D01*
X1644953Y2889357D02*
X1618715D01*
Y2869679D01*
X1631834Y2876238D01*
X1638393D01*
X1644953Y2869679D01*
Y2856560D01*
X1638393Y2850000D01*
X1625274D01*
X1618715Y2856560D01*
X1565134Y3624787D02*
Y3664145D01*
X1584812D01*
X1591372Y3657585D01*
Y3644466D01*
X1584812Y3637907D01*
X1565134D01*
X1578253D02*
X1591372Y3624787D01*
X1604491D02*
X1617610D01*
X1611051D01*
Y3664145D01*
X1604491Y3657585D01*
X1637289Y3664145D02*
X1663527D01*
Y3657585D01*
X1637289Y3631347D01*
Y3624787D01*
X1557260Y4024787D02*
Y4064145D01*
X1576938D01*
X1583498Y4057585D01*
Y4044466D01*
X1576938Y4037907D01*
X1557260D01*
X1570379D02*
X1583498Y4024787D01*
X1596617D02*
X1609736D01*
X1603177D01*
Y4064145D01*
X1596617Y4057585D01*
X1655653Y4064145D02*
X1642534Y4057585D01*
X1629415Y4044466D01*
Y4031347D01*
X1635975Y4024787D01*
X1649094D01*
X1655653Y4031347D01*
Y4037907D01*
X1649094Y4044466D01*
X1629415D01*
X2090489Y3767097D02*
X2129847D01*
Y3747418D01*
X2123287Y3740858D01*
X2110168D01*
X2103608Y3747418D01*
Y3767097D01*
Y3753977D02*
X2090489Y3740858D01*
Y3727739D02*
Y3714620D01*
Y3721180D01*
X2129847D01*
X2123287Y3727739D01*
Y3694941D02*
X2129847Y3688382D01*
Y3675263D01*
X2123287Y3668703D01*
X2116727D01*
X2110168Y3675263D01*
Y3681822D01*
Y3675263D01*
X2103608Y3668703D01*
X2097049D01*
X2090489Y3675263D01*
Y3688382D01*
X2097049Y3694941D01*
X2090489Y4141112D02*
X2129847D01*
Y4121434D01*
X2123287Y4114874D01*
X2110168D01*
X2103608Y4121434D01*
Y4141112D01*
Y4127993D02*
X2090489Y4114874D01*
Y4101755D02*
Y4088636D01*
Y4095195D01*
X2129847D01*
X2123287Y4101755D01*
X2090489Y4042719D02*
Y4068957D01*
X2116727Y4042719D01*
X2123287D01*
X2129847Y4049278D01*
Y4062398D01*
X2123287Y4068957D01*
X2527497Y3656860D02*
Y3696218D01*
X2547176D01*
X2553735Y3689658D01*
Y3676539D01*
X2547176Y3669979D01*
X2527497D01*
X2566854Y3656860D02*
X2579973D01*
X2573414D01*
Y3696218D01*
X2566854Y3689658D01*
X2599652Y3656860D02*
X2612771D01*
X2606212D01*
Y3696218D01*
X2599652Y3689658D01*
X80000Y6060000D02*
X40643D01*
Y6079679D01*
X47202Y6086238D01*
X60321D01*
X66881Y6079679D01*
Y6060000D01*
X80000Y6099357D02*
Y6112476D01*
Y6105917D01*
X40643D01*
X47202Y6099357D01*
X40643Y6158393D02*
Y6132155D01*
X60321D01*
X53762Y6145274D01*
Y6151834D01*
X60321Y6158393D01*
X73440D01*
X80000Y6151834D01*
Y6138715D01*
X73440Y6132155D01*
X80000Y6610000D02*
X40643D01*
Y6629679D01*
X47202Y6636238D01*
X60321D01*
X66881Y6629679D01*
Y6610000D01*
X80000Y6649357D02*
Y6662476D01*
Y6655917D01*
X40643D01*
X47202Y6649357D01*
X2130617Y4279055D02*
X2091260D01*
Y4259376D01*
X2097820Y4252817D01*
X2124058D01*
X2130617Y4259376D01*
Y4279055D01*
X2124058Y4213459D02*
X2130617Y4220019D01*
Y4233138D01*
X2124058Y4239698D01*
X2117498D01*
X2110939Y4233138D01*
Y4220019D01*
X2104379Y4213459D01*
X2097820D01*
X2091260Y4220019D01*
Y4233138D01*
X2097820Y4239698D01*
X2130617Y4174102D02*
Y4200340D01*
X2110939D01*
X2117498Y4187221D01*
Y4180662D01*
X2110939Y4174102D01*
X2097820D01*
X2091260Y4180662D01*
Y4193781D01*
X2097820Y4200340D01*
X2130617Y5929055D02*
X2091260D01*
Y5909376D01*
X2097820Y5902817D01*
X2124058D01*
X2130617Y5909376D01*
Y5929055D01*
X2124058Y5863459D02*
X2130617Y5870019D01*
Y5883138D01*
X2124058Y5889698D01*
X2117498D01*
X2110939Y5883138D01*
Y5870019D01*
X2104379Y5863459D01*
X2097820D01*
X2091260Y5870019D01*
Y5883138D01*
X2097820Y5889698D01*
X2091260Y5830662D02*
X2130617D01*
X2110939Y5850340D01*
Y5824102D01*
X1314504Y6496063D02*
Y6535420D01*
X1334183D01*
X1340742Y6528861D01*
Y6515742D01*
X1334183Y6509182D01*
X1314504D01*
X1353861Y6496063D02*
X1366980D01*
X1360421D01*
Y6535420D01*
X1353861Y6528861D01*
X1406338Y6496063D02*
Y6535420D01*
X1386659Y6515742D01*
X1412897D01*
X2543245Y4893081D02*
Y4932438D01*
X2562924D01*
X2569483Y4925879D01*
Y4912760D01*
X2562924Y4906200D01*
X2543245D01*
X2608841Y4932438D02*
X2582602D01*
Y4912760D01*
X2595722Y4919319D01*
X2602281D01*
X2608841Y4912760D01*
Y4899640D01*
X2602281Y4893081D01*
X2589162D01*
X2582602Y4899640D01*
X2523560Y4050561D02*
Y4089919D01*
X2543239D01*
X2549798Y4083359D01*
Y4070240D01*
X2543239Y4063680D01*
X2523560D01*
X2562917Y4057121D02*
X2569477Y4050561D01*
X2582596D01*
X2589155Y4057121D01*
Y4083359D01*
X2582596Y4089919D01*
X2569477D01*
X2562917Y4083359D01*
Y4076799D01*
X2569477Y4070240D01*
X2589155D01*
X1294347Y5026690D02*
Y4993892D01*
X1300907Y4987333D01*
X1314026D01*
X1320585Y4993892D01*
Y5026690D01*
X1333705Y4987333D02*
X1346824D01*
X1340264D01*
Y5026690D01*
X1333705Y5020131D01*
X1396238Y4912798D02*
X1389679Y4919357D01*
X1376560D01*
X1370000Y4912798D01*
Y4886560D01*
X1376560Y4880000D01*
X1389679D01*
X1396238Y4886560D01*
X1435596Y4880000D02*
X1409357D01*
X1435596Y4906238D01*
Y4912798D01*
X1429036Y4919357D01*
X1415917D01*
X1409357Y4912798D01*
X966238Y4952798D02*
X959679Y4959357D01*
X946560D01*
X940000Y4952798D01*
Y4926560D01*
X946560Y4920000D01*
X959679D01*
X966238Y4926560D01*
X979357Y4920000D02*
X992476D01*
X985917D01*
Y4959357D01*
X979357Y4952798D01*
X1128504Y5235759D02*
Y5202961D01*
X1135063Y5196402D01*
X1148183D01*
X1154742Y5202961D01*
Y5235759D01*
X1167861Y5229199D02*
X1174421Y5235759D01*
X1187540D01*
X1194100Y5229199D01*
Y5222640D01*
X1187540Y5216080D01*
X1180980D01*
X1187540D01*
X1194100Y5209521D01*
Y5202961D01*
X1187540Y5196402D01*
X1174421D01*
X1167861Y5202961D01*
X1299213Y5826759D02*
Y5793961D01*
X1305772Y5787402D01*
X1318891D01*
X1325451Y5793961D01*
Y5826759D01*
X1364808Y5787402D02*
X1338570D01*
X1364808Y5813640D01*
Y5820199D01*
X1358249Y5826759D01*
X1345130D01*
X1338570Y5820199D01*
X1641670Y5849774D02*
X1681028D01*
Y5830095D01*
X1674468Y5823535D01*
X1661349D01*
X1654789Y5830095D01*
Y5849774D01*
Y5836655D02*
X1641670Y5823535D01*
X1648230Y5810416D02*
X1641670Y5803857D01*
Y5790738D01*
X1648230Y5784178D01*
X1674468D01*
X1681028Y5790738D01*
Y5803857D01*
X1674468Y5810416D01*
X1667908D01*
X1661349Y5803857D01*
Y5784178D01*
X1641670Y5460010D02*
X1681028D01*
Y5440331D01*
X1674468Y5433772D01*
X1661349D01*
X1654789Y5440331D01*
Y5460010D01*
Y5446891D02*
X1641670Y5433772D01*
Y5420653D02*
Y5407533D01*
Y5414093D01*
X1681028D01*
X1674468Y5420653D01*
Y5387855D02*
X1681028Y5381295D01*
Y5368176D01*
X1674468Y5361617D01*
X1648230D01*
X1641670Y5368176D01*
Y5381295D01*
X1648230Y5387855D01*
X1674468D01*
X2090000Y5770000D02*
X2129357D01*
Y5750321D01*
X2122798Y5743762D01*
X2109679D01*
X2103119Y5750321D01*
Y5770000D01*
Y5756881D02*
X2090000Y5743762D01*
X2122798Y5730643D02*
X2129357Y5724083D01*
Y5710964D01*
X2122798Y5704404D01*
X2116238D01*
X2109679Y5710964D01*
X2103119Y5704404D01*
X2096560D01*
X2090000Y5710964D01*
Y5724083D01*
X2096560Y5730643D01*
X2103119D01*
X2109679Y5724083D01*
X2116238Y5730643D01*
X2122798D01*
X2109679Y5724083D02*
Y5710964D01*
X2090489Y5381270D02*
X2129847D01*
Y5361591D01*
X2123287Y5355032D01*
X2110168D01*
X2103608Y5361591D01*
Y5381270D01*
Y5368151D02*
X2090489Y5355032D01*
X2129847Y5341912D02*
Y5315674D01*
X2123287D01*
X2097049Y5341912D01*
X2090489D01*
X1645607Y4637175D02*
X1684965D01*
Y4617497D01*
X1678405Y4610937D01*
X1665286D01*
X1658726Y4617497D01*
Y4637175D01*
Y4624056D02*
X1645607Y4610937D01*
X1684965Y4571580D02*
Y4597818D01*
X1665286D01*
X1671845Y4584699D01*
Y4578139D01*
X1665286Y4571580D01*
X1652167D01*
X1645607Y4578139D01*
Y4591258D01*
X1652167Y4597818D01*
X1645607Y5046624D02*
X1684965D01*
Y5026945D01*
X1678405Y5020386D01*
X1665286D01*
X1658726Y5026945D01*
Y5046624D01*
Y5033505D02*
X1645607Y5020386D01*
Y4987588D02*
X1684965D01*
X1665286Y5007267D01*
Y4981029D01*
X2100000Y4560000D02*
X2139357D01*
Y4540321D01*
X2132798Y4533762D01*
X2119679D01*
X2113119Y4540321D01*
Y4560000D01*
Y4546881D02*
X2100000Y4533762D01*
Y4494404D02*
Y4520643D01*
X2126238Y4494404D01*
X2132798D01*
X2139357Y4500964D01*
Y4514083D01*
X2132798Y4520643D01*
X2090489Y4967884D02*
X2129847D01*
Y4948205D01*
X2123287Y4941646D01*
X2110168D01*
X2103608Y4948205D01*
Y4967884D01*
Y4954765D02*
X2090489Y4941646D01*
Y4928526D02*
Y4915407D01*
Y4921967D01*
X2129847D01*
X2123287Y4928526D01*
X90000Y4260000D02*
X50643D01*
Y4279679D01*
X57202Y4286238D01*
X70321D01*
X76881Y4279679D01*
Y4260000D01*
X90000Y4299357D02*
Y4312476D01*
Y4305917D01*
X50643D01*
X57202Y4299357D01*
Y4332155D02*
X50643Y4338715D01*
Y4351834D01*
X57202Y4358393D01*
X83440D01*
X90000Y4351834D01*
Y4338715D01*
X83440Y4332155D01*
X57202D01*
X2129847Y3904892D02*
X2090489D01*
Y3885213D01*
X2097049Y3878654D01*
X2123287D01*
X2129847Y3885213D01*
Y3904892D01*
X2123287Y3839296D02*
X2129847Y3845856D01*
Y3858975D01*
X2123287Y3865534D01*
X2116727D01*
X2110168Y3858975D01*
Y3845856D01*
X2103608Y3839296D01*
X2097049D01*
X2090489Y3845856D01*
Y3858975D01*
X2097049Y3865534D01*
X2129847Y3799939D02*
X2123287Y3813058D01*
X2110168Y3826177D01*
X2097049D01*
X2090489Y3819617D01*
Y3806498D01*
X2097049Y3799939D01*
X2103608D01*
X2110168Y3806498D01*
Y3826177D01*
X2130617Y5519055D02*
X2091260D01*
Y5499376D01*
X2097820Y5492817D01*
X2124058D01*
X2130617Y5499376D01*
Y5519055D01*
X2124058Y5453459D02*
X2130617Y5460019D01*
Y5473138D01*
X2124058Y5479698D01*
X2117498D01*
X2110939Y5473138D01*
Y5460019D01*
X2104379Y5453459D01*
X2097820D01*
X2091260Y5460019D01*
Y5473138D01*
X2097820Y5479698D01*
X2124058Y5440340D02*
X2130617Y5433781D01*
Y5420662D01*
X2124058Y5414102D01*
X2117498D01*
X2110939Y5420662D01*
Y5427221D01*
Y5420662D01*
X2104379Y5414102D01*
X2097820D01*
X2091260Y5420662D01*
Y5433781D01*
X2097820Y5440340D01*
X2140617Y4719055D02*
X2101260D01*
Y4699376D01*
X2107820Y4692817D01*
X2134058D01*
X2140617Y4699376D01*
Y4719055D01*
X2134058Y4653459D02*
X2140617Y4660019D01*
Y4673138D01*
X2134058Y4679698D01*
X2127498D01*
X2120939Y4673138D01*
Y4660019D01*
X2114379Y4653459D01*
X2107820D01*
X2101260Y4660019D01*
Y4673138D01*
X2107820Y4679698D01*
X2101260Y4614102D02*
Y4640340D01*
X2127498Y4614102D01*
X2134058D01*
X2140617Y4620662D01*
Y4633781D01*
X2134058Y4640340D01*
X2129357Y5080000D02*
X2090000D01*
Y5060321D01*
X2096560Y5053762D01*
X2122798D01*
X2129357Y5060321D01*
Y5080000D01*
X2122798Y5014404D02*
X2129357Y5020964D01*
Y5034083D01*
X2122798Y5040643D01*
X2116238D01*
X2109679Y5034083D01*
Y5020964D01*
X2103119Y5014404D01*
X2096560D01*
X2090000Y5020964D01*
Y5034083D01*
X2096560Y5040643D01*
X2090000Y5001285D02*
Y4988166D01*
Y4994726D01*
X2129357D01*
X2122798Y5001285D01*
X2523560Y5271033D02*
Y5310391D01*
X2543239D01*
X2549798Y5303831D01*
Y5290712D01*
X2543239Y5284153D01*
X2523560D01*
X2562917Y5303831D02*
X2569477Y5310391D01*
X2582596D01*
X2589155Y5303831D01*
Y5297272D01*
X2582596Y5290712D01*
X2576036D01*
X2582596D01*
X2589155Y5284153D01*
Y5277593D01*
X2582596Y5271033D01*
X2569477D01*
X2562917Y5277593D01*
X90000Y4860000D02*
X50643D01*
Y4879679D01*
X57202Y4886238D01*
X70321D01*
X76881Y4879679D01*
Y4860000D01*
X90000Y4925596D02*
Y4899357D01*
X63762Y4925596D01*
X57202D01*
X50643Y4919036D01*
Y4905917D01*
X57202Y4899357D01*
X320000Y5180000D02*
Y5219357D01*
X339679D01*
X346238Y5212798D01*
Y5199679D01*
X339679Y5193119D01*
X320000D01*
X379036Y5180000D02*
Y5219357D01*
X359357Y5199679D01*
X385596D01*
X90000Y3850000D02*
X50643D01*
Y3869679D01*
X57202Y3876238D01*
X70321D01*
X76881Y3869679D01*
Y3850000D01*
X90000Y3889357D02*
Y3902477D01*
Y3895917D01*
X50643D01*
X57202Y3889357D01*
X90000Y3948393D02*
Y3922155D01*
X63762Y3948393D01*
X57202D01*
X50643Y3941834D01*
Y3928715D01*
X57202Y3922155D01*
X80000Y5660000D02*
X40643D01*
Y5679679D01*
X47202Y5686238D01*
X60321D01*
X66881Y5679679D01*
Y5660000D01*
X40643Y5699357D02*
Y5725596D01*
X47202D01*
X73440Y5699357D01*
X80000D01*
X90000Y3460000D02*
X50643D01*
Y3479679D01*
X57202Y3486238D01*
X70321D01*
X76881Y3479679D01*
Y3460000D01*
X90000Y3499357D02*
Y3512477D01*
Y3505917D01*
X50643D01*
X57202Y3499357D01*
Y3532155D02*
X50643Y3538715D01*
Y3551834D01*
X57202Y3558393D01*
X63762D01*
X70321Y3551834D01*
Y3545274D01*
Y3551834D01*
X76881Y3558393D01*
X83440D01*
X90000Y3551834D01*
Y3538715D01*
X83440Y3532155D01*
X2530000Y5680000D02*
Y5719357D01*
X2549679D01*
X2556238Y5712798D01*
Y5699679D01*
X2549679Y5693119D01*
X2530000D01*
X2595596Y5719357D02*
X2582477Y5712798D01*
X2569357Y5699679D01*
Y5686560D01*
X2575917Y5680000D01*
X2589036D01*
X2595596Y5686560D01*
Y5693119D01*
X2589036Y5699679D01*
X2569357D01*
X2533403Y4465915D02*
Y4505273D01*
X2553081D01*
X2559641Y4498713D01*
Y4485594D01*
X2553081Y4479034D01*
X2533403D01*
X2572760Y4498713D02*
X2579320Y4505273D01*
X2592439D01*
X2598998Y4498713D01*
Y4492154D01*
X2592439Y4485594D01*
X2598998Y4479034D01*
Y4472475D01*
X2592439Y4465915D01*
X2579320D01*
X2572760Y4472475D01*
Y4479034D01*
X2579320Y4485594D01*
X2572760Y4492154D01*
Y4498713D01*
X2579320Y4485594D02*
X2592439D01*
X1106238Y4757798D02*
X1099679Y4764357D01*
X1086560D01*
X1080000Y4757798D01*
Y4731560D01*
X1086560Y4725000D01*
X1099679D01*
X1106238Y4731560D01*
X1119357Y4757798D02*
X1125917Y4764357D01*
X1139036D01*
X1145596Y4757798D01*
Y4751238D01*
X1139036Y4744679D01*
X1132476D01*
X1139036D01*
X1145596Y4738119D01*
Y4731560D01*
X1139036Y4725000D01*
X1125917D01*
X1119357Y4731560D01*
X2094072Y2831412D02*
Y2870769D01*
X2113751D01*
X2120310Y2864209D01*
Y2851090D01*
X2113751Y2844531D01*
X2094072D01*
X2107191D02*
X2120310Y2831412D01*
X2153108D02*
Y2870769D01*
X2133429Y2851090D01*
X2159668D01*
X2172787Y2864209D02*
X2179346Y2870769D01*
X2192465D01*
X2199025Y2864209D01*
Y2857650D01*
X2192465Y2851090D01*
X2185906D01*
X2192465D01*
X2199025Y2844531D01*
Y2837971D01*
X2192465Y2831412D01*
X2179346D01*
X2172787Y2837971D01*
X2121072Y1409412D02*
Y1448769D01*
X2140751D01*
X2147310Y1442209D01*
Y1429090D01*
X2140751Y1422531D01*
X2121072D01*
X2134191D02*
X2147310Y1409412D01*
X2160429Y1442209D02*
X2166989Y1448769D01*
X2180108D01*
X2186668Y1442209D01*
Y1435650D01*
X2180108Y1429090D01*
X2173548D01*
X2180108D01*
X2186668Y1422531D01*
Y1415971D01*
X2180108Y1409412D01*
X2166989D01*
X2160429Y1415971D01*
X2199787Y1409412D02*
X2212906D01*
X2206346D01*
Y1448769D01*
X2199787Y1442209D01*
X447072Y2784769D02*
Y2751971D01*
X453632Y2745412D01*
X466751D01*
X473310Y2751971D01*
Y2784769D01*
X486429D02*
X512668D01*
Y2778209D01*
X486429Y2751971D01*
Y2745412D01*
X442072Y1431769D02*
Y1398971D01*
X448632Y1392412D01*
X461751D01*
X468310Y1398971D01*
Y1431769D01*
X507668D02*
X481429D01*
Y1412090D01*
X494548Y1418650D01*
X501108D01*
X507668Y1412090D01*
Y1398971D01*
X501108Y1392412D01*
X487989D01*
X481429Y1398971D01*
X2140072Y911412D02*
Y950769D01*
X2159751D01*
X2166310Y944209D01*
Y931090D01*
X2159751Y924531D01*
X2140072D01*
X2153191D02*
X2166310Y911412D01*
X2179429Y944209D02*
X2185989Y950769D01*
X2199108D01*
X2205668Y944209D01*
Y937650D01*
X2199108Y931090D01*
X2192548D01*
X2199108D01*
X2205668Y924531D01*
Y917971D01*
X2199108Y911412D01*
X2185989D01*
X2179429Y917971D01*
X2238465Y911412D02*
Y950769D01*
X2218787Y931090D01*
X2245025D01*
X2113072Y2355412D02*
Y2394769D01*
X2132751D01*
X2139310Y2388209D01*
Y2375090D01*
X2132751Y2368531D01*
X2113072D01*
X2126191D02*
X2139310Y2355412D01*
X2172108D02*
Y2394769D01*
X2152429Y2375090D01*
X2178668D01*
X2191787Y2388209D02*
X2198346Y2394769D01*
X2211465D01*
X2218025Y2388209D01*
Y2381650D01*
X2211465Y2375090D01*
X2218025Y2368531D01*
Y2361971D01*
X2211465Y2355412D01*
X2198346D01*
X2191787Y2361971D01*
Y2368531D01*
X2198346Y2375090D01*
X2191787Y2381650D01*
Y2388209D01*
X2198346Y2375090D02*
X2211465D01*
X112072Y492412D02*
Y531769D01*
X131751D01*
X138310Y525209D01*
Y512090D01*
X131751Y505531D01*
X112072D01*
X125191D02*
X138310Y492412D01*
X177667D02*
X151429D01*
X177667Y518650D01*
Y525209D01*
X171108Y531769D01*
X157989D01*
X151429Y525209D01*
X190787Y492412D02*
X203906D01*
X197346D01*
Y531769D01*
X190787Y525209D01*
X128072Y1857412D02*
Y1896769D01*
X147751D01*
X154310Y1890209D01*
Y1877090D01*
X147751Y1870531D01*
X128072D01*
X141191D02*
X154310Y1857412D01*
X167429Y1890209D02*
X173989Y1896769D01*
X187108D01*
X193667Y1890209D01*
Y1883650D01*
X187108Y1877090D01*
X180548D01*
X187108D01*
X193667Y1870531D01*
Y1863971D01*
X187108Y1857412D01*
X173989D01*
X167429Y1863971D01*
X233025Y1896769D02*
X206787D01*
Y1877090D01*
X219906Y1883650D01*
X226465D01*
X233025Y1877090D01*
Y1863971D01*
X226465Y1857412D01*
X213346D01*
X206787Y1863971D01*
X2147504Y396402D02*
Y435759D01*
X2167183D01*
X2173742Y429199D01*
Y416080D01*
X2167183Y409521D01*
X2147504D01*
X2160623D02*
X2173742Y396402D01*
X2213099D02*
X2186861D01*
X2213099Y422640D01*
Y429199D01*
X2206540Y435759D01*
X2193421D01*
X2186861Y429199D01*
X2252457Y435759D02*
X2226219D01*
Y416080D01*
X2239338Y422640D01*
X2245897D01*
X2252457Y416080D01*
Y402961D01*
X2245897Y396402D01*
X2232778D01*
X2226219Y402961D01*
X2113072Y1845412D02*
Y1884769D01*
X2132751D01*
X2139310Y1878209D01*
Y1865090D01*
X2132751Y1858531D01*
X2113072D01*
X2126191D02*
X2139310Y1845412D01*
X2152429Y1878209D02*
X2158989Y1884769D01*
X2172108D01*
X2178668Y1878209D01*
Y1871650D01*
X2172108Y1865090D01*
X2165548D01*
X2172108D01*
X2178668Y1858531D01*
Y1851971D01*
X2172108Y1845412D01*
X2158989D01*
X2152429Y1851971D01*
X2191787D02*
X2198346Y1845412D01*
X2211465D01*
X2218025Y1851971D01*
Y1878209D01*
X2211465Y1884769D01*
X2198346D01*
X2191787Y1878209D01*
Y1871650D01*
X2198346Y1865090D01*
X2218025D01*
X957202Y981238D02*
X950643Y974679D01*
Y961560D01*
X957202Y955000D01*
X983440D01*
X990000Y961560D01*
Y974679D01*
X983440Y981238D01*
X990000Y1020596D02*
Y994357D01*
X963762Y1020596D01*
X957202D01*
X950643Y1014036D01*
Y1000917D01*
X957202Y994357D01*
X990000Y1059953D02*
Y1033715D01*
X963762Y1059953D01*
X957202D01*
X950643Y1053393D01*
Y1040274D01*
X957202Y1033715D01*
X901202Y2329238D02*
X894643Y2322679D01*
Y2309560D01*
X901202Y2303000D01*
X927440D01*
X934000Y2309560D01*
Y2322679D01*
X927440Y2329238D01*
X934000Y2368596D02*
Y2342357D01*
X907762Y2368596D01*
X901202D01*
X894643Y2362036D01*
Y2348917D01*
X901202Y2342357D01*
Y2381715D02*
X894643Y2388274D01*
Y2401394D01*
X901202Y2407953D01*
X907762D01*
X914321Y2401394D01*
Y2394834D01*
Y2401394D01*
X920881Y2407953D01*
X927440D01*
X934000Y2401394D01*
Y2388274D01*
X927440Y2381715D01*
X1250000Y955000D02*
X1210643D01*
Y974679D01*
X1217202Y981238D01*
X1230321D01*
X1236881Y974679D01*
Y955000D01*
Y968119D02*
X1250000Y981238D01*
X1210643Y1020596D02*
Y994357D01*
X1230321D01*
X1223762Y1007476D01*
Y1014036D01*
X1230321Y1020596D01*
X1243440D01*
X1250000Y1014036D01*
Y1000917D01*
X1243440Y994357D01*
X1210643Y1033715D02*
Y1059953D01*
X1217202D01*
X1243440Y1033715D01*
X1250000D01*
X1193000Y2303000D02*
X1153643D01*
Y2322679D01*
X1160202Y2329238D01*
X1173321D01*
X1179881Y2322679D01*
Y2303000D01*
Y2316119D02*
X1193000Y2329238D01*
X1153643Y2368596D02*
Y2342357D01*
X1173321D01*
X1166762Y2355477D01*
Y2362036D01*
X1173321Y2368596D01*
X1186440D01*
X1193000Y2362036D01*
Y2348917D01*
X1186440Y2342357D01*
X1160202Y2381715D02*
X1153643Y2388274D01*
Y2401394D01*
X1160202Y2407953D01*
X1166762D01*
X1173321Y2401394D01*
X1179881Y2407953D01*
X1186440D01*
X1193000Y2401394D01*
Y2388274D01*
X1186440Y2381715D01*
X1179881D01*
X1173321Y2388274D01*
X1166762Y2381715D01*
X1160202D01*
X1173321Y2388274D02*
Y2401394D01*
X625000Y1444357D02*
Y1405000D01*
X651238D01*
X684036Y1444357D02*
X670917D01*
X664357Y1437798D01*
Y1411560D01*
X670917Y1405000D01*
X684036D01*
X690596Y1411560D01*
Y1437798D01*
X684036Y1444357D01*
X703715Y1405000D02*
Y1444357D01*
X729953Y1405000D01*
Y1444357D01*
X769310Y1437798D02*
X762751Y1444357D01*
X749632D01*
X743072Y1437798D01*
Y1411560D01*
X749632Y1405000D01*
X762751D01*
X769310Y1411560D01*
Y1424679D01*
X756191D01*
X1101238Y2782798D02*
X1094679Y2789357D01*
X1081560D01*
X1075000Y2782798D01*
Y2756560D01*
X1081560Y2750000D01*
X1094679D01*
X1101238Y2756560D01*
X1114357Y2750000D02*
Y2789357D01*
X1134036D01*
X1140596Y2782798D01*
Y2769679D01*
X1134036Y2763119D01*
X1114357D01*
X1127476D02*
X1140596Y2750000D01*
X1173393Y2789357D02*
X1160274D01*
X1153715Y2782798D01*
Y2756560D01*
X1160274Y2750000D01*
X1173393D01*
X1179953Y2756560D01*
Y2782798D01*
X1173393Y2789357D01*
X1219310Y2782798D02*
X1212751Y2789357D01*
X1199632D01*
X1193072Y2782798D01*
Y2776238D01*
X1199632Y2769679D01*
X1212751D01*
X1219310Y2763119D01*
Y2756560D01*
X1212751Y2750000D01*
X1199632D01*
X1193072Y2756560D01*
X1258668Y2782798D02*
X1252108Y2789357D01*
X1238989D01*
X1232430Y2782798D01*
Y2776238D01*
X1238989Y2769679D01*
X1252108D01*
X1258668Y2763119D01*
Y2756560D01*
X1252108Y2750000D01*
X1238989D01*
X1232430Y2756560D01*
X957000Y4316357D02*
Y4277000D01*
Y4296679D01*
X983238D01*
Y4316357D01*
Y4277000D01*
X1016036D02*
X1002917D01*
X996357Y4283560D01*
Y4296679D01*
X1002917Y4303238D01*
X1016036D01*
X1022596Y4296679D01*
Y4290119D01*
X996357D01*
X1042274Y4303238D02*
X1055393D01*
X1061953Y4296679D01*
Y4277000D01*
X1042274D01*
X1035715Y4283560D01*
X1042274Y4290119D01*
X1061953D01*
X1081632Y4309798D02*
Y4303238D01*
X1075072D01*
X1088191D01*
X1081632D01*
Y4283560D01*
X1088191Y4277000D01*
X1127549D02*
X1114430D01*
X1107870Y4283560D01*
Y4296679D01*
X1114430Y4303238D01*
X1127549D01*
X1134108Y4296679D01*
Y4290119D01*
X1107870D01*
X1147227Y4303238D02*
Y4277000D01*
Y4290119D01*
X1153787Y4296679D01*
X1160347Y4303238D01*
X1166906D01*
X1186585Y4277000D02*
X1206264D01*
X1212823Y4283560D01*
X1206264Y4290119D01*
X1193144D01*
X1186585Y4296679D01*
X1193144Y4303238D01*
X1212823D01*
X1225942Y4277000D02*
X1252180Y4303238D01*
X1304657Y4316357D02*
Y4277000D01*
X1330895D01*
X1363693D02*
X1350574D01*
X1344014Y4283560D01*
Y4296679D01*
X1350574Y4303238D01*
X1363693D01*
X1370253Y4296679D01*
Y4290119D01*
X1344014D01*
X1383372Y4303238D02*
X1396491Y4277000D01*
X1409610Y4303238D01*
X1442408Y4277000D02*
X1429289D01*
X1422729Y4283560D01*
Y4296679D01*
X1429289Y4303238D01*
X1442408D01*
X1448967Y4296679D01*
Y4290119D01*
X1422729D01*
X1462087Y4277000D02*
X1475206D01*
X1468646D01*
Y4316357D01*
X1462087D01*
X1494884Y4277000D02*
X1514563D01*
X1521123Y4283560D01*
X1514563Y4290119D01*
X1501444D01*
X1494884Y4296679D01*
X1501444Y4303238D01*
X1521123D01*
X1156415Y3760592D02*
X1130174Y3721230D01*
Y3760592D02*
X1156415D01*
X1130174Y3721230D02*
X1156415D01*
X1165225Y3760592D02*
Y3721230D01*
X1187717D01*
X1218269Y3754969D02*
X1214521Y3758718D01*
X1208897Y3760592D01*
X1201400D01*
X1195777Y3758718D01*
X1192028Y3754969D01*
Y3751220D01*
X1193902Y3747472D01*
X1195777Y3745597D01*
X1199526Y3743723D01*
X1210772Y3739974D01*
X1214521Y3738100D01*
X1216395Y3736225D01*
X1218269Y3732477D01*
Y3726854D01*
X1214521Y3723105D01*
X1208897Y3721230D01*
X1201400D01*
X1195777Y3723105D01*
X1192028Y3726854D01*
X950000Y4239357D02*
X976238D01*
Y4232798D01*
X950000Y4206560D01*
Y4200000D01*
X976238D01*
X989357Y4239357D02*
Y4200000D01*
X1015596D01*
X1054953Y4232798D02*
X1048393Y4239357D01*
X1035274D01*
X1028715Y4232798D01*
Y4226238D01*
X1035274Y4219679D01*
X1048393D01*
X1054953Y4213119D01*
Y4206560D01*
X1048393Y4200000D01*
X1035274D01*
X1028715Y4206560D01*
X1133668Y4232798D02*
X1127108Y4239357D01*
X1113989D01*
X1107430Y4232798D01*
Y4206560D01*
X1113989Y4200000D01*
X1127108D01*
X1133668Y4206560D01*
X1153347Y4200000D02*
X1166466D01*
X1173025Y4206560D01*
Y4219679D01*
X1166466Y4226238D01*
X1153347D01*
X1146787Y4219679D01*
Y4206560D01*
X1153347Y4200000D01*
X1186144Y4226238D02*
Y4200000D01*
Y4213119D01*
X1192704Y4219679D01*
X1199264Y4226238D01*
X1205823D01*
X1225502Y4186881D02*
Y4226238D01*
X1245180D01*
X1251740Y4219679D01*
Y4206560D01*
X1245180Y4200000D01*
X1225502D01*
X950000Y4125000D02*
Y4164357D01*
X969679D01*
X976238Y4157798D01*
Y4144679D01*
X969679Y4138119D01*
X950000D01*
X963119D02*
X976238Y4125000D01*
X1015596Y4164357D02*
X989357D01*
Y4125000D01*
X1015596D01*
X989357Y4144679D02*
X1002476D01*
X1028715Y4164357D02*
Y4138119D01*
X1041834Y4125000D01*
X1054953Y4138119D01*
Y4164357D01*
X1133668Y4157798D02*
X1127108Y4164357D01*
X1113989D01*
X1107430Y4157798D01*
Y4131560D01*
X1113989Y4125000D01*
X1127108D01*
X1133668Y4131560D01*
X957000Y4391357D02*
Y4352000D01*
X983238D01*
X996357D02*
Y4391357D01*
X1009476Y4378238D01*
X1022596Y4391357D01*
Y4352000D01*
X1035715Y4371679D02*
X1061953D01*
X1075072Y4384798D02*
X1081632Y4391357D01*
X1094751D01*
X1101310Y4384798D01*
Y4358560D01*
X1094751Y4352000D01*
X1081632D01*
X1075072Y4358560D01*
Y4384798D01*
X1114430D02*
X1120989Y4391357D01*
X1134108D01*
X1140668Y4384798D01*
Y4358560D01*
X1134108Y4352000D01*
X1120989D01*
X1114430Y4358560D01*
Y4384798D01*
X1153787Y4352000D02*
X1166906D01*
X1160347D01*
Y4391357D01*
X1153787Y4384798D01*
D47*
X1138521Y5017175D02*
G03*
X1138521Y5017175I-4921J0D01*
G01*
X1330096Y5368368D02*
G03*
X1330096Y5368368I-4921J0D01*
G01*
X1081434Y5173671D02*
G03*
X1081434Y5173671I-4921J0D01*
G01*
D48*
X1245450Y5409707D02*
G03*
X1245450Y5409707I-11811J0D01*
G01*
D67*
X1353750Y3841230D02*
G03*
X1353750Y3841230I-183576J0D01*
G01*
D68*
X1367024D02*
G03*
X1367024Y3841230I-196850J0D01*
G01*
X1456694Y6903000D02*
Y6929134D01*
X1299212D02*
X1456694D01*
X1299212Y6902000D02*
Y6929134D01*
X714504Y6901402D02*
X2014504D01*
Y6601402D02*
Y6901402D01*
X714504Y6601402D02*
X2014504D01*
X714504D02*
Y6901402D01*
X2500018Y3650444D02*
Y3930444D01*
X2220018Y3650444D02*
X2500018D01*
X2220018D02*
Y3930444D01*
X2500018D01*
X120412Y6600168D02*
X194412D01*
X120412D02*
Y6674168D01*
X194412Y6600168D02*
X520412D01*
X120412Y6674168D02*
Y6900168D01*
X520412D01*
Y6600168D02*
Y6900168D01*
X109782Y4727568D02*
X389782D01*
X109782Y4247568D02*
Y4727568D01*
Y4247568D02*
X389782D01*
Y4727568D01*
X2505924Y4453868D02*
Y4733868D01*
X2225924Y4453868D02*
X2505924D01*
X2225924D02*
Y4733868D01*
X2505924D01*
Y4867254D02*
Y5147254D01*
X2225924Y4867254D02*
X2505924D01*
X2225924D02*
Y5147254D01*
X2505924D01*
X2500018Y4048358D02*
Y4328358D01*
X2220018Y4048358D02*
X2500018D01*
X2220018D02*
Y4328358D01*
X2500018D01*
Y5653250D02*
Y5933250D01*
X2220018Y5653250D02*
X2500018D01*
X2220018D02*
Y5933250D01*
X2500018D01*
X389782Y3461742D02*
Y3741742D01*
X109782Y3461742D02*
X389782D01*
X109782D02*
Y3741742D01*
X389782D01*
X2500018Y5255706D02*
Y5535706D01*
X2220018Y5255706D02*
X2500018D01*
X2220018D02*
Y5535706D01*
X2500018D01*
X389782Y3851506D02*
Y4131506D01*
X109782Y3851506D02*
X389782D01*
X109782D02*
Y4131506D01*
X389782D01*
Y5650062D02*
Y5930062D01*
X109782Y5650062D02*
X389782D01*
X109782D02*
Y5930062D01*
X389782D01*
Y5255706D02*
Y5535706D01*
X109782Y5255706D02*
X389782D01*
X109782D02*
Y5535706D01*
X389782D01*
Y4861348D02*
Y5141348D01*
X109782Y4861348D02*
X389782D01*
X109782D02*
Y5141348D01*
X389782D01*
X1265176Y3764230D02*
Y3804230D01*
X1110176Y3784230D02*
Y3934230D01*
Y3784230D02*
X1260176D01*
X1090176Y3939230D02*
X1130176D01*
X109504Y159402D02*
Y459402D01*
X309504D01*
Y159402D02*
Y459402D01*
X109504Y159402D02*
X309504D01*
X125504Y1524402D02*
Y1824402D01*
X325504D01*
Y1524402D02*
Y1824402D01*
X125504Y1524402D02*
X325504D01*
X389782Y6044418D02*
Y6324418D01*
X109782Y6044418D02*
X389782D01*
X109782D02*
Y6324418D01*
X389782D01*
D69*
X1160174Y5136270D02*
G03*
X1160174Y5136270I-7874J0D01*
G01*
D70*
X1140176Y3904230D02*
X1170176Y3924230D01*
X1230176Y3814230D02*
X1260176Y3784230D01*
X1230176Y3814230D02*
X1250176Y3844230D01*
X1150176Y3854230D02*
X1190176Y3904230D01*
X1170176Y3834230D02*
X1210176Y3884230D01*
X1150176Y3854230D02*
X1210176Y3884230D01*
X1170176Y3834230D02*
X1230176Y3864230D01*
X1110176Y3934230D02*
X1140176Y3904230D01*
X1190176Y3814230D02*
X1250176Y3844230D01*
X1130176Y3874230D02*
X1170176Y3924230D01*
X1130176Y3874230D02*
X1190176Y3904230D01*
Y3814230D02*
X1230176Y3864230D01*
D71*
X2096504Y2793402D02*
X2379104D01*
X2096504Y2493402D02*
Y2793402D01*
X2379104Y2764002D02*
Y2779602D01*
Y2493402D02*
Y2704002D01*
X2171504Y2493402D02*
X2379104D01*
Y2779602D02*
Y2793402D01*
Y2704002D02*
Y2764002D01*
X2096504Y2493402D02*
X2171504D01*
X2123504Y1371250D02*
X2406104D01*
X2123504Y1071250D02*
Y1371250D01*
X2406104Y1341850D02*
Y1357450D01*
Y1071250D02*
Y1281850D01*
X2198504Y1071250D02*
X2406104D01*
Y1357450D02*
Y1371250D01*
Y1281850D02*
Y1341850D01*
X2123504Y1071250D02*
X2198504D01*
X2115504Y2317402D02*
X2398104D01*
X2115504Y2017402D02*
Y2317402D01*
X2398104Y2288002D02*
Y2303602D01*
Y2017402D02*
Y2228002D01*
X2190504Y2017402D02*
X2398104D01*
Y2303602D02*
Y2317402D01*
Y2228002D02*
Y2288002D01*
X2115504Y2017402D02*
X2190504D01*
X2142504Y873390D02*
X2425104D01*
X2142504Y573390D02*
Y873390D01*
X2425104Y843990D02*
Y859590D01*
Y573390D02*
Y783990D01*
X2217504Y573390D02*
X2425104D01*
Y859590D02*
Y873390D01*
Y783990D02*
Y843990D01*
X2142504Y573390D02*
X2217504D01*
X2115504Y1807402D02*
X2398104D01*
X2115504Y1507402D02*
Y1807402D01*
X2398104Y1778002D02*
Y1793602D01*
Y1507402D02*
Y1718002D01*
X2190504Y1507402D02*
X2398104D01*
Y1793602D02*
Y1807402D01*
Y1718002D02*
Y1778002D01*
X2115504Y1507402D02*
X2190504D01*
X2142504Y357402D02*
X2425104D01*
X2142504Y57402D02*
Y357402D01*
X2425104Y328002D02*
Y343602D01*
Y57402D02*
Y268002D01*
X2217504Y57402D02*
X2425104D01*
Y343602D02*
Y357402D01*
Y268002D02*
Y328002D01*
X2142504Y57402D02*
X2217504D01*
%TF.MD5,737679f36c48c91a241d9eabdd655389*%
M02*
