%TF.GenerationSoftware,Altium Limited,Altium Designer,18.0.12 (696)*%
G04 Layer_Color=2752767*
%FSLAX26Y26*%
%MOIN*%
%TF.FileFunction,Drawing*%
%TF.Part,Single*%
G01*
G75*
%TA.AperFunction,NonConductor*%
%ADD104C,0.005000*%
%ADD153C,0.006667*%
D104*
X1785000Y955000D02*
Y995000D01*
X1825000D01*
Y955000D01*
X1785000D01*
X1735000D02*
Y995000D01*
X1775000D01*
Y955000D01*
X1735000D01*
X1685000D02*
Y995000D01*
X1725000D01*
Y955000D01*
X1685000D01*
X1580000Y1100000D02*
Y1140000D01*
X1620000D01*
Y1100000D01*
X1580000D01*
Y1150000D02*
Y1190000D01*
X1620000D01*
Y1150000D01*
X1580000D01*
X1535000Y1095000D02*
Y1135000D01*
X1575000D01*
Y1095000D01*
X1535000D01*
Y1150000D02*
Y1190000D01*
X1575000D01*
Y1150000D01*
X1535000D01*
X1635000Y1105000D02*
Y1145000D01*
X1675000D01*
Y1105000D01*
X1635000D01*
X1785000Y1195000D02*
Y1235000D01*
X1825000D01*
Y1195000D01*
X1785000D01*
X1825000D02*
Y1235000D01*
X1865000D01*
Y1195000D01*
X1825000D01*
X1880000D02*
Y1235000D01*
X1920000D01*
Y1195000D01*
X1880000D01*
X1885000Y1145000D02*
Y1185000D01*
X1925000D01*
Y1145000D01*
X1885000D01*
X1830000Y1100000D02*
Y1140000D01*
X1870000D01*
Y1100000D01*
X1830000D01*
X1835000Y1145000D02*
Y1185000D01*
X1875000D01*
Y1145000D01*
X1835000D01*
X1785000D02*
Y1185000D01*
X1825000D01*
Y1145000D01*
X1785000D01*
X1685000Y1100000D02*
Y1140000D01*
X1725000D01*
Y1100000D01*
X1685000D01*
X1730000D02*
Y1140000D01*
X1770000D01*
Y1100000D01*
X1730000D01*
X1785000D02*
Y1140000D01*
X1825000D01*
Y1100000D01*
X1785000D01*
Y1045000D02*
Y1085000D01*
X1825000D01*
Y1045000D01*
X1785000D01*
Y1000000D02*
Y1040000D01*
X1825000D01*
Y1000000D01*
X1785000D01*
X1685000D02*
Y1040000D01*
X1725000D01*
Y1000000D01*
X1685000D01*
Y1045000D02*
Y1085000D01*
X1725000D01*
Y1045000D01*
X1685000D01*
X1735000D02*
Y1085000D01*
X1775000D01*
Y1045000D01*
X1735000D01*
Y1000000D02*
Y1040000D01*
X1775000D01*
Y1000000D01*
X1735000D01*
X1300000Y1980000D02*
X1280000Y2020000D01*
X1320000D01*
X1300000Y1980000D01*
X1200000D02*
X1180000Y2020000D01*
X1220000D01*
X1200000Y1980000D01*
X1100000D02*
X1080000Y2020000D01*
X1120000D01*
X1100000Y1980000D01*
X1000000D02*
X980000Y2020000D01*
X1020000D01*
X1000000Y1980000D01*
X4938544Y-5019140D02*
X4948544Y-5009140D01*
X4958544D01*
X4948544Y-4999140D01*
X4958544Y-4989140D01*
X4948544D01*
X4938544Y-4979140D01*
X4928544Y-4989140D01*
X4918544D01*
X4928544Y-4999140D01*
X4918544Y-5009140D01*
X4928544D01*
X4938544Y-5019140D01*
X0Y-20000D02*
X10000Y-10000D01*
X20000D01*
X10000Y0D01*
X20000Y10000D01*
X10000D01*
X0Y20000D01*
X-10000Y10000D01*
X-20000D01*
X-10000Y0D01*
X-20000Y-10000D01*
X-10000D01*
X0Y-20000D01*
X2350000D02*
X2360000Y-10000D01*
X2370000D01*
X2360000Y0D01*
X2370000Y10000D01*
X2360000D01*
X2350000Y20000D01*
X2340000Y10000D01*
X2330000D01*
X2340000Y0D01*
X2330000Y-10000D01*
X2340000D01*
X2350000Y-20000D01*
X0Y2330000D02*
X10000Y2340000D01*
X20000D01*
X10000Y2350000D01*
X20000Y2360000D01*
X10000D01*
X0Y2370000D01*
X-10000Y2360000D01*
X-20000D01*
X-10000Y2350000D01*
X-20000Y2340000D01*
X-10000D01*
X0Y2330000D01*
X2350000D02*
X2360000Y2340000D01*
X2370000D01*
X2360000Y2350000D01*
X2370000Y2360000D01*
X2360000D01*
X2350000Y2370000D01*
X2340000Y2360000D01*
X2330000D01*
X2340000Y2350000D01*
X2330000Y2340000D01*
X2340000D01*
X2350000Y2330000D01*
X1437000Y619000D02*
X1447000Y639000D01*
X1437000Y659000D01*
X1457000Y649000D01*
X1477000Y659000D01*
X1467000Y639000D01*
X1477000Y619000D01*
X1457000Y629000D01*
X1437000Y619000D01*
X1889000Y763000D02*
X1899000Y783000D01*
X1889000Y803000D01*
X1909000Y793000D01*
X1929000Y803000D01*
X1919000Y783000D01*
X1929000Y763000D01*
X1909000Y773000D01*
X1889000Y763000D01*
X985000Y1644000D02*
X995000Y1664000D01*
X985000Y1684000D01*
X1005000Y1674000D01*
X1025000Y1684000D01*
X1015000Y1664000D01*
X1025000Y1644000D01*
X1005000Y1654000D01*
X985000Y1644000D01*
X1181000Y1680000D02*
X1191000Y1700000D01*
X1181000Y1720000D01*
X1201000Y1710000D01*
X1221000Y1720000D01*
X1211000Y1700000D01*
X1221000Y1680000D01*
X1201000Y1690000D01*
X1181000Y1680000D01*
X1542000Y1881000D02*
X1552000Y1901000D01*
X1542000Y1921000D01*
X1562000Y1911000D01*
X1582000Y1921000D01*
X1572000Y1901000D01*
X1582000Y1881000D01*
X1562000Y1891000D01*
X1542000Y1881000D01*
X857000Y589000D02*
X867000Y609000D01*
X857000Y629000D01*
X877000Y619000D01*
X897000Y629000D01*
X887000Y609000D01*
X897000Y589000D01*
X877000Y599000D01*
X857000Y589000D01*
X858000Y729000D02*
X868000Y749000D01*
X858000Y769000D01*
X878000Y759000D01*
X898000Y769000D01*
X888000Y749000D01*
X898000Y729000D01*
X878000Y739000D01*
X858000Y729000D01*
X739000Y1809000D02*
X749000Y1829000D01*
X739000Y1849000D01*
X759000Y1839000D01*
X779000Y1849000D01*
X769000Y1829000D01*
X779000Y1809000D01*
X759000Y1819000D01*
X739000Y1809000D01*
X585000Y2435000D02*
X595000Y2455000D01*
X585000Y2475000D01*
X605000Y2465000D01*
X625000Y2475000D01*
X615000Y2455000D01*
X625000Y2435000D01*
X605000Y2445000D01*
X585000Y2435000D01*
X1695000Y1611000D02*
Y1601000D01*
X1715000D01*
Y1611000D01*
X1725000D01*
Y1631000D01*
X1715000D01*
Y1641000D01*
X1695000D01*
Y1631000D01*
X1685000D01*
Y1611000D01*
X1695000D01*
X1863000Y1751000D02*
Y1741000D01*
X1883000D01*
Y1751000D01*
X1893000D01*
Y1771000D01*
X1883000D01*
Y1781000D01*
X1863000D01*
Y1771000D01*
X1853000D01*
Y1751000D01*
X1863000D01*
X1913000D02*
Y1741000D01*
X1933000D01*
Y1751000D01*
X1943000D01*
Y1771000D01*
X1933000D01*
Y1781000D01*
X1913000D01*
Y1771000D01*
X1903000D01*
Y1751000D01*
X1913000D01*
X1963000D02*
Y1741000D01*
X1983000D01*
Y1751000D01*
X1993000D01*
Y1771000D01*
X1983000D01*
Y1781000D01*
X1963000D01*
Y1771000D01*
X1953000D01*
Y1751000D01*
X1963000D01*
X2013000D02*
Y1741000D01*
X2033000D01*
Y1751000D01*
X2043000D01*
Y1771000D01*
X2033000D01*
Y1781000D01*
X2013000D01*
Y1771000D01*
X2003000D01*
Y1751000D01*
X2013000D01*
X2063000D02*
Y1741000D01*
X2083000D01*
Y1751000D01*
X2093000D01*
Y1771000D01*
X2083000D01*
Y1781000D01*
X2063000D01*
Y1771000D01*
X2053000D01*
Y1751000D01*
X2063000D01*
D153*
X320000Y2000000D02*
G03*
X320000Y2000000I-20000J0D01*
G01*
X420000D02*
G03*
X420000Y2000000I-20000J0D01*
G01*
X770000D02*
G03*
X770000Y2000000I-20000J0D01*
G01*
X670000D02*
G03*
X670000Y2000000I-20000J0D01*
G01*
X2420000Y1950000D02*
G03*
X2420000Y1950000I-20000J0D01*
G01*
Y1850000D02*
G03*
X2420000Y1850000I-20000J0D01*
G01*
Y1750000D02*
G03*
X2420000Y1750000I-20000J0D01*
G01*
Y1650000D02*
G03*
X2420000Y1650000I-20000J0D01*
G01*
Y1550000D02*
G03*
X2420000Y1550000I-20000J0D01*
G01*
X2320000Y1950000D02*
G03*
X2320000Y1950000I-20000J0D01*
G01*
Y1850000D02*
G03*
X2320000Y1850000I-20000J0D01*
G01*
Y1750000D02*
G03*
X2320000Y1750000I-20000J0D01*
G01*
Y1650000D02*
G03*
X2320000Y1650000I-20000J0D01*
G01*
Y1550000D02*
G03*
X2320000Y1550000I-20000J0D01*
G01*
X2420000Y1450000D02*
G03*
X2420000Y1450000I-20000J0D01*
G01*
Y1350000D02*
G03*
X2420000Y1350000I-20000J0D01*
G01*
Y1250000D02*
G03*
X2420000Y1250000I-20000J0D01*
G01*
X2320000Y1450000D02*
G03*
X2320000Y1450000I-20000J0D01*
G01*
Y1350000D02*
G03*
X2320000Y1350000I-20000J0D01*
G01*
Y1250000D02*
G03*
X2320000Y1250000I-20000J0D01*
G01*
X120000Y1050000D02*
G03*
X120000Y1050000I-20000J0D01*
G01*
Y950000D02*
G03*
X120000Y950000I-20000J0D01*
G01*
Y850000D02*
G03*
X120000Y850000I-20000J0D01*
G01*
Y750000D02*
G03*
X120000Y750000I-20000J0D01*
G01*
Y650000D02*
G03*
X120000Y650000I-20000J0D01*
G01*
X20000Y1050000D02*
G03*
X20000Y1050000I-20000J0D01*
G01*
Y950000D02*
G03*
X20000Y950000I-20000J0D01*
G01*
Y850000D02*
G03*
X20000Y850000I-20000J0D01*
G01*
Y750000D02*
G03*
X20000Y750000I-20000J0D01*
G01*
Y650000D02*
G03*
X20000Y650000I-20000J0D01*
G01*
X120000Y550000D02*
G03*
X120000Y550000I-20000J0D01*
G01*
Y450000D02*
G03*
X120000Y450000I-20000J0D01*
G01*
Y350000D02*
G03*
X120000Y350000I-20000J0D01*
G01*
X20000Y550000D02*
G03*
X20000Y550000I-20000J0D01*
G01*
Y450000D02*
G03*
X20000Y450000I-20000J0D01*
G01*
Y350000D02*
G03*
X20000Y350000I-20000J0D01*
G01*
%TF.MD5,e72e6728bfd6d535ff05aec9a3989ac1*%
M02*
