G04 Layer_Color=255*
%FSLAX26Y26*%
%MOIN*%
%TF.FileFunction,Pads,Bot*%
%TF.Part,Single*%
G01*
G75*
%TA.AperFunction,SMDPad,CuDef*%
%ADD10R,0.033465X0.051181*%
%ADD11R,0.057087X0.045276*%
%ADD12R,0.045276X0.057087*%
%TA.AperFunction,ComponentPad*%
%ADD25C,0.059055*%
%ADD26C,0.060000*%
%ADD27C,0.062992*%
%ADD28C,0.040000*%
%ADD29R,0.059055X0.059055*%
%TA.AperFunction,ViaPad*%
%ADD30C,0.196850*%
%TA.AperFunction,ComponentPad*%
%ADD31C,0.042000*%
%TA.AperFunction,SMDPad,CuDef*%
%ADD48R,0.021654X0.055118*%
D10*
X-945976Y-2075152D02*
D03*
X-1012904D02*
D03*
D11*
X43694Y-1979638D02*
D03*
Y-1908772D02*
D03*
X-940000Y11432D02*
D03*
Y-59434D02*
D03*
X246582Y-1056726D02*
D03*
Y-1127594D02*
D03*
X90716Y-939026D02*
D03*
Y-868160D02*
D03*
X121582Y-1127594D02*
D03*
Y-1056728D02*
D03*
D12*
X-1054874Y-2365152D02*
D03*
X-984008D02*
D03*
D25*
X303465Y-2142522D02*
D03*
X598465Y-1057522D02*
D03*
X-170000Y260998D02*
D03*
X-1166535Y-2442522D02*
D03*
X680354Y415825D02*
D03*
X798465D02*
D03*
X916575D02*
D03*
X-841535Y-2372522D02*
D03*
X209000Y26998D02*
D03*
X-646307Y-1494207D02*
D03*
X-503307Y-2089207D02*
D03*
X-162000Y-235002D02*
D03*
X35716Y-757592D02*
D03*
Y-857592D02*
D03*
Y-957592D02*
D03*
Y-1057592D02*
D03*
X335716Y-757592D02*
D03*
Y-857592D02*
D03*
Y-957592D02*
D03*
X-619000Y-943002D02*
D03*
Y-843002D02*
D03*
Y-743002D02*
D03*
Y-643002D02*
D03*
X-919000Y-943002D02*
D03*
Y-843002D02*
D03*
Y-743002D02*
D03*
D26*
X848464Y-2244018D02*
D03*
Y-2144018D02*
D03*
Y-2044018D02*
D03*
Y-1944018D02*
D03*
Y-1844018D02*
D03*
Y-1744018D02*
D03*
Y-1644018D02*
D03*
Y-1544018D02*
D03*
Y-1444018D02*
D03*
Y-1344018D02*
D03*
Y-1244018D02*
D03*
Y-1144018D02*
D03*
Y-1044018D02*
D03*
Y-944018D02*
D03*
Y-844018D02*
D03*
X748464Y-2244018D02*
D03*
Y-2144018D02*
D03*
Y-2044018D02*
D03*
Y-1944018D02*
D03*
Y-1844018D02*
D03*
Y-1744018D02*
D03*
Y-1644018D02*
D03*
Y-1544018D02*
D03*
Y-1444018D02*
D03*
Y-1344018D02*
D03*
Y-1244018D02*
D03*
Y-1144018D02*
D03*
Y-1044018D02*
D03*
Y-944018D02*
D03*
Y-844018D02*
D03*
X-1377520D02*
D03*
Y-944018D02*
D03*
Y-1044018D02*
D03*
Y-1144018D02*
D03*
Y-1244018D02*
D03*
Y-1344018D02*
D03*
Y-1444018D02*
D03*
Y-1544018D02*
D03*
Y-1644018D02*
D03*
Y-1744018D02*
D03*
Y-1844018D02*
D03*
Y-1944018D02*
D03*
Y-2044018D02*
D03*
Y-2144018D02*
D03*
Y-2244018D02*
D03*
X-1277520Y-844018D02*
D03*
Y-944018D02*
D03*
Y-1044018D02*
D03*
Y-1144018D02*
D03*
Y-1244018D02*
D03*
Y-1344018D02*
D03*
Y-1444018D02*
D03*
Y-1544018D02*
D03*
Y-1644018D02*
D03*
Y-1744018D02*
D03*
Y-1844018D02*
D03*
Y-1944018D02*
D03*
Y-2044018D02*
D03*
Y-2144018D02*
D03*
Y-2244018D02*
D03*
X516142Y-543900D02*
D03*
X366536D02*
D03*
D27*
X467000Y419998D02*
D03*
X367000D02*
D03*
D28*
X-841000Y698998D02*
D03*
X-641000D02*
D03*
X-741000Y798998D02*
D03*
D29*
X335716Y-1057592D02*
D03*
X-919000Y-643002D02*
D03*
D30*
X-1327520Y-2812522D02*
D03*
X798464D02*
D03*
X-1327520Y-450316D02*
D03*
X798464D02*
D03*
D31*
X100000Y25000D02*
D03*
Y-25000D02*
D03*
X50000Y25000D02*
D03*
Y-25000D02*
D03*
X0Y25000D02*
D03*
Y-25000D02*
D03*
X-50000Y25000D02*
D03*
Y-25000D02*
D03*
X-100000Y25000D02*
D03*
Y-25000D02*
D03*
D48*
X-1093142Y-2148034D02*
D03*
X-1055740D02*
D03*
X-1018338D02*
D03*
Y-2272048D02*
D03*
X-1055740D02*
D03*
X-1093142D02*
D03*
%TF.MD5,2cec8c244b4fdd96031324ec784454e9*%
M02*
