G04 Layer_Color=16711935*
%FSLAX26Y26*%
%MOIN*%
%TF.FileFunction,Other,Mechanical_13*%
%TF.Part,Single*%
G01*
G75*
%TA.AperFunction,NonConductor*%
%ADD49C,0.010000*%
%ADD52C,0.005905*%
%ADD74C,0.003937*%
%ADD78C,0.006000*%
D49*
X976378Y-7803622D02*
X976378Y-6973622D01*
X-673622Y-7803622D02*
X-673622Y-6973622D01*
X230093Y-7793622D02*
X976378Y-7793622D01*
X-673622Y-7793622D02*
X44915Y-7793622D01*
X916378Y-7773622D02*
X976378Y-7793622D01*
X916378Y-7813622D02*
X976378Y-7793622D01*
X-673622Y-7793622D02*
X-613622Y-7813622D01*
X-673622Y-7793622D02*
X-613622Y-7773622D01*
X-2238622Y-3345122D02*
X-1022235Y-3345122D01*
X-2238622Y363555D02*
X-1179103Y363555D01*
X-2228622Y-3345122D02*
X-2228622Y-1626764D01*
X-2228622Y-1382551D02*
X-2228622Y363555D01*
X-2228622Y-3345122D02*
X-2208622Y-3285122D01*
X-2248622Y-3285122D02*
X-2228622Y-3345122D01*
X-2248622Y303555D02*
X-2228622Y363555D01*
X-2208622Y303555D01*
X-1441810Y-3502602D02*
X-1193214Y-3502602D01*
X-1441810Y-3345122D02*
X-1022235Y-3345122D01*
X-1431810Y-3502602D02*
X-1431810Y-3423862D01*
X-1431810Y-3345122D01*
X-1431810Y-3502602D02*
X-1411810Y-3442602D01*
X-1451810Y-3442602D02*
X-1431810Y-3502602D01*
X-1451810Y-3405122D02*
X-1431810Y-3345122D01*
X-1411810Y-3405122D01*
X-911810Y-872493D02*
X-911810Y644878D01*
X1214174Y-872493D02*
X1214174Y644878D01*
X-911810Y634878D02*
X-4478Y634878D01*
X279094Y634878D02*
X1214174Y634878D01*
X-911810Y634878D02*
X-851810Y614878D01*
X-911810Y634878D02*
X-851810Y654878D01*
X1154174Y654878D02*
X1214174Y634878D01*
X1154174Y614878D02*
X1214174Y634878D01*
X-2098622Y-3345122D02*
X-1022235Y-3345122D01*
X-2098622Y-982918D02*
X-1022235Y-982918D01*
X-2088622Y-3345122D02*
X-2088622Y-2260643D01*
X-2088622Y-2095145D02*
X-2088622Y-982918D01*
X-2088622Y-3345122D02*
X-2068622Y-3285122D01*
X-2108622Y-3285122D02*
X-2088622Y-3345122D01*
X-2108622Y-1042918D02*
X-2088622Y-982918D01*
X-2068622Y-1042918D01*
X-2365803Y363555D02*
X-1247638Y363555D01*
X-2365803Y-7274287D02*
X-1179103Y-7274287D01*
X-2355803Y-3350400D02*
X-2355803Y363555D01*
X-2355803Y-7274287D02*
X-2355803Y-3592332D01*
X-2375803Y303555D02*
X-2355803Y363555D01*
X-2335803Y303555D01*
X-2355803Y-7274287D02*
X-2335803Y-7214287D01*
X-2375803Y-7214287D02*
X-2355803Y-7274287D01*
X-1169103Y373555D02*
X-1169103Y884878D01*
X1468897Y363713D02*
X1468897Y884878D01*
X-1169103Y874878D02*
X17196Y874878D01*
X254850Y874878D02*
X1468897Y874878D01*
X-1169103Y874878D02*
X-1109103Y854878D01*
X-1169103Y874878D02*
X-1109103Y894878D01*
X1408897Y894878D02*
X1468897Y874878D01*
X1408897Y854878D02*
X1468897Y874878D01*
D52*
X1001150Y1154637D02*
X996887Y1158900D01*
X988359Y1158900D01*
X984095Y1154637D01*
X984095Y1150373D01*
X988359Y1146109D01*
X996887Y1146109D01*
X1001150Y1141845D01*
X1001150Y1137582D01*
X996887Y1133318D01*
X988359Y1133318D01*
X984095Y1137582D01*
X1013941Y1154637D02*
X1013941Y1150373D01*
X1009678Y1150373D01*
X1018205Y1150373D01*
X1013941Y1150373D01*
X1013941Y1137582D01*
X1018205Y1133318D01*
X1035260Y1150373D02*
X1043787Y1150373D01*
X1048051Y1146109D01*
X1048051Y1133318D01*
X1035260Y1133318D01*
X1030996Y1137582D01*
X1035260Y1141845D01*
X1048051Y1141845D01*
X1056579Y1133318D02*
X1056579Y1150373D01*
X1069370Y1150373D01*
X1073633Y1146109D01*
X1073633Y1133318D01*
X1099216Y1158900D02*
X1099216Y1133318D01*
X1086425Y1133318D01*
X1082161Y1137582D01*
X1082161Y1146109D01*
X1086425Y1150373D01*
X1099216Y1150373D01*
X1107743Y1146109D02*
X1124798Y1146109D01*
X1137589Y1133318D02*
X1146117Y1133318D01*
X1150380Y1137582D01*
X1150380Y1146109D01*
X1146117Y1150373D01*
X1137589Y1150373D01*
X1133325Y1146109D01*
X1133325Y1137582D01*
X1137589Y1133318D01*
X1163171Y1133318D02*
X1163171Y1154637D01*
X1163171Y1146109D01*
X1158908Y1146109D01*
X1167435Y1146109D01*
X1163171Y1146109D01*
X1163171Y1154637D01*
X1167435Y1158900D01*
X1184490Y1133318D02*
X1184490Y1154637D01*
X1184490Y1146109D01*
X1180226Y1146109D01*
X1188754Y1146109D01*
X1184490Y1146109D01*
X1184490Y1154637D01*
X1188754Y1158900D01*
X1231391Y1133318D02*
X1231391Y1154637D01*
X1231391Y1146109D01*
X1227127Y1146109D01*
X1235655Y1146109D01*
X1231391Y1146109D01*
X1231391Y1154637D01*
X1235655Y1158900D01*
X1252710Y1133318D02*
X1261237Y1133318D01*
X1265501Y1137582D01*
X1265501Y1146109D01*
X1261237Y1150373D01*
X1252710Y1150373D01*
X1248446Y1146109D01*
X1248446Y1137582D01*
X1252710Y1133318D01*
X1274028Y1150373D02*
X1274028Y1133318D01*
X1274028Y1141845D01*
X1278292Y1146109D01*
X1282556Y1150373D01*
X1286819Y1150373D01*
X1329457Y1154637D02*
X1329457Y1150373D01*
X1325193Y1150373D01*
X1333720Y1150373D01*
X1329457Y1150373D01*
X1329457Y1137582D01*
X1333720Y1133318D01*
X1350775Y1133318D02*
X1359303Y1133318D01*
X1363566Y1137582D01*
X1363566Y1146109D01*
X1359303Y1150373D01*
X1350775Y1150373D01*
X1346511Y1146109D01*
X1346511Y1137582D01*
X1350775Y1133318D01*
X1372094Y1124791D02*
X1372094Y1150373D01*
X1384885Y1150373D01*
X1389149Y1146109D01*
X1389149Y1137582D01*
X1384885Y1133318D01*
X1372094Y1133318D01*
X1397676Y1150373D02*
X1401940Y1150373D01*
X1401940Y1146109D01*
X1397676Y1146109D01*
X1397676Y1150373D01*
X1397676Y1137582D02*
X1401940Y1137582D01*
X1401940Y1133318D01*
X1397676Y1133318D01*
X1397676Y1137582D01*
X984095Y1101237D02*
X984095Y1075655D01*
X984095Y1088446D01*
X1001150Y1088446D01*
X1001150Y1101237D01*
X1001150Y1075655D01*
X1026733Y1101237D02*
X1009678Y1101237D01*
X1009678Y1075655D01*
X1026733Y1075655D01*
X1009678Y1088446D02*
X1018205Y1088446D01*
X1035260Y1101237D02*
X1052315Y1075655D01*
X1052315Y1101237D02*
X1035260Y1075655D01*
X1103479Y1096974D02*
X1099216Y1101237D01*
X1090688Y1101237D01*
X1086425Y1096974D01*
X1086425Y1092710D01*
X1090688Y1088446D01*
X1099216Y1088446D01*
X1103479Y1084182D01*
X1103479Y1079919D01*
X1099216Y1075655D01*
X1090688Y1075655D01*
X1086425Y1079919D01*
X1112007Y1101237D02*
X1129062Y1101237D01*
X1120534Y1101237D01*
X1120534Y1075655D01*
X1137589Y1075655D02*
X1137589Y1092710D01*
X1146117Y1101237D01*
X1154644Y1092710D01*
X1154644Y1075655D01*
X1154644Y1088446D01*
X1137589Y1088446D01*
X1163171Y1075655D02*
X1163171Y1101237D01*
X1180226Y1075655D01*
X1180226Y1101237D01*
X1188754Y1101237D02*
X1188754Y1075655D01*
X1201545Y1075655D01*
X1205809Y1079919D01*
X1205809Y1096974D01*
X1201545Y1101237D01*
X1188754Y1101237D01*
X1227127Y1101237D02*
X1218600Y1101237D01*
X1214336Y1096974D01*
X1214336Y1079919D01*
X1218600Y1075655D01*
X1227127Y1075655D01*
X1231391Y1079919D01*
X1231391Y1096974D01*
X1227127Y1101237D01*
X1256973Y1101237D02*
X1239918Y1101237D01*
X1239918Y1088446D01*
X1248446Y1088446D01*
X1239918Y1088446D01*
X1239918Y1075655D01*
X1282556Y1101237D02*
X1265501Y1101237D01*
X1265501Y1088446D01*
X1274028Y1088446D01*
X1265501Y1088446D01*
X1265501Y1075655D01*
X1320929Y1075655D02*
X1320929Y1101237D01*
X1329457Y1101237D02*
X1329457Y1075655D01*
X1316665Y1092710D02*
X1329457Y1092710D01*
X1333720Y1092710D01*
X1316665Y1084182D02*
X1333720Y1084182D01*
X1355039Y1075655D02*
X1355039Y1101237D01*
X1342248Y1088446D01*
X1359303Y1088446D01*
X1367830Y1088446D02*
X1384885Y1088446D01*
X1406203Y1075655D02*
X1406203Y1101237D01*
X1393412Y1088446D01*
X1410467Y1088446D01*
X1418995Y1096974D02*
X1423258Y1101237D01*
X1431786Y1101237D01*
X1436049Y1096974D01*
X1436049Y1079919D01*
X1431786Y1075655D01*
X1423258Y1075655D01*
X1418995Y1079919D01*
X1418995Y1096974D01*
X1487214Y1096974D02*
X1482950Y1101237D01*
X1474423Y1101237D01*
X1470159Y1096974D01*
X1470159Y1092710D01*
X1474423Y1088446D01*
X1482950Y1088446D01*
X1487214Y1084182D01*
X1487214Y1079919D01*
X1482950Y1075655D01*
X1474423Y1075655D01*
X1470159Y1079919D01*
X1512796Y1096974D02*
X1508533Y1101237D01*
X1500005Y1101237D01*
X1495741Y1096974D01*
X1495741Y1092710D01*
X1500005Y1088446D01*
X1508533Y1088446D01*
X1512796Y1084182D01*
X1512796Y1079919D01*
X1508533Y1075655D01*
X1500005Y1075655D01*
X1495741Y1079919D01*
X1563961Y1101237D02*
X1546906Y1101237D01*
X1546906Y1088446D01*
X1555433Y1092710D01*
X1559697Y1092710D01*
X1563961Y1088446D01*
X1563961Y1079919D01*
X1559697Y1075655D01*
X1551170Y1075655D01*
X1546906Y1079919D01*
X1572488Y1075655D02*
X1589543Y1092710D01*
X1598071Y1075655D02*
X1606598Y1075655D01*
X1602334Y1075655D01*
X1602334Y1101237D01*
X1598071Y1096974D01*
X1636444Y1101237D02*
X1627917Y1096974D01*
X1619389Y1088446D01*
X1619389Y1079919D01*
X1623653Y1075655D01*
X1632180Y1075655D01*
X1636444Y1079919D01*
X1636444Y1084182D01*
X1632180Y1088446D01*
X1619389Y1088446D01*
X1649235Y1105501D02*
X1649235Y1096974D01*
X1644972Y1092710D01*
X1666290Y1105501D02*
X1666290Y1096974D01*
X1662026Y1092710D01*
X984095Y1030783D02*
X984095Y1056366D01*
X996887Y1056366D01*
X1001150Y1052102D01*
X1001150Y1043575D01*
X996887Y1039311D01*
X984095Y1039311D01*
X1009678Y1030783D02*
X1026733Y1047838D01*
X1035260Y1030783D02*
X1035260Y1056366D01*
X1052315Y1030783D01*
X1052315Y1056366D01*
X1060842Y1047838D02*
X1065106Y1047838D01*
X1065106Y1043575D01*
X1060842Y1043575D01*
X1060842Y1047838D01*
X1060842Y1035047D02*
X1065106Y1035047D01*
X1065106Y1030783D01*
X1060842Y1030783D01*
X1060842Y1035047D01*
X1124798Y1030783D02*
X1107743Y1030783D01*
X1124798Y1047838D01*
X1124798Y1052102D01*
X1120534Y1056366D01*
X1112007Y1056366D01*
X1107743Y1052102D01*
X1133325Y1052102D02*
X1137589Y1056366D01*
X1146117Y1056366D01*
X1150380Y1052102D01*
X1150380Y1035047D01*
X1146117Y1030783D01*
X1137589Y1030783D01*
X1133325Y1035047D01*
X1133325Y1052102D01*
X1175963Y1056366D02*
X1158908Y1056366D01*
X1158908Y1043575D01*
X1167435Y1047838D01*
X1171699Y1047838D01*
X1175963Y1043575D01*
X1175963Y1035047D01*
X1171699Y1030783D01*
X1163171Y1030783D01*
X1158908Y1035047D01*
X1197281Y1030783D02*
X1197281Y1056366D01*
X1184490Y1043575D01*
X1201545Y1043575D01*
X1210072Y1043575D02*
X1227127Y1043575D01*
X1248446Y1030783D02*
X1248446Y1056366D01*
X1235655Y1043575D01*
X1252710Y1043575D01*
X1274028Y1030783D02*
X1274028Y1056366D01*
X1261237Y1043575D01*
X1278292Y1043575D01*
X1286819Y1052102D02*
X1291083Y1056366D01*
X1299611Y1056366D01*
X1303874Y1052102D01*
X1303874Y1035047D01*
X1299611Y1030783D01*
X1291083Y1030783D01*
X1286819Y1035047D01*
X1286819Y1052102D01*
X1312402Y1043575D02*
X1329457Y1043575D01*
X1355039Y1052102D02*
X1350775Y1056366D01*
X1342248Y1056366D01*
X1337984Y1052102D01*
X1337984Y1047838D01*
X1342248Y1043575D01*
X1350775Y1043575D01*
X1355039Y1039311D01*
X1355039Y1035047D01*
X1350775Y1030783D01*
X1342248Y1030783D01*
X1337984Y1035047D01*
X1380621Y1052102D02*
X1376357Y1056366D01*
X1367830Y1056366D01*
X1363566Y1052102D01*
X1363566Y1047838D01*
X1367830Y1043575D01*
X1376357Y1043575D01*
X1380621Y1039311D01*
X1380621Y1035047D01*
X1376357Y1030783D01*
X1367830Y1030783D01*
X1363566Y1035047D01*
X-1695662Y-7463863D02*
X-1699926Y-7459599D01*
X-1708453Y-7459599D01*
X-1712717Y-7463863D01*
X-1712717Y-7468127D01*
X-1708453Y-7472390D01*
X-1699926Y-7472390D01*
X-1695662Y-7476654D01*
X-1695662Y-7480918D01*
X-1699926Y-7485182D01*
X-1708453Y-7485182D01*
X-1712717Y-7480918D01*
X-1682871Y-7463863D02*
X-1682871Y-7468127D01*
X-1687135Y-7468127D01*
X-1678607Y-7468127D01*
X-1682871Y-7468127D01*
X-1682871Y-7480918D01*
X-1678607Y-7485182D01*
X-1661552Y-7468127D02*
X-1653025Y-7468127D01*
X-1648761Y-7472390D01*
X-1648761Y-7485182D01*
X-1661552Y-7485182D01*
X-1665816Y-7480918D01*
X-1661552Y-7476654D01*
X-1648761Y-7476654D01*
X-1640234Y-7485182D02*
X-1640234Y-7468127D01*
X-1627443Y-7468127D01*
X-1623179Y-7472390D01*
X-1623179Y-7485182D01*
X-1597597Y-7459599D02*
X-1597597Y-7485182D01*
X-1610388Y-7485182D01*
X-1614651Y-7480918D01*
X-1614651Y-7472390D01*
X-1610388Y-7468127D01*
X-1597597Y-7468127D01*
X-1589069Y-7472390D02*
X-1572014Y-7472390D01*
X-1559223Y-7485182D02*
X-1550696Y-7485182D01*
X-1546432Y-7480918D01*
X-1546432Y-7472390D01*
X-1550696Y-7468127D01*
X-1559223Y-7468127D01*
X-1563487Y-7472390D01*
X-1563487Y-7480918D01*
X-1559223Y-7485182D01*
X-1533641Y-7485182D02*
X-1533641Y-7463863D01*
X-1533641Y-7472390D01*
X-1537905Y-7472390D01*
X-1529377Y-7472390D01*
X-1533641Y-7472390D01*
X-1533641Y-7463863D01*
X-1529377Y-7459599D01*
X-1512322Y-7485182D02*
X-1512322Y-7463863D01*
X-1512322Y-7472390D01*
X-1516586Y-7472390D01*
X-1508059Y-7472390D01*
X-1512322Y-7472390D01*
X-1512322Y-7463863D01*
X-1508059Y-7459599D01*
X-1465421Y-7485182D02*
X-1465421Y-7463863D01*
X-1465421Y-7472390D01*
X-1469685Y-7472390D01*
X-1461158Y-7472390D01*
X-1465421Y-7472390D01*
X-1465421Y-7463863D01*
X-1461158Y-7459599D01*
X-1444103Y-7485182D02*
X-1435575Y-7485182D01*
X-1431312Y-7480918D01*
X-1431312Y-7472390D01*
X-1435575Y-7468127D01*
X-1444103Y-7468127D01*
X-1448366Y-7472390D01*
X-1448366Y-7480918D01*
X-1444103Y-7485182D01*
X-1422784Y-7468127D02*
X-1422784Y-7485182D01*
X-1422784Y-7476654D01*
X-1418520Y-7472390D01*
X-1414257Y-7468127D01*
X-1409993Y-7468127D01*
X-1367356Y-7463863D02*
X-1367356Y-7468127D01*
X-1371620Y-7468127D01*
X-1363092Y-7468127D01*
X-1367356Y-7468127D01*
X-1367356Y-7480918D01*
X-1363092Y-7485182D01*
X-1346037Y-7485182D02*
X-1337510Y-7485182D01*
X-1333246Y-7480918D01*
X-1333246Y-7472390D01*
X-1337510Y-7468127D01*
X-1346037Y-7468127D01*
X-1350301Y-7472390D01*
X-1350301Y-7480918D01*
X-1346037Y-7485182D01*
X-1324719Y-7493709D02*
X-1324719Y-7468127D01*
X-1311927Y-7468127D01*
X-1307664Y-7472390D01*
X-1307664Y-7480918D01*
X-1311927Y-7485182D01*
X-1324719Y-7485182D01*
X-1299136Y-7468127D02*
X-1294873Y-7468127D01*
X-1294873Y-7472390D01*
X-1299136Y-7472390D01*
X-1299136Y-7468127D01*
X-1299136Y-7480918D02*
X-1294873Y-7480918D01*
X-1294873Y-7485182D01*
X-1299136Y-7485182D01*
X-1299136Y-7480918D01*
X-1712717Y-7517262D02*
X-1712717Y-7542845D01*
X-1712717Y-7530053D01*
X-1695662Y-7530053D01*
X-1695662Y-7517262D01*
X-1695662Y-7542845D01*
X-1670080Y-7517262D02*
X-1687135Y-7517262D01*
X-1687135Y-7542845D01*
X-1670080Y-7542845D01*
X-1687135Y-7530053D02*
X-1678607Y-7530053D01*
X-1661552Y-7517262D02*
X-1644497Y-7542845D01*
X-1644497Y-7517262D02*
X-1661552Y-7542845D01*
X-1593333Y-7521526D02*
X-1597597Y-7517262D01*
X-1606124Y-7517262D01*
X-1610388Y-7521526D01*
X-1610388Y-7525790D01*
X-1606124Y-7530053D01*
X-1597597Y-7530053D01*
X-1593333Y-7534317D01*
X-1593333Y-7538581D01*
X-1597597Y-7542845D01*
X-1606124Y-7542845D01*
X-1610388Y-7538581D01*
X-1584805Y-7517262D02*
X-1567751Y-7517262D01*
X-1576278Y-7517262D01*
X-1576278Y-7542845D01*
X-1559223Y-7542845D02*
X-1559223Y-7525790D01*
X-1550696Y-7517262D01*
X-1542168Y-7525790D01*
X-1542168Y-7542845D01*
X-1542168Y-7530053D01*
X-1559223Y-7530053D01*
X-1533641Y-7542845D02*
X-1533641Y-7517262D01*
X-1516586Y-7542845D01*
X-1516586Y-7517262D01*
X-1508059Y-7517262D02*
X-1508059Y-7542845D01*
X-1495267Y-7542845D01*
X-1491004Y-7538581D01*
X-1491004Y-7521526D01*
X-1495267Y-7517262D01*
X-1508059Y-7517262D01*
X-1469685Y-7517262D02*
X-1478213Y-7517262D01*
X-1482476Y-7521526D01*
X-1482476Y-7538581D01*
X-1478213Y-7542845D01*
X-1469685Y-7542845D01*
X-1465421Y-7538581D01*
X-1465421Y-7521526D01*
X-1469685Y-7517262D01*
X-1439839Y-7517262D02*
X-1456894Y-7517262D01*
X-1456894Y-7530053D01*
X-1448367Y-7530053D01*
X-1456894Y-7530053D01*
X-1456894Y-7542845D01*
X-1414257Y-7517262D02*
X-1431312Y-7517262D01*
X-1431312Y-7530053D01*
X-1422784Y-7530053D01*
X-1431312Y-7530053D01*
X-1431312Y-7542845D01*
X-1375883Y-7542845D02*
X-1375883Y-7517262D01*
X-1367356Y-7517262D02*
X-1367356Y-7542845D01*
X-1380147Y-7525790D02*
X-1367356Y-7525790D01*
X-1363092Y-7525790D01*
X-1380147Y-7534317D02*
X-1363092Y-7534317D01*
X-1341774Y-7542845D02*
X-1341774Y-7517262D01*
X-1354565Y-7530053D01*
X-1337510Y-7530053D01*
X-1328982Y-7530053D02*
X-1311928Y-7530053D01*
X-1290609Y-7542845D02*
X-1290609Y-7517262D01*
X-1303400Y-7530053D01*
X-1286345Y-7530053D01*
X-1277818Y-7521526D02*
X-1273554Y-7517262D01*
X-1265027Y-7517262D01*
X-1260763Y-7521526D01*
X-1260763Y-7538581D01*
X-1265027Y-7542845D01*
X-1273554Y-7542845D01*
X-1277818Y-7538581D01*
X-1277818Y-7521526D01*
X-1209598Y-7521526D02*
X-1213862Y-7517262D01*
X-1222389Y-7517262D01*
X-1226653Y-7521526D01*
X-1226653Y-7525790D01*
X-1222389Y-7530053D01*
X-1213862Y-7530053D01*
X-1209598Y-7534317D01*
X-1209598Y-7538581D01*
X-1213862Y-7542845D01*
X-1222389Y-7542845D01*
X-1226653Y-7538581D01*
X-1184016Y-7521526D02*
X-1188280Y-7517262D01*
X-1196807Y-7517262D01*
X-1201071Y-7521526D01*
X-1201071Y-7525790D01*
X-1196807Y-7530053D01*
X-1188280Y-7530053D01*
X-1184016Y-7534317D01*
X-1184016Y-7538581D01*
X-1188280Y-7542845D01*
X-1196807Y-7542845D01*
X-1201071Y-7538581D01*
X-1149906Y-7517262D02*
X-1132851Y-7517262D01*
X-1132851Y-7521526D01*
X-1149906Y-7538581D01*
X-1149906Y-7542845D01*
X-1124324Y-7542845D02*
X-1107269Y-7525790D01*
X-1098742Y-7542845D02*
X-1090214Y-7542845D01*
X-1094478Y-7542845D01*
X-1094478Y-7517262D01*
X-1098742Y-7521526D01*
X-1060368Y-7517262D02*
X-1068896Y-7521526D01*
X-1077423Y-7530053D01*
X-1077423Y-7538581D01*
X-1073159Y-7542845D01*
X-1064632Y-7542845D01*
X-1060368Y-7538581D01*
X-1060368Y-7534317D01*
X-1064632Y-7530053D01*
X-1077423Y-7530053D01*
X-1047577Y-7512998D02*
X-1047577Y-7521526D01*
X-1051841Y-7525790D01*
X-1030522Y-7512998D02*
X-1030522Y-7521526D01*
X-1034786Y-7525790D01*
X-1712717Y-7587716D02*
X-1712717Y-7562134D01*
X-1699926Y-7562134D01*
X-1695662Y-7566398D01*
X-1695662Y-7574925D01*
X-1699926Y-7579189D01*
X-1712717Y-7579189D01*
X-1687135Y-7587716D02*
X-1670080Y-7570661D01*
X-1661552Y-7587716D02*
X-1661552Y-7562134D01*
X-1644497Y-7587716D01*
X-1644497Y-7562134D01*
X-1635970Y-7570661D02*
X-1631706Y-7570661D01*
X-1631706Y-7574925D01*
X-1635970Y-7574925D01*
X-1635970Y-7570661D01*
X-1635970Y-7583453D02*
X-1631706Y-7583453D01*
X-1631706Y-7587716D01*
X-1635970Y-7587716D01*
X-1635970Y-7583453D01*
X-1572014Y-7587716D02*
X-1589069Y-7587716D01*
X-1572014Y-7570661D01*
X-1572014Y-7566398D01*
X-1576278Y-7562134D01*
X-1584805Y-7562134D01*
X-1589069Y-7566398D01*
X-1563487Y-7566398D02*
X-1559223Y-7562134D01*
X-1550696Y-7562134D01*
X-1546432Y-7566398D01*
X-1546432Y-7583453D01*
X-1550696Y-7587716D01*
X-1559223Y-7587716D01*
X-1563487Y-7583453D01*
X-1563487Y-7566398D01*
X-1520850Y-7562134D02*
X-1537905Y-7562134D01*
X-1537905Y-7574925D01*
X-1529377Y-7570661D01*
X-1525113Y-7570661D01*
X-1520850Y-7574925D01*
X-1520850Y-7583453D01*
X-1525113Y-7587716D01*
X-1533641Y-7587716D01*
X-1537905Y-7583453D01*
X-1495267Y-7562134D02*
X-1503795Y-7566398D01*
X-1512322Y-7574925D01*
X-1512322Y-7583453D01*
X-1508059Y-7587716D01*
X-1499531Y-7587716D01*
X-1495267Y-7583453D01*
X-1495267Y-7579189D01*
X-1499531Y-7574925D01*
X-1512322Y-7574925D01*
X-1486740Y-7574925D02*
X-1469685Y-7574925D01*
X-1448366Y-7587716D02*
X-1448366Y-7562134D01*
X-1461158Y-7574925D01*
X-1444103Y-7574925D01*
X-1422784Y-7587716D02*
X-1422784Y-7562134D01*
X-1435575Y-7574925D01*
X-1418520Y-7574925D01*
X-1409993Y-7566398D02*
X-1405729Y-7562134D01*
X-1397202Y-7562134D01*
X-1392938Y-7566398D01*
X-1392938Y-7583453D01*
X-1397202Y-7587716D01*
X-1405729Y-7587716D01*
X-1409993Y-7583453D01*
X-1409993Y-7566398D01*
X-1384411Y-7574925D02*
X-1367356Y-7574925D01*
X-1341774Y-7566398D02*
X-1346037Y-7562134D01*
X-1354565Y-7562134D01*
X-1358828Y-7566398D01*
X-1358828Y-7570661D01*
X-1354565Y-7574925D01*
X-1346037Y-7574925D01*
X-1341774Y-7579189D01*
X-1341774Y-7583453D01*
X-1346037Y-7587716D01*
X-1354565Y-7587716D01*
X-1358828Y-7583453D01*
X-1316191Y-7566398D02*
X-1320455Y-7562134D01*
X-1328982Y-7562134D01*
X-1333246Y-7566398D01*
X-1333246Y-7570661D01*
X-1328982Y-7574925D01*
X-1320455Y-7574925D01*
X-1316191Y-7579189D01*
X-1316191Y-7583453D01*
X-1320455Y-7587716D01*
X-1328982Y-7587716D01*
X-1333246Y-7583453D01*
X-1705662Y-7712390D02*
X-1709926Y-7708127D01*
X-1718453Y-7708127D01*
X-1722717Y-7712390D01*
X-1722717Y-7716654D01*
X-1718453Y-7720918D01*
X-1709926Y-7720918D01*
X-1705662Y-7725182D01*
X-1705662Y-7729445D01*
X-1709926Y-7733709D01*
X-1718453Y-7733709D01*
X-1722717Y-7729445D01*
X-1692871Y-7712390D02*
X-1692871Y-7716654D01*
X-1697135Y-7716654D01*
X-1688607Y-7716654D01*
X-1692871Y-7716654D01*
X-1692871Y-7729445D01*
X-1688607Y-7733709D01*
X-1671552Y-7716654D02*
X-1663025Y-7716654D01*
X-1658761Y-7720918D01*
X-1658761Y-7733709D01*
X-1671552Y-7733709D01*
X-1675816Y-7729445D01*
X-1671552Y-7725182D01*
X-1658761Y-7725182D01*
X-1650234Y-7733709D02*
X-1650234Y-7716654D01*
X-1637443Y-7716654D01*
X-1633179Y-7720918D01*
X-1633179Y-7733709D01*
X-1607597Y-7708127D02*
X-1607597Y-7733709D01*
X-1620388Y-7733709D01*
X-1624651Y-7729445D01*
X-1624651Y-7720918D01*
X-1620388Y-7716654D01*
X-1607597Y-7716654D01*
X-1599069Y-7720918D02*
X-1582014Y-7720918D01*
X-1569223Y-7733709D02*
X-1560696Y-7733709D01*
X-1556432Y-7729445D01*
X-1556432Y-7720918D01*
X-1560696Y-7716654D01*
X-1569223Y-7716654D01*
X-1573487Y-7720918D01*
X-1573487Y-7729445D01*
X-1569223Y-7733709D01*
X-1543641Y-7733709D02*
X-1543641Y-7712390D01*
X-1543641Y-7720918D01*
X-1547905Y-7720918D01*
X-1539377Y-7720918D01*
X-1543641Y-7720918D01*
X-1543641Y-7712390D01*
X-1539377Y-7708127D01*
X-1522322Y-7733709D02*
X-1522322Y-7712390D01*
X-1522322Y-7720918D01*
X-1526586Y-7720918D01*
X-1518059Y-7720918D01*
X-1522322Y-7720918D01*
X-1522322Y-7712390D01*
X-1518059Y-7708127D01*
X-1475421Y-7733709D02*
X-1475421Y-7712390D01*
X-1475421Y-7720918D01*
X-1479685Y-7720918D01*
X-1471158Y-7720918D01*
X-1475421Y-7720918D01*
X-1475421Y-7712390D01*
X-1471158Y-7708127D01*
X-1454103Y-7733709D02*
X-1445575Y-7733709D01*
X-1441312Y-7729445D01*
X-1441312Y-7720918D01*
X-1445575Y-7716654D01*
X-1454103Y-7716654D01*
X-1458366Y-7720918D01*
X-1458366Y-7729445D01*
X-1454103Y-7733709D01*
X-1432784Y-7716654D02*
X-1432784Y-7733709D01*
X-1432784Y-7725182D01*
X-1428520Y-7720918D01*
X-1424257Y-7716654D01*
X-1419993Y-7716654D01*
X-1381620Y-7708127D02*
X-1381620Y-7733709D01*
X-1368828Y-7733709D01*
X-1364565Y-7729445D01*
X-1364565Y-7725182D01*
X-1364565Y-7720918D01*
X-1368828Y-7716654D01*
X-1381620Y-7716654D01*
X-1351774Y-7733709D02*
X-1343246Y-7733709D01*
X-1338982Y-7729445D01*
X-1338982Y-7720918D01*
X-1343246Y-7716654D01*
X-1351774Y-7716654D01*
X-1356037Y-7720918D01*
X-1356037Y-7729445D01*
X-1351774Y-7733709D01*
X-1326191Y-7712390D02*
X-1326191Y-7716654D01*
X-1330455Y-7716654D01*
X-1321928Y-7716654D01*
X-1326191Y-7716654D01*
X-1326191Y-7729445D01*
X-1321928Y-7733709D01*
X-1304873Y-7712390D02*
X-1304873Y-7716654D01*
X-1309136Y-7716654D01*
X-1300609Y-7716654D01*
X-1304873Y-7716654D01*
X-1304873Y-7729445D01*
X-1300609Y-7733709D01*
X-1283554Y-7733709D02*
X-1275026Y-7733709D01*
X-1270763Y-7729445D01*
X-1270763Y-7720918D01*
X-1275026Y-7716654D01*
X-1283554Y-7716654D01*
X-1287818Y-7720918D01*
X-1287818Y-7729445D01*
X-1283554Y-7733709D01*
X-1262235Y-7733709D02*
X-1262235Y-7716654D01*
X-1257972Y-7716654D01*
X-1253708Y-7720918D01*
X-1253708Y-7733709D01*
X-1253708Y-7720918D01*
X-1249444Y-7716654D01*
X-1245180Y-7720918D01*
X-1245180Y-7733709D01*
X-1236653Y-7716654D02*
X-1232389Y-7716654D01*
X-1232389Y-7720918D01*
X-1236653Y-7720918D01*
X-1236653Y-7716654D01*
X-1236653Y-7729445D02*
X-1232389Y-7729445D01*
X-1232389Y-7733709D01*
X-1236653Y-7733709D01*
X-1236653Y-7729445D01*
X-1722717Y-7757262D02*
X-1722717Y-7782845D01*
X-1722717Y-7770053D01*
X-1705662Y-7770053D01*
X-1705662Y-7757262D01*
X-1705662Y-7782845D01*
X-1680080Y-7757262D02*
X-1697135Y-7757262D01*
X-1697135Y-7782845D01*
X-1680080Y-7782845D01*
X-1697135Y-7770053D02*
X-1688607Y-7770053D01*
X-1671552Y-7757262D02*
X-1654497Y-7782845D01*
X-1654497Y-7757262D02*
X-1671552Y-7782845D01*
X-1603333Y-7761526D02*
X-1607597Y-7757262D01*
X-1616124Y-7757262D01*
X-1620388Y-7761526D01*
X-1620388Y-7765790D01*
X-1616124Y-7770053D01*
X-1607597Y-7770053D01*
X-1603333Y-7774317D01*
X-1603333Y-7778581D01*
X-1607597Y-7782845D01*
X-1616124Y-7782845D01*
X-1620388Y-7778581D01*
X-1594805Y-7757262D02*
X-1577751Y-7757262D01*
X-1586278Y-7757262D01*
X-1586278Y-7782845D01*
X-1569223Y-7782845D02*
X-1569223Y-7765790D01*
X-1560696Y-7757262D01*
X-1552168Y-7765790D01*
X-1552168Y-7782845D01*
X-1552168Y-7770053D01*
X-1569223Y-7770053D01*
X-1543641Y-7782845D02*
X-1543641Y-7757262D01*
X-1526586Y-7782845D01*
X-1526586Y-7757262D01*
X-1518059Y-7757262D02*
X-1518059Y-7782845D01*
X-1505267Y-7782845D01*
X-1501004Y-7778581D01*
X-1501004Y-7761526D01*
X-1505267Y-7757262D01*
X-1518059Y-7757262D01*
X-1479685Y-7757262D02*
X-1488213Y-7757262D01*
X-1492476Y-7761526D01*
X-1492476Y-7778581D01*
X-1488213Y-7782845D01*
X-1479685Y-7782845D01*
X-1475421Y-7778581D01*
X-1475421Y-7761526D01*
X-1479685Y-7757262D01*
X-1449839Y-7757262D02*
X-1466894Y-7757262D01*
X-1466894Y-7770053D01*
X-1458367Y-7770053D01*
X-1466894Y-7770053D01*
X-1466894Y-7782845D01*
X-1424257Y-7757262D02*
X-1441312Y-7757262D01*
X-1441312Y-7770053D01*
X-1432784Y-7770053D01*
X-1441312Y-7770053D01*
X-1441312Y-7782845D01*
X-1385883Y-7782845D02*
X-1385883Y-7757262D01*
X-1377356Y-7757262D02*
X-1377356Y-7782845D01*
X-1390147Y-7765790D02*
X-1377356Y-7765790D01*
X-1373092Y-7765790D01*
X-1390147Y-7774317D02*
X-1373092Y-7774317D01*
X-1351774Y-7782845D02*
X-1351774Y-7757262D01*
X-1364565Y-7770053D01*
X-1347510Y-7770053D01*
X-1338982Y-7770053D02*
X-1321928Y-7770053D01*
X-1300609Y-7782845D02*
X-1300609Y-7757262D01*
X-1313400Y-7770053D01*
X-1296345Y-7770053D01*
X-1287818Y-7761526D02*
X-1283554Y-7757262D01*
X-1275027Y-7757262D01*
X-1270763Y-7761526D01*
X-1270763Y-7778581D01*
X-1275027Y-7782845D01*
X-1283554Y-7782845D01*
X-1287818Y-7778581D01*
X-1287818Y-7761526D01*
X-1219598Y-7761526D02*
X-1223862Y-7757262D01*
X-1232389Y-7757262D01*
X-1236653Y-7761526D01*
X-1236653Y-7765790D01*
X-1232389Y-7770053D01*
X-1223862Y-7770053D01*
X-1219598Y-7774317D01*
X-1219598Y-7778581D01*
X-1223862Y-7782845D01*
X-1232389Y-7782845D01*
X-1236653Y-7778581D01*
X-1194016Y-7761526D02*
X-1198280Y-7757262D01*
X-1206807Y-7757262D01*
X-1211071Y-7761526D01*
X-1211071Y-7765790D01*
X-1206807Y-7770053D01*
X-1198280Y-7770053D01*
X-1194016Y-7774317D01*
X-1194016Y-7778581D01*
X-1198280Y-7782845D01*
X-1206807Y-7782845D01*
X-1211071Y-7778581D01*
X-1159906Y-7757262D02*
X-1142851Y-7757262D01*
X-1142851Y-7761526D01*
X-1159906Y-7778581D01*
X-1159906Y-7782845D01*
X-1134324Y-7782845D02*
X-1117269Y-7765790D01*
X-1108742Y-7782845D02*
X-1100214Y-7782845D01*
X-1104478Y-7782845D01*
X-1104478Y-7757262D01*
X-1108742Y-7761526D01*
X-1070368Y-7757262D02*
X-1078896Y-7761526D01*
X-1087423Y-7770053D01*
X-1087423Y-7778581D01*
X-1083159Y-7782845D01*
X-1074632Y-7782845D01*
X-1070368Y-7778581D01*
X-1070368Y-7774317D01*
X-1074632Y-7770053D01*
X-1087423Y-7770053D01*
X-1057577Y-7752998D02*
X-1057577Y-7761526D01*
X-1061841Y-7765790D01*
X-1040522Y-7752998D02*
X-1040522Y-7761526D01*
X-1044786Y-7765790D01*
X-1722717Y-7827716D02*
X-1722717Y-7802134D01*
X-1709926Y-7802134D01*
X-1705662Y-7806398D01*
X-1705662Y-7814925D01*
X-1709926Y-7819189D01*
X-1722717Y-7819189D01*
X-1697135Y-7827716D02*
X-1680080Y-7810661D01*
X-1671552Y-7827716D02*
X-1671552Y-7802134D01*
X-1654497Y-7827716D01*
X-1654497Y-7802134D01*
X-1645970Y-7810661D02*
X-1641706Y-7810661D01*
X-1641706Y-7814925D01*
X-1645970Y-7814925D01*
X-1645970Y-7810661D01*
X-1645970Y-7823453D02*
X-1641706Y-7823453D01*
X-1641706Y-7827716D01*
X-1645970Y-7827716D01*
X-1645970Y-7823453D01*
X-1586278Y-7827716D02*
X-1586278Y-7802134D01*
X-1599069Y-7814925D01*
X-1582014Y-7814925D01*
X-1556432Y-7802134D02*
X-1573487Y-7802134D01*
X-1573487Y-7814925D01*
X-1564959Y-7810661D01*
X-1560696Y-7810661D01*
X-1556432Y-7814925D01*
X-1556432Y-7823453D01*
X-1560696Y-7827716D01*
X-1569223Y-7827716D01*
X-1573487Y-7823453D01*
X-1547905Y-7806398D02*
X-1543641Y-7802134D01*
X-1535113Y-7802134D01*
X-1530850Y-7806398D01*
X-1530850Y-7823453D01*
X-1535113Y-7827716D01*
X-1543641Y-7827716D01*
X-1547905Y-7823453D01*
X-1547905Y-7806398D01*
X-1509531Y-7827716D02*
X-1509531Y-7802134D01*
X-1522322Y-7814925D01*
X-1505267Y-7814925D01*
X-1496740Y-7814925D02*
X-1479685Y-7814925D01*
X-1458366Y-7827716D02*
X-1458366Y-7802134D01*
X-1471158Y-7814925D01*
X-1454103Y-7814925D01*
X-1432784Y-7827716D02*
X-1432784Y-7802134D01*
X-1445575Y-7814925D01*
X-1428520Y-7814925D01*
X-1419993Y-7806398D02*
X-1415729Y-7802134D01*
X-1407202Y-7802134D01*
X-1402938Y-7806398D01*
X-1402938Y-7823453D01*
X-1407202Y-7827716D01*
X-1415729Y-7827716D01*
X-1419993Y-7823453D01*
X-1419993Y-7806398D01*
X-1394411Y-7814925D02*
X-1377356Y-7814925D01*
X-1351774Y-7806398D02*
X-1356037Y-7802134D01*
X-1364565Y-7802134D01*
X-1368828Y-7806398D01*
X-1368828Y-7810661D01*
X-1364565Y-7814925D01*
X-1356037Y-7814925D01*
X-1351774Y-7819189D01*
X-1351774Y-7823453D01*
X-1356037Y-7827716D01*
X-1364565Y-7827716D01*
X-1368828Y-7823453D01*
X-1326191Y-7806398D02*
X-1330455Y-7802134D01*
X-1338982Y-7802134D01*
X-1343246Y-7806398D01*
X-1343246Y-7810661D01*
X-1338982Y-7814925D01*
X-1330455Y-7814925D01*
X-1326191Y-7819189D01*
X-1326191Y-7823453D01*
X-1330455Y-7827716D01*
X-1338982Y-7827716D01*
X-1343246Y-7823453D01*
X-1188850Y1166109D02*
X-1193113Y1170373D01*
X-1201641Y1170373D01*
X-1205905Y1166109D01*
X-1205905Y1161845D01*
X-1201641Y1157582D01*
X-1193113Y1157582D01*
X-1188850Y1153318D01*
X-1188850Y1149054D01*
X-1193113Y1144791D01*
X-1201641Y1144791D01*
X-1205905Y1149054D01*
X-1176059Y1166109D02*
X-1176059Y1161845D01*
X-1180322Y1161845D01*
X-1171795Y1161845D01*
X-1176059Y1161845D01*
X-1176059Y1149054D01*
X-1171795Y1144791D01*
X-1154740Y1161845D02*
X-1146213Y1161845D01*
X-1141949Y1157582D01*
X-1141949Y1144791D01*
X-1154740Y1144791D01*
X-1159004Y1149054D01*
X-1154740Y1153318D01*
X-1141949Y1153318D01*
X-1133421Y1144791D02*
X-1133421Y1161845D01*
X-1120630Y1161845D01*
X-1116367Y1157582D01*
X-1116367Y1144791D01*
X-1090784Y1170373D02*
X-1090784Y1144791D01*
X-1103575Y1144791D01*
X-1107839Y1149054D01*
X-1107839Y1157582D01*
X-1103575Y1161845D01*
X-1090784Y1161845D01*
X-1082257Y1157582D02*
X-1065202Y1157582D01*
X-1052411Y1144791D02*
X-1043883Y1144791D01*
X-1039620Y1149054D01*
X-1039620Y1157582D01*
X-1043883Y1161845D01*
X-1052411Y1161845D01*
X-1056675Y1157582D01*
X-1056675Y1149054D01*
X-1052411Y1144791D01*
X-1026829Y1144791D02*
X-1026829Y1166109D01*
X-1026829Y1157582D01*
X-1031092Y1157582D01*
X-1022565Y1157582D01*
X-1026829Y1157582D01*
X-1026829Y1166109D01*
X-1022565Y1170373D01*
X-1005510Y1144791D02*
X-1005510Y1166109D01*
X-1005510Y1157582D01*
X-1009774Y1157582D01*
X-1001246Y1157582D01*
X-1005510Y1157582D01*
X-1005510Y1166109D01*
X-1001246Y1170373D01*
X-958609Y1144791D02*
X-958609Y1166109D01*
X-958609Y1157582D01*
X-962873Y1157582D01*
X-954345Y1157582D01*
X-958609Y1157582D01*
X-958609Y1166109D01*
X-954345Y1170373D01*
X-937290Y1144791D02*
X-928763Y1144791D01*
X-924499Y1149054D01*
X-924499Y1157582D01*
X-928763Y1161845D01*
X-937290Y1161845D01*
X-941554Y1157582D01*
X-941554Y1149054D01*
X-937290Y1144791D01*
X-915972Y1161845D02*
X-915972Y1144791D01*
X-915972Y1153318D01*
X-911708Y1157582D01*
X-907444Y1161845D01*
X-903181Y1161845D01*
X-864807Y1170373D02*
X-864807Y1144791D01*
X-852016Y1144791D01*
X-847752Y1149054D01*
X-847752Y1153318D01*
X-847752Y1157582D01*
X-852016Y1161845D01*
X-864807Y1161845D01*
X-834961Y1144791D02*
X-826434Y1144791D01*
X-822170Y1149054D01*
X-822170Y1157582D01*
X-826434Y1161845D01*
X-834961Y1161845D01*
X-839225Y1157582D01*
X-839225Y1149054D01*
X-834961Y1144791D01*
X-809379Y1166109D02*
X-809379Y1161845D01*
X-813643Y1161845D01*
X-805115Y1161845D01*
X-809379Y1161845D01*
X-809379Y1149054D01*
X-805115Y1144791D01*
X-788060Y1166109D02*
X-788060Y1161845D01*
X-792324Y1161845D01*
X-783797Y1161845D01*
X-788060Y1161845D01*
X-788060Y1149054D01*
X-783797Y1144791D01*
X-766742Y1144791D02*
X-758214Y1144791D01*
X-753951Y1149054D01*
X-753951Y1157582D01*
X-758214Y1161845D01*
X-766742Y1161845D01*
X-771005Y1157582D01*
X-771005Y1149054D01*
X-766742Y1144791D01*
X-745423Y1144791D02*
X-745423Y1161845D01*
X-741159Y1161845D01*
X-736896Y1157582D01*
X-736896Y1144791D01*
X-736896Y1157582D01*
X-732632Y1161845D01*
X-728368Y1157582D01*
X-728368Y1144791D01*
X-719841Y1161845D02*
X-715577Y1161845D01*
X-715577Y1157582D01*
X-719841Y1157582D01*
X-719841Y1161845D01*
X-719841Y1149054D02*
X-715577Y1149054D01*
X-715577Y1144791D01*
X-719841Y1144791D01*
X-719841Y1149054D01*
X-1205905Y1121237D02*
X-1205905Y1095655D01*
X-1205905Y1108446D01*
X-1188850Y1108446D01*
X-1188850Y1121237D01*
X-1188850Y1095655D01*
X-1163267Y1121237D02*
X-1180322Y1121237D01*
X-1180322Y1095655D01*
X-1163267Y1095655D01*
X-1180322Y1108446D02*
X-1171795Y1108446D01*
X-1154740Y1121237D02*
X-1137685Y1095655D01*
X-1137685Y1121237D02*
X-1154740Y1095655D01*
X-1086521Y1116974D02*
X-1090784Y1121237D01*
X-1099312Y1121237D01*
X-1103575Y1116974D01*
X-1103575Y1112710D01*
X-1099312Y1108446D01*
X-1090784Y1108446D01*
X-1086521Y1104182D01*
X-1086521Y1099919D01*
X-1090784Y1095655D01*
X-1099312Y1095655D01*
X-1103575Y1099919D01*
X-1077993Y1121237D02*
X-1060938Y1121237D01*
X-1069466Y1121237D01*
X-1069466Y1095655D01*
X-1052411Y1095655D02*
X-1052411Y1112710D01*
X-1043883Y1121237D01*
X-1035356Y1112710D01*
X-1035356Y1095655D01*
X-1035356Y1108446D01*
X-1052411Y1108446D01*
X-1026829Y1095655D02*
X-1026829Y1121237D01*
X-1009774Y1095655D01*
X-1009774Y1121237D01*
X-1001246Y1121237D02*
X-1001246Y1095655D01*
X-988455Y1095655D01*
X-984191Y1099919D01*
X-984191Y1116974D01*
X-988455Y1121237D01*
X-1001246Y1121237D01*
X-962873Y1121237D02*
X-971400Y1121237D01*
X-975664Y1116974D01*
X-975664Y1099919D01*
X-971400Y1095655D01*
X-962873Y1095655D01*
X-958609Y1099919D01*
X-958609Y1116974D01*
X-962873Y1121237D01*
X-933027Y1121237D02*
X-950082Y1121237D01*
X-950082Y1108446D01*
X-941554Y1108446D01*
X-950082Y1108446D01*
X-950082Y1095655D01*
X-907444Y1121237D02*
X-924499Y1121237D01*
X-924499Y1108446D01*
X-915972Y1108446D01*
X-924499Y1108446D01*
X-924499Y1095655D01*
X-869071Y1095655D02*
X-869071Y1121237D01*
X-860543Y1121237D02*
X-860543Y1095655D01*
X-873335Y1112710D02*
X-860543Y1112710D01*
X-856280Y1112710D01*
X-873335Y1104182D02*
X-856280Y1104182D01*
X-834961Y1095655D02*
X-834961Y1121237D01*
X-847752Y1108446D01*
X-830697Y1108446D01*
X-822170Y1108446D02*
X-805115Y1108446D01*
X-783797Y1095655D02*
X-783797Y1121237D01*
X-796588Y1108446D01*
X-779533Y1108446D01*
X-771005Y1116974D02*
X-766742Y1121237D01*
X-758214Y1121237D01*
X-753951Y1116974D01*
X-753951Y1099919D01*
X-758214Y1095655D01*
X-766742Y1095655D01*
X-771005Y1099919D01*
X-771005Y1116974D01*
X-702786Y1116974D02*
X-707050Y1121237D01*
X-715577Y1121237D01*
X-719841Y1116974D01*
X-719841Y1112710D01*
X-715577Y1108446D01*
X-707050Y1108446D01*
X-702786Y1104182D01*
X-702786Y1099919D01*
X-707050Y1095655D01*
X-715577Y1095655D01*
X-719841Y1099919D01*
X-677204Y1116974D02*
X-681467Y1121237D01*
X-689995Y1121237D01*
X-694259Y1116974D01*
X-694259Y1112710D01*
X-689995Y1108446D01*
X-681467Y1108446D01*
X-677204Y1104182D01*
X-677204Y1099919D01*
X-681467Y1095655D01*
X-689995Y1095655D01*
X-694259Y1099919D01*
X-643094Y1121237D02*
X-626039Y1121237D01*
X-626039Y1116974D01*
X-643094Y1099919D01*
X-643094Y1095655D01*
X-617512Y1095655D02*
X-600457Y1112710D01*
X-591929Y1095655D02*
X-583402Y1095655D01*
X-587666Y1095655D01*
X-587666Y1121237D01*
X-591929Y1116974D01*
X-553556Y1121237D02*
X-562083Y1116974D01*
X-570611Y1108446D01*
X-570611Y1099919D01*
X-566347Y1095655D01*
X-557820Y1095655D01*
X-553556Y1099919D01*
X-553556Y1104182D01*
X-557820Y1108446D01*
X-570611Y1108446D01*
X-540765Y1125501D02*
X-540765Y1116974D01*
X-545029Y1112710D01*
X-523710Y1125501D02*
X-523710Y1116974D01*
X-527974Y1112710D01*
X-1205905Y1050783D02*
X-1205905Y1076366D01*
X-1193113Y1076366D01*
X-1188850Y1072102D01*
X-1188850Y1063575D01*
X-1193113Y1059311D01*
X-1205905Y1059311D01*
X-1180322Y1050783D02*
X-1163267Y1067838D01*
X-1154740Y1050783D02*
X-1154740Y1076366D01*
X-1137685Y1050783D01*
X-1137685Y1076366D01*
X-1129158Y1067838D02*
X-1124894Y1067838D01*
X-1124894Y1063575D01*
X-1129158Y1063575D01*
X-1129158Y1067838D01*
X-1129158Y1055047D02*
X-1124894Y1055047D01*
X-1124894Y1050783D01*
X-1129158Y1050783D01*
X-1129158Y1055047D01*
X-1069466Y1050783D02*
X-1069466Y1076366D01*
X-1082257Y1063575D01*
X-1065202Y1063575D01*
X-1039620Y1076366D02*
X-1056675Y1076366D01*
X-1056675Y1063575D01*
X-1048147Y1067838D01*
X-1043883Y1067838D01*
X-1039620Y1063575D01*
X-1039620Y1055047D01*
X-1043883Y1050783D01*
X-1052411Y1050783D01*
X-1056675Y1055047D01*
X-1031092Y1072102D02*
X-1026829Y1076366D01*
X-1018301Y1076366D01*
X-1014037Y1072102D01*
X-1014037Y1055047D01*
X-1018301Y1050783D01*
X-1026829Y1050783D01*
X-1031092Y1055047D01*
X-1031092Y1072102D01*
X-992719Y1050783D02*
X-992719Y1076366D01*
X-1005510Y1063575D01*
X-988455Y1063575D01*
X-979928Y1063575D02*
X-962873Y1063575D01*
X-941554Y1050783D02*
X-941554Y1076366D01*
X-954345Y1063575D01*
X-937290Y1063575D01*
X-915972Y1050783D02*
X-915972Y1076366D01*
X-928763Y1063575D01*
X-911708Y1063575D01*
X-903181Y1072102D02*
X-898917Y1076366D01*
X-890389Y1076366D01*
X-886126Y1072102D01*
X-886126Y1055047D01*
X-890389Y1050783D01*
X-898917Y1050783D01*
X-903181Y1055047D01*
X-903181Y1072102D01*
X-877598Y1063575D02*
X-860543Y1063575D01*
X-834961Y1072102D02*
X-839225Y1076366D01*
X-847752Y1076366D01*
X-852016Y1072102D01*
X-852016Y1067838D01*
X-847752Y1063575D01*
X-839225Y1063575D01*
X-834961Y1059311D01*
X-834961Y1055047D01*
X-839225Y1050783D01*
X-847752Y1050783D01*
X-852016Y1055047D01*
X-809379Y1072102D02*
X-813643Y1076366D01*
X-822170Y1076366D01*
X-826434Y1072102D01*
X-826434Y1067838D01*
X-822170Y1063575D01*
X-813643Y1063575D01*
X-809379Y1059311D01*
X-809379Y1055047D01*
X-813643Y1050783D01*
X-822170Y1050783D01*
X-826434Y1055047D01*
X-428622Y-7329539D02*
X-428622Y-7355122D01*
X-415831Y-7355122D01*
X-411567Y-7350858D01*
X-411567Y-7346594D01*
X-415831Y-7342330D01*
X-428622Y-7342330D01*
X-415831Y-7342330D01*
X-411567Y-7338067D01*
X-411567Y-7333803D01*
X-415831Y-7329539D01*
X-428622Y-7329539D01*
X-403040Y-7329539D02*
X-403040Y-7355122D01*
X-390249Y-7355122D01*
X-385985Y-7350858D01*
X-385985Y-7346594D01*
X-390249Y-7342330D01*
X-403040Y-7342330D01*
X-390249Y-7342330D01*
X-385985Y-7338067D01*
X-385985Y-7333803D01*
X-390249Y-7329539D01*
X-403040Y-7329539D01*
X-377458Y-7329539D02*
X-377458Y-7355122D01*
X-364666Y-7355122D01*
X-360403Y-7350858D01*
X-360403Y-7346594D01*
X-364666Y-7342330D01*
X-377458Y-7342330D01*
X-364666Y-7342330D01*
X-360403Y-7338067D01*
X-360403Y-7333803D01*
X-364666Y-7329539D01*
X-377458Y-7329539D01*
X-326293Y-7355122D02*
X-326293Y-7329539D01*
X-313502Y-7329539D01*
X-309238Y-7333803D01*
X-309238Y-7342330D01*
X-313502Y-7346594D01*
X-326293Y-7346594D01*
X-296447Y-7355122D02*
X-287920Y-7355122D01*
X-283656Y-7350858D01*
X-283656Y-7342330D01*
X-287920Y-7338067D01*
X-296447Y-7338067D01*
X-300711Y-7342330D01*
X-300711Y-7350858D01*
X-296447Y-7355122D01*
X-275128Y-7355122D02*
X-262337Y-7355122D01*
X-258074Y-7350858D01*
X-262337Y-7346594D01*
X-270865Y-7346594D01*
X-275128Y-7342330D01*
X-270865Y-7338067D01*
X-258074Y-7338067D01*
X-249546Y-7355122D02*
X-241019Y-7355122D01*
X-245282Y-7355122D01*
X-245282Y-7338067D01*
X-249546Y-7338067D01*
X-223964Y-7333803D02*
X-223964Y-7338067D01*
X-228228Y-7338067D01*
X-219700Y-7338067D01*
X-223964Y-7338067D01*
X-223964Y-7350858D01*
X-219700Y-7355122D01*
X-206909Y-7355122D02*
X-198382Y-7355122D01*
X-202645Y-7355122D01*
X-202645Y-7338067D01*
X-206909Y-7338067D01*
X-181327Y-7355122D02*
X-172799Y-7355122D01*
X-168536Y-7350858D01*
X-168536Y-7342330D01*
X-172799Y-7338067D01*
X-181327Y-7338067D01*
X-185590Y-7342330D01*
X-185590Y-7350858D01*
X-181327Y-7355122D01*
X-160008Y-7355122D02*
X-160008Y-7338067D01*
X-147217Y-7338067D01*
X-142953Y-7342330D01*
X-142953Y-7355122D01*
X-83261Y-7329539D02*
X-66206Y-7355122D01*
X-66206Y-7329539D02*
X-83261Y-7355122D01*
X-57679Y-7338067D02*
X-53415Y-7338067D01*
X-53415Y-7342330D01*
X-57679Y-7342330D01*
X-57679Y-7338067D01*
X-57679Y-7350858D02*
X-53415Y-7350858D01*
X-53415Y-7355122D01*
X-57679Y-7355122D01*
X-57679Y-7350858D01*
X-10778Y-7355122D02*
X-2251Y-7355122D01*
X-6514Y-7355122D01*
X-6514Y-7329539D01*
X-10778Y-7333803D01*
X10541Y-7333803D02*
X14804Y-7329539D01*
X23332Y-7329539D01*
X27596Y-7333803D01*
X27596Y-7338067D01*
X23332Y-7342330D01*
X19068Y-7342330D01*
X23332Y-7342330D01*
X27596Y-7346594D01*
X27596Y-7350858D01*
X23332Y-7355122D01*
X14804Y-7355122D01*
X10541Y-7350858D01*
X53178Y-7355122D02*
X36123Y-7355122D01*
X53178Y-7338067D01*
X53178Y-7333803D01*
X48914Y-7329539D01*
X40387Y-7329539D01*
X36123Y-7333803D01*
X61705Y-7333803D02*
X65969Y-7329539D01*
X74496Y-7329539D01*
X78760Y-7333803D01*
X78760Y-7350858D01*
X74496Y-7355122D01*
X65969Y-7355122D01*
X61705Y-7350858D01*
X61705Y-7333803D01*
X112870Y-7355122D02*
X112870Y-7338067D01*
X117133Y-7338067D01*
X121397Y-7342330D01*
X121397Y-7355122D01*
X121397Y-7342330D01*
X125661Y-7338067D01*
X129925Y-7342330D01*
X129925Y-7355122D01*
X138452Y-7355122D02*
X146980Y-7355122D01*
X142716Y-7355122D01*
X142716Y-7338067D01*
X138452Y-7338067D01*
X159771Y-7355122D02*
X168298Y-7355122D01*
X164034Y-7355122D01*
X164034Y-7329539D01*
X159771Y-7329539D01*
X257836Y-7329539D02*
X257836Y-7333803D01*
X266364Y-7342330D01*
X274891Y-7333803D01*
X274891Y-7329539D01*
X266364Y-7342330D02*
X266364Y-7355122D01*
X283418Y-7338067D02*
X287682Y-7338067D01*
X287682Y-7342330D01*
X283418Y-7342330D01*
X283418Y-7338067D01*
X283418Y-7350858D02*
X287682Y-7350858D01*
X287682Y-7355122D01*
X283418Y-7355122D01*
X283418Y-7350858D01*
X304737Y-7355122D02*
X313264Y-7355122D01*
X309001Y-7355122D01*
X309001Y-7329539D01*
X304737Y-7333803D01*
X343111Y-7329539D02*
X334583Y-7333803D01*
X326056Y-7342330D01*
X326056Y-7350858D01*
X330319Y-7355122D01*
X338847Y-7355122D01*
X343111Y-7350858D01*
X343111Y-7346594D01*
X338847Y-7342330D01*
X326056Y-7342330D01*
X351638Y-7333803D02*
X355902Y-7329539D01*
X364429Y-7329539D01*
X368693Y-7333803D01*
X368693Y-7350858D01*
X364429Y-7355122D01*
X355902Y-7355122D01*
X351638Y-7350858D01*
X351638Y-7333803D01*
X377220Y-7333803D02*
X381484Y-7329539D01*
X390012Y-7329539D01*
X394275Y-7333803D01*
X394275Y-7350858D01*
X390012Y-7355122D01*
X381484Y-7355122D01*
X377220Y-7350858D01*
X377220Y-7333803D01*
X428385Y-7355122D02*
X428385Y-7338067D01*
X432649Y-7338067D01*
X436912Y-7342330D01*
X436912Y-7355122D01*
X436912Y-7342330D01*
X441176Y-7338067D01*
X445440Y-7342330D01*
X445440Y-7355122D01*
X453967Y-7355122D02*
X462495Y-7355122D01*
X458231Y-7355122D01*
X458231Y-7338067D01*
X453967Y-7338067D01*
X475286Y-7355122D02*
X483813Y-7355122D01*
X479550Y-7355122D01*
X479550Y-7329539D01*
X475286Y-7329539D01*
D74*
X203701Y-2532130D02*
G03*
X203701Y-2532130I-19685J0D01*
G01*
X208291Y-2097350D02*
G03*
X208291Y-2097350I-19685J0D01*
G01*
X1229158Y-3792161D02*
G03*
X1229158Y-3792161I-19685J0D01*
G01*
X163859Y-1760161D02*
G03*
X163859Y-1760161I-19685J0D01*
G01*
X514173Y-1965669D02*
X535827Y-1965669D01*
X514173Y-1924331D02*
X535827Y-1924331D01*
X514173Y-1965669D02*
X514173Y-1924331D01*
X535827Y-1965669D02*
X535827Y-1924331D01*
X-26575Y-4858307D02*
X26575Y-4858307D01*
X-26575Y-4771693D02*
X26575Y-4771693D01*
X-26575Y-4858307D02*
X-26575Y-4771693D01*
X26575Y-4858307D02*
X26575Y-4771693D01*
X-46575Y-4578307D02*
X6575Y-4578307D01*
X-46575Y-4491693D02*
X6575Y-4491693D01*
X-46575Y-4578307D02*
X-46575Y-4491693D01*
X6575Y-4578307D02*
X6575Y-4491693D01*
X-521575Y-5153307D02*
X-468425Y-5153307D01*
X-521575Y-5066693D02*
X-468425Y-5066693D01*
X-521575Y-5153307D02*
X-521575Y-5066693D01*
X-468425Y-5153307D02*
X-468425Y-5066693D01*
X-1106575Y-4838307D02*
X-1053425Y-4838307D01*
X-1106575Y-4751693D02*
X-1053425Y-4751693D01*
X-1053425Y-4838307D02*
X-1053425Y-4751693D01*
X-1106575Y-4838307D02*
X-1106575Y-4751693D01*
X-1101575Y-5358307D02*
X-1048425Y-5358307D01*
X-1101575Y-5271693D02*
X-1048425Y-5271693D01*
X-1048425Y-5358307D02*
X-1048425Y-5271693D01*
X-1101575Y-5358307D02*
X-1101575Y-5271693D01*
X-1116575Y-5658307D02*
X-1063425Y-5658307D01*
X-1116575Y-5571693D02*
X-1063425Y-5571693D01*
X-1063425Y-5658307D02*
X-1063425Y-5571693D01*
X-1116575Y-5658307D02*
X-1116575Y-5571693D01*
X-1096575Y-4218307D02*
X-1043425Y-4218307D01*
X-1096575Y-4131693D02*
X-1043425Y-4131693D01*
X-1043425Y-4218307D02*
X-1043425Y-4131693D01*
X-1096575Y-4218307D02*
X-1096575Y-4131693D01*
X-1101575Y-5096688D02*
X-1048425Y-5096688D01*
X-1101575Y-5010074D02*
X-1048425Y-5010074D01*
X-1048425Y-5096688D02*
X-1048425Y-5010074D01*
X-1101575Y-5096688D02*
X-1101575Y-5010074D01*
X474173Y-1924331D02*
X495827Y-1924331D01*
X474173Y-1965669D02*
X495827Y-1965669D01*
X495827Y-1924331D01*
X474173Y-1965669D02*
X474173Y-1924331D01*
X-90827Y-1965669D02*
X-69173Y-1965669D01*
X-90827Y-1924331D02*
X-69173Y-1924331D01*
X-90827Y-1965669D02*
X-90827Y-1924331D01*
X-69173Y-1965669D02*
X-69173Y-1924331D01*
X-379449Y-5165039D02*
X-310551Y-5165039D01*
X-379449Y-5044961D02*
X-310551Y-5044961D01*
X-310551Y-5165039D02*
X-310551Y-5044961D01*
X-379449Y-5165039D02*
X-379449Y-5044961D01*
X101497Y-4890039D02*
X170395Y-4890039D01*
X101497Y-4769961D02*
X170395Y-4769961D01*
X170395Y-4890039D02*
X170395Y-4769961D01*
X101497Y-4890039D02*
X101497Y-4769961D01*
X89529Y-5177756D02*
X158427Y-5177756D01*
X89529Y-5057677D02*
X158427Y-5057677D01*
X158427Y-5177756D02*
X158427Y-5057677D01*
X89529Y-5177756D02*
X89529Y-5057677D01*
X-130827Y-1924331D02*
X-109173Y-1924331D01*
X-130827Y-1965669D02*
X-109173Y-1965669D01*
X-109173Y-1924331D01*
X-130827Y-1965669D02*
X-130827Y-1924331D01*
X-173503Y-1965669D02*
X-151849Y-1965669D01*
X-173503Y-1924331D02*
X-151849Y-1924331D01*
X-173503Y-1965669D02*
X-173503Y-1924331D01*
X-151849Y-1965669D02*
X-151849Y-1924331D01*
X-66575Y-5151693D02*
X-13425Y-5151693D01*
X-66575Y-5238307D02*
X-13425Y-5238307D01*
X-13425Y-5151693D01*
X-66575Y-5238307D02*
X-66575Y-5151693D01*
X-359449Y-4583661D02*
X-290551Y-4583661D01*
X-359449Y-4463583D02*
X-290551Y-4463583D01*
X-290551Y-4583661D02*
X-290551Y-4463583D01*
X-359449Y-4583661D02*
X-359449Y-4463583D01*
X-516575Y-4583307D02*
X-463425Y-4583307D01*
X-516575Y-4496693D02*
X-463425Y-4496693D01*
X-516575Y-4583307D02*
X-516575Y-4496693D01*
X-463425Y-4583307D02*
X-463425Y-4496693D01*
X4173Y-2526249D02*
X25827Y-2526249D01*
X4173Y-2567587D02*
X25827Y-2567587D01*
X25827Y-2526249D01*
X4173Y-2567587D02*
X4173Y-2526249D01*
X-50827Y-1965669D02*
X-29173Y-1965669D01*
X-50827Y-1924331D02*
X-29173Y-1924331D01*
X-50827Y-1965669D02*
X-50827Y-1924331D01*
X-29173Y-1965669D02*
X-29173Y-1924331D01*
X-10827Y-1924331D02*
X10827Y-1924331D01*
X-10827Y-1965669D02*
X10827Y-1965669D01*
X10827Y-1924331D01*
X-10827Y-1965669D02*
X-10827Y-1924331D01*
X434607Y-1965669D02*
X456261Y-1965669D01*
X434607Y-1924331D02*
X456261Y-1924331D01*
X434607Y-1965669D02*
X434607Y-1924331D01*
X456261Y-1965669D02*
X456261Y-1924331D01*
X559173Y-1965669D02*
X580827Y-1965669D01*
X559173Y-1924331D02*
X580827Y-1924331D01*
X559173Y-1965669D02*
X559173Y-1924331D01*
X580827Y-1965669D02*
X580827Y-1924331D01*
X1213977Y234449D02*
X1213977Y256102D01*
X1172638Y234449D02*
X1172638Y256102D01*
X1172638Y234449D02*
X1213977Y234449D01*
X1172638Y256102D02*
X1213977Y256102D01*
X-140078Y-4866928D02*
X-140078Y-4780314D01*
X-197164Y-4866928D02*
X-197164Y-4780314D01*
X-140078Y-4780314D01*
X-197164Y-4866928D02*
X-140078Y-4866928D01*
X-331928Y-4412166D02*
X-245314Y-4412166D01*
X-331928Y-4355078D02*
X-245314Y-4355078D01*
X-245314Y-4412166D02*
X-245314Y-4355078D01*
X-331928Y-4412166D02*
X-331928Y-4355078D01*
X138072Y-5022166D02*
X224686Y-5022166D01*
X138072Y-4965078D02*
X224686Y-4965078D01*
X224686Y-5022166D02*
X224686Y-4965078D01*
X138072Y-5022166D02*
X138072Y-4965078D01*
X128072Y-4712166D02*
X214686Y-4712166D01*
X128072Y-4655078D02*
X214686Y-4655078D01*
X214686Y-4712166D02*
X214686Y-4655078D01*
X128072Y-4712166D02*
X128072Y-4655078D01*
X-140078Y-5193307D02*
X-140078Y-5106693D01*
X-197166Y-5193307D02*
X-197166Y-5106693D01*
X-140078Y-5106693D01*
X-197166Y-5193307D02*
X-140078Y-5193307D01*
X138072Y-4412166D02*
X224686Y-4412166D01*
X138072Y-4355078D02*
X224686Y-4355078D01*
X224686Y-4412166D02*
X224686Y-4355078D01*
X138072Y-4412166D02*
X138072Y-4355078D01*
X-1017164Y-5570314D02*
X-960078Y-5570314D01*
X-1017164Y-5656930D02*
X-960078Y-5656930D01*
X-1017164Y-5656930D02*
X-1017164Y-5570314D01*
X-960078Y-5656930D02*
X-960078Y-5570314D01*
X-1017164Y-5270314D02*
X-960078Y-5270314D01*
X-1017164Y-5356930D02*
X-960078Y-5356930D01*
X-1017164Y-5356930D02*
X-1017164Y-5270314D01*
X-960078Y-5356930D02*
X-960078Y-5270314D01*
X-1017164Y-5010314D02*
X-960078Y-5010314D01*
X-1017164Y-5096930D02*
X-960078Y-5096930D01*
X-1017164Y-5096930D02*
X-1017164Y-5010314D01*
X-960078Y-5096930D02*
X-960078Y-5010314D01*
X-1017164Y-4470314D02*
X-960078Y-4470314D01*
X-1017164Y-4556930D02*
X-960078Y-4556930D01*
X-1017164Y-4556930D02*
X-1017164Y-4470314D01*
X-960078Y-4556930D02*
X-960078Y-4470314D01*
X-1017164Y-4750314D02*
X-960078Y-4750314D01*
X-1017164Y-4836930D02*
X-960078Y-4836930D01*
X-1017164Y-4836930D02*
X-1017164Y-4750314D01*
X-960078Y-4836930D02*
X-960078Y-4750314D01*
X-1017164Y-4130314D02*
X-960078Y-4130314D01*
X-1017164Y-4216930D02*
X-960078Y-4216930D01*
X-1017164Y-4216930D02*
X-1017164Y-4130314D01*
X-960078Y-4216930D02*
X-960078Y-4130314D01*
X-442046Y-4876928D02*
X-442046Y-4790314D01*
X-495196Y-4876928D02*
X-495196Y-4790314D01*
X-442046Y-4790314D01*
X-495196Y-4876928D02*
X-442046Y-4876928D01*
X-1095196Y-4556928D02*
X-1095196Y-4470314D01*
X-1042046Y-4556928D02*
X-1042046Y-4470314D01*
X-1095196Y-4470314D02*
X-1042046Y-4470314D01*
X-1095196Y-4556928D02*
X-1042046Y-4556928D01*
X-358070Y-4883662D02*
X-358070Y-4763582D01*
X-289172Y-4883662D02*
X-289172Y-4763582D01*
X-358070Y-4763582D02*
X-289172Y-4763582D01*
X-358070Y-4883662D02*
X-289172Y-4883662D01*
X101497Y-4590040D02*
X101497Y-4469960D01*
X170395Y-4590040D02*
X170395Y-4469960D01*
X101497Y-4469960D02*
X170395Y-4469960D01*
X101497Y-4590040D02*
X170395Y-4590040D01*
X997796Y214842D02*
X1084410Y214842D01*
X997796Y271930D02*
X1084410Y271930D01*
X1084410Y214842D02*
X1084410Y271930D01*
X997796Y214842D02*
X997796Y271930D01*
X148584Y-2693548D02*
X148584Y-2496696D01*
X306064Y-2693548D02*
X306064Y-2496696D01*
X148584Y-2496696D02*
X306064Y-2496696D01*
X148584Y-2693548D02*
X306064Y-2693548D01*
X596496Y-1965792D02*
X596496Y-1924452D01*
X618150Y-1965792D02*
X618150Y-1924452D01*
X596496Y-1965792D02*
X618150Y-1965792D01*
X596496Y-1924452D02*
X618150Y-1924452D01*
X396496Y-1965792D02*
X396496Y-1924452D01*
X418150Y-1965792D02*
X418150Y-1924452D01*
X396496Y-1965792D02*
X418150Y-1965792D01*
X396496Y-1924452D02*
X418150Y-1924452D01*
X153174Y-2183964D02*
X153174Y-2061916D01*
X275220Y-2183964D02*
X275220Y-2061916D01*
X153174Y-2061916D02*
X275220Y-2061916D01*
X153174Y-2183964D02*
X275220Y-2183964D01*
X1067740Y-3957516D02*
X1244906Y-3957516D01*
X1067740Y-3756728D02*
X1244906Y-3756728D01*
X1067740Y-3957516D02*
X1067740Y-3756728D01*
X1244906Y-3957516D02*
X1244906Y-3756728D01*
X108740Y-1925516D02*
X108740Y-1724728D01*
X285906Y-1925516D02*
X285906Y-1724728D01*
X108740Y-1724728D02*
X285906Y-1724728D01*
X108740Y-1925516D02*
X285906Y-1925516D01*
X179748Y-2401996D02*
X248646Y-2401996D01*
X179748Y-2283886D02*
X248646Y-2283886D01*
X248646Y-2401996D02*
X248646Y-2283886D01*
X179748Y-2401996D02*
X179748Y-2283886D01*
X3370Y-2643610D02*
X3370Y-2602272D01*
X25024Y-2643610D02*
X25024Y-2602272D01*
X3370Y-2643610D02*
X25024Y-2643610D01*
X3370Y-2602272D02*
X25024Y-2602272D01*
X-36630Y-2713610D02*
X-36630Y-2672272D01*
X-14976Y-2713610D02*
X-14976Y-2672272D01*
X-36630Y-2713610D02*
X-14976Y-2713610D01*
X-36630Y-2672272D02*
X-14976Y-2672272D01*
X25024Y-2713610D02*
X25024Y-2672272D01*
X3370Y-2713610D02*
X3370Y-2672272D01*
X25024Y-2672272D01*
X3370Y-2713610D02*
X25024Y-2713610D01*
X-214644Y-1965670D02*
X-214644Y-1924330D01*
X-192990Y-1965670D02*
X-192990Y-1924330D01*
X-214644Y-1965670D02*
X-192990Y-1965670D01*
X-214644Y-1924330D02*
X-192990Y-1924330D01*
X-21220Y-2198430D02*
X-21220Y-2111814D01*
X35866Y-2198430D02*
X35866Y-2111814D01*
X-21220Y-2198430D02*
X35866Y-2198430D01*
X-21220Y-2111814D02*
X35866Y-2111814D01*
X358780Y-2248430D02*
X358780Y-2161814D01*
X415866Y-2248430D02*
X415866Y-2161814D01*
X358780Y-2248430D02*
X415866Y-2248430D01*
X358780Y-2161814D02*
X415866Y-2161814D01*
X365512Y-2346776D02*
X365512Y-2303468D01*
X389134Y-2346776D02*
X389134Y-2303468D01*
X365512Y-2346776D02*
X389134Y-2346776D01*
X365512Y-2303468D02*
X389134Y-2303468D01*
X75512Y-2346776D02*
X75512Y-2303468D01*
X99134Y-2346776D02*
X99134Y-2303468D01*
X75512Y-2346776D02*
X99134Y-2346776D01*
X75512Y-2303468D02*
X99134Y-2303468D01*
D78*
X78468Y-7819300D02*
X78468Y-7779943D01*
X58789Y-7799622D01*
X85027Y-7799622D01*
X98147Y-7819300D02*
X111266Y-7819300D01*
X104706Y-7819300D01*
X104706Y-7779943D01*
X98147Y-7786502D01*
X130944Y-7819300D02*
X130944Y-7812741D01*
X137504Y-7812741D01*
X137504Y-7819300D01*
X130944Y-7819300D01*
X163742Y-7812741D02*
X170302Y-7819300D01*
X183421Y-7819300D01*
X189980Y-7812741D01*
X189980Y-7786502D01*
X183421Y-7779943D01*
X170302Y-7779943D01*
X163742Y-7786502D01*
X163742Y-7793062D01*
X170302Y-7799622D01*
X189980Y-7799622D01*
X203100Y-7819300D02*
X216219Y-7819300D01*
X209659Y-7819300D01*
X209659Y-7779943D01*
X203100Y-7786502D01*
X-2235741Y-1612890D02*
X-2242301Y-1606331D01*
X-2242301Y-1593212D01*
X-2235741Y-1586652D01*
X-2229182Y-1586652D01*
X-2222622Y-1593212D01*
X-2222622Y-1599771D01*
X-2222622Y-1593212D01*
X-2216063Y-1586652D01*
X-2209503Y-1586652D01*
X-2202944Y-1593212D01*
X-2202944Y-1606331D01*
X-2209503Y-1612890D01*
X-2242301Y-1573533D02*
X-2242301Y-1547295D01*
X-2235741Y-1547295D01*
X-2209503Y-1573533D01*
X-2202944Y-1573533D01*
X-2235741Y-1534176D02*
X-2242301Y-1527616D01*
X-2242301Y-1514497D01*
X-2235741Y-1507937D01*
X-2209503Y-1507937D01*
X-2202944Y-1514497D01*
X-2202944Y-1527616D01*
X-2209503Y-1534176D01*
X-2235741Y-1534176D01*
X-2235741Y-1494818D02*
X-2242301Y-1488259D01*
X-2242301Y-1475139D01*
X-2235741Y-1468580D01*
X-2229182Y-1468580D01*
X-2222622Y-1475139D01*
X-2216063Y-1468580D01*
X-2209503Y-1468580D01*
X-2202944Y-1475139D01*
X-2202944Y-1488259D01*
X-2209503Y-1494818D01*
X-2216063Y-1494818D01*
X-2222622Y-1488259D01*
X-2229182Y-1494818D01*
X-2235741Y-1494818D01*
X-2222622Y-1488259D02*
X-2222622Y-1475139D01*
X-2202944Y-1455461D02*
X-2209503Y-1455461D01*
X-2209503Y-1448901D01*
X-2202944Y-1448901D01*
X-2202944Y-1455461D01*
X-2242301Y-1422663D02*
X-2242301Y-1396425D01*
X-2235741Y-1396425D01*
X-2209503Y-1422663D01*
X-2202944Y-1422663D01*
X-1388622Y-3775443D02*
X-1427980Y-3775443D01*
X-1408301Y-3795122D01*
X-1408301Y-3768883D01*
X-1388622Y-3755764D02*
X-1395182Y-3755764D01*
X-1395182Y-3749205D01*
X-1388622Y-3749205D01*
X-1388622Y-3755764D01*
X-1421420Y-3722966D02*
X-1427980Y-3716407D01*
X-1427980Y-3703288D01*
X-1421420Y-3696728D01*
X-1395182Y-3696728D01*
X-1388622Y-3703288D01*
X-1388622Y-3716407D01*
X-1395182Y-3722966D01*
X-1421420Y-3722966D01*
X-1421420Y-3683609D02*
X-1427980Y-3677049D01*
X-1427980Y-3663930D01*
X-1421420Y-3657371D01*
X-1395182Y-3657371D01*
X-1388622Y-3663930D01*
X-1388622Y-3677049D01*
X-1395182Y-3683609D01*
X-1421420Y-3683609D01*
X35635Y648557D02*
X9396Y648557D01*
X9396Y628878D01*
X22516Y635438D01*
X29075Y635438D01*
X35635Y628878D01*
X35635Y615759D01*
X29075Y609200D01*
X15956Y609200D01*
X9396Y615759D01*
X68433Y609200D02*
X68433Y648557D01*
X48754Y628878D01*
X74992Y628878D01*
X88111Y609200D02*
X88111Y615759D01*
X94671Y615759D01*
X94671Y609200D01*
X88111Y609200D01*
X120909Y641997D02*
X127469Y648557D01*
X140588Y648557D01*
X147147Y641997D01*
X147147Y615759D01*
X140588Y609200D01*
X127469Y609200D01*
X120909Y615759D01*
X120909Y641997D01*
X160267Y641997D02*
X166826Y648557D01*
X179945Y648557D01*
X186505Y641997D01*
X186505Y615759D01*
X179945Y609200D01*
X166826Y609200D01*
X160267Y615759D01*
X160267Y641997D01*
X199624Y609200D02*
X199624Y635438D01*
X206184Y635438D01*
X212743Y628878D01*
X212743Y609200D01*
X212743Y628878D01*
X219303Y635438D01*
X225862Y628878D01*
X225862Y609200D01*
X238981Y609200D02*
X238981Y635438D01*
X245541Y635438D01*
X252100Y628878D01*
X252100Y609200D01*
X252100Y628878D01*
X258660Y635438D01*
X265219Y628878D01*
X265219Y609200D01*
X-2102301Y-2220531D02*
X-2095741Y-2233650D01*
X-2082622Y-2246769D01*
X-2069503Y-2246769D01*
X-2062944Y-2240210D01*
X-2062944Y-2227091D01*
X-2069503Y-2220531D01*
X-2076063Y-2220531D01*
X-2082622Y-2227091D01*
X-2082622Y-2246769D01*
X-2095741Y-2207412D02*
X-2102301Y-2200852D01*
X-2102301Y-2187733D01*
X-2095741Y-2181174D01*
X-2069503Y-2181174D01*
X-2062944Y-2187733D01*
X-2062944Y-2200852D01*
X-2069503Y-2207412D01*
X-2095741Y-2207412D01*
X-2062944Y-2168055D02*
X-2069503Y-2168055D01*
X-2069503Y-2161495D01*
X-2062944Y-2161495D01*
X-2062944Y-2168055D01*
X-2095741Y-2135257D02*
X-2102301Y-2128697D01*
X-2102301Y-2115578D01*
X-2095741Y-2109019D01*
X-2069503Y-2109019D01*
X-2062944Y-2115578D01*
X-2062944Y-2128697D01*
X-2069503Y-2135257D01*
X-2095741Y-2135257D01*
X-2379794Y-3576332D02*
X-2379794Y-3536345D01*
X-2369797Y-3536345D01*
X-2329810Y-3576332D01*
X-2319813Y-3576332D01*
X-2319813Y-3516351D02*
X-2329810Y-3516351D01*
X-2329810Y-3506354D01*
X-2319813Y-3506354D01*
X-2319813Y-3516351D01*
X-2379794Y-3426380D02*
X-2369797Y-3446374D01*
X-2349803Y-3466367D01*
X-2329810Y-3466367D01*
X-2319813Y-3456371D01*
X-2319813Y-3436377D01*
X-2329810Y-3426380D01*
X-2339807Y-3426380D01*
X-2349803Y-3436377D01*
X-2349803Y-3466367D01*
X-2319813Y-3376397D02*
X-2379794Y-3376397D01*
X-2349803Y-3406387D01*
X-2349803Y-3366400D01*
X57309Y849200D02*
X31070Y849200D01*
X57309Y875438D01*
X57309Y881997D01*
X50749Y888557D01*
X37630Y888557D01*
X31070Y881997D01*
X70428Y849200D02*
X70428Y855759D01*
X76987Y855759D01*
X76987Y849200D01*
X70428Y849200D01*
X129464Y888557D02*
X116345Y881997D01*
X103225Y868878D01*
X103225Y855759D01*
X109785Y849200D01*
X122904Y849200D01*
X129464Y855759D01*
X129464Y862319D01*
X122904Y868878D01*
X103225Y868878D01*
X162262Y849200D02*
X162262Y888557D01*
X142583Y868878D01*
X168821Y868878D01*
X181940Y849200D02*
X195059Y849200D01*
X188500Y849200D01*
X188500Y875438D01*
X181940Y875438D01*
X214738Y849200D02*
X214738Y875438D01*
X234417Y875438D01*
X240976Y868878D01*
X240976Y849200D01*
%TF.MD5,9cd623d559a363f3ef52792dcf2f849c*%
M02*
