%TF.GenerationSoftware,Altium Limited,Altium Designer,18.0.9 (584)*%
G04 Layer_Color=32896*
%FSLAX26Y26*%
%MOIN*%
%TF.FileFunction,Legend,Bot*%
%TF.Part,Single*%
G01*
G75*
%TA.AperFunction,NonConductor*%
%ADD21C,0.007874*%
%ADD22C,0.010000*%
%ADD23C,0.005906*%
%ADD24C,0.005000*%
D21*
X58267Y-1160236D02*
X158267D01*
X58267Y-560236D02*
X158267D01*
X58267Y-1160236D02*
Y-560236D01*
X158267Y-1160236D02*
Y-560236D01*
X133875Y-1297873D02*
Y-1293938D01*
X177183Y-1297873D02*
Y-1293938D01*
D22*
X724529Y-1515582D02*
Y-137630D01*
X251729D02*
X724529D01*
X251729Y-1515582D02*
Y-137630D01*
Y-1515582D02*
X724529D01*
D23*
X356881Y-400321D02*
X363440D01*
X360161D01*
Y-416720D01*
X363440Y-420000D01*
X366720D01*
X370000Y-416720D01*
X350321Y-403601D02*
X347042Y-400321D01*
X340482D01*
X337202Y-403601D01*
Y-406881D01*
X340482Y-410161D01*
X343762D01*
X340482D01*
X337202Y-413440D01*
Y-416720D01*
X340482Y-420000D01*
X347042D01*
X350321Y-416720D01*
X330643Y-410161D02*
X317524D01*
X310964Y-420000D02*
X304405D01*
X307684D01*
Y-400321D01*
X310964Y-403601D01*
X666881Y-395321D02*
X673441D01*
X670161D01*
Y-411720D01*
X673441Y-415000D01*
X676720D01*
X680000Y-411720D01*
X647202Y-415000D02*
X660321D01*
X647202Y-401881D01*
Y-398601D01*
X650482Y-395321D01*
X657042D01*
X660321Y-398601D01*
X640643Y-405161D02*
X627524D01*
X620964Y-415000D02*
X614405D01*
X617684D01*
Y-395321D01*
X620964Y-398601D01*
D24*
X331671Y-60007D02*
X338336D01*
X335003D01*
Y-76668D01*
X338336Y-80000D01*
X341668D01*
X345000Y-76668D01*
X325007Y-63339D02*
X321674Y-60007D01*
X315010D01*
X311678Y-63339D01*
Y-66671D01*
X315010Y-70003D01*
X318342D01*
X315010D01*
X311678Y-73335D01*
Y-76668D01*
X315010Y-80000D01*
X321674D01*
X325007Y-76668D01*
X305013Y-70003D02*
X291684D01*
X285019Y-80000D02*
X278355D01*
X281687D01*
Y-60007D01*
X285019Y-63339D01*
X701671Y-65007D02*
X708336D01*
X705003D01*
Y-81668D01*
X708336Y-85000D01*
X711668D01*
X715000Y-81668D01*
X681678Y-85000D02*
X695006D01*
X681678Y-71671D01*
Y-68339D01*
X685010Y-65007D01*
X691674D01*
X695006Y-68339D01*
X675013Y-75003D02*
X661684D01*
X655019Y-85000D02*
X648355D01*
X651687D01*
Y-65007D01*
X655019Y-68339D01*
X98425Y-1299213D02*
Y-1279219D01*
X88428D01*
X85096Y-1282551D01*
Y-1289216D01*
X88428Y-1292548D01*
X98425D01*
X91761D02*
X85096Y-1299213D01*
X68435D02*
Y-1279219D01*
X78432Y-1289216D01*
X65103D01*
X157449Y-530842D02*
Y-510849D01*
X147452D01*
X144120Y-514181D01*
Y-520846D01*
X147452Y-524178D01*
X157449D01*
X124126Y-530842D02*
X137455D01*
X124126Y-517514D01*
Y-514181D01*
X127459Y-510849D01*
X134123D01*
X137455Y-514181D01*
X480529Y-45906D02*
Y-25912D01*
X470533D01*
X467200Y-29244D01*
Y-35909D01*
X470533Y-39241D01*
X480529D01*
X460536Y-45906D02*
X453871D01*
X457204D01*
Y-25912D01*
X460536Y-29244D01*
%TF.MD5,c0e20a1dfd4b97315b4c784e70ca6bbf*%
M02*
