%TF.GenerationSoftware,Altium Limited,Altium Designer,18.0.9 (584)*%
G04 Layer_Color=32768*
%FSLAX26Y26*%
%MOIN*%
%TF.FileFunction,Other,Mechanical_15*%
%TF.Part,Single*%
G01*
G75*
%TA.AperFunction,NonConductor*%
%ADD33C,0.003937*%
%ADD36C,0.001968*%
D33*
X155529Y-1315591D02*
Y-1276219D01*
X135845Y-1295906D02*
X175215D01*
X378017Y-785590D02*
Y-746220D01*
X358331Y-765905D02*
X397701D01*
X478017Y-785590D02*
Y-746220D01*
X458331Y-765905D02*
X497701D01*
X578017Y-785590D02*
Y-746220D01*
X558331Y-765905D02*
X597701D01*
X467717Y-1124803D02*
X507087D01*
X487401Y-1144487D02*
Y-1105118D01*
X358331Y-615905D02*
X397701D01*
X378017Y-635591D02*
Y-596220D01*
X458331Y-615905D02*
X497701D01*
X478017Y-635591D02*
Y-596220D01*
X558331Y-615905D02*
X597701D01*
X578017Y-635591D02*
Y-596220D01*
X467717Y-1044803D02*
X507087D01*
X487401Y-1064487D02*
Y-1025118D01*
D36*
X126001Y-1240787D02*
X185057D01*
X126001Y-1351024D02*
X185057D01*
X126001D02*
Y-1240787D01*
X185057Y-1351024D02*
Y-1240787D01*
X348489Y-821024D02*
X407543D01*
X348489Y-710788D02*
X407543D01*
X348489Y-821024D02*
Y-710788D01*
X407543Y-821024D02*
Y-710788D01*
X448489Y-821024D02*
X507543D01*
X448489Y-710788D02*
X507543D01*
X448489Y-821024D02*
Y-710788D01*
X507543Y-821024D02*
Y-710788D01*
X548489Y-821024D02*
X607543D01*
X548489Y-710788D02*
X607543D01*
X548489Y-821024D02*
Y-710788D01*
X607543Y-821024D02*
Y-710788D01*
X432283Y-1154332D02*
Y-1095275D01*
X542519Y-1154332D02*
Y-1095275D01*
X432283D02*
X542519D01*
X432283Y-1154332D02*
X542519D01*
X346521Y-671024D02*
Y-560788D01*
X409513Y-671024D02*
Y-560788D01*
X346521Y-671024D02*
X409513D01*
X346521Y-560788D02*
X409513D01*
X446521Y-671024D02*
Y-560788D01*
X509513Y-671024D02*
Y-560788D01*
X446521Y-671024D02*
X509513D01*
X446521Y-560788D02*
X509513D01*
X546521Y-671024D02*
Y-560788D01*
X609513Y-671024D02*
Y-560788D01*
X546521Y-671024D02*
X609513D01*
X546521Y-560788D02*
X609513D01*
X432283Y-1074332D02*
Y-1015275D01*
X542519Y-1074332D02*
Y-1015275D01*
X432283D02*
X542519D01*
X432283Y-1074332D02*
X542519D01*
%TF.MD5,a087cbbfdcbb09866dcddcda4cef0d29*%
M02*
