%TF.GenerationSoftware,Altium Limited,Altium Designer,18.0.9 (584)*%
G04 Layer_Color=8388736*
%FSLAX26Y26*%
%MOIN*%
%TF.FileFunction,Soldermask,Top*%
%TF.Part,Single*%
G01*
G75*
%TA.AperFunction,SMDPad,CuDef*%
%ADD25R,0.059181X0.041465*%
%TA.AperFunction,WasherPad*%
%ADD27C,0.103000*%
%TA.AperFunction,ComponentPad*%
%ADD28R,0.067055X0.067055*%
%ADD29C,0.067055*%
%ADD30C,0.055000*%
%ADD31C,0.108000*%
%TA.AperFunction,ViaPad*%
%ADD32C,0.058000*%
%TA.AperFunction,SMDPad,CuDef*%
%ADD34R,0.041465X0.059181*%
%ADD35R,0.061150X0.045402*%
D25*
X378017Y-799370D02*
D03*
Y-732442D02*
D03*
X478017Y-799370D02*
D03*
Y-732442D02*
D03*
X578017Y-799370D02*
D03*
Y-732442D02*
D03*
D27*
X866141Y-1476378D02*
D03*
Y-98425D02*
D03*
D28*
X108267Y-610236D02*
D03*
D29*
Y-710236D02*
D03*
Y-810236D02*
D03*
Y-910236D02*
D03*
Y-1010236D02*
D03*
Y-1110236D02*
D03*
D30*
X486529Y-1200906D02*
D03*
X488129Y-452305D02*
D03*
D31*
Y-290406D02*
D03*
Y-1362805D02*
D03*
D32*
X731317Y-570894D02*
D03*
X811317Y-964894D02*
D03*
X751317Y-924803D02*
D03*
Y-846693D02*
D03*
X757401Y-1124803D02*
D03*
D34*
X453937D02*
D03*
X520867D02*
D03*
X453937Y-1044803D02*
D03*
X520867D02*
D03*
D35*
X378017Y-647402D02*
D03*
Y-584409D02*
D03*
X478017Y-647402D02*
D03*
Y-584409D02*
D03*
X578017Y-647402D02*
D03*
Y-584409D02*
D03*
%TF.MD5,01600957fa9a72f59ad73dc97821dd6a*%
M02*
