G04 Layer_Color=8388736*
%FSLAX26Y26*%
%MOIN*%
%TF.FileFunction,Soldermask,Top*%
%TF.Part,Single*%
G01*
G75*
%TA.AperFunction,ComponentPad*%
%ADD36C,0.068000*%
%TA.AperFunction,SMDPad,CuDef*%
%ADD61R,0.059181X0.041465*%
%ADD62R,0.041465X0.059181*%
%ADD63R,0.065087X0.053276*%
%ADD64O,0.063118X0.021779*%
%ADD65R,0.061150X0.045402*%
%ADD66R,0.045402X0.061150*%
%ADD67R,0.047370X0.031622*%
%ADD68R,0.053276X0.065087*%
G04:AMPARAMS|DCode=69|XSize=33.591mil|YSize=55.244mil|CornerRadius=5.919mil|HoleSize=0mil|Usage=FLASHONLY|Rotation=90.000|XOffset=0mil|YOffset=0mil|HoleType=Round|Shape=RoundedRectangle|*
%AMROUNDEDRECTD69*
21,1,0.033591,0.043406,0,0,90.0*
21,1,0.021752,0.055244,0,0,90.0*
1,1,0.011839,0.021703,0.010876*
1,1,0.011839,0.021703,-0.010876*
1,1,0.011839,-0.021703,-0.010876*
1,1,0.011839,-0.021703,0.010876*
%
%ADD69ROUNDEDRECTD69*%
%ADD70O,0.065087X0.017843*%
%ADD71O,0.057213X0.021779*%
G04:AMPARAMS|DCode=72|XSize=33.591mil|YSize=72.961mil|CornerRadius=5.919mil|HoleSize=0mil|Usage=FLASHONLY|Rotation=180.000|XOffset=0mil|YOffset=0mil|HoleType=Round|Shape=RoundedRectangle|*
%AMROUNDEDRECTD72*
21,1,0.033591,0.061122,0,0,180.0*
21,1,0.021752,0.072961,0,0,180.0*
1,1,0.011839,-0.010876,0.030561*
1,1,0.011839,0.010876,0.030561*
1,1,0.011839,0.010876,-0.030561*
1,1,0.011839,-0.010876,-0.030561*
%
%ADD72ROUNDEDRECTD72*%
G04:AMPARAMS|DCode=73|XSize=33.591mil|YSize=55.244mil|CornerRadius=5.919mil|HoleSize=0mil|Usage=FLASHONLY|Rotation=0.000|XOffset=0mil|YOffset=0mil|HoleType=Round|Shape=RoundedRectangle|*
%AMROUNDEDRECTD73*
21,1,0.033591,0.043406,0,0,0.0*
21,1,0.021752,0.055244,0,0,0.0*
1,1,0.011839,0.010876,-0.021703*
1,1,0.011839,-0.010876,-0.021703*
1,1,0.011839,-0.010876,0.021703*
1,1,0.011839,0.010876,0.021703*
%
%ADD73ROUNDEDRECTD73*%
%TA.AperFunction,ComponentPad*%
%ADD74R,0.067055X0.067055*%
%ADD75C,0.067055*%
%ADD76C,0.048000*%
%TA.AperFunction,ViaPad*%
%ADD77C,0.204850*%
%TA.AperFunction,ComponentPad*%
%ADD78C,0.070992*%
%TA.AperFunction,ViaPad*%
%ADD79C,0.058000*%
%ADD80C,0.047370*%
D36*
X366536Y-543900D02*
D03*
X516142D02*
D03*
X-1277520Y-2244018D02*
D03*
Y-2144018D02*
D03*
Y-2044018D02*
D03*
Y-1944018D02*
D03*
Y-1844018D02*
D03*
Y-1744018D02*
D03*
Y-1644018D02*
D03*
Y-1544018D02*
D03*
Y-1444018D02*
D03*
Y-1344018D02*
D03*
Y-1244018D02*
D03*
Y-1144018D02*
D03*
Y-1044018D02*
D03*
Y-944018D02*
D03*
Y-844018D02*
D03*
X-1377520Y-2244018D02*
D03*
Y-2144018D02*
D03*
Y-2044018D02*
D03*
Y-1944018D02*
D03*
Y-1844018D02*
D03*
Y-1744018D02*
D03*
Y-1644018D02*
D03*
Y-1544018D02*
D03*
Y-1444018D02*
D03*
Y-1344018D02*
D03*
Y-1244018D02*
D03*
Y-1144018D02*
D03*
Y-1044018D02*
D03*
Y-944018D02*
D03*
Y-844018D02*
D03*
X748464D02*
D03*
Y-944018D02*
D03*
Y-1044018D02*
D03*
Y-1144018D02*
D03*
Y-1244018D02*
D03*
Y-1344018D02*
D03*
Y-1444018D02*
D03*
Y-1544018D02*
D03*
Y-1644018D02*
D03*
Y-1744018D02*
D03*
Y-1844018D02*
D03*
Y-1944018D02*
D03*
Y-2044018D02*
D03*
Y-2144018D02*
D03*
Y-2244018D02*
D03*
X848464Y-844018D02*
D03*
Y-944018D02*
D03*
Y-1044018D02*
D03*
Y-1144018D02*
D03*
Y-1244018D02*
D03*
Y-1344018D02*
D03*
Y-1444018D02*
D03*
Y-1544018D02*
D03*
Y-1644018D02*
D03*
Y-1744018D02*
D03*
Y-1844018D02*
D03*
Y-1944018D02*
D03*
Y-2044018D02*
D03*
Y-2144018D02*
D03*
Y-2244018D02*
D03*
D61*
X-590000Y-2293464D02*
D03*
Y-2226536D02*
D03*
Y-2088464D02*
D03*
Y-2021536D02*
D03*
Y-2488464D02*
D03*
Y-2421536D02*
D03*
X-408416Y-1920780D02*
D03*
Y-1853852D02*
D03*
X-846534Y-2185986D02*
D03*
Y-2119058D02*
D03*
X-590000Y-1893464D02*
D03*
Y-1826536D02*
D03*
X-741999Y-1717464D02*
D03*
Y-1650534D02*
D03*
X-658416Y-1770780D02*
D03*
Y-1703852D02*
D03*
X-717000Y274464D02*
D03*
Y207536D02*
D03*
X-721000Y-159466D02*
D03*
Y-92538D02*
D03*
X-834000Y-104538D02*
D03*
Y-171466D02*
D03*
X-837000Y272464D02*
D03*
Y205536D02*
D03*
X4694Y-1236742D02*
D03*
Y-1303670D02*
D03*
X426694Y-1236742D02*
D03*
Y-1303670D02*
D03*
X429694Y-1358742D02*
D03*
Y-1425670D02*
D03*
X4694Y-1370742D02*
D03*
Y-1437670D02*
D03*
D62*
X853464Y-730000D02*
D03*
X786536D02*
D03*
X-649464Y139000D02*
D03*
X-582536D02*
D03*
X-649464Y214000D02*
D03*
X-582536D02*
D03*
X-657464Y-28000D02*
D03*
X-590536D02*
D03*
X220000Y-2492522D02*
D03*
X286928D02*
D03*
Y-2562522D02*
D03*
X220000D02*
D03*
X-701536Y-1895000D02*
D03*
X-768464D02*
D03*
X-836536Y139998D02*
D03*
X-903464D02*
D03*
X-904464Y-29018D02*
D03*
X-837536D02*
D03*
X-589536Y-101000D02*
D03*
X-656464D02*
D03*
D63*
X-1012000Y-798434D02*
D03*
Y-727568D02*
D03*
X-736001Y-1395567D02*
D03*
Y-1466433D02*
D03*
X-498416Y-1451882D02*
D03*
Y-1522748D02*
D03*
X-293416Y-1915546D02*
D03*
Y-1844678D02*
D03*
X-1338000Y131226D02*
D03*
Y60360D02*
D03*
X-522000Y-830434D02*
D03*
Y-759568D02*
D03*
X-423306Y-2038772D02*
D03*
Y-2109638D02*
D03*
X-96306Y-1925978D02*
D03*
Y-1996844D02*
D03*
X65002Y-2245434D02*
D03*
Y-2174568D02*
D03*
D64*
X-835116Y-1712364D02*
D03*
Y-1686772D02*
D03*
Y-1661182D02*
D03*
Y-1635592D02*
D03*
Y-1610002D02*
D03*
Y-1584410D02*
D03*
Y-1558820D02*
D03*
Y-1533230D02*
D03*
Y-1507638D02*
D03*
Y-1482048D02*
D03*
X-1061494Y-1712364D02*
D03*
Y-1686772D02*
D03*
Y-1661182D02*
D03*
Y-1635592D02*
D03*
Y-1610002D02*
D03*
Y-1584410D02*
D03*
Y-1558820D02*
D03*
Y-1533230D02*
D03*
Y-1507638D02*
D03*
Y-1482048D02*
D03*
X-1002788Y-60702D02*
D03*
Y-35112D02*
D03*
Y-9522D02*
D03*
Y16070D02*
D03*
Y41660D02*
D03*
Y67250D02*
D03*
Y92840D02*
D03*
Y118432D02*
D03*
Y144022D02*
D03*
Y169612D02*
D03*
X-1229166Y-60702D02*
D03*
Y-35112D02*
D03*
Y-9522D02*
D03*
Y16070D02*
D03*
Y41660D02*
D03*
Y67250D02*
D03*
Y92840D02*
D03*
Y118432D02*
D03*
Y144022D02*
D03*
Y169612D02*
D03*
D65*
X-590000Y-2611496D02*
D03*
Y-2548504D02*
D03*
X-588416Y-1705820D02*
D03*
Y-1768812D02*
D03*
D66*
X-528504Y-2360000D02*
D03*
X-591496D02*
D03*
X-528504Y-2160000D02*
D03*
X-591496D02*
D03*
X-528504Y-1955000D02*
D03*
X-591496D02*
D03*
X-717504Y-29000D02*
D03*
X-780496D02*
D03*
X-712504Y138002D02*
D03*
X-775496D02*
D03*
D67*
X-222574Y-2044522D02*
D03*
Y-2081922D02*
D03*
Y-2119324D02*
D03*
X-330842D02*
D03*
Y-2081922D02*
D03*
Y-2044522D02*
D03*
D68*
X-529432Y-639002D02*
D03*
X-458566D02*
D03*
X-775566Y-364002D02*
D03*
X-846432D02*
D03*
X418032Y-2412522D02*
D03*
X488898D02*
D03*
D69*
X-794928Y-430600D02*
D03*
Y-505404D02*
D03*
X-911070D02*
D03*
Y-468002D02*
D03*
Y-430600D02*
D03*
D70*
X-27574Y-2031804D02*
D03*
Y-2051490D02*
D03*
Y-2071174D02*
D03*
Y-2090860D02*
D03*
Y-2110544D02*
D03*
X131876Y-2031804D02*
D03*
Y-2051490D02*
D03*
Y-2071174D02*
D03*
Y-2090860D02*
D03*
Y-2110544D02*
D03*
D71*
X513646Y-2047474D02*
D03*
Y-2021882D02*
D03*
Y-1996292D02*
D03*
Y-1970702D02*
D03*
Y-1945112D02*
D03*
Y-1919520D02*
D03*
Y-1893930D02*
D03*
X291206Y-2047474D02*
D03*
Y-2021882D02*
D03*
Y-1996292D02*
D03*
Y-1970702D02*
D03*
Y-1945112D02*
D03*
Y-1919520D02*
D03*
Y-1893930D02*
D03*
D72*
X-498030Y-1797970D02*
D03*
X-448030D02*
D03*
X-398030D02*
D03*
X-348030D02*
D03*
X-498030Y-1575528D02*
D03*
X-448030D02*
D03*
X-398030D02*
D03*
X-348030D02*
D03*
D73*
X490866Y-2315594D02*
D03*
X416062D02*
D03*
Y-2199452D02*
D03*
X453464D02*
D03*
X490866D02*
D03*
D74*
X-919000Y-643002D02*
D03*
X335716Y-1057592D02*
D03*
D75*
X-919000Y-743002D02*
D03*
Y-843002D02*
D03*
Y-943002D02*
D03*
X-619000Y-643002D02*
D03*
Y-743002D02*
D03*
Y-843002D02*
D03*
Y-943002D02*
D03*
X335716Y-957592D02*
D03*
Y-857592D02*
D03*
Y-757592D02*
D03*
X35716Y-1057592D02*
D03*
Y-957592D02*
D03*
Y-857592D02*
D03*
Y-757592D02*
D03*
X-162000Y-235002D02*
D03*
X-618999Y-1440999D02*
D03*
X209000Y26998D02*
D03*
X-841536Y-2372522D02*
D03*
X916574Y415824D02*
D03*
X798464D02*
D03*
X680354D02*
D03*
X-1166536Y-2442522D02*
D03*
X-170000Y260998D02*
D03*
X598464Y-1057522D02*
D03*
D76*
X-100000Y-25000D02*
D03*
Y25000D02*
D03*
X-50000Y-25000D02*
D03*
Y25000D02*
D03*
X0Y-25000D02*
D03*
Y25000D02*
D03*
X50000Y-25000D02*
D03*
Y25000D02*
D03*
X100000Y-25000D02*
D03*
Y25000D02*
D03*
X-741000Y798998D02*
D03*
X-641000Y698998D02*
D03*
X-841000D02*
D03*
D77*
X798464Y-450316D02*
D03*
X-1327520D02*
D03*
X798464Y-2812522D02*
D03*
X-1327520D02*
D03*
D78*
X367000Y419998D02*
D03*
X467000D02*
D03*
D79*
X-986000Y-1582000D02*
D03*
X-1050000Y-1940000D02*
D03*
X-500110Y-2050112D02*
D03*
X-770000Y-1955000D02*
D03*
X-453308Y-2271112D02*
D03*
X-293306Y-1612206D02*
D03*
X-723000Y-507002D02*
D03*
X-764110Y-1584410D02*
D03*
X50000Y-107040D02*
D03*
X73000Y-1240000D02*
D03*
D80*
X140000Y-1985000D02*
D03*
X-10000Y-2295000D02*
D03*
X365000Y-2315000D02*
D03*
X528228Y360354D02*
D03*
X626654Y-1411299D02*
D03*
Y-1805000D02*
D03*
X331378Y360354D02*
D03*
X429803Y163504D02*
D03*
Y-1017598D02*
D03*
X331378Y-1214449D02*
D03*
Y-2395551D02*
D03*
X232953Y-623898D02*
D03*
Y-1411299D02*
D03*
X134528Y-2395551D02*
D03*
X-62323Y-820748D02*
D03*
Y-1214449D02*
D03*
X-259173Y-427047D02*
D03*
Y-820748D02*
D03*
X-160748Y-1017598D02*
D03*
Y-1411299D02*
D03*
Y-2198701D02*
D03*
X-259173Y-2395551D02*
D03*
X-357598Y163504D02*
D03*
X-456024Y-33346D02*
D03*
X-357598Y-623898D02*
D03*
X-652874Y-2001850D02*
D03*
Y-2395551D02*
D03*
X-751299Y557205D02*
D03*
Y-623898D02*
D03*
Y-1017598D02*
D03*
Y-2198701D02*
D03*
Y-2592402D02*
D03*
X-948150Y557205D02*
D03*
X-1046575Y-427047D02*
D03*
X-1145000Y163504D02*
D03*
X-1440276Y-33346D02*
D03*
X-1341850Y-230197D02*
D03*
Y-623898D02*
D03*
X-1440276Y-820748D02*
D03*
Y-2001850D02*
D03*
Y-2395551D02*
D03*
X-410000Y-2495000D02*
D03*
X525000Y-1835000D02*
D03*
X-10000Y-2230000D02*
D03*
X405000Y-1940000D02*
D03*
X365000Y-2000000D02*
D03*
X-929518Y-2191042D02*
D03*
X-37494Y214998D02*
D03*
X-803000Y-238002D02*
D03*
X-840000Y334998D02*
D03*
X-1215000Y-180002D02*
D03*
X571694Y-1947206D02*
D03*
X34836Y-2031206D02*
D03*
X-558416Y-1577316D02*
D03*
X-525110Y-93892D02*
D03*
X-1106416Y-1295316D02*
D03*
X-936536Y67478D02*
D03*
X-726536Y-367522D02*
D03*
X-1056536Y-2437522D02*
D03*
X183464Y-1917522D02*
D03*
X533464Y-2317522D02*
D03*
X63464Y-2562522D02*
D03*
X-28308Y-2158978D02*
D03*
X-107048Y-2194412D02*
D03*
X137046Y-2158978D02*
D03*
X-564000Y77000D02*
D03*
%TF.MD5,0b3b8fc1fa6df7672acf1647f2ccecb2*%
M02*
