G04 Layer_Color=32896*
%FSLAX26Y26*%
%MOIN*%
%TF.FileFunction,Legend,Bot*%
%TF.Part,Single*%
G01*
G75*
%TA.AperFunction,NonConductor*%
%ADD55C,0.010000*%
%ADD56C,0.009842*%
%ADD57C,0.003937*%
%ADD58C,0.007874*%
%ADD59C,0.005000*%
%ADD60C,0.005905*%
D55*
X-429685Y-2485236D02*
G03*
X-429685Y-2485236I-3937J0D01*
G01*
X359173Y-2338622D02*
G03*
X359173Y-2338622I-3937J0D01*
G01*
X-255143Y-2722616D02*
G03*
X-255143Y-2722616I-196850J0D01*
G01*
X-339134Y-2469488D02*
Y-2280512D01*
X-480866Y-2469488D02*
X-339134D01*
X-480866D02*
Y-2280512D01*
X-339134D01*
X150512Y-2244134D02*
X339488D01*
Y-2385866D02*
Y-2244134D01*
X150512Y-2385866D02*
X339488D01*
X150512D02*
Y-2244134D01*
X-546992Y-2799616D02*
Y-2759616D01*
X-391992Y-2779616D02*
Y-2629616D01*
X-541992Y-2779616D02*
X-391992D01*
X-411992Y-2624616D02*
X-371992D01*
X-443482Y-2795382D02*
X-411993Y-2842616D01*
Y-2795382D02*
X-443482D01*
X-411993Y-2842616D02*
X-443482D01*
X-454054Y-2795382D02*
Y-2842616D01*
X-481045D01*
X-517707Y-2802130D02*
X-513209Y-2797631D01*
X-506461Y-2795382D01*
X-497464D01*
X-490716Y-2797631D01*
X-486218Y-2802130D01*
Y-2806628D01*
X-488467Y-2811127D01*
X-490716Y-2813376D01*
X-495215Y-2815625D01*
X-508710Y-2820124D01*
X-513209Y-2822373D01*
X-515458Y-2824622D01*
X-517707Y-2829121D01*
Y-2835868D01*
X-513209Y-2840367D01*
X-506461Y-2842616D01*
X-497464D01*
X-490716Y-2840367D01*
X-486218Y-2835868D01*
D56*
X-1120700Y-2148033D02*
G03*
X-1120700Y-2148033I-4921J0D01*
G01*
D57*
X-268417Y-2722616D02*
G03*
X-268417Y-2722616I-183576J0D01*
G01*
D58*
X-112000Y-235002D02*
G03*
X-112000Y-235002I-50000J0D01*
G01*
X-569000Y-1441000D02*
G03*
X-569000Y-1441000I-50000J0D01*
G01*
X259000Y26998D02*
G03*
X259000Y26998I-50000J0D01*
G01*
X-791535Y-2372522D02*
G03*
X-791535Y-2372522I-50000J0D01*
G01*
X966575Y415825D02*
G03*
X966575Y415825I-50000J0D01*
G01*
X848465D02*
G03*
X848465Y415825I-50000J0D01*
G01*
X730354D02*
G03*
X730354Y415825I-50000J0D01*
G01*
X-1116535Y-2442522D02*
G03*
X-1116535Y-2442522I-50000J0D01*
G01*
X-120000Y260998D02*
G03*
X-120000Y260998I-50000J0D01*
G01*
X648465Y-1057522D02*
G03*
X648465Y-1057522I-50000J0D01*
G01*
X-954393Y-1691970D02*
Y-1688032D01*
X-1003605Y-1691970D02*
Y-1688032D01*
X-981408Y-2096806D02*
X-977472D01*
X-981408Y-2053498D02*
X-977472D01*
X96976Y-1094128D02*
Y-1090192D01*
X146188Y-1094128D02*
Y-1090192D01*
X66110Y-905562D02*
Y-901624D01*
X115322Y-905562D02*
Y-901624D01*
X271188Y-1094128D02*
Y-1090192D01*
X221976Y-1094128D02*
Y-1090192D01*
X-915394Y-25970D02*
Y-22034D01*
X-964606Y-25970D02*
Y-22034D01*
X19088Y-1946174D02*
Y-1942238D01*
X68300Y-1946174D02*
Y-1942238D01*
X-1114794Y-2229726D02*
X-996684D01*
X-1114794Y-2190356D02*
X-996684D01*
Y-2229726D02*
Y-2190356D01*
X-1114794Y-2229726D02*
Y-2190356D01*
X-1021410Y-2340546D02*
X-1017472D01*
X-1021410Y-2389758D02*
X-1017472D01*
X218661Y-2806672D02*
X185338D01*
Y-2815003D01*
X218661Y-2848325D01*
Y-2856656D01*
X185338D01*
X168677Y-2806672D02*
Y-2856656D01*
X135355D01*
X85371Y-2815003D02*
X93701Y-2806672D01*
X110363D01*
X118693Y-2815003D01*
Y-2823333D01*
X110363Y-2831664D01*
X93701D01*
X85371Y-2839995D01*
Y-2848325D01*
X93701Y-2856656D01*
X110363D01*
X118693Y-2848325D01*
X-14597Y-2815003D02*
X-6266Y-2806672D01*
X10395D01*
X18726Y-2815003D01*
Y-2848325D01*
X10395Y-2856656D01*
X-6266D01*
X-14597Y-2848325D01*
X-39589Y-2856656D02*
X-56250D01*
X-64581Y-2848325D01*
Y-2831664D01*
X-56250Y-2823333D01*
X-39589D01*
X-31258Y-2831664D01*
Y-2848325D01*
X-39589Y-2856656D01*
X-81242Y-2823333D02*
Y-2856656D01*
Y-2839995D01*
X-89572Y-2831664D01*
X-97903Y-2823333D01*
X-106234D01*
X-131226Y-2873317D02*
Y-2823333D01*
X-156218D01*
X-164548Y-2831664D01*
Y-2848325D01*
X-156218Y-2856656D01*
X-131226D01*
X218661Y-2781656D02*
Y-2731672D01*
X193669D01*
X185338Y-2740003D01*
Y-2756664D01*
X193669Y-2764995D01*
X218661D01*
X202000D02*
X185338Y-2781656D01*
X135355Y-2731672D02*
X168677D01*
Y-2781656D01*
X135355D01*
X168677Y-2756664D02*
X152016D01*
X118693Y-2731672D02*
Y-2764995D01*
X102032Y-2781656D01*
X85371Y-2764995D01*
Y-2731672D01*
X-14597D02*
X18726D01*
Y-2781656D01*
X-14597D01*
X18726Y-2756664D02*
X2064D01*
X185338Y-2656672D02*
X218661D01*
Y-2681664D01*
X202000D01*
X218661D01*
Y-2706656D01*
X143685D02*
X160347D01*
X168677Y-2698325D01*
Y-2681664D01*
X160347Y-2673333D01*
X143685D01*
X135355Y-2681664D01*
Y-2689995D01*
X168677D01*
X93701Y-2706656D02*
X110363D01*
X118693Y-2698325D01*
Y-2681664D01*
X110363Y-2673333D01*
X93701D01*
X85371Y-2681664D01*
Y-2689995D01*
X118693D01*
X35387Y-2656672D02*
Y-2706656D01*
X60379D01*
X68710Y-2698325D01*
Y-2681664D01*
X60379Y-2673333D01*
X35387D01*
X18726Y-2656672D02*
Y-2706656D01*
X-6266D01*
X-14597Y-2698325D01*
Y-2689995D01*
Y-2681664D01*
X-6266Y-2673333D01*
X18726D01*
X-39589D02*
X-56250D01*
X-64581Y-2681664D01*
Y-2706656D01*
X-39589D01*
X-31258Y-2698325D01*
X-39589Y-2689995D01*
X-64581D01*
X-114564Y-2673333D02*
X-89572D01*
X-81242Y-2681664D01*
Y-2698325D01*
X-89572Y-2706656D01*
X-114564D01*
X-131226D02*
Y-2656672D01*
Y-2689995D02*
X-156218Y-2673333D01*
X-131226Y-2689995D02*
X-156218Y-2706656D01*
X218661Y-2581672D02*
Y-2631656D01*
X185338D01*
X168677D02*
Y-2581672D01*
X152016Y-2598333D01*
X135355Y-2581672D01*
Y-2631656D01*
X118693Y-2606664D02*
X85371D01*
X68710Y-2590003D02*
X60379Y-2581672D01*
X43718D01*
X35387Y-2590003D01*
Y-2623325D01*
X43718Y-2631656D01*
X60379D01*
X68710Y-2623325D01*
Y-2590003D01*
X18726D02*
X10395Y-2581672D01*
X-6266D01*
X-14597Y-2590003D01*
Y-2623325D01*
X-6266Y-2631656D01*
X10395D01*
X18726Y-2623325D01*
Y-2590003D01*
X-64581Y-2631656D02*
X-31258D01*
X-64581Y-2598333D01*
Y-2590003D01*
X-56250Y-2581672D01*
X-39589D01*
X-31258Y-2590003D01*
D59*
X-421992Y-2659616D02*
X-391992Y-2629616D01*
X-511992Y-2699616D02*
X-451992Y-2729616D01*
X-511992Y-2699616D02*
X-471992Y-2749616D01*
X-491992Y-2679616D02*
X-451992Y-2729616D01*
X-531992Y-2719616D02*
X-511992Y-2749616D01*
X-531992Y-2719616D02*
X-471992Y-2749616D01*
X-451992Y-2639616D02*
X-421992Y-2659616D01*
X-541992Y-2779616D02*
X-511992Y-2749616D01*
X-471992Y-2659616D02*
X-411992Y-2689616D01*
X-451992Y-2639616D02*
X-411992Y-2689616D01*
X-471992Y-2659616D02*
X-431992Y-2709616D01*
X-491992Y-2679616D02*
X-431992Y-2709616D01*
X287000Y-2458000D02*
Y-2444671D01*
X280336Y-2438006D01*
X273671Y-2444671D01*
Y-2458000D01*
Y-2448003D01*
X287000D01*
X267007Y-2438006D02*
Y-2458000D01*
X257010D01*
X253678Y-2454668D01*
Y-2441339D01*
X257010Y-2438006D01*
X267007D01*
X233684Y-2441339D02*
X237016Y-2438006D01*
X243681D01*
X247013Y-2441339D01*
Y-2454668D01*
X243681Y-2458000D01*
X237016D01*
X233684Y-2454668D01*
X207026Y-2438006D02*
X200362D01*
X203694D01*
Y-2458000D01*
X207026D01*
X200362D01*
X190365D02*
Y-2444671D01*
X180368D01*
X177036Y-2448003D01*
Y-2458000D01*
X-439000Y-1288006D02*
Y-1308000D01*
X-448997D01*
X-452329Y-1304668D01*
Y-1301335D01*
X-448997Y-1298003D01*
X-439000D01*
X-448997D01*
X-452329Y-1294671D01*
Y-1291339D01*
X-448997Y-1288006D01*
X-439000D01*
X-468990Y-1308000D02*
X-462326D01*
X-458993Y-1304668D01*
Y-1298003D01*
X-462326Y-1294671D01*
X-468990D01*
X-472322Y-1298003D01*
Y-1301335D01*
X-458993D01*
X-482319Y-1294671D02*
X-488984D01*
X-492316Y-1298003D01*
Y-1308000D01*
X-482319D01*
X-478987Y-1304668D01*
X-482319Y-1301335D01*
X-492316D01*
X-498981Y-1308000D02*
Y-1294671D01*
X-502313D01*
X-505645Y-1298003D01*
Y-1308000D01*
Y-1298003D01*
X-508977Y-1294671D01*
X-512309Y-1298003D01*
Y-1308000D01*
X-538967D02*
Y-1288006D01*
X-545632Y-1294671D01*
X-552297Y-1288006D01*
Y-1308000D01*
X-562293D02*
X-568958D01*
X-572290Y-1304668D01*
Y-1298003D01*
X-568958Y-1294671D01*
X-562293D01*
X-558961Y-1298003D01*
Y-1304668D01*
X-562293Y-1308000D01*
X-592284Y-1288006D02*
Y-1308000D01*
X-582287D01*
X-578955Y-1304668D01*
Y-1298003D01*
X-582287Y-1294671D01*
X-592284D01*
X-628938Y-1288006D02*
X-622274D01*
X-618942Y-1291339D01*
Y-1304668D01*
X-622274Y-1308000D01*
X-628938D01*
X-632270Y-1304668D01*
Y-1291339D01*
X-628938Y-1288006D01*
X-638935Y-1294671D02*
Y-1304668D01*
X-642267Y-1308000D01*
X-652264D01*
Y-1294671D01*
X-662261Y-1291339D02*
Y-1294671D01*
X-658928D01*
X-665593D01*
X-662261D01*
Y-1304668D01*
X-665593Y-1308000D01*
X-316329Y-2173339D02*
X-312997Y-2170006D01*
X-306332D01*
X-303000Y-2173339D01*
Y-2176671D01*
X-306332Y-2180003D01*
X-312997D01*
X-316329Y-2183336D01*
Y-2186668D01*
X-312997Y-2190000D01*
X-306332D01*
X-303000Y-2186668D01*
X-322993Y-2176671D02*
Y-2186668D01*
X-326326Y-2190000D01*
X-336322D01*
Y-2193332D01*
X-332990Y-2196664D01*
X-329658D01*
X-336322Y-2190000D02*
Y-2176671D01*
X-342987Y-2190000D02*
Y-2176671D01*
X-352984D01*
X-356316Y-2180003D01*
Y-2190000D01*
X-376310Y-2176671D02*
X-366313D01*
X-362981Y-2180003D01*
Y-2186668D01*
X-366313Y-2190000D01*
X-376310D01*
X-382974Y-2170006D02*
Y-2190000D01*
Y-2180003D01*
X-386306Y-2176671D01*
X-392971D01*
X-396303Y-2180003D01*
Y-2190000D01*
X-422961Y-2170006D02*
Y-2190000D01*
X-432958D01*
X-436290Y-2186668D01*
Y-2173339D01*
X-432958Y-2170006D01*
X-422961D01*
X-452951Y-2190000D02*
X-446287D01*
X-442954Y-2186668D01*
Y-2180003D01*
X-446287Y-2176671D01*
X-452951D01*
X-456284Y-2180003D01*
Y-2183336D01*
X-442954D01*
X-462948Y-2190000D02*
Y-2176671D01*
X-466280D01*
X-469613Y-2180003D01*
Y-2190000D01*
Y-2180003D01*
X-472945Y-2176671D01*
X-476277Y-2180003D01*
Y-2190000D01*
X-486274D02*
X-492938D01*
X-496271Y-2186668D01*
Y-2180003D01*
X-492938Y-2176671D01*
X-486274D01*
X-482942Y-2180003D01*
Y-2186668D01*
X-486274Y-2190000D01*
X-516264Y-2170006D02*
Y-2190000D01*
X-506267D01*
X-502935Y-2186668D01*
Y-2180003D01*
X-506267Y-2176671D01*
X-516264D01*
X-552919Y-2170006D02*
X-546254D01*
X-542922Y-2173339D01*
Y-2186668D01*
X-546254Y-2190000D01*
X-552919D01*
X-556251Y-2186668D01*
Y-2173339D01*
X-552919Y-2170006D01*
X-562915Y-2176671D02*
Y-2186668D01*
X-566248Y-2190000D01*
X-576245D01*
Y-2176671D01*
X-586241Y-2173339D02*
Y-2176671D01*
X-582909D01*
X-589573D01*
X-586241D01*
Y-2186668D01*
X-589573Y-2190000D01*
D60*
X-284905Y819423D02*
X-304584D01*
X-294745D01*
Y789905D01*
X-329183Y819423D02*
X-319343D01*
X-314423Y814504D01*
Y794825D01*
X-319343Y789905D01*
X-329183D01*
X-334102Y794825D01*
Y814504D01*
X-329183Y819423D01*
X-343942Y789905D02*
Y819423D01*
X-358701D01*
X-363620Y814504D01*
Y804664D01*
X-358701Y799745D01*
X-343942D01*
X-687664Y681858D02*
X-677825D01*
X-672905Y676938D01*
Y657259D01*
X-677825Y652340D01*
X-687664D01*
X-692584Y657259D01*
Y676938D01*
X-687664Y681858D01*
X-707343Y652340D02*
Y676938D01*
Y667098D01*
X-702423D01*
X-712263D01*
X-707343D01*
Y676938D01*
X-712263Y681858D01*
X-731942Y652340D02*
Y676938D01*
Y667098D01*
X-727022D01*
X-736861D01*
X-731942D01*
Y676938D01*
X-736861Y681858D01*
X-751620Y652340D02*
X-766379D01*
X-771299Y657259D01*
X-766379Y662179D01*
X-756540D01*
X-751620Y667098D01*
X-756540Y672018D01*
X-771299D01*
X-795897Y652340D02*
X-786058D01*
X-781138Y657259D01*
Y667098D01*
X-786058Y672018D01*
X-795897D01*
X-800817Y667098D01*
Y662179D01*
X-781138D01*
X-815576Y676938D02*
Y672018D01*
X-810657D01*
X-820496D01*
X-815576D01*
Y657259D01*
X-820496Y652340D01*
X-672905Y602745D02*
Y622423D01*
X-682745Y632263D01*
X-692584Y622423D01*
Y602745D01*
Y617504D01*
X-672905D01*
X-722102Y632263D02*
Y602745D01*
X-707343D01*
X-702423Y607664D01*
Y617504D01*
X-707343Y622423D01*
X-722102D01*
X-731942Y592905D02*
X-736861D01*
X-741781Y597825D01*
Y622423D01*
X-761460D02*
Y607664D01*
X-766379Y602745D01*
X-781138D01*
Y622423D01*
X-790978Y602745D02*
X-805737D01*
X-810657Y607664D01*
X-805737Y612584D01*
X-795898D01*
X-790978Y617504D01*
X-795898Y622423D01*
X-810657D01*
X-825416Y627343D02*
Y622423D01*
X-820496D01*
X-830335D01*
X-825416D01*
Y607664D01*
X-830335Y602745D01*
X-340110Y-2249112D02*
Y-2219594D01*
X-354869D01*
X-359789Y-2224514D01*
Y-2234353D01*
X-354869Y-2239273D01*
X-340110D01*
X-389307Y-2219594D02*
X-369628D01*
Y-2234353D01*
X-379467Y-2229433D01*
X-384387D01*
X-389307Y-2234353D01*
Y-2244192D01*
X-384387Y-2249112D01*
X-374548D01*
X-369628Y-2244192D01*
X-968679Y-1770402D02*
X-963759Y-1765482D01*
X-953920D01*
X-949000Y-1770402D01*
Y-1790080D01*
X-953920Y-1795000D01*
X-963759D01*
X-968679Y-1790080D01*
X-993277Y-1795000D02*
Y-1765482D01*
X-978518Y-1780241D01*
X-998197D01*
X357890Y-2213112D02*
Y-2183594D01*
X343131D01*
X338211Y-2188514D01*
Y-2198353D01*
X343131Y-2203273D01*
X357890D01*
X308693Y-2183594D02*
X318533Y-2188514D01*
X328372Y-2198353D01*
Y-2208192D01*
X323452Y-2213112D01*
X313613D01*
X308693Y-2208192D01*
Y-2203273D01*
X313613Y-2198353D01*
X328372D01*
X822480Y-2392522D02*
Y-2363004D01*
X807721D01*
X802801Y-2367924D01*
Y-2377763D01*
X807721Y-2382683D01*
X822480D01*
X778203Y-2392522D02*
Y-2363004D01*
X792962Y-2377763D01*
X773283D01*
X-908000Y-2250482D02*
Y-2275080D01*
X-912920Y-2280000D01*
X-922759D01*
X-927679Y-2275080D01*
Y-2250482D01*
X-957197D02*
X-937518D01*
Y-2265241D01*
X-947357Y-2260321D01*
X-952277D01*
X-957197Y-2265241D01*
Y-2275080D01*
X-952277Y-2280000D01*
X-942438D01*
X-937518Y-2275080D01*
X-804000Y-2458482D02*
X-823679D01*
X-813839D01*
Y-2488000D01*
X-833518D02*
Y-2458482D01*
X-848277D01*
X-853197Y-2463402D01*
Y-2473241D01*
X-848277Y-2478161D01*
X-833518D01*
X-877795Y-2488000D02*
Y-2458482D01*
X-863036Y-2473241D01*
X-882715D01*
X-957433Y-2027537D02*
Y-1998019D01*
X-972192D01*
X-977111Y-2002938D01*
Y-2012778D01*
X-972192Y-2017697D01*
X-957433D01*
X-967272D02*
X-977111Y-2027537D01*
X-986951Y-2002938D02*
X-991870Y-1998019D01*
X-1001710D01*
X-1006629Y-2002938D01*
Y-2007858D01*
X-1001710Y-2012778D01*
X-1006629Y-2017697D01*
Y-2022617D01*
X-1001710Y-2027537D01*
X-991870D01*
X-986951Y-2022617D01*
Y-2017697D01*
X-991870Y-2012778D01*
X-986951Y-2007858D01*
Y-2002938D01*
X-991870Y-2012778D02*
X-1001710D01*
X-972679Y-2427402D02*
X-967759Y-2422482D01*
X-957920D01*
X-953000Y-2427402D01*
Y-2447080D01*
X-957920Y-2452000D01*
X-967759D01*
X-972679Y-2447080D01*
X-982518Y-2452000D02*
X-992357D01*
X-987438D01*
Y-2422482D01*
X-982518Y-2427402D01*
X-1007116D02*
X-1012036Y-2422482D01*
X-1021875D01*
X-1026795Y-2427402D01*
Y-2447080D01*
X-1021875Y-2452000D01*
X-1012036D01*
X-1007116Y-2447080D01*
Y-2427402D01*
X646000Y-1136482D02*
X626321D01*
X636161D01*
Y-1166000D01*
X616482D02*
Y-1136482D01*
X601723D01*
X596803Y-1141402D01*
Y-1151241D01*
X601723Y-1156161D01*
X616482D01*
X586964Y-1166000D02*
X577124D01*
X582044D01*
Y-1136482D01*
X586964Y-1141402D01*
X562365Y-1166000D02*
X552526D01*
X557446D01*
Y-1136482D01*
X562365Y-1141402D01*
X-124000Y361518D02*
X-143679D01*
X-133839D01*
Y332000D01*
X-153518D02*
Y361518D01*
X-168277D01*
X-173197Y356598D01*
Y346759D01*
X-168277Y341839D01*
X-153518D01*
X-183036Y332000D02*
X-192876D01*
X-187956D01*
Y361518D01*
X-183036Y356598D01*
X-207635D02*
X-212554Y361518D01*
X-222394D01*
X-227313Y356598D01*
Y336920D01*
X-222394Y332000D01*
X-212554D01*
X-207635Y336920D01*
Y356598D01*
X-127000Y-321482D02*
X-146679D01*
X-136839D01*
Y-351000D01*
X-156518D02*
Y-321482D01*
X-171277D01*
X-176197Y-326402D01*
Y-336241D01*
X-171277Y-341161D01*
X-156518D01*
X-186036Y-346080D02*
X-190956Y-351000D01*
X-200795D01*
X-205715Y-346080D01*
Y-326402D01*
X-200795Y-321482D01*
X-190956D01*
X-186036Y-326402D01*
Y-331321D01*
X-190956Y-336241D01*
X-205715D01*
X698518Y497000D02*
Y516679D01*
Y506839D01*
X669000D01*
Y526518D02*
X698518D01*
Y541277D01*
X693598Y546197D01*
X683759D01*
X678839Y541277D01*
Y526518D01*
X698518Y556036D02*
Y575715D01*
X693598D01*
X673920Y556036D01*
X669000D01*
X826518Y494000D02*
Y513679D01*
Y503839D01*
X797000D01*
Y523518D02*
X826518D01*
Y538277D01*
X821598Y543197D01*
X811759D01*
X806839Y538277D01*
Y523518D01*
X826518Y572715D02*
X821598Y562876D01*
X811759Y553036D01*
X801920D01*
X797000Y557956D01*
Y567795D01*
X801920Y572715D01*
X806839D01*
X811759Y567795D01*
Y553036D01*
X932518Y489000D02*
Y508679D01*
Y498839D01*
X903000D01*
Y518518D02*
X932518D01*
Y533277D01*
X927598Y538197D01*
X917759D01*
X912839Y533277D01*
Y518518D01*
X932518Y567715D02*
Y548036D01*
X917759D01*
X922679Y557876D01*
Y562795D01*
X917759Y567715D01*
X907920D01*
X903000Y562795D01*
Y552956D01*
X907920Y548036D01*
X-1141000Y-2530482D02*
X-1160679D01*
X-1150839D01*
Y-2560000D01*
X-1170518D02*
Y-2530482D01*
X-1185277D01*
X-1190197Y-2535402D01*
Y-2545241D01*
X-1185277Y-2550161D01*
X-1170518D01*
X-1200036Y-2535402D02*
X-1204956Y-2530482D01*
X-1214795D01*
X-1219715Y-2535402D01*
Y-2540321D01*
X-1214795Y-2545241D01*
X-1219715Y-2550161D01*
Y-2555080D01*
X-1214795Y-2560000D01*
X-1204956D01*
X-1200036Y-2555080D01*
Y-2550161D01*
X-1204956Y-2545241D01*
X-1200036Y-2540321D01*
Y-2535402D01*
X-1204956Y-2545241D02*
X-1214795D01*
X248000Y-52482D02*
X228321D01*
X238161D01*
Y-82000D01*
X218482D02*
Y-52482D01*
X203723D01*
X198803Y-57402D01*
Y-67241D01*
X203723Y-72161D01*
X218482D01*
X188964Y-57402D02*
X184044Y-52482D01*
X174205D01*
X169285Y-57402D01*
Y-62321D01*
X174205Y-67241D01*
X179124D01*
X174205D01*
X169285Y-72161D01*
Y-77080D01*
X174205Y-82000D01*
X184044D01*
X188964Y-77080D01*
X-593693Y-1340275D02*
X-613372D01*
X-603533D01*
Y-1369793D01*
X-623211D02*
Y-1340275D01*
X-637970D01*
X-642890Y-1345195D01*
Y-1355034D01*
X-637970Y-1359954D01*
X-623211D01*
X-672408Y-1369793D02*
X-652729D01*
X-672408Y-1350115D01*
Y-1345195D01*
X-667488Y-1340275D01*
X-657649D01*
X-652729Y-1345195D01*
X-1327520Y-2362522D02*
Y-2333004D01*
X-1342279D01*
X-1347199Y-2337924D01*
Y-2347763D01*
X-1342279Y-2352683D01*
X-1327520D01*
X-1357038Y-2337924D02*
X-1361958Y-2333004D01*
X-1371797D01*
X-1376717Y-2337924D01*
Y-2342843D01*
X-1371797Y-2347763D01*
X-1366878D01*
X-1371797D01*
X-1376717Y-2352683D01*
Y-2357602D01*
X-1371797Y-2362522D01*
X-1361958D01*
X-1357038Y-2357602D01*
X-13819Y-1967638D02*
X-8899Y-1972558D01*
Y-1982397D01*
X-13819Y-1987317D01*
X-33497D01*
X-38417Y-1982397D01*
Y-1972558D01*
X-33497Y-1967638D01*
X-38417Y-1938120D02*
Y-1957799D01*
X-18738Y-1938120D01*
X-13819D01*
X-8899Y-1943040D01*
Y-1952879D01*
X-13819Y-1957799D01*
X-38417Y-1908602D02*
Y-1928281D01*
X-18738Y-1908602D01*
X-13819D01*
X-8899Y-1913522D01*
Y-1923361D01*
X-13819Y-1928281D01*
X-992401Y-32323D02*
X-987482Y-37243D01*
Y-47082D01*
X-992401Y-52002D01*
X-1012080D01*
X-1017000Y-47082D01*
Y-37243D01*
X-1012080Y-32323D01*
X-1017000Y-22484D02*
Y-12644D01*
Y-17564D01*
X-987482D01*
X-992401Y-22484D01*
X-1017000Y2115D02*
Y11954D01*
Y7034D01*
X-987482D01*
X-992401Y2115D01*
X136598Y-1210321D02*
X141518Y-1215241D01*
Y-1225080D01*
X136598Y-1230000D01*
X116920D01*
X112000Y-1225080D01*
Y-1215241D01*
X116920Y-1210321D01*
Y-1200482D02*
X112000Y-1195562D01*
Y-1185723D01*
X116920Y-1180803D01*
X136598D01*
X141518Y-1185723D01*
Y-1195562D01*
X136598Y-1200482D01*
X131679D01*
X126759Y-1195562D01*
Y-1180803D01*
X237598Y-1207321D02*
X242518Y-1212241D01*
Y-1222080D01*
X237598Y-1227000D01*
X217920D01*
X213000Y-1222080D01*
Y-1212241D01*
X217920Y-1207321D01*
X237598Y-1197482D02*
X242518Y-1192562D01*
Y-1182723D01*
X237598Y-1177803D01*
X232679D01*
X227759Y-1182723D01*
X222839Y-1177803D01*
X217920D01*
X213000Y-1182723D01*
Y-1192562D01*
X217920Y-1197482D01*
X222839D01*
X227759Y-1192562D01*
X232679Y-1197482D01*
X237598D01*
X227759Y-1192562D02*
Y-1182723D01*
X166181Y-907481D02*
X171101Y-912400D01*
Y-922240D01*
X166181Y-927159D01*
X146502D01*
X141583Y-922240D01*
Y-912400D01*
X146502Y-907481D01*
X171101Y-897641D02*
Y-877962D01*
X166181D01*
X146502Y-897641D01*
X141583D01*
X589890Y834406D02*
X570211D01*
Y829486D01*
X589890Y809808D01*
Y804888D01*
X570211D01*
X560372Y834406D02*
Y804888D01*
Y819647D01*
X540693D01*
Y834406D01*
Y804888D01*
X501336D02*
Y824567D01*
X491496Y834406D01*
X481657Y824567D01*
Y804888D01*
Y819647D01*
X501336D01*
X452139Y834406D02*
Y804888D01*
X466898D01*
X471818Y809808D01*
Y819647D01*
X466898Y824567D01*
X452139D01*
X442300Y795049D02*
X437380D01*
X432460Y799968D01*
Y824567D01*
X412781D02*
Y809808D01*
X407862Y804888D01*
X393103D01*
Y824567D01*
X383263Y804888D02*
X368504D01*
X363585Y809808D01*
X368504Y814727D01*
X378344D01*
X383263Y819647D01*
X378344Y824567D01*
X363585D01*
X348825Y829486D02*
Y824567D01*
X353745D01*
X343906D01*
X348825D01*
Y809808D01*
X343906Y804888D01*
X299629D02*
Y834406D01*
X284870D01*
X279950Y829486D01*
Y819647D01*
X284870Y814727D01*
X299629D01*
X265191Y804888D02*
X255352D01*
X250432Y809808D01*
Y819647D01*
X255352Y824567D01*
X265191D01*
X270111Y819647D01*
Y809808D01*
X265191Y804888D01*
X235673Y829486D02*
Y824567D01*
X240593D01*
X230753D01*
X235673D01*
Y809808D01*
X230753Y804888D01*
X689518Y292000D02*
Y311679D01*
X684598D01*
X664920Y292000D01*
X660000D01*
Y311679D01*
Y321518D02*
X689518D01*
Y336277D01*
X684598Y341197D01*
X674759D01*
X669839Y336277D01*
Y321518D01*
X802598Y288679D02*
X807518Y283759D01*
Y273920D01*
X802598Y269000D01*
X782920D01*
X778000Y273920D01*
Y283759D01*
X782920Y288679D01*
X792759D01*
Y278839D01*
X778000Y298518D02*
X807518D01*
X778000Y318197D01*
X807518D01*
Y328036D02*
X778000D01*
Y342795D01*
X782920Y347715D01*
X802598D01*
X807518Y342795D01*
Y328036D01*
X925518Y283000D02*
Y302679D01*
X920598D01*
X900920Y283000D01*
X896000D01*
Y302679D01*
X925518Y312518D02*
X896000D01*
X910759D01*
Y332197D01*
X925518D01*
X896000D01*
X-251000Y-258000D02*
Y-228482D01*
X-265759D01*
X-270679Y-233402D01*
Y-243241D01*
X-265759Y-248161D01*
X-251000D01*
X-280518Y-258000D02*
X-290358D01*
X-285438D01*
Y-228482D01*
X-280518D01*
X-310036Y-238321D02*
X-319875D01*
X-324795Y-243241D01*
Y-258000D01*
X-310036D01*
X-305116Y-253080D01*
X-310036Y-248161D01*
X-324795D01*
X-339554Y-233402D02*
Y-238321D01*
X-334635D01*
X-344474D01*
X-339554D01*
Y-253080D01*
X-344474Y-258000D01*
X-373992D02*
X-364153D01*
X-359233Y-253080D01*
Y-243241D01*
X-364153Y-238321D01*
X-373992D01*
X-378912Y-243241D01*
Y-248161D01*
X-359233D01*
X-418269Y-258000D02*
Y-228482D01*
X-437948Y-258000D01*
Y-228482D01*
X-260000Y241000D02*
Y270518D01*
X-274759D01*
X-279679Y265598D01*
Y255759D01*
X-274759Y250839D01*
X-260000D01*
X-289518Y241000D02*
X-299358D01*
X-294438D01*
Y270518D01*
X-289518D01*
X-319036Y260679D02*
X-328875D01*
X-333795Y255759D01*
Y241000D01*
X-319036D01*
X-314116Y245920D01*
X-319036Y250839D01*
X-333795D01*
X-348554Y265598D02*
Y260679D01*
X-343635D01*
X-353474D01*
X-348554D01*
Y245920D01*
X-353474Y241000D01*
X-382992D02*
X-373153D01*
X-368233Y245920D01*
Y255759D01*
X-373153Y260679D01*
X-382992D01*
X-387912Y255759D01*
Y250839D01*
X-368233D01*
X-427269Y241000D02*
Y270518D01*
X-442028D01*
X-446948Y265598D01*
Y255759D01*
X-442028Y250839D01*
X-427269D01*
%TF.MD5,e9ec7bd31e6e6030f1057c9ba07570ac*%
M02*
