G04 Layer_Physical_Order=1*
G04 Layer_Color=255*
%FSLAX26Y26*%
%MOIN*%
%TF.FileFunction,Copper,L1,Top,Signal*%
%TF.Part,Single*%
G01*
G75*
%TA.AperFunction,SMDPad,CuDef*%
%ADD10R,0.051181X0.033465*%
%ADD11R,0.033465X0.051181*%
%ADD12R,0.057087X0.045276*%
%ADD13O,0.055118X0.013780*%
%ADD14R,0.053150X0.037402*%
%ADD15R,0.037402X0.053150*%
%ADD16R,0.039370X0.023622*%
%ADD17R,0.045276X0.057087*%
G04:AMPARAMS|DCode=18|XSize=25.591mil|YSize=47.244mil|CornerRadius=1.919mil|HoleSize=0mil|Usage=FLASHONLY|Rotation=90.000|XOffset=0mil|YOffset=0mil|HoleType=Round|Shape=RoundedRectangle|*
%AMROUNDEDRECTD18*
21,1,0.025591,0.043406,0,0,90.0*
21,1,0.021752,0.047244,0,0,90.0*
1,1,0.003839,0.021703,0.010876*
1,1,0.003839,0.021703,-0.010876*
1,1,0.003839,-0.021703,-0.010876*
1,1,0.003839,-0.021703,0.010876*
%
%ADD18ROUNDEDRECTD18*%
%ADD19O,0.057087X0.009842*%
%ADD20O,0.049213X0.013780*%
G04:AMPARAMS|DCode=21|XSize=25.591mil|YSize=64.961mil|CornerRadius=1.919mil|HoleSize=0mil|Usage=FLASHONLY|Rotation=180.000|XOffset=0mil|YOffset=0mil|HoleType=Round|Shape=RoundedRectangle|*
%AMROUNDEDRECTD21*
21,1,0.025591,0.061122,0,0,180.0*
21,1,0.021752,0.064961,0,0,180.0*
1,1,0.003839,-0.010876,0.030561*
1,1,0.003839,0.010876,0.030561*
1,1,0.003839,0.010876,-0.030561*
1,1,0.003839,-0.010876,-0.030561*
%
%ADD21ROUNDEDRECTD21*%
G04:AMPARAMS|DCode=22|XSize=25.591mil|YSize=47.244mil|CornerRadius=1.919mil|HoleSize=0mil|Usage=FLASHONLY|Rotation=0.000|XOffset=0mil|YOffset=0mil|HoleType=Round|Shape=RoundedRectangle|*
%AMROUNDEDRECTD22*
21,1,0.025591,0.043406,0,0,0.0*
21,1,0.021752,0.047244,0,0,0.0*
1,1,0.003839,0.010876,-0.021703*
1,1,0.003839,-0.010876,-0.021703*
1,1,0.003839,-0.010876,0.021703*
1,1,0.003839,0.010876,0.021703*
%
%ADD22ROUNDEDRECTD22*%
%TA.AperFunction,Conductor*%
%ADD23C,0.010000*%
%ADD24C,0.015000*%
%TA.AperFunction,ComponentPad*%
%ADD25R,0.059055X0.059055*%
%ADD26C,0.059055*%
%ADD27C,0.042000*%
%TA.AperFunction,ViaPad*%
%ADD28C,0.196850*%
%TA.AperFunction,ComponentPad*%
%ADD29C,0.040000*%
%ADD30C,0.060000*%
%ADD31C,0.062992*%
%TA.AperFunction,ViaPad*%
%ADD32C,0.050000*%
%ADD33C,0.039370*%
G36*
X955945Y425912D02*
X951095Y425074D01*
X947525Y433693D01*
X941845Y441095D01*
X934443Y446775D01*
X925824Y450345D01*
X916574Y451563D01*
X907324Y450345D01*
X898705Y446775D01*
X891303Y441095D01*
X885623Y433693D01*
X882053Y425074D01*
X880835Y415824D01*
X882053Y406574D01*
X885623Y397955D01*
X891303Y390553D01*
X898705Y384873D01*
X907324Y381303D01*
X916574Y380085D01*
X925824Y381303D01*
X934443Y384873D01*
X941845Y390553D01*
X947525Y397955D01*
X951095Y406574D01*
X955945Y405736D01*
Y-2970002D01*
X-1485000D01*
Y888266D01*
X955945D01*
Y425912D01*
D02*
G37*
%LPC*%
G36*
X-337154Y-1536989D02*
X-358906D01*
X-361959Y-1537596D01*
X-364547Y-1539326D01*
X-366277Y-1541914D01*
X-366884Y-1544967D01*
Y-1606089D01*
X-366277Y-1609142D01*
X-364547Y-1611730D01*
X-361959Y-1613460D01*
X-358906Y-1614067D01*
X-337154D01*
X-334101Y-1613460D01*
X-331513Y-1611730D01*
X-329783Y-1609142D01*
X-329176Y-1606089D01*
Y-1544967D01*
X-329783Y-1541914D01*
X-331513Y-1539326D01*
X-334101Y-1537596D01*
X-337154Y-1536989D01*
D02*
G37*
G36*
X848464Y-1507803D02*
X839091Y-1509037D01*
X830356Y-1512655D01*
X822856Y-1518410D01*
X817101Y-1525910D01*
X813483Y-1534645D01*
X812249Y-1544018D01*
X813483Y-1553391D01*
X817101Y-1562126D01*
X822856Y-1569626D01*
X830356Y-1575381D01*
X839091Y-1578999D01*
X848464Y-1580233D01*
X857837Y-1578999D01*
X866572Y-1575381D01*
X874072Y-1569626D01*
X879827Y-1562126D01*
X883445Y-1553391D01*
X884679Y-1544018D01*
X883445Y-1534645D01*
X879827Y-1525910D01*
X874072Y-1518410D01*
X866572Y-1512655D01*
X857837Y-1509037D01*
X848464Y-1507803D01*
D02*
G37*
G36*
X-459873Y-1456882D02*
X-493416D01*
Y-1484520D01*
X-459873D01*
Y-1456882D01*
D02*
G37*
G36*
X-503416D02*
X-536959D01*
Y-1484520D01*
X-503416D01*
Y-1456882D01*
D02*
G37*
G36*
X748464Y-1607803D02*
X739091Y-1609037D01*
X730356Y-1612655D01*
X722856Y-1618410D01*
X717101Y-1625910D01*
X713483Y-1634645D01*
X712249Y-1644018D01*
X713483Y-1653391D01*
X717101Y-1662126D01*
X722856Y-1669626D01*
X730356Y-1675381D01*
X739091Y-1678999D01*
X748464Y-1680233D01*
X757837Y-1678999D01*
X766572Y-1675381D01*
X774072Y-1669626D01*
X779827Y-1662126D01*
X783445Y-1653391D01*
X784679Y-1644018D01*
X783445Y-1634645D01*
X779827Y-1625910D01*
X774072Y-1618410D01*
X766572Y-1612655D01*
X757837Y-1609037D01*
X748464Y-1607803D01*
D02*
G37*
G36*
X-555936Y-1681214D02*
X-620896D01*
Y-1694701D01*
X-626920D01*
Y-1681214D01*
X-689912D01*
Y-1699881D01*
X-710503D01*
Y-1694826D01*
X-773495D01*
Y-1740101D01*
X-710503D01*
Y-1722119D01*
X-689912D01*
Y-1726490D01*
X-626920D01*
Y-1716939D01*
X-620896D01*
Y-1730426D01*
X-575790D01*
X-574715Y-1730640D01*
X-574715Y-1730640D01*
X-511400D01*
X-487609Y-1754431D01*
X-489680Y-1759431D01*
X-508906D01*
X-511959Y-1760038D01*
X-514547Y-1761768D01*
X-516277Y-1764356D01*
X-516884Y-1767409D01*
Y-1771394D01*
X-555936D01*
Y-1744206D01*
X-620896D01*
Y-1759661D01*
X-626920D01*
Y-1748142D01*
X-689912D01*
Y-1793418D01*
X-626920D01*
Y-1781899D01*
X-620896D01*
Y-1793418D01*
X-599535D01*
Y-1803898D01*
X-621496D01*
Y-1849174D01*
X-558504D01*
Y-1803898D01*
X-577297D01*
Y-1794136D01*
X-576683Y-1793632D01*
X-576683Y-1793632D01*
X-516884D01*
Y-1828531D01*
X-516277Y-1831584D01*
X-514547Y-1834172D01*
X-511959Y-1835902D01*
X-508906Y-1836509D01*
X-487154D01*
X-484101Y-1835902D01*
X-481513Y-1834172D01*
X-479783Y-1831584D01*
X-479176Y-1828531D01*
Y-1769935D01*
X-474176Y-1767864D01*
X-466884Y-1775156D01*
Y-1828531D01*
X-466277Y-1831584D01*
X-464547Y-1834172D01*
X-461959Y-1835902D01*
X-458906Y-1836509D01*
X-439912D01*
Y-1876490D01*
X-376920D01*
Y-1831214D01*
X-376974D01*
X-379176Y-1828531D01*
Y-1767409D01*
X-379783Y-1764356D01*
X-381513Y-1761768D01*
X-384101Y-1760038D01*
X-387154Y-1759431D01*
X-408906D01*
X-411959Y-1760038D01*
X-414547Y-1761768D01*
X-416277Y-1764356D01*
X-416884Y-1767409D01*
Y-1828531D01*
X-419086Y-1831214D01*
X-426974D01*
X-429176Y-1828531D01*
Y-1767409D01*
X-429783Y-1764356D01*
X-431513Y-1761768D01*
X-434101Y-1760038D01*
X-437154Y-1759431D01*
X-451159D01*
X-498932Y-1711658D01*
X-502539Y-1709248D01*
X-506794Y-1708401D01*
X-506795Y-1708402D01*
X-555936D01*
Y-1681214D01*
D02*
G37*
G36*
X-293306Y-1581034D02*
X-301374Y-1582096D01*
X-308892Y-1585210D01*
X-315348Y-1590164D01*
X-320302Y-1596620D01*
X-323416Y-1604138D01*
X-324478Y-1612206D01*
X-323416Y-1620274D01*
X-321566Y-1624741D01*
X-355892Y-1659068D01*
X-358303Y-1662675D01*
X-359149Y-1666930D01*
X-359149Y-1666930D01*
Y-1759479D01*
X-361959Y-1760038D01*
X-364547Y-1761768D01*
X-366277Y-1764356D01*
X-366884Y-1767409D01*
Y-1828531D01*
X-366277Y-1831584D01*
X-364547Y-1834172D01*
X-361959Y-1835902D01*
X-358906Y-1836509D01*
X-344103D01*
X-342900Y-1837313D01*
X-338645Y-1838159D01*
X-338644Y-1838159D01*
X-327865D01*
Y-1873221D01*
X-258967D01*
Y-1816135D01*
X-315885D01*
X-316959Y-1815921D01*
X-316960Y-1815921D01*
X-329176D01*
Y-1767409D01*
X-329783Y-1764356D01*
X-331513Y-1761768D01*
X-334101Y-1760038D01*
X-336911Y-1759479D01*
Y-1671536D01*
X-305841Y-1640466D01*
X-301374Y-1642316D01*
X-293306Y-1643378D01*
X-285238Y-1642316D01*
X-277720Y-1639202D01*
X-271264Y-1634248D01*
X-266310Y-1627792D01*
X-263196Y-1620274D01*
X-262134Y-1612206D01*
X-263196Y-1604138D01*
X-266310Y-1596620D01*
X-271264Y-1590164D01*
X-277720Y-1585210D01*
X-285238Y-1582096D01*
X-293306Y-1581034D01*
D02*
G37*
G36*
X-387154Y-1536989D02*
X-408906D01*
X-411959Y-1537596D01*
X-414547Y-1539326D01*
X-416277Y-1541914D01*
X-416884Y-1544967D01*
Y-1606089D01*
X-416277Y-1609142D01*
X-414547Y-1611730D01*
X-411959Y-1613460D01*
X-408906Y-1614067D01*
X-387154D01*
X-384101Y-1613460D01*
X-381513Y-1611730D01*
X-379783Y-1609142D01*
X-379176Y-1606089D01*
Y-1544967D01*
X-379783Y-1541914D01*
X-381513Y-1539326D01*
X-384101Y-1537596D01*
X-387154Y-1536989D01*
D02*
G37*
G36*
X-463967Y-1494205D02*
X-532865D01*
Y-1551291D01*
X-516884D01*
Y-1566197D01*
X-535323D01*
X-536063Y-1564410D01*
X-540165Y-1559065D01*
X-545510Y-1554963D01*
X-551736Y-1552384D01*
X-558416Y-1551505D01*
X-565096Y-1552384D01*
X-571322Y-1554963D01*
X-576667Y-1559065D01*
X-580769Y-1564410D01*
X-583348Y-1570636D01*
X-584227Y-1577316D01*
X-583348Y-1583996D01*
X-580769Y-1590222D01*
X-576667Y-1595567D01*
X-571322Y-1599669D01*
X-565096Y-1602248D01*
X-558416Y-1603127D01*
X-551736Y-1602248D01*
X-545510Y-1599669D01*
X-540165Y-1595567D01*
X-536063Y-1590222D01*
X-535323Y-1588435D01*
X-516884D01*
Y-1606089D01*
X-516277Y-1609142D01*
X-514547Y-1611730D01*
X-511959Y-1613460D01*
X-508906Y-1614067D01*
X-487154D01*
X-484101Y-1613460D01*
X-481513Y-1611730D01*
X-479783Y-1609142D01*
X-479176Y-1606089D01*
Y-1551291D01*
X-466884D01*
Y-1606089D01*
X-466277Y-1609142D01*
X-464547Y-1611730D01*
X-461959Y-1613460D01*
X-458906Y-1614067D01*
X-437154D01*
X-434101Y-1613460D01*
X-431513Y-1611730D01*
X-429783Y-1609142D01*
X-429176Y-1606089D01*
Y-1544967D01*
X-429783Y-1541914D01*
X-431513Y-1539326D01*
X-434101Y-1537596D01*
X-437154Y-1536989D01*
X-458906D01*
X-458967Y-1537001D01*
X-463967Y-1533382D01*
Y-1494205D01*
D02*
G37*
G36*
X-131465Y-1416299D02*
X-155748D01*
Y-1440582D01*
X-152999Y-1440220D01*
X-145777Y-1437229D01*
X-139576Y-1432471D01*
X-134818Y-1426270D01*
X-131827Y-1419049D01*
X-131465Y-1416299D01*
D02*
G37*
G36*
X-165748D02*
X-190031D01*
X-189669Y-1419049D01*
X-186678Y-1426270D01*
X-181920Y-1432471D01*
X-175719Y-1437229D01*
X-168497Y-1440220D01*
X-165748Y-1440582D01*
Y-1416299D01*
D02*
G37*
G36*
X227953D02*
X203670D01*
X204032Y-1419049D01*
X207023Y-1426270D01*
X211781Y-1432471D01*
X217982Y-1437229D01*
X225203Y-1440220D01*
X227953Y-1440582D01*
Y-1416299D01*
D02*
G37*
G36*
X655937D02*
X631654D01*
Y-1440582D01*
X634403Y-1440220D01*
X641624Y-1437229D01*
X647825Y-1432471D01*
X652583Y-1426270D01*
X655575Y-1419049D01*
X655937Y-1416299D01*
D02*
G37*
G36*
X262236D02*
X237953D01*
Y-1440582D01*
X240702Y-1440220D01*
X247923Y-1437229D01*
X254124Y-1432471D01*
X258883Y-1426270D01*
X261874Y-1419049D01*
X262236Y-1416299D01*
D02*
G37*
G36*
X848464Y-1407803D02*
X839091Y-1409037D01*
X830356Y-1412655D01*
X822856Y-1418410D01*
X817101Y-1425910D01*
X813483Y-1434645D01*
X812249Y-1444018D01*
X813483Y-1453391D01*
X817101Y-1462126D01*
X822856Y-1469626D01*
X830356Y-1475381D01*
X839091Y-1478999D01*
X848464Y-1480233D01*
X857837Y-1478999D01*
X866572Y-1475381D01*
X874072Y-1469626D01*
X879827Y-1462126D01*
X883445Y-1453391D01*
X884679Y-1444018D01*
X883445Y-1434645D01*
X879827Y-1425910D01*
X874072Y-1418410D01*
X866572Y-1412655D01*
X857837Y-1409037D01*
X848464Y-1407803D01*
D02*
G37*
G36*
X748464D02*
X739091Y-1409037D01*
X730356Y-1412655D01*
X722856Y-1418410D01*
X717101Y-1425910D01*
X713483Y-1434645D01*
X712249Y-1444018D01*
X713483Y-1453391D01*
X717101Y-1462126D01*
X722856Y-1469626D01*
X730356Y-1475381D01*
X739091Y-1478999D01*
X748464Y-1480233D01*
X757837Y-1478999D01*
X766572Y-1475381D01*
X774072Y-1469626D01*
X779827Y-1462126D01*
X783445Y-1453391D01*
X784679Y-1444018D01*
X783445Y-1434645D01*
X779827Y-1425910D01*
X774072Y-1418410D01*
X766572Y-1412655D01*
X757837Y-1409037D01*
X748464Y-1407803D01*
D02*
G37*
G36*
X465284Y-1430670D02*
X434694D01*
Y-1452402D01*
X465284D01*
Y-1430670D01*
D02*
G37*
G36*
X-459873Y-1419244D02*
X-493416D01*
Y-1446882D01*
X-459873D01*
Y-1419244D01*
D02*
G37*
G36*
X-503416D02*
X-536959D01*
Y-1446882D01*
X-503416D01*
Y-1419244D01*
D02*
G37*
G36*
X848464Y-1707803D02*
X839091Y-1709037D01*
X830356Y-1712655D01*
X822856Y-1718410D01*
X817101Y-1725910D01*
X813483Y-1734645D01*
X812249Y-1744018D01*
X813483Y-1753391D01*
X817101Y-1762126D01*
X822856Y-1769626D01*
X830356Y-1775381D01*
X839091Y-1778999D01*
X848464Y-1780233D01*
X857837Y-1778999D01*
X866572Y-1775381D01*
X874072Y-1769626D01*
X879827Y-1762126D01*
X883445Y-1753391D01*
X884679Y-1744018D01*
X883445Y-1734645D01*
X879827Y-1725910D01*
X874072Y-1718410D01*
X866572Y-1712655D01*
X857837Y-1709037D01*
X848464Y-1707803D01*
D02*
G37*
G36*
X-372825Y-1925780D02*
X-403416D01*
Y-1947512D01*
X-372825D01*
Y-1925780D01*
D02*
G37*
G36*
X-413416D02*
X-444007D01*
Y-1947512D01*
X-413416D01*
Y-1925780D01*
D02*
G37*
G36*
Y-1894048D02*
X-444007D01*
Y-1915780D01*
X-413416D01*
Y-1894048D01*
D02*
G37*
G36*
X-745826Y-1863504D02*
X-791102D01*
Y-1926496D01*
X-791102D01*
X-790137Y-1931496D01*
X-792042Y-1932958D01*
X-796996Y-1939414D01*
X-800110Y-1946932D01*
X-801172Y-1955000D01*
X-800110Y-1963068D01*
X-796996Y-1970586D01*
X-792042Y-1977042D01*
X-785586Y-1981996D01*
X-778068Y-1985110D01*
X-770000Y-1986172D01*
X-761932Y-1985110D01*
X-754414Y-1981996D01*
X-747958Y-1977042D01*
X-743004Y-1970586D01*
X-739890Y-1963068D01*
X-738828Y-1955000D01*
X-739890Y-1946932D01*
X-743004Y-1939414D01*
X-747958Y-1932958D01*
X-749863Y-1931496D01*
X-748166Y-1926496D01*
X-745826D01*
Y-1863504D01*
D02*
G37*
G36*
X-254873Y-1920546D02*
X-288416D01*
Y-1948184D01*
X-254873D01*
Y-1920546D01*
D02*
G37*
G36*
X-678898Y-1863504D02*
X-724174D01*
Y-1926496D01*
X-678898D01*
Y-1904583D01*
X-621496D01*
Y-1916102D01*
X-601119D01*
Y-1922520D01*
X-616102D01*
Y-1987480D01*
X-601119D01*
Y-1998898D01*
X-621496Y-1998898D01*
X-623851Y-1994874D01*
X-623953Y-1994101D01*
X-626944Y-1986880D01*
X-631702Y-1980679D01*
X-637903Y-1975921D01*
X-645125Y-1972929D01*
X-647874Y-1972567D01*
Y-2001850D01*
Y-2031133D01*
X-645125Y-2030771D01*
X-637903Y-2027780D01*
X-631702Y-2023022D01*
X-626944Y-2016821D01*
X-626496Y-2015739D01*
X-621496Y-2016734D01*
Y-2044174D01*
X-558504D01*
Y-1998898D01*
X-578881D01*
Y-1987480D01*
X-566890D01*
Y-1922520D01*
X-578881D01*
Y-1916102D01*
X-563089Y-1916102D01*
X-562358Y-1916102D01*
X-560975Y-1916256D01*
X-557953Y-1917995D01*
X-557341Y-1920096D01*
X-557205Y-1921239D01*
X-557205Y-1922618D01*
Y-1950000D01*
X-533504D01*
Y-1918425D01*
X-552620Y-1918425D01*
X-553351Y-1918425D01*
X-554734Y-1918271D01*
X-557756Y-1916532D01*
X-558368Y-1914431D01*
X-558504Y-1913288D01*
X-558504Y-1911909D01*
Y-1870826D01*
X-621496D01*
Y-1882345D01*
X-678898D01*
Y-1863504D01*
D02*
G37*
G36*
X748464Y-1707803D02*
X739091Y-1709037D01*
X730356Y-1712655D01*
X722856Y-1718410D01*
X717101Y-1725910D01*
X713483Y-1734645D01*
X712249Y-1744018D01*
X713483Y-1753391D01*
X717101Y-1762126D01*
X722856Y-1769626D01*
X730356Y-1775381D01*
X737345Y-1778276D01*
Y-1809760D01*
X730356Y-1812655D01*
X722856Y-1818410D01*
X717101Y-1825910D01*
X713483Y-1834645D01*
X712249Y-1844018D01*
X713483Y-1853391D01*
X717101Y-1862126D01*
X722856Y-1869626D01*
X730356Y-1875381D01*
X737345Y-1878276D01*
Y-1909760D01*
X730356Y-1912655D01*
X722856Y-1918410D01*
X717101Y-1925910D01*
X713483Y-1934645D01*
X712249Y-1944018D01*
X713483Y-1953391D01*
X717101Y-1962126D01*
X722856Y-1969626D01*
X730356Y-1975381D01*
X739091Y-1978999D01*
X748464Y-1980233D01*
X757837Y-1978999D01*
X766572Y-1975381D01*
X774072Y-1969626D01*
X779827Y-1962126D01*
X783445Y-1953391D01*
X784679Y-1944018D01*
X783445Y-1934645D01*
X779827Y-1925910D01*
X774072Y-1918410D01*
X766572Y-1912655D01*
X759583Y-1909760D01*
Y-1878276D01*
X766572Y-1875381D01*
X774072Y-1869626D01*
X779827Y-1862126D01*
X783445Y-1853391D01*
X784679Y-1844018D01*
X783445Y-1834645D01*
X779827Y-1825910D01*
X774072Y-1818410D01*
X766572Y-1812655D01*
X759583Y-1809760D01*
Y-1778276D01*
X766572Y-1775381D01*
X774072Y-1769626D01*
X779827Y-1762126D01*
X783445Y-1753391D01*
X784679Y-1744018D01*
X783445Y-1734645D01*
X779827Y-1725910D01*
X774072Y-1718410D01*
X766572Y-1712655D01*
X757837Y-1709037D01*
X748464Y-1707803D01*
D02*
G37*
G36*
X-298416Y-1920546D02*
X-331959D01*
Y-1948184D01*
X-298416D01*
Y-1920546D01*
D02*
G37*
G36*
X-523504Y-1918425D02*
Y-1950000D01*
X-499803D01*
Y-1918425D01*
X-523504D01*
D02*
G37*
G36*
X-372825Y-1894048D02*
X-403416D01*
Y-1915780D01*
X-372825D01*
Y-1894048D01*
D02*
G37*
G36*
X655937Y-1810000D02*
X631654D01*
Y-1834283D01*
X634403Y-1833921D01*
X641624Y-1830930D01*
X647825Y-1826172D01*
X652583Y-1819971D01*
X655575Y-1812749D01*
X655937Y-1810000D01*
D02*
G37*
G36*
X621654D02*
X597371D01*
X597733Y-1812749D01*
X600724Y-1819971D01*
X605482Y-1826172D01*
X611683Y-1830930D01*
X618904Y-1833921D01*
X621654Y-1834283D01*
Y-1810000D01*
D02*
G37*
G36*
X631654Y-1775717D02*
Y-1800000D01*
X655937D01*
X655575Y-1797251D01*
X652583Y-1790029D01*
X647825Y-1783828D01*
X641624Y-1779070D01*
X634403Y-1776079D01*
X631654Y-1775717D01*
D02*
G37*
G36*
X621654D02*
X618904Y-1776079D01*
X611683Y-1779070D01*
X605482Y-1783828D01*
X600724Y-1790029D01*
X597733Y-1797251D01*
X597371Y-1800000D01*
X621654D01*
Y-1775717D01*
D02*
G37*
G36*
X848464Y-1807803D02*
X839091Y-1809037D01*
X830356Y-1812655D01*
X822856Y-1818410D01*
X817101Y-1825910D01*
X813483Y-1834645D01*
X812249Y-1844018D01*
X813483Y-1853391D01*
X817101Y-1862126D01*
X822856Y-1869626D01*
X830356Y-1875381D01*
X839091Y-1878999D01*
X848464Y-1880233D01*
X857837Y-1878999D01*
X866572Y-1875381D01*
X874072Y-1869626D01*
X879827Y-1862126D01*
X883445Y-1853391D01*
X884679Y-1844018D01*
X883445Y-1834645D01*
X879827Y-1825910D01*
X874072Y-1818410D01*
X866572Y-1812655D01*
X857837Y-1809037D01*
X848464Y-1807803D01*
D02*
G37*
G36*
X-298416Y-1882908D02*
X-331959D01*
Y-1910546D01*
X-298416D01*
Y-1882908D01*
D02*
G37*
G36*
X525000Y-1809189D02*
X518319Y-1810068D01*
X512094Y-1812647D01*
X506749Y-1816749D01*
X502647Y-1822094D01*
X500068Y-1828320D01*
X499189Y-1835000D01*
X500068Y-1841680D01*
X502647Y-1847906D01*
X506749Y-1853251D01*
X512094Y-1857353D01*
X513881Y-1858093D01*
Y-1880884D01*
X495929D01*
X490937Y-1881877D01*
X486705Y-1884705D01*
X483877Y-1888938D01*
X482884Y-1893930D01*
X483877Y-1898922D01*
X486705Y-1903155D01*
Y-1905371D01*
X483753Y-1907343D01*
X480020Y-1912930D01*
X479703Y-1914520D01*
X513646D01*
X547589D01*
X547272Y-1912930D01*
X543539Y-1907343D01*
X540587Y-1905371D01*
Y-1903155D01*
X543415Y-1898922D01*
X544409Y-1893930D01*
X543415Y-1888938D01*
X540587Y-1884705D01*
X536355Y-1881877D01*
X536119Y-1881830D01*
Y-1858093D01*
X537906Y-1857353D01*
X543251Y-1853251D01*
X547353Y-1847906D01*
X549932Y-1841680D01*
X550811Y-1835000D01*
X549932Y-1828320D01*
X547353Y-1822094D01*
X543251Y-1816749D01*
X537906Y-1812647D01*
X531681Y-1810068D01*
X525000Y-1809189D01*
D02*
G37*
G36*
X36190Y-1281032D02*
X-26802D01*
Y-1326308D01*
X-6425D01*
Y-1348104D01*
X-26802D01*
Y-1393380D01*
X36190D01*
Y-1352994D01*
X36190Y-1351181D01*
X40489Y-1347411D01*
X41624Y-1347467D01*
X97853Y-1403695D01*
Y-1886291D01*
X97853Y-1886292D01*
X98699Y-1890547D01*
X100745Y-1893608D01*
X99780Y-1897363D01*
X99264Y-1898608D01*
X-55000D01*
X-56643Y-1899289D01*
X-61644Y-1896071D01*
Y-1510874D01*
X-11077Y-1460308D01*
X36190D01*
Y-1415032D01*
X-26802D01*
Y-1444583D01*
X-80625Y-1498406D01*
X-83035Y-1502013D01*
X-83882Y-1506268D01*
X-83882Y-1506269D01*
Y-1897435D01*
X-130755D01*
Y-1914859D01*
X-166978D01*
X-171233Y-1915705D01*
X-174840Y-1918116D01*
X-174841Y-1918116D01*
X-235652Y-1978927D01*
X-441184D01*
X-445439Y-1979773D01*
X-449046Y-1982184D01*
X-449047Y-1982184D01*
X-488381Y-2021518D01*
X-492042Y-2020002D01*
X-500110Y-2018940D01*
X-508178Y-2020002D01*
X-515696Y-2023116D01*
X-522152Y-2028070D01*
X-527106Y-2034526D01*
X-530220Y-2042044D01*
X-531282Y-2050112D01*
X-530220Y-2058180D01*
X-527106Y-2065698D01*
X-522152Y-2072154D01*
X-515696Y-2077108D01*
X-508178Y-2080222D01*
X-500110Y-2081284D01*
X-492042Y-2080222D01*
X-484524Y-2077108D01*
X-478068Y-2072154D01*
X-473114Y-2065698D01*
X-470000Y-2058180D01*
X-468938Y-2050112D01*
X-470000Y-2042044D01*
X-472184Y-2036771D01*
X-462374Y-2026961D01*
X-457755Y-2028875D01*
Y-2067315D01*
X-388857D01*
Y-2055641D01*
X-361807D01*
X-360527Y-2060111D01*
X-360527D01*
Y-2076922D01*
X-330842D01*
X-301157D01*
Y-2060111D01*
X-305252D01*
Y-2026805D01*
X-356433D01*
Y-2033403D01*
X-388857D01*
Y-2010229D01*
X-439109D01*
X-441022Y-2005609D01*
X-436578Y-2001165D01*
X-231047D01*
X-231046Y-2001166D01*
X-226791Y-2000319D01*
X-223184Y-1997909D01*
X-162372Y-1937097D01*
X-130755D01*
Y-1954521D01*
X-79743D01*
X-78668Y-1954735D01*
X-61392D01*
Y-1963493D01*
X-61857Y-1968301D01*
X-130755D01*
Y-2003363D01*
X-184660D01*
X-188915Y-2004209D01*
X-192522Y-2006619D01*
X-192523Y-2006620D01*
X-212708Y-2026805D01*
X-248165D01*
Y-2062238D01*
X-248165D01*
Y-2064206D01*
X-248165D01*
Y-2099638D01*
X-248165D01*
Y-2101608D01*
X-248165D01*
Y-2108205D01*
X-299882D01*
X-301157Y-2103733D01*
X-301157D01*
Y-2086922D01*
X-330842D01*
X-360527D01*
Y-2103733D01*
X-356433D01*
Y-2137041D01*
X-305252D01*
Y-2130443D01*
X-248165D01*
Y-2137041D01*
X-196983D01*
Y-2130443D01*
X-155095D01*
X-155094Y-2130443D01*
X-150839Y-2129597D01*
X-147232Y-2127186D01*
X-82574Y-2062529D01*
X-68921D01*
X-66562Y-2066174D01*
X-27574D01*
Y-2076174D01*
X-65415D01*
X-65251Y-2076996D01*
X-63376Y-2079803D01*
X-62493Y-2082796D01*
X-64600Y-2086177D01*
X-65614Y-2086855D01*
X-114910Y-2136151D01*
X-117321Y-2139759D01*
X-118167Y-2144014D01*
X-118167Y-2144015D01*
Y-2171319D01*
X-119954Y-2172059D01*
X-125299Y-2176161D01*
X-129401Y-2181506D01*
X-129864Y-2182624D01*
X-132289Y-2183166D01*
X-135413Y-2182955D01*
X-139576Y-2177529D01*
X-145777Y-2172771D01*
X-152999Y-2169780D01*
X-155748Y-2169418D01*
Y-2198701D01*
Y-2227984D01*
X-152999Y-2227622D01*
X-145777Y-2224631D01*
X-139576Y-2219872D01*
X-134818Y-2213671D01*
X-133399Y-2210245D01*
X-127695Y-2209541D01*
X-125299Y-2212663D01*
X-119954Y-2216765D01*
X-113728Y-2219344D01*
X-107048Y-2220223D01*
X-100368Y-2219344D01*
X-94142Y-2216765D01*
X-88797Y-2212663D01*
X-84695Y-2207318D01*
X-82116Y-2201093D01*
X-81237Y-2194412D01*
X-82116Y-2187731D01*
X-84695Y-2181506D01*
X-88797Y-2176161D01*
X-94142Y-2172059D01*
X-95929Y-2171319D01*
Y-2148620D01*
X-65273Y-2117964D01*
X-59002Y-2118350D01*
X-55420Y-2120742D01*
X-51196Y-2121583D01*
X-39427D01*
Y-2135885D01*
X-41214Y-2136625D01*
X-46559Y-2140727D01*
X-50661Y-2146072D01*
X-53240Y-2152298D01*
X-54119Y-2158978D01*
X-53560Y-2163226D01*
X-56332Y-2167588D01*
X-57885Y-2168373D01*
X-58561Y-2169161D01*
X-59520Y-2169558D01*
X-60094Y-2170945D01*
X-61073Y-2172084D01*
X-60995Y-2173119D01*
X-61392Y-2174078D01*
Y-2290000D01*
Y-2325000D01*
X-59520Y-2329520D01*
X-55000Y-2331392D01*
X-27628D01*
X-26142Y-2330776D01*
X-24542Y-2330598D01*
X-23964Y-2329874D01*
X-23108Y-2329520D01*
X-22493Y-2328033D01*
X-21488Y-2326776D01*
X-20604Y-2323719D01*
X-17802Y-2321014D01*
X-15195Y-2320127D01*
X-10000Y-2320811D01*
X-4805Y-2320127D01*
X-2199Y-2321014D01*
X604Y-2323719D01*
X1488Y-2326776D01*
X2493Y-2328033D01*
X3108Y-2329520D01*
X3964Y-2329874D01*
X4542Y-2330598D01*
X6142Y-2330776D01*
X7628Y-2331392D01*
X195000D01*
X199520Y-2329520D01*
X201392Y-2325000D01*
Y-2097260D01*
X206012Y-2095346D01*
X397147Y-2286482D01*
Y-2296972D01*
X397147Y-2296973D01*
X397208Y-2297277D01*
Y-2303881D01*
X388093D01*
X387353Y-2302094D01*
X383251Y-2296749D01*
X377906Y-2292647D01*
X371680Y-2290068D01*
X365000Y-2289189D01*
X358320Y-2290068D01*
X352094Y-2292647D01*
X346749Y-2296749D01*
X342647Y-2302094D01*
X340068Y-2308320D01*
X339189Y-2315000D01*
X340068Y-2321680D01*
X342647Y-2327906D01*
X346749Y-2333251D01*
X352094Y-2337353D01*
X358320Y-2339932D01*
X365000Y-2340811D01*
X371680Y-2339932D01*
X377906Y-2337353D01*
X383251Y-2333251D01*
X387353Y-2327906D01*
X388093Y-2326119D01*
X397208D01*
Y-2337297D01*
X397815Y-2340350D01*
X399545Y-2342938D01*
X402133Y-2344668D01*
X405186Y-2345275D01*
X426938D01*
X429991Y-2344668D01*
X432579Y-2342938D01*
X434309Y-2340350D01*
X434916Y-2337297D01*
Y-2301638D01*
X490933Y-2245621D01*
X493344Y-2242014D01*
X494190Y-2237759D01*
Y-2229133D01*
X501742D01*
X504795Y-2228526D01*
X507383Y-2226796D01*
X509113Y-2224208D01*
X509720Y-2221155D01*
Y-2177749D01*
X509113Y-2174696D01*
X507383Y-2172108D01*
X504795Y-2170378D01*
X501742Y-2169771D01*
X479990D01*
X476937Y-2170378D01*
X474734Y-2171851D01*
X472933Y-2169156D01*
X468991Y-2166522D01*
X464340Y-2165597D01*
X458464D01*
Y-2199452D01*
Y-2233307D01*
X464340D01*
X464822Y-2233212D01*
X467284Y-2237820D01*
X424276Y-2280829D01*
X418850Y-2279183D01*
X418539Y-2277621D01*
X416129Y-2274014D01*
X416129Y-2274014D01*
X198093Y-2055977D01*
X199520Y-2050871D01*
X200006Y-2049697D01*
X200906Y-2048798D01*
Y-2047526D01*
X201392Y-2046352D01*
Y-1986297D01*
X204061Y-1981821D01*
X263116D01*
X264633Y-1986821D01*
X264265Y-1987067D01*
X261437Y-1991300D01*
X260443Y-1996292D01*
X261437Y-2001284D01*
X264265Y-2005517D01*
X265108Y-2006080D01*
Y-2012094D01*
X264265Y-2012657D01*
X261437Y-2016890D01*
X260443Y-2021882D01*
X261437Y-2026874D01*
X264265Y-2031107D01*
X265109Y-2031671D01*
Y-2037685D01*
X264265Y-2038249D01*
X261437Y-2042482D01*
X260443Y-2047474D01*
X261437Y-2052466D01*
X264265Y-2056699D01*
X268497Y-2059527D01*
X273489Y-2060520D01*
X308923D01*
X313915Y-2059527D01*
X318147Y-2056699D01*
X319267Y-2055023D01*
X325370Y-2054054D01*
X404943Y-2133627D01*
Y-2169820D01*
X402133Y-2170378D01*
X399545Y-2172108D01*
X397815Y-2174696D01*
X397208Y-2177749D01*
Y-2221155D01*
X397815Y-2224208D01*
X399545Y-2226796D01*
X402133Y-2228526D01*
X405186Y-2229133D01*
X426938D01*
X429991Y-2228526D01*
X432194Y-2227053D01*
X433995Y-2229748D01*
X437937Y-2232382D01*
X442588Y-2233307D01*
X448464D01*
Y-2199452D01*
Y-2165597D01*
X442588D01*
X437937Y-2166522D01*
X433995Y-2169156D01*
X432194Y-2171851D01*
X429991Y-2170378D01*
X427181Y-2169820D01*
Y-2129022D01*
X427181Y-2129021D01*
X426335Y-2124766D01*
X423925Y-2121159D01*
X321303Y-2018538D01*
X320975Y-2016890D01*
X318466Y-2013134D01*
X319015Y-2010899D01*
X320378Y-2008134D01*
X340670D01*
X342647Y-2012906D01*
X346749Y-2018251D01*
X352094Y-2022353D01*
X358320Y-2024932D01*
X365000Y-2025811D01*
X371680Y-2024932D01*
X377906Y-2022353D01*
X383251Y-2018251D01*
X387353Y-2012906D01*
X389932Y-2006680D01*
X390811Y-2000000D01*
X389932Y-1993320D01*
X387353Y-1987094D01*
X383251Y-1981749D01*
X377906Y-1977647D01*
X371680Y-1975068D01*
X365000Y-1974189D01*
X358320Y-1975068D01*
X352094Y-1977647D01*
X346749Y-1981749D01*
X343566Y-1985896D01*
X320079D01*
X317163Y-1981331D01*
X317304Y-1980490D01*
X318147Y-1979927D01*
X320975Y-1975694D01*
X321969Y-1970702D01*
X320975Y-1965710D01*
X318147Y-1961477D01*
Y-1959261D01*
X321099Y-1957289D01*
X324832Y-1951702D01*
X325149Y-1950112D01*
X291206D01*
Y-1940112D01*
X325149D01*
X324832Y-1938522D01*
X322906Y-1935639D01*
X325579Y-1930639D01*
X371967D01*
X379438Y-1938110D01*
X379189Y-1940000D01*
X380068Y-1946680D01*
X382647Y-1952906D01*
X386749Y-1958251D01*
X392094Y-1962353D01*
X398320Y-1964932D01*
X405000Y-1965811D01*
X411680Y-1964932D01*
X417906Y-1962353D01*
X423251Y-1958251D01*
X427353Y-1952906D01*
X429932Y-1946680D01*
X430811Y-1940000D01*
X429932Y-1933320D01*
X427353Y-1927094D01*
X423251Y-1921749D01*
X417906Y-1917647D01*
X411680Y-1915068D01*
X405000Y-1914189D01*
X398320Y-1915068D01*
X392094Y-1917647D01*
X391149Y-1918372D01*
X384435Y-1911658D01*
X380828Y-1909247D01*
X376572Y-1908401D01*
X376572Y-1908401D01*
X319296D01*
X317779Y-1903401D01*
X318147Y-1903155D01*
X320975Y-1898922D01*
X321969Y-1893930D01*
X320975Y-1888938D01*
X318147Y-1884705D01*
X313915Y-1881877D01*
X308923Y-1880884D01*
X273489D01*
X268497Y-1881877D01*
X264265Y-1884705D01*
X261437Y-1888938D01*
X261109Y-1890586D01*
X245292Y-1906403D01*
X206557D01*
X205817Y-1904616D01*
X201715Y-1899271D01*
X196370Y-1895169D01*
X190144Y-1892590D01*
X183464Y-1891711D01*
X176784Y-1892590D01*
X170558Y-1895169D01*
X165213Y-1899271D01*
X161111Y-1904616D01*
X158532Y-1910841D01*
X158275Y-1912798D01*
X152995Y-1914590D01*
X120091Y-1881686D01*
Y-1399090D01*
X119245Y-1394834D01*
X116834Y-1391227D01*
X116834Y-1391227D01*
X36190Y-1310583D01*
Y-1281032D01*
D02*
G37*
G36*
X-254873Y-1882908D02*
X-288416D01*
Y-1910546D01*
X-254873D01*
Y-1882908D01*
D02*
G37*
G36*
X748464Y-1107803D02*
X739091Y-1109037D01*
X730356Y-1112655D01*
X722856Y-1118410D01*
X717101Y-1125910D01*
X713483Y-1134645D01*
X712249Y-1144018D01*
X713483Y-1153391D01*
X717101Y-1162126D01*
X722856Y-1169626D01*
X730356Y-1175381D01*
X739091Y-1178999D01*
X748464Y-1180233D01*
X757837Y-1178999D01*
X766572Y-1175381D01*
X774072Y-1169626D01*
X779827Y-1162126D01*
X783445Y-1153391D01*
X784679Y-1144018D01*
X783445Y-1134645D01*
X779827Y-1125910D01*
X774072Y-1118410D01*
X766572Y-1112655D01*
X757837Y-1109037D01*
X748464Y-1107803D01*
D02*
G37*
G36*
X-1277520D02*
X-1286893Y-1109037D01*
X-1295628Y-1112655D01*
X-1303128Y-1118410D01*
X-1308883Y-1125910D01*
X-1312501Y-1134645D01*
X-1313735Y-1144018D01*
X-1312501Y-1153391D01*
X-1308883Y-1162126D01*
X-1303128Y-1169626D01*
X-1295628Y-1175381D01*
X-1286893Y-1178999D01*
X-1277520Y-1180233D01*
X-1268147Y-1178999D01*
X-1259412Y-1175381D01*
X-1251912Y-1169626D01*
X-1246157Y-1162126D01*
X-1242539Y-1153391D01*
X-1241305Y-1144018D01*
X-1242539Y-1134645D01*
X-1246157Y-1125910D01*
X-1251912Y-1118410D01*
X-1259412Y-1112655D01*
X-1268147Y-1109037D01*
X-1277520Y-1107803D01*
D02*
G37*
G36*
X598464Y-1021783D02*
X589214Y-1023001D01*
X580595Y-1026571D01*
X573193Y-1032251D01*
X567513Y-1039653D01*
X563943Y-1048272D01*
X562725Y-1057522D01*
X563943Y-1066772D01*
X567513Y-1075391D01*
X573193Y-1082793D01*
X580595Y-1088473D01*
X589214Y-1092043D01*
X598464Y-1093261D01*
X607714Y-1092043D01*
X616333Y-1088473D01*
X623735Y-1082793D01*
X629415Y-1075391D01*
X632985Y-1066772D01*
X634203Y-1057522D01*
X632985Y-1048272D01*
X629415Y-1039653D01*
X623735Y-1032251D01*
X616333Y-1026571D01*
X607714Y-1023001D01*
X598464Y-1021783D01*
D02*
G37*
G36*
X848464Y-1107803D02*
X839091Y-1109037D01*
X830356Y-1112655D01*
X822856Y-1118410D01*
X817101Y-1125910D01*
X813483Y-1134645D01*
X812249Y-1144018D01*
X813483Y-1153391D01*
X817101Y-1162126D01*
X822856Y-1169626D01*
X830356Y-1175381D01*
X839091Y-1178999D01*
X848464Y-1180233D01*
X857837Y-1178999D01*
X866572Y-1175381D01*
X874072Y-1169626D01*
X879827Y-1162126D01*
X883445Y-1153391D01*
X884679Y-1144018D01*
X883445Y-1134645D01*
X879827Y-1125910D01*
X874072Y-1118410D01*
X866572Y-1112655D01*
X857837Y-1109037D01*
X848464Y-1107803D01*
D02*
G37*
G36*
X35716Y-1021853D02*
X26466Y-1023071D01*
X17847Y-1026641D01*
X10445Y-1032321D01*
X4765Y-1039723D01*
X1195Y-1048342D01*
X-23Y-1057592D01*
X1195Y-1066842D01*
X4765Y-1075461D01*
X10445Y-1082863D01*
X17847Y-1088543D01*
X26466Y-1092113D01*
X35716Y-1093331D01*
X44966Y-1092113D01*
X53585Y-1088543D01*
X60987Y-1082863D01*
X66667Y-1075461D01*
X69463Y-1068711D01*
X234080D01*
X351665Y-1186296D01*
X348361Y-1190063D01*
X346349Y-1188519D01*
X339127Y-1185528D01*
X336378Y-1185166D01*
Y-1209449D01*
X360661D01*
X360299Y-1206699D01*
X357308Y-1199478D01*
X355764Y-1197466D01*
X359531Y-1194162D01*
X395198Y-1229829D01*
Y-1259380D01*
X442465D01*
X459773Y-1276688D01*
X457046Y-1281032D01*
X453664Y-1281032D01*
X395198D01*
Y-1310583D01*
X385336Y-1320445D01*
X382925Y-1324053D01*
X382079Y-1328308D01*
X382079Y-1328308D01*
Y-1867970D01*
X382079Y-1867971D01*
X382925Y-1872226D01*
X385336Y-1875833D01*
X483549Y-1974046D01*
X483877Y-1975694D01*
X486705Y-1979927D01*
X487548Y-1980490D01*
Y-1986504D01*
X486705Y-1987067D01*
X483877Y-1991300D01*
X482884Y-1996292D01*
X483877Y-2001284D01*
X486705Y-2005517D01*
X487548Y-2006080D01*
Y-2012094D01*
X486705Y-2012657D01*
X483877Y-2016890D01*
X482884Y-2021882D01*
X483877Y-2026874D01*
X486705Y-2031107D01*
X487549Y-2031671D01*
Y-2037685D01*
X486705Y-2038249D01*
X483877Y-2042482D01*
X482884Y-2047474D01*
X483877Y-2052466D01*
X486705Y-2056699D01*
X490937Y-2059527D01*
X495929Y-2060520D01*
X531363D01*
X536355Y-2059527D01*
X540587Y-2056699D01*
X543415Y-2052466D01*
X544409Y-2047474D01*
X543415Y-2042482D01*
X540587Y-2038249D01*
X539743Y-2037685D01*
Y-2031671D01*
X540587Y-2031107D01*
X541707Y-2029432D01*
X547809Y-2028464D01*
X552935Y-2033590D01*
Y-2293905D01*
X547935Y-2296370D01*
X546370Y-2295169D01*
X540144Y-2292590D01*
X533464Y-2291711D01*
X526784Y-2292590D01*
X520558Y-2295169D01*
X515213Y-2299271D01*
X514720Y-2299913D01*
X509720Y-2298215D01*
Y-2293891D01*
X509113Y-2290838D01*
X507383Y-2288250D01*
X504795Y-2286521D01*
X501742Y-2285913D01*
X479990D01*
X476937Y-2286521D01*
X474349Y-2288250D01*
X472619Y-2290838D01*
X472012Y-2293891D01*
Y-2337297D01*
X472619Y-2340350D01*
X474349Y-2342938D01*
X476937Y-2344668D01*
X479747Y-2345226D01*
Y-2378073D01*
X460355D01*
Y-2446971D01*
X498795D01*
X500709Y-2451590D01*
X421486Y-2530812D01*
X298661D01*
X298660Y-2530812D01*
X298047Y-2530309D01*
Y-2524018D01*
X309566D01*
Y-2461026D01*
X264290D01*
Y-2524018D01*
X275809D01*
Y-2531026D01*
X264290D01*
Y-2594018D01*
X309566D01*
Y-2553051D01*
X426092D01*
X426092Y-2553051D01*
X430348Y-2552204D01*
X433955Y-2549794D01*
X571917Y-2411832D01*
X571917Y-2411832D01*
X574327Y-2408224D01*
X575174Y-2403969D01*
X575174Y-2403969D01*
Y-2028985D01*
X575174Y-2028984D01*
X574327Y-2024729D01*
X571917Y-2021121D01*
X571917Y-2021121D01*
X543743Y-1992948D01*
X543415Y-1991300D01*
X540587Y-1987067D01*
X539744Y-1986504D01*
Y-1980490D01*
X540587Y-1979927D01*
X543415Y-1975694D01*
X544409Y-1970702D01*
X543415Y-1965710D01*
X540906Y-1961954D01*
X541455Y-1959719D01*
X542818Y-1956954D01*
X548033D01*
X549341Y-1960112D01*
X553443Y-1965457D01*
X558788Y-1969559D01*
X565014Y-1972138D01*
X571694Y-1973017D01*
X578375Y-1972138D01*
X584600Y-1969559D01*
X589945Y-1965457D01*
X594047Y-1960112D01*
X596626Y-1953887D01*
X597505Y-1947206D01*
X596626Y-1940525D01*
X594047Y-1934300D01*
X589945Y-1928955D01*
X584600Y-1924853D01*
X578375Y-1922274D01*
X571694Y-1921395D01*
X565014Y-1922274D01*
X558788Y-1924853D01*
X553443Y-1928955D01*
X551389Y-1931632D01*
X549707Y-1931467D01*
X547213Y-1926199D01*
X547272Y-1926110D01*
X547589Y-1924520D01*
X513646D01*
X479703D01*
X480020Y-1926110D01*
X483753Y-1931697D01*
X485329Y-1932750D01*
X484031Y-1937441D01*
X479340Y-1938388D01*
X404317Y-1863365D01*
Y-1452402D01*
X424694D01*
Y-1425670D01*
Y-1398938D01*
X404317D01*
Y-1381380D01*
X461190D01*
Y-1336104D01*
X437813D01*
Y-1326308D01*
X458190D01*
Y-1285886D01*
X458190Y-1282176D01*
X462534Y-1279449D01*
X578283Y-1395198D01*
Y-1442805D01*
X578283Y-1442806D01*
X579130Y-1447061D01*
X581540Y-1450668D01*
X723658Y-1592786D01*
X723658Y-1592786D01*
X727265Y-1595196D01*
X731520Y-1596043D01*
X731521Y-1596043D01*
X784764D01*
X816377Y-1627656D01*
X813483Y-1634645D01*
X812249Y-1644018D01*
X813483Y-1653391D01*
X817101Y-1662126D01*
X822856Y-1669626D01*
X830356Y-1675381D01*
X839091Y-1678999D01*
X848464Y-1680233D01*
X857837Y-1678999D01*
X866572Y-1675381D01*
X874072Y-1669626D01*
X879827Y-1662126D01*
X883445Y-1653391D01*
X884679Y-1644018D01*
X883445Y-1634645D01*
X879827Y-1625910D01*
X874072Y-1618410D01*
X866572Y-1612655D01*
X857837Y-1609037D01*
X848464Y-1607803D01*
X839091Y-1609037D01*
X832102Y-1611931D01*
X797232Y-1577061D01*
X793625Y-1574651D01*
X789370Y-1573804D01*
X789369Y-1573804D01*
X776074D01*
X774703Y-1568804D01*
X779827Y-1562126D01*
X783445Y-1553391D01*
X784679Y-1544018D01*
X783445Y-1534645D01*
X779827Y-1525910D01*
X774072Y-1518410D01*
X766572Y-1512655D01*
X757837Y-1509037D01*
X748464Y-1507803D01*
X739091Y-1509037D01*
X730356Y-1512655D01*
X722856Y-1518410D01*
X717101Y-1525910D01*
X713483Y-1534645D01*
X712384Y-1542991D01*
X707879Y-1545557D01*
X601205Y-1438883D01*
X601679Y-1435123D01*
X606506Y-1433257D01*
X611683Y-1437229D01*
X618904Y-1440220D01*
X621654Y-1440582D01*
Y-1411299D01*
Y-1382016D01*
X618904Y-1382378D01*
X611683Y-1385369D01*
X605482Y-1390128D01*
X605383Y-1390257D01*
X604897Y-1390291D01*
X600172Y-1388834D01*
X599675Y-1386337D01*
X597265Y-1382730D01*
X597265Y-1382730D01*
X458190Y-1243655D01*
Y-1214104D01*
X410923D01*
X246548Y-1049729D01*
X242941Y-1047319D01*
X238686Y-1046473D01*
X238685Y-1046473D01*
X69463D01*
X66667Y-1039723D01*
X60987Y-1032321D01*
X53585Y-1026641D01*
X44966Y-1023071D01*
X35716Y-1021853D01*
D02*
G37*
G36*
X-67323Y-1185166D02*
X-70072Y-1185528D01*
X-77293Y-1188519D01*
X-83494Y-1193277D01*
X-88253Y-1199478D01*
X-91244Y-1206699D01*
X-91606Y-1209449D01*
X-67323D01*
Y-1185166D01*
D02*
G37*
G36*
X73000Y-1208828D02*
X64932Y-1209890D01*
X57414Y-1213004D01*
X50958Y-1217958D01*
X46004Y-1224414D01*
X44154Y-1228881D01*
X36190D01*
Y-1214104D01*
X-26802D01*
Y-1259380D01*
X36190D01*
Y-1251119D01*
X44154D01*
X46004Y-1255586D01*
X50958Y-1262042D01*
X57414Y-1266996D01*
X64932Y-1270110D01*
X73000Y-1271172D01*
X81068Y-1270110D01*
X88586Y-1266996D01*
X95042Y-1262042D01*
X99996Y-1255586D01*
X103110Y-1248068D01*
X104172Y-1240000D01*
X103110Y-1231932D01*
X99996Y-1224414D01*
X95042Y-1217958D01*
X88586Y-1213004D01*
X81068Y-1209890D01*
X73000Y-1208828D01*
D02*
G37*
G36*
X326378Y-1185166D02*
X323629Y-1185528D01*
X316407Y-1188519D01*
X310206Y-1193277D01*
X305448Y-1199478D01*
X302457Y-1206699D01*
X302095Y-1209449D01*
X326378D01*
Y-1185166D01*
D02*
G37*
G36*
X-57323D02*
Y-1209449D01*
X-33040D01*
X-33402Y-1206699D01*
X-36393Y-1199478D01*
X-41151Y-1193277D01*
X-47352Y-1188519D01*
X-54573Y-1185528D01*
X-57323Y-1185166D01*
D02*
G37*
G36*
X371149Y-1022159D02*
X300283D01*
Y-1093025D01*
X371149D01*
Y-1022159D01*
D02*
G37*
G36*
X-131465Y-1022598D02*
X-155748D01*
Y-1046881D01*
X-152999Y-1046519D01*
X-145777Y-1043528D01*
X-139576Y-1038770D01*
X-134818Y-1032569D01*
X-131827Y-1025348D01*
X-131465Y-1022598D01*
D02*
G37*
G36*
X-165748D02*
X-190031D01*
X-189669Y-1025348D01*
X-186678Y-1032569D01*
X-181920Y-1038770D01*
X-175719Y-1043528D01*
X-168497Y-1046519D01*
X-165748Y-1046881D01*
Y-1022598D01*
D02*
G37*
G36*
X459086D02*
X434803D01*
Y-1046881D01*
X437553Y-1046519D01*
X444774Y-1043528D01*
X450975Y-1038770D01*
X455733Y-1032569D01*
X458724Y-1025348D01*
X459086Y-1022598D01*
D02*
G37*
G36*
X424803D02*
X400520D01*
X400882Y-1025348D01*
X403873Y-1032569D01*
X408632Y-1038770D01*
X414833Y-1043528D01*
X422054Y-1046519D01*
X424803Y-1046881D01*
Y-1022598D01*
D02*
G37*
G36*
X-722016D02*
X-746299D01*
Y-1046881D01*
X-743550Y-1046519D01*
X-736329Y-1043528D01*
X-730128Y-1038770D01*
X-725369Y-1032569D01*
X-722378Y-1025348D01*
X-722016Y-1022598D01*
D02*
G37*
G36*
X748464Y-1007803D02*
X739091Y-1009037D01*
X730356Y-1012655D01*
X722856Y-1018410D01*
X717101Y-1025910D01*
X713483Y-1034645D01*
X712249Y-1044018D01*
X713483Y-1053391D01*
X717101Y-1062126D01*
X722856Y-1069626D01*
X730356Y-1075381D01*
X739091Y-1078999D01*
X748464Y-1080233D01*
X757837Y-1078999D01*
X766572Y-1075381D01*
X774072Y-1069626D01*
X779827Y-1062126D01*
X783445Y-1053391D01*
X784679Y-1044018D01*
X783445Y-1034645D01*
X779827Y-1025910D01*
X774072Y-1018410D01*
X766572Y-1012655D01*
X757837Y-1009037D01*
X748464Y-1007803D01*
D02*
G37*
G36*
X-1277520D02*
X-1286893Y-1009037D01*
X-1295628Y-1012655D01*
X-1303128Y-1018410D01*
X-1308883Y-1025910D01*
X-1312501Y-1034645D01*
X-1313735Y-1044018D01*
X-1312501Y-1053391D01*
X-1308883Y-1062126D01*
X-1303128Y-1069626D01*
X-1295628Y-1075381D01*
X-1286893Y-1078999D01*
X-1277520Y-1080233D01*
X-1268147Y-1078999D01*
X-1259412Y-1075381D01*
X-1251912Y-1069626D01*
X-1246157Y-1062126D01*
X-1242539Y-1053391D01*
X-1241305Y-1044018D01*
X-1242539Y-1034645D01*
X-1246157Y-1025910D01*
X-1251912Y-1018410D01*
X-1259412Y-1012655D01*
X-1268147Y-1009037D01*
X-1277520Y-1007803D01*
D02*
G37*
G36*
X-756299Y-1022598D02*
X-780582D01*
X-780220Y-1025348D01*
X-777229Y-1032569D01*
X-772471Y-1038770D01*
X-766270Y-1043528D01*
X-759049Y-1046519D01*
X-756299Y-1046881D01*
Y-1022598D01*
D02*
G37*
G36*
X848464Y-1007803D02*
X839091Y-1009037D01*
X830356Y-1012655D01*
X822856Y-1018410D01*
X817101Y-1025910D01*
X813483Y-1034645D01*
X812249Y-1044018D01*
X813483Y-1053391D01*
X817101Y-1062126D01*
X822856Y-1069626D01*
X830356Y-1075381D01*
X839091Y-1078999D01*
X848464Y-1080233D01*
X857837Y-1078999D01*
X866572Y-1075381D01*
X874072Y-1069626D01*
X879827Y-1062126D01*
X883445Y-1053391D01*
X884679Y-1044018D01*
X883445Y-1034645D01*
X879827Y-1025910D01*
X874072Y-1018410D01*
X866572Y-1012655D01*
X857837Y-1009037D01*
X848464Y-1007803D01*
D02*
G37*
G36*
X360661Y-1219449D02*
X336378D01*
Y-1243732D01*
X339127Y-1243370D01*
X346349Y-1240379D01*
X352550Y-1235620D01*
X357308Y-1229419D01*
X360299Y-1222198D01*
X360661Y-1219449D01*
D02*
G37*
G36*
X237953Y-1382016D02*
Y-1406299D01*
X262236D01*
X261874Y-1403550D01*
X258883Y-1396329D01*
X254124Y-1390128D01*
X247923Y-1385369D01*
X240702Y-1382378D01*
X237953Y-1382016D01*
D02*
G37*
G36*
X227953D02*
X225203Y-1382378D01*
X217982Y-1385369D01*
X211781Y-1390128D01*
X207023Y-1396329D01*
X204032Y-1403550D01*
X203670Y-1406299D01*
X227953D01*
Y-1382016D01*
D02*
G37*
G36*
X-741001Y-1362929D02*
X-774544D01*
Y-1390567D01*
X-741001D01*
Y-1362929D01*
D02*
G37*
G36*
X631654Y-1382016D02*
Y-1406299D01*
X655937D01*
X655575Y-1403550D01*
X652583Y-1396329D01*
X647825Y-1390128D01*
X641624Y-1385369D01*
X634403Y-1382378D01*
X631654Y-1382016D01*
D02*
G37*
G36*
X-155748D02*
Y-1406299D01*
X-131465D01*
X-131827Y-1403550D01*
X-134818Y-1396329D01*
X-139576Y-1390128D01*
X-145777Y-1385369D01*
X-152999Y-1382378D01*
X-155748Y-1382016D01*
D02*
G37*
G36*
X-697457Y-1400567D02*
X-731001D01*
Y-1428205D01*
X-697457D01*
Y-1400567D01*
D02*
G37*
G36*
X-741001D02*
X-774544D01*
Y-1428205D01*
X-741001D01*
Y-1400567D01*
D02*
G37*
G36*
X-165748Y-1382016D02*
X-168497Y-1382378D01*
X-175719Y-1385369D01*
X-181920Y-1390128D01*
X-186678Y-1396329D01*
X-189669Y-1403550D01*
X-190031Y-1406299D01*
X-165748D01*
Y-1382016D01*
D02*
G37*
G36*
X465284Y-1398938D02*
X434694D01*
Y-1420670D01*
X465284D01*
Y-1398938D01*
D02*
G37*
G36*
X-697457Y-1362929D02*
X-731001D01*
Y-1390567D01*
X-697457D01*
Y-1362929D01*
D02*
G37*
G36*
X-67323Y-1219449D02*
X-91606D01*
X-91244Y-1222198D01*
X-88253Y-1229419D01*
X-83494Y-1235620D01*
X-77293Y-1240379D01*
X-70072Y-1243370D01*
X-67323Y-1243732D01*
Y-1219449D01*
D02*
G37*
G36*
X848464Y-1207803D02*
X839091Y-1209037D01*
X830356Y-1212655D01*
X822856Y-1218410D01*
X817101Y-1225910D01*
X813483Y-1234645D01*
X812249Y-1244018D01*
X813483Y-1253391D01*
X817101Y-1262126D01*
X822856Y-1269626D01*
X830356Y-1275381D01*
X839091Y-1278999D01*
X848464Y-1280233D01*
X857837Y-1278999D01*
X866572Y-1275381D01*
X874072Y-1269626D01*
X879827Y-1262126D01*
X883445Y-1253391D01*
X884679Y-1244018D01*
X883445Y-1234645D01*
X879827Y-1225910D01*
X874072Y-1218410D01*
X866572Y-1212655D01*
X857837Y-1209037D01*
X848464Y-1207803D01*
D02*
G37*
G36*
X326378Y-1219449D02*
X302095D01*
X302457Y-1222198D01*
X305448Y-1229419D01*
X310206Y-1235620D01*
X316407Y-1240379D01*
X323629Y-1243370D01*
X326378Y-1243732D01*
Y-1219449D01*
D02*
G37*
G36*
X-33040D02*
X-57323D01*
Y-1243732D01*
X-54573Y-1243370D01*
X-47352Y-1240379D01*
X-41151Y-1235620D01*
X-36393Y-1229419D01*
X-33402Y-1222198D01*
X-33040Y-1219449D01*
D02*
G37*
G36*
X748464Y-1207803D02*
X739091Y-1209037D01*
X730356Y-1212655D01*
X722856Y-1218410D01*
X717101Y-1225910D01*
X713483Y-1234645D01*
X712249Y-1244018D01*
X713483Y-1253391D01*
X717101Y-1262126D01*
X722856Y-1269626D01*
X730356Y-1275381D01*
X739091Y-1278999D01*
X748464Y-1280233D01*
X757837Y-1278999D01*
X766572Y-1275381D01*
X774072Y-1269626D01*
X779827Y-1262126D01*
X783445Y-1253391D01*
X784679Y-1244018D01*
X783445Y-1234645D01*
X779827Y-1225910D01*
X774072Y-1218410D01*
X766572Y-1212655D01*
X757837Y-1209037D01*
X748464Y-1207803D01*
D02*
G37*
G36*
Y-1307803D02*
X739091Y-1309037D01*
X730356Y-1312655D01*
X722856Y-1318410D01*
X717101Y-1325910D01*
X713483Y-1334645D01*
X712249Y-1344018D01*
X713483Y-1353391D01*
X717101Y-1362126D01*
X722856Y-1369626D01*
X730356Y-1375381D01*
X739091Y-1378999D01*
X748464Y-1380233D01*
X757837Y-1378999D01*
X766572Y-1375381D01*
X774072Y-1369626D01*
X779827Y-1362126D01*
X783445Y-1353391D01*
X784679Y-1344018D01*
X783445Y-1334645D01*
X779827Y-1325910D01*
X774072Y-1318410D01*
X766572Y-1312655D01*
X757837Y-1309037D01*
X748464Y-1307803D01*
D02*
G37*
G36*
X-1277520D02*
X-1286893Y-1309037D01*
X-1295628Y-1312655D01*
X-1303128Y-1318410D01*
X-1308883Y-1325910D01*
X-1312501Y-1334645D01*
X-1313735Y-1344018D01*
X-1312501Y-1353391D01*
X-1308883Y-1362126D01*
X-1303128Y-1369626D01*
X-1295628Y-1375381D01*
X-1286893Y-1378999D01*
X-1277520Y-1380233D01*
X-1268147Y-1378999D01*
X-1259412Y-1375381D01*
X-1251912Y-1369626D01*
X-1246157Y-1362126D01*
X-1242539Y-1353391D01*
X-1241305Y-1344018D01*
X-1242539Y-1334645D01*
X-1246157Y-1325910D01*
X-1251912Y-1318410D01*
X-1259412Y-1312655D01*
X-1268147Y-1309037D01*
X-1277520Y-1307803D01*
D02*
G37*
G36*
Y-1207803D02*
X-1286893Y-1209037D01*
X-1295628Y-1212655D01*
X-1303128Y-1218410D01*
X-1308883Y-1225910D01*
X-1312501Y-1234645D01*
X-1313735Y-1244018D01*
X-1312501Y-1253391D01*
X-1308883Y-1262126D01*
X-1303128Y-1269626D01*
X-1295628Y-1275381D01*
X-1286893Y-1278999D01*
X-1277520Y-1280233D01*
X-1268147Y-1278999D01*
X-1259412Y-1275381D01*
X-1251912Y-1269626D01*
X-1246157Y-1262126D01*
X-1242539Y-1253391D01*
X-1241305Y-1244018D01*
X-1242539Y-1234645D01*
X-1246157Y-1225910D01*
X-1251912Y-1218410D01*
X-1259412Y-1212655D01*
X-1268147Y-1209037D01*
X-1277520Y-1207803D01*
D02*
G37*
G36*
X848464Y-1307803D02*
X839091Y-1309037D01*
X830356Y-1312655D01*
X822856Y-1318410D01*
X817101Y-1325910D01*
X813483Y-1334645D01*
X812249Y-1344018D01*
X813483Y-1353391D01*
X817101Y-1362126D01*
X822856Y-1369626D01*
X830356Y-1375381D01*
X839091Y-1378999D01*
X848464Y-1380233D01*
X857837Y-1378999D01*
X866572Y-1375381D01*
X874072Y-1369626D01*
X879827Y-1362126D01*
X883445Y-1353391D01*
X884679Y-1344018D01*
X883445Y-1334645D01*
X879827Y-1325910D01*
X874072Y-1318410D01*
X866572Y-1312655D01*
X857837Y-1309037D01*
X848464Y-1307803D01*
D02*
G37*
G36*
X-499803Y-1960000D02*
X-523504D01*
Y-1991575D01*
X-499803D01*
Y-1960000D01*
D02*
G37*
G36*
X360661Y-2400551D02*
X336378D01*
Y-2424834D01*
X339127Y-2424472D01*
X346349Y-2421481D01*
X352550Y-2416723D01*
X357308Y-2410522D01*
X360299Y-2403301D01*
X360661Y-2400551D01*
D02*
G37*
G36*
X326378D02*
X302095D01*
X302457Y-2403301D01*
X305448Y-2410522D01*
X310206Y-2416723D01*
X316407Y-2421481D01*
X323629Y-2424472D01*
X326378Y-2424834D01*
Y-2400551D01*
D02*
G37*
G36*
X450670Y-2373979D02*
X423032D01*
Y-2407522D01*
X450670D01*
Y-2373979D01*
D02*
G37*
G36*
X413032D02*
X385394D01*
Y-2407522D01*
X413032D01*
Y-2373979D01*
D02*
G37*
G36*
X163811Y-2400551D02*
X139528D01*
Y-2424834D01*
X142277Y-2424472D01*
X149498Y-2421481D01*
X155699Y-2416723D01*
X160457Y-2410522D01*
X163449Y-2403301D01*
X163811Y-2400551D01*
D02*
G37*
G36*
X-264173D02*
X-288456D01*
X-288094Y-2403301D01*
X-285103Y-2410522D01*
X-280345Y-2416723D01*
X-274144Y-2421481D01*
X-266923Y-2424472D01*
X-264173Y-2424834D01*
Y-2400551D01*
D02*
G37*
G36*
X-657874D02*
X-682157D01*
X-681795Y-2403301D01*
X-678804Y-2410522D01*
X-674046Y-2416723D01*
X-667845Y-2421481D01*
X-660623Y-2424472D01*
X-657874Y-2424834D01*
Y-2400551D01*
D02*
G37*
G36*
X129528D02*
X105245D01*
X105607Y-2403301D01*
X108598Y-2410522D01*
X113356Y-2416723D01*
X119557Y-2421481D01*
X126778Y-2424472D01*
X129528Y-2424834D01*
Y-2400551D01*
D02*
G37*
G36*
X-229890D02*
X-254173D01*
Y-2424834D01*
X-251424Y-2424472D01*
X-244203Y-2421481D01*
X-238002Y-2416723D01*
X-233243Y-2410522D01*
X-230252Y-2403301D01*
X-229890Y-2400551D01*
D02*
G37*
G36*
X-558504Y-2270826D02*
X-621496D01*
Y-2316102D01*
X-602615D01*
Y-2327520D01*
X-616102D01*
Y-2392480D01*
X-601119D01*
Y-2398898D01*
X-618330D01*
X-622621Y-2395778D01*
X-623065Y-2394548D01*
X-623953Y-2387802D01*
X-626944Y-2380581D01*
X-631702Y-2374380D01*
X-637903Y-2369621D01*
X-645125Y-2366630D01*
X-647874Y-2366268D01*
Y-2395551D01*
Y-2424834D01*
X-645125Y-2424472D01*
X-637903Y-2421481D01*
X-631702Y-2416723D01*
X-626944Y-2410522D01*
X-626496Y-2409440D01*
X-621496Y-2410434D01*
Y-2444174D01*
X-558504D01*
X-558504Y-2403091D01*
X-558504Y-2401712D01*
X-558368Y-2400569D01*
X-557756Y-2398468D01*
X-554734Y-2396729D01*
X-553351Y-2396575D01*
X-552620Y-2396575D01*
X-533504D01*
Y-2365000D01*
X-557205D01*
Y-2392382D01*
X-557205Y-2393761D01*
X-557341Y-2394904D01*
X-557953Y-2397005D01*
X-560975Y-2398744D01*
X-562358Y-2398898D01*
X-563089Y-2398898D01*
X-578881D01*
Y-2392480D01*
X-566890D01*
Y-2327520D01*
X-580377D01*
Y-2316102D01*
X-558504D01*
Y-2270826D01*
D02*
G37*
G36*
X129528Y-2366268D02*
X126778Y-2366630D01*
X119557Y-2369621D01*
X113356Y-2374380D01*
X108598Y-2380581D01*
X105607Y-2387802D01*
X105245Y-2390551D01*
X129528D01*
Y-2366268D01*
D02*
G37*
G36*
X-254173D02*
Y-2390551D01*
X-229890D01*
X-230252Y-2387802D01*
X-233243Y-2380581D01*
X-238002Y-2374380D01*
X-244203Y-2369621D01*
X-251424Y-2366630D01*
X-254173Y-2366268D01*
D02*
G37*
G36*
X326378D02*
X323629Y-2366630D01*
X316407Y-2369621D01*
X310206Y-2374380D01*
X305448Y-2380581D01*
X302457Y-2387802D01*
X302095Y-2390551D01*
X326378D01*
Y-2366268D01*
D02*
G37*
G36*
X139528D02*
Y-2390551D01*
X163811D01*
X163449Y-2387802D01*
X160457Y-2380581D01*
X155699Y-2374380D01*
X149498Y-2369621D01*
X142277Y-2366630D01*
X139528Y-2366268D01*
D02*
G37*
G36*
X-264173D02*
X-266923Y-2366630D01*
X-274144Y-2369621D01*
X-280345Y-2374380D01*
X-285103Y-2380581D01*
X-288094Y-2387802D01*
X-288456Y-2390551D01*
X-264173D01*
Y-2366268D01*
D02*
G37*
G36*
X-1445276D02*
X-1448025Y-2366630D01*
X-1455246Y-2369621D01*
X-1461447Y-2374380D01*
X-1466205Y-2380581D01*
X-1469197Y-2387802D01*
X-1469559Y-2390551D01*
X-1445276D01*
Y-2366268D01*
D02*
G37*
G36*
X-499803Y-2365000D02*
X-523504D01*
Y-2396575D01*
X-499803D01*
Y-2365000D01*
D02*
G37*
G36*
X-657874Y-2366268D02*
X-660623Y-2366630D01*
X-667845Y-2369621D01*
X-674046Y-2374380D01*
X-678804Y-2380581D01*
X-681795Y-2387802D01*
X-682157Y-2390551D01*
X-657874D01*
Y-2366268D01*
D02*
G37*
G36*
X-1435276D02*
Y-2390551D01*
X-1410993D01*
X-1411355Y-2387802D01*
X-1414346Y-2380581D01*
X-1419104Y-2374380D01*
X-1425305Y-2369621D01*
X-1432526Y-2366630D01*
X-1435276Y-2366268D01*
D02*
G37*
G36*
X-1410993Y-2400551D02*
X-1435276D01*
Y-2424834D01*
X-1432526Y-2424472D01*
X-1425305Y-2421481D01*
X-1419104Y-2416723D01*
X-1414346Y-2410522D01*
X-1411355Y-2403301D01*
X-1410993Y-2400551D01*
D02*
G37*
G36*
X-595000Y-2582795D02*
X-626575D01*
Y-2606496D01*
X-595000D01*
Y-2582795D01*
D02*
G37*
G36*
X-722016Y-2597402D02*
X-746299D01*
Y-2621685D01*
X-743550Y-2621323D01*
X-736329Y-2618331D01*
X-730128Y-2613573D01*
X-725369Y-2607372D01*
X-722378Y-2600151D01*
X-722016Y-2597402D01*
D02*
G37*
G36*
X-756299Y-2563119D02*
X-759049Y-2563481D01*
X-766270Y-2566472D01*
X-772471Y-2571230D01*
X-777229Y-2577431D01*
X-780220Y-2584652D01*
X-780582Y-2587402D01*
X-756299D01*
Y-2563119D01*
D02*
G37*
G36*
X-553425Y-2582795D02*
X-585000D01*
Y-2606496D01*
X-553425D01*
Y-2582795D01*
D02*
G37*
G36*
X-756299Y-2597402D02*
X-780582D01*
X-780220Y-2600151D01*
X-777229Y-2607372D01*
X-772471Y-2613573D01*
X-766270Y-2618331D01*
X-759049Y-2621323D01*
X-756299Y-2621685D01*
Y-2597402D01*
D02*
G37*
G36*
X798464Y-2707869D02*
X782093Y-2709157D01*
X766124Y-2712991D01*
X750952Y-2719275D01*
X736950Y-2727856D01*
X724463Y-2738521D01*
X713798Y-2751008D01*
X705217Y-2765010D01*
X698933Y-2780182D01*
X695099Y-2796151D01*
X693811Y-2812522D01*
X695099Y-2828893D01*
X698933Y-2844862D01*
X705217Y-2860034D01*
X713798Y-2874036D01*
X724463Y-2886523D01*
X736950Y-2897188D01*
X750952Y-2905769D01*
X766124Y-2912053D01*
X782093Y-2915887D01*
X798464Y-2917175D01*
X814835Y-2915887D01*
X830804Y-2912053D01*
X845976Y-2905769D01*
X859978Y-2897188D01*
X872465Y-2886523D01*
X883130Y-2874036D01*
X891711Y-2860034D01*
X897995Y-2844862D01*
X901829Y-2828893D01*
X903117Y-2812522D01*
X901829Y-2796151D01*
X897995Y-2780182D01*
X891711Y-2765010D01*
X883130Y-2751008D01*
X872465Y-2738521D01*
X859978Y-2727856D01*
X845976Y-2719275D01*
X830804Y-2712991D01*
X814835Y-2709157D01*
X798464Y-2707869D01*
D02*
G37*
G36*
X-1327520D02*
X-1343891Y-2709157D01*
X-1359860Y-2712991D01*
X-1375032Y-2719275D01*
X-1389034Y-2727856D01*
X-1401521Y-2738521D01*
X-1412186Y-2751008D01*
X-1420767Y-2765010D01*
X-1427051Y-2780182D01*
X-1430885Y-2796151D01*
X-1432173Y-2812522D01*
X-1430885Y-2828893D01*
X-1427051Y-2844862D01*
X-1420767Y-2860034D01*
X-1412186Y-2874036D01*
X-1401521Y-2886523D01*
X-1389034Y-2897188D01*
X-1375032Y-2905769D01*
X-1359860Y-2912053D01*
X-1343891Y-2915887D01*
X-1327520Y-2917175D01*
X-1311149Y-2915887D01*
X-1295180Y-2912053D01*
X-1280008Y-2905769D01*
X-1266006Y-2897188D01*
X-1253519Y-2886523D01*
X-1242854Y-2874036D01*
X-1234273Y-2860034D01*
X-1227989Y-2844862D01*
X-1224155Y-2828893D01*
X-1222867Y-2812522D01*
X-1224155Y-2796151D01*
X-1227989Y-2780182D01*
X-1234273Y-2765010D01*
X-1242854Y-2751008D01*
X-1253519Y-2738521D01*
X-1266006Y-2727856D01*
X-1280008Y-2719275D01*
X-1295180Y-2712991D01*
X-1311149Y-2709157D01*
X-1327520Y-2707869D01*
D02*
G37*
G36*
X-553425Y-2616496D02*
X-585000D01*
Y-2640197D01*
X-553425D01*
Y-2616496D01*
D02*
G37*
G36*
X-595000D02*
X-626575D01*
Y-2640197D01*
X-595000D01*
Y-2616496D01*
D02*
G37*
G36*
X-746299Y-2563119D02*
Y-2587402D01*
X-722016D01*
X-722378Y-2584652D01*
X-725369Y-2577431D01*
X-730128Y-2571230D01*
X-736329Y-2566472D01*
X-743550Y-2563481D01*
X-746299Y-2563119D01*
D02*
G37*
G36*
X413032Y-2417522D02*
X385394D01*
Y-2451065D01*
X413032D01*
Y-2417522D01*
D02*
G37*
G36*
X-1056536Y-2411711D02*
X-1063216Y-2412590D01*
X-1069442Y-2415169D01*
X-1074787Y-2419271D01*
X-1078889Y-2424616D01*
X-1081468Y-2430841D01*
X-1082347Y-2437522D01*
X-1081468Y-2444202D01*
X-1078889Y-2450428D01*
X-1074787Y-2455773D01*
X-1069442Y-2459875D01*
X-1063216Y-2462454D01*
X-1056536Y-2463333D01*
X-1049855Y-2462454D01*
X-1043630Y-2459875D01*
X-1038285Y-2455773D01*
X-1034183Y-2450428D01*
X-1031604Y-2444202D01*
X-1030725Y-2437522D01*
X-1031604Y-2430841D01*
X-1034183Y-2424616D01*
X-1038285Y-2419271D01*
X-1043630Y-2415169D01*
X-1049855Y-2412590D01*
X-1056536Y-2411711D01*
D02*
G37*
G36*
X-1445276Y-2400551D02*
X-1469559D01*
X-1469197Y-2403301D01*
X-1466205Y-2410522D01*
X-1461447Y-2416723D01*
X-1455246Y-2421481D01*
X-1448025Y-2424472D01*
X-1445276Y-2424834D01*
Y-2400551D01*
D02*
G37*
G36*
X450670Y-2417522D02*
X423032D01*
Y-2451065D01*
X450670D01*
Y-2417522D01*
D02*
G37*
G36*
X-1166536Y-2406783D02*
X-1175786Y-2408001D01*
X-1184405Y-2411571D01*
X-1191807Y-2417251D01*
X-1197487Y-2424653D01*
X-1201057Y-2433272D01*
X-1202275Y-2442522D01*
X-1201057Y-2451772D01*
X-1197487Y-2460391D01*
X-1191807Y-2467793D01*
X-1184405Y-2473473D01*
X-1175786Y-2477043D01*
X-1166536Y-2478261D01*
X-1157286Y-2477043D01*
X-1148667Y-2473473D01*
X-1141265Y-2467793D01*
X-1135585Y-2460391D01*
X-1132015Y-2451772D01*
X-1130797Y-2442522D01*
X-1132015Y-2433272D01*
X-1135585Y-2424653D01*
X-1141265Y-2417251D01*
X-1148667Y-2411571D01*
X-1157286Y-2408001D01*
X-1166536Y-2406783D01*
D02*
G37*
G36*
X-558504Y-2465826D02*
X-621496D01*
Y-2511102D01*
X-601119D01*
Y-2523898D01*
X-622480D01*
Y-2573110D01*
X-557520D01*
Y-2523898D01*
X-578881D01*
Y-2511102D01*
X-558504D01*
Y-2506119D01*
X-433093D01*
X-432353Y-2507906D01*
X-428251Y-2513251D01*
X-422906Y-2517353D01*
X-416680Y-2519932D01*
X-410000Y-2520811D01*
X-403320Y-2519932D01*
X-397094Y-2517353D01*
X-391749Y-2513251D01*
X-387647Y-2507906D01*
X-385068Y-2501680D01*
X-384189Y-2495000D01*
X-385068Y-2488320D01*
X-387647Y-2482094D01*
X-391749Y-2476749D01*
X-397094Y-2472647D01*
X-403320Y-2470068D01*
X-410000Y-2469189D01*
X-416680Y-2470068D01*
X-422906Y-2472647D01*
X-428251Y-2476749D01*
X-432353Y-2482094D01*
X-433093Y-2483881D01*
X-558504D01*
Y-2465826D01*
D02*
G37*
G36*
X246732Y-2497522D02*
X220000D01*
X193268D01*
Y-2528113D01*
X193569D01*
X197362Y-2531026D01*
X197362Y-2533113D01*
Y-2551403D01*
X86557D01*
X85817Y-2549616D01*
X81715Y-2544271D01*
X76370Y-2540169D01*
X70144Y-2537590D01*
X63464Y-2536711D01*
X56783Y-2537590D01*
X50558Y-2540169D01*
X45213Y-2544271D01*
X41111Y-2549616D01*
X38532Y-2555841D01*
X37653Y-2562522D01*
X38532Y-2569202D01*
X41111Y-2575428D01*
X45213Y-2580773D01*
X50558Y-2584875D01*
X56783Y-2587454D01*
X63464Y-2588333D01*
X70144Y-2587454D01*
X76370Y-2584875D01*
X81715Y-2580773D01*
X85817Y-2575428D01*
X86557Y-2573641D01*
X197362D01*
Y-2594018D01*
X242638D01*
Y-2533113D01*
X242638Y-2531026D01*
X246431Y-2528113D01*
X246732D01*
Y-2497522D01*
D02*
G37*
G36*
Y-2456932D02*
X225000D01*
Y-2487522D01*
X246732D01*
Y-2456932D01*
D02*
G37*
G36*
X215000D02*
X193268D01*
Y-2487522D01*
X215000D01*
Y-2456932D01*
D02*
G37*
G36*
X-798221Y-1691772D02*
X-835116D01*
X-872011D01*
X-871695Y-1693362D01*
X-867962Y-1698949D01*
X-865010Y-1700921D01*
Y-1703139D01*
X-867838Y-1707372D01*
X-868831Y-1712364D01*
X-867838Y-1717356D01*
X-865010Y-1721589D01*
X-860778Y-1724417D01*
X-855785Y-1725410D01*
X-846235D01*
Y-2096420D01*
X-878030D01*
Y-2141696D01*
X-815038D01*
Y-2096420D01*
X-823997D01*
Y-1725410D01*
X-814447D01*
X-809454Y-1724417D01*
X-805222Y-1721589D01*
X-802394Y-1717356D01*
X-801401Y-1712364D01*
X-802394Y-1707372D01*
X-805222Y-1703139D01*
Y-1700921D01*
X-802270Y-1698949D01*
X-798537Y-1693362D01*
X-798221Y-1691772D01*
D02*
G37*
G36*
X-384763Y-2114638D02*
X-418306D01*
Y-2142276D01*
X-384763D01*
Y-2114638D01*
D02*
G37*
G36*
Y-2077000D02*
X-418306D01*
Y-2104638D01*
X-384763D01*
Y-2077000D01*
D02*
G37*
G36*
X-428306D02*
X-461849D01*
Y-2104638D01*
X-428306D01*
Y-2077000D01*
D02*
G37*
G36*
Y-2114638D02*
X-461849D01*
Y-2142276D01*
X-428306D01*
Y-2114638D01*
D02*
G37*
G36*
X-815038Y-2163348D02*
X-878030D01*
Y-2179923D01*
X-906425D01*
X-907165Y-2178136D01*
X-911267Y-2172791D01*
X-916612Y-2168689D01*
X-922837Y-2166110D01*
X-929518Y-2165231D01*
X-936198Y-2166110D01*
X-942424Y-2168689D01*
X-947769Y-2172791D01*
X-951871Y-2178136D01*
X-954450Y-2184361D01*
X-955329Y-2191042D01*
X-954450Y-2197722D01*
X-951871Y-2203948D01*
X-947769Y-2209293D01*
X-942424Y-2213395D01*
X-936198Y-2215974D01*
X-929518Y-2216853D01*
X-922837Y-2215974D01*
X-916612Y-2213395D01*
X-911267Y-2209293D01*
X-907165Y-2203948D01*
X-906425Y-2202161D01*
X-878030D01*
Y-2208624D01*
X-852655D01*
Y-2338775D01*
X-859405Y-2341571D01*
X-866807Y-2347251D01*
X-872487Y-2354653D01*
X-876057Y-2363272D01*
X-877275Y-2372522D01*
X-876057Y-2381772D01*
X-872487Y-2390391D01*
X-866807Y-2397793D01*
X-859405Y-2403473D01*
X-850786Y-2407043D01*
X-841536Y-2408261D01*
X-832286Y-2407043D01*
X-823667Y-2403473D01*
X-816265Y-2397793D01*
X-810585Y-2390391D01*
X-807015Y-2381772D01*
X-805797Y-2372522D01*
X-807015Y-2363272D01*
X-810585Y-2354653D01*
X-816265Y-2347251D01*
X-823667Y-2341571D01*
X-830417Y-2338775D01*
Y-2208624D01*
X-815038D01*
Y-2163348D01*
D02*
G37*
G36*
X748464Y-2107803D02*
X739091Y-2109037D01*
X730356Y-2112655D01*
X722856Y-2118410D01*
X717101Y-2125910D01*
X713483Y-2134645D01*
X712249Y-2144018D01*
X713483Y-2153391D01*
X717101Y-2162126D01*
X722856Y-2169626D01*
X730356Y-2175381D01*
X739091Y-2178999D01*
X748464Y-2180233D01*
X757837Y-2178999D01*
X766572Y-2175381D01*
X774072Y-2169626D01*
X779827Y-2162126D01*
X783445Y-2153391D01*
X784679Y-2144018D01*
X783445Y-2134645D01*
X779827Y-2125910D01*
X774072Y-2118410D01*
X766572Y-2112655D01*
X757837Y-2109037D01*
X748464Y-2107803D01*
D02*
G37*
G36*
X-499803Y-2123425D02*
X-523504D01*
Y-2155000D01*
X-499803D01*
Y-2123425D01*
D02*
G37*
G36*
X-533504D02*
X-557205D01*
Y-2155000D01*
X-533504D01*
Y-2123425D01*
D02*
G37*
G36*
X-1377520Y-2007803D02*
X-1386893Y-2009037D01*
X-1395628Y-2012655D01*
X-1403128Y-2018410D01*
X-1408883Y-2025910D01*
X-1412501Y-2034645D01*
X-1413735Y-2044018D01*
X-1412501Y-2053391D01*
X-1408883Y-2062126D01*
X-1403128Y-2069626D01*
X-1395628Y-2075381D01*
X-1386893Y-2078999D01*
X-1377520Y-2080233D01*
X-1368147Y-2078999D01*
X-1359412Y-2075381D01*
X-1351912Y-2069626D01*
X-1346157Y-2062126D01*
X-1342539Y-2053391D01*
X-1341305Y-2044018D01*
X-1342539Y-2034645D01*
X-1346157Y-2025910D01*
X-1351912Y-2018410D01*
X-1359412Y-2012655D01*
X-1368147Y-2009037D01*
X-1377520Y-2007803D01*
D02*
G37*
G36*
X-1435276Y-1972567D02*
Y-1996850D01*
X-1410993D01*
X-1411355Y-1994101D01*
X-1414346Y-1986880D01*
X-1419104Y-1980679D01*
X-1425305Y-1975921D01*
X-1432526Y-1972929D01*
X-1435276Y-1972567D01*
D02*
G37*
G36*
X-1445276D02*
X-1448025Y-1972929D01*
X-1455246Y-1975921D01*
X-1461447Y-1980679D01*
X-1466205Y-1986880D01*
X-1469197Y-1994101D01*
X-1469559Y-1996850D01*
X-1445276D01*
Y-1972567D01*
D02*
G37*
G36*
X-533504Y-1960000D02*
X-557205D01*
Y-1991575D01*
X-533504D01*
Y-1960000D01*
D02*
G37*
G36*
X-657874Y-1972567D02*
X-660623Y-1972929D01*
X-667845Y-1975921D01*
X-674046Y-1980679D01*
X-678804Y-1986880D01*
X-681795Y-1994101D01*
X-682157Y-1996850D01*
X-657874D01*
Y-1972567D01*
D02*
G37*
G36*
X848464Y-1907803D02*
X839091Y-1909037D01*
X830356Y-1912655D01*
X822856Y-1918410D01*
X817101Y-1925910D01*
X813483Y-1934645D01*
X812249Y-1944018D01*
X813483Y-1953391D01*
X817101Y-1962126D01*
X822856Y-1969626D01*
X830356Y-1975381D01*
X839091Y-1978999D01*
X848464Y-1980233D01*
X857837Y-1978999D01*
X864826Y-1976105D01*
X878250Y-1989529D01*
Y-2016408D01*
X873250Y-2017779D01*
X866572Y-2012655D01*
X857837Y-2009037D01*
X848464Y-2007803D01*
X839091Y-2009037D01*
X830356Y-2012655D01*
X822856Y-2018410D01*
X817101Y-2025910D01*
X813483Y-2034645D01*
X812249Y-2044018D01*
X813483Y-2053391D01*
X817101Y-2062126D01*
X822856Y-2069626D01*
X830356Y-2075381D01*
X839091Y-2078999D01*
X848464Y-2080233D01*
X857837Y-2078999D01*
X866572Y-2075381D01*
X873250Y-2070257D01*
X878250Y-2071628D01*
Y-2098507D01*
X864826Y-2111931D01*
X857837Y-2109037D01*
X848464Y-2107803D01*
X839091Y-2109037D01*
X830356Y-2112655D01*
X822856Y-2118410D01*
X817101Y-2125910D01*
X813483Y-2134645D01*
X812249Y-2144018D01*
X813483Y-2153391D01*
X817101Y-2162126D01*
X822856Y-2169626D01*
X830356Y-2175381D01*
X839091Y-2178999D01*
X848464Y-2180233D01*
X857837Y-2178999D01*
X866572Y-2175381D01*
X874072Y-2169626D01*
X879827Y-2162126D01*
X883445Y-2153391D01*
X884679Y-2144018D01*
X883445Y-2134645D01*
X880551Y-2127656D01*
X897232Y-2110975D01*
X899642Y-2107368D01*
X900489Y-2103113D01*
Y-1984924D01*
X899642Y-1980668D01*
X897232Y-1977061D01*
X880551Y-1960380D01*
X883445Y-1953391D01*
X884679Y-1944018D01*
X883445Y-1934645D01*
X879827Y-1925910D01*
X874072Y-1918410D01*
X866572Y-1912655D01*
X857837Y-1909037D01*
X848464Y-1907803D01*
D02*
G37*
G36*
X-1445276Y-2006850D02*
X-1469559D01*
X-1469197Y-2009600D01*
X-1466205Y-2016821D01*
X-1461447Y-2023022D01*
X-1455246Y-2027780D01*
X-1448025Y-2030771D01*
X-1445276Y-2031133D01*
Y-2006850D01*
D02*
G37*
G36*
X748464Y-2007803D02*
X739091Y-2009037D01*
X730356Y-2012655D01*
X722856Y-2018410D01*
X717101Y-2025910D01*
X713483Y-2034645D01*
X712249Y-2044018D01*
X713483Y-2053391D01*
X717101Y-2062126D01*
X722856Y-2069626D01*
X730356Y-2075381D01*
X739091Y-2078999D01*
X748464Y-2080233D01*
X757837Y-2078999D01*
X766572Y-2075381D01*
X774072Y-2069626D01*
X779827Y-2062126D01*
X783445Y-2053391D01*
X784679Y-2044018D01*
X783445Y-2034645D01*
X779827Y-2025910D01*
X774072Y-2018410D01*
X766572Y-2012655D01*
X757837Y-2009037D01*
X748464Y-2007803D01*
D02*
G37*
G36*
X-657874Y-2006850D02*
X-682157D01*
X-681795Y-2009600D01*
X-678804Y-2016821D01*
X-674046Y-2023022D01*
X-667845Y-2027780D01*
X-660623Y-2030771D01*
X-657874Y-2031133D01*
Y-2006850D01*
D02*
G37*
G36*
X-1410993D02*
X-1435276D01*
Y-2031133D01*
X-1432526Y-2030771D01*
X-1425305Y-2027780D01*
X-1419104Y-2023022D01*
X-1414346Y-2016821D01*
X-1411355Y-2009600D01*
X-1410993Y-2006850D01*
D02*
G37*
G36*
X-1377520Y-2107803D02*
X-1386893Y-2109037D01*
X-1395628Y-2112655D01*
X-1403128Y-2118410D01*
X-1408883Y-2125910D01*
X-1412501Y-2134645D01*
X-1413735Y-2144018D01*
X-1412501Y-2153391D01*
X-1408883Y-2162126D01*
X-1403128Y-2169626D01*
X-1395628Y-2175381D01*
X-1386893Y-2178999D01*
X-1377520Y-2180233D01*
X-1368147Y-2178999D01*
X-1359412Y-2175381D01*
X-1351912Y-2169626D01*
X-1346157Y-2162126D01*
X-1342539Y-2153391D01*
X-1341305Y-2144018D01*
X-1342539Y-2134645D01*
X-1346157Y-2125910D01*
X-1351912Y-2118410D01*
X-1359412Y-2112655D01*
X-1368147Y-2109037D01*
X-1377520Y-2107803D01*
D02*
G37*
G36*
X748464Y-2207803D02*
X739091Y-2209037D01*
X730356Y-2212655D01*
X722856Y-2218410D01*
X717101Y-2225910D01*
X713483Y-2234645D01*
X712249Y-2244018D01*
X713483Y-2253391D01*
X717101Y-2262126D01*
X722856Y-2269626D01*
X730356Y-2275381D01*
X739091Y-2278999D01*
X748464Y-2280233D01*
X757837Y-2278999D01*
X766572Y-2275381D01*
X774072Y-2269626D01*
X779827Y-2262126D01*
X783445Y-2253391D01*
X784679Y-2244018D01*
X783445Y-2234645D01*
X779827Y-2225910D01*
X774072Y-2218410D01*
X766572Y-2212655D01*
X757837Y-2209037D01*
X748464Y-2207803D01*
D02*
G37*
G36*
X-1277520D02*
X-1286893Y-2209037D01*
X-1295628Y-2212655D01*
X-1303128Y-2218410D01*
X-1308883Y-2225910D01*
X-1312501Y-2234645D01*
X-1313735Y-2244018D01*
X-1312501Y-2253391D01*
X-1308883Y-2262126D01*
X-1303128Y-2269626D01*
X-1295628Y-2275381D01*
X-1286893Y-2278999D01*
X-1277520Y-2280233D01*
X-1268147Y-2278999D01*
X-1259412Y-2275381D01*
X-1251912Y-2269626D01*
X-1246157Y-2262126D01*
X-1242539Y-2253391D01*
X-1241305Y-2244018D01*
X-1242539Y-2234645D01*
X-1246157Y-2225910D01*
X-1251912Y-2218410D01*
X-1259412Y-2212655D01*
X-1268147Y-2209037D01*
X-1277520Y-2207803D01*
D02*
G37*
G36*
X-458308Y-2236468D02*
X-462445Y-2237013D01*
X-470959Y-2240540D01*
X-478270Y-2246150D01*
X-483880Y-2253461D01*
X-487407Y-2261975D01*
X-487952Y-2266112D01*
X-458308D01*
Y-2236468D01*
D02*
G37*
G36*
X848464Y-2207803D02*
X839091Y-2209037D01*
X830356Y-2212655D01*
X822856Y-2218410D01*
X817101Y-2225910D01*
X813483Y-2234645D01*
X812249Y-2244018D01*
X813483Y-2253391D01*
X817101Y-2262126D01*
X822856Y-2269626D01*
X830356Y-2275381D01*
X839091Y-2278999D01*
X848464Y-2280233D01*
X857837Y-2278999D01*
X866572Y-2275381D01*
X874072Y-2269626D01*
X879827Y-2262126D01*
X883445Y-2253391D01*
X884679Y-2244018D01*
X883445Y-2234645D01*
X879827Y-2225910D01*
X874072Y-2218410D01*
X866572Y-2212655D01*
X857837Y-2209037D01*
X848464Y-2207803D01*
D02*
G37*
G36*
X-1377520D02*
X-1386893Y-2209037D01*
X-1395628Y-2212655D01*
X-1403128Y-2218410D01*
X-1408883Y-2225910D01*
X-1412501Y-2234645D01*
X-1413735Y-2244018D01*
X-1412501Y-2253391D01*
X-1408883Y-2262126D01*
X-1403128Y-2269626D01*
X-1395628Y-2275381D01*
X-1386893Y-2278999D01*
X-1377520Y-2280233D01*
X-1368147Y-2278999D01*
X-1359412Y-2275381D01*
X-1351912Y-2269626D01*
X-1346157Y-2262126D01*
X-1342539Y-2253391D01*
X-1341305Y-2244018D01*
X-1342539Y-2234645D01*
X-1346157Y-2225910D01*
X-1351912Y-2218410D01*
X-1359412Y-2212655D01*
X-1368147Y-2209037D01*
X-1377520Y-2207803D01*
D02*
G37*
G36*
X-533504Y-2323425D02*
X-557205D01*
Y-2355000D01*
X-533504D01*
Y-2323425D01*
D02*
G37*
G36*
X336378Y-2366268D02*
Y-2390551D01*
X360661D01*
X360299Y-2387802D01*
X357308Y-2380581D01*
X352550Y-2374380D01*
X346349Y-2369621D01*
X339127Y-2366630D01*
X336378Y-2366268D01*
D02*
G37*
G36*
X-418664Y-2276112D02*
X-448308D01*
Y-2305756D01*
X-444171Y-2305211D01*
X-435657Y-2301684D01*
X-428346Y-2296074D01*
X-422736Y-2288763D01*
X-419209Y-2280249D01*
X-418664Y-2276112D01*
D02*
G37*
G36*
X-458308D02*
X-487952D01*
X-487407Y-2280249D01*
X-483880Y-2288763D01*
X-482572Y-2290469D01*
X-515528Y-2323425D01*
X-523504D01*
Y-2355000D01*
X-499803D01*
Y-2339150D01*
X-464863Y-2304210D01*
X-462445Y-2305211D01*
X-458308Y-2305756D01*
Y-2276112D01*
D02*
G37*
G36*
X-448308Y-2236468D02*
Y-2266112D01*
X-418664D01*
X-419209Y-2261975D01*
X-422736Y-2253461D01*
X-428346Y-2246150D01*
X-435657Y-2240540D01*
X-444171Y-2237013D01*
X-448308Y-2236468D01*
D02*
G37*
G36*
X-756299Y-2169418D02*
X-759049Y-2169780D01*
X-766270Y-2172771D01*
X-772471Y-2177529D01*
X-777229Y-2183730D01*
X-780220Y-2190951D01*
X-780582Y-2193701D01*
X-756299D01*
Y-2169418D01*
D02*
G37*
G36*
X-499803Y-2165000D02*
X-523504D01*
Y-2196575D01*
X-499803D01*
Y-2165000D01*
D02*
G37*
G36*
X-165748Y-2169418D02*
X-168497Y-2169780D01*
X-175719Y-2172771D01*
X-181920Y-2177529D01*
X-186678Y-2183730D01*
X-189669Y-2190951D01*
X-190031Y-2193701D01*
X-165748D01*
Y-2169418D01*
D02*
G37*
G36*
X-746299D02*
Y-2193701D01*
X-722016D01*
X-722378Y-2190951D01*
X-725369Y-2183730D01*
X-730128Y-2177529D01*
X-736329Y-2172771D01*
X-743550Y-2169780D01*
X-746299Y-2169418D01*
D02*
G37*
G36*
X-533504Y-2165000D02*
X-557205D01*
Y-2196575D01*
X-533504D01*
Y-2165000D01*
D02*
G37*
G36*
X-756299Y-2203701D02*
X-780582D01*
X-780220Y-2206450D01*
X-777229Y-2213671D01*
X-772471Y-2219872D01*
X-766270Y-2224631D01*
X-759049Y-2227622D01*
X-756299Y-2227984D01*
Y-2203701D01*
D02*
G37*
G36*
X-558504Y-2065826D02*
X-621496D01*
Y-2111102D01*
X-602615D01*
Y-2127520D01*
X-616102D01*
Y-2192480D01*
X-601119D01*
Y-2203898D01*
X-621496D01*
Y-2249174D01*
X-558504D01*
Y-2203898D01*
X-578881D01*
Y-2192480D01*
X-566890D01*
Y-2127520D01*
X-580377D01*
Y-2111102D01*
X-558504D01*
Y-2065826D01*
D02*
G37*
G36*
X-165748Y-2203701D02*
X-190031D01*
X-189669Y-2206450D01*
X-186678Y-2213671D01*
X-181920Y-2219872D01*
X-175719Y-2224631D01*
X-168497Y-2227622D01*
X-165748Y-2227984D01*
Y-2203701D01*
D02*
G37*
G36*
X-722016D02*
X-746299D01*
Y-2227984D01*
X-743550Y-2227622D01*
X-736329Y-2224631D01*
X-730128Y-2219872D01*
X-725369Y-2213671D01*
X-722378Y-2206450D01*
X-722016Y-2203701D01*
D02*
G37*
G36*
X-756299Y-988315D02*
X-759049Y-988677D01*
X-766270Y-991669D01*
X-772471Y-996427D01*
X-777229Y-1002628D01*
X-780220Y-1009849D01*
X-780582Y-1012598D01*
X-756299D01*
Y-988315D01*
D02*
G37*
G36*
X-170000Y296737D02*
X-179250Y295519D01*
X-187869Y291949D01*
X-195271Y286269D01*
X-200951Y278867D01*
X-204521Y270248D01*
X-205739Y260998D01*
X-204521Y251748D01*
X-200951Y243129D01*
X-195271Y235727D01*
X-187869Y230047D01*
X-181668Y227479D01*
Y180660D01*
X-285661Y76666D01*
X-499332D01*
Y135606D01*
X-500372Y140836D01*
X-503335Y145271D01*
X-559898Y201834D01*
Y245496D01*
X-605174D01*
Y182504D01*
X-579228D01*
X-571839Y175115D01*
X-573753Y170496D01*
X-605174D01*
Y125800D01*
X-605441Y124456D01*
X-605174Y123112D01*
Y107504D01*
X-586972D01*
Y92898D01*
X-586369Y89868D01*
X-588932Y83680D01*
X-589811Y77000D01*
X-588932Y70320D01*
X-586353Y64094D01*
X-582251Y58749D01*
X-576906Y54647D01*
X-570681Y52068D01*
X-564000Y51189D01*
X-557319Y52068D01*
X-551094Y54647D01*
X-545749Y58749D01*
X-541647Y64094D01*
X-539068Y70320D01*
X-538189Y77000D01*
X-539068Y83680D01*
X-541647Y89906D01*
X-545749Y95251D01*
X-551094Y99353D01*
X-557319Y101932D01*
X-559636Y102237D01*
Y124246D01*
X-559898Y125566D01*
Y156642D01*
X-555279Y158555D01*
X-526668Y129944D01*
Y68659D01*
X-556817Y38511D01*
X-559779Y34077D01*
X-560557Y30166D01*
X-587228Y3496D01*
X-613174D01*
Y-59496D01*
X-567898D01*
Y-15834D01*
X-537487Y14578D01*
X-534524Y19012D01*
X-533746Y22922D01*
X-507339Y49330D01*
X-280000D01*
X-274769Y50370D01*
X-270335Y53333D01*
X-162339Y161330D01*
X-155660D01*
X-51335Y57005D01*
X-53127Y51726D01*
X-57024Y51213D01*
X-63569Y48502D01*
X-69189Y44189D01*
X-69268Y44086D01*
X-75571Y44086D01*
X-77891Y47109D01*
X-84366Y52078D01*
X-91907Y55202D01*
X-95000Y55609D01*
Y25000D01*
X-100000D01*
Y20000D01*
X-130609D01*
X-130202Y16907D01*
X-127078Y9366D01*
X-122109Y2890D01*
X-119086Y571D01*
X-119086Y-5732D01*
X-119189Y-5811D01*
X-123502Y-11431D01*
X-126213Y-17976D01*
X-127138Y-25000D01*
X-126213Y-32024D01*
X-123502Y-38569D01*
X-119189Y-44189D01*
X-113569Y-48502D01*
X-107024Y-51213D01*
X-100000Y-52138D01*
X-92976Y-51213D01*
X-86431Y-48502D01*
X-80811Y-44189D01*
X-78034Y-40570D01*
X-77409Y-40294D01*
X-72591D01*
X-71966Y-40570D01*
X-69189Y-44189D01*
X-63569Y-48502D01*
X-57024Y-51213D01*
X-53127Y-51726D01*
X-51335Y-57005D01*
X-140663Y-146334D01*
X-154339D01*
X-216933Y-83739D01*
X-221367Y-80776D01*
X-226598Y-79736D01*
X-455488D01*
X-457941Y-80224D01*
X-503342D01*
X-506859Y-75641D01*
X-512204Y-71539D01*
X-518429Y-68960D01*
X-525110Y-68081D01*
X-531790Y-68960D01*
X-538016Y-71539D01*
X-543361Y-75641D01*
X-546878Y-80224D01*
X-566898D01*
Y-69504D01*
X-612174D01*
Y-132496D01*
X-566898D01*
Y-107560D01*
X-546878D01*
X-543361Y-112143D01*
X-538016Y-116245D01*
X-531790Y-118824D01*
X-525110Y-119703D01*
X-518429Y-118824D01*
X-512204Y-116245D01*
X-506859Y-112143D01*
X-503342Y-107560D01*
X-455976D01*
X-453523Y-107072D01*
X-232260D01*
X-173668Y-165663D01*
Y-201483D01*
X-179869Y-204051D01*
X-187271Y-209731D01*
X-192951Y-217133D01*
X-196521Y-225752D01*
X-197739Y-235002D01*
X-196521Y-244252D01*
X-192951Y-252871D01*
X-187271Y-260273D01*
X-179869Y-265953D01*
X-171250Y-269523D01*
X-162000Y-270741D01*
X-152750Y-269523D01*
X-144131Y-265953D01*
X-136729Y-260273D01*
X-131049Y-252871D01*
X-127479Y-244252D01*
X-126261Y-235002D01*
X-127479Y-225752D01*
X-131049Y-217133D01*
X-136729Y-209731D01*
X-144131Y-204051D01*
X-146332Y-203140D01*
Y-173670D01*
X-135002D01*
X-129771Y-172630D01*
X-125337Y-169667D01*
X-6900Y-51229D01*
X0Y-52138D01*
X7024Y-51213D01*
X13569Y-48502D01*
X19189Y-44189D01*
X21966Y-40570D01*
X22591Y-40294D01*
X27409D01*
X28034Y-40570D01*
X30811Y-44189D01*
X36431Y-48502D01*
X38881Y-49517D01*
Y-78194D01*
X34414Y-80044D01*
X27958Y-84998D01*
X23004Y-91454D01*
X19890Y-98972D01*
X18828Y-107040D01*
X19890Y-115108D01*
X23004Y-122626D01*
X27958Y-129082D01*
X34414Y-134036D01*
X41932Y-137150D01*
X50000Y-138212D01*
X58068Y-137150D01*
X65586Y-134036D01*
X72042Y-129082D01*
X76996Y-122626D01*
X80110Y-115108D01*
X81172Y-107040D01*
X80110Y-98972D01*
X76996Y-91454D01*
X72042Y-84998D01*
X65586Y-80044D01*
X61119Y-78194D01*
Y-49517D01*
X63569Y-48502D01*
X69189Y-44189D01*
X69268Y-44086D01*
X75571Y-44086D01*
X77891Y-47109D01*
X84366Y-52078D01*
X91907Y-55202D01*
X95000Y-55609D01*
Y-25000D01*
X100000D01*
Y-20000D01*
X130609D01*
X130202Y-16907D01*
X127078Y-9366D01*
X122109Y-2890D01*
X119086Y-571D01*
X119086Y5732D01*
X119189Y5811D01*
X123502Y11431D01*
X124517Y13881D01*
X140394D01*
X154881Y-606D01*
Y-304394D01*
X-964862Y-1424138D01*
X-967273Y-1427745D01*
X-968119Y-1432000D01*
X-968119Y-1432001D01*
Y-1534377D01*
X-968119Y-1534377D01*
X-967273Y-1538632D01*
X-964862Y-1542240D01*
X-868166Y-1638936D01*
X-867838Y-1640584D01*
X-865010Y-1644817D01*
X-864167Y-1645380D01*
Y-1651394D01*
X-865010Y-1651957D01*
X-867838Y-1656190D01*
X-868831Y-1661182D01*
X-867838Y-1666174D01*
X-865010Y-1670407D01*
Y-1672623D01*
X-867962Y-1674595D01*
X-871695Y-1680182D01*
X-872011Y-1681772D01*
X-835116D01*
X-798221D01*
X-798537Y-1680182D01*
X-802270Y-1674595D01*
X-805222Y-1672623D01*
Y-1670407D01*
X-802394Y-1666174D01*
X-802066Y-1664526D01*
X-792767Y-1655227D01*
X-773495D01*
Y-1673171D01*
X-710503D01*
Y-1659852D01*
X-709108Y-1655228D01*
X-704853Y-1654381D01*
X-701246Y-1651971D01*
X-674138Y-1624863D01*
X-674138Y-1624862D01*
X-671727Y-1621255D01*
X-670881Y-1617000D01*
Y-1534506D01*
X-612221Y-1475846D01*
X-609749Y-1475520D01*
X-601130Y-1471950D01*
X-593728Y-1466271D01*
X-588049Y-1458869D01*
X-584478Y-1450249D01*
X-583260Y-1440999D01*
X-584478Y-1431749D01*
X-588049Y-1423130D01*
X-593728Y-1415728D01*
X-601130Y-1410049D01*
X-609749Y-1406478D01*
X-618999Y-1405261D01*
X-628249Y-1406478D01*
X-636869Y-1410049D01*
X-644270Y-1415728D01*
X-649950Y-1423130D01*
X-653520Y-1431749D01*
X-654738Y-1440999D01*
X-653520Y-1450249D01*
X-649950Y-1458869D01*
X-644270Y-1466271D01*
X-641521Y-1468380D01*
X-641194Y-1473369D01*
X-689862Y-1522037D01*
X-692273Y-1525645D01*
X-693119Y-1529900D01*
X-693119Y-1529900D01*
Y-1612394D01*
X-706415Y-1625690D01*
X-710503Y-1627896D01*
Y-1627896D01*
X-710503Y-1627896D01*
X-773495D01*
Y-1632989D01*
X-797372D01*
X-797373Y-1632989D01*
X-802394Y-1630600D01*
X-805222Y-1626367D01*
X-806065Y-1625804D01*
Y-1619790D01*
X-805222Y-1619227D01*
X-802394Y-1614994D01*
X-801401Y-1610002D01*
X-802394Y-1605010D01*
X-805222Y-1600777D01*
X-805593Y-1600529D01*
X-804076Y-1595529D01*
X-792956D01*
X-791106Y-1599996D01*
X-786152Y-1606452D01*
X-779696Y-1611406D01*
X-772178Y-1614520D01*
X-764110Y-1615582D01*
X-756042Y-1614520D01*
X-748524Y-1611406D01*
X-742068Y-1606452D01*
X-737114Y-1599996D01*
X-734000Y-1592478D01*
X-732938Y-1584410D01*
X-734000Y-1576342D01*
X-737114Y-1568824D01*
X-742068Y-1562368D01*
X-748524Y-1557414D01*
X-752991Y-1555564D01*
Y-1499148D01*
X-748819Y-1494976D01*
X-701552D01*
Y-1437890D01*
X-770449D01*
Y-1485157D01*
X-771972Y-1486680D01*
X-774383Y-1490287D01*
X-775229Y-1494542D01*
X-775229Y-1494543D01*
Y-1555564D01*
X-779696Y-1557414D01*
X-786152Y-1562368D01*
X-791106Y-1568824D01*
X-792956Y-1573291D01*
X-804073D01*
X-805590Y-1568291D01*
X-805222Y-1568045D01*
X-802394Y-1563812D01*
X-801401Y-1558820D01*
X-802394Y-1553828D01*
X-805222Y-1549595D01*
X-806065Y-1549032D01*
Y-1543018D01*
X-805222Y-1542455D01*
X-802394Y-1538222D01*
X-801401Y-1533230D01*
X-802394Y-1528238D01*
X-805222Y-1524005D01*
X-806067Y-1523441D01*
Y-1517427D01*
X-805222Y-1516863D01*
X-802394Y-1512630D01*
X-801401Y-1507638D01*
X-802394Y-1502646D01*
X-805222Y-1498413D01*
X-806065Y-1497850D01*
Y-1491836D01*
X-805222Y-1491273D01*
X-802394Y-1487040D01*
X-801401Y-1482048D01*
X-802394Y-1477056D01*
X-805222Y-1472823D01*
X-809454Y-1469995D01*
X-814447Y-1469002D01*
X-855785D01*
X-860778Y-1469995D01*
X-865010Y-1472823D01*
X-867838Y-1477056D01*
X-868831Y-1482048D01*
X-867838Y-1487040D01*
X-865010Y-1491273D01*
X-864167Y-1491836D01*
Y-1497850D01*
X-865010Y-1498413D01*
X-867838Y-1502646D01*
X-868831Y-1507638D01*
X-867838Y-1512630D01*
X-865010Y-1516863D01*
X-864165Y-1517427D01*
Y-1523441D01*
X-865010Y-1524005D01*
X-867838Y-1528238D01*
X-868831Y-1533230D01*
X-867838Y-1538222D01*
X-865010Y-1542455D01*
X-864167Y-1543018D01*
Y-1549032D01*
X-865010Y-1549595D01*
X-867838Y-1553828D01*
X-868831Y-1558820D01*
X-867838Y-1563812D01*
X-865010Y-1568045D01*
X-864167Y-1568608D01*
Y-1574622D01*
X-865010Y-1575185D01*
X-867838Y-1579418D01*
X-868831Y-1584410D01*
X-867838Y-1589402D01*
X-865010Y-1593635D01*
X-864165Y-1594199D01*
Y-1600213D01*
X-865010Y-1600777D01*
X-866129Y-1602452D01*
X-872232Y-1603420D01*
X-945881Y-1529772D01*
Y-1436606D01*
X173862Y-316863D01*
X173863Y-316863D01*
X176273Y-313255D01*
X177119Y-309000D01*
Y2127D01*
X182119Y3825D01*
X183729Y1727D01*
X191131Y-3953D01*
X199750Y-7523D01*
X209000Y-8741D01*
X218250Y-7523D01*
X226869Y-3953D01*
X234271Y1727D01*
X239951Y9129D01*
X243521Y17748D01*
X244739Y26998D01*
X243521Y36248D01*
X239951Y44867D01*
X234271Y52269D01*
X226869Y57949D01*
X218250Y61519D01*
X209000Y62737D01*
X199750Y61519D01*
X191131Y57949D01*
X183729Y52269D01*
X178049Y44867D01*
X174840Y37118D01*
X124103D01*
X123502Y38569D01*
X119189Y44189D01*
X113569Y48502D01*
X107024Y51213D01*
X100000Y52138D01*
X92976Y51213D01*
X86431Y48502D01*
X80811Y44189D01*
X78034Y40570D01*
X77409Y40294D01*
X72591D01*
X71966Y40570D01*
X69189Y44189D01*
X63569Y48502D01*
X57024Y51213D01*
X50000Y52138D01*
X42976Y51213D01*
X40527Y50198D01*
X-26375Y117100D01*
Y191905D01*
X-24588Y192645D01*
X-19243Y196747D01*
X-15141Y202092D01*
X-12562Y208317D01*
X-11683Y214998D01*
X-12562Y221679D01*
X-15141Y227904D01*
X-19243Y233249D01*
X-24588Y237351D01*
X-30814Y239930D01*
X-37494Y240809D01*
X-44175Y239930D01*
X-50400Y237351D01*
X-55745Y233249D01*
X-59847Y227904D01*
X-62426Y221679D01*
X-63305Y214998D01*
X-62426Y208317D01*
X-59847Y202092D01*
X-55745Y196747D01*
X-50400Y192645D01*
X-48613Y191905D01*
Y112495D01*
X-48613Y112494D01*
X-47767Y108239D01*
X-45356Y104632D01*
X2412Y56863D01*
X76Y52128D01*
X0Y52138D01*
X-6900Y51229D01*
X-140333Y184663D01*
X-144767Y187626D01*
X-149998Y188666D01*
X-154332D01*
Y229136D01*
X-152131Y230047D01*
X-144729Y235727D01*
X-139049Y243129D01*
X-135479Y251748D01*
X-134261Y260998D01*
X-135479Y270248D01*
X-139049Y278867D01*
X-144729Y286269D01*
X-152131Y291949D01*
X-160750Y295519D01*
X-170000Y296737D01*
D02*
G37*
G36*
X-105000Y55609D02*
X-108093Y55202D01*
X-115634Y52078D01*
X-122109Y47109D01*
X-127078Y40634D01*
X-130202Y33093D01*
X-130609Y30000D01*
X-105000D01*
Y55609D01*
D02*
G37*
G36*
X-1299457Y126226D02*
X-1333000D01*
Y98588D01*
X-1299457D01*
Y126226D01*
D02*
G37*
G36*
X-1343000D02*
X-1376543D01*
Y98588D01*
X-1343000D01*
Y126226D01*
D02*
G37*
G36*
X-634826Y3496D02*
X-680102D01*
Y-17881D01*
X-692898D01*
Y3480D01*
X-742110D01*
Y-61480D01*
X-728623D01*
Y-69900D01*
X-752496D01*
Y-115176D01*
X-689504D01*
Y-69900D01*
X-706385D01*
Y-61480D01*
X-692898D01*
Y-40119D01*
X-680102D01*
Y-59496D01*
X-663583D01*
Y-69504D01*
X-679102D01*
Y-132496D01*
X-633826D01*
Y-69504D01*
X-641345D01*
Y-59496D01*
X-634826D01*
Y3496D01*
D02*
G37*
G36*
X-461024Y-4063D02*
X-463773Y-4425D01*
X-470994Y-7417D01*
X-477195Y-12175D01*
X-481953Y-18376D01*
X-484945Y-25597D01*
X-485307Y-28346D01*
X-461024D01*
Y-4063D01*
D02*
G37*
G36*
X-1435276D02*
Y-28346D01*
X-1410993D01*
X-1411355Y-25597D01*
X-1414346Y-18376D01*
X-1419104Y-12175D01*
X-1425305Y-7417D01*
X-1432526Y-4425D01*
X-1435276Y-4063D01*
D02*
G37*
G36*
X-755890Y3480D02*
X-805102D01*
Y-18883D01*
X-814898D01*
Y2478D01*
X-860174D01*
Y-60514D01*
X-848655D01*
Y-81900D01*
X-865496D01*
Y-127176D01*
X-802504D01*
Y-81900D01*
X-826417D01*
Y-60514D01*
X-814898D01*
Y-41121D01*
X-805102D01*
Y-61480D01*
X-755890D01*
Y3480D01*
D02*
G37*
G36*
X-451024Y-4063D02*
Y-28346D01*
X-426741D01*
X-427103Y-25597D01*
X-430094Y-18376D01*
X-434852Y-12175D01*
X-441053Y-7417D01*
X-448274Y-4425D01*
X-451024Y-4063D01*
D02*
G37*
G36*
X-805504Y228174D02*
X-868496D01*
Y182898D01*
X-848119D01*
Y171494D01*
X-859174D01*
Y108502D01*
X-813898D01*
Y128879D01*
X-800102D01*
Y105522D01*
X-750890D01*
Y170482D01*
X-800102D01*
Y151117D01*
X-813898D01*
Y171494D01*
X-825881D01*
Y182898D01*
X-805504D01*
Y228174D01*
D02*
G37*
G36*
X-1343000Y163864D02*
X-1376543D01*
Y136226D01*
X-1343000D01*
Y163864D01*
D02*
G37*
G36*
X459086Y158504D02*
X434803D01*
Y134221D01*
X437553Y134583D01*
X444774Y137574D01*
X450975Y142332D01*
X455733Y148533D01*
X458724Y155755D01*
X459086Y158504D01*
D02*
G37*
G36*
X-1208497Y182658D02*
X-1249835D01*
X-1254828Y181665D01*
X-1259060Y178837D01*
X-1261888Y174604D01*
X-1262881Y169612D01*
X-1261888Y164620D01*
X-1259060Y160387D01*
Y158171D01*
X-1262012Y156199D01*
X-1265745Y150612D01*
X-1266061Y149022D01*
X-1229166D01*
X-1192271D01*
X-1192587Y150612D01*
X-1196320Y156199D01*
X-1199272Y158171D01*
Y160387D01*
X-1196444Y164620D01*
X-1195451Y169612D01*
X-1196444Y174604D01*
X-1199272Y178837D01*
X-1203504Y181665D01*
X-1208497Y182658D01*
D02*
G37*
G36*
X-1299457Y163864D02*
X-1333000D01*
Y136226D01*
X-1299457D01*
Y163864D01*
D02*
G37*
G36*
X424803Y158504D02*
X400520D01*
X400882Y155755D01*
X403873Y148533D01*
X408632Y142332D01*
X414833Y137574D01*
X422054Y134583D01*
X424803Y134221D01*
Y158504D01*
D02*
G37*
G36*
X-1115717D02*
X-1140000D01*
Y134221D01*
X-1137251Y134583D01*
X-1130029Y137574D01*
X-1123828Y142332D01*
X-1119070Y148533D01*
X-1116079Y155755D01*
X-1115717Y158504D01*
D02*
G37*
G36*
X-1150000D02*
X-1174283D01*
X-1173921Y155755D01*
X-1170930Y148533D01*
X-1166172Y142332D01*
X-1159971Y137574D01*
X-1152749Y134583D01*
X-1150000Y134221D01*
Y158504D01*
D02*
G37*
G36*
X-328315D02*
X-352598D01*
Y134221D01*
X-349849Y134583D01*
X-342628Y137574D01*
X-336427Y142332D01*
X-331669Y148533D01*
X-328677Y155755D01*
X-328315Y158504D01*
D02*
G37*
G36*
X-362598D02*
X-386881D01*
X-386519Y155755D01*
X-383528Y148533D01*
X-378770Y142332D01*
X-372569Y137574D01*
X-365348Y134583D01*
X-362598Y134221D01*
Y158504D01*
D02*
G37*
G36*
X-1445276Y-4063D02*
X-1448025Y-4425D01*
X-1455246Y-7417D01*
X-1461447Y-12175D01*
X-1466205Y-18376D01*
X-1469197Y-25597D01*
X-1469559Y-28346D01*
X-1445276D01*
Y-4063D01*
D02*
G37*
G36*
X-1312567Y-235197D02*
X-1336850D01*
Y-259480D01*
X-1334101Y-259118D01*
X-1326880Y-256127D01*
X-1320679Y-251368D01*
X-1315921Y-245167D01*
X-1312929Y-237946D01*
X-1312567Y-235197D01*
D02*
G37*
G36*
X-1346850D02*
X-1371133D01*
X-1370771Y-237946D01*
X-1367780Y-245167D01*
X-1363022Y-251368D01*
X-1356821Y-256127D01*
X-1349600Y-259118D01*
X-1346850Y-259480D01*
Y-235197D01*
D02*
G37*
G36*
X-1336850Y-200914D02*
Y-225197D01*
X-1312567D01*
X-1312929Y-222447D01*
X-1315921Y-215226D01*
X-1320679Y-209025D01*
X-1326880Y-204267D01*
X-1334101Y-201276D01*
X-1336850Y-200914D01*
D02*
G37*
G36*
X-1346850D02*
X-1349600Y-201276D01*
X-1356821Y-204267D01*
X-1363022Y-209025D01*
X-1367780Y-215226D01*
X-1370771Y-222447D01*
X-1371133Y-225197D01*
X-1346850D01*
Y-200914D01*
D02*
G37*
G36*
X-802504Y-148828D02*
X-865496D01*
Y-194104D01*
X-824529D01*
Y-219644D01*
X-824529Y-219645D01*
X-823837Y-223121D01*
X-825353Y-225096D01*
X-827932Y-231321D01*
X-828811Y-238002D01*
X-827932Y-244683D01*
X-825353Y-250908D01*
X-821251Y-256253D01*
X-815906Y-260355D01*
X-809681Y-262934D01*
X-803000Y-263813D01*
X-796319Y-262934D01*
X-790094Y-260355D01*
X-784749Y-256253D01*
X-780647Y-250908D01*
X-778068Y-244683D01*
X-777189Y-238002D01*
X-778068Y-231321D01*
X-780647Y-225096D01*
X-784749Y-219751D01*
X-790094Y-215649D01*
X-796319Y-213070D01*
X-802290Y-212284D01*
Y-183199D01*
X-802290Y-183198D01*
X-802504Y-182124D01*
Y-148828D01*
D02*
G37*
G36*
X-813794Y-369002D02*
X-841432D01*
Y-402545D01*
X-813794D01*
Y-369002D01*
D02*
G37*
G36*
X-851432D02*
X-879070D01*
Y-402545D01*
X-851432D01*
Y-369002D01*
D02*
G37*
G36*
X-813794Y-325459D02*
X-841432D01*
Y-359002D01*
X-813794D01*
Y-325459D01*
D02*
G37*
G36*
X-851432D02*
X-879070D01*
Y-359002D01*
X-851432D01*
Y-325459D01*
D02*
G37*
G36*
X-726000Y-164466D02*
X-756591D01*
Y-186198D01*
X-726000D01*
Y-164466D01*
D02*
G37*
G36*
X-461024Y-38346D02*
X-485307D01*
X-484945Y-41096D01*
X-481953Y-48317D01*
X-477195Y-54518D01*
X-470994Y-59276D01*
X-463773Y-62267D01*
X-461024Y-62629D01*
Y-38346D01*
D02*
G37*
G36*
X-1410993D02*
X-1435276D01*
Y-62629D01*
X-1432526Y-62267D01*
X-1425305Y-59276D01*
X-1419104Y-54518D01*
X-1414346Y-48317D01*
X-1411355Y-41096D01*
X-1410993Y-38346D01*
D02*
G37*
G36*
X130609Y-30000D02*
X105000D01*
Y-55609D01*
X108093Y-55202D01*
X115634Y-52078D01*
X122109Y-47109D01*
X127078Y-40634D01*
X130202Y-33093D01*
X130609Y-30000D01*
D02*
G37*
G36*
X-426741Y-38346D02*
X-451024D01*
Y-62629D01*
X-448274Y-62267D01*
X-441053Y-59276D01*
X-434852Y-54518D01*
X-430094Y-48317D01*
X-427103Y-41096D01*
X-426741Y-38346D01*
D02*
G37*
G36*
X-1445276D02*
X-1469559D01*
X-1469197Y-41096D01*
X-1466205Y-48317D01*
X-1461447Y-54518D01*
X-1455246Y-59276D01*
X-1448025Y-62267D01*
X-1445276Y-62629D01*
Y-38346D01*
D02*
G37*
G36*
X-726000Y-132734D02*
X-756591D01*
Y-154466D01*
X-726000D01*
Y-132734D01*
D02*
G37*
G36*
X-685409Y-164466D02*
X-716000D01*
Y-186198D01*
X-685409D01*
Y-164466D01*
D02*
G37*
G36*
X-982119Y182658D02*
X-1023457D01*
X-1028450Y181665D01*
X-1032682Y178837D01*
X-1035510Y174604D01*
X-1035838Y172956D01*
X-1096862Y111932D01*
X-1099273Y108325D01*
X-1100119Y104069D01*
X-1100119Y104069D01*
Y-55396D01*
X-1182651Y-137928D01*
X-1185061Y-141535D01*
X-1185907Y-145790D01*
X-1185907Y-145791D01*
Y-170301D01*
X-1190907Y-171296D01*
X-1192647Y-167096D01*
X-1196749Y-161751D01*
X-1202094Y-157649D01*
X-1208320Y-155070D01*
X-1215000Y-154191D01*
X-1221680Y-155070D01*
X-1223467Y-155810D01*
X-1262485Y-116792D01*
Y-73194D01*
X-1262337Y-73053D01*
X-1257485Y-70980D01*
X-1254828Y-72755D01*
X-1249835Y-73748D01*
X-1208497D01*
X-1203504Y-72755D01*
X-1199272Y-69927D01*
X-1196444Y-65694D01*
X-1195451Y-60702D01*
X-1196444Y-55710D01*
X-1199272Y-51477D01*
X-1200115Y-50914D01*
Y-44900D01*
X-1199272Y-44337D01*
X-1196444Y-40104D01*
X-1195451Y-35112D01*
X-1196444Y-30120D01*
X-1199272Y-25887D01*
X-1200115Y-25324D01*
Y-19310D01*
X-1199272Y-18747D01*
X-1196444Y-14514D01*
X-1195451Y-9522D01*
X-1196444Y-4530D01*
X-1199272Y-297D01*
X-1200117Y267D01*
Y6281D01*
X-1199272Y6845D01*
X-1196444Y11078D01*
X-1195451Y16070D01*
X-1196444Y21062D01*
X-1199272Y25295D01*
Y27511D01*
X-1196320Y29483D01*
X-1192587Y35070D01*
X-1192271Y36660D01*
X-1229166D01*
Y46660D01*
X-1192271D01*
X-1192587Y48250D01*
X-1196320Y53837D01*
X-1199272Y55809D01*
Y58025D01*
X-1196444Y62258D01*
X-1195451Y67250D01*
X-1196444Y72242D01*
X-1199272Y76475D01*
X-1200115Y77038D01*
Y83052D01*
X-1199272Y83615D01*
X-1196444Y87848D01*
X-1195451Y92840D01*
X-1196444Y97832D01*
X-1199272Y102065D01*
X-1200117Y102629D01*
Y108643D01*
X-1199272Y109207D01*
X-1196444Y113440D01*
X-1195451Y118432D01*
X-1196444Y123424D01*
X-1199272Y127657D01*
Y129873D01*
X-1196320Y131845D01*
X-1192587Y137432D01*
X-1192271Y139022D01*
X-1229166D01*
X-1266061D01*
X-1265745Y137432D01*
X-1262012Y131845D01*
X-1259060Y129873D01*
Y127657D01*
X-1261888Y123424D01*
X-1262881Y118432D01*
X-1261888Y113440D01*
X-1259060Y109207D01*
X-1258215Y108643D01*
Y102629D01*
X-1259060Y102065D01*
X-1261888Y97832D01*
X-1262881Y92840D01*
X-1261888Y87848D01*
X-1259060Y83615D01*
X-1258692Y83369D01*
X-1260209Y78369D01*
X-1303551D01*
Y88903D01*
X-1372449D01*
Y31817D01*
X-1303551D01*
Y56131D01*
X-1284723D01*
Y-121398D01*
X-1284723Y-121398D01*
X-1283877Y-125653D01*
X-1281466Y-129261D01*
X-1239192Y-171535D01*
X-1239932Y-173321D01*
X-1240811Y-180002D01*
X-1239932Y-186683D01*
X-1237353Y-192908D01*
X-1233251Y-198253D01*
X-1227906Y-202355D01*
X-1221680Y-204934D01*
X-1215000Y-205813D01*
X-1208320Y-204934D01*
X-1202094Y-202355D01*
X-1196749Y-198253D01*
X-1192647Y-192908D01*
X-1190907Y-188708D01*
X-1185907Y-189703D01*
Y-1405182D01*
X-1239255Y-1458531D01*
X-1243494Y-1455698D01*
X-1242539Y-1453391D01*
X-1241305Y-1444018D01*
X-1242539Y-1434645D01*
X-1246157Y-1425910D01*
X-1251912Y-1418410D01*
X-1259412Y-1412655D01*
X-1268147Y-1409037D01*
X-1277520Y-1407803D01*
X-1286893Y-1409037D01*
X-1295628Y-1412655D01*
X-1303128Y-1418410D01*
X-1308883Y-1425910D01*
X-1312501Y-1434645D01*
X-1313735Y-1444018D01*
X-1312501Y-1453391D01*
X-1308883Y-1462126D01*
X-1303128Y-1469626D01*
X-1295628Y-1475381D01*
X-1286893Y-1478999D01*
X-1287677Y-1483881D01*
X-1294999D01*
X-1295000Y-1483881D01*
X-1299255Y-1484727D01*
X-1302862Y-1487138D01*
X-1302863Y-1487138D01*
X-1329976Y-1514251D01*
X-1332387Y-1517859D01*
X-1333233Y-1522114D01*
X-1333233Y-1522114D01*
Y-1784006D01*
X-1361158Y-1811931D01*
X-1368147Y-1809037D01*
X-1377520Y-1807803D01*
X-1386893Y-1809037D01*
X-1395628Y-1812655D01*
X-1402306Y-1817779D01*
X-1407306Y-1816408D01*
Y-1771628D01*
X-1402306Y-1770257D01*
X-1395628Y-1775381D01*
X-1386893Y-1778999D01*
X-1377520Y-1780233D01*
X-1368147Y-1778999D01*
X-1359412Y-1775381D01*
X-1351912Y-1769626D01*
X-1346157Y-1762126D01*
X-1342539Y-1753391D01*
X-1341305Y-1744018D01*
X-1342539Y-1734645D01*
X-1346157Y-1725910D01*
X-1351912Y-1718410D01*
X-1359412Y-1712655D01*
X-1368147Y-1709037D01*
X-1377520Y-1707803D01*
X-1386893Y-1709037D01*
X-1395628Y-1712655D01*
X-1402306Y-1717779D01*
X-1407306Y-1716408D01*
Y-1671628D01*
X-1402306Y-1670257D01*
X-1395628Y-1675381D01*
X-1386893Y-1678999D01*
X-1377520Y-1680233D01*
X-1368147Y-1678999D01*
X-1359412Y-1675381D01*
X-1351912Y-1669626D01*
X-1346157Y-1662126D01*
X-1342539Y-1653391D01*
X-1341305Y-1644018D01*
X-1342539Y-1634645D01*
X-1346157Y-1625910D01*
X-1351912Y-1618410D01*
X-1359412Y-1612655D01*
X-1368147Y-1609037D01*
X-1377520Y-1607803D01*
X-1386893Y-1609037D01*
X-1395628Y-1612655D01*
X-1402306Y-1617779D01*
X-1407306Y-1616408D01*
Y-1571628D01*
X-1402306Y-1570257D01*
X-1395628Y-1575381D01*
X-1386893Y-1578999D01*
X-1377520Y-1580233D01*
X-1368147Y-1578999D01*
X-1359412Y-1575381D01*
X-1351912Y-1569626D01*
X-1346157Y-1562126D01*
X-1342539Y-1553391D01*
X-1341305Y-1544018D01*
X-1342539Y-1534645D01*
X-1346157Y-1525910D01*
X-1351912Y-1518410D01*
X-1359412Y-1512655D01*
X-1368147Y-1509037D01*
X-1377520Y-1507803D01*
X-1386893Y-1509037D01*
X-1395628Y-1512655D01*
X-1402306Y-1517779D01*
X-1407306Y-1516408D01*
Y-1471628D01*
X-1402306Y-1470257D01*
X-1395628Y-1475381D01*
X-1386893Y-1478999D01*
X-1377520Y-1480233D01*
X-1368147Y-1478999D01*
X-1359412Y-1475381D01*
X-1351912Y-1469626D01*
X-1346157Y-1462126D01*
X-1342539Y-1453391D01*
X-1341305Y-1444018D01*
X-1342539Y-1434645D01*
X-1346157Y-1425910D01*
X-1351912Y-1418410D01*
X-1359412Y-1412655D01*
X-1368147Y-1409037D01*
X-1377520Y-1407803D01*
X-1386893Y-1409037D01*
X-1395628Y-1412655D01*
X-1402306Y-1417779D01*
X-1407306Y-1416408D01*
Y-1371628D01*
X-1402306Y-1370257D01*
X-1395628Y-1375381D01*
X-1386893Y-1378999D01*
X-1377520Y-1380233D01*
X-1368147Y-1378999D01*
X-1359412Y-1375381D01*
X-1351912Y-1369626D01*
X-1346157Y-1362126D01*
X-1342539Y-1353391D01*
X-1341305Y-1344018D01*
X-1342539Y-1334645D01*
X-1346157Y-1325910D01*
X-1351912Y-1318410D01*
X-1359412Y-1312655D01*
X-1368147Y-1309037D01*
X-1377520Y-1307803D01*
X-1386893Y-1309037D01*
X-1395628Y-1312655D01*
X-1402306Y-1317779D01*
X-1407306Y-1316408D01*
Y-1271628D01*
X-1402306Y-1270257D01*
X-1395628Y-1275381D01*
X-1386893Y-1278999D01*
X-1377520Y-1280233D01*
X-1368147Y-1278999D01*
X-1359412Y-1275381D01*
X-1351912Y-1269626D01*
X-1346157Y-1262126D01*
X-1342539Y-1253391D01*
X-1341305Y-1244018D01*
X-1342539Y-1234645D01*
X-1346157Y-1225910D01*
X-1351912Y-1218410D01*
X-1359412Y-1212655D01*
X-1368147Y-1209037D01*
X-1377520Y-1207803D01*
X-1386893Y-1209037D01*
X-1395628Y-1212655D01*
X-1402306Y-1217779D01*
X-1407306Y-1216408D01*
Y-1171628D01*
X-1402306Y-1170257D01*
X-1395628Y-1175381D01*
X-1386893Y-1178999D01*
X-1377520Y-1180233D01*
X-1368147Y-1178999D01*
X-1359412Y-1175381D01*
X-1351912Y-1169626D01*
X-1346157Y-1162126D01*
X-1342539Y-1153391D01*
X-1341305Y-1144018D01*
X-1342539Y-1134645D01*
X-1346157Y-1125910D01*
X-1351912Y-1118410D01*
X-1359412Y-1112655D01*
X-1368147Y-1109037D01*
X-1377520Y-1107803D01*
X-1386893Y-1109037D01*
X-1395628Y-1112655D01*
X-1402306Y-1117779D01*
X-1407306Y-1116408D01*
Y-1071628D01*
X-1402306Y-1070257D01*
X-1395628Y-1075381D01*
X-1386893Y-1078999D01*
X-1377520Y-1080233D01*
X-1368147Y-1078999D01*
X-1359412Y-1075381D01*
X-1351912Y-1069626D01*
X-1346157Y-1062126D01*
X-1342539Y-1053391D01*
X-1341305Y-1044018D01*
X-1342539Y-1034645D01*
X-1346157Y-1025910D01*
X-1351912Y-1018410D01*
X-1359412Y-1012655D01*
X-1368147Y-1009037D01*
X-1372852Y-1008417D01*
X-1375412Y-1003037D01*
X-1374434Y-1001449D01*
X-1323832D01*
X-1323832Y-1001449D01*
X-1319577Y-1000603D01*
X-1315969Y-998192D01*
X-1293882Y-976105D01*
X-1286893Y-978999D01*
X-1277520Y-980233D01*
X-1268147Y-978999D01*
X-1259412Y-975381D01*
X-1251912Y-969626D01*
X-1246157Y-962126D01*
X-1242539Y-953391D01*
X-1241305Y-944018D01*
X-1242539Y-934645D01*
X-1246157Y-925910D01*
X-1251912Y-918410D01*
X-1259412Y-912655D01*
X-1268147Y-909037D01*
X-1277520Y-907803D01*
X-1286893Y-909037D01*
X-1295628Y-912655D01*
X-1303128Y-918410D01*
X-1308883Y-925910D01*
X-1312501Y-934645D01*
X-1313735Y-944018D01*
X-1312501Y-953391D01*
X-1309607Y-960380D01*
X-1328438Y-979211D01*
X-1356189D01*
X-1357887Y-974211D01*
X-1351912Y-969626D01*
X-1346157Y-962126D01*
X-1342539Y-953391D01*
X-1341305Y-944018D01*
X-1342539Y-934645D01*
X-1346157Y-925910D01*
X-1351912Y-918410D01*
X-1359412Y-912655D01*
X-1368147Y-909037D01*
X-1377520Y-907803D01*
X-1386893Y-909037D01*
X-1395628Y-912655D01*
X-1403128Y-918410D01*
X-1408883Y-925910D01*
X-1412501Y-934645D01*
X-1413735Y-944018D01*
X-1412501Y-953391D01*
X-1408883Y-962126D01*
X-1403128Y-969626D01*
X-1395628Y-975381D01*
X-1390881Y-977347D01*
X-1390104Y-980322D01*
X-1390142Y-983066D01*
X-1426288Y-1019212D01*
X-1428698Y-1022819D01*
X-1429545Y-1027074D01*
X-1429545Y-1027075D01*
Y-1860961D01*
X-1429545Y-1860962D01*
X-1428698Y-1865217D01*
X-1426288Y-1868824D01*
X-1402326Y-1892786D01*
X-1402326Y-1892786D01*
X-1398719Y-1895196D01*
X-1394464Y-1896043D01*
X-1353184D01*
X-1349227Y-1900000D01*
X-1361158Y-1911931D01*
X-1368147Y-1909037D01*
X-1377520Y-1907803D01*
X-1386893Y-1909037D01*
X-1395628Y-1912655D01*
X-1403128Y-1918410D01*
X-1408883Y-1925910D01*
X-1412501Y-1934645D01*
X-1413735Y-1944018D01*
X-1412501Y-1953391D01*
X-1408883Y-1962126D01*
X-1403128Y-1969626D01*
X-1395628Y-1975381D01*
X-1386893Y-1978999D01*
X-1377520Y-1980233D01*
X-1368147Y-1978999D01*
X-1361158Y-1976105D01*
X-1335383Y-2001880D01*
X-1335382Y-2001881D01*
X-1331775Y-2004291D01*
X-1327520Y-2005137D01*
X-1290545D01*
X-1289550Y-2010137D01*
X-1295628Y-2012655D01*
X-1303128Y-2018410D01*
X-1308883Y-2025910D01*
X-1312501Y-2034645D01*
X-1313735Y-2044018D01*
X-1312501Y-2053391D01*
X-1308883Y-2062126D01*
X-1303128Y-2069626D01*
X-1295628Y-2075381D01*
X-1286893Y-2078999D01*
X-1277520Y-2080233D01*
X-1268147Y-2078999D01*
X-1259412Y-2075381D01*
X-1251912Y-2069626D01*
X-1246157Y-2062126D01*
X-1242539Y-2053391D01*
X-1241305Y-2044018D01*
X-1242539Y-2034645D01*
X-1246157Y-2025910D01*
X-1251912Y-2018410D01*
X-1259412Y-2012655D01*
X-1265490Y-2010137D01*
X-1264495Y-2005137D01*
X-1137395D01*
X-1135482Y-2009757D01*
X-1245854Y-2120129D01*
X-1250844Y-2119802D01*
X-1251912Y-2118410D01*
X-1259412Y-2112655D01*
X-1268147Y-2109037D01*
X-1277520Y-2107803D01*
X-1286893Y-2109037D01*
X-1295628Y-2112655D01*
X-1303128Y-2118410D01*
X-1308883Y-2125910D01*
X-1312501Y-2134645D01*
X-1313735Y-2144018D01*
X-1312501Y-2153391D01*
X-1308883Y-2162126D01*
X-1303128Y-2169626D01*
X-1295628Y-2175381D01*
X-1286893Y-2178999D01*
X-1277520Y-2180233D01*
X-1268147Y-2178999D01*
X-1259412Y-2175381D01*
X-1251912Y-2169626D01*
X-1246157Y-2162126D01*
X-1242539Y-2153391D01*
X-1241761Y-2147486D01*
X-1096156Y-2001881D01*
X-1062535Y-1968260D01*
X-1058068Y-1970110D01*
X-1050000Y-1971172D01*
X-1041932Y-1970110D01*
X-1034414Y-1966996D01*
X-1027958Y-1962042D01*
X-1023004Y-1955586D01*
X-1019890Y-1948068D01*
X-1018828Y-1940000D01*
X-1019890Y-1931932D01*
X-1023004Y-1924414D01*
X-1027958Y-1917958D01*
X-1034414Y-1913004D01*
X-1041932Y-1909890D01*
X-1050000Y-1908828D01*
X-1058068Y-1909890D01*
X-1065586Y-1913004D01*
X-1072042Y-1917958D01*
X-1076996Y-1924414D01*
X-1080110Y-1931932D01*
X-1081172Y-1940000D01*
X-1080110Y-1948068D01*
X-1078260Y-1952535D01*
X-1108624Y-1982899D01*
X-1264496D01*
X-1265490Y-1977899D01*
X-1259412Y-1975381D01*
X-1251912Y-1969626D01*
X-1246157Y-1962126D01*
X-1242539Y-1953391D01*
X-1241305Y-1944018D01*
X-1242539Y-1934645D01*
X-1246157Y-1925910D01*
X-1251912Y-1918410D01*
X-1259412Y-1912655D01*
X-1263725Y-1910868D01*
X-1264898Y-1904970D01*
X-1163022Y-1803094D01*
X-1163022Y-1803094D01*
X-1160611Y-1799486D01*
X-1159765Y-1795231D01*
X-1159765Y-1795231D01*
Y-1660490D01*
X-1120396Y-1621121D01*
X-1092537D01*
X-1091020Y-1626121D01*
X-1091388Y-1626367D01*
X-1094216Y-1630600D01*
X-1095209Y-1635592D01*
X-1094216Y-1640584D01*
X-1091388Y-1644817D01*
X-1090545Y-1645380D01*
Y-1651394D01*
X-1091388Y-1651957D01*
X-1094216Y-1656190D01*
X-1095209Y-1661182D01*
X-1094216Y-1666174D01*
X-1091388Y-1670407D01*
X-1090545Y-1670970D01*
Y-1676984D01*
X-1091388Y-1677547D01*
X-1094216Y-1681780D01*
X-1095209Y-1686772D01*
X-1094216Y-1691764D01*
X-1091388Y-1695997D01*
X-1090543Y-1696561D01*
Y-1702575D01*
X-1091388Y-1703139D01*
X-1094216Y-1707372D01*
X-1095209Y-1712364D01*
X-1094216Y-1717356D01*
X-1091388Y-1721589D01*
X-1087156Y-1724417D01*
X-1082163Y-1725410D01*
X-1040825D01*
X-1035832Y-1724417D01*
X-1031600Y-1721589D01*
X-1028772Y-1717356D01*
X-1027779Y-1712364D01*
X-1028772Y-1707372D01*
X-1031600Y-1703139D01*
X-1032445Y-1702575D01*
Y-1696561D01*
X-1031600Y-1695997D01*
X-1028772Y-1691764D01*
X-1027779Y-1686772D01*
X-1028772Y-1681780D01*
X-1031600Y-1677547D01*
X-1032443Y-1676984D01*
Y-1670970D01*
X-1031600Y-1670407D01*
X-1028772Y-1666174D01*
X-1027779Y-1661182D01*
X-1028772Y-1656190D01*
X-1031600Y-1651957D01*
X-1032443Y-1651394D01*
Y-1645380D01*
X-1031600Y-1644817D01*
X-1028772Y-1640584D01*
X-1027779Y-1635592D01*
X-1028772Y-1630600D01*
X-1031600Y-1626367D01*
X-1032443Y-1625804D01*
Y-1619790D01*
X-1031600Y-1619227D01*
X-1028772Y-1614994D01*
X-1027779Y-1610002D01*
X-1028772Y-1605010D01*
X-1031600Y-1600777D01*
X-1030658Y-1595858D01*
X-1027892Y-1593119D01*
X-1014846D01*
X-1012996Y-1597586D01*
X-1008042Y-1604042D01*
X-1001586Y-1608996D01*
X-994068Y-1612110D01*
X-986000Y-1613172D01*
X-977932Y-1612110D01*
X-970414Y-1608996D01*
X-963958Y-1604042D01*
X-959004Y-1597586D01*
X-955890Y-1590068D01*
X-954828Y-1582000D01*
X-955890Y-1573932D01*
X-959004Y-1566414D01*
X-963958Y-1559958D01*
X-970414Y-1555004D01*
X-977932Y-1551890D01*
X-986000Y-1550828D01*
X-994068Y-1551890D01*
X-1001586Y-1555004D01*
X-1008042Y-1559958D01*
X-1012996Y-1566414D01*
X-1014846Y-1570881D01*
X-1027530D01*
X-1030154Y-1565881D01*
X-1028772Y-1563812D01*
X-1027779Y-1558820D01*
X-1028772Y-1553828D01*
X-1031600Y-1549595D01*
X-1032443Y-1549032D01*
Y-1543018D01*
X-1031600Y-1542455D01*
X-1028772Y-1538222D01*
X-1027779Y-1533230D01*
X-1028772Y-1528238D01*
X-1031600Y-1524005D01*
X-1032445Y-1523441D01*
Y-1517427D01*
X-1031600Y-1516863D01*
X-1028772Y-1512630D01*
X-1027779Y-1507638D01*
X-1028772Y-1502646D01*
X-1031600Y-1498413D01*
X-1032443Y-1497850D01*
Y-1491836D01*
X-1031600Y-1491273D01*
X-1028772Y-1487040D01*
X-1027779Y-1482048D01*
X-1028772Y-1477056D01*
X-1031600Y-1472823D01*
X-1035832Y-1469995D01*
X-1040825Y-1469002D01*
X-1082163D01*
X-1087156Y-1469995D01*
X-1090297Y-1472094D01*
X-1094117Y-1470768D01*
X-1095297Y-1469879D01*
Y-1318409D01*
X-1093510Y-1317669D01*
X-1088165Y-1313567D01*
X-1084063Y-1308222D01*
X-1081484Y-1301996D01*
X-1080605Y-1295316D01*
X-1081484Y-1288636D01*
X-1084063Y-1282410D01*
X-1088165Y-1277065D01*
X-1093510Y-1272963D01*
X-1099736Y-1270384D01*
X-1106416Y-1269505D01*
X-1113097Y-1270384D01*
X-1119322Y-1272963D01*
X-1124667Y-1277065D01*
X-1128769Y-1282410D01*
X-1131348Y-1288636D01*
X-1132227Y-1295316D01*
X-1131348Y-1301996D01*
X-1128769Y-1308222D01*
X-1124667Y-1313567D01*
X-1119322Y-1317669D01*
X-1117535Y-1318409D01*
Y-1506810D01*
X-1183674Y-1572949D01*
X-1185453Y-1574138D01*
X-1185453Y-1574138D01*
X-1187862Y-1576547D01*
X-1189051Y-1578326D01*
X-1240186Y-1629461D01*
X-1245090Y-1628486D01*
X-1246157Y-1625910D01*
X-1251912Y-1618410D01*
X-1259412Y-1612655D01*
X-1268147Y-1609037D01*
X-1277520Y-1607803D01*
X-1286893Y-1609037D01*
X-1295628Y-1612655D01*
X-1303128Y-1618410D01*
X-1305995Y-1622145D01*
X-1310995Y-1620448D01*
Y-1567588D01*
X-1305995Y-1565891D01*
X-1303128Y-1569626D01*
X-1295628Y-1575381D01*
X-1286893Y-1578999D01*
X-1277520Y-1580233D01*
X-1268147Y-1578999D01*
X-1259412Y-1575381D01*
X-1251912Y-1569626D01*
X-1246157Y-1562126D01*
X-1242539Y-1553391D01*
X-1241305Y-1544018D01*
X-1242539Y-1534645D01*
X-1246157Y-1525910D01*
X-1251912Y-1518410D01*
X-1259054Y-1512929D01*
X-1259458Y-1512414D01*
X-1260519Y-1506784D01*
X-1260000Y-1506119D01*
X-1255745Y-1505273D01*
X-1252138Y-1502862D01*
X-1166926Y-1417651D01*
X-1166926Y-1417651D01*
X-1164515Y-1414043D01*
X-1163669Y-1409788D01*
Y-150396D01*
X-1084394Y-71121D01*
X-1030895D01*
X-1028450Y-72755D01*
X-1023457Y-73748D01*
X-982119D01*
X-977126Y-72755D01*
X-972894Y-69927D01*
X-971775Y-68252D01*
X-965672Y-67284D01*
X-938892Y-94064D01*
Y-414798D01*
X-940144Y-416671D01*
X-940751Y-419724D01*
Y-441476D01*
X-940144Y-444529D01*
X-938672Y-446732D01*
X-941366Y-448533D01*
X-944000Y-452475D01*
X-944926Y-457126D01*
Y-463002D01*
X-911070D01*
X-877215D01*
Y-457126D01*
X-877310Y-456644D01*
X-872702Y-454182D01*
X-824609Y-502275D01*
Y-516280D01*
X-824001Y-519333D01*
X-822272Y-521921D01*
X-819684Y-523651D01*
X-816631Y-524258D01*
X-773225D01*
X-770172Y-523651D01*
X-767584Y-521921D01*
X-765855Y-519333D01*
X-765455Y-517322D01*
X-752177D01*
X-749996Y-522588D01*
X-745042Y-529044D01*
X-738586Y-533998D01*
X-731068Y-537112D01*
X-723000Y-538174D01*
X-714932Y-537112D01*
X-707414Y-533998D01*
X-700958Y-529044D01*
X-696004Y-522588D01*
X-692890Y-515070D01*
X-692199Y-509821D01*
X-686920Y-508029D01*
X-630119Y-564830D01*
Y-609255D01*
X-636869Y-612051D01*
X-644271Y-617731D01*
X-649951Y-625133D01*
X-653521Y-633752D01*
X-654739Y-643002D01*
X-653521Y-652252D01*
X-649951Y-660871D01*
X-644271Y-668273D01*
X-636869Y-673953D01*
X-628250Y-677523D01*
X-619000Y-678741D01*
X-609750Y-677523D01*
X-601131Y-673953D01*
X-593729Y-668273D01*
X-588049Y-660871D01*
X-585253Y-654121D01*
X-557975D01*
Y-673451D01*
X-500889D01*
Y-604553D01*
X-557975D01*
Y-631883D01*
X-585253D01*
X-588049Y-625133D01*
X-593729Y-617731D01*
X-601131Y-612051D01*
X-607881Y-609255D01*
Y-560224D01*
X-608727Y-555969D01*
X-611138Y-552361D01*
X-611138Y-552361D01*
X-740761Y-422738D01*
X-744369Y-420327D01*
X-748624Y-419481D01*
X-748625Y-419481D01*
X-765296D01*
X-765855Y-416671D01*
X-767584Y-414083D01*
X-770172Y-412353D01*
X-773225Y-411746D01*
X-782085D01*
Y-398451D01*
X-747023D01*
Y-390360D01*
X-742023Y-387895D01*
X-739442Y-389875D01*
X-733216Y-392454D01*
X-726536Y-393333D01*
X-719856Y-392454D01*
X-713630Y-389875D01*
X-708285Y-385773D01*
X-704183Y-380428D01*
X-701604Y-374202D01*
X-700725Y-367522D01*
X-701604Y-360841D01*
X-704183Y-354616D01*
X-708285Y-349271D01*
X-713630Y-345169D01*
X-719856Y-342590D01*
X-726536Y-341711D01*
X-733216Y-342590D01*
X-739442Y-345169D01*
X-742023Y-347149D01*
X-747023Y-344684D01*
Y-329553D01*
X-804109D01*
Y-380565D01*
X-804323Y-381640D01*
X-804323Y-381640D01*
Y-411746D01*
X-816631D01*
X-819684Y-412353D01*
X-822272Y-414083D01*
X-824001Y-416671D01*
X-824609Y-419724D01*
Y-441476D01*
X-824001Y-444529D01*
X-822272Y-447117D01*
X-819684Y-448847D01*
X-816631Y-449454D01*
X-773225D01*
X-770172Y-448847D01*
X-767584Y-447117D01*
X-765855Y-444529D01*
X-765296Y-441719D01*
X-753230D01*
X-724027Y-470922D01*
X-725819Y-476201D01*
X-731068Y-476892D01*
X-738586Y-480006D01*
X-745042Y-484960D01*
X-749996Y-491416D01*
X-751515Y-495084D01*
X-765247D01*
Y-494528D01*
X-765855Y-491475D01*
X-767584Y-488887D01*
X-770172Y-487157D01*
X-773225Y-486550D01*
X-808884D01*
X-864901Y-430533D01*
X-868508Y-428123D01*
X-872763Y-427276D01*
X-872764Y-427276D01*
X-881389D01*
Y-419724D01*
X-881996Y-416671D01*
X-883726Y-414083D01*
X-886314Y-412353D01*
X-889367Y-411746D01*
X-916654D01*
Y-89459D01*
X-916653Y-89458D01*
X-917500Y-85203D01*
X-919910Y-81596D01*
X-919910Y-81595D01*
X-969738Y-31768D01*
X-970066Y-30120D01*
X-972894Y-25887D01*
X-973262Y-25641D01*
X-971745Y-20641D01*
X-927102D01*
Y-60514D01*
X-881826D01*
Y2478D01*
X-927102D01*
Y1597D01*
X-965462D01*
X-968135Y6597D01*
X-966209Y9480D01*
X-965893Y11070D01*
X-1002788D01*
Y21070D01*
X-965893D01*
X-966209Y22660D01*
X-969942Y28247D01*
X-972894Y30219D01*
Y32435D01*
X-970066Y36668D01*
X-969073Y41660D01*
X-970066Y46652D01*
X-972894Y50885D01*
X-973433Y51245D01*
X-971916Y56245D01*
X-959582D01*
X-958889Y54572D01*
X-954787Y49227D01*
X-949442Y45125D01*
X-943216Y42546D01*
X-936536Y41667D01*
X-929856Y42546D01*
X-923630Y45125D01*
X-918285Y49227D01*
X-914183Y54572D01*
X-911604Y60797D01*
X-910725Y67478D01*
X-911604Y74159D01*
X-914183Y80384D01*
X-918285Y85729D01*
X-923630Y89831D01*
X-929856Y92410D01*
X-936536Y93289D01*
X-943216Y92410D01*
X-949442Y89831D01*
X-954787Y85729D01*
X-958889Y80384D01*
X-959676Y78483D01*
X-971575D01*
X-973091Y83483D01*
X-972894Y83615D01*
X-970066Y87848D01*
X-969073Y92840D01*
X-970066Y97832D01*
X-972894Y102065D01*
X-973265Y102313D01*
X-971748Y107313D01*
X-918654D01*
X-918654Y107313D01*
X-914399Y108159D01*
X-913886Y108502D01*
X-880826D01*
Y171494D01*
X-926102D01*
Y129551D01*
X-965461D01*
X-968134Y134551D01*
X-966209Y137432D01*
X-965893Y139022D01*
X-1002788D01*
Y149022D01*
X-965893D01*
X-966209Y150612D01*
X-969942Y156199D01*
X-972894Y158171D01*
Y160387D01*
X-970066Y164620D01*
X-969073Y169612D01*
X-970066Y174604D01*
X-972894Y178837D01*
X-977126Y181665D01*
X-982119Y182658D01*
D02*
G37*
G36*
X-685409Y-132734D02*
X-716000D01*
Y-154466D01*
X-685409D01*
Y-132734D01*
D02*
G37*
G36*
X-1150000Y192787D02*
X-1152749Y192425D01*
X-1159971Y189434D01*
X-1166172Y184676D01*
X-1170930Y178475D01*
X-1173921Y171253D01*
X-1174283Y168504D01*
X-1150000D01*
Y192787D01*
D02*
G37*
G36*
X-918867Y552205D02*
X-943150D01*
Y527922D01*
X-940400Y528284D01*
X-933179Y531275D01*
X-926978Y536033D01*
X-922220Y542234D01*
X-919229Y549455D01*
X-918867Y552205D01*
D02*
G37*
G36*
X-953150D02*
X-977433D01*
X-977071Y549455D01*
X-974079Y542234D01*
X-969321Y536033D01*
X-963120Y531275D01*
X-955899Y528284D01*
X-953150Y527922D01*
Y552205D01*
D02*
G37*
G36*
X-722016D02*
X-746299D01*
Y527922D01*
X-743550Y528284D01*
X-736329Y531275D01*
X-730128Y536033D01*
X-725369Y542234D01*
X-722378Y549455D01*
X-722016Y552205D01*
D02*
G37*
G36*
X-756299D02*
X-780582D01*
X-780220Y549455D01*
X-777229Y542234D01*
X-772471Y536033D01*
X-766270Y531275D01*
X-759049Y528284D01*
X-756299Y527922D01*
Y552205D01*
D02*
G37*
G36*
X472000Y461194D02*
Y424998D01*
X508196D01*
X507428Y430831D01*
X503247Y440925D01*
X496595Y449593D01*
X487927Y456245D01*
X477833Y460426D01*
X472000Y461194D01*
D02*
G37*
G36*
X798464Y451563D02*
X789214Y450345D01*
X780595Y446775D01*
X773193Y441095D01*
X767513Y433693D01*
X763943Y425074D01*
X762725Y415824D01*
X763943Y406574D01*
X766739Y399824D01*
X681271Y314356D01*
X678861Y310748D01*
X678014Y306493D01*
X678014Y306493D01*
Y-556811D01*
X678014Y-556811D01*
X678861Y-561066D01*
X681271Y-564674D01*
X806387Y-689790D01*
X804474Y-694409D01*
X791536D01*
Y-725000D01*
X813268D01*
Y-703204D01*
X817888Y-701290D01*
X830826Y-714229D01*
Y-761496D01*
X837345D01*
Y-809760D01*
X830356Y-812655D01*
X822856Y-818410D01*
X817101Y-825910D01*
X813483Y-834645D01*
X812249Y-844018D01*
X813483Y-853391D01*
X817101Y-862126D01*
X822856Y-869626D01*
X830356Y-875381D01*
X839091Y-878999D01*
X848464Y-880233D01*
X857837Y-878999D01*
X866572Y-875381D01*
X874072Y-869626D01*
X879827Y-862126D01*
X883445Y-853391D01*
X884679Y-844018D01*
X883445Y-834645D01*
X879827Y-825910D01*
X874072Y-818410D01*
X866572Y-812655D01*
X859583Y-809760D01*
Y-761496D01*
X876102D01*
Y-698504D01*
X846551D01*
X700253Y-552205D01*
Y-498656D01*
X705157Y-497681D01*
X705217Y-497828D01*
X713798Y-511830D01*
X724463Y-524317D01*
X736950Y-534982D01*
X750952Y-543563D01*
X766124Y-549847D01*
X782093Y-553681D01*
X798464Y-554969D01*
X814835Y-553681D01*
X830804Y-549847D01*
X845976Y-543563D01*
X859978Y-534982D01*
X872465Y-524317D01*
X883130Y-511830D01*
X891711Y-497828D01*
X897995Y-482656D01*
X901829Y-466687D01*
X903117Y-450316D01*
X901829Y-433945D01*
X897995Y-417976D01*
X891711Y-402804D01*
X883130Y-388802D01*
X872465Y-376315D01*
X859978Y-365650D01*
X845976Y-357069D01*
X830804Y-350785D01*
X814835Y-346951D01*
X798464Y-345663D01*
X782093Y-346951D01*
X766124Y-350785D01*
X750952Y-357069D01*
X736950Y-365650D01*
X724463Y-376315D01*
X713798Y-388802D01*
X705217Y-402804D01*
X705157Y-402951D01*
X700253Y-401976D01*
Y301887D01*
X782464Y384099D01*
X789214Y381303D01*
X798464Y380085D01*
X807714Y381303D01*
X816333Y384873D01*
X823735Y390553D01*
X829415Y397955D01*
X832985Y406574D01*
X834203Y415824D01*
X832985Y425074D01*
X829415Y433693D01*
X823735Y441095D01*
X816333Y446775D01*
X807714Y450345D01*
X798464Y451563D01*
D02*
G37*
G36*
X680354D02*
X671104Y450345D01*
X662485Y446775D01*
X655083Y441095D01*
X649403Y433693D01*
X645833Y425074D01*
X644615Y415824D01*
X645833Y406574D01*
X649403Y397955D01*
X655083Y390553D01*
X662485Y384873D01*
X671104Y381303D01*
X680354Y380085D01*
X689604Y381303D01*
X698223Y384873D01*
X705625Y390553D01*
X711305Y397955D01*
X714875Y406574D01*
X716093Y415824D01*
X714875Y425074D01*
X711305Y433693D01*
X705625Y441095D01*
X698223Y446775D01*
X689604Y450345D01*
X680354Y451563D01*
D02*
G37*
G36*
X462000Y461194D02*
X456167Y460426D01*
X446073Y456245D01*
X437405Y449593D01*
X430753Y440925D01*
X426572Y430831D01*
X425804Y424998D01*
X462000D01*
Y461194D01*
D02*
G37*
G36*
X367000Y457722D02*
X357236Y456437D01*
X348138Y452668D01*
X340325Y446673D01*
X334330Y438860D01*
X330561Y429762D01*
X329276Y419998D01*
X330561Y410234D01*
X334330Y401136D01*
X339610Y394255D01*
X338362Y390957D01*
X337180Y389532D01*
X336378Y389637D01*
Y365354D01*
X360661D01*
X360299Y368104D01*
X357308Y375325D01*
X354167Y379419D01*
X357135Y383423D01*
X357298Y383551D01*
X367000Y382274D01*
X376764Y383559D01*
X384507Y386766D01*
X505023Y266250D01*
Y-509642D01*
X498034Y-512537D01*
X490534Y-518292D01*
X484779Y-525792D01*
X481161Y-534527D01*
X479927Y-543900D01*
X481161Y-553273D01*
X484779Y-562008D01*
X490534Y-569508D01*
X498034Y-575263D01*
X505023Y-578158D01*
Y-672560D01*
X351716Y-825867D01*
X344966Y-823071D01*
X335716Y-821853D01*
X326466Y-823071D01*
X317847Y-826641D01*
X310445Y-832321D01*
X304765Y-839723D01*
X301195Y-848342D01*
X299977Y-857592D01*
X301195Y-866842D01*
X304765Y-875461D01*
X310445Y-882863D01*
X317847Y-888543D01*
X326466Y-892113D01*
X335716Y-893331D01*
X344966Y-892113D01*
X353585Y-888543D01*
X360987Y-882863D01*
X366667Y-875461D01*
X370237Y-866842D01*
X371455Y-857592D01*
X370237Y-848342D01*
X367441Y-841592D01*
X524005Y-685029D01*
X526415Y-681421D01*
X527261Y-677166D01*
X527261Y-677165D01*
Y-578158D01*
X534250Y-575263D01*
X541750Y-569508D01*
X547505Y-562008D01*
X551123Y-553273D01*
X552357Y-543900D01*
X551123Y-534527D01*
X547505Y-525792D01*
X541750Y-518292D01*
X534250Y-512537D01*
X527261Y-509642D01*
Y270856D01*
X526415Y275111D01*
X524005Y278719D01*
X524004Y278719D01*
X400232Y402491D01*
X403439Y410234D01*
X404724Y419998D01*
X403439Y429762D01*
X399670Y438860D01*
X393675Y446673D01*
X385862Y452668D01*
X376764Y456437D01*
X367000Y457722D01*
D02*
G37*
G36*
X-953150Y586488D02*
X-955899Y586126D01*
X-963120Y583135D01*
X-969321Y578376D01*
X-974079Y572175D01*
X-977071Y564954D01*
X-977433Y562205D01*
X-953150D01*
Y586488D01*
D02*
G37*
G36*
X-711399Y793998D02*
X-736000D01*
Y769397D01*
X-733168Y769770D01*
X-725871Y772793D01*
X-719604Y777602D01*
X-714795Y783869D01*
X-711772Y791166D01*
X-711399Y793998D01*
D02*
G37*
G36*
X-746000D02*
X-770601D01*
X-770228Y791166D01*
X-767205Y783869D01*
X-762396Y777602D01*
X-756129Y772793D01*
X-748832Y769770D01*
X-746000Y769397D01*
Y793998D01*
D02*
G37*
G36*
X-736000Y828599D02*
Y803998D01*
X-711399D01*
X-711772Y806830D01*
X-714795Y814127D01*
X-719604Y820394D01*
X-725871Y825203D01*
X-733168Y828226D01*
X-736000Y828599D01*
D02*
G37*
G36*
X-746000D02*
X-748832Y828226D01*
X-756129Y825203D01*
X-762396Y820394D01*
X-767205Y814127D01*
X-770228Y806830D01*
X-770601Y803998D01*
X-746000D01*
Y828599D01*
D02*
G37*
G36*
X-641000Y725127D02*
X-647763Y724237D01*
X-654064Y721626D01*
X-659476Y717474D01*
X-663628Y712062D01*
X-666239Y705761D01*
X-667129Y698998D01*
X-666239Y692235D01*
X-663628Y685933D01*
X-659476Y680522D01*
X-654064Y676370D01*
X-647763Y673759D01*
X-641000Y672869D01*
X-634237Y673759D01*
X-627936Y676370D01*
X-622524Y680522D01*
X-618372Y685933D01*
X-615761Y692235D01*
X-614871Y698998D01*
X-615761Y705761D01*
X-618372Y712062D01*
X-622524Y717474D01*
X-627936Y721626D01*
X-634237Y724237D01*
X-641000Y725127D01*
D02*
G37*
G36*
X-756299Y586488D02*
X-759049Y586126D01*
X-766270Y583135D01*
X-772471Y578376D01*
X-777229Y572175D01*
X-780220Y564954D01*
X-780582Y562205D01*
X-756299D01*
Y586488D01*
D02*
G37*
G36*
X-943150D02*
Y562205D01*
X-918867D01*
X-919229Y564954D01*
X-922220Y572175D01*
X-926978Y578376D01*
X-933179Y583135D01*
X-940400Y586126D01*
X-943150Y586488D01*
D02*
G37*
G36*
X-841000Y725127D02*
X-847763Y724237D01*
X-854064Y721626D01*
X-859476Y717474D01*
X-863628Y712062D01*
X-866239Y705761D01*
X-867129Y698998D01*
X-866239Y692235D01*
X-863628Y685933D01*
X-859476Y680522D01*
X-854064Y676370D01*
X-847763Y673759D01*
X-841000Y672869D01*
X-834237Y673759D01*
X-827936Y676370D01*
X-822524Y680522D01*
X-818372Y685933D01*
X-815761Y692235D01*
X-814871Y698998D01*
X-815761Y705761D01*
X-818372Y712062D01*
X-822524Y717474D01*
X-827936Y721626D01*
X-834237Y724237D01*
X-841000Y725127D01*
D02*
G37*
G36*
X-746299Y586488D02*
Y562205D01*
X-722016D01*
X-722378Y564954D01*
X-725369Y572175D01*
X-730128Y578376D01*
X-736329Y583135D01*
X-743550Y586126D01*
X-746299Y586488D01*
D02*
G37*
G36*
X508196Y414998D02*
X472000D01*
Y378802D01*
X477833Y379570D01*
X487927Y383751D01*
X496595Y390403D01*
X503247Y399071D01*
X507428Y409165D01*
X508196Y414998D01*
D02*
G37*
G36*
X-722000Y269464D02*
X-752591D01*
Y247732D01*
X-722000D01*
Y269464D01*
D02*
G37*
G36*
X-626826Y245496D02*
X-672102D01*
Y225119D01*
X-685504D01*
Y230174D01*
X-748496D01*
Y184898D01*
X-728119D01*
Y170482D01*
X-737110D01*
Y105522D01*
X-687898D01*
Y126883D01*
X-672102D01*
Y107504D01*
X-626826D01*
Y170496D01*
X-672102D01*
Y149121D01*
X-687898D01*
Y170482D01*
X-705881D01*
Y184898D01*
X-685504D01*
Y202881D01*
X-672102D01*
Y182504D01*
X-626826D01*
Y245496D01*
D02*
G37*
G36*
X-840000Y360809D02*
X-846681Y359930D01*
X-852906Y357351D01*
X-858251Y353249D01*
X-862353Y347904D01*
X-864932Y341678D01*
X-865811Y334998D01*
X-864932Y328317D01*
X-862353Y322092D01*
X-858251Y316747D01*
X-852906Y312645D01*
X-851119Y311905D01*
Y295102D01*
X-868496D01*
Y249826D01*
X-805504D01*
Y295102D01*
X-828881D01*
Y311905D01*
X-827094Y312645D01*
X-821749Y316747D01*
X-817647Y322092D01*
X-815068Y328317D01*
X-814189Y334998D01*
X-815068Y341678D01*
X-817647Y347904D01*
X-821749Y353249D01*
X-827094Y357351D01*
X-833319Y359930D01*
X-840000Y360809D01*
D02*
G37*
G36*
X-681409Y269464D02*
X-712000D01*
Y247732D01*
X-681409D01*
Y269464D01*
D02*
G37*
G36*
X434803Y192787D02*
Y168504D01*
X459086D01*
X458724Y171253D01*
X455733Y178475D01*
X450975Y184676D01*
X444774Y189434D01*
X437553Y192425D01*
X434803Y192787D01*
D02*
G37*
G36*
X-362598D02*
X-365348Y192425D01*
X-372569Y189434D01*
X-378770Y184676D01*
X-383528Y178475D01*
X-386519Y171253D01*
X-386881Y168504D01*
X-362598D01*
Y192787D01*
D02*
G37*
G36*
X-1140000D02*
Y168504D01*
X-1115717D01*
X-1116079Y171253D01*
X-1119070Y178475D01*
X-1123828Y184676D01*
X-1130029Y189434D01*
X-1137251Y192425D01*
X-1140000Y192787D01*
D02*
G37*
G36*
X424803D02*
X422054Y192425D01*
X414833Y189434D01*
X408632Y184676D01*
X403873Y178475D01*
X400882Y171253D01*
X400520Y168504D01*
X424803D01*
Y192787D01*
D02*
G37*
G36*
X-352598D02*
Y168504D01*
X-328315D01*
X-328677Y171253D01*
X-331669Y178475D01*
X-336427Y184676D01*
X-342628Y189434D01*
X-349849Y192425D01*
X-352598Y192787D01*
D02*
G37*
G36*
X-722000Y301196D02*
X-752591D01*
Y279464D01*
X-722000D01*
Y301196D01*
D02*
G37*
G36*
X523228Y389637D02*
X520479Y389275D01*
X513258Y386284D01*
X507057Y381526D01*
X502299Y375325D01*
X499307Y368104D01*
X498945Y365354D01*
X523228D01*
Y389637D01*
D02*
G37*
G36*
X326378D02*
X323629Y389275D01*
X316407Y386284D01*
X310206Y381526D01*
X305448Y375325D01*
X302457Y368104D01*
X302095Y365354D01*
X326378D01*
Y389637D01*
D02*
G37*
G36*
X462000Y414998D02*
X425804D01*
X426572Y409165D01*
X430753Y399071D01*
X437405Y390403D01*
X446073Y383751D01*
X456167Y379570D01*
X462000Y378802D01*
Y414998D01*
D02*
G37*
G36*
X533228Y389637D02*
Y365354D01*
X557511D01*
X557149Y368104D01*
X554158Y375325D01*
X549400Y381526D01*
X543199Y386284D01*
X535978Y389275D01*
X533228Y389637D01*
D02*
G37*
G36*
X557511Y355354D02*
X533228D01*
Y331071D01*
X535978Y331433D01*
X543199Y334425D01*
X549400Y339183D01*
X554158Y345384D01*
X557149Y352605D01*
X557511Y355354D01*
D02*
G37*
G36*
X326378D02*
X302095D01*
X302457Y352605D01*
X305448Y345384D01*
X310206Y339183D01*
X316407Y334425D01*
X323629Y331433D01*
X326378Y331071D01*
Y355354D01*
D02*
G37*
G36*
X-681409Y301196D02*
X-712000D01*
Y279464D01*
X-681409D01*
Y301196D01*
D02*
G37*
G36*
X523228Y355354D02*
X498945D01*
X499307Y352605D01*
X502299Y345384D01*
X507057Y339183D01*
X513258Y334425D01*
X520479Y331433D01*
X523228Y331071D01*
Y355354D01*
D02*
G37*
G36*
X360661D02*
X336378D01*
Y331071D01*
X339127Y331433D01*
X346349Y334425D01*
X352550Y339183D01*
X357308Y345384D01*
X360299Y352605D01*
X360661Y355354D01*
D02*
G37*
G36*
X-254173Y-791465D02*
Y-815748D01*
X-229890D01*
X-230252Y-812999D01*
X-233243Y-805777D01*
X-238002Y-799576D01*
X-244203Y-794818D01*
X-251424Y-791827D01*
X-254173Y-791465D01*
D02*
G37*
G36*
X-264173D02*
X-266923Y-791827D01*
X-274144Y-794818D01*
X-280345Y-799576D01*
X-285103Y-805777D01*
X-288094Y-812999D01*
X-288456Y-815748D01*
X-264173D01*
Y-791465D01*
D02*
G37*
G36*
X-67323D02*
X-70072Y-791827D01*
X-77293Y-794818D01*
X-83494Y-799576D01*
X-88253Y-805777D01*
X-91244Y-812999D01*
X-91606Y-815748D01*
X-67323D01*
Y-791465D01*
D02*
G37*
G36*
X330716Y-762592D02*
X296506D01*
X297206Y-767911D01*
X301189Y-777526D01*
X307525Y-785783D01*
X315782Y-792119D01*
X325397Y-796102D01*
X330716Y-796802D01*
Y-762592D01*
D02*
G37*
G36*
X-57323Y-791465D02*
Y-815748D01*
X-33040D01*
X-33402Y-812999D01*
X-36393Y-805777D01*
X-41151Y-799576D01*
X-47352Y-794818D01*
X-54573Y-791827D01*
X-57323Y-791465D01*
D02*
G37*
G36*
X-1445276D02*
X-1448025Y-791827D01*
X-1455246Y-794818D01*
X-1461447Y-799576D01*
X-1466205Y-805777D01*
X-1469197Y-812999D01*
X-1469559Y-815748D01*
X-1445276D01*
Y-791465D01*
D02*
G37*
G36*
X-33040Y-825748D02*
X-57323D01*
Y-850031D01*
X-54573Y-849669D01*
X-47352Y-846678D01*
X-41151Y-841920D01*
X-36393Y-835719D01*
X-33402Y-828497D01*
X-33040Y-825748D01*
D02*
G37*
G36*
X-67323D02*
X-91606D01*
X-91244Y-828497D01*
X-88253Y-835719D01*
X-83494Y-841920D01*
X-77293Y-846678D01*
X-70072Y-849669D01*
X-67323Y-850031D01*
Y-825748D01*
D02*
G37*
G36*
X-487551Y-801891D02*
X-556449D01*
Y-831883D01*
X-585253D01*
X-588049Y-825133D01*
X-593729Y-817731D01*
X-601131Y-812051D01*
X-609750Y-808481D01*
X-619000Y-807263D01*
X-628250Y-808481D01*
X-636869Y-812051D01*
X-644271Y-817731D01*
X-649951Y-825133D01*
X-653521Y-833752D01*
X-654739Y-843002D01*
X-653521Y-852252D01*
X-649951Y-860871D01*
X-644271Y-868273D01*
X-636869Y-873953D01*
X-628250Y-877523D01*
X-619000Y-878741D01*
X-609750Y-877523D01*
X-601131Y-873953D01*
X-593729Y-868273D01*
X-588049Y-860871D01*
X-585253Y-854121D01*
X-556449D01*
Y-858977D01*
X-487551D01*
Y-801891D01*
D02*
G37*
G36*
X-973457Y-803434D02*
X-1007000D01*
Y-831072D01*
X-973457D01*
Y-803434D01*
D02*
G37*
G36*
X-1017000D02*
X-1050543D01*
Y-831072D01*
X-1017000D01*
Y-803434D01*
D02*
G37*
G36*
X330716Y-718382D02*
X325397Y-719082D01*
X315782Y-723065D01*
X307525Y-729401D01*
X301189Y-737658D01*
X297206Y-747273D01*
X296506Y-752592D01*
X330716D01*
Y-718382D01*
D02*
G37*
G36*
X813268Y-735000D02*
X791536D01*
Y-765591D01*
X813268D01*
Y-735000D01*
D02*
G37*
G36*
X340716Y-718382D02*
Y-752592D01*
X374926D01*
X374226Y-747273D01*
X370243Y-737658D01*
X363907Y-729401D01*
X355650Y-723065D01*
X346035Y-719082D01*
X340716Y-718382D01*
D02*
G37*
G36*
X781536Y-694409D02*
X759804D01*
Y-725000D01*
X781536D01*
Y-694409D01*
D02*
G37*
G36*
X-877215Y-473002D02*
X-911070D01*
X-944926D01*
Y-478878D01*
X-944000Y-483529D01*
X-941366Y-487471D01*
X-938672Y-489272D01*
X-940144Y-491475D01*
X-940751Y-494528D01*
Y-516280D01*
X-940144Y-519333D01*
X-938414Y-521921D01*
X-935826Y-523651D01*
X-932773Y-524258D01*
X-905591D01*
Y-565835D01*
X-905592Y-565837D01*
X-905592Y-565838D01*
Y-607569D01*
X-954433D01*
Y-678435D01*
X-930119D01*
Y-709255D01*
X-936869Y-712051D01*
X-944271Y-717731D01*
X-949951Y-725133D01*
X-952747Y-731883D01*
X-977551D01*
Y-699025D01*
X-1046449D01*
Y-756111D01*
X-977551D01*
Y-754121D01*
X-952747D01*
X-949951Y-760871D01*
X-944271Y-768273D01*
X-936869Y-773953D01*
X-928250Y-777523D01*
X-919000Y-778741D01*
X-909750Y-777523D01*
X-901131Y-773953D01*
X-893729Y-768273D01*
X-888049Y-760871D01*
X-884479Y-752252D01*
X-883261Y-743002D01*
X-884479Y-733752D01*
X-888049Y-725133D01*
X-893729Y-717731D01*
X-901131Y-712051D01*
X-907881Y-709255D01*
Y-678435D01*
X-883567D01*
Y-619549D01*
X-883353Y-618475D01*
Y-565840D01*
X-883353Y-565837D01*
Y-521363D01*
X-881996Y-519333D01*
X-881389Y-516280D01*
Y-494528D01*
X-881996Y-491475D01*
X-883468Y-489272D01*
X-880774Y-487471D01*
X-878140Y-483529D01*
X-877215Y-478878D01*
Y-473002D01*
D02*
G37*
G36*
X781536Y-735000D02*
X759804D01*
Y-765591D01*
X781536D01*
Y-735000D01*
D02*
G37*
G36*
X-1017000Y-765796D02*
X-1050543D01*
Y-793434D01*
X-1017000D01*
Y-765796D01*
D02*
G37*
G36*
X374926Y-762592D02*
X340716D01*
Y-796802D01*
X346035Y-796102D01*
X355650Y-792119D01*
X363907Y-785783D01*
X370243Y-777526D01*
X374226Y-767911D01*
X374926Y-762592D01*
D02*
G37*
G36*
X-973457Y-765796D02*
X-1007000D01*
Y-793434D01*
X-973457D01*
Y-765796D01*
D02*
G37*
G36*
X-619000Y-707263D02*
X-628250Y-708481D01*
X-636869Y-712051D01*
X-644271Y-717731D01*
X-649951Y-725133D01*
X-653521Y-733752D01*
X-654739Y-743002D01*
X-653521Y-752252D01*
X-649951Y-760871D01*
X-644271Y-768273D01*
X-636869Y-773953D01*
X-628250Y-777523D01*
X-619000Y-778741D01*
X-609750Y-777523D01*
X-601131Y-773953D01*
X-593729Y-768273D01*
X-588049Y-760871D01*
X-585253Y-754121D01*
X-556449D01*
Y-788111D01*
X-487551D01*
Y-731025D01*
X-556449D01*
Y-731883D01*
X-585253D01*
X-588049Y-725133D01*
X-593729Y-717731D01*
X-601131Y-712051D01*
X-609750Y-708481D01*
X-619000Y-707263D01*
D02*
G37*
G36*
X35716Y-721853D02*
X26466Y-723071D01*
X17847Y-726641D01*
X10445Y-732321D01*
X4765Y-739723D01*
X1195Y-748342D01*
X-23Y-757592D01*
X1195Y-766842D01*
X4765Y-775461D01*
X10445Y-782863D01*
X17847Y-788543D01*
X26466Y-792113D01*
X35716Y-793331D01*
X44966Y-792113D01*
X53585Y-788543D01*
X60987Y-782863D01*
X66667Y-775461D01*
X70237Y-766842D01*
X71455Y-757592D01*
X70237Y-748342D01*
X66667Y-739723D01*
X60987Y-732321D01*
X53585Y-726641D01*
X44966Y-723071D01*
X35716Y-721853D01*
D02*
G37*
G36*
X-924000Y-948002D02*
X-958210D01*
X-957510Y-953321D01*
X-953527Y-962936D01*
X-947191Y-971193D01*
X-938934Y-977529D01*
X-929319Y-981512D01*
X-924000Y-982212D01*
Y-948002D01*
D02*
G37*
G36*
X335716Y-921853D02*
X326466Y-923071D01*
X317847Y-926641D01*
X310445Y-932321D01*
X304765Y-939723D01*
X301195Y-948342D01*
X299977Y-957592D01*
X301195Y-966842D01*
X304765Y-975461D01*
X310445Y-982863D01*
X317847Y-988543D01*
X326466Y-992113D01*
X335716Y-993331D01*
X344966Y-992113D01*
X353585Y-988543D01*
X360987Y-982863D01*
X366667Y-975461D01*
X370237Y-966842D01*
X371455Y-957592D01*
X370237Y-948342D01*
X366667Y-939723D01*
X360987Y-932321D01*
X353585Y-926641D01*
X344966Y-923071D01*
X335716Y-921853D01*
D02*
G37*
G36*
X-879790Y-948002D02*
X-914000D01*
Y-982212D01*
X-908681Y-981512D01*
X-899066Y-977529D01*
X-890809Y-971193D01*
X-884473Y-962936D01*
X-880490Y-953321D01*
X-879790Y-948002D01*
D02*
G37*
G36*
X848464Y-907803D02*
X839091Y-909037D01*
X830356Y-912655D01*
X822856Y-918410D01*
X817101Y-925910D01*
X813483Y-934645D01*
X812249Y-944018D01*
X813483Y-953391D01*
X817101Y-962126D01*
X822856Y-969626D01*
X830356Y-975381D01*
X839091Y-978999D01*
X848464Y-980233D01*
X857837Y-978999D01*
X866572Y-975381D01*
X874072Y-969626D01*
X879827Y-962126D01*
X883445Y-953391D01*
X884679Y-944018D01*
X883445Y-934645D01*
X879827Y-925910D01*
X874072Y-918410D01*
X866572Y-912655D01*
X857837Y-909037D01*
X848464Y-907803D01*
D02*
G37*
G36*
X748464D02*
X739091Y-909037D01*
X730356Y-912655D01*
X722856Y-918410D01*
X717101Y-925910D01*
X713483Y-934645D01*
X712249Y-944018D01*
X713483Y-953391D01*
X717101Y-962126D01*
X722856Y-969626D01*
X730356Y-975381D01*
X739091Y-978999D01*
X748464Y-980233D01*
X757837Y-978999D01*
X766572Y-975381D01*
X774072Y-969626D01*
X779827Y-962126D01*
X783445Y-953391D01*
X784679Y-944018D01*
X783445Y-934645D01*
X779827Y-925910D01*
X774072Y-918410D01*
X766572Y-912655D01*
X757837Y-909037D01*
X748464Y-907803D01*
D02*
G37*
G36*
X35716Y-921853D02*
X26466Y-923071D01*
X17847Y-926641D01*
X10445Y-932321D01*
X4765Y-939723D01*
X1195Y-948342D01*
X-23Y-957592D01*
X1195Y-966842D01*
X4765Y-975461D01*
X10445Y-982863D01*
X17847Y-988543D01*
X26466Y-992113D01*
X35716Y-993331D01*
X44966Y-992113D01*
X53585Y-988543D01*
X60987Y-982863D01*
X66667Y-975461D01*
X70237Y-966842D01*
X71455Y-957592D01*
X70237Y-948342D01*
X66667Y-939723D01*
X60987Y-932321D01*
X53585Y-926641D01*
X44966Y-923071D01*
X35716Y-921853D01*
D02*
G37*
G36*
X-165748Y-988315D02*
X-168497Y-988677D01*
X-175719Y-991669D01*
X-181920Y-996427D01*
X-186678Y-1002628D01*
X-189669Y-1009849D01*
X-190031Y-1012598D01*
X-165748D01*
Y-988315D01*
D02*
G37*
G36*
X-746299D02*
Y-1012598D01*
X-722016D01*
X-722378Y-1009849D01*
X-725369Y-1002628D01*
X-730128Y-996427D01*
X-736329Y-991669D01*
X-743550Y-988677D01*
X-746299Y-988315D01*
D02*
G37*
G36*
X-155748D02*
Y-1012598D01*
X-131465D01*
X-131827Y-1009849D01*
X-134818Y-1002628D01*
X-139576Y-996427D01*
X-145777Y-991669D01*
X-152999Y-988677D01*
X-155748Y-988315D01*
D02*
G37*
G36*
X434803D02*
Y-1012598D01*
X459086D01*
X458724Y-1009849D01*
X455733Y-1002628D01*
X450975Y-996427D01*
X444774Y-991669D01*
X437553Y-988677D01*
X434803Y-988315D01*
D02*
G37*
G36*
X424803D02*
X422054Y-988677D01*
X414833Y-991669D01*
X408632Y-996427D01*
X403873Y-1002628D01*
X400882Y-1009849D01*
X400520Y-1012598D01*
X424803D01*
Y-988315D01*
D02*
G37*
G36*
X-919000Y-807263D02*
X-928250Y-808481D01*
X-936869Y-812051D01*
X-944271Y-817731D01*
X-949951Y-825133D01*
X-953521Y-833752D01*
X-954739Y-843002D01*
X-953521Y-852252D01*
X-949951Y-860871D01*
X-944271Y-868273D01*
X-936869Y-873953D01*
X-928250Y-877523D01*
X-919000Y-878741D01*
X-909750Y-877523D01*
X-901131Y-873953D01*
X-893729Y-868273D01*
X-888049Y-860871D01*
X-884479Y-852252D01*
X-883261Y-843002D01*
X-884479Y-833752D01*
X-888049Y-825133D01*
X-893729Y-817731D01*
X-901131Y-812051D01*
X-909750Y-808481D01*
X-919000Y-807263D01*
D02*
G37*
G36*
X748464Y-807803D02*
X739091Y-809037D01*
X730356Y-812655D01*
X722856Y-818410D01*
X717101Y-825910D01*
X713483Y-834645D01*
X712249Y-844018D01*
X713483Y-853391D01*
X717101Y-862126D01*
X722856Y-869626D01*
X730356Y-875381D01*
X739091Y-878999D01*
X748464Y-880233D01*
X757837Y-878999D01*
X766572Y-875381D01*
X774072Y-869626D01*
X779827Y-862126D01*
X783445Y-853391D01*
X784679Y-844018D01*
X783445Y-834645D01*
X779827Y-825910D01*
X774072Y-818410D01*
X766572Y-812655D01*
X757837Y-809037D01*
X748464Y-807803D01*
D02*
G37*
G36*
X-1445276Y-825748D02*
X-1469559D01*
X-1469197Y-828497D01*
X-1466205Y-835719D01*
X-1461447Y-841920D01*
X-1455246Y-846678D01*
X-1448025Y-849669D01*
X-1445276Y-850031D01*
Y-825748D01*
D02*
G37*
G36*
X-229890D02*
X-254173D01*
Y-850031D01*
X-251424Y-849669D01*
X-244203Y-846678D01*
X-238002Y-841920D01*
X-233243Y-835719D01*
X-230252Y-828497D01*
X-229890Y-825748D01*
D02*
G37*
G36*
X-264173D02*
X-288456D01*
X-288094Y-828497D01*
X-285103Y-835719D01*
X-280345Y-841920D01*
X-274144Y-846678D01*
X-266923Y-849669D01*
X-264173Y-850031D01*
Y-825748D01*
D02*
G37*
G36*
X-1277520Y-807803D02*
X-1286893Y-809037D01*
X-1295628Y-812655D01*
X-1303128Y-818410D01*
X-1308883Y-825910D01*
X-1312501Y-834645D01*
X-1313735Y-844018D01*
X-1312501Y-853391D01*
X-1308883Y-862126D01*
X-1303128Y-869626D01*
X-1295628Y-875381D01*
X-1286893Y-878999D01*
X-1277520Y-880233D01*
X-1268147Y-878999D01*
X-1259412Y-875381D01*
X-1251912Y-869626D01*
X-1246157Y-862126D01*
X-1242539Y-853391D01*
X-1241305Y-844018D01*
X-1242539Y-834645D01*
X-1246157Y-825910D01*
X-1251912Y-818410D01*
X-1259412Y-812655D01*
X-1268147Y-809037D01*
X-1277520Y-807803D01*
D02*
G37*
G36*
X-924000Y-903792D02*
X-929319Y-904492D01*
X-938934Y-908475D01*
X-947191Y-914811D01*
X-953527Y-923068D01*
X-957510Y-932683D01*
X-958210Y-938002D01*
X-924000D01*
Y-903792D01*
D02*
G37*
G36*
X-619000Y-907263D02*
X-628250Y-908481D01*
X-636869Y-912051D01*
X-644271Y-917731D01*
X-649951Y-925133D01*
X-653521Y-933752D01*
X-654739Y-943002D01*
X-653521Y-952252D01*
X-649951Y-960871D01*
X-644271Y-968273D01*
X-636869Y-973953D01*
X-628250Y-977523D01*
X-619000Y-978741D01*
X-609750Y-977523D01*
X-601131Y-973953D01*
X-593729Y-968273D01*
X-588049Y-960871D01*
X-584479Y-952252D01*
X-583261Y-943002D01*
X-584479Y-933752D01*
X-588049Y-925133D01*
X-593729Y-917731D01*
X-601131Y-912051D01*
X-609750Y-908481D01*
X-619000Y-907263D01*
D02*
G37*
G36*
X-914000Y-903792D02*
Y-938002D01*
X-879790D01*
X-880490Y-932683D01*
X-884473Y-923068D01*
X-890809Y-914811D01*
X-899066Y-908475D01*
X-908681Y-904492D01*
X-914000Y-903792D01*
D02*
G37*
G36*
X-1435276Y-791465D02*
Y-820748D01*
Y-850031D01*
X-1432526Y-849669D01*
X-1425305Y-846678D01*
X-1419104Y-841920D01*
X-1418378Y-840973D01*
X-1413595Y-842954D01*
X-1413735Y-844018D01*
X-1412501Y-853391D01*
X-1408883Y-862126D01*
X-1403128Y-869626D01*
X-1395628Y-875381D01*
X-1386893Y-878999D01*
X-1377520Y-880233D01*
X-1368147Y-878999D01*
X-1359412Y-875381D01*
X-1351912Y-869626D01*
X-1346157Y-862126D01*
X-1342539Y-853391D01*
X-1341305Y-844018D01*
X-1342539Y-834645D01*
X-1346157Y-825910D01*
X-1351912Y-818410D01*
X-1359412Y-812655D01*
X-1368147Y-809037D01*
X-1377520Y-807803D01*
X-1386893Y-809037D01*
X-1395628Y-812655D01*
X-1403128Y-818410D01*
X-1405389Y-821356D01*
X-1407826Y-821057D01*
X-1410465Y-819758D01*
X-1411355Y-812999D01*
X-1414346Y-805777D01*
X-1419104Y-799576D01*
X-1425305Y-794818D01*
X-1432526Y-791827D01*
X-1435276Y-791465D01*
D02*
G37*
G36*
X35716Y-821853D02*
X26466Y-823071D01*
X17847Y-826641D01*
X10445Y-832321D01*
X4765Y-839723D01*
X1195Y-848342D01*
X-23Y-857592D01*
X1195Y-866842D01*
X4765Y-875461D01*
X10445Y-882863D01*
X17847Y-888543D01*
X26466Y-892113D01*
X35716Y-893331D01*
X44966Y-892113D01*
X53585Y-888543D01*
X60987Y-882863D01*
X66667Y-875461D01*
X70237Y-866842D01*
X71455Y-857592D01*
X70237Y-848342D01*
X66667Y-839723D01*
X60987Y-832321D01*
X53585Y-826641D01*
X44966Y-823071D01*
X35716Y-821853D01*
D02*
G37*
G36*
X-463566Y-644002D02*
X-491204D01*
Y-677545D01*
X-463566D01*
Y-644002D01*
D02*
G37*
G36*
X361536Y-548900D02*
X326849D01*
X327565Y-554342D01*
X331596Y-564073D01*
X338008Y-572428D01*
X346363Y-578840D01*
X356094Y-582870D01*
X361536Y-583587D01*
Y-548900D01*
D02*
G37*
G36*
X237953Y-594615D02*
Y-618898D01*
X262236D01*
X261874Y-616148D01*
X258883Y-608927D01*
X254124Y-602726D01*
X247923Y-597968D01*
X240702Y-594977D01*
X237953Y-594615D01*
D02*
G37*
G36*
X-1327520Y-345663D02*
X-1343891Y-346951D01*
X-1359860Y-350785D01*
X-1375032Y-357069D01*
X-1389034Y-365650D01*
X-1401521Y-376315D01*
X-1412186Y-388802D01*
X-1420767Y-402804D01*
X-1427051Y-417976D01*
X-1430885Y-433945D01*
X-1432173Y-450316D01*
X-1430885Y-466687D01*
X-1427051Y-482656D01*
X-1420767Y-497828D01*
X-1412186Y-511830D01*
X-1401521Y-524317D01*
X-1389034Y-534982D01*
X-1375032Y-543563D01*
X-1359860Y-549847D01*
X-1343891Y-553681D01*
X-1327520Y-554969D01*
X-1311149Y-553681D01*
X-1295180Y-549847D01*
X-1280008Y-543563D01*
X-1266006Y-534982D01*
X-1253519Y-524317D01*
X-1242854Y-511830D01*
X-1234273Y-497828D01*
X-1227989Y-482656D01*
X-1224155Y-466687D01*
X-1222867Y-450316D01*
X-1224155Y-433945D01*
X-1227989Y-417976D01*
X-1234273Y-402804D01*
X-1242854Y-388802D01*
X-1253519Y-376315D01*
X-1266006Y-365650D01*
X-1280008Y-357069D01*
X-1295180Y-350785D01*
X-1311149Y-346951D01*
X-1327520Y-345663D01*
D02*
G37*
G36*
X406223Y-548900D02*
X371536D01*
Y-583587D01*
X376978Y-582870D01*
X386709Y-578840D01*
X395064Y-572428D01*
X401476Y-564073D01*
X405507Y-554342D01*
X406223Y-548900D01*
D02*
G37*
G36*
X227953Y-594615D02*
X225203Y-594977D01*
X217982Y-597968D01*
X211781Y-602726D01*
X207023Y-608927D01*
X204032Y-616148D01*
X203670Y-618898D01*
X227953D01*
Y-594615D01*
D02*
G37*
G36*
X-746299D02*
Y-618898D01*
X-722016D01*
X-722378Y-616148D01*
X-725369Y-608927D01*
X-730128Y-602726D01*
X-736329Y-597968D01*
X-743550Y-594977D01*
X-746299Y-594615D01*
D02*
G37*
G36*
X-756299D02*
X-759049Y-594977D01*
X-766270Y-597968D01*
X-772471Y-602726D01*
X-777229Y-608927D01*
X-780220Y-616148D01*
X-780582Y-618898D01*
X-756299D01*
Y-594615D01*
D02*
G37*
G36*
X-352598D02*
Y-618898D01*
X-328315D01*
X-328677Y-616148D01*
X-331669Y-608927D01*
X-336427Y-602726D01*
X-342628Y-597968D01*
X-349849Y-594977D01*
X-352598Y-594615D01*
D02*
G37*
G36*
X-362598D02*
X-365348Y-594977D01*
X-372569Y-597968D01*
X-378770Y-602726D01*
X-383528Y-608927D01*
X-386519Y-616148D01*
X-386881Y-618898D01*
X-362598D01*
Y-594615D01*
D02*
G37*
G36*
X361536Y-504213D02*
X356094Y-504930D01*
X346363Y-508960D01*
X338008Y-515372D01*
X331596Y-523727D01*
X327565Y-533458D01*
X326849Y-538900D01*
X361536D01*
Y-504213D01*
D02*
G37*
G36*
X-1041575Y-397764D02*
Y-422047D01*
X-1017292D01*
X-1017654Y-419298D01*
X-1020645Y-412077D01*
X-1025403Y-405876D01*
X-1031604Y-401117D01*
X-1038825Y-398126D01*
X-1041575Y-397764D01*
D02*
G37*
G36*
X-1051575D02*
X-1054324Y-398126D01*
X-1061545Y-401117D01*
X-1067746Y-405876D01*
X-1072505Y-412077D01*
X-1075496Y-419298D01*
X-1075858Y-422047D01*
X-1051575D01*
Y-397764D01*
D02*
G37*
G36*
X-254173D02*
Y-422047D01*
X-229890D01*
X-230252Y-419298D01*
X-233243Y-412077D01*
X-238002Y-405876D01*
X-244203Y-401117D01*
X-251424Y-398126D01*
X-254173Y-397764D01*
D02*
G37*
G36*
X-264173D02*
X-266923Y-398126D01*
X-274144Y-401117D01*
X-280345Y-405876D01*
X-285103Y-412077D01*
X-288094Y-419298D01*
X-288456Y-422047D01*
X-264173D01*
Y-397764D01*
D02*
G37*
G36*
X-229890Y-432047D02*
X-254173D01*
Y-456330D01*
X-251424Y-455968D01*
X-244203Y-452977D01*
X-238002Y-448219D01*
X-233243Y-442018D01*
X-230252Y-434797D01*
X-229890Y-432047D01*
D02*
G37*
G36*
X-1051575D02*
X-1075858D01*
X-1075496Y-434797D01*
X-1072505Y-442018D01*
X-1067746Y-448219D01*
X-1061545Y-452977D01*
X-1054324Y-455968D01*
X-1051575Y-456330D01*
Y-432047D01*
D02*
G37*
G36*
X371536Y-504213D02*
Y-538900D01*
X406223D01*
X405507Y-533458D01*
X401476Y-523727D01*
X395064Y-515372D01*
X386709Y-508960D01*
X376978Y-504930D01*
X371536Y-504213D01*
D02*
G37*
G36*
X-264173Y-432047D02*
X-288456D01*
X-288094Y-434797D01*
X-285103Y-442018D01*
X-280345Y-448219D01*
X-274144Y-452977D01*
X-266923Y-455968D01*
X-264173Y-456330D01*
Y-432047D01*
D02*
G37*
G36*
X-1017292D02*
X-1041575D01*
Y-456330D01*
X-1038825Y-455968D01*
X-1031604Y-452977D01*
X-1025403Y-448219D01*
X-1020645Y-442018D01*
X-1017654Y-434797D01*
X-1017292Y-432047D01*
D02*
G37*
G36*
X-1336850Y-594615D02*
Y-618898D01*
X-1312567D01*
X-1312929Y-616148D01*
X-1315921Y-608927D01*
X-1320679Y-602726D01*
X-1326880Y-597968D01*
X-1334101Y-594977D01*
X-1336850Y-594615D01*
D02*
G37*
G36*
X-722016Y-628898D02*
X-746299D01*
Y-653181D01*
X-743550Y-652819D01*
X-736329Y-649827D01*
X-730128Y-645069D01*
X-725369Y-638868D01*
X-722378Y-631647D01*
X-722016Y-628898D01*
D02*
G37*
G36*
X-362598D02*
X-386881D01*
X-386519Y-631647D01*
X-383528Y-638868D01*
X-378770Y-645069D01*
X-372569Y-649827D01*
X-365348Y-652819D01*
X-362598Y-653181D01*
Y-628898D01*
D02*
G37*
G36*
X-328315D02*
X-352598D01*
Y-653181D01*
X-349849Y-652819D01*
X-342628Y-649827D01*
X-336427Y-645069D01*
X-331669Y-638868D01*
X-328677Y-631647D01*
X-328315Y-628898D01*
D02*
G37*
G36*
X-756299D02*
X-780582D01*
X-780220Y-631647D01*
X-777229Y-638868D01*
X-772471Y-645069D01*
X-766270Y-649827D01*
X-759049Y-652819D01*
X-756299Y-653181D01*
Y-628898D01*
D02*
G37*
G36*
X-425928Y-644002D02*
X-453566D01*
Y-677545D01*
X-425928D01*
Y-644002D01*
D02*
G37*
G36*
X-1346850Y-628898D02*
X-1371133D01*
X-1370771Y-631647D01*
X-1367780Y-638868D01*
X-1363022Y-645069D01*
X-1356821Y-649827D01*
X-1349600Y-652819D01*
X-1346850Y-653181D01*
Y-628898D01*
D02*
G37*
G36*
X-1312567D02*
X-1336850D01*
Y-653181D01*
X-1334101Y-652819D01*
X-1326880Y-649827D01*
X-1320679Y-645069D01*
X-1315921Y-638868D01*
X-1312929Y-631647D01*
X-1312567Y-628898D01*
D02*
G37*
G36*
X-1346850Y-594615D02*
X-1349600Y-594977D01*
X-1356821Y-597968D01*
X-1363022Y-602726D01*
X-1367780Y-608927D01*
X-1370771Y-616148D01*
X-1371133Y-618898D01*
X-1346850D01*
Y-594615D01*
D02*
G37*
G36*
X-463566Y-600459D02*
X-491204D01*
Y-634002D01*
X-463566D01*
Y-600459D01*
D02*
G37*
G36*
X-425928D02*
X-453566D01*
Y-634002D01*
X-425928D01*
Y-600459D01*
D02*
G37*
G36*
X262236Y-628898D02*
X237953D01*
Y-653181D01*
X240702Y-652819D01*
X247923Y-649827D01*
X254124Y-645069D01*
X258883Y-638868D01*
X261874Y-631647D01*
X262236Y-628898D01*
D02*
G37*
G36*
X227953D02*
X203670D01*
X204032Y-631647D01*
X207023Y-638868D01*
X211781Y-645069D01*
X217982Y-649827D01*
X225203Y-652819D01*
X227953Y-653181D01*
Y-628898D01*
D02*
G37*
%LPD*%
G36*
X195000Y-2084334D02*
Y-2325000D01*
X7628D01*
X6182Y-2320000D01*
X11172Y-2316172D01*
X15930Y-2309971D01*
X18921Y-2302749D01*
X19283Y-2300000D01*
X-39283D01*
X-38921Y-2302749D01*
X-35930Y-2309971D01*
X-31172Y-2316172D01*
X-26182Y-2320000D01*
X-27628Y-2325000D01*
X-55000D01*
Y-2290000D01*
Y-2174078D01*
X-53447Y-2173293D01*
X-50000Y-2172745D01*
X-46559Y-2177229D01*
X-41214Y-2181331D01*
X-34989Y-2183910D01*
X-28308Y-2184789D01*
X-21628Y-2183910D01*
X-15402Y-2181331D01*
X-10057Y-2177229D01*
X-5955Y-2171884D01*
X-3376Y-2165659D01*
X-2497Y-2158978D01*
X-3376Y-2152298D01*
X-5955Y-2146072D01*
X-10057Y-2140727D01*
X-15402Y-2136625D01*
X-17189Y-2135885D01*
Y-2121583D01*
X-3952D01*
X273Y-2120742D01*
X3854Y-2118350D01*
X6247Y-2114768D01*
X7087Y-2110544D01*
X6247Y-2106320D01*
X4750Y-2104080D01*
X4191Y-2100702D01*
X4750Y-2097324D01*
X6247Y-2095084D01*
X7087Y-2090860D01*
X6377Y-2087293D01*
X6931Y-2085680D01*
X9359Y-2082293D01*
X64252D01*
X64253Y-2082293D01*
X68508Y-2081447D01*
X72115Y-2079037D01*
X75606Y-2082590D01*
X68659Y-2089538D01*
X66249Y-2093145D01*
X65402Y-2097400D01*
X65402Y-2097401D01*
Y-2146025D01*
X30553D01*
Y-2187386D01*
X7085Y-2210854D01*
X2906Y-2207647D01*
X-3320Y-2205068D01*
X-10000Y-2204189D01*
X-16680Y-2205068D01*
X-22906Y-2207647D01*
X-28251Y-2211749D01*
X-32353Y-2217094D01*
X-34932Y-2223320D01*
X-35811Y-2230000D01*
X-34932Y-2236680D01*
X-32353Y-2242906D01*
X-28251Y-2248251D01*
X-22906Y-2252353D01*
X-16680Y-2254932D01*
X-10000Y-2255811D01*
X-3320Y-2254932D01*
X2906Y-2252353D01*
X8251Y-2248251D01*
X12353Y-2242906D01*
X14932Y-2236680D01*
X15359Y-2233438D01*
X17147Y-2232243D01*
X21839Y-2227550D01*
X26459Y-2229464D01*
Y-2240434D01*
X60002D01*
Y-2212796D01*
X43126D01*
X41213Y-2208177D01*
X46278Y-2203111D01*
X99451D01*
Y-2146025D01*
X87641D01*
Y-2103471D01*
X91687Y-2099704D01*
X96537Y-2100181D01*
X97496Y-2101617D01*
X98345Y-2105886D01*
X98055Y-2106320D01*
X97215Y-2110544D01*
X98055Y-2114768D01*
X100448Y-2118350D01*
X104029Y-2120742D01*
X108254Y-2121583D01*
X125927D01*
Y-2135885D01*
X124140Y-2136625D01*
X118795Y-2140727D01*
X114693Y-2146072D01*
X112114Y-2152298D01*
X111235Y-2158978D01*
X112114Y-2165659D01*
X114693Y-2171884D01*
X118795Y-2177229D01*
X124140Y-2181331D01*
X130365Y-2183910D01*
X137046Y-2184789D01*
X143726Y-2183910D01*
X149952Y-2181331D01*
X155297Y-2177229D01*
X159399Y-2171884D01*
X161978Y-2165659D01*
X162857Y-2158978D01*
X161978Y-2152298D01*
X159399Y-2146072D01*
X155297Y-2140727D01*
X149952Y-2136625D01*
X148165Y-2135885D01*
Y-2121583D01*
X155498D01*
X159722Y-2120742D01*
X163304Y-2118350D01*
X165697Y-2114768D01*
X166537Y-2110544D01*
X165697Y-2106320D01*
X165407Y-2105886D01*
X166256Y-2101617D01*
X169554Y-2096682D01*
X169717Y-2095860D01*
X131876D01*
Y-2085860D01*
X169717D01*
X169554Y-2085038D01*
X168877Y-2084025D01*
X169852Y-2079121D01*
X169978Y-2079037D01*
X172389Y-2075429D01*
X173235Y-2071174D01*
X172855Y-2069260D01*
X177463Y-2066797D01*
X195000Y-2084334D01*
D02*
G37*
G36*
X-67679Y-2035291D02*
X-69750Y-2040291D01*
X-87180D01*
X-87180Y-2040291D01*
X-91435Y-2041137D01*
X-95043Y-2043547D01*
X-159700Y-2108205D01*
X-196983D01*
Y-2101608D01*
X-196983D01*
Y-2099638D01*
X-196983D01*
Y-2064206D01*
X-196983D01*
Y-2062238D01*
X-196983D01*
Y-2042531D01*
X-180054Y-2025601D01*
X-102450D01*
X-102450Y-2025601D01*
X-101375Y-2025387D01*
X-77582D01*
X-67679Y-2035291D01*
D02*
G37*
G36*
X185520Y-1978564D02*
X185520Y-1978564D01*
X189127Y-1980975D01*
X193382Y-1981821D01*
X195000Y-1986296D01*
Y-2046352D01*
X190381Y-2048265D01*
X169916Y-2027801D01*
X166309Y-2025390D01*
X164240Y-2024979D01*
X163392Y-2024130D01*
X163304Y-2023998D01*
X159722Y-2021605D01*
X159700Y-2021601D01*
X159596Y-2021531D01*
X155340Y-2020685D01*
X155340Y-2020685D01*
X131876D01*
X131472Y-2020765D01*
X108254D01*
X104029Y-2021605D01*
X100448Y-2023998D01*
X98055Y-2027580D01*
X97215Y-2031804D01*
X97925Y-2035371D01*
X97371Y-2036984D01*
X94943Y-2040371D01*
X83937D01*
X83937Y-2040371D01*
X79681Y-2041217D01*
X76074Y-2043628D01*
X76074Y-2043628D01*
X59647Y-2060055D01*
X45126D01*
X44131Y-2055055D01*
X47742Y-2053559D01*
X53087Y-2049457D01*
X57189Y-2044112D01*
X59768Y-2037887D01*
X60647Y-2031206D01*
X59768Y-2024525D01*
X57189Y-2018300D01*
X53087Y-2012955D01*
X47742Y-2008853D01*
X41517Y-2006274D01*
X34836Y-2005395D01*
X28155Y-2006274D01*
X21930Y-2008853D01*
X16585Y-2012955D01*
X12483Y-2018300D01*
X10025Y-2024234D01*
X8906Y-2024684D01*
X4753Y-2025345D01*
X3854Y-2023998D01*
X273Y-2021605D01*
X-3952Y-2020765D01*
X-26852D01*
X-27653Y-2020606D01*
X-27653Y-2020606D01*
X-50914D01*
X-55000Y-2016520D01*
Y-1905000D01*
X111955D01*
X185520Y-1978564D01*
D02*
G37*
%LPC*%
G36*
X-15000Y-2265717D02*
X-17749Y-2266079D01*
X-24971Y-2269070D01*
X-31172Y-2273828D01*
X-35930Y-2280029D01*
X-38921Y-2287251D01*
X-39283Y-2290000D01*
X-15000D01*
Y-2265717D01*
D02*
G37*
G36*
X-5000D02*
Y-2290000D01*
X19283D01*
X18921Y-2287251D01*
X15930Y-2280029D01*
X11172Y-2273828D01*
X4971Y-2269070D01*
X-2251Y-2266079D01*
X-5000Y-2265717D01*
D02*
G37*
G36*
X103545Y-2250434D02*
X70002D01*
Y-2278072D01*
X103545D01*
Y-2250434D01*
D02*
G37*
G36*
Y-2212796D02*
X70002D01*
Y-2240434D01*
X103545D01*
Y-2212796D01*
D02*
G37*
G36*
X60002Y-2250434D02*
X26459D01*
Y-2278072D01*
X60002D01*
Y-2250434D01*
D02*
G37*
G36*
X145000Y-1955717D02*
Y-1980000D01*
X169283D01*
X168921Y-1977251D01*
X165930Y-1970029D01*
X161172Y-1963828D01*
X154971Y-1959070D01*
X147749Y-1956079D01*
X145000Y-1955717D01*
D02*
G37*
G36*
X135000D02*
X132251Y-1956079D01*
X125029Y-1959070D01*
X118828Y-1963828D01*
X114070Y-1970029D01*
X111079Y-1977251D01*
X110717Y-1980000D01*
X135000D01*
Y-1955717D01*
D02*
G37*
G36*
Y-1990000D02*
X110717D01*
X111079Y-1992749D01*
X114070Y-1999971D01*
X118828Y-2006172D01*
X125029Y-2010930D01*
X132251Y-2013921D01*
X135000Y-2014283D01*
Y-1990000D01*
D02*
G37*
G36*
X169283D02*
X145000D01*
Y-2014283D01*
X147749Y-2013921D01*
X154971Y-2010930D01*
X161172Y-2006172D01*
X165930Y-1999971D01*
X168921Y-1992749D01*
X169283Y-1990000D01*
D02*
G37*
%LPD*%
G36*
X515213Y-2335773D02*
X520558Y-2339875D01*
X526784Y-2342454D01*
X533464Y-2343333D01*
X540144Y-2342454D01*
X546370Y-2339875D01*
X547935Y-2338674D01*
X552935Y-2341140D01*
Y-2399363D01*
X522061Y-2430238D01*
X517441Y-2428325D01*
Y-2378073D01*
X501985D01*
Y-2345226D01*
X504795Y-2344668D01*
X507383Y-2342938D01*
X509113Y-2340350D01*
X509720Y-2337297D01*
Y-2336829D01*
X514720Y-2335131D01*
X515213Y-2335773D01*
D02*
G37*
G36*
X-1036753Y133520D02*
X-1035634Y131845D01*
X-1032682Y129873D01*
Y127657D01*
X-1035510Y123424D01*
X-1036503Y118432D01*
X-1035510Y113440D01*
X-1032682Y109207D01*
X-1031837Y108643D01*
Y102629D01*
X-1032682Y102065D01*
X-1035510Y97832D01*
X-1035838Y96184D01*
X-1049114Y82908D01*
X-1051525Y79300D01*
X-1052371Y75045D01*
X-1052371Y75045D01*
Y-17317D01*
X-1052371Y-17317D01*
X-1051525Y-21573D01*
X-1049114Y-25180D01*
X-1035838Y-38456D01*
X-1035510Y-40104D01*
X-1032986Y-43883D01*
X-1033508Y-46047D01*
X-1034878Y-48883D01*
X-1077881D01*
Y99463D01*
X-1043190Y134154D01*
X-1036753Y133520D01*
D02*
G37*
G36*
X-1095444Y-1593883D02*
X-1097961Y-1598883D01*
X-1125002D01*
X-1125002Y-1598883D01*
X-1129257Y-1599729D01*
X-1132864Y-1602139D01*
X-1178747Y-1648022D01*
X-1181157Y-1651629D01*
X-1182003Y-1655884D01*
X-1182003Y-1655885D01*
Y-1790626D01*
X-1236935Y-1845557D01*
X-1241440Y-1842991D01*
X-1242539Y-1834645D01*
X-1246157Y-1825910D01*
X-1251912Y-1818410D01*
X-1259412Y-1812655D01*
X-1268147Y-1809037D01*
X-1277520Y-1807803D01*
X-1286893Y-1809037D01*
X-1295628Y-1812655D01*
X-1303128Y-1818410D01*
X-1308883Y-1825910D01*
X-1312501Y-1834645D01*
X-1313735Y-1844018D01*
X-1312501Y-1853391D01*
X-1308883Y-1862126D01*
X-1303128Y-1869626D01*
X-1295628Y-1875381D01*
X-1286893Y-1878999D01*
X-1278547Y-1880098D01*
X-1275981Y-1884603D01*
X-1280259Y-1888881D01*
X-1328896D01*
X-1340716Y-1877061D01*
X-1344323Y-1874651D01*
X-1348579Y-1873804D01*
X-1348579Y-1873804D01*
X-1349910D01*
X-1351281Y-1868804D01*
X-1346157Y-1862126D01*
X-1342539Y-1853391D01*
X-1341305Y-1844018D01*
X-1342539Y-1834645D01*
X-1345433Y-1827656D01*
X-1314252Y-1796474D01*
X-1314251Y-1796474D01*
X-1311841Y-1792867D01*
X-1310995Y-1788612D01*
Y-1767588D01*
X-1305995Y-1765891D01*
X-1303128Y-1769626D01*
X-1295628Y-1775381D01*
X-1286893Y-1778999D01*
X-1277520Y-1780233D01*
X-1268147Y-1778999D01*
X-1259412Y-1775381D01*
X-1251912Y-1769626D01*
X-1246157Y-1762126D01*
X-1242539Y-1753391D01*
X-1241305Y-1744018D01*
X-1242539Y-1734645D01*
X-1246157Y-1725910D01*
X-1251912Y-1718410D01*
X-1259412Y-1712655D01*
X-1268147Y-1709037D01*
X-1277520Y-1707803D01*
X-1286893Y-1709037D01*
X-1295628Y-1712655D01*
X-1303128Y-1718410D01*
X-1305995Y-1722145D01*
X-1310995Y-1720448D01*
Y-1667588D01*
X-1305995Y-1665891D01*
X-1303128Y-1669626D01*
X-1295628Y-1675381D01*
X-1286893Y-1678999D01*
X-1277520Y-1680233D01*
X-1268147Y-1678999D01*
X-1259412Y-1675381D01*
X-1251912Y-1669626D01*
X-1246157Y-1662126D01*
X-1243262Y-1655137D01*
X-1239018D01*
X-1239018Y-1655137D01*
X-1234763Y-1654291D01*
X-1231156Y-1651880D01*
X-1172394Y-1593119D01*
X-1096010D01*
X-1095444Y-1593883D01*
D02*
G37*
D10*
X-590000Y-2293464D02*
D03*
Y-2226536D02*
D03*
Y-2088464D02*
D03*
Y-2021536D02*
D03*
Y-2488464D02*
D03*
Y-2421536D02*
D03*
X-408416Y-1920780D02*
D03*
Y-1853852D02*
D03*
X-846534Y-2185986D02*
D03*
Y-2119058D02*
D03*
X-590000Y-1893464D02*
D03*
Y-1826536D02*
D03*
X-741999Y-1717464D02*
D03*
Y-1650534D02*
D03*
X-658416Y-1770780D02*
D03*
Y-1703852D02*
D03*
X-717000Y274464D02*
D03*
Y207536D02*
D03*
X-721000Y-159466D02*
D03*
Y-92538D02*
D03*
X-834000Y-104538D02*
D03*
Y-171466D02*
D03*
X-837000Y272464D02*
D03*
Y205536D02*
D03*
X4694Y-1236742D02*
D03*
Y-1303670D02*
D03*
X426694Y-1236742D02*
D03*
Y-1303670D02*
D03*
X429694Y-1358742D02*
D03*
Y-1425670D02*
D03*
X4694Y-1370742D02*
D03*
Y-1437670D02*
D03*
D11*
X853464Y-730000D02*
D03*
X786536D02*
D03*
X-649464Y139000D02*
D03*
X-582536D02*
D03*
X-649464Y214000D02*
D03*
X-582536D02*
D03*
X-657464Y-28000D02*
D03*
X-590536D02*
D03*
X220000Y-2492522D02*
D03*
X286928D02*
D03*
Y-2562522D02*
D03*
X220000D02*
D03*
X-701536Y-1895000D02*
D03*
X-768464D02*
D03*
X-836536Y139998D02*
D03*
X-903464D02*
D03*
X-904464Y-29018D02*
D03*
X-837536D02*
D03*
X-589536Y-101000D02*
D03*
X-656464D02*
D03*
D12*
X-1012000Y-798434D02*
D03*
Y-727568D02*
D03*
X-736001Y-1395567D02*
D03*
Y-1466433D02*
D03*
X-498416Y-1451882D02*
D03*
Y-1522748D02*
D03*
X-293416Y-1915546D02*
D03*
Y-1844678D02*
D03*
X-1338000Y131226D02*
D03*
Y60360D02*
D03*
X-522000Y-830434D02*
D03*
Y-759568D02*
D03*
X-423306Y-2038772D02*
D03*
Y-2109638D02*
D03*
X-96306Y-1925978D02*
D03*
Y-1996844D02*
D03*
X65002Y-2245434D02*
D03*
Y-2174568D02*
D03*
D13*
X-835116Y-1712364D02*
D03*
Y-1686772D02*
D03*
Y-1661182D02*
D03*
Y-1635592D02*
D03*
Y-1610002D02*
D03*
Y-1584410D02*
D03*
Y-1558820D02*
D03*
Y-1533230D02*
D03*
Y-1507638D02*
D03*
Y-1482048D02*
D03*
X-1061494Y-1712364D02*
D03*
Y-1686772D02*
D03*
Y-1661182D02*
D03*
Y-1635592D02*
D03*
Y-1610002D02*
D03*
Y-1584410D02*
D03*
Y-1558820D02*
D03*
Y-1533230D02*
D03*
Y-1507638D02*
D03*
Y-1482048D02*
D03*
X-1002788Y-60702D02*
D03*
Y-35112D02*
D03*
Y-9522D02*
D03*
Y16070D02*
D03*
Y41660D02*
D03*
Y67250D02*
D03*
Y92840D02*
D03*
Y118432D02*
D03*
Y144022D02*
D03*
Y169612D02*
D03*
X-1229166Y-60702D02*
D03*
Y-35112D02*
D03*
Y-9522D02*
D03*
Y16070D02*
D03*
Y41660D02*
D03*
Y67250D02*
D03*
Y92840D02*
D03*
Y118432D02*
D03*
Y144022D02*
D03*
Y169612D02*
D03*
D14*
X-590000Y-2611496D02*
D03*
Y-2548504D02*
D03*
X-588416Y-1705820D02*
D03*
Y-1768812D02*
D03*
D15*
X-528504Y-2360000D02*
D03*
X-591496D02*
D03*
X-528504Y-2160000D02*
D03*
X-591496D02*
D03*
X-528504Y-1955000D02*
D03*
X-591496D02*
D03*
X-717504Y-29000D02*
D03*
X-780496D02*
D03*
X-712504Y138002D02*
D03*
X-775496D02*
D03*
D16*
X-222574Y-2044522D02*
D03*
Y-2081922D02*
D03*
Y-2119324D02*
D03*
X-330842D02*
D03*
Y-2081922D02*
D03*
Y-2044522D02*
D03*
D17*
X-529432Y-639002D02*
D03*
X-458566D02*
D03*
X-775566Y-364002D02*
D03*
X-846432D02*
D03*
X418032Y-2412522D02*
D03*
X488898D02*
D03*
D18*
X-794928Y-430600D02*
D03*
Y-505404D02*
D03*
X-911070D02*
D03*
Y-468002D02*
D03*
Y-430600D02*
D03*
D19*
X-27574Y-2031804D02*
D03*
Y-2051490D02*
D03*
Y-2071174D02*
D03*
Y-2090860D02*
D03*
Y-2110544D02*
D03*
X131876Y-2031804D02*
D03*
Y-2051490D02*
D03*
Y-2071174D02*
D03*
Y-2090860D02*
D03*
Y-2110544D02*
D03*
D20*
X513646Y-2047474D02*
D03*
Y-2021882D02*
D03*
Y-1996292D02*
D03*
Y-1970702D02*
D03*
Y-1945112D02*
D03*
Y-1919520D02*
D03*
Y-1893930D02*
D03*
X291206Y-2047474D02*
D03*
Y-2021882D02*
D03*
Y-1996292D02*
D03*
Y-1970702D02*
D03*
Y-1945112D02*
D03*
Y-1919520D02*
D03*
Y-1893930D02*
D03*
D21*
X-498030Y-1797970D02*
D03*
X-448030D02*
D03*
X-398030D02*
D03*
X-348030D02*
D03*
X-498030Y-1575528D02*
D03*
X-448030D02*
D03*
X-398030D02*
D03*
X-348030D02*
D03*
D22*
X490866Y-2315594D02*
D03*
X416062D02*
D03*
Y-2199452D02*
D03*
X453464D02*
D03*
X490866D02*
D03*
D23*
X-594322Y124456D02*
X-573514D01*
X-166978Y-1925978D02*
X-96306D01*
X-231046Y-1990046D02*
X-166978Y-1925978D01*
X-441184Y-1990046D02*
X-231046D01*
X166000Y-309000D02*
Y4000D01*
X145000Y25000D02*
X166000Y4000D01*
X100000Y25000D02*
X145000D01*
X-957000Y-1432000D02*
X166000Y-309000D01*
X-855785Y-1584410D02*
X-764110D01*
Y-1494542D02*
X-736001Y-1466433D01*
X-764110Y-1584410D02*
Y-1494542D01*
X-618999Y-1466899D02*
Y-1440999D01*
X-709108Y-1644108D02*
X-682000Y-1617000D01*
X-746294Y-1644108D02*
X-709108D01*
X-682000Y-1617000D02*
Y-1529900D01*
X-618999Y-1466899D01*
X-665564Y-1711000D02*
X-658416Y-1703852D01*
X-734562Y-1711000D02*
X-665564D01*
X-957000Y-1534377D02*
Y-1432000D01*
Y-1534377D02*
X-855785Y-1635592D01*
X-1177590Y-1582000D02*
X-986000D01*
X-1180000Y-1584410D02*
X-1177590Y-1582000D01*
X-27574Y-2071174D02*
X64253D01*
X83937Y-2051490D01*
X131876D01*
X365000Y-2315000D02*
X415468D01*
X-1254018Y-2144018D02*
X-1104018Y-1994018D01*
X-1277520Y-2144018D02*
X-1254018D01*
X-1104018Y-1994018D02*
X-1050000Y-1940000D01*
X-1327520Y-1994018D02*
X-1104018D01*
X-1125002Y-1610002D02*
X-1061494D01*
X-1170884Y-1655884D02*
X-1125002Y-1610002D01*
X-1170884Y-1795231D02*
Y-1655884D01*
X-1106416Y-1511416D02*
Y-1295316D01*
X-1239018Y-1644018D02*
X-1106416Y-1511416D01*
X-1277520Y-1644018D02*
X-1239018D01*
X-1333502Y-1900000D02*
X-1275653D01*
X-1170884Y-1795231D01*
X-1260000Y-1495000D02*
X-1174788Y-1409788D01*
X-1295000Y-1495000D02*
X-1260000D01*
X-1322114Y-1522114D02*
X-1295000Y-1495000D01*
X-1322114Y-1788612D02*
Y-1522114D01*
X-1174788Y-1409788D02*
Y-145790D01*
X183464Y-1917522D02*
X249897D01*
X483071Y-2207247D02*
X490866Y-2199452D01*
X483071Y-2237759D02*
Y-2207247D01*
X408267Y-2296973D02*
X416062Y-2304768D01*
X408267Y-2296973D02*
Y-2281876D01*
X162054Y-2035663D02*
X408267Y-2281876D01*
X131797Y-2071253D02*
X131876Y-2071174D01*
X102669Y-2071253D02*
X131797D01*
X-10000Y-2230000D02*
X-4380Y-2224380D01*
X-28308Y-2158978D02*
Y-2110623D01*
X-27653Y-2031725D02*
X-27574Y-2031804D01*
X-55519Y-2031725D02*
X-27653D01*
X-330844Y-2044522D02*
X-330842Y-2044520D01*
X-498030Y-1797970D02*
Y-1790308D01*
X-590000Y-1953504D02*
Y-1893464D01*
X-652464Y-97000D02*
Y-28000D01*
X-717504Y-89042D02*
Y-29000D01*
X-448030Y-1790096D02*
Y-1778285D01*
X-506794Y-1719521D02*
X-448030Y-1778285D01*
X-781498Y-30002D02*
X-780496Y-29000D01*
X-837536Y-101074D02*
Y-30002D01*
X-835116Y-2107640D02*
Y-1712364D01*
X-936650Y67364D02*
X-936536Y67478D01*
X-723799Y-506203D02*
X-723000Y-507002D01*
X-919977Y-430600D02*
X-911070D01*
X-1023457Y92840D02*
X-1002788D01*
X-1041252Y75045D02*
X-1023457Y92840D01*
X-894472Y-565837D02*
Y-513200D01*
X-846534Y-2185986D02*
X-841536Y-2190984D01*
X362015Y-1997015D02*
X365000Y-2000000D01*
X-4164Y-1437670D02*
X4694D01*
X-72763Y-1506268D02*
X-4164Y-1437670D01*
X-1348579Y-1884924D02*
X-1333502Y-1900000D01*
X513646Y-1996292D02*
X531363D01*
X564055Y-2028984D01*
X6684Y-2051410D02*
X26889Y-2031206D01*
X-1377520Y-1944018D02*
X-1327520Y-1994018D01*
X-1377520Y-1944018D02*
X-1333502Y-1900000D01*
X-1418426Y-1860962D02*
X-1394464Y-1884924D01*
X-1348579D01*
X-1418426Y-1860962D02*
Y-1027074D01*
X-1323832Y-990330D02*
X-1277520Y-944018D01*
X-1381681Y-990330D02*
X-1323832D01*
X-1418426Y-1027074D02*
X-1381681Y-990330D01*
X-184660Y-2014482D02*
X-102450D01*
X-498030Y-1575528D02*
Y-1519198D01*
X-1343000Y61502D02*
X-1337252Y67250D01*
X848464Y-735000D02*
X853464Y-730000D01*
X-638416Y-1705229D02*
Y-1703852D01*
X-588416Y-1770780D02*
X-576683Y-1782513D01*
X-648416Y-1770780D02*
X-590384D01*
X-656464Y-101000D02*
X-652464Y-97000D01*
X-717504Y-29000D02*
X-653464D01*
X-837536Y-30002D02*
X-781498D01*
X-775566Y-364002D02*
X-772046Y-367522D01*
X-793204Y-428876D02*
Y-381640D01*
X-894472Y-565837D02*
X-894472Y-565837D01*
X-534568Y-843002D02*
X-522000Y-830434D01*
X523254Y-1893930D02*
X525000Y-1892184D01*
X-528504Y-2352126D02*
X-453308Y-2276930D01*
X748464Y-1944018D02*
Y-1744018D01*
X848464Y-2144018D02*
X889370Y-2103113D01*
Y-1984924D01*
X848464Y-1944018D02*
X889370Y-1984924D01*
X108412Y-2090860D02*
X155340D01*
X159198Y-2094717D01*
X162054D01*
X-78668Y-1943616D02*
X-9493D01*
X-96306Y-1925978D02*
X-78668Y-1943616D01*
X65002Y-2245434D02*
X75002Y-2235434D01*
X-96306Y-1925978D02*
X-90400D01*
X-72763Y-1908340D01*
Y-1506268D01*
X-500110Y-2048972D02*
X-441184Y-1990046D01*
X-500110Y-2050112D02*
Y-2048972D01*
X848464Y-844018D02*
Y-735000D01*
X689133Y-556811D02*
X853464Y-721142D01*
X689133Y-556811D02*
Y306493D01*
X798464Y415824D01*
X853464Y-730000D02*
Y-721142D01*
X-770000Y-1896536D02*
X-768464Y-1895000D01*
X-770000Y-1955000D02*
Y-1896536D01*
X-528504Y-2360000D02*
Y-2352126D01*
X-453308Y-2276930D02*
Y-2271112D01*
X-330842Y-2119324D02*
X-155094D01*
X-837000Y140462D02*
Y205536D01*
X159200Y-2035663D02*
X162054D01*
X416062Y-2315594D02*
Y-2304768D01*
X-591496Y-1955000D02*
X-590000Y-1953504D01*
X-591496Y-1955000D02*
X-590000Y-1956496D01*
Y-2021536D02*
Y-1956496D01*
X-591496Y-2089960D02*
X-590000Y-2088464D01*
X-591496Y-2160000D02*
Y-2089960D01*
Y-2160000D02*
X-590000Y-2161496D01*
Y-2226536D02*
Y-2161496D01*
X-591496Y-2294960D02*
X-590000Y-2293464D01*
X-591496Y-2360000D02*
Y-2294960D01*
Y-2360000D02*
X-590000Y-2361496D01*
Y-2421536D02*
Y-2361496D01*
Y-2548504D02*
Y-2488464D01*
X-583464Y-2495000D01*
X-410000D01*
X-701536Y-1895000D02*
X-700000Y-1893464D01*
X-590000D01*
X-590384Y-1770780D02*
X-588416Y-1768812D01*
Y-1824952D02*
Y-1770780D01*
X-590000Y-1826536D02*
X-588416Y-1824952D01*
X155340Y-2031804D02*
X159200Y-2035663D01*
X131876Y-2031804D02*
X155340D01*
X415468Y-2315000D02*
X416062Y-2315594D01*
X13552Y-1303670D02*
X108972Y-1399090D01*
X193382Y-1970702D02*
X291206D01*
X108972Y-1886292D02*
X193382Y-1970702D01*
X393198Y-1867971D02*
Y-1328308D01*
Y-1867971D02*
X495929Y-1970702D01*
X525000Y-1892184D02*
Y-1835000D01*
X513646Y-1893930D02*
X523254D01*
X-4380Y-2224380D02*
X9284D01*
X59096Y-2174568D01*
X65002D01*
X76522Y-2163048D01*
Y-2097400D01*
X102669Y-2071253D01*
X291929Y-1997015D02*
X362015D01*
X291206Y-1996292D02*
X291929Y-1997015D01*
X397053Y-1940000D02*
X405000D01*
X376572Y-1919520D02*
X397053Y-1940000D01*
X-797373Y-1644108D02*
X-746294D01*
X-835116Y-1661182D02*
X-814447D01*
X100999Y25999D02*
X208001D01*
X100000Y25000D02*
X100999Y25999D01*
X-1267746Y67250D02*
X-1229166D01*
X-1023457Y169612D02*
X-1002788D01*
X-1089000Y104069D02*
X-1023457Y169612D01*
X-1089000Y-60002D02*
Y104069D01*
X-1041252Y-17317D02*
Y75045D01*
Y-17317D02*
X-1023457Y-35112D01*
X-1003488Y-60002D02*
X-1002788Y-60702D01*
X-1089000Y-60002D02*
X-1003488D01*
X-1012000Y-727568D02*
X-996566Y-743002D01*
X-919000D01*
X-794928Y-430600D02*
X-793204Y-428876D01*
X-794129Y-506203D02*
X-723799D01*
X-794928Y-505404D02*
X-794129Y-506203D01*
X-533432Y-643002D02*
X-529432Y-639002D01*
X-619000Y-643002D02*
X-533432D01*
X-911070Y-430600D02*
X-903275Y-438395D01*
X-927773Y-422805D02*
Y-89458D01*
X-894472Y-618475D02*
Y-565837D01*
X-919000Y-643002D02*
X-894472Y-618475D01*
X-834000Y-171466D02*
X-825142D01*
X-803000Y-238002D02*
Y-230054D01*
X-721000Y-92538D02*
X-717504Y-89042D01*
X-813409Y-219645D02*
X-803000Y-230054D01*
X-813409Y-219645D02*
Y-183198D01*
X-825142Y-171466D02*
X-813409Y-183198D01*
X-918652Y-9522D02*
X-917630Y-10544D01*
X-838000Y-101538D02*
X-837536Y-101074D01*
X-836536Y139998D02*
X-781498D01*
X-837000Y140462D02*
X-836536Y139998D01*
X-1002788Y118432D02*
X-918654D01*
X-917630Y119456D01*
X-1023457Y-35112D02*
X-982119D01*
X-348030Y-1666930D02*
X-293306Y-1612206D01*
X-222574Y-2081922D02*
Y-2051333D01*
X-1002788Y-9522D02*
X-918652D01*
X-805755Y-505404D02*
X-794928D01*
X-155094Y-2119324D02*
X-87180Y-2051410D01*
X513646Y-1945112D02*
X514369Y-1945835D01*
X-1337252Y67250D02*
X-1267746D01*
X426694Y-1355742D02*
Y-1303670D01*
Y-1355742D02*
X429694Y-1358742D01*
X4694Y-1303670D02*
X13552D01*
X4694Y-1370742D02*
Y-1303670D01*
X-619000Y-843002D02*
X-534568D01*
X-619000Y-743002D02*
X-538566D01*
X-872763Y-438395D02*
X-805755Y-505404D01*
X417836Y-1303670D02*
X426694D01*
X393198Y-1328308D02*
X417836Y-1303670D01*
X208001Y25999D02*
X209000Y26998D01*
X-919000Y-743002D02*
Y-643002D01*
X-37494Y112494D02*
X50000Y25000D01*
X-37494Y112494D02*
Y214998D01*
X-794928Y-430600D02*
X-748624D01*
X-619000Y-560224D01*
Y-643002D02*
Y-560224D01*
X-1174788Y-145790D02*
X-1089000Y-60002D01*
X-1273604Y61392D02*
X-1267746Y67250D01*
X-1273604Y-121398D02*
Y61392D01*
Y-121398D02*
X-1215000Y-180002D01*
X-855785Y-1635592D02*
X-835116D01*
X-498416Y-1518812D02*
X-498030Y-1519198D01*
X-408416Y-1853852D02*
X-398030Y-1843466D01*
X-338645Y-1827040D02*
X-316959D01*
X-588416Y-1705820D02*
X-574715Y-1719521D01*
X26889Y-2031206D02*
X34836D01*
X-637826Y-1705820D02*
X-588416D01*
X-574715Y-1719521D02*
X-506794D01*
X-102450Y-2014482D02*
X-87606Y-1999638D01*
X-215761Y-2044520D02*
X-214698D01*
X-184660Y-2014482D01*
X-222574Y-2051333D02*
X-215761Y-2044520D01*
X-423306Y-2038772D02*
X-417556Y-2044522D01*
X-330844D01*
X-298416Y-1845820D02*
Y-1845583D01*
X-576683Y-1782513D02*
X-505825D01*
X-638416Y-1705229D02*
X-637826Y-1705820D01*
X-316959Y-1827040D02*
X-298416Y-1845583D01*
X-558416Y-1577316D02*
X-499818D01*
X-498030Y-1575528D01*
X108972Y-1886292D02*
Y-1399090D01*
X-814447Y-1661182D02*
X-797373Y-1644108D01*
X335716Y-857592D02*
X516142Y-677166D01*
X-54896Y-2094717D02*
X-51038Y-2090860D01*
X516142Y-677166D02*
Y270856D01*
X367000Y419998D02*
X516142Y270856D01*
X-1002788Y67250D02*
X-1002674Y67364D01*
X-936650D01*
X-982119Y-35112D02*
X-927773Y-89458D01*
Y-422805D02*
X-919977Y-430600D01*
X-903275Y-438395D02*
X-872763D01*
X-348030Y-1817655D02*
X-338645Y-1827040D01*
X-348030Y-1817655D02*
Y-1666930D01*
X-505825Y-1782513D02*
X-498030Y-1790308D01*
X-398030Y-1843466D02*
Y-1797970D01*
X-455976Y-93892D02*
X-455488Y-93404D01*
X-538566Y-743002D02*
X-522000Y-759568D01*
X-772046Y-367522D02*
X-726536D01*
X-793204Y-381640D02*
X-775566Y-364002D01*
X-846534Y-2119058D02*
X-835116Y-2107640D01*
X514369Y-1945835D02*
X570323D01*
X571694Y-1947206D01*
X291206Y-1919520D02*
X376572D01*
X249897Y-1917522D02*
X273489Y-1893930D01*
X291206D01*
X308923Y-2021882D02*
X416062Y-2129021D01*
Y-2199452D02*
Y-2129021D01*
X291206Y-2021882D02*
X308923D01*
X416062Y-2304767D02*
X483071Y-2237759D01*
X416062Y-2304768D02*
Y-2304767D01*
X298660Y-2541932D02*
X426092D01*
X564055Y-2403969D02*
Y-2028984D01*
X426092Y-2541932D02*
X564055Y-2403969D01*
X286928Y-2562522D02*
Y-2553664D01*
X492794Y-2317522D02*
X533464D01*
X490866Y-2315594D02*
X492794Y-2317522D01*
X490866Y-2410554D02*
Y-2315594D01*
X488898Y-2412522D02*
X490866Y-2410554D01*
X286928Y-2553664D02*
X298660Y-2541932D01*
X286928Y-2562522D02*
Y-2492522D01*
X63464Y-2562522D02*
X220000D01*
X-781498Y139998D02*
X-781496Y140000D01*
X-653464Y-29000D02*
X-652464Y-28000D01*
X-840000Y278462D02*
Y334998D01*
X-841536Y-2372520D02*
X-841534Y-2372522D01*
X-841536Y-2372520D02*
Y-2190984D01*
X-929518Y-2191042D02*
X-851590D01*
X-846534Y-2185986D01*
X789370Y-1584924D02*
X848464Y-1644018D01*
X-1377520Y-1844018D02*
X-1322114Y-1788612D01*
X136967Y-2110544D02*
X137046Y-2110623D01*
X131876Y-2110544D02*
X136967D01*
X589403Y-1442806D02*
Y-1390592D01*
X495929Y-1970702D02*
X513646D01*
X731520Y-1584924D02*
X789370D01*
X-57751Y-2094717D02*
X-54896D01*
X-28229Y-2110544D02*
X-27574D01*
X-51038Y-2090860D02*
X-27574D01*
X-107048Y-2144014D02*
X-57751Y-2094717D01*
X-87180Y-2051410D02*
X6684D01*
X-107048Y-2194412D02*
Y-2144014D01*
X-87606Y-1999639D02*
Y-1999638D01*
Y-1999639D02*
X-55519Y-2031725D01*
X-28308Y-2110623D02*
X-28229Y-2110544D01*
X137046Y-2158978D02*
Y-2110623D01*
X131876Y-2071174D02*
X162116D01*
X50000Y-107040D02*
Y-25000D01*
X-710536Y214000D02*
X-649464D01*
X-717000Y207536D02*
X-710536Y214000D01*
X-717000Y142498D02*
Y207536D01*
Y142498D02*
X-712504Y138002D01*
X-650462D01*
X-649464Y139000D01*
X435552Y-1236742D02*
X589403Y-1390592D01*
Y-1442806D02*
X731520Y-1584924D01*
X4694Y-1236742D02*
X7952Y-1240000D01*
X73000D01*
X35716Y-1057592D02*
X238686D01*
X417836Y-1236742D01*
X435552D01*
D24*
X-573802Y-93892D02*
X-455976D01*
X-581536Y204142D02*
Y220456D01*
X-594322Y-44324D02*
Y-22928D01*
X-564000Y77000D02*
Y83594D01*
X-573304Y92898D02*
X-564000Y83594D01*
X-547152Y28846D02*
X-513000Y62998D01*
X-547152Y24242D02*
Y28846D01*
X-160000Y-227002D02*
Y-160002D01*
X-161000Y-228002D02*
X-160000Y-227002D01*
X-168000Y174998D02*
Y258998D01*
X-170000Y260998D02*
X-168000Y258998D01*
X-135002Y-160002D02*
X0Y-25000D01*
X-160000Y-160002D02*
X-135002D01*
X-149998Y174998D02*
X0Y25000D01*
X-168000Y174998D02*
X-149998D01*
X-455488Y-93404D02*
X-226598D01*
X-160000Y-160002D01*
X-280000Y62998D02*
X-168000Y174998D01*
X-513000Y62998D02*
X-280000D01*
X-573514Y124456D02*
X-573304Y124246D01*
X-594322Y-22928D02*
X-547152Y24242D01*
X-513000Y62998D02*
Y135606D01*
X-581536Y204142D02*
X-513000Y135606D01*
X-573304Y92898D02*
Y124246D01*
D25*
X-919000Y-643002D02*
D03*
X335716Y-1057592D02*
D03*
D26*
X-919000Y-743002D02*
D03*
Y-843002D02*
D03*
Y-943002D02*
D03*
X-619000Y-643002D02*
D03*
Y-743002D02*
D03*
Y-843002D02*
D03*
Y-943002D02*
D03*
X335716Y-957592D02*
D03*
Y-857592D02*
D03*
Y-757592D02*
D03*
X35716Y-1057592D02*
D03*
Y-957592D02*
D03*
Y-857592D02*
D03*
Y-757592D02*
D03*
X-162000Y-235002D02*
D03*
X-618999Y-1440999D02*
D03*
X209000Y26998D02*
D03*
X-841536Y-2372522D02*
D03*
X916574Y415824D02*
D03*
X798464D02*
D03*
X680354D02*
D03*
X-1166536Y-2442522D02*
D03*
X-170000Y260998D02*
D03*
X598464Y-1057522D02*
D03*
D27*
X-100000Y-25000D02*
D03*
Y25000D02*
D03*
X-50000Y-25000D02*
D03*
Y25000D02*
D03*
X0Y-25000D02*
D03*
Y25000D02*
D03*
X50000Y-25000D02*
D03*
Y25000D02*
D03*
X100000Y-25000D02*
D03*
Y25000D02*
D03*
D28*
X798464Y-450316D02*
D03*
X-1327520D02*
D03*
X798464Y-2812522D02*
D03*
X-1327520D02*
D03*
D29*
X-741000Y798998D02*
D03*
X-641000Y698998D02*
D03*
X-841000D02*
D03*
D30*
X366536Y-543900D02*
D03*
X516142D02*
D03*
X-1277520Y-2244018D02*
D03*
Y-2144018D02*
D03*
Y-2044018D02*
D03*
Y-1944018D02*
D03*
Y-1844018D02*
D03*
Y-1744018D02*
D03*
Y-1644018D02*
D03*
Y-1544018D02*
D03*
Y-1444018D02*
D03*
Y-1344018D02*
D03*
Y-1244018D02*
D03*
Y-1144018D02*
D03*
Y-1044018D02*
D03*
Y-944018D02*
D03*
Y-844018D02*
D03*
X-1377520Y-2244018D02*
D03*
Y-2144018D02*
D03*
Y-2044018D02*
D03*
Y-1944018D02*
D03*
Y-1844018D02*
D03*
Y-1744018D02*
D03*
Y-1644018D02*
D03*
Y-1544018D02*
D03*
Y-1444018D02*
D03*
Y-1344018D02*
D03*
Y-1244018D02*
D03*
Y-1144018D02*
D03*
Y-1044018D02*
D03*
Y-944018D02*
D03*
Y-844018D02*
D03*
X748464D02*
D03*
Y-944018D02*
D03*
Y-1044018D02*
D03*
Y-1144018D02*
D03*
Y-1244018D02*
D03*
Y-1344018D02*
D03*
Y-1444018D02*
D03*
Y-1544018D02*
D03*
Y-1644018D02*
D03*
Y-1744018D02*
D03*
Y-1844018D02*
D03*
Y-1944018D02*
D03*
Y-2044018D02*
D03*
Y-2144018D02*
D03*
Y-2244018D02*
D03*
X848464Y-844018D02*
D03*
Y-944018D02*
D03*
Y-1044018D02*
D03*
Y-1144018D02*
D03*
Y-1244018D02*
D03*
Y-1344018D02*
D03*
Y-1444018D02*
D03*
Y-1544018D02*
D03*
Y-1644018D02*
D03*
Y-1744018D02*
D03*
Y-1844018D02*
D03*
Y-1944018D02*
D03*
Y-2044018D02*
D03*
Y-2144018D02*
D03*
Y-2244018D02*
D03*
D31*
X367000Y419998D02*
D03*
X467000D02*
D03*
D32*
X-986000Y-1582000D02*
D03*
X-1050000Y-1940000D02*
D03*
X-500110Y-2050112D02*
D03*
X-770000Y-1955000D02*
D03*
X-453308Y-2271112D02*
D03*
X-293306Y-1612206D02*
D03*
X-723000Y-507002D02*
D03*
X-764110Y-1584410D02*
D03*
X50000Y-107040D02*
D03*
X73000Y-1240000D02*
D03*
D33*
X140000Y-1985000D02*
D03*
X-10000Y-2295000D02*
D03*
X365000Y-2315000D02*
D03*
X528228Y360354D02*
D03*
X626654Y-1411299D02*
D03*
Y-1805000D02*
D03*
X331378Y360354D02*
D03*
X429803Y163504D02*
D03*
Y-1017598D02*
D03*
X331378Y-1214449D02*
D03*
Y-2395551D02*
D03*
X232953Y-623898D02*
D03*
Y-1411299D02*
D03*
X134528Y-2395551D02*
D03*
X-62323Y-820748D02*
D03*
Y-1214449D02*
D03*
X-259173Y-427047D02*
D03*
Y-820748D02*
D03*
X-160748Y-1017598D02*
D03*
Y-1411299D02*
D03*
Y-2198701D02*
D03*
X-259173Y-2395551D02*
D03*
X-357598Y163504D02*
D03*
X-456024Y-33346D02*
D03*
X-357598Y-623898D02*
D03*
X-652874Y-2001850D02*
D03*
Y-2395551D02*
D03*
X-751299Y557205D02*
D03*
Y-623898D02*
D03*
Y-1017598D02*
D03*
Y-2198701D02*
D03*
Y-2592402D02*
D03*
X-948150Y557205D02*
D03*
X-1046575Y-427047D02*
D03*
X-1145000Y163504D02*
D03*
X-1440276Y-33346D02*
D03*
X-1341850Y-230197D02*
D03*
Y-623898D02*
D03*
X-1440276Y-820748D02*
D03*
Y-2001850D02*
D03*
Y-2395551D02*
D03*
X-410000Y-2495000D02*
D03*
X525000Y-1835000D02*
D03*
X-10000Y-2230000D02*
D03*
X405000Y-1940000D02*
D03*
X365000Y-2000000D02*
D03*
X-929518Y-2191042D02*
D03*
X-37494Y214998D02*
D03*
X-803000Y-238002D02*
D03*
X-840000Y334998D02*
D03*
X-1215000Y-180002D02*
D03*
X571694Y-1947206D02*
D03*
X34836Y-2031206D02*
D03*
X-558416Y-1577316D02*
D03*
X-525110Y-93892D02*
D03*
X-1106416Y-1295316D02*
D03*
X-936536Y67478D02*
D03*
X-726536Y-367522D02*
D03*
X-1056536Y-2437522D02*
D03*
X183464Y-1917522D02*
D03*
X533464Y-2317522D02*
D03*
X63464Y-2562522D02*
D03*
X-28308Y-2158978D02*
D03*
X-107048Y-2194412D02*
D03*
X137046Y-2158978D02*
D03*
X-564000Y77000D02*
D03*
%TF.MD5,de20301fb8b9d025849426112dd8b03b*%
M02*
