G04 Layer_Physical_Order=1*
G04 Layer_Color=255*
%FSLAX26Y26*%
%MOIN*%
%TF.FileFunction,Copper,L1,Top,Signal*%
%TF.Part,Single*%
G01*
G75*
%TA.AperFunction,SMDPad,CuDef*%
%ADD10R,0.037402X0.053150*%
%ADD11R,0.033465X0.051181*%
%TA.AperFunction,Conductor*%
%ADD12C,0.010000*%
%TA.AperFunction,ComponentPad*%
%ADD13C,0.157480*%
%ADD14C,0.060000*%
%TA.AperFunction,ViaPad*%
%ADD15C,0.060000*%
%TA.AperFunction,ComponentPad*%
%ADD16C,0.100000*%
%ADD17C,0.047000*%
%ADD18R,0.059055X0.059055*%
%ADD19C,0.059055*%
%ADD20R,0.070866X0.070866*%
%ADD21C,0.070866*%
%TA.AperFunction,ViaPad*%
%ADD22C,0.050000*%
%ADD23C,0.019685*%
G36*
X1981001Y1144000D02*
X1980999Y-2689001D01*
X-174243Y-2688999D01*
X-174244Y1144000D01*
X1981001Y1144000D01*
D02*
G37*
%LPC*%
G36*
X941306Y-1640457D02*
X938564Y-1641003D01*
X932001Y-1645388D01*
X927615Y-1651952D01*
X927202Y-1654027D01*
X922104D01*
X921691Y-1651952D01*
X917306Y-1645388D01*
X910742Y-1641003D01*
X908000Y-1640457D01*
Y-1659694D01*
X898000D01*
Y-1640457D01*
X895258Y-1641003D01*
X888695Y-1645388D01*
X884309Y-1651952D01*
X883895Y-1654032D01*
X878797D01*
X878383Y-1651952D01*
X873998Y-1645388D01*
X867434Y-1641003D01*
X864692Y-1640457D01*
Y-1659694D01*
X859692D01*
Y-1664694D01*
X840456D01*
X841001Y-1667436D01*
X845387Y-1673999D01*
X851950Y-1678385D01*
X854025Y-1678798D01*
Y-1683896D01*
X851950Y-1684309D01*
X845387Y-1688694D01*
X841001Y-1695258D01*
X840456Y-1698000D01*
X859692D01*
Y-1708000D01*
X840456D01*
X841001Y-1710742D01*
X845387Y-1717305D01*
X851950Y-1721691D01*
X854030Y-1722105D01*
Y-1727203D01*
X851950Y-1727617D01*
X845387Y-1732002D01*
X841001Y-1738566D01*
X840456Y-1741308D01*
X859692D01*
Y-1746308D01*
X864692D01*
Y-1765544D01*
X867434Y-1764999D01*
X873998Y-1760613D01*
X878383Y-1754050D01*
X878797Y-1751969D01*
X883895D01*
X884309Y-1754050D01*
X888695Y-1760613D01*
X895258Y-1764999D01*
X898000Y-1765544D01*
Y-1746308D01*
X908000D01*
Y-1765544D01*
X910742Y-1764999D01*
X917306Y-1760613D01*
X921691Y-1754050D01*
X922104Y-1751975D01*
X927202D01*
X927615Y-1754050D01*
X932001Y-1760613D01*
X938564Y-1764999D01*
X941306Y-1765544D01*
Y-1746308D01*
X946306D01*
Y-1741308D01*
X965543D01*
X964997Y-1738566D01*
X960612Y-1732002D01*
X954048Y-1727617D01*
X951968Y-1727203D01*
Y-1722105D01*
X954048Y-1721691D01*
X960612Y-1717305D01*
X964997Y-1710742D01*
X965543Y-1708000D01*
X946306D01*
Y-1698000D01*
X965543D01*
X964997Y-1695258D01*
X960612Y-1688694D01*
X954048Y-1684309D01*
X951973Y-1683896D01*
Y-1678798D01*
X954048Y-1678385D01*
X960612Y-1673999D01*
X964997Y-1667436D01*
X965543Y-1664694D01*
X946306D01*
Y-1659694D01*
X941306D01*
Y-1640457D01*
D02*
G37*
G36*
X-100000Y-1564698D02*
X-109137Y-1565901D01*
X-117651Y-1569428D01*
X-124962Y-1575038D01*
X-130572Y-1582349D01*
X-134099Y-1590863D01*
X-135302Y-1600000D01*
X-134099Y-1609137D01*
X-130572Y-1617651D01*
X-124962Y-1624962D01*
X-117651Y-1630572D01*
X-109137Y-1634099D01*
X-100000Y-1635302D01*
X-90863Y-1634099D01*
X-82349Y-1630572D01*
X-75038Y-1624962D01*
X-69428Y-1617651D01*
X-65901Y-1609137D01*
X-64698Y-1600000D01*
X-65901Y-1590863D01*
X-69428Y-1582349D01*
X-75038Y-1575038D01*
X-82349Y-1569428D01*
X-90863Y-1565901D01*
X-100000Y-1564698D01*
D02*
G37*
G36*
X951306Y-1640457D02*
Y-1654694D01*
X965543D01*
X964997Y-1651952D01*
X960612Y-1645388D01*
X954048Y-1641003D01*
X951306Y-1640457D01*
D02*
G37*
G36*
X410000Y-1607167D02*
X402169Y-1608198D01*
X394871Y-1611221D01*
X388604Y-1616030D01*
X383795Y-1622296D01*
X380772Y-1629594D01*
X379741Y-1637426D01*
X380772Y-1645257D01*
X383795Y-1652555D01*
X388604Y-1658822D01*
X394871Y-1663631D01*
X402169Y-1666654D01*
X410000Y-1667685D01*
X417832Y-1666654D01*
X425130Y-1663631D01*
X431397Y-1658822D01*
X436205Y-1652555D01*
X439228Y-1645257D01*
X440259Y-1637426D01*
X439228Y-1629594D01*
X436205Y-1622296D01*
X431397Y-1616030D01*
X425130Y-1611221D01*
X417832Y-1608198D01*
X410000Y-1607167D01*
D02*
G37*
G36*
X854692Y-1640457D02*
X851950Y-1641003D01*
X845387Y-1645388D01*
X841001Y-1651952D01*
X840456Y-1654694D01*
X854692D01*
Y-1640457D01*
D02*
G37*
G36*
X1255694Y-1515937D02*
X1247862Y-1516968D01*
X1240564Y-1519991D01*
X1234297Y-1524799D01*
X1229489Y-1531066D01*
X1226466Y-1538364D01*
X1225435Y-1546196D01*
X1226466Y-1554027D01*
X1229489Y-1561325D01*
X1234297Y-1567592D01*
X1240564Y-1572401D01*
X1247862Y-1575424D01*
X1255694Y-1576455D01*
X1263525Y-1575424D01*
X1270823Y-1572401D01*
X1277090Y-1567592D01*
X1281899Y-1561325D01*
X1284922Y-1554027D01*
X1285953Y-1546196D01*
X1284922Y-1538364D01*
X1281899Y-1531066D01*
X1277090Y-1524799D01*
X1270823Y-1519991D01*
X1263525Y-1516968D01*
X1255694Y-1515937D01*
D02*
G37*
G36*
X1080000Y-1509741D02*
X1072169Y-1510772D01*
X1064871Y-1513795D01*
X1058604Y-1518603D01*
X1053795Y-1524870D01*
X1050772Y-1532168D01*
X1049741Y-1540000D01*
X1050772Y-1547831D01*
X1053795Y-1555129D01*
X1058604Y-1561396D01*
X1064871Y-1566205D01*
X1072169Y-1569228D01*
X1080000Y-1570259D01*
X1087832Y-1569228D01*
X1095130Y-1566205D01*
X1101397Y-1561396D01*
X1106205Y-1555129D01*
X1109228Y-1547831D01*
X1110259Y-1540000D01*
X1109228Y-1532168D01*
X1106205Y-1524870D01*
X1101397Y-1518603D01*
X1095130Y-1513795D01*
X1087832Y-1510772D01*
X1080000Y-1509741D01*
D02*
G37*
G36*
X1900000Y-1564698D02*
X1890863Y-1565901D01*
X1882349Y-1569428D01*
X1875038Y-1575038D01*
X1869428Y-1582349D01*
X1865901Y-1590863D01*
X1864698Y-1600000D01*
X1865901Y-1609137D01*
X1869428Y-1617651D01*
X1875038Y-1624962D01*
X1882349Y-1630572D01*
X1890863Y-1634099D01*
X1900000Y-1635302D01*
X1909137Y-1634099D01*
X1917651Y-1630572D01*
X1924962Y-1624962D01*
X1930572Y-1617651D01*
X1934099Y-1609137D01*
X1935302Y-1600000D01*
X1934099Y-1590863D01*
X1930572Y-1582349D01*
X1924962Y-1575038D01*
X1917651Y-1569428D01*
X1909137Y-1565901D01*
X1900000Y-1564698D01*
D02*
G37*
G36*
X0D02*
X-9137Y-1565901D01*
X-17651Y-1569428D01*
X-24962Y-1575038D01*
X-30572Y-1582349D01*
X-34099Y-1590863D01*
X-35302Y-1600000D01*
X-34099Y-1609137D01*
X-30572Y-1617651D01*
X-24962Y-1624962D01*
X-17651Y-1630572D01*
X-9137Y-1634099D01*
X0Y-1635302D01*
X9137Y-1634099D01*
X17651Y-1630572D01*
X24962Y-1624962D01*
X30572Y-1617651D01*
X34099Y-1609137D01*
X35302Y-1600000D01*
X34099Y-1590863D01*
X30572Y-1582349D01*
X24962Y-1575038D01*
X17651Y-1569428D01*
X9137Y-1565901D01*
X0Y-1564698D01*
D02*
G37*
G36*
X1800000D02*
X1790863Y-1565901D01*
X1782349Y-1569428D01*
X1775038Y-1575038D01*
X1769428Y-1582349D01*
X1765901Y-1590863D01*
X1764698Y-1600000D01*
X1765901Y-1609137D01*
X1769428Y-1617651D01*
X1775038Y-1624962D01*
X1782349Y-1630572D01*
X1790863Y-1634099D01*
X1800000Y-1635302D01*
X1809137Y-1634099D01*
X1817651Y-1630572D01*
X1824962Y-1624962D01*
X1830572Y-1617651D01*
X1834099Y-1609137D01*
X1835302Y-1600000D01*
X1834099Y-1590863D01*
X1830572Y-1582349D01*
X1824962Y-1575038D01*
X1817651Y-1569428D01*
X1809137Y-1565901D01*
X1800000Y-1564698D01*
D02*
G37*
G36*
X1900000Y-1764698D02*
X1890863Y-1765901D01*
X1882349Y-1769428D01*
X1875038Y-1775038D01*
X1869428Y-1782349D01*
X1865901Y-1790863D01*
X1864698Y-1800000D01*
X1865901Y-1809137D01*
X1869428Y-1817651D01*
X1875038Y-1824962D01*
X1882349Y-1830572D01*
X1890863Y-1834099D01*
X1900000Y-1835302D01*
X1909137Y-1834099D01*
X1917651Y-1830572D01*
X1924962Y-1824962D01*
X1930572Y-1817651D01*
X1934099Y-1809137D01*
X1935302Y-1800000D01*
X1934099Y-1790863D01*
X1930572Y-1782349D01*
X1924962Y-1775038D01*
X1917651Y-1769428D01*
X1909137Y-1765901D01*
X1900000Y-1764698D01*
D02*
G37*
G36*
X854692Y-1751308D02*
X840456D01*
X841001Y-1754050D01*
X845387Y-1760613D01*
X851950Y-1764999D01*
X854692Y-1765544D01*
Y-1751308D01*
D02*
G37*
G36*
X1800000Y-1764698D02*
X1790863Y-1765901D01*
X1782349Y-1769428D01*
X1775038Y-1775038D01*
X1769428Y-1782349D01*
X1765901Y-1790863D01*
X1764698Y-1800000D01*
X1765901Y-1809137D01*
X1769428Y-1817651D01*
X1775038Y-1824962D01*
X1782349Y-1830572D01*
X1790863Y-1834099D01*
X1800000Y-1835302D01*
X1809137Y-1834099D01*
X1817651Y-1830572D01*
X1824962Y-1824962D01*
X1830572Y-1817651D01*
X1834099Y-1809137D01*
X1835302Y-1800000D01*
X1834099Y-1790863D01*
X1830572Y-1782349D01*
X1824962Y-1775038D01*
X1817651Y-1769428D01*
X1809137Y-1765901D01*
X1800000Y-1764698D01*
D02*
G37*
G36*
X-100000D02*
X-109137Y-1765901D01*
X-117651Y-1769428D01*
X-124962Y-1775038D01*
X-130572Y-1782349D01*
X-134099Y-1790863D01*
X-135302Y-1800000D01*
X-134099Y-1809137D01*
X-130572Y-1817651D01*
X-124962Y-1824962D01*
X-117651Y-1830572D01*
X-109137Y-1834099D01*
X-100000Y-1835302D01*
X-90863Y-1834099D01*
X-82349Y-1830572D01*
X-75038Y-1824962D01*
X-69428Y-1817651D01*
X-65901Y-1809137D01*
X-64698Y-1800000D01*
X-65901Y-1790863D01*
X-69428Y-1782349D01*
X-75038Y-1775038D01*
X-82349Y-1769428D01*
X-90863Y-1765901D01*
X-100000Y-1764698D01*
D02*
G37*
G36*
X0D02*
X-9137Y-1765901D01*
X-17651Y-1769428D01*
X-24962Y-1775038D01*
X-30572Y-1782349D01*
X-34099Y-1790863D01*
X-35302Y-1800000D01*
X-34099Y-1809137D01*
X-30572Y-1817651D01*
X-24962Y-1824962D01*
X-17651Y-1830572D01*
X-9137Y-1834099D01*
X0Y-1835302D01*
X9137Y-1834099D01*
X17651Y-1830572D01*
X24962Y-1824962D01*
X30572Y-1817651D01*
X34099Y-1809137D01*
X35302Y-1800000D01*
X34099Y-1790863D01*
X30572Y-1782349D01*
X24962Y-1775038D01*
X17651Y-1769428D01*
X9137Y-1765901D01*
X0Y-1764698D01*
D02*
G37*
G36*
Y-1664698D02*
X-9137Y-1665901D01*
X-17651Y-1669428D01*
X-24962Y-1675038D01*
X-30572Y-1682349D01*
X-34099Y-1690863D01*
X-35302Y-1700000D01*
X-34099Y-1709137D01*
X-30572Y-1717651D01*
X-24962Y-1724962D01*
X-17651Y-1730572D01*
X-9137Y-1734099D01*
X0Y-1735302D01*
X9137Y-1734099D01*
X17651Y-1730572D01*
X24962Y-1724962D01*
X30572Y-1717651D01*
X34099Y-1709137D01*
X35302Y-1700000D01*
X34099Y-1690863D01*
X30572Y-1682349D01*
X24962Y-1675038D01*
X17651Y-1669428D01*
X9137Y-1665901D01*
X0Y-1664698D01*
D02*
G37*
G36*
X1887813Y-1649804D02*
X1642586D01*
X1638685Y-1650580D01*
X1635377Y-1652790D01*
X1438363Y-1849804D01*
X1214785D01*
X1212741Y-1844870D01*
X1207932Y-1838603D01*
X1201666Y-1833795D01*
X1194368Y-1830772D01*
X1186536Y-1829741D01*
X1178705Y-1830772D01*
X1171407Y-1833795D01*
X1165140Y-1838603D01*
X1160331Y-1844870D01*
X1157308Y-1852168D01*
X1156277Y-1860000D01*
X1157308Y-1867831D01*
X1160331Y-1875129D01*
X1165140Y-1881396D01*
X1171407Y-1886205D01*
X1178705Y-1889228D01*
X1186536Y-1890259D01*
X1194368Y-1889228D01*
X1201666Y-1886205D01*
X1207932Y-1881396D01*
X1212741Y-1875129D01*
X1214785Y-1870196D01*
X1442586D01*
X1446488Y-1869420D01*
X1449796Y-1867209D01*
X1646810Y-1670196D01*
X1773570D01*
X1774650Y-1673379D01*
X1774916Y-1675196D01*
X1769428Y-1682349D01*
X1765901Y-1690863D01*
X1764698Y-1700000D01*
X1765901Y-1709137D01*
X1769428Y-1717651D01*
X1775038Y-1724962D01*
X1782349Y-1730572D01*
X1790863Y-1734099D01*
X1800000Y-1735302D01*
X1809137Y-1734099D01*
X1817651Y-1730572D01*
X1824962Y-1724962D01*
X1830572Y-1717651D01*
X1834099Y-1709137D01*
X1835302Y-1700000D01*
X1834099Y-1690863D01*
X1830572Y-1682349D01*
X1825084Y-1675196D01*
X1825350Y-1673379D01*
X1826430Y-1670196D01*
X1873570D01*
X1874650Y-1673379D01*
X1874916Y-1675196D01*
X1869428Y-1682349D01*
X1865901Y-1690863D01*
X1864698Y-1700000D01*
X1865901Y-1709137D01*
X1869428Y-1717651D01*
X1875038Y-1724962D01*
X1882349Y-1730572D01*
X1890863Y-1734099D01*
X1900000Y-1735302D01*
X1909137Y-1734099D01*
X1917651Y-1730572D01*
X1924962Y-1724962D01*
X1930572Y-1717651D01*
X1934099Y-1709137D01*
X1935302Y-1700000D01*
X1934099Y-1690863D01*
X1930572Y-1682349D01*
X1924962Y-1675038D01*
X1917651Y-1669428D01*
X1909137Y-1665901D01*
X1907461Y-1665680D01*
X1906553Y-1664322D01*
X1895022Y-1652790D01*
X1891714Y-1650580D01*
X1887813Y-1649804D01*
D02*
G37*
G36*
X-100000Y-1664698D02*
X-109137Y-1665901D01*
X-117651Y-1669428D01*
X-124962Y-1675038D01*
X-130572Y-1682349D01*
X-134099Y-1690863D01*
X-135302Y-1700000D01*
X-134099Y-1709137D01*
X-130572Y-1717651D01*
X-124962Y-1724962D01*
X-117651Y-1730572D01*
X-109137Y-1734099D01*
X-100000Y-1735302D01*
X-90863Y-1734099D01*
X-82349Y-1730572D01*
X-75038Y-1724962D01*
X-69428Y-1717651D01*
X-65901Y-1709137D01*
X-64698Y-1700000D01*
X-65901Y-1690863D01*
X-69428Y-1682349D01*
X-75038Y-1675038D01*
X-82349Y-1669428D01*
X-90863Y-1665901D01*
X-100000Y-1664698D01*
D02*
G37*
G36*
X965543Y-1751308D02*
X951306D01*
Y-1765544D01*
X954048Y-1764999D01*
X960612Y-1760613D01*
X964997Y-1754050D01*
X965543Y-1751308D01*
D02*
G37*
G36*
X1444566Y-1685741D02*
X1436735Y-1686772D01*
X1429437Y-1689795D01*
X1423170Y-1694603D01*
X1418361Y-1700870D01*
X1415338Y-1708168D01*
X1414307Y-1716000D01*
X1415338Y-1723831D01*
X1418361Y-1731129D01*
X1423170Y-1737396D01*
X1429437Y-1742205D01*
X1436735Y-1745228D01*
X1444566Y-1746259D01*
X1452398Y-1745228D01*
X1459696Y-1742205D01*
X1465963Y-1737396D01*
X1470771Y-1731129D01*
X1473794Y-1723831D01*
X1474825Y-1716000D01*
X1473794Y-1708168D01*
X1470771Y-1700870D01*
X1465963Y-1694603D01*
X1459696Y-1689795D01*
X1452398Y-1686772D01*
X1444566Y-1685741D01*
D02*
G37*
G36*
X-100000Y-1464698D02*
X-109137Y-1465901D01*
X-117651Y-1469428D01*
X-124962Y-1475038D01*
X-130572Y-1482349D01*
X-134099Y-1490863D01*
X-135302Y-1500000D01*
X-134099Y-1509137D01*
X-130572Y-1517651D01*
X-124962Y-1524962D01*
X-117651Y-1530572D01*
X-109137Y-1534099D01*
X-100000Y-1535302D01*
X-90863Y-1534099D01*
X-82349Y-1530572D01*
X-75038Y-1524962D01*
X-69428Y-1517651D01*
X-65901Y-1509137D01*
X-64698Y-1500000D01*
X-65901Y-1490863D01*
X-69428Y-1482349D01*
X-75038Y-1475038D01*
X-82349Y-1469428D01*
X-90863Y-1465901D01*
X-100000Y-1464698D01*
D02*
G37*
G36*
X399882Y-1084464D02*
X319016D01*
Y-1165330D01*
X399882D01*
Y-1084464D01*
D02*
G37*
G36*
X620000Y-569741D02*
X612169Y-570772D01*
X604871Y-573795D01*
X598604Y-578604D01*
X593795Y-584870D01*
X590772Y-592168D01*
X589741Y-600000D01*
X590772Y-607831D01*
X593795Y-615129D01*
X598604Y-621396D01*
X604871Y-626205D01*
X612169Y-629228D01*
X620000Y-630259D01*
X627832Y-629228D01*
X635130Y-626205D01*
X641396Y-621396D01*
X646205Y-615129D01*
X648249Y-610196D01*
X1080041D01*
X1440817Y-970972D01*
X1438776Y-976003D01*
X1432935Y-976772D01*
X1425637Y-979795D01*
X1419370Y-984604D01*
X1414561Y-990870D01*
X1411539Y-998168D01*
X1410507Y-1006000D01*
X1411539Y-1013831D01*
X1414561Y-1021129D01*
X1419370Y-1027396D01*
X1425637Y-1032205D01*
X1430571Y-1034248D01*
Y-1084464D01*
X1400118D01*
Y-1165330D01*
X1480984D01*
Y-1084464D01*
X1450962D01*
Y-1034248D01*
X1455896Y-1032205D01*
X1462163Y-1027396D01*
X1466971Y-1021129D01*
X1469994Y-1013831D01*
X1470763Y-1007990D01*
X1475794Y-1005949D01*
X1499922Y-1030078D01*
Y-1094464D01*
X1500118Y-1095449D01*
Y-1165330D01*
X1580984D01*
Y-1084464D01*
X1520314D01*
Y-1025854D01*
X1519538Y-1021953D01*
X1517328Y-1018645D01*
X1091473Y-592790D01*
X1088166Y-590580D01*
X1084264Y-589804D01*
X648249D01*
X646205Y-584870D01*
X641396Y-578604D01*
X635130Y-573795D01*
X627832Y-570772D01*
X620000Y-569741D01*
D02*
G37*
G36*
X1900000Y-1164698D02*
X1890863Y-1165901D01*
X1882349Y-1169428D01*
X1875038Y-1175038D01*
X1869428Y-1182349D01*
X1865901Y-1190863D01*
X1864698Y-1200000D01*
X1865901Y-1209137D01*
X1869428Y-1217651D01*
X1875038Y-1224962D01*
X1882349Y-1230572D01*
X1890863Y-1234099D01*
X1900000Y-1235302D01*
X1909137Y-1234099D01*
X1917651Y-1230572D01*
X1924962Y-1224962D01*
X1930572Y-1217651D01*
X1934099Y-1209137D01*
X1935302Y-1200000D01*
X1934099Y-1190863D01*
X1930572Y-1182349D01*
X1924962Y-1175038D01*
X1917651Y-1169428D01*
X1909137Y-1165901D01*
X1900000Y-1164698D01*
D02*
G37*
G36*
X0D02*
X-9137Y-1165901D01*
X-17651Y-1169428D01*
X-24962Y-1175038D01*
X-30572Y-1182349D01*
X-34099Y-1190863D01*
X-35302Y-1200000D01*
X-34099Y-1209137D01*
X-30572Y-1217651D01*
X-24962Y-1224962D01*
X-17651Y-1230572D01*
X-9137Y-1234099D01*
X0Y-1235302D01*
X9137Y-1234099D01*
X17651Y-1230572D01*
X24962Y-1224962D01*
X30572Y-1217651D01*
X34099Y-1209137D01*
X35302Y-1200000D01*
X34099Y-1190863D01*
X30572Y-1182349D01*
X24962Y-1175038D01*
X17651Y-1169428D01*
X9137Y-1165901D01*
X0Y-1164698D01*
D02*
G37*
G36*
X1800000D02*
X1790863Y-1165901D01*
X1782349Y-1169428D01*
X1775038Y-1175038D01*
X1769428Y-1182349D01*
X1765901Y-1190863D01*
X1764698Y-1200000D01*
X1765901Y-1209137D01*
X1769428Y-1217651D01*
X1775038Y-1224962D01*
X1782349Y-1230572D01*
X1790863Y-1234099D01*
X1800000Y-1235302D01*
X1809137Y-1234099D01*
X1817651Y-1230572D01*
X1824962Y-1224962D01*
X1830572Y-1217651D01*
X1834099Y-1209137D01*
X1835302Y-1200000D01*
X1834099Y-1190863D01*
X1830572Y-1182349D01*
X1824962Y-1175038D01*
X1817651Y-1169428D01*
X1809137Y-1165901D01*
X1800000Y-1164698D01*
D02*
G37*
G36*
X0Y-1064698D02*
X-9137Y-1065901D01*
X-17651Y-1069428D01*
X-24962Y-1075038D01*
X-30572Y-1082349D01*
X-34099Y-1090863D01*
X-35302Y-1100000D01*
X-34099Y-1109137D01*
X-30572Y-1117651D01*
X-24962Y-1124962D01*
X-17651Y-1130572D01*
X-9137Y-1134099D01*
X0Y-1135302D01*
X9137Y-1134099D01*
X17651Y-1130572D01*
X24962Y-1124962D01*
X30572Y-1117651D01*
X34099Y-1109137D01*
X35302Y-1100000D01*
X34099Y-1090863D01*
X30572Y-1082349D01*
X24962Y-1075038D01*
X17651Y-1069428D01*
X9137Y-1065901D01*
X0Y-1064698D01*
D02*
G37*
G36*
X1800000D02*
X1790863Y-1065901D01*
X1782349Y-1069428D01*
X1775038Y-1075038D01*
X1769428Y-1082349D01*
X1765901Y-1090863D01*
X1764698Y-1100000D01*
X1765901Y-1109137D01*
X1769428Y-1117651D01*
X1775038Y-1124962D01*
X1782349Y-1130572D01*
X1790863Y-1134099D01*
X1800000Y-1135302D01*
X1809137Y-1134099D01*
X1817651Y-1130572D01*
X1824962Y-1124962D01*
X1830572Y-1117651D01*
X1834099Y-1109137D01*
X1835302Y-1100000D01*
X1834099Y-1090863D01*
X1830572Y-1082349D01*
X1824962Y-1075038D01*
X1817651Y-1069428D01*
X1809137Y-1065901D01*
X1800000Y-1064698D01*
D02*
G37*
G36*
X-100000D02*
X-109137Y-1065901D01*
X-117651Y-1069428D01*
X-124962Y-1075038D01*
X-130572Y-1082349D01*
X-134099Y-1090863D01*
X-135302Y-1100000D01*
X-134099Y-1109137D01*
X-130572Y-1117651D01*
X-124962Y-1124962D01*
X-117651Y-1130572D01*
X-109137Y-1134099D01*
X-100000Y-1135302D01*
X-90863Y-1134099D01*
X-82349Y-1130572D01*
X-75038Y-1124962D01*
X-69428Y-1117651D01*
X-65901Y-1109137D01*
X-64698Y-1100000D01*
X-65901Y-1090863D01*
X-69428Y-1082349D01*
X-75038Y-1075038D01*
X-82349Y-1069428D01*
X-90863Y-1065901D01*
X-100000Y-1064698D01*
D02*
G37*
G36*
X851692Y-1148308D02*
X837456D01*
X838001Y-1151050D01*
X842387Y-1157613D01*
X848950Y-1161999D01*
X851692Y-1162544D01*
Y-1148308D01*
D02*
G37*
G36*
X962543D02*
X948306D01*
Y-1162544D01*
X951048Y-1161999D01*
X957612Y-1157613D01*
X961997Y-1151050D01*
X962543Y-1148308D01*
D02*
G37*
G36*
X0Y-1364698D02*
X-9137Y-1365901D01*
X-17651Y-1369428D01*
X-24962Y-1375038D01*
X-30572Y-1382349D01*
X-34099Y-1390863D01*
X-35302Y-1400000D01*
X-34099Y-1409137D01*
X-30572Y-1417651D01*
X-24962Y-1424962D01*
X-17651Y-1430572D01*
X-9137Y-1434099D01*
X0Y-1435302D01*
X9137Y-1434099D01*
X17651Y-1430572D01*
X24962Y-1424962D01*
X30572Y-1417651D01*
X34099Y-1409137D01*
X35302Y-1400000D01*
X34099Y-1390863D01*
X30572Y-1382349D01*
X24962Y-1375038D01*
X17651Y-1369428D01*
X9137Y-1365901D01*
X0Y-1364698D01*
D02*
G37*
G36*
X1800000D02*
X1790863Y-1365901D01*
X1782349Y-1369428D01*
X1775038Y-1375038D01*
X1769428Y-1382349D01*
X1765901Y-1390863D01*
X1764698Y-1400000D01*
X1765901Y-1409137D01*
X1769428Y-1417651D01*
X1775038Y-1424962D01*
X1782349Y-1430572D01*
X1790863Y-1434099D01*
X1800000Y-1435302D01*
X1809137Y-1434099D01*
X1817651Y-1430572D01*
X1824962Y-1424962D01*
X1830572Y-1417651D01*
X1834099Y-1409137D01*
X1835302Y-1400000D01*
X1834099Y-1390863D01*
X1830572Y-1382349D01*
X1824962Y-1375038D01*
X1817651Y-1369428D01*
X1809137Y-1365901D01*
X1800000Y-1364698D01*
D02*
G37*
G36*
X1900000Y-1464698D02*
X1890863Y-1465901D01*
X1882349Y-1469428D01*
X1875038Y-1475038D01*
X1869428Y-1482349D01*
X1865901Y-1490863D01*
X1864698Y-1500000D01*
X1865901Y-1509137D01*
X1869428Y-1517651D01*
X1875038Y-1524962D01*
X1882349Y-1530572D01*
X1890863Y-1534099D01*
X1900000Y-1535302D01*
X1909137Y-1534099D01*
X1917651Y-1530572D01*
X1924962Y-1524962D01*
X1930572Y-1517651D01*
X1934099Y-1509137D01*
X1935302Y-1500000D01*
X1934099Y-1490863D01*
X1930572Y-1482349D01*
X1924962Y-1475038D01*
X1917651Y-1469428D01*
X1909137Y-1465901D01*
X1900000Y-1464698D01*
D02*
G37*
G36*
X0D02*
X-9137Y-1465901D01*
X-17651Y-1469428D01*
X-24962Y-1475038D01*
X-30572Y-1482349D01*
X-34099Y-1490863D01*
X-35302Y-1500000D01*
X-34099Y-1509137D01*
X-30572Y-1517651D01*
X-24962Y-1524962D01*
X-17651Y-1530572D01*
X-9137Y-1534099D01*
X0Y-1535302D01*
X9137Y-1534099D01*
X17651Y-1530572D01*
X24962Y-1524962D01*
X30572Y-1517651D01*
X34099Y-1509137D01*
X35302Y-1500000D01*
X34099Y-1490863D01*
X30572Y-1482349D01*
X24962Y-1475038D01*
X17651Y-1469428D01*
X9137Y-1465901D01*
X0Y-1464698D01*
D02*
G37*
G36*
X1800000D02*
X1790863Y-1465901D01*
X1782349Y-1469428D01*
X1775038Y-1475038D01*
X1769428Y-1482349D01*
X1765901Y-1490863D01*
X1764698Y-1500000D01*
X1765901Y-1509137D01*
X1769428Y-1517651D01*
X1775038Y-1524962D01*
X1782349Y-1530572D01*
X1790863Y-1534099D01*
X1800000Y-1535302D01*
X1809137Y-1534099D01*
X1817651Y-1530572D01*
X1824962Y-1524962D01*
X1830572Y-1517651D01*
X1834099Y-1509137D01*
X1835302Y-1500000D01*
X1834099Y-1490863D01*
X1830572Y-1482349D01*
X1824962Y-1475038D01*
X1817651Y-1469428D01*
X1809137Y-1465901D01*
X1800000Y-1464698D01*
D02*
G37*
G36*
X1900000Y-1264698D02*
X1890863Y-1265901D01*
X1882349Y-1269428D01*
X1875038Y-1275038D01*
X1869428Y-1282349D01*
X1865901Y-1290863D01*
X1864698Y-1300000D01*
X1865901Y-1309137D01*
X1869428Y-1317651D01*
X1875038Y-1324962D01*
X1882349Y-1330572D01*
X1890863Y-1334099D01*
X1900000Y-1335302D01*
X1909137Y-1334099D01*
X1917651Y-1330572D01*
X1924962Y-1324962D01*
X1930572Y-1317651D01*
X1934099Y-1309137D01*
X1935302Y-1300000D01*
X1934099Y-1290863D01*
X1930572Y-1282349D01*
X1924962Y-1275038D01*
X1917651Y-1269428D01*
X1909137Y-1265901D01*
X1900000Y-1264698D01*
D02*
G37*
G36*
X-100000Y-1164698D02*
X-109137Y-1165901D01*
X-117651Y-1169428D01*
X-124962Y-1175038D01*
X-130572Y-1182349D01*
X-134099Y-1190863D01*
X-135302Y-1200000D01*
X-134099Y-1209137D01*
X-130572Y-1217651D01*
X-124962Y-1224962D01*
X-117651Y-1230572D01*
X-109137Y-1234099D01*
X-100000Y-1235302D01*
X-90863Y-1234099D01*
X-82349Y-1230572D01*
X-75038Y-1224962D01*
X-69428Y-1217651D01*
X-65901Y-1209137D01*
X-64698Y-1200000D01*
X-65901Y-1190863D01*
X-69428Y-1182349D01*
X-75038Y-1175038D01*
X-82349Y-1169428D01*
X-90863Y-1165901D01*
X-100000Y-1164698D01*
D02*
G37*
G36*
Y-1264698D02*
X-109137Y-1265901D01*
X-117651Y-1269428D01*
X-124962Y-1275038D01*
X-130572Y-1282349D01*
X-134099Y-1290863D01*
X-135302Y-1300000D01*
X-134099Y-1309137D01*
X-130572Y-1317651D01*
X-124962Y-1324962D01*
X-117651Y-1330572D01*
X-109137Y-1334099D01*
X-100000Y-1335302D01*
X-90863Y-1334099D01*
X-82349Y-1330572D01*
X-75038Y-1324962D01*
X-69428Y-1317651D01*
X-65901Y-1309137D01*
X-64698Y-1300000D01*
X-65901Y-1290863D01*
X-69428Y-1282349D01*
X-75038Y-1275038D01*
X-82349Y-1269428D01*
X-90863Y-1265901D01*
X-100000Y-1264698D01*
D02*
G37*
G36*
X1090000Y-909741D02*
X1082169Y-910772D01*
X1074871Y-913795D01*
X1068604Y-918604D01*
X1063795Y-924870D01*
X1060772Y-932168D01*
X1059741Y-940000D01*
X1060772Y-947831D01*
X1063795Y-955129D01*
X1068604Y-961396D01*
X1074871Y-966205D01*
X1082169Y-969228D01*
X1090000Y-970259D01*
X1097832Y-969228D01*
X1102765Y-967184D01*
X1482791Y-1347210D01*
X1486099Y-1349420D01*
X1490000Y-1350196D01*
X1835777D01*
X1868989Y-1383408D01*
X1865901Y-1390863D01*
X1864698Y-1400000D01*
X1865901Y-1409137D01*
X1869428Y-1417651D01*
X1875038Y-1424962D01*
X1882349Y-1430572D01*
X1890863Y-1434099D01*
X1900000Y-1435302D01*
X1909137Y-1434099D01*
X1917651Y-1430572D01*
X1924962Y-1424962D01*
X1930572Y-1417651D01*
X1934099Y-1409137D01*
X1935302Y-1400000D01*
X1934099Y-1390863D01*
X1930572Y-1382349D01*
X1924962Y-1375038D01*
X1917651Y-1369428D01*
X1909137Y-1365901D01*
X1900000Y-1364698D01*
X1890863Y-1365901D01*
X1883408Y-1368989D01*
X1847210Y-1332790D01*
X1843902Y-1330580D01*
X1840000Y-1329804D01*
X1826430D01*
X1825350Y-1326621D01*
X1825084Y-1324804D01*
X1830572Y-1317651D01*
X1834099Y-1309137D01*
X1835302Y-1300000D01*
X1834099Y-1290863D01*
X1830572Y-1282349D01*
X1824962Y-1275038D01*
X1817651Y-1269428D01*
X1809137Y-1265901D01*
X1800000Y-1264698D01*
X1790863Y-1265901D01*
X1782349Y-1269428D01*
X1775038Y-1275038D01*
X1769428Y-1282349D01*
X1765901Y-1290863D01*
X1764698Y-1300000D01*
X1765901Y-1309137D01*
X1769428Y-1317651D01*
X1774916Y-1324804D01*
X1774650Y-1326621D01*
X1773570Y-1329804D01*
X1494224D01*
X1117185Y-952765D01*
X1119228Y-947831D01*
X1120259Y-940000D01*
X1119228Y-932168D01*
X1116205Y-924870D01*
X1111397Y-918604D01*
X1105130Y-913795D01*
X1097832Y-910772D01*
X1090000Y-909741D01*
D02*
G37*
G36*
X714566Y-1309741D02*
X706735Y-1310772D01*
X699437Y-1313795D01*
X693170Y-1318603D01*
X688361Y-1324870D01*
X685338Y-1332168D01*
X684307Y-1340000D01*
X685338Y-1347831D01*
X688361Y-1355129D01*
X693170Y-1361396D01*
X699437Y-1366205D01*
X706735Y-1369228D01*
X714566Y-1370259D01*
X722398Y-1369228D01*
X729696Y-1366205D01*
X735962Y-1361396D01*
X740771Y-1355129D01*
X743794Y-1347831D01*
X744825Y-1340000D01*
X743794Y-1332168D01*
X740771Y-1324870D01*
X735962Y-1318603D01*
X729696Y-1313795D01*
X722398Y-1310772D01*
X714566Y-1309741D01*
D02*
G37*
G36*
X1900000Y-1864698D02*
X1890863Y-1865901D01*
X1882349Y-1869428D01*
X1875038Y-1875038D01*
X1869428Y-1882349D01*
X1865901Y-1890863D01*
X1864698Y-1900000D01*
X1865901Y-1909137D01*
X1869428Y-1917651D01*
X1875038Y-1924962D01*
X1882349Y-1930572D01*
X1890863Y-1934099D01*
X1900000Y-1935302D01*
X1909137Y-1934099D01*
X1917651Y-1930572D01*
X1924962Y-1924962D01*
X1930572Y-1917651D01*
X1934099Y-1909137D01*
X1935302Y-1900000D01*
X1934099Y-1890863D01*
X1930572Y-1882349D01*
X1924962Y-1875038D01*
X1917651Y-1869428D01*
X1909137Y-1865901D01*
X1900000Y-1864698D01*
D02*
G37*
G36*
X39687Y-2205000D02*
X5000D01*
Y-2239687D01*
X10442Y-2238970D01*
X20173Y-2234940D01*
X28528Y-2228528D01*
X34940Y-2220173D01*
X38971Y-2210442D01*
X39687Y-2205000D01*
D02*
G37*
G36*
X1800000Y-2164698D02*
X1790863Y-2165901D01*
X1782349Y-2169428D01*
X1775038Y-2175038D01*
X1769428Y-2182349D01*
X1765901Y-2190863D01*
X1764698Y-2200000D01*
X1765901Y-2209137D01*
X1769428Y-2217651D01*
X1775038Y-2224962D01*
X1782349Y-2230572D01*
X1790863Y-2234099D01*
X1800000Y-2235302D01*
X1809137Y-2234099D01*
X1817651Y-2230572D01*
X1824962Y-2224962D01*
X1830572Y-2217651D01*
X1834099Y-2209137D01*
X1835302Y-2200000D01*
X1834099Y-2190863D01*
X1830572Y-2182349D01*
X1824962Y-2175038D01*
X1817651Y-2169428D01*
X1809137Y-2165901D01*
X1800000Y-2164698D01*
D02*
G37*
G36*
X-60313Y-2205000D02*
X-95000D01*
Y-2239687D01*
X-89558Y-2238970D01*
X-79827Y-2234940D01*
X-71472Y-2228528D01*
X-65060Y-2220173D01*
X-61029Y-2210442D01*
X-60313Y-2205000D01*
D02*
G37*
G36*
X-105000D02*
X-139687D01*
X-138970Y-2210442D01*
X-134940Y-2220173D01*
X-128528Y-2228528D01*
X-120173Y-2234940D01*
X-110442Y-2238970D01*
X-105000Y-2239687D01*
Y-2205000D01*
D02*
G37*
G36*
X-5000D02*
X-39687D01*
X-38971Y-2210442D01*
X-34940Y-2220173D01*
X-28528Y-2228528D01*
X-20173Y-2234940D01*
X-10442Y-2238970D01*
X-5000Y-2239687D01*
Y-2205000D01*
D02*
G37*
G36*
Y-2160313D02*
X-10442Y-2161030D01*
X-20173Y-2165060D01*
X-28528Y-2171472D01*
X-34940Y-2179827D01*
X-38971Y-2189558D01*
X-39687Y-2195000D01*
X-5000D01*
Y-2160313D01*
D02*
G37*
G36*
X-95000Y-2160313D02*
Y-2195000D01*
X-60313D01*
X-61029Y-2189558D01*
X-65060Y-2179827D01*
X-71472Y-2171472D01*
X-79827Y-2165060D01*
X-89558Y-2161030D01*
X-95000Y-2160313D01*
D02*
G37*
G36*
X-105000Y-2160313D02*
X-110442Y-2161030D01*
X-120173Y-2165060D01*
X-128528Y-2171472D01*
X-134940Y-2179827D01*
X-138970Y-2189558D01*
X-139687Y-2195000D01*
X-105000D01*
Y-2160313D01*
D02*
G37*
G36*
X1900000Y-2164698D02*
X1890863Y-2165901D01*
X1882349Y-2169428D01*
X1875038Y-2175038D01*
X1869428Y-2182349D01*
X1865901Y-2190863D01*
X1864698Y-2200000D01*
X1865901Y-2209137D01*
X1869428Y-2217651D01*
X1875038Y-2224962D01*
X1882349Y-2230572D01*
X1890863Y-2234099D01*
X1900000Y-2235302D01*
X1909137Y-2234099D01*
X1917651Y-2230572D01*
X1924962Y-2224962D01*
X1930572Y-2217651D01*
X1934099Y-2209137D01*
X1935302Y-2200000D01*
X1934099Y-2190863D01*
X1930572Y-2182349D01*
X1924962Y-2175038D01*
X1917651Y-2169428D01*
X1909137Y-2165901D01*
X1900000Y-2164698D01*
D02*
G37*
G36*
X640000Y-1975741D02*
X632169Y-1976772D01*
X624871Y-1979795D01*
X618604Y-1984603D01*
X613795Y-1990870D01*
X610772Y-1998168D01*
X609741Y-2006000D01*
X610772Y-2013831D01*
X613795Y-2021129D01*
X618604Y-2027396D01*
X624871Y-2032205D01*
X632169Y-2035228D01*
X640000Y-2036259D01*
X647832Y-2035228D01*
X655130Y-2032205D01*
X661396Y-2027396D01*
X666205Y-2021129D01*
X668249Y-2016196D01*
X1386328D01*
X1480699Y-2110567D01*
X1478628Y-2115567D01*
X1476960Y-2115567D01*
X1400118D01*
Y-2196433D01*
X1480984D01*
Y-2119743D01*
X1480985Y-2117923D01*
X1485984Y-2115852D01*
X1500118Y-2129986D01*
Y-2196433D01*
X1580984D01*
Y-2115567D01*
X1514538D01*
X1397761Y-1998790D01*
X1394453Y-1996580D01*
X1390551Y-1995804D01*
X668249D01*
X666205Y-1990870D01*
X661396Y-1984603D01*
X655130Y-1979795D01*
X647832Y-1976772D01*
X640000Y-1975741D01*
D02*
G37*
G36*
X851692Y-2354308D02*
X837456D01*
X838001Y-2357050D01*
X842387Y-2363613D01*
X848950Y-2367999D01*
X851692Y-2368544D01*
Y-2354308D01*
D02*
G37*
G36*
X962543D02*
X948306D01*
Y-2368544D01*
X951048Y-2367999D01*
X957612Y-2363613D01*
X961997Y-2357050D01*
X962543Y-2354308D01*
D02*
G37*
G36*
X399882Y-2115567D02*
X319016D01*
Y-2196433D01*
X385463D01*
X474836Y-2285806D01*
Y-2393193D01*
X469903Y-2395237D01*
X463636Y-2400046D01*
X458827Y-2406312D01*
X455804Y-2413610D01*
X455035Y-2419452D01*
X450004Y-2421492D01*
X300078Y-2271566D01*
Y-2186433D01*
X299882Y-2185448D01*
Y-2115567D01*
X219016D01*
Y-2196433D01*
X279686D01*
Y-2275789D01*
X280462Y-2279691D01*
X282672Y-2282999D01*
X585891Y-2586218D01*
X589199Y-2588428D01*
X593101Y-2589204D01*
X970992D01*
X974894Y-2588428D01*
X978202Y-2586218D01*
X1087235Y-2477184D01*
X1092169Y-2479228D01*
X1100000Y-2480259D01*
X1107832Y-2479228D01*
X1115130Y-2476205D01*
X1121397Y-2471396D01*
X1126205Y-2465129D01*
X1129228Y-2457831D01*
X1130259Y-2450000D01*
X1129228Y-2442168D01*
X1126205Y-2434870D01*
X1121397Y-2428604D01*
X1115130Y-2423795D01*
X1107832Y-2420772D01*
X1100000Y-2419741D01*
X1092169Y-2420772D01*
X1084871Y-2423795D01*
X1078604Y-2428604D01*
X1073795Y-2434870D01*
X1070772Y-2442168D01*
X1069741Y-2450000D01*
X1070772Y-2457831D01*
X1072816Y-2462765D01*
X966769Y-2568812D01*
X732213D01*
X730098Y-2563812D01*
X733685Y-2559137D01*
X736708Y-2551840D01*
X737739Y-2544008D01*
X736708Y-2536176D01*
X733685Y-2528878D01*
X728877Y-2522612D01*
X722610Y-2517803D01*
X715312Y-2514780D01*
X707480Y-2513749D01*
X699649Y-2514780D01*
X692351Y-2517803D01*
X686084Y-2522612D01*
X681275Y-2528878D01*
X678252Y-2536176D01*
X677221Y-2544008D01*
X678252Y-2551840D01*
X681275Y-2559137D01*
X684862Y-2563812D01*
X682748Y-2568812D01*
X597324D01*
X484982Y-2456470D01*
X487022Y-2451439D01*
X492864Y-2450670D01*
X500162Y-2447647D01*
X506428Y-2442838D01*
X511237Y-2436571D01*
X514260Y-2429273D01*
X515291Y-2421442D01*
X514260Y-2413610D01*
X511237Y-2406312D01*
X506428Y-2400046D01*
X500162Y-2395237D01*
X495228Y-2393193D01*
Y-2281583D01*
X494452Y-2277681D01*
X492242Y-2274373D01*
X399882Y-2182014D01*
Y-2115567D01*
D02*
G37*
G36*
X75000Y-2315855D02*
X58584Y-2317472D01*
X42799Y-2322260D01*
X28251Y-2330036D01*
X15500Y-2340500D01*
X5036Y-2353251D01*
X-2740Y-2367799D01*
X-7529Y-2383584D01*
X-9145Y-2400000D01*
X-7529Y-2416416D01*
X-2740Y-2432201D01*
X5036Y-2446749D01*
X15500Y-2459500D01*
X28251Y-2469964D01*
X42799Y-2477740D01*
X58584Y-2482528D01*
X75000Y-2484145D01*
X91416Y-2482528D01*
X107201Y-2477740D01*
X121749Y-2469964D01*
X134500Y-2459500D01*
X144964Y-2446749D01*
X152740Y-2432201D01*
X157529Y-2416416D01*
X159145Y-2400000D01*
X157529Y-2383584D01*
X152740Y-2367799D01*
X144964Y-2353251D01*
X134500Y-2340500D01*
X121749Y-2330036D01*
X107201Y-2322260D01*
X91416Y-2317472D01*
X75000Y-2315855D01*
D02*
G37*
G36*
X1725000D02*
X1708584Y-2317472D01*
X1692799Y-2322260D01*
X1678251Y-2330036D01*
X1665500Y-2340500D01*
X1655036Y-2353251D01*
X1647260Y-2367799D01*
X1642472Y-2383584D01*
X1640855Y-2400000D01*
X1642472Y-2416416D01*
X1647260Y-2432201D01*
X1655036Y-2446749D01*
X1665500Y-2459500D01*
X1678251Y-2469964D01*
X1692799Y-2477740D01*
X1708584Y-2482528D01*
X1725000Y-2484145D01*
X1741416Y-2482528D01*
X1757201Y-2477740D01*
X1771749Y-2469964D01*
X1784500Y-2459500D01*
X1794964Y-2446749D01*
X1802740Y-2432201D01*
X1807528Y-2416416D01*
X1809145Y-2400000D01*
X1807528Y-2383584D01*
X1802740Y-2367799D01*
X1794964Y-2353251D01*
X1784500Y-2340500D01*
X1771749Y-2330036D01*
X1757201Y-2322260D01*
X1741416Y-2317472D01*
X1725000Y-2315855D01*
D02*
G37*
G36*
X948306Y-2243457D02*
Y-2257694D01*
X962543D01*
X961997Y-2254952D01*
X957612Y-2248388D01*
X951048Y-2244003D01*
X948306Y-2243457D01*
D02*
G37*
G36*
X938306D02*
X935564Y-2244003D01*
X929001Y-2248388D01*
X924615Y-2254952D01*
X924202Y-2257027D01*
X919104D01*
X918691Y-2254952D01*
X914306Y-2248388D01*
X907742Y-2244003D01*
X905000Y-2243457D01*
Y-2262694D01*
X895000D01*
Y-2243457D01*
X892258Y-2244003D01*
X885695Y-2248388D01*
X881309Y-2254952D01*
X880895Y-2257032D01*
X875797D01*
X875383Y-2254952D01*
X870998Y-2248388D01*
X864434Y-2244003D01*
X861692Y-2243457D01*
Y-2262694D01*
X856692D01*
Y-2267694D01*
X837456D01*
X838001Y-2270436D01*
X842387Y-2276999D01*
X848950Y-2281385D01*
X851025Y-2281798D01*
Y-2286896D01*
X848950Y-2287309D01*
X842387Y-2291694D01*
X838001Y-2298258D01*
X837456Y-2301000D01*
X856692D01*
Y-2311000D01*
X837456D01*
X838001Y-2313742D01*
X842387Y-2320305D01*
X848950Y-2324691D01*
X851030Y-2325105D01*
Y-2330203D01*
X848950Y-2330617D01*
X842387Y-2335002D01*
X838001Y-2341566D01*
X837456Y-2344308D01*
X856692D01*
Y-2349308D01*
X861692D01*
Y-2368544D01*
X864434Y-2367999D01*
X870998Y-2363613D01*
X875383Y-2357050D01*
X875797Y-2354970D01*
X880895D01*
X881309Y-2357050D01*
X885695Y-2363613D01*
X892258Y-2367999D01*
X895000Y-2368544D01*
Y-2349308D01*
X905000D01*
Y-2368544D01*
X907742Y-2367999D01*
X914306Y-2363613D01*
X918691Y-2357050D01*
X919104Y-2354975D01*
X924202D01*
X924615Y-2357050D01*
X929001Y-2363613D01*
X935564Y-2367999D01*
X938306Y-2368544D01*
Y-2349308D01*
X943306D01*
Y-2344308D01*
X962543D01*
X961997Y-2341566D01*
X957612Y-2335002D01*
X951048Y-2330617D01*
X948968Y-2330203D01*
Y-2325105D01*
X951048Y-2324691D01*
X957612Y-2320305D01*
X961997Y-2313742D01*
X962543Y-2311000D01*
X943306D01*
Y-2301000D01*
X962543D01*
X961997Y-2298258D01*
X957612Y-2291694D01*
X951048Y-2287309D01*
X948973Y-2286896D01*
Y-2281798D01*
X951048Y-2281385D01*
X957612Y-2276999D01*
X961997Y-2270436D01*
X962543Y-2267694D01*
X943306D01*
Y-2262694D01*
X938306D01*
Y-2243457D01*
D02*
G37*
G36*
X851692D02*
X848950Y-2244003D01*
X842387Y-2248388D01*
X838001Y-2254952D01*
X837456Y-2257694D01*
X851692D01*
Y-2243457D01*
D02*
G37*
G36*
X1320000Y-2299741D02*
X1312169Y-2300772D01*
X1304871Y-2303795D01*
X1298604Y-2308604D01*
X1293795Y-2314870D01*
X1290772Y-2322168D01*
X1289741Y-2330000D01*
X1290772Y-2337831D01*
X1293795Y-2345129D01*
X1298604Y-2351396D01*
X1304871Y-2356205D01*
X1312169Y-2359228D01*
X1320000Y-2360259D01*
X1327832Y-2359228D01*
X1335130Y-2356205D01*
X1341397Y-2351396D01*
X1346205Y-2345129D01*
X1349228Y-2337831D01*
X1350259Y-2330000D01*
X1349228Y-2322168D01*
X1346205Y-2314870D01*
X1341397Y-2308604D01*
X1335130Y-2303795D01*
X1327832Y-2300772D01*
X1320000Y-2299741D01*
D02*
G37*
G36*
X150000Y-2219741D02*
X142169Y-2220772D01*
X134871Y-2223795D01*
X128604Y-2228604D01*
X123795Y-2234870D01*
X120772Y-2242168D01*
X119741Y-2250000D01*
X120772Y-2257831D01*
X123795Y-2265129D01*
X128604Y-2271396D01*
X134871Y-2276205D01*
X142169Y-2279228D01*
X150000Y-2280259D01*
X157832Y-2279228D01*
X165130Y-2276205D01*
X171397Y-2271396D01*
X176205Y-2265129D01*
X179228Y-2257831D01*
X180259Y-2250000D01*
X179228Y-2242168D01*
X176205Y-2234870D01*
X171397Y-2228604D01*
X165130Y-2223795D01*
X157832Y-2220772D01*
X150000Y-2219741D01*
D02*
G37*
G36*
X5000Y-2160313D02*
Y-2195000D01*
X39687D01*
X38971Y-2189558D01*
X34940Y-2179827D01*
X28528Y-2171472D01*
X20173Y-2165060D01*
X10442Y-2161030D01*
X5000Y-2160313D01*
D02*
G37*
G36*
X0Y-1964698D02*
X-9137Y-1965901D01*
X-17651Y-1969428D01*
X-24962Y-1975038D01*
X-30572Y-1982349D01*
X-34099Y-1990863D01*
X-35302Y-2000000D01*
X-34099Y-2009137D01*
X-30572Y-2017651D01*
X-24962Y-2024962D01*
X-17651Y-2030572D01*
X-9137Y-2034099D01*
X0Y-2035302D01*
X9137Y-2034099D01*
X17651Y-2030572D01*
X24962Y-2024962D01*
X30572Y-2017651D01*
X34099Y-2009137D01*
X35302Y-2000000D01*
X34099Y-1990863D01*
X30572Y-1982349D01*
X24962Y-1975038D01*
X17651Y-1969428D01*
X9137Y-1965901D01*
X0Y-1964698D01*
D02*
G37*
G36*
X1800000D02*
X1790863Y-1965901D01*
X1782349Y-1969428D01*
X1775038Y-1975038D01*
X1769428Y-1982349D01*
X1765901Y-1990863D01*
X1764698Y-2000000D01*
X1765901Y-2009137D01*
X1769428Y-2017651D01*
X1775038Y-2024962D01*
X1782349Y-2030572D01*
X1790863Y-2034099D01*
X1800000Y-2035302D01*
X1809137Y-2034099D01*
X1817651Y-2030572D01*
X1824962Y-2024962D01*
X1830572Y-2017651D01*
X1834099Y-2009137D01*
X1835302Y-2000000D01*
X1834099Y-1990863D01*
X1830572Y-1982349D01*
X1824962Y-1975038D01*
X1817651Y-1969428D01*
X1809137Y-1965901D01*
X1800000Y-1964698D01*
D02*
G37*
G36*
X-100000D02*
X-109137Y-1965901D01*
X-117651Y-1969428D01*
X-124962Y-1975038D01*
X-130572Y-1982349D01*
X-134099Y-1990863D01*
X-135302Y-2000000D01*
X-134099Y-2009137D01*
X-130572Y-2017651D01*
X-124962Y-2024962D01*
X-117651Y-2030572D01*
X-109137Y-2034099D01*
X-100000Y-2035302D01*
X-90863Y-2034099D01*
X-82349Y-2030572D01*
X-75038Y-2024962D01*
X-69428Y-2017651D01*
X-65901Y-2009137D01*
X-64698Y-2000000D01*
X-65901Y-1990863D01*
X-69428Y-1982349D01*
X-75038Y-1975038D01*
X-82349Y-1969428D01*
X-90863Y-1965901D01*
X-100000Y-1964698D01*
D02*
G37*
G36*
X-95000Y-2060313D02*
Y-2095000D01*
X-60313D01*
X-61029Y-2089558D01*
X-65060Y-2079827D01*
X-71472Y-2071472D01*
X-79827Y-2065060D01*
X-89558Y-2061030D01*
X-95000Y-2060313D01*
D02*
G37*
G36*
X5000D02*
Y-2095000D01*
X39687D01*
X38971Y-2089558D01*
X34940Y-2079827D01*
X28528Y-2071472D01*
X20173Y-2065060D01*
X10442Y-2061030D01*
X5000Y-2060313D01*
D02*
G37*
G36*
X0Y-1864698D02*
X-9137Y-1865901D01*
X-17651Y-1869428D01*
X-24962Y-1875038D01*
X-30572Y-1882349D01*
X-34099Y-1890863D01*
X-35302Y-1900000D01*
X-34099Y-1909137D01*
X-30572Y-1917651D01*
X-24962Y-1924962D01*
X-17651Y-1930572D01*
X-9137Y-1934099D01*
X0Y-1935302D01*
X9137Y-1934099D01*
X17651Y-1930572D01*
X24962Y-1924962D01*
X30572Y-1917651D01*
X34099Y-1909137D01*
X35302Y-1900000D01*
X34099Y-1890863D01*
X30572Y-1882349D01*
X24962Y-1875038D01*
X17651Y-1869428D01*
X9137Y-1865901D01*
X0Y-1864698D01*
D02*
G37*
G36*
X1800000D02*
X1790863Y-1865901D01*
X1782349Y-1869428D01*
X1775038Y-1875038D01*
X1769428Y-1882349D01*
X1765901Y-1890863D01*
X1764698Y-1900000D01*
X1765901Y-1909137D01*
X1769428Y-1917651D01*
X1775038Y-1924962D01*
X1782349Y-1930572D01*
X1790863Y-1934099D01*
X1800000Y-1935302D01*
X1809137Y-1934099D01*
X1817651Y-1930572D01*
X1824962Y-1924962D01*
X1830572Y-1917651D01*
X1834099Y-1909137D01*
X1835302Y-1900000D01*
X1834099Y-1890863D01*
X1830572Y-1882349D01*
X1824962Y-1875038D01*
X1817651Y-1869428D01*
X1809137Y-1865901D01*
X1800000Y-1864698D01*
D02*
G37*
G36*
X-100000D02*
X-109137Y-1865901D01*
X-117651Y-1869428D01*
X-124962Y-1875038D01*
X-130572Y-1882349D01*
X-134099Y-1890863D01*
X-135302Y-1900000D01*
X-134099Y-1909137D01*
X-130572Y-1917651D01*
X-124962Y-1924962D01*
X-117651Y-1930572D01*
X-109137Y-1934099D01*
X-100000Y-1935302D01*
X-90863Y-1934099D01*
X-82349Y-1930572D01*
X-75038Y-1924962D01*
X-69428Y-1917651D01*
X-65901Y-1909137D01*
X-64698Y-1900000D01*
X-65901Y-1890863D01*
X-69428Y-1882349D01*
X-75038Y-1875038D01*
X-82349Y-1869428D01*
X-90863Y-1865901D01*
X-100000Y-1864698D01*
D02*
G37*
G36*
X1900000Y-1964698D02*
X1890863Y-1965901D01*
X1882349Y-1969428D01*
X1875038Y-1975038D01*
X1869428Y-1982349D01*
X1865901Y-1990863D01*
X1864698Y-2000000D01*
X1865901Y-2009137D01*
X1869428Y-2017651D01*
X1875038Y-2024962D01*
X1882349Y-2030572D01*
X1890863Y-2034099D01*
X1900000Y-2035302D01*
X1909137Y-2034099D01*
X1917651Y-2030572D01*
X1924962Y-2024962D01*
X1930572Y-2017651D01*
X1934099Y-2009137D01*
X1935302Y-2000000D01*
X1934099Y-1990863D01*
X1930572Y-1982349D01*
X1924962Y-1975038D01*
X1917651Y-1969428D01*
X1909137Y-1965901D01*
X1900000Y-1964698D01*
D02*
G37*
G36*
X714566Y-1915741D02*
X706735Y-1916772D01*
X699437Y-1919795D01*
X693170Y-1924603D01*
X688361Y-1930870D01*
X685338Y-1938168D01*
X684307Y-1946000D01*
X685338Y-1953831D01*
X688361Y-1961129D01*
X693170Y-1967396D01*
X699437Y-1972205D01*
X706735Y-1975228D01*
X714566Y-1976259D01*
X722398Y-1975228D01*
X729696Y-1972205D01*
X735962Y-1967396D01*
X740771Y-1961129D01*
X743794Y-1953831D01*
X744825Y-1946000D01*
X743794Y-1938168D01*
X740771Y-1930870D01*
X735962Y-1924603D01*
X729696Y-1919795D01*
X722398Y-1916772D01*
X714566Y-1915741D01*
D02*
G37*
G36*
X-5000Y-2105000D02*
X-39687D01*
X-38971Y-2110442D01*
X-34940Y-2120173D01*
X-28528Y-2128528D01*
X-20173Y-2134940D01*
X-10442Y-2138970D01*
X-5000Y-2139687D01*
Y-2105000D01*
D02*
G37*
G36*
X-60313D02*
X-95000D01*
Y-2139687D01*
X-89558Y-2138970D01*
X-79827Y-2134940D01*
X-71472Y-2128528D01*
X-65060Y-2120173D01*
X-61029Y-2110442D01*
X-60313Y-2105000D01*
D02*
G37*
G36*
X-105000D02*
X-139687D01*
X-138970Y-2110442D01*
X-134940Y-2120173D01*
X-128528Y-2128528D01*
X-120173Y-2134940D01*
X-110442Y-2138970D01*
X-105000Y-2139687D01*
Y-2105000D01*
D02*
G37*
G36*
X1076000Y-2113419D02*
X1068169Y-2114450D01*
X1060871Y-2117473D01*
X1054604Y-2122282D01*
X1049795Y-2128548D01*
X1046772Y-2135846D01*
X1045741Y-2143678D01*
X1046772Y-2151509D01*
X1049795Y-2158807D01*
X1054604Y-2165074D01*
X1060871Y-2169883D01*
X1068169Y-2172906D01*
X1076000Y-2173937D01*
X1083832Y-2172906D01*
X1091130Y-2169883D01*
X1097397Y-2165074D01*
X1102205Y-2158807D01*
X1105228Y-2151509D01*
X1106259Y-2143678D01*
X1105228Y-2135846D01*
X1102205Y-2128548D01*
X1097397Y-2122282D01*
X1091130Y-2117473D01*
X1083832Y-2114450D01*
X1076000Y-2113419D01*
D02*
G37*
G36*
X1260000D02*
X1252169Y-2114450D01*
X1244871Y-2117473D01*
X1238604Y-2122282D01*
X1233795Y-2128548D01*
X1230772Y-2135846D01*
X1229741Y-2143678D01*
X1230772Y-2151509D01*
X1233795Y-2158807D01*
X1238604Y-2165074D01*
X1244871Y-2169883D01*
X1252169Y-2172906D01*
X1260000Y-2173937D01*
X1267832Y-2172906D01*
X1275130Y-2169883D01*
X1281397Y-2165074D01*
X1286205Y-2158807D01*
X1289228Y-2151509D01*
X1290259Y-2143678D01*
X1289228Y-2135846D01*
X1286205Y-2128548D01*
X1281397Y-2122282D01*
X1275130Y-2117473D01*
X1267832Y-2114450D01*
X1260000Y-2113419D01*
D02*
G37*
G36*
X-105000Y-2060313D02*
X-110442Y-2061030D01*
X-120173Y-2065060D01*
X-128528Y-2071472D01*
X-134940Y-2079827D01*
X-138970Y-2089558D01*
X-139687Y-2095000D01*
X-105000D01*
Y-2060313D01*
D02*
G37*
G36*
X-5000D02*
X-10442Y-2061030D01*
X-20173Y-2065060D01*
X-28528Y-2071472D01*
X-34940Y-2079827D01*
X-38971Y-2089558D01*
X-39687Y-2095000D01*
X-5000D01*
Y-2060313D01*
D02*
G37*
G36*
X1900000Y-2064698D02*
X1890863Y-2065901D01*
X1882349Y-2069428D01*
X1875038Y-2075038D01*
X1869428Y-2082349D01*
X1865901Y-2090863D01*
X1864698Y-2100000D01*
X1865901Y-2109137D01*
X1869428Y-2117651D01*
X1875038Y-2124962D01*
X1882349Y-2130572D01*
X1890863Y-2134099D01*
X1900000Y-2135302D01*
X1909137Y-2134099D01*
X1917651Y-2130572D01*
X1924962Y-2124962D01*
X1930572Y-2117651D01*
X1934099Y-2109137D01*
X1935302Y-2100000D01*
X1934099Y-2090863D01*
X1930572Y-2082349D01*
X1924962Y-2075038D01*
X1917651Y-2069428D01*
X1909137Y-2065901D01*
X1900000Y-2064698D01*
D02*
G37*
G36*
X39687Y-2105000D02*
X5000D01*
Y-2139687D01*
X10442Y-2138970D01*
X20173Y-2134940D01*
X28528Y-2128528D01*
X34940Y-2120173D01*
X38971Y-2110442D01*
X39687Y-2105000D01*
D02*
G37*
G36*
X1800000Y-2064698D02*
X1790863Y-2065901D01*
X1782349Y-2069428D01*
X1775038Y-2075038D01*
X1769428Y-2082349D01*
X1765901Y-2090863D01*
X1764698Y-2100000D01*
X1765901Y-2109137D01*
X1769428Y-2117651D01*
X1775038Y-2124962D01*
X1782349Y-2130572D01*
X1790863Y-2134099D01*
X1800000Y-2135302D01*
X1809137Y-2134099D01*
X1817651Y-2130572D01*
X1824962Y-2124962D01*
X1830572Y-2117651D01*
X1834099Y-2109137D01*
X1835302Y-2100000D01*
X1834099Y-2090863D01*
X1830572Y-2082349D01*
X1824962Y-2075038D01*
X1817651Y-2069428D01*
X1809137Y-2065901D01*
X1800000Y-2064698D01*
D02*
G37*
G36*
X-105000Y-5000D02*
X-139687D01*
X-138970Y-10442D01*
X-134940Y-20173D01*
X-128528Y-28528D01*
X-120173Y-34940D01*
X-110442Y-38971D01*
X-105000Y-39687D01*
Y-5000D01*
D02*
G37*
G36*
X1795000D02*
X1760313D01*
X1761030Y-10442D01*
X1765060Y-20173D01*
X1771472Y-28528D01*
X1779827Y-34940D01*
X1789558Y-38971D01*
X1795000Y-39687D01*
Y-5000D01*
D02*
G37*
G36*
X760000Y55259D02*
X752168Y54228D01*
X744871Y51205D01*
X738604Y46396D01*
X733795Y40129D01*
X730772Y32832D01*
X729741Y25000D01*
X730772Y17168D01*
X733795Y9871D01*
X738604Y3604D01*
X744871Y-1205D01*
X752168Y-4228D01*
X760000Y-5259D01*
X767832Y-4228D01*
X772765Y-2184D01*
X785237Y-14656D01*
Y-129469D01*
X780237Y-131935D01*
X772913Y-126314D01*
X761860Y-121736D01*
X755000Y-120833D01*
Y-166000D01*
Y-211167D01*
X761860Y-210264D01*
X772913Y-205686D01*
X780237Y-200065D01*
X785237Y-202531D01*
Y-286973D01*
X206806Y-865404D01*
X204596Y-868712D01*
X203820Y-872613D01*
Y-1138329D01*
X39763Y-1302386D01*
X36749Y-1300899D01*
X35276Y-1299802D01*
X34099Y-1290863D01*
X30572Y-1282349D01*
X24962Y-1275038D01*
X17651Y-1269428D01*
X9137Y-1265901D01*
X0Y-1264698D01*
X-9137Y-1265901D01*
X-17651Y-1269428D01*
X-24962Y-1275038D01*
X-30572Y-1282349D01*
X-34099Y-1290863D01*
X-35302Y-1300000D01*
X-34099Y-1309137D01*
X-30572Y-1317651D01*
X-25084Y-1324804D01*
X-25349Y-1326621D01*
X-26430Y-1329804D01*
X-40000D01*
X-43902Y-1330580D01*
X-47210Y-1332790D01*
X-83408Y-1368989D01*
X-90863Y-1365901D01*
X-100000Y-1364698D01*
X-109137Y-1365901D01*
X-117651Y-1369428D01*
X-124962Y-1375038D01*
X-130572Y-1382349D01*
X-134099Y-1390863D01*
X-135302Y-1400000D01*
X-134099Y-1409137D01*
X-130572Y-1417651D01*
X-124962Y-1424962D01*
X-117651Y-1430572D01*
X-109137Y-1434099D01*
X-100000Y-1435302D01*
X-90863Y-1434099D01*
X-82349Y-1430572D01*
X-75038Y-1424962D01*
X-69428Y-1417651D01*
X-65901Y-1409137D01*
X-64698Y-1400000D01*
X-65901Y-1390863D01*
X-68989Y-1383408D01*
X-35777Y-1350196D01*
X16569D01*
X20470Y-1349420D01*
X23778Y-1347210D01*
X214397Y-1156591D01*
X219016Y-1158505D01*
Y-1165330D01*
X299882D01*
Y-1084464D01*
X224212D01*
Y-876837D01*
X802643Y-298406D01*
X804853Y-295098D01*
X805629Y-291196D01*
Y-177045D01*
X810608Y-176555D01*
X814682Y-186391D01*
X821163Y-194837D01*
X829609Y-201318D01*
X839445Y-205392D01*
X850000Y-206782D01*
X860555Y-205392D01*
X870391Y-201318D01*
X878837Y-194837D01*
X885318Y-186391D01*
X889392Y-176555D01*
X890782Y-166000D01*
X889392Y-155445D01*
X885318Y-145609D01*
X878837Y-137163D01*
X870391Y-130682D01*
X860555Y-126608D01*
X850000Y-125218D01*
X839445Y-126608D01*
X829609Y-130682D01*
X821163Y-137163D01*
X814682Y-145609D01*
X810608Y-155445D01*
X805629Y-154955D01*
Y-10433D01*
X804853Y-6531D01*
X802643Y-3224D01*
X787184Y12235D01*
X789228Y17168D01*
X790259Y25000D01*
X789228Y32832D01*
X786205Y40129D01*
X781396Y46396D01*
X775129Y51205D01*
X767832Y54228D01*
X760000Y55259D01*
D02*
G37*
G36*
X1900000Y-64698D02*
X1890863Y-65901D01*
X1882349Y-69428D01*
X1875038Y-75038D01*
X1869428Y-82349D01*
X1865901Y-90863D01*
X1864698Y-100000D01*
X1865901Y-109137D01*
X1869428Y-117651D01*
X1875038Y-124962D01*
X1882349Y-130572D01*
X1890863Y-134099D01*
X1900000Y-135302D01*
X1909137Y-134099D01*
X1917651Y-130572D01*
X1924962Y-124962D01*
X1930572Y-117651D01*
X1934099Y-109137D01*
X1935302Y-100000D01*
X1934099Y-90863D01*
X1930572Y-82349D01*
X1924962Y-75038D01*
X1917651Y-69428D01*
X1909137Y-65901D01*
X1900000Y-64698D01*
D02*
G37*
G36*
X150000Y-65174D02*
X140987Y-66361D01*
X132588Y-69840D01*
X125375Y-75374D01*
X119841Y-82587D01*
X116361Y-90986D01*
X115175Y-100000D01*
X116361Y-109013D01*
X119841Y-117412D01*
X125375Y-124625D01*
X132588Y-130160D01*
X140987Y-133639D01*
X150000Y-134825D01*
X159014Y-133639D01*
X167413Y-130160D01*
X174625Y-124625D01*
X180160Y-117412D01*
X183639Y-109013D01*
X184826Y-100000D01*
X183639Y-90986D01*
X180160Y-82587D01*
X174625Y-75374D01*
X167413Y-69840D01*
X159014Y-66361D01*
X150000Y-65174D01*
D02*
G37*
G36*
X1839687Y-5000D02*
X1805000D01*
Y-39687D01*
X1810442Y-38971D01*
X1820173Y-34940D01*
X1828528Y-28528D01*
X1834940Y-20173D01*
X1838970Y-10442D01*
X1839687Y-5000D01*
D02*
G37*
G36*
X1939687D02*
X1905000D01*
Y-39687D01*
X1910442Y-38971D01*
X1920173Y-34940D01*
X1928528Y-28528D01*
X1934940Y-20173D01*
X1938970Y-10442D01*
X1939687Y-5000D01*
D02*
G37*
G36*
X39687D02*
X5000D01*
Y-39687D01*
X10442Y-38971D01*
X20173Y-34940D01*
X28528Y-28528D01*
X34940Y-20173D01*
X38971Y-10442D01*
X39687Y-5000D01*
D02*
G37*
G36*
X1895000D02*
X1860313D01*
X1861030Y-10442D01*
X1865060Y-20173D01*
X1871472Y-28528D01*
X1879827Y-34940D01*
X1889558Y-38971D01*
X1895000Y-39687D01*
Y-5000D01*
D02*
G37*
G36*
X-60313D02*
X-95000D01*
Y-39687D01*
X-89558Y-38971D01*
X-79827Y-34940D01*
X-71472Y-28528D01*
X-65060Y-20173D01*
X-61029Y-10442D01*
X-60313Y-5000D01*
D02*
G37*
G36*
X1800000Y-64698D02*
X1790863Y-65901D01*
X1782349Y-69428D01*
X1775038Y-75038D01*
X1769428Y-82349D01*
X1765901Y-90863D01*
X1764698Y-100000D01*
X1765901Y-109137D01*
X1769428Y-117651D01*
X1775038Y-124962D01*
X1782349Y-130572D01*
X1790863Y-134099D01*
X1800000Y-135302D01*
X1809137Y-134099D01*
X1817651Y-130572D01*
X1824962Y-124962D01*
X1830572Y-117651D01*
X1834099Y-109137D01*
X1835302Y-100000D01*
X1834099Y-90863D01*
X1830572Y-82349D01*
X1824962Y-75038D01*
X1817651Y-69428D01*
X1809137Y-65901D01*
X1800000Y-64698D01*
D02*
G37*
G36*
X745000Y-171000D02*
X704833D01*
X705736Y-177860D01*
X710314Y-188912D01*
X717597Y-198403D01*
X727087Y-205686D01*
X738140Y-210264D01*
X745000Y-211167D01*
Y-171000D01*
D02*
G37*
G36*
X650000Y-125218D02*
X639445Y-126608D01*
X629609Y-130682D01*
X621163Y-137163D01*
X614682Y-145609D01*
X610608Y-155445D01*
X609218Y-166000D01*
X610608Y-176555D01*
X614682Y-186391D01*
X621163Y-194837D01*
X629609Y-201318D01*
X639445Y-205392D01*
X650000Y-206782D01*
X660555Y-205392D01*
X670391Y-201318D01*
X678837Y-194837D01*
X685318Y-186391D01*
X689392Y-176555D01*
X690782Y-166000D01*
X689392Y-155445D01*
X685318Y-145609D01*
X678837Y-137163D01*
X670391Y-130682D01*
X660555Y-126608D01*
X650000Y-125218D01*
D02*
G37*
G36*
X1900000Y-164698D02*
X1890863Y-165901D01*
X1882349Y-169428D01*
X1875038Y-175038D01*
X1869428Y-182349D01*
X1865901Y-190863D01*
X1864698Y-200000D01*
X1865901Y-209137D01*
X1869428Y-217651D01*
X1875038Y-224962D01*
X1882349Y-230572D01*
X1890863Y-234099D01*
X1900000Y-235302D01*
X1909137Y-234099D01*
X1917651Y-230572D01*
X1924962Y-224962D01*
X1930572Y-217651D01*
X1934099Y-209137D01*
X1935302Y-200000D01*
X1934099Y-190863D01*
X1930572Y-182349D01*
X1924962Y-175038D01*
X1917651Y-169428D01*
X1909137Y-165901D01*
X1900000Y-164698D01*
D02*
G37*
G36*
X-100000D02*
X-109137Y-165901D01*
X-117651Y-169428D01*
X-124962Y-175038D01*
X-130572Y-182349D01*
X-134099Y-190863D01*
X-135302Y-200000D01*
X-134099Y-209137D01*
X-130572Y-217651D01*
X-124962Y-224962D01*
X-117651Y-230572D01*
X-109137Y-234099D01*
X-100000Y-235302D01*
X-90863Y-234099D01*
X-82349Y-230572D01*
X-75038Y-224962D01*
X-69428Y-217651D01*
X-65901Y-209137D01*
X-64698Y-200000D01*
X-65901Y-190863D01*
X-69428Y-182349D01*
X-75038Y-175038D01*
X-82349Y-169428D01*
X-90863Y-165901D01*
X-100000Y-164698D01*
D02*
G37*
G36*
X1800000D02*
X1790863Y-165901D01*
X1782349Y-169428D01*
X1775038Y-175038D01*
X1769428Y-182349D01*
X1765901Y-190863D01*
X1764698Y-200000D01*
X1765901Y-209137D01*
X1769428Y-217651D01*
X1775038Y-224962D01*
X1782349Y-230572D01*
X1790863Y-234099D01*
X1800000Y-235302D01*
X1809137Y-234099D01*
X1817651Y-230572D01*
X1824962Y-224962D01*
X1830572Y-217651D01*
X1834099Y-209137D01*
X1835302Y-200000D01*
X1834099Y-190863D01*
X1830572Y-182349D01*
X1824962Y-175038D01*
X1817651Y-169428D01*
X1809137Y-165901D01*
X1800000Y-164698D01*
D02*
G37*
G36*
X745000Y-120833D02*
X738140Y-121736D01*
X727087Y-126314D01*
X717597Y-133597D01*
X710314Y-143088D01*
X705736Y-154140D01*
X704833Y-161000D01*
X745000D01*
Y-120833D01*
D02*
G37*
G36*
X-100000Y-64698D02*
X-109137Y-65901D01*
X-117651Y-69428D01*
X-124962Y-75038D01*
X-130572Y-82349D01*
X-134099Y-90863D01*
X-135302Y-100000D01*
X-134099Y-109137D01*
X-130572Y-117651D01*
X-124962Y-124962D01*
X-117651Y-130572D01*
X-109137Y-134099D01*
X-100000Y-135302D01*
X-90863Y-134099D01*
X-82349Y-130572D01*
X-75038Y-124962D01*
X-69428Y-117651D01*
X-65901Y-109137D01*
X-64698Y-100000D01*
X-65901Y-90863D01*
X-69428Y-82349D01*
X-75038Y-75038D01*
X-82349Y-69428D01*
X-90863Y-65901D01*
X-100000Y-64698D01*
D02*
G37*
G36*
X1150000Y-125218D02*
X1139445Y-126608D01*
X1129609Y-130682D01*
X1121163Y-137163D01*
X1114682Y-145609D01*
X1110608Y-155445D01*
X1109218Y-166000D01*
X1110608Y-176555D01*
X1114682Y-186391D01*
X1121163Y-194837D01*
X1129609Y-201318D01*
X1139445Y-205392D01*
X1150000Y-206782D01*
X1160555Y-205392D01*
X1170391Y-201318D01*
X1178837Y-194837D01*
X1185318Y-186391D01*
X1189392Y-176555D01*
X1190782Y-166000D01*
X1189392Y-155445D01*
X1185318Y-145609D01*
X1178837Y-137163D01*
X1170391Y-130682D01*
X1160555Y-126608D01*
X1150000Y-125218D01*
D02*
G37*
G36*
X950000D02*
X939445Y-126608D01*
X929609Y-130682D01*
X921163Y-137163D01*
X914682Y-145609D01*
X910608Y-155445D01*
X909218Y-166000D01*
X910608Y-176555D01*
X914682Y-186391D01*
X921163Y-194837D01*
X929609Y-201318D01*
X939445Y-205392D01*
X950000Y-206782D01*
X960555Y-205392D01*
X970391Y-201318D01*
X978837Y-194837D01*
X985318Y-186391D01*
X989392Y-176555D01*
X990782Y-166000D01*
X989392Y-155445D01*
X985318Y-145609D01*
X978837Y-137163D01*
X970391Y-130682D01*
X960555Y-126608D01*
X950000Y-125218D01*
D02*
G37*
G36*
X1050000D02*
X1039445Y-126608D01*
X1029609Y-130682D01*
X1021163Y-137163D01*
X1014682Y-145609D01*
X1010608Y-155445D01*
X1009218Y-166000D01*
X1010608Y-176555D01*
X1014682Y-186391D01*
X1021163Y-194837D01*
X1029609Y-201318D01*
X1039445Y-205392D01*
X1050000Y-206782D01*
X1060555Y-205392D01*
X1070391Y-201318D01*
X1078837Y-194837D01*
X1085318Y-186391D01*
X1089392Y-176555D01*
X1090782Y-166000D01*
X1089392Y-155445D01*
X1085318Y-145609D01*
X1078837Y-137163D01*
X1070391Y-130682D01*
X1060555Y-126608D01*
X1050000Y-125218D01*
D02*
G37*
G36*
X1436200Y645475D02*
X1421842Y643585D01*
X1408463Y638043D01*
X1396974Y629227D01*
X1388158Y617737D01*
X1382616Y604358D01*
X1380726Y590000D01*
X1382616Y575642D01*
X1388158Y562263D01*
X1396974Y550774D01*
X1408463Y541958D01*
X1421842Y536416D01*
X1436200Y534526D01*
X1450558Y536416D01*
X1463938Y541958D01*
X1475427Y550774D01*
X1484243Y562263D01*
X1489784Y575642D01*
X1491675Y590000D01*
X1489784Y604358D01*
X1484243Y617737D01*
X1475427Y629227D01*
X1463938Y638043D01*
X1450558Y643585D01*
X1436200Y645475D01*
D02*
G37*
G36*
X1068268Y560591D02*
X1024804D01*
Y540196D01*
X1018249D01*
X1016205Y545130D01*
X1011396Y551396D01*
X1005130Y556205D01*
X997832Y559228D01*
X990000Y560259D01*
X982169Y559228D01*
X974871Y556205D01*
X968604Y551396D01*
X963795Y545130D01*
X961752Y540196D01*
X955197D01*
Y560591D01*
X911732D01*
Y499410D01*
X955197D01*
Y519804D01*
X961752D01*
X963795Y514871D01*
X968604Y508604D01*
X974871Y503795D01*
X982169Y500772D01*
X990000Y499741D01*
X997832Y500772D01*
X1005130Y503795D01*
X1011396Y508604D01*
X1016205Y514871D01*
X1018249Y519804D01*
X1024804D01*
Y499410D01*
X1068268D01*
Y560591D01*
D02*
G37*
G36*
X363800Y645475D02*
X349442Y643585D01*
X336063Y638043D01*
X324574Y629227D01*
X315758Y617737D01*
X310216Y604358D01*
X308326Y590000D01*
X310216Y575642D01*
X315758Y562263D01*
X324574Y550774D01*
X336063Y541958D01*
X349442Y536416D01*
X363800Y534526D01*
X378158Y536416D01*
X391538Y541958D01*
X403027Y550774D01*
X411843Y562263D01*
X417385Y575642D01*
X419275Y590000D01*
X417385Y604358D01*
X411843Y617737D01*
X403027Y629227D01*
X391538Y638043D01*
X378158Y643585D01*
X363800Y645475D01*
D02*
G37*
G36*
X1340000Y370259D02*
X1332168Y369228D01*
X1324871Y366205D01*
X1318604Y361396D01*
X1313795Y355129D01*
X1310772Y347832D01*
X1309741Y340000D01*
X1310772Y332168D01*
X1313795Y324871D01*
X1318604Y318604D01*
X1324871Y313795D01*
X1332168Y310772D01*
X1340000Y309741D01*
X1347832Y310772D01*
X1355129Y313795D01*
X1361396Y318604D01*
X1366205Y324871D01*
X1369228Y332168D01*
X1370259Y340000D01*
X1369228Y347832D01*
X1366205Y355129D01*
X1361396Y361396D01*
X1355129Y366205D01*
X1347832Y369228D01*
X1340000Y370259D01*
D02*
G37*
G36*
X1135197Y560591D02*
X1091732D01*
Y499410D01*
X1135197D01*
Y519804D01*
X1274932D01*
X1276975Y514871D01*
X1281784Y508604D01*
X1288051Y503795D01*
X1295349Y500772D01*
X1303180Y499741D01*
X1311012Y500772D01*
X1318310Y503795D01*
X1324576Y508604D01*
X1329385Y514871D01*
X1332408Y522169D01*
X1333439Y530000D01*
X1332408Y537832D01*
X1329385Y545130D01*
X1324576Y551396D01*
X1318310Y556205D01*
X1311012Y559228D01*
X1303180Y560259D01*
X1295349Y559228D01*
X1288051Y556205D01*
X1281784Y551396D01*
X1276975Y545130D01*
X1274932Y540196D01*
X1135197D01*
Y560591D01*
D02*
G37*
G36*
X955197Y690591D02*
X911732D01*
Y629410D01*
X955197D01*
Y649804D01*
X1171752D01*
X1173795Y644871D01*
X1178604Y638604D01*
X1184871Y633795D01*
X1192169Y630772D01*
X1200000Y629741D01*
X1207832Y630772D01*
X1215130Y633795D01*
X1221397Y638604D01*
X1226205Y644871D01*
X1229228Y652169D01*
X1230259Y660000D01*
X1229228Y667832D01*
X1226205Y675130D01*
X1221397Y681396D01*
X1215130Y686205D01*
X1207832Y689228D01*
X1200000Y690259D01*
X1192169Y689228D01*
X1184871Y686205D01*
X1178604Y681396D01*
X1173795Y675130D01*
X1171752Y670196D01*
X955197D01*
Y690591D01*
D02*
G37*
G36*
X631000Y1109259D02*
X623169Y1108228D01*
X615871Y1105205D01*
X609604Y1100397D01*
X604795Y1094130D01*
X601772Y1086832D01*
X600741Y1079000D01*
X601772Y1071169D01*
X604795Y1063871D01*
X609604Y1057604D01*
X615871Y1052795D01*
X623169Y1049772D01*
X631000Y1048741D01*
X638832Y1049772D01*
X646130Y1052795D01*
X652396Y1057604D01*
X657205Y1063871D01*
X659249Y1068804D01*
X681504D01*
X682499Y1063804D01*
X678619Y1062197D01*
X672352Y1057388D01*
X667543Y1051122D01*
X664520Y1043824D01*
X663490Y1035992D01*
X664520Y1028160D01*
X667543Y1020863D01*
X672352Y1014596D01*
X678619Y1009787D01*
X683553Y1007744D01*
Y927567D01*
X670048D01*
Y864418D01*
X717449D01*
Y927567D01*
X703944D01*
Y1007744D01*
X708878Y1009787D01*
X715145Y1014596D01*
X719953Y1020863D01*
X722976Y1028160D01*
X724007Y1035992D01*
X722976Y1043824D01*
X719953Y1051122D01*
X715145Y1057388D01*
X708878Y1062197D01*
X704998Y1063804D01*
X705992Y1068804D01*
X715391D01*
X732844Y1051351D01*
Y909693D01*
X733040Y908708D01*
Y864418D01*
X780441D01*
Y927567D01*
X753236D01*
Y1055575D01*
X752459Y1059477D01*
X750249Y1062784D01*
X748849Y1064185D01*
X750762Y1068804D01*
X851021D01*
X851349Y1063804D01*
X846972Y1063228D01*
X839674Y1060205D01*
X833408Y1055397D01*
X828599Y1049130D01*
X825576Y1041832D01*
X824545Y1034000D01*
X825576Y1026169D01*
X828599Y1018871D01*
X833408Y1012604D01*
X839674Y1007795D01*
X844608Y1005752D01*
Y927567D01*
X832284D01*
Y864418D01*
X879685D01*
Y927567D01*
X865000D01*
Y1005752D01*
X869933Y1007795D01*
X876200Y1012604D01*
X881009Y1018871D01*
X884032Y1026169D01*
X885063Y1034000D01*
X884032Y1041832D01*
X881009Y1049130D01*
X876200Y1055397D01*
X869933Y1060205D01*
X862635Y1063228D01*
X858259Y1063804D01*
X858586Y1068804D01*
X907284D01*
Y927567D01*
X895276D01*
Y864418D01*
X942677D01*
Y927567D01*
X927676D01*
Y1068804D01*
X1015236D01*
X1016231Y1063804D01*
X1012351Y1062197D01*
X1006084Y1057388D01*
X1001275Y1051122D01*
X998252Y1043824D01*
X997221Y1035992D01*
X998252Y1028160D01*
X1001275Y1020863D01*
X1006084Y1014596D01*
X1012351Y1009787D01*
X1017284Y1007744D01*
Y929803D01*
X1002284D01*
Y866654D01*
X1049685D01*
Y929803D01*
X1037676D01*
Y1007744D01*
X1042610Y1009787D01*
X1048877Y1014596D01*
X1053685Y1020863D01*
X1056708Y1028160D01*
X1057739Y1035992D01*
X1056708Y1043824D01*
X1053685Y1051122D01*
X1048877Y1057388D01*
X1042610Y1062197D01*
X1038730Y1063804D01*
X1039724Y1068804D01*
X1056776D01*
X1065080Y1060501D01*
Y898749D01*
X1065276Y897764D01*
Y866654D01*
X1112677D01*
Y929803D01*
X1085472D01*
Y1064724D01*
X1084696Y1068626D01*
X1082485Y1071934D01*
X1068209Y1086210D01*
X1064902Y1088420D01*
X1061000Y1089196D01*
X659249D01*
X657205Y1094130D01*
X652396Y1100397D01*
X646130Y1105205D01*
X638832Y1108228D01*
X631000Y1109259D01*
D02*
G37*
G36*
X607000Y667259D02*
X599169Y666228D01*
X591871Y663205D01*
X585604Y658396D01*
X580795Y652130D01*
X577772Y644832D01*
X576741Y637000D01*
X577772Y629169D01*
X580795Y621871D01*
X585604Y615604D01*
X591871Y610795D01*
X599169Y607772D01*
X607000Y606741D01*
X614832Y607772D01*
X622130Y610795D01*
X628396Y615604D01*
X633205Y621871D01*
X636228Y629169D01*
X637259Y637000D01*
X636228Y644832D01*
X633205Y652130D01*
X628396Y658396D01*
X622130Y663205D01*
X614832Y666228D01*
X607000Y667259D01*
D02*
G37*
G36*
X1274300Y617146D02*
X1266860Y616167D01*
X1259927Y613295D01*
X1253974Y608727D01*
X1249406Y602773D01*
X1246534Y595840D01*
X1245554Y588400D01*
X1246534Y580960D01*
X1249406Y574027D01*
X1253974Y568074D01*
X1259927Y563505D01*
X1266860Y560634D01*
X1274300Y559654D01*
X1281740Y560634D01*
X1288673Y563505D01*
X1294627Y568074D01*
X1299195Y574027D01*
X1302067Y580960D01*
X1303046Y588400D01*
X1302067Y595840D01*
X1299195Y602773D01*
X1294627Y608727D01*
X1288673Y613295D01*
X1281740Y616167D01*
X1274300Y617146D01*
D02*
G37*
G36*
X525700Y618746D02*
X518260Y617767D01*
X511327Y614895D01*
X505374Y610327D01*
X500805Y604373D01*
X497934Y597440D01*
X496954Y590000D01*
X497934Y582560D01*
X500805Y575627D01*
X505374Y569674D01*
X511327Y565106D01*
X518260Y562234D01*
X525700Y561254D01*
X533140Y562234D01*
X540073Y565106D01*
X546027Y569674D01*
X550595Y575627D01*
X553467Y582560D01*
X554446Y590000D01*
X553467Y597440D01*
X550595Y604373D01*
X546027Y610327D01*
X540073Y614895D01*
X533140Y617767D01*
X525700Y618746D01*
D02*
G37*
G36*
X1850000Y284145D02*
X1833584Y282529D01*
X1817799Y277740D01*
X1803251Y269964D01*
X1790500Y259500D01*
X1780036Y246749D01*
X1772260Y232201D01*
X1767472Y216416D01*
X1765855Y200000D01*
X1767472Y183584D01*
X1772260Y167799D01*
X1780036Y153251D01*
X1790500Y140500D01*
X1803251Y130036D01*
X1817799Y122260D01*
X1833584Y117472D01*
X1850000Y115855D01*
X1866416Y117472D01*
X1882201Y122260D01*
X1896749Y130036D01*
X1909500Y140500D01*
X1919964Y153251D01*
X1927740Y167799D01*
X1932528Y183584D01*
X1934145Y200000D01*
X1932528Y216416D01*
X1927740Y232201D01*
X1919964Y246749D01*
X1909500Y259500D01*
X1896749Y269964D01*
X1882201Y277740D01*
X1866416Y282529D01*
X1850000Y284145D01*
D02*
G37*
G36*
X1895000Y39687D02*
X1889558Y38971D01*
X1879827Y34940D01*
X1871472Y28528D01*
X1865060Y20173D01*
X1861030Y10442D01*
X1860313Y5000D01*
X1895000D01*
Y39687D01*
D02*
G37*
G36*
X-95000Y39687D02*
Y5000D01*
X-60313D01*
X-61029Y10442D01*
X-65060Y20173D01*
X-71472Y28528D01*
X-79827Y34940D01*
X-89558Y38971D01*
X-95000Y39687D01*
D02*
G37*
G36*
X1795000Y39687D02*
X1789558Y38971D01*
X1779827Y34940D01*
X1771472Y28528D01*
X1765060Y20173D01*
X1761030Y10442D01*
X1760313Y5000D01*
X1795000D01*
Y39687D01*
D02*
G37*
G36*
X184528Y34528D02*
X115473D01*
Y-34527D01*
X184528D01*
Y34528D01*
D02*
G37*
G36*
X-105000Y39687D02*
X-110442Y38971D01*
X-120173Y34940D01*
X-128528Y28528D01*
X-134940Y20173D01*
X-138970Y10442D01*
X-139687Y5000D01*
X-105000D01*
Y39687D01*
D02*
G37*
G36*
X1420000Y150259D02*
X1412169Y149228D01*
X1404871Y146205D01*
X1398604Y141397D01*
X1393795Y135130D01*
X1390772Y127832D01*
X1389741Y120000D01*
X1390772Y112169D01*
X1393795Y104871D01*
X1398604Y98604D01*
X1404871Y93795D01*
X1412169Y90772D01*
X1420000Y89741D01*
X1427832Y90772D01*
X1435130Y93795D01*
X1441397Y98604D01*
X1446205Y104871D01*
X1449228Y112169D01*
X1450259Y120000D01*
X1449228Y127832D01*
X1446205Y135130D01*
X1441397Y141397D01*
X1435130Y146205D01*
X1427832Y149228D01*
X1420000Y150259D01*
D02*
G37*
G36*
X-50000Y284145D02*
X-66416Y282529D01*
X-82201Y277740D01*
X-96749Y269964D01*
X-109500Y259500D01*
X-119964Y246749D01*
X-127740Y232201D01*
X-132529Y216416D01*
X-134145Y200000D01*
X-132529Y183584D01*
X-127740Y167799D01*
X-119964Y153251D01*
X-109500Y140500D01*
X-96749Y130036D01*
X-82201Y122260D01*
X-66416Y117472D01*
X-50000Y115855D01*
X-33584Y117472D01*
X-17799Y122260D01*
X-3251Y130036D01*
X9500Y140500D01*
X19964Y153251D01*
X27740Y167799D01*
X32529Y183584D01*
X34145Y200000D01*
X32529Y216416D01*
X27740Y232201D01*
X19964Y246749D01*
X9500Y259500D01*
X-3251Y269964D01*
X-17799Y277740D01*
X-33584Y282529D01*
X-50000Y284145D01*
D02*
G37*
G36*
X1076000Y116251D02*
X1068169Y115220D01*
X1060871Y112197D01*
X1054604Y107388D01*
X1049795Y101122D01*
X1046772Y93824D01*
X1045741Y85992D01*
X1046772Y78160D01*
X1049795Y70863D01*
X1054604Y64596D01*
X1060871Y59787D01*
X1068169Y56764D01*
X1076000Y55733D01*
X1083832Y56764D01*
X1091130Y59787D01*
X1097397Y64596D01*
X1102205Y70863D01*
X1105228Y78160D01*
X1106259Y85992D01*
X1105228Y93824D01*
X1102205Y101122D01*
X1097397Y107388D01*
X1091130Y112197D01*
X1083832Y115220D01*
X1076000Y116251D01*
D02*
G37*
G36*
X1805000Y39687D02*
Y5000D01*
X1839687D01*
X1838970Y10442D01*
X1834940Y20173D01*
X1828528Y28528D01*
X1820173Y34940D01*
X1810442Y38971D01*
X1805000Y39687D01*
D02*
G37*
G36*
X1905000D02*
Y5000D01*
X1939687D01*
X1938970Y10442D01*
X1934940Y20173D01*
X1928528Y28528D01*
X1920173Y34940D01*
X1910442Y38971D01*
X1905000Y39687D01*
D02*
G37*
G36*
X-100000Y-764698D02*
X-109137Y-765901D01*
X-117651Y-769428D01*
X-124962Y-775038D01*
X-130572Y-782349D01*
X-134099Y-790863D01*
X-135302Y-800000D01*
X-134099Y-809137D01*
X-130572Y-817651D01*
X-124962Y-824962D01*
X-117651Y-830572D01*
X-109137Y-834099D01*
X-100000Y-835302D01*
X-90863Y-834099D01*
X-82349Y-830572D01*
X-75038Y-824962D01*
X-69428Y-817651D01*
X-65901Y-809137D01*
X-64698Y-800000D01*
X-65901Y-790863D01*
X-69428Y-782349D01*
X-75038Y-775038D01*
X-82349Y-769428D01*
X-90863Y-765901D01*
X-100000Y-764698D01*
D02*
G37*
G36*
X0D02*
X-9137Y-765901D01*
X-17651Y-769428D01*
X-24962Y-775038D01*
X-30572Y-782349D01*
X-34099Y-790863D01*
X-35302Y-800000D01*
X-34099Y-809137D01*
X-30572Y-817651D01*
X-24962Y-824962D01*
X-17651Y-830572D01*
X-9137Y-834099D01*
X0Y-835302D01*
X9137Y-834099D01*
X17651Y-830572D01*
X24962Y-824962D01*
X30572Y-817651D01*
X34099Y-809137D01*
X35302Y-800000D01*
X34099Y-790863D01*
X30572Y-782349D01*
X24962Y-775038D01*
X17651Y-769428D01*
X9137Y-765901D01*
X0Y-764698D01*
D02*
G37*
G36*
X1247078Y-839741D02*
X1239247Y-840772D01*
X1231949Y-843795D01*
X1225682Y-848604D01*
X1220873Y-854870D01*
X1217850Y-862168D01*
X1216819Y-870000D01*
X1217850Y-877831D01*
X1220873Y-885129D01*
X1225682Y-891396D01*
X1231949Y-896205D01*
X1239247Y-899228D01*
X1247078Y-900259D01*
X1254910Y-899228D01*
X1262208Y-896205D01*
X1268475Y-891396D01*
X1273283Y-885129D01*
X1276306Y-877831D01*
X1277337Y-870000D01*
X1276306Y-862168D01*
X1273283Y-854870D01*
X1268475Y-848604D01*
X1262208Y-843795D01*
X1254910Y-840772D01*
X1247078Y-839741D01*
D02*
G37*
G36*
X1800000Y-864698D02*
X1790863Y-865901D01*
X1782349Y-869428D01*
X1775038Y-875038D01*
X1769428Y-882349D01*
X1765901Y-890863D01*
X1764698Y-900000D01*
X1765901Y-909137D01*
X1769428Y-917651D01*
X1775038Y-924962D01*
X1782349Y-930572D01*
X1790863Y-934099D01*
X1800000Y-935302D01*
X1809137Y-934099D01*
X1817651Y-930572D01*
X1824962Y-924962D01*
X1830572Y-917651D01*
X1834099Y-909137D01*
X1835302Y-900000D01*
X1834099Y-890863D01*
X1830572Y-882349D01*
X1824962Y-875038D01*
X1817651Y-869428D01*
X1809137Y-865901D01*
X1800000Y-864698D01*
D02*
G37*
G36*
X1900000D02*
X1890863Y-865901D01*
X1882349Y-869428D01*
X1875038Y-875038D01*
X1869428Y-882349D01*
X1865901Y-890863D01*
X1864698Y-900000D01*
X1865901Y-909137D01*
X1869428Y-917651D01*
X1875038Y-924962D01*
X1882349Y-930572D01*
X1890863Y-934099D01*
X1900000Y-935302D01*
X1909137Y-934099D01*
X1917651Y-930572D01*
X1924962Y-924962D01*
X1930572Y-917651D01*
X1934099Y-909137D01*
X1935302Y-900000D01*
X1934099Y-890863D01*
X1930572Y-882349D01*
X1924962Y-875038D01*
X1917651Y-869428D01*
X1909137Y-865901D01*
X1900000Y-864698D01*
D02*
G37*
G36*
X0Y-664698D02*
X-9137Y-665901D01*
X-17651Y-669428D01*
X-24962Y-675038D01*
X-30572Y-682349D01*
X-34099Y-690863D01*
X-35302Y-700000D01*
X-34099Y-709137D01*
X-30572Y-717651D01*
X-24962Y-724962D01*
X-17651Y-730572D01*
X-9137Y-734099D01*
X0Y-735302D01*
X9137Y-734099D01*
X17651Y-730572D01*
X24962Y-724962D01*
X30572Y-717651D01*
X34099Y-709137D01*
X35302Y-700000D01*
X34099Y-690863D01*
X30572Y-682349D01*
X24962Y-675038D01*
X17651Y-669428D01*
X9137Y-665901D01*
X0Y-664698D01*
D02*
G37*
G36*
X1800000D02*
X1790863Y-665901D01*
X1782349Y-669428D01*
X1775038Y-675038D01*
X1769428Y-682349D01*
X1765901Y-690863D01*
X1764698Y-700000D01*
X1765901Y-709137D01*
X1769428Y-717651D01*
X1775038Y-724962D01*
X1782349Y-730572D01*
X1790863Y-734099D01*
X1800000Y-735302D01*
X1809137Y-734099D01*
X1817651Y-730572D01*
X1824962Y-724962D01*
X1830572Y-717651D01*
X1834099Y-709137D01*
X1835302Y-700000D01*
X1834099Y-690863D01*
X1830572Y-682349D01*
X1824962Y-675038D01*
X1817651Y-669428D01*
X1809137Y-665901D01*
X1800000Y-664698D01*
D02*
G37*
G36*
X711614Y-704698D02*
X702477Y-705901D01*
X693963Y-709427D01*
X686652Y-715038D01*
X681042Y-722349D01*
X677515Y-730863D01*
X676312Y-740000D01*
X677515Y-749137D01*
X681042Y-757651D01*
X686652Y-764962D01*
X693963Y-770572D01*
X702477Y-774099D01*
X711614Y-775302D01*
X720751Y-774099D01*
X729265Y-770572D01*
X736577Y-764962D01*
X742187Y-757651D01*
X745713Y-749137D01*
X746916Y-740000D01*
X745713Y-730863D01*
X742187Y-722349D01*
X736577Y-715038D01*
X729265Y-709427D01*
X720751Y-705901D01*
X711614Y-704698D01*
D02*
G37*
G36*
X1800000Y-764698D02*
X1790863Y-765901D01*
X1782349Y-769428D01*
X1775038Y-775038D01*
X1769428Y-782349D01*
X1765901Y-790863D01*
X1764698Y-800000D01*
X1765901Y-809137D01*
X1769428Y-817651D01*
X1775038Y-824962D01*
X1782349Y-830572D01*
X1790863Y-834099D01*
X1800000Y-835302D01*
X1809137Y-834099D01*
X1817651Y-830572D01*
X1824962Y-824962D01*
X1830572Y-817651D01*
X1834099Y-809137D01*
X1835302Y-800000D01*
X1834099Y-790863D01*
X1830572Y-782349D01*
X1824962Y-775038D01*
X1817651Y-769428D01*
X1809137Y-765901D01*
X1800000Y-764698D01*
D02*
G37*
G36*
X1900000D02*
X1890863Y-765901D01*
X1882349Y-769428D01*
X1875038Y-775038D01*
X1869428Y-782349D01*
X1865901Y-790863D01*
X1864698Y-800000D01*
X1865901Y-809137D01*
X1869428Y-817651D01*
X1875038Y-824962D01*
X1882349Y-830572D01*
X1890863Y-834099D01*
X1900000Y-835302D01*
X1909137Y-834099D01*
X1917651Y-830572D01*
X1924962Y-824962D01*
X1930572Y-817651D01*
X1934099Y-809137D01*
X1935302Y-800000D01*
X1934099Y-790863D01*
X1930572Y-782349D01*
X1924962Y-775038D01*
X1917651Y-769428D01*
X1909137Y-765901D01*
X1900000Y-764698D01*
D02*
G37*
G36*
X0Y-864698D02*
X-9137Y-865901D01*
X-17651Y-869428D01*
X-24962Y-875038D01*
X-30572Y-882349D01*
X-34099Y-890863D01*
X-35302Y-900000D01*
X-34099Y-909137D01*
X-30572Y-917651D01*
X-24962Y-924962D01*
X-17651Y-930572D01*
X-9137Y-934099D01*
X0Y-935302D01*
X9137Y-934099D01*
X17651Y-930572D01*
X24962Y-924962D01*
X30572Y-917651D01*
X34099Y-909137D01*
X35302Y-900000D01*
X34099Y-890863D01*
X30572Y-882349D01*
X24962Y-875038D01*
X17651Y-869428D01*
X9137Y-865901D01*
X0Y-864698D01*
D02*
G37*
G36*
X948306Y-1037457D02*
Y-1051694D01*
X962543D01*
X961997Y-1048952D01*
X957612Y-1042388D01*
X951048Y-1038003D01*
X948306Y-1037457D01*
D02*
G37*
G36*
X938306D02*
X935564Y-1038003D01*
X929001Y-1042388D01*
X924615Y-1048952D01*
X924202Y-1051027D01*
X919104D01*
X918691Y-1048952D01*
X914306Y-1042388D01*
X907742Y-1038003D01*
X905000Y-1037457D01*
Y-1056694D01*
X895000D01*
Y-1037457D01*
X892258Y-1038003D01*
X885695Y-1042388D01*
X881309Y-1048952D01*
X880895Y-1051032D01*
X875797D01*
X875383Y-1048952D01*
X870998Y-1042388D01*
X864434Y-1038003D01*
X861692Y-1037457D01*
Y-1056694D01*
X856692D01*
Y-1061694D01*
X837456D01*
X838001Y-1064436D01*
X842387Y-1070999D01*
X848950Y-1075385D01*
X851025Y-1075798D01*
Y-1080896D01*
X848950Y-1081309D01*
X842387Y-1085694D01*
X838001Y-1092258D01*
X837456Y-1095000D01*
X856692D01*
Y-1105000D01*
X837456D01*
X838001Y-1107742D01*
X842387Y-1114305D01*
X848950Y-1118691D01*
X851030Y-1119105D01*
Y-1124203D01*
X848950Y-1124617D01*
X842387Y-1129002D01*
X838001Y-1135566D01*
X837456Y-1138308D01*
X856692D01*
Y-1143308D01*
X861692D01*
Y-1162544D01*
X864434Y-1161999D01*
X870998Y-1157613D01*
X875383Y-1151050D01*
X875797Y-1148969D01*
X880895D01*
X881309Y-1151050D01*
X885695Y-1157613D01*
X892258Y-1161999D01*
X895000Y-1162544D01*
Y-1143308D01*
X905000D01*
Y-1162544D01*
X907742Y-1161999D01*
X914306Y-1157613D01*
X918691Y-1151050D01*
X919104Y-1148975D01*
X924202D01*
X924615Y-1151050D01*
X929001Y-1157613D01*
X935564Y-1161999D01*
X938306Y-1162544D01*
Y-1143308D01*
X943306D01*
Y-1138308D01*
X962543D01*
X961997Y-1135566D01*
X957612Y-1129002D01*
X951048Y-1124617D01*
X948968Y-1124203D01*
Y-1119105D01*
X951048Y-1118691D01*
X957612Y-1114305D01*
X961997Y-1107742D01*
X962543Y-1105000D01*
X943306D01*
Y-1095000D01*
X962543D01*
X961997Y-1092258D01*
X957612Y-1085694D01*
X951048Y-1081309D01*
X948973Y-1080896D01*
Y-1075798D01*
X951048Y-1075385D01*
X957612Y-1070999D01*
X961997Y-1064436D01*
X962543Y-1061694D01*
X943306D01*
Y-1056694D01*
X938306D01*
Y-1037457D01*
D02*
G37*
G36*
X851692D02*
X848950Y-1038003D01*
X842387Y-1042388D01*
X838001Y-1048952D01*
X837456Y-1051694D01*
X851692D01*
Y-1037457D01*
D02*
G37*
G36*
X1900000Y-1064698D02*
X1890863Y-1065901D01*
X1882349Y-1069428D01*
X1875038Y-1075038D01*
X1869428Y-1082349D01*
X1865901Y-1090863D01*
X1864698Y-1100000D01*
X1865901Y-1109137D01*
X1869428Y-1117651D01*
X1875038Y-1124962D01*
X1882349Y-1130572D01*
X1890863Y-1134099D01*
X1900000Y-1135302D01*
X1909137Y-1134099D01*
X1917651Y-1130572D01*
X1924962Y-1124962D01*
X1930572Y-1117651D01*
X1934099Y-1109137D01*
X1935302Y-1100000D01*
X1934099Y-1090863D01*
X1930572Y-1082349D01*
X1924962Y-1075038D01*
X1917651Y-1069428D01*
X1909137Y-1065901D01*
X1900000Y-1064698D01*
D02*
G37*
G36*
X440000Y-999804D02*
X432169Y-1000835D01*
X424871Y-1003858D01*
X418604Y-1008667D01*
X413795Y-1014934D01*
X410772Y-1022232D01*
X409741Y-1030063D01*
X410772Y-1037895D01*
X413795Y-1045193D01*
X418604Y-1051459D01*
X424871Y-1056268D01*
X432169Y-1059291D01*
X440000Y-1060322D01*
X447832Y-1059291D01*
X455130Y-1056268D01*
X461397Y-1051459D01*
X466205Y-1045193D01*
X469228Y-1037895D01*
X470259Y-1030063D01*
X469228Y-1022232D01*
X466205Y-1014934D01*
X461397Y-1008667D01*
X455130Y-1003858D01*
X447832Y-1000835D01*
X440000Y-999804D01*
D02*
G37*
G36*
X1900000Y-964698D02*
X1890863Y-965901D01*
X1882349Y-969428D01*
X1875038Y-975038D01*
X1869428Y-982349D01*
X1865901Y-990863D01*
X1864698Y-1000000D01*
X1865901Y-1009137D01*
X1869428Y-1017651D01*
X1875038Y-1024962D01*
X1882349Y-1030572D01*
X1890863Y-1034099D01*
X1900000Y-1035302D01*
X1909137Y-1034099D01*
X1917651Y-1030572D01*
X1924962Y-1024962D01*
X1930572Y-1017651D01*
X1934099Y-1009137D01*
X1935302Y-1000000D01*
X1934099Y-990863D01*
X1930572Y-982349D01*
X1924962Y-975038D01*
X1917651Y-969428D01*
X1909137Y-965901D01*
X1900000Y-964698D01*
D02*
G37*
G36*
X-100000Y-864698D02*
X-109137Y-865901D01*
X-117651Y-869428D01*
X-124962Y-875038D01*
X-130572Y-882349D01*
X-134099Y-890863D01*
X-135302Y-900000D01*
X-134099Y-909137D01*
X-130572Y-917651D01*
X-124962Y-924962D01*
X-117651Y-930572D01*
X-109137Y-934099D01*
X-100000Y-935302D01*
X-90863Y-934099D01*
X-82349Y-930572D01*
X-75038Y-924962D01*
X-69428Y-917651D01*
X-65901Y-909137D01*
X-64698Y-900000D01*
X-65901Y-890863D01*
X-69428Y-882349D01*
X-75038Y-875038D01*
X-82349Y-869428D01*
X-90863Y-865901D01*
X-100000Y-864698D01*
D02*
G37*
G36*
X1800000Y-964698D02*
X1790863Y-965901D01*
X1782349Y-969428D01*
X1775038Y-975038D01*
X1769428Y-982349D01*
X1765901Y-990863D01*
X1764698Y-1000000D01*
X1765901Y-1009137D01*
X1769428Y-1017651D01*
X1775038Y-1024962D01*
X1782349Y-1030572D01*
X1790863Y-1034099D01*
X1800000Y-1035302D01*
X1809137Y-1034099D01*
X1817651Y-1030572D01*
X1824962Y-1024962D01*
X1830572Y-1017651D01*
X1834099Y-1009137D01*
X1835302Y-1000000D01*
X1834099Y-990863D01*
X1830572Y-982349D01*
X1824962Y-975038D01*
X1817651Y-969428D01*
X1809137Y-965901D01*
X1800000Y-964698D01*
D02*
G37*
G36*
X-100000D02*
X-109137Y-965901D01*
X-117651Y-969428D01*
X-124962Y-975038D01*
X-130572Y-982349D01*
X-134099Y-990863D01*
X-135302Y-1000000D01*
X-134099Y-1009137D01*
X-130572Y-1017651D01*
X-124962Y-1024962D01*
X-117651Y-1030572D01*
X-109137Y-1034099D01*
X-100000Y-1035302D01*
X-90863Y-1034099D01*
X-82349Y-1030572D01*
X-75038Y-1024962D01*
X-69428Y-1017651D01*
X-65901Y-1009137D01*
X-64698Y-1000000D01*
X-65901Y-990863D01*
X-69428Y-982349D01*
X-75038Y-975038D01*
X-82349Y-969428D01*
X-90863Y-965901D01*
X-100000Y-964698D01*
D02*
G37*
G36*
X0D02*
X-9137Y-965901D01*
X-17651Y-969428D01*
X-24962Y-975038D01*
X-30572Y-982349D01*
X-34099Y-990863D01*
X-35302Y-1000000D01*
X-34099Y-1009137D01*
X-30572Y-1017651D01*
X-24962Y-1024962D01*
X-17651Y-1030572D01*
X-9137Y-1034099D01*
X0Y-1035302D01*
X9137Y-1034099D01*
X17651Y-1030572D01*
X24962Y-1024962D01*
X30572Y-1017651D01*
X34099Y-1009137D01*
X35302Y-1000000D01*
X34099Y-990863D01*
X30572Y-982349D01*
X24962Y-975038D01*
X17651Y-969428D01*
X9137Y-965901D01*
X0Y-964698D01*
D02*
G37*
G36*
X-100000Y-364698D02*
X-109137Y-365901D01*
X-117651Y-369428D01*
X-124962Y-375038D01*
X-130572Y-382349D01*
X-134099Y-390863D01*
X-135302Y-400000D01*
X-134099Y-409137D01*
X-130572Y-417651D01*
X-124962Y-424962D01*
X-117651Y-430572D01*
X-109137Y-434099D01*
X-100000Y-435302D01*
X-90863Y-434099D01*
X-82349Y-430572D01*
X-75038Y-424962D01*
X-69428Y-417651D01*
X-65901Y-409137D01*
X-64698Y-400000D01*
X-65901Y-390863D01*
X-69428Y-382349D01*
X-75038Y-375038D01*
X-82349Y-369428D01*
X-90863Y-365901D01*
X-100000Y-364698D01*
D02*
G37*
G36*
X1100000Y-329741D02*
X1092169Y-330772D01*
X1084871Y-333795D01*
X1078604Y-338603D01*
X1073795Y-344870D01*
X1070772Y-352168D01*
X1069741Y-360000D01*
X1070772Y-367831D01*
X1073795Y-375129D01*
X1078604Y-381396D01*
X1084871Y-386205D01*
X1092169Y-389228D01*
X1100000Y-390259D01*
X1107832Y-389228D01*
X1115130Y-386205D01*
X1121397Y-381396D01*
X1126205Y-375129D01*
X1128249Y-370196D01*
X1755776D01*
X1768989Y-383408D01*
X1765901Y-390863D01*
X1764698Y-400000D01*
X1765901Y-409137D01*
X1769428Y-417651D01*
X1775038Y-424962D01*
X1782349Y-430572D01*
X1790863Y-434099D01*
X1800000Y-435302D01*
X1809137Y-434099D01*
X1817651Y-430572D01*
X1824962Y-424962D01*
X1830572Y-417651D01*
X1834099Y-409137D01*
X1835302Y-400000D01*
X1834099Y-390863D01*
X1830572Y-382349D01*
X1824962Y-375038D01*
X1817651Y-369428D01*
X1809137Y-365901D01*
X1800000Y-364698D01*
X1790863Y-365901D01*
X1783408Y-368989D01*
X1767209Y-352790D01*
X1763902Y-350580D01*
X1760000Y-349804D01*
X1128249D01*
X1126205Y-344870D01*
X1121397Y-338603D01*
X1115130Y-333795D01*
X1107832Y-330772D01*
X1100000Y-329741D01*
D02*
G37*
G36*
X938306Y-435637D02*
X935564Y-436183D01*
X929001Y-440568D01*
X924615Y-447132D01*
X924202Y-449207D01*
X919104D01*
X918691Y-447132D01*
X914306Y-440568D01*
X907742Y-436183D01*
X905000Y-435637D01*
Y-454874D01*
X895000D01*
Y-435637D01*
X892258Y-436183D01*
X885695Y-440568D01*
X881309Y-447132D01*
X880895Y-449212D01*
X875797D01*
X875383Y-447132D01*
X870998Y-440568D01*
X864434Y-436183D01*
X861692Y-435637D01*
Y-454874D01*
X856692D01*
Y-459874D01*
X837456D01*
X838001Y-462616D01*
X842387Y-469179D01*
X848950Y-473565D01*
X851030Y-473979D01*
Y-479077D01*
X848950Y-479491D01*
X842387Y-483876D01*
X838001Y-490440D01*
X837456Y-493182D01*
X856692D01*
Y-503182D01*
X837456D01*
X838001Y-505924D01*
X842387Y-512487D01*
X848950Y-516873D01*
X851025Y-517286D01*
Y-522384D01*
X848950Y-522797D01*
X842387Y-527182D01*
X838001Y-533746D01*
X837456Y-536488D01*
X856692D01*
Y-541488D01*
X861692D01*
Y-560724D01*
X864434Y-560179D01*
X870998Y-555793D01*
X875383Y-549230D01*
X875797Y-547149D01*
X880895D01*
X881309Y-549230D01*
X885695Y-555793D01*
X892258Y-560179D01*
X895000Y-560724D01*
Y-541488D01*
X905000D01*
Y-560724D01*
X907742Y-560179D01*
X914306Y-555793D01*
X918691Y-549230D01*
X919104Y-547155D01*
X924202D01*
X924615Y-549230D01*
X929001Y-555793D01*
X935564Y-560179D01*
X938306Y-560724D01*
Y-541488D01*
X943306D01*
Y-536488D01*
X962543D01*
X961997Y-533746D01*
X957612Y-527182D01*
X951048Y-522797D01*
X948973Y-522384D01*
Y-517286D01*
X951048Y-516873D01*
X957612Y-512487D01*
X961997Y-505924D01*
X962543Y-503182D01*
X943306D01*
Y-493182D01*
X962543D01*
X961997Y-490440D01*
X957612Y-483876D01*
X951048Y-479491D01*
X948968Y-479077D01*
Y-473979D01*
X951048Y-473565D01*
X957612Y-469179D01*
X961997Y-462616D01*
X962543Y-459874D01*
X943306D01*
Y-454874D01*
X938306D01*
Y-435637D01*
D02*
G37*
G36*
X851692D02*
X848950Y-436183D01*
X842387Y-440568D01*
X838001Y-447132D01*
X837456Y-449874D01*
X851692D01*
Y-435637D01*
D02*
G37*
G36*
X948306D02*
Y-449874D01*
X962543D01*
X961997Y-447132D01*
X957612Y-440568D01*
X951048Y-436183D01*
X948306Y-435637D01*
D02*
G37*
G36*
X1800000Y-264698D02*
X1790863Y-265901D01*
X1782349Y-269428D01*
X1775038Y-275038D01*
X1769428Y-282349D01*
X1765901Y-290863D01*
X1764698Y-300000D01*
X1765901Y-309137D01*
X1769428Y-317651D01*
X1775038Y-324962D01*
X1782349Y-330572D01*
X1790863Y-334099D01*
X1800000Y-335302D01*
X1809137Y-334099D01*
X1817651Y-330572D01*
X1824962Y-324962D01*
X1830572Y-317651D01*
X1834099Y-309137D01*
X1835302Y-300000D01*
X1834099Y-290863D01*
X1830572Y-282349D01*
X1824962Y-275038D01*
X1817651Y-269428D01*
X1809137Y-265901D01*
X1800000Y-264698D01*
D02*
G37*
G36*
X1900000D02*
X1890863Y-265901D01*
X1882349Y-269428D01*
X1875038Y-275038D01*
X1869428Y-282349D01*
X1865901Y-290863D01*
X1864698Y-300000D01*
X1865901Y-309137D01*
X1869428Y-317651D01*
X1875038Y-324962D01*
X1882349Y-330572D01*
X1890863Y-334099D01*
X1900000Y-335302D01*
X1909137Y-334099D01*
X1917651Y-330572D01*
X1924962Y-324962D01*
X1930572Y-317651D01*
X1934099Y-309137D01*
X1935302Y-300000D01*
X1934099Y-290863D01*
X1930572Y-282349D01*
X1924962Y-275038D01*
X1917651Y-269428D01*
X1909137Y-265901D01*
X1900000Y-264698D01*
D02*
G37*
G36*
X-100000D02*
X-109137Y-265901D01*
X-117651Y-269428D01*
X-124962Y-275038D01*
X-130572Y-282349D01*
X-134099Y-290863D01*
X-135302Y-300000D01*
X-134099Y-309137D01*
X-130572Y-317651D01*
X-124962Y-324962D01*
X-117651Y-330572D01*
X-109137Y-334099D01*
X-100000Y-335302D01*
X-90863Y-334099D01*
X-82349Y-330572D01*
X-75038Y-324962D01*
X-69428Y-317651D01*
X-65901Y-309137D01*
X-64698Y-300000D01*
X-65901Y-290863D01*
X-69428Y-282349D01*
X-75038Y-275038D01*
X-82349Y-269428D01*
X-90863Y-265901D01*
X-100000Y-264698D01*
D02*
G37*
G36*
X1900000Y-364698D02*
X1890863Y-365901D01*
X1882349Y-369428D01*
X1875038Y-375038D01*
X1869428Y-382349D01*
X1865901Y-390863D01*
X1864698Y-400000D01*
X1865901Y-409137D01*
X1869428Y-417651D01*
X1875038Y-424962D01*
X1882349Y-430572D01*
X1890863Y-434099D01*
X1900000Y-435302D01*
X1909137Y-434099D01*
X1917651Y-430572D01*
X1924962Y-424962D01*
X1930572Y-417651D01*
X1934099Y-409137D01*
X1935302Y-400000D01*
X1934099Y-390863D01*
X1930572Y-382349D01*
X1924962Y-375038D01*
X1917651Y-369428D01*
X1909137Y-365901D01*
X1900000Y-364698D01*
D02*
G37*
G36*
X903000Y-329741D02*
X895169Y-330772D01*
X887871Y-333795D01*
X881604Y-338603D01*
X876795Y-344870D01*
X873772Y-352168D01*
X872741Y-360000D01*
X873772Y-367831D01*
X876795Y-375129D01*
X881604Y-381396D01*
X887871Y-386205D01*
X895169Y-389228D01*
X903000Y-390259D01*
X910832Y-389228D01*
X918130Y-386205D01*
X924396Y-381396D01*
X929205Y-375129D01*
X932228Y-367831D01*
X933259Y-360000D01*
X932228Y-352168D01*
X929205Y-344870D01*
X924396Y-338603D01*
X918130Y-333795D01*
X910832Y-330772D01*
X903000Y-329741D01*
D02*
G37*
G36*
X888269Y690591D02*
X844804D01*
Y643829D01*
X539160Y338185D01*
X271421D01*
X267519Y337409D01*
X264211Y335199D01*
X-47210Y23778D01*
X-49420Y20470D01*
X-50196Y16569D01*
Y-435777D01*
X-83408Y-468989D01*
X-90863Y-465901D01*
X-100000Y-464698D01*
X-109137Y-465901D01*
X-117651Y-469428D01*
X-124962Y-475038D01*
X-130572Y-482349D01*
X-134099Y-490863D01*
X-135302Y-500000D01*
X-134099Y-509137D01*
X-130572Y-517651D01*
X-124962Y-524962D01*
X-117651Y-530572D01*
X-111273Y-533214D01*
X-109706Y-538718D01*
X-147209Y-576222D01*
X-149420Y-579529D01*
X-150196Y-583431D01*
Y-660000D01*
X-149420Y-663902D01*
X-147209Y-667210D01*
X-131011Y-683408D01*
X-134099Y-690863D01*
X-135302Y-700000D01*
X-134099Y-709137D01*
X-130572Y-717651D01*
X-124962Y-724962D01*
X-117651Y-730572D01*
X-109137Y-734099D01*
X-100000Y-735302D01*
X-90863Y-734099D01*
X-82349Y-730572D01*
X-75038Y-724962D01*
X-69428Y-717651D01*
X-65901Y-709137D01*
X-64698Y-700000D01*
X-65901Y-690863D01*
X-69428Y-682349D01*
X-75038Y-675038D01*
X-82349Y-669428D01*
X-90863Y-665901D01*
X-100000Y-664698D01*
X-109137Y-665901D01*
X-116592Y-668989D01*
X-129804Y-655777D01*
Y-626430D01*
X-126621Y-625350D01*
X-124804Y-625084D01*
X-117651Y-630572D01*
X-109137Y-634099D01*
X-100000Y-635302D01*
X-90863Y-634099D01*
X-82349Y-630572D01*
X-75038Y-624962D01*
X-69428Y-617651D01*
X-65901Y-609137D01*
X-64698Y-600000D01*
X-65901Y-590863D01*
X-68989Y-583408D01*
X-35777Y-550196D01*
X16569D01*
X20470Y-549420D01*
X23778Y-547210D01*
X862014Y291026D01*
X864224Y294334D01*
X865000Y298235D01*
Y499410D01*
X888269D01*
Y560591D01*
X844804D01*
Y519253D01*
X844608Y518268D01*
Y302459D01*
X39763Y-502386D01*
X36749Y-500899D01*
X35276Y-499802D01*
X34099Y-490863D01*
X30572Y-482349D01*
X24962Y-475038D01*
X17651Y-469428D01*
X9137Y-465901D01*
X198Y-464724D01*
X-899Y-463251D01*
X-2386Y-460237D01*
X7655Y-450196D01*
X16569D01*
X20470Y-449420D01*
X23778Y-447210D01*
X138415Y-332573D01*
X140987Y-333639D01*
X150000Y-334825D01*
X159014Y-333639D01*
X167413Y-330159D01*
X174625Y-324625D01*
X180160Y-317413D01*
X183639Y-309013D01*
X184826Y-300000D01*
X183639Y-290986D01*
X180160Y-282587D01*
X174625Y-275375D01*
X167413Y-269840D01*
X160196Y-266851D01*
Y-233149D01*
X167413Y-230160D01*
X174625Y-224625D01*
X180160Y-217412D01*
X183639Y-209013D01*
X184826Y-200000D01*
X183639Y-190986D01*
X180160Y-182587D01*
X174625Y-175375D01*
X167413Y-169840D01*
X159014Y-166361D01*
X150000Y-165174D01*
X140987Y-166361D01*
X132588Y-169840D01*
X125375Y-175375D01*
X119841Y-182587D01*
X116361Y-190986D01*
X115175Y-200000D01*
X116361Y-209013D01*
X119841Y-217412D01*
X125375Y-224625D01*
X132588Y-230160D01*
X139804Y-233149D01*
Y-266851D01*
X132588Y-269840D01*
X125375Y-275375D01*
X119841Y-282587D01*
X116361Y-290986D01*
X115175Y-300000D01*
X116361Y-309013D01*
X119841Y-317413D01*
X121966Y-320183D01*
X39763Y-402386D01*
X36749Y-400899D01*
X35276Y-399802D01*
X34099Y-390863D01*
X30572Y-382349D01*
X24962Y-375038D01*
X17651Y-369428D01*
X9137Y-365901D01*
X0Y-364698D01*
X-9137Y-365901D01*
X-17651Y-369428D01*
X-24804Y-374916D01*
X-26621Y-374651D01*
X-29804Y-373570D01*
Y-326430D01*
X-26621Y-325349D01*
X-24804Y-325084D01*
X-17651Y-330572D01*
X-9137Y-334099D01*
X0Y-335302D01*
X9137Y-334099D01*
X17651Y-330572D01*
X24962Y-324962D01*
X30572Y-317651D01*
X34099Y-309137D01*
X35302Y-300000D01*
X34099Y-290863D01*
X30572Y-282349D01*
X24962Y-275038D01*
X17651Y-269428D01*
X9137Y-265901D01*
X0Y-264698D01*
X-9137Y-265901D01*
X-17651Y-269428D01*
X-24804Y-274916D01*
X-26621Y-274651D01*
X-29804Y-273570D01*
Y-226430D01*
X-26621Y-225350D01*
X-24804Y-225084D01*
X-17651Y-230572D01*
X-9137Y-234099D01*
X0Y-235302D01*
X9137Y-234099D01*
X17651Y-230572D01*
X24962Y-224962D01*
X30572Y-217651D01*
X34099Y-209137D01*
X35302Y-200000D01*
X34099Y-190863D01*
X30572Y-182349D01*
X24962Y-175038D01*
X17651Y-169428D01*
X9137Y-165901D01*
X0Y-164698D01*
X-9137Y-165901D01*
X-17651Y-169428D01*
X-24804Y-174916D01*
X-26621Y-174650D01*
X-29804Y-173570D01*
Y-126430D01*
X-26621Y-125350D01*
X-24804Y-125084D01*
X-17651Y-130572D01*
X-9137Y-134099D01*
X0Y-135302D01*
X9137Y-134099D01*
X17651Y-130572D01*
X24962Y-124962D01*
X30572Y-117651D01*
X34099Y-109137D01*
X35302Y-100000D01*
X34099Y-90863D01*
X30572Y-82349D01*
X24962Y-75038D01*
X17651Y-69428D01*
X9137Y-65901D01*
X0Y-64698D01*
X-9137Y-65901D01*
X-17651Y-69428D01*
X-24804Y-74916D01*
X-26621Y-74650D01*
X-29804Y-73570D01*
Y-33852D01*
X-24804Y-31386D01*
X-20173Y-34940D01*
X-10442Y-38971D01*
X-5000Y-39687D01*
Y0D01*
X0D01*
Y5000D01*
X39687D01*
X38971Y10442D01*
X34940Y20173D01*
X28528Y28528D01*
X20173Y34940D01*
X10442Y38971D01*
X4654Y39733D01*
X2862Y45012D01*
X275644Y317793D01*
X543383D01*
X547285Y318569D01*
X550593Y320779D01*
X859223Y629410D01*
X888269D01*
Y690591D01*
D02*
G37*
G36*
X1900000Y-564698D02*
X1890863Y-565901D01*
X1882349Y-569428D01*
X1875038Y-575038D01*
X1869428Y-582349D01*
X1865901Y-590863D01*
X1864698Y-600000D01*
X1865901Y-609137D01*
X1869428Y-617651D01*
X1875038Y-624962D01*
X1882349Y-630572D01*
X1890863Y-634099D01*
X1900000Y-635302D01*
X1909137Y-634099D01*
X1917651Y-630572D01*
X1924962Y-624962D01*
X1930572Y-617651D01*
X1934099Y-609137D01*
X1935302Y-600000D01*
X1934099Y-590863D01*
X1930572Y-582349D01*
X1924962Y-575038D01*
X1917651Y-569428D01*
X1909137Y-565901D01*
X1900000Y-564698D01*
D02*
G37*
G36*
X851692Y-546488D02*
X837456D01*
X838001Y-549230D01*
X842387Y-555793D01*
X848950Y-560179D01*
X851692Y-560724D01*
Y-546488D01*
D02*
G37*
G36*
X1800000Y-564698D02*
X1790863Y-565901D01*
X1782349Y-569428D01*
X1775038Y-575038D01*
X1769428Y-582349D01*
X1765901Y-590863D01*
X1764698Y-600000D01*
X1765901Y-609137D01*
X1769428Y-617651D01*
X1775038Y-624962D01*
X1782349Y-630572D01*
X1790863Y-634099D01*
X1800000Y-635302D01*
X1809137Y-634099D01*
X1817651Y-630572D01*
X1824962Y-624962D01*
X1830572Y-617651D01*
X1834099Y-609137D01*
X1835302Y-600000D01*
X1834099Y-590863D01*
X1830572Y-582349D01*
X1824962Y-575038D01*
X1817651Y-569428D01*
X1809137Y-565901D01*
X1800000Y-564698D01*
D02*
G37*
G36*
X1900000Y-664698D02*
X1890863Y-665901D01*
X1882349Y-669428D01*
X1875038Y-675038D01*
X1869428Y-682349D01*
X1865901Y-690863D01*
X1864698Y-700000D01*
X1865901Y-709137D01*
X1869428Y-717651D01*
X1875038Y-724962D01*
X1882349Y-730572D01*
X1890863Y-734099D01*
X1900000Y-735302D01*
X1909137Y-734099D01*
X1917651Y-730572D01*
X1924962Y-724962D01*
X1930572Y-717651D01*
X1934099Y-709137D01*
X1935302Y-700000D01*
X1934099Y-690863D01*
X1930572Y-682349D01*
X1924962Y-675038D01*
X1917651Y-669428D01*
X1909137Y-665901D01*
X1900000Y-664698D01*
D02*
G37*
G36*
X0Y-564698D02*
X-9137Y-565901D01*
X-17651Y-569428D01*
X-24962Y-575038D01*
X-30572Y-582349D01*
X-34099Y-590863D01*
X-35302Y-600000D01*
X-34099Y-609137D01*
X-30572Y-617651D01*
X-24962Y-624962D01*
X-17651Y-630572D01*
X-9137Y-634099D01*
X0Y-635302D01*
X9137Y-634099D01*
X17651Y-630572D01*
X24962Y-624962D01*
X30572Y-617651D01*
X34099Y-609137D01*
X35302Y-600000D01*
X34099Y-590863D01*
X30572Y-582349D01*
X24962Y-575038D01*
X17651Y-569428D01*
X9137Y-565901D01*
X0Y-564698D01*
D02*
G37*
G36*
X1900000Y-464698D02*
X1890863Y-465901D01*
X1882349Y-469428D01*
X1875038Y-475038D01*
X1869428Y-482349D01*
X1865901Y-490863D01*
X1864698Y-500000D01*
X1865901Y-509137D01*
X1869428Y-517651D01*
X1875038Y-524962D01*
X1882349Y-530572D01*
X1890863Y-534099D01*
X1900000Y-535302D01*
X1909137Y-534099D01*
X1917651Y-530572D01*
X1924962Y-524962D01*
X1930572Y-517651D01*
X1934099Y-509137D01*
X1935302Y-500000D01*
X1934099Y-490863D01*
X1930572Y-482349D01*
X1924962Y-475038D01*
X1917651Y-469428D01*
X1909137Y-465901D01*
X1900000Y-464698D01*
D02*
G37*
G36*
X290000Y-424615D02*
X282169Y-425646D01*
X274871Y-428669D01*
X268604Y-433478D01*
X263795Y-439744D01*
X260772Y-447042D01*
X259741Y-454874D01*
X260772Y-462705D01*
X263795Y-470003D01*
X268604Y-476270D01*
X274871Y-481079D01*
X282169Y-484102D01*
X290000Y-485133D01*
X297832Y-484102D01*
X305130Y-481079D01*
X311397Y-476270D01*
X316205Y-470003D01*
X319228Y-462705D01*
X320259Y-454874D01*
X319228Y-447042D01*
X316205Y-439744D01*
X311397Y-433478D01*
X305130Y-428669D01*
X297832Y-425646D01*
X290000Y-424615D01*
D02*
G37*
G36*
X1800000Y-464698D02*
X1790863Y-465901D01*
X1782349Y-469428D01*
X1775038Y-475038D01*
X1769428Y-482349D01*
X1765901Y-490863D01*
X1764698Y-500000D01*
X1765901Y-509137D01*
X1769428Y-517651D01*
X1775038Y-524962D01*
X1782349Y-530572D01*
X1790863Y-534099D01*
X1800000Y-535302D01*
X1809137Y-534099D01*
X1817651Y-530572D01*
X1824962Y-524962D01*
X1830572Y-517651D01*
X1834099Y-509137D01*
X1835302Y-500000D01*
X1834099Y-490863D01*
X1830572Y-482349D01*
X1824962Y-475038D01*
X1817651Y-469428D01*
X1809137Y-465901D01*
X1800000Y-464698D01*
D02*
G37*
G36*
X962543Y-546488D02*
X948306D01*
Y-560724D01*
X951048Y-560179D01*
X957612Y-555793D01*
X961997Y-549230D01*
X962543Y-546488D01*
D02*
G37*
G36*
X1370000Y-379741D02*
X1362169Y-380772D01*
X1354871Y-383795D01*
X1348604Y-388603D01*
X1343795Y-394870D01*
X1340772Y-402168D01*
X1339741Y-410000D01*
X1340772Y-417831D01*
X1343795Y-425129D01*
X1348604Y-431396D01*
X1354871Y-436205D01*
X1359804Y-438248D01*
Y-481547D01*
X1354871Y-483591D01*
X1348604Y-488399D01*
X1343795Y-494666D01*
X1340772Y-501964D01*
X1339741Y-509796D01*
X1340772Y-517627D01*
X1343795Y-524925D01*
X1348604Y-531192D01*
X1354871Y-536001D01*
X1362169Y-539024D01*
X1370000Y-540055D01*
X1377832Y-539024D01*
X1385130Y-536001D01*
X1391397Y-531192D01*
X1396205Y-524925D01*
X1399228Y-517627D01*
X1400259Y-509796D01*
X1399228Y-501964D01*
X1396205Y-494666D01*
X1391397Y-488399D01*
X1385130Y-483591D01*
X1380196Y-481547D01*
Y-438248D01*
X1385130Y-436205D01*
X1391397Y-431396D01*
X1396205Y-425129D01*
X1399228Y-417831D01*
X1400259Y-410000D01*
X1399228Y-402168D01*
X1396205Y-394870D01*
X1391397Y-388603D01*
X1385130Y-383795D01*
X1377832Y-380772D01*
X1370000Y-379741D01*
D02*
G37*
%LPD*%
D10*
X756740Y895992D02*
D03*
X693748D02*
D03*
X918976D02*
D03*
X855984D02*
D03*
X1088976Y898229D02*
D03*
X1025985D02*
D03*
D11*
X933464Y660000D02*
D03*
X866536D02*
D03*
X1046536Y530000D02*
D03*
X1113464D02*
D03*
X933464D02*
D03*
X866536D02*
D03*
D12*
X1510118Y-1094464D02*
Y-1025854D01*
X1084264Y-600000D02*
X1510118Y-1025854D01*
X1887813Y-1660000D02*
X1899344Y-1671531D01*
X1186536Y-1860000D02*
X1442586D01*
X1642586Y-1660000D02*
X1887813D01*
X693748Y895992D02*
Y1035992D01*
X743040Y909693D02*
X756740Y895992D01*
X743040Y909693D02*
Y1055575D01*
X1015040Y895992D02*
X1027480Y908432D01*
Y1035992D01*
X854804Y897173D02*
X855984Y895992D01*
X854804Y897173D02*
Y1034000D01*
X917480Y897488D02*
X918976Y895992D01*
X1075276Y898749D02*
X1078032Y895992D01*
X719614Y1079000D02*
X917480D01*
Y897488D02*
Y1079000D01*
X485032Y-2421442D02*
Y-2281583D01*
X970992Y-2579008D02*
X1100000Y-2450000D01*
X854804Y298235D02*
Y518268D01*
X933464Y650000D02*
X943464Y660000D01*
X-99968Y-603960D02*
Y-599968D01*
X-95244Y-502386D02*
Y-495244D01*
X16569Y-440000D02*
X150000Y-306568D01*
X-140000Y-660000D02*
Y-583431D01*
X3432Y-440000D02*
X16569D01*
X-96578Y-540010D02*
X-83441D01*
X-100000Y-700000D02*
X-100000D01*
X-40005Y-496573D02*
Y-483436D01*
X-140000Y-660000D02*
X-100000Y-700000D01*
X-140000Y-583431D02*
X-96578Y-540010D01*
X-40005Y-483436D02*
X3432Y-440000D01*
X-83441Y-540010D02*
X-40005Y-496573D01*
X631000Y1079000D02*
X719614D01*
X743040Y1055575D01*
X1370000Y-509796D02*
Y-410000D01*
X1442586Y-1860000D02*
X1642586Y-1660000D01*
X1800000Y-400000D02*
X1800000D01*
X1760000Y-360000D02*
X1800000Y-400000D01*
X866536Y651142D02*
Y660000D01*
X1900000Y-1400000D02*
X1900000D01*
X1490000Y-1340000D02*
X1840000D01*
X1900000Y-1400000D01*
X1090000Y-940000D02*
X1490000Y-1340000D01*
X-40000Y-540000D02*
X16569D01*
X854804Y298235D01*
X-99968Y-599968D02*
X-40000Y-540000D01*
X854804Y518268D02*
X866536Y530000D01*
X543383Y327989D02*
X866536Y651142D01*
X1113464Y530000D02*
X1303180D01*
X933464D02*
X1046536D01*
X943464Y660000D02*
X1200000D01*
X359449Y-2156000D02*
X485032Y-2281583D01*
X1390551Y-2006000D02*
X1540551Y-2156000D01*
X640000Y-2006000D02*
X1390551D01*
X1440766Y-1124897D02*
Y-1006000D01*
X1100000Y-360000D02*
X1760000D01*
X289882Y-2275789D02*
Y-2186433D01*
X259449Y-2156000D02*
X289882Y-2186433D01*
Y-2275789D02*
X593101Y-2579008D01*
X150000Y-306568D02*
Y-210000D01*
X140000Y-200000D02*
X150000Y-210000D01*
X-40000Y-440000D02*
Y16569D01*
X271421Y327989D01*
X543383D01*
X-95244Y-495244D02*
X-40000Y-440000D01*
X1510118Y-1094464D02*
X1540551Y-1124897D01*
X760000Y25000D02*
X795433Y-10433D01*
Y-291196D02*
Y-10433D01*
X214016Y-872613D02*
X795433Y-291196D01*
X214016Y-1142553D02*
Y-872613D01*
X16569Y-1340000D02*
X214016Y-1142553D01*
X-40000Y-1340000D02*
X16569D01*
X-100000Y-1400000D02*
X-40000Y-1340000D01*
X917480Y1079000D02*
X1061000D01*
X1075276Y1064724D01*
Y898749D02*
Y1064724D01*
X620000Y-600000D02*
X1084264D01*
X593101Y-2579008D02*
X970992D01*
D13*
X1850000Y200000D02*
D03*
X-50000D02*
D03*
X75000Y-2400000D02*
D03*
X1725000D02*
D03*
D14*
X1800000Y0D02*
D03*
Y-100000D02*
D03*
Y-200000D02*
D03*
Y-300000D02*
D03*
Y-400000D02*
D03*
Y-500000D02*
D03*
Y-600000D02*
D03*
Y-700000D02*
D03*
Y-800000D02*
D03*
Y-900000D02*
D03*
Y-1000000D02*
D03*
Y-1100000D02*
D03*
Y-1200000D02*
D03*
Y-1300000D02*
D03*
Y-1400000D02*
D03*
Y-1500000D02*
D03*
Y-1600000D02*
D03*
Y-1700000D02*
D03*
Y-1800000D02*
D03*
Y-1900000D02*
D03*
Y-2000000D02*
D03*
Y-2100000D02*
D03*
Y-2200000D02*
D03*
X1900000Y-100000D02*
D03*
Y-200000D02*
D03*
Y-300000D02*
D03*
Y-400000D02*
D03*
Y-500000D02*
D03*
Y-600000D02*
D03*
Y-700000D02*
D03*
Y-800000D02*
D03*
Y-900000D02*
D03*
Y-1000000D02*
D03*
Y-1100000D02*
D03*
Y-1200000D02*
D03*
Y-1300000D02*
D03*
Y-1400000D02*
D03*
Y-1500000D02*
D03*
Y-1600000D02*
D03*
Y-1700000D02*
D03*
Y-1800000D02*
D03*
Y-1900000D02*
D03*
Y-2000000D02*
D03*
Y-2100000D02*
D03*
Y-2200000D02*
D03*
X0Y0D02*
D03*
X-100000D02*
D03*
Y-100000D02*
D03*
Y-200000D02*
D03*
Y-300000D02*
D03*
Y-400000D02*
D03*
Y-500000D02*
D03*
Y-600000D02*
D03*
Y-700000D02*
D03*
Y-800000D02*
D03*
Y-900000D02*
D03*
Y-1000000D02*
D03*
Y-1100000D02*
D03*
Y-1200000D02*
D03*
Y-1300000D02*
D03*
Y-1400000D02*
D03*
Y-1500000D02*
D03*
Y-1600000D02*
D03*
Y-1700000D02*
D03*
Y-1800000D02*
D03*
Y-1900000D02*
D03*
Y-2000000D02*
D03*
Y-2100000D02*
D03*
Y-2200000D02*
D03*
X0Y-100000D02*
D03*
Y-200000D02*
D03*
Y-300000D02*
D03*
Y-400000D02*
D03*
Y-500000D02*
D03*
Y-600000D02*
D03*
Y-700000D02*
D03*
Y-800000D02*
D03*
Y-900000D02*
D03*
Y-1000000D02*
D03*
Y-1100000D02*
D03*
Y-1200000D02*
D03*
Y-1300000D02*
D03*
Y-1400000D02*
D03*
Y-1500000D02*
D03*
Y-1600000D02*
D03*
Y-1700000D02*
D03*
Y-1800000D02*
D03*
Y-1900000D02*
D03*
Y-2000000D02*
D03*
Y-2100000D02*
D03*
Y-2200000D02*
D03*
X1900000Y0D02*
D03*
D15*
X711614Y-740000D02*
D03*
D16*
X1436200Y590000D02*
D03*
X363800D02*
D03*
D17*
X525700D02*
D03*
X1274300Y588400D02*
D03*
D18*
X150000Y0D02*
D03*
D19*
Y-100000D02*
D03*
Y-200000D02*
D03*
Y-300000D02*
D03*
D20*
X1440551Y-2156000D02*
D03*
X1540551D02*
D03*
X359449D02*
D03*
X259449D02*
D03*
Y-1124897D02*
D03*
X359449D02*
D03*
X1440551D02*
D03*
X1540551D02*
D03*
D21*
X1150000Y-166000D02*
D03*
X1050000D02*
D03*
X950000D02*
D03*
X850000D02*
D03*
X750000D02*
D03*
X650000D02*
D03*
D22*
X693748Y1035992D02*
D03*
X854804Y1034000D02*
D03*
X1027480Y1035992D02*
D03*
X1255694Y-1546196D02*
D03*
X707480Y-2544008D02*
D03*
X714566Y-1946000D02*
D03*
Y-1340000D02*
D03*
X1320000Y-2330000D02*
D03*
X1186536Y-1860000D02*
D03*
X1370000Y-410000D02*
D03*
Y-509796D02*
D03*
X1420000Y120000D02*
D03*
X631000Y1079000D02*
D03*
X607000Y637000D02*
D03*
X1260000Y-2143678D02*
D03*
X1076000D02*
D03*
X1080000Y-1540000D02*
D03*
X1100000Y-360000D02*
D03*
X1090000Y-940000D02*
D03*
X1247078Y-870000D02*
D03*
X620000Y-600000D02*
D03*
X903000Y-360000D02*
D03*
X1100000Y-2450000D02*
D03*
X150000Y-2250000D02*
D03*
X1303180Y530000D02*
D03*
X990000D02*
D03*
X1200000Y660000D02*
D03*
X410000Y-1637426D02*
D03*
X1444566Y-1716000D02*
D03*
X640000Y-2006000D02*
D03*
X485032Y-2421442D02*
D03*
X1076000Y85992D02*
D03*
X440000Y-1030063D02*
D03*
X290000Y-454874D02*
D03*
X1440766Y-1006000D02*
D03*
X760000Y25000D02*
D03*
X1340000Y340000D02*
D03*
D23*
X943306Y-1056694D02*
D03*
X900000D02*
D03*
X856692D02*
D03*
X943306Y-1100000D02*
D03*
X900000D02*
D03*
X856692D02*
D03*
X943306Y-1143308D02*
D03*
X900000D02*
D03*
X856692D02*
D03*
X859692Y-1746308D02*
D03*
X903000D02*
D03*
X946306D02*
D03*
X859692Y-1703000D02*
D03*
X903000D02*
D03*
X946306D02*
D03*
X859692Y-1659694D02*
D03*
X903000D02*
D03*
X946306D02*
D03*
X856692Y-2349308D02*
D03*
X900000D02*
D03*
X943306D02*
D03*
X856692Y-2306000D02*
D03*
X900000D02*
D03*
X943306D02*
D03*
X856692Y-2262694D02*
D03*
X900000D02*
D03*
X943306D02*
D03*
Y-454874D02*
D03*
X900000D02*
D03*
X856692D02*
D03*
X943306Y-498182D02*
D03*
X900000D02*
D03*
X856692D02*
D03*
X943306Y-541488D02*
D03*
X900000D02*
D03*
X856692D02*
D03*
%TF.MD5,b7bf49beaa4d5516973531b97e0c121e*%
M02*
