G04 Layer_Color=32768*
%FSLAX26Y26*%
%MOIN*%
%TF.FileFunction,Other,Mechanical_15*%
%TF.Part,Single*%
G01*
G75*
%TA.AperFunction,NonConductor*%
%ADD51C,0.003937*%
%ADD64C,0.001968*%
D51*
X1222000Y-2239662D02*
Y-2200292D01*
X1202314Y-2219976D02*
X1241684D01*
X545414Y-980000D02*
X584784D01*
X565100Y-999686D02*
Y-960316D01*
X280000Y-719686D02*
Y-680316D01*
X260314Y-700000D02*
X299684D01*
X363800Y-595686D02*
Y-556316D01*
X344114Y-576000D02*
X383484D01*
X280000Y-1023298D02*
Y-983928D01*
X260316Y-1003614D02*
X299686D01*
X280000Y-875684D02*
Y-836314D01*
X260316Y-856000D02*
X299686D01*
X363800Y-1014440D02*
Y-975070D01*
X344116Y-994756D02*
X383486D01*
X1110315Y180000D02*
X1149685D01*
X1129999Y160316D02*
Y199686D01*
X1110315Y250000D02*
X1149685D01*
X1130001Y230314D02*
Y269684D01*
X880314Y-1100000D02*
X919684D01*
X900000Y-1119686D02*
Y-1080316D01*
X705558Y895992D02*
X744928D01*
X725244Y876306D02*
Y915676D01*
X867794Y895992D02*
X907164D01*
X887480Y876306D02*
Y915676D01*
X1037794Y898229D02*
X1077165D01*
X1057480Y878543D02*
Y917913D01*
X900000Y640314D02*
Y679684D01*
X880314Y660000D02*
X919684D01*
X1080000Y510314D02*
Y549684D01*
X1060314Y530000D02*
X1099684D01*
X900000Y510314D02*
Y549684D01*
X880314Y530000D02*
X919684D01*
X725244Y894314D02*
Y933684D01*
X705558Y914000D02*
X744928D01*
X885244Y894314D02*
Y933684D01*
X865558Y914000D02*
X904928D01*
X1055244Y894314D02*
Y933684D01*
X1035558Y914000D02*
X1074928D01*
X1200314Y-1010000D02*
X1239684D01*
X1220000Y-1029686D02*
Y-990316D01*
X1188536Y-319686D02*
Y-280316D01*
X1168850Y-300000D02*
X1208220D01*
X790314Y-340000D02*
X829684D01*
X810000Y-359686D02*
Y-320316D01*
X290314Y-1666000D02*
X329684D01*
X310000Y-1685686D02*
Y-1646316D01*
X292170Y-1790311D02*
X331540D01*
X311856Y-1809997D02*
Y-1770627D01*
X385346Y-1756000D02*
X424716D01*
X405032Y-1775686D02*
Y-1736316D01*
X820000Y-1555686D02*
Y-1516316D01*
X800314Y-1536000D02*
X839684D01*
X561292Y-1605686D02*
Y-1566316D01*
X541606Y-1586000D02*
X580976D01*
X563000Y-1710686D02*
Y-1671316D01*
X543314Y-1691000D02*
X582684D01*
X1222000Y-1735686D02*
Y-1696316D01*
X1202314Y-1716000D02*
X1241684D01*
X903000Y-1722686D02*
Y-1683316D01*
X883314Y-1703000D02*
X922684D01*
X990000Y-1875686D02*
Y-1836316D01*
X970314Y-1856000D02*
X1009684D01*
X750000Y-1885686D02*
Y-1846316D01*
X730314Y-1866000D02*
X769684D01*
X960314Y-650000D02*
X999684D01*
X980000Y-669686D02*
Y-630316D01*
X1166850Y-590000D02*
X1206220D01*
X1186536Y-609686D02*
Y-570316D01*
X1166850Y-420000D02*
X1206220D01*
X1186536Y-439686D02*
Y-400316D01*
X545414Y-370000D02*
X584784D01*
X565100Y-389686D02*
Y-350316D01*
X530314Y-484204D02*
X569684D01*
X550000Y-503890D02*
Y-464520D01*
X730314Y-660000D02*
X769684D01*
X750000Y-679686D02*
Y-640316D01*
X990000Y-1555686D02*
Y-1516316D01*
X970314Y-1536000D02*
X1009684D01*
X530314Y-1087204D02*
X569684D01*
X550000Y-1106890D02*
Y-1067520D01*
X1202314Y-1189568D02*
X1241684D01*
X1222000Y-1209252D02*
Y-1169882D01*
X1166850Y-509796D02*
X1206220D01*
X1186536Y-529480D02*
Y-490110D01*
X1222000Y-1635686D02*
Y-1596316D01*
X1202314Y-1616000D02*
X1241684D01*
X961009Y-1264008D02*
X1000379D01*
X980695Y-1283694D02*
Y-1244324D01*
X970314Y-940000D02*
X1009684D01*
X990000Y-959686D02*
Y-920316D01*
X790314Y-940000D02*
X829684D01*
X810000Y-959686D02*
Y-920316D01*
X730314Y-1270000D02*
X769684D01*
X750000Y-1289686D02*
Y-1250316D01*
X295346Y-2281442D02*
X334716D01*
X315032Y-2301126D02*
Y-2261756D01*
X292170Y-2421442D02*
X331540D01*
X311856Y-2441126D02*
Y-2401756D01*
X537629Y-2314907D02*
X576999D01*
X557315Y-2334591D02*
Y-2295221D01*
X900000Y-2325686D02*
Y-2286316D01*
X880314Y-2306000D02*
X919684D01*
X1222000Y-2423646D02*
Y-2384276D01*
X1202314Y-2403960D02*
X1241684D01*
X1222000Y-2345686D02*
Y-2306316D01*
X1202314Y-2326000D02*
X1241684D01*
X973962Y-334008D02*
X1013332D01*
X993648Y-353694D02*
Y-314324D01*
X1222000Y-1815686D02*
Y-1776316D01*
X1202314Y-1796000D02*
X1241684D01*
X985032Y-2481126D02*
Y-2441756D01*
X965346Y-2461442D02*
X1004716D01*
X980314Y-2160330D02*
Y-2120960D01*
X960630Y-2140646D02*
X1000000D01*
X820000Y-2160686D02*
Y-2121316D01*
X800314Y-2141000D02*
X839684D01*
X575032Y-2191126D02*
Y-2151756D01*
X555346Y-2171442D02*
X594716D01*
X745032Y-2491126D02*
Y-2451756D01*
X725346Y-2471442D02*
X764716D01*
X1316960Y224000D02*
X1356330D01*
X1336646Y204314D02*
Y243684D01*
X1202314Y-1112796D02*
X1241684D01*
X1222000Y-1132480D02*
Y-1093110D01*
X280000Y-581844D02*
Y-542474D01*
X260314Y-562158D02*
X299684D01*
X880314Y-498182D02*
X919684D01*
X900000Y-517866D02*
Y-478496D01*
X747480Y96307D02*
Y135677D01*
X727795Y115992D02*
X767165D01*
X917480Y-53693D02*
Y-14323D01*
X897795Y-34008D02*
X937165D01*
X918976Y56307D02*
Y95677D01*
X899291Y75992D02*
X938661D01*
X877480Y176307D02*
Y215677D01*
X857795Y195992D02*
X897165D01*
D64*
X1166882Y-2249504D02*
X1277118D01*
X1166882Y-2190448D02*
X1277118D01*
X1166882Y-2249504D02*
Y-2190448D01*
X1277118Y-2249504D02*
Y-2190448D01*
X509982Y-1009528D02*
Y-950472D01*
X620218Y-1009528D02*
Y-950472D01*
X509982Y-1009528D02*
X620218D01*
X509982Y-950472D02*
X620218D01*
X240630Y-631102D02*
X319370D01*
X240630Y-768898D02*
X319370D01*
X240630D02*
Y-631102D01*
X319370Y-768898D02*
Y-631102D01*
X324430Y-507102D02*
X403170D01*
X324430Y-644898D02*
X403170D01*
X324430D02*
Y-507102D01*
X403170Y-644898D02*
Y-507102D01*
X250472Y-1058732D02*
X309528D01*
X250472Y-948496D02*
X309528D01*
Y-1058732D02*
Y-948496D01*
X250472Y-1058732D02*
Y-948496D01*
X240630Y-924898D02*
X319370D01*
X240630Y-787102D02*
X319370D01*
Y-924898D02*
Y-787102D01*
X240630Y-924898D02*
Y-787102D01*
X324430Y-1063654D02*
X403170D01*
X324430Y-925858D02*
X403170D01*
Y-1063654D02*
Y-925858D01*
X324430Y-1063654D02*
Y-925858D01*
X1074881Y150472D02*
Y209528D01*
X1185117Y150472D02*
Y209528D01*
X1074881Y150472D02*
X1185117D01*
X1074881Y209528D02*
X1185117D01*
X1185119Y220472D02*
Y279528D01*
X1074883Y220472D02*
Y279528D01*
X1185119D01*
X1074883Y220472D02*
X1185119D01*
X521299Y-319756D02*
Y-288260D01*
X584291Y-319756D02*
Y-288260D01*
X521299Y-319756D02*
X584291D01*
X521299Y-288260D02*
X584291D01*
X540983Y-304008D02*
X564605D01*
X552795Y-315820D02*
Y-292198D01*
X1053544Y-1210236D02*
Y-989764D01*
X746456Y-1210236D02*
Y-989764D01*
X1053544D01*
X746456Y-1210236D02*
X1053544D01*
X519227Y-929756D02*
Y-898260D01*
X582220Y-929756D02*
Y-898260D01*
X519227Y-929756D02*
X582220D01*
X519227Y-898260D02*
X582220D01*
X538912Y-914008D02*
X562534D01*
X550723Y-925820D02*
Y-902198D01*
X780362Y864496D02*
Y927488D01*
X670126Y864496D02*
Y927488D01*
Y864496D02*
X780362D01*
X670126Y927488D02*
X780362D01*
X942598Y864496D02*
Y927488D01*
X832362Y864496D02*
Y927488D01*
Y864496D02*
X942598D01*
X832362Y927488D02*
X942598D01*
X1112599Y866733D02*
Y929725D01*
X1002362Y866733D02*
Y929725D01*
Y866733D02*
X1112599D01*
X1002362Y929725D02*
X1112599D01*
X844882Y630472D02*
X955118D01*
X844882Y689528D02*
X955118D01*
Y630472D02*
Y689528D01*
X844882Y630472D02*
Y689528D01*
X1024882Y559528D02*
X1135118D01*
X1024882Y500472D02*
X1135118D01*
X1024882D02*
Y559528D01*
X1135118Y500472D02*
Y559528D01*
X844882Y500472D02*
X955118D01*
X844882Y559528D02*
X955118D01*
Y500472D02*
Y559528D01*
X844882Y500472D02*
Y559528D01*
X670126Y884472D02*
X780362D01*
X670126Y943528D02*
X780362D01*
X670126Y884472D02*
Y943528D01*
X780362Y884472D02*
Y943528D01*
X830126Y884472D02*
X940362D01*
X830126Y943528D02*
X940362D01*
X830126Y884472D02*
Y943528D01*
X940362Y884472D02*
Y943528D01*
X1000126Y884472D02*
X1110362D01*
X1000126Y943528D02*
X1110362D01*
X1000126Y884472D02*
Y943528D01*
X1110362Y884472D02*
Y943528D01*
X1275118Y-1039528D02*
Y-980472D01*
X1164882Y-1039528D02*
Y-980472D01*
X1275118D01*
X1164882Y-1039528D02*
X1275118D01*
X1133418Y-270472D02*
X1243654D01*
X1133418Y-329528D02*
X1243654D01*
Y-270472D01*
X1133418Y-329528D02*
Y-270472D01*
X865118Y-369528D02*
Y-310472D01*
X754882Y-369528D02*
Y-310472D01*
X865118D01*
X754882Y-369528D02*
X865118D01*
X339528Y-1721118D02*
Y-1610882D01*
X280472Y-1721118D02*
Y-1610882D01*
Y-1721118D02*
X339528D01*
X280472Y-1610882D02*
X339528D01*
X351226Y-1859209D02*
Y-1721415D01*
X272486Y-1859209D02*
Y-1721415D01*
Y-1859209D02*
X351226D01*
X272486Y-1721415D02*
X351226D01*
X444402Y-1824898D02*
Y-1687102D01*
X365662Y-1824898D02*
Y-1687102D01*
Y-1824898D02*
X444402D01*
X365662Y-1687102D02*
X444402D01*
X764882Y-1565528D02*
X875118D01*
X764882Y-1506472D02*
X875118D01*
X764882Y-1565528D02*
Y-1506472D01*
X875118Y-1565528D02*
Y-1506472D01*
X541566Y-1537812D02*
Y-1514190D01*
X529756Y-1526000D02*
X553378D01*
X510070Y-1510252D02*
X573062D01*
X510070Y-1541748D02*
X573062D01*
Y-1510252D01*
X510070Y-1541748D02*
Y-1510252D01*
X506174Y-1556472D02*
X616410D01*
X506174Y-1615528D02*
X616410D01*
Y-1556472D01*
X506174Y-1615528D02*
Y-1556472D01*
X494102Y-1730370D02*
X631898D01*
X494102Y-1651630D02*
X631898D01*
X494102Y-1730370D02*
Y-1651630D01*
X631898Y-1730370D02*
Y-1651630D01*
X1166882Y-1745528D02*
X1277118D01*
X1166882Y-1686472D02*
X1277118D01*
X1166882Y-1745528D02*
Y-1686472D01*
X1277118Y-1745528D02*
Y-1686472D01*
X749456Y-1813236D02*
X1056544D01*
X749456Y-1592764D02*
X1056544D01*
X749456Y-1813236D02*
Y-1592764D01*
X1056544Y-1813236D02*
Y-1592764D01*
X934882Y-1885528D02*
X1045118D01*
X934882Y-1826472D02*
X1045118D01*
X934882Y-1885528D02*
Y-1826472D01*
X1045118Y-1885528D02*
Y-1826472D01*
X681102Y-1905370D02*
X818898D01*
X681102Y-1826630D02*
X818898D01*
X681102Y-1905370D02*
Y-1826630D01*
X818898Y-1905370D02*
Y-1826630D01*
X1035118Y-679528D02*
Y-620472D01*
X924882Y-679528D02*
Y-620472D01*
X1035118D01*
X924882Y-679528D02*
X1035118D01*
X1131418Y-619528D02*
Y-560472D01*
X1241654Y-619528D02*
Y-560472D01*
X1131418Y-619528D02*
X1241654D01*
X1131418Y-560472D02*
X1241654D01*
Y-449528D02*
Y-390472D01*
X1131418Y-449528D02*
Y-390472D01*
X1241654D01*
X1131418Y-449528D02*
X1241654D01*
X509982Y-399528D02*
Y-340472D01*
X620218Y-399528D02*
Y-340472D01*
X509982Y-399528D02*
X620218D01*
X509982Y-340472D02*
X620218D01*
X618898Y-523574D02*
Y-444834D01*
X481102Y-523574D02*
Y-444834D01*
X618898D01*
X481102Y-523574D02*
X618898D01*
X818898Y-699370D02*
Y-620630D01*
X681102Y-699370D02*
Y-620630D01*
X818898D01*
X681102Y-699370D02*
X818898D01*
X934882Y-1506472D02*
X1045118D01*
X934882Y-1565528D02*
X1045118D01*
Y-1506472D01*
X934882Y-1565528D02*
Y-1506472D01*
X618898Y-1126574D02*
Y-1047834D01*
X481102Y-1126574D02*
Y-1047834D01*
X618898D01*
X481102Y-1126574D02*
X618898D01*
X1166882Y-1219094D02*
Y-1160040D01*
X1277118Y-1219094D02*
Y-1160040D01*
X1166882Y-1219094D02*
X1277118D01*
X1166882Y-1160040D02*
X1277118D01*
X1241654Y-539322D02*
Y-480268D01*
X1131418Y-539322D02*
Y-480268D01*
X1241654D01*
X1131418Y-539322D02*
X1241654D01*
X1166882Y-1645528D02*
X1277118D01*
X1166882Y-1586472D02*
X1277118D01*
X1166882Y-1645528D02*
Y-1586472D01*
X1277118Y-1645528D02*
Y-1586472D01*
X1035813Y-1293536D02*
Y-1234480D01*
X925577Y-1293536D02*
Y-1234480D01*
X1035813D01*
X925577Y-1293536D02*
X1035813D01*
X934882Y-969528D02*
Y-910472D01*
X1045118Y-969528D02*
Y-910472D01*
X934882Y-969528D02*
X1045118D01*
X934882Y-910472D02*
X1045118D01*
X865118Y-969528D02*
Y-910472D01*
X754882Y-969528D02*
Y-910472D01*
X865118D01*
X754882Y-969528D02*
X865118D01*
X818898Y-1309370D02*
Y-1230630D01*
X681102Y-1309370D02*
Y-1230630D01*
X818898D01*
X681102Y-1309370D02*
X818898D01*
X344558Y-2336560D02*
Y-2226324D01*
X285504Y-2336560D02*
Y-2226324D01*
Y-2336560D02*
X344558D01*
X285504Y-2226324D02*
X344558D01*
X351226Y-2490338D02*
Y-2352544D01*
X272486Y-2490338D02*
Y-2352544D01*
Y-2490338D02*
X351226D01*
X272486Y-2352544D02*
X351226D01*
X596685Y-2383803D02*
Y-2246009D01*
X517945Y-2383803D02*
Y-2246009D01*
Y-2383803D02*
X596685D01*
X517945Y-2246009D02*
X596685D01*
X555032Y-2115772D02*
Y-2092150D01*
X543220Y-2103960D02*
X566842D01*
X523536Y-2088212D02*
X586528D01*
X523536Y-2119708D02*
X586528D01*
Y-2088212D01*
X523536Y-2119708D02*
Y-2088212D01*
X746456Y-2416236D02*
X1053544D01*
X746456Y-2195764D02*
X1053544D01*
X746456Y-2416236D02*
Y-2195764D01*
X1053544Y-2416236D02*
Y-2195764D01*
X1166882Y-2374434D02*
X1277118D01*
X1166882Y-2433488D02*
X1277118D01*
Y-2374434D01*
X1166882Y-2433488D02*
Y-2374434D01*
Y-2355528D02*
X1277118D01*
X1166882Y-2296472D02*
X1277118D01*
X1166882Y-2355528D02*
Y-2296472D01*
X1277118Y-2355528D02*
Y-2296472D01*
X938529Y-363536D02*
Y-304480D01*
X1048765Y-363536D02*
Y-304480D01*
X938529Y-363536D02*
X1048765D01*
X938529Y-304480D02*
X1048765D01*
X1166882Y-1766472D02*
X1277118D01*
X1166882Y-1825528D02*
X1277118D01*
Y-1766472D01*
X1166882Y-1825528D02*
Y-1766472D01*
X929914Y-2490968D02*
X1040150D01*
X929914Y-2431914D02*
X1040150D01*
X929914Y-2490968D02*
Y-2431914D01*
X1040150Y-2490968D02*
Y-2431914D01*
X925196Y-2111118D02*
X1035434D01*
X925196Y-2170174D02*
X1035434D01*
Y-2111118D01*
X925196Y-2170174D02*
Y-2111118D01*
X764882Y-2170528D02*
X875118D01*
X764882Y-2111472D02*
X875118D01*
X764882Y-2170528D02*
Y-2111472D01*
X875118Y-2170528D02*
Y-2111472D01*
X519914Y-2141914D02*
X630150D01*
X519914Y-2200968D02*
X630150D01*
Y-2141914D01*
X519914Y-2200968D02*
Y-2141914D01*
X676134Y-2510812D02*
X813928D01*
X676134Y-2432070D02*
X813928D01*
X676134Y-2510812D02*
Y-2432070D01*
X813928Y-2510812D02*
Y-2432070D01*
X1211646Y151166D02*
Y296834D01*
X1461646Y151166D02*
Y296834D01*
X1211646Y151166D02*
X1461646D01*
X1211646Y296834D02*
X1461646D01*
X1277118Y-1142322D02*
Y-1083268D01*
X1166882Y-1142322D02*
Y-1083268D01*
X1277118D01*
X1166882Y-1142322D02*
X1277118D01*
X250472Y-507040D02*
X309528D01*
X250472Y-617276D02*
X309528D01*
X250472D02*
Y-507040D01*
X309528Y-617276D02*
Y-507040D01*
X1053544Y-608418D02*
Y-387944D01*
X746456Y-608418D02*
Y-387944D01*
X1053544D01*
X746456Y-608418D02*
X1053544D01*
X692362Y86465D02*
X802598D01*
X692362Y145520D02*
X802598D01*
X692362Y86465D02*
Y145520D01*
X802598Y86465D02*
Y145520D01*
X862362Y-4480D02*
X972598D01*
X862362Y-63535D02*
X972598D01*
Y-4480D01*
X862362Y-63535D02*
Y-4480D01*
X819567Y144890D02*
X1018386D01*
X819567Y7094D02*
X1018386D01*
Y144890D01*
X819567Y7094D02*
Y144890D01*
X808583Y156622D02*
X946378D01*
X808583Y235362D02*
X946378D01*
X808583Y156622D02*
Y235362D01*
X946378Y156622D02*
Y235362D01*
X702755Y-2330000D02*
X726377D01*
X714566Y-2341811D02*
Y-2318189D01*
X738188Y-2371338D02*
Y-2288661D01*
X690944Y-2371338D02*
Y-2288661D01*
Y-2371338D02*
X738188D01*
X690944Y-2288661D02*
X738188D01*
%TF.MD5,aa8b853685ec042d1396da9701cf9d54*%
M02*
