G04 Layer_Physical_Order=2*
G04 Layer_Color=16440176*
%FSLAX26Y26*%
%MOIN*%
%TF.FileFunction,Copper,L2,Inr,Signal*%
%TF.Part,Single*%
G01*
G75*
%TA.AperFunction,Conductor*%
%ADD12C,0.010000*%
%TA.AperFunction,ComponentPad*%
%ADD13C,0.157480*%
%ADD14C,0.060000*%
%TA.AperFunction,ViaPad*%
%ADD15C,0.060000*%
%TA.AperFunction,ComponentPad*%
%ADD16C,0.100000*%
%ADD17C,0.047000*%
%ADD18R,0.059055X0.059055*%
%ADD19C,0.059055*%
%ADD20R,0.070866X0.070866*%
%ADD21C,0.070866*%
%TA.AperFunction,ViaPad*%
%ADD22C,0.050000*%
%ADD23C,0.019685*%
D12*
X1260000Y-2270000D02*
X1320000Y-2330000D01*
X1260000Y-1900566D02*
X1444566Y-1716000D01*
X1260000Y-2270000D02*
Y-1900566D01*
X903000Y-360000D02*
X953000Y-410000D01*
X1370000D01*
Y70000D01*
X1420000Y120000D01*
X1255694Y-1546196D02*
X1265228D01*
X1435032Y-1716000D02*
X1444566D01*
X1265228Y-1546196D02*
X1435032Y-1716000D01*
X650000Y-166000D02*
X844000Y-360000D01*
X903000D01*
X150000Y-300000D02*
X284000Y-166000D01*
X140000Y-300000D02*
X150000D01*
X284000Y-166000D02*
X633721D01*
X607000Y554992D02*
X1076000Y85992D01*
X1084567D01*
Y90700D01*
X1076000Y85992D02*
X1084567D01*
Y90700D02*
X1113868Y120000D01*
X633721Y-166000D02*
X638933Y-171213D01*
X607000Y554992D02*
Y637000D01*
X1113868Y120000D02*
X1420000D01*
D13*
X1850000Y200000D02*
D03*
X-50000D02*
D03*
X75000Y-2400000D02*
D03*
X1725000D02*
D03*
D14*
X1800000Y0D02*
D03*
Y-100000D02*
D03*
Y-200000D02*
D03*
Y-300000D02*
D03*
Y-400000D02*
D03*
Y-500000D02*
D03*
Y-600000D02*
D03*
Y-700000D02*
D03*
Y-800000D02*
D03*
Y-900000D02*
D03*
Y-1000000D02*
D03*
Y-1100000D02*
D03*
Y-1200000D02*
D03*
Y-1300000D02*
D03*
Y-1400000D02*
D03*
Y-1500000D02*
D03*
Y-1600000D02*
D03*
Y-1700000D02*
D03*
Y-1800000D02*
D03*
Y-1900000D02*
D03*
Y-2000000D02*
D03*
Y-2100000D02*
D03*
Y-2200000D02*
D03*
X1900000Y-100000D02*
D03*
Y-200000D02*
D03*
Y-300000D02*
D03*
Y-400000D02*
D03*
Y-500000D02*
D03*
Y-600000D02*
D03*
Y-700000D02*
D03*
Y-800000D02*
D03*
Y-900000D02*
D03*
Y-1000000D02*
D03*
Y-1100000D02*
D03*
Y-1200000D02*
D03*
Y-1300000D02*
D03*
Y-1400000D02*
D03*
Y-1500000D02*
D03*
Y-1600000D02*
D03*
Y-1700000D02*
D03*
Y-1800000D02*
D03*
Y-1900000D02*
D03*
Y-2000000D02*
D03*
Y-2100000D02*
D03*
Y-2200000D02*
D03*
X0Y0D02*
D03*
X-100000D02*
D03*
Y-100000D02*
D03*
Y-200000D02*
D03*
Y-300000D02*
D03*
Y-400000D02*
D03*
Y-500000D02*
D03*
Y-600000D02*
D03*
Y-700000D02*
D03*
Y-800000D02*
D03*
Y-900000D02*
D03*
Y-1000000D02*
D03*
Y-1100000D02*
D03*
Y-1200000D02*
D03*
Y-1300000D02*
D03*
Y-1400000D02*
D03*
Y-1500000D02*
D03*
Y-1600000D02*
D03*
Y-1700000D02*
D03*
Y-1800000D02*
D03*
Y-1900000D02*
D03*
Y-2000000D02*
D03*
Y-2100000D02*
D03*
Y-2200000D02*
D03*
X0Y-100000D02*
D03*
Y-200000D02*
D03*
Y-300000D02*
D03*
Y-400000D02*
D03*
Y-500000D02*
D03*
Y-600000D02*
D03*
Y-700000D02*
D03*
Y-800000D02*
D03*
Y-900000D02*
D03*
Y-1000000D02*
D03*
Y-1100000D02*
D03*
Y-1200000D02*
D03*
Y-1300000D02*
D03*
Y-1400000D02*
D03*
Y-1500000D02*
D03*
Y-1600000D02*
D03*
Y-1700000D02*
D03*
Y-1800000D02*
D03*
Y-1900000D02*
D03*
Y-2000000D02*
D03*
Y-2100000D02*
D03*
Y-2200000D02*
D03*
X1900000Y0D02*
D03*
D15*
X711614Y-740000D02*
D03*
D16*
X1436200Y590000D02*
D03*
X363800D02*
D03*
D17*
X525700D02*
D03*
X1274300Y588400D02*
D03*
D18*
X150000Y0D02*
D03*
D19*
Y-100000D02*
D03*
Y-200000D02*
D03*
Y-300000D02*
D03*
D20*
X1440551Y-2156000D02*
D03*
X1540551D02*
D03*
X359449D02*
D03*
X259449D02*
D03*
Y-1124897D02*
D03*
X359449D02*
D03*
X1440551D02*
D03*
X1540551D02*
D03*
D21*
X1150000Y-166000D02*
D03*
X1050000D02*
D03*
X950000D02*
D03*
X850000D02*
D03*
X750000D02*
D03*
X650000D02*
D03*
D22*
X693748Y1035992D02*
D03*
X854804Y1034000D02*
D03*
X1027480Y1035992D02*
D03*
X1255694Y-1546196D02*
D03*
X707480Y-2544008D02*
D03*
X714566Y-1946000D02*
D03*
Y-1340000D02*
D03*
X1320000Y-2330000D02*
D03*
X1186536Y-1860000D02*
D03*
X1370000Y-410000D02*
D03*
Y-509796D02*
D03*
X1420000Y120000D02*
D03*
X631000Y1079000D02*
D03*
X607000Y637000D02*
D03*
X1260000Y-2143678D02*
D03*
X1076000D02*
D03*
X1080000Y-1540000D02*
D03*
X1100000Y-360000D02*
D03*
X1090000Y-940000D02*
D03*
X1247078Y-870000D02*
D03*
X620000Y-600000D02*
D03*
X903000Y-360000D02*
D03*
X1100000Y-2450000D02*
D03*
X150000Y-2250000D02*
D03*
X1303180Y530000D02*
D03*
X990000D02*
D03*
X1200000Y660000D02*
D03*
X410000Y-1637426D02*
D03*
X1444566Y-1716000D02*
D03*
X640000Y-2006000D02*
D03*
X485032Y-2421442D02*
D03*
X1076000Y85992D02*
D03*
X440000Y-1030063D02*
D03*
X290000Y-454874D02*
D03*
X1440766Y-1006000D02*
D03*
X760000Y25000D02*
D03*
X1340000Y340000D02*
D03*
D23*
X943306Y-1056694D02*
D03*
X900000D02*
D03*
X856692D02*
D03*
X943306Y-1100000D02*
D03*
X900000D02*
D03*
X856692D02*
D03*
X943306Y-1143308D02*
D03*
X900000D02*
D03*
X856692D02*
D03*
X859692Y-1746308D02*
D03*
X903000D02*
D03*
X946306D02*
D03*
X859692Y-1703000D02*
D03*
X903000D02*
D03*
X946306D02*
D03*
X859692Y-1659694D02*
D03*
X903000D02*
D03*
X946306D02*
D03*
X856692Y-2349308D02*
D03*
X900000D02*
D03*
X943306D02*
D03*
X856692Y-2306000D02*
D03*
X900000D02*
D03*
X943306D02*
D03*
X856692Y-2262694D02*
D03*
X900000D02*
D03*
X943306D02*
D03*
Y-454874D02*
D03*
X900000D02*
D03*
X856692D02*
D03*
X943306Y-498182D02*
D03*
X900000D02*
D03*
X856692D02*
D03*
X943306Y-541488D02*
D03*
X900000D02*
D03*
X856692D02*
D03*
%TF.MD5,36f70bb412825f1f275524053783cb1a*%
M02*
