G04 Layer_Physical_Order=4*
G04 Layer_Color=16711680*
%FSLAX26Y26*%
%MOIN*%
%TF.FileFunction,Copper,L4,Bot,Signal*%
%TF.Part,Single*%
G01*
G75*
%TA.AperFunction,SMDPad,CuDef*%
%ADD11R,0.033465X0.051181*%
%TA.AperFunction,Conductor*%
%ADD12C,0.010000*%
%TA.AperFunction,ComponentPad*%
%ADD13C,0.157480*%
%ADD14C,0.060000*%
%TA.AperFunction,ViaPad*%
%ADD15C,0.060000*%
%TA.AperFunction,ComponentPad*%
%ADD16C,0.100000*%
%ADD17C,0.047000*%
%ADD18R,0.059055X0.059055*%
%ADD19C,0.059055*%
%ADD20R,0.070866X0.070866*%
%ADD21C,0.070866*%
%TA.AperFunction,ViaPad*%
%ADD22C,0.050000*%
%ADD23C,0.019685*%
%TA.AperFunction,SMDPad,CuDef*%
%ADD24R,0.057087X0.045276*%
%ADD25R,0.051181X0.033465*%
%ADD26R,0.020472X0.020472*%
%ADD27O,0.055118X0.017716*%
%ADD28R,0.143701X0.145669*%
%ADD29R,0.024000X0.078740*%
%ADD30R,0.045276X0.057087*%
%ADD31O,0.053150X0.015748*%
%ADD32R,0.055118X0.021654*%
%ADD33R,0.024409X0.024409*%
G36*
X1980999Y-2689000D02*
X-174244Y-2689000D01*
X-174244Y1144000D01*
X1981000Y1144001D01*
X1980999Y-2689000D01*
D02*
G37*
%LPC*%
G36*
X0Y-1364698D02*
X-9137Y-1365901D01*
X-17651Y-1369428D01*
X-24962Y-1375038D01*
X-30572Y-1382349D01*
X-34099Y-1390863D01*
X-35302Y-1400000D01*
X-34099Y-1409137D01*
X-30572Y-1417651D01*
X-24962Y-1424962D01*
X-17651Y-1430572D01*
X-9137Y-1434099D01*
X0Y-1435302D01*
X9137Y-1434099D01*
X17651Y-1430572D01*
X24962Y-1424962D01*
X30572Y-1417651D01*
X34099Y-1409137D01*
X35302Y-1400000D01*
X34099Y-1390863D01*
X30572Y-1382349D01*
X24962Y-1375038D01*
X17651Y-1369428D01*
X9137Y-1365901D01*
X0Y-1364698D01*
D02*
G37*
G36*
X-100000D02*
X-109137Y-1365901D01*
X-117651Y-1369428D01*
X-124962Y-1375038D01*
X-130572Y-1382349D01*
X-134099Y-1390863D01*
X-135302Y-1400000D01*
X-134099Y-1409137D01*
X-130572Y-1417651D01*
X-124962Y-1424962D01*
X-117651Y-1430572D01*
X-109137Y-1434099D01*
X-100000Y-1435302D01*
X-90863Y-1434099D01*
X-82349Y-1430572D01*
X-75038Y-1424962D01*
X-69428Y-1417651D01*
X-65901Y-1409137D01*
X-64698Y-1400000D01*
X-65901Y-1390863D01*
X-69428Y-1382349D01*
X-75038Y-1375038D01*
X-82349Y-1369428D01*
X-90863Y-1365901D01*
X-100000Y-1364698D01*
D02*
G37*
G36*
X1900000D02*
X1890863Y-1365901D01*
X1882349Y-1369428D01*
X1875038Y-1375038D01*
X1869428Y-1382349D01*
X1865901Y-1390863D01*
X1864698Y-1400000D01*
X1865901Y-1409137D01*
X1869428Y-1417651D01*
X1875038Y-1424962D01*
X1882349Y-1430572D01*
X1890863Y-1434099D01*
X1900000Y-1435302D01*
X1909137Y-1434099D01*
X1917651Y-1430572D01*
X1924962Y-1424962D01*
X1930572Y-1417651D01*
X1934099Y-1409137D01*
X1935302Y-1400000D01*
X1934099Y-1390863D01*
X1930572Y-1382349D01*
X1924962Y-1375038D01*
X1917651Y-1369428D01*
X1909137Y-1365901D01*
X1900000Y-1364698D01*
D02*
G37*
G36*
X1800000D02*
X1790863Y-1365901D01*
X1782349Y-1369428D01*
X1775038Y-1375038D01*
X1769428Y-1382349D01*
X1765901Y-1390863D01*
X1764698Y-1400000D01*
X1765901Y-1409137D01*
X1769428Y-1417651D01*
X1775038Y-1424962D01*
X1782349Y-1430572D01*
X1790863Y-1434099D01*
X1800000Y-1435302D01*
X1809137Y-1434099D01*
X1817651Y-1430572D01*
X1824962Y-1424962D01*
X1830572Y-1417651D01*
X1834099Y-1409137D01*
X1835302Y-1400000D01*
X1834099Y-1390863D01*
X1830572Y-1382349D01*
X1824962Y-1375038D01*
X1817651Y-1369428D01*
X1809137Y-1365901D01*
X1800000Y-1364698D01*
D02*
G37*
G36*
Y-1464698D02*
X1790863Y-1465901D01*
X1782349Y-1469428D01*
X1775038Y-1475038D01*
X1769428Y-1482349D01*
X1765901Y-1490863D01*
X1764698Y-1500000D01*
X1765901Y-1509137D01*
X1769428Y-1517651D01*
X1775038Y-1524962D01*
X1782349Y-1530572D01*
X1790863Y-1534099D01*
X1800000Y-1535302D01*
X1809137Y-1534099D01*
X1817651Y-1530572D01*
X1824962Y-1524962D01*
X1830572Y-1517651D01*
X1834099Y-1509137D01*
X1835302Y-1500000D01*
X1834099Y-1490863D01*
X1830572Y-1482349D01*
X1824962Y-1475038D01*
X1817651Y-1469428D01*
X1809137Y-1465901D01*
X1800000Y-1464698D01*
D02*
G37*
G36*
X0D02*
X-9137Y-1465901D01*
X-17651Y-1469428D01*
X-24962Y-1475038D01*
X-30572Y-1482349D01*
X-34099Y-1490863D01*
X-35302Y-1500000D01*
X-34099Y-1509137D01*
X-30572Y-1517651D01*
X-24962Y-1524962D01*
X-17651Y-1530572D01*
X-9137Y-1534099D01*
X0Y-1535302D01*
X9137Y-1534099D01*
X17651Y-1530572D01*
X24962Y-1524962D01*
X30572Y-1517651D01*
X34099Y-1509137D01*
X35302Y-1500000D01*
X34099Y-1490863D01*
X30572Y-1482349D01*
X24962Y-1475038D01*
X17651Y-1469428D01*
X9137Y-1465901D01*
X0Y-1464698D01*
D02*
G37*
G36*
X577550Y-1505764D02*
X562315D01*
Y-1520999D01*
X577550D01*
Y-1505764D01*
D02*
G37*
G36*
X1900000Y-1464698D02*
X1890863Y-1465901D01*
X1882349Y-1469428D01*
X1875038Y-1475038D01*
X1869428Y-1482349D01*
X1865901Y-1490863D01*
X1864698Y-1500000D01*
X1865901Y-1509137D01*
X1869428Y-1517651D01*
X1875038Y-1524962D01*
X1882349Y-1530572D01*
X1890863Y-1534099D01*
X1900000Y-1535302D01*
X1909137Y-1534099D01*
X1917651Y-1530572D01*
X1924962Y-1524962D01*
X1930572Y-1517651D01*
X1934099Y-1509137D01*
X1935302Y-1500000D01*
X1934099Y-1490863D01*
X1930572Y-1482349D01*
X1924962Y-1475038D01*
X1917651Y-1469428D01*
X1909137Y-1465901D01*
X1900000Y-1464698D01*
D02*
G37*
G36*
X973963Y-1269008D02*
X952231D01*
Y-1299598D01*
X973963D01*
Y-1269008D01*
D02*
G37*
G36*
X942231D02*
X920499D01*
Y-1299598D01*
X942231D01*
Y-1269008D01*
D02*
G37*
G36*
X973963Y-1228417D02*
X952231D01*
Y-1259008D01*
X973963D01*
Y-1228417D01*
D02*
G37*
G36*
X942231D02*
X920499D01*
Y-1259008D01*
X942231D01*
Y-1228417D01*
D02*
G37*
G36*
X0Y-1264698D02*
X-9137Y-1265901D01*
X-17651Y-1269428D01*
X-24962Y-1275038D01*
X-30572Y-1282349D01*
X-34099Y-1290863D01*
X-35302Y-1300000D01*
X-34099Y-1309137D01*
X-30572Y-1317651D01*
X-24962Y-1324962D01*
X-17651Y-1330572D01*
X-9137Y-1334099D01*
X0Y-1335302D01*
X9137Y-1334099D01*
X17651Y-1330572D01*
X24962Y-1324962D01*
X30572Y-1317651D01*
X34099Y-1309137D01*
X35302Y-1300000D01*
X34099Y-1290863D01*
X30572Y-1282349D01*
X24962Y-1275038D01*
X17651Y-1269428D01*
X9137Y-1265901D01*
X0Y-1264698D01*
D02*
G37*
G36*
X-100000D02*
X-109137Y-1265901D01*
X-117651Y-1269428D01*
X-124962Y-1275038D01*
X-130572Y-1282349D01*
X-134099Y-1290863D01*
X-135302Y-1300000D01*
X-134099Y-1309137D01*
X-130572Y-1317651D01*
X-124962Y-1324962D01*
X-117651Y-1330572D01*
X-109137Y-1334099D01*
X-100000Y-1335302D01*
X-90863Y-1334099D01*
X-82349Y-1330572D01*
X-75038Y-1324962D01*
X-69428Y-1317651D01*
X-65901Y-1309137D01*
X-64698Y-1300000D01*
X-65901Y-1290863D01*
X-69428Y-1282349D01*
X-75038Y-1275038D01*
X-82349Y-1269428D01*
X-90863Y-1265901D01*
X-100000Y-1264698D01*
D02*
G37*
G36*
X1900000D02*
X1890863Y-1265901D01*
X1882349Y-1269428D01*
X1875038Y-1275038D01*
X1869428Y-1282349D01*
X1865901Y-1290863D01*
X1864698Y-1300000D01*
X1865901Y-1309137D01*
X1869428Y-1317651D01*
X1875038Y-1324962D01*
X1882349Y-1330572D01*
X1890863Y-1334099D01*
X1900000Y-1335302D01*
X1909137Y-1334099D01*
X1917651Y-1330572D01*
X1924962Y-1324962D01*
X1930572Y-1317651D01*
X1934099Y-1309137D01*
X1935302Y-1300000D01*
X1934099Y-1290863D01*
X1930572Y-1282349D01*
X1924962Y-1275038D01*
X1917651Y-1269428D01*
X1909137Y-1265901D01*
X1900000Y-1264698D01*
D02*
G37*
G36*
X1800000D02*
X1790863Y-1265901D01*
X1782349Y-1269428D01*
X1775038Y-1275038D01*
X1769428Y-1282349D01*
X1765901Y-1290863D01*
X1764698Y-1300000D01*
X1765901Y-1309137D01*
X1769428Y-1317651D01*
X1775038Y-1324962D01*
X1782349Y-1330572D01*
X1790863Y-1334099D01*
X1800000Y-1335302D01*
X1809137Y-1334099D01*
X1817651Y-1330572D01*
X1824962Y-1324962D01*
X1830572Y-1317651D01*
X1834099Y-1309137D01*
X1835302Y-1300000D01*
X1834099Y-1290863D01*
X1830572Y-1282349D01*
X1824962Y-1275038D01*
X1817651Y-1269428D01*
X1809137Y-1265901D01*
X1800000Y-1264698D01*
D02*
G37*
G36*
X-100000Y-1664698D02*
X-109137Y-1665901D01*
X-117651Y-1669428D01*
X-124962Y-1675038D01*
X-130572Y-1682349D01*
X-134099Y-1690863D01*
X-135302Y-1700000D01*
X-134099Y-1709137D01*
X-130572Y-1717651D01*
X-124962Y-1724962D01*
X-117651Y-1730572D01*
X-109137Y-1734099D01*
X-100000Y-1735302D01*
X-90863Y-1734099D01*
X-82349Y-1730572D01*
X-75038Y-1724962D01*
X-69428Y-1717651D01*
X-65901Y-1709137D01*
X-64698Y-1700000D01*
X-65901Y-1690863D01*
X-69428Y-1682349D01*
X-75038Y-1675038D01*
X-82349Y-1669428D01*
X-90863Y-1665901D01*
X-100000Y-1664698D01*
D02*
G37*
G36*
X1277197Y-1685409D02*
X1233732D01*
Y-1746590D01*
X1277197D01*
Y-1726196D01*
X1416318D01*
X1418361Y-1731129D01*
X1423170Y-1737396D01*
X1429437Y-1742205D01*
X1436735Y-1745228D01*
X1444566Y-1746259D01*
X1452398Y-1745228D01*
X1459696Y-1742205D01*
X1465963Y-1737396D01*
X1470771Y-1731129D01*
X1473794Y-1723831D01*
X1474825Y-1716000D01*
X1473794Y-1708168D01*
X1470771Y-1700870D01*
X1465963Y-1694603D01*
X1459696Y-1689795D01*
X1452398Y-1686772D01*
X1444566Y-1685741D01*
X1436735Y-1686772D01*
X1429437Y-1689795D01*
X1423170Y-1694603D01*
X1418361Y-1700870D01*
X1416318Y-1705804D01*
X1277197D01*
Y-1685409D01*
D02*
G37*
G36*
X1900000Y-1664698D02*
X1890863Y-1665901D01*
X1882349Y-1669428D01*
X1875038Y-1675038D01*
X1869428Y-1682349D01*
X1865901Y-1690863D01*
X1864698Y-1700000D01*
X1865901Y-1709137D01*
X1869428Y-1717651D01*
X1875038Y-1724962D01*
X1882349Y-1730572D01*
X1890863Y-1734099D01*
X1900000Y-1735302D01*
X1909137Y-1734099D01*
X1917651Y-1730572D01*
X1924962Y-1724962D01*
X1930572Y-1717651D01*
X1934099Y-1709137D01*
X1935302Y-1700000D01*
X1934099Y-1690863D01*
X1930572Y-1682349D01*
X1924962Y-1675038D01*
X1917651Y-1669428D01*
X1909137Y-1665901D01*
X1900000Y-1664698D01*
D02*
G37*
G36*
X0D02*
X-9137Y-1665901D01*
X-17651Y-1669428D01*
X-24962Y-1675038D01*
X-30572Y-1682349D01*
X-34099Y-1690863D01*
X-35302Y-1700000D01*
X-34099Y-1709137D01*
X-30572Y-1717651D01*
X-24962Y-1724962D01*
X-17651Y-1730572D01*
X-9137Y-1734099D01*
X0Y-1735302D01*
X9137Y-1734099D01*
X17651Y-1730572D01*
X24962Y-1724962D01*
X30572Y-1717651D01*
X34099Y-1709137D01*
X35302Y-1700000D01*
X34099Y-1690863D01*
X30572Y-1682349D01*
X24962Y-1675038D01*
X17651Y-1669428D01*
X9137Y-1665901D01*
X0Y-1664698D01*
D02*
G37*
G36*
X400032Y-1758796D02*
X366489D01*
Y-1786434D01*
X400032D01*
Y-1758796D01*
D02*
G37*
G36*
X1282197Y-1760409D02*
X1260464D01*
Y-1791000D01*
X1282197D01*
Y-1760409D01*
D02*
G37*
G36*
X340591Y-1677732D02*
X279410D01*
Y-1721196D01*
X299804D01*
Y-1727241D01*
X278313D01*
Y-1782517D01*
X345400D01*
Y-1727241D01*
X320196D01*
Y-1721196D01*
X340591D01*
Y-1677732D01*
D02*
G37*
G36*
X443575Y-1758796D02*
X410032D01*
Y-1786434D01*
X443575D01*
Y-1758796D01*
D02*
G37*
G36*
X808269Y-1505409D02*
X764804D01*
Y-1566590D01*
X776662D01*
Y-1599304D01*
X768157D01*
X762750Y-1600380D01*
X758166Y-1603443D01*
X756092Y-1606547D01*
X750411Y-1607938D01*
X741854Y-1599381D01*
X738546Y-1597170D01*
X734644Y-1596394D01*
X616489D01*
Y-1555409D01*
X573024D01*
Y-1616590D01*
X605504D01*
X606489Y-1616786D01*
X730421D01*
X735865Y-1622230D01*
X733794Y-1627230D01*
X438249D01*
X436205Y-1622296D01*
X431397Y-1616030D01*
X425130Y-1611221D01*
X417832Y-1608198D01*
X410000Y-1607167D01*
X402169Y-1608198D01*
X394871Y-1611221D01*
X388604Y-1616030D01*
X383795Y-1622296D01*
X381752Y-1627230D01*
X340591D01*
Y-1610803D01*
X279410D01*
Y-1654268D01*
X340591D01*
Y-1647622D01*
X381752D01*
X383795Y-1652555D01*
X388604Y-1658822D01*
X394871Y-1663631D01*
X399804Y-1665674D01*
Y-1692930D01*
X371489D01*
Y-1748206D01*
X438575D01*
Y-1692930D01*
X420196D01*
Y-1665674D01*
X425130Y-1663631D01*
X431397Y-1658822D01*
X436205Y-1652555D01*
X438249Y-1647622D01*
X735667D01*
X754368Y-1666323D01*
X755103Y-1670021D01*
X757979Y-1674324D01*
X754561Y-1676608D01*
X750393Y-1682846D01*
X749924Y-1685204D01*
X786859D01*
Y-1695204D01*
X749924D01*
X750393Y-1697562D01*
X751586Y-1699347D01*
X748914Y-1704347D01*
X626070D01*
Y-1657457D01*
X570794D01*
Y-1718643D01*
X565794Y-1720714D01*
X555204Y-1710124D01*
Y-1657457D01*
X499928D01*
Y-1724543D01*
X540785D01*
X564837Y-1748595D01*
X568145Y-1750806D01*
X572047Y-1751582D01*
X757252D01*
X758621Y-1754781D01*
Y-1756681D01*
X758166Y-1756985D01*
X755103Y-1761569D01*
X754367Y-1765269D01*
X711812Y-1807825D01*
X697222D01*
X693320Y-1808601D01*
X690013Y-1810811D01*
X632791Y-1868033D01*
X630580Y-1871341D01*
X629804Y-1875243D01*
Y-1977751D01*
X624871Y-1979795D01*
X618604Y-1984603D01*
X613795Y-1990870D01*
X610772Y-1998168D01*
X609741Y-2006000D01*
X610772Y-2013831D01*
X613795Y-2021129D01*
X618604Y-2027396D01*
X624871Y-2032205D01*
X632169Y-2035228D01*
X640000Y-2036259D01*
X647832Y-2035228D01*
X655130Y-2032205D01*
X661396Y-2027396D01*
X666205Y-2021129D01*
X669228Y-2013831D01*
X670259Y-2006000D01*
X669228Y-1998168D01*
X666205Y-1990870D01*
X661396Y-1984603D01*
X655130Y-1979795D01*
X650196Y-1977751D01*
Y-1879466D01*
X682309Y-1847353D01*
X686928Y-1849266D01*
Y-1899543D01*
X704370D01*
Y-1917751D01*
X699437Y-1919795D01*
X693170Y-1924603D01*
X688361Y-1930870D01*
X685338Y-1938168D01*
X684307Y-1946000D01*
X685338Y-1953831D01*
X688361Y-1961129D01*
X693170Y-1967396D01*
X699437Y-1972205D01*
X706735Y-1975228D01*
X714566Y-1976259D01*
X722398Y-1975228D01*
X729696Y-1972205D01*
X735962Y-1967396D01*
X740771Y-1961129D01*
X743794Y-1953831D01*
X744825Y-1946000D01*
X743794Y-1938168D01*
X740771Y-1930870D01*
X735962Y-1924603D01*
X729696Y-1919795D01*
X724762Y-1917751D01*
Y-1899543D01*
X742204D01*
Y-1832457D01*
X720348D01*
X719856Y-1827457D01*
X719937Y-1827440D01*
X723245Y-1825230D01*
X750411Y-1798064D01*
X756092Y-1799454D01*
X758166Y-1802559D01*
X762750Y-1805622D01*
X768157Y-1806697D01*
X776662D01*
Y-1832457D01*
X757794D01*
Y-1899543D01*
X813070D01*
Y-1832457D01*
X797054D01*
Y-1806697D01*
X805559D01*
X810966Y-1805622D01*
X815550Y-1802559D01*
X818613Y-1797975D01*
X819689Y-1792568D01*
X819240Y-1790312D01*
X822306Y-1786832D01*
Y-1786832D01*
X823283Y-1785834D01*
X823861Y-1785834D01*
X898000D01*
Y-1703000D01*
Y-1620165D01*
X823284Y-1620165D01*
X822310Y-1619171D01*
X822310Y-1619171D01*
X819239Y-1615695D01*
X819689Y-1613434D01*
X818613Y-1608027D01*
X815550Y-1603443D01*
X810966Y-1600380D01*
X805559Y-1599304D01*
X797054D01*
Y-1566590D01*
X808269D01*
Y-1505409D01*
D02*
G37*
G36*
X552315Y-1505764D02*
X537078D01*
Y-1510764D01*
X510582D01*
Y-1541236D01*
X515622D01*
Y-1555409D01*
X506094D01*
Y-1616590D01*
X549558D01*
Y-1555409D01*
X536426D01*
X536132Y-1550844D01*
X538179Y-1546236D01*
X552315D01*
Y-1525999D01*
Y-1505764D01*
D02*
G37*
G36*
X-100000Y-1464698D02*
X-109137Y-1465901D01*
X-117651Y-1469428D01*
X-124962Y-1475038D01*
X-130572Y-1482349D01*
X-134099Y-1490863D01*
X-135302Y-1500000D01*
X-134099Y-1509137D01*
X-130572Y-1517651D01*
X-124962Y-1524962D01*
X-117651Y-1530572D01*
X-109137Y-1534099D01*
X-100000Y-1535302D01*
X-90863Y-1534099D01*
X-82349Y-1530572D01*
X-75038Y-1524962D01*
X-69428Y-1517651D01*
X-65901Y-1509137D01*
X-64698Y-1500000D01*
X-65901Y-1490863D01*
X-69428Y-1482349D01*
X-75038Y-1475038D01*
X-82349Y-1469428D01*
X-90863Y-1465901D01*
X-100000Y-1464698D01*
D02*
G37*
G36*
X577550Y-1530999D02*
X562315D01*
Y-1546236D01*
X577550D01*
Y-1530999D01*
D02*
G37*
G36*
X0Y-1564698D02*
X-9137Y-1565901D01*
X-17651Y-1569428D01*
X-24962Y-1575038D01*
X-30572Y-1582349D01*
X-34099Y-1590863D01*
X-35302Y-1600000D01*
X-34099Y-1609137D01*
X-30572Y-1617651D01*
X-24962Y-1624962D01*
X-17651Y-1630572D01*
X-9137Y-1634099D01*
X0Y-1635302D01*
X9137Y-1634099D01*
X17651Y-1630572D01*
X24962Y-1624962D01*
X30572Y-1617651D01*
X34099Y-1609137D01*
X35302Y-1600000D01*
X34099Y-1590863D01*
X30572Y-1582349D01*
X24962Y-1575038D01*
X17651Y-1569428D01*
X9137Y-1565901D01*
X0Y-1564698D01*
D02*
G37*
G36*
X-100000D02*
X-109137Y-1565901D01*
X-117651Y-1569428D01*
X-124962Y-1575038D01*
X-130572Y-1582349D01*
X-134099Y-1590863D01*
X-135302Y-1600000D01*
X-134099Y-1609137D01*
X-130572Y-1617651D01*
X-124962Y-1624962D01*
X-117651Y-1630572D01*
X-109137Y-1634099D01*
X-100000Y-1635302D01*
X-90863Y-1634099D01*
X-82349Y-1630572D01*
X-75038Y-1624962D01*
X-69428Y-1617651D01*
X-65901Y-1609137D01*
X-64698Y-1600000D01*
X-65901Y-1590863D01*
X-69428Y-1582349D01*
X-75038Y-1575038D01*
X-82349Y-1569428D01*
X-90863Y-1565901D01*
X-100000Y-1564698D01*
D02*
G37*
G36*
X1900000D02*
X1890863Y-1565901D01*
X1882349Y-1569428D01*
X1875038Y-1575038D01*
X1869428Y-1582349D01*
X1865901Y-1590863D01*
X1864698Y-1600000D01*
X1865901Y-1609137D01*
X1869428Y-1617651D01*
X1875038Y-1624962D01*
X1882349Y-1630572D01*
X1890863Y-1634099D01*
X1900000Y-1635302D01*
X1909137Y-1634099D01*
X1917651Y-1630572D01*
X1924962Y-1624962D01*
X1930572Y-1617651D01*
X1934099Y-1609137D01*
X1935302Y-1600000D01*
X1934099Y-1590863D01*
X1930572Y-1582349D01*
X1924962Y-1575038D01*
X1917651Y-1569428D01*
X1909137Y-1565901D01*
X1900000Y-1564698D01*
D02*
G37*
G36*
X1800000D02*
X1790863Y-1565901D01*
X1782349Y-1569428D01*
X1775038Y-1575038D01*
X1769428Y-1582349D01*
X1765901Y-1590863D01*
X1764698Y-1600000D01*
X1765901Y-1609137D01*
X1769428Y-1617651D01*
X1775038Y-1624962D01*
X1782349Y-1630572D01*
X1790863Y-1634099D01*
X1800000Y-1635302D01*
X1809137Y-1634099D01*
X1817651Y-1630572D01*
X1824962Y-1624962D01*
X1830572Y-1617651D01*
X1834099Y-1609137D01*
X1835302Y-1600000D01*
X1834099Y-1590863D01*
X1830572Y-1582349D01*
X1824962Y-1575038D01*
X1817651Y-1569428D01*
X1809137Y-1565901D01*
X1800000Y-1564698D01*
D02*
G37*
G36*
X275000Y-787928D02*
X241457D01*
Y-815566D01*
X275000D01*
Y-787928D01*
D02*
G37*
G36*
X0Y-764698D02*
X-9137Y-765901D01*
X-17651Y-769428D01*
X-24962Y-775038D01*
X-30572Y-782349D01*
X-34099Y-790863D01*
X-35302Y-800000D01*
X-34099Y-809137D01*
X-30572Y-817651D01*
X-24962Y-824962D01*
X-17651Y-830572D01*
X-9137Y-834099D01*
X0Y-835302D01*
X9137Y-834099D01*
X17651Y-830572D01*
X24962Y-824962D01*
X30572Y-817651D01*
X34099Y-809137D01*
X35302Y-800000D01*
X34099Y-790863D01*
X30572Y-782349D01*
X24962Y-775038D01*
X17651Y-769428D01*
X9137Y-765901D01*
X0Y-764698D01*
D02*
G37*
G36*
X1916569Y-749804D02*
X1883431D01*
X1879530Y-750580D01*
X1876222Y-752790D01*
X1838718Y-790294D01*
X1833214Y-788727D01*
X1830572Y-782349D01*
X1824962Y-775038D01*
X1817651Y-769428D01*
X1809137Y-765901D01*
X1800000Y-764698D01*
X1790863Y-765901D01*
X1782349Y-769428D01*
X1775038Y-775038D01*
X1769428Y-782349D01*
X1765901Y-790863D01*
X1764698Y-800000D01*
X1765901Y-809137D01*
X1768989Y-816592D01*
X1534163Y-1051418D01*
X1051280D01*
X1049779Y-1048819D01*
X1051280Y-1046220D01*
X1169370D01*
X1173272Y-1045444D01*
X1176580Y-1043233D01*
X1179223Y-1040590D01*
X1208268D01*
Y-996219D01*
X1212888Y-994306D01*
X1215201Y-996619D01*
X1218509Y-998829D01*
X1222411Y-999605D01*
X1231732D01*
Y-1040590D01*
X1275197D01*
Y-979409D01*
X1257274D01*
Y-898248D01*
X1262208Y-896205D01*
X1268475Y-891396D01*
X1273283Y-885129D01*
X1276306Y-877831D01*
X1277337Y-870000D01*
X1276306Y-862168D01*
X1273283Y-854870D01*
X1268475Y-848604D01*
X1262208Y-843795D01*
X1254910Y-840772D01*
X1247078Y-839741D01*
X1239247Y-840772D01*
X1231949Y-843795D01*
X1225682Y-848604D01*
X1220873Y-854870D01*
X1217850Y-862168D01*
X1216819Y-870000D01*
X1217850Y-877831D01*
X1220873Y-885129D01*
X1225682Y-891396D01*
X1231949Y-896205D01*
X1236882Y-898248D01*
Y-979213D01*
X1226634D01*
X1144620Y-897200D01*
X1141312Y-894990D01*
X1137411Y-894213D01*
X983269D01*
X979367Y-894990D01*
X976059Y-897200D01*
X963849Y-909409D01*
X934804D01*
Y-929804D01*
X865197D01*
Y-909409D01*
X821732D01*
Y-970590D01*
X865197D01*
Y-950196D01*
X934804D01*
Y-970590D01*
X978269D01*
Y-923828D01*
X987492Y-914605D01*
X1001732D01*
Y-970590D01*
X1005946D01*
Y-996304D01*
X997441D01*
X992034Y-997380D01*
X987450Y-1000443D01*
X984387Y-1005027D01*
X983312Y-1010434D01*
X983761Y-1012695D01*
X980690Y-1016171D01*
X980690Y-1016171D01*
X979716Y-1017165D01*
X979145Y-1017165D01*
X905000D01*
Y-1100000D01*
Y-1182834D01*
X979718D01*
X983819Y-1187019D01*
X983312Y-1189568D01*
X984387Y-1194975D01*
X987450Y-1199559D01*
X992034Y-1202622D01*
X997441Y-1203697D01*
X1005946D01*
Y-1233417D01*
X992427D01*
Y-1294598D01*
X1019081D01*
X1020995Y-1299218D01*
X955409Y-1364804D01*
X739299D01*
X737184Y-1359804D01*
X740771Y-1355129D01*
X743794Y-1347831D01*
X744825Y-1340000D01*
X743794Y-1332168D01*
X740771Y-1324870D01*
X735962Y-1318603D01*
X729696Y-1313795D01*
X724762Y-1311751D01*
Y-1303543D01*
X742204D01*
Y-1236457D01*
X686928D01*
Y-1303543D01*
X704370D01*
Y-1311751D01*
X699437Y-1313795D01*
X693170Y-1318603D01*
X688361Y-1324870D01*
X685338Y-1332168D01*
X684307Y-1340000D01*
X685338Y-1347831D01*
X688361Y-1355129D01*
X691948Y-1359804D01*
X689833Y-1364804D01*
X513775D01*
X319301Y-1170330D01*
X321372Y-1165331D01*
X323040Y-1165330D01*
X388897D01*
X389882Y-1165526D01*
X750201D01*
X751618Y-1166944D01*
X752103Y-1169383D01*
X754980Y-1173688D01*
X755622Y-1175095D01*
Y-1178448D01*
X754980Y-1179856D01*
X752103Y-1184161D01*
X751028Y-1189568D01*
X752103Y-1194975D01*
X755166Y-1199559D01*
X759750Y-1202622D01*
X765157Y-1203697D01*
X773662D01*
Y-1236457D01*
X757794D01*
Y-1303543D01*
X813070D01*
Y-1236457D01*
X794054D01*
Y-1203697D01*
X802559D01*
X807966Y-1202622D01*
X812550Y-1199559D01*
X815613Y-1194975D01*
X816689Y-1189568D01*
X816182Y-1187019D01*
X820283Y-1182834D01*
X895000D01*
Y-1100000D01*
Y-1017165D01*
X820284Y-1017165D01*
X819310Y-1016171D01*
X819310Y-1016171D01*
X816239Y-1012695D01*
X816689Y-1010434D01*
X815613Y-1005027D01*
X812550Y-1000443D01*
X807966Y-997380D01*
X802559Y-996304D01*
X794054D01*
Y-970590D01*
X798269D01*
Y-909409D01*
X754804D01*
Y-970590D01*
X773662D01*
Y-996304D01*
X765157D01*
X759750Y-997380D01*
X755166Y-1000443D01*
X753092Y-1003547D01*
X747411Y-1004938D01*
X735854Y-993381D01*
X732546Y-991170D01*
X728644Y-990394D01*
X620297D01*
Y-949409D01*
X576832D01*
Y-1010590D01*
X609312D01*
X610297Y-1010786D01*
X724421D01*
X728502Y-1014867D01*
X726431Y-1019867D01*
X468249D01*
X466205Y-1014934D01*
X461397Y-1008667D01*
X455130Y-1003858D01*
X447832Y-1000835D01*
X440000Y-999804D01*
X432169Y-1000835D01*
X424871Y-1003858D01*
X418604Y-1008667D01*
X413795Y-1014934D01*
X411752Y-1019867D01*
X397343D01*
Y-1002550D01*
X330257D01*
Y-1024608D01*
X310590D01*
Y-1015346D01*
X249409D01*
Y-1058810D01*
X310590D01*
Y-1044999D01*
X330257D01*
Y-1057825D01*
X397343D01*
Y-1040259D01*
X411752D01*
X413795Y-1045193D01*
X418604Y-1051459D01*
X424871Y-1056268D01*
X432169Y-1059291D01*
X440000Y-1060322D01*
X447832Y-1059291D01*
X455130Y-1056268D01*
X461397Y-1051459D01*
X466205Y-1045193D01*
X468249Y-1040259D01*
X728304D01*
X751368Y-1063323D01*
X752103Y-1067021D01*
X754979Y-1071324D01*
X751561Y-1073608D01*
X747393Y-1079846D01*
X746924Y-1082204D01*
X783859D01*
Y-1092204D01*
X746924D01*
X747393Y-1094562D01*
X749423Y-1097600D01*
X746751Y-1102600D01*
X613070D01*
Y-1053660D01*
X557794D01*
Y-1114847D01*
X552794Y-1116918D01*
X542204Y-1106328D01*
Y-1053660D01*
X486928D01*
Y-1120747D01*
X527785D01*
X547553Y-1140515D01*
X545639Y-1145134D01*
X399882D01*
Y-1084464D01*
X319016D01*
Y-1161154D01*
X319016Y-1162974D01*
X314016Y-1165045D01*
X299882Y-1150911D01*
Y-1084464D01*
X219016D01*
Y-1165330D01*
X285463D01*
X502342Y-1382209D01*
X505650Y-1384420D01*
X509551Y-1385196D01*
X959632D01*
X963534Y-1384420D01*
X966841Y-1382209D01*
X1060911Y-1288140D01*
X1063121Y-1284832D01*
X1063897Y-1280930D01*
Y-1181756D01*
X1063121Y-1177855D01*
X1060911Y-1174547D01*
X1048633Y-1162269D01*
X1047897Y-1158569D01*
X1044834Y-1153985D01*
X1047232Y-1149573D01*
X1048054Y-1148582D01*
X1141989D01*
X1166804Y-1173397D01*
Y-1220158D01*
X1195849D01*
X1208059Y-1232368D01*
X1211367Y-1234578D01*
X1215268Y-1235354D01*
X1545045D01*
X1547085Y-1239088D01*
X1547258Y-1240213D01*
X1268459Y-1519011D01*
X1263525Y-1516968D01*
X1255694Y-1515937D01*
X1247862Y-1516968D01*
X1242929Y-1519011D01*
X1217117Y-1493200D01*
X1213809Y-1490989D01*
X1209907Y-1490213D01*
X983269D01*
X979367Y-1490989D01*
X976059Y-1493200D01*
X963849Y-1505409D01*
X934804D01*
Y-1525804D01*
X875197D01*
Y-1505409D01*
X831732D01*
Y-1566590D01*
X875197D01*
Y-1546196D01*
X934804D01*
Y-1566590D01*
X978269D01*
Y-1519829D01*
X987492Y-1510605D01*
X1001732D01*
Y-1566590D01*
X1008946D01*
Y-1599304D01*
X1000441D01*
X995034Y-1600380D01*
X990450Y-1603443D01*
X987387Y-1608027D01*
X986312Y-1613434D01*
X986761Y-1615695D01*
X983690Y-1619171D01*
X983690Y-1619171D01*
X982716Y-1620165D01*
X982145Y-1620165D01*
X908000D01*
Y-1703000D01*
Y-1785834D01*
X982140D01*
X982718Y-1785834D01*
X983695Y-1786832D01*
Y-1786832D01*
X986760Y-1790312D01*
X986312Y-1792568D01*
X987387Y-1797975D01*
X990450Y-1802559D01*
X995034Y-1805622D01*
X1000441Y-1806697D01*
X1008946D01*
Y-1825409D01*
X1001732D01*
Y-1886590D01*
X1045197D01*
Y-1825409D01*
X1029338D01*
Y-1806697D01*
X1037843D01*
X1043250Y-1805622D01*
X1047834Y-1802559D01*
X1049909Y-1799454D01*
X1055589Y-1798064D01*
X1390302Y-2132776D01*
X1393610Y-2134987D01*
X1397512Y-2135763D01*
X1400118D01*
Y-2196433D01*
X1480984D01*
Y-2115567D01*
X1411103D01*
X1410118Y-2115371D01*
X1401735D01*
X1180928Y-1894563D01*
X1183263Y-1889828D01*
X1186536Y-1890259D01*
X1194368Y-1889228D01*
X1201666Y-1886205D01*
X1207932Y-1881396D01*
X1212741Y-1875129D01*
X1215764Y-1867831D01*
X1216795Y-1860000D01*
X1215764Y-1852168D01*
X1212741Y-1844870D01*
X1207932Y-1838603D01*
X1201666Y-1833795D01*
X1196732Y-1831751D01*
Y-1826590D01*
X1210268D01*
Y-1765409D01*
X1181223D01*
X1167404Y-1751590D01*
X1169475Y-1746591D01*
X1170665Y-1746590D01*
X1170665Y-1746590D01*
X1170697Y-1746590D01*
X1210268D01*
Y-1685409D01*
X1166804D01*
Y-1705600D01*
X1056250D01*
X1053577Y-1700600D01*
X1055607Y-1697562D01*
X1056076Y-1695203D01*
X1019142D01*
Y-1685203D01*
X1056076D01*
X1055607Y-1682846D01*
X1053579Y-1679810D01*
X1056251Y-1674810D01*
X1760390D01*
X1768989Y-1683408D01*
X1765901Y-1690863D01*
X1764698Y-1700000D01*
X1765901Y-1709137D01*
X1769428Y-1717651D01*
X1775038Y-1724962D01*
X1782349Y-1730572D01*
X1790863Y-1734099D01*
X1800000Y-1735302D01*
X1809137Y-1734099D01*
X1817651Y-1730572D01*
X1824962Y-1724962D01*
X1830572Y-1717651D01*
X1834099Y-1709137D01*
X1835302Y-1700000D01*
X1834099Y-1690863D01*
X1830572Y-1682349D01*
X1824962Y-1675038D01*
X1817651Y-1669428D01*
X1809137Y-1665901D01*
X1800000Y-1664698D01*
X1790863Y-1665901D01*
X1783408Y-1668989D01*
X1771823Y-1657404D01*
X1768516Y-1655194D01*
X1764614Y-1654418D01*
X1054280D01*
X1052779Y-1651819D01*
X1054280Y-1649220D01*
X1174370D01*
X1178272Y-1648444D01*
X1181046Y-1646590D01*
X1210268D01*
Y-1585409D01*
X1166804D01*
Y-1628828D01*
X1048748D01*
X1047380Y-1625629D01*
Y-1623729D01*
X1047834Y-1623425D01*
X1050897Y-1618841D01*
X1051973Y-1613434D01*
X1050897Y-1608027D01*
X1047834Y-1603443D01*
X1043250Y-1600380D01*
X1037843Y-1599304D01*
X1029338D01*
Y-1566590D01*
X1045197D01*
Y-1550196D01*
X1051752D01*
X1053795Y-1555129D01*
X1058604Y-1561396D01*
X1064871Y-1566205D01*
X1072169Y-1569228D01*
X1080000Y-1570259D01*
X1087832Y-1569228D01*
X1095130Y-1566205D01*
X1101397Y-1561396D01*
X1106205Y-1555129D01*
X1109228Y-1547831D01*
X1110259Y-1540000D01*
X1109228Y-1532168D01*
X1106205Y-1524870D01*
X1101397Y-1518603D01*
X1097489Y-1515605D01*
X1099186Y-1510605D01*
X1205684D01*
X1228509Y-1533431D01*
X1226466Y-1538364D01*
X1225435Y-1546196D01*
X1226466Y-1554027D01*
X1229489Y-1561325D01*
X1234297Y-1567592D01*
X1240564Y-1572401D01*
X1245498Y-1574444D01*
Y-1585409D01*
X1233732D01*
Y-1646590D01*
X1277197D01*
Y-1585409D01*
X1265890D01*
Y-1574444D01*
X1270823Y-1572401D01*
X1277090Y-1567592D01*
X1281899Y-1561325D01*
X1284922Y-1554027D01*
X1285953Y-1546196D01*
X1284922Y-1538364D01*
X1282878Y-1533431D01*
X1646113Y-1170196D01*
X1773570D01*
X1774650Y-1173379D01*
X1774916Y-1175196D01*
X1769428Y-1182349D01*
X1765901Y-1190863D01*
X1764698Y-1200000D01*
X1765901Y-1209137D01*
X1769428Y-1217651D01*
X1775038Y-1224962D01*
X1782349Y-1230572D01*
X1790863Y-1234099D01*
X1800000Y-1235302D01*
X1809137Y-1234099D01*
X1817651Y-1230572D01*
X1824962Y-1224962D01*
X1830572Y-1217651D01*
X1834099Y-1209137D01*
X1835302Y-1200000D01*
X1834099Y-1190863D01*
X1830572Y-1182349D01*
X1824962Y-1175038D01*
X1817651Y-1169428D01*
X1811273Y-1166786D01*
X1809706Y-1161282D01*
X1847210Y-1123778D01*
X1849420Y-1120470D01*
X1850196Y-1116569D01*
Y-1107655D01*
X1860237Y-1097614D01*
X1863251Y-1099101D01*
X1864724Y-1100198D01*
X1865901Y-1109137D01*
X1869428Y-1117651D01*
X1875038Y-1124962D01*
X1882349Y-1130572D01*
X1890863Y-1134099D01*
X1900000Y-1135302D01*
X1909137Y-1134099D01*
X1917651Y-1130572D01*
X1924962Y-1124962D01*
X1930572Y-1117651D01*
X1934099Y-1109137D01*
X1935302Y-1100000D01*
X1934099Y-1090863D01*
X1930572Y-1082349D01*
X1924962Y-1075038D01*
X1917651Y-1069428D01*
X1911273Y-1066786D01*
X1909706Y-1061282D01*
X1947210Y-1023778D01*
X1949420Y-1020470D01*
X1950196Y-1016568D01*
Y-783432D01*
X1949420Y-779530D01*
X1947210Y-776222D01*
X1923778Y-752790D01*
X1920470Y-750580D01*
X1916569Y-749804D01*
D02*
G37*
G36*
X318543Y-787928D02*
X285000D01*
Y-815566D01*
X318543D01*
Y-787928D01*
D02*
G37*
G36*
X275000Y-825566D02*
X241457D01*
Y-853204D01*
X275000D01*
Y-825566D01*
D02*
G37*
G36*
X586708Y-893771D02*
X571471D01*
Y-909008D01*
X586708D01*
Y-893771D01*
D02*
G37*
G36*
X-100000Y-764698D02*
X-109137Y-765901D01*
X-117651Y-769428D01*
X-124962Y-775038D01*
X-130572Y-782349D01*
X-134099Y-790863D01*
X-135302Y-800000D01*
X-134099Y-809137D01*
X-130572Y-817651D01*
X-124962Y-824962D01*
X-117651Y-830572D01*
X-109137Y-834099D01*
X-100000Y-835302D01*
X-90863Y-834099D01*
X-82349Y-830572D01*
X-75038Y-824962D01*
X-69428Y-817651D01*
X-65901Y-809137D01*
X-64698Y-800000D01*
X-65901Y-790863D01*
X-69428Y-782349D01*
X-75038Y-775038D01*
X-82349Y-769428D01*
X-90863Y-765901D01*
X-100000Y-764698D01*
D02*
G37*
G36*
X318543Y-825566D02*
X285000D01*
Y-853204D01*
X318543D01*
Y-825566D01*
D02*
G37*
G36*
X1800000Y-664698D02*
X1790863Y-665901D01*
X1782349Y-669428D01*
X1775038Y-675038D01*
X1769428Y-682349D01*
X1765901Y-690863D01*
X1764698Y-700000D01*
X1765901Y-709137D01*
X1769428Y-717651D01*
X1775038Y-724962D01*
X1782349Y-730572D01*
X1790863Y-734099D01*
X1800000Y-735302D01*
X1809137Y-734099D01*
X1817651Y-730572D01*
X1824962Y-724962D01*
X1830572Y-717651D01*
X1834099Y-709137D01*
X1835302Y-700000D01*
X1834099Y-690863D01*
X1830572Y-682349D01*
X1824962Y-675038D01*
X1817651Y-669428D01*
X1809137Y-665901D01*
X1800000Y-664698D01*
D02*
G37*
G36*
X0D02*
X-9137Y-665901D01*
X-17651Y-669428D01*
X-24962Y-675038D01*
X-30572Y-682349D01*
X-34099Y-690863D01*
X-35302Y-700000D01*
X-34099Y-709137D01*
X-30572Y-717651D01*
X-24962Y-724962D01*
X-17651Y-730572D01*
X-9137Y-734099D01*
X0Y-735302D01*
X9137Y-734099D01*
X17651Y-730572D01*
X24962Y-724962D01*
X30572Y-717651D01*
X34099Y-709137D01*
X35302Y-700000D01*
X34099Y-690863D01*
X30572Y-682349D01*
X24962Y-675038D01*
X17651Y-669428D01*
X9137Y-665901D01*
X0Y-664698D01*
D02*
G37*
G36*
X275000Y-702796D02*
X241457D01*
Y-730434D01*
X275000D01*
Y-702796D01*
D02*
G37*
G36*
X1900000Y-664698D02*
X1890863Y-665901D01*
X1882349Y-669428D01*
X1875038Y-675038D01*
X1869428Y-682349D01*
X1865901Y-690863D01*
X1864698Y-700000D01*
X1865901Y-709137D01*
X1869428Y-717651D01*
X1875038Y-724962D01*
X1882349Y-730572D01*
X1890863Y-734099D01*
X1900000Y-735302D01*
X1909137Y-734099D01*
X1917651Y-730572D01*
X1924962Y-724962D01*
X1930572Y-717651D01*
X1934099Y-709137D01*
X1935302Y-700000D01*
X1934099Y-690863D01*
X1930572Y-682349D01*
X1924962Y-675038D01*
X1917651Y-669428D01*
X1909137Y-665901D01*
X1900000Y-664698D01*
D02*
G37*
G36*
X275000Y-740434D02*
X241457D01*
Y-768072D01*
X275000D01*
Y-740434D01*
D02*
G37*
G36*
X742204Y-626457D02*
X686928D01*
Y-693543D01*
X701418D01*
Y-706339D01*
X693963Y-709427D01*
X686652Y-715038D01*
X681042Y-722349D01*
X677515Y-730863D01*
X676312Y-740000D01*
X677515Y-749137D01*
X681042Y-757651D01*
X686652Y-764962D01*
X693963Y-770572D01*
X702477Y-774099D01*
X711614Y-775302D01*
X720751Y-774099D01*
X729265Y-770572D01*
X736577Y-764962D01*
X742187Y-757651D01*
X745713Y-749137D01*
X746916Y-740000D01*
X745713Y-730863D01*
X742187Y-722349D01*
X736577Y-715038D01*
X729265Y-709427D01*
X721810Y-706339D01*
Y-693543D01*
X742204D01*
Y-626457D01*
D02*
G37*
G36*
X-100000Y-664698D02*
X-109137Y-665901D01*
X-117651Y-669428D01*
X-124962Y-675038D01*
X-130572Y-682349D01*
X-134099Y-690863D01*
X-135302Y-700000D01*
X-134099Y-709137D01*
X-130572Y-717651D01*
X-124962Y-724962D01*
X-117651Y-730572D01*
X-109137Y-734099D01*
X-100000Y-735302D01*
X-90863Y-734099D01*
X-82349Y-730572D01*
X-75038Y-724962D01*
X-69428Y-717651D01*
X-65901Y-709137D01*
X-64698Y-700000D01*
X-65901Y-690863D01*
X-69428Y-682349D01*
X-75038Y-675038D01*
X-82349Y-669428D01*
X-90863Y-665901D01*
X-100000Y-664698D01*
D02*
G37*
G36*
X318543Y-740434D02*
X285000D01*
Y-768072D01*
X318543D01*
Y-740434D01*
D02*
G37*
G36*
X-100000Y-964698D02*
X-109137Y-965901D01*
X-117651Y-969428D01*
X-124962Y-975038D01*
X-130572Y-982349D01*
X-134099Y-990863D01*
X-135302Y-1000000D01*
X-134099Y-1009137D01*
X-130572Y-1017651D01*
X-124962Y-1024962D01*
X-117651Y-1030572D01*
X-109137Y-1034099D01*
X-100000Y-1035302D01*
X-90863Y-1034099D01*
X-82349Y-1030572D01*
X-75038Y-1024962D01*
X-69428Y-1017651D01*
X-65901Y-1009137D01*
X-64698Y-1000000D01*
X-65901Y-990863D01*
X-69428Y-982349D01*
X-75038Y-975038D01*
X-82349Y-969428D01*
X-90863Y-965901D01*
X-100000Y-964698D01*
D02*
G37*
G36*
X0Y-1064698D02*
X-9137Y-1065901D01*
X-17651Y-1069428D01*
X-24962Y-1075038D01*
X-30572Y-1082349D01*
X-34099Y-1090863D01*
X-35302Y-1100000D01*
X-34099Y-1109137D01*
X-30572Y-1117651D01*
X-24962Y-1124962D01*
X-17651Y-1130572D01*
X-9137Y-1134099D01*
X0Y-1135302D01*
X9137Y-1134099D01*
X17651Y-1130572D01*
X24962Y-1124962D01*
X30572Y-1117651D01*
X34099Y-1109137D01*
X35302Y-1100000D01*
X34099Y-1090863D01*
X30572Y-1082349D01*
X24962Y-1075038D01*
X17651Y-1069428D01*
X9137Y-1065901D01*
X0Y-1064698D01*
D02*
G37*
G36*
X561471Y-893771D02*
X546235D01*
Y-898771D01*
X519739D01*
Y-929244D01*
X524056D01*
Y-949409D01*
X509904D01*
Y-1010590D01*
X553369D01*
Y-949409D01*
X544448D01*
Y-938504D01*
X546235Y-934244D01*
X561471D01*
Y-914008D01*
Y-893771D01*
D02*
G37*
G36*
X0Y-964698D02*
X-9137Y-965901D01*
X-17651Y-969428D01*
X-24962Y-975038D01*
X-30572Y-982349D01*
X-34099Y-990863D01*
X-35302Y-1000000D01*
X-34099Y-1009137D01*
X-30572Y-1017651D01*
X-24962Y-1024962D01*
X-17651Y-1030572D01*
X-9137Y-1034099D01*
X0Y-1035302D01*
X9137Y-1034099D01*
X17651Y-1030572D01*
X24962Y-1024962D01*
X30572Y-1017651D01*
X34099Y-1009137D01*
X35302Y-1000000D01*
X34099Y-990863D01*
X30572Y-982349D01*
X24962Y-975038D01*
X17651Y-969428D01*
X9137Y-965901D01*
X0Y-964698D01*
D02*
G37*
G36*
Y-1164698D02*
X-9137Y-1165901D01*
X-17651Y-1169428D01*
X-24962Y-1175038D01*
X-30572Y-1182349D01*
X-34099Y-1190863D01*
X-35302Y-1200000D01*
X-34099Y-1209137D01*
X-30572Y-1217651D01*
X-24962Y-1224962D01*
X-17651Y-1230572D01*
X-9137Y-1234099D01*
X0Y-1235302D01*
X9137Y-1234099D01*
X17651Y-1230572D01*
X24962Y-1224962D01*
X30572Y-1217651D01*
X34099Y-1209137D01*
X35302Y-1200000D01*
X34099Y-1190863D01*
X30572Y-1182349D01*
X24962Y-1175038D01*
X17651Y-1169428D01*
X9137Y-1165901D01*
X0Y-1164698D01*
D02*
G37*
G36*
X-100000D02*
X-109137Y-1165901D01*
X-117651Y-1169428D01*
X-124962Y-1175038D01*
X-130572Y-1182349D01*
X-134099Y-1190863D01*
X-135302Y-1200000D01*
X-134099Y-1209137D01*
X-130572Y-1217651D01*
X-124962Y-1224962D01*
X-117651Y-1230572D01*
X-109137Y-1234099D01*
X-100000Y-1235302D01*
X-90863Y-1234099D01*
X-82349Y-1230572D01*
X-75038Y-1224962D01*
X-69428Y-1217651D01*
X-65901Y-1209137D01*
X-64698Y-1200000D01*
X-65901Y-1190863D01*
X-69428Y-1182349D01*
X-75038Y-1175038D01*
X-82349Y-1169428D01*
X-90863Y-1165901D01*
X-100000Y-1164698D01*
D02*
G37*
G36*
Y-1064698D02*
X-109137Y-1065901D01*
X-117651Y-1069428D01*
X-124962Y-1075038D01*
X-130572Y-1082349D01*
X-134099Y-1090863D01*
X-135302Y-1100000D01*
X-134099Y-1109137D01*
X-130572Y-1117651D01*
X-124962Y-1124962D01*
X-117651Y-1130572D01*
X-109137Y-1134099D01*
X-100000Y-1135302D01*
X-90863Y-1134099D01*
X-82349Y-1130572D01*
X-75038Y-1124962D01*
X-69428Y-1117651D01*
X-65901Y-1109137D01*
X-64698Y-1100000D01*
X-65901Y-1090863D01*
X-69428Y-1082349D01*
X-75038Y-1075038D01*
X-82349Y-1069428D01*
X-90863Y-1065901D01*
X-100000Y-1064698D01*
D02*
G37*
G36*
X1900000Y-1164698D02*
X1890863Y-1165901D01*
X1882349Y-1169428D01*
X1875038Y-1175038D01*
X1869428Y-1182349D01*
X1865901Y-1190863D01*
X1864698Y-1200000D01*
X1865901Y-1209137D01*
X1869428Y-1217651D01*
X1875038Y-1224962D01*
X1882349Y-1230572D01*
X1890863Y-1234099D01*
X1900000Y-1235302D01*
X1909137Y-1234099D01*
X1917651Y-1230572D01*
X1924962Y-1224962D01*
X1930572Y-1217651D01*
X1934099Y-1209137D01*
X1935302Y-1200000D01*
X1934099Y-1190863D01*
X1930572Y-1182349D01*
X1924962Y-1175038D01*
X1917651Y-1169428D01*
X1909137Y-1165901D01*
X1900000Y-1164698D01*
D02*
G37*
G36*
X-100000Y-864698D02*
X-109137Y-865901D01*
X-117651Y-869428D01*
X-124962Y-875038D01*
X-130572Y-882349D01*
X-134099Y-890863D01*
X-135302Y-900000D01*
X-134099Y-909137D01*
X-130572Y-917651D01*
X-124962Y-924962D01*
X-117651Y-930572D01*
X-109137Y-934099D01*
X-100000Y-935302D01*
X-90863Y-934099D01*
X-82349Y-930572D01*
X-75038Y-924962D01*
X-69428Y-917651D01*
X-65901Y-909137D01*
X-64698Y-900000D01*
X-65901Y-890863D01*
X-69428Y-882349D01*
X-75038Y-875038D01*
X-82349Y-869428D01*
X-90863Y-865901D01*
X-100000Y-864698D01*
D02*
G37*
G36*
X402343Y-926684D02*
X368800D01*
Y-954322D01*
X402343D01*
Y-926684D01*
D02*
G37*
G36*
X586708Y-919008D02*
X571471D01*
Y-934244D01*
X586708D01*
Y-919008D01*
D02*
G37*
G36*
X0Y-864698D02*
X-9137Y-865901D01*
X-17651Y-869428D01*
X-24962Y-875038D01*
X-30572Y-882349D01*
X-34099Y-890863D01*
X-35302Y-900000D01*
X-34099Y-909137D01*
X-30572Y-917651D01*
X-24962Y-924962D01*
X-17651Y-930572D01*
X-9137Y-934099D01*
X0Y-935302D01*
X9137Y-934099D01*
X17651Y-930572D01*
X24962Y-924962D01*
X30572Y-917651D01*
X34099Y-909137D01*
X35302Y-900000D01*
X34099Y-890863D01*
X30572Y-882349D01*
X24962Y-875038D01*
X17651Y-869428D01*
X9137Y-865901D01*
X0Y-864698D01*
D02*
G37*
G36*
X402343Y-964322D02*
X368800D01*
Y-991960D01*
X402343D01*
Y-964322D01*
D02*
G37*
G36*
X358800D02*
X325257D01*
Y-991960D01*
X358800D01*
Y-964322D01*
D02*
G37*
G36*
Y-926684D02*
X325257D01*
Y-954322D01*
X358800D01*
Y-926684D01*
D02*
G37*
G36*
X313543Y-863794D02*
X246457D01*
Y-919070D01*
X269804D01*
Y-948418D01*
X249409D01*
Y-991882D01*
X310590D01*
Y-948418D01*
X290196D01*
Y-919070D01*
X313543D01*
Y-863794D01*
D02*
G37*
G36*
X1250464Y-1760409D02*
X1228732D01*
Y-1791000D01*
X1250464D01*
Y-1760409D01*
D02*
G37*
G36*
X-60313Y-2205000D02*
X-95000D01*
Y-2239687D01*
X-89558Y-2238970D01*
X-79827Y-2234940D01*
X-71472Y-2228528D01*
X-65060Y-2220173D01*
X-61029Y-2210442D01*
X-60313Y-2205000D01*
D02*
G37*
G36*
X-5000D02*
X-39687D01*
X-38971Y-2210442D01*
X-34940Y-2220173D01*
X-28528Y-2228528D01*
X-20173Y-2234940D01*
X-10442Y-2238970D01*
X-5000Y-2239687D01*
Y-2205000D01*
D02*
G37*
G36*
X1800000Y-2164698D02*
X1790863Y-2165901D01*
X1782349Y-2169428D01*
X1775038Y-2175038D01*
X1769428Y-2182349D01*
X1765901Y-2190863D01*
X1764698Y-2200000D01*
X1765901Y-2209137D01*
X1769428Y-2217651D01*
X1775038Y-2224962D01*
X1782349Y-2230572D01*
X1790863Y-2234099D01*
X1800000Y-2235302D01*
X1809137Y-2234099D01*
X1817651Y-2230572D01*
X1824962Y-2224962D01*
X1830572Y-2217651D01*
X1834099Y-2209137D01*
X1835302Y-2200000D01*
X1834099Y-2190863D01*
X1830572Y-2182349D01*
X1824962Y-2175038D01*
X1817651Y-2169428D01*
X1809137Y-2165901D01*
X1800000Y-2164698D01*
D02*
G37*
G36*
X39687Y-2205000D02*
X5000D01*
Y-2239687D01*
X10442Y-2238970D01*
X20173Y-2234940D01*
X28528Y-2228528D01*
X34940Y-2220173D01*
X38971Y-2210442D01*
X39687Y-2205000D01*
D02*
G37*
G36*
X552314Y-2317701D02*
X518772D01*
Y-2345339D01*
X552314D01*
Y-2317701D01*
D02*
G37*
G36*
X1277197Y-2295409D02*
X1233732D01*
Y-2356590D01*
X1277197D01*
Y-2340196D01*
X1291752D01*
X1293795Y-2345129D01*
X1298604Y-2351396D01*
X1304871Y-2356205D01*
X1312169Y-2359228D01*
X1320000Y-2360259D01*
X1327832Y-2359228D01*
X1335130Y-2356205D01*
X1341397Y-2351396D01*
X1346205Y-2345129D01*
X1349228Y-2337831D01*
X1350259Y-2330000D01*
X1349228Y-2322168D01*
X1346205Y-2314870D01*
X1341397Y-2308604D01*
X1335130Y-2303795D01*
X1327832Y-2300772D01*
X1320000Y-2299741D01*
X1312169Y-2300772D01*
X1304871Y-2303795D01*
X1298604Y-2308604D01*
X1293795Y-2314870D01*
X1291752Y-2319804D01*
X1277197D01*
Y-2295409D01*
D02*
G37*
G36*
X-105000Y-2205000D02*
X-139687D01*
X-138970Y-2210442D01*
X-134940Y-2220173D01*
X-128528Y-2228528D01*
X-120173Y-2234940D01*
X-110442Y-2238970D01*
X-105000Y-2239687D01*
Y-2205000D01*
D02*
G37*
G36*
X595858Y-2317701D02*
X562314D01*
Y-2345339D01*
X595858D01*
Y-2317701D01*
D02*
G37*
G36*
X-5000Y-2160313D02*
X-10442Y-2161030D01*
X-20173Y-2165060D01*
X-28528Y-2171472D01*
X-34940Y-2179827D01*
X-38971Y-2189558D01*
X-39687Y-2195000D01*
X-5000D01*
Y-2160313D01*
D02*
G37*
G36*
X-105000D02*
X-110442Y-2161030D01*
X-120173Y-2165060D01*
X-128528Y-2171472D01*
X-134940Y-2179827D01*
X-138970Y-2189558D01*
X-139687Y-2195000D01*
X-105000D01*
Y-2160313D01*
D02*
G37*
G36*
X5000Y-2160313D02*
Y-2195000D01*
X39687D01*
X38971Y-2189558D01*
X34940Y-2179827D01*
X28528Y-2171472D01*
X20173Y-2165060D01*
X10442Y-2161030D01*
X5000Y-2160313D01*
D02*
G37*
G36*
X-95000D02*
Y-2195000D01*
X-60313D01*
X-61029Y-2189558D01*
X-65060Y-2179827D01*
X-71472Y-2171472D01*
X-79827Y-2165060D01*
X-89558Y-2161030D01*
X-95000Y-2160313D01*
D02*
G37*
G36*
X565780Y-2083724D02*
X550544D01*
Y-2088724D01*
X524048D01*
Y-2119196D01*
X529088D01*
Y-2140851D01*
X519834D01*
Y-2202032D01*
X563298D01*
Y-2140851D01*
X549480D01*
Y-2128755D01*
X550544Y-2124196D01*
X565780D01*
Y-2103960D01*
Y-2083724D01*
D02*
G37*
G36*
X808269Y-2110409D02*
X764804D01*
Y-2171590D01*
X773662D01*
Y-2202304D01*
X765157D01*
X759750Y-2203380D01*
X755166Y-2206443D01*
X752103Y-2211027D01*
X751028Y-2216434D01*
X752103Y-2221841D01*
X755166Y-2226425D01*
X752768Y-2230836D01*
X751946Y-2231828D01*
X674443D01*
X630229Y-2187613D01*
Y-2140851D01*
X586764D01*
Y-2202032D01*
X615809D01*
X658289Y-2244512D01*
X656218Y-2249512D01*
X345623D01*
Y-2226244D01*
X284442D01*
Y-2239804D01*
X178249D01*
X176205Y-2234870D01*
X171397Y-2228604D01*
X165130Y-2223795D01*
X157832Y-2220772D01*
X150000Y-2219741D01*
X142169Y-2220772D01*
X134871Y-2223795D01*
X128604Y-2228604D01*
X123795Y-2234870D01*
X120772Y-2242168D01*
X119741Y-2250000D01*
X120772Y-2257831D01*
X123795Y-2265129D01*
X128604Y-2271396D01*
X134871Y-2276205D01*
X142169Y-2279228D01*
X150000Y-2280259D01*
X157832Y-2279228D01*
X165130Y-2276205D01*
X171397Y-2271396D01*
X176205Y-2265129D01*
X178249Y-2260196D01*
X284442D01*
Y-2269708D01*
X325780D01*
X326764Y-2269904D01*
X523772D01*
Y-2307110D01*
X590858D01*
Y-2269904D01*
X750940D01*
X751618Y-2270582D01*
X752103Y-2273021D01*
X754979Y-2277324D01*
X751561Y-2279608D01*
X747393Y-2285846D01*
X746924Y-2288204D01*
X783859D01*
Y-2298204D01*
X746924D01*
X747393Y-2300562D01*
X748437Y-2302124D01*
X745764Y-2307124D01*
X731771D01*
Y-2295079D01*
X697361D01*
Y-2329488D01*
X697361D01*
Y-2330512D01*
X697361D01*
Y-2364921D01*
X731771D01*
Y-2356058D01*
X752234D01*
X753150Y-2357285D01*
X754449Y-2361058D01*
X752103Y-2364569D01*
X751367Y-2368269D01*
X708390Y-2411246D01*
X513281D01*
X511237Y-2406312D01*
X506428Y-2400046D01*
X500162Y-2395237D01*
X492864Y-2392214D01*
X485032Y-2391183D01*
X477201Y-2392214D01*
X469903Y-2395237D01*
X463636Y-2400046D01*
X458827Y-2406312D01*
X455804Y-2413610D01*
X454773Y-2421442D01*
X455804Y-2429273D01*
X458827Y-2436571D01*
X463636Y-2442838D01*
X469903Y-2447647D01*
X477201Y-2450670D01*
X485032Y-2451701D01*
X492864Y-2450670D01*
X500162Y-2447647D01*
X506428Y-2442838D01*
X511237Y-2436571D01*
X513281Y-2431638D01*
X712614D01*
X716516Y-2430862D01*
X719823Y-2428651D01*
X747411Y-2401064D01*
X753092Y-2402454D01*
X755166Y-2405559D01*
X759750Y-2408622D01*
X765157Y-2409698D01*
X773662D01*
Y-2437898D01*
X752826D01*
Y-2504985D01*
X808102D01*
Y-2437898D01*
X794054D01*
Y-2409698D01*
X802559D01*
X807966Y-2408622D01*
X812550Y-2405559D01*
X815613Y-2400975D01*
X816689Y-2395568D01*
X816240Y-2393312D01*
X819306Y-2389832D01*
Y-2389832D01*
X820283Y-2388834D01*
X820861Y-2388834D01*
X895000D01*
Y-2306000D01*
Y-2223165D01*
X820284Y-2223165D01*
X819310Y-2222171D01*
X819310Y-2222171D01*
X816239Y-2218695D01*
X816689Y-2216434D01*
X815613Y-2211027D01*
X812550Y-2206443D01*
X807966Y-2203380D01*
X802559Y-2202304D01*
X794054D01*
Y-2171590D01*
X808269D01*
Y-2110409D01*
D02*
G37*
G36*
X399882Y-2115567D02*
X319016D01*
Y-2196433D01*
X399882D01*
Y-2115567D01*
D02*
G37*
G36*
X299882D02*
X219016D01*
Y-2196433D01*
X299882D01*
Y-2115567D01*
D02*
G37*
G36*
X75000Y-2315855D02*
X58584Y-2317472D01*
X42799Y-2322260D01*
X28251Y-2330036D01*
X15500Y-2340500D01*
X5036Y-2353251D01*
X-2740Y-2367799D01*
X-7529Y-2383584D01*
X-9145Y-2400000D01*
X-7529Y-2416416D01*
X-2740Y-2432201D01*
X5036Y-2446749D01*
X15500Y-2459500D01*
X28251Y-2469964D01*
X42799Y-2477740D01*
X58584Y-2482528D01*
X75000Y-2484145D01*
X91416Y-2482528D01*
X107201Y-2477740D01*
X121749Y-2469964D01*
X134500Y-2459500D01*
X144964Y-2446749D01*
X152740Y-2432201D01*
X157529Y-2416416D01*
X159145Y-2400000D01*
X157529Y-2383584D01*
X152740Y-2367799D01*
X144964Y-2353251D01*
X134500Y-2340500D01*
X121749Y-2330036D01*
X107201Y-2322260D01*
X91416Y-2317472D01*
X75000Y-2315855D01*
D02*
G37*
G36*
X350399Y-2461874D02*
X316856D01*
Y-2489512D01*
X350399D01*
Y-2461874D01*
D02*
G37*
G36*
X978298Y-2425851D02*
X956566D01*
Y-2456441D01*
X978298D01*
Y-2425851D01*
D02*
G37*
G36*
X946566D02*
X924834D01*
Y-2456441D01*
X946566D01*
Y-2425851D01*
D02*
G37*
G36*
Y-2466441D02*
X924834D01*
Y-2497032D01*
X946566D01*
Y-2466441D01*
D02*
G37*
G36*
X737236Y-2437898D02*
X681960D01*
Y-2504985D01*
X697284D01*
Y-2515759D01*
X692351Y-2517803D01*
X686084Y-2522612D01*
X681275Y-2528878D01*
X678252Y-2536176D01*
X677221Y-2544008D01*
X678252Y-2551840D01*
X681275Y-2559137D01*
X686084Y-2565404D01*
X692351Y-2570213D01*
X699649Y-2573236D01*
X707480Y-2574267D01*
X715312Y-2573236D01*
X722610Y-2570213D01*
X728877Y-2565404D01*
X733685Y-2559137D01*
X736708Y-2551840D01*
X737739Y-2544008D01*
X736708Y-2536176D01*
X733685Y-2528878D01*
X728877Y-2522612D01*
X722610Y-2517803D01*
X717676Y-2515759D01*
Y-2504985D01*
X737236D01*
Y-2437898D01*
D02*
G37*
G36*
X306856Y-2461874D02*
X273313D01*
Y-2489512D01*
X306856D01*
Y-2461874D01*
D02*
G37*
G36*
X978298Y-2466441D02*
X956566D01*
Y-2497032D01*
X978298D01*
Y-2466441D01*
D02*
G37*
G36*
X1282197Y-2368369D02*
X1260464D01*
Y-2398960D01*
X1282197D01*
Y-2368369D01*
D02*
G37*
G36*
X1250464D02*
X1228732D01*
Y-2398960D01*
X1250464D01*
Y-2368369D01*
D02*
G37*
G36*
X595858Y-2355339D02*
X562314D01*
Y-2382976D01*
X595858D01*
Y-2355339D01*
D02*
G37*
G36*
X552314D02*
X518772D01*
Y-2382976D01*
X552314D01*
Y-2355339D01*
D02*
G37*
G36*
X350399Y-2424236D02*
X316856D01*
Y-2451874D01*
X350399D01*
Y-2424236D01*
D02*
G37*
G36*
X306856D02*
X273313D01*
Y-2451874D01*
X306856D01*
Y-2424236D01*
D02*
G37*
G36*
X345623Y-2293173D02*
X284442D01*
Y-2336638D01*
X304836D01*
Y-2358370D01*
X278313D01*
Y-2413646D01*
X345399D01*
Y-2358370D01*
X325228D01*
Y-2336638D01*
X345623D01*
Y-2293173D01*
D02*
G37*
G36*
X1282197Y-2408960D02*
X1260464D01*
Y-2439550D01*
X1282197D01*
Y-2408960D01*
D02*
G37*
G36*
X951536Y-1820409D02*
X929804D01*
Y-1851000D01*
X951536D01*
Y-1820409D01*
D02*
G37*
G36*
X350400Y-1830745D02*
X316856D01*
Y-1858383D01*
X350400D01*
Y-1830745D01*
D02*
G37*
G36*
X-100000Y-1764698D02*
X-109137Y-1765901D01*
X-117651Y-1769428D01*
X-124962Y-1775038D01*
X-130572Y-1782349D01*
X-134099Y-1790863D01*
X-135302Y-1800000D01*
X-134099Y-1809137D01*
X-130572Y-1817651D01*
X-124962Y-1824962D01*
X-117651Y-1830572D01*
X-109137Y-1834099D01*
X-100000Y-1835302D01*
X-90863Y-1834099D01*
X-82349Y-1830572D01*
X-75038Y-1824962D01*
X-69428Y-1817651D01*
X-65901Y-1809137D01*
X-64698Y-1800000D01*
X-65901Y-1790863D01*
X-69428Y-1782349D01*
X-75038Y-1775038D01*
X-82349Y-1769428D01*
X-90863Y-1765901D01*
X-100000Y-1764698D01*
D02*
G37*
G36*
X983269Y-1820409D02*
X961536D01*
Y-1851000D01*
X983269D01*
Y-1820409D01*
D02*
G37*
G36*
X951536Y-1861000D02*
X929804D01*
Y-1891590D01*
X951536D01*
Y-1861000D01*
D02*
G37*
G36*
X1800000Y-1864698D02*
X1790863Y-1865901D01*
X1782349Y-1869428D01*
X1775038Y-1875038D01*
X1769428Y-1882349D01*
X1765901Y-1890863D01*
X1764698Y-1900000D01*
X1765901Y-1909137D01*
X1769428Y-1917651D01*
X1775038Y-1924962D01*
X1782349Y-1930572D01*
X1790863Y-1934099D01*
X1800000Y-1935302D01*
X1809137Y-1934099D01*
X1817651Y-1930572D01*
X1824962Y-1924962D01*
X1830572Y-1917651D01*
X1834099Y-1909137D01*
X1835302Y-1900000D01*
X1834099Y-1890863D01*
X1830572Y-1882349D01*
X1824962Y-1875038D01*
X1817651Y-1869428D01*
X1809137Y-1865901D01*
X1800000Y-1864698D01*
D02*
G37*
G36*
X306856Y-1830745D02*
X273313D01*
Y-1858383D01*
X306856D01*
Y-1830745D01*
D02*
G37*
G36*
X983269Y-1861000D02*
X961536D01*
Y-1891590D01*
X983269D01*
Y-1861000D01*
D02*
G37*
G36*
X443575Y-1796434D02*
X410032D01*
Y-1824072D01*
X443575D01*
Y-1796434D01*
D02*
G37*
G36*
X400032D02*
X366489D01*
Y-1824072D01*
X400032D01*
Y-1796434D01*
D02*
G37*
G36*
X350400Y-1793107D02*
X316856D01*
Y-1820745D01*
X350400D01*
Y-1793107D01*
D02*
G37*
G36*
X306856D02*
X273313D01*
Y-1820745D01*
X306856D01*
Y-1793107D01*
D02*
G37*
G36*
X1900000Y-1764698D02*
X1890863Y-1765901D01*
X1882349Y-1769428D01*
X1875038Y-1775038D01*
X1869428Y-1782349D01*
X1865901Y-1790863D01*
X1864698Y-1800000D01*
X1865901Y-1809137D01*
X1869428Y-1817651D01*
X1875038Y-1824962D01*
X1882349Y-1830572D01*
X1890863Y-1834099D01*
X1900000Y-1835302D01*
X1909137Y-1834099D01*
X1916592Y-1831011D01*
X1929804Y-1844223D01*
Y-1873570D01*
X1926621Y-1874650D01*
X1924804Y-1874916D01*
X1917651Y-1869428D01*
X1909137Y-1865901D01*
X1900000Y-1864698D01*
X1890863Y-1865901D01*
X1882349Y-1869428D01*
X1875038Y-1875038D01*
X1869428Y-1882349D01*
X1865901Y-1890863D01*
X1864698Y-1900000D01*
X1865901Y-1909137D01*
X1869428Y-1917651D01*
X1875038Y-1924962D01*
X1882349Y-1930572D01*
X1890863Y-1934099D01*
X1900000Y-1935302D01*
X1909137Y-1934099D01*
X1917651Y-1930572D01*
X1924804Y-1925084D01*
X1926621Y-1925350D01*
X1929804Y-1926430D01*
Y-1973570D01*
X1926621Y-1974650D01*
X1924804Y-1974916D01*
X1917651Y-1969428D01*
X1909137Y-1965901D01*
X1900000Y-1964698D01*
X1890863Y-1965901D01*
X1882349Y-1969428D01*
X1875038Y-1975038D01*
X1869428Y-1982349D01*
X1865901Y-1990863D01*
X1864698Y-2000000D01*
X1865901Y-2009137D01*
X1869428Y-2017651D01*
X1875038Y-2024962D01*
X1882349Y-2030572D01*
X1890863Y-2034099D01*
X1900000Y-2035302D01*
X1909137Y-2034099D01*
X1917651Y-2030572D01*
X1924804Y-2025084D01*
X1926621Y-2025350D01*
X1929804Y-2026430D01*
Y-2073570D01*
X1926621Y-2074651D01*
X1924804Y-2074916D01*
X1917651Y-2069428D01*
X1909137Y-2065901D01*
X1900000Y-2064698D01*
X1890863Y-2065901D01*
X1882349Y-2069428D01*
X1875038Y-2075038D01*
X1869428Y-2082349D01*
X1865901Y-2090863D01*
X1864698Y-2100000D01*
X1865901Y-2109137D01*
X1869428Y-2117651D01*
X1875038Y-2124962D01*
X1882349Y-2130572D01*
X1890863Y-2134099D01*
X1900000Y-2135302D01*
X1909137Y-2134099D01*
X1917651Y-2130572D01*
X1924804Y-2125084D01*
X1926621Y-2125349D01*
X1929804Y-2126430D01*
Y-2173570D01*
X1926621Y-2174651D01*
X1924804Y-2174916D01*
X1917651Y-2169428D01*
X1909137Y-2165901D01*
X1900000Y-2164698D01*
X1890863Y-2165901D01*
X1882349Y-2169428D01*
X1875038Y-2175038D01*
X1869428Y-2182349D01*
X1865901Y-2190863D01*
X1864698Y-2200000D01*
X1865901Y-2209137D01*
X1869428Y-2217651D01*
X1875038Y-2224962D01*
X1882349Y-2230572D01*
X1890863Y-2234099D01*
X1900000Y-2235302D01*
X1909137Y-2234099D01*
X1917651Y-2230572D01*
X1924804Y-2225084D01*
X1926621Y-2225349D01*
X1929804Y-2226430D01*
Y-2306274D01*
X1809745Y-2426333D01*
X1805324Y-2423683D01*
X1807528Y-2416416D01*
X1809145Y-2400000D01*
X1807528Y-2383584D01*
X1802740Y-2367799D01*
X1794964Y-2353251D01*
X1784500Y-2340500D01*
X1771749Y-2330036D01*
X1757201Y-2322260D01*
X1741416Y-2317472D01*
X1725000Y-2315855D01*
X1708584Y-2317472D01*
X1692799Y-2322260D01*
X1678251Y-2330036D01*
X1665500Y-2340500D01*
X1655036Y-2353251D01*
X1647260Y-2367799D01*
X1642472Y-2383584D01*
X1640855Y-2400000D01*
X1642472Y-2416416D01*
X1647260Y-2432201D01*
X1655036Y-2446749D01*
X1665500Y-2459500D01*
X1678251Y-2469964D01*
X1684949Y-2473544D01*
X1683697Y-2478544D01*
X1268682D01*
X1234307Y-2444170D01*
X1236221Y-2439550D01*
X1250464D01*
Y-2408960D01*
X1228732D01*
Y-2432062D01*
X1224112Y-2433975D01*
X1210268Y-2420131D01*
Y-2373369D01*
X1181223D01*
X1169444Y-2361590D01*
X1171515Y-2356590D01*
X1210268D01*
Y-2295409D01*
X1166804D01*
Y-2308600D01*
X1053250D01*
X1050577Y-2303600D01*
X1052607Y-2300562D01*
X1053076Y-2298203D01*
X1016142D01*
Y-2288203D01*
X1053076D01*
X1052607Y-2285846D01*
X1050579Y-2282810D01*
X1053251Y-2277810D01*
X1513946D01*
X1517847Y-2277034D01*
X1521155Y-2274823D01*
X1660137Y-2135841D01*
X1662347Y-2132534D01*
X1663123Y-2128632D01*
Y-1951296D01*
X1783408Y-1831011D01*
X1790863Y-1834099D01*
X1800000Y-1835302D01*
X1809137Y-1834099D01*
X1817651Y-1830572D01*
X1824962Y-1824962D01*
X1830572Y-1817651D01*
X1834099Y-1809137D01*
X1835302Y-1800000D01*
X1834099Y-1790863D01*
X1830572Y-1782349D01*
X1824962Y-1775038D01*
X1817651Y-1769428D01*
X1809137Y-1765901D01*
X1800000Y-1764698D01*
X1790863Y-1765901D01*
X1782349Y-1769428D01*
X1775038Y-1775038D01*
X1769428Y-1782349D01*
X1765901Y-1790863D01*
X1764698Y-1800000D01*
X1765901Y-1809137D01*
X1768989Y-1816592D01*
X1645718Y-1939863D01*
X1643508Y-1943171D01*
X1642732Y-1947072D01*
Y-2124409D01*
X1585604Y-2181536D01*
X1580984Y-2179623D01*
Y-2115567D01*
X1500118D01*
Y-2196433D01*
X1564174D01*
X1566088Y-2201052D01*
X1509722Y-2257418D01*
X1049306D01*
X1046545Y-2252428D01*
X1046621Y-2252288D01*
X1048393Y-2250762D01*
X1176804D01*
X1177789Y-2250566D01*
X1210268D01*
Y-2189385D01*
X1166804D01*
Y-2230370D01*
X1047754D01*
X1046809Y-2229093D01*
X1045539Y-2225370D01*
X1047897Y-2221841D01*
X1048973Y-2216434D01*
X1047897Y-2211027D01*
X1044834Y-2206443D01*
X1040250Y-2203380D01*
X1034843Y-2202304D01*
X1026338D01*
Y-2171236D01*
X1035513D01*
Y-2153874D01*
X1047752D01*
X1049795Y-2158807D01*
X1054604Y-2165074D01*
X1060871Y-2169883D01*
X1068169Y-2172906D01*
X1076000Y-2173937D01*
X1083832Y-2172906D01*
X1091130Y-2169883D01*
X1097397Y-2165074D01*
X1102205Y-2158807D01*
X1105228Y-2151509D01*
X1106259Y-2143678D01*
X1105228Y-2135846D01*
X1102205Y-2128548D01*
X1097397Y-2122282D01*
X1094751Y-2120251D01*
X1096448Y-2115251D01*
X1217154D01*
X1232816Y-2130913D01*
X1230772Y-2135846D01*
X1229741Y-2143678D01*
X1230772Y-2151509D01*
X1233795Y-2158807D01*
X1238604Y-2165074D01*
X1244871Y-2169883D01*
X1249804Y-2171926D01*
Y-2189385D01*
X1233732D01*
Y-2250566D01*
X1277197D01*
Y-2189385D01*
X1270196D01*
Y-2171926D01*
X1275130Y-2169883D01*
X1281397Y-2165074D01*
X1286205Y-2158807D01*
X1289228Y-2151509D01*
X1290259Y-2143678D01*
X1289228Y-2135846D01*
X1286205Y-2128548D01*
X1281397Y-2122282D01*
X1275130Y-2117473D01*
X1267832Y-2114450D01*
X1260000Y-2113419D01*
X1252169Y-2114450D01*
X1247235Y-2116494D01*
X1228587Y-2097846D01*
X1225280Y-2095635D01*
X1221378Y-2094859D01*
X973582D01*
X969681Y-2095635D01*
X966373Y-2097846D01*
X954163Y-2110055D01*
X925118D01*
Y-2130450D01*
X875197D01*
Y-2110409D01*
X831732D01*
Y-2171590D01*
X875197D01*
Y-2150842D01*
X925118D01*
Y-2171236D01*
X968582D01*
Y-2124474D01*
X977806Y-2115251D01*
X992048D01*
Y-2171236D01*
X1005946D01*
Y-2202304D01*
X997441D01*
X992034Y-2203380D01*
X987450Y-2206443D01*
X984387Y-2211027D01*
X983312Y-2216434D01*
X983761Y-2218695D01*
X980690Y-2222171D01*
X980690Y-2222171D01*
X979716Y-2223165D01*
X979145Y-2223165D01*
X905000D01*
Y-2306000D01*
Y-2388834D01*
X979140D01*
X979718Y-2388834D01*
X980695Y-2389832D01*
Y-2389832D01*
X983760Y-2393312D01*
X983312Y-2395568D01*
X984387Y-2400975D01*
X987450Y-2405559D01*
X992034Y-2408622D01*
X997441Y-2409698D01*
X1005946D01*
Y-2430851D01*
X996764D01*
Y-2492032D01*
X1040228D01*
Y-2430851D01*
X1026338D01*
Y-2409698D01*
X1034843D01*
X1040250Y-2408622D01*
X1044834Y-2405559D01*
X1046909Y-2402454D01*
X1052589Y-2401064D01*
X1078698Y-2427172D01*
X1078604Y-2428604D01*
X1073795Y-2434870D01*
X1070772Y-2442168D01*
X1069741Y-2450000D01*
X1070772Y-2457831D01*
X1073795Y-2465129D01*
X1078604Y-2471396D01*
X1084871Y-2476205D01*
X1092169Y-2479228D01*
X1100000Y-2480259D01*
X1107832Y-2479228D01*
X1115130Y-2476205D01*
X1121397Y-2471396D01*
X1126205Y-2465129D01*
X1129228Y-2457831D01*
X1130259Y-2450000D01*
X1129228Y-2442168D01*
X1126205Y-2434870D01*
X1121397Y-2428604D01*
X1115130Y-2423795D01*
X1107832Y-2420772D01*
X1100000Y-2419741D01*
X1099929Y-2419750D01*
X1099556Y-2419192D01*
X1048633Y-2368269D01*
X1047897Y-2364569D01*
X1044834Y-2359985D01*
X1047232Y-2355573D01*
X1048054Y-2354582D01*
X1133597D01*
X1166804Y-2387789D01*
Y-2434550D01*
X1195849D01*
X1257249Y-2495950D01*
X1260557Y-2498160D01*
X1264458Y-2498936D01*
X1761757D01*
X1765659Y-2498160D01*
X1768967Y-2495950D01*
X1947210Y-2317707D01*
X1949420Y-2314399D01*
X1950196Y-2310497D01*
Y-1840000D01*
X1949420Y-1836098D01*
X1947210Y-1832790D01*
X1931011Y-1816592D01*
X1934099Y-1809137D01*
X1935302Y-1800000D01*
X1934099Y-1790863D01*
X1930572Y-1782349D01*
X1924962Y-1775038D01*
X1917651Y-1769428D01*
X1909137Y-1765901D01*
X1900000Y-1764698D01*
D02*
G37*
G36*
X0D02*
X-9137Y-1765901D01*
X-17651Y-1769428D01*
X-24962Y-1775038D01*
X-30572Y-1782349D01*
X-34099Y-1790863D01*
X-35302Y-1800000D01*
X-34099Y-1809137D01*
X-30572Y-1817651D01*
X-24962Y-1824962D01*
X-17651Y-1830572D01*
X-9137Y-1834099D01*
X0Y-1835302D01*
X9137Y-1834099D01*
X17651Y-1830572D01*
X24962Y-1824962D01*
X30572Y-1817651D01*
X34099Y-1809137D01*
X35302Y-1800000D01*
X34099Y-1790863D01*
X30572Y-1782349D01*
X24962Y-1775038D01*
X17651Y-1769428D01*
X9137Y-1765901D01*
X0Y-1764698D01*
D02*
G37*
G36*
X1282197Y-1801000D02*
X1260464D01*
Y-1831590D01*
X1282197D01*
Y-1801000D01*
D02*
G37*
G36*
X1250464D02*
X1228732D01*
Y-1831590D01*
X1250464D01*
Y-1801000D01*
D02*
G37*
G36*
X591016Y-2108960D02*
X575780D01*
Y-2124196D01*
X591016D01*
Y-2108960D01*
D02*
G37*
G36*
X1800000Y-2064698D02*
X1790863Y-2065901D01*
X1782349Y-2069428D01*
X1775038Y-2075038D01*
X1769428Y-2082349D01*
X1765901Y-2090863D01*
X1764698Y-2100000D01*
X1765901Y-2109137D01*
X1769428Y-2117651D01*
X1775038Y-2124962D01*
X1782349Y-2130572D01*
X1790863Y-2134099D01*
X1800000Y-2135302D01*
X1809137Y-2134099D01*
X1817651Y-2130572D01*
X1824962Y-2124962D01*
X1830572Y-2117651D01*
X1834099Y-2109137D01*
X1835302Y-2100000D01*
X1834099Y-2090863D01*
X1830572Y-2082349D01*
X1824962Y-2075038D01*
X1817651Y-2069428D01*
X1809137Y-2065901D01*
X1800000Y-2064698D01*
D02*
G37*
G36*
X-105000Y-2060313D02*
X-110442Y-2061030D01*
X-120173Y-2065060D01*
X-128528Y-2071472D01*
X-134940Y-2079827D01*
X-138970Y-2089558D01*
X-139687Y-2095000D01*
X-105000D01*
Y-2060313D01*
D02*
G37*
G36*
X591016Y-2083724D02*
X575780D01*
Y-2098960D01*
X591016D01*
Y-2083724D01*
D02*
G37*
G36*
X-5000Y-2105000D02*
X-39687D01*
X-38971Y-2110442D01*
X-34940Y-2120173D01*
X-28528Y-2128528D01*
X-20173Y-2134940D01*
X-10442Y-2138970D01*
X-5000Y-2139687D01*
Y-2105000D01*
D02*
G37*
G36*
X-105000D02*
X-139687D01*
X-138970Y-2110442D01*
X-134940Y-2120173D01*
X-128528Y-2128528D01*
X-120173Y-2134940D01*
X-110442Y-2138970D01*
X-105000Y-2139687D01*
Y-2105000D01*
D02*
G37*
G36*
X39687D02*
X5000D01*
Y-2139687D01*
X10442Y-2138970D01*
X20173Y-2134940D01*
X28528Y-2128528D01*
X34940Y-2120173D01*
X38971Y-2110442D01*
X39687Y-2105000D01*
D02*
G37*
G36*
X-60313D02*
X-95000D01*
Y-2139687D01*
X-89558Y-2138970D01*
X-79827Y-2134940D01*
X-71472Y-2128528D01*
X-65060Y-2120173D01*
X-61029Y-2110442D01*
X-60313Y-2105000D01*
D02*
G37*
G36*
X1800000Y-1964698D02*
X1790863Y-1965901D01*
X1782349Y-1969428D01*
X1775038Y-1975038D01*
X1769428Y-1982349D01*
X1765901Y-1990863D01*
X1764698Y-2000000D01*
X1765901Y-2009137D01*
X1769428Y-2017651D01*
X1775038Y-2024962D01*
X1782349Y-2030572D01*
X1790863Y-2034099D01*
X1800000Y-2035302D01*
X1809137Y-2034099D01*
X1817651Y-2030572D01*
X1824962Y-2024962D01*
X1830572Y-2017651D01*
X1834099Y-2009137D01*
X1835302Y-2000000D01*
X1834099Y-1990863D01*
X1830572Y-1982349D01*
X1824962Y-1975038D01*
X1817651Y-1969428D01*
X1809137Y-1965901D01*
X1800000Y-1964698D01*
D02*
G37*
G36*
X0D02*
X-9137Y-1965901D01*
X-17651Y-1969428D01*
X-24962Y-1975038D01*
X-30572Y-1982349D01*
X-34099Y-1990863D01*
X-35302Y-2000000D01*
X-34099Y-2009137D01*
X-30572Y-2017651D01*
X-24962Y-2024962D01*
X-17651Y-2030572D01*
X-9137Y-2034099D01*
X0Y-2035302D01*
X9137Y-2034099D01*
X17651Y-2030572D01*
X24962Y-2024962D01*
X30572Y-2017651D01*
X34099Y-2009137D01*
X35302Y-2000000D01*
X34099Y-1990863D01*
X30572Y-1982349D01*
X24962Y-1975038D01*
X17651Y-1969428D01*
X9137Y-1965901D01*
X0Y-1964698D01*
D02*
G37*
G36*
Y-1864698D02*
X-9137Y-1865901D01*
X-17651Y-1869428D01*
X-24962Y-1875038D01*
X-30572Y-1882349D01*
X-34099Y-1890863D01*
X-35302Y-1900000D01*
X-34099Y-1909137D01*
X-30572Y-1917651D01*
X-24962Y-1924962D01*
X-17651Y-1930572D01*
X-9137Y-1934099D01*
X0Y-1935302D01*
X9137Y-1934099D01*
X17651Y-1930572D01*
X24962Y-1924962D01*
X30572Y-1917651D01*
X34099Y-1909137D01*
X35302Y-1900000D01*
X34099Y-1890863D01*
X30572Y-1882349D01*
X24962Y-1875038D01*
X17651Y-1869428D01*
X9137Y-1865901D01*
X0Y-1864698D01*
D02*
G37*
G36*
X-100000D02*
X-109137Y-1865901D01*
X-117651Y-1869428D01*
X-124962Y-1875038D01*
X-130572Y-1882349D01*
X-134099Y-1890863D01*
X-135302Y-1900000D01*
X-134099Y-1909137D01*
X-130572Y-1917651D01*
X-124962Y-1924962D01*
X-117651Y-1930572D01*
X-109137Y-1934099D01*
X-100000Y-1935302D01*
X-90863Y-1934099D01*
X-82349Y-1930572D01*
X-75038Y-1924962D01*
X-69428Y-1917651D01*
X-65901Y-1909137D01*
X-64698Y-1900000D01*
X-65901Y-1890863D01*
X-69428Y-1882349D01*
X-75038Y-1875038D01*
X-82349Y-1869428D01*
X-90863Y-1865901D01*
X-100000Y-1864698D01*
D02*
G37*
G36*
X-95000Y-2060313D02*
Y-2095000D01*
X-60313D01*
X-61029Y-2089558D01*
X-65060Y-2079827D01*
X-71472Y-2071472D01*
X-79827Y-2065060D01*
X-89558Y-2061030D01*
X-95000Y-2060313D01*
D02*
G37*
G36*
X-5000Y-2060313D02*
X-10442Y-2061030D01*
X-20173Y-2065060D01*
X-28528Y-2071472D01*
X-34940Y-2079827D01*
X-38971Y-2089558D01*
X-39687Y-2095000D01*
X-5000D01*
Y-2060313D01*
D02*
G37*
G36*
X-100000Y-1964698D02*
X-109137Y-1965901D01*
X-117651Y-1969428D01*
X-124962Y-1975038D01*
X-130572Y-1982349D01*
X-134099Y-1990863D01*
X-135302Y-2000000D01*
X-134099Y-2009137D01*
X-130572Y-2017651D01*
X-124962Y-2024962D01*
X-117651Y-2030572D01*
X-109137Y-2034099D01*
X-100000Y-2035302D01*
X-90863Y-2034099D01*
X-82349Y-2030572D01*
X-75038Y-2024962D01*
X-69428Y-2017651D01*
X-65901Y-2009137D01*
X-64698Y-2000000D01*
X-65901Y-1990863D01*
X-69428Y-1982349D01*
X-75038Y-1975038D01*
X-82349Y-1969428D01*
X-90863Y-1965901D01*
X-100000Y-1964698D01*
D02*
G37*
G36*
X5000Y-2060313D02*
Y-2095000D01*
X39687D01*
X38971Y-2089558D01*
X34940Y-2079827D01*
X28528Y-2071472D01*
X20173Y-2065060D01*
X10442Y-2061030D01*
X5000Y-2060313D01*
D02*
G37*
G36*
X318543Y-702796D02*
X285000D01*
Y-730434D01*
X318543D01*
Y-702796D01*
D02*
G37*
G36*
X1340000Y370259D02*
X1332168Y369228D01*
X1324871Y366205D01*
X1318604Y361396D01*
X1313795Y355129D01*
X1310772Y347832D01*
X1309741Y340000D01*
X1310772Y332168D01*
X1313795Y324871D01*
X1318604Y318604D01*
X1318713Y316943D01*
X1286745Y284975D01*
X1280308Y285609D01*
X1278666Y288067D01*
X1272753Y292017D01*
X1265779Y293404D01*
X1252077D01*
Y275180D01*
X1247077D01*
Y270180D01*
X1211148D01*
X1211540Y268206D01*
X1215491Y262294D01*
X1215697Y262156D01*
X1216786Y255415D01*
X1216250Y254613D01*
X1215251Y249590D01*
X1216250Y244567D01*
X1213552Y239606D01*
X1185197D01*
Y280591D01*
X1141733D01*
Y219410D01*
X1174212D01*
X1175197Y219214D01*
X1216203D01*
X1216250Y218977D01*
X1219096Y214719D01*
X1217313Y210007D01*
X1216195Y208606D01*
X1185197D01*
Y210590D01*
X1141733D01*
Y149409D01*
X1180552D01*
X1183478Y149409D01*
X1185798Y144658D01*
X1089926Y48786D01*
X1013543D01*
Y54417D01*
X948425D01*
Y22764D01*
X952481D01*
Y-3417D01*
X929213D01*
Y-64598D01*
X930449D01*
X932363Y-69218D01*
X870678Y-130902D01*
X870391Y-130682D01*
X860555Y-126608D01*
X850000Y-125218D01*
X839445Y-126608D01*
X829609Y-130682D01*
X821163Y-137163D01*
X814682Y-145609D01*
X810608Y-155445D01*
X809218Y-166000D01*
X810608Y-176555D01*
X814682Y-186391D01*
X821163Y-194837D01*
X829609Y-201318D01*
X839445Y-205392D01*
X850000Y-206782D01*
X860555Y-205392D01*
X870391Y-201318D01*
X878837Y-194837D01*
X885318Y-186391D01*
X889392Y-176555D01*
X890782Y-166000D01*
X889392Y-155445D01*
X885318Y-145609D01*
X885098Y-145322D01*
X950625Y-79794D01*
X1018401D01*
X1020314Y-84414D01*
X972459Y-132269D01*
X970391Y-130682D01*
X960555Y-126608D01*
X950000Y-125218D01*
X939445Y-126608D01*
X929609Y-130682D01*
X921163Y-137163D01*
X914682Y-145609D01*
X910608Y-155445D01*
X909218Y-166000D01*
X910608Y-176555D01*
X914682Y-186391D01*
X921163Y-194837D01*
X929609Y-201318D01*
X939445Y-205392D01*
X950000Y-206782D01*
X960555Y-205392D01*
X970391Y-201318D01*
X978837Y-194837D01*
X985318Y-186391D01*
X989392Y-176555D01*
X990782Y-166000D01*
X989392Y-155445D01*
X986091Y-147475D01*
X1102839Y-30728D01*
X1164320D01*
X1166234Y-35347D01*
X1070678Y-130902D01*
X1070391Y-130682D01*
X1060555Y-126608D01*
X1050000Y-125218D01*
X1039445Y-126608D01*
X1029609Y-130682D01*
X1021163Y-137163D01*
X1014682Y-145609D01*
X1010608Y-155445D01*
X1009218Y-166000D01*
X1010608Y-176555D01*
X1014682Y-186391D01*
X1021163Y-194837D01*
X1029609Y-201318D01*
X1039445Y-205392D01*
X1050000Y-206782D01*
X1060555Y-205392D01*
X1070391Y-201318D01*
X1078837Y-194837D01*
X1085318Y-186391D01*
X1089392Y-176555D01*
X1090782Y-166000D01*
X1089392Y-155445D01*
X1085318Y-145609D01*
X1085098Y-145322D01*
X1182705Y-47714D01*
X1323257D01*
X1325171Y-52333D01*
X1221700Y-155804D01*
X1189440D01*
X1189392Y-155445D01*
X1185318Y-145609D01*
X1178837Y-137163D01*
X1170391Y-130682D01*
X1160555Y-126608D01*
X1150000Y-125218D01*
X1139445Y-126608D01*
X1129609Y-130682D01*
X1121163Y-137163D01*
X1114682Y-145609D01*
X1110608Y-155445D01*
X1109218Y-166000D01*
X1110608Y-176555D01*
X1114682Y-186391D01*
X1121163Y-194837D01*
X1129609Y-201318D01*
X1139445Y-205392D01*
X1150000Y-206782D01*
X1160555Y-205392D01*
X1170391Y-201318D01*
X1178837Y-194837D01*
X1185318Y-186391D01*
X1189392Y-176555D01*
X1189440Y-176196D01*
X1225923D01*
X1229825Y-175420D01*
X1233133Y-173210D01*
X1499997Y93654D01*
X1502207Y96962D01*
X1502983Y100864D01*
Y227306D01*
X1502207Y231208D01*
X1499997Y234516D01*
X1457718Y276794D01*
X1457040Y280203D01*
X1454195Y284462D01*
X1449936Y287307D01*
X1444913Y288306D01*
X1407511D01*
X1402488Y287307D01*
X1398230Y284462D01*
X1395384Y280203D01*
X1394385Y275180D01*
X1395384Y270157D01*
X1398230Y265899D01*
X1398988Y265392D01*
Y259378D01*
X1398230Y258872D01*
X1395384Y254613D01*
X1394385Y249590D01*
X1395384Y244567D01*
X1398230Y240309D01*
X1398988Y239802D01*
Y233788D01*
X1398230Y233282D01*
X1395384Y229023D01*
X1394385Y224000D01*
X1395384Y218977D01*
X1398230Y214719D01*
X1398988Y214212D01*
Y208198D01*
X1398230Y207692D01*
X1395384Y203433D01*
X1394706Y200024D01*
X1226356Y31674D01*
X1119412D01*
X1115511Y30898D01*
X1112203Y28688D01*
X1024112Y-59403D01*
X972677D01*
Y-23261D01*
X972873Y-22276D01*
Y22764D01*
X1013543D01*
Y28395D01*
X1094150D01*
X1098052Y29171D01*
X1101359Y31381D01*
X1229670Y159692D01*
X1265779D01*
X1270802Y160691D01*
X1275061Y163537D01*
X1277906Y167795D01*
X1278905Y172818D01*
X1277906Y177841D01*
X1275061Y182100D01*
X1274301Y182607D01*
Y188621D01*
X1275061Y189129D01*
X1277906Y193387D01*
X1278905Y198410D01*
X1277906Y203433D01*
X1275061Y207692D01*
X1274302Y208198D01*
Y214212D01*
X1275061Y214719D01*
X1277906Y218977D01*
X1278905Y224000D01*
X1277906Y229023D01*
X1275061Y233282D01*
X1274302Y233788D01*
Y239802D01*
X1275061Y240309D01*
X1277906Y244567D01*
X1278584Y247976D01*
X1339556Y308948D01*
X1340094Y309753D01*
X1347832Y310772D01*
X1355129Y313795D01*
X1361396Y318604D01*
X1366205Y324871D01*
X1369228Y332168D01*
X1370259Y340000D01*
X1369228Y347832D01*
X1366205Y355129D01*
X1361396Y361396D01*
X1355129Y366205D01*
X1347832Y369228D01*
X1340000Y370259D01*
D02*
G37*
G36*
X1242077Y293404D02*
X1228377D01*
X1221403Y292017D01*
X1215491Y288067D01*
X1211540Y282154D01*
X1211148Y280180D01*
X1242077D01*
Y293404D01*
D02*
G37*
G36*
X582100Y477010D02*
X548100D01*
Y388270D01*
X582100D01*
Y477010D01*
D02*
G37*
G36*
X542700D02*
X508700D01*
Y388270D01*
X542700D01*
Y477010D01*
D02*
G37*
G36*
X1118267Y280591D02*
X1074803D01*
Y233829D01*
X1070705Y229731D01*
X930551D01*
X929566Y229536D01*
X885275D01*
Y162449D01*
X920355D01*
Y109693D01*
X921131Y105791D01*
X923341Y102483D01*
X948425Y77400D01*
Y60165D01*
X1013543D01*
Y70796D01*
X1049846D01*
X1054604Y64596D01*
X1060871Y59787D01*
X1068169Y56764D01*
X1076000Y55733D01*
X1083832Y56764D01*
X1091130Y59787D01*
X1097397Y64596D01*
X1102205Y70863D01*
X1105228Y78160D01*
X1106259Y85992D01*
X1105228Y93824D01*
X1102205Y101122D01*
X1097397Y107388D01*
X1091130Y112197D01*
X1083832Y115220D01*
X1076000Y116251D01*
X1068169Y115220D01*
X1060871Y112197D01*
X1054604Y107388D01*
X1049795Y101122D01*
X1046772Y93824D01*
X1046425Y91188D01*
X1022972D01*
X1018543Y92567D01*
Y108393D01*
X980984D01*
Y113393D01*
X975984D01*
Y134220D01*
X943425D01*
X940747Y138111D01*
Y178354D01*
X940551Y179339D01*
Y209340D01*
X1069803D01*
Y185000D01*
X1096535D01*
X1123267D01*
Y215590D01*
X1121117D01*
X1118267Y219410D01*
Y280591D01*
D02*
G37*
G36*
X874685Y190992D02*
X847047D01*
Y157449D01*
X874685D01*
Y190992D01*
D02*
G37*
G36*
Y234536D02*
X847047D01*
Y200992D01*
X874685D01*
Y234536D01*
D02*
G37*
G36*
X837047D02*
X809409D01*
Y200992D01*
X837047D01*
Y234536D01*
D02*
G37*
G36*
X818500Y477010D02*
X784500D01*
Y388270D01*
X818500D01*
Y477010D01*
D02*
G37*
G36*
X779100D02*
X745100D01*
Y388270D01*
X779100D01*
Y477010D01*
D02*
G37*
G36*
X897300D02*
X863300D01*
Y388270D01*
X897300D01*
Y477010D01*
D02*
G37*
G36*
X857900D02*
X823900D01*
Y388270D01*
X857900D01*
Y477010D01*
D02*
G37*
G36*
X660900D02*
X626900D01*
Y388270D01*
X660900D01*
Y477010D01*
D02*
G37*
G36*
X621500D02*
X587500D01*
Y388270D01*
X621500D01*
Y477010D01*
D02*
G37*
G36*
X739700D02*
X705700D01*
Y388270D01*
X739700D01*
Y477010D01*
D02*
G37*
G36*
X700300D02*
X666300D01*
Y388270D01*
X700300D01*
Y477010D01*
D02*
G37*
G36*
X837047Y190992D02*
X809409D01*
Y157449D01*
X837047D01*
Y190992D01*
D02*
G37*
G36*
X894528Y70992D02*
X856968D01*
X819409D01*
Y55165D01*
X819719D01*
X820118Y55102D01*
X821850Y49762D01*
X820874Y48786D01*
X784414D01*
X780513Y48010D01*
X779861Y47575D01*
X775129Y51205D01*
X767832Y54228D01*
X760000Y55259D01*
X752168Y54228D01*
X744871Y51205D01*
X738604Y46396D01*
X733795Y40129D01*
X730772Y32832D01*
X729741Y25000D01*
X730772Y17168D01*
X733795Y9871D01*
X738604Y3604D01*
X744871Y-1205D01*
X752168Y-4228D01*
X760000Y-5259D01*
X767832Y-4228D01*
X775129Y-1205D01*
X781396Y3604D01*
X786205Y9871D01*
X789228Y17168D01*
X790259Y25000D01*
X793236Y28395D01*
X824409D01*
Y22764D01*
X846773D01*
Y-6961D01*
X847549Y-10862D01*
X849759Y-14170D01*
X862284Y-26695D01*
Y-64598D01*
X905748D01*
Y-3417D01*
X867845D01*
X867164Y-2737D01*
Y22764D01*
X889528D01*
X889528Y54417D01*
X894218Y55165D01*
X894528D01*
Y70992D01*
D02*
G37*
G36*
X1905000Y39687D02*
Y5000D01*
X1939687D01*
X1938970Y10442D01*
X1934940Y20173D01*
X1928528Y28528D01*
X1920173Y34940D01*
X1910442Y38971D01*
X1905000Y39687D01*
D02*
G37*
G36*
X740748Y110992D02*
X719015D01*
Y80402D01*
X740748D01*
Y110992D01*
D02*
G37*
G36*
X709015D02*
X687283D01*
Y80402D01*
X709015D01*
Y110992D01*
D02*
G37*
G36*
X-95000Y39687D02*
Y5000D01*
X-60313D01*
X-61029Y10442D01*
X-65060Y20173D01*
X-71472Y28528D01*
X-79827Y34940D01*
X-89558Y38971D01*
X-95000Y39687D01*
D02*
G37*
G36*
X1895000Y39687D02*
X1889558Y38971D01*
X1879827Y34940D01*
X1871472Y28528D01*
X1865060Y20173D01*
X1861030Y10442D01*
X1860313Y5000D01*
X1895000D01*
Y39687D01*
D02*
G37*
G36*
X1805000Y39687D02*
Y5000D01*
X1839687D01*
X1838970Y10442D01*
X1834940Y20173D01*
X1828528Y28528D01*
X1820173Y34940D01*
X1810442Y38971D01*
X1805000Y39687D01*
D02*
G37*
G36*
X5000D02*
Y5000D01*
X39687D01*
X38971Y10442D01*
X34940Y20173D01*
X28528Y28528D01*
X20173Y34940D01*
X10442Y38971D01*
X5000Y39687D01*
D02*
G37*
G36*
X740748Y151583D02*
X719015D01*
Y120992D01*
X740748D01*
Y151583D01*
D02*
G37*
G36*
X709015D02*
X687283D01*
Y120992D01*
X709015D01*
Y151583D01*
D02*
G37*
G36*
X1123267Y175000D02*
X1101535D01*
Y144409D01*
X1123267D01*
Y175000D01*
D02*
G37*
G36*
X1091535D02*
X1069803D01*
Y144409D01*
X1091535D01*
Y175000D01*
D02*
G37*
G36*
X-50000Y284145D02*
X-66416Y282529D01*
X-82201Y277740D01*
X-96749Y269964D01*
X-109500Y259500D01*
X-119964Y246749D01*
X-127740Y232201D01*
X-132529Y216416D01*
X-134145Y200000D01*
X-132529Y183584D01*
X-127740Y167799D01*
X-119964Y153251D01*
X-109500Y140500D01*
X-96749Y130036D01*
X-82201Y122260D01*
X-66416Y117472D01*
X-50000Y115855D01*
X-33584Y117472D01*
X-17799Y122260D01*
X-3251Y130036D01*
X9500Y140500D01*
X19964Y153251D01*
X27740Y167799D01*
X32529Y183584D01*
X34145Y200000D01*
X32529Y216416D01*
X27740Y232201D01*
X19964Y246749D01*
X9500Y259500D01*
X-3251Y269964D01*
X-17799Y277740D01*
X-33584Y282529D01*
X-50000Y284145D01*
D02*
G37*
G36*
X802677Y146583D02*
X759212D01*
Y85402D01*
X802677D01*
Y103198D01*
X820874D01*
X821850Y102222D01*
X820118Y96882D01*
X819720Y96819D01*
X819409D01*
Y80992D01*
X856968D01*
X894528D01*
Y96819D01*
X894218D01*
X889528Y97567D01*
X889528Y101819D01*
Y129220D01*
X824409D01*
Y123590D01*
X802677D01*
Y146583D01*
D02*
G37*
G36*
X985984Y134220D02*
Y118393D01*
X1018543D01*
Y134220D01*
X985984D01*
D02*
G37*
G36*
X1850000Y284145D02*
X1833584Y282529D01*
X1817799Y277740D01*
X1803251Y269964D01*
X1790500Y259500D01*
X1780036Y246749D01*
X1772260Y232201D01*
X1767472Y216416D01*
X1765855Y200000D01*
X1767472Y183584D01*
X1772260Y167799D01*
X1780036Y153251D01*
X1790500Y140500D01*
X1803251Y130036D01*
X1817799Y122260D01*
X1833584Y117472D01*
X1850000Y115855D01*
X1866416Y117472D01*
X1882201Y122260D01*
X1896749Y130036D01*
X1909500Y140500D01*
X1919964Y153251D01*
X1927740Y167799D01*
X1932528Y183584D01*
X1934145Y200000D01*
X1932528Y216416D01*
X1927740Y232201D01*
X1919964Y246749D01*
X1909500Y259500D01*
X1896749Y269964D01*
X1882201Y277740D01*
X1866416Y282529D01*
X1850000Y284145D01*
D02*
G37*
G36*
X936700Y477010D02*
X902700D01*
Y388270D01*
X936700D01*
Y477010D01*
D02*
G37*
G36*
X940441Y944591D02*
X896976D01*
Y883410D01*
X920245D01*
Y843178D01*
X921021Y839276D01*
X923231Y835968D01*
X962850Y796350D01*
X960936Y791730D01*
X942488D01*
Y702990D01*
X976488D01*
Y770598D01*
X981488Y773270D01*
X981888Y773003D01*
Y702990D01*
X1015888D01*
Y791730D01*
X996307D01*
X940636Y847401D01*
Y902268D01*
X940441Y903253D01*
Y944591D01*
D02*
G37*
G36*
X858288Y791730D02*
X824288D01*
Y702990D01*
X858288D01*
Y791730D01*
D02*
G37*
G36*
X1094688D02*
X1060688D01*
Y702990D01*
X1094688D01*
Y791730D01*
D02*
G37*
G36*
X1110440Y944591D02*
X1066976D01*
Y897829D01*
X1031079Y861932D01*
X1028868Y858624D01*
X1028092Y854722D01*
Y791730D01*
X1021288D01*
Y702990D01*
X1055288D01*
Y791730D01*
X1048484D01*
Y850499D01*
X1081395Y883410D01*
X1110440D01*
Y944591D01*
D02*
G37*
G36*
X740088Y791730D02*
X706088D01*
Y702990D01*
X740088D01*
Y791730D01*
D02*
G37*
G36*
X700688D02*
X666688D01*
Y702990D01*
X700688D01*
Y791730D01*
D02*
G37*
G36*
X818888D02*
X784888D01*
Y702990D01*
X818888D01*
Y791730D01*
D02*
G37*
G36*
X779488D02*
X745488D01*
Y702990D01*
X779488D01*
Y791730D01*
D02*
G37*
G36*
X693748Y1066251D02*
X685917Y1065220D01*
X678619Y1062197D01*
X672352Y1057388D01*
X667543Y1051122D01*
X664520Y1043824D01*
X663490Y1035992D01*
X664520Y1028160D01*
X667543Y1020863D01*
X672352Y1014596D01*
X678619Y1009787D01*
X683553Y1007744D01*
Y944591D01*
X670048D01*
Y883410D01*
X713513D01*
Y944591D01*
X703944D01*
Y1007744D01*
X708878Y1009787D01*
X715145Y1014596D01*
X719953Y1020863D01*
X722976Y1028160D01*
X724007Y1035992D01*
X722976Y1043824D01*
X719953Y1051122D01*
X715145Y1057388D01*
X708878Y1062197D01*
X701580Y1065220D01*
X693748Y1066251D01*
D02*
G37*
G36*
X631000Y1109259D02*
X623169Y1108228D01*
X615871Y1105205D01*
X609604Y1100397D01*
X604795Y1094130D01*
X601772Y1086832D01*
X600741Y1079000D01*
X601772Y1071169D01*
X604795Y1063871D01*
X609604Y1057604D01*
X615871Y1052795D01*
X623169Y1049772D01*
X631000Y1048741D01*
X632277Y1048909D01*
X636036Y1045613D01*
Y791730D01*
X627288D01*
Y757556D01*
X621888D01*
Y791730D01*
X587888Y791730D01*
X587488Y796564D01*
Y796730D01*
X570488D01*
Y747359D01*
Y697990D01*
X587488D01*
Y698156D01*
X587776Y701631D01*
X592852Y702350D01*
X595748Y699455D01*
Y664811D01*
X591871Y663205D01*
X585604Y658396D01*
X580795Y652130D01*
X577772Y644832D01*
X576741Y637000D01*
X577772Y629169D01*
X580795Y621871D01*
X585604Y615604D01*
X591871Y610795D01*
X599169Y607772D01*
X607000Y606741D01*
X614832Y607772D01*
X622130Y610795D01*
X628396Y615604D01*
X633205Y621871D01*
X636228Y629169D01*
X637259Y637000D01*
X636228Y644832D01*
X633205Y652130D01*
X628396Y658396D01*
X622130Y663205D01*
X616140Y665686D01*
Y702990D01*
X621888D01*
Y737164D01*
X627288D01*
Y702990D01*
X661288D01*
Y791730D01*
X656428D01*
Y1062858D01*
X657205Y1063871D01*
X660228Y1071169D01*
X661259Y1079000D01*
X660228Y1086832D01*
X657205Y1094130D01*
X652396Y1100397D01*
X646130Y1105205D01*
X638832Y1108228D01*
X631000Y1109259D01*
D02*
G37*
G36*
X854804Y1064259D02*
X846972Y1063228D01*
X839674Y1060205D01*
X833408Y1055397D01*
X828599Y1049130D01*
X825576Y1041832D01*
X824545Y1034000D01*
X825576Y1026169D01*
X828599Y1018871D01*
X833408Y1012604D01*
X839674Y1007795D01*
X844608Y1005752D01*
Y944591D01*
X830048D01*
X830048Y887229D01*
Y887091D01*
D01*
X830048Y886261D01*
X828630Y885674D01*
X825048Y884190D01*
X808618Y900619D01*
X805311Y902830D01*
X801409Y903606D01*
X780441D01*
Y944591D01*
X736976D01*
Y883410D01*
X769456D01*
X770441Y883214D01*
X797186D01*
X884050Y796350D01*
X882136Y791730D01*
X863688D01*
Y702990D01*
X897688D01*
Y770598D01*
X902688Y773270D01*
X903088Y773003D01*
Y702990D01*
X937088D01*
Y791730D01*
X917507D01*
X830828Y878410D01*
X832899Y883409D01*
X833729Y883410D01*
X833730Y883410D01*
X833867Y883410D01*
X873513D01*
Y944591D01*
X865000D01*
Y1005752D01*
X869933Y1007795D01*
X876200Y1012604D01*
X881009Y1018871D01*
X884032Y1026169D01*
X885063Y1034000D01*
X884032Y1041832D01*
X881009Y1049130D01*
X876200Y1055397D01*
X869933Y1060205D01*
X862635Y1063228D01*
X854804Y1064259D01*
D02*
G37*
G36*
X1027480Y1066251D02*
X1019649Y1065220D01*
X1012351Y1062197D01*
X1006084Y1057388D01*
X1001275Y1051122D01*
X998252Y1043824D01*
X997221Y1035992D01*
X998252Y1028160D01*
X1001275Y1020863D01*
X1006084Y1014596D01*
X1012351Y1009787D01*
X1017284Y1007744D01*
Y944591D01*
X1000048D01*
Y883410D01*
X1043513D01*
Y944591D01*
X1037676D01*
Y1007744D01*
X1042610Y1009787D01*
X1048877Y1014596D01*
X1053685Y1020863D01*
X1056708Y1028160D01*
X1057739Y1035992D01*
X1056708Y1043824D01*
X1053685Y1051122D01*
X1048877Y1057388D01*
X1042610Y1062197D01*
X1035312Y1065220D01*
X1027480Y1066251D01*
D02*
G37*
G36*
X1252288Y791730D02*
X1218288D01*
Y702990D01*
X1252288D01*
Y791730D01*
D02*
G37*
G36*
X1173488D02*
X1139488D01*
Y702990D01*
X1173488D01*
Y791730D01*
D02*
G37*
G36*
X521088Y796730D02*
X504088D01*
Y752359D01*
X521088D01*
Y796730D01*
D02*
G37*
G36*
X1291688Y791730D02*
X1257688D01*
Y702990D01*
X1291688D01*
Y791730D01*
D02*
G37*
G36*
X560488Y796730D02*
X531088D01*
Y747359D01*
Y697990D01*
X560488D01*
Y747359D01*
Y796730D01*
D02*
G37*
G36*
X1173100Y477010D02*
X1139100D01*
Y388270D01*
X1173100D01*
Y477010D01*
D02*
G37*
G36*
X1133700D02*
X1099700D01*
Y388270D01*
X1133700D01*
Y477010D01*
D02*
G37*
G36*
X1251900D02*
X1217900D01*
Y388270D01*
X1251900D01*
Y477010D01*
D02*
G37*
G36*
X1212500D02*
X1178500D01*
Y388270D01*
X1212500D01*
Y477010D01*
D02*
G37*
G36*
X1015500D02*
X981500D01*
Y388270D01*
X1015500D01*
Y477010D01*
D02*
G37*
G36*
X976100D02*
X942100D01*
Y388270D01*
X976100D01*
Y477010D01*
D02*
G37*
G36*
X1094300D02*
X1060300D01*
Y388270D01*
X1094300D01*
Y477010D01*
D02*
G37*
G36*
X1054900D02*
X1020900D01*
Y388270D01*
X1054900D01*
Y477010D01*
D02*
G37*
G36*
X525700Y618746D02*
X518260Y617767D01*
X511327Y614895D01*
X505374Y610327D01*
X500805Y604373D01*
X497934Y597440D01*
X496954Y590000D01*
X497934Y582560D01*
X500805Y575627D01*
X505374Y569674D01*
X511327Y565106D01*
X518260Y562234D01*
X525700Y561254D01*
X533140Y562234D01*
X540073Y565106D01*
X546027Y569674D01*
X550595Y575627D01*
X553467Y582560D01*
X554446Y590000D01*
X553467Y597440D01*
X550595Y604373D01*
X546027Y610327D01*
X540073Y614895D01*
X533140Y617767D01*
X525700Y618746D01*
D02*
G37*
G36*
X1274300Y617146D02*
X1266860Y616167D01*
X1259927Y613295D01*
X1253974Y608727D01*
X1249406Y602773D01*
X1246534Y595840D01*
X1245554Y588400D01*
X1246534Y580960D01*
X1249406Y574027D01*
X1253974Y568074D01*
X1259927Y563505D01*
X1266860Y560634D01*
X1274300Y559654D01*
X1281740Y560634D01*
X1288673Y563505D01*
X1294627Y568074D01*
X1299195Y574027D01*
X1302067Y580960D01*
X1303046Y588400D01*
X1302067Y595840D01*
X1299195Y602773D01*
X1294627Y608727D01*
X1288673Y613295D01*
X1281740Y616167D01*
X1274300Y617146D01*
D02*
G37*
G36*
X521088Y742359D02*
X504088D01*
Y697990D01*
X521088D01*
Y742359D01*
D02*
G37*
G36*
X1212888Y791730D02*
X1178888D01*
Y702990D01*
X1187748D01*
Y687397D01*
X1184871Y686205D01*
X1178604Y681396D01*
X1173795Y675130D01*
X1170772Y667832D01*
X1169741Y660000D01*
X1170772Y652169D01*
X1173795Y644871D01*
X1178604Y638604D01*
X1184871Y633795D01*
X1192169Y630772D01*
X1200000Y629741D01*
X1207832Y630772D01*
X1215130Y633795D01*
X1221397Y638604D01*
X1226205Y644871D01*
X1229228Y652169D01*
X1230259Y660000D01*
X1229228Y667832D01*
X1226205Y675130D01*
X1221397Y681396D01*
X1215130Y686205D01*
X1208140Y689100D01*
Y702990D01*
X1212888D01*
Y791730D01*
D02*
G37*
G36*
X363800Y645475D02*
X349442Y643585D01*
X336063Y638043D01*
X324574Y629227D01*
X315758Y617737D01*
X310216Y604358D01*
X308326Y590000D01*
X310216Y575642D01*
X315758Y562263D01*
X324574Y550774D01*
X336063Y541958D01*
X349442Y536416D01*
X363800Y534526D01*
X378158Y536416D01*
X391538Y541958D01*
X403027Y550774D01*
X411843Y562263D01*
X417385Y575642D01*
X419275Y590000D01*
X417385Y604358D01*
X411843Y617737D01*
X403027Y629227D01*
X391538Y638043D01*
X378158Y643585D01*
X363800Y645475D01*
D02*
G37*
G36*
X1303180Y560259D02*
X1295349Y559228D01*
X1288051Y556205D01*
X1281784Y551396D01*
X1276975Y545130D01*
X1273952Y537832D01*
X1272921Y530000D01*
X1273952Y522169D01*
X1275996Y517235D01*
X1267091Y508330D01*
X1264880Y505022D01*
X1264104Y501120D01*
Y477010D01*
X1257300D01*
Y388270D01*
X1291300D01*
Y477010D01*
X1284496D01*
Y496897D01*
X1290415Y502816D01*
X1295349Y500772D01*
X1303180Y499741D01*
X1311012Y500772D01*
X1318310Y503795D01*
X1324576Y508604D01*
X1329385Y514871D01*
X1332408Y522169D01*
X1333439Y530000D01*
X1332408Y537832D01*
X1329385Y545130D01*
X1324576Y551396D01*
X1318310Y556205D01*
X1311012Y559228D01*
X1303180Y560259D01*
D02*
G37*
G36*
X1134088Y791730D02*
X1100088D01*
Y702990D01*
X1106892D01*
Y661312D01*
X1002765Y557184D01*
X997832Y559228D01*
X990000Y560259D01*
X982169Y559228D01*
X974871Y556205D01*
X968604Y551396D01*
X963795Y545130D01*
X960772Y537832D01*
X959741Y530000D01*
X960772Y522169D01*
X963795Y514871D01*
X968604Y508604D01*
X974871Y503795D01*
X982169Y500772D01*
X990000Y499741D01*
X997832Y500772D01*
X1005130Y503795D01*
X1011396Y508604D01*
X1016205Y514871D01*
X1019228Y522169D01*
X1020259Y530000D01*
X1019228Y537832D01*
X1017184Y542765D01*
X1124298Y649879D01*
X1126508Y653186D01*
X1127284Y657088D01*
Y702990D01*
X1134088D01*
Y791730D01*
D02*
G37*
G36*
X1436200Y645475D02*
X1421842Y643585D01*
X1408463Y638043D01*
X1396974Y629227D01*
X1388158Y617737D01*
X1382616Y604358D01*
X1380726Y590000D01*
X1382616Y575642D01*
X1388158Y562263D01*
X1396974Y550774D01*
X1408463Y541958D01*
X1421842Y536416D01*
X1436200Y534526D01*
X1450558Y536416D01*
X1463938Y541958D01*
X1475427Y550774D01*
X1484243Y562263D01*
X1489784Y575642D01*
X1491675Y590000D01*
X1489784Y604358D01*
X1484243Y617737D01*
X1475427Y629227D01*
X1463938Y638043D01*
X1450558Y643585D01*
X1436200Y645475D01*
D02*
G37*
G36*
X1795000Y39687D02*
X1789558Y38971D01*
X1779827Y34940D01*
X1771472Y28528D01*
X1765060Y20173D01*
X1761030Y10442D01*
X1760313Y5000D01*
X1795000D01*
Y39687D01*
D02*
G37*
G36*
X1900000Y-364698D02*
X1890863Y-365901D01*
X1882349Y-369428D01*
X1875038Y-375038D01*
X1869428Y-382349D01*
X1865901Y-390863D01*
X1864698Y-400000D01*
X1865901Y-409137D01*
X1869428Y-417651D01*
X1875038Y-424962D01*
X1882349Y-430572D01*
X1890863Y-434099D01*
X1900000Y-435302D01*
X1909137Y-434099D01*
X1917651Y-430572D01*
X1924962Y-424962D01*
X1930572Y-417651D01*
X1934099Y-409137D01*
X1935302Y-400000D01*
X1934099Y-390863D01*
X1930572Y-382349D01*
X1924962Y-375038D01*
X1917651Y-369428D01*
X1909137Y-365901D01*
X1900000Y-364698D01*
D02*
G37*
G36*
X798269Y-309409D02*
X754804D01*
Y-370590D01*
X773662D01*
Y-394484D01*
X765157D01*
X759750Y-395560D01*
X755166Y-398623D01*
X752103Y-403207D01*
X751028Y-408614D01*
X752103Y-414021D01*
X755166Y-418605D01*
X752768Y-423016D01*
X751946Y-424008D01*
X658133D01*
X620297Y-386171D01*
Y-339409D01*
X576832D01*
Y-400590D01*
X605877D01*
X646700Y-441413D01*
X650008Y-443624D01*
X653910Y-444400D01*
X748728D01*
X750230Y-447000D01*
X748728Y-449600D01*
X630571D01*
X619422Y-438451D01*
X616114Y-436241D01*
X612212Y-435465D01*
X464613D01*
X460711Y-436241D01*
X457403Y-438451D01*
X382925Y-512930D01*
X330257D01*
Y-526372D01*
X310591D01*
Y-506961D01*
X300196D01*
Y-483122D01*
X305130Y-481079D01*
X311397Y-476270D01*
X316205Y-470003D01*
X319228Y-462705D01*
X320259Y-454874D01*
X319228Y-447042D01*
X316205Y-439744D01*
X311397Y-433478D01*
X305130Y-428669D01*
X297832Y-425646D01*
X290000Y-424615D01*
X282169Y-425646D01*
X274871Y-428669D01*
X268604Y-433478D01*
X263795Y-439744D01*
X260772Y-447042D01*
X259741Y-454874D01*
X260772Y-462705D01*
X263795Y-470003D01*
X268604Y-476270D01*
X274871Y-481079D01*
X279804Y-483122D01*
Y-506961D01*
X249410D01*
Y-550426D01*
X310591D01*
Y-546764D01*
X330257D01*
Y-568205D01*
X397344D01*
Y-527349D01*
X468836Y-455856D01*
X486928D01*
Y-517747D01*
X527785D01*
X553815Y-543777D01*
X557123Y-545988D01*
X561025Y-546764D01*
X754252D01*
X755621Y-549963D01*
Y-551863D01*
X755166Y-552167D01*
X752103Y-556751D01*
X751368Y-560449D01*
X722013Y-589804D01*
X648249D01*
X646205Y-584870D01*
X641396Y-578604D01*
X635130Y-573795D01*
X627832Y-570772D01*
X620000Y-569741D01*
X612169Y-570772D01*
X604871Y-573795D01*
X598604Y-578604D01*
X593795Y-584870D01*
X590772Y-592168D01*
X589741Y-600000D01*
X590772Y-607831D01*
X593795Y-615129D01*
X598604Y-621396D01*
X604871Y-626205D01*
X612169Y-629228D01*
X620000Y-630259D01*
X627832Y-629228D01*
X635130Y-626205D01*
X641396Y-621396D01*
X646205Y-615129D01*
X648249Y-610196D01*
X726236D01*
X730138Y-609420D01*
X733445Y-607209D01*
X747411Y-593244D01*
X753092Y-594634D01*
X755166Y-597739D01*
X759750Y-600802D01*
X765157Y-601878D01*
X773662D01*
Y-626457D01*
X757794D01*
Y-693543D01*
X813070D01*
Y-626457D01*
X794054D01*
Y-601878D01*
X802559D01*
X807966Y-600802D01*
X812550Y-597739D01*
X815613Y-593155D01*
X816689Y-587748D01*
X816239Y-585486D01*
X819310Y-582010D01*
X819310Y-582010D01*
X820284Y-581016D01*
X820856Y-581016D01*
X895000D01*
Y-498182D01*
Y-415347D01*
X820861D01*
X820283Y-415347D01*
X819306Y-414350D01*
Y-414350D01*
X816240Y-410870D01*
X816689Y-408614D01*
X815613Y-403207D01*
X812550Y-398623D01*
X807966Y-395560D01*
X802559Y-394484D01*
X794054D01*
Y-370590D01*
X798269D01*
Y-309409D01*
D02*
G37*
G36*
X563542Y-283772D02*
X548306D01*
Y-288772D01*
X521810D01*
Y-319244D01*
X524056D01*
Y-339409D01*
X509904D01*
Y-400590D01*
X553369D01*
Y-339409D01*
X544448D01*
Y-327000D01*
X548307Y-324244D01*
X563542D01*
Y-304007D01*
Y-283772D01*
D02*
G37*
G36*
X1800000Y-364698D02*
X1790863Y-365901D01*
X1782349Y-369428D01*
X1775038Y-375038D01*
X1769428Y-382349D01*
X1765901Y-390863D01*
X1764698Y-400000D01*
X1765901Y-409137D01*
X1769428Y-417651D01*
X1775038Y-424962D01*
X1782349Y-430572D01*
X1790863Y-434099D01*
X1800000Y-435302D01*
X1809137Y-434099D01*
X1817651Y-430572D01*
X1824962Y-424962D01*
X1830572Y-417651D01*
X1834099Y-409137D01*
X1835302Y-400000D01*
X1834099Y-390863D01*
X1830572Y-382349D01*
X1824962Y-375038D01*
X1817651Y-369428D01*
X1809137Y-365901D01*
X1800000Y-364698D01*
D02*
G37*
G36*
X0Y-464698D02*
X-9137Y-465901D01*
X-17651Y-469428D01*
X-24962Y-475038D01*
X-30572Y-482349D01*
X-34099Y-490863D01*
X-35302Y-500000D01*
X-34099Y-509137D01*
X-30572Y-517651D01*
X-24962Y-524962D01*
X-17651Y-530572D01*
X-9137Y-534099D01*
X0Y-535302D01*
X9137Y-534099D01*
X17651Y-530572D01*
X24962Y-524962D01*
X30572Y-517651D01*
X34099Y-509137D01*
X35302Y-500000D01*
X34099Y-490863D01*
X30572Y-482349D01*
X24962Y-475038D01*
X17651Y-469428D01*
X9137Y-465901D01*
X0Y-464698D01*
D02*
G37*
G36*
X-100000Y-364698D02*
X-109137Y-365901D01*
X-117651Y-369428D01*
X-124962Y-375038D01*
X-130572Y-382349D01*
X-134099Y-390863D01*
X-135302Y-400000D01*
X-134099Y-409137D01*
X-130572Y-417651D01*
X-124962Y-424962D01*
X-117651Y-430572D01*
X-109137Y-434099D01*
X-100000Y-435302D01*
X-90863Y-434099D01*
X-82349Y-430572D01*
X-75038Y-424962D01*
X-69428Y-417651D01*
X-65901Y-409137D01*
X-64698Y-400000D01*
X-65901Y-390863D01*
X-69428Y-382349D01*
X-75038Y-375038D01*
X-82349Y-369428D01*
X-90863Y-365901D01*
X-100000Y-364698D01*
D02*
G37*
G36*
X0D02*
X-9137Y-365901D01*
X-17651Y-369428D01*
X-24962Y-375038D01*
X-30572Y-382349D01*
X-34099Y-390863D01*
X-35302Y-400000D01*
X-34099Y-409137D01*
X-30572Y-417651D01*
X-24962Y-424962D01*
X-17651Y-430572D01*
X-9137Y-434099D01*
X0Y-435302D01*
X9137Y-434099D01*
X17651Y-430572D01*
X24962Y-424962D01*
X30572Y-417651D01*
X34099Y-409137D01*
X35302Y-400000D01*
X34099Y-390863D01*
X30572Y-382349D01*
X24962Y-375038D01*
X17651Y-369428D01*
X9137Y-365901D01*
X0Y-364698D01*
D02*
G37*
G36*
X1176803Y-269409D02*
X1133338D01*
Y-330590D01*
X1144874D01*
Y-389409D01*
X1131338D01*
Y-424008D01*
X1045748D01*
X1044380Y-420809D01*
Y-418909D01*
X1044834Y-418605D01*
X1047897Y-414021D01*
X1048973Y-408614D01*
X1047897Y-403207D01*
X1044834Y-398623D01*
X1040250Y-395560D01*
X1034843Y-394484D01*
X1026338D01*
Y-364794D01*
X1070372D01*
X1070772Y-367831D01*
X1073795Y-375129D01*
X1078604Y-381396D01*
X1084871Y-386205D01*
X1092169Y-389228D01*
X1100000Y-390259D01*
X1107832Y-389228D01*
X1115130Y-386205D01*
X1121397Y-381396D01*
X1126205Y-375129D01*
X1129228Y-367831D01*
X1130259Y-360000D01*
X1129228Y-352168D01*
X1126205Y-344870D01*
X1121397Y-338603D01*
X1115130Y-333795D01*
X1107832Y-330772D01*
X1100000Y-329741D01*
X1092169Y-330772D01*
X1084871Y-333795D01*
X1078604Y-338603D01*
X1074154Y-344402D01*
X1048844D01*
Y-303417D01*
X1005379D01*
Y-364598D01*
X1005946D01*
Y-394484D01*
X997441D01*
X992034Y-395560D01*
X987450Y-398623D01*
X984387Y-403207D01*
X983312Y-408614D01*
X983760Y-410870D01*
X980695Y-414350D01*
Y-414350D01*
X979718Y-415347D01*
X979140Y-415347D01*
X905000D01*
Y-498182D01*
Y-581016D01*
X979716Y-581016D01*
X980690Y-582010D01*
X980690Y-582010D01*
X983761Y-585486D01*
X983312Y-587748D01*
X984387Y-593155D01*
X987450Y-597739D01*
X992034Y-600802D01*
X997441Y-601878D01*
X1005946D01*
Y-619409D01*
X991732D01*
Y-680590D01*
X1035197D01*
Y-619409D01*
X1026338D01*
Y-601878D01*
X1034843D01*
X1040250Y-600802D01*
X1044834Y-597739D01*
X1046909Y-594634D01*
X1052589Y-593244D01*
X1429569Y-970223D01*
Y-978166D01*
X1425637Y-979795D01*
X1419370Y-984604D01*
X1414561Y-990870D01*
X1411539Y-998168D01*
X1410507Y-1006000D01*
X1411539Y-1013831D01*
X1414561Y-1021129D01*
X1419370Y-1027396D01*
X1425637Y-1032205D01*
X1432935Y-1035228D01*
X1440766Y-1036259D01*
X1448598Y-1035228D01*
X1455896Y-1032205D01*
X1462163Y-1027396D01*
X1466971Y-1021129D01*
X1469994Y-1013831D01*
X1471025Y-1006000D01*
X1469994Y-998168D01*
X1466971Y-990870D01*
X1462163Y-984604D01*
X1455896Y-979795D01*
X1449960Y-977336D01*
Y-966000D01*
X1449184Y-962098D01*
X1446974Y-958790D01*
X1048633Y-560449D01*
X1047897Y-556751D01*
X1044834Y-552167D01*
X1047232Y-547755D01*
X1048054Y-546764D01*
X1104273D01*
X1131338Y-573828D01*
Y-620590D01*
X1160383D01*
X1172593Y-632800D01*
X1175901Y-635010D01*
X1179803Y-635786D01*
X1717841D01*
X1721743Y-635010D01*
X1725051Y-632800D01*
X1760237Y-597614D01*
X1763251Y-599101D01*
X1764724Y-600198D01*
X1765901Y-609137D01*
X1769428Y-617651D01*
X1775038Y-624962D01*
X1782349Y-630572D01*
X1790863Y-634099D01*
X1800000Y-635302D01*
X1809137Y-634099D01*
X1817651Y-630572D01*
X1824962Y-624962D01*
X1830572Y-617651D01*
X1834099Y-609137D01*
X1835302Y-600000D01*
X1834099Y-590863D01*
X1830572Y-582349D01*
X1825084Y-575196D01*
X1825350Y-573379D01*
X1826430Y-570196D01*
X1840000D01*
X1843902Y-569420D01*
X1847210Y-567210D01*
X1883408Y-531011D01*
X1890863Y-534099D01*
X1900000Y-535302D01*
X1909137Y-534099D01*
X1917651Y-530572D01*
X1924962Y-524962D01*
X1930572Y-517651D01*
X1934099Y-509137D01*
X1935302Y-500000D01*
X1934099Y-490863D01*
X1930572Y-482349D01*
X1924962Y-475038D01*
X1917651Y-469428D01*
X1909137Y-465901D01*
X1900000Y-464698D01*
X1890863Y-465901D01*
X1882349Y-469428D01*
X1875038Y-475038D01*
X1869428Y-482349D01*
X1865901Y-490863D01*
X1864698Y-500000D01*
X1865901Y-509137D01*
X1868989Y-516592D01*
X1835777Y-549804D01*
X1783431D01*
X1779530Y-550580D01*
X1776222Y-552790D01*
X1713618Y-615394D01*
X1246733D01*
Y-595000D01*
X1220001D01*
X1193268D01*
Y-615394D01*
X1184026D01*
X1174803Y-606171D01*
Y-559409D01*
X1145757D01*
X1131734Y-545386D01*
X1133805Y-540386D01*
X1135316Y-540386D01*
X1174803D01*
Y-479205D01*
X1131338D01*
Y-500780D01*
X1053251D01*
X1050579Y-495780D01*
X1052607Y-492744D01*
X1053076Y-490385D01*
X1016142D01*
Y-480385D01*
X1053076D01*
X1052607Y-478028D01*
X1050579Y-474992D01*
X1053251Y-469992D01*
X1755572D01*
X1768989Y-483408D01*
X1765901Y-490863D01*
X1764698Y-500000D01*
X1765901Y-509137D01*
X1769428Y-517651D01*
X1775038Y-524962D01*
X1782349Y-530572D01*
X1790863Y-534099D01*
X1800000Y-535302D01*
X1809137Y-534099D01*
X1817651Y-530572D01*
X1824962Y-524962D01*
X1830572Y-517651D01*
X1834099Y-509137D01*
X1835302Y-500000D01*
X1834099Y-490863D01*
X1830572Y-482349D01*
X1824962Y-475038D01*
X1817651Y-469428D01*
X1809137Y-465901D01*
X1800000Y-464698D01*
X1790863Y-465901D01*
X1783408Y-468989D01*
X1767005Y-452586D01*
X1763698Y-450376D01*
X1759796Y-449600D01*
X1241733D01*
Y-420196D01*
X1341752D01*
X1343795Y-425129D01*
X1348604Y-431396D01*
X1354871Y-436205D01*
X1362169Y-439228D01*
X1370000Y-440259D01*
X1377832Y-439228D01*
X1385130Y-436205D01*
X1391397Y-431396D01*
X1396205Y-425129D01*
X1399228Y-417831D01*
X1400259Y-410000D01*
X1399228Y-402168D01*
X1396205Y-394870D01*
X1391397Y-388603D01*
X1385130Y-383795D01*
X1377832Y-380772D01*
X1370000Y-379741D01*
X1362169Y-380772D01*
X1354871Y-383795D01*
X1348604Y-388603D01*
X1343795Y-394870D01*
X1341752Y-399804D01*
X1241733D01*
Y-389409D01*
X1198268D01*
Y-449600D01*
X1174803D01*
Y-389409D01*
X1165266D01*
Y-330590D01*
X1176803D01*
Y-269409D01*
D02*
G37*
G36*
X0Y-264698D02*
X-9137Y-265901D01*
X-17651Y-269428D01*
X-24962Y-275038D01*
X-30572Y-282349D01*
X-34099Y-290863D01*
X-35302Y-300000D01*
X-34099Y-309137D01*
X-30572Y-317651D01*
X-24962Y-324962D01*
X-17651Y-330572D01*
X-9137Y-334099D01*
X0Y-335302D01*
X9137Y-334099D01*
X17651Y-330572D01*
X24962Y-324962D01*
X30572Y-317651D01*
X34099Y-309137D01*
X35302Y-300000D01*
X34099Y-290863D01*
X30572Y-282349D01*
X24962Y-275038D01*
X17651Y-269428D01*
X9137Y-265901D01*
X0Y-264698D01*
D02*
G37*
G36*
X1800000D02*
X1790863Y-265901D01*
X1782349Y-269428D01*
X1775038Y-275038D01*
X1769428Y-282349D01*
X1765901Y-290863D01*
X1764698Y-300000D01*
X1765901Y-309137D01*
X1769428Y-317651D01*
X1775038Y-324962D01*
X1782349Y-330572D01*
X1790863Y-334099D01*
X1800000Y-335302D01*
X1809137Y-334099D01*
X1817651Y-330572D01*
X1824962Y-324962D01*
X1830572Y-317651D01*
X1834099Y-309137D01*
X1835302Y-300000D01*
X1834099Y-290863D01*
X1830572Y-282349D01*
X1824962Y-275038D01*
X1817651Y-269428D01*
X1809137Y-265901D01*
X1800000Y-264698D01*
D02*
G37*
G36*
X1900000D02*
X1890863Y-265901D01*
X1882349Y-269428D01*
X1875038Y-275038D01*
X1869428Y-282349D01*
X1865901Y-290863D01*
X1864698Y-300000D01*
X1865901Y-309137D01*
X1869428Y-317651D01*
X1875038Y-324962D01*
X1882349Y-330572D01*
X1890863Y-334099D01*
X1900000Y-335302D01*
X1909137Y-334099D01*
X1917651Y-330572D01*
X1924962Y-324962D01*
X1930572Y-317651D01*
X1934099Y-309137D01*
X1935302Y-300000D01*
X1934099Y-290863D01*
X1930572Y-282349D01*
X1924962Y-275038D01*
X1917651Y-269428D01*
X1909137Y-265901D01*
X1900000Y-264698D01*
D02*
G37*
G36*
X-100000D02*
X-109137Y-265901D01*
X-117651Y-269428D01*
X-124962Y-275038D01*
X-130572Y-282349D01*
X-134099Y-290863D01*
X-135302Y-300000D01*
X-134099Y-309137D01*
X-130572Y-317651D01*
X-124962Y-324962D01*
X-117651Y-330572D01*
X-109137Y-334099D01*
X-100000Y-335302D01*
X-90863Y-334099D01*
X-82349Y-330572D01*
X-75038Y-324962D01*
X-69428Y-317651D01*
X-65901Y-309137D01*
X-64698Y-300000D01*
X-65901Y-290863D01*
X-69428Y-282349D01*
X-75038Y-275038D01*
X-82349Y-269428D01*
X-90863Y-265901D01*
X-100000Y-264698D01*
D02*
G37*
G36*
X981916Y-303417D02*
X938451D01*
Y-344402D01*
X928846D01*
X924396Y-338603D01*
X918130Y-333795D01*
X910832Y-330772D01*
X903000Y-329741D01*
X895169Y-330772D01*
X887871Y-333795D01*
X881604Y-338603D01*
X876795Y-344870D01*
X874752Y-349804D01*
X865392D01*
Y-342874D01*
X865197Y-341889D01*
Y-309409D01*
X821732D01*
Y-370590D01*
X865197D01*
Y-370196D01*
X874752D01*
X876795Y-375129D01*
X881604Y-381396D01*
X887871Y-386205D01*
X895169Y-389228D01*
X903000Y-390259D01*
X910832Y-389228D01*
X918130Y-386205D01*
X924396Y-381396D01*
X929205Y-375129D01*
X932228Y-367831D01*
X932628Y-364794D01*
X948451D01*
X949436Y-364598D01*
X981916D01*
Y-303417D01*
D02*
G37*
G36*
X1217001Y-305000D02*
X1195268D01*
Y-335590D01*
X1217001D01*
Y-305000D01*
D02*
G37*
G36*
X1248733D02*
X1227001D01*
Y-335590D01*
X1248733D01*
Y-305000D01*
D02*
G37*
G36*
X-100000Y-464698D02*
X-109137Y-465901D01*
X-117651Y-469428D01*
X-124962Y-475038D01*
X-130572Y-482349D01*
X-134099Y-490863D01*
X-135302Y-500000D01*
X-134099Y-509137D01*
X-130572Y-517651D01*
X-124962Y-524962D01*
X-117651Y-530572D01*
X-109137Y-534099D01*
X-100000Y-535302D01*
X-90863Y-534099D01*
X-82349Y-530572D01*
X-75038Y-524962D01*
X-69428Y-517651D01*
X-65901Y-509137D01*
X-64698Y-500000D01*
X-65901Y-490863D01*
X-69428Y-482349D01*
X-75038Y-475038D01*
X-82349Y-469428D01*
X-90863Y-465901D01*
X-100000Y-464698D01*
D02*
G37*
G36*
X973269Y-614409D02*
X951536D01*
Y-645000D01*
X973269D01*
Y-614409D01*
D02*
G37*
G36*
X358800Y-616434D02*
X325257D01*
Y-644071D01*
X358800D01*
Y-616434D01*
D02*
G37*
G36*
X402344D02*
X368800D01*
Y-644071D01*
X402344D01*
Y-616434D01*
D02*
G37*
G36*
X941536Y-614409D02*
X919804D01*
Y-645000D01*
X941536D01*
Y-614409D01*
D02*
G37*
G36*
X310591Y-573889D02*
X249410D01*
Y-617354D01*
X279804D01*
Y-636930D01*
X246457D01*
Y-692206D01*
X313543D01*
Y-636930D01*
X300196D01*
Y-617354D01*
X310591D01*
Y-573889D01*
D02*
G37*
G36*
X941536Y-655000D02*
X919804D01*
Y-685590D01*
X941536D01*
Y-655000D01*
D02*
G37*
G36*
X973269D02*
X951536D01*
Y-685590D01*
X973269D01*
Y-655000D01*
D02*
G37*
G36*
X-100000Y-564698D02*
X-109137Y-565901D01*
X-117651Y-569428D01*
X-124962Y-575038D01*
X-130572Y-582349D01*
X-134099Y-590863D01*
X-135302Y-600000D01*
X-134099Y-609137D01*
X-130572Y-617651D01*
X-124962Y-624962D01*
X-117651Y-630572D01*
X-109137Y-634099D01*
X-100000Y-635302D01*
X-90863Y-634099D01*
X-82349Y-630572D01*
X-75038Y-624962D01*
X-69428Y-617651D01*
X-65901Y-609137D01*
X-64698Y-600000D01*
X-65901Y-590863D01*
X-69428Y-582349D01*
X-75038Y-575038D01*
X-82349Y-569428D01*
X-90863Y-565901D01*
X-100000Y-564698D01*
D02*
G37*
G36*
X1215001Y-554409D02*
X1193268D01*
Y-585000D01*
X1215001D01*
Y-554409D01*
D02*
G37*
G36*
X1246733D02*
X1225001D01*
Y-585000D01*
X1246733D01*
Y-554409D01*
D02*
G37*
G36*
X1241733Y-479205D02*
X1198268D01*
Y-540386D01*
X1241733D01*
Y-519992D01*
X1341752D01*
X1343795Y-524925D01*
X1348604Y-531192D01*
X1354871Y-536001D01*
X1362169Y-539024D01*
X1370000Y-540055D01*
X1377832Y-539024D01*
X1385130Y-536001D01*
X1391397Y-531192D01*
X1396205Y-524925D01*
X1399228Y-517627D01*
X1400259Y-509796D01*
X1399228Y-501964D01*
X1396205Y-494666D01*
X1391397Y-488399D01*
X1385130Y-483591D01*
X1377832Y-480568D01*
X1370000Y-479537D01*
X1362169Y-480568D01*
X1354871Y-483591D01*
X1348604Y-488399D01*
X1343795Y-494666D01*
X1341752Y-499600D01*
X1241733D01*
Y-479205D01*
D02*
G37*
G36*
X402344Y-578796D02*
X368800D01*
Y-606434D01*
X402344D01*
Y-578796D01*
D02*
G37*
G36*
X0Y-564698D02*
X-9137Y-565901D01*
X-17651Y-569428D01*
X-24962Y-575038D01*
X-30572Y-582349D01*
X-34099Y-590863D01*
X-35302Y-600000D01*
X-34099Y-609137D01*
X-30572Y-617651D01*
X-24962Y-624962D01*
X-17651Y-630572D01*
X-9137Y-634099D01*
X0Y-635302D01*
X9137Y-634099D01*
X17651Y-630572D01*
X24962Y-624962D01*
X30572Y-617651D01*
X34099Y-609137D01*
X35302Y-600000D01*
X34099Y-590863D01*
X30572Y-582349D01*
X24962Y-575038D01*
X17651Y-569428D01*
X9137Y-565901D01*
X0Y-564698D01*
D02*
G37*
G36*
X1900000D02*
X1890863Y-565901D01*
X1882349Y-569428D01*
X1875038Y-575038D01*
X1869428Y-582349D01*
X1865901Y-590863D01*
X1864698Y-600000D01*
X1865901Y-609137D01*
X1869428Y-617651D01*
X1875038Y-624962D01*
X1882349Y-630572D01*
X1890863Y-634099D01*
X1900000Y-635302D01*
X1909137Y-634099D01*
X1917651Y-630572D01*
X1924962Y-624962D01*
X1930572Y-617651D01*
X1934099Y-609137D01*
X1935302Y-600000D01*
X1934099Y-590863D01*
X1930572Y-582349D01*
X1924962Y-575038D01*
X1917651Y-569428D01*
X1909137Y-565901D01*
X1900000Y-564698D01*
D02*
G37*
G36*
X358800Y-578796D02*
X325257D01*
Y-606434D01*
X358800D01*
Y-578796D01*
D02*
G37*
G36*
X1800000Y-64698D02*
X1790863Y-65901D01*
X1782349Y-69428D01*
X1775038Y-75038D01*
X1769428Y-82349D01*
X1765901Y-90863D01*
X1764698Y-100000D01*
X1765901Y-109137D01*
X1769428Y-117651D01*
X1775038Y-124962D01*
X1782349Y-130572D01*
X1790863Y-134099D01*
X1800000Y-135302D01*
X1809137Y-134099D01*
X1817651Y-130572D01*
X1824962Y-124962D01*
X1830572Y-117651D01*
X1834099Y-109137D01*
X1835302Y-100000D01*
X1834099Y-90863D01*
X1830572Y-82349D01*
X1824962Y-75038D01*
X1817651Y-69428D01*
X1809137Y-65901D01*
X1800000Y-64698D01*
D02*
G37*
G36*
X1839687Y-5000D02*
X1805000D01*
Y-39687D01*
X1810442Y-38971D01*
X1820173Y-34940D01*
X1828528Y-28528D01*
X1834940Y-20173D01*
X1838970Y-10442D01*
X1839687Y-5000D01*
D02*
G37*
G36*
X1900000Y-64698D02*
X1890863Y-65901D01*
X1882349Y-69428D01*
X1875038Y-75038D01*
X1869428Y-82349D01*
X1865901Y-90863D01*
X1864698Y-100000D01*
X1865901Y-109137D01*
X1869428Y-117651D01*
X1875038Y-124962D01*
X1882349Y-130572D01*
X1890863Y-134099D01*
X1900000Y-135302D01*
X1909137Y-134099D01*
X1917651Y-130572D01*
X1924962Y-124962D01*
X1930572Y-117651D01*
X1934099Y-109137D01*
X1935302Y-100000D01*
X1934099Y-90863D01*
X1930572Y-82349D01*
X1924962Y-75038D01*
X1917651Y-69428D01*
X1909137Y-65901D01*
X1900000Y-64698D01*
D02*
G37*
G36*
X1939687Y-5000D02*
X1905000D01*
Y-39687D01*
X1910442Y-38971D01*
X1920173Y-34940D01*
X1928528Y-28528D01*
X1934940Y-20173D01*
X1938970Y-10442D01*
X1939687Y-5000D01*
D02*
G37*
G36*
X0Y-164698D02*
X-9137Y-165901D01*
X-17651Y-169428D01*
X-24962Y-175038D01*
X-30572Y-182349D01*
X-33660Y-189804D01*
X-66340D01*
X-69428Y-182349D01*
X-75038Y-175038D01*
X-82349Y-169428D01*
X-90863Y-165901D01*
X-100000Y-164698D01*
X-109137Y-165901D01*
X-117651Y-169428D01*
X-124962Y-175038D01*
X-130572Y-182349D01*
X-134099Y-190863D01*
X-135302Y-200000D01*
X-134099Y-209137D01*
X-130572Y-217651D01*
X-124962Y-224962D01*
X-117651Y-230572D01*
X-109137Y-234099D01*
X-100000Y-235302D01*
X-90863Y-234099D01*
X-82349Y-230572D01*
X-75038Y-224962D01*
X-69428Y-217651D01*
X-66340Y-210196D01*
X-33660D01*
X-30572Y-217651D01*
X-24962Y-224962D01*
X-17651Y-230572D01*
X-9137Y-234099D01*
X0Y-235302D01*
X9137Y-234099D01*
X17651Y-230572D01*
X24962Y-224962D01*
X30572Y-217651D01*
X34099Y-209137D01*
X35302Y-200000D01*
X34099Y-190863D01*
X30572Y-182349D01*
X24962Y-175038D01*
X17651Y-169428D01*
X9137Y-165901D01*
X0Y-164698D01*
D02*
G37*
G36*
X745000Y-120833D02*
X738140Y-121736D01*
X727087Y-126314D01*
X717597Y-133597D01*
X710314Y-143088D01*
X705736Y-154140D01*
X704833Y-161000D01*
X745000D01*
Y-120833D01*
D02*
G37*
G36*
X755000D02*
Y-161000D01*
X795167D01*
X794264Y-154140D01*
X789686Y-143088D01*
X782403Y-133597D01*
X772913Y-126314D01*
X761860Y-121736D01*
X755000Y-120833D01*
D02*
G37*
G36*
X150000Y-65174D02*
X140987Y-66361D01*
X132588Y-69840D01*
X125375Y-75374D01*
X119841Y-82587D01*
X116361Y-90986D01*
X115175Y-100000D01*
X116361Y-109013D01*
X119841Y-117412D01*
X125375Y-124625D01*
X132588Y-130160D01*
X140987Y-133639D01*
X150000Y-134825D01*
X159014Y-133639D01*
X167413Y-130160D01*
X174625Y-124625D01*
X180160Y-117412D01*
X183639Y-109013D01*
X184826Y-100000D01*
X183639Y-90986D01*
X180160Y-82587D01*
X174625Y-75374D01*
X167413Y-69840D01*
X159014Y-66361D01*
X150000Y-65174D01*
D02*
G37*
G36*
X1795000Y-5000D02*
X1760313D01*
X1761030Y-10442D01*
X1765060Y-20173D01*
X1771472Y-28528D01*
X1779827Y-34940D01*
X1789558Y-38971D01*
X1795000Y-39687D01*
Y-5000D01*
D02*
G37*
G36*
X1895000D02*
X1860313D01*
X1861030Y-10442D01*
X1865060Y-20173D01*
X1871472Y-28528D01*
X1879827Y-34940D01*
X1889558Y-38971D01*
X1895000Y-39687D01*
Y-5000D01*
D02*
G37*
G36*
X-60313D02*
X-95000D01*
Y-39687D01*
X-89558Y-38971D01*
X-79827Y-34940D01*
X-71472Y-28528D01*
X-65060Y-20173D01*
X-61029Y-10442D01*
X-60313Y-5000D01*
D02*
G37*
G36*
X-5000D02*
X-39687D01*
X-38971Y-10442D01*
X-34940Y-20173D01*
X-28528Y-28528D01*
X-20173Y-34940D01*
X-10442Y-38971D01*
X-5000Y-39687D01*
Y-5000D01*
D02*
G37*
G36*
X0Y-64698D02*
X-9137Y-65901D01*
X-17651Y-69428D01*
X-24962Y-75038D01*
X-30572Y-82349D01*
X-33660Y-89804D01*
X-66340D01*
X-69428Y-82349D01*
X-75038Y-75038D01*
X-82349Y-69428D01*
X-90863Y-65901D01*
X-100000Y-64698D01*
X-109137Y-65901D01*
X-117651Y-69428D01*
X-124962Y-75038D01*
X-130572Y-82349D01*
X-134099Y-90863D01*
X-135302Y-100000D01*
X-134099Y-109137D01*
X-130572Y-117651D01*
X-124962Y-124962D01*
X-117651Y-130572D01*
X-109137Y-134099D01*
X-100000Y-135302D01*
X-90863Y-134099D01*
X-82349Y-130572D01*
X-75038Y-124962D01*
X-69428Y-117651D01*
X-66340Y-110196D01*
X-33660D01*
X-30572Y-117651D01*
X-24962Y-124962D01*
X-17651Y-130572D01*
X-9137Y-134099D01*
X0Y-135302D01*
X9137Y-134099D01*
X17651Y-130572D01*
X24962Y-124962D01*
X30572Y-117651D01*
X34099Y-109137D01*
X35302Y-100000D01*
X34099Y-90863D01*
X30572Y-82349D01*
X24962Y-75038D01*
X17651Y-69428D01*
X9137Y-65901D01*
X0Y-64698D01*
D02*
G37*
G36*
X-105000Y-5000D02*
X-139687D01*
X-138970Y-10442D01*
X-134940Y-20173D01*
X-128528Y-28528D01*
X-120173Y-34940D01*
X-110442Y-38971D01*
X-105000Y-39687D01*
Y-5000D01*
D02*
G37*
G36*
X39687D02*
X5000D01*
Y-39687D01*
X10442Y-38971D01*
X20173Y-34940D01*
X28528Y-28528D01*
X34940Y-20173D01*
X38971Y-10442D01*
X39687Y-5000D01*
D02*
G37*
G36*
X-105000Y39687D02*
X-110442Y38971D01*
X-120173Y34940D01*
X-128528Y28528D01*
X-134940Y20173D01*
X-138970Y10442D01*
X-139687Y5000D01*
X-105000D01*
Y39687D01*
D02*
G37*
G36*
X1217001Y-264409D02*
X1195268D01*
Y-295000D01*
X1217001D01*
Y-264409D01*
D02*
G37*
G36*
X1248733D02*
X1227001D01*
Y-295000D01*
X1248733D01*
Y-264409D01*
D02*
G37*
G36*
X-5000Y39687D02*
X-10442Y38971D01*
X-20173Y34940D01*
X-28528Y28528D01*
X-34940Y20173D01*
X-38971Y10442D01*
X-39687Y5000D01*
X-5000D01*
Y39687D01*
D02*
G37*
G36*
X150000Y-265174D02*
X140987Y-266361D01*
X132588Y-269840D01*
X125375Y-275375D01*
X119841Y-282587D01*
X116361Y-290986D01*
X115175Y-300000D01*
X116361Y-309013D01*
X119841Y-317413D01*
X125375Y-324625D01*
X132588Y-330159D01*
X140987Y-333639D01*
X150000Y-334825D01*
X159014Y-333639D01*
X167413Y-330159D01*
X174625Y-324625D01*
X180160Y-317413D01*
X183639Y-309013D01*
X184826Y-300000D01*
X183639Y-290986D01*
X180160Y-282587D01*
X174625Y-275375D01*
X167413Y-269840D01*
X159014Y-266361D01*
X150000Y-265174D01*
D02*
G37*
G36*
X588779Y-309007D02*
X573542D01*
Y-324244D01*
X588779D01*
Y-309007D01*
D02*
G37*
G36*
Y-283772D02*
X573542D01*
Y-299007D01*
X588779D01*
Y-283772D01*
D02*
G37*
G36*
X1800000Y-164698D02*
X1790863Y-165901D01*
X1782349Y-169428D01*
X1775038Y-175038D01*
X1769428Y-182349D01*
X1765901Y-190863D01*
X1764698Y-200000D01*
X1765901Y-209137D01*
X1769428Y-217651D01*
X1775038Y-224962D01*
X1782349Y-230572D01*
X1790863Y-234099D01*
X1800000Y-235302D01*
X1809137Y-234099D01*
X1817651Y-230572D01*
X1824962Y-224962D01*
X1830572Y-217651D01*
X1834099Y-209137D01*
X1835302Y-200000D01*
X1834099Y-190863D01*
X1830572Y-182349D01*
X1824962Y-175038D01*
X1817651Y-169428D01*
X1809137Y-165901D01*
X1800000Y-164698D01*
D02*
G37*
G36*
X795167Y-171000D02*
X755000D01*
Y-211167D01*
X761860Y-210264D01*
X772913Y-205686D01*
X782403Y-198403D01*
X789686Y-188912D01*
X794264Y-177860D01*
X795167Y-171000D01*
D02*
G37*
G36*
X650000Y-125218D02*
X639445Y-126608D01*
X629609Y-130682D01*
X621163Y-137163D01*
X614682Y-145609D01*
X610608Y-155445D01*
X609218Y-166000D01*
X610608Y-176555D01*
X614682Y-186391D01*
X621163Y-194837D01*
X629609Y-201318D01*
X639445Y-205392D01*
X650000Y-206782D01*
X660555Y-205392D01*
X670391Y-201318D01*
X678837Y-194837D01*
X685318Y-186391D01*
X689392Y-176555D01*
X690782Y-166000D01*
X689392Y-155445D01*
X685318Y-145609D01*
X678837Y-137163D01*
X670391Y-130682D01*
X660555Y-126608D01*
X650000Y-125218D01*
D02*
G37*
G36*
X184528Y34528D02*
X115473D01*
Y-34527D01*
X184528D01*
Y34528D01*
D02*
G37*
G36*
X745000Y-171000D02*
X704833D01*
X705736Y-177860D01*
X710314Y-188912D01*
X717597Y-198403D01*
X727087Y-205686D01*
X738140Y-210264D01*
X745000Y-211167D01*
Y-171000D01*
D02*
G37*
G36*
X1900000Y-164698D02*
X1890863Y-165901D01*
X1882349Y-169428D01*
X1875038Y-175038D01*
X1869428Y-182349D01*
X1865901Y-190863D01*
X1864698Y-200000D01*
X1865901Y-209137D01*
X1869428Y-217651D01*
X1875038Y-224962D01*
X1882349Y-230572D01*
X1890863Y-234099D01*
X1900000Y-235302D01*
X1909137Y-234099D01*
X1917651Y-230572D01*
X1924962Y-224962D01*
X1930572Y-217651D01*
X1934099Y-209137D01*
X1935302Y-200000D01*
X1934099Y-190863D01*
X1930572Y-182349D01*
X1924962Y-175038D01*
X1917651Y-169428D01*
X1909137Y-165901D01*
X1900000Y-164698D01*
D02*
G37*
G36*
X150000Y-165174D02*
X140987Y-166361D01*
X132588Y-169840D01*
X125375Y-175375D01*
X119841Y-182587D01*
X116361Y-190986D01*
X115175Y-200000D01*
X116361Y-209013D01*
X119841Y-217412D01*
X125375Y-224625D01*
X132588Y-230160D01*
X140987Y-233639D01*
X150000Y-234825D01*
X159014Y-233639D01*
X167413Y-230160D01*
X174625Y-224625D01*
X180160Y-217412D01*
X183639Y-209013D01*
X184826Y-200000D01*
X183639Y-190986D01*
X180160Y-182587D01*
X174625Y-175375D01*
X167413Y-169840D01*
X159014Y-166361D01*
X150000Y-165174D01*
D02*
G37*
%LPD*%
G36*
X1193372Y-974790D02*
X1191458Y-979409D01*
X1164804D01*
Y-1025828D01*
X1045748D01*
X1044380Y-1022629D01*
Y-1020729D01*
X1044834Y-1020425D01*
X1047897Y-1015841D01*
X1048973Y-1010434D01*
X1047897Y-1005027D01*
X1044834Y-1000443D01*
X1040250Y-997380D01*
X1034843Y-996304D01*
X1026338D01*
Y-970590D01*
X1045197D01*
Y-950196D01*
X1061752D01*
X1063795Y-955129D01*
X1068604Y-961396D01*
X1074871Y-966205D01*
X1082169Y-969228D01*
X1090000Y-970259D01*
X1097832Y-969228D01*
X1105130Y-966205D01*
X1111397Y-961396D01*
X1116205Y-955129D01*
X1119228Y-947831D01*
X1120259Y-940000D01*
X1119228Y-932168D01*
X1116205Y-924870D01*
X1112165Y-919605D01*
X1113710Y-914605D01*
X1133187D01*
X1193372Y-974790D01*
D02*
G37*
G36*
X1763251Y-899101D02*
X1764724Y-900198D01*
X1765901Y-909137D01*
X1769428Y-917651D01*
X1775038Y-924962D01*
X1782349Y-930572D01*
X1790863Y-934099D01*
X1799802Y-935276D01*
X1800899Y-936749D01*
X1802386Y-939763D01*
X1792345Y-949804D01*
X1783431D01*
X1779530Y-950580D01*
X1776222Y-952790D01*
X1696594Y-1032418D01*
X1691975Y-1030505D01*
Y-965876D01*
X1760237Y-897614D01*
X1763251Y-899101D01*
D02*
G37*
G36*
X1790863Y-834099D02*
X1799802Y-835276D01*
X1800899Y-836749D01*
X1802386Y-839763D01*
X1792345Y-849804D01*
X1783431D01*
X1779530Y-850580D01*
X1776222Y-852790D01*
X1674569Y-954443D01*
X1672359Y-957751D01*
X1671583Y-961653D01*
Y-1064455D01*
X1585604Y-1150434D01*
X1580984Y-1148520D01*
Y-1084464D01*
X1500118D01*
Y-1160134D01*
X1480984D01*
Y-1084464D01*
X1400118D01*
Y-1160134D01*
X1308364D01*
X1277197Y-1128967D01*
Y-1082205D01*
X1233732D01*
Y-1143386D01*
X1262777D01*
X1268749Y-1149358D01*
X1266835Y-1153977D01*
X1260464D01*
Y-1184568D01*
X1282197D01*
Y-1169338D01*
X1286816Y-1167425D01*
X1296931Y-1177540D01*
X1300239Y-1179750D01*
X1304141Y-1180526D01*
X1570192D01*
X1572105Y-1185146D01*
X1542289Y-1214962D01*
X1282197D01*
Y-1194568D01*
X1255464D01*
X1228732D01*
Y-1214962D01*
X1219492D01*
X1210268Y-1205739D01*
Y-1158977D01*
X1181223D01*
X1170632Y-1148386D01*
X1172703Y-1143386D01*
X1210268D01*
Y-1082205D01*
X1166804D01*
Y-1102600D01*
X1053250D01*
X1050577Y-1097600D01*
X1052607Y-1094562D01*
X1053076Y-1092203D01*
X1016142D01*
Y-1082203D01*
X1053076D01*
X1052607Y-1079846D01*
X1050579Y-1076810D01*
X1053251Y-1071810D01*
X1538386D01*
X1542288Y-1071034D01*
X1545596Y-1068823D01*
X1783408Y-831011D01*
X1790863Y-834099D01*
D02*
G37*
G36*
X1926621Y-825350D02*
X1929804Y-826430D01*
Y-873570D01*
X1926621Y-874650D01*
X1924804Y-874916D01*
X1917651Y-869428D01*
X1909137Y-865901D01*
X1900000Y-864698D01*
X1890863Y-865901D01*
X1882349Y-869428D01*
X1875038Y-875038D01*
X1869428Y-882349D01*
X1865901Y-890863D01*
X1864698Y-900000D01*
X1865901Y-909137D01*
X1869428Y-917651D01*
X1875038Y-924962D01*
X1882349Y-930572D01*
X1890863Y-934099D01*
X1900000Y-935302D01*
X1909137Y-934099D01*
X1917651Y-930572D01*
X1924804Y-925084D01*
X1926621Y-925350D01*
X1929804Y-926430D01*
Y-973570D01*
X1926621Y-974650D01*
X1924804Y-974916D01*
X1917651Y-969428D01*
X1909137Y-965901D01*
X1900000Y-964698D01*
X1890863Y-965901D01*
X1882349Y-969428D01*
X1875038Y-975038D01*
X1869428Y-982349D01*
X1865901Y-990863D01*
X1864698Y-1000000D01*
X1865901Y-1009137D01*
X1869428Y-1017651D01*
X1875038Y-1024962D01*
X1882349Y-1030572D01*
X1890863Y-1034099D01*
X1899802Y-1035276D01*
X1900899Y-1036749D01*
X1902386Y-1039763D01*
X1892345Y-1049804D01*
X1883431D01*
X1879530Y-1050580D01*
X1876222Y-1052790D01*
X1838718Y-1090294D01*
X1833214Y-1088727D01*
X1830572Y-1082349D01*
X1824962Y-1075038D01*
X1817651Y-1069428D01*
X1809137Y-1065901D01*
X1800000Y-1064698D01*
X1790863Y-1065901D01*
X1782349Y-1069428D01*
X1775038Y-1075038D01*
X1769428Y-1082349D01*
X1765901Y-1090863D01*
X1764698Y-1100000D01*
X1765901Y-1109137D01*
X1769428Y-1117651D01*
X1775038Y-1124962D01*
X1782349Y-1130572D01*
X1790863Y-1134099D01*
X1799802Y-1135276D01*
X1800899Y-1136749D01*
X1802386Y-1139763D01*
X1792345Y-1149804D01*
X1643356D01*
X1641316Y-1146070D01*
X1641143Y-1144946D01*
X1703989Y-1082101D01*
X1706199Y-1078793D01*
X1706975Y-1074891D01*
Y-1050876D01*
X1760237Y-997614D01*
X1763251Y-999101D01*
X1764724Y-1000198D01*
X1765901Y-1009137D01*
X1769428Y-1017651D01*
X1775038Y-1024962D01*
X1782349Y-1030572D01*
X1790863Y-1034099D01*
X1800000Y-1035302D01*
X1809137Y-1034099D01*
X1817651Y-1030572D01*
X1824962Y-1024962D01*
X1830572Y-1017651D01*
X1834099Y-1009137D01*
X1835302Y-1000000D01*
X1834099Y-990863D01*
X1830572Y-982349D01*
X1824962Y-975038D01*
X1817651Y-969428D01*
X1811273Y-966786D01*
X1809706Y-961282D01*
X1850710Y-920277D01*
X1852921Y-916970D01*
X1853697Y-913068D01*
Y-860722D01*
X1883408Y-831011D01*
X1890863Y-834099D01*
X1900000Y-835302D01*
X1909137Y-834099D01*
X1917651Y-830572D01*
X1924804Y-825084D01*
X1926621Y-825350D01*
D02*
G37*
G36*
X1166804Y-1779829D02*
Y-1826590D01*
X1176340D01*
Y-1831751D01*
X1171407Y-1833795D01*
X1165140Y-1838603D01*
X1160331Y-1844870D01*
X1157308Y-1852168D01*
X1156277Y-1860000D01*
X1156708Y-1863273D01*
X1151973Y-1865609D01*
X1051633Y-1765269D01*
X1050897Y-1761569D01*
X1047834Y-1756985D01*
X1050232Y-1752573D01*
X1051054Y-1751582D01*
X1138557D01*
X1166804Y-1779829D01*
D02*
G37*
%LPC*%
G36*
X1250464Y-1153977D02*
X1228732D01*
Y-1184568D01*
X1250464D01*
Y-1153977D01*
D02*
G37*
%LPD*%
G36*
X1396587Y165995D02*
X1398230Y163537D01*
X1402488Y160691D01*
X1407511Y159692D01*
X1409804D01*
Y148249D01*
X1404871Y146205D01*
X1398604Y141397D01*
X1393795Y135130D01*
X1390772Y127832D01*
X1389741Y120000D01*
X1390772Y112169D01*
X1393795Y104871D01*
X1398604Y98604D01*
X1404871Y93795D01*
X1412169Y90772D01*
X1418010Y90003D01*
X1420050Y84972D01*
X1324742Y-10336D01*
X1108550D01*
X1106637Y-5716D01*
X1123636Y11282D01*
X1230580D01*
X1234481Y12059D01*
X1237789Y14269D01*
X1390781Y167260D01*
X1396587Y165995D01*
D02*
G37*
G36*
X619138Y-467005D02*
X622446Y-469216D01*
X626347Y-469992D01*
X746749D01*
X749422Y-474992D01*
X747393Y-478028D01*
X746924Y-480386D01*
X783859D01*
Y-490386D01*
X746924D01*
X747393Y-492744D01*
X749422Y-495780D01*
X746749Y-500780D01*
X613070D01*
Y-467471D01*
X617689Y-465557D01*
X619138Y-467005D01*
D02*
G37*
D11*
X1188536Y-2219976D02*
D03*
X1255464D02*
D03*
X531636Y-980000D02*
D03*
X598564D02*
D03*
X1096535Y180000D02*
D03*
X1163465D02*
D03*
X1163465Y250000D02*
D03*
X1096535D02*
D03*
X691780Y914000D02*
D03*
X758708D02*
D03*
X851780D02*
D03*
X918708D02*
D03*
X1021780D02*
D03*
X1088708D02*
D03*
X1253464Y-1010000D02*
D03*
X1186536D02*
D03*
X1222000Y-300000D02*
D03*
X1155070D02*
D03*
X843464Y-340000D02*
D03*
X776536D02*
D03*
X786536Y-1536000D02*
D03*
X853464D02*
D03*
X594756Y-1586000D02*
D03*
X527826D02*
D03*
X1188536Y-1716000D02*
D03*
X1255464D02*
D03*
X956536Y-1856000D02*
D03*
X1023464D02*
D03*
X1013464Y-650000D02*
D03*
X946536D02*
D03*
X1153070Y-590000D02*
D03*
X1220000D02*
D03*
Y-420000D02*
D03*
X1153070D02*
D03*
X531636Y-370000D02*
D03*
X598564D02*
D03*
X1023464Y-1536000D02*
D03*
X956536D02*
D03*
X1188536Y-1189568D02*
D03*
X1255464D02*
D03*
X1220000Y-509796D02*
D03*
X1153070D02*
D03*
X1188536Y-1616000D02*
D03*
X1255464D02*
D03*
X1014159Y-1264008D02*
D03*
X947231D02*
D03*
X956536Y-940000D02*
D03*
X1023464D02*
D03*
X843464D02*
D03*
X776536D02*
D03*
X1255464Y-2403960D02*
D03*
X1188536D02*
D03*
Y-2326000D02*
D03*
X1255464D02*
D03*
X960183Y-334008D02*
D03*
X1027111D02*
D03*
X1255464Y-1796000D02*
D03*
X1188536D02*
D03*
X951566Y-2461442D02*
D03*
X1018496D02*
D03*
X1013780Y-2140646D02*
D03*
X946850D02*
D03*
X786536Y-2141000D02*
D03*
X853464D02*
D03*
X608496Y-2171442D02*
D03*
X541566D02*
D03*
X1255464Y-1112796D02*
D03*
X1188536D02*
D03*
X714016Y115992D02*
D03*
X780945D02*
D03*
X950945Y-34008D02*
D03*
X884016D02*
D03*
D12*
X714566Y-2345748D02*
X714681Y-2345862D01*
X782382D01*
X714566Y-2314252D02*
X717634Y-2317319D01*
X782382D01*
X1023464Y-1536000D02*
X1027464Y-1540000D01*
X1080000D01*
X1019142Y-1613434D02*
Y-1544322D01*
X1023464Y-1540000D01*
X1900000Y-1800000D02*
X1940000Y-1840000D01*
X1053701Y-1280930D02*
Y-1181756D01*
X959632Y-1375000D02*
X1053701Y-1280930D01*
X1255432Y-2326000D02*
X1259432Y-2330000D01*
X855197Y-360000D02*
X903000D01*
X1027480Y1032976D02*
X1028504Y1034000D01*
X853748D02*
X854804Y1032945D01*
X693748Y1034000D02*
X693748Y1034000D01*
X854804Y917024D02*
Y1032945D01*
X644155Y1089155D02*
X646232D01*
Y756304D02*
Y1089155D01*
X1255694Y-1615770D02*
Y-1546196D01*
X1188536Y-2228834D02*
Y-2219976D01*
X539284Y-2169160D02*
Y-2103960D01*
X758708Y905142D02*
Y914000D01*
X1092347Y-2442346D02*
X1100000Y-2450000D01*
X1186536Y-1018858D02*
Y-1010000D01*
X511536Y-1100000D02*
X521457D01*
X485032Y-2421442D02*
X712614D01*
X707480Y-2539324D02*
X709598Y-2541442D01*
X707480Y-2539324D02*
Y-2473560D01*
X1188536Y-1198426D02*
Y-1180710D01*
X1333192Y-37518D02*
X1477787Y107077D01*
X1205922Y670500D02*
X1210500D01*
X1197944Y678478D02*
X1205922Y670500D01*
X1197944Y678478D02*
Y745304D01*
X1420000Y120000D02*
Y170163D01*
X1241732Y-989409D02*
X1247078Y-994756D01*
X611888Y747360D02*
X637288D01*
X611888Y746945D02*
Y747360D01*
X605944Y741001D02*
X611888Y746945D01*
X605944Y638056D02*
X607000Y637000D01*
X973582Y-2105055D02*
X1221378D01*
X1255464Y-1716000D02*
X1444566D01*
X637288Y747360D02*
X646232Y756304D01*
X764078Y-1036024D02*
X783858D01*
X728644Y-1000590D02*
X764078Y-1036024D01*
X606299Y-510976D02*
X783858D01*
X585432Y-490109D02*
X606299Y-510976D01*
X585432Y-1093109D02*
X605119Y-1112796D01*
X1137411Y-904409D02*
X1222411Y-989409D01*
X373706Y-536568D02*
X464613Y-445661D01*
X315032Y-2247976D02*
X326764Y-2259708D01*
X767078Y-1639024D02*
X786858D01*
X734644Y-1606590D02*
X767078Y-1639024D01*
X785606Y-1714543D02*
X786858Y-1715796D01*
X640000Y-2006000D02*
Y-1875243D01*
X697222Y-1818021D01*
X716035D01*
X786858Y-1864574D02*
Y-1792568D01*
X786536Y-1536000D02*
X786858Y-1536322D01*
X410000Y-1715600D02*
Y-1637426D01*
X310000Y-1632536D02*
X314890Y-1637426D01*
X711614Y-662952D02*
X714566Y-660000D01*
X783858Y-2293204D02*
X887204D01*
X912796D02*
X1016142D01*
X900000Y-2306000D02*
X912796Y-2293204D01*
X887204D02*
X900000Y-2306000D01*
X786858Y-1690204D02*
X890204D01*
X915796D02*
X1019142D01*
X903000Y-1703000D02*
X915796Y-1690204D01*
X890204D02*
X903000Y-1703000D01*
X783858Y-1087204D02*
X887204D01*
X912796D02*
X1016142D01*
X900000Y-1100000D02*
X912796Y-1087204D01*
X887204D02*
X900000Y-1100000D01*
X912796Y-485386D02*
X1016142D01*
X783858D02*
X887204D01*
X900000Y-498182D01*
X1764614Y-1664614D02*
X1800000Y-1700000D01*
X1188502Y-2403960D02*
Y-2395068D01*
X601764Y-2173568D02*
Y-2164708D01*
X783858Y-1010434D02*
Y-942678D01*
X983269Y-904409D02*
X1137411D01*
X1255464Y-1121654D02*
X1304141Y-1170330D01*
X605944Y638056D02*
Y741001D01*
X763069Y-2267614D02*
X783858D01*
X1153070Y-422471D02*
Y-420000D01*
X1759796Y-459796D02*
X1800000Y-500000D01*
X522639Y-498182D02*
X561025Y-536568D01*
X598564Y-378858D02*
Y-370000D01*
X1108496Y-536568D02*
X1153070Y-581142D01*
X1013464Y-940000D02*
X1016142Y-942678D01*
X620000Y-600000D02*
X726236D01*
X1017600Y-2240566D02*
X1176804D01*
X1151890Y-510976D02*
X1153070Y-509796D01*
X1019142Y-1715796D02*
X1188688D01*
X843464Y-940000D02*
X956536D01*
Y-931142D02*
X983269Y-904409D01*
X956536Y-940000D02*
Y-931142D01*
X1222411Y-989409D02*
X1241732D01*
X1916569Y-760000D02*
X1940000Y-783432D01*
Y-1016568D02*
Y-783432D01*
X1840000Y-803432D02*
X1883431Y-760000D01*
X1681779Y-961653D02*
X1783431Y-860000D01*
X1796569Y-1160000D02*
X1840000Y-1116569D01*
X1883431Y-760000D02*
X1916569D01*
X1840000Y-1103431D02*
X1883431Y-1060000D01*
X956536Y-1527142D02*
X983269Y-1500409D01*
X1209907D02*
X1242628Y-1533130D01*
X983269Y-1500409D02*
X1209907D01*
X956536Y-1536000D02*
Y-1527142D01*
X946850Y-2140646D02*
Y-2131788D01*
X973582Y-2105055D01*
X1221378D02*
X1255464Y-2139142D01*
X948451Y-354598D02*
X956536Y-346513D01*
X-100000Y-200000D02*
X-100000Y-200000D01*
X-100000Y-100000D02*
X-100000Y-100000D01*
X764078Y-1061614D02*
X783858D01*
X1188688Y-1715796D02*
X1188892Y-1716000D01*
X314890Y-1637426D02*
X410000D01*
X767078Y-1664614D02*
X786858D01*
X739890Y-1637426D02*
X767078Y-1664614D01*
X783858Y-408614D02*
Y-347322D01*
X1141338Y-434204D02*
X1153070Y-422471D01*
X585432Y-490109D02*
Y-484206D01*
X561025Y-536568D02*
X783858D01*
X1016142Y-408614D02*
Y-354598D01*
X653910Y-434204D02*
X783858D01*
X1016142Y-536568D02*
X1108496D01*
X764078Y-562158D02*
X783858D01*
X1176804Y-2240566D02*
X1188536Y-2228834D01*
X1016142Y-510976D02*
X1151890D01*
X783858Y-658426D02*
Y-587748D01*
X1016142Y-647322D02*
Y-587748D01*
X900000Y-498182D02*
X912796Y-485386D01*
X1092347Y-2442346D02*
Y-2426402D01*
X712614Y-2421442D02*
X764080Y-2369976D01*
X1188536Y-2412818D02*
X1264458Y-2488740D01*
X1188536Y-2412818D02*
Y-2403960D01*
Y-1198426D02*
X1215268Y-1225158D01*
X1179803Y-625590D02*
X1717841D01*
X1840000Y-560000D02*
X1900000Y-500000D01*
X1153070Y-598858D02*
X1179803Y-625590D01*
X1153070Y-598858D02*
Y-581142D01*
X1783431Y-560000D02*
X1840000D01*
X1717841Y-625590D02*
X1783431Y-560000D01*
X1843501Y-913068D02*
Y-856499D01*
X1188536Y-1796000D02*
Y-1787142D01*
X1186536Y-1860000D02*
Y-1798000D01*
X1188536Y-1796000D01*
X1019142Y-1766976D02*
X1038921D01*
X1153070Y-420000D02*
X1155070Y-418000D01*
Y-300000D01*
X1220000Y-420000D02*
X1230000Y-410000D01*
X1370000D01*
X1016142Y-434204D02*
X1141338D01*
X1220000Y-509796D02*
X1370000D01*
X1016142Y-459796D02*
X1759796D01*
X290000Y-670002D02*
Y-588898D01*
X612212Y-445661D02*
X626347Y-459796D01*
X598564Y-378858D02*
X653910Y-434204D01*
X514566Y-498182D02*
X522639D01*
X1420000Y170163D02*
X1422655Y172818D01*
X1426212Y275180D02*
X1444913D01*
X1492787Y227306D01*
Y100864D02*
Y227306D01*
X1444913Y249590D02*
X1477787Y216716D01*
Y107077D02*
Y216716D01*
X1426212Y249590D02*
X1444913D01*
X1462787Y113290D02*
Y206126D01*
X1426212Y224000D02*
X1444913D01*
X1098615Y-20532D02*
X1328965D01*
X1444913Y224000D02*
X1462787Y206126D01*
X1422655Y172818D02*
X1426212D01*
X1230580Y21478D02*
X1407511Y198410D01*
X1426212D01*
X1260000Y-2199386D02*
Y-2143678D01*
X1016142Y-2242024D02*
X1017600Y-2240566D01*
X1137820Y-2344386D02*
X1188502Y-2395068D01*
X1013780Y-2140646D02*
X1016812Y-2143678D01*
X1076000D01*
X1023464Y-940000D02*
X1090000D01*
X1247078Y-1003614D02*
X1253464Y-1010000D01*
X1247078Y-1003614D02*
Y-994756D01*
X1169370Y-1036024D02*
X1186536Y-1018858D01*
X1016142Y-1036024D02*
X1169370D01*
X1016142Y-1138386D02*
X1146212D01*
X1188536Y-1180710D01*
X1016142Y-1112796D02*
X1188536D01*
X1538386Y-1061614D02*
X1800000Y-800000D01*
X1016142Y-1061614D02*
X1538386D01*
X726236Y-600000D02*
X764078Y-562158D01*
X855197Y-360000D02*
Y-342874D01*
X908402Y-354598D02*
X948451D01*
X1016142D02*
X1094599D01*
X776536Y-340000D02*
X783858Y-347322D01*
X531636Y-370000D02*
X534252Y-367384D01*
Y-310000D01*
X1013464Y-650000D02*
X1016142Y-647322D01*
X711614Y-740000D02*
Y-662952D01*
X783858Y-658426D02*
X785432Y-660000D01*
X1016142Y-1010434D02*
Y-942678D01*
X783858D02*
X786536Y-940000D01*
X531636Y-980000D02*
X534252Y-977384D01*
Y-920000D01*
X598564Y-988858D02*
Y-980000D01*
Y-988858D02*
X610297Y-1000590D01*
X728644D01*
X585432Y-1093109D02*
Y-1087204D01*
X605119Y-1112796D02*
X783858D01*
X521457Y-1100000D02*
X559843Y-1138386D01*
X783858D01*
X754424Y-1155330D02*
X763069Y-1163976D01*
X783858D01*
X1035921D02*
X1053701Y-1181756D01*
X1016142Y-1163976D02*
X1035921D01*
X714566Y-1340000D02*
Y-1270000D01*
X783858Y-1268426D02*
X785432Y-1270000D01*
X783858Y-1268426D02*
Y-1189568D01*
X1013464Y-1260000D02*
X1016142Y-1257322D01*
Y-1189568D01*
X1035921Y-2369976D02*
X1092347Y-2426402D01*
X1016142Y-2369976D02*
X1035921D01*
X150000Y-2250000D02*
X315032D01*
X1274300Y432640D02*
Y501120D01*
X1303180Y530000D01*
X1117088Y657088D02*
Y747360D01*
X990000Y530000D02*
X1117088Y657088D01*
X1195888Y747360D02*
X1197944Y745304D01*
X634000Y1079000D02*
X644155Y1089155D01*
X922032Y767960D02*
Y772786D01*
X770441Y893410D02*
X801409D01*
X922032Y772786D01*
X1000832Y767960D02*
Y772786D01*
X930441Y843178D02*
X1000832Y772786D01*
X930441Y843178D02*
Y902268D01*
X1088708Y905142D02*
Y914000D01*
X1038288Y854722D02*
X1088708Y905142D01*
X1038288Y769904D02*
Y854722D01*
X918708Y914000D02*
X930441Y902268D01*
X691780Y914000D02*
X693748Y915968D01*
X851780Y914000D02*
X854804Y917024D01*
X1021780Y914000D02*
X1027480Y919700D01*
X1038288Y769904D02*
X1040232Y767960D01*
X693748Y915968D02*
Y1034000D01*
X758708Y905142D02*
X770441Y893410D01*
X1027480Y919700D02*
Y1032976D01*
X310000Y-1768528D02*
Y-1699464D01*
X405032Y-1720568D02*
X410000Y-1715600D01*
X853464Y-1536000D02*
X956536D01*
X786858Y-1613434D02*
Y-1536322D01*
X594756Y-1594858D02*
Y-1586000D01*
Y-1594858D02*
X606489Y-1606590D01*
X734644D01*
X525818Y-1583992D02*
X527826Y-1586000D01*
X525818Y-1583992D02*
Y-1526000D01*
X616070Y-1714543D02*
X785606D01*
X598432Y-1696905D02*
X616070Y-1714543D01*
X598432Y-1696905D02*
Y-1691000D01*
X527566Y-1706000D02*
X536661D01*
X572047Y-1741386D02*
X786858D01*
X536661Y-1706000D02*
X572047Y-1741386D01*
X1255464Y-1616000D02*
X1255694Y-1615770D01*
X1019142Y-1664614D02*
X1764614D01*
X1174370Y-1639024D02*
X1188536Y-1624858D01*
Y-1616000D01*
X1019142Y-1639024D02*
X1174370D01*
X1142780Y-1741386D02*
X1188536Y-1787142D01*
X1019142Y-1741386D02*
X1142780D01*
X716035Y-1818021D02*
X767080Y-1766976D01*
X786858D01*
X1016536Y-1856000D02*
X1019142Y-1853394D01*
Y-1792568D01*
X714566Y-1946000D02*
Y-1866000D01*
X785432D02*
X786858Y-1864574D01*
X1259432Y-2330000D02*
X1320000D01*
X1016142Y-2344386D02*
X1137820D01*
X1181298Y-2318796D02*
X1188502Y-2326000D01*
X1016142Y-2318796D02*
X1181298D01*
X311856Y-2386008D02*
X315032Y-2382832D01*
Y-2314906D01*
X764080Y-2369976D02*
X783858D01*
X707480Y-2473560D02*
X709598Y-2471442D01*
X780464D02*
X783858Y-2468048D01*
Y-2395568D01*
X601764Y-2173568D02*
X670220Y-2242024D01*
X783858D01*
X539284Y-2169160D02*
X541566Y-2171442D01*
X853464Y-2141000D02*
X853818Y-2140646D01*
X1013464Y-2456000D02*
X1016142Y-2453322D01*
Y-2216434D02*
Y-2143008D01*
Y-2453322D02*
Y-2395568D01*
X783858Y-2216434D02*
Y-2143678D01*
X1013780Y-2140646D02*
X1016142Y-2143008D01*
X853818Y-2140646D02*
X946850D01*
X783858Y-2143678D02*
X786536Y-2141000D01*
X956536Y-346513D02*
Y-341142D01*
X903000Y-360000D02*
X908402Y-354598D01*
X-100000Y-200000D02*
X0D01*
X-100000Y-100000D02*
X0D01*
X783543Y113394D02*
X856968D01*
X780945Y115992D02*
X783543Y113394D01*
X962677Y-22276D02*
Y32764D01*
X950945Y-34008D02*
X962677Y-22276D01*
X980984Y75992D02*
X985984Y80992D01*
X1071000D01*
X930551Y109693D02*
X964252Y75992D01*
X930551Y109693D02*
Y178354D01*
X964252Y75992D02*
X980984D01*
X1043053Y-172947D02*
X1178482Y-37518D01*
X1043053Y-175166D02*
Y-172947D01*
X1163750Y-166000D02*
X1225923D01*
X1492787Y100864D01*
X1150750Y-179000D02*
X1163750Y-166000D01*
X1328965Y-20532D02*
X1462787Y113290D01*
X850000Y-166000D02*
X946402Y-69598D01*
X1028336D01*
X1119412Y21478D02*
X1230580D01*
X1028336Y-69598D02*
X1119412Y21478D01*
X962677Y32764D02*
X968504Y38590D01*
X951574Y-167574D02*
X1098615Y-20532D01*
X1178482Y-37518D02*
X1333192D01*
X1513946Y-2267614D02*
X1652928Y-2128632D01*
X1016142Y-2267614D02*
X1513946D01*
X1652928Y-2128632D02*
Y-1947072D01*
X1800000Y-1800000D01*
X1397512Y-2125567D02*
X1410118D01*
X1038921Y-1766976D02*
X1397512Y-2125567D01*
X509551Y-1375000D02*
X959632D01*
X259449Y-1124897D02*
X509551Y-1375000D01*
X359449Y-1124897D02*
X389882Y-1155330D01*
X754424D01*
X732527Y-1030063D02*
X764078Y-1061614D01*
X368540Y-1030063D02*
X732527D01*
X271733Y-1034803D02*
X363800D01*
X290000Y-525977D02*
X300591Y-536568D01*
X373706D01*
X464613Y-445661D02*
X612212D01*
X626347Y-459796D02*
X783858D01*
X280000Y-970150D02*
Y-891432D01*
X280000Y-970150D02*
X280000Y-970150D01*
X290000Y-525977D02*
Y-454874D01*
X1016142Y-562158D02*
X1035923D01*
X1439765Y-966000D01*
Y-1004998D02*
Y-966000D01*
X1681779Y-1068678D02*
Y-961653D01*
X1641889Y-1160000D02*
X1796569D01*
X1883431Y-1060000D02*
X1896569D01*
X1268498Y-1542934D02*
Y-1533392D01*
X1641889Y-1160000D01*
X1580127Y-1170330D02*
X1681779Y-1068678D01*
X1546512Y-1225158D02*
X1696779Y-1074891D01*
X1796569Y-960000D02*
X1843501Y-913068D01*
X1783431Y-960000D02*
X1796569D01*
X1215268Y-1225158D02*
X1546512D01*
X1696779Y-1046652D02*
X1783431Y-960000D01*
X1696779Y-1074891D02*
Y-1046652D01*
X1840000Y-1116569D02*
Y-1103431D01*
X1783431Y-860000D02*
X1796569D01*
X1255464Y-1121654D02*
Y-1112796D01*
X1896569Y-1060000D02*
X1940000Y-1016568D01*
X1304141Y-1170330D02*
X1580127D01*
X1796569Y-860000D02*
X1840000Y-816568D01*
Y-803432D01*
X1247078Y-994756D02*
Y-870000D01*
X1242628Y-1542673D02*
Y-1533130D01*
X1242367Y-1542934D02*
X1242628Y-1542673D01*
X1094599Y-354598D02*
X1100000Y-360000D01*
X1800000Y-500000D02*
X1800000D01*
X1843501Y-856499D02*
X1900000Y-800000D01*
X755164Y-2259708D02*
X763069Y-2267614D01*
X1940000Y-2310497D02*
Y-1840000D01*
X1761757Y-2488740D02*
X1940000Y-2310497D01*
X1264458Y-2488740D02*
X1761757D01*
X1800000Y-1700000D02*
X1800000D01*
X410000Y-1637426D02*
X739890D01*
X784414Y38590D02*
X856968D01*
X770824Y25000D02*
X784414Y38590D01*
X1163465Y241142D02*
X1175197Y229410D01*
X1163465Y241142D02*
Y250000D01*
X1163465Y186678D02*
X1175197Y198410D01*
X1163465Y180000D02*
Y186678D01*
X912913Y201898D02*
X930551Y219536D01*
X912913Y195992D02*
Y201898D01*
X968504Y38590D02*
X1094150D01*
X1228377Y172818D01*
X1247078D01*
X1265779Y249590D02*
X1332346Y316158D01*
Y332346D01*
X1247078Y249590D02*
X1265779D01*
X363800Y-1034803D02*
X368540Y-1030063D01*
X326764Y-2259708D02*
X755164D01*
X912913Y195992D02*
X930551Y178354D01*
Y219536D02*
X1074928D01*
X1096535Y241142D01*
Y250000D01*
X1071000Y80992D02*
X1076000Y85992D01*
X782382Y-2345862D02*
X783858Y-2344386D01*
X782382Y-2317319D02*
X783858Y-2318796D01*
X1175197Y229410D02*
X1221412D01*
X1226822Y224000D01*
X1247078D01*
X1410118Y-2125567D02*
X1440551Y-2156000D01*
X1439765Y-1004998D02*
X1440766Y-1006000D01*
X760000Y25000D02*
X770824D01*
X1175197Y198410D02*
X1247078D01*
X1332346Y332346D02*
X1340000Y340000D01*
X856968Y-6961D02*
Y38590D01*
Y-6961D02*
X884016Y-34008D01*
D13*
X1850000Y200000D02*
D03*
X-50000D02*
D03*
X75000Y-2400000D02*
D03*
X1725000D02*
D03*
D14*
X1800000Y0D02*
D03*
Y-100000D02*
D03*
Y-200000D02*
D03*
Y-300000D02*
D03*
Y-400000D02*
D03*
Y-500000D02*
D03*
Y-600000D02*
D03*
Y-700000D02*
D03*
Y-800000D02*
D03*
Y-900000D02*
D03*
Y-1000000D02*
D03*
Y-1100000D02*
D03*
Y-1200000D02*
D03*
Y-1300000D02*
D03*
Y-1400000D02*
D03*
Y-1500000D02*
D03*
Y-1600000D02*
D03*
Y-1700000D02*
D03*
Y-1800000D02*
D03*
Y-1900000D02*
D03*
Y-2000000D02*
D03*
Y-2100000D02*
D03*
Y-2200000D02*
D03*
X1900000Y-100000D02*
D03*
Y-200000D02*
D03*
Y-300000D02*
D03*
Y-400000D02*
D03*
Y-500000D02*
D03*
Y-600000D02*
D03*
Y-700000D02*
D03*
Y-800000D02*
D03*
Y-900000D02*
D03*
Y-1000000D02*
D03*
Y-1100000D02*
D03*
Y-1200000D02*
D03*
Y-1300000D02*
D03*
Y-1400000D02*
D03*
Y-1500000D02*
D03*
Y-1600000D02*
D03*
Y-1700000D02*
D03*
Y-1800000D02*
D03*
Y-1900000D02*
D03*
Y-2000000D02*
D03*
Y-2100000D02*
D03*
Y-2200000D02*
D03*
X0Y0D02*
D03*
X-100000D02*
D03*
Y-100000D02*
D03*
Y-200000D02*
D03*
Y-300000D02*
D03*
Y-400000D02*
D03*
Y-500000D02*
D03*
Y-600000D02*
D03*
Y-700000D02*
D03*
Y-800000D02*
D03*
Y-900000D02*
D03*
Y-1000000D02*
D03*
Y-1100000D02*
D03*
Y-1200000D02*
D03*
Y-1300000D02*
D03*
Y-1400000D02*
D03*
Y-1500000D02*
D03*
Y-1600000D02*
D03*
Y-1700000D02*
D03*
Y-1800000D02*
D03*
Y-1900000D02*
D03*
Y-2000000D02*
D03*
Y-2100000D02*
D03*
Y-2200000D02*
D03*
X0Y-100000D02*
D03*
Y-200000D02*
D03*
Y-300000D02*
D03*
Y-400000D02*
D03*
Y-500000D02*
D03*
Y-600000D02*
D03*
Y-700000D02*
D03*
Y-800000D02*
D03*
Y-900000D02*
D03*
Y-1000000D02*
D03*
Y-1100000D02*
D03*
Y-1200000D02*
D03*
Y-1300000D02*
D03*
Y-1400000D02*
D03*
Y-1500000D02*
D03*
Y-1600000D02*
D03*
Y-1700000D02*
D03*
Y-1800000D02*
D03*
Y-1900000D02*
D03*
Y-2000000D02*
D03*
Y-2100000D02*
D03*
Y-2200000D02*
D03*
X1900000Y0D02*
D03*
D15*
X711614Y-740000D02*
D03*
D16*
X1436200Y590000D02*
D03*
X363800D02*
D03*
D17*
X525700D02*
D03*
X1274300Y588400D02*
D03*
D18*
X150000Y0D02*
D03*
D19*
Y-100000D02*
D03*
Y-200000D02*
D03*
Y-300000D02*
D03*
D20*
X1440551Y-2156000D02*
D03*
X1540551D02*
D03*
X359449D02*
D03*
X259449D02*
D03*
Y-1124897D02*
D03*
X359449D02*
D03*
X1440551D02*
D03*
X1540551D02*
D03*
D21*
X1150000Y-166000D02*
D03*
X1050000D02*
D03*
X950000D02*
D03*
X850000D02*
D03*
X750000D02*
D03*
X650000D02*
D03*
D22*
X693748Y1035992D02*
D03*
X854804Y1034000D02*
D03*
X1027480Y1035992D02*
D03*
X1255694Y-1546196D02*
D03*
X707480Y-2544008D02*
D03*
X714566Y-1946000D02*
D03*
Y-1340000D02*
D03*
X1320000Y-2330000D02*
D03*
X1186536Y-1860000D02*
D03*
X1370000Y-410000D02*
D03*
Y-509796D02*
D03*
X1420000Y120000D02*
D03*
X631000Y1079000D02*
D03*
X607000Y637000D02*
D03*
X1260000Y-2143678D02*
D03*
X1076000D02*
D03*
X1080000Y-1540000D02*
D03*
X1100000Y-360000D02*
D03*
X1090000Y-940000D02*
D03*
X1247078Y-870000D02*
D03*
X620000Y-600000D02*
D03*
X903000Y-360000D02*
D03*
X1100000Y-2450000D02*
D03*
X150000Y-2250000D02*
D03*
X1303180Y530000D02*
D03*
X990000D02*
D03*
X1200000Y660000D02*
D03*
X410000Y-1637426D02*
D03*
X1444566Y-1716000D02*
D03*
X640000Y-2006000D02*
D03*
X485032Y-2421442D02*
D03*
X1076000Y85992D02*
D03*
X440000Y-1030063D02*
D03*
X290000Y-454874D02*
D03*
X1440766Y-1006000D02*
D03*
X760000Y25000D02*
D03*
X1340000Y340000D02*
D03*
D23*
X943306Y-1056694D02*
D03*
X900000D02*
D03*
X856692D02*
D03*
X943306Y-1100000D02*
D03*
X900000D02*
D03*
X856692D02*
D03*
X943306Y-1143308D02*
D03*
X900000D02*
D03*
X856692D02*
D03*
X859692Y-1746308D02*
D03*
X903000D02*
D03*
X946306D02*
D03*
X859692Y-1703000D02*
D03*
X903000D02*
D03*
X946306D02*
D03*
X859692Y-1659694D02*
D03*
X903000D02*
D03*
X946306D02*
D03*
X856692Y-2349308D02*
D03*
X900000D02*
D03*
X943306D02*
D03*
X856692Y-2306000D02*
D03*
X900000D02*
D03*
X943306D02*
D03*
X856692Y-2262694D02*
D03*
X900000D02*
D03*
X943306D02*
D03*
Y-454874D02*
D03*
X900000D02*
D03*
X856692D02*
D03*
X943306Y-498182D02*
D03*
X900000D02*
D03*
X856692D02*
D03*
X943306Y-541488D02*
D03*
X900000D02*
D03*
X856692D02*
D03*
D24*
X280000Y-664568D02*
D03*
Y-735434D02*
D03*
X363800Y-540568D02*
D03*
Y-611434D02*
D03*
X280000Y-891432D02*
D03*
Y-820566D02*
D03*
X363800Y-1030188D02*
D03*
Y-959322D02*
D03*
X311856Y-1825745D02*
D03*
Y-1754879D02*
D03*
X405032Y-1791434D02*
D03*
Y-1720568D02*
D03*
X311856Y-2456874D02*
D03*
Y-2386008D02*
D03*
X557315Y-2350339D02*
D03*
Y-2279473D02*
D03*
D25*
X280000Y-1037078D02*
D03*
Y-970150D02*
D03*
X310000Y-1699464D02*
D03*
Y-1632536D02*
D03*
X315032Y-2314906D02*
D03*
Y-2247976D02*
D03*
X280000Y-528694D02*
D03*
Y-595622D02*
D03*
D26*
X537047Y-304008D02*
D03*
X568543D02*
D03*
X534976Y-914008D02*
D03*
X566471D02*
D03*
X557314Y-1526000D02*
D03*
X525818D02*
D03*
X570780Y-2103960D02*
D03*
X539284D02*
D03*
D27*
X1016142Y-1010434D02*
D03*
Y-1036024D02*
D03*
Y-1061614D02*
D03*
Y-1087204D02*
D03*
Y-1112796D02*
D03*
Y-1138386D02*
D03*
Y-1163976D02*
D03*
Y-1189568D02*
D03*
X783858Y-1010434D02*
D03*
Y-1036024D02*
D03*
Y-1061614D02*
D03*
Y-1087204D02*
D03*
Y-1112796D02*
D03*
Y-1138386D02*
D03*
Y-1163976D02*
D03*
Y-1189568D02*
D03*
X786858Y-1792568D02*
D03*
Y-1766976D02*
D03*
Y-1741386D02*
D03*
Y-1715796D02*
D03*
Y-1690204D02*
D03*
Y-1664614D02*
D03*
Y-1639024D02*
D03*
Y-1613434D02*
D03*
X1019142Y-1792568D02*
D03*
Y-1766976D02*
D03*
Y-1741386D02*
D03*
Y-1715796D02*
D03*
Y-1690204D02*
D03*
Y-1664614D02*
D03*
Y-1639024D02*
D03*
Y-1613434D02*
D03*
X783858Y-2395568D02*
D03*
Y-2369976D02*
D03*
Y-2344386D02*
D03*
Y-2318796D02*
D03*
Y-2293204D02*
D03*
Y-2267614D02*
D03*
Y-2242024D02*
D03*
Y-2216434D02*
D03*
X1016142Y-2395568D02*
D03*
Y-2369976D02*
D03*
Y-2344386D02*
D03*
Y-2318796D02*
D03*
Y-2293204D02*
D03*
Y-2267614D02*
D03*
Y-2242024D02*
D03*
Y-2216434D02*
D03*
Y-408614D02*
D03*
Y-434204D02*
D03*
Y-459796D02*
D03*
Y-485386D02*
D03*
Y-510976D02*
D03*
Y-536568D02*
D03*
Y-562158D02*
D03*
Y-587748D02*
D03*
X783858Y-408614D02*
D03*
Y-434204D02*
D03*
Y-459796D02*
D03*
Y-485386D02*
D03*
Y-510976D02*
D03*
Y-536568D02*
D03*
Y-562158D02*
D03*
Y-587748D02*
D03*
D28*
X900000Y-1100000D02*
D03*
X903000Y-1703000D02*
D03*
X900000Y-2306000D02*
D03*
Y-498182D02*
D03*
D29*
X526088Y747360D02*
D03*
X565488D02*
D03*
X604888D02*
D03*
X644288D02*
D03*
X683688D02*
D03*
X723088D02*
D03*
X762488D02*
D03*
X801888D02*
D03*
X841288D02*
D03*
X880688D02*
D03*
X920088D02*
D03*
X959488D02*
D03*
X998888D02*
D03*
X1038288D02*
D03*
X1077688D02*
D03*
X1117088D02*
D03*
X1156488D02*
D03*
X1195888D02*
D03*
X1235288D02*
D03*
X1274688D02*
D03*
X525700Y432640D02*
D03*
X565100D02*
D03*
X604500D02*
D03*
X643900D02*
D03*
X683300D02*
D03*
X722700D02*
D03*
X762100D02*
D03*
X801500D02*
D03*
X840900D02*
D03*
X880300D02*
D03*
X919700D02*
D03*
X959100D02*
D03*
X998500D02*
D03*
X1037900D02*
D03*
X1077300D02*
D03*
X1116700D02*
D03*
X1156100D02*
D03*
X1195500D02*
D03*
X1234900D02*
D03*
X1274300D02*
D03*
D30*
X527566Y-1691000D02*
D03*
X598432D02*
D03*
X714566Y-1866000D02*
D03*
X785432D02*
D03*
X585432Y-484204D02*
D03*
X514566D02*
D03*
X785432Y-660000D02*
D03*
X714566D02*
D03*
X585432Y-1087204D02*
D03*
X514566D02*
D03*
X785432Y-1270000D02*
D03*
X714566D02*
D03*
X709598Y-2471442D02*
D03*
X780464D02*
D03*
X842047Y195992D02*
D03*
X912913D02*
D03*
D31*
X1247078Y172818D02*
D03*
Y198410D02*
D03*
Y224000D02*
D03*
Y249590D02*
D03*
Y275180D02*
D03*
X1426212Y172818D02*
D03*
Y198410D02*
D03*
Y224000D02*
D03*
Y249590D02*
D03*
Y275180D02*
D03*
D32*
X980984Y38590D02*
D03*
Y75992D02*
D03*
Y113394D02*
D03*
X856968D02*
D03*
Y75992D02*
D03*
Y38590D02*
D03*
D33*
X714566Y-2347716D02*
D03*
Y-2312283D02*
D03*
%TF.MD5,d7e17581b3c14ad06b45c3cdfe91eff9*%
M02*
