G04 Layer_Color=8388736*
%FSLAX26Y26*%
%MOIN*%
%TF.FileFunction,Soldermask,Top*%
%TF.Part,Single*%
G01*
G75*
%TA.AperFunction,SMDPad,CuDef*%
%ADD38R,0.045402X0.061150*%
%ADD39R,0.041465X0.059181*%
%TA.AperFunction,ComponentPad*%
%ADD40C,0.165480*%
%ADD41C,0.068000*%
%TA.AperFunction,ViaPad*%
%ADD42C,0.068000*%
%TA.AperFunction,ComponentPad*%
%ADD43C,0.108000*%
%ADD44C,0.055000*%
%ADD45R,0.067055X0.067055*%
%ADD46C,0.067055*%
%ADD47R,0.078866X0.078866*%
%ADD48C,0.078866*%
%TA.AperFunction,ViaPad*%
%ADD49C,0.058000*%
%ADD50C,0.027685*%
D38*
X756740Y895992D02*
D03*
X693748D02*
D03*
X918976D02*
D03*
X855984D02*
D03*
X1088976Y898229D02*
D03*
X1025985D02*
D03*
D39*
X933464Y660000D02*
D03*
X866536D02*
D03*
X1046536Y530000D02*
D03*
X1113464D02*
D03*
X933464D02*
D03*
X866536D02*
D03*
D40*
X1850000Y200000D02*
D03*
X-50000D02*
D03*
X75000Y-2400000D02*
D03*
X1725000D02*
D03*
D41*
X1800000Y0D02*
D03*
Y-100000D02*
D03*
Y-200000D02*
D03*
Y-300000D02*
D03*
Y-400000D02*
D03*
Y-500000D02*
D03*
Y-600000D02*
D03*
Y-700000D02*
D03*
Y-800000D02*
D03*
Y-900000D02*
D03*
Y-1000000D02*
D03*
Y-1100000D02*
D03*
Y-1200000D02*
D03*
Y-1300000D02*
D03*
Y-1400000D02*
D03*
Y-1500000D02*
D03*
Y-1600000D02*
D03*
Y-1700000D02*
D03*
Y-1800000D02*
D03*
Y-1900000D02*
D03*
Y-2000000D02*
D03*
Y-2100000D02*
D03*
Y-2200000D02*
D03*
X1900000Y-100000D02*
D03*
Y-200000D02*
D03*
Y-300000D02*
D03*
Y-400000D02*
D03*
Y-500000D02*
D03*
Y-600000D02*
D03*
Y-700000D02*
D03*
Y-800000D02*
D03*
Y-900000D02*
D03*
Y-1000000D02*
D03*
Y-1100000D02*
D03*
Y-1200000D02*
D03*
Y-1300000D02*
D03*
Y-1400000D02*
D03*
Y-1500000D02*
D03*
Y-1600000D02*
D03*
Y-1700000D02*
D03*
Y-1800000D02*
D03*
Y-1900000D02*
D03*
Y-2000000D02*
D03*
Y-2100000D02*
D03*
Y-2200000D02*
D03*
X0Y0D02*
D03*
X-100000D02*
D03*
Y-100000D02*
D03*
Y-200000D02*
D03*
Y-300000D02*
D03*
Y-400000D02*
D03*
Y-500000D02*
D03*
Y-600000D02*
D03*
Y-700000D02*
D03*
Y-800000D02*
D03*
Y-900000D02*
D03*
Y-1000000D02*
D03*
Y-1100000D02*
D03*
Y-1200000D02*
D03*
Y-1300000D02*
D03*
Y-1400000D02*
D03*
Y-1500000D02*
D03*
Y-1600000D02*
D03*
Y-1700000D02*
D03*
Y-1800000D02*
D03*
Y-1900000D02*
D03*
Y-2000000D02*
D03*
Y-2100000D02*
D03*
Y-2200000D02*
D03*
X0Y-100000D02*
D03*
Y-200000D02*
D03*
Y-300000D02*
D03*
Y-400000D02*
D03*
Y-500000D02*
D03*
Y-600000D02*
D03*
Y-700000D02*
D03*
Y-800000D02*
D03*
Y-900000D02*
D03*
Y-1000000D02*
D03*
Y-1100000D02*
D03*
Y-1200000D02*
D03*
Y-1300000D02*
D03*
Y-1400000D02*
D03*
Y-1500000D02*
D03*
Y-1600000D02*
D03*
Y-1700000D02*
D03*
Y-1800000D02*
D03*
Y-1900000D02*
D03*
Y-2000000D02*
D03*
Y-2100000D02*
D03*
Y-2200000D02*
D03*
X1900000Y0D02*
D03*
D42*
X711614Y-740000D02*
D03*
D43*
X1436200Y590000D02*
D03*
X363800D02*
D03*
D44*
X525700D02*
D03*
X1274300Y588400D02*
D03*
D45*
X150000Y0D02*
D03*
D46*
Y-100000D02*
D03*
Y-200000D02*
D03*
Y-300000D02*
D03*
D47*
X1440551Y-2156000D02*
D03*
X1540551D02*
D03*
X359449D02*
D03*
X259449D02*
D03*
Y-1124897D02*
D03*
X359449D02*
D03*
X1440551D02*
D03*
X1540551D02*
D03*
D48*
X1150000Y-166000D02*
D03*
X1050000D02*
D03*
X950000D02*
D03*
X850000D02*
D03*
X750000D02*
D03*
X650000D02*
D03*
D49*
X693748Y1035992D02*
D03*
X854804Y1034000D02*
D03*
X1027480Y1035992D02*
D03*
X1255694Y-1546196D02*
D03*
X707480Y-2544008D02*
D03*
X714566Y-1946000D02*
D03*
Y-1340000D02*
D03*
X1320000Y-2330000D02*
D03*
X1186536Y-1860000D02*
D03*
X1370000Y-410000D02*
D03*
Y-509796D02*
D03*
X1420000Y120000D02*
D03*
X631000Y1079000D02*
D03*
X607000Y637000D02*
D03*
X1260000Y-2143678D02*
D03*
X1076000D02*
D03*
X1080000Y-1540000D02*
D03*
X1100000Y-360000D02*
D03*
X1090000Y-940000D02*
D03*
X1247078Y-870000D02*
D03*
X620000Y-600000D02*
D03*
X903000Y-360000D02*
D03*
X1100000Y-2450000D02*
D03*
X150000Y-2250000D02*
D03*
X1303180Y530000D02*
D03*
X990000D02*
D03*
X1200000Y660000D02*
D03*
X410000Y-1637426D02*
D03*
X1444566Y-1716000D02*
D03*
X640000Y-2006000D02*
D03*
X485032Y-2421442D02*
D03*
X1076000Y85992D02*
D03*
X440000Y-1030063D02*
D03*
X290000Y-454874D02*
D03*
X1440766Y-1006000D02*
D03*
X760000Y25000D02*
D03*
X1340000Y340000D02*
D03*
D50*
X943306Y-1056694D02*
D03*
X900000D02*
D03*
X856692D02*
D03*
X943306Y-1100000D02*
D03*
X900000D02*
D03*
X856692D02*
D03*
X943306Y-1143308D02*
D03*
X900000D02*
D03*
X856692D02*
D03*
X859692Y-1746308D02*
D03*
X903000D02*
D03*
X946306D02*
D03*
X859692Y-1703000D02*
D03*
X903000D02*
D03*
X946306D02*
D03*
X859692Y-1659694D02*
D03*
X903000D02*
D03*
X946306D02*
D03*
X856692Y-2349308D02*
D03*
X900000D02*
D03*
X943306D02*
D03*
X856692Y-2306000D02*
D03*
X900000D02*
D03*
X943306D02*
D03*
X856692Y-2262694D02*
D03*
X900000D02*
D03*
X943306D02*
D03*
Y-454874D02*
D03*
X900000D02*
D03*
X856692D02*
D03*
X943306Y-498182D02*
D03*
X900000D02*
D03*
X856692D02*
D03*
X943306Y-541488D02*
D03*
X900000D02*
D03*
X856692D02*
D03*
%TF.MD5,a2bac3989814603b3c79222eea19c25c*%
M02*
