G04 Layer_Color=32896*
%FSLAX26Y26*%
%MOIN*%
%TF.FileFunction,Legend,Bot*%
%TF.Part,Single*%
G01*
G75*
%TA.AperFunction,NonConductor*%
%ADD34C,0.009842*%
%ADD35C,0.023622*%
%ADD36C,0.007874*%
%ADD37C,0.010000*%
D34*
X1021063Y-979921D02*
G03*
X1021063Y-979921I-4921J0D01*
G01*
X1024063Y-1582921D02*
G03*
X1024063Y-1582921I-4921J0D01*
G01*
X1021063Y-2185921D02*
G03*
X1021063Y-2185921I-4921J0D01*
G01*
X1252000Y143291D02*
G03*
X1252000Y143291I-4921J0D01*
G01*
X1021063Y-378102D02*
G03*
X1021063Y-378102I-4921J0D01*
G01*
X861890Y6110D02*
G03*
X861890Y6110I-4921J0D01*
G01*
D35*
X1340583Y200378D02*
G03*
X1340583Y200378I-11811J0D01*
G01*
D36*
X1220032Y-2241630D02*
X1223968D01*
X1220032Y-2198322D02*
X1223968D01*
X563132Y-1001654D02*
X567068D01*
X563132Y-958346D02*
X567068D01*
X255394Y-701968D02*
Y-698032D01*
X304606Y-701968D02*
Y-698032D01*
X339194Y-577968D02*
Y-574032D01*
X388406Y-577968D02*
Y-574032D01*
X301654Y-1005582D02*
Y-1001646D01*
X258346Y-1005582D02*
Y-1001646D01*
X304606Y-857968D02*
Y-854032D01*
X255394Y-857968D02*
Y-854032D01*
X388406Y-996724D02*
Y-992788D01*
X339194Y-996724D02*
Y-992788D01*
X1128031Y158346D02*
X1131969D01*
X1128031Y201654D02*
X1131969D01*
X1128031Y271654D02*
X1131969D01*
X1128031Y228346D02*
X1131969D01*
X827166Y-999606D02*
X972834D01*
X827166Y-1200394D02*
X972834D01*
X723276Y892346D02*
X727212D01*
X723276Y935654D02*
X727212D01*
X883276Y892346D02*
X887212D01*
X883276Y935654D02*
X887212D01*
X1053276Y892346D02*
X1057212D01*
X1053276Y935654D02*
X1057212D01*
X1218032Y-988346D02*
X1221968D01*
X1218032Y-1031654D02*
X1221968D01*
X1186566Y-278346D02*
X1190504D01*
X1186566Y-321654D02*
X1190504D01*
X808032Y-318346D02*
X811968D01*
X808032Y-361654D02*
X811968D01*
X331654Y-1667968D02*
Y-1664032D01*
X288346Y-1667968D02*
Y-1664032D01*
X336462Y-1792281D02*
Y-1788343D01*
X287250Y-1792281D02*
Y-1788343D01*
X429638Y-1757968D02*
Y-1754032D01*
X380424Y-1757968D02*
Y-1754032D01*
X818032Y-1557654D02*
X821968D01*
X818032Y-1514346D02*
X821968D01*
X559322Y-1564346D02*
X563260D01*
X559322Y-1607654D02*
X563260D01*
X561032Y-1715606D02*
X564968D01*
X561032Y-1666394D02*
X564968D01*
X1220032Y-1737654D02*
X1223968D01*
X1220032Y-1694346D02*
X1223968D01*
X830166Y-1803394D02*
X975834D01*
X830166Y-1602606D02*
X975834D01*
X988032Y-1877654D02*
X991968D01*
X988032Y-1834346D02*
X991968D01*
X748032Y-1890606D02*
X751968D01*
X748032Y-1841394D02*
X751968D01*
X978032Y-628346D02*
X981968D01*
X978032Y-671654D02*
X981968D01*
X1184566Y-611654D02*
X1188504D01*
X1184566Y-568346D02*
X1188504D01*
X1184566Y-398346D02*
X1188504D01*
X1184566Y-441654D02*
X1188504D01*
X563132Y-391654D02*
X567068D01*
X563132Y-348346D02*
X567068D01*
X548032Y-459598D02*
X551968D01*
X548032Y-508812D02*
X551968D01*
X748032Y-635394D02*
X751968D01*
X748032Y-684606D02*
X751968D01*
X988032Y-1514346D02*
X991968D01*
X988032Y-1557654D02*
X991968D01*
X548032Y-1062598D02*
X551968D01*
X548032Y-1111812D02*
X551968D01*
X1220032Y-1211220D02*
X1223968D01*
X1220032Y-1167914D02*
X1223968D01*
X1184566Y-488142D02*
X1188504D01*
X1184566Y-531448D02*
X1188504D01*
X1220032Y-1637654D02*
X1223968D01*
X1220032Y-1594346D02*
X1223968D01*
X978727Y-1242354D02*
X982663D01*
X978727Y-1285662D02*
X982663D01*
X988032Y-961654D02*
X991968D01*
X988032Y-918346D02*
X991968D01*
X808032D02*
X811968D01*
X808032Y-961654D02*
X811968D01*
X748032Y-1245394D02*
X751968D01*
X748032Y-1294606D02*
X751968D01*
X336684Y-2283410D02*
Y-2279472D01*
X293378Y-2283410D02*
Y-2279472D01*
X336462Y-2423410D02*
Y-2419472D01*
X287250Y-2423410D02*
Y-2419472D01*
X581921Y-2316875D02*
Y-2312937D01*
X532707Y-2316875D02*
Y-2312937D01*
X827166Y-2406394D02*
X972834D01*
X827166Y-2205606D02*
X972834D01*
X1220032Y-2382308D02*
X1223968D01*
X1220032Y-2425614D02*
X1223968D01*
X1220032Y-2347654D02*
X1223968D01*
X1220032Y-2304346D02*
X1223968D01*
X991679Y-355662D02*
X995615D01*
X991679Y-312354D02*
X995615D01*
X1220032Y-1774346D02*
X1223968D01*
X1220032Y-1817654D02*
X1223968D01*
X983062Y-2483094D02*
X987000D01*
X983062Y-2439788D02*
X987000D01*
X978346Y-2118992D02*
X982284D01*
X978346Y-2162300D02*
X982284D01*
X818032Y-2162654D02*
X821968D01*
X818032Y-2119346D02*
X821968D01*
X573062Y-2149788D02*
X577000D01*
X573062Y-2193094D02*
X577000D01*
X743062Y-2496048D02*
X747000D01*
X743062Y-2446834D02*
X747000D01*
X1289402Y161008D02*
Y286992D01*
X1383890Y161008D02*
Y286992D01*
X1289402Y161008D02*
X1383890D01*
X1289402Y286992D02*
X1383890D01*
X1220032Y-1091142D02*
X1223968D01*
X1220032Y-1134448D02*
X1223968D01*
X258346Y-564126D02*
Y-560190D01*
X301654Y-564126D02*
Y-560190D01*
X827166Y-397788D02*
X972834D01*
X827166Y-598574D02*
X972834D01*
X100000Y-350000D02*
X200000D01*
Y50000D01*
X100000Y-350000D02*
Y50000D01*
X200000D01*
X745512Y94339D02*
X749449D01*
X745512Y137646D02*
X749449D01*
X915512Y-12354D02*
X919449D01*
X915512Y-55661D02*
X919449D01*
X938661Y16937D02*
Y135047D01*
X899291Y16937D02*
Y135047D01*
X938661D01*
X899291Y16937D02*
X938661D01*
X875512Y171386D02*
X879449D01*
X875512Y220599D02*
X879449D01*
X1394000Y-2239795D02*
Y-2200438D01*
X1374321D01*
X1367762Y-2206997D01*
Y-2220116D01*
X1374321Y-2226676D01*
X1394000D01*
X1380881D02*
X1367762Y-2239795D01*
X1328404Y-2200438D02*
X1354643D01*
Y-2220116D01*
X1341524Y-2213557D01*
X1334964D01*
X1328404Y-2220116D01*
Y-2233235D01*
X1334964Y-2239795D01*
X1348083D01*
X1354643Y-2233235D01*
X732464Y-989409D02*
Y-950052D01*
X712785D01*
X706226Y-956611D01*
Y-969731D01*
X712785Y-976290D01*
X732464D01*
X719345D02*
X706226Y-989409D01*
X666868D02*
X693106D01*
X666868Y-963171D01*
Y-956611D01*
X673428Y-950052D01*
X686547D01*
X693106Y-956611D01*
X627511Y-950052D02*
X640630Y-956611D01*
X653749Y-969731D01*
Y-982850D01*
X647189Y-989409D01*
X634070D01*
X627511Y-982850D01*
Y-976290D01*
X634070Y-969731D01*
X653749D01*
X900000Y-635680D02*
Y-668478D01*
X893440Y-675038D01*
X880321D01*
X873762Y-668478D01*
Y-635680D01*
X834404Y-675038D02*
X860643D01*
X834404Y-648799D01*
Y-642240D01*
X840964Y-635680D01*
X854083D01*
X860643Y-642240D01*
X1390000Y-1210000D02*
Y-1170643D01*
X1370321D01*
X1363762Y-1177202D01*
Y-1190321D01*
X1370321Y-1196881D01*
X1390000D01*
X1376881D02*
X1363762Y-1210000D01*
X1350643Y-1177202D02*
X1344083Y-1170643D01*
X1330964D01*
X1324404Y-1177202D01*
Y-1183762D01*
X1330964Y-1190321D01*
X1337524D01*
X1330964D01*
X1324404Y-1196881D01*
Y-1203440D01*
X1330964Y-1210000D01*
X1344083D01*
X1350643Y-1203440D01*
X1311285Y-1177202D02*
X1304726Y-1170643D01*
X1291607D01*
X1285047Y-1177202D01*
Y-1203440D01*
X1291607Y-1210000D01*
X1304726D01*
X1311285Y-1203440D01*
Y-1177202D01*
X1348604Y115350D02*
Y82552D01*
X1342044Y75992D01*
X1328925D01*
X1322366Y82552D01*
Y115350D01*
X1283008D02*
X1296127Y108790D01*
X1309246Y95671D01*
Y82552D01*
X1302687Y75992D01*
X1289568D01*
X1283008Y82552D01*
Y89111D01*
X1289568Y95671D01*
X1309246D01*
X900000Y-1229068D02*
Y-1261866D01*
X893440Y-1268425D01*
X880321D01*
X873762Y-1261866D01*
Y-1229068D01*
X840964Y-1268425D02*
Y-1229068D01*
X860643Y-1248746D01*
X834404D01*
X1190000Y100000D02*
Y139357D01*
X1170321D01*
X1163762Y132798D01*
Y119679D01*
X1170321Y113119D01*
X1190000D01*
X1176881D02*
X1163762Y100000D01*
X1150643Y132798D02*
X1144083Y139357D01*
X1130964D01*
X1124404Y132798D01*
Y126238D01*
X1130964Y119679D01*
X1137524D01*
X1130964D01*
X1124404Y113119D01*
Y106560D01*
X1130964Y100000D01*
X1144083D01*
X1150643Y106560D01*
X1085047Y139357D02*
X1111285D01*
Y119679D01*
X1098166Y126238D01*
X1091607D01*
X1085047Y119679D01*
Y106560D01*
X1091607Y100000D01*
X1104726D01*
X1111285Y106560D01*
X1179803Y293404D02*
Y332762D01*
X1160124D01*
X1153564Y326202D01*
Y313083D01*
X1160124Y306524D01*
X1179803D01*
X1166683D02*
X1153564Y293404D01*
X1140445Y326202D02*
X1133886Y332762D01*
X1120766D01*
X1114207Y326202D01*
Y319643D01*
X1120766Y313083D01*
X1127326D01*
X1120766D01*
X1114207Y306524D01*
Y299964D01*
X1120766Y293404D01*
X1133886D01*
X1140445Y299964D01*
X1081409Y293404D02*
Y332762D01*
X1101088Y313083D01*
X1074850D01*
X1160695Y-1284008D02*
Y-1244650D01*
X1141016D01*
X1134457Y-1251210D01*
Y-1264329D01*
X1141016Y-1270889D01*
X1160695D01*
X1147576D02*
X1134457Y-1284008D01*
X1121337Y-1251210D02*
X1114778Y-1244650D01*
X1101659D01*
X1095099Y-1251210D01*
Y-1257770D01*
X1101659Y-1264329D01*
X1108218D01*
X1101659D01*
X1095099Y-1270889D01*
Y-1277448D01*
X1101659Y-1284008D01*
X1114778D01*
X1121337Y-1277448D01*
X1081980Y-1284008D02*
X1068861D01*
X1075420D01*
Y-1244650D01*
X1081980Y-1251210D01*
X220000Y-956000D02*
X180643D01*
Y-975678D01*
X187202Y-982238D01*
X200321D01*
X206881Y-975678D01*
Y-956000D01*
Y-969119D02*
X220000Y-982238D01*
Y-1021595D02*
Y-995357D01*
X193762Y-1021595D01*
X187202D01*
X180643Y-1015036D01*
Y-1001917D01*
X187202Y-995357D01*
Y-1034715D02*
X180643Y-1041274D01*
Y-1054393D01*
X187202Y-1060953D01*
X193762D01*
X200321Y-1054393D01*
X206881Y-1060953D01*
X213441D01*
X220000Y-1054393D01*
Y-1041274D01*
X213441Y-1034715D01*
X206881D01*
X200321Y-1041274D01*
X193762Y-1034715D01*
X187202D01*
X200321Y-1041274D02*
Y-1054393D01*
X853465Y-900000D02*
Y-860643D01*
X833786D01*
X827226Y-867202D01*
Y-880321D01*
X833786Y-886881D01*
X853465D01*
X840345D02*
X827226Y-900000D01*
X787869D02*
X814107D01*
X787869Y-873762D01*
Y-867202D01*
X794428Y-860643D01*
X807548D01*
X814107Y-867202D01*
X755071Y-900000D02*
Y-860643D01*
X774750Y-880321D01*
X748511D01*
X1023465Y-900000D02*
Y-860643D01*
X1003786D01*
X997226Y-867202D01*
Y-880321D01*
X1003786Y-886881D01*
X1023465D01*
X1010346D02*
X997226Y-900000D01*
X957869D02*
X984107D01*
X957869Y-873762D01*
Y-867202D01*
X964428Y-860643D01*
X977548D01*
X984107Y-867202D01*
X944750D02*
X938190Y-860643D01*
X925071D01*
X918512Y-867202D01*
Y-893440D01*
X925071Y-900000D01*
X938190D01*
X944750Y-893440D01*
Y-867202D01*
X1390000Y-1130000D02*
Y-1090643D01*
X1370321D01*
X1363762Y-1097202D01*
Y-1110321D01*
X1370321Y-1116881D01*
X1390000D01*
X1376881D02*
X1363762Y-1130000D01*
X1350643D02*
X1337524D01*
X1344083D01*
Y-1090643D01*
X1350643Y-1097202D01*
X1317845Y-1123440D02*
X1311285Y-1130000D01*
X1298166D01*
X1291607Y-1123440D01*
Y-1097202D01*
X1298166Y-1090643D01*
X1311285D01*
X1317845Y-1097202D01*
Y-1103762D01*
X1311285Y-1110321D01*
X1291607D01*
X1268236Y-951394D02*
Y-912036D01*
X1248557D01*
X1241998Y-918596D01*
Y-931715D01*
X1248557Y-938275D01*
X1268236D01*
X1255117D02*
X1241998Y-951394D01*
X1228879D02*
X1215760D01*
X1222319D01*
Y-912036D01*
X1228879Y-918596D01*
X1196081D02*
X1189521Y-912036D01*
X1176402D01*
X1169843Y-918596D01*
Y-925156D01*
X1176402Y-931715D01*
X1169843Y-938275D01*
Y-944834D01*
X1176402Y-951394D01*
X1189521D01*
X1196081Y-944834D01*
Y-938275D01*
X1189521Y-931715D01*
X1196081Y-925156D01*
Y-918596D01*
X1189521Y-931715D02*
X1176402D01*
X1030000Y-740000D02*
Y-700643D01*
X1010321D01*
X1003762Y-707202D01*
Y-720321D01*
X1010321Y-726881D01*
X1030000D01*
X1016881D02*
X1003762Y-740000D01*
X990643D02*
X977524D01*
X984083D01*
Y-700643D01*
X990643Y-707202D01*
X931607Y-700643D02*
X957845D01*
Y-720321D01*
X944726Y-713762D01*
X938166D01*
X931607Y-720321D01*
Y-733440D01*
X938166Y-740000D01*
X951285D01*
X957845Y-733440D01*
X1350000Y-610000D02*
Y-570643D01*
X1330321D01*
X1323762Y-577202D01*
Y-590321D01*
X1330321Y-596881D01*
X1350000D01*
X1336881D02*
X1323762Y-610000D01*
X1310643D02*
X1297524D01*
X1304083D01*
Y-570643D01*
X1310643Y-577202D01*
X1258166Y-610000D02*
Y-570643D01*
X1277845Y-590321D01*
X1251607D01*
X190000Y-597591D02*
X229358D01*
Y-577912D01*
X222798Y-571353D01*
X209679D01*
X203119Y-577912D01*
Y-597591D01*
Y-584472D02*
X190000Y-571353D01*
Y-558234D02*
Y-545114D01*
Y-551674D01*
X229358D01*
X222798Y-558234D01*
Y-525436D02*
X229358Y-518876D01*
Y-505757D01*
X222798Y-499197D01*
X196560D01*
X190000Y-505757D01*
Y-518876D01*
X196560Y-525436D01*
X222798D01*
X490000Y-390000D02*
Y-350643D01*
X470321D01*
X463762Y-357202D01*
Y-370321D01*
X470321Y-376881D01*
X490000D01*
X476881D02*
X463762Y-390000D01*
X450643Y-383440D02*
X444083Y-390000D01*
X430964D01*
X424404Y-383440D01*
Y-357202D01*
X430964Y-350643D01*
X444083D01*
X450643Y-357202D01*
Y-363762D01*
X444083Y-370321D01*
X424404D01*
X841289Y-300000D02*
Y-260643D01*
X821610D01*
X815051Y-267202D01*
Y-280321D01*
X821610Y-286881D01*
X841289D01*
X828170D02*
X815051Y-300000D01*
X782253D02*
Y-260643D01*
X801932Y-280321D01*
X775693D01*
X1025427Y-290863D02*
Y-251506D01*
X1005749D01*
X999189Y-258065D01*
Y-271185D01*
X1005749Y-277744D01*
X1025427D01*
X1012308D02*
X999189Y-290863D01*
X986070Y-258065D02*
X979510Y-251506D01*
X966391D01*
X959832Y-258065D01*
Y-264625D01*
X966391Y-271185D01*
X972951D01*
X966391D01*
X959832Y-277744D01*
Y-284304D01*
X966391Y-290863D01*
X979510D01*
X986070Y-284304D01*
X1320000Y-530000D02*
Y-490643D01*
X1300321D01*
X1293762Y-497202D01*
Y-510321D01*
X1300321Y-516881D01*
X1320000D01*
X1306881D02*
X1293762Y-530000D01*
X1254404D02*
X1280643D01*
X1254404Y-503762D01*
Y-497202D01*
X1260964Y-490643D01*
X1274083D01*
X1280643Y-497202D01*
X1309716Y-436976D02*
Y-397619D01*
X1290038D01*
X1283478Y-404178D01*
Y-417298D01*
X1290038Y-423857D01*
X1309716D01*
X1296597D02*
X1283478Y-436976D01*
X1270359D02*
X1257240D01*
X1263800D01*
Y-397619D01*
X1270359Y-404178D01*
X357202Y-836238D02*
X350643Y-829679D01*
Y-816560D01*
X357202Y-810000D01*
X383440D01*
X390000Y-816560D01*
Y-829679D01*
X383440Y-836238D01*
X390000Y-849357D02*
Y-862476D01*
Y-855917D01*
X350643D01*
X357202Y-849357D01*
X390000Y-901834D02*
X350643D01*
X370321Y-882155D01*
Y-908393D01*
X552950Y-851210D02*
X559509Y-844650D01*
X572628D01*
X579188Y-851210D01*
Y-877448D01*
X572628Y-884008D01*
X559509D01*
X552950Y-877448D01*
X539830Y-884008D02*
X526711D01*
X533271D01*
Y-844650D01*
X539830Y-851210D01*
X507033Y-884008D02*
X493913D01*
X500473D01*
Y-844650D01*
X507033Y-851210D01*
X633762Y-647202D02*
X640321Y-640643D01*
X653440D01*
X660000Y-647202D01*
Y-673440D01*
X653440Y-680000D01*
X640321D01*
X633762Y-673440D01*
X594404Y-640643D02*
X607524Y-647202D01*
X620643Y-660321D01*
Y-673440D01*
X614083Y-680000D01*
X600964D01*
X594404Y-673440D01*
Y-666881D01*
X600964Y-660321D01*
X620643D01*
X222798Y-709195D02*
X229357Y-715754D01*
Y-728874D01*
X222798Y-735433D01*
X196560D01*
X190000Y-728874D01*
Y-715754D01*
X196560Y-709195D01*
X229357Y-669837D02*
Y-696076D01*
X209679D01*
X216238Y-682957D01*
Y-676397D01*
X209679Y-669837D01*
X196560D01*
X190000Y-676397D01*
Y-689516D01*
X196560Y-696076D01*
X372129Y-665551D02*
X378688Y-658991D01*
X391808D01*
X398367Y-665551D01*
Y-691789D01*
X391808Y-698349D01*
X378688D01*
X372129Y-691789D01*
X359010Y-665551D02*
X352450Y-658991D01*
X339331D01*
X332772Y-665551D01*
Y-672111D01*
X339331Y-678670D01*
X345891D01*
X339331D01*
X332772Y-685230D01*
Y-691789D01*
X339331Y-698349D01*
X352450D01*
X359010Y-691789D01*
X433762Y-476998D02*
X440321Y-470438D01*
X453440D01*
X460000Y-476998D01*
Y-503236D01*
X453440Y-509795D01*
X440321D01*
X433762Y-503236D01*
X394404Y-509795D02*
X420643D01*
X394404Y-483557D01*
Y-476998D01*
X400964Y-470438D01*
X414083D01*
X420643Y-476998D01*
X1810442Y425349D02*
Y392552D01*
X1817002Y385992D01*
X1830121D01*
X1836680Y392552D01*
Y425349D01*
X1849800Y385992D02*
X1862919D01*
X1856359D01*
Y425349D01*
X1849800Y418790D01*
X637714Y-1267202D02*
X644274Y-1260643D01*
X657393D01*
X663953Y-1267202D01*
Y-1293440D01*
X657393Y-1300000D01*
X644274D01*
X637714Y-1293440D01*
X624595Y-1300000D02*
X611476D01*
X618036D01*
Y-1260643D01*
X624595Y-1267202D01*
X591797Y-1293440D02*
X585238Y-1300000D01*
X572119D01*
X565559Y-1293440D01*
Y-1267202D01*
X572119Y-1260643D01*
X585238D01*
X591797Y-1267202D01*
Y-1273762D01*
X585238Y-1280321D01*
X565559D01*
X187202Y-858238D02*
X180643Y-851678D01*
Y-838559D01*
X187202Y-832000D01*
X213441D01*
X220000Y-838559D01*
Y-851678D01*
X213441Y-858238D01*
X220000Y-871357D02*
Y-884476D01*
Y-877917D01*
X180643D01*
X187202Y-871357D01*
X180643Y-904155D02*
Y-930393D01*
X187202D01*
X213441Y-904155D01*
X220000D01*
X550308Y-235218D02*
X556867Y-228658D01*
X569987D01*
X576546Y-235218D01*
Y-261456D01*
X569987Y-268016D01*
X556867D01*
X550308Y-261456D01*
X537189Y-268016D02*
X524070D01*
X530629D01*
Y-228658D01*
X537189Y-235218D01*
X580762Y-1147202D02*
X587322Y-1140643D01*
X600441D01*
X607000Y-1147202D01*
Y-1173440D01*
X600441Y-1180000D01*
X587322D01*
X580762Y-1173440D01*
X567643Y-1180000D02*
X554524D01*
X561083D01*
Y-1140643D01*
X567643Y-1147202D01*
X534845D02*
X528285Y-1140643D01*
X515166D01*
X508607Y-1147202D01*
Y-1153762D01*
X515166Y-1160321D01*
X521726D01*
X515166D01*
X508607Y-1166881D01*
Y-1173440D01*
X515166Y-1180000D01*
X528285D01*
X534845Y-1173440D01*
X568518Y-2027202D02*
X575077Y-2020643D01*
X588197D01*
X594756Y-2027202D01*
Y-2053440D01*
X588197Y-2060000D01*
X575077D01*
X568518Y-2053440D01*
X535720Y-2060000D02*
Y-2020643D01*
X555399Y-2040321D01*
X529161D01*
X658328Y-2316510D02*
X664888Y-2309950D01*
X678007D01*
X684566Y-2316510D01*
Y-2342748D01*
X678007Y-2349308D01*
X664888D01*
X658328Y-2342748D01*
X645209Y-2309950D02*
X618971D01*
Y-2316510D01*
X645209Y-2342748D01*
Y-2349308D01*
X492798Y-2324100D02*
X499357Y-2330660D01*
Y-2343779D01*
X492798Y-2350339D01*
X466560D01*
X460000Y-2343779D01*
Y-2330660D01*
X466560Y-2324100D01*
X492798Y-2310981D02*
X499357Y-2304422D01*
Y-2291302D01*
X492798Y-2284743D01*
X486238D01*
X479679Y-2291302D01*
X473119Y-2284743D01*
X466560D01*
X460000Y-2291302D01*
Y-2304422D01*
X466560Y-2310981D01*
X473119D01*
X479679Y-2304422D01*
X486238Y-2310981D01*
X492798D01*
X479679Y-2304422D02*
Y-2291302D01*
X247829Y-2441809D02*
X254389Y-2448369D01*
Y-2461488D01*
X247829Y-2468047D01*
X221591D01*
X215031Y-2461488D01*
Y-2448369D01*
X221591Y-2441809D01*
Y-2428690D02*
X215031Y-2422130D01*
Y-2409011D01*
X221591Y-2402452D01*
X247829D01*
X254389Y-2409011D01*
Y-2422130D01*
X247829Y-2428690D01*
X241270D01*
X234710Y-2422130D01*
Y-2402452D01*
X630833Y-2466596D02*
X637392Y-2460036D01*
X650511D01*
X657071Y-2466596D01*
Y-2492834D01*
X650511Y-2499394D01*
X637392D01*
X630833Y-2492834D01*
X617713Y-2499394D02*
X604594D01*
X611154D01*
Y-2460036D01*
X617713Y-2466596D01*
X584916D02*
X578356Y-2460036D01*
X565237D01*
X558678Y-2466596D01*
Y-2492834D01*
X565237Y-2499394D01*
X578356D01*
X584916Y-2492834D01*
Y-2466596D01*
X443762Y-1503202D02*
X450321Y-1496643D01*
X463440D01*
X470000Y-1503202D01*
Y-1529440D01*
X463440Y-1536000D01*
X450321D01*
X443762Y-1529440D01*
X430643Y-1536000D02*
X417524D01*
X424083D01*
Y-1496643D01*
X430643Y-1503202D01*
X371607Y-1536000D02*
X397845D01*
X371607Y-1509762D01*
Y-1503202D01*
X378166Y-1496643D01*
X391285D01*
X397845Y-1503202D01*
X591817Y-1753202D02*
X598376Y-1746643D01*
X611495D01*
X618055Y-1753202D01*
Y-1779440D01*
X611495Y-1786000D01*
X598376D01*
X591817Y-1779440D01*
X578698Y-1786000D02*
X565579D01*
X572138D01*
Y-1746643D01*
X578698Y-1753202D01*
X519662Y-1746643D02*
X532781Y-1753202D01*
X545900Y-1766321D01*
Y-1779440D01*
X539340Y-1786000D01*
X526221D01*
X519662Y-1779440D01*
Y-1772881D01*
X526221Y-1766321D01*
X545900D01*
X487829Y-1779762D02*
X494389Y-1786321D01*
Y-1799440D01*
X487829Y-1806000D01*
X461591D01*
X455031Y-1799440D01*
Y-1786321D01*
X461591Y-1779762D01*
X455031Y-1766643D02*
Y-1753524D01*
Y-1760083D01*
X494389D01*
X487829Y-1766643D01*
X494389Y-1707607D02*
Y-1733845D01*
X474710D01*
X481270Y-1720726D01*
Y-1714166D01*
X474710Y-1707607D01*
X461591D01*
X455031Y-1714166D01*
Y-1727285D01*
X461591Y-1733845D01*
X254654Y-1816113D02*
X261214Y-1822672D01*
Y-1835792D01*
X254654Y-1842351D01*
X228416D01*
X221856Y-1835792D01*
Y-1822672D01*
X228416Y-1816113D01*
X221856Y-1802994D02*
Y-1789875D01*
Y-1796434D01*
X261214D01*
X254654Y-1802994D01*
Y-1770196D02*
X261214Y-1763636D01*
Y-1750517D01*
X254654Y-1743958D01*
X248094D01*
X241535Y-1750517D01*
X234975Y-1743958D01*
X228416D01*
X221856Y-1750517D01*
Y-1763636D01*
X228416Y-1770196D01*
X234975D01*
X241535Y-1763636D01*
X248094Y-1770196D01*
X254654D01*
X241535Y-1763636D02*
Y-1750517D01*
X643282Y-1853202D02*
X649841Y-1846643D01*
X662960D01*
X669520Y-1853202D01*
Y-1879440D01*
X662960Y-1886000D01*
X649841D01*
X643282Y-1879440D01*
X603924Y-1886000D02*
X630162D01*
X603924Y-1859762D01*
Y-1853202D01*
X610484Y-1846643D01*
X623603D01*
X630162Y-1853202D01*
X590805D02*
X584245Y-1846643D01*
X571126D01*
X564567Y-1853202D01*
Y-1879440D01*
X571126Y-1886000D01*
X584245D01*
X590805Y-1879440D01*
Y-1853202D01*
X1490000Y-2349307D02*
Y-2309950D01*
X1470321D01*
X1463762Y-2316509D01*
Y-2329628D01*
X1470321Y-2336188D01*
X1490000D01*
X1476881D02*
X1463762Y-2349307D01*
X1424404Y-2309950D02*
X1437524Y-2316509D01*
X1450643Y-2329628D01*
Y-2342747D01*
X1444083Y-2349307D01*
X1430964D01*
X1424404Y-2342747D01*
Y-2336188D01*
X1430964Y-2329628D01*
X1450643D01*
X1019142Y-2098960D02*
Y-2059602D01*
X999463D01*
X992904Y-2066162D01*
Y-2079281D01*
X999463Y-2085841D01*
X1019142D01*
X1006023D02*
X992904Y-2098960D01*
X979785Y-2059602D02*
X953547D01*
Y-2066162D01*
X979785Y-2092400D01*
Y-2098960D01*
X865032Y-2101441D02*
Y-2062084D01*
X845353D01*
X838793Y-2068643D01*
Y-2081762D01*
X845353Y-2088322D01*
X865032D01*
X851912D02*
X838793Y-2101441D01*
X825674Y-2068643D02*
X819115Y-2062084D01*
X805995D01*
X799436Y-2068643D01*
Y-2075203D01*
X805995Y-2081762D01*
X799436Y-2088322D01*
Y-2094881D01*
X805995Y-2101441D01*
X819115D01*
X825674Y-2094881D01*
Y-2088322D01*
X819115Y-2081762D01*
X825674Y-2075203D01*
Y-2068643D01*
X819115Y-2081762D02*
X805995D01*
X747480Y-2180000D02*
Y-2140643D01*
X727802D01*
X721242Y-2147202D01*
Y-2160321D01*
X727802Y-2166881D01*
X747480D01*
X734361D02*
X721242Y-2180000D01*
X708123D02*
X695004D01*
X701563D01*
Y-2140643D01*
X708123Y-2147202D01*
X675325Y-2180000D02*
X662206D01*
X668765D01*
Y-2140643D01*
X675325Y-2147202D01*
X215031Y-2326874D02*
X254389D01*
Y-2307195D01*
X247829Y-2300636D01*
X234710D01*
X228151Y-2307195D01*
Y-2326874D01*
Y-2313755D02*
X215031Y-2300636D01*
Y-2287517D02*
Y-2274398D01*
Y-2280957D01*
X254389D01*
X247829Y-2287517D01*
X215031Y-2228481D02*
Y-2254719D01*
X241270Y-2228481D01*
X247829D01*
X254389Y-2235040D01*
Y-2248159D01*
X247829Y-2254719D01*
X1394000Y-2423000D02*
Y-2383643D01*
X1374321D01*
X1367762Y-2390202D01*
Y-2403321D01*
X1374321Y-2409881D01*
X1394000D01*
X1380881D02*
X1367762Y-2423000D01*
X1354643D02*
X1341524D01*
X1348083D01*
Y-2383643D01*
X1354643Y-2390202D01*
X1295607Y-2383643D02*
X1308726Y-2390202D01*
X1321845Y-2403321D01*
Y-2416441D01*
X1315285Y-2423000D01*
X1302166D01*
X1295607Y-2416441D01*
Y-2409881D01*
X1302166Y-2403321D01*
X1321845D01*
X1040063Y-2546882D02*
Y-2507525D01*
X1020384D01*
X1013825Y-2514084D01*
Y-2527203D01*
X1020384Y-2533763D01*
X1040063D01*
X1026944D02*
X1013825Y-2546882D01*
X1000706D02*
X987587D01*
X994146D01*
Y-2507525D01*
X1000706Y-2514084D01*
X967908Y-2507525D02*
X941670D01*
Y-2514084D01*
X967908Y-2540322D01*
Y-2546882D01*
X1399644Y-1636000D02*
Y-1596643D01*
X1379965D01*
X1373406Y-1603202D01*
Y-1616321D01*
X1379965Y-1622881D01*
X1399644D01*
X1386525D02*
X1373406Y-1636000D01*
X1334049D02*
X1360287D01*
X1334049Y-1609762D01*
Y-1603202D01*
X1340608Y-1596643D01*
X1353727D01*
X1360287Y-1603202D01*
X1320929Y-1636000D02*
X1307810D01*
X1314370D01*
Y-1596643D01*
X1320929Y-1603202D01*
X1399644Y-1736000D02*
Y-1696643D01*
X1379965D01*
X1373406Y-1703202D01*
Y-1716321D01*
X1379965Y-1722881D01*
X1399644D01*
X1386525D02*
X1373406Y-1736000D01*
X1334049D02*
X1360287D01*
X1334049Y-1709762D01*
Y-1703202D01*
X1340608Y-1696643D01*
X1353727D01*
X1360287Y-1703202D01*
X1294691Y-1736000D02*
X1320929D01*
X1294691Y-1709762D01*
Y-1703202D01*
X1301251Y-1696643D01*
X1314370D01*
X1320929Y-1703202D01*
X1040000Y-1496000D02*
Y-1456643D01*
X1020321D01*
X1013762Y-1463202D01*
Y-1476321D01*
X1020321Y-1482881D01*
X1040000D01*
X1026881D02*
X1013762Y-1496000D01*
X974404D02*
X1000643D01*
X974404Y-1469762D01*
Y-1463202D01*
X980964Y-1456643D01*
X994083D01*
X1000643Y-1463202D01*
X961285D02*
X954726Y-1456643D01*
X941606D01*
X935047Y-1463202D01*
Y-1469762D01*
X941606Y-1476321D01*
X948166D01*
X941606D01*
X935047Y-1482881D01*
Y-1489440D01*
X941606Y-1496000D01*
X954726D01*
X961285Y-1489440D01*
X870000Y-1496000D02*
Y-1456643D01*
X850321D01*
X843762Y-1463202D01*
Y-1476321D01*
X850321Y-1482881D01*
X870000D01*
X856881D02*
X843762Y-1496000D01*
X804404D02*
X830643D01*
X804404Y-1469762D01*
Y-1463202D01*
X810964Y-1456643D01*
X824083D01*
X830643Y-1463202D01*
X765047Y-1456643D02*
X791285D01*
Y-1476321D01*
X778166Y-1469762D01*
X771606D01*
X765047Y-1476321D01*
Y-1489440D01*
X771606Y-1496000D01*
X784726D01*
X791285Y-1489440D01*
X470000Y-1596000D02*
Y-1556643D01*
X450321D01*
X443762Y-1563202D01*
Y-1576321D01*
X450321Y-1582881D01*
X470000D01*
X456881D02*
X443762Y-1596000D01*
X404404D02*
X430643D01*
X404404Y-1569762D01*
Y-1563202D01*
X410964Y-1556643D01*
X424083D01*
X430643Y-1563202D01*
X391285Y-1556643D02*
X365047D01*
Y-1563202D01*
X391285Y-1589440D01*
Y-1596000D01*
X220000Y-1706000D02*
X259357D01*
Y-1686321D01*
X252798Y-1679762D01*
X239679D01*
X233119Y-1686321D01*
Y-1706000D01*
Y-1692881D02*
X220000Y-1679762D01*
Y-1640404D02*
Y-1666643D01*
X246238Y-1640404D01*
X252798D01*
X259357Y-1646964D01*
Y-1660083D01*
X252798Y-1666643D01*
X226560Y-1627285D02*
X220000Y-1620726D01*
Y-1607607D01*
X226560Y-1601047D01*
X252798D01*
X259357Y-1607607D01*
Y-1620726D01*
X252798Y-1627285D01*
X246238D01*
X239679Y-1620726D01*
Y-1601047D01*
X1402825Y-1816000D02*
Y-1776643D01*
X1383147D01*
X1376587Y-1783202D01*
Y-1796321D01*
X1383147Y-1802881D01*
X1402825D01*
X1389706D02*
X1376587Y-1816000D01*
X1363468Y-1783202D02*
X1356908Y-1776643D01*
X1343789D01*
X1337230Y-1783202D01*
Y-1789762D01*
X1343789Y-1796321D01*
X1350349D01*
X1343789D01*
X1337230Y-1802881D01*
Y-1809440D01*
X1343789Y-1816000D01*
X1356908D01*
X1363468Y-1809440D01*
X1297872Y-1816000D02*
X1324110D01*
X1297872Y-1789762D01*
Y-1783202D01*
X1304432Y-1776643D01*
X1317551D01*
X1324110Y-1783202D01*
X1041000Y-1936000D02*
Y-1896643D01*
X1021321D01*
X1014762Y-1903202D01*
Y-1916321D01*
X1021321Y-1922881D01*
X1041000D01*
X1027881D02*
X1014762Y-1936000D01*
X1001643Y-1903202D02*
X995083Y-1896643D01*
X981964D01*
X975404Y-1903202D01*
Y-1909762D01*
X981964Y-1916321D01*
X988523D01*
X981964D01*
X975404Y-1922881D01*
Y-1929440D01*
X981964Y-1936000D01*
X995083D01*
X1001643Y-1929440D01*
X962285Y-1903202D02*
X955726Y-1896643D01*
X942606D01*
X936047Y-1903202D01*
Y-1909762D01*
X942606Y-1916321D01*
X949166D01*
X942606D01*
X936047Y-1922881D01*
Y-1929440D01*
X942606Y-1936000D01*
X955726D01*
X962285Y-1929440D01*
X1360423Y-350000D02*
Y-310642D01*
X1340744D01*
X1334185Y-317202D01*
Y-330321D01*
X1340744Y-336881D01*
X1360423D01*
X1347304D02*
X1334185Y-350000D01*
X1321066D02*
X1307947D01*
X1314506D01*
Y-310642D01*
X1321066Y-317202D01*
X1288268D02*
X1281708Y-310642D01*
X1268589D01*
X1262030Y-317202D01*
Y-323762D01*
X1268589Y-330321D01*
X1275149D01*
X1268589D01*
X1262030Y-336881D01*
Y-343440D01*
X1268589Y-350000D01*
X1281708D01*
X1288268Y-343440D01*
X894756Y-2442084D02*
Y-2474881D01*
X888196Y-2481441D01*
X875077D01*
X868518Y-2474881D01*
Y-2442084D01*
X855399Y-2448643D02*
X848839Y-2442084D01*
X835720D01*
X829160Y-2448643D01*
Y-2455203D01*
X835720Y-2461762D01*
X842279D01*
X835720D01*
X829160Y-2468322D01*
Y-2474881D01*
X835720Y-2481441D01*
X848839D01*
X855399Y-2474881D01*
X900000Y-1836643D02*
Y-1869440D01*
X893440Y-1876000D01*
X880321D01*
X873762Y-1869440D01*
Y-1836643D01*
X834404D02*
X860643D01*
Y-1856321D01*
X847524Y-1849762D01*
X840964D01*
X834404Y-1856321D01*
Y-1869440D01*
X840964Y-1876000D01*
X854083D01*
X860643Y-1869440D01*
X1586236Y859606D02*
Y898964D01*
X1566557D01*
X1559998Y892404D01*
Y879285D01*
X1566557Y872725D01*
X1586236D01*
X1546879Y898964D02*
X1520641D01*
Y892404D01*
X1546879Y866166D01*
Y859606D01*
X775244Y954000D02*
Y993357D01*
X755565D01*
X749006Y986798D01*
Y973679D01*
X755565Y967119D01*
X775244D01*
X762125D02*
X749006Y954000D01*
X735887Y986798D02*
X729327Y993357D01*
X716208D01*
X709649Y986798D01*
Y980238D01*
X716208Y973679D01*
X722768D01*
X716208D01*
X709649Y967119D01*
Y960560D01*
X716208Y954000D01*
X729327D01*
X735887Y960560D01*
X696529Y986798D02*
X689970Y993357D01*
X676851D01*
X670291Y986798D01*
Y980238D01*
X676851Y973679D01*
X670291Y967119D01*
Y960560D01*
X676851Y954000D01*
X689970D01*
X696529Y960560D01*
Y967119D01*
X689970Y973679D01*
X696529Y980238D01*
Y986798D01*
X689970Y973679D02*
X676851D01*
X1107480Y955992D02*
Y995350D01*
X1087802D01*
X1081242Y988790D01*
Y975671D01*
X1087802Y969111D01*
X1107480D01*
X1094361D02*
X1081242Y955992D01*
X1068123Y988790D02*
X1061563Y995350D01*
X1048444D01*
X1041885Y988790D01*
Y982230D01*
X1048444Y975671D01*
X1055004D01*
X1048444D01*
X1041885Y969111D01*
Y962552D01*
X1048444Y955992D01*
X1061563D01*
X1068123Y962552D01*
X1028765D02*
X1022206Y955992D01*
X1009087D01*
X1002527Y962552D01*
Y988790D01*
X1009087Y995350D01*
X1022206D01*
X1028765Y988790D01*
Y982230D01*
X1022206Y975671D01*
X1002527D01*
X935244Y954000D02*
Y993357D01*
X915565D01*
X909006Y986798D01*
Y973679D01*
X915565Y967119D01*
X935244D01*
X922125D02*
X909006Y954000D01*
X876208D02*
Y993357D01*
X895887Y973679D01*
X869649D01*
X856529Y986798D02*
X849970Y993357D01*
X836851D01*
X830291Y986798D01*
Y960560D01*
X836851Y954000D01*
X849970D01*
X856529Y960560D01*
Y986798D01*
X330000Y-66000D02*
X290643D01*
Y-85679D01*
X297202Y-92238D01*
X310321D01*
X316881Y-85679D01*
Y-66000D01*
X330000Y-125036D02*
X290643D01*
X310321Y-105357D01*
Y-131596D01*
X761242Y208790D02*
X767802Y215350D01*
X780921D01*
X787480Y208790D01*
Y182552D01*
X780921Y175992D01*
X767802D01*
X761242Y182552D01*
X721885Y175992D02*
X748123D01*
X721885Y202230D01*
Y208790D01*
X728444Y215350D01*
X741563D01*
X748123Y208790D01*
X708765Y175992D02*
X695646D01*
X702206D01*
Y215350D01*
X708765Y208790D01*
X968504Y-114008D02*
Y-74650D01*
X948825D01*
X942266Y-81210D01*
Y-94329D01*
X948825Y-100889D01*
X968504D01*
X955385D02*
X942266Y-114008D01*
X929146Y-81210D02*
X922587Y-74650D01*
X909468D01*
X902908Y-81210D01*
Y-87770D01*
X909468Y-94329D01*
X916027D01*
X909468D01*
X902908Y-100889D01*
Y-107448D01*
X909468Y-114008D01*
X922587D01*
X929146Y-107448D01*
X863551Y-74650D02*
X876670Y-81210D01*
X889789Y-94329D01*
Y-107448D01*
X883230Y-114008D01*
X870110D01*
X863551Y-107448D01*
Y-100889D01*
X870110Y-94329D01*
X889789D01*
X667480Y95992D02*
Y135350D01*
X647802D01*
X641242Y128790D01*
Y115671D01*
X647802Y109111D01*
X667480D01*
X654361D02*
X641242Y95992D01*
X628123Y128790D02*
X621563Y135350D01*
X608444D01*
X601885Y128790D01*
Y122230D01*
X608444Y115671D01*
X615004D01*
X608444D01*
X601885Y109111D01*
Y102552D01*
X608444Y95992D01*
X621563D01*
X628123Y102552D01*
X588765Y135350D02*
X562527D01*
Y128790D01*
X588765Y102552D01*
Y95992D01*
X1027480Y205350D02*
Y172552D01*
X1020921Y165992D01*
X1007802D01*
X1001242Y172552D01*
Y205350D01*
X988123Y198790D02*
X981563Y205350D01*
X968444D01*
X961885Y198790D01*
Y192230D01*
X968444Y185671D01*
X961885Y179111D01*
Y172552D01*
X968444Y165992D01*
X981563D01*
X988123Y172552D01*
Y179111D01*
X981563Y185671D01*
X988123Y192230D01*
Y198790D01*
X981563Y185671D02*
X968444D01*
X151242Y755350D02*
X164361D01*
X157802D01*
Y722552D01*
X164361Y715992D01*
X170921D01*
X177480Y722552D01*
X111885Y715992D02*
X138123D01*
X111885Y742230D01*
Y748790D01*
X118444Y755350D01*
X131563D01*
X138123Y748790D01*
X98766Y735671D02*
X72527D01*
X59408Y715992D02*
X46289D01*
X52849D01*
Y755350D01*
X59408Y748790D01*
X141242Y425349D02*
X154361D01*
X147802D01*
Y392552D01*
X154361Y385992D01*
X160921D01*
X167480Y392552D01*
X128123Y418790D02*
X121563Y425349D01*
X108444D01*
X101885Y418790D01*
Y412230D01*
X108444Y405671D01*
X115004D01*
X108444D01*
X101885Y399111D01*
Y392552D01*
X108444Y385992D01*
X121563D01*
X128123Y392552D01*
X88766Y405671D02*
X62527D01*
X49408Y385992D02*
X36289D01*
X42849D01*
Y425349D01*
X49408Y418790D01*
D37*
X1588976Y353600D02*
Y826400D01*
X211024Y353600D02*
X1588976D01*
X211024D02*
Y826400D01*
X1588976D01*
%TF.MD5,21de10d91bc0800e97343ec6c1889023*%
M02*
