G04 Layer_Color=255*
%FSLAX26Y26*%
%MOIN*%
%TF.FileFunction,Pads,Bot*%
%TF.Part,Single*%
G01*
G75*
%TA.AperFunction,SMDPad,CuDef*%
%ADD11R,0.033465X0.051181*%
%TA.AperFunction,ComponentPad*%
%ADD13C,0.157480*%
%ADD14C,0.060000*%
%TA.AperFunction,ViaPad*%
%ADD15C,0.060000*%
%TA.AperFunction,ComponentPad*%
%ADD16C,0.100000*%
%ADD17C,0.047000*%
%ADD18R,0.059055X0.059055*%
%ADD19C,0.059055*%
%ADD20R,0.070866X0.070866*%
%ADD21C,0.070866*%
%TA.AperFunction,SMDPad,CuDef*%
%ADD24R,0.057087X0.045276*%
%ADD25R,0.051181X0.033465*%
%ADD26R,0.020472X0.020472*%
%ADD27O,0.055118X0.017716*%
%ADD28R,0.143701X0.145669*%
%ADD29R,0.024000X0.078740*%
%ADD30R,0.045276X0.057087*%
%ADD31O,0.053150X0.015748*%
%ADD32R,0.055118X0.021654*%
%ADD33R,0.024409X0.024409*%
D11*
X1188536Y-2219976D02*
D03*
X1255464D02*
D03*
X531636Y-980000D02*
D03*
X598564D02*
D03*
X1096535Y180000D02*
D03*
X1163465D02*
D03*
X1163465Y250000D02*
D03*
X1096535D02*
D03*
X691780Y914000D02*
D03*
X758708D02*
D03*
X851780D02*
D03*
X918708D02*
D03*
X1021780D02*
D03*
X1088708D02*
D03*
X1253464Y-1010000D02*
D03*
X1186536D02*
D03*
X1222000Y-300000D02*
D03*
X1155070D02*
D03*
X843464Y-340000D02*
D03*
X776536D02*
D03*
X786536Y-1536000D02*
D03*
X853464D02*
D03*
X594756Y-1586000D02*
D03*
X527826D02*
D03*
X1188536Y-1716000D02*
D03*
X1255464D02*
D03*
X956536Y-1856000D02*
D03*
X1023464D02*
D03*
X1013464Y-650000D02*
D03*
X946536D02*
D03*
X1153070Y-590000D02*
D03*
X1220000D02*
D03*
Y-420000D02*
D03*
X1153070D02*
D03*
X531636Y-370000D02*
D03*
X598564D02*
D03*
X1023464Y-1536000D02*
D03*
X956536D02*
D03*
X1188536Y-1189568D02*
D03*
X1255464D02*
D03*
X1220000Y-509796D02*
D03*
X1153070D02*
D03*
X1188536Y-1616000D02*
D03*
X1255464D02*
D03*
X1014159Y-1264008D02*
D03*
X947231D02*
D03*
X956536Y-940000D02*
D03*
X1023464D02*
D03*
X843464D02*
D03*
X776536D02*
D03*
X1255464Y-2403960D02*
D03*
X1188536D02*
D03*
Y-2326000D02*
D03*
X1255464D02*
D03*
X960183Y-334008D02*
D03*
X1027111D02*
D03*
X1255464Y-1796000D02*
D03*
X1188536D02*
D03*
X951566Y-2461442D02*
D03*
X1018496D02*
D03*
X1013780Y-2140646D02*
D03*
X946850D02*
D03*
X786536Y-2141000D02*
D03*
X853464D02*
D03*
X608496Y-2171442D02*
D03*
X541566D02*
D03*
X1255464Y-1112796D02*
D03*
X1188536D02*
D03*
X714016Y115992D02*
D03*
X780945D02*
D03*
X950945Y-34008D02*
D03*
X884016D02*
D03*
D13*
X1850000Y200000D02*
D03*
X-50000D02*
D03*
X75000Y-2400000D02*
D03*
X1725000D02*
D03*
D14*
X1800000Y0D02*
D03*
Y-100000D02*
D03*
Y-200000D02*
D03*
Y-300000D02*
D03*
Y-400000D02*
D03*
Y-500000D02*
D03*
Y-600000D02*
D03*
Y-700000D02*
D03*
Y-800000D02*
D03*
Y-900000D02*
D03*
Y-1000000D02*
D03*
Y-1100000D02*
D03*
Y-1200000D02*
D03*
Y-1300000D02*
D03*
Y-1400000D02*
D03*
Y-1500000D02*
D03*
Y-1600000D02*
D03*
Y-1700000D02*
D03*
Y-1800000D02*
D03*
Y-1900000D02*
D03*
Y-2000000D02*
D03*
Y-2100000D02*
D03*
Y-2200000D02*
D03*
X1900000Y-100000D02*
D03*
Y-200000D02*
D03*
Y-300000D02*
D03*
Y-400000D02*
D03*
Y-500000D02*
D03*
Y-600000D02*
D03*
Y-700000D02*
D03*
Y-800000D02*
D03*
Y-900000D02*
D03*
Y-1000000D02*
D03*
Y-1100000D02*
D03*
Y-1200000D02*
D03*
Y-1300000D02*
D03*
Y-1400000D02*
D03*
Y-1500000D02*
D03*
Y-1600000D02*
D03*
Y-1700000D02*
D03*
Y-1800000D02*
D03*
Y-1900000D02*
D03*
Y-2000000D02*
D03*
Y-2100000D02*
D03*
Y-2200000D02*
D03*
X0Y0D02*
D03*
X-100000D02*
D03*
Y-100000D02*
D03*
Y-200000D02*
D03*
Y-300000D02*
D03*
Y-400000D02*
D03*
Y-500000D02*
D03*
Y-600000D02*
D03*
Y-700000D02*
D03*
Y-800000D02*
D03*
Y-900000D02*
D03*
Y-1000000D02*
D03*
Y-1100000D02*
D03*
Y-1200000D02*
D03*
Y-1300000D02*
D03*
Y-1400000D02*
D03*
Y-1500000D02*
D03*
Y-1600000D02*
D03*
Y-1700000D02*
D03*
Y-1800000D02*
D03*
Y-1900000D02*
D03*
Y-2000000D02*
D03*
Y-2100000D02*
D03*
Y-2200000D02*
D03*
X0Y-100000D02*
D03*
Y-200000D02*
D03*
Y-300000D02*
D03*
Y-400000D02*
D03*
Y-500000D02*
D03*
Y-600000D02*
D03*
Y-700000D02*
D03*
Y-800000D02*
D03*
Y-900000D02*
D03*
Y-1000000D02*
D03*
Y-1100000D02*
D03*
Y-1200000D02*
D03*
Y-1300000D02*
D03*
Y-1400000D02*
D03*
Y-1500000D02*
D03*
Y-1600000D02*
D03*
Y-1700000D02*
D03*
Y-1800000D02*
D03*
Y-1900000D02*
D03*
Y-2000000D02*
D03*
Y-2100000D02*
D03*
Y-2200000D02*
D03*
X1900000Y0D02*
D03*
D15*
X711614Y-740000D02*
D03*
D16*
X1436200Y590000D02*
D03*
X363800D02*
D03*
D17*
X525700D02*
D03*
X1274300Y588400D02*
D03*
D18*
X150000Y0D02*
D03*
D19*
Y-100000D02*
D03*
Y-200000D02*
D03*
Y-300000D02*
D03*
D20*
X1440551Y-2156000D02*
D03*
X1540551D02*
D03*
X359449D02*
D03*
X259449D02*
D03*
Y-1124897D02*
D03*
X359449D02*
D03*
X1440551D02*
D03*
X1540551D02*
D03*
D21*
X1150000Y-166000D02*
D03*
X1050000D02*
D03*
X950000D02*
D03*
X850000D02*
D03*
X750000D02*
D03*
X650000D02*
D03*
D24*
X280000Y-664568D02*
D03*
Y-735434D02*
D03*
X363800Y-540568D02*
D03*
Y-611434D02*
D03*
X280000Y-891432D02*
D03*
Y-820566D02*
D03*
X363800Y-1030188D02*
D03*
Y-959322D02*
D03*
X311856Y-1825745D02*
D03*
Y-1754879D02*
D03*
X405032Y-1791434D02*
D03*
Y-1720568D02*
D03*
X311856Y-2456874D02*
D03*
Y-2386008D02*
D03*
X557315Y-2350339D02*
D03*
Y-2279473D02*
D03*
D25*
X280000Y-1037078D02*
D03*
Y-970150D02*
D03*
X310000Y-1699464D02*
D03*
Y-1632536D02*
D03*
X315032Y-2314906D02*
D03*
Y-2247976D02*
D03*
X280000Y-528694D02*
D03*
Y-595622D02*
D03*
D26*
X537047Y-304008D02*
D03*
X568543D02*
D03*
X534976Y-914008D02*
D03*
X566471D02*
D03*
X557314Y-1526000D02*
D03*
X525818D02*
D03*
X570780Y-2103960D02*
D03*
X539284D02*
D03*
D27*
X1016142Y-1010434D02*
D03*
Y-1036024D02*
D03*
Y-1061614D02*
D03*
Y-1087204D02*
D03*
Y-1112796D02*
D03*
Y-1138386D02*
D03*
Y-1163976D02*
D03*
Y-1189568D02*
D03*
X783858Y-1010434D02*
D03*
Y-1036024D02*
D03*
Y-1061614D02*
D03*
Y-1087204D02*
D03*
Y-1112796D02*
D03*
Y-1138386D02*
D03*
Y-1163976D02*
D03*
Y-1189568D02*
D03*
X786858Y-1792568D02*
D03*
Y-1766976D02*
D03*
Y-1741386D02*
D03*
Y-1715796D02*
D03*
Y-1690204D02*
D03*
Y-1664614D02*
D03*
Y-1639024D02*
D03*
Y-1613434D02*
D03*
X1019142Y-1792568D02*
D03*
Y-1766976D02*
D03*
Y-1741386D02*
D03*
Y-1715796D02*
D03*
Y-1690204D02*
D03*
Y-1664614D02*
D03*
Y-1639024D02*
D03*
Y-1613434D02*
D03*
X783858Y-2395568D02*
D03*
Y-2369976D02*
D03*
Y-2344386D02*
D03*
Y-2318796D02*
D03*
Y-2293204D02*
D03*
Y-2267614D02*
D03*
Y-2242024D02*
D03*
Y-2216434D02*
D03*
X1016142Y-2395568D02*
D03*
Y-2369976D02*
D03*
Y-2344386D02*
D03*
Y-2318796D02*
D03*
Y-2293204D02*
D03*
Y-2267614D02*
D03*
Y-2242024D02*
D03*
Y-2216434D02*
D03*
Y-408614D02*
D03*
Y-434204D02*
D03*
Y-459796D02*
D03*
Y-485386D02*
D03*
Y-510976D02*
D03*
Y-536568D02*
D03*
Y-562158D02*
D03*
Y-587748D02*
D03*
X783858Y-408614D02*
D03*
Y-434204D02*
D03*
Y-459796D02*
D03*
Y-485386D02*
D03*
Y-510976D02*
D03*
Y-536568D02*
D03*
Y-562158D02*
D03*
Y-587748D02*
D03*
D28*
X900000Y-1100000D02*
D03*
X903000Y-1703000D02*
D03*
X900000Y-2306000D02*
D03*
Y-498182D02*
D03*
D29*
X526088Y747360D02*
D03*
X565488D02*
D03*
X604888D02*
D03*
X644288D02*
D03*
X683688D02*
D03*
X723088D02*
D03*
X762488D02*
D03*
X801888D02*
D03*
X841288D02*
D03*
X880688D02*
D03*
X920088D02*
D03*
X959488D02*
D03*
X998888D02*
D03*
X1038288D02*
D03*
X1077688D02*
D03*
X1117088D02*
D03*
X1156488D02*
D03*
X1195888D02*
D03*
X1235288D02*
D03*
X1274688D02*
D03*
X525700Y432640D02*
D03*
X565100D02*
D03*
X604500D02*
D03*
X643900D02*
D03*
X683300D02*
D03*
X722700D02*
D03*
X762100D02*
D03*
X801500D02*
D03*
X840900D02*
D03*
X880300D02*
D03*
X919700D02*
D03*
X959100D02*
D03*
X998500D02*
D03*
X1037900D02*
D03*
X1077300D02*
D03*
X1116700D02*
D03*
X1156100D02*
D03*
X1195500D02*
D03*
X1234900D02*
D03*
X1274300D02*
D03*
D30*
X527566Y-1691000D02*
D03*
X598432D02*
D03*
X714566Y-1866000D02*
D03*
X785432D02*
D03*
X585432Y-484204D02*
D03*
X514566D02*
D03*
X785432Y-660000D02*
D03*
X714566D02*
D03*
X585432Y-1087204D02*
D03*
X514566D02*
D03*
X785432Y-1270000D02*
D03*
X714566D02*
D03*
X709598Y-2471442D02*
D03*
X780464D02*
D03*
X842047Y195992D02*
D03*
X912913D02*
D03*
D31*
X1247078Y172818D02*
D03*
Y198410D02*
D03*
Y224000D02*
D03*
Y249590D02*
D03*
Y275180D02*
D03*
X1426212Y172818D02*
D03*
Y198410D02*
D03*
Y224000D02*
D03*
Y249590D02*
D03*
Y275180D02*
D03*
D32*
X980984Y38590D02*
D03*
Y75992D02*
D03*
Y113394D02*
D03*
X856968D02*
D03*
Y75992D02*
D03*
Y38590D02*
D03*
D33*
X714566Y-2347716D02*
D03*
Y-2312283D02*
D03*
%TF.MD5,54f182ea21a21f4ee31a07e55a822724*%
M02*
