G04 Layer_Color=16711935*
%FSLAX26Y26*%
%MOIN*%
%TF.FileFunction,Soldermask,Bot*%
%TF.Part,Single*%
G01*
G75*
%TA.AperFunction,SMDPad,CuDef*%
%ADD39R,0.041465X0.059181*%
%TA.AperFunction,ComponentPad*%
%ADD40C,0.165480*%
%ADD41C,0.068000*%
%TA.AperFunction,ViaPad*%
%ADD42C,0.068000*%
%TA.AperFunction,ComponentPad*%
%ADD43C,0.108000*%
%ADD44C,0.055000*%
%ADD45R,0.067055X0.067055*%
%ADD46C,0.067055*%
%ADD47R,0.078866X0.078866*%
%ADD48C,0.078866*%
%TA.AperFunction,ViaPad*%
%ADD49C,0.058000*%
%ADD50C,0.027685*%
%TA.AperFunction,SMDPad,CuDef*%
%ADD53R,0.065087X0.053276*%
%ADD54R,0.059181X0.041465*%
%ADD55R,0.028472X0.028472*%
%ADD56O,0.063118X0.025716*%
%ADD57R,0.151701X0.153669*%
%ADD58R,0.032000X0.086740*%
%ADD59R,0.053276X0.065087*%
%ADD60O,0.061150X0.023748*%
%ADD61R,0.063118X0.029654*%
%ADD62R,0.032409X0.032409*%
D39*
X1188536Y-2219976D02*
D03*
X1255464D02*
D03*
X531636Y-980000D02*
D03*
X598564D02*
D03*
X1096535Y180000D02*
D03*
X1163465D02*
D03*
X1163465Y250000D02*
D03*
X1096535D02*
D03*
X691780Y914000D02*
D03*
X758708D02*
D03*
X851780D02*
D03*
X918708D02*
D03*
X1021780D02*
D03*
X1088708D02*
D03*
X1253464Y-1010000D02*
D03*
X1186536D02*
D03*
X1222000Y-300000D02*
D03*
X1155070D02*
D03*
X843464Y-340000D02*
D03*
X776536D02*
D03*
X786536Y-1536000D02*
D03*
X853464D02*
D03*
X594756Y-1586000D02*
D03*
X527826D02*
D03*
X1188536Y-1716000D02*
D03*
X1255464D02*
D03*
X956536Y-1856000D02*
D03*
X1023464D02*
D03*
X1013464Y-650000D02*
D03*
X946536D02*
D03*
X1153070Y-590000D02*
D03*
X1220000D02*
D03*
Y-420000D02*
D03*
X1153070D02*
D03*
X531636Y-370000D02*
D03*
X598564D02*
D03*
X1023464Y-1536000D02*
D03*
X956536D02*
D03*
X1188536Y-1189568D02*
D03*
X1255464D02*
D03*
X1220000Y-509796D02*
D03*
X1153070D02*
D03*
X1188536Y-1616000D02*
D03*
X1255464D02*
D03*
X1014159Y-1264008D02*
D03*
X947231D02*
D03*
X956536Y-940000D02*
D03*
X1023464D02*
D03*
X843464D02*
D03*
X776536D02*
D03*
X1255464Y-2403960D02*
D03*
X1188536D02*
D03*
Y-2326000D02*
D03*
X1255464D02*
D03*
X960183Y-334008D02*
D03*
X1027111D02*
D03*
X1255464Y-1796000D02*
D03*
X1188536D02*
D03*
X951566Y-2461442D02*
D03*
X1018496D02*
D03*
X1013780Y-2140646D02*
D03*
X946850D02*
D03*
X786536Y-2141000D02*
D03*
X853464D02*
D03*
X608496Y-2171442D02*
D03*
X541566D02*
D03*
X1255464Y-1112796D02*
D03*
X1188536D02*
D03*
X714016Y115992D02*
D03*
X780945D02*
D03*
X950945Y-34008D02*
D03*
X884016D02*
D03*
D40*
X1850000Y200000D02*
D03*
X-50000D02*
D03*
X75000Y-2400000D02*
D03*
X1725000D02*
D03*
D41*
X1800000Y0D02*
D03*
Y-100000D02*
D03*
Y-200000D02*
D03*
Y-300000D02*
D03*
Y-400000D02*
D03*
Y-500000D02*
D03*
Y-600000D02*
D03*
Y-700000D02*
D03*
Y-800000D02*
D03*
Y-900000D02*
D03*
Y-1000000D02*
D03*
Y-1100000D02*
D03*
Y-1200000D02*
D03*
Y-1300000D02*
D03*
Y-1400000D02*
D03*
Y-1500000D02*
D03*
Y-1600000D02*
D03*
Y-1700000D02*
D03*
Y-1800000D02*
D03*
Y-1900000D02*
D03*
Y-2000000D02*
D03*
Y-2100000D02*
D03*
Y-2200000D02*
D03*
X1900000Y-100000D02*
D03*
Y-200000D02*
D03*
Y-300000D02*
D03*
Y-400000D02*
D03*
Y-500000D02*
D03*
Y-600000D02*
D03*
Y-700000D02*
D03*
Y-800000D02*
D03*
Y-900000D02*
D03*
Y-1000000D02*
D03*
Y-1100000D02*
D03*
Y-1200000D02*
D03*
Y-1300000D02*
D03*
Y-1400000D02*
D03*
Y-1500000D02*
D03*
Y-1600000D02*
D03*
Y-1700000D02*
D03*
Y-1800000D02*
D03*
Y-1900000D02*
D03*
Y-2000000D02*
D03*
Y-2100000D02*
D03*
Y-2200000D02*
D03*
X0Y0D02*
D03*
X-100000D02*
D03*
Y-100000D02*
D03*
Y-200000D02*
D03*
Y-300000D02*
D03*
Y-400000D02*
D03*
Y-500000D02*
D03*
Y-600000D02*
D03*
Y-700000D02*
D03*
Y-800000D02*
D03*
Y-900000D02*
D03*
Y-1000000D02*
D03*
Y-1100000D02*
D03*
Y-1200000D02*
D03*
Y-1300000D02*
D03*
Y-1400000D02*
D03*
Y-1500000D02*
D03*
Y-1600000D02*
D03*
Y-1700000D02*
D03*
Y-1800000D02*
D03*
Y-1900000D02*
D03*
Y-2000000D02*
D03*
Y-2100000D02*
D03*
Y-2200000D02*
D03*
X0Y-100000D02*
D03*
Y-200000D02*
D03*
Y-300000D02*
D03*
Y-400000D02*
D03*
Y-500000D02*
D03*
Y-600000D02*
D03*
Y-700000D02*
D03*
Y-800000D02*
D03*
Y-900000D02*
D03*
Y-1000000D02*
D03*
Y-1100000D02*
D03*
Y-1200000D02*
D03*
Y-1300000D02*
D03*
Y-1400000D02*
D03*
Y-1500000D02*
D03*
Y-1600000D02*
D03*
Y-1700000D02*
D03*
Y-1800000D02*
D03*
Y-1900000D02*
D03*
Y-2000000D02*
D03*
Y-2100000D02*
D03*
Y-2200000D02*
D03*
X1900000Y0D02*
D03*
D42*
X711614Y-740000D02*
D03*
D43*
X1436200Y590000D02*
D03*
X363800D02*
D03*
D44*
X525700D02*
D03*
X1274300Y588400D02*
D03*
D45*
X150000Y0D02*
D03*
D46*
Y-100000D02*
D03*
Y-200000D02*
D03*
Y-300000D02*
D03*
D47*
X1440551Y-2156000D02*
D03*
X1540551D02*
D03*
X359449D02*
D03*
X259449D02*
D03*
Y-1124897D02*
D03*
X359449D02*
D03*
X1440551D02*
D03*
X1540551D02*
D03*
D48*
X1150000Y-166000D02*
D03*
X1050000D02*
D03*
X950000D02*
D03*
X850000D02*
D03*
X750000D02*
D03*
X650000D02*
D03*
D49*
X693748Y1035992D02*
D03*
X854804Y1034000D02*
D03*
X1027480Y1035992D02*
D03*
X1255694Y-1546196D02*
D03*
X707480Y-2544008D02*
D03*
X714566Y-1946000D02*
D03*
Y-1340000D02*
D03*
X1320000Y-2330000D02*
D03*
X1186536Y-1860000D02*
D03*
X1370000Y-410000D02*
D03*
Y-509796D02*
D03*
X1420000Y120000D02*
D03*
X631000Y1079000D02*
D03*
X607000Y637000D02*
D03*
X1260000Y-2143678D02*
D03*
X1076000D02*
D03*
X1080000Y-1540000D02*
D03*
X1100000Y-360000D02*
D03*
X1090000Y-940000D02*
D03*
X1247078Y-870000D02*
D03*
X620000Y-600000D02*
D03*
X903000Y-360000D02*
D03*
X1100000Y-2450000D02*
D03*
X150000Y-2250000D02*
D03*
X1303180Y530000D02*
D03*
X990000D02*
D03*
X1200000Y660000D02*
D03*
X410000Y-1637426D02*
D03*
X1444566Y-1716000D02*
D03*
X640000Y-2006000D02*
D03*
X485032Y-2421442D02*
D03*
X1076000Y85992D02*
D03*
X440000Y-1030063D02*
D03*
X290000Y-454874D02*
D03*
X1440766Y-1006000D02*
D03*
X760000Y25000D02*
D03*
X1340000Y340000D02*
D03*
D50*
X943306Y-1056694D02*
D03*
X900000D02*
D03*
X856692D02*
D03*
X943306Y-1100000D02*
D03*
X900000D02*
D03*
X856692D02*
D03*
X943306Y-1143308D02*
D03*
X900000D02*
D03*
X856692D02*
D03*
X859692Y-1746308D02*
D03*
X903000D02*
D03*
X946306D02*
D03*
X859692Y-1703000D02*
D03*
X903000D02*
D03*
X946306D02*
D03*
X859692Y-1659694D02*
D03*
X903000D02*
D03*
X946306D02*
D03*
X856692Y-2349308D02*
D03*
X900000D02*
D03*
X943306D02*
D03*
X856692Y-2306000D02*
D03*
X900000D02*
D03*
X943306D02*
D03*
X856692Y-2262694D02*
D03*
X900000D02*
D03*
X943306D02*
D03*
Y-454874D02*
D03*
X900000D02*
D03*
X856692D02*
D03*
X943306Y-498182D02*
D03*
X900000D02*
D03*
X856692D02*
D03*
X943306Y-541488D02*
D03*
X900000D02*
D03*
X856692D02*
D03*
D53*
X280000Y-664568D02*
D03*
Y-735434D02*
D03*
X363800Y-540568D02*
D03*
Y-611434D02*
D03*
X280000Y-891432D02*
D03*
Y-820566D02*
D03*
X363800Y-1030188D02*
D03*
Y-959322D02*
D03*
X311856Y-1825745D02*
D03*
Y-1754879D02*
D03*
X405032Y-1791434D02*
D03*
Y-1720568D02*
D03*
X311856Y-2456874D02*
D03*
Y-2386008D02*
D03*
X557315Y-2350339D02*
D03*
Y-2279473D02*
D03*
D54*
X280000Y-1037078D02*
D03*
Y-970150D02*
D03*
X310000Y-1699464D02*
D03*
Y-1632536D02*
D03*
X315032Y-2314906D02*
D03*
Y-2247976D02*
D03*
X280000Y-528694D02*
D03*
Y-595622D02*
D03*
D55*
X537047Y-304008D02*
D03*
X568543D02*
D03*
X534976Y-914008D02*
D03*
X566471D02*
D03*
X557314Y-1526000D02*
D03*
X525818D02*
D03*
X570780Y-2103960D02*
D03*
X539284D02*
D03*
D56*
X1016142Y-1010434D02*
D03*
Y-1036024D02*
D03*
Y-1061614D02*
D03*
Y-1087204D02*
D03*
Y-1112796D02*
D03*
Y-1138386D02*
D03*
Y-1163976D02*
D03*
Y-1189568D02*
D03*
X783858Y-1010434D02*
D03*
Y-1036024D02*
D03*
Y-1061614D02*
D03*
Y-1087204D02*
D03*
Y-1112796D02*
D03*
Y-1138386D02*
D03*
Y-1163976D02*
D03*
Y-1189568D02*
D03*
X786858Y-1792568D02*
D03*
Y-1766976D02*
D03*
Y-1741386D02*
D03*
Y-1715796D02*
D03*
Y-1690204D02*
D03*
Y-1664614D02*
D03*
Y-1639024D02*
D03*
Y-1613434D02*
D03*
X1019142Y-1792568D02*
D03*
Y-1766976D02*
D03*
Y-1741386D02*
D03*
Y-1715796D02*
D03*
Y-1690204D02*
D03*
Y-1664614D02*
D03*
Y-1639024D02*
D03*
Y-1613434D02*
D03*
X783858Y-2395568D02*
D03*
Y-2369976D02*
D03*
Y-2344386D02*
D03*
Y-2318796D02*
D03*
Y-2293204D02*
D03*
Y-2267614D02*
D03*
Y-2242024D02*
D03*
Y-2216434D02*
D03*
X1016142Y-2395568D02*
D03*
Y-2369976D02*
D03*
Y-2344386D02*
D03*
Y-2318796D02*
D03*
Y-2293204D02*
D03*
Y-2267614D02*
D03*
Y-2242024D02*
D03*
Y-2216434D02*
D03*
Y-408614D02*
D03*
Y-434204D02*
D03*
Y-459796D02*
D03*
Y-485386D02*
D03*
Y-510976D02*
D03*
Y-536568D02*
D03*
Y-562158D02*
D03*
Y-587748D02*
D03*
X783858Y-408614D02*
D03*
Y-434204D02*
D03*
Y-459796D02*
D03*
Y-485386D02*
D03*
Y-510976D02*
D03*
Y-536568D02*
D03*
Y-562158D02*
D03*
Y-587748D02*
D03*
D57*
X900000Y-1100000D02*
D03*
X903000Y-1703000D02*
D03*
X900000Y-2306000D02*
D03*
Y-498182D02*
D03*
D58*
X526088Y747360D02*
D03*
X565488D02*
D03*
X604888D02*
D03*
X644288D02*
D03*
X683688D02*
D03*
X723088D02*
D03*
X762488D02*
D03*
X801888D02*
D03*
X841288D02*
D03*
X880688D02*
D03*
X920088D02*
D03*
X959488D02*
D03*
X998888D02*
D03*
X1038288D02*
D03*
X1077688D02*
D03*
X1117088D02*
D03*
X1156488D02*
D03*
X1195888D02*
D03*
X1235288D02*
D03*
X1274688D02*
D03*
X525700Y432640D02*
D03*
X565100D02*
D03*
X604500D02*
D03*
X643900D02*
D03*
X683300D02*
D03*
X722700D02*
D03*
X762100D02*
D03*
X801500D02*
D03*
X840900D02*
D03*
X880300D02*
D03*
X919700D02*
D03*
X959100D02*
D03*
X998500D02*
D03*
X1037900D02*
D03*
X1077300D02*
D03*
X1116700D02*
D03*
X1156100D02*
D03*
X1195500D02*
D03*
X1234900D02*
D03*
X1274300D02*
D03*
D59*
X527566Y-1691000D02*
D03*
X598432D02*
D03*
X714566Y-1866000D02*
D03*
X785432D02*
D03*
X585432Y-484204D02*
D03*
X514566D02*
D03*
X785432Y-660000D02*
D03*
X714566D02*
D03*
X585432Y-1087204D02*
D03*
X514566D02*
D03*
X785432Y-1270000D02*
D03*
X714566D02*
D03*
X709598Y-2471442D02*
D03*
X780464D02*
D03*
X842047Y195992D02*
D03*
X912913D02*
D03*
D60*
X1247078Y172818D02*
D03*
Y198410D02*
D03*
Y224000D02*
D03*
Y249590D02*
D03*
Y275180D02*
D03*
X1426212Y172818D02*
D03*
Y198410D02*
D03*
Y224000D02*
D03*
Y249590D02*
D03*
Y275180D02*
D03*
D61*
X980984Y38590D02*
D03*
Y75992D02*
D03*
Y113394D02*
D03*
X856968D02*
D03*
Y75992D02*
D03*
Y38590D02*
D03*
D62*
X714566Y-2347716D02*
D03*
Y-2312283D02*
D03*
%TF.MD5,b613194b9cd69efa57d06fdd30bb1805*%
M02*
