G04 Layer_Physical_Order=3*
G04 Layer_Color=36540*
%FSLAX26Y26*%
%MOIN*%
%TF.FileFunction,Copper,L3,Inr,Signal*%
%TF.Part,Single*%
G01*
G75*
%TA.AperFunction,Conductor*%
%ADD12C,0.010000*%
%TA.AperFunction,ComponentPad*%
%ADD13C,0.157480*%
%ADD14C,0.060000*%
%TA.AperFunction,ViaPad*%
%ADD15C,0.060000*%
%TA.AperFunction,ComponentPad*%
%ADD16C,0.100000*%
%ADD17C,0.047000*%
%ADD18R,0.059055X0.059055*%
%ADD19C,0.059055*%
%ADD20R,0.070866X0.070866*%
%ADD21C,0.070866*%
%TA.AperFunction,ViaPad*%
%ADD22C,0.050000*%
%ADD23C,0.019685*%
D12*
X447630Y-1973063D02*
X717566Y-2243000D01*
X293000Y-1357874D02*
X443000Y-1507874D01*
X714614Y-1652225D02*
Y-1643000D01*
X150000Y-100000D02*
X293000Y-243000D01*
Y-1357874D02*
Y-243000D01*
X150000Y-100000D02*
Y0D01*
X447630Y-1973063D02*
Y-1933063D01*
X486000Y-1643000D02*
X714614D01*
X443000Y-1600000D02*
X486000Y-1643000D01*
X443000Y-1933063D02*
Y-1600000D01*
Y-1507874D01*
X1250078Y-1773000D02*
Y-1573922D01*
X1410000Y-1414000D01*
Y-1331000D01*
D13*
X1850000Y200000D02*
D03*
X-50000D02*
D03*
X75000Y-2400000D02*
D03*
X1725000D02*
D03*
D14*
X1800000Y0D02*
D03*
Y-100000D02*
D03*
Y-200000D02*
D03*
Y-300000D02*
D03*
Y-400000D02*
D03*
Y-500000D02*
D03*
Y-600000D02*
D03*
Y-700000D02*
D03*
Y-800000D02*
D03*
Y-900000D02*
D03*
Y-1000000D02*
D03*
Y-1100000D02*
D03*
Y-1200000D02*
D03*
Y-1300000D02*
D03*
Y-1400000D02*
D03*
Y-1500000D02*
D03*
Y-1600000D02*
D03*
Y-1700000D02*
D03*
Y-1800000D02*
D03*
Y-1900000D02*
D03*
Y-2000000D02*
D03*
Y-2100000D02*
D03*
Y-2200000D02*
D03*
X1900000Y-100000D02*
D03*
Y-200000D02*
D03*
Y-300000D02*
D03*
Y-400000D02*
D03*
Y-500000D02*
D03*
Y-600000D02*
D03*
Y-700000D02*
D03*
Y-800000D02*
D03*
Y-900000D02*
D03*
Y-1000000D02*
D03*
Y-1100000D02*
D03*
Y-1200000D02*
D03*
Y-1300000D02*
D03*
Y-1400000D02*
D03*
Y-1500000D02*
D03*
Y-1600000D02*
D03*
Y-1700000D02*
D03*
Y-1800000D02*
D03*
Y-1900000D02*
D03*
Y-2000000D02*
D03*
Y-2100000D02*
D03*
Y-2200000D02*
D03*
X0Y0D02*
D03*
X-100000D02*
D03*
Y-100000D02*
D03*
Y-200000D02*
D03*
Y-300000D02*
D03*
Y-400000D02*
D03*
Y-500000D02*
D03*
Y-600000D02*
D03*
Y-700000D02*
D03*
Y-800000D02*
D03*
Y-900000D02*
D03*
Y-1000000D02*
D03*
Y-1100000D02*
D03*
Y-1200000D02*
D03*
Y-1300000D02*
D03*
Y-1400000D02*
D03*
Y-1500000D02*
D03*
Y-1600000D02*
D03*
Y-1700000D02*
D03*
Y-1800000D02*
D03*
Y-1900000D02*
D03*
Y-2000000D02*
D03*
Y-2100000D02*
D03*
Y-2200000D02*
D03*
X0Y-100000D02*
D03*
Y-200000D02*
D03*
Y-300000D02*
D03*
Y-400000D02*
D03*
Y-500000D02*
D03*
Y-600000D02*
D03*
Y-700000D02*
D03*
Y-800000D02*
D03*
Y-900000D02*
D03*
Y-1000000D02*
D03*
Y-1100000D02*
D03*
Y-1200000D02*
D03*
Y-1300000D02*
D03*
Y-1400000D02*
D03*
Y-1500000D02*
D03*
Y-1600000D02*
D03*
Y-1700000D02*
D03*
Y-1800000D02*
D03*
Y-1900000D02*
D03*
Y-2000000D02*
D03*
Y-2100000D02*
D03*
Y-2200000D02*
D03*
X1900000Y0D02*
D03*
D15*
X714614Y-1643000D02*
D03*
D16*
X1524200Y293000D02*
D03*
X451800D02*
D03*
D17*
X613700D02*
D03*
X1362300Y291400D02*
D03*
D18*
X150000Y0D02*
D03*
D19*
Y-100000D02*
D03*
Y-200000D02*
D03*
Y-300000D02*
D03*
D20*
X262449Y-2027897D02*
D03*
X362449D02*
D03*
X1443551D02*
D03*
X1543551D02*
D03*
D21*
X1153000Y-1069000D02*
D03*
X1053000D02*
D03*
X953000D02*
D03*
X853000D02*
D03*
X753000D02*
D03*
X653000D02*
D03*
D22*
X734000Y668000D02*
D03*
X695000Y722000D02*
D03*
X895000Y666000D02*
D03*
X1064000Y675000D02*
D03*
X717566Y-2243000D02*
D03*
X695000Y340000D02*
D03*
X1093000Y-1843000D02*
D03*
X1250078Y-1773000D02*
D03*
X623000Y-1503000D02*
D03*
X906000Y-1263000D02*
D03*
X1288000Y363000D02*
D03*
X443000Y-1933063D02*
D03*
X293000Y-1357874D02*
D03*
X763000Y-878000D02*
D03*
X1345000Y-2050000D02*
D03*
X1077928Y-1257598D02*
D03*
Y-875000D02*
D03*
X1362688Y-642598D02*
D03*
X1153000Y-698779D02*
D03*
X1365000Y-125000D02*
D03*
X1135000Y235000D02*
D03*
X1410000Y-1311000D02*
D03*
Y-1414000D02*
D03*
X1443766Y-1909000D02*
D03*
D23*
X946307Y-1959693D02*
D03*
X903000D02*
D03*
X859693D02*
D03*
X946307Y-2003000D02*
D03*
X903000D02*
D03*
X859693D02*
D03*
X946307Y-2046307D02*
D03*
X903000D02*
D03*
X859693D02*
D03*
Y-1444488D02*
D03*
X903000D02*
D03*
X946307D02*
D03*
X859693Y-1401181D02*
D03*
X903000D02*
D03*
X946307D02*
D03*
X859693Y-1357874D02*
D03*
X903000D02*
D03*
X946307D02*
D03*
%TF.MD5,58894ebfe93a0367dbf6bb2e89d15c36*%
M02*
